<?xml version="1.0" encoding="UTF-8" standalone="no"?>
<!DOCTYPE svg PUBLIC "-//W3C//DTD SVG 1.1//EN"
 "http://www.w3.org/Graphics/SVG/1.1/DTD/svg11.dtd">
<!-- Generated by graphviz version 2.43.0 (0)
 -->
<!-- Title: /home/kali/projects/vsomeip/implementation/helper/1.55/boost/asio/detail/reactive_socket_service_base_ext_local.hpp Pages: 1 -->
<svg width="2935pt" height="139pt"
 viewBox="0.00 0.00 2934.50 139.00" xmlns="http://www.w3.org/2000/svg" xmlns:xlink="http://www.w3.org/1999/xlink">
<g id="graph0" class="graph" transform="scale(1 1) rotate(0) translate(4 135)">
<title>/home/kali/projects/vsomeip/implementation/helper/1.55/boost/asio/detail/reactive_socket_service_base_ext_local.hpp</title>
<polygon fill="white" stroke="transparent" points="-4,4 -4,-135 2930.5,-135 2930.5,4 -4,4"/>
<!-- Node1 -->
<g id="node1" class="node">
<title>Node1</title>
<g id="a_node1"><a xlink:title=" ">
<polygon fill="#bfbfbf" stroke="black" points="1344,-67.5 1344,-130.5 1500,-130.5 1500,-67.5 1344,-67.5"/>
<text text-anchor="start" x="1352" y="-118.5" font-family="Helvetica,sans-Serif" font-size="10.00">/home/kali/projects</text>
<text text-anchor="start" x="1352" y="-107.5" font-family="Helvetica,sans-Serif" font-size="10.00">/vsomeip/implementation</text>
<text text-anchor="start" x="1352" y="-96.5" font-family="Helvetica,sans-Serif" font-size="10.00">/helper/1.55/boost/asio</text>
<text text-anchor="start" x="1352" y="-85.5" font-family="Helvetica,sans-Serif" font-size="10.00">/detail/reactive_socket</text>
<text text-anchor="middle" x="1422" y="-74.5" font-family="Helvetica,sans-Serif" font-size="10.00">_service_base_ext_local.hpp</text>
</a>
</g>
</g>
<!-- Node2 -->
<g id="node2" class="node">
<title>Node2</title>
<g id="a_node2"><a xlink:title=" ">
<polygon fill="white" stroke="#bfbfbf" points="0,-6 0,-25 60,-25 60,-6 0,-6"/>
<text text-anchor="middle" x="30" y="-13" font-family="Helvetica,sans-Serif" font-size="10.00">iostream</text>
</a>
</g>
</g>
<!-- Node1&#45;&gt;Node2 -->
<g id="edge1" class="edge">
<title>Node1&#45;&gt;Node2</title>
<path fill="none" stroke="midnightblue" d="M1343.72,-97.26C1093.52,-94.41 315.21,-81.61 69,-31 65.75,-30.33 62.4,-29.43 59.1,-28.41"/>
<polygon fill="midnightblue" stroke="midnightblue" points="60.09,-25.05 49.49,-25.08 57.8,-31.66 60.09,-25.05"/>
</g>
<!-- Node3 -->
<g id="node3" class="node">
<title>Node3</title>
<g id="a_node3"><a xlink:title=" ">
<polygon fill="white" stroke="#bfbfbf" points="78.5,-6 78.5,-25 229.5,-25 229.5,-6 78.5,-6"/>
<text text-anchor="middle" x="154" y="-13" font-family="Helvetica,sans-Serif" font-size="10.00">boost/asio/detail/config.hpp</text>
</a>
</g>
</g>
<!-- Node1&#45;&gt;Node3 -->
<g id="edge2" class="edge">
<title>Node1&#45;&gt;Node3</title>
<path fill="none" stroke="midnightblue" d="M1343.81,-96.67C1153.82,-92.75 652.99,-78.4 238,-31 228.29,-29.89 217.99,-28.39 208.07,-26.77"/>
<polygon fill="midnightblue" stroke="midnightblue" points="208.34,-23.27 197.89,-25.05 207.17,-30.17 208.34,-23.27"/>
</g>
<!-- Node4 -->
<g id="node4" class="node">
<title>Node4</title>
<g id="a_node4"><a xlink:title=" ">
<polygon fill="white" stroke="#bfbfbf" points="247.5,-6 247.5,-25 366.5,-25 366.5,-6 247.5,-6"/>
<text text-anchor="middle" x="307" y="-13" font-family="Helvetica,sans-Serif" font-size="10.00">boost/asio/buffer.hpp</text>
</a>
</g>
</g>
<!-- Node1&#45;&gt;Node4 -->
<g id="edge3" class="edge">
<title>Node1&#45;&gt;Node4</title>
<path fill="none" stroke="midnightblue" d="M1343.79,-96.9C1169.2,-93.58 734.74,-80.59 375,-31 367.52,-29.97 359.63,-28.57 351.98,-27.06"/>
<polygon fill="midnightblue" stroke="midnightblue" points="352.62,-23.62 342.12,-25.01 351.2,-30.47 352.62,-23.62"/>
</g>
<!-- Node5 -->
<g id="node5" class="node">
<title>Node5</title>
<g id="a_node5"><a xlink:title=" ">
<polygon fill="white" stroke="#bfbfbf" points="384.5,-6 384.5,-25 497.5,-25 497.5,-6 384.5,-6"/>
<text text-anchor="middle" x="441" y="-13" font-family="Helvetica,sans-Serif" font-size="10.00">boost/asio/error.hpp</text>
</a>
</g>
</g>
<!-- Node1&#45;&gt;Node5 -->
<g id="edge4" class="edge">
<title>Node1&#45;&gt;Node5</title>
<path fill="none" stroke="midnightblue" d="M1343.86,-96.05C1185.32,-91.25 814.74,-75.84 507,-31 500.06,-29.99 492.76,-28.66 485.65,-27.21"/>
<polygon fill="midnightblue" stroke="midnightblue" points="485.93,-23.7 475.42,-25.04 484.48,-30.54 485.93,-23.7"/>
</g>
<!-- Node6 -->
<g id="node6" class="node">
<title>Node6</title>
<g id="a_node6"><a xlink:title=" ">
<polygon fill="white" stroke="#bfbfbf" points="516,-6 516,-25 656,-25 656,-6 516,-6"/>
<text text-anchor="middle" x="586" y="-13" font-family="Helvetica,sans-Serif" font-size="10.00">boost/asio/io_service.hpp</text>
</a>
</g>
</g>
<!-- Node1&#45;&gt;Node6 -->
<g id="edge5" class="edge">
<title>Node1&#45;&gt;Node6</title>
<path fill="none" stroke="midnightblue" d="M1343.81,-93.49C1206.17,-85.02 911.77,-64.49 665,-31 656.37,-29.83 647.24,-28.36 638.38,-26.82"/>
<polygon fill="midnightblue" stroke="midnightblue" points="638.98,-23.37 628.52,-25.06 637.75,-30.26 638.98,-23.37"/>
</g>
<!-- Node7 -->
<g id="node7" class="node">
<title>Node7</title>
<g id="a_node7"><a xlink:title=" ">
<polygon fill="white" stroke="#bfbfbf" points="674.5,-6 674.5,-25 825.5,-25 825.5,-6 674.5,-6"/>
<text text-anchor="middle" x="750" y="-13" font-family="Helvetica,sans-Serif" font-size="10.00">boost/asio/socket_base.hpp</text>
</a>
</g>
</g>
<!-- Node1&#45;&gt;Node7 -->
<g id="edge6" class="edge">
<title>Node1&#45;&gt;Node7</title>
<path fill="none" stroke="midnightblue" d="M1343.82,-90.54C1230.99,-79.44 1016.06,-57.06 834,-31 825.17,-29.74 815.83,-28.26 806.72,-26.75"/>
<polygon fill="midnightblue" stroke="midnightblue" points="807.02,-23.25 796.58,-25.03 805.85,-30.15 807.02,-23.25"/>
</g>
<!-- Node8 -->
<g id="node8" class="node">
<title>Node8</title>
<g id="a_node8"><a xlink:title=" ">
<polygon fill="white" stroke="#bfbfbf" points="843.5,-6 843.5,-25 1012.5,-25 1012.5,-6 843.5,-6"/>
<text text-anchor="middle" x="928" y="-13" font-family="Helvetica,sans-Serif" font-size="10.00">boost/asio/detail/addressof.hpp</text>
</a>
</g>
</g>
<!-- Node1&#45;&gt;Node8 -->
<g id="edge7" class="edge">
<title>Node1&#45;&gt;Node8</title>
<path fill="none" stroke="midnightblue" d="M1344,-85.13C1245.95,-68.96 1079.66,-41.52 989.89,-26.71"/>
<polygon fill="midnightblue" stroke="midnightblue" points="990.3,-23.23 979.86,-25.06 989.16,-30.14 990.3,-23.23"/>
</g>
<!-- Node9 -->
<g id="node9" class="node">
<title>Node9</title>
<g id="a_node9"><a xlink:title=" ">
<polygon fill="white" stroke="#bfbfbf" points="1030.5,-0.5 1030.5,-30.5 1161.5,-30.5 1161.5,-0.5 1030.5,-0.5"/>
<text text-anchor="start" x="1038.5" y="-18.5" font-family="Helvetica,sans-Serif" font-size="10.00">boost/asio/detail/buffer</text>
<text text-anchor="middle" x="1096" y="-7.5" font-family="Helvetica,sans-Serif" font-size="10.00">_sequence_adapter.hpp</text>
</a>
</g>
</g>
<!-- Node1&#45;&gt;Node9 -->
<g id="edge8" class="edge">
<title>Node1&#45;&gt;Node9</title>
<path fill="none" stroke="midnightblue" d="M1343.91,-78.48C1288.35,-64.59 1214.52,-46.13 1161.91,-32.98"/>
<polygon fill="midnightblue" stroke="midnightblue" points="1162.57,-29.53 1152.02,-30.5 1160.87,-36.32 1162.57,-29.53"/>
</g>
<!-- Node10 -->
<g id="node10" class="node">
<title>Node10</title>
<g id="a_node10"><a xlink:title=" ">
<polygon fill="white" stroke="#bfbfbf" points="1180,-0.5 1180,-30.5 1320,-30.5 1320,-0.5 1180,-0.5"/>
<text text-anchor="start" x="1188" y="-18.5" font-family="Helvetica,sans-Serif" font-size="10.00">boost/asio/detail/reactive</text>
<text text-anchor="middle" x="1250" y="-7.5" font-family="Helvetica,sans-Serif" font-size="10.00">_null_buffers_op.hpp</text>
</a>
</g>
</g>
<!-- Node1&#45;&gt;Node10 -->
<g id="edge9" class="edge">
<title>Node1&#45;&gt;Node10</title>
<path fill="none" stroke="midnightblue" d="M1357.46,-67.42C1334.42,-56.5 1309.19,-44.54 1288.96,-34.96"/>
<polygon fill="midnightblue" stroke="midnightblue" points="1290.29,-31.72 1279.76,-30.6 1287.3,-38.05 1290.29,-31.72"/>
</g>
<!-- Node11 -->
<g id="node11" class="node">
<title>Node11</title>
<g id="a_node11"><a xlink:title=" ">
<polygon fill="white" stroke="#bfbfbf" points="1338.5,-0.5 1338.5,-30.5 1505.5,-30.5 1505.5,-0.5 1338.5,-0.5"/>
<text text-anchor="start" x="1346.5" y="-18.5" font-family="Helvetica,sans-Serif" font-size="10.00">boost/asio/detail/reactive</text>
<text text-anchor="middle" x="1422" y="-7.5" font-family="Helvetica,sans-Serif" font-size="10.00">_socket_recv_op_ext_local.hpp</text>
</a>
</g>
</g>
<!-- Node1&#45;&gt;Node11 -->
<g id="edge10" class="edge">
<title>Node1&#45;&gt;Node11</title>
<path fill="none" stroke="midnightblue" d="M1422,-67.19C1422,-58.41 1422,-48.98 1422,-40.66"/>
<polygon fill="midnightblue" stroke="midnightblue" points="1425.5,-40.52 1422,-30.52 1418.5,-40.52 1425.5,-40.52"/>
</g>
<!-- Node12 -->
<g id="node12" class="node">
<title>Node12</title>
<g id="a_node12"><a xlink:title=" ">
<polygon fill="white" stroke="#bfbfbf" points="1524,-0.5 1524,-30.5 1712,-30.5 1712,-0.5 1524,-0.5"/>
<text text-anchor="start" x="1532" y="-18.5" font-family="Helvetica,sans-Serif" font-size="10.00">boost/asio/detail/reactive</text>
<text text-anchor="middle" x="1618" y="-7.5" font-family="Helvetica,sans-Serif" font-size="10.00">_socket_recvmsg_op_ext_local.hpp</text>
</a>
</g>
</g>
<!-- Node1&#45;&gt;Node12 -->
<g id="edge11" class="edge">
<title>Node1&#45;&gt;Node12</title>
<path fill="none" stroke="midnightblue" d="M1495.54,-67.42C1522.27,-56.3 1551.6,-44.11 1574.85,-34.44"/>
<polygon fill="midnightblue" stroke="midnightblue" points="1576.2,-37.67 1584.09,-30.6 1573.51,-31.21 1576.2,-37.67"/>
</g>
<!-- Node13 -->
<g id="node13" class="node">
<title>Node13</title>
<g id="a_node13"><a xlink:title=" ">
<polygon fill="white" stroke="#bfbfbf" points="1730,-0.5 1730,-30.5 1870,-30.5 1870,-0.5 1730,-0.5"/>
<text text-anchor="start" x="1738" y="-18.5" font-family="Helvetica,sans-Serif" font-size="10.00">boost/asio/detail/reactive</text>
<text text-anchor="middle" x="1800" y="-7.5" font-family="Helvetica,sans-Serif" font-size="10.00">_socket_send_op.hpp</text>
</a>
</g>
</g>
<!-- Node1&#45;&gt;Node13 -->
<g id="edge12" class="edge">
<title>Node1&#45;&gt;Node13</title>
<path fill="none" stroke="midnightblue" d="M1500.32,-81.11C1566.35,-66.88 1660.2,-46.64 1725.21,-32.63"/>
<polygon fill="midnightblue" stroke="midnightblue" points="1725.94,-36.05 1734.98,-30.52 1724.47,-29.2 1725.94,-36.05"/>
</g>
<!-- Node14 -->
<g id="node14" class="node">
<title>Node14</title>
<g id="a_node14"><a xlink:title=" ">
<polygon fill="white" stroke="#bfbfbf" points="1888.5,-6 1888.5,-25 2043.5,-25 2043.5,-6 1888.5,-6"/>
<text text-anchor="middle" x="1966" y="-13" font-family="Helvetica,sans-Serif" font-size="10.00">boost/asio/detail/reactor.hpp</text>
</a>
</g>
</g>
<!-- Node1&#45;&gt;Node14 -->
<g id="edge13" class="edge">
<title>Node1&#45;&gt;Node14</title>
<path fill="none" stroke="midnightblue" d="M1500.1,-87.02C1591.15,-74.12 1746.1,-51.81 1879,-31 1887.68,-29.64 1896.85,-28.16 1905.84,-26.68"/>
<polygon fill="midnightblue" stroke="midnightblue" points="1906.59,-30.11 1915.88,-25.03 1905.44,-23.2 1906.59,-30.11"/>
</g>
<!-- Node15 -->
<g id="node15" class="node">
<title>Node15</title>
<g id="a_node15"><a xlink:title=" ">
<polygon fill="white" stroke="#bfbfbf" points="2061.5,-0.5 2061.5,-30.5 2196.5,-30.5 2196.5,-0.5 2061.5,-0.5"/>
<text text-anchor="start" x="2069.5" y="-18.5" font-family="Helvetica,sans-Serif" font-size="10.00">boost/asio/detail/reactor</text>
<text text-anchor="middle" x="2129" y="-7.5" font-family="Helvetica,sans-Serif" font-size="10.00">_op.hpp</text>
</a>
</g>
</g>
<!-- Node1&#45;&gt;Node15 -->
<g id="edge14" class="edge">
<title>Node1&#45;&gt;Node15</title>
<path fill="none" stroke="midnightblue" d="M1500.47,-91.77C1618.13,-81.96 1847.4,-61.05 2051.11,-31.22"/>
<polygon fill="midnightblue" stroke="midnightblue" points="2051.71,-34.67 2061.09,-29.74 2050.69,-27.74 2051.71,-34.67"/>
</g>
<!-- Node16 -->
<g id="node16" class="node">
<title>Node16</title>
<g id="a_node16"><a xlink:title=" ">
<polygon fill="white" stroke="#bfbfbf" points="2215,-0.5 2215,-30.5 2347,-30.5 2347,-0.5 2215,-0.5"/>
<text text-anchor="start" x="2223" y="-18.5" font-family="Helvetica,sans-Serif" font-size="10.00">boost/asio/detail/socket</text>
<text text-anchor="middle" x="2281" y="-7.5" font-family="Helvetica,sans-Serif" font-size="10.00">_holder.hpp</text>
</a>
</g>
</g>
<!-- Node1&#45;&gt;Node16 -->
<g id="edge15" class="edge">
<title>Node1&#45;&gt;Node16</title>
<path fill="none" stroke="midnightblue" d="M1500.2,-94.06C1639.79,-86.43 1941.14,-67.23 2204.66,-31.09"/>
<polygon fill="midnightblue" stroke="midnightblue" points="2205.38,-34.53 2214.81,-29.69 2204.42,-27.59 2205.38,-34.53"/>
</g>
<!-- Node17 -->
<g id="node17" class="node">
<title>Node17</title>
<g id="a_node17"><a xlink:title=" ">
<polygon fill="white" stroke="#bfbfbf" points="2365,-0.5 2365,-30.5 2497,-30.5 2497,-0.5 2365,-0.5"/>
<text text-anchor="start" x="2373" y="-18.5" font-family="Helvetica,sans-Serif" font-size="10.00">boost/asio/detail/socket</text>
<text text-anchor="middle" x="2431" y="-7.5" font-family="Helvetica,sans-Serif" font-size="10.00">_ops_ext_local.hpp</text>
</a>
</g>
</g>
<!-- Node1&#45;&gt;Node17 -->
<g id="edge16" class="edge">
<title>Node1&#45;&gt;Node17</title>
<path fill="none" stroke="midnightblue" d="M1500.12,-95.55C1659.27,-89.87 2032.55,-73.04 2354.82,-31.05"/>
<polygon fill="midnightblue" stroke="midnightblue" points="2355.36,-34.51 2364.82,-29.74 2354.45,-27.57 2355.36,-34.51"/>
</g>
<!-- Node18 -->
<g id="node18" class="node">
<title>Node18</title>
<g id="a_node18"><a xlink:title=" ">
<polygon fill="white" stroke="#bfbfbf" points="2515,-0.5 2515,-30.5 2647,-30.5 2647,-0.5 2515,-0.5"/>
<text text-anchor="start" x="2523" y="-18.5" font-family="Helvetica,sans-Serif" font-size="10.00">boost/asio/detail/socket</text>
<text text-anchor="middle" x="2581" y="-7.5" font-family="Helvetica,sans-Serif" font-size="10.00">_types.hpp</text>
</a>
</g>
</g>
<!-- Node1&#45;&gt;Node18 -->
<g id="edge17" class="edge">
<title>Node1&#45;&gt;Node18</title>
<path fill="none" stroke="midnightblue" d="M1500.21,-96.63C1677.45,-92.77 2123.27,-78.86 2504.69,-31.06"/>
<polygon fill="midnightblue" stroke="midnightblue" points="2505.34,-34.5 2514.82,-29.78 2504.46,-27.56 2505.34,-34.5"/>
</g>
<!-- Node19 -->
<g id="node19" class="node">
<title>Node19</title>
<g id="a_node19"><a xlink:title=" ">
<polygon fill="white" stroke="#bfbfbf" points="2665,-0.5 2665,-30.5 2789,-30.5 2789,-0.5 2665,-0.5"/>
<text text-anchor="start" x="2673" y="-18.5" font-family="Helvetica,sans-Serif" font-size="10.00">boost/asio/detail/push</text>
<text text-anchor="middle" x="2727" y="-7.5" font-family="Helvetica,sans-Serif" font-size="10.00">_options.hpp</text>
</a>
</g>
</g>
<!-- Node1&#45;&gt;Node19 -->
<g id="edge18" class="edge">
<title>Node1&#45;&gt;Node19</title>
<path fill="none" stroke="midnightblue" d="M1500.33,-97.74C1694.56,-96.23 2213.95,-86.95 2654.68,-31.04"/>
<polygon fill="midnightblue" stroke="midnightblue" points="2655.27,-34.49 2664.75,-29.75 2654.39,-27.55 2655.27,-34.49"/>
</g>
<!-- Node20 -->
<g id="node20" class="node">
<title>Node20</title>
<g id="a_node20"><a xlink:title=" ">
<polygon fill="white" stroke="#bfbfbf" points="2807.5,-0.5 2807.5,-30.5 2926.5,-30.5 2926.5,-0.5 2807.5,-0.5"/>
<text text-anchor="start" x="2815.5" y="-18.5" font-family="Helvetica,sans-Serif" font-size="10.00">boost/asio/detail/pop</text>
<text text-anchor="middle" x="2867" y="-7.5" font-family="Helvetica,sans-Serif" font-size="10.00">_options.hpp</text>
</a>
</g>
</g>
<!-- Node1&#45;&gt;Node20 -->
<g id="edge19" class="edge">
<title>Node1&#45;&gt;Node20</title>
<path fill="none" stroke="midnightblue" d="M1500.35,-98.52C1709.64,-98.97 2299.12,-94.17 2796.99,-30.97"/>
<polygon fill="midnightblue" stroke="midnightblue" points="2797.78,-34.4 2807.26,-29.66 2796.9,-27.46 2797.78,-34.4"/>
</g>
</g>
</svg>
