<?xml version="1.0" encoding="UTF-8" standalone="no"?>
<!DOCTYPE svg PUBLIC "-//W3C//DTD SVG 1.1//EN"
 "http://www.w3.org/Graphics/SVG/1.1/DTD/svg11.dtd">
<!-- Generated by graphviz version 2.43.0 (0)
 -->
<!-- Title: /home/kali/projects/vsomeip/implementation/helper/1.55/boost/asio/detail/socket_ops_ext_local.hpp Pages: 1 -->
<svg width="183pt" height="128pt"
 viewBox="0.00 0.00 183.00 128.00" xmlns="http://www.w3.org/2000/svg" xmlns:xlink="http://www.w3.org/1999/xlink">
<g id="graph0" class="graph" transform="scale(1 1) rotate(0) translate(4 124)">
<title>/home/kali/projects/vsomeip/implementation/helper/1.55/boost/asio/detail/socket_ops_ext_local.hpp</title>
<polygon fill="white" stroke="transparent" points="-4,4 -4,-124 179,-124 179,4 -4,4"/>
<!-- Node1 -->
<g id="node1" class="node">
<title>Node1</title>
<g id="a_node1"><a xlink:title=" ">
<polygon fill="#bfbfbf" stroke="black" points="0,-67.5 0,-119.5 175,-119.5 175,-67.5 0,-67.5"/>
<text text-anchor="start" x="8" y="-107.5" font-family="Helvetica,sans-Serif" font-size="10.00">/home/kali/projects</text>
<text text-anchor="start" x="8" y="-96.5" font-family="Helvetica,sans-Serif" font-size="10.00">/vsomeip/implementation</text>
<text text-anchor="start" x="8" y="-85.5" font-family="Helvetica,sans-Serif" font-size="10.00">/helper/1.55/boost/asio</text>
<text text-anchor="middle" x="87.5" y="-74.5" font-family="Helvetica,sans-Serif" font-size="10.00">/detail/socket_ops_ext_local.hpp</text>
</a>
</g>
</g>
<!-- Node2 -->
<g id="node2" class="node">
<title>Node2</title>
<g id="a_node2"><a xlink:title=" ">
<polygon fill="white" stroke="#bfbfbf" points="21.5,-0.5 21.5,-30.5 153.5,-30.5 153.5,-0.5 21.5,-0.5"/>
<text text-anchor="start" x="29.5" y="-18.5" font-family="Helvetica,sans-Serif" font-size="10.00">boost/asio/detail/socket</text>
<text text-anchor="middle" x="87.5" y="-7.5" font-family="Helvetica,sans-Serif" font-size="10.00">_ops.hpp</text>
</a>
</g>
</g>
<!-- Node1&#45;&gt;Node2 -->
<g id="edge1" class="edge">
<title>Node1&#45;&gt;Node2</title>
<path fill="none" stroke="midnightblue" d="M87.5,-67.19C87.5,-58.79 87.5,-49.44 87.5,-41.09"/>
<polygon fill="midnightblue" stroke="midnightblue" points="91,-40.85 87.5,-30.85 84,-40.85 91,-40.85"/>
</g>
</g>
</svg>
