<?xml version="1.0" encoding="UTF-8" standalone="no"?>
<!DOCTYPE svg PUBLIC "-//W3C//DTD SVG 1.1//EN"
 "http://www.w3.org/Graphics/SVG/1.1/DTD/svg11.dtd">
<!-- Generated by graphviz version 2.43.0 (0)
 -->
<!-- Title: /home/kali/projects/vsomeip/implementation/helper/1.55/boost/asio/basic_stream_socket_ext.hpp Pages: 1 -->
<svg width="1444pt" height="139pt"
 viewBox="0.00 0.00 1444.00 139.00" xmlns="http://www.w3.org/2000/svg" xmlns:xlink="http://www.w3.org/1999/xlink">
<g id="graph0" class="graph" transform="scale(1 1) rotate(0) translate(4 135)">
<title>/home/kali/projects/vsomeip/implementation/helper/1.55/boost/asio/basic_stream_socket_ext.hpp</title>
<polygon fill="white" stroke="transparent" points="-4,4 -4,-135 1440,-135 1440,4 -4,4"/>
<!-- Node1 -->
<g id="node1" class="node">
<title>Node1</title>
<g id="a_node1"><a xlink:title=" ">
<polygon fill="#bfbfbf" stroke="black" points="643.5,-78.5 643.5,-130.5 807.5,-130.5 807.5,-78.5 643.5,-78.5"/>
<text text-anchor="start" x="651.5" y="-118.5" font-family="Helvetica,sans-Serif" font-size="10.00">/home/kali/projects</text>
<text text-anchor="start" x="651.5" y="-107.5" font-family="Helvetica,sans-Serif" font-size="10.00">/vsomeip/implementation</text>
<text text-anchor="start" x="651.5" y="-96.5" font-family="Helvetica,sans-Serif" font-size="10.00">/helper/1.55/boost/asio</text>
<text text-anchor="middle" x="725.5" y="-85.5" font-family="Helvetica,sans-Serif" font-size="10.00">/basic_stream_socket_ext.hpp</text>
</a>
</g>
</g>
<!-- Node2 -->
<g id="node2" class="node">
<title>Node2</title>
<g id="a_node2"><a xlink:title=" ">
<polygon fill="white" stroke="#bfbfbf" points="0,-11.5 0,-30.5 151,-30.5 151,-11.5 0,-11.5"/>
<text text-anchor="middle" x="75.5" y="-18.5" font-family="Helvetica,sans-Serif" font-size="10.00">boost/asio/detail/config.hpp</text>
</a>
</g>
</g>
<!-- Node1&#45;&gt;Node2 -->
<g id="edge1" class="edge">
<title>Node1&#45;&gt;Node2</title>
<path fill="none" stroke="midnightblue" d="M643.03,-97.8C532.43,-89.42 330.2,-71.47 159.5,-42 145.61,-39.6 130.59,-36.27 117.15,-33.01"/>
<polygon fill="midnightblue" stroke="midnightblue" points="117.76,-29.55 107.22,-30.55 116.08,-36.35 117.76,-29.55"/>
</g>
<!-- Node3 -->
<g id="node3" class="node">
<title>Node3</title>
<g id="a_node3"><a xlink:title=" ">
<polygon fill="white" stroke="#bfbfbf" points="169,-11.5 169,-30.5 222,-30.5 222,-11.5 169,-11.5"/>
<text text-anchor="middle" x="195.5" y="-18.5" font-family="Helvetica,sans-Serif" font-size="10.00">cstddef</text>
</a>
</g>
</g>
<!-- Node1&#45;&gt;Node3 -->
<g id="edge2" class="edge">
<title>Node1&#45;&gt;Node3</title>
<path fill="none" stroke="midnightblue" d="M643.44,-102.79C543.69,-99.78 371.38,-87.65 231.5,-42 226.66,-40.42 221.72,-38.17 217.12,-35.75"/>
<polygon fill="midnightblue" stroke="midnightblue" points="218.7,-32.61 208.28,-30.68 215.22,-38.69 218.7,-32.61"/>
</g>
<!-- Node4 -->
<g id="node4" class="node">
<title>Node4</title>
<g id="a_node4"><a xlink:title=" ">
<polygon fill="white" stroke="#bfbfbf" points="240.5,-11.5 240.5,-30.5 392.5,-30.5 392.5,-11.5 240.5,-11.5"/>
<text text-anchor="middle" x="316.5" y="-18.5" font-family="Helvetica,sans-Serif" font-size="10.00">boost/asio/async_result.hpp</text>
</a>
</g>
</g>
<!-- Node1&#45;&gt;Node4 -->
<g id="edge3" class="edge">
<title>Node1&#45;&gt;Node4</title>
<path fill="none" stroke="midnightblue" d="M643.41,-88.94C577.79,-77.05 483.55,-59.43 401.5,-42 388.39,-39.22 374.21,-35.97 361.25,-32.91"/>
<polygon fill="midnightblue" stroke="midnightblue" points="361.7,-29.42 351.16,-30.52 360.08,-36.23 361.7,-29.42"/>
</g>
<!-- Node5 -->
<g id="node5" class="node">
<title>Node5</title>
<g id="a_node5"><a xlink:title=" ">
<polygon fill="white" stroke="#bfbfbf" points="411,-11.5 411,-30.5 564,-30.5 564,-11.5 411,-11.5"/>
<text text-anchor="middle" x="487.5" y="-18.5" font-family="Helvetica,sans-Serif" font-size="10.00">boost/asio/basic_socket.hpp</text>
</a>
</g>
</g>
<!-- Node1&#45;&gt;Node5 -->
<g id="edge4" class="edge">
<title>Node1&#45;&gt;Node5</title>
<path fill="none" stroke="midnightblue" d="M652.47,-78.49C609.07,-63.63 556.02,-45.47 522.01,-33.82"/>
<polygon fill="midnightblue" stroke="midnightblue" points="523.11,-30.49 512.52,-30.57 520.84,-37.12 523.11,-30.49"/>
</g>
<!-- Node6 -->
<g id="node6" class="node">
<title>Node6</title>
<g id="a_node6"><a xlink:title=" ">
<polygon fill="white" stroke="#bfbfbf" points="582,-0.5 582,-41.5 719,-41.5 719,-0.5 582,-0.5"/>
<text text-anchor="start" x="590" y="-29.5" font-family="Helvetica,sans-Serif" font-size="10.00">boost/asio/detail/handler</text>
<text text-anchor="start" x="590" y="-18.5" font-family="Helvetica,sans-Serif" font-size="10.00">_type_requirements_ext</text>
<text text-anchor="middle" x="650.5" y="-7.5" font-family="Helvetica,sans-Serif" font-size="10.00">_local.hpp</text>
</a>
</g>
</g>
<!-- Node1&#45;&gt;Node6 -->
<g id="edge5" class="edge">
<title>Node1&#45;&gt;Node6</title>
<path fill="none" stroke="midnightblue" d="M702.18,-78.16C693.71,-68.96 684.12,-58.53 675.51,-49.18"/>
<polygon fill="midnightblue" stroke="midnightblue" points="677.91,-46.62 668.56,-41.63 672.76,-51.36 677.91,-46.62"/>
</g>
<!-- Node7 -->
<g id="node7" class="node">
<title>Node7</title>
<g id="a_node7"><a xlink:title=" ">
<polygon fill="white" stroke="#bfbfbf" points="737.5,-6 737.5,-36 865.5,-36 865.5,-6 737.5,-6"/>
<text text-anchor="start" x="745.5" y="-24" font-family="Helvetica,sans-Serif" font-size="10.00">boost/asio/detail/throw</text>
<text text-anchor="middle" x="801.5" y="-13" font-family="Helvetica,sans-Serif" font-size="10.00">_error.hpp</text>
</a>
</g>
</g>
<!-- Node1&#45;&gt;Node7 -->
<g id="edge6" class="edge">
<title>Node1&#45;&gt;Node7</title>
<path fill="none" stroke="midnightblue" d="M749.13,-78.16C759.41,-67.14 771.33,-54.35 781.2,-43.77"/>
<polygon fill="midnightblue" stroke="midnightblue" points="784.03,-45.87 788.29,-36.17 778.91,-41.09 784.03,-45.87"/>
</g>
<!-- Node8 -->
<g id="node8" class="node">
<title>Node8</title>
<g id="a_node8"><a xlink:title=" ">
<polygon fill="white" stroke="#bfbfbf" points="884,-11.5 884,-30.5 997,-30.5 997,-11.5 884,-11.5"/>
<text text-anchor="middle" x="940.5" y="-18.5" font-family="Helvetica,sans-Serif" font-size="10.00">boost/asio/error.hpp</text>
</a>
</g>
</g>
<!-- Node1&#45;&gt;Node8 -->
<g id="edge7" class="edge">
<title>Node1&#45;&gt;Node8</title>
<path fill="none" stroke="midnightblue" d="M791.47,-78.49C830.34,-63.76 877.78,-45.78 908.53,-34.12"/>
<polygon fill="midnightblue" stroke="midnightblue" points="909.79,-37.38 917.9,-30.57 907.31,-30.84 909.79,-37.38"/>
</g>
<!-- Node9 -->
<g id="node9" class="node">
<title>Node9</title>
<g id="a_node9"><a xlink:title=" ">
<polygon fill="white" stroke="#bfbfbf" points="1015,-6 1015,-36 1156,-36 1156,-6 1015,-6"/>
<text text-anchor="start" x="1023" y="-24" font-family="Helvetica,sans-Serif" font-size="10.00">boost/asio/stream_socket</text>
<text text-anchor="middle" x="1085.5" y="-13" font-family="Helvetica,sans-Serif" font-size="10.00">_service_ext.hpp</text>
</a>
</g>
</g>
<!-- Node1&#45;&gt;Node9 -->
<g id="edge8" class="edge">
<title>Node1&#45;&gt;Node9</title>
<path fill="none" stroke="midnightblue" d="M807.73,-86.24C863.84,-74.28 939.79,-57.74 1006.5,-42 1011.37,-40.85 1016.4,-39.64 1021.45,-38.4"/>
<polygon fill="midnightblue" stroke="midnightblue" points="1022.29,-41.8 1031.16,-36 1020.61,-35 1022.29,-41.8"/>
</g>
<!-- Node10 -->
<g id="node10" class="node">
<title>Node10</title>
<g id="a_node10"><a xlink:title=" ">
<polygon fill="white" stroke="#bfbfbf" points="1174.5,-6 1174.5,-36 1298.5,-36 1298.5,-6 1174.5,-6"/>
<text text-anchor="start" x="1182.5" y="-24" font-family="Helvetica,sans-Serif" font-size="10.00">boost/asio/detail/push</text>
<text text-anchor="middle" x="1236.5" y="-13" font-family="Helvetica,sans-Serif" font-size="10.00">_options.hpp</text>
</a>
</g>
</g>
<!-- Node1&#45;&gt;Node10 -->
<g id="edge9" class="edge">
<title>Node1&#45;&gt;Node10</title>
<path fill="none" stroke="midnightblue" d="M807.57,-95.4C896.39,-85.85 1041.89,-67.92 1165.5,-42 1170.26,-41 1175.18,-39.86 1180.09,-38.64"/>
<polygon fill="midnightblue" stroke="midnightblue" points="1181.33,-41.93 1190.13,-36.04 1179.57,-35.15 1181.33,-41.93"/>
</g>
<!-- Node11 -->
<g id="node11" class="node">
<title>Node11</title>
<g id="a_node11"><a xlink:title=" ">
<polygon fill="white" stroke="#bfbfbf" points="1317,-6 1317,-36 1436,-36 1436,-6 1317,-6"/>
<text text-anchor="start" x="1325" y="-24" font-family="Helvetica,sans-Serif" font-size="10.00">boost/asio/detail/pop</text>
<text text-anchor="middle" x="1376.5" y="-13" font-family="Helvetica,sans-Serif" font-size="10.00">_options.hpp</text>
</a>
</g>
</g>
<!-- Node1&#45;&gt;Node11 -->
<g id="edge10" class="edge">
<title>Node1&#45;&gt;Node11</title>
<path fill="none" stroke="midnightblue" d="M807.63,-99.41C920.96,-92.72 1131.27,-76.57 1307.5,-42 1312.42,-41.03 1317.5,-39.88 1322.57,-38.62"/>
<polygon fill="midnightblue" stroke="midnightblue" points="1323.46,-42 1332.24,-36.08 1321.68,-35.23 1323.46,-42"/>
</g>
</g>
</svg>
