<?xml version="1.0" encoding="UTF-8" standalone="no"?>
<!DOCTYPE svg PUBLIC "-//W3C//DTD SVG 1.1//EN"
 "http://www.w3.org/Graphics/SVG/1.1/DTD/svg11.dtd">
<!-- Generated by graphviz version 2.43.0 (0)
 -->
<!-- Title: /home/kali/projects/vsomeip/implementation/helper/1.55/boost/asio/detail/reactive_socket_service_ext.hpp Pages: 1 -->
<svg width="184pt" height="261pt"
 viewBox="0.00 0.00 184.00 261.00" xmlns="http://www.w3.org/2000/svg" xmlns:xlink="http://www.w3.org/1999/xlink">
<g id="graph0" class="graph" transform="scale(1 1) rotate(0) translate(4 257)">
<title>/home/kali/projects/vsomeip/implementation/helper/1.55/boost/asio/detail/reactive_socket_service_ext.hpp</title>
<polygon fill="white" stroke="transparent" points="-4,4 -4,-257 180,-257 180,4 -4,4"/>
<!-- Node1 -->
<g id="node1" class="node">
<title>Node1</title>
<g id="a_node1"><a xlink:title=" ">
<polygon fill="#bfbfbf" stroke="black" points="16.5,-189.5 16.5,-252.5 159.5,-252.5 159.5,-189.5 16.5,-189.5"/>
<text text-anchor="start" x="24.5" y="-240.5" font-family="Helvetica,sans-Serif" font-size="10.00">/home/kali/projects</text>
<text text-anchor="start" x="24.5" y="-229.5" font-family="Helvetica,sans-Serif" font-size="10.00">/vsomeip/implementation</text>
<text text-anchor="start" x="24.5" y="-218.5" font-family="Helvetica,sans-Serif" font-size="10.00">/helper/1.55/boost/asio</text>
<text text-anchor="start" x="24.5" y="-207.5" font-family="Helvetica,sans-Serif" font-size="10.00">/detail/reactive_socket</text>
<text text-anchor="middle" x="88" y="-196.5" font-family="Helvetica,sans-Serif" font-size="10.00">_service_ext.hpp</text>
</a>
</g>
</g>
<!-- Node2 -->
<g id="node2" class="node">
<title>Node2</title>
<g id="a_node2"><a xlink:href="datagram__socket__service__ext_8hpp.html" target="_top" xlink:title=" ">
<polygon fill="white" stroke="black" points="16,-89.5 16,-152.5 160,-152.5 160,-89.5 16,-89.5"/>
<text text-anchor="start" x="24" y="-140.5" font-family="Helvetica,sans-Serif" font-size="10.00">/home/kali/projects</text>
<text text-anchor="start" x="24" y="-129.5" font-family="Helvetica,sans-Serif" font-size="10.00">/vsomeip/implementation</text>
<text text-anchor="start" x="24" y="-118.5" font-family="Helvetica,sans-Serif" font-size="10.00">/helper/1.55/boost/asio</text>
<text text-anchor="start" x="24" y="-107.5" font-family="Helvetica,sans-Serif" font-size="10.00">/datagram_socket_service</text>
<text text-anchor="middle" x="88" y="-96.5" font-family="Helvetica,sans-Serif" font-size="10.00">_ext.hpp</text>
</a>
</g>
</g>
<!-- Node1&#45;&gt;Node2 -->
<g id="edge1" class="edge">
<title>Node1&#45;&gt;Node2</title>
<path fill="none" stroke="midnightblue" d="M88,-179.1C88,-170.24 88,-161.01 88,-152.63"/>
<polygon fill="midnightblue" stroke="midnightblue" points="84.5,-179.26 88,-189.26 91.5,-179.26 84.5,-179.26"/>
</g>
<!-- Node3 -->
<g id="node3" class="node">
<title>Node3</title>
<g id="a_node3"><a xlink:href="1_855_2boost_2asio_2basic__datagram__socket__ext_8hpp.html" target="_top" xlink:title=" ">
<polygon fill="white" stroke="black" points="0,-0.5 0,-52.5 176,-52.5 176,-0.5 0,-0.5"/>
<text text-anchor="start" x="8" y="-40.5" font-family="Helvetica,sans-Serif" font-size="10.00">/home/kali/projects</text>
<text text-anchor="start" x="8" y="-29.5" font-family="Helvetica,sans-Serif" font-size="10.00">/vsomeip/implementation</text>
<text text-anchor="start" x="8" y="-18.5" font-family="Helvetica,sans-Serif" font-size="10.00">/helper/1.55/boost/asio</text>
<text text-anchor="middle" x="88" y="-7.5" font-family="Helvetica,sans-Serif" font-size="10.00">/basic_datagram_socket_ext.hpp</text>
</a>
</g>
</g>
<!-- Node2&#45;&gt;Node3 -->
<g id="edge2" class="edge">
<title>Node2&#45;&gt;Node3</title>
<path fill="none" stroke="midnightblue" d="M88,-79.42C88,-70.36 88,-61 88,-52.77"/>
<polygon fill="midnightblue" stroke="midnightblue" points="84.5,-79.46 88,-89.46 91.5,-79.46 84.5,-79.46"/>
</g>
</g>
</svg>
