<?xml version="1.0" encoding="UTF-8" standalone="no"?>
<!DOCTYPE svg PUBLIC "-//W3C//DTD SVG 1.1//EN"
 "http://www.w3.org/Graphics/SVG/1.1/DTD/svg11.dtd">
<!-- Generated by graphviz version 2.43.0 (0)
 -->
<!-- Title: /home/kali/projects/vsomeip/implementation/helper/1.55/boost/asio/detail/reactive_socket_recvmsg_op_ext_local.hpp Pages: 1 -->
<svg width="1542pt" height="139pt"
 viewBox="0.00 0.00 1542.00 139.00" xmlns="http://www.w3.org/2000/svg" xmlns:xlink="http://www.w3.org/1999/xlink">
<g id="graph0" class="graph" transform="scale(1 1) rotate(0) translate(4 135)">
<title>/home/kali/projects/vsomeip/implementation/helper/1.55/boost/asio/detail/reactive_socket_recvmsg_op_ext_local.hpp</title>
<polygon fill="white" stroke="transparent" points="-4,4 -4,-135 1538,-135 1538,4 -4,4"/>
<!-- Node1 -->
<g id="node1" class="node">
<title>Node1</title>
<g id="a_node1"><a xlink:title=" ">
<polygon fill="#bfbfbf" stroke="black" points="713.5,-67.5 713.5,-130.5 865.5,-130.5 865.5,-67.5 713.5,-67.5"/>
<text text-anchor="start" x="721.5" y="-118.5" font-family="Helvetica,sans-Serif" font-size="10.00">/home/kali/projects</text>
<text text-anchor="start" x="721.5" y="-107.5" font-family="Helvetica,sans-Serif" font-size="10.00">/vsomeip/implementation</text>
<text text-anchor="start" x="721.5" y="-96.5" font-family="Helvetica,sans-Serif" font-size="10.00">/helper/1.55/boost/asio</text>
<text text-anchor="start" x="721.5" y="-85.5" font-family="Helvetica,sans-Serif" font-size="10.00">/detail/reactive_socket</text>
<text text-anchor="middle" x="789.5" y="-74.5" font-family="Helvetica,sans-Serif" font-size="10.00">_recvmsg_op_ext_local.hpp</text>
</a>
</g>
</g>
<!-- Node2 -->
<g id="node2" class="node">
<title>Node2</title>
<g id="a_node2"><a xlink:title=" ">
<polygon fill="white" stroke="#bfbfbf" points="0,-6 0,-25 151,-25 151,-6 0,-6"/>
<text text-anchor="middle" x="75.5" y="-13" font-family="Helvetica,sans-Serif" font-size="10.00">boost/asio/detail/config.hpp</text>
</a>
</g>
</g>
<!-- Node1&#45;&gt;Node2 -->
<g id="edge1" class="edge">
<title>Node1&#45;&gt;Node2</title>
<path fill="none" stroke="midnightblue" d="M713.18,-91.5C594.48,-81.02 358.59,-58.74 159.5,-31 150.46,-29.74 140.9,-28.25 131.59,-26.7"/>
<polygon fill="midnightblue" stroke="midnightblue" points="132.07,-23.23 121.63,-25.02 130.91,-30.14 132.07,-23.23"/>
</g>
<!-- Node3 -->
<g id="node3" class="node">
<title>Node3</title>
<g id="a_node3"><a xlink:title=" ">
<polygon fill="white" stroke="#bfbfbf" points="169,-6 169,-25 338,-25 338,-6 169,-6"/>
<text text-anchor="middle" x="253.5" y="-13" font-family="Helvetica,sans-Serif" font-size="10.00">boost/asio/detail/addressof.hpp</text>
</a>
</g>
</g>
<!-- Node1&#45;&gt;Node3 -->
<g id="edge2" class="edge">
<title>Node1&#45;&gt;Node3</title>
<path fill="none" stroke="midnightblue" d="M713.23,-86.5C625.13,-73.2 475.82,-50.62 347.5,-31 338.17,-29.57 328.32,-28.06 318.65,-26.57"/>
<polygon fill="midnightblue" stroke="midnightblue" points="319.09,-23.1 308.67,-25.03 318.02,-30.02 319.09,-23.1"/>
</g>
<!-- Node4 -->
<g id="node4" class="node">
<title>Node4</title>
<g id="a_node4"><a xlink:title=" ">
<polygon fill="white" stroke="#bfbfbf" points="356.5,-0.5 356.5,-30.5 478.5,-30.5 478.5,-0.5 356.5,-0.5"/>
<text text-anchor="start" x="364.5" y="-18.5" font-family="Helvetica,sans-Serif" font-size="10.00">boost/asio/detail/bind</text>
<text text-anchor="middle" x="417.5" y="-7.5" font-family="Helvetica,sans-Serif" font-size="10.00">_handler.hpp</text>
</a>
</g>
</g>
<!-- Node1&#45;&gt;Node4 -->
<g id="edge3" class="edge">
<title>Node1&#45;&gt;Node4</title>
<path fill="none" stroke="midnightblue" d="M713.32,-81.31C647.44,-66.88 552.93,-46.17 488.58,-32.07"/>
<polygon fill="midnightblue" stroke="midnightblue" points="489.04,-28.59 478.53,-29.87 487.54,-35.43 489.04,-28.59"/>
</g>
<!-- Node5 -->
<g id="node5" class="node">
<title>Node5</title>
<g id="a_node5"><a xlink:title=" ">
<polygon fill="white" stroke="#bfbfbf" points="497,-0.5 497,-30.5 628,-30.5 628,-0.5 497,-0.5"/>
<text text-anchor="start" x="505" y="-18.5" font-family="Helvetica,sans-Serif" font-size="10.00">boost/asio/detail/buffer</text>
<text text-anchor="middle" x="562.5" y="-7.5" font-family="Helvetica,sans-Serif" font-size="10.00">_sequence_adapter.hpp</text>
</a>
</g>
</g>
<!-- Node1&#45;&gt;Node5 -->
<g id="edge4" class="edge">
<title>Node1&#45;&gt;Node5</title>
<path fill="none" stroke="midnightblue" d="M713.28,-70.63C679.61,-58.54 641.01,-44.69 611.29,-34.02"/>
<polygon fill="midnightblue" stroke="midnightblue" points="612.17,-30.61 601.58,-30.53 609.81,-37.2 612.17,-30.61"/>
</g>
<!-- Node6 -->
<g id="node6" class="node">
<title>Node6</title>
<g id="a_node6"><a xlink:title=" ">
<polygon fill="white" stroke="#bfbfbf" points="646.5,-0.5 646.5,-30.5 780.5,-30.5 780.5,-0.5 646.5,-0.5"/>
<text text-anchor="start" x="654.5" y="-18.5" font-family="Helvetica,sans-Serif" font-size="10.00">boost/asio/detail/fenced</text>
<text text-anchor="middle" x="713.5" y="-7.5" font-family="Helvetica,sans-Serif" font-size="10.00">_block.hpp</text>
</a>
</g>
</g>
<!-- Node1&#45;&gt;Node6 -->
<g id="edge5" class="edge">
<title>Node1&#45;&gt;Node6</title>
<path fill="none" stroke="midnightblue" d="M760.77,-67.19C751.66,-57.43 741.81,-46.85 733.46,-37.9"/>
<polygon fill="midnightblue" stroke="midnightblue" points="735.95,-35.44 726.57,-30.52 730.83,-40.22 735.95,-35.44"/>
</g>
<!-- Node7 -->
<g id="node7" class="node">
<title>Node7</title>
<g id="a_node7"><a xlink:title=" ">
<polygon fill="white" stroke="#bfbfbf" points="799,-0.5 799,-30.5 934,-30.5 934,-0.5 799,-0.5"/>
<text text-anchor="start" x="807" y="-18.5" font-family="Helvetica,sans-Serif" font-size="10.00">boost/asio/detail/reactor</text>
<text text-anchor="middle" x="866.5" y="-7.5" font-family="Helvetica,sans-Serif" font-size="10.00">_op_ext_local.hpp</text>
</a>
</g>
</g>
<!-- Node1&#45;&gt;Node7 -->
<g id="edge6" class="edge">
<title>Node1&#45;&gt;Node7</title>
<path fill="none" stroke="midnightblue" d="M818.61,-67.19C827.83,-57.43 837.82,-46.85 846.28,-37.9"/>
<polygon fill="midnightblue" stroke="midnightblue" points="848.93,-40.19 853.26,-30.52 843.85,-35.38 848.93,-40.19"/>
</g>
<!-- Node8 -->
<g id="node8" class="node">
<title>Node8</title>
<g id="a_node8"><a xlink:title=" ">
<polygon fill="white" stroke="#bfbfbf" points="952.5,-0.5 952.5,-30.5 1084.5,-30.5 1084.5,-0.5 952.5,-0.5"/>
<text text-anchor="start" x="960.5" y="-18.5" font-family="Helvetica,sans-Serif" font-size="10.00">boost/asio/detail/socket</text>
<text text-anchor="middle" x="1018.5" y="-7.5" font-family="Helvetica,sans-Serif" font-size="10.00">_ops_ext_local.hpp</text>
</a>
</g>
</g>
<!-- Node1&#45;&gt;Node8 -->
<g id="edge7" class="edge">
<title>Node1&#45;&gt;Node8</title>
<path fill="none" stroke="midnightblue" d="M865.75,-70.86C899.92,-58.7 939.22,-44.72 969.39,-33.98"/>
<polygon fill="midnightblue" stroke="midnightblue" points="970.61,-37.26 978.85,-30.61 968.26,-30.67 970.61,-37.26"/>
</g>
<!-- Node9 -->
<g id="node9" class="node">
<title>Node9</title>
<g id="a_node9"><a xlink:title=" ">
<polygon fill="white" stroke="#bfbfbf" points="1103,-6 1103,-25 1254,-25 1254,-6 1103,-6"/>
<text text-anchor="middle" x="1178.5" y="-13" font-family="Helvetica,sans-Serif" font-size="10.00">boost/asio/socket_base.hpp</text>
</a>
</g>
</g>
<!-- Node1&#45;&gt;Node9 -->
<g id="edge8" class="edge">
<title>Node1&#45;&gt;Node9</title>
<path fill="none" stroke="midnightblue" d="M865.89,-82C943.44,-65.75 1061.32,-41.05 1127.96,-27.09"/>
<polygon fill="midnightblue" stroke="midnightblue" points="1128.74,-30.5 1137.81,-25.02 1127.3,-23.65 1128.74,-30.5"/>
</g>
<!-- Node10 -->
<g id="node10" class="node">
<title>Node10</title>
<g id="a_node10"><a xlink:title=" ">
<polygon fill="white" stroke="#bfbfbf" points="1272.5,-0.5 1272.5,-30.5 1396.5,-30.5 1396.5,-0.5 1272.5,-0.5"/>
<text text-anchor="start" x="1280.5" y="-18.5" font-family="Helvetica,sans-Serif" font-size="10.00">boost/asio/detail/push</text>
<text text-anchor="middle" x="1334.5" y="-7.5" font-family="Helvetica,sans-Serif" font-size="10.00">_options.hpp</text>
</a>
</g>
</g>
<!-- Node1&#45;&gt;Node10 -->
<g id="edge9" class="edge">
<title>Node1&#45;&gt;Node10</title>
<path fill="none" stroke="midnightblue" d="M865.66,-88.69C957.38,-77.15 1116.32,-56.11 1262.17,-31.17"/>
<polygon fill="midnightblue" stroke="midnightblue" points="1262.94,-34.59 1272.2,-29.45 1261.75,-27.69 1262.94,-34.59"/>
</g>
<!-- Node11 -->
<g id="node11" class="node">
<title>Node11</title>
<g id="a_node11"><a xlink:title=" ">
<polygon fill="white" stroke="#bfbfbf" points="1415,-0.5 1415,-30.5 1534,-30.5 1534,-0.5 1415,-0.5"/>
<text text-anchor="start" x="1423" y="-18.5" font-family="Helvetica,sans-Serif" font-size="10.00">boost/asio/detail/pop</text>
<text text-anchor="middle" x="1474.5" y="-7.5" font-family="Helvetica,sans-Serif" font-size="10.00">_options.hpp</text>
</a>
</g>
</g>
<!-- Node1&#45;&gt;Node11 -->
<g id="edge10" class="edge">
<title>Node1&#45;&gt;Node11</title>
<path fill="none" stroke="midnightblue" d="M865.69,-92.15C980.43,-82.8 1204.55,-62.45 1404.62,-31.04"/>
<polygon fill="midnightblue" stroke="midnightblue" points="1405.4,-34.46 1414.73,-29.44 1404.3,-27.54 1405.4,-34.46"/>
</g>
</g>
</svg>
