<?xml version="1.0" encoding="UTF-8" standalone="no"?>
<!DOCTYPE svg PUBLIC "-//W3C//DTD SVG 1.1//EN"
 "http://www.w3.org/Graphics/SVG/1.1/DTD/svg11.dtd">
<!-- Generated by graphviz version 2.43.0 (0)
 -->
<!-- Title: /home/kali/projects/vsomeip/implementation/helper/1.55/boost/asio/detail/reactive_socket_service_ext.hpp Pages: 1 -->
<svg width="3423pt" height="139pt"
 viewBox="0.00 0.00 3422.50 139.00" xmlns="http://www.w3.org/2000/svg" xmlns:xlink="http://www.w3.org/1999/xlink">
<g id="graph0" class="graph" transform="scale(1 1) rotate(0) translate(4 135)">
<title>/home/kali/projects/vsomeip/implementation/helper/1.55/boost/asio/detail/reactive_socket_service_ext.hpp</title>
<polygon fill="white" stroke="transparent" points="-4,4 -4,-135 3418.5,-135 3418.5,4 -4,4"/>
<!-- Node1 -->
<g id="node1" class="node">
<title>Node1</title>
<g id="a_node1"><a xlink:title=" ">
<polygon fill="#bfbfbf" stroke="black" points="1617.5,-67.5 1617.5,-130.5 1760.5,-130.5 1760.5,-67.5 1617.5,-67.5"/>
<text text-anchor="start" x="1625.5" y="-118.5" font-family="Helvetica,sans-Serif" font-size="10.00">/home/kali/projects</text>
<text text-anchor="start" x="1625.5" y="-107.5" font-family="Helvetica,sans-Serif" font-size="10.00">/vsomeip/implementation</text>
<text text-anchor="start" x="1625.5" y="-96.5" font-family="Helvetica,sans-Serif" font-size="10.00">/helper/1.55/boost/asio</text>
<text text-anchor="start" x="1625.5" y="-85.5" font-family="Helvetica,sans-Serif" font-size="10.00">/detail/reactive_socket</text>
<text text-anchor="middle" x="1689" y="-74.5" font-family="Helvetica,sans-Serif" font-size="10.00">_service_ext.hpp</text>
</a>
</g>
</g>
<!-- Node2 -->
<g id="node2" class="node">
<title>Node2</title>
<g id="a_node2"><a xlink:title=" ">
<polygon fill="white" stroke="#bfbfbf" points="0,-6 0,-25 60,-25 60,-6 0,-6"/>
<text text-anchor="middle" x="30" y="-13" font-family="Helvetica,sans-Serif" font-size="10.00">iostream</text>
</a>
</g>
</g>
<!-- Node1&#45;&gt;Node2 -->
<g id="edge1" class="edge">
<title>Node1&#45;&gt;Node2</title>
<path fill="none" stroke="midnightblue" d="M1617.13,-98.02C1344.12,-97.63 371.52,-91.9 69,-31 65.74,-30.34 62.4,-29.46 59.1,-28.44"/>
<polygon fill="midnightblue" stroke="midnightblue" points="60.08,-25.08 49.49,-25.11 57.79,-31.69 60.08,-25.08"/>
</g>
<!-- Node3 -->
<g id="node3" class="node">
<title>Node3</title>
<g id="a_node3"><a xlink:title=" ">
<polygon fill="white" stroke="#bfbfbf" points="78.5,-6 78.5,-25 229.5,-25 229.5,-6 78.5,-6"/>
<text text-anchor="middle" x="154" y="-13" font-family="Helvetica,sans-Serif" font-size="10.00">boost/asio/detail/config.hpp</text>
</a>
</g>
</g>
<!-- Node1&#45;&gt;Node3 -->
<g id="edge2" class="edge">
<title>Node1&#45;&gt;Node3</title>
<path fill="none" stroke="midnightblue" d="M1617.42,-97.85C1405.87,-96.73 765.4,-88.47 238,-31 228.07,-29.92 217.54,-28.4 207.41,-26.75"/>
<polygon fill="midnightblue" stroke="midnightblue" points="207.9,-23.28 197.45,-25.06 206.73,-30.18 207.9,-23.28"/>
</g>
<!-- Node4 -->
<g id="node4" class="node">
<title>Node4</title>
<g id="a_node4"><a xlink:title=" ">
<polygon fill="white" stroke="#bfbfbf" points="247.5,-6 247.5,-25 366.5,-25 366.5,-6 247.5,-6"/>
<text text-anchor="middle" x="307" y="-13" font-family="Helvetica,sans-Serif" font-size="10.00">boost/asio/buffer.hpp</text>
</a>
</g>
</g>
<!-- Node1&#45;&gt;Node4 -->
<g id="edge3" class="edge">
<title>Node1&#45;&gt;Node4</title>
<path fill="none" stroke="midnightblue" d="M1617.42,-98.34C1419.1,-98.42 846.08,-92.83 375,-31 367.43,-30.01 359.44,-28.62 351.72,-27.09"/>
<polygon fill="midnightblue" stroke="midnightblue" points="352.26,-23.63 341.76,-25.02 350.84,-30.48 352.26,-23.63"/>
</g>
<!-- Node5 -->
<g id="node5" class="node">
<title>Node5</title>
<g id="a_node5"><a xlink:title=" ">
<polygon fill="white" stroke="#bfbfbf" points="384.5,-6 384.5,-25 497.5,-25 497.5,-6 384.5,-6"/>
<text text-anchor="middle" x="441" y="-13" font-family="Helvetica,sans-Serif" font-size="10.00">boost/asio/error.hpp</text>
</a>
</g>
</g>
<!-- Node1&#45;&gt;Node5 -->
<g id="edge4" class="edge">
<title>Node1&#45;&gt;Node5</title>
<path fill="none" stroke="midnightblue" d="M1617.34,-97.91C1432.52,-96.82 924.95,-88.38 507,-31 499.81,-30.01 492.24,-28.66 484.89,-27.17"/>
<polygon fill="midnightblue" stroke="midnightblue" points="485.58,-23.73 475.07,-25.07 484.12,-30.58 485.58,-23.73"/>
</g>
<!-- Node6 -->
<g id="node6" class="node">
<title>Node6</title>
<g id="a_node6"><a xlink:title=" ">
<polygon fill="white" stroke="#bfbfbf" points="516,-6 516,-25 656,-25 656,-6 516,-6"/>
<text text-anchor="middle" x="586" y="-13" font-family="Helvetica,sans-Serif" font-size="10.00">boost/asio/io_service.hpp</text>
</a>
</g>
</g>
<!-- Node1&#45;&gt;Node6 -->
<g id="edge5" class="edge">
<title>Node1&#45;&gt;Node6</title>
<path fill="none" stroke="midnightblue" d="M1617.35,-96.17C1450.03,-91.29 1020.82,-75.14 665,-31 655.96,-29.88 646.38,-28.38 637.13,-26.78"/>
<polygon fill="midnightblue" stroke="midnightblue" points="637.73,-23.33 627.27,-25.01 636.5,-30.22 637.73,-23.33"/>
</g>
<!-- Node7 -->
<g id="node7" class="node">
<title>Node7</title>
<g id="a_node7"><a xlink:title=" ">
<polygon fill="white" stroke="#bfbfbf" points="674.5,-6 674.5,-25 825.5,-25 825.5,-6 674.5,-6"/>
<text text-anchor="middle" x="750" y="-13" font-family="Helvetica,sans-Serif" font-size="10.00">boost/asio/socket_base.hpp</text>
</a>
</g>
</g>
<!-- Node1&#45;&gt;Node7 -->
<g id="edge6" class="edge">
<title>Node1&#45;&gt;Node7</title>
<path fill="none" stroke="midnightblue" d="M1617.27,-94.63C1470.03,-87.22 1123.2,-67.21 834,-31 824.52,-29.81 814.48,-28.3 804.76,-26.71"/>
<polygon fill="midnightblue" stroke="midnightblue" points="805.23,-23.24 794.79,-25.02 804.06,-30.14 805.23,-23.24"/>
</g>
<!-- Node8 -->
<g id="node8" class="node">
<title>Node8</title>
<g id="a_node8"><a xlink:title=" ">
<polygon fill="white" stroke="#bfbfbf" points="843.5,-6 843.5,-25 1012.5,-25 1012.5,-6 843.5,-6"/>
<text text-anchor="middle" x="928" y="-13" font-family="Helvetica,sans-Serif" font-size="10.00">boost/asio/detail/addressof.hpp</text>
</a>
</g>
</g>
<!-- Node1&#45;&gt;Node8 -->
<g id="edge7" class="edge">
<title>Node1&#45;&gt;Node8</title>
<path fill="none" stroke="midnightblue" d="M1617.18,-92.09C1494.66,-81.73 1237.48,-58.71 1021,-31 1010.81,-29.69 1000.01,-28.16 989.51,-26.58"/>
<polygon fill="midnightblue" stroke="midnightblue" points="989.99,-23.11 979.58,-25.06 988.94,-30.03 989.99,-23.11"/>
</g>
<!-- Node9 -->
<g id="node9" class="node">
<title>Node9</title>
<g id="a_node9"><a xlink:title=" ">
<polygon fill="white" stroke="#bfbfbf" points="1030.5,-0.5 1030.5,-30.5 1161.5,-30.5 1161.5,-0.5 1030.5,-0.5"/>
<text text-anchor="start" x="1038.5" y="-18.5" font-family="Helvetica,sans-Serif" font-size="10.00">boost/asio/detail/buffer</text>
<text text-anchor="middle" x="1096" y="-7.5" font-family="Helvetica,sans-Serif" font-size="10.00">_sequence_adapter.hpp</text>
</a>
</g>
</g>
<!-- Node1&#45;&gt;Node9 -->
<g id="edge8" class="edge">
<title>Node1&#45;&gt;Node9</title>
<path fill="none" stroke="midnightblue" d="M1617.15,-90.14C1519.01,-79.09 1337.33,-57.49 1172.16,-31.13"/>
<polygon fill="midnightblue" stroke="midnightblue" points="1172.24,-27.59 1161.81,-29.46 1171.13,-34.5 1172.24,-27.59"/>
</g>
<!-- Node10 -->
<g id="node10" class="node">
<title>Node10</title>
<g id="a_node10"><a xlink:title=" ">
<polygon fill="white" stroke="#bfbfbf" points="1180,-6 1180,-25 1364,-25 1364,-6 1180,-6"/>
<text text-anchor="middle" x="1272" y="-13" font-family="Helvetica,sans-Serif" font-size="10.00">boost/asio/detail/noncopyable.hpp</text>
</a>
</g>
</g>
<!-- Node1&#45;&gt;Node10 -->
<g id="edge9" class="edge">
<title>Node1&#45;&gt;Node10</title>
<path fill="none" stroke="midnightblue" d="M1617.32,-83.99C1534.47,-67.8 1400.03,-41.52 1325.7,-26.99"/>
<polygon fill="midnightblue" stroke="midnightblue" points="1326.1,-23.51 1315.62,-25.02 1324.76,-30.38 1326.1,-23.51"/>
</g>
<!-- Node11 -->
<g id="node11" class="node">
<title>Node11</title>
<g id="a_node11"><a xlink:title=" ">
<polygon fill="white" stroke="#bfbfbf" points="1382,-0.5 1382,-30.5 1522,-30.5 1522,-0.5 1382,-0.5"/>
<text text-anchor="start" x="1390" y="-18.5" font-family="Helvetica,sans-Serif" font-size="10.00">boost/asio/detail/reactive</text>
<text text-anchor="middle" x="1452" y="-7.5" font-family="Helvetica,sans-Serif" font-size="10.00">_null_buffers_op.hpp</text>
</a>
</g>
</g>
<!-- Node1&#45;&gt;Node11 -->
<g id="edge10" class="edge">
<title>Node1&#45;&gt;Node11</title>
<path fill="none" stroke="midnightblue" d="M1617.25,-73.33C1580.17,-60.58 1535.83,-45.33 1502.41,-33.84"/>
<polygon fill="midnightblue" stroke="midnightblue" points="1503.45,-30.49 1492.85,-30.55 1501.17,-37.11 1503.45,-30.49"/>
</g>
<!-- Node12 -->
<g id="node12" class="node">
<title>Node12</title>
<g id="a_node12"><a xlink:title=" ">
<polygon fill="white" stroke="#bfbfbf" points="1540,-0.5 1540,-30.5 1680,-30.5 1680,-0.5 1540,-0.5"/>
<text text-anchor="start" x="1548" y="-18.5" font-family="Helvetica,sans-Serif" font-size="10.00">boost/asio/detail/reactive</text>
<text text-anchor="middle" x="1610" y="-7.5" font-family="Helvetica,sans-Serif" font-size="10.00">_socket_accept_op.hpp</text>
</a>
</g>
</g>
<!-- Node1&#45;&gt;Node12 -->
<g id="edge11" class="edge">
<title>Node1&#45;&gt;Node12</title>
<path fill="none" stroke="midnightblue" d="M1659.13,-67.19C1649.67,-57.43 1639.42,-46.85 1630.75,-37.9"/>
<polygon fill="midnightblue" stroke="midnightblue" points="1633.06,-35.26 1623.59,-30.52 1628.03,-40.13 1633.06,-35.26"/>
</g>
<!-- Node13 -->
<g id="node13" class="node">
<title>Node13</title>
<g id="a_node13"><a xlink:title=" ">
<polygon fill="white" stroke="#bfbfbf" points="1698,-0.5 1698,-30.5 1838,-30.5 1838,-0.5 1698,-0.5"/>
<text text-anchor="start" x="1706" y="-18.5" font-family="Helvetica,sans-Serif" font-size="10.00">boost/asio/detail/reactive</text>
<text text-anchor="middle" x="1768" y="-7.5" font-family="Helvetica,sans-Serif" font-size="10.00">_socket_connect_op.hpp</text>
</a>
</g>
</g>
<!-- Node1&#45;&gt;Node13 -->
<g id="edge12" class="edge">
<title>Node1&#45;&gt;Node13</title>
<path fill="none" stroke="midnightblue" d="M1718.87,-67.19C1728.33,-57.43 1738.58,-46.85 1747.25,-37.9"/>
<polygon fill="midnightblue" stroke="midnightblue" points="1749.97,-40.13 1754.41,-30.52 1744.94,-35.26 1749.97,-40.13"/>
</g>
<!-- Node14 -->
<g id="node14" class="node">
<title>Node14</title>
<g id="a_node14"><a xlink:title=" ">
<polygon fill="white" stroke="#bfbfbf" points="1856,-0.5 1856,-30.5 2018,-30.5 2018,-0.5 1856,-0.5"/>
<text text-anchor="start" x="1864" y="-18.5" font-family="Helvetica,sans-Serif" font-size="10.00">boost/asio/detail/reactive</text>
<text text-anchor="middle" x="1937" y="-7.5" font-family="Helvetica,sans-Serif" font-size="10.00">_socket_recvfrom_op_ext.hpp</text>
</a>
</g>
</g>
<!-- Node1&#45;&gt;Node14 -->
<g id="edge13" class="edge">
<title>Node1&#45;&gt;Node14</title>
<path fill="none" stroke="midnightblue" d="M1760.73,-74.43C1800.22,-61.45 1848.37,-45.63 1884.36,-33.8"/>
<polygon fill="midnightblue" stroke="midnightblue" points="1885.76,-37.02 1894.17,-30.58 1883.58,-30.37 1885.76,-37.02"/>
</g>
<!-- Node15 -->
<g id="node15" class="node">
<title>Node15</title>
<g id="a_node15"><a xlink:title=" ">
<polygon fill="white" stroke="#bfbfbf" points="2036,-0.5 2036,-30.5 2176,-30.5 2176,-0.5 2036,-0.5"/>
<text text-anchor="start" x="2044" y="-18.5" font-family="Helvetica,sans-Serif" font-size="10.00">boost/asio/detail/reactive</text>
<text text-anchor="middle" x="2106" y="-7.5" font-family="Helvetica,sans-Serif" font-size="10.00">_socket_sendto_op.hpp</text>
</a>
</g>
</g>
<!-- Node1&#45;&gt;Node15 -->
<g id="edge14" class="edge">
<title>Node1&#45;&gt;Node15</title>
<path fill="none" stroke="midnightblue" d="M1760.68,-83.99C1834.45,-69.57 1949.12,-47.16 2025.85,-32.17"/>
<polygon fill="midnightblue" stroke="midnightblue" points="2026.8,-35.55 2035.94,-30.19 2025.46,-28.68 2026.8,-35.55"/>
</g>
<!-- Node16 -->
<g id="node16" class="node">
<title>Node16</title>
<g id="a_node16"><a xlink:title=" ">
<polygon fill="white" stroke="#bfbfbf" points="2194,-0.5 2194,-30.5 2358,-30.5 2358,-0.5 2194,-0.5"/>
<text text-anchor="start" x="2202" y="-18.5" font-family="Helvetica,sans-Serif" font-size="10.00">boost/asio/detail/reactive</text>
<text text-anchor="middle" x="2276" y="-7.5" font-family="Helvetica,sans-Serif" font-size="10.00">_socket_service_base_ext.hpp</text>
</a>
</g>
</g>
<!-- Node1&#45;&gt;Node16 -->
<g id="edge15" class="edge">
<title>Node1&#45;&gt;Node16</title>
<path fill="none" stroke="midnightblue" d="M1760.53,-88.88C1854.94,-76.72 2026.55,-54.2 2183.37,-31.22"/>
<polygon fill="midnightblue" stroke="midnightblue" points="2184.29,-34.62 2193.67,-29.71 2183.27,-27.7 2184.29,-34.62"/>
</g>
<!-- Node17 -->
<g id="node17" class="node">
<title>Node17</title>
<g id="a_node17"><a xlink:title=" ">
<polygon fill="white" stroke="#bfbfbf" points="2376.5,-6 2376.5,-25 2531.5,-25 2531.5,-6 2376.5,-6"/>
<text text-anchor="middle" x="2454" y="-13" font-family="Helvetica,sans-Serif" font-size="10.00">boost/asio/detail/reactor.hpp</text>
</a>
</g>
</g>
<!-- Node1&#45;&gt;Node17 -->
<g id="edge16" class="edge">
<title>Node1&#45;&gt;Node17</title>
<path fill="none" stroke="midnightblue" d="M1760.93,-92.48C1884.94,-82.6 2146.85,-60.19 2367,-31 2376.46,-29.75 2386.48,-28.24 2396.21,-26.68"/>
<polygon fill="midnightblue" stroke="midnightblue" points="2396.92,-30.12 2406.22,-25.05 2395.79,-23.21 2396.92,-30.12"/>
</g>
<!-- Node18 -->
<g id="node18" class="node">
<title>Node18</title>
<g id="a_node18"><a xlink:title=" ">
<polygon fill="white" stroke="#bfbfbf" points="2549.5,-0.5 2549.5,-30.5 2684.5,-30.5 2684.5,-0.5 2549.5,-0.5"/>
<text text-anchor="start" x="2557.5" y="-18.5" font-family="Helvetica,sans-Serif" font-size="10.00">boost/asio/detail/reactor</text>
<text text-anchor="middle" x="2617" y="-7.5" font-family="Helvetica,sans-Serif" font-size="10.00">_op.hpp</text>
</a>
</g>
</g>
<!-- Node1&#45;&gt;Node18 -->
<g id="edge17" class="edge">
<title>Node1&#45;&gt;Node18</title>
<path fill="none" stroke="midnightblue" d="M1760.53,-95.04C1905.7,-88.45 2245.4,-70.08 2539.12,-31.17"/>
<polygon fill="midnightblue" stroke="midnightblue" points="2539.66,-34.63 2549.11,-29.84 2538.73,-27.69 2539.66,-34.63"/>
</g>
<!-- Node19 -->
<g id="node19" class="node">
<title>Node19</title>
<g id="a_node19"><a xlink:title=" ">
<polygon fill="white" stroke="#bfbfbf" points="2703,-0.5 2703,-30.5 2835,-30.5 2835,-0.5 2703,-0.5"/>
<text text-anchor="start" x="2711" y="-18.5" font-family="Helvetica,sans-Serif" font-size="10.00">boost/asio/detail/socket</text>
<text text-anchor="middle" x="2769" y="-7.5" font-family="Helvetica,sans-Serif" font-size="10.00">_holder.hpp</text>
</a>
</g>
</g>
<!-- Node1&#45;&gt;Node19 -->
<g id="edge18" class="edge">
<title>Node1&#45;&gt;Node19</title>
<path fill="none" stroke="midnightblue" d="M1760.58,-96.28C1924.19,-91.7 2338.09,-76.37 2692.87,-31.04"/>
<polygon fill="midnightblue" stroke="midnightblue" points="2693.35,-34.51 2702.82,-29.76 2692.45,-27.56 2693.35,-34.51"/>
</g>
<!-- Node20 -->
<g id="node20" class="node">
<title>Node20</title>
<g id="a_node20"><a xlink:title=" ">
<polygon fill="white" stroke="#bfbfbf" points="2853,-0.5 2853,-30.5 2985,-30.5 2985,-0.5 2853,-0.5"/>
<text text-anchor="start" x="2861" y="-18.5" font-family="Helvetica,sans-Serif" font-size="10.00">boost/asio/detail/socket</text>
<text text-anchor="middle" x="2919" y="-7.5" font-family="Helvetica,sans-Serif" font-size="10.00">_ops.hpp</text>
</a>
</g>
</g>
<!-- Node1&#45;&gt;Node20 -->
<g id="edge19" class="edge">
<title>Node1&#45;&gt;Node20</title>
<path fill="none" stroke="midnightblue" d="M1760.6,-97.15C1940.91,-94.31 2428.24,-82.22 2842.74,-31.04"/>
<polygon fill="midnightblue" stroke="midnightblue" points="2843.33,-34.5 2852.82,-29.79 2842.47,-27.55 2843.33,-34.5"/>
</g>
<!-- Node21 -->
<g id="node21" class="node">
<title>Node21</title>
<g id="a_node21"><a xlink:title=" ">
<polygon fill="white" stroke="#bfbfbf" points="3003,-0.5 3003,-30.5 3135,-30.5 3135,-0.5 3003,-0.5"/>
<text text-anchor="start" x="3011" y="-18.5" font-family="Helvetica,sans-Serif" font-size="10.00">boost/asio/detail/socket</text>
<text text-anchor="middle" x="3069" y="-7.5" font-family="Helvetica,sans-Serif" font-size="10.00">_types.hpp</text>
</a>
</g>
</g>
<!-- Node1&#45;&gt;Node21 -->
<g id="edge20" class="edge">
<title>Node1&#45;&gt;Node21</title>
<path fill="none" stroke="midnightblue" d="M1760.74,-97.83C1956.81,-96.6 2518.13,-88.07 2992.69,-31.04"/>
<polygon fill="midnightblue" stroke="midnightblue" points="2993.32,-34.49 3002.83,-29.81 2992.48,-27.54 2993.32,-34.49"/>
</g>
<!-- Node22 -->
<g id="node22" class="node">
<title>Node22</title>
<g id="a_node22"><a xlink:title=" ">
<polygon fill="white" stroke="#bfbfbf" points="3153,-0.5 3153,-30.5 3277,-30.5 3277,-0.5 3153,-0.5"/>
<text text-anchor="start" x="3161" y="-18.5" font-family="Helvetica,sans-Serif" font-size="10.00">boost/asio/detail/push</text>
<text text-anchor="middle" x="3215" y="-7.5" font-family="Helvetica,sans-Serif" font-size="10.00">_options.hpp</text>
</a>
</g>
</g>
<!-- Node1&#45;&gt;Node22 -->
<g id="edge21" class="edge">
<title>Node1&#45;&gt;Node22</title>
<path fill="none" stroke="midnightblue" d="M1760.87,-98.63C1971.89,-99.64 2607.94,-96.69 3142.52,-31.05"/>
<polygon fill="midnightblue" stroke="midnightblue" points="3143.26,-34.48 3152.75,-29.78 3142.4,-27.54 3143.26,-34.48"/>
</g>
<!-- Node23 -->
<g id="node23" class="node">
<title>Node23</title>
<g id="a_node23"><a xlink:title=" ">
<polygon fill="white" stroke="#bfbfbf" points="3295.5,-0.5 3295.5,-30.5 3414.5,-30.5 3414.5,-0.5 3295.5,-0.5"/>
<text text-anchor="start" x="3303.5" y="-18.5" font-family="Helvetica,sans-Serif" font-size="10.00">boost/asio/detail/pop</text>
<text text-anchor="middle" x="3355" y="-7.5" font-family="Helvetica,sans-Serif" font-size="10.00">_options.hpp</text>
</a>
</g>
</g>
<!-- Node1&#45;&gt;Node23 -->
<g id="edge22" class="edge">
<title>Node1&#45;&gt;Node23</title>
<path fill="none" stroke="midnightblue" d="M1760.54,-96.57C2027.22,-91 2964.06,-69.22 3285.03,-30.94"/>
<polygon fill="midnightblue" stroke="midnightblue" points="3285.76,-34.37 3295.26,-29.68 3284.91,-27.42 3285.76,-34.37"/>
</g>
</g>
</svg>
