<?xml version="1.0" encoding="UTF-8" standalone="no"?>
<!DOCTYPE svg PUBLIC "-//W3C//DTD SVG 1.1//EN"
 "http://www.w3.org/Graphics/SVG/1.1/DTD/svg11.dtd">
<!-- Generated by graphviz version 2.43.0 (0)
 -->
<!-- Title: /home/kali/projects/vsomeip/implementation/helper/1.55/boost/asio/basic_datagram_socket_ext.hpp Pages: 1 -->
<svg width="3423pt" height="262pt"
 viewBox="0.00 0.00 3423.00 262.00" xmlns="http://www.w3.org/2000/svg" xmlns:xlink="http://www.w3.org/1999/xlink">
<g id="graph0" class="graph" transform="scale(1 1) rotate(0) translate(4 258)">
<title>/home/kali/projects/vsomeip/implementation/helper/1.55/boost/asio/basic_datagram_socket_ext.hpp</title>
<polygon fill="white" stroke="transparent" points="-4,4 -4,-258 3419,-258 3419,4 -4,4"/>
<!-- Node1 -->
<g id="node1" class="node">
<title>Node1</title>
<g id="a_node1"><a xlink:title=" ">
<polygon fill="#bfbfbf" stroke="black" points="1552,-201.5 1552,-253.5 1728,-253.5 1728,-201.5 1552,-201.5"/>
<text text-anchor="start" x="1560" y="-241.5" font-family="Helvetica,sans-Serif" font-size="10.00">/home/kali/projects</text>
<text text-anchor="start" x="1560" y="-230.5" font-family="Helvetica,sans-Serif" font-size="10.00">/vsomeip/implementation</text>
<text text-anchor="start" x="1560" y="-219.5" font-family="Helvetica,sans-Serif" font-size="10.00">/helper/1.55/boost/asio</text>
<text text-anchor="middle" x="1640" y="-208.5" font-family="Helvetica,sans-Serif" font-size="10.00">/basic_datagram_socket_ext.hpp</text>
</a>
</g>
</g>
<!-- Node2 -->
<g id="node2" class="node">
<title>Node2</title>
<g id="a_node2"><a xlink:title=" ">
<polygon fill="white" stroke="#bfbfbf" points="0,-6 0,-25 60,-25 60,-6 0,-6"/>
<text text-anchor="middle" x="30" y="-13" font-family="Helvetica,sans-Serif" font-size="10.00">iostream</text>
</a>
</g>
</g>
<!-- Node1&#45;&gt;Node2 -->
<g id="edge1" class="edge">
<title>Node1&#45;&gt;Node2</title>
<path fill="none" stroke="midnightblue" d="M1551.85,-222.7C1311.03,-210.78 622.98,-166.5 69,-31 66.01,-30.27 62.93,-29.38 59.88,-28.4"/>
<polygon fill="midnightblue" stroke="midnightblue" points="60.96,-25.07 50.37,-25.09 58.66,-31.68 60.96,-25.07"/>
</g>
<!-- Node3 -->
<g id="node3" class="node">
<title>Node3</title>
<g id="a_node3"><a xlink:title=" ">
<polygon fill="white" stroke="#bfbfbf" points="78.5,-6 78.5,-25 229.5,-25 229.5,-6 78.5,-6"/>
<text text-anchor="middle" x="154" y="-13" font-family="Helvetica,sans-Serif" font-size="10.00">boost/asio/detail/config.hpp</text>
</a>
</g>
</g>
<!-- Node1&#45;&gt;Node3 -->
<g id="edge2" class="edge">
<title>Node1&#45;&gt;Node3</title>
<path fill="none" stroke="midnightblue" d="M1607.5,-201.43C1575.55,-177.22 1528.68,-142.94 1508,-134 1435.92,-102.82 1406.11,-131.34 1335,-98 1314.95,-88.6 1316.78,-74.65 1296,-67 1185.73,-26.39 355.91,-42.91 239,-31 228.62,-29.94 217.58,-28.39 207.03,-26.68"/>
<polygon fill="midnightblue" stroke="midnightblue" points="207.53,-23.21 197.09,-25.01 206.37,-30.12 207.53,-23.21"/>
</g>
<!-- Node4 -->
<g id="node4" class="node">
<title>Node4</title>
<g id="a_node4"><a xlink:title=" ">
<polygon fill="white" stroke="#bfbfbf" points="1234.5,-73 1234.5,-92 1287.5,-92 1287.5,-73 1234.5,-73"/>
<text text-anchor="middle" x="1261" y="-80" font-family="Helvetica,sans-Serif" font-size="10.00">cstddef</text>
</a>
</g>
</g>
<!-- Node1&#45;&gt;Node4 -->
<g id="edge3" class="edge">
<title>Node1&#45;&gt;Node4</title>
<path fill="none" stroke="midnightblue" d="M1551.92,-225.11C1485.81,-220.46 1395.31,-206.14 1327,-165 1301.1,-149.4 1281.03,-119.75 1270.13,-100.84"/>
<polygon fill="midnightblue" stroke="midnightblue" points="1273.17,-99.12 1265.28,-92.06 1267.05,-102.5 1273.17,-99.12"/>
</g>
<!-- Node5 -->
<g id="node5" class="node">
<title>Node5</title>
<g id="a_node5"><a xlink:title=" ">
<polygon fill="white" stroke="#bfbfbf" points="1345.5,-140 1345.5,-159 1498.5,-159 1498.5,-140 1345.5,-140"/>
<text text-anchor="middle" x="1422" y="-147" font-family="Helvetica,sans-Serif" font-size="10.00">boost/asio/basic_socket.hpp</text>
</a>
</g>
</g>
<!-- Node1&#45;&gt;Node5 -->
<g id="edge4" class="edge">
<title>Node1&#45;&gt;Node5</title>
<path fill="none" stroke="midnightblue" d="M1568.01,-201.4C1530.35,-188.27 1486,-172.81 1456.14,-162.4"/>
<polygon fill="midnightblue" stroke="midnightblue" points="1457.2,-159.06 1446.61,-159.08 1454.9,-165.67 1457.2,-159.06"/>
</g>
<!-- Node6 -->
<g id="node6" class="node">
<title>Node6</title>
<g id="a_node6"><a xlink:href="datagram__socket__service__ext_8hpp.html" target="_top" xlink:title=" ">
<polygon fill="white" stroke="black" points="1572,-134.5 1572,-164.5 1708,-164.5 1708,-134.5 1572,-134.5"/>
<text text-anchor="start" x="1580" y="-152.5" font-family="Helvetica,sans-Serif" font-size="10.00">boost/asio/datagram</text>
<text text-anchor="middle" x="1640" y="-141.5" font-family="Helvetica,sans-Serif" font-size="10.00">_socket_service_ext.hpp</text>
</a>
</g>
</g>
<!-- Node1&#45;&gt;Node6 -->
<g id="edge5" class="edge">
<title>Node1&#45;&gt;Node6</title>
<path fill="none" stroke="midnightblue" d="M1640,-201.19C1640,-192.79 1640,-183.44 1640,-175.09"/>
<polygon fill="midnightblue" stroke="midnightblue" points="1643.5,-174.85 1640,-164.85 1636.5,-174.85 1643.5,-174.85"/>
</g>
<!-- Node8 -->
<g id="node8" class="node">
<title>Node8</title>
<g id="a_node8"><a xlink:title=" ">
<polygon fill="white" stroke="#bfbfbf" points="1344,-67.5 1344,-97.5 1466,-97.5 1466,-67.5 1344,-67.5"/>
<text text-anchor="start" x="1352" y="-85.5" font-family="Helvetica,sans-Serif" font-size="10.00">boost/asio/detail/type</text>
<text text-anchor="middle" x="1405" y="-74.5" font-family="Helvetica,sans-Serif" font-size="10.00">_traits.hpp</text>
</a>
</g>
</g>
<!-- Node1&#45;&gt;Node8 -->
<g id="edge40" class="edge">
<title>Node1&#45;&gt;Node8</title>
<path fill="none" stroke="midnightblue" d="M1551.83,-220.73C1472.28,-213.46 1363.75,-197.73 1337,-165 1319.58,-143.69 1345.64,-119.5 1370.38,-103.04"/>
<polygon fill="midnightblue" stroke="midnightblue" points="1372.43,-105.88 1379,-97.56 1368.68,-99.97 1372.43,-105.88"/>
</g>
<!-- Node9 -->
<g id="node9" class="node">
<title>Node9</title>
<g id="a_node9"><a xlink:title=" ">
<polygon fill="white" stroke="#bfbfbf" points="3159.5,-6 3159.5,-25 3272.5,-25 3272.5,-6 3159.5,-6"/>
<text text-anchor="middle" x="3216" y="-13" font-family="Helvetica,sans-Serif" font-size="10.00">boost/asio/error.hpp</text>
</a>
</g>
</g>
<!-- Node1&#45;&gt;Node9 -->
<g id="edge41" class="edge">
<title>Node1&#45;&gt;Node9</title>
<path fill="none" stroke="midnightblue" d="M1717.97,-201.47C1751.6,-190.51 1791.32,-177.36 1827,-165 1887.11,-144.17 2033.54,-79.12 2096,-67 2326.28,-22.3 2918.3,-60.66 3151,-31 3158.25,-30.08 3165.89,-28.72 3173.28,-27.21"/>
<polygon fill="midnightblue" stroke="midnightblue" points="3174.11,-30.61 3183.14,-25.07 3172.63,-23.77 3174.11,-30.61"/>
</g>
<!-- Node28 -->
<g id="node28" class="node">
<title>Node28</title>
<g id="a_node28"><a xlink:title=" ">
<polygon fill="white" stroke="#bfbfbf" points="3291,-0.5 3291,-30.5 3415,-30.5 3415,-0.5 3291,-0.5"/>
<text text-anchor="start" x="3299" y="-18.5" font-family="Helvetica,sans-Serif" font-size="10.00">boost/asio/detail/push</text>
<text text-anchor="middle" x="3353" y="-7.5" font-family="Helvetica,sans-Serif" font-size="10.00">_options.hpp</text>
</a>
</g>
</g>
<!-- Node1&#45;&gt;Node28 -->
<g id="edge42" class="edge">
<title>Node1&#45;&gt;Node28</title>
<path fill="none" stroke="midnightblue" d="M1728.36,-207.09C1825.96,-186.27 1988.01,-153.58 2129,-134 2635.23,-63.68 2771.15,-104.93 3280.54,-31.11"/>
<polygon fill="midnightblue" stroke="midnightblue" points="3281.34,-34.53 3290.73,-29.63 3280.33,-27.61 3281.34,-34.53"/>
</g>
<!-- Node29 -->
<g id="node29" class="node">
<title>Node29</title>
<g id="a_node29"><a xlink:title=" ">
<polygon fill="white" stroke="#bfbfbf" points="3022.5,-0.5 3022.5,-30.5 3141.5,-30.5 3141.5,-0.5 3022.5,-0.5"/>
<text text-anchor="start" x="3030.5" y="-18.5" font-family="Helvetica,sans-Serif" font-size="10.00">boost/asio/detail/pop</text>
<text text-anchor="middle" x="3082" y="-7.5" font-family="Helvetica,sans-Serif" font-size="10.00">_options.hpp</text>
</a>
</g>
</g>
<!-- Node1&#45;&gt;Node29 -->
<g id="edge43" class="edge">
<title>Node1&#45;&gt;Node29</title>
<path fill="none" stroke="midnightblue" d="M1696.52,-201.45C1794.07,-158.41 1986.85,-74.3 2020,-67 2232.7,-20.15 2778.34,-57.04 3012.18,-31.02"/>
<polygon fill="midnightblue" stroke="midnightblue" points="3012.87,-34.47 3022.4,-29.82 3012.05,-27.51 3012.87,-34.47"/>
</g>
<!-- Node30 -->
<g id="node30" class="node">
<title>Node30</title>
<g id="a_node30"><a xlink:title=" ">
<polygon fill="white" stroke="#bfbfbf" points="2138,-134.5 2138,-164.5 2294,-164.5 2294,-134.5 2138,-134.5"/>
<text text-anchor="start" x="2146" y="-152.5" font-family="Helvetica,sans-Serif" font-size="10.00">boost/asio/detail/handler</text>
<text text-anchor="middle" x="2216" y="-141.5" font-family="Helvetica,sans-Serif" font-size="10.00">_type_requirements_ext.hpp</text>
</a>
</g>
</g>
<!-- Node1&#45;&gt;Node30 -->
<g id="edge38" class="edge">
<title>Node1&#45;&gt;Node30</title>
<path fill="none" stroke="midnightblue" d="M1728.43,-216.07C1825.54,-204.43 1986.05,-184.63 2124,-165 2125.26,-164.82 2126.53,-164.64 2127.81,-164.45"/>
<polygon fill="midnightblue" stroke="midnightblue" points="2128.34,-167.91 2137.73,-163 2127.33,-160.99 2128.34,-167.91"/>
</g>
<!-- Node31 -->
<g id="node31" class="node">
<title>Node31</title>
<g id="a_node31"><a xlink:title=" ">
<polygon fill="white" stroke="#bfbfbf" points="2312,-134.5 2312,-164.5 2440,-164.5 2440,-134.5 2312,-134.5"/>
<text text-anchor="start" x="2320" y="-152.5" font-family="Helvetica,sans-Serif" font-size="10.00">boost/asio/detail/throw</text>
<text text-anchor="middle" x="2376" y="-141.5" font-family="Helvetica,sans-Serif" font-size="10.00">_error.hpp</text>
</a>
</g>
</g>
<!-- Node1&#45;&gt;Node31 -->
<g id="edge39" class="edge">
<title>Node1&#45;&gt;Node31</title>
<path fill="none" stroke="midnightblue" d="M1728.02,-221.25C1853.34,-213.12 2090.53,-195.34 2301.92,-165.06"/>
<polygon fill="midnightblue" stroke="midnightblue" points="2302.57,-168.5 2311.97,-163.61 2301.57,-161.57 2302.57,-168.5"/>
</g>
<!-- Node6&#45;&gt;Node2 -->
<g id="edge6" class="edge">
<title>Node6&#45;&gt;Node2</title>
<path fill="none" stroke="midnightblue" d="M1589.9,-134.44C1564.28,-126.01 1533.26,-113.83 1508,-98 1490.95,-87.31 1493.61,-74.65 1475,-67 1330.45,-7.6 222.44,-60.63 69,-31 65.56,-30.34 62.03,-29.4 58.56,-28.33"/>
<polygon fill="midnightblue" stroke="midnightblue" points="59.67,-25.01 49.08,-25.02 57.37,-31.62 59.67,-25.01"/>
</g>
<!-- Node6&#45;&gt;Node3 -->
<g id="edge7" class="edge">
<title>Node6&#45;&gt;Node3</title>
<path fill="none" stroke="midnightblue" d="M1610.37,-134.42C1591.43,-124.97 1566.65,-111.78 1546,-98 1527.87,-85.9 1528.43,-74.6 1508,-67 1375.8,-17.79 379.37,-44.89 239,-31 228.61,-29.97 217.58,-28.43 207.02,-26.73"/>
<polygon fill="midnightblue" stroke="midnightblue" points="207.52,-23.26 197.08,-25.06 206.37,-30.17 207.52,-23.26"/>
</g>
<!-- Node6&#45;&gt;Node4 -->
<g id="edge8" class="edge">
<title>Node6&#45;&gt;Node4</title>
<path fill="none" stroke="midnightblue" d="M1571.76,-137.79C1509.88,-127.94 1416.21,-112.68 1335,-98 1322.84,-95.8 1309.6,-93.26 1297.71,-90.91"/>
<polygon fill="midnightblue" stroke="midnightblue" points="1298.17,-87.44 1287.68,-88.92 1296.81,-94.3 1298.17,-87.44"/>
</g>
<!-- Node7 -->
<g id="node7" class="node">
<title>Node7</title>
<g id="a_node7"><a xlink:title=" ">
<polygon fill="white" stroke="#bfbfbf" points="1598,-73 1598,-92 1750,-92 1750,-73 1598,-73"/>
<text text-anchor="middle" x="1674" y="-80" font-family="Helvetica,sans-Serif" font-size="10.00">boost/asio/async_result.hpp</text>
</a>
</g>
</g>
<!-- Node6&#45;&gt;Node7 -->
<g id="edge9" class="edge">
<title>Node6&#45;&gt;Node7</title>
<path fill="none" stroke="midnightblue" d="M1647.38,-134.4C1652.47,-124.66 1659.28,-111.65 1664.73,-101.21"/>
<polygon fill="midnightblue" stroke="midnightblue" points="1667.92,-102.68 1669.45,-92.19 1661.72,-99.43 1667.92,-102.68"/>
</g>
<!-- Node6&#45;&gt;Node8 -->
<g id="edge10" class="edge">
<title>Node6&#45;&gt;Node8</title>
<path fill="none" stroke="midnightblue" d="M1589.3,-134.48C1553.13,-124.47 1504.32,-110.97 1466.02,-100.38"/>
<polygon fill="midnightblue" stroke="midnightblue" points="1466.59,-96.9 1456.02,-97.61 1464.72,-103.65 1466.59,-96.9"/>
</g>
<!-- Node6&#45;&gt;Node9 -->
<g id="edge11" class="edge">
<title>Node6&#45;&gt;Node9</title>
<path fill="none" stroke="midnightblue" d="M1708.07,-140.52C1768.56,-132.57 1859.07,-118.57 1936,-98 1974.44,-87.72 1980.94,-74.62 2020,-67 2266.81,-18.85 2901.52,-62.51 3151,-31 3158.33,-30.07 3166.06,-28.71 3173.52,-27.17"/>
<polygon fill="midnightblue" stroke="midnightblue" points="3174.45,-30.55 3183.48,-25.01 3172.96,-23.71 3174.45,-30.55"/>
</g>
<!-- Node10 -->
<g id="node10" class="node">
<title>Node10</title>
<g id="a_node10"><a xlink:title=" ">
<polygon fill="white" stroke="#bfbfbf" points="248,-6 248,-25 388,-25 388,-6 248,-6"/>
<text text-anchor="middle" x="318" y="-13" font-family="Helvetica,sans-Serif" font-size="10.00">boost/asio/io_service.hpp</text>
</a>
</g>
</g>
<!-- Node6&#45;&gt;Node10 -->
<g id="edge12" class="edge">
<title>Node6&#45;&gt;Node10</title>
<path fill="none" stroke="midnightblue" d="M1625.92,-134.15C1604.53,-112.75 1564.41,-74.2 1546,-67 1427.04,-20.48 524.01,-44.57 397,-31 387.53,-29.99 377.5,-28.49 367.87,-26.82"/>
<polygon fill="midnightblue" stroke="midnightblue" points="368.48,-23.38 358.02,-25.05 367.24,-30.27 368.48,-23.38"/>
</g>
<!-- Node11 -->
<g id="node11" class="node">
<title>Node11</title>
<g id="a_node11"><a xlink:href="1_855_2boost_2asio_2detail_2reactive__socket__service__ext_8hpp.html" target="_top" xlink:title=" ">
<polygon fill="white" stroke="black" points="1768,-67.5 1768,-97.5 1892,-97.5 1892,-67.5 1768,-67.5"/>
<text text-anchor="start" x="1776" y="-85.5" font-family="Helvetica,sans-Serif" font-size="10.00">detail/reactive_socket</text>
<text text-anchor="middle" x="1830" y="-74.5" font-family="Helvetica,sans-Serif" font-size="10.00">_service_ext.hpp</text>
</a>
</g>
</g>
<!-- Node6&#45;&gt;Node11 -->
<g id="edge13" class="edge">
<title>Node6&#45;&gt;Node11</title>
<path fill="none" stroke="midnightblue" d="M1681.23,-134.4C1709.98,-124.56 1748.54,-111.37 1779.2,-100.88"/>
<polygon fill="midnightblue" stroke="midnightblue" points="1780.52,-104.13 1788.85,-97.58 1778.26,-97.5 1780.52,-104.13"/>
</g>
<!-- Node6&#45;&gt;Node28 -->
<g id="edge36" class="edge">
<title>Node6&#45;&gt;Node28</title>
<path fill="none" stroke="midnightblue" d="M1708.01,-141.75C1779.3,-133.97 1894.31,-119.44 1992,-98 2039.11,-87.66 2048.38,-74.69 2096,-67 2613.31,16.49 2756.37,-90.61 3280.66,-31"/>
<polygon fill="midnightblue" stroke="midnightblue" points="3281.23,-34.46 3290.76,-29.84 3280.42,-27.51 3281.23,-34.46"/>
</g>
<!-- Node6&#45;&gt;Node29 -->
<g id="edge37" class="edge">
<title>Node6&#45;&gt;Node29</title>
<path fill="none" stroke="midnightblue" d="M1708.06,-143.44C1762.17,-137.53 1838.83,-124.87 1901,-98 1922.63,-88.65 1921.7,-74.62 1944,-67 2053.93,-29.45 2856.98,-44.7 3012.35,-30.88"/>
<polygon fill="midnightblue" stroke="midnightblue" points="3012.81,-34.35 3022.4,-29.83 3012.09,-27.39 3012.81,-34.35"/>
</g>
<!-- Node11&#45;&gt;Node2 -->
<g id="edge14" class="edge">
<title>Node11&#45;&gt;Node2</title>
<path fill="none" stroke="midnightblue" d="M1767.76,-68.13C1764.81,-67.7 1761.88,-67.32 1759,-67 1385.69,-25.25 437.98,-101.44 69,-31 65.56,-30.34 62.03,-29.42 58.55,-28.34"/>
<polygon fill="midnightblue" stroke="midnightblue" points="59.67,-25.02 49.07,-25.04 57.37,-31.64 59.67,-25.02"/>
</g>
<!-- Node11&#45;&gt;Node3 -->
<g id="edge15" class="edge">
<title>Node11&#45;&gt;Node3</title>
<path fill="none" stroke="midnightblue" d="M1767.76,-68.14C1764.81,-67.71 1761.88,-67.33 1759,-67 1087.53,8.91 911.61,-95.99 239,-31 228.5,-29.99 217.34,-28.43 206.67,-26.71"/>
<polygon fill="midnightblue" stroke="midnightblue" points="207.09,-23.23 196.64,-25.02 205.92,-30.13 207.09,-23.23"/>
</g>
<!-- Node11&#45;&gt;Node9 -->
<g id="edge17" class="edge">
<title>Node11&#45;&gt;Node9</title>
<path fill="none" stroke="midnightblue" d="M1892.05,-74.67C1919.57,-71.88 1952.37,-68.87 1982,-67 2500.77,-34.3 2635.26,-95.88 3151,-31 3158.33,-30.08 3166.06,-28.71 3173.52,-27.18"/>
<polygon fill="midnightblue" stroke="midnightblue" points="3174.45,-30.56 3183.48,-25.02 3172.96,-23.72 3174.45,-30.56"/>
</g>
<!-- Node11&#45;&gt;Node10 -->
<g id="edge18" class="edge">
<title>Node11&#45;&gt;Node10</title>
<path fill="none" stroke="midnightblue" d="M1767.76,-68.15C1764.81,-67.72 1761.87,-67.33 1759,-67 1157.38,1.85 999.27,-93.85 397,-31 387.43,-30 377.27,-28.49 367.55,-26.81"/>
<polygon fill="midnightblue" stroke="midnightblue" points="368.07,-23.35 357.61,-25.01 366.83,-30.23 368.07,-23.35"/>
</g>
<!-- Node12 -->
<g id="node12" class="node">
<title>Node12</title>
<g id="a_node12"><a xlink:title=" ">
<polygon fill="white" stroke="#bfbfbf" points="2529.5,-6 2529.5,-25 2648.5,-25 2648.5,-6 2529.5,-6"/>
<text text-anchor="middle" x="2589" y="-13" font-family="Helvetica,sans-Serif" font-size="10.00">boost/asio/buffer.hpp</text>
</a>
</g>
</g>
<!-- Node11&#45;&gt;Node12 -->
<g id="edge16" class="edge">
<title>Node11&#45;&gt;Node12</title>
<path fill="none" stroke="midnightblue" d="M1892.11,-68.97C1896.8,-68.23 1901.47,-67.56 1906,-67 2177.27,-33.31 2249.05,-67.21 2520,-31 2527.59,-29.99 2535.6,-28.6 2543.36,-27.09"/>
<polygon fill="midnightblue" stroke="midnightblue" points="2544.26,-30.47 2553.36,-25.04 2542.86,-23.61 2544.26,-30.47"/>
</g>
<!-- Node13 -->
<g id="node13" class="node">
<title>Node13</title>
<g id="a_node13"><a xlink:title=" ">
<polygon fill="white" stroke="#bfbfbf" points="2666.5,-6 2666.5,-25 2817.5,-25 2817.5,-6 2666.5,-6"/>
<text text-anchor="middle" x="2742" y="-13" font-family="Helvetica,sans-Serif" font-size="10.00">boost/asio/socket_base.hpp</text>
</a>
</g>
</g>
<!-- Node11&#45;&gt;Node13 -->
<g id="edge19" class="edge">
<title>Node11&#45;&gt;Node13</title>
<path fill="none" stroke="midnightblue" d="M1892.1,-68.91C1896.79,-68.19 1901.46,-67.54 1906,-67 2238.27,-27.55 2325.39,-67.53 2658,-31 2667.93,-29.91 2678.46,-28.39 2688.59,-26.73"/>
<polygon fill="midnightblue" stroke="midnightblue" points="2689.27,-30.17 2698.55,-25.05 2688.1,-23.27 2689.27,-30.17"/>
</g>
<!-- Node14 -->
<g id="node14" class="node">
<title>Node14</title>
<g id="a_node14"><a xlink:title=" ">
<polygon fill="white" stroke="#bfbfbf" points="2835.5,-6 2835.5,-25 3004.5,-25 3004.5,-6 2835.5,-6"/>
<text text-anchor="middle" x="2920" y="-13" font-family="Helvetica,sans-Serif" font-size="10.00">boost/asio/detail/addressof.hpp</text>
</a>
</g>
</g>
<!-- Node11&#45;&gt;Node14 -->
<g id="edge20" class="edge">
<title>Node11&#45;&gt;Node14</title>
<path fill="none" stroke="midnightblue" d="M1892.1,-68.87C1896.79,-68.16 1901.46,-67.52 1906,-67 2313,-20.48 2419.27,-70.62 2827,-31 2838.45,-29.89 2850.63,-28.29 2862.28,-26.56"/>
<polygon fill="midnightblue" stroke="midnightblue" points="2862.99,-29.99 2872.34,-25.01 2861.93,-23.07 2862.99,-29.99"/>
</g>
<!-- Node15 -->
<g id="node15" class="node">
<title>Node15</title>
<g id="a_node15"><a xlink:title=" ">
<polygon fill="white" stroke="#bfbfbf" points="406.5,-0.5 406.5,-30.5 537.5,-30.5 537.5,-0.5 406.5,-0.5"/>
<text text-anchor="start" x="414.5" y="-18.5" font-family="Helvetica,sans-Serif" font-size="10.00">boost/asio/detail/buffer</text>
<text text-anchor="middle" x="472" y="-7.5" font-family="Helvetica,sans-Serif" font-size="10.00">_sequence_adapter.hpp</text>
</a>
</g>
</g>
<!-- Node11&#45;&gt;Node15 -->
<g id="edge21" class="edge">
<title>Node11&#45;&gt;Node15</title>
<path fill="none" stroke="midnightblue" d="M1767.76,-68.16C1764.81,-67.72 1761.87,-67.33 1759,-67 1227.09,-5.25 1084.43,-89.26 548.09,-30.97"/>
<polygon fill="midnightblue" stroke="midnightblue" points="548.08,-27.45 537.76,-29.84 547.32,-34.41 548.08,-27.45"/>
</g>
<!-- Node16 -->
<g id="node16" class="node">
<title>Node16</title>
<g id="a_node16"><a xlink:title=" ">
<polygon fill="white" stroke="#bfbfbf" points="556,-6 556,-25 740,-25 740,-6 556,-6"/>
<text text-anchor="middle" x="648" y="-13" font-family="Helvetica,sans-Serif" font-size="10.00">boost/asio/detail/noncopyable.hpp</text>
</a>
</g>
</g>
<!-- Node11&#45;&gt;Node16 -->
<g id="edge22" class="edge">
<title>Node11&#45;&gt;Node16</title>
<path fill="none" stroke="midnightblue" d="M1767.76,-68.18C1764.8,-67.74 1761.87,-67.34 1759,-67 1312.98,-13.88 1196.39,-70.97 749,-31 736.33,-29.87 722.82,-28.23 709.94,-26.46"/>
<polygon fill="midnightblue" stroke="midnightblue" points="710.17,-22.96 699.78,-25.02 709.19,-29.89 710.17,-22.96"/>
</g>
<!-- Node17 -->
<g id="node17" class="node">
<title>Node17</title>
<g id="a_node17"><a xlink:title=" ">
<polygon fill="white" stroke="#bfbfbf" points="758,-0.5 758,-30.5 898,-30.5 898,-0.5 758,-0.5"/>
<text text-anchor="start" x="766" y="-18.5" font-family="Helvetica,sans-Serif" font-size="10.00">boost/asio/detail/reactive</text>
<text text-anchor="middle" x="828" y="-7.5" font-family="Helvetica,sans-Serif" font-size="10.00">_null_buffers_op.hpp</text>
</a>
</g>
</g>
<!-- Node11&#45;&gt;Node17 -->
<g id="edge23" class="edge">
<title>Node11&#45;&gt;Node17</title>
<path fill="none" stroke="midnightblue" d="M1767.75,-68.2C1764.8,-67.76 1761.87,-67.35 1759,-67 1386.11,-21.34 1285.4,-72.4 908.23,-31.02"/>
<polygon fill="midnightblue" stroke="midnightblue" points="908.46,-27.52 898.14,-29.9 907.69,-34.48 908.46,-27.52"/>
</g>
<!-- Node18 -->
<g id="node18" class="node">
<title>Node18</title>
<g id="a_node18"><a xlink:title=" ">
<polygon fill="white" stroke="#bfbfbf" points="916,-0.5 916,-30.5 1056,-30.5 1056,-0.5 916,-0.5"/>
<text text-anchor="start" x="924" y="-18.5" font-family="Helvetica,sans-Serif" font-size="10.00">boost/asio/detail/reactive</text>
<text text-anchor="middle" x="986" y="-7.5" font-family="Helvetica,sans-Serif" font-size="10.00">_socket_accept_op.hpp</text>
</a>
</g>
</g>
<!-- Node11&#45;&gt;Node18 -->
<g id="edge24" class="edge">
<title>Node11&#45;&gt;Node18</title>
<path fill="none" stroke="midnightblue" d="M1767.75,-68.24C1764.8,-67.78 1761.87,-67.37 1759,-67 1455.91,-28.41 1373.52,-66.13 1066.23,-31.03"/>
<polygon fill="midnightblue" stroke="midnightblue" points="1066.48,-27.54 1056.14,-29.86 1065.67,-34.49 1066.48,-27.54"/>
</g>
<!-- Node19 -->
<g id="node19" class="node">
<title>Node19</title>
<g id="a_node19"><a xlink:title=" ">
<polygon fill="white" stroke="#bfbfbf" points="1074,-0.5 1074,-30.5 1214,-30.5 1214,-0.5 1074,-0.5"/>
<text text-anchor="start" x="1082" y="-18.5" font-family="Helvetica,sans-Serif" font-size="10.00">boost/asio/detail/reactive</text>
<text text-anchor="middle" x="1144" y="-7.5" font-family="Helvetica,sans-Serif" font-size="10.00">_socket_connect_op.hpp</text>
</a>
</g>
</g>
<!-- Node11&#45;&gt;Node19 -->
<g id="edge25" class="edge">
<title>Node11&#45;&gt;Node19</title>
<path fill="none" stroke="midnightblue" d="M1767.74,-68.29C1764.79,-67.82 1761.87,-67.39 1759,-67 1525.62,-35.48 1461.66,-59.91 1224.13,-31.04"/>
<polygon fill="midnightblue" stroke="midnightblue" points="1224.5,-27.56 1214.15,-29.81 1223.64,-34.5 1224.5,-27.56"/>
</g>
<!-- Node20 -->
<g id="node20" class="node">
<title>Node20</title>
<g id="a_node20"><a xlink:title=" ">
<polygon fill="white" stroke="#bfbfbf" points="1232,-0.5 1232,-30.5 1394,-30.5 1394,-0.5 1232,-0.5"/>
<text text-anchor="start" x="1240" y="-18.5" font-family="Helvetica,sans-Serif" font-size="10.00">boost/asio/detail/reactive</text>
<text text-anchor="middle" x="1313" y="-7.5" font-family="Helvetica,sans-Serif" font-size="10.00">_socket_recvfrom_op_ext.hpp</text>
</a>
</g>
</g>
<!-- Node11&#45;&gt;Node20 -->
<g id="edge26" class="edge">
<title>Node11&#45;&gt;Node20</title>
<path fill="none" stroke="midnightblue" d="M1767.73,-68.41C1764.78,-67.91 1761.86,-67.44 1759,-67 1605.01,-43.55 1562.42,-51.32 1404.48,-31.14"/>
<polygon fill="midnightblue" stroke="midnightblue" points="1404.77,-27.65 1394.4,-29.84 1403.87,-34.59 1404.77,-27.65"/>
</g>
<!-- Node21 -->
<g id="node21" class="node">
<title>Node21</title>
<g id="a_node21"><a xlink:title=" ">
<polygon fill="white" stroke="#bfbfbf" points="1412,-0.5 1412,-30.5 1552,-30.5 1552,-0.5 1412,-0.5"/>
<text text-anchor="start" x="1420" y="-18.5" font-family="Helvetica,sans-Serif" font-size="10.00">boost/asio/detail/reactive</text>
<text text-anchor="middle" x="1482" y="-7.5" font-family="Helvetica,sans-Serif" font-size="10.00">_socket_sendto_op.hpp</text>
</a>
</g>
</g>
<!-- Node11&#45;&gt;Node21 -->
<g id="edge27" class="edge">
<title>Node11&#45;&gt;Node21</title>
<path fill="none" stroke="midnightblue" d="M1767.68,-68.69C1764.74,-68.12 1761.84,-67.55 1759,-67 1674.27,-50.65 1650.63,-47.3 1562.15,-31.2"/>
<polygon fill="midnightblue" stroke="midnightblue" points="1562.68,-27.74 1552.21,-29.39 1561.42,-34.63 1562.68,-27.74"/>
</g>
<!-- Node22 -->
<g id="node22" class="node">
<title>Node22</title>
<g id="a_node22"><a xlink:title=" ">
<polygon fill="white" stroke="#bfbfbf" points="1570,-0.5 1570,-30.5 1734,-30.5 1734,-0.5 1570,-0.5"/>
<text text-anchor="start" x="1578" y="-18.5" font-family="Helvetica,sans-Serif" font-size="10.00">boost/asio/detail/reactive</text>
<text text-anchor="middle" x="1652" y="-7.5" font-family="Helvetica,sans-Serif" font-size="10.00">_socket_service_base_ext.hpp</text>
</a>
</g>
</g>
<!-- Node11&#45;&gt;Node22 -->
<g id="edge28" class="edge">
<title>Node11&#45;&gt;Node22</title>
<path fill="none" stroke="midnightblue" d="M1791.38,-67.4C1764.55,-57.6 1728.62,-44.48 1699.97,-34.02"/>
<polygon fill="midnightblue" stroke="midnightblue" points="1701.14,-30.72 1690.55,-30.58 1698.74,-37.29 1701.14,-30.72"/>
</g>
<!-- Node23 -->
<g id="node23" class="node">
<title>Node23</title>
<g id="a_node23"><a xlink:title=" ">
<polygon fill="white" stroke="#bfbfbf" points="1752.5,-6 1752.5,-25 1907.5,-25 1907.5,-6 1752.5,-6"/>
<text text-anchor="middle" x="1830" y="-13" font-family="Helvetica,sans-Serif" font-size="10.00">boost/asio/detail/reactor.hpp</text>
</a>
</g>
</g>
<!-- Node11&#45;&gt;Node23 -->
<g id="edge29" class="edge">
<title>Node11&#45;&gt;Node23</title>
<path fill="none" stroke="midnightblue" d="M1830,-67.4C1830,-58.06 1830,-45.71 1830,-35.52"/>
<polygon fill="midnightblue" stroke="midnightblue" points="1833.5,-35.19 1830,-25.19 1826.5,-35.19 1833.5,-35.19"/>
</g>
<!-- Node24 -->
<g id="node24" class="node">
<title>Node24</title>
<g id="a_node24"><a xlink:title=" ">
<polygon fill="white" stroke="#bfbfbf" points="1925.5,-0.5 1925.5,-30.5 2060.5,-30.5 2060.5,-0.5 1925.5,-0.5"/>
<text text-anchor="start" x="1933.5" y="-18.5" font-family="Helvetica,sans-Serif" font-size="10.00">boost/asio/detail/reactor</text>
<text text-anchor="middle" x="1993" y="-7.5" font-family="Helvetica,sans-Serif" font-size="10.00">_op.hpp</text>
</a>
</g>
</g>
<!-- Node11&#45;&gt;Node24 -->
<g id="edge30" class="edge">
<title>Node11&#45;&gt;Node24</title>
<path fill="none" stroke="midnightblue" d="M1865.37,-67.4C1889.72,-57.69 1922.26,-44.71 1948.39,-34.29"/>
<polygon fill="midnightblue" stroke="midnightblue" points="1949.71,-37.53 1957.7,-30.58 1947.12,-31.03 1949.71,-37.53"/>
</g>
<!-- Node25 -->
<g id="node25" class="node">
<title>Node25</title>
<g id="a_node25"><a xlink:title=" ">
<polygon fill="white" stroke="#bfbfbf" points="2079,-0.5 2079,-30.5 2211,-30.5 2211,-0.5 2079,-0.5"/>
<text text-anchor="start" x="2087" y="-18.5" font-family="Helvetica,sans-Serif" font-size="10.00">boost/asio/detail/socket</text>
<text text-anchor="middle" x="2145" y="-7.5" font-family="Helvetica,sans-Serif" font-size="10.00">_holder.hpp</text>
</a>
</g>
</g>
<!-- Node11&#45;&gt;Node25 -->
<g id="edge31" class="edge">
<title>Node11&#45;&gt;Node25</title>
<path fill="none" stroke="midnightblue" d="M1892.23,-68.66C1942.96,-58.19 2014.79,-43.37 2068.93,-32.2"/>
<polygon fill="midnightblue" stroke="midnightblue" points="2069.73,-35.6 2078.82,-30.16 2068.32,-28.75 2069.73,-35.6"/>
</g>
<!-- Node26 -->
<g id="node26" class="node">
<title>Node26</title>
<g id="a_node26"><a xlink:title=" ">
<polygon fill="white" stroke="#bfbfbf" points="2229,-0.5 2229,-30.5 2361,-30.5 2361,-0.5 2229,-0.5"/>
<text text-anchor="start" x="2237" y="-18.5" font-family="Helvetica,sans-Serif" font-size="10.00">boost/asio/detail/socket</text>
<text text-anchor="middle" x="2295" y="-7.5" font-family="Helvetica,sans-Serif" font-size="10.00">_ops.hpp</text>
</a>
</g>
</g>
<!-- Node11&#45;&gt;Node26 -->
<g id="edge32" class="edge">
<title>Node11&#45;&gt;Node26</title>
<path fill="none" stroke="midnightblue" d="M1892.15,-69.25C1896.83,-68.45 1901.49,-67.69 1906,-67 2041.61,-46.32 2079.4,-52.06 2218.59,-31.14"/>
<polygon fill="midnightblue" stroke="midnightblue" points="2219.44,-34.55 2228.79,-29.59 2218.38,-27.63 2219.44,-34.55"/>
</g>
<!-- Node27 -->
<g id="node27" class="node">
<title>Node27</title>
<g id="a_node27"><a xlink:title=" ">
<polygon fill="white" stroke="#bfbfbf" points="2379,-0.5 2379,-30.5 2511,-30.5 2511,-0.5 2379,-0.5"/>
<text text-anchor="start" x="2387" y="-18.5" font-family="Helvetica,sans-Serif" font-size="10.00">boost/asio/detail/socket</text>
<text text-anchor="middle" x="2445" y="-7.5" font-family="Helvetica,sans-Serif" font-size="10.00">_types.hpp</text>
</a>
</g>
</g>
<!-- Node11&#45;&gt;Node27 -->
<g id="edge33" class="edge">
<title>Node11&#45;&gt;Node27</title>
<path fill="none" stroke="midnightblue" d="M1892.12,-69.07C1896.81,-68.31 1901.47,-67.61 1906,-67 2107.71,-40.02 2163.24,-58.07 2368.6,-31.08"/>
<polygon fill="midnightblue" stroke="midnightblue" points="2369.36,-34.51 2378.81,-29.72 2368.44,-27.57 2369.36,-34.51"/>
</g>
<!-- Node11&#45;&gt;Node28 -->
<g id="edge34" class="edge">
<title>Node11&#45;&gt;Node28</title>
<path fill="none" stroke="midnightblue" d="M1892.39,-76.96C1938.19,-73.76 2001.94,-69.61 2058,-67 2598.33,-41.88 2739.67,-93.05 3280.75,-31"/>
<polygon fill="midnightblue" stroke="midnightblue" points="3281.23,-34.47 3290.76,-29.84 3280.42,-27.51 3281.23,-34.47"/>
</g>
<!-- Node11&#45;&gt;Node29 -->
<g id="edge35" class="edge">
<title>Node11&#45;&gt;Node29</title>
<path fill="none" stroke="midnightblue" d="M1892.09,-68.84C1896.79,-68.13 1901.46,-67.5 1906,-67 2392.35,-13.04 2523.13,-89.55 3012.25,-31.06"/>
<polygon fill="midnightblue" stroke="midnightblue" points="3012.89,-34.51 3022.4,-29.84 3012.05,-27.56 3012.89,-34.51"/>
</g>
</g>
</svg>
