<?xml version="1.0" encoding="UTF-8" standalone="no"?>
<!DOCTYPE svg PUBLIC "-//W3C//DTD SVG 1.1//EN"
 "http://www.w3.org/Graphics/SVG/1.1/DTD/svg11.dtd">
<!-- Generated by graphviz version 2.43.0 (0)
 -->
<!-- Title: /home/kali/projects/vsomeip/implementation/helper/1.55/boost/asio/detail/reactive_socket_service_base_ext.hpp Pages: 1 -->
<svg width="2879pt" height="139pt"
 viewBox="0.00 0.00 2878.50 139.00" xmlns="http://www.w3.org/2000/svg" xmlns:xlink="http://www.w3.org/1999/xlink">
<g id="graph0" class="graph" transform="scale(1 1) rotate(0) translate(4 135)">
<title>/home/kali/projects/vsomeip/implementation/helper/1.55/boost/asio/detail/reactive_socket_service_base_ext.hpp</title>
<polygon fill="white" stroke="transparent" points="-4,4 -4,-135 2874.5,-135 2874.5,4 -4,4"/>
<!-- Node1 -->
<g id="node1" class="node">
<title>Node1</title>
<g id="a_node1"><a xlink:title=" ">
<polygon fill="#bfbfbf" stroke="black" points="1336.5,-67.5 1336.5,-130.5 1479.5,-130.5 1479.5,-67.5 1336.5,-67.5"/>
<text text-anchor="start" x="1344.5" y="-118.5" font-family="Helvetica,sans-Serif" font-size="10.00">/home/kali/projects</text>
<text text-anchor="start" x="1344.5" y="-107.5" font-family="Helvetica,sans-Serif" font-size="10.00">/vsomeip/implementation</text>
<text text-anchor="start" x="1344.5" y="-96.5" font-family="Helvetica,sans-Serif" font-size="10.00">/helper/1.55/boost/asio</text>
<text text-anchor="start" x="1344.5" y="-85.5" font-family="Helvetica,sans-Serif" font-size="10.00">/detail/reactive_socket</text>
<text text-anchor="middle" x="1408" y="-74.5" font-family="Helvetica,sans-Serif" font-size="10.00">_service_base_ext.hpp</text>
</a>
</g>
</g>
<!-- Node2 -->
<g id="node2" class="node">
<title>Node2</title>
<g id="a_node2"><a xlink:title=" ">
<polygon fill="white" stroke="#bfbfbf" points="0,-6 0,-25 60,-25 60,-6 0,-6"/>
<text text-anchor="middle" x="30" y="-13" font-family="Helvetica,sans-Serif" font-size="10.00">iostream</text>
</a>
</g>
</g>
<!-- Node1&#45;&gt;Node2 -->
<g id="edge1" class="edge">
<title>Node1&#45;&gt;Node2</title>
<path fill="none" stroke="midnightblue" d="M1336.09,-97.29C1094.66,-94.46 314.5,-81.53 69,-31 65.75,-30.33 62.4,-29.43 59.1,-28.41"/>
<polygon fill="midnightblue" stroke="midnightblue" points="60.09,-25.05 49.5,-25.08 57.8,-31.66 60.09,-25.05"/>
</g>
<!-- Node3 -->
<g id="node3" class="node">
<title>Node3</title>
<g id="a_node3"><a xlink:title=" ">
<polygon fill="white" stroke="#bfbfbf" points="78.5,-6 78.5,-25 229.5,-25 229.5,-6 78.5,-6"/>
<text text-anchor="middle" x="154" y="-13" font-family="Helvetica,sans-Serif" font-size="10.00">boost/asio/detail/config.hpp</text>
</a>
</g>
</g>
<!-- Node1&#45;&gt;Node3 -->
<g id="edge2" class="edge">
<title>Node1&#45;&gt;Node3</title>
<path fill="none" stroke="midnightblue" d="M1336.2,-96.73C1152.76,-92.86 652.13,-78.44 238,-31 228.29,-29.89 218,-28.38 208.07,-26.76"/>
<polygon fill="midnightblue" stroke="midnightblue" points="208.34,-23.26 197.9,-25.05 207.17,-30.16 208.34,-23.26"/>
</g>
<!-- Node4 -->
<g id="node4" class="node">
<title>Node4</title>
<g id="a_node4"><a xlink:title=" ">
<polygon fill="white" stroke="#bfbfbf" points="247.5,-6 247.5,-25 366.5,-25 366.5,-6 247.5,-6"/>
<text text-anchor="middle" x="307" y="-13" font-family="Helvetica,sans-Serif" font-size="10.00">boost/asio/buffer.hpp</text>
</a>
</g>
</g>
<!-- Node1&#45;&gt;Node4 -->
<g id="edge3" class="edge">
<title>Node1&#45;&gt;Node4</title>
<path fill="none" stroke="midnightblue" d="M1336.25,-96.93C1167.72,-93.63 733.72,-80.61 375,-31 367.52,-29.97 359.63,-28.57 351.98,-27.05"/>
<polygon fill="midnightblue" stroke="midnightblue" points="352.62,-23.61 342.12,-25.01 351.2,-30.46 352.62,-23.61"/>
</g>
<!-- Node5 -->
<g id="node5" class="node">
<title>Node5</title>
<g id="a_node5"><a xlink:title=" ">
<polygon fill="white" stroke="#bfbfbf" points="384.5,-6 384.5,-25 497.5,-25 497.5,-6 384.5,-6"/>
<text text-anchor="middle" x="441" y="-13" font-family="Helvetica,sans-Serif" font-size="10.00">boost/asio/error.hpp</text>
</a>
</g>
</g>
<!-- Node1&#45;&gt;Node5 -->
<g id="edge4" class="edge">
<title>Node1&#45;&gt;Node5</title>
<path fill="none" stroke="midnightblue" d="M1336.37,-96.13C1183.36,-91.37 813.53,-75.84 507,-31 500.06,-29.98 492.76,-28.65 485.65,-27.21"/>
<polygon fill="midnightblue" stroke="midnightblue" points="485.94,-23.69 475.43,-25.03 484.48,-30.54 485.94,-23.69"/>
</g>
<!-- Node6 -->
<g id="node6" class="node">
<title>Node6</title>
<g id="a_node6"><a xlink:title=" ">
<polygon fill="white" stroke="#bfbfbf" points="516,-6 516,-25 656,-25 656,-6 516,-6"/>
<text text-anchor="middle" x="586" y="-13" font-family="Helvetica,sans-Serif" font-size="10.00">boost/asio/io_service.hpp</text>
</a>
</g>
</g>
<!-- Node1&#45;&gt;Node6 -->
<g id="edge5" class="edge">
<title>Node1&#45;&gt;Node6</title>
<path fill="none" stroke="midnightblue" d="M1336.29,-93.73C1203.44,-85.32 910.26,-64.49 665,-31 656.37,-29.82 647.24,-28.35 638.38,-26.81"/>
<polygon fill="midnightblue" stroke="midnightblue" points="638.99,-23.36 628.52,-25.04 637.75,-30.25 638.99,-23.36"/>
</g>
<!-- Node7 -->
<g id="node7" class="node">
<title>Node7</title>
<g id="a_node7"><a xlink:title=" ">
<polygon fill="white" stroke="#bfbfbf" points="674.5,-6 674.5,-25 825.5,-25 825.5,-6 674.5,-6"/>
<text text-anchor="middle" x="750" y="-13" font-family="Helvetica,sans-Serif" font-size="10.00">boost/asio/socket_base.hpp</text>
</a>
</g>
</g>
<!-- Node1&#45;&gt;Node7 -->
<g id="edge6" class="edge">
<title>Node1&#45;&gt;Node7</title>
<path fill="none" stroke="midnightblue" d="M1336.25,-90.9C1227.42,-79.84 1014.22,-57.05 834,-31 825.17,-29.72 815.83,-28.24 806.73,-26.73"/>
<polygon fill="midnightblue" stroke="midnightblue" points="807.02,-23.23 796.58,-25.01 805.86,-30.13 807.02,-23.23"/>
</g>
<!-- Node8 -->
<g id="node8" class="node">
<title>Node8</title>
<g id="a_node8"><a xlink:title=" ">
<polygon fill="white" stroke="#bfbfbf" points="843.5,-6 843.5,-25 1012.5,-25 1012.5,-6 843.5,-6"/>
<text text-anchor="middle" x="928" y="-13" font-family="Helvetica,sans-Serif" font-size="10.00">boost/asio/detail/addressof.hpp</text>
</a>
</g>
</g>
<!-- Node1&#45;&gt;Node8 -->
<g id="edge7" class="edge">
<title>Node1&#45;&gt;Node8</title>
<path fill="none" stroke="midnightblue" d="M1336.4,-85.84C1241.78,-69.78 1076.77,-41.76 988.23,-26.73"/>
<polygon fill="midnightblue" stroke="midnightblue" points="988.78,-23.27 978.34,-25.05 987.61,-30.17 988.78,-23.27"/>
</g>
<!-- Node9 -->
<g id="node9" class="node">
<title>Node9</title>
<g id="a_node9"><a xlink:title=" ">
<polygon fill="white" stroke="#bfbfbf" points="1030.5,-0.5 1030.5,-30.5 1161.5,-30.5 1161.5,-0.5 1030.5,-0.5"/>
<text text-anchor="start" x="1038.5" y="-18.5" font-family="Helvetica,sans-Serif" font-size="10.00">boost/asio/detail/buffer</text>
<text text-anchor="middle" x="1096" y="-7.5" font-family="Helvetica,sans-Serif" font-size="10.00">_sequence_adapter.hpp</text>
</a>
</g>
</g>
<!-- Node1&#45;&gt;Node9 -->
<g id="edge8" class="edge">
<title>Node1&#45;&gt;Node9</title>
<path fill="none" stroke="midnightblue" d="M1336.42,-79.3C1283.12,-65.38 1211.01,-46.54 1159.7,-33.14"/>
<polygon fill="midnightblue" stroke="midnightblue" points="1160.29,-29.68 1149.73,-30.53 1158.52,-36.45 1160.29,-29.68"/>
</g>
<!-- Node10 -->
<g id="node10" class="node">
<title>Node10</title>
<g id="a_node10"><a xlink:title=" ">
<polygon fill="white" stroke="#bfbfbf" points="1180,-0.5 1180,-30.5 1320,-30.5 1320,-0.5 1180,-0.5"/>
<text text-anchor="start" x="1188" y="-18.5" font-family="Helvetica,sans-Serif" font-size="10.00">boost/asio/detail/reactive</text>
<text text-anchor="middle" x="1250" y="-7.5" font-family="Helvetica,sans-Serif" font-size="10.00">_null_buffers_op.hpp</text>
</a>
</g>
</g>
<!-- Node1&#45;&gt;Node10 -->
<g id="edge9" class="edge">
<title>Node1&#45;&gt;Node10</title>
<path fill="none" stroke="midnightblue" d="M1348.72,-67.42C1327.74,-56.6 1304.79,-44.76 1286.29,-35.22"/>
<polygon fill="midnightblue" stroke="midnightblue" points="1287.83,-32.07 1277.34,-30.6 1284.62,-38.3 1287.83,-32.07"/>
</g>
<!-- Node11 -->
<g id="node11" class="node">
<title>Node11</title>
<g id="a_node11"><a xlink:title=" ">
<polygon fill="white" stroke="#bfbfbf" points="1338,-0.5 1338,-30.5 1478,-30.5 1478,-0.5 1338,-0.5"/>
<text text-anchor="start" x="1346" y="-18.5" font-family="Helvetica,sans-Serif" font-size="10.00">boost/asio/detail/reactive</text>
<text text-anchor="middle" x="1408" y="-7.5" font-family="Helvetica,sans-Serif" font-size="10.00">_socket_recv_op_ext.hpp</text>
</a>
</g>
</g>
<!-- Node1&#45;&gt;Node11 -->
<g id="edge10" class="edge">
<title>Node1&#45;&gt;Node11</title>
<path fill="none" stroke="midnightblue" d="M1408,-67.19C1408,-58.41 1408,-48.98 1408,-40.66"/>
<polygon fill="midnightblue" stroke="midnightblue" points="1411.5,-40.52 1408,-30.52 1404.5,-40.52 1411.5,-40.52"/>
</g>
<!-- Node12 -->
<g id="node12" class="node">
<title>Node12</title>
<g id="a_node12"><a xlink:title=" ">
<polygon fill="white" stroke="#bfbfbf" points="1496,-0.5 1496,-30.5 1656,-30.5 1656,-0.5 1496,-0.5"/>
<text text-anchor="start" x="1504" y="-18.5" font-family="Helvetica,sans-Serif" font-size="10.00">boost/asio/detail/reactive</text>
<text text-anchor="middle" x="1576" y="-7.5" font-family="Helvetica,sans-Serif" font-size="10.00">_socket_recvmsg_op_ext.hpp</text>
</a>
</g>
</g>
<!-- Node1&#45;&gt;Node12 -->
<g id="edge11" class="edge">
<title>Node1&#45;&gt;Node12</title>
<path fill="none" stroke="midnightblue" d="M1471.03,-67.42C1493.44,-56.55 1517.97,-44.65 1537.68,-35.09"/>
<polygon fill="midnightblue" stroke="midnightblue" points="1539.46,-38.11 1546.93,-30.6 1536.41,-31.82 1539.46,-38.11"/>
</g>
<!-- Node13 -->
<g id="node13" class="node">
<title>Node13</title>
<g id="a_node13"><a xlink:title=" ">
<polygon fill="white" stroke="#bfbfbf" points="1674,-0.5 1674,-30.5 1814,-30.5 1814,-0.5 1674,-0.5"/>
<text text-anchor="start" x="1682" y="-18.5" font-family="Helvetica,sans-Serif" font-size="10.00">boost/asio/detail/reactive</text>
<text text-anchor="middle" x="1744" y="-7.5" font-family="Helvetica,sans-Serif" font-size="10.00">_socket_send_op.hpp</text>
</a>
</g>
</g>
<!-- Node1&#45;&gt;Node13 -->
<g id="edge12" class="edge">
<title>Node1&#45;&gt;Node13</title>
<path fill="none" stroke="midnightblue" d="M1479.67,-80.62C1537.76,-66.53 1619.06,-46.81 1676.11,-32.97"/>
<polygon fill="midnightblue" stroke="midnightblue" points="1677.22,-36.3 1686.11,-30.54 1675.57,-29.5 1677.22,-36.3"/>
</g>
<!-- Node14 -->
<g id="node14" class="node">
<title>Node14</title>
<g id="a_node14"><a xlink:title=" ">
<polygon fill="white" stroke="#bfbfbf" points="1832.5,-6 1832.5,-25 1987.5,-25 1987.5,-6 1832.5,-6"/>
<text text-anchor="middle" x="1910" y="-13" font-family="Helvetica,sans-Serif" font-size="10.00">boost/asio/detail/reactor.hpp</text>
</a>
</g>
</g>
<!-- Node1&#45;&gt;Node14 -->
<g id="edge13" class="edge">
<title>Node1&#45;&gt;Node14</title>
<path fill="none" stroke="midnightblue" d="M1479.62,-86.55C1562.35,-73.3 1702.55,-50.76 1823,-31 1831.36,-29.63 1840.18,-28.17 1848.85,-26.73"/>
<polygon fill="midnightblue" stroke="midnightblue" points="1849.65,-30.15 1858.94,-25.05 1848.5,-23.24 1849.65,-30.15"/>
</g>
<!-- Node15 -->
<g id="node15" class="node">
<title>Node15</title>
<g id="a_node15"><a xlink:title=" ">
<polygon fill="white" stroke="#bfbfbf" points="2005.5,-0.5 2005.5,-30.5 2140.5,-30.5 2140.5,-0.5 2005.5,-0.5"/>
<text text-anchor="start" x="2013.5" y="-18.5" font-family="Helvetica,sans-Serif" font-size="10.00">boost/asio/detail/reactor</text>
<text text-anchor="middle" x="2073" y="-7.5" font-family="Helvetica,sans-Serif" font-size="10.00">_op.hpp</text>
</a>
</g>
</g>
<!-- Node1&#45;&gt;Node15 -->
<g id="edge14" class="edge">
<title>Node1&#45;&gt;Node15</title>
<path fill="none" stroke="midnightblue" d="M1479.86,-91.58C1589.14,-81.44 1803.81,-59.98 1995.13,-31.23"/>
<polygon fill="midnightblue" stroke="midnightblue" points="1995.73,-34.68 2005.09,-29.72 1994.68,-27.75 1995.73,-34.68"/>
</g>
<!-- Node16 -->
<g id="node16" class="node">
<title>Node16</title>
<g id="a_node16"><a xlink:title=" ">
<polygon fill="white" stroke="#bfbfbf" points="2159,-0.5 2159,-30.5 2291,-30.5 2291,-0.5 2159,-0.5"/>
<text text-anchor="start" x="2167" y="-18.5" font-family="Helvetica,sans-Serif" font-size="10.00">boost/asio/detail/socket</text>
<text text-anchor="middle" x="2225" y="-7.5" font-family="Helvetica,sans-Serif" font-size="10.00">_holder.hpp</text>
</a>
</g>
</g>
<!-- Node1&#45;&gt;Node16 -->
<g id="edge15" class="edge">
<title>Node1&#45;&gt;Node16</title>
<path fill="none" stroke="midnightblue" d="M1479.65,-93.94C1610.61,-86 1897.53,-66.15 2148.76,-31.09"/>
<polygon fill="midnightblue" stroke="midnightblue" points="2149.39,-34.53 2158.81,-29.67 2148.42,-27.6 2149.39,-34.53"/>
</g>
<!-- Node17 -->
<g id="node17" class="node">
<title>Node17</title>
<g id="a_node17"><a xlink:title=" ">
<polygon fill="white" stroke="#bfbfbf" points="2309,-0.5 2309,-30.5 2441,-30.5 2441,-0.5 2309,-0.5"/>
<text text-anchor="start" x="2317" y="-18.5" font-family="Helvetica,sans-Serif" font-size="10.00">boost/asio/detail/socket</text>
<text text-anchor="middle" x="2375" y="-7.5" font-family="Helvetica,sans-Serif" font-size="10.00">_ops_ext.hpp</text>
</a>
</g>
</g>
<!-- Node1&#45;&gt;Node17 -->
<g id="edge16" class="edge">
<title>Node1&#45;&gt;Node17</title>
<path fill="none" stroke="midnightblue" d="M1479.69,-95.44C1629.91,-89.46 1988.75,-71.97 2298.73,-31.07"/>
<polygon fill="midnightblue" stroke="midnightblue" points="2299.36,-34.52 2308.82,-29.73 2298.44,-27.58 2299.36,-34.52"/>
</g>
<!-- Node18 -->
<g id="node18" class="node">
<title>Node18</title>
<g id="a_node18"><a xlink:title=" ">
<polygon fill="white" stroke="#bfbfbf" points="2459,-0.5 2459,-30.5 2591,-30.5 2591,-0.5 2459,-0.5"/>
<text text-anchor="start" x="2467" y="-18.5" font-family="Helvetica,sans-Serif" font-size="10.00">boost/asio/detail/socket</text>
<text text-anchor="middle" x="2525" y="-7.5" font-family="Helvetica,sans-Serif" font-size="10.00">_types.hpp</text>
</a>
</g>
</g>
<!-- Node1&#45;&gt;Node18 -->
<g id="edge17" class="edge">
<title>Node1&#45;&gt;Node18</title>
<path fill="none" stroke="midnightblue" d="M1479.68,-96.52C1647.56,-92.37 2079.35,-77.8 2448.73,-31.05"/>
<polygon fill="midnightblue" stroke="midnightblue" points="2449.34,-34.5 2458.82,-29.77 2448.46,-27.56 2449.34,-34.5"/>
</g>
<!-- Node19 -->
<g id="node19" class="node">
<title>Node19</title>
<g id="a_node19"><a xlink:title=" ">
<polygon fill="white" stroke="#bfbfbf" points="2609,-0.5 2609,-30.5 2733,-30.5 2733,-0.5 2609,-0.5"/>
<text text-anchor="start" x="2617" y="-18.5" font-family="Helvetica,sans-Serif" font-size="10.00">boost/asio/detail/push</text>
<text text-anchor="middle" x="2671" y="-7.5" font-family="Helvetica,sans-Serif" font-size="10.00">_options.hpp</text>
</a>
</g>
</g>
<!-- Node1&#45;&gt;Node19 -->
<g id="edge18" class="edge">
<title>Node1&#45;&gt;Node19</title>
<path fill="none" stroke="midnightblue" d="M1479.54,-97.59C1663.79,-95.77 2169.6,-85.87 2598.63,-31.05"/>
<polygon fill="midnightblue" stroke="midnightblue" points="2599.28,-34.49 2608.75,-29.75 2598.38,-27.55 2599.28,-34.49"/>
</g>
<!-- Node20 -->
<g id="node20" class="node">
<title>Node20</title>
<g id="a_node20"><a xlink:title=" ">
<polygon fill="white" stroke="#bfbfbf" points="2751.5,-0.5 2751.5,-30.5 2870.5,-30.5 2870.5,-0.5 2751.5,-0.5"/>
<text text-anchor="start" x="2759.5" y="-18.5" font-family="Helvetica,sans-Serif" font-size="10.00">boost/asio/detail/pop</text>
<text text-anchor="middle" x="2811" y="-7.5" font-family="Helvetica,sans-Serif" font-size="10.00">_options.hpp</text>
</a>
</g>
</g>
<!-- Node1&#45;&gt;Node20 -->
<g id="edge19" class="edge">
<title>Node1&#45;&gt;Node20</title>
<path fill="none" stroke="midnightblue" d="M1479.57,-98.34C1678.51,-98.46 2254.84,-93.07 2741.23,-30.94"/>
<polygon fill="midnightblue" stroke="midnightblue" points="2741.79,-34.4 2751.26,-29.65 2740.89,-27.46 2741.79,-34.4"/>
</g>
</g>
</svg>
