<?xml version="1.0" encoding="UTF-8" standalone="no"?>
<!DOCTYPE svg PUBLIC "-//W3C//DTD SVG 1.1//EN"
 "http://www.w3.org/Graphics/SVG/1.1/DTD/svg11.dtd">
<!-- Generated by graphviz version 2.43.0 (0)
 -->
<!-- Title: /home/kali/projects/vsomeip/implementation/helper/1.55/boost/asio/detail/reactive_socket_recvfrom_op_ext_local.hpp Pages: 1 -->
<svg width="1372pt" height="139pt"
 viewBox="0.00 0.00 1372.00 139.00" xmlns="http://www.w3.org/2000/svg" xmlns:xlink="http://www.w3.org/1999/xlink">
<g id="graph0" class="graph" transform="scale(1 1) rotate(0) translate(4 135)">
<title>/home/kali/projects/vsomeip/implementation/helper/1.55/boost/asio/detail/reactive_socket_recvfrom_op_ext_local.hpp</title>
<polygon fill="white" stroke="transparent" points="-4,4 -4,-135 1368,-135 1368,4 -4,4"/>
<!-- Node1 -->
<g id="node1" class="node">
<title>Node1</title>
<g id="a_node1"><a xlink:title=" ">
<polygon fill="#bfbfbf" stroke="black" points="636.5,-67.5 636.5,-130.5 790.5,-130.5 790.5,-67.5 636.5,-67.5"/>
<text text-anchor="start" x="644.5" y="-118.5" font-family="Helvetica,sans-Serif" font-size="10.00">/home/kali/projects</text>
<text text-anchor="start" x="644.5" y="-107.5" font-family="Helvetica,sans-Serif" font-size="10.00">/vsomeip/implementation</text>
<text text-anchor="start" x="644.5" y="-96.5" font-family="Helvetica,sans-Serif" font-size="10.00">/helper/1.55/boost/asio</text>
<text text-anchor="start" x="644.5" y="-85.5" font-family="Helvetica,sans-Serif" font-size="10.00">/detail/reactive_socket</text>
<text text-anchor="middle" x="713.5" y="-74.5" font-family="Helvetica,sans-Serif" font-size="10.00">_recvfrom_op_ext_local.hpp</text>
</a>
</g>
</g>
<!-- Node2 -->
<g id="node2" class="node">
<title>Node2</title>
<g id="a_node2"><a xlink:title=" ">
<polygon fill="white" stroke="#bfbfbf" points="0,-6 0,-25 151,-25 151,-6 0,-6"/>
<text text-anchor="middle" x="75.5" y="-13" font-family="Helvetica,sans-Serif" font-size="10.00">boost/asio/detail/config.hpp</text>
</a>
</g>
</g>
<!-- Node1&#45;&gt;Node2 -->
<g id="edge1" class="edge">
<title>Node1&#45;&gt;Node2</title>
<path fill="none" stroke="midnightblue" d="M636.26,-89.91C529.05,-78.39 329.16,-55.89 159.5,-31 150.78,-29.72 141.56,-28.25 132.56,-26.75"/>
<polygon fill="midnightblue" stroke="midnightblue" points="132.97,-23.27 122.53,-25.05 131.8,-30.17 132.97,-23.27"/>
</g>
<!-- Node3 -->
<g id="node3" class="node">
<title>Node3</title>
<g id="a_node3"><a xlink:title=" ">
<polygon fill="white" stroke="#bfbfbf" points="169,-6 169,-25 338,-25 338,-6 169,-6"/>
<text text-anchor="middle" x="253.5" y="-13" font-family="Helvetica,sans-Serif" font-size="10.00">boost/asio/detail/addressof.hpp</text>
</a>
</g>
</g>
<!-- Node1&#45;&gt;Node3 -->
<g id="edge2" class="edge">
<title>Node1&#45;&gt;Node3</title>
<path fill="none" stroke="midnightblue" d="M636.25,-84.31C544.62,-68.08 393.95,-41.38 311.64,-26.8"/>
<polygon fill="midnightblue" stroke="midnightblue" points="312.16,-23.34 301.71,-25.04 310.94,-30.23 312.16,-23.34"/>
</g>
<!-- Node4 -->
<g id="node4" class="node">
<title>Node4</title>
<g id="a_node4"><a xlink:title=" ">
<polygon fill="white" stroke="#bfbfbf" points="356.5,-0.5 356.5,-30.5 478.5,-30.5 478.5,-0.5 356.5,-0.5"/>
<text text-anchor="start" x="364.5" y="-18.5" font-family="Helvetica,sans-Serif" font-size="10.00">boost/asio/detail/bind</text>
<text text-anchor="middle" x="417.5" y="-7.5" font-family="Helvetica,sans-Serif" font-size="10.00">_handler.hpp</text>
</a>
</g>
</g>
<!-- Node1&#45;&gt;Node4 -->
<g id="edge3" class="edge">
<title>Node1&#45;&gt;Node4</title>
<path fill="none" stroke="midnightblue" d="M636.12,-76.69C586.8,-63.12 523.83,-45.78 478.15,-33.2"/>
<polygon fill="midnightblue" stroke="midnightblue" points="478.96,-29.79 468.39,-30.51 477.1,-36.54 478.96,-29.79"/>
</g>
<!-- Node5 -->
<g id="node5" class="node">
<title>Node5</title>
<g id="a_node5"><a xlink:title=" ">
<polygon fill="white" stroke="#bfbfbf" points="497,-0.5 497,-30.5 628,-30.5 628,-0.5 497,-0.5"/>
<text text-anchor="start" x="505" y="-18.5" font-family="Helvetica,sans-Serif" font-size="10.00">boost/asio/detail/buffer</text>
<text text-anchor="middle" x="562.5" y="-7.5" font-family="Helvetica,sans-Serif" font-size="10.00">_sequence_adapter.hpp</text>
</a>
</g>
</g>
<!-- Node1&#45;&gt;Node5 -->
<g id="edge4" class="edge">
<title>Node1&#45;&gt;Node5</title>
<path fill="none" stroke="midnightblue" d="M656.84,-67.42C636.89,-56.65 615.06,-44.87 597.43,-35.35"/>
<polygon fill="midnightblue" stroke="midnightblue" points="599.09,-32.27 588.62,-30.6 595.76,-38.43 599.09,-32.27"/>
</g>
<!-- Node6 -->
<g id="node6" class="node">
<title>Node6</title>
<g id="a_node6"><a xlink:title=" ">
<polygon fill="white" stroke="#bfbfbf" points="646.5,-0.5 646.5,-30.5 780.5,-30.5 780.5,-0.5 646.5,-0.5"/>
<text text-anchor="start" x="654.5" y="-18.5" font-family="Helvetica,sans-Serif" font-size="10.00">boost/asio/detail/fenced</text>
<text text-anchor="middle" x="713.5" y="-7.5" font-family="Helvetica,sans-Serif" font-size="10.00">_block.hpp</text>
</a>
</g>
</g>
<!-- Node1&#45;&gt;Node6 -->
<g id="edge5" class="edge">
<title>Node1&#45;&gt;Node6</title>
<path fill="none" stroke="midnightblue" d="M713.5,-67.19C713.5,-58.41 713.5,-48.98 713.5,-40.66"/>
<polygon fill="midnightblue" stroke="midnightblue" points="717,-40.52 713.5,-30.52 710,-40.52 717,-40.52"/>
</g>
<!-- Node7 -->
<g id="node7" class="node">
<title>Node7</title>
<g id="a_node7"><a xlink:title=" ">
<polygon fill="white" stroke="#bfbfbf" points="799,-0.5 799,-30.5 934,-30.5 934,-0.5 799,-0.5"/>
<text text-anchor="start" x="807" y="-18.5" font-family="Helvetica,sans-Serif" font-size="10.00">boost/asio/detail/reactor</text>
<text text-anchor="middle" x="866.5" y="-7.5" font-family="Helvetica,sans-Serif" font-size="10.00">_op_ext_local.hpp</text>
</a>
</g>
</g>
<!-- Node1&#45;&gt;Node7 -->
<g id="edge6" class="edge">
<title>Node1&#45;&gt;Node7</title>
<path fill="none" stroke="midnightblue" d="M770.91,-67.42C791.12,-56.65 813.24,-44.87 831.11,-35.35"/>
<polygon fill="midnightblue" stroke="midnightblue" points="832.85,-38.39 840.03,-30.6 829.56,-32.21 832.85,-38.39"/>
</g>
<!-- Node8 -->
<g id="node8" class="node">
<title>Node8</title>
<g id="a_node8"><a xlink:title=" ">
<polygon fill="white" stroke="#bfbfbf" points="952.5,-0.5 952.5,-30.5 1084.5,-30.5 1084.5,-0.5 952.5,-0.5"/>
<text text-anchor="start" x="960.5" y="-18.5" font-family="Helvetica,sans-Serif" font-size="10.00">boost/asio/detail/socket</text>
<text text-anchor="middle" x="1018.5" y="-7.5" font-family="Helvetica,sans-Serif" font-size="10.00">_ops_ext_local.hpp</text>
</a>
</g>
</g>
<!-- Node1&#45;&gt;Node8 -->
<g id="edge7" class="edge">
<title>Node1&#45;&gt;Node8</title>
<path fill="none" stroke="midnightblue" d="M790.86,-77.33C841.94,-63.68 908,-46.03 955.8,-33.25"/>
<polygon fill="midnightblue" stroke="midnightblue" points="956.95,-36.57 965.71,-30.61 955.14,-29.81 956.95,-36.57"/>
</g>
<!-- Node9 -->
<g id="node9" class="node">
<title>Node9</title>
<g id="a_node9"><a xlink:title=" ">
<polygon fill="white" stroke="#bfbfbf" points="1102.5,-0.5 1102.5,-30.5 1226.5,-30.5 1226.5,-0.5 1102.5,-0.5"/>
<text text-anchor="start" x="1110.5" y="-18.5" font-family="Helvetica,sans-Serif" font-size="10.00">boost/asio/detail/push</text>
<text text-anchor="middle" x="1164.5" y="-7.5" font-family="Helvetica,sans-Serif" font-size="10.00">_options.hpp</text>
</a>
</g>
</g>
<!-- Node1&#45;&gt;Node9 -->
<g id="edge8" class="edge">
<title>Node1&#45;&gt;Node9</title>
<path fill="none" stroke="midnightblue" d="M790.76,-85.01C865.37,-72.31 981.8,-52.13 1092.2,-31.22"/>
<polygon fill="midnightblue" stroke="midnightblue" points="1093.01,-34.63 1102.18,-29.33 1091.7,-27.75 1093.01,-34.63"/>
</g>
<!-- Node10 -->
<g id="node10" class="node">
<title>Node10</title>
<g id="a_node10"><a xlink:title=" ">
<polygon fill="white" stroke="#bfbfbf" points="1245,-0.5 1245,-30.5 1364,-30.5 1364,-0.5 1245,-0.5"/>
<text text-anchor="start" x="1253" y="-18.5" font-family="Helvetica,sans-Serif" font-size="10.00">boost/asio/detail/pop</text>
<text text-anchor="middle" x="1304.5" y="-7.5" font-family="Helvetica,sans-Serif" font-size="10.00">_options.hpp</text>
</a>
</g>
</g>
<!-- Node1&#45;&gt;Node10 -->
<g id="edge9" class="edge">
<title>Node1&#45;&gt;Node10</title>
<path fill="none" stroke="midnightblue" d="M790.73,-90.03C890.77,-79.27 1070.72,-58.44 1234.45,-31.09"/>
<polygon fill="midnightblue" stroke="midnightblue" points="1235.44,-34.48 1244.72,-29.37 1234.27,-27.57 1235.44,-34.48"/>
</g>
</g>
</svg>
