<?xml version="1.0" encoding="UTF-8" standalone="no"?>
<!DOCTYPE svg PUBLIC "-//W3C//DTD SVG 1.1//EN"
 "http://www.w3.org/Graphics/SVG/1.1/DTD/svg11.dtd">
<!-- Generated by graphviz version 2.43.0 (0)
 -->
<!-- Title: /home/kali/projects/vsomeip/implementation/helper/1.55/boost/asio/basic_socket_acceptor_ext.hpp Pages: 1 -->
<svg width="1372pt" height="195pt"
 viewBox="0.00 0.00 1372.00 195.00" xmlns="http://www.w3.org/2000/svg" xmlns:xlink="http://www.w3.org/1999/xlink">
<g id="graph0" class="graph" transform="scale(1 1) rotate(0) translate(4 191)">
<title>/home/kali/projects/vsomeip/implementation/helper/1.55/boost/asio/basic_socket_acceptor_ext.hpp</title>
<polygon fill="white" stroke="transparent" points="-4,4 -4,-191 1368,-191 1368,4 -4,4"/>
<!-- Node1 -->
<g id="node1" class="node">
<title>Node1</title>
<g id="a_node1"><a xlink:title=" ">
<polygon fill="#bfbfbf" stroke="black" points="631,-134.5 631,-186.5 802,-186.5 802,-134.5 631,-134.5"/>
<text text-anchor="start" x="639" y="-174.5" font-family="Helvetica,sans-Serif" font-size="10.00">/home/kali/projects</text>
<text text-anchor="start" x="639" y="-163.5" font-family="Helvetica,sans-Serif" font-size="10.00">/vsomeip/implementation</text>
<text text-anchor="start" x="639" y="-152.5" font-family="Helvetica,sans-Serif" font-size="10.00">/helper/1.55/boost/asio</text>
<text text-anchor="middle" x="716.5" y="-141.5" font-family="Helvetica,sans-Serif" font-size="10.00">/basic_socket_acceptor_ext.hpp</text>
</a>
</g>
</g>
<!-- Node2 -->
<g id="node2" class="node">
<title>Node2</title>
<g id="a_node2"><a xlink:title=" ">
<polygon fill="white" stroke="#bfbfbf" points="0,-6 0,-25 151,-25 151,-6 0,-6"/>
<text text-anchor="middle" x="75.5" y="-13" font-family="Helvetica,sans-Serif" font-size="10.00">boost/asio/detail/config.hpp</text>
</a>
</g>
</g>
<!-- Node1&#45;&gt;Node2 -->
<g id="edge1" class="edge">
<title>Node1&#45;&gt;Node2</title>
<path fill="none" stroke="midnightblue" d="M630.86,-146.09C561.86,-134.79 462.52,-117.39 376.5,-98 281.09,-76.5 170.45,-44.76 113.58,-27.94"/>
<polygon fill="midnightblue" stroke="midnightblue" points="114.52,-24.56 103.93,-25.07 112.52,-31.27 114.52,-24.56"/>
</g>
<!-- Node3 -->
<g id="node3" class="node">
<title>Node3</title>
<g id="a_node3"><a xlink:title=" ">
<polygon fill="white" stroke="#bfbfbf" points="782.5,-67.5 782.5,-97.5 892.5,-97.5 892.5,-67.5 782.5,-67.5"/>
<text text-anchor="start" x="790.5" y="-85.5" font-family="Helvetica,sans-Serif" font-size="10.00">boost/asio/basic_io</text>
<text text-anchor="middle" x="837.5" y="-74.5" font-family="Helvetica,sans-Serif" font-size="10.00">_object.hpp</text>
</a>
</g>
</g>
<!-- Node1&#45;&gt;Node3 -->
<g id="edge2" class="edge">
<title>Node1&#45;&gt;Node3</title>
<path fill="none" stroke="midnightblue" d="M756.46,-134.4C772.68,-124.21 791.15,-112.61 806.35,-103.07"/>
<polygon fill="midnightblue" stroke="midnightblue" points="808.28,-105.99 814.88,-97.71 804.55,-100.06 808.28,-105.99"/>
</g>
<!-- Node4 -->
<g id="node4" class="node">
<title>Node4</title>
<g id="a_node4"><a xlink:title=" ">
<polygon fill="white" stroke="#bfbfbf" points="169,-6 169,-25 322,-25 322,-6 169,-6"/>
<text text-anchor="middle" x="245.5" y="-13" font-family="Helvetica,sans-Serif" font-size="10.00">boost/asio/basic_socket.hpp</text>
</a>
</g>
</g>
<!-- Node1&#45;&gt;Node4 -->
<g id="edge3" class="edge">
<title>Node1&#45;&gt;Node4</title>
<path fill="none" stroke="midnightblue" d="M630.74,-141.05C581.93,-129.91 519.87,-114.67 465.5,-98 396.46,-76.83 317.53,-45.89 275.53,-28.87"/>
<polygon fill="midnightblue" stroke="midnightblue" points="276.74,-25.59 266.16,-25.06 274.1,-32.07 276.74,-25.59"/>
</g>
<!-- Node5 -->
<g id="node5" class="node">
<title>Node5</title>
<g id="a_node5"><a xlink:title=" ">
<polygon fill="white" stroke="#bfbfbf" points="911,-67.5 911,-97.5 1048,-97.5 1048,-67.5 911,-67.5"/>
<text text-anchor="start" x="919" y="-85.5" font-family="Helvetica,sans-Serif" font-size="10.00">boost/asio/detail/handler</text>
<text text-anchor="middle" x="979.5" y="-74.5" font-family="Helvetica,sans-Serif" font-size="10.00">_type_requirements.hpp</text>
</a>
</g>
</g>
<!-- Node1&#45;&gt;Node5 -->
<g id="edge4" class="edge">
<title>Node1&#45;&gt;Node5</title>
<path fill="none" stroke="midnightblue" d="M802.25,-134.72C841,-123.52 885.8,-110.58 920.66,-100.5"/>
<polygon fill="midnightblue" stroke="midnightblue" points="922.05,-103.75 930.68,-97.61 920.11,-97.02 922.05,-103.75"/>
</g>
<!-- Node6 -->
<g id="node6" class="node">
<title>Node6</title>
<g id="a_node6"><a xlink:title=" ">
<polygon fill="white" stroke="#bfbfbf" points="1066.5,-67.5 1066.5,-97.5 1194.5,-97.5 1194.5,-67.5 1066.5,-67.5"/>
<text text-anchor="start" x="1074.5" y="-85.5" font-family="Helvetica,sans-Serif" font-size="10.00">boost/asio/detail/throw</text>
<text text-anchor="middle" x="1130.5" y="-74.5" font-family="Helvetica,sans-Serif" font-size="10.00">_error.hpp</text>
</a>
</g>
</g>
<!-- Node1&#45;&gt;Node6 -->
<g id="edge5" class="edge">
<title>Node1&#45;&gt;Node6</title>
<path fill="none" stroke="midnightblue" d="M802.06,-144.5C868.72,-132.71 963.85,-115.68 1056.58,-98.16"/>
<polygon fill="midnightblue" stroke="midnightblue" points="1057.24,-101.59 1066.42,-96.29 1055.94,-94.72 1057.24,-101.59"/>
</g>
<!-- Node7 -->
<g id="node7" class="node">
<title>Node7</title>
<g id="a_node7"><a xlink:title=" ">
<polygon fill="white" stroke="#bfbfbf" points="340.5,-0.5 340.5,-30.5 462.5,-30.5 462.5,-0.5 340.5,-0.5"/>
<text text-anchor="start" x="348.5" y="-18.5" font-family="Helvetica,sans-Serif" font-size="10.00">boost/asio/detail/type</text>
<text text-anchor="middle" x="401.5" y="-7.5" font-family="Helvetica,sans-Serif" font-size="10.00">_traits.hpp</text>
</a>
</g>
</g>
<!-- Node1&#45;&gt;Node7 -->
<g id="edge6" class="edge">
<title>Node1&#45;&gt;Node7</title>
<path fill="none" stroke="midnightblue" d="M630.96,-138.88C595.53,-128.8 554.61,-115.11 519.5,-98 485.02,-81.19 449.3,-55.09 426.32,-36.98"/>
<polygon fill="midnightblue" stroke="midnightblue" points="428.46,-34.2 418.46,-30.69 424.09,-39.67 428.46,-34.2"/>
</g>
<!-- Node8 -->
<g id="node8" class="node">
<title>Node8</title>
<g id="a_node8"><a xlink:title=" ">
<polygon fill="white" stroke="#bfbfbf" points="481,-6 481,-25 594,-25 594,-6 481,-6"/>
<text text-anchor="middle" x="537.5" y="-13" font-family="Helvetica,sans-Serif" font-size="10.00">boost/asio/error.hpp</text>
</a>
</g>
</g>
<!-- Node1&#45;&gt;Node8 -->
<g id="edge7" class="edge">
<title>Node1&#45;&gt;Node8</title>
<path fill="none" stroke="midnightblue" d="M630.71,-153.03C593.62,-145.47 553.51,-129.84 530.5,-98 517.21,-79.61 523.23,-52.44 529.64,-34.6"/>
<polygon fill="midnightblue" stroke="midnightblue" points="532.98,-35.68 533.41,-25.09 526.47,-33.1 532.98,-35.68"/>
</g>
<!-- Node9 -->
<g id="node9" class="node">
<title>Node9</title>
<g id="a_node9"><a xlink:href="socket__acceptor__service__ext_8hpp.html" target="_top" xlink:title=" ">
<polygon fill="white" stroke="black" points="540,-67.5 540,-97.5 689,-97.5 689,-67.5 540,-67.5"/>
<text text-anchor="start" x="548" y="-85.5" font-family="Helvetica,sans-Serif" font-size="10.00">boost/asio/socket_acceptor</text>
<text text-anchor="middle" x="614.5" y="-74.5" font-family="Helvetica,sans-Serif" font-size="10.00">_service_ext.hpp</text>
</a>
</g>
</g>
<!-- Node1&#45;&gt;Node9 -->
<g id="edge8" class="edge">
<title>Node1&#45;&gt;Node9</title>
<path fill="none" stroke="midnightblue" d="M682.82,-134.4C669.52,-124.5 654.45,-113.26 641.84,-103.87"/>
<polygon fill="midnightblue" stroke="midnightblue" points="643.68,-100.87 633.57,-97.71 639.49,-106.49 643.68,-100.87"/>
</g>
<!-- Node12 -->
<g id="node12" class="node">
<title>Node12</title>
<g id="a_node12"><a xlink:title=" ">
<polygon fill="white" stroke="#bfbfbf" points="928.5,-0.5 928.5,-30.5 1052.5,-30.5 1052.5,-0.5 928.5,-0.5"/>
<text text-anchor="start" x="936.5" y="-18.5" font-family="Helvetica,sans-Serif" font-size="10.00">boost/asio/detail/push</text>
<text text-anchor="middle" x="990.5" y="-7.5" font-family="Helvetica,sans-Serif" font-size="10.00">_options.hpp</text>
</a>
</g>
</g>
<!-- Node1&#45;&gt;Node12 -->
<g id="edge18" class="edge">
<title>Node1&#45;&gt;Node12</title>
<path fill="none" stroke="midnightblue" d="M716.12,-134.27C717.22,-113.31 722.3,-84.22 740.5,-67 797.15,-13.41 836.77,-44.45 918.04,-31.1"/>
<polygon fill="midnightblue" stroke="midnightblue" points="918.96,-34.49 928.16,-29.24 917.7,-27.6 918.96,-34.49"/>
</g>
<!-- Node13 -->
<g id="node13" class="node">
<title>Node13</title>
<g id="a_node13"><a xlink:title=" ">
<polygon fill="white" stroke="#bfbfbf" points="1071,-0.5 1071,-30.5 1190,-30.5 1190,-0.5 1071,-0.5"/>
<text text-anchor="start" x="1079" y="-18.5" font-family="Helvetica,sans-Serif" font-size="10.00">boost/asio/detail/pop</text>
<text text-anchor="middle" x="1130.5" y="-7.5" font-family="Helvetica,sans-Serif" font-size="10.00">_options.hpp</text>
</a>
</g>
</g>
<!-- Node1&#45;&gt;Node13 -->
<g id="edge19" class="edge">
<title>Node1&#45;&gt;Node13</title>
<path fill="none" stroke="midnightblue" d="M724.97,-134.21C733.61,-112.6 749.22,-82.61 773.5,-67 825.42,-33.62 983.48,-40.9 1060.81,-30.84"/>
<polygon fill="midnightblue" stroke="midnightblue" points="1061.34,-34.3 1070.72,-29.38 1060.31,-27.38 1061.34,-34.3"/>
</g>
<!-- Node14 -->
<g id="node14" class="node">
<title>Node14</title>
<g id="a_node14"><a xlink:title=" ">
<polygon fill="white" stroke="#bfbfbf" points="1213,-73 1213,-92 1364,-92 1364,-73 1213,-73"/>
<text text-anchor="middle" x="1288.5" y="-80" font-family="Helvetica,sans-Serif" font-size="10.00">boost/asio/socket_base.hpp</text>
</a>
</g>
</g>
<!-- Node1&#45;&gt;Node14 -->
<g id="edge17" class="edge">
<title>Node1&#45;&gt;Node14</title>
<path fill="none" stroke="midnightblue" d="M802.43,-149.79C899.85,-138.52 1063.36,-118.79 1203.5,-98 1212.21,-96.71 1221.41,-95.24 1230.42,-93.75"/>
<polygon fill="midnightblue" stroke="midnightblue" points="1231.18,-97.17 1240.46,-92.07 1230.02,-90.27 1231.18,-97.17"/>
</g>
<!-- Node9&#45;&gt;Node2 -->
<g id="edge9" class="edge">
<title>Node9&#45;&gt;Node2</title>
<path fill="none" stroke="midnightblue" d="M539.85,-74.61C449.57,-65.96 293.08,-49.92 159.5,-31 150.66,-29.75 141.33,-28.28 132.22,-26.77"/>
<polygon fill="midnightblue" stroke="midnightblue" points="132.52,-23.27 122.07,-25.06 131.35,-30.17 132.52,-23.27"/>
</g>
<!-- Node9&#45;&gt;Node4 -->
<g id="edge10" class="edge">
<title>Node9&#45;&gt;Node4</title>
<path fill="none" stroke="midnightblue" d="M539.83,-68.35C470.16,-56.07 367.65,-38.02 303.82,-26.77"/>
<polygon fill="midnightblue" stroke="midnightblue" points="304.38,-23.32 293.92,-25.03 303.16,-30.21 304.38,-23.32"/>
</g>
<!-- Node9&#45;&gt;Node7 -->
<g id="edge11" class="edge">
<title>Node9&#45;&gt;Node7</title>
<path fill="none" stroke="midnightblue" d="M568.54,-67.48C536.04,-57.56 492.27,-44.2 457.69,-33.65"/>
<polygon fill="midnightblue" stroke="midnightblue" points="458.33,-30.18 447.74,-30.61 456.28,-36.88 458.33,-30.18"/>
</g>
<!-- Node9&#45;&gt;Node8 -->
<g id="edge12" class="edge">
<title>Node9&#45;&gt;Node8</title>
<path fill="none" stroke="midnightblue" d="M597.79,-67.4C585.31,-56.86 568.27,-42.48 555.49,-31.69"/>
<polygon fill="midnightblue" stroke="midnightblue" points="557.7,-28.97 547.8,-25.19 553.18,-34.32 557.7,-28.97"/>
</g>
<!-- Node10 -->
<g id="node10" class="node">
<title>Node10</title>
<g id="a_node10"><a xlink:title=" ">
<polygon fill="white" stroke="#bfbfbf" points="612.5,-6 612.5,-25 752.5,-25 752.5,-6 612.5,-6"/>
<text text-anchor="middle" x="682.5" y="-13" font-family="Helvetica,sans-Serif" font-size="10.00">boost/asio/io_service.hpp</text>
</a>
</g>
</g>
<!-- Node9&#45;&gt;Node10 -->
<g id="edge13" class="edge">
<title>Node9&#45;&gt;Node10</title>
<path fill="none" stroke="midnightblue" d="M629.25,-67.4C640.07,-57.06 654.75,-43.02 665.96,-32.31"/>
<polygon fill="midnightblue" stroke="midnightblue" points="668.59,-34.63 673.4,-25.19 663.76,-29.57 668.59,-34.63"/>
</g>
<!-- Node11 -->
<g id="node11" class="node">
<title>Node11</title>
<g id="a_node11"><a xlink:title=" ">
<polygon fill="white" stroke="#bfbfbf" points="770.5,-0.5 770.5,-30.5 910.5,-30.5 910.5,-0.5 770.5,-0.5"/>
<text text-anchor="start" x="778.5" y="-18.5" font-family="Helvetica,sans-Serif" font-size="10.00">boost/asio/detail/reactive</text>
<text text-anchor="middle" x="840.5" y="-7.5" font-family="Helvetica,sans-Serif" font-size="10.00">_socket_service_ext.hpp</text>
</a>
</g>
</g>
<!-- Node9&#45;&gt;Node11 -->
<g id="edge14" class="edge">
<title>Node9&#45;&gt;Node11</title>
<path fill="none" stroke="midnightblue" d="M663.26,-67.48C698.04,-57.47 744.98,-43.97 781.82,-33.38"/>
<polygon fill="midnightblue" stroke="midnightblue" points="782.79,-36.74 791.44,-30.61 780.86,-30.01 782.79,-36.74"/>
</g>
<!-- Node9&#45;&gt;Node12 -->
<g id="edge15" class="edge">
<title>Node9&#45;&gt;Node12</title>
<path fill="none" stroke="midnightblue" d="M689.25,-69.16C766.99,-56.32 881.55,-37.38 917.91,-31.16"/>
<polygon fill="midnightblue" stroke="midnightblue" points="918.94,-34.53 928.19,-29.36 917.73,-27.64 918.94,-34.53"/>
</g>
<!-- Node9&#45;&gt;Node13 -->
<g id="edge16" class="edge">
<title>Node9&#45;&gt;Node13</title>
<path fill="none" stroke="midnightblue" d="M689.12,-72.88C706.01,-70.93 723.87,-68.89 740.5,-67 879.94,-51.16 918.06,-53.66 1060.72,-31.03"/>
<polygon fill="midnightblue" stroke="midnightblue" points="1061.4,-34.46 1070.73,-29.43 1060.3,-27.55 1061.4,-34.46"/>
</g>
</g>
</svg>
