<?xml version="1.0" encoding="UTF-8" standalone="no"?>
<!DOCTYPE svg PUBLIC "-//W3C//DTD SVG 1.1//EN"
 "http://www.w3.org/Graphics/SVG/1.1/DTD/svg11.dtd">
<!-- Generated by graphviz version 2.43.0 (0)
 -->
<!-- Title: /home/kali/projects/vsomeip/implementation/helper/1.55/boost/asio/detail/reactive_socket_service_ext_local.hpp Pages: 1 -->
<svg width="3382pt" height="150pt"
 viewBox="0.00 0.00 3381.50 150.00" xmlns="http://www.w3.org/2000/svg" xmlns:xlink="http://www.w3.org/1999/xlink">
<g id="graph0" class="graph" transform="scale(1 1) rotate(0) translate(4 146)">
<title>/home/kali/projects/vsomeip/implementation/helper/1.55/boost/asio/detail/reactive_socket_service_ext_local.hpp</title>
<polygon fill="white" stroke="transparent" points="-4,4 -4,-146 3377.5,-146 3377.5,4 -4,4"/>
<!-- Node1 -->
<g id="node1" class="node">
<title>Node1</title>
<g id="a_node1"><a xlink:title=" ">
<polygon fill="#bfbfbf" stroke="black" points="1617.5,-78.5 1617.5,-141.5 1760.5,-141.5 1760.5,-78.5 1617.5,-78.5"/>
<text text-anchor="start" x="1625.5" y="-129.5" font-family="Helvetica,sans-Serif" font-size="10.00">/home/kali/projects</text>
<text text-anchor="start" x="1625.5" y="-118.5" font-family="Helvetica,sans-Serif" font-size="10.00">/vsomeip/implementation</text>
<text text-anchor="start" x="1625.5" y="-107.5" font-family="Helvetica,sans-Serif" font-size="10.00">/helper/1.55/boost/asio</text>
<text text-anchor="start" x="1625.5" y="-96.5" font-family="Helvetica,sans-Serif" font-size="10.00">/detail/reactive_socket</text>
<text text-anchor="middle" x="1689" y="-85.5" font-family="Helvetica,sans-Serif" font-size="10.00">_service_ext_local.hpp</text>
</a>
</g>
</g>
<!-- Node2 -->
<g id="node2" class="node">
<title>Node2</title>
<g id="a_node2"><a xlink:title=" ">
<polygon fill="white" stroke="#bfbfbf" points="0,-11.5 0,-30.5 60,-30.5 60,-11.5 0,-11.5"/>
<text text-anchor="middle" x="30" y="-18.5" font-family="Helvetica,sans-Serif" font-size="10.00">iostream</text>
</a>
</g>
</g>
<!-- Node1&#45;&gt;Node2 -->
<g id="edge1" class="edge">
<title>Node1&#45;&gt;Node2</title>
<path fill="none" stroke="midnightblue" d="M1617.37,-107.85C1323.65,-102.89 219.82,-81.73 69,-42 63.3,-40.5 57.47,-38.07 52.12,-35.42"/>
<polygon fill="midnightblue" stroke="midnightblue" points="53.6,-32.24 43.14,-30.55 50.26,-38.39 53.6,-32.24"/>
</g>
<!-- Node3 -->
<g id="node3" class="node">
<title>Node3</title>
<g id="a_node3"><a xlink:title=" ">
<polygon fill="white" stroke="#bfbfbf" points="78.5,-11.5 78.5,-30.5 229.5,-30.5 229.5,-11.5 78.5,-11.5"/>
<text text-anchor="middle" x="154" y="-18.5" font-family="Helvetica,sans-Serif" font-size="10.00">boost/asio/detail/config.hpp</text>
</a>
</g>
</g>
<!-- Node1&#45;&gt;Node3 -->
<g id="edge2" class="edge">
<title>Node1&#45;&gt;Node3</title>
<path fill="none" stroke="midnightblue" d="M1617.1,-107.47C1363.13,-101.77 508.94,-80.17 238,-42 223.31,-39.93 207.42,-36.47 193.46,-33.01"/>
<polygon fill="midnightblue" stroke="midnightblue" points="194.23,-29.59 183.67,-30.5 192.49,-36.37 194.23,-29.59"/>
</g>
<!-- Node4 -->
<g id="node4" class="node">
<title>Node4</title>
<g id="a_node4"><a xlink:title=" ">
<polygon fill="white" stroke="#bfbfbf" points="247.5,-11.5 247.5,-30.5 366.5,-30.5 366.5,-11.5 247.5,-11.5"/>
<text text-anchor="middle" x="307" y="-18.5" font-family="Helvetica,sans-Serif" font-size="10.00">boost/asio/buffer.hpp</text>
</a>
</g>
</g>
<!-- Node1&#45;&gt;Node4 -->
<g id="edge3" class="edge">
<title>Node1&#45;&gt;Node4</title>
<path fill="none" stroke="midnightblue" d="M1617.31,-107.56C1379.35,-102.45 617.08,-83.18 375,-42 363.58,-40.06 351.35,-36.84 340.47,-33.54"/>
<polygon fill="midnightblue" stroke="midnightblue" points="341.5,-30.2 330.91,-30.53 339.39,-36.87 341.5,-30.2"/>
</g>
<!-- Node5 -->
<g id="node5" class="node">
<title>Node5</title>
<g id="a_node5"><a xlink:title=" ">
<polygon fill="white" stroke="#bfbfbf" points="384.5,-11.5 384.5,-30.5 497.5,-30.5 497.5,-11.5 384.5,-11.5"/>
<text text-anchor="middle" x="441" y="-18.5" font-family="Helvetica,sans-Serif" font-size="10.00">boost/asio/error.hpp</text>
</a>
</g>
</g>
<!-- Node1&#45;&gt;Node5 -->
<g id="edge4" class="edge">
<title>Node1&#45;&gt;Node5</title>
<path fill="none" stroke="midnightblue" d="M1617.23,-107.17C1395.3,-101.14 722.16,-80.14 507,-42 496.01,-40.05 484.27,-36.87 473.79,-33.61"/>
<polygon fill="midnightblue" stroke="midnightblue" points="474.78,-30.26 464.19,-30.5 472.63,-36.92 474.78,-30.26"/>
</g>
<!-- Node6 -->
<g id="node6" class="node">
<title>Node6</title>
<g id="a_node6"><a xlink:title=" ">
<polygon fill="white" stroke="#bfbfbf" points="516,-11.5 516,-30.5 656,-30.5 656,-11.5 516,-11.5"/>
<text text-anchor="middle" x="586" y="-18.5" font-family="Helvetica,sans-Serif" font-size="10.00">boost/asio/io_service.hpp</text>
</a>
</g>
</g>
<!-- Node1&#45;&gt;Node6 -->
<g id="edge5" class="edge">
<title>Node1&#45;&gt;Node6</title>
<path fill="none" stroke="midnightblue" d="M1617.43,-108.8C1449.85,-107.34 1019.37,-97.97 665,-42 651.66,-39.89 637.28,-36.58 624.49,-33.24"/>
<polygon fill="midnightblue" stroke="midnightblue" points="625.2,-29.81 614.63,-30.59 623.38,-36.57 625.2,-29.81"/>
</g>
<!-- Node7 -->
<g id="node7" class="node">
<title>Node7</title>
<g id="a_node7"><a xlink:title=" ">
<polygon fill="white" stroke="#bfbfbf" points="674.5,-11.5 674.5,-30.5 825.5,-30.5 825.5,-11.5 674.5,-11.5"/>
<text text-anchor="middle" x="750" y="-18.5" font-family="Helvetica,sans-Serif" font-size="10.00">boost/asio/socket_base.hpp</text>
</a>
</g>
</g>
<!-- Node1&#45;&gt;Node7 -->
<g id="edge6" class="edge">
<title>Node1&#45;&gt;Node7</title>
<path fill="none" stroke="midnightblue" d="M1617.34,-107.15C1469.88,-102.5 1122.1,-87.3 834,-42 819.84,-39.77 804.54,-36.42 790.92,-33.09"/>
<polygon fill="midnightblue" stroke="midnightblue" points="791.44,-29.61 780.89,-30.57 789.73,-36.4 791.44,-29.61"/>
</g>
<!-- Node8 -->
<g id="node8" class="node">
<title>Node8</title>
<g id="a_node8"><a xlink:title=" ">
<polygon fill="white" stroke="#bfbfbf" points="843.5,-11.5 843.5,-30.5 1012.5,-30.5 1012.5,-11.5 843.5,-11.5"/>
<text text-anchor="middle" x="928" y="-18.5" font-family="Helvetica,sans-Serif" font-size="10.00">boost/asio/detail/addressof.hpp</text>
</a>
</g>
</g>
<!-- Node1&#45;&gt;Node8 -->
<g id="edge7" class="edge">
<title>Node1&#45;&gt;Node8</title>
<path fill="none" stroke="midnightblue" d="M1617.48,-104.46C1494.88,-96.1 1236.89,-75.93 1021,-42 1005.36,-39.54 988.39,-36.12 973.28,-32.8"/>
<polygon fill="midnightblue" stroke="midnightblue" points="973.68,-29.3 963.16,-30.53 972.15,-36.13 973.68,-29.3"/>
</g>
<!-- Node9 -->
<g id="node9" class="node">
<title>Node9</title>
<g id="a_node9"><a xlink:title=" ">
<polygon fill="white" stroke="#bfbfbf" points="1030.5,-6 1030.5,-36 1161.5,-36 1161.5,-6 1030.5,-6"/>
<text text-anchor="start" x="1038.5" y="-24" font-family="Helvetica,sans-Serif" font-size="10.00">boost/asio/detail/buffer</text>
<text text-anchor="middle" x="1096" y="-13" font-family="Helvetica,sans-Serif" font-size="10.00">_sequence_adapter.hpp</text>
</a>
</g>
</g>
<!-- Node1&#45;&gt;Node9 -->
<g id="edge8" class="edge">
<title>Node1&#45;&gt;Node9</title>
<path fill="none" stroke="midnightblue" d="M1617.3,-102.74C1516.88,-93.3 1328.92,-73.13 1171,-42 1165.71,-40.96 1160.24,-39.75 1154.78,-38.46"/>
<polygon fill="midnightblue" stroke="midnightblue" points="1155.55,-35.05 1145,-36.06 1153.88,-41.84 1155.55,-35.05"/>
</g>
<!-- Node10 -->
<g id="node10" class="node">
<title>Node10</title>
<g id="a_node10"><a xlink:title=" ">
<polygon fill="white" stroke="#bfbfbf" points="1180,-11.5 1180,-30.5 1364,-30.5 1364,-11.5 1180,-11.5"/>
<text text-anchor="middle" x="1272" y="-18.5" font-family="Helvetica,sans-Serif" font-size="10.00">boost/asio/detail/noncopyable.hpp</text>
</a>
</g>
</g>
<!-- Node1&#45;&gt;Node10 -->
<g id="edge9" class="edge">
<title>Node1&#45;&gt;Node10</title>
<path fill="none" stroke="midnightblue" d="M1617.32,-94.04C1533.36,-76.53 1396.41,-47.96 1322.73,-32.58"/>
<polygon fill="midnightblue" stroke="midnightblue" points="1323.27,-29.12 1312.77,-30.51 1321.84,-35.97 1323.27,-29.12"/>
</g>
<!-- Node11 -->
<g id="node11" class="node">
<title>Node11</title>
<g id="a_node11"><a xlink:title=" ">
<polygon fill="white" stroke="#bfbfbf" points="1382,-6 1382,-36 1522,-36 1522,-6 1382,-6"/>
<text text-anchor="start" x="1390" y="-24" font-family="Helvetica,sans-Serif" font-size="10.00">boost/asio/detail/reactive</text>
<text text-anchor="middle" x="1452" y="-13" font-family="Helvetica,sans-Serif" font-size="10.00">_null_buffers_op.hpp</text>
</a>
</g>
</g>
<!-- Node1&#45;&gt;Node11 -->
<g id="edge10" class="edge">
<title>Node1&#45;&gt;Node11</title>
<path fill="none" stroke="midnightblue" d="M1617.25,-82.66C1579.18,-68.69 1533.45,-51.9 1499.75,-39.53"/>
<polygon fill="midnightblue" stroke="midnightblue" points="1500.74,-36.16 1490.14,-36 1498.33,-42.73 1500.74,-36.16"/>
</g>
<!-- Node12 -->
<g id="node12" class="node">
<title>Node12</title>
<g id="a_node12"><a xlink:title=" ">
<polygon fill="white" stroke="#bfbfbf" points="1540,-6 1540,-36 1680,-36 1680,-6 1540,-6"/>
<text text-anchor="start" x="1548" y="-24" font-family="Helvetica,sans-Serif" font-size="10.00">boost/asio/detail/reactive</text>
<text text-anchor="middle" x="1610" y="-13" font-family="Helvetica,sans-Serif" font-size="10.00">_socket_accept_op.hpp</text>
</a>
</g>
</g>
<!-- Node1&#45;&gt;Node12 -->
<g id="edge11" class="edge">
<title>Node1&#45;&gt;Node12</title>
<path fill="none" stroke="midnightblue" d="M1660.93,-78.08C1650.61,-66.72 1639.15,-54.1 1629.72,-43.71"/>
<polygon fill="midnightblue" stroke="midnightblue" points="1632.27,-41.32 1622.95,-36.27 1627.09,-46.02 1632.27,-41.32"/>
</g>
<!-- Node13 -->
<g id="node13" class="node">
<title>Node13</title>
<g id="a_node13"><a xlink:title=" ">
<polygon fill="white" stroke="#bfbfbf" points="1698,-6 1698,-36 1838,-36 1838,-6 1698,-6"/>
<text text-anchor="start" x="1706" y="-24" font-family="Helvetica,sans-Serif" font-size="10.00">boost/asio/detail/reactive</text>
<text text-anchor="middle" x="1768" y="-13" font-family="Helvetica,sans-Serif" font-size="10.00">_socket_connect_op.hpp</text>
</a>
</g>
</g>
<!-- Node1&#45;&gt;Node13 -->
<g id="edge12" class="edge">
<title>Node1&#45;&gt;Node13</title>
<path fill="none" stroke="midnightblue" d="M1717.07,-78.08C1727.39,-66.72 1738.85,-54.1 1748.28,-43.71"/>
<polygon fill="midnightblue" stroke="midnightblue" points="1750.91,-46.02 1755.05,-36.27 1745.73,-41.32 1750.91,-46.02"/>
</g>
<!-- Node14 -->
<g id="node14" class="node">
<title>Node14</title>
<g id="a_node14"><a xlink:title=" ">
<polygon fill="white" stroke="#bfbfbf" points="1856.5,-0.5 1856.5,-41.5 1997.5,-41.5 1997.5,-0.5 1856.5,-0.5"/>
<text text-anchor="start" x="1864.5" y="-29.5" font-family="Helvetica,sans-Serif" font-size="10.00">boost/asio/detail/reactive</text>
<text text-anchor="start" x="1864.5" y="-18.5" font-family="Helvetica,sans-Serif" font-size="10.00">_socket_recvfrom_op_ext</text>
<text text-anchor="middle" x="1927" y="-7.5" font-family="Helvetica,sans-Serif" font-size="10.00">_local.hpp</text>
</a>
</g>
</g>
<!-- Node1&#45;&gt;Node14 -->
<g id="edge13" class="edge">
<title>Node1&#45;&gt;Node14</title>
<path fill="none" stroke="midnightblue" d="M1760.73,-82.78C1793.6,-70.76 1832.22,-56.65 1863.96,-45.05"/>
<polygon fill="midnightblue" stroke="midnightblue" points="1865.38,-48.25 1873.57,-41.53 1862.98,-41.68 1865.38,-48.25"/>
</g>
<!-- Node15 -->
<g id="node15" class="node">
<title>Node15</title>
<g id="a_node15"><a xlink:title=" ">
<polygon fill="white" stroke="#bfbfbf" points="2016,-6 2016,-36 2156,-36 2156,-6 2016,-6"/>
<text text-anchor="start" x="2024" y="-24" font-family="Helvetica,sans-Serif" font-size="10.00">boost/asio/detail/reactive</text>
<text text-anchor="middle" x="2086" y="-13" font-family="Helvetica,sans-Serif" font-size="10.00">_socket_sendto_op.hpp</text>
</a>
</g>
</g>
<!-- Node1&#45;&gt;Node15 -->
<g id="edge14" class="edge">
<title>Node1&#45;&gt;Node15</title>
<path fill="none" stroke="midnightblue" d="M1760.54,-94.78C1825.11,-81.75 1922.63,-61.56 2007,-42 2011.87,-40.87 2016.9,-39.67 2021.96,-38.44"/>
<polygon fill="midnightblue" stroke="midnightblue" points="2022.8,-41.84 2031.67,-36.06 2021.13,-35.04 2022.8,-41.84"/>
</g>
<!-- Node16 -->
<g id="node16" class="node">
<title>Node16</title>
<g id="a_node16"><a xlink:title=" ">
<polygon fill="white" stroke="#bfbfbf" points="2174.5,-0.5 2174.5,-41.5 2317.5,-41.5 2317.5,-0.5 2174.5,-0.5"/>
<text text-anchor="start" x="2182.5" y="-29.5" font-family="Helvetica,sans-Serif" font-size="10.00">boost/asio/detail/reactive</text>
<text text-anchor="start" x="2182.5" y="-18.5" font-family="Helvetica,sans-Serif" font-size="10.00">_socket_service_base_ext</text>
<text text-anchor="middle" x="2246" y="-7.5" font-family="Helvetica,sans-Serif" font-size="10.00">_local.hpp</text>
</a>
</g>
</g>
<!-- Node1&#45;&gt;Node16 -->
<g id="edge15" class="edge">
<title>Node1&#45;&gt;Node16</title>
<path fill="none" stroke="midnightblue" d="M1760.75,-101.22C1852.15,-90.79 2015.11,-70.46 2163.87,-42.12"/>
<polygon fill="midnightblue" stroke="midnightblue" points="2164.94,-45.48 2174.1,-40.16 2163.61,-38.61 2164.94,-45.48"/>
</g>
<!-- Node17 -->
<g id="node17" class="node">
<title>Node17</title>
<g id="a_node17"><a xlink:title=" ">
<polygon fill="white" stroke="#bfbfbf" points="2335.5,-11.5 2335.5,-30.5 2490.5,-30.5 2490.5,-11.5 2335.5,-11.5"/>
<text text-anchor="middle" x="2413" y="-18.5" font-family="Helvetica,sans-Serif" font-size="10.00">boost/asio/detail/reactor.hpp</text>
</a>
</g>
</g>
<!-- Node1&#45;&gt;Node17 -->
<g id="edge16" class="edge">
<title>Node1&#45;&gt;Node17</title>
<path fill="none" stroke="midnightblue" d="M1760.67,-104.38C1879.14,-96.1 2122.99,-76.3 2327,-42 2341.35,-39.59 2356.89,-36.21 2370.76,-32.92"/>
<polygon fill="midnightblue" stroke="midnightblue" points="2371.63,-36.31 2380.52,-30.56 2369.98,-29.51 2371.63,-36.31"/>
</g>
<!-- Node18 -->
<g id="node18" class="node">
<title>Node18</title>
<g id="a_node18"><a xlink:title=" ">
<polygon fill="white" stroke="#bfbfbf" points="2508.5,-6 2508.5,-36 2643.5,-36 2643.5,-6 2508.5,-6"/>
<text text-anchor="start" x="2516.5" y="-24" font-family="Helvetica,sans-Serif" font-size="10.00">boost/asio/detail/reactor</text>
<text text-anchor="middle" x="2576" y="-13" font-family="Helvetica,sans-Serif" font-size="10.00">_op.hpp</text>
</a>
</g>
</g>
<!-- Node1&#45;&gt;Node18 -->
<g id="edge17" class="edge">
<title>Node1&#45;&gt;Node18</title>
<path fill="none" stroke="midnightblue" d="M1760.58,-107.28C1902.57,-102.96 2229.52,-88.4 2500,-42 2505.77,-41.01 2511.74,-39.79 2517.69,-38.44"/>
<polygon fill="midnightblue" stroke="midnightblue" points="2518.71,-41.8 2527.62,-36.08 2517.09,-34.99 2518.71,-41.8"/>
</g>
<!-- Node19 -->
<g id="node19" class="node">
<title>Node19</title>
<g id="a_node19"><a xlink:title=" ">
<polygon fill="white" stroke="#bfbfbf" points="2662,-6 2662,-36 2794,-36 2794,-6 2662,-6"/>
<text text-anchor="start" x="2670" y="-24" font-family="Helvetica,sans-Serif" font-size="10.00">boost/asio/detail/socket</text>
<text text-anchor="middle" x="2728" y="-13" font-family="Helvetica,sans-Serif" font-size="10.00">_holder.hpp</text>
</a>
</g>
</g>
<!-- Node1&#45;&gt;Node19 -->
<g id="edge18" class="edge">
<title>Node1&#45;&gt;Node19</title>
<path fill="none" stroke="midnightblue" d="M1760.6,-108.69C1921.33,-106.97 2322.65,-97.01 2653,-42 2658.79,-41.04 2664.78,-39.82 2670.74,-38.47"/>
<polygon fill="midnightblue" stroke="midnightblue" points="2671.78,-41.82 2680.69,-36.08 2670.15,-35.01 2671.78,-41.82"/>
</g>
<!-- Node20 -->
<g id="node20" class="node">
<title>Node20</title>
<g id="a_node20"><a xlink:title=" ">
<polygon fill="white" stroke="#bfbfbf" points="2812,-6 2812,-36 2944,-36 2944,-6 2812,-6"/>
<text text-anchor="start" x="2820" y="-24" font-family="Helvetica,sans-Serif" font-size="10.00">boost/asio/detail/socket</text>
<text text-anchor="middle" x="2878" y="-13" font-family="Helvetica,sans-Serif" font-size="10.00">_ops.hpp</text>
</a>
</g>
</g>
<!-- Node1&#45;&gt;Node20 -->
<g id="edge19" class="edge">
<title>Node1&#45;&gt;Node20</title>
<path fill="none" stroke="midnightblue" d="M1760.57,-109.64C1938.25,-110.17 2413.29,-105.03 2803,-42 2808.88,-41.05 2814.97,-39.83 2821.01,-38.46"/>
<polygon fill="midnightblue" stroke="midnightblue" points="2822.19,-41.78 2831.1,-36.05 2820.56,-34.97 2822.19,-41.78"/>
</g>
<!-- Node21 -->
<g id="node21" class="node">
<title>Node21</title>
<g id="a_node21"><a xlink:title=" ">
<polygon fill="white" stroke="#bfbfbf" points="2962,-6 2962,-36 3094,-36 3094,-6 2962,-6"/>
<text text-anchor="start" x="2970" y="-24" font-family="Helvetica,sans-Serif" font-size="10.00">boost/asio/detail/socket</text>
<text text-anchor="middle" x="3028" y="-13" font-family="Helvetica,sans-Serif" font-size="10.00">_types.hpp</text>
</a>
</g>
</g>
<!-- Node1&#45;&gt;Node21 -->
<g id="edge20" class="edge">
<title>Node1&#45;&gt;Node21</title>
<path fill="none" stroke="midnightblue" d="M1760.74,-107.16C1992.67,-100.89 2720.61,-78.74 2953,-42 2958.88,-41.07 2964.97,-39.86 2971.02,-38.51"/>
<polygon fill="midnightblue" stroke="midnightblue" points="2972.19,-41.82 2981.11,-36.1 2970.57,-35.02 2972.19,-41.82"/>
</g>
<!-- Node22 -->
<g id="node22" class="node">
<title>Node22</title>
<g id="a_node22"><a xlink:title=" ">
<polygon fill="white" stroke="#bfbfbf" points="3112,-6 3112,-36 3236,-36 3236,-6 3112,-6"/>
<text text-anchor="start" x="3120" y="-24" font-family="Helvetica,sans-Serif" font-size="10.00">boost/asio/detail/push</text>
<text text-anchor="middle" x="3174" y="-13" font-family="Helvetica,sans-Serif" font-size="10.00">_options.hpp</text>
</a>
</g>
</g>
<!-- Node1&#45;&gt;Node22 -->
<g id="edge21" class="edge">
<title>Node1&#45;&gt;Node22</title>
<path fill="none" stroke="midnightblue" d="M1760.85,-107.75C2010.65,-103.08 2840.4,-84.64 3103,-42 3108.53,-41.1 3114.24,-39.93 3119.92,-38.6"/>
<polygon fill="midnightblue" stroke="midnightblue" points="3121.19,-41.89 3130.04,-36.06 3119.48,-35.1 3121.19,-41.89"/>
</g>
<!-- Node23 -->
<g id="node23" class="node">
<title>Node23</title>
<g id="a_node23"><a xlink:title=" ">
<polygon fill="white" stroke="#bfbfbf" points="3254.5,-6 3254.5,-36 3373.5,-36 3373.5,-6 3254.5,-6"/>
<text text-anchor="start" x="3262.5" y="-24" font-family="Helvetica,sans-Serif" font-size="10.00">boost/asio/detail/pop</text>
<text text-anchor="middle" x="3314" y="-13" font-family="Helvetica,sans-Serif" font-size="10.00">_options.hpp</text>
</a>
</g>
</g>
<!-- Node1&#45;&gt;Node23 -->
<g id="edge22" class="edge">
<title>Node1&#45;&gt;Node23</title>
<path fill="none" stroke="midnightblue" d="M1760.62,-108.19C2026.07,-104.82 2953.5,-89.81 3245,-42 3250.38,-41.12 3255.94,-39.95 3261.46,-38.63"/>
<polygon fill="midnightblue" stroke="midnightblue" points="3262.49,-41.98 3271.3,-36.09 3260.74,-35.2 3262.49,-41.98"/>
</g>
</g>
</svg>
