<?xml version="1.0" encoding="UTF-8" standalone="no"?>
<!DOCTYPE svg PUBLIC "-//W3C//DTD SVG 1.1//EN"
 "http://www.w3.org/Graphics/SVG/1.1/DTD/svg11.dtd">
<!-- Generated by graphviz version 2.43.0 (0)
 -->
<!-- Title: /home/kali/projects/vsomeip/implementation/helper/1.66/boost/asio/detail/reactive_socket_service_base_ext_local.hpp Pages: 1 -->
<svg width="3008pt" height="139pt"
 viewBox="0.00 0.00 3008.00 139.00" xmlns="http://www.w3.org/2000/svg" xmlns:xlink="http://www.w3.org/1999/xlink">
<g id="graph0" class="graph" transform="scale(1 1) rotate(0) translate(4 135)">
<title>/home/kali/projects/vsomeip/implementation/helper/1.66/boost/asio/detail/reactive_socket_service_base_ext_local.hpp</title>
<polygon fill="white" stroke="transparent" points="-4,4 -4,-135 3004,-135 3004,4 -4,4"/>
<!-- Node1 -->
<g id="node1" class="node">
<title>Node1</title>
<g id="a_node1"><a xlink:title=" ">
<polygon fill="#bfbfbf" stroke="black" points="1455.5,-67.5 1455.5,-130.5 1611.5,-130.5 1611.5,-67.5 1455.5,-67.5"/>
<text text-anchor="start" x="1463.5" y="-118.5" font-family="Helvetica,sans-Serif" font-size="10.00">/home/kali/projects</text>
<text text-anchor="start" x="1463.5" y="-107.5" font-family="Helvetica,sans-Serif" font-size="10.00">/vsomeip/implementation</text>
<text text-anchor="start" x="1463.5" y="-96.5" font-family="Helvetica,sans-Serif" font-size="10.00">/helper/1.66/boost/asio</text>
<text text-anchor="start" x="1463.5" y="-85.5" font-family="Helvetica,sans-Serif" font-size="10.00">/detail/reactive_socket</text>
<text text-anchor="middle" x="1533.5" y="-74.5" font-family="Helvetica,sans-Serif" font-size="10.00">_service_base_ext_local.hpp</text>
</a>
</g>
</g>
<!-- Node2 -->
<g id="node2" class="node">
<title>Node2</title>
<g id="a_node2"><a xlink:title=" ">
<polygon fill="white" stroke="#bfbfbf" points="0,-6 0,-25 151,-25 151,-6 0,-6"/>
<text text-anchor="middle" x="75.5" y="-13" font-family="Helvetica,sans-Serif" font-size="10.00">boost/asio/detail/config.hpp</text>
</a>
</g>
</g>
<!-- Node1&#45;&gt;Node2 -->
<g id="edge1" class="edge">
<title>Node1&#45;&gt;Node2</title>
<path fill="none" stroke="midnightblue" d="M1455.38,-97.53C1245.25,-95.54 650.59,-85.15 159.5,-31 149.57,-29.91 139.04,-28.38 128.91,-26.73"/>
<polygon fill="midnightblue" stroke="midnightblue" points="129.4,-23.26 118.95,-25.04 128.23,-30.16 129.4,-23.26"/>
</g>
<!-- Node3 -->
<g id="node3" class="node">
<title>Node3</title>
<g id="a_node3"><a xlink:title=" ">
<polygon fill="white" stroke="#bfbfbf" points="169,-6 169,-25 288,-25 288,-6 169,-6"/>
<text text-anchor="middle" x="228.5" y="-13" font-family="Helvetica,sans-Serif" font-size="10.00">boost/asio/buffer.hpp</text>
</a>
</g>
</g>
<!-- Node1&#45;&gt;Node3 -->
<g id="edge2" class="edge">
<title>Node1&#45;&gt;Node3</title>
<path fill="none" stroke="midnightblue" d="M1455.31,-97.98C1259.34,-97.03 731.69,-88.83 296.5,-31 288.93,-29.99 280.95,-28.6 273.22,-27.07"/>
<polygon fill="midnightblue" stroke="midnightblue" points="273.76,-23.61 263.26,-25 272.34,-30.46 273.76,-23.61"/>
</g>
<!-- Node4 -->
<g id="node4" class="node">
<title>Node4</title>
<g id="a_node4"><a xlink:title=" ">
<polygon fill="white" stroke="#bfbfbf" points="306,-6 306,-25 419,-25 419,-6 306,-6"/>
<text text-anchor="middle" x="362.5" y="-13" font-family="Helvetica,sans-Serif" font-size="10.00">boost/asio/error.hpp</text>
</a>
</g>
</g>
<!-- Node1&#45;&gt;Node4 -->
<g id="edge3" class="edge">
<title>Node1&#45;&gt;Node4</title>
<path fill="none" stroke="midnightblue" d="M1455.38,-97.43C1274.1,-95.21 811.11,-84.3 428.5,-31 421.31,-30 413.74,-28.63 406.39,-27.14"/>
<polygon fill="midnightblue" stroke="midnightblue" points="407.08,-23.71 396.57,-25.05 405.62,-30.55 407.08,-23.71"/>
</g>
<!-- Node5 -->
<g id="node5" class="node">
<title>Node5</title>
<g id="a_node5"><a xlink:title=" ">
<polygon fill="white" stroke="#bfbfbf" points="437.5,-6 437.5,-25 579.5,-25 579.5,-6 437.5,-6"/>
<text text-anchor="middle" x="508.5" y="-13" font-family="Helvetica,sans-Serif" font-size="10.00">boost/asio/io_context.hpp</text>
</a>
</g>
</g>
<!-- Node1&#45;&gt;Node5 -->
<g id="edge4" class="edge">
<title>Node1&#45;&gt;Node5</title>
<path fill="none" stroke="midnightblue" d="M1455.43,-95.33C1293.35,-89.17 908.76,-71.26 588.5,-31 579.45,-29.86 569.87,-28.38 560.61,-26.79"/>
<polygon fill="midnightblue" stroke="midnightblue" points="561.17,-23.33 550.72,-25.04 559.95,-30.23 561.17,-23.33"/>
</g>
<!-- Node6 -->
<g id="node6" class="node">
<title>Node6</title>
<g id="a_node6"><a xlink:title=" ">
<polygon fill="white" stroke="#bfbfbf" points="598,-6 598,-25 749,-25 749,-6 598,-6"/>
<text text-anchor="middle" x="673.5" y="-13" font-family="Helvetica,sans-Serif" font-size="10.00">boost/asio/socket_base.hpp</text>
</a>
</g>
</g>
<!-- Node1&#45;&gt;Node6 -->
<g id="edge5" class="edge">
<title>Node1&#45;&gt;Node6</title>
<path fill="none" stroke="midnightblue" d="M1455.34,-93.45C1315.14,-84.8 1011.8,-63.87 757.5,-31 748.13,-29.79 738.21,-28.28 728.6,-26.7"/>
<polygon fill="midnightblue" stroke="midnightblue" points="729.17,-23.25 718.73,-25.03 728.01,-30.15 729.17,-23.25"/>
</g>
<!-- Node7 -->
<g id="node7" class="node">
<title>Node7</title>
<g id="a_node7"><a xlink:title=" ">
<polygon fill="white" stroke="#bfbfbf" points="767,-0.5 767,-30.5 898,-30.5 898,-0.5 767,-0.5"/>
<text text-anchor="start" x="775" y="-18.5" font-family="Helvetica,sans-Serif" font-size="10.00">boost/asio/detail/buffer</text>
<text text-anchor="middle" x="832.5" y="-7.5" font-family="Helvetica,sans-Serif" font-size="10.00">_sequence_adapter.hpp</text>
</a>
</g>
</g>
<!-- Node1&#45;&gt;Node7 -->
<g id="edge6" class="edge">
<title>Node1&#45;&gt;Node7</title>
<path fill="none" stroke="midnightblue" d="M1455.02,-91.82C1337.93,-82.12 1110.45,-61.37 908.13,-31.18"/>
<polygon fill="midnightblue" stroke="midnightblue" points="908.63,-27.71 898.22,-29.68 907.58,-34.63 908.63,-27.71"/>
</g>
<!-- Node8 -->
<g id="node8" class="node">
<title>Node8</title>
<g id="a_node8"><a xlink:title=" ">
<polygon fill="white" stroke="#bfbfbf" points="916,-6 916,-25 1077,-25 1077,-6 916,-6"/>
<text text-anchor="middle" x="996.5" y="-13" font-family="Helvetica,sans-Serif" font-size="10.00">boost/asio/detail/memory.hpp</text>
</a>
</g>
</g>
<!-- Node1&#45;&gt;Node8 -->
<g id="edge7" class="edge">
<title>Node1&#45;&gt;Node8</title>
<path fill="none" stroke="midnightblue" d="M1455.14,-86.52C1365.86,-73.38 1215.6,-51.07 1086.5,-31 1077.54,-29.61 1068.09,-28.11 1058.81,-26.63"/>
<polygon fill="midnightblue" stroke="midnightblue" points="1059.26,-23.16 1048.83,-25.03 1058.15,-30.07 1059.26,-23.16"/>
</g>
<!-- Node9 -->
<g id="node9" class="node">
<title>Node9</title>
<g id="a_node9"><a xlink:title=" ">
<polygon fill="white" stroke="#bfbfbf" points="1095.5,-0.5 1095.5,-30.5 1235.5,-30.5 1235.5,-0.5 1095.5,-0.5"/>
<text text-anchor="start" x="1103.5" y="-18.5" font-family="Helvetica,sans-Serif" font-size="10.00">boost/asio/detail/reactive</text>
<text text-anchor="middle" x="1165.5" y="-7.5" font-family="Helvetica,sans-Serif" font-size="10.00">_null_buffers_op.hpp</text>
</a>
</g>
</g>
<!-- Node1&#45;&gt;Node9 -->
<g id="edge8" class="edge">
<title>Node1&#45;&gt;Node9</title>
<path fill="none" stroke="midnightblue" d="M1455.46,-80.72C1391.37,-66.52 1301.27,-46.57 1238.58,-32.68"/>
<polygon fill="midnightblue" stroke="midnightblue" points="1239.28,-29.26 1228.76,-30.51 1237.77,-36.09 1239.28,-29.26"/>
</g>
<!-- Node10 -->
<g id="node10" class="node">
<title>Node10</title>
<g id="a_node10"><a xlink:title=" ">
<polygon fill="white" stroke="#bfbfbf" points="1254,-0.5 1254,-30.5 1421,-30.5 1421,-0.5 1254,-0.5"/>
<text text-anchor="start" x="1262" y="-18.5" font-family="Helvetica,sans-Serif" font-size="10.00">boost/asio/detail/reactive</text>
<text text-anchor="middle" x="1337.5" y="-7.5" font-family="Helvetica,sans-Serif" font-size="10.00">_socket_recv_op_ext_local.hpp</text>
</a>
</g>
</g>
<!-- Node1&#45;&gt;Node10 -->
<g id="edge9" class="edge">
<title>Node1&#45;&gt;Node10</title>
<path fill="none" stroke="midnightblue" d="M1459.96,-67.42C1433.23,-56.3 1403.9,-44.11 1380.65,-34.44"/>
<polygon fill="midnightblue" stroke="midnightblue" points="1381.99,-31.21 1371.41,-30.6 1379.3,-37.67 1381.99,-31.21"/>
</g>
<!-- Node11 -->
<g id="node11" class="node">
<title>Node11</title>
<g id="a_node11"><a xlink:title=" ">
<polygon fill="white" stroke="#bfbfbf" points="1439.5,-0.5 1439.5,-30.5 1627.5,-30.5 1627.5,-0.5 1439.5,-0.5"/>
<text text-anchor="start" x="1447.5" y="-18.5" font-family="Helvetica,sans-Serif" font-size="10.00">boost/asio/detail/reactive</text>
<text text-anchor="middle" x="1533.5" y="-7.5" font-family="Helvetica,sans-Serif" font-size="10.00">_socket_recvmsg_op_ext_local.hpp</text>
</a>
</g>
</g>
<!-- Node1&#45;&gt;Node11 -->
<g id="edge10" class="edge">
<title>Node1&#45;&gt;Node11</title>
<path fill="none" stroke="midnightblue" d="M1533.5,-67.19C1533.5,-58.41 1533.5,-48.98 1533.5,-40.66"/>
<polygon fill="midnightblue" stroke="midnightblue" points="1537,-40.52 1533.5,-30.52 1530,-40.52 1537,-40.52"/>
</g>
<!-- Node12 -->
<g id="node12" class="node">
<title>Node12</title>
<g id="a_node12"><a xlink:title=" ">
<polygon fill="white" stroke="#bfbfbf" points="1645.5,-0.5 1645.5,-30.5 1785.5,-30.5 1785.5,-0.5 1645.5,-0.5"/>
<text text-anchor="start" x="1653.5" y="-18.5" font-family="Helvetica,sans-Serif" font-size="10.00">boost/asio/detail/reactive</text>
<text text-anchor="middle" x="1715.5" y="-7.5" font-family="Helvetica,sans-Serif" font-size="10.00">_socket_send_op.hpp</text>
</a>
</g>
</g>
<!-- Node1&#45;&gt;Node12 -->
<g id="edge11" class="edge">
<title>Node1&#45;&gt;Node12</title>
<path fill="none" stroke="midnightblue" d="M1601.79,-67.42C1626.39,-56.4 1653.36,-44.33 1674.85,-34.7"/>
<polygon fill="midnightblue" stroke="midnightblue" points="1676.32,-37.88 1684.01,-30.6 1673.46,-31.49 1676.32,-37.88"/>
</g>
<!-- Node13 -->
<g id="node13" class="node">
<title>Node13</title>
<g id="a_node13"><a xlink:title=" ">
<polygon fill="white" stroke="#bfbfbf" points="1803.5,-0.5 1803.5,-30.5 1943.5,-30.5 1943.5,-0.5 1803.5,-0.5"/>
<text text-anchor="start" x="1811.5" y="-18.5" font-family="Helvetica,sans-Serif" font-size="10.00">boost/asio/detail/reactive</text>
<text text-anchor="middle" x="1873.5" y="-7.5" font-family="Helvetica,sans-Serif" font-size="10.00">_wait_op.hpp</text>
</a>
</g>
</g>
<!-- Node1&#45;&gt;Node13 -->
<g id="edge12" class="edge">
<title>Node1&#45;&gt;Node13</title>
<path fill="none" stroke="midnightblue" d="M1611.5,-79.3C1669.95,-65.29 1749.15,-46.31 1805.13,-32.89"/>
<polygon fill="midnightblue" stroke="midnightblue" points="1806.04,-36.27 1814.95,-30.53 1804.41,-29.46 1806.04,-36.27"/>
</g>
<!-- Node14 -->
<g id="node14" class="node">
<title>Node14</title>
<g id="a_node14"><a xlink:title=" ">
<polygon fill="white" stroke="#bfbfbf" points="1962,-6 1962,-25 2117,-25 2117,-6 1962,-6"/>
<text text-anchor="middle" x="2039.5" y="-13" font-family="Helvetica,sans-Serif" font-size="10.00">boost/asio/detail/reactor.hpp</text>
</a>
</g>
</g>
<!-- Node1&#45;&gt;Node14 -->
<g id="edge13" class="edge">
<title>Node1&#45;&gt;Node14</title>
<path fill="none" stroke="midnightblue" d="M1611.52,-85.68C1695.69,-72.36 1833.63,-50.41 1952.5,-31 1960.86,-29.63 1969.68,-28.18 1978.36,-26.74"/>
<polygon fill="midnightblue" stroke="midnightblue" points="1979.15,-30.16 1988.45,-25.07 1978.01,-23.25 1979.15,-30.16"/>
</g>
<!-- Node15 -->
<g id="node15" class="node">
<title>Node15</title>
<g id="a_node15"><a xlink:title=" ">
<polygon fill="white" stroke="#bfbfbf" points="2135,-0.5 2135,-30.5 2270,-30.5 2270,-0.5 2135,-0.5"/>
<text text-anchor="start" x="2143" y="-18.5" font-family="Helvetica,sans-Serif" font-size="10.00">boost/asio/detail/reactor</text>
<text text-anchor="middle" x="2202.5" y="-7.5" font-family="Helvetica,sans-Serif" font-size="10.00">_op.hpp</text>
</a>
</g>
</g>
<!-- Node1&#45;&gt;Node15 -->
<g id="edge14" class="edge">
<title>Node1&#45;&gt;Node15</title>
<path fill="none" stroke="midnightblue" d="M1611.93,-91.05C1723.67,-80.73 1935.28,-59.61 2124.46,-31.25"/>
<polygon fill="midnightblue" stroke="midnightblue" points="2125.23,-34.67 2134.59,-29.72 2124.18,-27.75 2125.23,-34.67"/>
</g>
<!-- Node16 -->
<g id="node16" class="node">
<title>Node16</title>
<g id="a_node16"><a xlink:title=" ">
<polygon fill="white" stroke="#bfbfbf" points="2288.5,-0.5 2288.5,-30.5 2420.5,-30.5 2420.5,-0.5 2288.5,-0.5"/>
<text text-anchor="start" x="2296.5" y="-18.5" font-family="Helvetica,sans-Serif" font-size="10.00">boost/asio/detail/socket</text>
<text text-anchor="middle" x="2354.5" y="-7.5" font-family="Helvetica,sans-Serif" font-size="10.00">_holder.hpp</text>
</a>
</g>
</g>
<!-- Node1&#45;&gt;Node16 -->
<g id="edge15" class="edge">
<title>Node1&#45;&gt;Node16</title>
<path fill="none" stroke="midnightblue" d="M1611.66,-93.6C1746.02,-85.45 2029.51,-65.75 2278.35,-31.07"/>
<polygon fill="midnightblue" stroke="midnightblue" points="2278.89,-34.53 2288.31,-29.67 2277.92,-27.6 2278.89,-34.53"/>
</g>
<!-- Node17 -->
<g id="node17" class="node">
<title>Node17</title>
<g id="a_node17"><a xlink:title=" ">
<polygon fill="white" stroke="#bfbfbf" points="2438.5,-0.5 2438.5,-30.5 2570.5,-30.5 2570.5,-0.5 2438.5,-0.5"/>
<text text-anchor="start" x="2446.5" y="-18.5" font-family="Helvetica,sans-Serif" font-size="10.00">boost/asio/detail/socket</text>
<text text-anchor="middle" x="2504.5" y="-7.5" font-family="Helvetica,sans-Serif" font-size="10.00">_ops_ext_local.hpp</text>
</a>
</g>
</g>
<!-- Node1&#45;&gt;Node17 -->
<g id="edge16" class="edge">
<title>Node1&#45;&gt;Node17</title>
<path fill="none" stroke="midnightblue" d="M1611.72,-95.21C1766.12,-89.05 2121.04,-71.56 2428.32,-31.06"/>
<polygon fill="midnightblue" stroke="midnightblue" points="2428.86,-34.52 2438.32,-29.73 2427.94,-27.58 2428.86,-34.52"/>
</g>
<!-- Node18 -->
<g id="node18" class="node">
<title>Node18</title>
<g id="a_node18"><a xlink:title=" ">
<polygon fill="white" stroke="#bfbfbf" points="2588.5,-0.5 2588.5,-30.5 2720.5,-30.5 2720.5,-0.5 2588.5,-0.5"/>
<text text-anchor="start" x="2596.5" y="-18.5" font-family="Helvetica,sans-Serif" font-size="10.00">boost/asio/detail/socket</text>
<text text-anchor="middle" x="2654.5" y="-7.5" font-family="Helvetica,sans-Serif" font-size="10.00">_types.hpp</text>
</a>
</g>
</g>
<!-- Node1&#45;&gt;Node18 -->
<g id="edge17" class="edge">
<title>Node1&#45;&gt;Node18</title>
<path fill="none" stroke="midnightblue" d="M1611.57,-96.39C1784.29,-92.08 2211.83,-77.39 2578.31,-31.04"/>
<polygon fill="midnightblue" stroke="midnightblue" points="2578.84,-34.5 2588.32,-29.77 2577.96,-27.56 2578.84,-34.5"/>
</g>
<!-- Node19 -->
<g id="node19" class="node">
<title>Node19</title>
<g id="a_node19"><a xlink:title=" ">
<polygon fill="white" stroke="#bfbfbf" points="2738.5,-0.5 2738.5,-30.5 2862.5,-30.5 2862.5,-0.5 2738.5,-0.5"/>
<text text-anchor="start" x="2746.5" y="-18.5" font-family="Helvetica,sans-Serif" font-size="10.00">boost/asio/detail/push</text>
<text text-anchor="middle" x="2800.5" y="-7.5" font-family="Helvetica,sans-Serif" font-size="10.00">_options.hpp</text>
</a>
</g>
</g>
<!-- Node1&#45;&gt;Node19 -->
<g id="edge18" class="edge">
<title>Node1&#45;&gt;Node19</title>
<path fill="none" stroke="midnightblue" d="M1611.52,-97.55C1801.35,-95.61 2302.4,-85.41 2728.2,-31.04"/>
<polygon fill="midnightblue" stroke="midnightblue" points="2728.78,-34.49 2738.25,-29.75 2727.88,-27.55 2728.78,-34.49"/>
</g>
<!-- Node20 -->
<g id="node20" class="node">
<title>Node20</title>
<g id="a_node20"><a xlink:title=" ">
<polygon fill="white" stroke="#bfbfbf" points="2881,-0.5 2881,-30.5 3000,-30.5 3000,-0.5 2881,-0.5"/>
<text text-anchor="start" x="2889" y="-18.5" font-family="Helvetica,sans-Serif" font-size="10.00">boost/asio/detail/pop</text>
<text text-anchor="middle" x="2940.5" y="-7.5" font-family="Helvetica,sans-Serif" font-size="10.00">_options.hpp</text>
</a>
</g>
</g>
<!-- Node1&#45;&gt;Node20 -->
<g id="edge19" class="edge">
<title>Node1&#45;&gt;Node20</title>
<path fill="none" stroke="midnightblue" d="M1611.55,-98.36C1816.69,-98.4 2387.88,-92.59 2870.8,-30.93"/>
<polygon fill="midnightblue" stroke="midnightblue" points="2871.29,-34.4 2880.76,-29.65 2870.39,-27.46 2871.29,-34.4"/>
</g>
</g>
</svg>
