<?xml version="1.0" encoding="UTF-8" standalone="no"?>
<!DOCTYPE svg PUBLIC "-//W3C//DTD SVG 1.1//EN"
 "http://www.w3.org/Graphics/SVG/1.1/DTD/svg11.dtd">
<!-- Generated by graphviz version 2.43.0 (0)
 -->
<!-- Title: /home/kali/projects/vsomeip/implementation/helper/1.66/boost/asio/detail/reactive_socket_service_ext_local.hpp Pages: 1 -->
<svg width="3297pt" height="150pt"
 viewBox="0.00 0.00 3297.00 150.00" xmlns="http://www.w3.org/2000/svg" xmlns:xlink="http://www.w3.org/1999/xlink">
<g id="graph0" class="graph" transform="scale(1 1) rotate(0) translate(4 146)">
<title>/home/kali/projects/vsomeip/implementation/helper/1.66/boost/asio/detail/reactive_socket_service_ext_local.hpp</title>
<polygon fill="white" stroke="transparent" points="-4,4 -4,-146 3293,-146 3293,4 -4,4"/>
<!-- Node1 -->
<g id="node1" class="node">
<title>Node1</title>
<g id="a_node1"><a xlink:title=" ">
<polygon fill="#bfbfbf" stroke="black" points="1612,-78.5 1612,-141.5 1755,-141.5 1755,-78.5 1612,-78.5"/>
<text text-anchor="start" x="1620" y="-129.5" font-family="Helvetica,sans-Serif" font-size="10.00">/home/kali/projects</text>
<text text-anchor="start" x="1620" y="-118.5" font-family="Helvetica,sans-Serif" font-size="10.00">/vsomeip/implementation</text>
<text text-anchor="start" x="1620" y="-107.5" font-family="Helvetica,sans-Serif" font-size="10.00">/helper/1.66/boost/asio</text>
<text text-anchor="start" x="1620" y="-96.5" font-family="Helvetica,sans-Serif" font-size="10.00">/detail/reactive_socket</text>
<text text-anchor="middle" x="1683.5" y="-85.5" font-family="Helvetica,sans-Serif" font-size="10.00">_service_ext_local.hpp</text>
</a>
</g>
</g>
<!-- Node2 -->
<g id="node2" class="node">
<title>Node2</title>
<g id="a_node2"><a xlink:title=" ">
<polygon fill="white" stroke="#bfbfbf" points="0,-11.5 0,-30.5 151,-30.5 151,-11.5 0,-11.5"/>
<text text-anchor="middle" x="75.5" y="-18.5" font-family="Helvetica,sans-Serif" font-size="10.00">boost/asio/detail/config.hpp</text>
</a>
</g>
</g>
<!-- Node1&#45;&gt;Node2 -->
<g id="edge1" class="edge">
<title>Node1&#45;&gt;Node2</title>
<path fill="none" stroke="midnightblue" d="M1611.63,-107.65C1349.52,-102.45 445.4,-81.95 159.5,-42 144.81,-39.95 128.92,-36.49 114.95,-33.03"/>
<polygon fill="midnightblue" stroke="midnightblue" points="115.73,-29.61 105.17,-30.52 113.99,-36.39 115.73,-29.61"/>
</g>
<!-- Node3 -->
<g id="node3" class="node">
<title>Node3</title>
<g id="a_node3"><a xlink:title=" ">
<polygon fill="white" stroke="#bfbfbf" points="169,-11.5 169,-30.5 288,-30.5 288,-11.5 169,-11.5"/>
<text text-anchor="middle" x="228.5" y="-18.5" font-family="Helvetica,sans-Serif" font-size="10.00">boost/asio/buffer.hpp</text>
</a>
</g>
</g>
<!-- Node1&#45;&gt;Node3 -->
<g id="edge2" class="edge">
<title>Node1&#45;&gt;Node3</title>
<path fill="none" stroke="midnightblue" d="M1611.73,-107.78C1365.09,-103.26 553.39,-85.35 296.5,-42 285.07,-40.07 272.85,-36.86 261.97,-33.56"/>
<polygon fill="midnightblue" stroke="midnightblue" points="263,-30.22 252.41,-30.55 260.89,-36.89 263,-30.22"/>
</g>
<!-- Node4 -->
<g id="node4" class="node">
<title>Node4</title>
<g id="a_node4"><a xlink:title=" ">
<polygon fill="white" stroke="#bfbfbf" points="306,-11.5 306,-30.5 419,-30.5 419,-11.5 306,-11.5"/>
<text text-anchor="middle" x="362.5" y="-18.5" font-family="Helvetica,sans-Serif" font-size="10.00">boost/asio/error.hpp</text>
</a>
</g>
</g>
<!-- Node1&#45;&gt;Node4 -->
<g id="edge3" class="edge">
<title>Node1&#45;&gt;Node4</title>
<path fill="none" stroke="midnightblue" d="M1611.81,-107.44C1380.94,-102.07 658.45,-82.37 428.5,-42 417.51,-40.07 405.77,-36.89 395.29,-33.64"/>
<polygon fill="midnightblue" stroke="midnightblue" points="396.28,-30.28 385.69,-30.52 394.12,-36.94 396.28,-30.28"/>
</g>
<!-- Node5 -->
<g id="node5" class="node">
<title>Node5</title>
<g id="a_node5"><a xlink:title=" ">
<polygon fill="white" stroke="#bfbfbf" points="437.5,-11.5 437.5,-30.5 579.5,-30.5 579.5,-11.5 437.5,-11.5"/>
<text text-anchor="middle" x="508.5" y="-18.5" font-family="Helvetica,sans-Serif" font-size="10.00">boost/asio/io_context.hpp</text>
</a>
</g>
</g>
<!-- Node1&#45;&gt;Node5 -->
<g id="edge4" class="edge">
<title>Node1&#45;&gt;Node5</title>
<path fill="none" stroke="midnightblue" d="M1611.92,-109.16C1436.4,-108.55 971.08,-101.01 588.5,-42 574.88,-39.9 560.19,-36.55 547.16,-33.19"/>
<polygon fill="midnightblue" stroke="midnightblue" points="547.69,-29.71 537.12,-30.51 545.88,-36.47 547.69,-29.71"/>
</g>
<!-- Node6 -->
<g id="node6" class="node">
<title>Node6</title>
<g id="a_node6"><a xlink:title=" ">
<polygon fill="white" stroke="#bfbfbf" points="598,-11.5 598,-30.5 749,-30.5 749,-11.5 598,-11.5"/>
<text text-anchor="middle" x="673.5" y="-18.5" font-family="Helvetica,sans-Serif" font-size="10.00">boost/asio/socket_base.hpp</text>
</a>
</g>
</g>
<!-- Node1&#45;&gt;Node6 -->
<g id="edge5" class="edge">
<title>Node1&#45;&gt;Node6</title>
<path fill="none" stroke="midnightblue" d="M1611.9,-107.75C1455.81,-104.17 1073.51,-90.73 757.5,-42 743.21,-39.8 727.77,-36.42 714.07,-33.06"/>
<polygon fill="midnightblue" stroke="midnightblue" points="714.54,-29.57 703.99,-30.51 712.83,-36.35 714.54,-29.57"/>
</g>
<!-- Node7 -->
<g id="node7" class="node">
<title>Node7</title>
<g id="a_node7"><a xlink:title=" ">
<polygon fill="white" stroke="#bfbfbf" points="767,-6 767,-36 898,-36 898,-6 767,-6"/>
<text text-anchor="start" x="775" y="-24" font-family="Helvetica,sans-Serif" font-size="10.00">boost/asio/detail/buffer</text>
<text text-anchor="middle" x="832.5" y="-13" font-family="Helvetica,sans-Serif" font-size="10.00">_sequence_adapter.hpp</text>
</a>
</g>
</g>
<!-- Node1&#45;&gt;Node7 -->
<g id="edge6" class="edge">
<title>Node1&#45;&gt;Node7</title>
<path fill="none" stroke="midnightblue" d="M1611.98,-107.08C1474.38,-102.45 1163.66,-87.47 906.5,-42 901.01,-41.03 895.34,-39.84 889.69,-38.53"/>
<polygon fill="midnightblue" stroke="midnightblue" points="890.13,-35.04 879.59,-36.07 888.47,-41.84 890.13,-35.04"/>
</g>
<!-- Node8 -->
<g id="node8" class="node">
<title>Node8</title>
<g id="a_node8"><a xlink:title=" ">
<polygon fill="white" stroke="#bfbfbf" points="916,-11.5 916,-30.5 1077,-30.5 1077,-11.5 916,-11.5"/>
<text text-anchor="middle" x="996.5" y="-18.5" font-family="Helvetica,sans-Serif" font-size="10.00">boost/asio/detail/memory.hpp</text>
</a>
</g>
</g>
<!-- Node1&#45;&gt;Node8 -->
<g id="edge7" class="edge">
<title>Node1&#45;&gt;Node8</title>
<path fill="none" stroke="midnightblue" d="M1611.94,-103.46C1499.55,-94.2 1275.02,-73.43 1086.5,-42 1071.64,-39.52 1055.53,-36.16 1041.11,-32.9"/>
<polygon fill="midnightblue" stroke="midnightblue" points="1041.48,-29.4 1030.95,-30.56 1039.91,-36.22 1041.48,-29.4"/>
</g>
<!-- Node9 -->
<g id="node9" class="node">
<title>Node9</title>
<g id="a_node9"><a xlink:title=" ">
<polygon fill="white" stroke="#bfbfbf" points="1095.5,-11.5 1095.5,-30.5 1279.5,-30.5 1279.5,-11.5 1095.5,-11.5"/>
<text text-anchor="middle" x="1187.5" y="-18.5" font-family="Helvetica,sans-Serif" font-size="10.00">boost/asio/detail/noncopyable.hpp</text>
</a>
</g>
</g>
<!-- Node1&#45;&gt;Node9 -->
<g id="edge8" class="edge">
<title>Node1&#45;&gt;Node9</title>
<path fill="none" stroke="midnightblue" d="M1611.68,-97.43C1532.44,-84.52 1401.21,-62.71 1288.5,-42 1272.49,-39.06 1255.09,-35.68 1239.32,-32.55"/>
<polygon fill="midnightblue" stroke="midnightblue" points="1239.71,-29.05 1229.22,-30.53 1238.34,-35.92 1239.71,-29.05"/>
</g>
<!-- Node10 -->
<g id="node10" class="node">
<title>Node10</title>
<g id="a_node10"><a xlink:title=" ">
<polygon fill="white" stroke="#bfbfbf" points="1297.5,-6 1297.5,-36 1437.5,-36 1437.5,-6 1297.5,-6"/>
<text text-anchor="start" x="1305.5" y="-24" font-family="Helvetica,sans-Serif" font-size="10.00">boost/asio/detail/reactive</text>
<text text-anchor="middle" x="1367.5" y="-13" font-family="Helvetica,sans-Serif" font-size="10.00">_null_buffers_op.hpp</text>
</a>
</g>
</g>
<!-- Node1&#45;&gt;Node10 -->
<g id="edge9" class="edge">
<title>Node1&#45;&gt;Node10</title>
<path fill="none" stroke="midnightblue" d="M1611.79,-89.26C1556.54,-74.05 1480.97,-53.24 1428.58,-38.82"/>
<polygon fill="midnightblue" stroke="midnightblue" points="1429.32,-35.39 1418.75,-36.11 1427.46,-42.14 1429.32,-35.39"/>
</g>
<!-- Node11 -->
<g id="node11" class="node">
<title>Node11</title>
<g id="a_node11"><a xlink:title=" ">
<polygon fill="white" stroke="#bfbfbf" points="1455.5,-6 1455.5,-36 1595.5,-36 1595.5,-6 1455.5,-6"/>
<text text-anchor="start" x="1463.5" y="-24" font-family="Helvetica,sans-Serif" font-size="10.00">boost/asio/detail/reactive</text>
<text text-anchor="middle" x="1525.5" y="-13" font-family="Helvetica,sans-Serif" font-size="10.00">_socket_accept_op.hpp</text>
</a>
</g>
</g>
<!-- Node1&#45;&gt;Node11 -->
<g id="edge10" class="edge">
<title>Node1&#45;&gt;Node11</title>
<path fill="none" stroke="midnightblue" d="M1627.8,-78.33C1605.25,-65.91 1579.92,-51.96 1560.1,-41.05"/>
<polygon fill="midnightblue" stroke="midnightblue" points="1561.58,-37.87 1551.14,-36.12 1558.21,-44.01 1561.58,-37.87"/>
</g>
<!-- Node12 -->
<g id="node12" class="node">
<title>Node12</title>
<g id="a_node12"><a xlink:title=" ">
<polygon fill="white" stroke="#bfbfbf" points="1613.5,-6 1613.5,-36 1753.5,-36 1753.5,-6 1613.5,-6"/>
<text text-anchor="start" x="1621.5" y="-24" font-family="Helvetica,sans-Serif" font-size="10.00">boost/asio/detail/reactive</text>
<text text-anchor="middle" x="1683.5" y="-13" font-family="Helvetica,sans-Serif" font-size="10.00">_socket_connect_op.hpp</text>
</a>
</g>
</g>
<!-- Node1&#45;&gt;Node12 -->
<g id="edge11" class="edge">
<title>Node1&#45;&gt;Node12</title>
<path fill="none" stroke="midnightblue" d="M1683.5,-78.08C1683.5,-67.72 1683.5,-56.32 1683.5,-46.51"/>
<polygon fill="midnightblue" stroke="midnightblue" points="1687,-46.27 1683.5,-36.27 1680,-46.27 1687,-46.27"/>
</g>
<!-- Node13 -->
<g id="node13" class="node">
<title>Node13</title>
<g id="a_node13"><a xlink:title=" ">
<polygon fill="white" stroke="#bfbfbf" points="1772,-0.5 1772,-41.5 1913,-41.5 1913,-0.5 1772,-0.5"/>
<text text-anchor="start" x="1780" y="-29.5" font-family="Helvetica,sans-Serif" font-size="10.00">boost/asio/detail/reactive</text>
<text text-anchor="start" x="1780" y="-18.5" font-family="Helvetica,sans-Serif" font-size="10.00">_socket_recvfrom_op_ext</text>
<text text-anchor="middle" x="1842.5" y="-7.5" font-family="Helvetica,sans-Serif" font-size="10.00">_local.hpp</text>
</a>
</g>
</g>
<!-- Node1&#45;&gt;Node13 -->
<g id="edge12" class="edge">
<title>Node1&#45;&gt;Node13</title>
<path fill="none" stroke="midnightblue" d="M1739.56,-78.33C1758.59,-67.91 1779.59,-56.42 1797.64,-46.55"/>
<polygon fill="midnightblue" stroke="midnightblue" points="1799.69,-49.42 1806.78,-41.55 1796.33,-43.28 1799.69,-49.42"/>
</g>
<!-- Node14 -->
<g id="node14" class="node">
<title>Node14</title>
<g id="a_node14"><a xlink:title=" ">
<polygon fill="white" stroke="#bfbfbf" points="1931.5,-6 1931.5,-36 2071.5,-36 2071.5,-6 1931.5,-6"/>
<text text-anchor="start" x="1939.5" y="-24" font-family="Helvetica,sans-Serif" font-size="10.00">boost/asio/detail/reactive</text>
<text text-anchor="middle" x="2001.5" y="-13" font-family="Helvetica,sans-Serif" font-size="10.00">_socket_sendto_op.hpp</text>
</a>
</g>
</g>
<!-- Node1&#45;&gt;Node14 -->
<g id="edge13" class="edge">
<title>Node1&#45;&gt;Node14</title>
<path fill="none" stroke="midnightblue" d="M1755.26,-89.37C1811.02,-74.11 1887.51,-53.19 1940.37,-38.72"/>
<polygon fill="midnightblue" stroke="midnightblue" points="1941.57,-42.03 1950.29,-36.01 1939.72,-35.27 1941.57,-42.03"/>
</g>
<!-- Node15 -->
<g id="node15" class="node">
<title>Node15</title>
<g id="a_node15"><a xlink:title=" ">
<polygon fill="white" stroke="#bfbfbf" points="2090,-0.5 2090,-41.5 2233,-41.5 2233,-0.5 2090,-0.5"/>
<text text-anchor="start" x="2098" y="-29.5" font-family="Helvetica,sans-Serif" font-size="10.00">boost/asio/detail/reactive</text>
<text text-anchor="start" x="2098" y="-18.5" font-family="Helvetica,sans-Serif" font-size="10.00">_socket_service_base_ext</text>
<text text-anchor="middle" x="2161.5" y="-7.5" font-family="Helvetica,sans-Serif" font-size="10.00">_local.hpp</text>
</a>
</g>
</g>
<!-- Node1&#45;&gt;Node15 -->
<g id="edge14" class="edge">
<title>Node1&#45;&gt;Node15</title>
<path fill="none" stroke="midnightblue" d="M1755.16,-98.56C1832.71,-86.89 1960.2,-66.62 2079.53,-42.13"/>
<polygon fill="midnightblue" stroke="midnightblue" points="2080.49,-45.51 2089.58,-40.06 2079.07,-38.65 2080.49,-45.51"/>
</g>
<!-- Node16 -->
<g id="node16" class="node">
<title>Node16</title>
<g id="a_node16"><a xlink:title=" ">
<polygon fill="white" stroke="#bfbfbf" points="2251,-11.5 2251,-30.5 2406,-30.5 2406,-11.5 2251,-11.5"/>
<text text-anchor="middle" x="2328.5" y="-18.5" font-family="Helvetica,sans-Serif" font-size="10.00">boost/asio/detail/reactor.hpp</text>
</a>
</g>
</g>
<!-- Node1&#45;&gt;Node16 -->
<g id="edge15" class="edge">
<title>Node1&#45;&gt;Node16</title>
<path fill="none" stroke="midnightblue" d="M1755.34,-102.92C1862.11,-93.31 2068.73,-72.52 2242.5,-42 2256.58,-39.53 2271.81,-36.2 2285.48,-32.98"/>
<polygon fill="midnightblue" stroke="midnightblue" points="2286.69,-36.28 2295.59,-30.54 2285.05,-29.48 2286.69,-36.28"/>
</g>
<!-- Node17 -->
<g id="node17" class="node">
<title>Node17</title>
<g id="a_node17"><a xlink:title=" ">
<polygon fill="white" stroke="#bfbfbf" points="2424,-6 2424,-36 2559,-36 2559,-6 2424,-6"/>
<text text-anchor="start" x="2432" y="-24" font-family="Helvetica,sans-Serif" font-size="10.00">boost/asio/detail/reactor</text>
<text text-anchor="middle" x="2491.5" y="-13" font-family="Helvetica,sans-Serif" font-size="10.00">_op.hpp</text>
</a>
</g>
</g>
<!-- Node1&#45;&gt;Node17 -->
<g id="edge16" class="edge">
<title>Node1&#45;&gt;Node17</title>
<path fill="none" stroke="midnightblue" d="M1755.2,-106.39C1886.88,-100.72 2175.76,-84.21 2415.5,-42 2421.27,-40.98 2427.24,-39.75 2433.18,-38.39"/>
<polygon fill="midnightblue" stroke="midnightblue" points="2434.2,-41.75 2443.11,-36.02 2432.57,-34.94 2434.2,-41.75"/>
</g>
<!-- Node18 -->
<g id="node18" class="node">
<title>Node18</title>
<g id="a_node18"><a xlink:title=" ">
<polygon fill="white" stroke="#bfbfbf" points="2577.5,-6 2577.5,-36 2709.5,-36 2709.5,-6 2577.5,-6"/>
<text text-anchor="start" x="2585.5" y="-24" font-family="Helvetica,sans-Serif" font-size="10.00">boost/asio/detail/socket</text>
<text text-anchor="middle" x="2643.5" y="-13" font-family="Helvetica,sans-Serif" font-size="10.00">_holder.hpp</text>
</a>
</g>
</g>
<!-- Node1&#45;&gt;Node18 -->
<g id="edge17" class="edge">
<title>Node1&#45;&gt;Node18</title>
<path fill="none" stroke="midnightblue" d="M1755.17,-108.06C1906.48,-105.08 2269.23,-92.78 2568.5,-42 2574.29,-41.02 2580.28,-39.79 2586.23,-38.43"/>
<polygon fill="midnightblue" stroke="midnightblue" points="2587.28,-41.78 2596.18,-36.04 2585.64,-34.97 2587.28,-41.78"/>
</g>
<!-- Node19 -->
<g id="node19" class="node">
<title>Node19</title>
<g id="a_node19"><a xlink:title=" ">
<polygon fill="white" stroke="#bfbfbf" points="2727.5,-6 2727.5,-36 2859.5,-36 2859.5,-6 2727.5,-6"/>
<text text-anchor="start" x="2735.5" y="-24" font-family="Helvetica,sans-Serif" font-size="10.00">boost/asio/detail/socket</text>
<text text-anchor="middle" x="2793.5" y="-13" font-family="Helvetica,sans-Serif" font-size="10.00">_ops.hpp</text>
</a>
</g>
</g>
<!-- Node1&#45;&gt;Node19 -->
<g id="edge18" class="edge">
<title>Node1&#45;&gt;Node19</title>
<path fill="none" stroke="midnightblue" d="M1755.26,-109.17C1924.29,-108.53 2360.24,-100.78 2718.5,-42 2724.38,-41.04 2730.46,-39.81 2736.51,-38.44"/>
<polygon fill="midnightblue" stroke="midnightblue" points="2737.69,-41.75 2746.6,-36.01 2736.06,-34.95 2737.69,-41.75"/>
</g>
<!-- Node20 -->
<g id="node20" class="node">
<title>Node20</title>
<g id="a_node20"><a xlink:title=" ">
<polygon fill="white" stroke="#bfbfbf" points="2877.5,-6 2877.5,-36 3009.5,-36 3009.5,-6 2877.5,-6"/>
<text text-anchor="start" x="2885.5" y="-24" font-family="Helvetica,sans-Serif" font-size="10.00">boost/asio/detail/socket</text>
<text text-anchor="middle" x="2943.5" y="-13" font-family="Helvetica,sans-Serif" font-size="10.00">_types.hpp</text>
</a>
</g>
</g>
<!-- Node1&#45;&gt;Node20 -->
<g id="edge19" class="edge">
<title>Node1&#45;&gt;Node20</title>
<path fill="none" stroke="midnightblue" d="M1755.01,-106.87C1976.94,-99.97 2652.06,-76.61 2868.5,-42 2874.38,-41.06 2880.47,-39.85 2886.51,-38.49"/>
<polygon fill="midnightblue" stroke="midnightblue" points="2887.69,-41.8 2896.61,-36.07 2886.07,-34.99 2887.69,-41.8"/>
</g>
<!-- Node21 -->
<g id="node21" class="node">
<title>Node21</title>
<g id="a_node21"><a xlink:title=" ">
<polygon fill="white" stroke="#bfbfbf" points="3027.5,-6 3027.5,-36 3151.5,-36 3151.5,-6 3027.5,-6"/>
<text text-anchor="start" x="3035.5" y="-24" font-family="Helvetica,sans-Serif" font-size="10.00">boost/asio/detail/push</text>
<text text-anchor="middle" x="3089.5" y="-13" font-family="Helvetica,sans-Serif" font-size="10.00">_options.hpp</text>
</a>
</g>
</g>
<!-- Node1&#45;&gt;Node21 -->
<g id="edge20" class="edge">
<title>Node1&#45;&gt;Node21</title>
<path fill="none" stroke="midnightblue" d="M1755.06,-107.53C1995.32,-102.24 2771.88,-82.4 3018.5,-42 3024.03,-41.09 3029.74,-39.91 3035.41,-38.58"/>
<polygon fill="midnightblue" stroke="midnightblue" points="3036.69,-41.87 3045.53,-36.04 3034.98,-35.08 3036.69,-41.87"/>
</g>
<!-- Node22 -->
<g id="node22" class="node">
<title>Node22</title>
<g id="a_node22"><a xlink:title=" ">
<polygon fill="white" stroke="#bfbfbf" points="3170,-6 3170,-36 3289,-36 3289,-6 3170,-6"/>
<text text-anchor="start" x="3178" y="-24" font-family="Helvetica,sans-Serif" font-size="10.00">boost/asio/detail/pop</text>
<text text-anchor="middle" x="3229.5" y="-13" font-family="Helvetica,sans-Serif" font-size="10.00">_options.hpp</text>
</a>
</g>
</g>
<!-- Node1&#45;&gt;Node22 -->
<g id="edge21" class="edge">
<title>Node1&#45;&gt;Node22</title>
<path fill="none" stroke="midnightblue" d="M1755.43,-107.99C2012.51,-104.03 2885.24,-87.47 3160.5,-42 3165.88,-41.11 3171.44,-39.94 3176.96,-38.61"/>
<polygon fill="midnightblue" stroke="midnightblue" points="3177.99,-41.96 3186.8,-36.08 3176.24,-35.18 3177.99,-41.96"/>
</g>
</g>
</svg>
