<?xml version="1.0" encoding="UTF-8" standalone="no"?>
<!DOCTYPE svg PUBLIC "-//W3C//DTD SVG 1.1//EN"
 "http://www.w3.org/Graphics/SVG/1.1/DTD/svg11.dtd">
<!-- Generated by graphviz version 2.43.0 (0)
 -->
<!-- Title: /home/kali/projects/vsomeip/implementation/helper/1.66/boost/asio/detail/reactive_socket_service_base_ext.hpp Pages: 1 -->
<svg width="3031pt" height="139pt"
 viewBox="0.00 0.00 3030.50 139.00" xmlns="http://www.w3.org/2000/svg" xmlns:xlink="http://www.w3.org/1999/xlink">
<g id="graph0" class="graph" transform="scale(1 1) rotate(0) translate(4 135)">
<title>/home/kali/projects/vsomeip/implementation/helper/1.66/boost/asio/detail/reactive_socket_service_base_ext.hpp</title>
<polygon fill="white" stroke="transparent" points="-4,4 -4,-135 3026.5,-135 3026.5,4 -4,4"/>
<!-- Node1 -->
<g id="node1" class="node">
<title>Node1</title>
<g id="a_node1"><a xlink:title=" ">
<polygon fill="#bfbfbf" stroke="black" points="1414.5,-67.5 1414.5,-130.5 1557.5,-130.5 1557.5,-67.5 1414.5,-67.5"/>
<text text-anchor="start" x="1422.5" y="-118.5" font-family="Helvetica,sans-Serif" font-size="10.00">/home/kali/projects</text>
<text text-anchor="start" x="1422.5" y="-107.5" font-family="Helvetica,sans-Serif" font-size="10.00">/vsomeip/implementation</text>
<text text-anchor="start" x="1422.5" y="-96.5" font-family="Helvetica,sans-Serif" font-size="10.00">/helper/1.66/boost/asio</text>
<text text-anchor="start" x="1422.5" y="-85.5" font-family="Helvetica,sans-Serif" font-size="10.00">/detail/reactive_socket</text>
<text text-anchor="middle" x="1486" y="-74.5" font-family="Helvetica,sans-Serif" font-size="10.00">_service_base_ext.hpp</text>
</a>
</g>
</g>
<!-- Node2 -->
<g id="node2" class="node">
<title>Node2</title>
<g id="a_node2"><a xlink:title=" ">
<polygon fill="white" stroke="#bfbfbf" points="0,-6 0,-25 60,-25 60,-6 0,-6"/>
<text text-anchor="middle" x="30" y="-13" font-family="Helvetica,sans-Serif" font-size="10.00">iostream</text>
</a>
</g>
</g>
<!-- Node1&#45;&gt;Node2 -->
<g id="edge1" class="edge">
<title>Node1&#45;&gt;Node2</title>
<path fill="none" stroke="midnightblue" d="M1414.29,-97.52C1164.02,-95.41 330.35,-84.41 69,-31 65.74,-30.33 62.4,-29.44 59.1,-28.42"/>
<polygon fill="midnightblue" stroke="midnightblue" points="60.09,-25.06 49.49,-25.09 57.8,-31.67 60.09,-25.06"/>
</g>
<!-- Node3 -->
<g id="node3" class="node">
<title>Node3</title>
<g id="a_node3"><a xlink:title=" ">
<polygon fill="white" stroke="#bfbfbf" points="78.5,-6 78.5,-25 229.5,-25 229.5,-6 78.5,-6"/>
<text text-anchor="middle" x="154" y="-13" font-family="Helvetica,sans-Serif" font-size="10.00">boost/asio/detail/config.hpp</text>
</a>
</g>
</g>
<!-- Node1&#45;&gt;Node3 -->
<g id="edge2" class="edge">
<title>Node1&#45;&gt;Node3</title>
<path fill="none" stroke="midnightblue" d="M1414.35,-97.09C1222.87,-94.03 683.51,-81.24 238,-31 228.07,-29.88 217.54,-28.34 207.41,-26.69"/>
<polygon fill="midnightblue" stroke="midnightblue" points="207.9,-23.22 197.46,-25 206.73,-30.12 207.9,-23.22"/>
</g>
<!-- Node4 -->
<g id="node4" class="node">
<title>Node4</title>
<g id="a_node4"><a xlink:title=" ">
<polygon fill="white" stroke="#bfbfbf" points="247.5,-6 247.5,-25 366.5,-25 366.5,-6 247.5,-6"/>
<text text-anchor="middle" x="307" y="-13" font-family="Helvetica,sans-Serif" font-size="10.00">boost/asio/buffer.hpp</text>
</a>
</g>
</g>
<!-- Node1&#45;&gt;Node4 -->
<g id="edge3" class="edge">
<title>Node1&#45;&gt;Node4</title>
<path fill="none" stroke="midnightblue" d="M1414.48,-97.39C1237.44,-95.08 764.88,-84.02 375,-31 367.52,-29.98 359.63,-28.6 351.98,-27.08"/>
<polygon fill="midnightblue" stroke="midnightblue" points="352.62,-23.64 342.12,-25.04 351.2,-30.49 352.62,-23.64"/>
</g>
<!-- Node5 -->
<g id="node5" class="node">
<title>Node5</title>
<g id="a_node5"><a xlink:title=" ">
<polygon fill="white" stroke="#bfbfbf" points="384.5,-6 384.5,-25 497.5,-25 497.5,-6 384.5,-6"/>
<text text-anchor="middle" x="441" y="-13" font-family="Helvetica,sans-Serif" font-size="10.00">boost/asio/error.hpp</text>
</a>
</g>
</g>
<!-- Node1&#45;&gt;Node5 -->
<g id="edge4" class="edge">
<title>Node1&#45;&gt;Node5</title>
<path fill="none" stroke="midnightblue" d="M1414.37,-96.72C1252.1,-93.03 844.28,-79.32 507,-31 500.06,-30.01 492.75,-28.68 485.64,-27.24"/>
<polygon fill="midnightblue" stroke="midnightblue" points="485.93,-23.73 475.42,-25.07 484.47,-30.57 485.93,-23.73"/>
</g>
<!-- Node6 -->
<g id="node6" class="node">
<title>Node6</title>
<g id="a_node6"><a xlink:title=" ">
<polygon fill="white" stroke="#bfbfbf" points="516,-6 516,-25 658,-25 658,-6 516,-6"/>
<text text-anchor="middle" x="587" y="-13" font-family="Helvetica,sans-Serif" font-size="10.00">boost/asio/io_context.hpp</text>
</a>
</g>
</g>
<!-- Node1&#45;&gt;Node6 -->
<g id="edge5" class="edge">
<title>Node1&#45;&gt;Node6</title>
<path fill="none" stroke="midnightblue" d="M1414.27,-94.49C1271.53,-86.99 941.94,-67.08 667,-31 658.15,-29.84 648.8,-28.37 639.72,-26.81"/>
<polygon fill="midnightblue" stroke="midnightblue" points="640.1,-23.32 629.64,-25.03 638.88,-30.21 640.1,-23.32"/>
</g>
<!-- Node7 -->
<g id="node7" class="node">
<title>Node7</title>
<g id="a_node7"><a xlink:title=" ">
<polygon fill="white" stroke="#bfbfbf" points="676.5,-6 676.5,-25 827.5,-25 827.5,-6 676.5,-6"/>
<text text-anchor="middle" x="752" y="-13" font-family="Helvetica,sans-Serif" font-size="10.00">boost/asio/socket_base.hpp</text>
</a>
</g>
</g>
<!-- Node1&#45;&gt;Node7 -->
<g id="edge6" class="edge">
<title>Node1&#45;&gt;Node7</title>
<path fill="none" stroke="midnightblue" d="M1414.15,-92.21C1294.11,-82.17 1045.32,-59.82 836,-31 826.96,-29.75 817.39,-28.27 808.09,-26.73"/>
<polygon fill="midnightblue" stroke="midnightblue" points="808.57,-23.26 798.13,-25.04 807.4,-30.16 808.57,-23.26"/>
</g>
<!-- Node8 -->
<g id="node8" class="node">
<title>Node8</title>
<g id="a_node8"><a xlink:title=" ">
<polygon fill="white" stroke="#bfbfbf" points="845.5,-0.5 845.5,-30.5 976.5,-30.5 976.5,-0.5 845.5,-0.5"/>
<text text-anchor="start" x="853.5" y="-18.5" font-family="Helvetica,sans-Serif" font-size="10.00">boost/asio/detail/buffer</text>
<text text-anchor="middle" x="911" y="-7.5" font-family="Helvetica,sans-Serif" font-size="10.00">_sequence_adapter.hpp</text>
</a>
</g>
</g>
<!-- Node1&#45;&gt;Node8 -->
<g id="edge7" class="edge">
<title>Node1&#45;&gt;Node8</title>
<path fill="none" stroke="midnightblue" d="M1414.45,-89.81C1319.04,-78.59 1144.73,-57.01 986.64,-31.22"/>
<polygon fill="midnightblue" stroke="midnightblue" points="987.16,-27.76 976.73,-29.59 986.03,-34.67 987.16,-27.76"/>
</g>
<!-- Node9 -->
<g id="node9" class="node">
<title>Node9</title>
<g id="a_node9"><a xlink:title=" ">
<polygon fill="white" stroke="#bfbfbf" points="994.5,-6 994.5,-25 1155.5,-25 1155.5,-6 994.5,-6"/>
<text text-anchor="middle" x="1075" y="-13" font-family="Helvetica,sans-Serif" font-size="10.00">boost/asio/detail/memory.hpp</text>
</a>
</g>
</g>
<!-- Node1&#45;&gt;Node9 -->
<g id="edge8" class="edge">
<title>Node1&#45;&gt;Node9</title>
<path fill="none" stroke="midnightblue" d="M1414.41,-83.8C1332.7,-67.6 1200.95,-41.48 1127.96,-27"/>
<polygon fill="midnightblue" stroke="midnightblue" points="1128.55,-23.55 1118.06,-25.04 1127.19,-30.42 1128.55,-23.55"/>
</g>
<!-- Node10 -->
<g id="node10" class="node">
<title>Node10</title>
<g id="a_node10"><a xlink:title=" ">
<polygon fill="white" stroke="#bfbfbf" points="1174,-0.5 1174,-30.5 1314,-30.5 1314,-0.5 1174,-0.5"/>
<text text-anchor="start" x="1182" y="-18.5" font-family="Helvetica,sans-Serif" font-size="10.00">boost/asio/detail/reactive</text>
<text text-anchor="middle" x="1244" y="-7.5" font-family="Helvetica,sans-Serif" font-size="10.00">_null_buffers_op.hpp</text>
</a>
</g>
</g>
<!-- Node1&#45;&gt;Node10 -->
<g id="edge9" class="edge">
<title>Node1&#45;&gt;Node10</title>
<path fill="none" stroke="midnightblue" d="M1414.37,-73.88C1376.19,-61.02 1330.09,-45.49 1295.48,-33.84"/>
<polygon fill="midnightblue" stroke="midnightblue" points="1296.18,-30.38 1285.58,-30.5 1293.94,-37.01 1296.18,-30.38"/>
</g>
<!-- Node11 -->
<g id="node11" class="node">
<title>Node11</title>
<g id="a_node11"><a xlink:title=" ">
<polygon fill="white" stroke="#bfbfbf" points="1332,-0.5 1332,-30.5 1472,-30.5 1472,-0.5 1332,-0.5"/>
<text text-anchor="start" x="1340" y="-18.5" font-family="Helvetica,sans-Serif" font-size="10.00">boost/asio/detail/reactive</text>
<text text-anchor="middle" x="1402" y="-7.5" font-family="Helvetica,sans-Serif" font-size="10.00">_socket_recv_op_ext.hpp</text>
</a>
</g>
</g>
<!-- Node1&#45;&gt;Node11 -->
<g id="edge10" class="edge">
<title>Node1&#45;&gt;Node11</title>
<path fill="none" stroke="midnightblue" d="M1454.24,-67.19C1444.08,-57.33 1433.06,-46.64 1423.78,-37.63"/>
<polygon fill="midnightblue" stroke="midnightblue" points="1426.06,-34.97 1416.45,-30.52 1421.19,-39.99 1426.06,-34.97"/>
</g>
<!-- Node12 -->
<g id="node12" class="node">
<title>Node12</title>
<g id="a_node12"><a xlink:title=" ">
<polygon fill="white" stroke="#bfbfbf" points="1490,-0.5 1490,-30.5 1650,-30.5 1650,-0.5 1490,-0.5"/>
<text text-anchor="start" x="1498" y="-18.5" font-family="Helvetica,sans-Serif" font-size="10.00">boost/asio/detail/reactive</text>
<text text-anchor="middle" x="1570" y="-7.5" font-family="Helvetica,sans-Serif" font-size="10.00">_socket_recvmsg_op_ext.hpp</text>
</a>
</g>
</g>
<!-- Node1&#45;&gt;Node12 -->
<g id="edge11" class="edge">
<title>Node1&#45;&gt;Node12</title>
<path fill="none" stroke="midnightblue" d="M1517.76,-67.19C1527.92,-57.33 1538.94,-46.64 1548.22,-37.63"/>
<polygon fill="midnightblue" stroke="midnightblue" points="1550.81,-39.99 1555.55,-30.52 1545.94,-34.97 1550.81,-39.99"/>
</g>
<!-- Node13 -->
<g id="node13" class="node">
<title>Node13</title>
<g id="a_node13"><a xlink:title=" ">
<polygon fill="white" stroke="#bfbfbf" points="1668,-0.5 1668,-30.5 1808,-30.5 1808,-0.5 1668,-0.5"/>
<text text-anchor="start" x="1676" y="-18.5" font-family="Helvetica,sans-Serif" font-size="10.00">boost/asio/detail/reactive</text>
<text text-anchor="middle" x="1738" y="-7.5" font-family="Helvetica,sans-Serif" font-size="10.00">_socket_send_op.hpp</text>
</a>
</g>
</g>
<!-- Node1&#45;&gt;Node13 -->
<g id="edge12" class="edge">
<title>Node1&#45;&gt;Node13</title>
<path fill="none" stroke="midnightblue" d="M1557.54,-74.86C1598.01,-61.77 1647.77,-45.68 1684.78,-33.71"/>
<polygon fill="midnightblue" stroke="midnightblue" points="1685.94,-37.01 1694.38,-30.61 1683.79,-30.35 1685.94,-37.01"/>
</g>
<!-- Node14 -->
<g id="node14" class="node">
<title>Node14</title>
<g id="a_node14"><a xlink:title=" ">
<polygon fill="white" stroke="#bfbfbf" points="1826,-0.5 1826,-30.5 1966,-30.5 1966,-0.5 1826,-0.5"/>
<text text-anchor="start" x="1834" y="-18.5" font-family="Helvetica,sans-Serif" font-size="10.00">boost/asio/detail/reactive</text>
<text text-anchor="middle" x="1896" y="-7.5" font-family="Helvetica,sans-Serif" font-size="10.00">_wait_op.hpp</text>
</a>
</g>
</g>
<!-- Node1&#45;&gt;Node14 -->
<g id="edge13" class="edge">
<title>Node1&#45;&gt;Node14</title>
<path fill="none" stroke="midnightblue" d="M1557.89,-83.71C1630.09,-69.36 1741.1,-47.29 1816.04,-32.39"/>
<polygon fill="midnightblue" stroke="midnightblue" points="1816.79,-35.81 1825.91,-30.43 1815.42,-28.95 1816.79,-35.81"/>
</g>
<!-- Node15 -->
<g id="node15" class="node">
<title>Node15</title>
<g id="a_node15"><a xlink:title=" ">
<polygon fill="white" stroke="#bfbfbf" points="1984.5,-6 1984.5,-25 2139.5,-25 2139.5,-6 1984.5,-6"/>
<text text-anchor="middle" x="2062" y="-13" font-family="Helvetica,sans-Serif" font-size="10.00">boost/asio/detail/reactor.hpp</text>
</a>
</g>
</g>
<!-- Node1&#45;&gt;Node15 -->
<g id="edge14" class="edge">
<title>Node1&#45;&gt;Node15</title>
<path fill="none" stroke="midnightblue" d="M1557.77,-88.83C1653.17,-76.49 1826.95,-53.47 1975,-31 1983.89,-29.65 1993.29,-28.16 2002.48,-26.65"/>
<polygon fill="midnightblue" stroke="midnightblue" points="2003.05,-30.11 2012.35,-25.03 2001.92,-23.2 2003.05,-30.11"/>
</g>
<!-- Node16 -->
<g id="node16" class="node">
<title>Node16</title>
<g id="a_node16"><a xlink:title=" ">
<polygon fill="white" stroke="#bfbfbf" points="2157.5,-0.5 2157.5,-30.5 2292.5,-30.5 2292.5,-0.5 2157.5,-0.5"/>
<text text-anchor="start" x="2165.5" y="-18.5" font-family="Helvetica,sans-Serif" font-size="10.00">boost/asio/detail/reactor</text>
<text text-anchor="middle" x="2225" y="-7.5" font-family="Helvetica,sans-Serif" font-size="10.00">_op.hpp</text>
</a>
</g>
</g>
<!-- Node1&#45;&gt;Node16 -->
<g id="edge15" class="edge">
<title>Node1&#45;&gt;Node16</title>
<path fill="none" stroke="midnightblue" d="M1557.87,-92.82C1677.98,-83.7 1927.23,-62.82 2146.99,-31.23"/>
<polygon fill="midnightblue" stroke="midnightblue" points="2147.7,-34.66 2157.1,-29.76 2146.7,-27.73 2147.7,-34.66"/>
</g>
<!-- Node17 -->
<g id="node17" class="node">
<title>Node17</title>
<g id="a_node17"><a xlink:title=" ">
<polygon fill="white" stroke="#bfbfbf" points="2311,-0.5 2311,-30.5 2443,-30.5 2443,-0.5 2311,-0.5"/>
<text text-anchor="start" x="2319" y="-18.5" font-family="Helvetica,sans-Serif" font-size="10.00">boost/asio/detail/socket</text>
<text text-anchor="middle" x="2377" y="-7.5" font-family="Helvetica,sans-Serif" font-size="10.00">_holder.hpp</text>
</a>
</g>
</g>
<!-- Node1&#45;&gt;Node17 -->
<g id="edge16" class="edge">
<title>Node1&#45;&gt;Node17</title>
<path fill="none" stroke="midnightblue" d="M1557.51,-94.76C1698.12,-87.8 2020.6,-69.03 2300.86,-31.06"/>
<polygon fill="midnightblue" stroke="midnightblue" points="2301.38,-34.52 2310.81,-29.7 2300.43,-27.59 2301.38,-34.52"/>
</g>
<!-- Node18 -->
<g id="node18" class="node">
<title>Node18</title>
<g id="a_node18"><a xlink:title=" ">
<polygon fill="white" stroke="#bfbfbf" points="2461,-0.5 2461,-30.5 2593,-30.5 2593,-0.5 2461,-0.5"/>
<text text-anchor="start" x="2469" y="-18.5" font-family="Helvetica,sans-Serif" font-size="10.00">boost/asio/detail/socket</text>
<text text-anchor="middle" x="2527" y="-7.5" font-family="Helvetica,sans-Serif" font-size="10.00">_ops_ext.hpp</text>
</a>
</g>
</g>
<!-- Node1&#45;&gt;Node18 -->
<g id="edge17" class="edge">
<title>Node1&#45;&gt;Node18</title>
<path fill="none" stroke="midnightblue" d="M1557.8,-96.01C1716.99,-90.95 2111.65,-74.83 2450.8,-31.05"/>
<polygon fill="midnightblue" stroke="midnightblue" points="2451.35,-34.51 2460.82,-29.75 2450.45,-27.57 2451.35,-34.51"/>
</g>
<!-- Node19 -->
<g id="node19" class="node">
<title>Node19</title>
<g id="a_node19"><a xlink:title=" ">
<polygon fill="white" stroke="#bfbfbf" points="2611,-0.5 2611,-30.5 2743,-30.5 2743,-0.5 2611,-0.5"/>
<text text-anchor="start" x="2619" y="-18.5" font-family="Helvetica,sans-Serif" font-size="10.00">boost/asio/detail/socket</text>
<text text-anchor="middle" x="2677" y="-7.5" font-family="Helvetica,sans-Serif" font-size="10.00">_types.hpp</text>
</a>
</g>
</g>
<!-- Node1&#45;&gt;Node19 -->
<g id="edge18" class="edge">
<title>Node1&#45;&gt;Node19</title>
<path fill="none" stroke="midnightblue" d="M1557.78,-96.95C1734.01,-93.66 2202.02,-80.68 2600.82,-31.04"/>
<polygon fill="midnightblue" stroke="midnightblue" points="2601.34,-34.5 2610.82,-29.78 2600.46,-27.55 2601.34,-34.5"/>
</g>
<!-- Node20 -->
<g id="node20" class="node">
<title>Node20</title>
<g id="a_node20"><a xlink:title=" ">
<polygon fill="white" stroke="#bfbfbf" points="2761,-0.5 2761,-30.5 2885,-30.5 2885,-0.5 2761,-0.5"/>
<text text-anchor="start" x="2769" y="-18.5" font-family="Helvetica,sans-Serif" font-size="10.00">boost/asio/detail/push</text>
<text text-anchor="middle" x="2823" y="-7.5" font-family="Helvetica,sans-Serif" font-size="10.00">_options.hpp</text>
</a>
</g>
</g>
<!-- Node1&#45;&gt;Node20 -->
<g id="edge19" class="edge">
<title>Node1&#45;&gt;Node20</title>
<path fill="none" stroke="midnightblue" d="M1557.72,-97.93C1749.84,-96.93 2292.05,-88.9 2750.61,-31.05"/>
<polygon fill="midnightblue" stroke="midnightblue" points="2751.27,-34.49 2760.75,-29.76 2750.39,-27.55 2751.27,-34.49"/>
</g>
<!-- Node21 -->
<g id="node21" class="node">
<title>Node21</title>
<g id="a_node21"><a xlink:title=" ">
<polygon fill="white" stroke="#bfbfbf" points="2903.5,-0.5 2903.5,-30.5 3022.5,-30.5 3022.5,-0.5 2903.5,-0.5"/>
<text text-anchor="start" x="2911.5" y="-18.5" font-family="Helvetica,sans-Serif" font-size="10.00">boost/asio/detail/pop</text>
<text text-anchor="middle" x="2963" y="-7.5" font-family="Helvetica,sans-Serif" font-size="10.00">_options.hpp</text>
</a>
</g>
</g>
<!-- Node1&#45;&gt;Node21 -->
<g id="edge20" class="edge">
<title>Node1&#45;&gt;Node21</title>
<path fill="none" stroke="midnightblue" d="M1557.78,-98.61C1764.19,-99.52 2377.01,-96.19 2893,-30.97"/>
<polygon fill="midnightblue" stroke="midnightblue" points="2893.78,-34.4 2903.26,-29.66 2892.9,-27.45 2893.78,-34.4"/>
</g>
</g>
</svg>
