<?xml version="1.0" encoding="UTF-8" standalone="no"?>
<!DOCTYPE svg PUBLIC "-//W3C//DTD SVG 1.1//EN"
 "http://www.w3.org/Graphics/SVG/1.1/DTD/svg11.dtd">
<!-- Generated by graphviz version 2.43.0 (0)
 -->
<!-- Title: /home/kali/projects/vsomeip/implementation/helper/1.66/boost/asio/basic_stream_socket_ext.hpp Pages: 1 -->
<svg width="1264pt" height="139pt"
 viewBox="0.00 0.00 1264.00 139.00" xmlns="http://www.w3.org/2000/svg" xmlns:xlink="http://www.w3.org/1999/xlink">
<g id="graph0" class="graph" transform="scale(1 1) rotate(0) translate(4 135)">
<title>/home/kali/projects/vsomeip/implementation/helper/1.66/boost/asio/basic_stream_socket_ext.hpp</title>
<polygon fill="white" stroke="transparent" points="-4,4 -4,-135 1260,-135 1260,4 -4,4"/>
<!-- Node1 -->
<g id="node1" class="node">
<title>Node1</title>
<g id="a_node1"><a xlink:title=" ">
<polygon fill="#bfbfbf" stroke="black" points="547.5,-78.5 547.5,-130.5 711.5,-130.5 711.5,-78.5 547.5,-78.5"/>
<text text-anchor="start" x="555.5" y="-118.5" font-family="Helvetica,sans-Serif" font-size="10.00">/home/kali/projects</text>
<text text-anchor="start" x="555.5" y="-107.5" font-family="Helvetica,sans-Serif" font-size="10.00">/vsomeip/implementation</text>
<text text-anchor="start" x="555.5" y="-96.5" font-family="Helvetica,sans-Serif" font-size="10.00">/helper/1.66/boost/asio</text>
<text text-anchor="middle" x="629.5" y="-85.5" font-family="Helvetica,sans-Serif" font-size="10.00">/basic_stream_socket_ext.hpp</text>
</a>
</g>
</g>
<!-- Node2 -->
<g id="node2" class="node">
<title>Node2</title>
<g id="a_node2"><a xlink:title=" ">
<polygon fill="white" stroke="#bfbfbf" points="0,-11.5 0,-30.5 151,-30.5 151,-11.5 0,-11.5"/>
<text text-anchor="middle" x="75.5" y="-18.5" font-family="Helvetica,sans-Serif" font-size="10.00">boost/asio/detail/config.hpp</text>
</a>
</g>
</g>
<!-- Node1&#45;&gt;Node2 -->
<g id="edge1" class="edge">
<title>Node1&#45;&gt;Node2</title>
<path fill="none" stroke="midnightblue" d="M547.16,-95.34C453.01,-85.4 294.46,-66.83 159.5,-42 145.87,-39.49 131.13,-36.19 117.86,-32.99"/>
<polygon fill="midnightblue" stroke="midnightblue" points="118.59,-29.56 108.04,-30.58 116.92,-36.36 118.59,-29.56"/>
</g>
<!-- Node3 -->
<g id="node3" class="node">
<title>Node3</title>
<g id="a_node3"><a xlink:title=" ">
<polygon fill="white" stroke="#bfbfbf" points="169,-11.5 169,-30.5 222,-30.5 222,-11.5 169,-11.5"/>
<text text-anchor="middle" x="195.5" y="-18.5" font-family="Helvetica,sans-Serif" font-size="10.00">cstddef</text>
</a>
</g>
</g>
<!-- Node1&#45;&gt;Node3 -->
<g id="edge2" class="edge">
<title>Node1&#45;&gt;Node3</title>
<path fill="none" stroke="midnightblue" d="M547.45,-99.29C465.53,-93.13 336.99,-78.16 231.5,-42 226.68,-40.35 221.76,-38.07 217.16,-35.63"/>
<polygon fill="midnightblue" stroke="midnightblue" points="218.73,-32.5 208.31,-30.58 215.26,-38.58 218.73,-32.5"/>
</g>
<!-- Node4 -->
<g id="node4" class="node">
<title>Node4</title>
<g id="a_node4"><a xlink:title=" ">
<polygon fill="white" stroke="#bfbfbf" points="240.5,-11.5 240.5,-30.5 392.5,-30.5 392.5,-11.5 240.5,-11.5"/>
<text text-anchor="middle" x="316.5" y="-18.5" font-family="Helvetica,sans-Serif" font-size="10.00">boost/asio/async_result.hpp</text>
</a>
</g>
</g>
<!-- Node1&#45;&gt;Node4 -->
<g id="edge3" class="edge">
<title>Node1&#45;&gt;Node4</title>
<path fill="none" stroke="midnightblue" d="M547.26,-82.09C486.89,-66.37 407.34,-45.65 359.15,-33.11"/>
<polygon fill="midnightblue" stroke="midnightblue" points="359.92,-29.69 349.36,-30.56 358.16,-36.46 359.92,-29.69"/>
</g>
<!-- Node5 -->
<g id="node5" class="node">
<title>Node5</title>
<g id="a_node5"><a xlink:title=" ">
<polygon fill="white" stroke="#bfbfbf" points="410.5,-6 410.5,-36 542.5,-36 542.5,-6 410.5,-6"/>
<text text-anchor="start" x="418.5" y="-24" font-family="Helvetica,sans-Serif" font-size="10.00">boost/asio/basic_socket</text>
<text text-anchor="middle" x="476.5" y="-13" font-family="Helvetica,sans-Serif" font-size="10.00">_ext_local.hpp</text>
</a>
</g>
</g>
<!-- Node1&#45;&gt;Node5 -->
<g id="edge4" class="edge">
<title>Node1&#45;&gt;Node5</title>
<path fill="none" stroke="midnightblue" d="M582.35,-78.38C559.55,-66.24 532.67,-51.92 511.69,-40.75"/>
<polygon fill="midnightblue" stroke="midnightblue" points="513.27,-37.62 502.8,-36.01 509.98,-43.8 513.27,-37.62"/>
</g>
<!-- Node6 -->
<g id="node6" class="node">
<title>Node6</title>
<g id="a_node6"><a xlink:title=" ">
<polygon fill="white" stroke="#bfbfbf" points="561,-0.5 561,-41.5 698,-41.5 698,-0.5 561,-0.5"/>
<text text-anchor="start" x="569" y="-29.5" font-family="Helvetica,sans-Serif" font-size="10.00">boost/asio/detail/handler</text>
<text text-anchor="start" x="569" y="-18.5" font-family="Helvetica,sans-Serif" font-size="10.00">_type_requirements_ext</text>
<text text-anchor="middle" x="629.5" y="-7.5" font-family="Helvetica,sans-Serif" font-size="10.00">_local.hpp</text>
</a>
</g>
</g>
<!-- Node1&#45;&gt;Node6 -->
<g id="edge5" class="edge">
<title>Node1&#45;&gt;Node6</title>
<path fill="none" stroke="midnightblue" d="M629.5,-78.16C629.5,-69.79 629.5,-60.4 629.5,-51.73"/>
<polygon fill="midnightblue" stroke="midnightblue" points="633,-51.63 629.5,-41.63 626,-51.63 633,-51.63"/>
</g>
<!-- Node7 -->
<g id="node7" class="node">
<title>Node7</title>
<g id="a_node7"><a xlink:title=" ">
<polygon fill="white" stroke="#bfbfbf" points="716.5,-6 716.5,-36 844.5,-36 844.5,-6 716.5,-6"/>
<text text-anchor="start" x="724.5" y="-24" font-family="Helvetica,sans-Serif" font-size="10.00">boost/asio/detail/throw</text>
<text text-anchor="middle" x="780.5" y="-13" font-family="Helvetica,sans-Serif" font-size="10.00">_error.hpp</text>
</a>
</g>
</g>
<!-- Node1&#45;&gt;Node7 -->
<g id="edge6" class="edge">
<title>Node1&#45;&gt;Node7</title>
<path fill="none" stroke="midnightblue" d="M676.04,-78.38C698.43,-66.3 724.83,-52.05 745.49,-40.9"/>
<polygon fill="midnightblue" stroke="midnightblue" points="747.4,-43.84 754.54,-36.01 744.08,-37.68 747.4,-43.84"/>
</g>
<!-- Node8 -->
<g id="node8" class="node">
<title>Node8</title>
<g id="a_node8"><a xlink:title=" ">
<polygon fill="white" stroke="#bfbfbf" points="863,-11.5 863,-30.5 976,-30.5 976,-11.5 863,-11.5"/>
<text text-anchor="middle" x="919.5" y="-18.5" font-family="Helvetica,sans-Serif" font-size="10.00">boost/asio/error.hpp</text>
</a>
</g>
</g>
<!-- Node1&#45;&gt;Node8 -->
<g id="edge7" class="edge">
<title>Node1&#45;&gt;Node8</title>
<path fill="none" stroke="midnightblue" d="M711.57,-81.52C754.01,-70.02 806.62,-55.54 853.5,-42 862.79,-39.32 872.79,-36.34 882.13,-33.51"/>
<polygon fill="midnightblue" stroke="midnightblue" points="883.38,-36.79 891.93,-30.53 881.35,-30.09 883.38,-36.79"/>
</g>
<!-- Node9 -->
<g id="node9" class="node">
<title>Node9</title>
<g id="a_node9"><a xlink:title=" ">
<polygon fill="white" stroke="#bfbfbf" points="994.5,-6 994.5,-36 1118.5,-36 1118.5,-6 994.5,-6"/>
<text text-anchor="start" x="1002.5" y="-24" font-family="Helvetica,sans-Serif" font-size="10.00">boost/asio/detail/push</text>
<text text-anchor="middle" x="1056.5" y="-13" font-family="Helvetica,sans-Serif" font-size="10.00">_options.hpp</text>
</a>
</g>
</g>
<!-- Node1&#45;&gt;Node9 -->
<g id="edge8" class="edge">
<title>Node1&#45;&gt;Node9</title>
<path fill="none" stroke="midnightblue" d="M711.63,-91.78C784.1,-80.86 892.37,-63.1 985.5,-42 990.1,-40.96 994.84,-39.8 999.59,-38.59"/>
<polygon fill="midnightblue" stroke="midnightblue" points="1000.54,-41.96 1009.32,-36.03 998.76,-35.19 1000.54,-41.96"/>
</g>
<!-- Node10 -->
<g id="node10" class="node">
<title>Node10</title>
<g id="a_node10"><a xlink:title=" ">
<polygon fill="white" stroke="#bfbfbf" points="1137,-6 1137,-36 1256,-36 1256,-6 1137,-6"/>
<text text-anchor="start" x="1145" y="-24" font-family="Helvetica,sans-Serif" font-size="10.00">boost/asio/detail/pop</text>
<text text-anchor="middle" x="1196.5" y="-13" font-family="Helvetica,sans-Serif" font-size="10.00">_options.hpp</text>
</a>
</g>
</g>
<!-- Node1&#45;&gt;Node10 -->
<g id="edge9" class="edge">
<title>Node1&#45;&gt;Node10</title>
<path fill="none" stroke="midnightblue" d="M711.67,-97.39C810.93,-89.08 982.64,-71.74 1127.5,-42 1132.22,-41.03 1137.08,-39.9 1141.93,-38.68"/>
<polygon fill="midnightblue" stroke="midnightblue" points="1143.07,-42 1151.85,-36.06 1141.29,-35.23 1143.07,-42"/>
</g>
</g>
</svg>
