<?xml version="1.0" encoding="UTF-8" standalone="no"?>
<!DOCTYPE svg PUBLIC "-//W3C//DTD SVG 1.1//EN"
 "http://www.w3.org/Graphics/SVG/1.1/DTD/svg11.dtd">
<!-- Generated by graphviz version 2.43.0 (0)
 -->
<!-- Title: /home/kali/projects/vsomeip/implementation/helper/1.66/boost/asio/basic_datagram_socket_ext.hpp Pages: 1 -->
<svg width="1252pt" height="128pt"
 viewBox="0.00 0.00 1252.00 128.00" xmlns="http://www.w3.org/2000/svg" xmlns:xlink="http://www.w3.org/1999/xlink">
<g id="graph0" class="graph" transform="scale(1 1) rotate(0) translate(4 124)">
<title>/home/kali/projects/vsomeip/implementation/helper/1.66/boost/asio/basic_datagram_socket_ext.hpp</title>
<polygon fill="white" stroke="transparent" points="-4,4 -4,-124 1248,-124 1248,4 -4,4"/>
<!-- Node1 -->
<g id="node1" class="node">
<title>Node1</title>
<g id="a_node1"><a xlink:title=" ">
<polygon fill="#bfbfbf" stroke="black" points="540.5,-67.5 540.5,-119.5 716.5,-119.5 716.5,-67.5 540.5,-67.5"/>
<text text-anchor="start" x="548.5" y="-107.5" font-family="Helvetica,sans-Serif" font-size="10.00">/home/kali/projects</text>
<text text-anchor="start" x="548.5" y="-96.5" font-family="Helvetica,sans-Serif" font-size="10.00">/vsomeip/implementation</text>
<text text-anchor="start" x="548.5" y="-85.5" font-family="Helvetica,sans-Serif" font-size="10.00">/helper/1.66/boost/asio</text>
<text text-anchor="middle" x="628.5" y="-74.5" font-family="Helvetica,sans-Serif" font-size="10.00">/basic_datagram_socket_ext.hpp</text>
</a>
</g>
</g>
<!-- Node2 -->
<g id="node2" class="node">
<title>Node2</title>
<g id="a_node2"><a xlink:title=" ">
<polygon fill="white" stroke="#bfbfbf" points="0,-6 0,-25 151,-25 151,-6 0,-6"/>
<text text-anchor="middle" x="75.5" y="-13" font-family="Helvetica,sans-Serif" font-size="10.00">boost/asio/detail/config.hpp</text>
</a>
</g>
</g>
<!-- Node1&#45;&gt;Node2 -->
<g id="edge1" class="edge">
<title>Node1&#45;&gt;Node2</title>
<path fill="none" stroke="midnightblue" d="M540.18,-82C445.79,-70.53 291.84,-51.09 159.5,-31 150.89,-29.69 141.8,-28.22 132.9,-26.73"/>
<polygon fill="midnightblue" stroke="midnightblue" points="133.42,-23.27 122.98,-25.04 132.25,-30.17 133.42,-23.27"/>
</g>
<!-- Node3 -->
<g id="node3" class="node">
<title>Node3</title>
<g id="a_node3"><a xlink:title=" ">
<polygon fill="white" stroke="#bfbfbf" points="169,-6 169,-25 222,-25 222,-6 169,-6"/>
<text text-anchor="middle" x="195.5" y="-13" font-family="Helvetica,sans-Serif" font-size="10.00">cstddef</text>
</a>
</g>
</g>
<!-- Node1&#45;&gt;Node3 -->
<g id="edge2" class="edge">
<title>Node1&#45;&gt;Node3</title>
<path fill="none" stroke="midnightblue" d="M540.16,-84.68C458.89,-76.1 335.57,-59.61 231.5,-31 229,-30.31 226.44,-29.5 223.89,-28.63"/>
<polygon fill="midnightblue" stroke="midnightblue" points="224.87,-25.26 214.28,-25.01 222.4,-31.81 224.87,-25.26"/>
</g>
<!-- Node4 -->
<g id="node4" class="node">
<title>Node4</title>
<g id="a_node4"><a xlink:title=" ">
<polygon fill="white" stroke="#bfbfbf" points="240.5,-0.5 240.5,-30.5 372.5,-30.5 372.5,-0.5 240.5,-0.5"/>
<text text-anchor="start" x="248.5" y="-18.5" font-family="Helvetica,sans-Serif" font-size="10.00">boost/asio/basic_socket</text>
<text text-anchor="middle" x="306.5" y="-7.5" font-family="Helvetica,sans-Serif" font-size="10.00">_ext.hpp</text>
</a>
</g>
</g>
<!-- Node1&#45;&gt;Node4 -->
<g id="edge3" class="edge">
<title>Node1&#45;&gt;Node4</title>
<path fill="none" stroke="midnightblue" d="M540.09,-71.63C488.46,-59.45 424.25,-44.29 376.22,-32.95"/>
<polygon fill="midnightblue" stroke="midnightblue" points="376.76,-29.49 366.22,-30.6 375.15,-36.3 376.76,-29.49"/>
</g>
<!-- Node5 -->
<g id="node5" class="node">
<title>Node5</title>
<g id="a_node5"><a xlink:title=" ">
<polygon fill="white" stroke="#bfbfbf" points="390.5,-0.5 390.5,-30.5 546.5,-30.5 546.5,-0.5 390.5,-0.5"/>
<text text-anchor="start" x="398.5" y="-18.5" font-family="Helvetica,sans-Serif" font-size="10.00">boost/asio/detail/handler</text>
<text text-anchor="middle" x="468.5" y="-7.5" font-family="Helvetica,sans-Serif" font-size="10.00">_type_requirements_ext.hpp</text>
</a>
</g>
</g>
<!-- Node1&#45;&gt;Node5 -->
<g id="edge4" class="edge">
<title>Node1&#45;&gt;Node5</title>
<path fill="none" stroke="midnightblue" d="M575.67,-67.4C553.41,-56.83 527.96,-44.74 507.45,-35"/>
<polygon fill="midnightblue" stroke="midnightblue" points="508.94,-31.84 498.41,-30.71 505.94,-38.16 508.94,-31.84"/>
</g>
<!-- Node6 -->
<g id="node6" class="node">
<title>Node6</title>
<g id="a_node6"><a xlink:title=" ">
<polygon fill="white" stroke="#bfbfbf" points="564.5,-0.5 564.5,-30.5 692.5,-30.5 692.5,-0.5 564.5,-0.5"/>
<text text-anchor="start" x="572.5" y="-18.5" font-family="Helvetica,sans-Serif" font-size="10.00">boost/asio/detail/throw</text>
<text text-anchor="middle" x="628.5" y="-7.5" font-family="Helvetica,sans-Serif" font-size="10.00">_error.hpp</text>
</a>
</g>
</g>
<!-- Node1&#45;&gt;Node6 -->
<g id="edge5" class="edge">
<title>Node1&#45;&gt;Node6</title>
<path fill="none" stroke="midnightblue" d="M628.5,-67.19C628.5,-58.79 628.5,-49.44 628.5,-41.09"/>
<polygon fill="midnightblue" stroke="midnightblue" points="632,-40.85 628.5,-30.85 625,-40.85 632,-40.85"/>
</g>
<!-- Node7 -->
<g id="node7" class="node">
<title>Node7</title>
<g id="a_node7"><a xlink:title=" ">
<polygon fill="white" stroke="#bfbfbf" points="710.5,-0.5 710.5,-30.5 832.5,-30.5 832.5,-0.5 710.5,-0.5"/>
<text text-anchor="start" x="718.5" y="-18.5" font-family="Helvetica,sans-Serif" font-size="10.00">boost/asio/detail/type</text>
<text text-anchor="middle" x="771.5" y="-7.5" font-family="Helvetica,sans-Serif" font-size="10.00">_traits.hpp</text>
</a>
</g>
</g>
<!-- Node1&#45;&gt;Node7 -->
<g id="edge6" class="edge">
<title>Node1&#45;&gt;Node7</title>
<path fill="none" stroke="midnightblue" d="M675.72,-67.4C695.26,-57.02 717.54,-45.18 735.69,-35.53"/>
<polygon fill="midnightblue" stroke="midnightblue" points="737.58,-38.49 744.77,-30.71 734.3,-32.31 737.58,-38.49"/>
</g>
<!-- Node8 -->
<g id="node8" class="node">
<title>Node8</title>
<g id="a_node8"><a xlink:title=" ">
<polygon fill="white" stroke="#bfbfbf" points="851,-6 851,-25 964,-25 964,-6 851,-6"/>
<text text-anchor="middle" x="907.5" y="-13" font-family="Helvetica,sans-Serif" font-size="10.00">boost/asio/error.hpp</text>
</a>
</g>
</g>
<!-- Node1&#45;&gt;Node8 -->
<g id="edge7" class="edge">
<title>Node1&#45;&gt;Node8</title>
<path fill="none" stroke="midnightblue" d="M716.78,-68.45C766.86,-54.81 827.16,-38.38 866.37,-27.7"/>
<polygon fill="midnightblue" stroke="midnightblue" points="867.38,-31.06 876.11,-25.05 865.54,-24.3 867.38,-31.06"/>
</g>
<!-- Node9 -->
<g id="node9" class="node">
<title>Node9</title>
<g id="a_node9"><a xlink:title=" ">
<polygon fill="white" stroke="#bfbfbf" points="982.5,-0.5 982.5,-30.5 1106.5,-30.5 1106.5,-0.5 982.5,-0.5"/>
<text text-anchor="start" x="990.5" y="-18.5" font-family="Helvetica,sans-Serif" font-size="10.00">boost/asio/detail/push</text>
<text text-anchor="middle" x="1044.5" y="-7.5" font-family="Helvetica,sans-Serif" font-size="10.00">_options.hpp</text>
</a>
</g>
</g>
<!-- Node1&#45;&gt;Node9 -->
<g id="edge8" class="edge">
<title>Node1&#45;&gt;Node9</title>
<path fill="none" stroke="midnightblue" d="M716.53,-77.43C783.92,-65.75 879.46,-48.88 972.33,-31.2"/>
<polygon fill="midnightblue" stroke="midnightblue" points="973.01,-34.63 982.18,-29.32 971.7,-27.76 973.01,-34.63"/>
</g>
<!-- Node10 -->
<g id="node10" class="node">
<title>Node10</title>
<g id="a_node10"><a xlink:title=" ">
<polygon fill="white" stroke="#bfbfbf" points="1125,-0.5 1125,-30.5 1244,-30.5 1244,-0.5 1125,-0.5"/>
<text text-anchor="start" x="1133" y="-18.5" font-family="Helvetica,sans-Serif" font-size="10.00">boost/asio/detail/pop</text>
<text text-anchor="middle" x="1184.5" y="-7.5" font-family="Helvetica,sans-Serif" font-size="10.00">_options.hpp</text>
</a>
</g>
</g>
<!-- Node1&#45;&gt;Node10 -->
<g id="edge9" class="edge">
<title>Node1&#45;&gt;Node10</title>
<path fill="none" stroke="midnightblue" d="M716.79,-83.54C812.41,-73.34 969.57,-55.13 1114.73,-31.04"/>
<polygon fill="midnightblue" stroke="midnightblue" points="1115.43,-34.48 1124.72,-29.37 1114.28,-27.57 1115.43,-34.48"/>
</g>
</g>
</svg>
