<?xml version="1.0" encoding="UTF-8" standalone="no"?>
<!DOCTYPE svg PUBLIC "-//W3C//DTD SVG 1.1//EN"
 "http://www.w3.org/Graphics/SVG/1.1/DTD/svg11.dtd">
<!-- Generated by graphviz version 2.43.0 (0)
 -->
<!-- Title: /home/kali/projects/vsomeip/implementation/helper/1.66/boost/asio/detail/reactive_socket_service_ext.hpp Pages: 1 -->
<svg width="3417pt" height="139pt"
 viewBox="0.00 0.00 3416.50 139.00" xmlns="http://www.w3.org/2000/svg" xmlns:xlink="http://www.w3.org/1999/xlink">
<g id="graph0" class="graph" transform="scale(1 1) rotate(0) translate(4 135)">
<title>/home/kali/projects/vsomeip/implementation/helper/1.66/boost/asio/detail/reactive_socket_service_ext.hpp</title>
<polygon fill="white" stroke="transparent" points="-4,4 -4,-135 3412.5,-135 3412.5,4 -4,4"/>
<!-- Node1 -->
<g id="node1" class="node">
<title>Node1</title>
<g id="a_node1"><a xlink:title=" ">
<polygon fill="#bfbfbf" stroke="black" points="1611.5,-67.5 1611.5,-130.5 1754.5,-130.5 1754.5,-67.5 1611.5,-67.5"/>
<text text-anchor="start" x="1619.5" y="-118.5" font-family="Helvetica,sans-Serif" font-size="10.00">/home/kali/projects</text>
<text text-anchor="start" x="1619.5" y="-107.5" font-family="Helvetica,sans-Serif" font-size="10.00">/vsomeip/implementation</text>
<text text-anchor="start" x="1619.5" y="-96.5" font-family="Helvetica,sans-Serif" font-size="10.00">/helper/1.66/boost/asio</text>
<text text-anchor="start" x="1619.5" y="-85.5" font-family="Helvetica,sans-Serif" font-size="10.00">/detail/reactive_socket</text>
<text text-anchor="middle" x="1683" y="-74.5" font-family="Helvetica,sans-Serif" font-size="10.00">_service_ext.hpp</text>
</a>
</g>
</g>
<!-- Node2 -->
<g id="node2" class="node">
<title>Node2</title>
<g id="a_node2"><a xlink:title=" ">
<polygon fill="white" stroke="#bfbfbf" points="0,-6 0,-25 60,-25 60,-6 0,-6"/>
<text text-anchor="middle" x="30" y="-13" font-family="Helvetica,sans-Serif" font-size="10.00">iostream</text>
</a>
</g>
</g>
<!-- Node1&#45;&gt;Node2 -->
<g id="edge1" class="edge">
<title>Node1&#45;&gt;Node2</title>
<path fill="none" stroke="midnightblue" d="M1611.4,-98.01C1339.4,-97.57 370.39,-91.69 69,-31 65.74,-30.34 62.4,-29.46 59.1,-28.44"/>
<polygon fill="midnightblue" stroke="midnightblue" points="60.08,-25.08 49.49,-25.11 57.79,-31.69 60.08,-25.08"/>
</g>
<!-- Node3 -->
<g id="node3" class="node">
<title>Node3</title>
<g id="a_node3"><a xlink:title=" ">
<polygon fill="white" stroke="#bfbfbf" points="78.5,-6 78.5,-25 229.5,-25 229.5,-6 78.5,-6"/>
<text text-anchor="middle" x="154" y="-13" font-family="Helvetica,sans-Serif" font-size="10.00">boost/asio/detail/config.hpp</text>
</a>
</g>
</g>
<!-- Node1&#45;&gt;Node3 -->
<g id="edge2" class="edge">
<title>Node1&#45;&gt;Node3</title>
<path fill="none" stroke="midnightblue" d="M1611.34,-97.83C1400.29,-96.65 762.9,-88.25 238,-31 228.07,-29.92 217.54,-28.4 207.41,-26.75"/>
<polygon fill="midnightblue" stroke="midnightblue" points="207.9,-23.28 197.45,-25.06 206.73,-30.18 207.9,-23.28"/>
</g>
<!-- Node4 -->
<g id="node4" class="node">
<title>Node4</title>
<g id="a_node4"><a xlink:title=" ">
<polygon fill="white" stroke="#bfbfbf" points="247.5,-6 247.5,-25 366.5,-25 366.5,-6 247.5,-6"/>
<text text-anchor="middle" x="307" y="-13" font-family="Helvetica,sans-Serif" font-size="10.00">boost/asio/buffer.hpp</text>
</a>
</g>
</g>
<!-- Node1&#45;&gt;Node4 -->
<g id="edge3" class="edge">
<title>Node1&#45;&gt;Node4</title>
<path fill="none" stroke="midnightblue" d="M1611.39,-98.31C1413.64,-98.33 843.64,-92.57 375,-31 367.43,-30.01 359.44,-28.62 351.72,-27.09"/>
<polygon fill="midnightblue" stroke="midnightblue" points="352.26,-23.63 341.76,-25.02 350.84,-30.48 352.26,-23.63"/>
</g>
<!-- Node5 -->
<g id="node5" class="node">
<title>Node5</title>
<g id="a_node5"><a xlink:title=" ">
<polygon fill="white" stroke="#bfbfbf" points="384.5,-6 384.5,-25 497.5,-25 497.5,-6 384.5,-6"/>
<text text-anchor="middle" x="441" y="-13" font-family="Helvetica,sans-Serif" font-size="10.00">boost/asio/error.hpp</text>
</a>
</g>
</g>
<!-- Node1&#45;&gt;Node5 -->
<g id="edge4" class="edge">
<title>Node1&#45;&gt;Node5</title>
<path fill="none" stroke="midnightblue" d="M1611.36,-97.88C1427.2,-96.72 922.57,-88.12 507,-31 499.81,-30.01 492.24,-28.65 484.89,-27.16"/>
<polygon fill="midnightblue" stroke="midnightblue" points="485.58,-23.73 475.07,-25.07 484.12,-30.58 485.58,-23.73"/>
</g>
<!-- Node6 -->
<g id="node6" class="node">
<title>Node6</title>
<g id="a_node6"><a xlink:title=" ">
<polygon fill="white" stroke="#bfbfbf" points="516,-6 516,-25 658,-25 658,-6 516,-6"/>
<text text-anchor="middle" x="587" y="-13" font-family="Helvetica,sans-Serif" font-size="10.00">boost/asio/io_context.hpp</text>
</a>
</g>
</g>
<!-- Node1&#45;&gt;Node6 -->
<g id="edge5" class="edge">
<title>Node1&#45;&gt;Node6</title>
<path fill="none" stroke="midnightblue" d="M1611.29,-96.07C1444.86,-90.97 1019.65,-74.44 667,-31 657.95,-29.88 648.37,-28.41 639.1,-26.82"/>
<polygon fill="midnightblue" stroke="midnightblue" points="639.67,-23.37 629.21,-25.08 638.45,-30.26 639.67,-23.37"/>
</g>
<!-- Node7 -->
<g id="node7" class="node">
<title>Node7</title>
<g id="a_node7"><a xlink:title=" ">
<polygon fill="white" stroke="#bfbfbf" points="676.5,-6 676.5,-25 827.5,-25 827.5,-6 676.5,-6"/>
<text text-anchor="middle" x="752" y="-13" font-family="Helvetica,sans-Serif" font-size="10.00">boost/asio/socket_base.hpp</text>
</a>
</g>
</g>
<!-- Node1&#45;&gt;Node7 -->
<g id="edge6" class="edge">
<title>Node1&#45;&gt;Node7</title>
<path fill="none" stroke="midnightblue" d="M1611.38,-94.56C1465.21,-87.06 1122.13,-66.94 836,-31 826.52,-29.81 816.48,-28.3 806.76,-26.7"/>
<polygon fill="midnightblue" stroke="midnightblue" points="807.23,-23.23 796.79,-25.02 806.07,-30.13 807.23,-23.23"/>
</g>
<!-- Node8 -->
<g id="node8" class="node">
<title>Node8</title>
<g id="a_node8"><a xlink:title=" ">
<polygon fill="white" stroke="#bfbfbf" points="845.5,-0.5 845.5,-30.5 976.5,-30.5 976.5,-0.5 845.5,-0.5"/>
<text text-anchor="start" x="853.5" y="-18.5" font-family="Helvetica,sans-Serif" font-size="10.00">boost/asio/detail/buffer</text>
<text text-anchor="middle" x="911" y="-7.5" font-family="Helvetica,sans-Serif" font-size="10.00">_sequence_adapter.hpp</text>
</a>
</g>
</g>
<!-- Node1&#45;&gt;Node8 -->
<g id="edge7" class="edge">
<title>Node1&#45;&gt;Node8</title>
<path fill="none" stroke="midnightblue" d="M1611.38,-93.45C1486.42,-84.99 1220.36,-64.74 986.76,-31.18"/>
<polygon fill="midnightblue" stroke="midnightblue" points="987.11,-27.69 976.71,-29.72 986.11,-34.62 987.11,-27.69"/>
</g>
<!-- Node9 -->
<g id="node9" class="node">
<title>Node9</title>
<g id="a_node9"><a xlink:title=" ">
<polygon fill="white" stroke="#bfbfbf" points="994.5,-6 994.5,-25 1155.5,-25 1155.5,-6 994.5,-6"/>
<text text-anchor="middle" x="1075" y="-13" font-family="Helvetica,sans-Serif" font-size="10.00">boost/asio/detail/memory.hpp</text>
</a>
</g>
</g>
<!-- Node1&#45;&gt;Node9 -->
<g id="edge8" class="edge">
<title>Node1&#45;&gt;Node9</title>
<path fill="none" stroke="midnightblue" d="M1611.26,-89.44C1511.19,-77.33 1324.06,-54.09 1165,-31 1155.7,-29.65 1145.87,-28.15 1136.26,-26.63"/>
<polygon fill="midnightblue" stroke="midnightblue" points="1136.78,-23.17 1126.36,-25.06 1135.69,-30.08 1136.78,-23.17"/>
</g>
<!-- Node10 -->
<g id="node10" class="node">
<title>Node10</title>
<g id="a_node10"><a xlink:title=" ">
<polygon fill="white" stroke="#bfbfbf" points="1174,-6 1174,-25 1358,-25 1358,-6 1174,-6"/>
<text text-anchor="middle" x="1266" y="-13" font-family="Helvetica,sans-Serif" font-size="10.00">boost/asio/detail/noncopyable.hpp</text>
</a>
</g>
</g>
<!-- Node1&#45;&gt;Node10 -->
<g id="edge9" class="edge">
<title>Node1&#45;&gt;Node10</title>
<path fill="none" stroke="midnightblue" d="M1611.32,-83.99C1528.47,-67.8 1394.03,-41.52 1319.7,-26.99"/>
<polygon fill="midnightblue" stroke="midnightblue" points="1320.1,-23.51 1309.62,-25.02 1318.76,-30.38 1320.1,-23.51"/>
</g>
<!-- Node11 -->
<g id="node11" class="node">
<title>Node11</title>
<g id="a_node11"><a xlink:title=" ">
<polygon fill="white" stroke="#bfbfbf" points="1376,-0.5 1376,-30.5 1516,-30.5 1516,-0.5 1376,-0.5"/>
<text text-anchor="start" x="1384" y="-18.5" font-family="Helvetica,sans-Serif" font-size="10.00">boost/asio/detail/reactive</text>
<text text-anchor="middle" x="1446" y="-7.5" font-family="Helvetica,sans-Serif" font-size="10.00">_null_buffers_op.hpp</text>
</a>
</g>
</g>
<!-- Node1&#45;&gt;Node11 -->
<g id="edge10" class="edge">
<title>Node1&#45;&gt;Node11</title>
<path fill="none" stroke="midnightblue" d="M1611.25,-73.33C1574.17,-60.58 1529.83,-45.33 1496.41,-33.84"/>
<polygon fill="midnightblue" stroke="midnightblue" points="1497.45,-30.49 1486.85,-30.55 1495.17,-37.11 1497.45,-30.49"/>
</g>
<!-- Node12 -->
<g id="node12" class="node">
<title>Node12</title>
<g id="a_node12"><a xlink:title=" ">
<polygon fill="white" stroke="#bfbfbf" points="1534,-0.5 1534,-30.5 1674,-30.5 1674,-0.5 1534,-0.5"/>
<text text-anchor="start" x="1542" y="-18.5" font-family="Helvetica,sans-Serif" font-size="10.00">boost/asio/detail/reactive</text>
<text text-anchor="middle" x="1604" y="-7.5" font-family="Helvetica,sans-Serif" font-size="10.00">_socket_accept_op.hpp</text>
</a>
</g>
</g>
<!-- Node1&#45;&gt;Node12 -->
<g id="edge11" class="edge">
<title>Node1&#45;&gt;Node12</title>
<path fill="none" stroke="midnightblue" d="M1653.13,-67.19C1643.67,-57.43 1633.42,-46.85 1624.75,-37.9"/>
<polygon fill="midnightblue" stroke="midnightblue" points="1627.06,-35.26 1617.59,-30.52 1622.03,-40.13 1627.06,-35.26"/>
</g>
<!-- Node13 -->
<g id="node13" class="node">
<title>Node13</title>
<g id="a_node13"><a xlink:title=" ">
<polygon fill="white" stroke="#bfbfbf" points="1692,-0.5 1692,-30.5 1832,-30.5 1832,-0.5 1692,-0.5"/>
<text text-anchor="start" x="1700" y="-18.5" font-family="Helvetica,sans-Serif" font-size="10.00">boost/asio/detail/reactive</text>
<text text-anchor="middle" x="1762" y="-7.5" font-family="Helvetica,sans-Serif" font-size="10.00">_socket_connect_op.hpp</text>
</a>
</g>
</g>
<!-- Node1&#45;&gt;Node13 -->
<g id="edge12" class="edge">
<title>Node1&#45;&gt;Node13</title>
<path fill="none" stroke="midnightblue" d="M1712.87,-67.19C1722.33,-57.43 1732.58,-46.85 1741.25,-37.9"/>
<polygon fill="midnightblue" stroke="midnightblue" points="1743.97,-40.13 1748.41,-30.52 1738.94,-35.26 1743.97,-40.13"/>
</g>
<!-- Node14 -->
<g id="node14" class="node">
<title>Node14</title>
<g id="a_node14"><a xlink:title=" ">
<polygon fill="white" stroke="#bfbfbf" points="1850,-0.5 1850,-30.5 2012,-30.5 2012,-0.5 1850,-0.5"/>
<text text-anchor="start" x="1858" y="-18.5" font-family="Helvetica,sans-Serif" font-size="10.00">boost/asio/detail/reactive</text>
<text text-anchor="middle" x="1931" y="-7.5" font-family="Helvetica,sans-Serif" font-size="10.00">_socket_recvfrom_op_ext.hpp</text>
</a>
</g>
</g>
<!-- Node1&#45;&gt;Node14 -->
<g id="edge13" class="edge">
<title>Node1&#45;&gt;Node14</title>
<path fill="none" stroke="midnightblue" d="M1754.73,-74.43C1794.22,-61.45 1842.37,-45.63 1878.36,-33.8"/>
<polygon fill="midnightblue" stroke="midnightblue" points="1879.76,-37.02 1888.17,-30.58 1877.58,-30.37 1879.76,-37.02"/>
</g>
<!-- Node15 -->
<g id="node15" class="node">
<title>Node15</title>
<g id="a_node15"><a xlink:title=" ">
<polygon fill="white" stroke="#bfbfbf" points="2030,-0.5 2030,-30.5 2170,-30.5 2170,-0.5 2030,-0.5"/>
<text text-anchor="start" x="2038" y="-18.5" font-family="Helvetica,sans-Serif" font-size="10.00">boost/asio/detail/reactive</text>
<text text-anchor="middle" x="2100" y="-7.5" font-family="Helvetica,sans-Serif" font-size="10.00">_socket_sendto_op.hpp</text>
</a>
</g>
</g>
<!-- Node1&#45;&gt;Node15 -->
<g id="edge14" class="edge">
<title>Node1&#45;&gt;Node15</title>
<path fill="none" stroke="midnightblue" d="M1754.68,-83.99C1828.45,-69.57 1943.12,-47.16 2019.85,-32.17"/>
<polygon fill="midnightblue" stroke="midnightblue" points="2020.8,-35.55 2029.94,-30.19 2019.46,-28.68 2020.8,-35.55"/>
</g>
<!-- Node16 -->
<g id="node16" class="node">
<title>Node16</title>
<g id="a_node16"><a xlink:title=" ">
<polygon fill="white" stroke="#bfbfbf" points="2188,-0.5 2188,-30.5 2352,-30.5 2352,-0.5 2188,-0.5"/>
<text text-anchor="start" x="2196" y="-18.5" font-family="Helvetica,sans-Serif" font-size="10.00">boost/asio/detail/reactive</text>
<text text-anchor="middle" x="2270" y="-7.5" font-family="Helvetica,sans-Serif" font-size="10.00">_socket_service_base_ext.hpp</text>
</a>
</g>
</g>
<!-- Node1&#45;&gt;Node16 -->
<g id="edge15" class="edge">
<title>Node1&#45;&gt;Node16</title>
<path fill="none" stroke="midnightblue" d="M1754.53,-88.88C1848.94,-76.72 2020.55,-54.2 2177.37,-31.22"/>
<polygon fill="midnightblue" stroke="midnightblue" points="2178.29,-34.62 2187.67,-29.71 2177.27,-27.7 2178.29,-34.62"/>
</g>
<!-- Node17 -->
<g id="node17" class="node">
<title>Node17</title>
<g id="a_node17"><a xlink:title=" ">
<polygon fill="white" stroke="#bfbfbf" points="2370.5,-6 2370.5,-25 2525.5,-25 2525.5,-6 2370.5,-6"/>
<text text-anchor="middle" x="2448" y="-13" font-family="Helvetica,sans-Serif" font-size="10.00">boost/asio/detail/reactor.hpp</text>
</a>
</g>
</g>
<!-- Node1&#45;&gt;Node17 -->
<g id="edge16" class="edge">
<title>Node1&#45;&gt;Node17</title>
<path fill="none" stroke="midnightblue" d="M1754.93,-92.48C1878.94,-82.6 2140.85,-60.19 2361,-31 2370.46,-29.75 2380.48,-28.24 2390.21,-26.68"/>
<polygon fill="midnightblue" stroke="midnightblue" points="2390.92,-30.12 2400.22,-25.05 2389.79,-23.21 2390.92,-30.12"/>
</g>
<!-- Node18 -->
<g id="node18" class="node">
<title>Node18</title>
<g id="a_node18"><a xlink:title=" ">
<polygon fill="white" stroke="#bfbfbf" points="2543.5,-0.5 2543.5,-30.5 2678.5,-30.5 2678.5,-0.5 2543.5,-0.5"/>
<text text-anchor="start" x="2551.5" y="-18.5" font-family="Helvetica,sans-Serif" font-size="10.00">boost/asio/detail/reactor</text>
<text text-anchor="middle" x="2611" y="-7.5" font-family="Helvetica,sans-Serif" font-size="10.00">_op.hpp</text>
</a>
</g>
</g>
<!-- Node1&#45;&gt;Node18 -->
<g id="edge17" class="edge">
<title>Node1&#45;&gt;Node18</title>
<path fill="none" stroke="midnightblue" d="M1754.53,-95.04C1899.7,-88.45 2239.4,-70.08 2533.12,-31.17"/>
<polygon fill="midnightblue" stroke="midnightblue" points="2533.66,-34.63 2543.11,-29.84 2532.73,-27.69 2533.66,-34.63"/>
</g>
<!-- Node19 -->
<g id="node19" class="node">
<title>Node19</title>
<g id="a_node19"><a xlink:title=" ">
<polygon fill="white" stroke="#bfbfbf" points="2697,-0.5 2697,-30.5 2829,-30.5 2829,-0.5 2697,-0.5"/>
<text text-anchor="start" x="2705" y="-18.5" font-family="Helvetica,sans-Serif" font-size="10.00">boost/asio/detail/socket</text>
<text text-anchor="middle" x="2763" y="-7.5" font-family="Helvetica,sans-Serif" font-size="10.00">_holder.hpp</text>
</a>
</g>
</g>
<!-- Node1&#45;&gt;Node19 -->
<g id="edge18" class="edge">
<title>Node1&#45;&gt;Node19</title>
<path fill="none" stroke="midnightblue" d="M1754.58,-96.28C1918.19,-91.7 2332.09,-76.37 2686.87,-31.04"/>
<polygon fill="midnightblue" stroke="midnightblue" points="2687.35,-34.51 2696.82,-29.76 2686.45,-27.56 2687.35,-34.51"/>
</g>
<!-- Node20 -->
<g id="node20" class="node">
<title>Node20</title>
<g id="a_node20"><a xlink:title=" ">
<polygon fill="white" stroke="#bfbfbf" points="2847,-0.5 2847,-30.5 2979,-30.5 2979,-0.5 2847,-0.5"/>
<text text-anchor="start" x="2855" y="-18.5" font-family="Helvetica,sans-Serif" font-size="10.00">boost/asio/detail/socket</text>
<text text-anchor="middle" x="2913" y="-7.5" font-family="Helvetica,sans-Serif" font-size="10.00">_ops.hpp</text>
</a>
</g>
</g>
<!-- Node1&#45;&gt;Node20 -->
<g id="edge19" class="edge">
<title>Node1&#45;&gt;Node20</title>
<path fill="none" stroke="midnightblue" d="M1754.6,-97.15C1934.91,-94.31 2422.24,-82.22 2836.74,-31.04"/>
<polygon fill="midnightblue" stroke="midnightblue" points="2837.33,-34.5 2846.82,-29.79 2836.47,-27.55 2837.33,-34.5"/>
</g>
<!-- Node21 -->
<g id="node21" class="node">
<title>Node21</title>
<g id="a_node21"><a xlink:title=" ">
<polygon fill="white" stroke="#bfbfbf" points="2997,-0.5 2997,-30.5 3129,-30.5 3129,-0.5 2997,-0.5"/>
<text text-anchor="start" x="3005" y="-18.5" font-family="Helvetica,sans-Serif" font-size="10.00">boost/asio/detail/socket</text>
<text text-anchor="middle" x="3063" y="-7.5" font-family="Helvetica,sans-Serif" font-size="10.00">_types.hpp</text>
</a>
</g>
</g>
<!-- Node1&#45;&gt;Node21 -->
<g id="edge20" class="edge">
<title>Node1&#45;&gt;Node21</title>
<path fill="none" stroke="midnightblue" d="M1754.74,-97.83C1950.81,-96.6 2512.13,-88.07 2986.69,-31.04"/>
<polygon fill="midnightblue" stroke="midnightblue" points="2987.32,-34.49 2996.83,-29.81 2986.48,-27.54 2987.32,-34.49"/>
</g>
<!-- Node22 -->
<g id="node22" class="node">
<title>Node22</title>
<g id="a_node22"><a xlink:title=" ">
<polygon fill="white" stroke="#bfbfbf" points="3147,-0.5 3147,-30.5 3271,-30.5 3271,-0.5 3147,-0.5"/>
<text text-anchor="start" x="3155" y="-18.5" font-family="Helvetica,sans-Serif" font-size="10.00">boost/asio/detail/push</text>
<text text-anchor="middle" x="3209" y="-7.5" font-family="Helvetica,sans-Serif" font-size="10.00">_options.hpp</text>
</a>
</g>
</g>
<!-- Node1&#45;&gt;Node22 -->
<g id="edge21" class="edge">
<title>Node1&#45;&gt;Node22</title>
<path fill="none" stroke="midnightblue" d="M1754.87,-98.63C1965.89,-99.64 2601.94,-96.69 3136.52,-31.05"/>
<polygon fill="midnightblue" stroke="midnightblue" points="3137.26,-34.48 3146.75,-29.78 3136.4,-27.54 3137.26,-34.48"/>
</g>
<!-- Node23 -->
<g id="node23" class="node">
<title>Node23</title>
<g id="a_node23"><a xlink:title=" ">
<polygon fill="white" stroke="#bfbfbf" points="3289.5,-0.5 3289.5,-30.5 3408.5,-30.5 3408.5,-0.5 3289.5,-0.5"/>
<text text-anchor="start" x="3297.5" y="-18.5" font-family="Helvetica,sans-Serif" font-size="10.00">boost/asio/detail/pop</text>
<text text-anchor="middle" x="3349" y="-7.5" font-family="Helvetica,sans-Serif" font-size="10.00">_options.hpp</text>
</a>
</g>
</g>
<!-- Node1&#45;&gt;Node23 -->
<g id="edge22" class="edge">
<title>Node1&#45;&gt;Node23</title>
<path fill="none" stroke="midnightblue" d="M1754.54,-96.57C2021.22,-91 2958.06,-69.22 3279.03,-30.94"/>
<polygon fill="midnightblue" stroke="midnightblue" points="3279.76,-34.37 3289.26,-29.68 3278.91,-27.42 3279.76,-34.37"/>
</g>
</g>
</svg>
