<?xml version="1.0" encoding="UTF-8" standalone="no"?>
<!DOCTYPE svg PUBLIC "-//W3C//DTD SVG 1.1//EN"
 "http://www.w3.org/Graphics/SVG/1.1/DTD/svg11.dtd">
<!-- Generated by graphviz version 2.43.0 (0)
 -->
<!-- Title: /home/kali/projects/vsomeip/implementation/helper/1.66/boost/asio/basic_socket_ext.hpp Pages: 1 -->
<svg width="1769pt" height="128pt"
 viewBox="0.00 0.00 1769.00 128.00" xmlns="http://www.w3.org/2000/svg" xmlns:xlink="http://www.w3.org/1999/xlink">
<g id="graph0" class="graph" transform="scale(1 1) rotate(0) translate(4 124)">
<title>/home/kali/projects/vsomeip/implementation/helper/1.66/boost/asio/basic_socket_ext.hpp</title>
<polygon fill="white" stroke="transparent" points="-4,4 -4,-124 1765,-124 1765,4 -4,4"/>
<!-- Node1 -->
<g id="node1" class="node">
<title>Node1</title>
<g id="a_node1"><a xlink:title=" ">
<polygon fill="#bfbfbf" stroke="black" points="827,-67.5 827,-119.5 970,-119.5 970,-67.5 827,-67.5"/>
<text text-anchor="start" x="835" y="-107.5" font-family="Helvetica,sans-Serif" font-size="10.00">/home/kali/projects</text>
<text text-anchor="start" x="835" y="-96.5" font-family="Helvetica,sans-Serif" font-size="10.00">/vsomeip/implementation</text>
<text text-anchor="start" x="835" y="-85.5" font-family="Helvetica,sans-Serif" font-size="10.00">/helper/1.66/boost/asio</text>
<text text-anchor="middle" x="898.5" y="-74.5" font-family="Helvetica,sans-Serif" font-size="10.00">/basic_socket_ext.hpp</text>
</a>
</g>
</g>
<!-- Node2 -->
<g id="node2" class="node">
<title>Node2</title>
<g id="a_node2"><a xlink:title=" ">
<polygon fill="white" stroke="#bfbfbf" points="0,-6 0,-25 151,-25 151,-6 0,-6"/>
<text text-anchor="middle" x="75.5" y="-13" font-family="Helvetica,sans-Serif" font-size="10.00">boost/asio/detail/config.hpp</text>
</a>
</g>
</g>
<!-- Node1&#45;&gt;Node2 -->
<g id="edge1" class="edge">
<title>Node1&#45;&gt;Node2</title>
<path fill="none" stroke="midnightblue" d="M826.79,-88.57C694.64,-80.89 403.96,-61.85 160.5,-31 151.02,-29.8 140.98,-28.3 131.26,-26.71"/>
<polygon fill="midnightblue" stroke="midnightblue" points="131.71,-23.24 121.27,-25.05 130.56,-30.15 131.71,-23.24"/>
</g>
<!-- Node3 -->
<g id="node3" class="node">
<title>Node3</title>
<g id="a_node3"><a xlink:title=" ">
<polygon fill="white" stroke="#bfbfbf" points="169.5,-6 169.5,-25 321.5,-25 321.5,-6 169.5,-6"/>
<text text-anchor="middle" x="245.5" y="-13" font-family="Helvetica,sans-Serif" font-size="10.00">boost/asio/async_result.hpp</text>
</a>
</g>
</g>
<!-- Node1&#45;&gt;Node3 -->
<g id="edge2" class="edge">
<title>Node1&#45;&gt;Node3</title>
<path fill="none" stroke="midnightblue" d="M826.6,-86.13C718.63,-76.26 508.31,-55.77 330.5,-31 321.46,-29.74 311.91,-28.26 302.6,-26.73"/>
<polygon fill="midnightblue" stroke="midnightblue" points="303.07,-23.26 292.63,-25.07 301.92,-30.17 303.07,-23.26"/>
</g>
<!-- Node4 -->
<g id="node4" class="node">
<title>Node4</title>
<g id="a_node4"><a xlink:title=" ">
<polygon fill="white" stroke="#bfbfbf" points="339.5,-0.5 339.5,-30.5 449.5,-30.5 449.5,-0.5 339.5,-0.5"/>
<text text-anchor="start" x="347.5" y="-18.5" font-family="Helvetica,sans-Serif" font-size="10.00">boost/asio/basic_io</text>
<text text-anchor="middle" x="394.5" y="-7.5" font-family="Helvetica,sans-Serif" font-size="10.00">_object.hpp</text>
</a>
</g>
</g>
<!-- Node1&#45;&gt;Node4 -->
<g id="edge3" class="edge">
<title>Node1&#45;&gt;Node4</title>
<path fill="none" stroke="midnightblue" d="M826.95,-84.37C741.77,-74.27 595.06,-55.56 459.73,-31.14"/>
<polygon fill="midnightblue" stroke="midnightblue" points="460.06,-27.64 449.6,-29.29 458.81,-34.53 460.06,-27.64"/>
</g>
<!-- Node5 -->
<g id="node5" class="node">
<title>Node5</title>
<g id="a_node5"><a xlink:title=" ">
<polygon fill="white" stroke="#bfbfbf" points="468,-0.5 468,-30.5 605,-30.5 605,-0.5 468,-0.5"/>
<text text-anchor="start" x="476" y="-18.5" font-family="Helvetica,sans-Serif" font-size="10.00">boost/asio/detail/handler</text>
<text text-anchor="middle" x="536.5" y="-7.5" font-family="Helvetica,sans-Serif" font-size="10.00">_type_requirements.hpp</text>
</a>
</g>
</g>
<!-- Node1&#45;&gt;Node5 -->
<g id="edge4" class="edge">
<title>Node1&#45;&gt;Node5</title>
<path fill="none" stroke="midnightblue" d="M826.98,-77.48C765.27,-64.53 676.37,-45.87 613.2,-32.6"/>
<polygon fill="midnightblue" stroke="midnightblue" points="613.8,-29.15 603.29,-30.52 612.36,-36 613.8,-29.15"/>
</g>
<!-- Node6 -->
<g id="node6" class="node">
<title>Node6</title>
<g id="a_node6"><a xlink:title=" ">
<polygon fill="white" stroke="#bfbfbf" points="623.5,-0.5 623.5,-30.5 751.5,-30.5 751.5,-0.5 623.5,-0.5"/>
<text text-anchor="start" x="631.5" y="-18.5" font-family="Helvetica,sans-Serif" font-size="10.00">boost/asio/detail/throw</text>
<text text-anchor="middle" x="687.5" y="-7.5" font-family="Helvetica,sans-Serif" font-size="10.00">_error.hpp</text>
</a>
</g>
</g>
<!-- Node1&#45;&gt;Node6 -->
<g id="edge5" class="edge">
<title>Node1&#45;&gt;Node6</title>
<path fill="none" stroke="midnightblue" d="M828.83,-67.4C798.57,-56.51 763.85,-44 736.4,-34.11"/>
<polygon fill="midnightblue" stroke="midnightblue" points="737.23,-30.69 726.64,-30.6 734.86,-37.28 737.23,-30.69"/>
</g>
<!-- Node7 -->
<g id="node7" class="node">
<title>Node7</title>
<g id="a_node7"><a xlink:title=" ">
<polygon fill="white" stroke="#bfbfbf" points="769.5,-0.5 769.5,-30.5 891.5,-30.5 891.5,-0.5 769.5,-0.5"/>
<text text-anchor="start" x="777.5" y="-18.5" font-family="Helvetica,sans-Serif" font-size="10.00">boost/asio/detail/type</text>
<text text-anchor="middle" x="830.5" y="-7.5" font-family="Helvetica,sans-Serif" font-size="10.00">_traits.hpp</text>
</a>
</g>
</g>
<!-- Node1&#45;&gt;Node7 -->
<g id="edge6" class="edge">
<title>Node1&#45;&gt;Node7</title>
<path fill="none" stroke="midnightblue" d="M875.86,-67.19C867.49,-57.84 858.09,-47.33 850.02,-38.32"/>
<polygon fill="midnightblue" stroke="midnightblue" points="852.61,-35.96 843.34,-30.85 847.39,-40.63 852.61,-35.96"/>
</g>
<!-- Node8 -->
<g id="node8" class="node">
<title>Node8</title>
<g id="a_node8"><a xlink:title=" ">
<polygon fill="white" stroke="#bfbfbf" points="910,-6 910,-25 1023,-25 1023,-6 910,-6"/>
<text text-anchor="middle" x="966.5" y="-13" font-family="Helvetica,sans-Serif" font-size="10.00">boost/asio/error.hpp</text>
</a>
</g>
</g>
<!-- Node1&#45;&gt;Node8 -->
<g id="edge7" class="edge">
<title>Node1&#45;&gt;Node8</title>
<path fill="none" stroke="midnightblue" d="M921.14,-67.19C931.28,-55.86 942.95,-42.82 951.91,-32.81"/>
<polygon fill="midnightblue" stroke="midnightblue" points="954.65,-35 958.71,-25.21 949.43,-30.33 954.65,-35"/>
</g>
<!-- Node9 -->
<g id="node9" class="node">
<title>Node9</title>
<g id="a_node9"><a xlink:title=" ">
<polygon fill="white" stroke="#bfbfbf" points="1041.5,-6 1041.5,-25 1153.5,-25 1153.5,-6 1041.5,-6"/>
<text text-anchor="middle" x="1097.5" y="-13" font-family="Helvetica,sans-Serif" font-size="10.00">boost/asio/post.hpp</text>
</a>
</g>
</g>
<!-- Node1&#45;&gt;Node9 -->
<g id="edge8" class="edge">
<title>Node1&#45;&gt;Node9</title>
<path fill="none" stroke="midnightblue" d="M964.21,-67.4C998.29,-54.39 1038.37,-39.08 1065.62,-28.68"/>
<polygon fill="midnightblue" stroke="midnightblue" points="1066.95,-31.92 1075.04,-25.08 1064.45,-25.38 1066.95,-31.92"/>
</g>
<!-- Node10 -->
<g id="node10" class="node">
<title>Node10</title>
<g id="a_node10"><a xlink:title=" ">
<polygon fill="white" stroke="#bfbfbf" points="1172,-6 1172,-25 1323,-25 1323,-6 1172,-6"/>
<text text-anchor="middle" x="1247.5" y="-13" font-family="Helvetica,sans-Serif" font-size="10.00">boost/asio/socket_base.hpp</text>
</a>
</g>
</g>
<!-- Node1&#45;&gt;Node10 -->
<g id="edge9" class="edge">
<title>Node1&#45;&gt;Node10</title>
<path fill="none" stroke="midnightblue" d="M970.39,-76.84C1038.48,-62.02 1138.91,-40.15 1198.32,-27.21"/>
<polygon fill="midnightblue" stroke="midnightblue" points="1199.18,-30.6 1208.21,-25.06 1197.69,-23.77 1199.18,-30.6"/>
</g>
<!-- Node11 -->
<g id="node11" class="node">
<title>Node11</title>
<g id="a_node11"><a xlink:title=" ">
<polygon fill="white" stroke="#bfbfbf" points="1341.5,-0.5 1341.5,-30.5 1481.5,-30.5 1481.5,-0.5 1341.5,-0.5"/>
<text text-anchor="start" x="1349.5" y="-18.5" font-family="Helvetica,sans-Serif" font-size="10.00">boost/asio/detail/reactive</text>
<text text-anchor="middle" x="1411.5" y="-7.5" font-family="Helvetica,sans-Serif" font-size="10.00">_socket_service_ext.hpp</text>
</a>
</g>
</g>
<!-- Node1&#45;&gt;Node11 -->
<g id="edge10" class="edge">
<title>Node1&#45;&gt;Node11</title>
<path fill="none" stroke="midnightblue" d="M970.06,-83.27C1054.1,-72.22 1197.94,-52.68 1331.32,-31.16"/>
<polygon fill="midnightblue" stroke="midnightblue" points="1332,-34.59 1341.31,-29.54 1330.88,-27.68 1332,-34.59"/>
</g>
<!-- Node12 -->
<g id="node12" class="node">
<title>Node12</title>
<g id="a_node12"><a xlink:title=" ">
<polygon fill="white" stroke="#bfbfbf" points="1499.5,-0.5 1499.5,-30.5 1623.5,-30.5 1623.5,-0.5 1499.5,-0.5"/>
<text text-anchor="start" x="1507.5" y="-18.5" font-family="Helvetica,sans-Serif" font-size="10.00">boost/asio/detail/push</text>
<text text-anchor="middle" x="1561.5" y="-7.5" font-family="Helvetica,sans-Serif" font-size="10.00">_options.hpp</text>
</a>
</g>
</g>
<!-- Node1&#45;&gt;Node12 -->
<g id="edge11" class="edge">
<title>Node1&#45;&gt;Node12</title>
<path fill="none" stroke="midnightblue" d="M970.32,-87.32C1080.09,-78.9 1296.3,-60.33 1489.18,-31.11"/>
<polygon fill="midnightblue" stroke="midnightblue" points="1489.87,-34.55 1499.22,-29.58 1488.81,-27.63 1489.87,-34.55"/>
</g>
<!-- Node13 -->
<g id="node13" class="node">
<title>Node13</title>
<g id="a_node13"><a xlink:title=" ">
<polygon fill="white" stroke="#bfbfbf" points="1642,-0.5 1642,-30.5 1761,-30.5 1761,-0.5 1642,-0.5"/>
<text text-anchor="start" x="1650" y="-18.5" font-family="Helvetica,sans-Serif" font-size="10.00">boost/asio/detail/pop</text>
<text text-anchor="middle" x="1701.5" y="-7.5" font-family="Helvetica,sans-Serif" font-size="10.00">_options.hpp</text>
</a>
</g>
</g>
<!-- Node1&#45;&gt;Node13 -->
<g id="edge12" class="edge">
<title>Node1&#45;&gt;Node13</title>
<path fill="none" stroke="midnightblue" d="M970.21,-89.44C1100.21,-83.24 1383.55,-66.77 1631.81,-30.97"/>
<polygon fill="midnightblue" stroke="midnightblue" points="1632.35,-34.43 1641.74,-29.53 1631.34,-27.51 1632.35,-34.43"/>
</g>
</g>
</svg>
