<?xml version="1.0" encoding="UTF-8" standalone="no"?>
<!DOCTYPE svg PUBLIC "-//W3C//DTD SVG 1.1//EN"
 "http://www.w3.org/Graphics/SVG/1.1/DTD/svg11.dtd">
<!-- Generated by graphviz version 2.43.0 (0)
 -->
<!-- Title: /home/kali/projects/vsomeip/implementation/helper/1.66/boost/asio/basic_socket_acceptor_ext.hpp Pages: 1 -->
<svg width="1642pt" height="139pt"
 viewBox="0.00 0.00 1642.00 139.00" xmlns="http://www.w3.org/2000/svg" xmlns:xlink="http://www.w3.org/1999/xlink">
<g id="graph0" class="graph" transform="scale(1 1) rotate(0) translate(4 135)">
<title>/home/kali/projects/vsomeip/implementation/helper/1.66/boost/asio/basic_socket_acceptor_ext.hpp</title>
<polygon fill="white" stroke="transparent" points="-4,4 -4,-135 1638,-135 1638,4 -4,4"/>
<!-- Node1 -->
<g id="node1" class="node">
<title>Node1</title>
<g id="a_node1"><a xlink:title=" ">
<polygon fill="#bfbfbf" stroke="black" points="725,-78.5 725,-130.5 896,-130.5 896,-78.5 725,-78.5"/>
<text text-anchor="start" x="733" y="-118.5" font-family="Helvetica,sans-Serif" font-size="10.00">/home/kali/projects</text>
<text text-anchor="start" x="733" y="-107.5" font-family="Helvetica,sans-Serif" font-size="10.00">/vsomeip/implementation</text>
<text text-anchor="start" x="733" y="-96.5" font-family="Helvetica,sans-Serif" font-size="10.00">/helper/1.66/boost/asio</text>
<text text-anchor="middle" x="810.5" y="-85.5" font-family="Helvetica,sans-Serif" font-size="10.00">/basic_socket_acceptor_ext.hpp</text>
</a>
</g>
</g>
<!-- Node2 -->
<g id="node2" class="node">
<title>Node2</title>
<g id="a_node2"><a xlink:title=" ">
<polygon fill="white" stroke="#bfbfbf" points="0,-11.5 0,-30.5 151,-30.5 151,-11.5 0,-11.5"/>
<text text-anchor="middle" x="75.5" y="-18.5" font-family="Helvetica,sans-Serif" font-size="10.00">boost/asio/detail/config.hpp</text>
</a>
</g>
</g>
<!-- Node1&#45;&gt;Node2 -->
<g id="edge1" class="edge">
<title>Node1&#45;&gt;Node2</title>
<path fill="none" stroke="midnightblue" d="M724.85,-99.14C600.06,-91.94 361.28,-74.96 160.5,-42 146.31,-39.67 130.97,-36.32 117.28,-33.03"/>
<polygon fill="midnightblue" stroke="midnightblue" points="117.73,-29.54 107.18,-30.54 116.05,-36.33 117.73,-29.54"/>
</g>
<!-- Node3 -->
<g id="node3" class="node">
<title>Node3</title>
<g id="a_node3"><a xlink:title=" ">
<polygon fill="white" stroke="#bfbfbf" points="169.5,-6 169.5,-36 279.5,-36 279.5,-6 169.5,-6"/>
<text text-anchor="start" x="177.5" y="-24" font-family="Helvetica,sans-Serif" font-size="10.00">boost/asio/basic_io</text>
<text text-anchor="middle" x="224.5" y="-13" font-family="Helvetica,sans-Serif" font-size="10.00">_object.hpp</text>
</a>
</g>
</g>
<!-- Node1&#45;&gt;Node3 -->
<g id="edge2" class="edge">
<title>Node1&#45;&gt;Node3</title>
<path fill="none" stroke="midnightblue" d="M724.72,-98.29C620.63,-90.86 440.22,-74.35 288.5,-42 284.16,-41.07 279.68,-39.98 275.22,-38.79"/>
<polygon fill="midnightblue" stroke="midnightblue" points="276.09,-35.4 265.51,-36.05 274.19,-42.13 276.09,-35.4"/>
</g>
<!-- Node4 -->
<g id="node4" class="node">
<title>Node4</title>
<g id="a_node4"><a xlink:title=" ">
<polygon fill="white" stroke="#bfbfbf" points="297.5,-6 297.5,-36 429.5,-36 429.5,-6 297.5,-6"/>
<text text-anchor="start" x="305.5" y="-24" font-family="Helvetica,sans-Serif" font-size="10.00">boost/asio/basic_socket</text>
<text text-anchor="middle" x="363.5" y="-13" font-family="Helvetica,sans-Serif" font-size="10.00">_ext_local.hpp</text>
</a>
</g>
</g>
<!-- Node1&#45;&gt;Node4 -->
<g id="edge3" class="edge">
<title>Node1&#45;&gt;Node4</title>
<path fill="none" stroke="midnightblue" d="M724.73,-91.73C649.05,-80.77 535.93,-62.99 438.5,-42 433.52,-40.93 428.38,-39.74 423.23,-38.48"/>
<polygon fill="midnightblue" stroke="midnightblue" points="423.91,-35.05 413.36,-36.02 422.21,-41.84 423.91,-35.05"/>
</g>
<!-- Node5 -->
<g id="node5" class="node">
<title>Node5</title>
<g id="a_node5"><a xlink:title=" ">
<polygon fill="white" stroke="#bfbfbf" points="448,-0.5 448,-41.5 585,-41.5 585,-0.5 448,-0.5"/>
<text text-anchor="start" x="456" y="-29.5" font-family="Helvetica,sans-Serif" font-size="10.00">boost/asio/detail/handler</text>
<text text-anchor="start" x="456" y="-18.5" font-family="Helvetica,sans-Serif" font-size="10.00">_type_requirements_ext</text>
<text text-anchor="middle" x="516.5" y="-7.5" font-family="Helvetica,sans-Serif" font-size="10.00">_local.hpp</text>
</a>
</g>
</g>
<!-- Node1&#45;&gt;Node5 -->
<g id="edge4" class="edge">
<title>Node1&#45;&gt;Node5</title>
<path fill="none" stroke="midnightblue" d="M724.67,-79.71C683.65,-68.34 634.89,-54.82 594.88,-43.73"/>
<polygon fill="midnightblue" stroke="midnightblue" points="595.74,-40.33 585.17,-41.03 593.87,-47.08 595.74,-40.33"/>
</g>
<!-- Node6 -->
<g id="node6" class="node">
<title>Node6</title>
<g id="a_node6"><a xlink:title=" ">
<polygon fill="white" stroke="#bfbfbf" points="603.5,-6 603.5,-36 731.5,-36 731.5,-6 603.5,-6"/>
<text text-anchor="start" x="611.5" y="-24" font-family="Helvetica,sans-Serif" font-size="10.00">boost/asio/detail/throw</text>
<text text-anchor="middle" x="667.5" y="-13" font-family="Helvetica,sans-Serif" font-size="10.00">_error.hpp</text>
</a>
</g>
</g>
<!-- Node1&#45;&gt;Node6 -->
<g id="edge5" class="edge">
<title>Node1&#45;&gt;Node6</title>
<path fill="none" stroke="midnightblue" d="M766.43,-78.38C745.32,-66.35 720.44,-52.17 700.92,-41.05"/>
<polygon fill="midnightblue" stroke="midnightblue" points="702.5,-37.92 692.08,-36.01 699.04,-44 702.5,-37.92"/>
</g>
<!-- Node7 -->
<g id="node7" class="node">
<title>Node7</title>
<g id="a_node7"><a xlink:title=" ">
<polygon fill="white" stroke="#bfbfbf" points="749.5,-6 749.5,-36 871.5,-36 871.5,-6 749.5,-6"/>
<text text-anchor="start" x="757.5" y="-24" font-family="Helvetica,sans-Serif" font-size="10.00">boost/asio/detail/type</text>
<text text-anchor="middle" x="810.5" y="-13" font-family="Helvetica,sans-Serif" font-size="10.00">_traits.hpp</text>
</a>
</g>
</g>
<!-- Node1&#45;&gt;Node7 -->
<g id="edge6" class="edge">
<title>Node1&#45;&gt;Node7</title>
<path fill="none" stroke="midnightblue" d="M810.5,-78.16C810.5,-68 810.5,-56.35 810.5,-46.3"/>
<polygon fill="midnightblue" stroke="midnightblue" points="814,-46.17 810.5,-36.17 807,-46.17 814,-46.17"/>
</g>
<!-- Node8 -->
<g id="node8" class="node">
<title>Node8</title>
<g id="a_node8"><a xlink:title=" ">
<polygon fill="white" stroke="#bfbfbf" points="890,-11.5 890,-30.5 1003,-30.5 1003,-11.5 890,-11.5"/>
<text text-anchor="middle" x="946.5" y="-18.5" font-family="Helvetica,sans-Serif" font-size="10.00">boost/asio/error.hpp</text>
</a>
</g>
</g>
<!-- Node1&#45;&gt;Node8 -->
<g id="edge7" class="edge">
<title>Node1&#45;&gt;Node8</title>
<path fill="none" stroke="midnightblue" d="M852.41,-78.38C875.76,-64.39 903.93,-47.51 923.33,-35.89"/>
<polygon fill="midnightblue" stroke="midnightblue" points="925.31,-38.78 932.08,-30.64 921.71,-32.78 925.31,-38.78"/>
</g>
<!-- Node9 -->
<g id="node9" class="node">
<title>Node9</title>
<g id="a_node9"><a xlink:title=" ">
<polygon fill="white" stroke="#bfbfbf" points="1021,-11.5 1021,-30.5 1172,-30.5 1172,-11.5 1021,-11.5"/>
<text text-anchor="middle" x="1096.5" y="-18.5" font-family="Helvetica,sans-Serif" font-size="10.00">boost/asio/socket_base.hpp</text>
</a>
</g>
</g>
<!-- Node1&#45;&gt;Node9 -->
<g id="edge8" class="edge">
<title>Node1&#45;&gt;Node9</title>
<path fill="none" stroke="midnightblue" d="M896.31,-79.05C949.51,-63.89 1015.36,-45.12 1056.66,-33.35"/>
<polygon fill="midnightblue" stroke="midnightblue" points="1057.7,-36.7 1066.35,-30.59 1055.78,-29.97 1057.7,-36.7"/>
</g>
<!-- Node10 -->
<g id="node10" class="node">
<title>Node10</title>
<g id="a_node10"><a xlink:title=" ">
<polygon fill="white" stroke="#bfbfbf" points="1190.5,-6 1190.5,-36 1354.5,-36 1354.5,-6 1190.5,-6"/>
<text text-anchor="start" x="1198.5" y="-24" font-family="Helvetica,sans-Serif" font-size="10.00">boost/asio/detail/reactive</text>
<text text-anchor="middle" x="1272.5" y="-13" font-family="Helvetica,sans-Serif" font-size="10.00">_socket_service_ext_local.hpp</text>
</a>
</g>
</g>
<!-- Node1&#45;&gt;Node10 -->
<g id="edge9" class="edge">
<title>Node1&#45;&gt;Node10</title>
<path fill="none" stroke="midnightblue" d="M896.19,-90.59C971.53,-78.93 1084.05,-60.77 1181.5,-42 1187.65,-40.82 1194.02,-39.53 1200.41,-38.21"/>
<polygon fill="midnightblue" stroke="midnightblue" points="1201.36,-41.58 1210.42,-36.1 1199.91,-34.73 1201.36,-41.58"/>
</g>
<!-- Node11 -->
<g id="node11" class="node">
<title>Node11</title>
<g id="a_node11"><a xlink:title=" ">
<polygon fill="white" stroke="#bfbfbf" points="1372.5,-6 1372.5,-36 1496.5,-36 1496.5,-6 1372.5,-6"/>
<text text-anchor="start" x="1380.5" y="-24" font-family="Helvetica,sans-Serif" font-size="10.00">boost/asio/detail/push</text>
<text text-anchor="middle" x="1434.5" y="-13" font-family="Helvetica,sans-Serif" font-size="10.00">_options.hpp</text>
</a>
</g>
</g>
<!-- Node1&#45;&gt;Node11 -->
<g id="edge10" class="edge">
<title>Node1&#45;&gt;Node11</title>
<path fill="none" stroke="midnightblue" d="M896.42,-98.32C1005.72,-90.74 1199.95,-73.91 1363.5,-42 1368.56,-41.01 1373.77,-39.84 1378.98,-38.57"/>
<polygon fill="midnightblue" stroke="midnightblue" points="1380.11,-41.9 1388.93,-36.02 1378.38,-35.11 1380.11,-41.9"/>
</g>
<!-- Node12 -->
<g id="node12" class="node">
<title>Node12</title>
<g id="a_node12"><a xlink:title=" ">
<polygon fill="white" stroke="#bfbfbf" points="1515,-6 1515,-36 1634,-36 1634,-6 1515,-6"/>
<text text-anchor="start" x="1523" y="-24" font-family="Helvetica,sans-Serif" font-size="10.00">boost/asio/detail/pop</text>
<text text-anchor="middle" x="1574.5" y="-13" font-family="Helvetica,sans-Serif" font-size="10.00">_options.hpp</text>
</a>
</g>
</g>
<!-- Node1&#45;&gt;Node12 -->
<g id="edge11" class="edge">
<title>Node1&#45;&gt;Node12</title>
<path fill="none" stroke="midnightblue" d="M896.01,-101.26C1027.88,-96.61 1288.36,-82.68 1505.5,-42 1510.51,-41.06 1515.67,-39.92 1520.81,-38.65"/>
<polygon fill="midnightblue" stroke="midnightblue" points="1521.84,-42 1530.64,-36.09 1520.08,-35.22 1521.84,-42"/>
</g>
</g>
</svg>
