<?xml version="1.0" encoding="UTF-8" standalone="no"?>
<!DOCTYPE svg PUBLIC "-//W3C//DTD SVG 1.1//EN"
 "http://www.w3.org/Graphics/SVG/1.1/DTD/svg11.dtd">
<!-- Generated by graphviz version 2.43.0 (0)
 -->
<!-- Title: /home/kali/projects/vsomeip/implementation/helper/1.74/boost/asio/detail/reactive_socket_service_base_ext.hpp Pages: 1 -->
<svg width="2926pt" height="139pt"
 viewBox="0.00 0.00 2926.00 139.00" xmlns="http://www.w3.org/2000/svg" xmlns:xlink="http://www.w3.org/1999/xlink">
<g id="graph0" class="graph" transform="scale(1 1) rotate(0) translate(4 135)">
<title>/home/kali/projects/vsomeip/implementation/helper/1.74/boost/asio/detail/reactive_socket_service_base_ext.hpp</title>
<polygon fill="white" stroke="transparent" points="-4,4 -4,-135 2922,-135 2922,4 -4,4"/>
<!-- Node1 -->
<g id="node1" class="node">
<title>Node1</title>
<g id="a_node1"><a xlink:title=" ">
<polygon fill="#bfbfbf" stroke="black" points="1394,-67.5 1394,-130.5 1537,-130.5 1537,-67.5 1394,-67.5"/>
<text text-anchor="start" x="1402" y="-118.5" font-family="Helvetica,sans-Serif" font-size="10.00">/home/kali/projects</text>
<text text-anchor="start" x="1402" y="-107.5" font-family="Helvetica,sans-Serif" font-size="10.00">/vsomeip/implementation</text>
<text text-anchor="start" x="1402" y="-96.5" font-family="Helvetica,sans-Serif" font-size="10.00">/helper/1.74/boost/asio</text>
<text text-anchor="start" x="1402" y="-85.5" font-family="Helvetica,sans-Serif" font-size="10.00">/detail/reactive_socket</text>
<text text-anchor="middle" x="1465.5" y="-74.5" font-family="Helvetica,sans-Serif" font-size="10.00">_service_base_ext.hpp</text>
</a>
</g>
</g>
<!-- Node2 -->
<g id="node2" class="node">
<title>Node2</title>
<g id="a_node2"><a xlink:title=" ">
<polygon fill="white" stroke="#bfbfbf" points="0,-6 0,-25 151,-25 151,-6 0,-6"/>
<text text-anchor="middle" x="75.5" y="-13" font-family="Helvetica,sans-Serif" font-size="10.00">boost/asio/detail/config.hpp</text>
</a>
</g>
</g>
<!-- Node1&#45;&gt;Node2 -->
<g id="edge1" class="edge">
<title>Node1&#45;&gt;Node2</title>
<path fill="none" stroke="midnightblue" d="M1393.76,-97.33C1196.29,-94.84 628.26,-83.29 159.5,-31 149.57,-29.89 139.04,-28.36 128.91,-26.71"/>
<polygon fill="midnightblue" stroke="midnightblue" points="129.4,-23.24 118.96,-25.02 128.23,-30.14 129.4,-23.24"/>
</g>
<!-- Node3 -->
<g id="node3" class="node">
<title>Node3</title>
<g id="a_node3"><a xlink:title=" ">
<polygon fill="white" stroke="#bfbfbf" points="169,-6 169,-25 288,-25 288,-6 169,-6"/>
<text text-anchor="middle" x="228.5" y="-13" font-family="Helvetica,sans-Serif" font-size="10.00">boost/asio/buffer.hpp</text>
</a>
</g>
</g>
<!-- Node1&#45;&gt;Node3 -->
<g id="edge2" class="edge">
<title>Node1&#45;&gt;Node3</title>
<path fill="none" stroke="midnightblue" d="M1393.97,-97.69C1210.68,-96.09 709.52,-86.54 296.5,-31 289.01,-29.99 281.12,-28.61 273.48,-27.1"/>
<polygon fill="midnightblue" stroke="midnightblue" points="274.12,-23.66 263.61,-25.06 272.7,-30.51 274.12,-23.66"/>
</g>
<!-- Node4 -->
<g id="node4" class="node">
<title>Node4</title>
<g id="a_node4"><a xlink:title=" ">
<polygon fill="white" stroke="#bfbfbf" points="306,-6 306,-25 419,-25 419,-6 306,-6"/>
<text text-anchor="middle" x="362.5" y="-13" font-family="Helvetica,sans-Serif" font-size="10.00">boost/asio/error.hpp</text>
</a>
</g>
</g>
<!-- Node1&#45;&gt;Node4 -->
<g id="edge3" class="edge">
<title>Node1&#45;&gt;Node4</title>
<path fill="none" stroke="midnightblue" d="M1393.69,-97.19C1224.5,-94.45 787.94,-82.52 427.5,-31 420.58,-30.01 413.3,-28.68 406.22,-27.22"/>
<polygon fill="midnightblue" stroke="midnightblue" points="406.57,-23.72 396.05,-25.03 405.09,-30.56 406.57,-23.72"/>
</g>
<!-- Node5 -->
<g id="node5" class="node">
<title>Node5</title>
<g id="a_node5"><a xlink:title=" ">
<polygon fill="white" stroke="#bfbfbf" points="437,-0.5 437,-30.5 554,-30.5 554,-0.5 437,-0.5"/>
<text text-anchor="start" x="445" y="-18.5" font-family="Helvetica,sans-Serif" font-size="10.00">boost/asio/execution</text>
<text text-anchor="middle" x="495.5" y="-7.5" font-family="Helvetica,sans-Serif" font-size="10.00">_context.hpp</text>
</a>
</g>
</g>
<!-- Node1&#45;&gt;Node5 -->
<g id="edge4" class="edge">
<title>Node1&#45;&gt;Node5</title>
<path fill="none" stroke="midnightblue" d="M1393.73,-96.06C1242.04,-91.24 877.72,-75.77 564.43,-31.16"/>
<polygon fill="midnightblue" stroke="midnightblue" points="564.64,-27.65 554.24,-29.7 563.64,-34.58 564.64,-27.65"/>
</g>
<!-- Node6 -->
<g id="node6" class="node">
<title>Node6</title>
<g id="a_node6"><a xlink:title=" ">
<polygon fill="white" stroke="#bfbfbf" points="572,-6 572,-25 723,-25 723,-6 572,-6"/>
<text text-anchor="middle" x="647.5" y="-13" font-family="Helvetica,sans-Serif" font-size="10.00">boost/asio/socket_base.hpp</text>
</a>
</g>
</g>
<!-- Node1&#45;&gt;Node6 -->
<g id="edge5" class="edge">
<title>Node1&#45;&gt;Node6</title>
<path fill="none" stroke="midnightblue" d="M1393.92,-93.37C1262.38,-84.45 973.49,-62.88 731.5,-31 722.34,-29.79 712.65,-28.31 703.24,-26.76"/>
<polygon fill="midnightblue" stroke="midnightblue" points="703.62,-23.28 693.17,-25.07 702.45,-30.18 703.62,-23.28"/>
</g>
<!-- Node7 -->
<g id="node7" class="node">
<title>Node7</title>
<g id="a_node7"><a xlink:title=" ">
<polygon fill="white" stroke="#bfbfbf" points="741,-0.5 741,-30.5 872,-30.5 872,-0.5 741,-0.5"/>
<text text-anchor="start" x="749" y="-18.5" font-family="Helvetica,sans-Serif" font-size="10.00">boost/asio/detail/buffer</text>
<text text-anchor="middle" x="806.5" y="-7.5" font-family="Helvetica,sans-Serif" font-size="10.00">_sequence_adapter.hpp</text>
</a>
</g>
</g>
<!-- Node1&#45;&gt;Node7 -->
<g id="edge6" class="edge">
<title>Node1&#45;&gt;Node7</title>
<path fill="none" stroke="midnightblue" d="M1393.66,-91.63C1284.96,-81.57 1072.04,-60.28 882.11,-31.18"/>
<polygon fill="midnightblue" stroke="midnightblue" points="882.64,-27.72 872.22,-29.66 881.57,-34.64 882.64,-27.72"/>
</g>
<!-- Node8 -->
<g id="node8" class="node">
<title>Node8</title>
<g id="a_node8"><a xlink:title=" ">
<polygon fill="white" stroke="#bfbfbf" points="890,-6 890,-25 1051,-25 1051,-6 890,-6"/>
<text text-anchor="middle" x="970.5" y="-13" font-family="Helvetica,sans-Serif" font-size="10.00">boost/asio/detail/memory.hpp</text>
</a>
</g>
</g>
<!-- Node1&#45;&gt;Node8 -->
<g id="edge7" class="edge">
<title>Node1&#45;&gt;Node8</title>
<path fill="none" stroke="midnightblue" d="M1393.79,-86.19C1296.42,-70.16 1124.05,-41.78 1032.18,-26.66"/>
<polygon fill="midnightblue" stroke="midnightblue" points="1032.63,-23.18 1022.2,-25.01 1031.5,-30.09 1032.63,-23.18"/>
</g>
<!-- Node9 -->
<g id="node9" class="node">
<title>Node9</title>
<g id="a_node9"><a xlink:title=" ">
<polygon fill="white" stroke="#bfbfbf" points="1069.5,-0.5 1069.5,-30.5 1209.5,-30.5 1209.5,-0.5 1069.5,-0.5"/>
<text text-anchor="start" x="1077.5" y="-18.5" font-family="Helvetica,sans-Serif" font-size="10.00">boost/asio/detail/reactive</text>
<text text-anchor="middle" x="1139.5" y="-7.5" font-family="Helvetica,sans-Serif" font-size="10.00">_null_buffers_op.hpp</text>
</a>
</g>
</g>
<!-- Node1&#45;&gt;Node9 -->
<g id="edge8" class="edge">
<title>Node1&#45;&gt;Node9</title>
<path fill="none" stroke="midnightblue" d="M1393.96,-80.11C1337.85,-66.09 1260.36,-46.72 1205.68,-33.04"/>
<polygon fill="midnightblue" stroke="midnightblue" points="1206.29,-29.59 1195.74,-30.56 1204.59,-36.38 1206.29,-29.59"/>
</g>
<!-- Node10 -->
<g id="node10" class="node">
<title>Node10</title>
<g id="a_node10"><a xlink:title=" ">
<polygon fill="white" stroke="#bfbfbf" points="1227.5,-0.5 1227.5,-30.5 1367.5,-30.5 1367.5,-0.5 1227.5,-0.5"/>
<text text-anchor="start" x="1235.5" y="-18.5" font-family="Helvetica,sans-Serif" font-size="10.00">boost/asio/detail/reactive</text>
<text text-anchor="middle" x="1297.5" y="-7.5" font-family="Helvetica,sans-Serif" font-size="10.00">_socket_recv_op_ext.hpp</text>
</a>
</g>
</g>
<!-- Node1&#45;&gt;Node10 -->
<g id="edge9" class="edge">
<title>Node1&#45;&gt;Node10</title>
<path fill="none" stroke="midnightblue" d="M1402.47,-67.42C1380.06,-56.55 1355.53,-44.65 1335.82,-35.09"/>
<polygon fill="midnightblue" stroke="midnightblue" points="1337.09,-31.82 1326.57,-30.6 1334.04,-38.11 1337.09,-31.82"/>
</g>
<!-- Node11 -->
<g id="node11" class="node">
<title>Node11</title>
<g id="a_node11"><a xlink:title=" ">
<polygon fill="white" stroke="#bfbfbf" points="1385.5,-0.5 1385.5,-30.5 1545.5,-30.5 1545.5,-0.5 1385.5,-0.5"/>
<text text-anchor="start" x="1393.5" y="-18.5" font-family="Helvetica,sans-Serif" font-size="10.00">boost/asio/detail/reactive</text>
<text text-anchor="middle" x="1465.5" y="-7.5" font-family="Helvetica,sans-Serif" font-size="10.00">_socket_recvmsg_op_ext.hpp</text>
</a>
</g>
</g>
<!-- Node1&#45;&gt;Node11 -->
<g id="edge10" class="edge">
<title>Node1&#45;&gt;Node11</title>
<path fill="none" stroke="midnightblue" d="M1465.5,-67.19C1465.5,-58.41 1465.5,-48.98 1465.5,-40.66"/>
<polygon fill="midnightblue" stroke="midnightblue" points="1469,-40.52 1465.5,-30.52 1462,-40.52 1469,-40.52"/>
</g>
<!-- Node12 -->
<g id="node12" class="node">
<title>Node12</title>
<g id="a_node12"><a xlink:title=" ">
<polygon fill="white" stroke="#bfbfbf" points="1563.5,-0.5 1563.5,-30.5 1703.5,-30.5 1703.5,-0.5 1563.5,-0.5"/>
<text text-anchor="start" x="1571.5" y="-18.5" font-family="Helvetica,sans-Serif" font-size="10.00">boost/asio/detail/reactive</text>
<text text-anchor="middle" x="1633.5" y="-7.5" font-family="Helvetica,sans-Serif" font-size="10.00">_socket_send_op.hpp</text>
</a>
</g>
</g>
<!-- Node1&#45;&gt;Node12 -->
<g id="edge11" class="edge">
<title>Node1&#45;&gt;Node12</title>
<path fill="none" stroke="midnightblue" d="M1528.53,-67.42C1550.94,-56.55 1575.47,-44.65 1595.18,-35.09"/>
<polygon fill="midnightblue" stroke="midnightblue" points="1596.96,-38.11 1604.43,-30.6 1593.91,-31.82 1596.96,-38.11"/>
</g>
<!-- Node13 -->
<g id="node13" class="node">
<title>Node13</title>
<g id="a_node13"><a xlink:title=" ">
<polygon fill="white" stroke="#bfbfbf" points="1721.5,-0.5 1721.5,-30.5 1861.5,-30.5 1861.5,-0.5 1721.5,-0.5"/>
<text text-anchor="start" x="1729.5" y="-18.5" font-family="Helvetica,sans-Serif" font-size="10.00">boost/asio/detail/reactive</text>
<text text-anchor="middle" x="1791.5" y="-7.5" font-family="Helvetica,sans-Serif" font-size="10.00">_wait_op.hpp</text>
</a>
</g>
</g>
<!-- Node1&#45;&gt;Node13 -->
<g id="edge12" class="edge">
<title>Node1&#45;&gt;Node13</title>
<path fill="none" stroke="midnightblue" d="M1537.04,-80.11C1593.15,-66.09 1670.64,-46.72 1725.32,-33.04"/>
<polygon fill="midnightblue" stroke="midnightblue" points="1726.41,-36.38 1735.26,-30.56 1724.71,-29.59 1726.41,-36.38"/>
</g>
<!-- Node14 -->
<g id="node14" class="node">
<title>Node14</title>
<g id="a_node14"><a xlink:title=" ">
<polygon fill="white" stroke="#bfbfbf" points="1880,-6 1880,-25 2035,-25 2035,-6 1880,-6"/>
<text text-anchor="middle" x="1957.5" y="-13" font-family="Helvetica,sans-Serif" font-size="10.00">boost/asio/detail/reactor.hpp</text>
</a>
</g>
</g>
<!-- Node1&#45;&gt;Node14 -->
<g id="edge13" class="edge">
<title>Node1&#45;&gt;Node14</title>
<path fill="none" stroke="midnightblue" d="M1537.2,-86.17C1618.15,-72.8 1753.79,-50.38 1870.5,-31 1878.86,-29.61 1887.67,-28.15 1896.35,-26.7"/>
<polygon fill="midnightblue" stroke="midnightblue" points="1897.15,-30.12 1906.44,-25.02 1896,-23.21 1897.15,-30.12"/>
</g>
<!-- Node15 -->
<g id="node15" class="node">
<title>Node15</title>
<g id="a_node15"><a xlink:title=" ">
<polygon fill="white" stroke="#bfbfbf" points="2053,-0.5 2053,-30.5 2188,-30.5 2188,-0.5 2053,-0.5"/>
<text text-anchor="start" x="2061" y="-18.5" font-family="Helvetica,sans-Serif" font-size="10.00">boost/asio/detail/reactor</text>
<text text-anchor="middle" x="2120.5" y="-7.5" font-family="Helvetica,sans-Serif" font-size="10.00">_op.hpp</text>
</a>
</g>
</g>
<!-- Node1&#45;&gt;Node15 -->
<g id="edge14" class="edge">
<title>Node1&#45;&gt;Node15</title>
<path fill="none" stroke="midnightblue" d="M1537.03,-91.43C1644.68,-81.15 1854.9,-59.63 2042.93,-31.18"/>
<polygon fill="midnightblue" stroke="midnightblue" points="2043.64,-34.61 2053,-29.64 2042.59,-27.69 2043.64,-34.61"/>
</g>
<!-- Node16 -->
<g id="node16" class="node">
<title>Node16</title>
<g id="a_node16"><a xlink:title=" ">
<polygon fill="white" stroke="#bfbfbf" points="2206.5,-0.5 2206.5,-30.5 2338.5,-30.5 2338.5,-0.5 2206.5,-0.5"/>
<text text-anchor="start" x="2214.5" y="-18.5" font-family="Helvetica,sans-Serif" font-size="10.00">boost/asio/detail/socket</text>
<text text-anchor="middle" x="2272.5" y="-7.5" font-family="Helvetica,sans-Serif" font-size="10.00">_holder.hpp</text>
</a>
</g>
</g>
<!-- Node1&#45;&gt;Node16 -->
<g id="edge15" class="edge">
<title>Node1&#45;&gt;Node16</title>
<path fill="none" stroke="midnightblue" d="M1537.21,-93.82C1666.82,-85.74 1948.81,-65.77 2196.05,-31.12"/>
<polygon fill="midnightblue" stroke="midnightblue" points="2196.89,-34.53 2206.31,-29.67 2195.92,-27.6 2196.89,-34.53"/>
</g>
<!-- Node17 -->
<g id="node17" class="node">
<title>Node17</title>
<g id="a_node17"><a xlink:title=" ">
<polygon fill="white" stroke="#bfbfbf" points="2356.5,-0.5 2356.5,-30.5 2488.5,-30.5 2488.5,-0.5 2356.5,-0.5"/>
<text text-anchor="start" x="2364.5" y="-18.5" font-family="Helvetica,sans-Serif" font-size="10.00">boost/asio/detail/socket</text>
<text text-anchor="middle" x="2422.5" y="-7.5" font-family="Helvetica,sans-Serif" font-size="10.00">_ops_ext.hpp</text>
</a>
</g>
</g>
<!-- Node1&#45;&gt;Node17 -->
<g id="edge16" class="edge">
<title>Node1&#45;&gt;Node17</title>
<path fill="none" stroke="midnightblue" d="M1537.25,-95.35C1686.29,-89.24 2040.33,-71.57 2346.36,-31.05"/>
<polygon fill="midnightblue" stroke="midnightblue" points="2346.87,-34.52 2356.31,-29.72 2345.94,-27.58 2346.87,-34.52"/>
</g>
<!-- Node18 -->
<g id="node18" class="node">
<title>Node18</title>
<g id="a_node18"><a xlink:title=" ">
<polygon fill="white" stroke="#bfbfbf" points="2506.5,-0.5 2506.5,-30.5 2638.5,-30.5 2638.5,-0.5 2506.5,-0.5"/>
<text text-anchor="start" x="2514.5" y="-18.5" font-family="Helvetica,sans-Serif" font-size="10.00">boost/asio/detail/socket</text>
<text text-anchor="middle" x="2572.5" y="-7.5" font-family="Helvetica,sans-Serif" font-size="10.00">_types.hpp</text>
</a>
</g>
</g>
<!-- Node1&#45;&gt;Node18 -->
<g id="edge17" class="edge">
<title>Node1&#45;&gt;Node18</title>
<path fill="none" stroke="midnightblue" d="M1537.11,-96.46C1703.83,-92.2 2130.87,-77.42 2496.34,-31.04"/>
<polygon fill="midnightblue" stroke="midnightblue" points="2496.84,-34.5 2506.32,-29.76 2495.96,-27.56 2496.84,-34.5"/>
</g>
<!-- Node19 -->
<g id="node19" class="node">
<title>Node19</title>
<g id="a_node19"><a xlink:title=" ">
<polygon fill="white" stroke="#bfbfbf" points="2656.5,-0.5 2656.5,-30.5 2780.5,-30.5 2780.5,-0.5 2656.5,-0.5"/>
<text text-anchor="start" x="2664.5" y="-18.5" font-family="Helvetica,sans-Serif" font-size="10.00">boost/asio/detail/push</text>
<text text-anchor="middle" x="2718.5" y="-7.5" font-family="Helvetica,sans-Serif" font-size="10.00">_options.hpp</text>
</a>
</g>
</g>
<!-- Node1&#45;&gt;Node19 -->
<g id="edge18" class="edge">
<title>Node1&#45;&gt;Node19</title>
<path fill="none" stroke="midnightblue" d="M1537.12,-97.55C1720.38,-95.61 2221.23,-85.45 2646.22,-31.04"/>
<polygon fill="midnightblue" stroke="midnightblue" points="2646.78,-34.5 2656.25,-29.74 2645.88,-27.55 2646.78,-34.5"/>
</g>
<!-- Node20 -->
<g id="node20" class="node">
<title>Node20</title>
<g id="a_node20"><a xlink:title=" ">
<polygon fill="white" stroke="#bfbfbf" points="2799,-0.5 2799,-30.5 2918,-30.5 2918,-0.5 2799,-0.5"/>
<text text-anchor="start" x="2807" y="-18.5" font-family="Helvetica,sans-Serif" font-size="10.00">boost/asio/detail/pop</text>
<text text-anchor="middle" x="2858.5" y="-7.5" font-family="Helvetica,sans-Serif" font-size="10.00">_options.hpp</text>
</a>
</g>
</g>
<!-- Node1&#45;&gt;Node20 -->
<g id="edge19" class="edge">
<title>Node1&#45;&gt;Node20</title>
<path fill="none" stroke="midnightblue" d="M1537.25,-98.3C1735.36,-98.3 2306.58,-92.63 2788.81,-30.93"/>
<polygon fill="midnightblue" stroke="midnightblue" points="2789.29,-34.4 2798.76,-29.65 2788.39,-27.46 2789.29,-34.4"/>
</g>
</g>
</svg>
