<?xml version="1.0" encoding="UTF-8" standalone="no"?>
<!DOCTYPE svg PUBLIC "-//W3C//DTD SVG 1.1//EN"
 "http://www.w3.org/Graphics/SVG/1.1/DTD/svg11.dtd">
<!-- Generated by graphviz version 2.43.0 (0)
 -->
<!-- Title: /home/kali/projects/vsomeip/implementation/helper/1.74/boost/asio/detail/reactive_socket_service_ext_local.hpp Pages: 1 -->
<svg width="3271pt" height="150pt"
 viewBox="0.00 0.00 3271.00 150.00" xmlns="http://www.w3.org/2000/svg" xmlns:xlink="http://www.w3.org/1999/xlink">
<g id="graph0" class="graph" transform="scale(1 1) rotate(0) translate(4 146)">
<title>/home/kali/projects/vsomeip/implementation/helper/1.74/boost/asio/detail/reactive_socket_service_ext_local.hpp</title>
<polygon fill="white" stroke="transparent" points="-4,4 -4,-146 3267,-146 3267,4 -4,4"/>
<!-- Node1 -->
<g id="node1" class="node">
<title>Node1</title>
<g id="a_node1"><a xlink:title=" ">
<polygon fill="#bfbfbf" stroke="black" points="1586,-78.5 1586,-141.5 1729,-141.5 1729,-78.5 1586,-78.5"/>
<text text-anchor="start" x="1594" y="-129.5" font-family="Helvetica,sans-Serif" font-size="10.00">/home/kali/projects</text>
<text text-anchor="start" x="1594" y="-118.5" font-family="Helvetica,sans-Serif" font-size="10.00">/vsomeip/implementation</text>
<text text-anchor="start" x="1594" y="-107.5" font-family="Helvetica,sans-Serif" font-size="10.00">/helper/1.74/boost/asio</text>
<text text-anchor="start" x="1594" y="-96.5" font-family="Helvetica,sans-Serif" font-size="10.00">/detail/reactive_socket</text>
<text text-anchor="middle" x="1657.5" y="-85.5" font-family="Helvetica,sans-Serif" font-size="10.00">_service_ext_local.hpp</text>
</a>
</g>
</g>
<!-- Node2 -->
<g id="node2" class="node">
<title>Node2</title>
<g id="a_node2"><a xlink:title=" ">
<polygon fill="white" stroke="#bfbfbf" points="0,-11.5 0,-30.5 151,-30.5 151,-11.5 0,-11.5"/>
<text text-anchor="middle" x="75.5" y="-18.5" font-family="Helvetica,sans-Serif" font-size="10.00">boost/asio/detail/config.hpp</text>
</a>
</g>
</g>
<!-- Node1&#45;&gt;Node2 -->
<g id="edge1" class="edge">
<title>Node1&#45;&gt;Node2</title>
<path fill="none" stroke="midnightblue" d="M1585.97,-107.59C1327.18,-102.23 440.19,-81.33 159.5,-42 144.81,-39.94 128.92,-36.48 114.96,-33.02"/>
<polygon fill="midnightblue" stroke="midnightblue" points="115.73,-29.6 105.17,-30.51 113.99,-36.39 115.73,-29.6"/>
</g>
<!-- Node3 -->
<g id="node3" class="node">
<title>Node3</title>
<g id="a_node3"><a xlink:title=" ">
<polygon fill="white" stroke="#bfbfbf" points="169,-11.5 169,-30.5 288,-30.5 288,-11.5 169,-11.5"/>
<text text-anchor="middle" x="228.5" y="-18.5" font-family="Helvetica,sans-Serif" font-size="10.00">boost/asio/buffer.hpp</text>
</a>
</g>
</g>
<!-- Node1&#45;&gt;Node3 -->
<g id="edge2" class="edge">
<title>Node1&#45;&gt;Node3</title>
<path fill="none" stroke="midnightblue" d="M1585.81,-107.71C1342.3,-102.98 548.12,-84.58 296.5,-42 285.07,-40.07 272.85,-36.85 261.97,-33.55"/>
<polygon fill="midnightblue" stroke="midnightblue" points="263,-30.21 252.41,-30.54 260.89,-36.89 263,-30.21"/>
</g>
<!-- Node4 -->
<g id="node4" class="node">
<title>Node4</title>
<g id="a_node4"><a xlink:title=" ">
<polygon fill="white" stroke="#bfbfbf" points="306,-11.5 306,-30.5 419,-30.5 419,-11.5 306,-11.5"/>
<text text-anchor="middle" x="362.5" y="-18.5" font-family="Helvetica,sans-Serif" font-size="10.00">boost/asio/error.hpp</text>
</a>
</g>
</g>
<!-- Node1&#45;&gt;Node4 -->
<g id="edge3" class="edge">
<title>Node1&#45;&gt;Node4</title>
<path fill="none" stroke="midnightblue" d="M1585.64,-107.39C1357.63,-101.91 652.25,-82.08 427.5,-42 416.78,-40.09 405.34,-36.96 395.1,-33.73"/>
<polygon fill="midnightblue" stroke="midnightblue" points="395.92,-30.32 385.33,-30.52 393.73,-36.97 395.92,-30.32"/>
</g>
<!-- Node5 -->
<g id="node5" class="node">
<title>Node5</title>
<g id="a_node5"><a xlink:title=" ">
<polygon fill="white" stroke="#bfbfbf" points="437,-6 437,-36 554,-36 554,-6 437,-6"/>
<text text-anchor="start" x="445" y="-24" font-family="Helvetica,sans-Serif" font-size="10.00">boost/asio/execution</text>
<text text-anchor="middle" x="495.5" y="-13" font-family="Helvetica,sans-Serif" font-size="10.00">_context.hpp</text>
</a>
</g>
</g>
<!-- Node1&#45;&gt;Node5 -->
<g id="edge4" class="edge">
<title>Node1&#45;&gt;Node5</title>
<path fill="none" stroke="midnightblue" d="M1585.86,-106.76C1375.2,-99.83 760.23,-77.08 562.5,-42 557.47,-41.11 552.29,-39.97 547.14,-38.69"/>
<polygon fill="midnightblue" stroke="midnightblue" points="547.88,-35.27 537.32,-36.08 546.09,-42.03 547.88,-35.27"/>
</g>
<!-- Node6 -->
<g id="node6" class="node">
<title>Node6</title>
<g id="a_node6"><a xlink:title=" ">
<polygon fill="white" stroke="#bfbfbf" points="572,-11.5 572,-30.5 723,-30.5 723,-11.5 572,-11.5"/>
<text text-anchor="middle" x="647.5" y="-18.5" font-family="Helvetica,sans-Serif" font-size="10.00">boost/asio/socket_base.hpp</text>
</a>
</g>
</g>
<!-- Node1&#45;&gt;Node6 -->
<g id="edge5" class="edge">
<title>Node1&#45;&gt;Node6</title>
<path fill="none" stroke="midnightblue" d="M1585.9,-107.75C1429.81,-104.17 1047.51,-90.73 731.5,-42 717.21,-39.8 701.77,-36.42 688.07,-33.06"/>
<polygon fill="midnightblue" stroke="midnightblue" points="688.54,-29.57 677.99,-30.51 686.83,-36.35 688.54,-29.57"/>
</g>
<!-- Node7 -->
<g id="node7" class="node">
<title>Node7</title>
<g id="a_node7"><a xlink:title=" ">
<polygon fill="white" stroke="#bfbfbf" points="741,-6 741,-36 872,-36 872,-6 741,-6"/>
<text text-anchor="start" x="749" y="-24" font-family="Helvetica,sans-Serif" font-size="10.00">boost/asio/detail/buffer</text>
<text text-anchor="middle" x="806.5" y="-13" font-family="Helvetica,sans-Serif" font-size="10.00">_sequence_adapter.hpp</text>
</a>
</g>
</g>
<!-- Node1&#45;&gt;Node7 -->
<g id="edge6" class="edge">
<title>Node1&#45;&gt;Node7</title>
<path fill="none" stroke="midnightblue" d="M1585.98,-107.08C1448.38,-102.45 1137.66,-87.47 880.5,-42 875.01,-41.03 869.34,-39.84 863.69,-38.53"/>
<polygon fill="midnightblue" stroke="midnightblue" points="864.13,-35.04 853.59,-36.07 862.47,-41.84 864.13,-35.04"/>
</g>
<!-- Node8 -->
<g id="node8" class="node">
<title>Node8</title>
<g id="a_node8"><a xlink:title=" ">
<polygon fill="white" stroke="#bfbfbf" points="890,-11.5 890,-30.5 1051,-30.5 1051,-11.5 890,-11.5"/>
<text text-anchor="middle" x="970.5" y="-18.5" font-family="Helvetica,sans-Serif" font-size="10.00">boost/asio/detail/memory.hpp</text>
</a>
</g>
</g>
<!-- Node1&#45;&gt;Node8 -->
<g id="edge7" class="edge">
<title>Node1&#45;&gt;Node8</title>
<path fill="none" stroke="midnightblue" d="M1585.94,-103.46C1473.55,-94.2 1249.02,-73.43 1060.5,-42 1045.64,-39.52 1029.53,-36.16 1015.11,-32.9"/>
<polygon fill="midnightblue" stroke="midnightblue" points="1015.48,-29.4 1004.95,-30.56 1013.91,-36.22 1015.48,-29.4"/>
</g>
<!-- Node9 -->
<g id="node9" class="node">
<title>Node9</title>
<g id="a_node9"><a xlink:title=" ">
<polygon fill="white" stroke="#bfbfbf" points="1069.5,-11.5 1069.5,-30.5 1253.5,-30.5 1253.5,-11.5 1069.5,-11.5"/>
<text text-anchor="middle" x="1161.5" y="-18.5" font-family="Helvetica,sans-Serif" font-size="10.00">boost/asio/detail/noncopyable.hpp</text>
</a>
</g>
</g>
<!-- Node1&#45;&gt;Node9 -->
<g id="edge8" class="edge">
<title>Node1&#45;&gt;Node9</title>
<path fill="none" stroke="midnightblue" d="M1585.68,-97.43C1506.44,-84.52 1375.21,-62.71 1262.5,-42 1246.49,-39.06 1229.09,-35.68 1213.32,-32.55"/>
<polygon fill="midnightblue" stroke="midnightblue" points="1213.71,-29.05 1203.22,-30.53 1212.34,-35.92 1213.71,-29.05"/>
</g>
<!-- Node10 -->
<g id="node10" class="node">
<title>Node10</title>
<g id="a_node10"><a xlink:title=" ">
<polygon fill="white" stroke="#bfbfbf" points="1271.5,-6 1271.5,-36 1411.5,-36 1411.5,-6 1271.5,-6"/>
<text text-anchor="start" x="1279.5" y="-24" font-family="Helvetica,sans-Serif" font-size="10.00">boost/asio/detail/reactive</text>
<text text-anchor="middle" x="1341.5" y="-13" font-family="Helvetica,sans-Serif" font-size="10.00">_null_buffers_op.hpp</text>
</a>
</g>
</g>
<!-- Node1&#45;&gt;Node10 -->
<g id="edge9" class="edge">
<title>Node1&#45;&gt;Node10</title>
<path fill="none" stroke="midnightblue" d="M1585.79,-89.26C1530.54,-74.05 1454.97,-53.24 1402.58,-38.82"/>
<polygon fill="midnightblue" stroke="midnightblue" points="1403.32,-35.39 1392.75,-36.11 1401.46,-42.14 1403.32,-35.39"/>
</g>
<!-- Node11 -->
<g id="node11" class="node">
<title>Node11</title>
<g id="a_node11"><a xlink:title=" ">
<polygon fill="white" stroke="#bfbfbf" points="1429.5,-6 1429.5,-36 1569.5,-36 1569.5,-6 1429.5,-6"/>
<text text-anchor="start" x="1437.5" y="-24" font-family="Helvetica,sans-Serif" font-size="10.00">boost/asio/detail/reactive</text>
<text text-anchor="middle" x="1499.5" y="-13" font-family="Helvetica,sans-Serif" font-size="10.00">_socket_accept_op.hpp</text>
</a>
</g>
</g>
<!-- Node1&#45;&gt;Node11 -->
<g id="edge10" class="edge">
<title>Node1&#45;&gt;Node11</title>
<path fill="none" stroke="midnightblue" d="M1601.8,-78.33C1579.25,-65.91 1553.92,-51.96 1534.1,-41.05"/>
<polygon fill="midnightblue" stroke="midnightblue" points="1535.58,-37.87 1525.14,-36.12 1532.21,-44.01 1535.58,-37.87"/>
</g>
<!-- Node12 -->
<g id="node12" class="node">
<title>Node12</title>
<g id="a_node12"><a xlink:title=" ">
<polygon fill="white" stroke="#bfbfbf" points="1587.5,-6 1587.5,-36 1727.5,-36 1727.5,-6 1587.5,-6"/>
<text text-anchor="start" x="1595.5" y="-24" font-family="Helvetica,sans-Serif" font-size="10.00">boost/asio/detail/reactive</text>
<text text-anchor="middle" x="1657.5" y="-13" font-family="Helvetica,sans-Serif" font-size="10.00">_socket_connect_op.hpp</text>
</a>
</g>
</g>
<!-- Node1&#45;&gt;Node12 -->
<g id="edge11" class="edge">
<title>Node1&#45;&gt;Node12</title>
<path fill="none" stroke="midnightblue" d="M1657.5,-78.08C1657.5,-67.72 1657.5,-56.32 1657.5,-46.51"/>
<polygon fill="midnightblue" stroke="midnightblue" points="1661,-46.27 1657.5,-36.27 1654,-46.27 1661,-46.27"/>
</g>
<!-- Node13 -->
<g id="node13" class="node">
<title>Node13</title>
<g id="a_node13"><a xlink:title=" ">
<polygon fill="white" stroke="#bfbfbf" points="1746,-0.5 1746,-41.5 1887,-41.5 1887,-0.5 1746,-0.5"/>
<text text-anchor="start" x="1754" y="-29.5" font-family="Helvetica,sans-Serif" font-size="10.00">boost/asio/detail/reactive</text>
<text text-anchor="start" x="1754" y="-18.5" font-family="Helvetica,sans-Serif" font-size="10.00">_socket_recvfrom_op_ext</text>
<text text-anchor="middle" x="1816.5" y="-7.5" font-family="Helvetica,sans-Serif" font-size="10.00">_local.hpp</text>
</a>
</g>
</g>
<!-- Node1&#45;&gt;Node13 -->
<g id="edge12" class="edge">
<title>Node1&#45;&gt;Node13</title>
<path fill="none" stroke="midnightblue" d="M1713.56,-78.33C1732.59,-67.91 1753.59,-56.42 1771.64,-46.55"/>
<polygon fill="midnightblue" stroke="midnightblue" points="1773.69,-49.42 1780.78,-41.55 1770.33,-43.28 1773.69,-49.42"/>
</g>
<!-- Node14 -->
<g id="node14" class="node">
<title>Node14</title>
<g id="a_node14"><a xlink:title=" ">
<polygon fill="white" stroke="#bfbfbf" points="1905.5,-6 1905.5,-36 2045.5,-36 2045.5,-6 1905.5,-6"/>
<text text-anchor="start" x="1913.5" y="-24" font-family="Helvetica,sans-Serif" font-size="10.00">boost/asio/detail/reactive</text>
<text text-anchor="middle" x="1975.5" y="-13" font-family="Helvetica,sans-Serif" font-size="10.00">_socket_sendto_op.hpp</text>
</a>
</g>
</g>
<!-- Node1&#45;&gt;Node14 -->
<g id="edge13" class="edge">
<title>Node1&#45;&gt;Node14</title>
<path fill="none" stroke="midnightblue" d="M1729.26,-89.37C1785.02,-74.11 1861.51,-53.19 1914.37,-38.72"/>
<polygon fill="midnightblue" stroke="midnightblue" points="1915.57,-42.03 1924.29,-36.01 1913.72,-35.27 1915.57,-42.03"/>
</g>
<!-- Node15 -->
<g id="node15" class="node">
<title>Node15</title>
<g id="a_node15"><a xlink:title=" ">
<polygon fill="white" stroke="#bfbfbf" points="2064,-0.5 2064,-41.5 2207,-41.5 2207,-0.5 2064,-0.5"/>
<text text-anchor="start" x="2072" y="-29.5" font-family="Helvetica,sans-Serif" font-size="10.00">boost/asio/detail/reactive</text>
<text text-anchor="start" x="2072" y="-18.5" font-family="Helvetica,sans-Serif" font-size="10.00">_socket_service_base_ext</text>
<text text-anchor="middle" x="2135.5" y="-7.5" font-family="Helvetica,sans-Serif" font-size="10.00">_local.hpp</text>
</a>
</g>
</g>
<!-- Node1&#45;&gt;Node15 -->
<g id="edge14" class="edge">
<title>Node1&#45;&gt;Node15</title>
<path fill="none" stroke="midnightblue" d="M1729.16,-98.56C1806.71,-86.89 1934.2,-66.62 2053.53,-42.13"/>
<polygon fill="midnightblue" stroke="midnightblue" points="2054.49,-45.51 2063.58,-40.06 2053.07,-38.65 2054.49,-45.51"/>
</g>
<!-- Node16 -->
<g id="node16" class="node">
<title>Node16</title>
<g id="a_node16"><a xlink:title=" ">
<polygon fill="white" stroke="#bfbfbf" points="2225,-11.5 2225,-30.5 2380,-30.5 2380,-11.5 2225,-11.5"/>
<text text-anchor="middle" x="2302.5" y="-18.5" font-family="Helvetica,sans-Serif" font-size="10.00">boost/asio/detail/reactor.hpp</text>
</a>
</g>
</g>
<!-- Node1&#45;&gt;Node16 -->
<g id="edge15" class="edge">
<title>Node1&#45;&gt;Node16</title>
<path fill="none" stroke="midnightblue" d="M1729.34,-102.92C1836.11,-93.31 2042.73,-72.52 2216.5,-42 2230.58,-39.53 2245.81,-36.2 2259.48,-32.98"/>
<polygon fill="midnightblue" stroke="midnightblue" points="2260.69,-36.28 2269.59,-30.54 2259.05,-29.48 2260.69,-36.28"/>
</g>
<!-- Node17 -->
<g id="node17" class="node">
<title>Node17</title>
<g id="a_node17"><a xlink:title=" ">
<polygon fill="white" stroke="#bfbfbf" points="2398,-6 2398,-36 2533,-36 2533,-6 2398,-6"/>
<text text-anchor="start" x="2406" y="-24" font-family="Helvetica,sans-Serif" font-size="10.00">boost/asio/detail/reactor</text>
<text text-anchor="middle" x="2465.5" y="-13" font-family="Helvetica,sans-Serif" font-size="10.00">_op.hpp</text>
</a>
</g>
</g>
<!-- Node1&#45;&gt;Node17 -->
<g id="edge16" class="edge">
<title>Node1&#45;&gt;Node17</title>
<path fill="none" stroke="midnightblue" d="M1729.2,-106.39C1860.88,-100.72 2149.76,-84.21 2389.5,-42 2395.27,-40.98 2401.24,-39.75 2407.18,-38.39"/>
<polygon fill="midnightblue" stroke="midnightblue" points="2408.2,-41.75 2417.11,-36.02 2406.57,-34.94 2408.2,-41.75"/>
</g>
<!-- Node18 -->
<g id="node18" class="node">
<title>Node18</title>
<g id="a_node18"><a xlink:title=" ">
<polygon fill="white" stroke="#bfbfbf" points="2551.5,-6 2551.5,-36 2683.5,-36 2683.5,-6 2551.5,-6"/>
<text text-anchor="start" x="2559.5" y="-24" font-family="Helvetica,sans-Serif" font-size="10.00">boost/asio/detail/socket</text>
<text text-anchor="middle" x="2617.5" y="-13" font-family="Helvetica,sans-Serif" font-size="10.00">_holder.hpp</text>
</a>
</g>
</g>
<!-- Node1&#45;&gt;Node18 -->
<g id="edge17" class="edge">
<title>Node1&#45;&gt;Node18</title>
<path fill="none" stroke="midnightblue" d="M1729.17,-108.06C1880.48,-105.08 2243.23,-92.78 2542.5,-42 2548.29,-41.02 2554.28,-39.79 2560.23,-38.43"/>
<polygon fill="midnightblue" stroke="midnightblue" points="2561.28,-41.78 2570.18,-36.04 2559.64,-34.97 2561.28,-41.78"/>
</g>
<!-- Node19 -->
<g id="node19" class="node">
<title>Node19</title>
<g id="a_node19"><a xlink:title=" ">
<polygon fill="white" stroke="#bfbfbf" points="2701.5,-6 2701.5,-36 2833.5,-36 2833.5,-6 2701.5,-6"/>
<text text-anchor="start" x="2709.5" y="-24" font-family="Helvetica,sans-Serif" font-size="10.00">boost/asio/detail/socket</text>
<text text-anchor="middle" x="2767.5" y="-13" font-family="Helvetica,sans-Serif" font-size="10.00">_ops.hpp</text>
</a>
</g>
</g>
<!-- Node1&#45;&gt;Node19 -->
<g id="edge18" class="edge">
<title>Node1&#45;&gt;Node19</title>
<path fill="none" stroke="midnightblue" d="M1729.26,-109.17C1898.29,-108.53 2334.24,-100.78 2692.5,-42 2698.38,-41.04 2704.46,-39.81 2710.51,-38.44"/>
<polygon fill="midnightblue" stroke="midnightblue" points="2711.69,-41.75 2720.6,-36.01 2710.06,-34.95 2711.69,-41.75"/>
</g>
<!-- Node20 -->
<g id="node20" class="node">
<title>Node20</title>
<g id="a_node20"><a xlink:title=" ">
<polygon fill="white" stroke="#bfbfbf" points="2851.5,-6 2851.5,-36 2983.5,-36 2983.5,-6 2851.5,-6"/>
<text text-anchor="start" x="2859.5" y="-24" font-family="Helvetica,sans-Serif" font-size="10.00">boost/asio/detail/socket</text>
<text text-anchor="middle" x="2917.5" y="-13" font-family="Helvetica,sans-Serif" font-size="10.00">_types.hpp</text>
</a>
</g>
</g>
<!-- Node1&#45;&gt;Node20 -->
<g id="edge19" class="edge">
<title>Node1&#45;&gt;Node20</title>
<path fill="none" stroke="midnightblue" d="M1729.01,-106.87C1950.94,-99.97 2626.06,-76.61 2842.5,-42 2848.38,-41.06 2854.47,-39.85 2860.51,-38.49"/>
<polygon fill="midnightblue" stroke="midnightblue" points="2861.69,-41.8 2870.61,-36.07 2860.07,-34.99 2861.69,-41.8"/>
</g>
<!-- Node21 -->
<g id="node21" class="node">
<title>Node21</title>
<g id="a_node21"><a xlink:title=" ">
<polygon fill="white" stroke="#bfbfbf" points="3001.5,-6 3001.5,-36 3125.5,-36 3125.5,-6 3001.5,-6"/>
<text text-anchor="start" x="3009.5" y="-24" font-family="Helvetica,sans-Serif" font-size="10.00">boost/asio/detail/push</text>
<text text-anchor="middle" x="3063.5" y="-13" font-family="Helvetica,sans-Serif" font-size="10.00">_options.hpp</text>
</a>
</g>
</g>
<!-- Node1&#45;&gt;Node21 -->
<g id="edge20" class="edge">
<title>Node1&#45;&gt;Node21</title>
<path fill="none" stroke="midnightblue" d="M1729.06,-107.53C1969.32,-102.24 2745.88,-82.4 2992.5,-42 2998.03,-41.09 3003.74,-39.91 3009.41,-38.58"/>
<polygon fill="midnightblue" stroke="midnightblue" points="3010.69,-41.87 3019.53,-36.04 3008.98,-35.08 3010.69,-41.87"/>
</g>
<!-- Node22 -->
<g id="node22" class="node">
<title>Node22</title>
<g id="a_node22"><a xlink:title=" ">
<polygon fill="white" stroke="#bfbfbf" points="3144,-6 3144,-36 3263,-36 3263,-6 3144,-6"/>
<text text-anchor="start" x="3152" y="-24" font-family="Helvetica,sans-Serif" font-size="10.00">boost/asio/detail/pop</text>
<text text-anchor="middle" x="3203.5" y="-13" font-family="Helvetica,sans-Serif" font-size="10.00">_options.hpp</text>
</a>
</g>
</g>
<!-- Node1&#45;&gt;Node22 -->
<g id="edge21" class="edge">
<title>Node1&#45;&gt;Node22</title>
<path fill="none" stroke="midnightblue" d="M1729.43,-107.99C1986.51,-104.03 2859.24,-87.47 3134.5,-42 3139.88,-41.11 3145.44,-39.94 3150.96,-38.61"/>
<polygon fill="midnightblue" stroke="midnightblue" points="3151.99,-41.96 3160.8,-36.08 3150.24,-35.18 3151.99,-41.96"/>
</g>
</g>
</svg>
