<?xml version="1.0" encoding="UTF-8" standalone="no"?>
<!DOCTYPE svg PUBLIC "-//W3C//DTD SVG 1.1//EN"
 "http://www.w3.org/Graphics/SVG/1.1/DTD/svg11.dtd">
<!-- Generated by graphviz version 2.43.0 (0)
 -->
<!-- Title: /home/kali/projects/vsomeip/implementation/helper/1.74/boost/asio/basic_datagram_socket_ext.hpp Pages: 1 -->
<svg width="1390pt" height="128pt"
 viewBox="0.00 0.00 1390.00 128.00" xmlns="http://www.w3.org/2000/svg" xmlns:xlink="http://www.w3.org/1999/xlink">
<g id="graph0" class="graph" transform="scale(1 1) rotate(0) translate(4 124)">
<title>/home/kali/projects/vsomeip/implementation/helper/1.74/boost/asio/basic_datagram_socket_ext.hpp</title>
<polygon fill="white" stroke="transparent" points="-4,4 -4,-124 1386,-124 1386,4 -4,4"/>
<!-- Node1 -->
<g id="node1" class="node">
<title>Node1</title>
<g id="a_node1"><a xlink:title=" ">
<polygon fill="#bfbfbf" stroke="black" points="607.5,-67.5 607.5,-119.5 783.5,-119.5 783.5,-67.5 607.5,-67.5"/>
<text text-anchor="start" x="615.5" y="-107.5" font-family="Helvetica,sans-Serif" font-size="10.00">/home/kali/projects</text>
<text text-anchor="start" x="615.5" y="-96.5" font-family="Helvetica,sans-Serif" font-size="10.00">/vsomeip/implementation</text>
<text text-anchor="start" x="615.5" y="-85.5" font-family="Helvetica,sans-Serif" font-size="10.00">/helper/1.74/boost/asio</text>
<text text-anchor="middle" x="695.5" y="-74.5" font-family="Helvetica,sans-Serif" font-size="10.00">/basic_datagram_socket_ext.hpp</text>
</a>
</g>
</g>
<!-- Node2 -->
<g id="node2" class="node">
<title>Node2</title>
<g id="a_node2"><a xlink:title=" ">
<polygon fill="white" stroke="#bfbfbf" points="0,-6 0,-25 151,-25 151,-6 0,-6"/>
<text text-anchor="middle" x="75.5" y="-13" font-family="Helvetica,sans-Serif" font-size="10.00">boost/asio/detail/config.hpp</text>
</a>
</g>
</g>
<!-- Node1&#45;&gt;Node2 -->
<g id="edge1" class="edge">
<title>Node1&#45;&gt;Node2</title>
<path fill="none" stroke="midnightblue" d="M607.1,-83.91C500.68,-73.21 316.65,-53.56 159.5,-31 150.67,-29.73 141.33,-28.26 132.23,-26.74"/>
<polygon fill="midnightblue" stroke="midnightblue" points="132.52,-23.24 122.08,-25.02 131.35,-30.14 132.52,-23.24"/>
</g>
<!-- Node3 -->
<g id="node3" class="node">
<title>Node3</title>
<g id="a_node3"><a xlink:title=" ">
<polygon fill="white" stroke="#bfbfbf" points="169,-6 169,-25 222,-25 222,-6 169,-6"/>
<text text-anchor="middle" x="195.5" y="-13" font-family="Helvetica,sans-Serif" font-size="10.00">cstddef</text>
</a>
</g>
</g>
<!-- Node1&#45;&gt;Node3 -->
<g id="edge2" class="edge">
<title>Node1&#45;&gt;Node3</title>
<path fill="none" stroke="midnightblue" d="M607.43,-87.43C513.15,-80.47 359.79,-64.76 231.5,-31 228.99,-30.34 226.42,-29.55 223.87,-28.69"/>
<polygon fill="midnightblue" stroke="midnightblue" points="224.85,-25.31 214.25,-25.09 222.39,-31.87 224.85,-25.31"/>
</g>
<!-- Node4 -->
<g id="node4" class="node">
<title>Node4</title>
<g id="a_node4"><a xlink:title=" ">
<polygon fill="white" stroke="#bfbfbf" points="240.5,-0.5 240.5,-30.5 372.5,-30.5 372.5,-0.5 240.5,-0.5"/>
<text text-anchor="start" x="248.5" y="-18.5" font-family="Helvetica,sans-Serif" font-size="10.00">boost/asio/basic_socket</text>
<text text-anchor="middle" x="306.5" y="-7.5" font-family="Helvetica,sans-Serif" font-size="10.00">_ext.hpp</text>
</a>
</g>
</g>
<!-- Node1&#45;&gt;Node4 -->
<g id="edge3" class="edge">
<title>Node1&#45;&gt;Node4</title>
<path fill="none" stroke="midnightblue" d="M607.23,-75.25C539.57,-62.03 447.16,-43.98 382.7,-31.39"/>
<polygon fill="midnightblue" stroke="midnightblue" points="383.09,-27.9 372.61,-29.42 381.75,-34.77 383.09,-27.9"/>
</g>
<!-- Node5 -->
<g id="node5" class="node">
<title>Node5</title>
<g id="a_node5"><a xlink:title=" ">
<polygon fill="white" stroke="#bfbfbf" points="390.5,-0.5 390.5,-30.5 546.5,-30.5 546.5,-0.5 390.5,-0.5"/>
<text text-anchor="start" x="398.5" y="-18.5" font-family="Helvetica,sans-Serif" font-size="10.00">boost/asio/detail/handler</text>
<text text-anchor="middle" x="468.5" y="-7.5" font-family="Helvetica,sans-Serif" font-size="10.00">_type_requirements_ext.hpp</text>
</a>
</g>
</g>
<!-- Node1&#45;&gt;Node5 -->
<g id="edge4" class="edge">
<title>Node1&#45;&gt;Node5</title>
<path fill="none" stroke="midnightblue" d="M620.54,-67.4C587.71,-56.41 549.99,-43.78 520.33,-33.85"/>
<polygon fill="midnightblue" stroke="midnightblue" points="521.2,-30.45 510.61,-30.6 518.98,-37.09 521.2,-30.45"/>
</g>
<!-- Node6 -->
<g id="node6" class="node">
<title>Node6</title>
<g id="a_node6"><a xlink:title=" ">
<polygon fill="white" stroke="#bfbfbf" points="565,-0.5 565,-30.5 684,-30.5 684,-0.5 565,-0.5"/>
<text text-anchor="start" x="573" y="-18.5" font-family="Helvetica,sans-Serif" font-size="10.00">boost/asio/detail/non</text>
<text text-anchor="middle" x="624.5" y="-7.5" font-family="Helvetica,sans-Serif" font-size="10.00">_const_lvalue.hpp</text>
</a>
</g>
</g>
<!-- Node1&#45;&gt;Node6 -->
<g id="edge5" class="edge">
<title>Node1&#45;&gt;Node6</title>
<path fill="none" stroke="midnightblue" d="M671.86,-67.19C663.12,-57.84 653.3,-47.33 644.88,-38.32"/>
<polygon fill="midnightblue" stroke="midnightblue" points="647.29,-35.76 637.9,-30.85 642.17,-40.54 647.29,-35.76"/>
</g>
<!-- Node7 -->
<g id="node7" class="node">
<title>Node7</title>
<g id="a_node7"><a xlink:title=" ">
<polygon fill="white" stroke="#bfbfbf" points="702.5,-0.5 702.5,-30.5 830.5,-30.5 830.5,-0.5 702.5,-0.5"/>
<text text-anchor="start" x="710.5" y="-18.5" font-family="Helvetica,sans-Serif" font-size="10.00">boost/asio/detail/throw</text>
<text text-anchor="middle" x="766.5" y="-7.5" font-family="Helvetica,sans-Serif" font-size="10.00">_error.hpp</text>
</a>
</g>
</g>
<!-- Node1&#45;&gt;Node7 -->
<g id="edge6" class="edge">
<title>Node1&#45;&gt;Node7</title>
<path fill="none" stroke="midnightblue" d="M719.14,-67.19C727.88,-57.84 737.7,-47.33 746.12,-38.32"/>
<polygon fill="midnightblue" stroke="midnightblue" points="748.83,-40.54 753.1,-30.85 743.71,-35.76 748.83,-40.54"/>
</g>
<!-- Node8 -->
<g id="node8" class="node">
<title>Node8</title>
<g id="a_node8"><a xlink:title=" ">
<polygon fill="white" stroke="#bfbfbf" points="848.5,-0.5 848.5,-30.5 970.5,-30.5 970.5,-0.5 848.5,-0.5"/>
<text text-anchor="start" x="856.5" y="-18.5" font-family="Helvetica,sans-Serif" font-size="10.00">boost/asio/detail/type</text>
<text text-anchor="middle" x="909.5" y="-7.5" font-family="Helvetica,sans-Serif" font-size="10.00">_traits.hpp</text>
</a>
</g>
</g>
<!-- Node1&#45;&gt;Node8 -->
<g id="edge7" class="edge">
<title>Node1&#45;&gt;Node8</title>
<path fill="none" stroke="midnightblue" d="M766.16,-67.4C796.98,-56.46 832.37,-43.89 860.27,-33.98"/>
<polygon fill="midnightblue" stroke="midnightblue" points="861.55,-37.24 869.81,-30.6 859.21,-30.65 861.55,-37.24"/>
</g>
<!-- Node9 -->
<g id="node9" class="node">
<title>Node9</title>
<g id="a_node9"><a xlink:title=" ">
<polygon fill="white" stroke="#bfbfbf" points="989,-6 989,-25 1102,-25 1102,-6 989,-6"/>
<text text-anchor="middle" x="1045.5" y="-13" font-family="Helvetica,sans-Serif" font-size="10.00">boost/asio/error.hpp</text>
</a>
</g>
</g>
<!-- Node1&#45;&gt;Node9 -->
<g id="edge8" class="edge">
<title>Node1&#45;&gt;Node9</title>
<path fill="none" stroke="midnightblue" d="M783.78,-73.45C839.85,-61.34 913.95,-45.3 979.5,-31 985.15,-29.77 991.08,-28.47 996.96,-27.18"/>
<polygon fill="midnightblue" stroke="midnightblue" points="997.75,-30.59 1006.77,-25.03 996.25,-23.75 997.75,-30.59"/>
</g>
<!-- Node10 -->
<g id="node10" class="node">
<title>Node10</title>
<g id="a_node10"><a xlink:title=" ">
<polygon fill="white" stroke="#bfbfbf" points="1120.5,-0.5 1120.5,-30.5 1244.5,-30.5 1244.5,-0.5 1120.5,-0.5"/>
<text text-anchor="start" x="1128.5" y="-18.5" font-family="Helvetica,sans-Serif" font-size="10.00">boost/asio/detail/push</text>
<text text-anchor="middle" x="1182.5" y="-7.5" font-family="Helvetica,sans-Serif" font-size="10.00">_options.hpp</text>
</a>
</g>
</g>
<!-- Node1&#45;&gt;Node10 -->
<g id="edge9" class="edge">
<title>Node1&#45;&gt;Node10</title>
<path fill="none" stroke="midnightblue" d="M783.78,-80.88C865.83,-69.74 991.68,-51.84 1110.22,-31.17"/>
<polygon fill="midnightblue" stroke="midnightblue" points="1110.95,-34.6 1120.2,-29.42 1109.74,-27.7 1110.95,-34.6"/>
</g>
<!-- Node11 -->
<g id="node11" class="node">
<title>Node11</title>
<g id="a_node11"><a xlink:title=" ">
<polygon fill="white" stroke="#bfbfbf" points="1263,-0.5 1263,-30.5 1382,-30.5 1382,-0.5 1263,-0.5"/>
<text text-anchor="start" x="1271" y="-18.5" font-family="Helvetica,sans-Serif" font-size="10.00">boost/asio/detail/pop</text>
<text text-anchor="middle" x="1322.5" y="-7.5" font-family="Helvetica,sans-Serif" font-size="10.00">_options.hpp</text>
</a>
</g>
</g>
<!-- Node1&#45;&gt;Node11 -->
<g id="edge10" class="edge">
<title>Node1&#45;&gt;Node11</title>
<path fill="none" stroke="midnightblue" d="M783.8,-85.44C892.01,-76.19 1081.08,-58.08 1252.75,-31.02"/>
<polygon fill="midnightblue" stroke="midnightblue" points="1253.4,-34.46 1262.73,-29.43 1252.3,-27.55 1253.4,-34.46"/>
</g>
</g>
</svg>
