<?xml version="1.0" encoding="UTF-8" standalone="no"?>
<!DOCTYPE svg PUBLIC "-//W3C//DTD SVG 1.1//EN"
 "http://www.w3.org/Graphics/SVG/1.1/DTD/svg11.dtd">
<!-- Generated by graphviz version 2.43.0 (0)
 -->
<!-- Title: /home/kali/projects/vsomeip/implementation/helper/1.74/boost/asio/basic_socket_acceptor_ext.hpp Pages: 1 -->
<svg width="2084pt" height="128pt"
 viewBox="0.00 0.00 2084.00 128.00" xmlns="http://www.w3.org/2000/svg" xmlns:xlink="http://www.w3.org/1999/xlink">
<g id="graph0" class="graph" transform="scale(1 1) rotate(0) translate(4 124)">
<title>/home/kali/projects/vsomeip/implementation/helper/1.74/boost/asio/basic_socket_acceptor_ext.hpp</title>
<polygon fill="white" stroke="transparent" points="-4,4 -4,-124 2080,-124 2080,4 -4,4"/>
<!-- Node1 -->
<g id="node1" class="node">
<title>Node1</title>
<g id="a_node1"><a xlink:title=" ">
<polygon fill="#bfbfbf" stroke="black" points="949,-67.5 949,-119.5 1120,-119.5 1120,-67.5 949,-67.5"/>
<text text-anchor="start" x="957" y="-107.5" font-family="Helvetica,sans-Serif" font-size="10.00">/home/kali/projects</text>
<text text-anchor="start" x="957" y="-96.5" font-family="Helvetica,sans-Serif" font-size="10.00">/vsomeip/implementation</text>
<text text-anchor="start" x="957" y="-85.5" font-family="Helvetica,sans-Serif" font-size="10.00">/helper/1.74/boost/asio</text>
<text text-anchor="middle" x="1034.5" y="-74.5" font-family="Helvetica,sans-Serif" font-size="10.00">/basic_socket_acceptor_ext.hpp</text>
</a>
</g>
</g>
<!-- Node2 -->
<g id="node2" class="node">
<title>Node2</title>
<g id="a_node2"><a xlink:title=" ">
<polygon fill="white" stroke="#bfbfbf" points="0,-6 0,-25 151,-25 151,-6 0,-6"/>
<text text-anchor="middle" x="75.5" y="-13" font-family="Helvetica,sans-Serif" font-size="10.00">boost/asio/detail/config.hpp</text>
</a>
</g>
</g>
<!-- Node1&#45;&gt;Node2 -->
<g id="edge1" class="edge">
<title>Node1&#45;&gt;Node2</title>
<path fill="none" stroke="midnightblue" d="M948.94,-89.29C792.15,-82.77 448.39,-65.6 160.5,-31 150.69,-29.82 140.29,-28.29 130.25,-26.66"/>
<polygon fill="midnightblue" stroke="midnightblue" points="130.81,-23.2 120.37,-25.01 129.66,-30.11 130.81,-23.2"/>
</g>
<!-- Node3 -->
<g id="node3" class="node">
<title>Node3</title>
<g id="a_node3"><a xlink:title=" ">
<polygon fill="white" stroke="#bfbfbf" points="169.5,-0.5 169.5,-30.5 301.5,-30.5 301.5,-0.5 169.5,-0.5"/>
<text text-anchor="start" x="177.5" y="-18.5" font-family="Helvetica,sans-Serif" font-size="10.00">boost/asio/basic_socket</text>
<text text-anchor="middle" x="235.5" y="-7.5" font-family="Helvetica,sans-Serif" font-size="10.00">_ext_local.hpp</text>
</a>
</g>
</g>
<!-- Node1&#45;&gt;Node3 -->
<g id="edge2" class="edge">
<title>Node1&#45;&gt;Node3</title>
<path fill="none" stroke="midnightblue" d="M948.91,-88.18C815.02,-80.77 547.8,-63.36 311.84,-31.09"/>
<polygon fill="midnightblue" stroke="midnightblue" points="312.07,-27.59 301.69,-29.69 311.12,-34.53 312.07,-27.59"/>
</g>
<!-- Node4 -->
<g id="node4" class="node">
<title>Node4</title>
<g id="a_node4"><a xlink:title=" ">
<polygon fill="white" stroke="#bfbfbf" points="319.5,-0.5 319.5,-30.5 475.5,-30.5 475.5,-0.5 319.5,-0.5"/>
<text text-anchor="start" x="327.5" y="-18.5" font-family="Helvetica,sans-Serif" font-size="10.00">boost/asio/detail/handler</text>
<text text-anchor="middle" x="397.5" y="-7.5" font-family="Helvetica,sans-Serif" font-size="10.00">_type_requirements_ext.hpp</text>
</a>
</g>
</g>
<!-- Node1&#45;&gt;Node4 -->
<g id="edge3" class="edge">
<title>Node1&#45;&gt;Node4</title>
<path fill="none" stroke="midnightblue" d="M948.58,-84.34C842.31,-73.92 655.65,-54.55 485.85,-31.14"/>
<polygon fill="midnightblue" stroke="midnightblue" points="486.11,-27.65 475.72,-29.74 485.15,-34.58 486.11,-27.65"/>
</g>
<!-- Node5 -->
<g id="node5" class="node">
<title>Node5</title>
<g id="a_node5"><a xlink:title=" ">
<polygon fill="white" stroke="#bfbfbf" points="493.5,-0.5 493.5,-30.5 603.5,-30.5 603.5,-0.5 493.5,-0.5"/>
<text text-anchor="start" x="501.5" y="-18.5" font-family="Helvetica,sans-Serif" font-size="10.00">boost/asio/detail/io</text>
<text text-anchor="middle" x="548.5" y="-7.5" font-family="Helvetica,sans-Serif" font-size="10.00">_object_impl.hpp</text>
</a>
</g>
</g>
<!-- Node1&#45;&gt;Node5 -->
<g id="edge4" class="edge">
<title>Node1&#45;&gt;Node5</title>
<path fill="none" stroke="midnightblue" d="M948.91,-82.02C865.68,-71.37 735.5,-53.52 613.49,-31.1"/>
<polygon fill="midnightblue" stroke="midnightblue" points="614.07,-27.65 603.6,-29.27 612.8,-34.53 614.07,-27.65"/>
</g>
<!-- Node6 -->
<g id="node6" class="node">
<title>Node6</title>
<g id="a_node6"><a xlink:title=" ">
<polygon fill="white" stroke="#bfbfbf" points="622,-0.5 622,-30.5 741,-30.5 741,-0.5 622,-0.5"/>
<text text-anchor="start" x="630" y="-18.5" font-family="Helvetica,sans-Serif" font-size="10.00">boost/asio/detail/non</text>
<text text-anchor="middle" x="681.5" y="-7.5" font-family="Helvetica,sans-Serif" font-size="10.00">_const_lvalue.hpp</text>
</a>
</g>
</g>
<!-- Node1&#45;&gt;Node6 -->
<g id="edge5" class="edge">
<title>Node1&#45;&gt;Node6</title>
<path fill="none" stroke="midnightblue" d="M948.6,-74.01C887.95,-60.95 807.73,-43.68 751.09,-31.48"/>
<polygon fill="midnightblue" stroke="midnightblue" points="751.66,-28.03 741.15,-29.34 750.19,-34.87 751.66,-28.03"/>
</g>
<!-- Node7 -->
<g id="node7" class="node">
<title>Node7</title>
<g id="a_node7"><a xlink:title=" ">
<polygon fill="white" stroke="#bfbfbf" points="759.5,-0.5 759.5,-30.5 887.5,-30.5 887.5,-0.5 759.5,-0.5"/>
<text text-anchor="start" x="767.5" y="-18.5" font-family="Helvetica,sans-Serif" font-size="10.00">boost/asio/detail/throw</text>
<text text-anchor="middle" x="823.5" y="-7.5" font-family="Helvetica,sans-Serif" font-size="10.00">_error.hpp</text>
</a>
</g>
</g>
<!-- Node1&#45;&gt;Node7 -->
<g id="edge6" class="edge">
<title>Node1&#45;&gt;Node7</title>
<path fill="none" stroke="midnightblue" d="M964.83,-67.4C934.57,-56.51 899.85,-44 872.4,-34.11"/>
<polygon fill="midnightblue" stroke="midnightblue" points="873.23,-30.69 862.64,-30.6 870.86,-37.28 873.23,-30.69"/>
</g>
<!-- Node8 -->
<g id="node8" class="node">
<title>Node8</title>
<g id="a_node8"><a xlink:title=" ">
<polygon fill="white" stroke="#bfbfbf" points="905.5,-0.5 905.5,-30.5 1027.5,-30.5 1027.5,-0.5 905.5,-0.5"/>
<text text-anchor="start" x="913.5" y="-18.5" font-family="Helvetica,sans-Serif" font-size="10.00">boost/asio/detail/type</text>
<text text-anchor="middle" x="966.5" y="-7.5" font-family="Helvetica,sans-Serif" font-size="10.00">_traits.hpp</text>
</a>
</g>
</g>
<!-- Node1&#45;&gt;Node8 -->
<g id="edge7" class="edge">
<title>Node1&#45;&gt;Node8</title>
<path fill="none" stroke="midnightblue" d="M1011.86,-67.19C1003.49,-57.84 994.09,-47.33 986.02,-38.32"/>
<polygon fill="midnightblue" stroke="midnightblue" points="988.61,-35.96 979.34,-30.85 983.39,-40.63 988.61,-35.96"/>
</g>
<!-- Node9 -->
<g id="node9" class="node">
<title>Node9</title>
<g id="a_node9"><a xlink:title=" ">
<polygon fill="white" stroke="#bfbfbf" points="1046,-6 1046,-25 1159,-25 1159,-6 1046,-6"/>
<text text-anchor="middle" x="1102.5" y="-13" font-family="Helvetica,sans-Serif" font-size="10.00">boost/asio/error.hpp</text>
</a>
</g>
</g>
<!-- Node1&#45;&gt;Node9 -->
<g id="edge8" class="edge">
<title>Node1&#45;&gt;Node9</title>
<path fill="none" stroke="midnightblue" d="M1057.14,-67.19C1067.28,-55.86 1078.95,-42.82 1087.91,-32.81"/>
<polygon fill="midnightblue" stroke="midnightblue" points="1090.65,-35 1094.71,-25.21 1085.43,-30.33 1090.65,-35"/>
</g>
<!-- Node10 -->
<g id="node10" class="node">
<title>Node10</title>
<g id="a_node10"><a xlink:title=" ">
<polygon fill="white" stroke="#bfbfbf" points="1177,-0.5 1177,-30.5 1294,-30.5 1294,-0.5 1177,-0.5"/>
<text text-anchor="start" x="1185" y="-18.5" font-family="Helvetica,sans-Serif" font-size="10.00">boost/asio/execution</text>
<text text-anchor="middle" x="1235.5" y="-7.5" font-family="Helvetica,sans-Serif" font-size="10.00">_context.hpp</text>
</a>
</g>
</g>
<!-- Node1&#45;&gt;Node10 -->
<g id="edge9" class="edge">
<title>Node1&#45;&gt;Node10</title>
<path fill="none" stroke="midnightblue" d="M1100.87,-67.4C1129.57,-56.55 1162.47,-44.11 1188.57,-34.24"/>
<polygon fill="midnightblue" stroke="midnightblue" points="1190.1,-37.41 1198.22,-30.6 1187.63,-30.86 1190.1,-37.41"/>
</g>
<!-- Node11 -->
<g id="node11" class="node">
<title>Node11</title>
<g id="a_node11"><a xlink:title=" ">
<polygon fill="white" stroke="#bfbfbf" points="1312.5,-6 1312.5,-25 1444.5,-25 1444.5,-6 1312.5,-6"/>
<text text-anchor="middle" x="1378.5" y="-13" font-family="Helvetica,sans-Serif" font-size="10.00">boost/asio/executor.hpp</text>
</a>
</g>
</g>
<!-- Node1&#45;&gt;Node11 -->
<g id="edge10" class="edge">
<title>Node1&#45;&gt;Node11</title>
<path fill="none" stroke="midnightblue" d="M1120.42,-73.52C1186.41,-58.94 1275.19,-39.32 1329.55,-27.31"/>
<polygon fill="midnightblue" stroke="midnightblue" points="1330.61,-30.67 1339.62,-25.09 1329.1,-23.83 1330.61,-30.67"/>
</g>
<!-- Node12 -->
<g id="node12" class="node">
<title>Node12</title>
<g id="a_node12"><a xlink:title=" ">
<polygon fill="white" stroke="#bfbfbf" points="1463,-6 1463,-25 1614,-25 1614,-6 1463,-6"/>
<text text-anchor="middle" x="1538.5" y="-13" font-family="Helvetica,sans-Serif" font-size="10.00">boost/asio/socket_base.hpp</text>
</a>
</g>
</g>
<!-- Node1&#45;&gt;Node12 -->
<g id="edge11" class="edge">
<title>Node1&#45;&gt;Node12</title>
<path fill="none" stroke="midnightblue" d="M1120.05,-80.54C1204.79,-68.55 1338.23,-49.29 1453.5,-31 1461.9,-29.67 1470.75,-28.21 1479.44,-26.76"/>
<polygon fill="midnightblue" stroke="midnightblue" points="1480.26,-30.17 1489.54,-25.05 1479.1,-23.27 1480.26,-30.17"/>
</g>
<!-- Node13 -->
<g id="node13" class="node">
<title>Node13</title>
<g id="a_node13"><a xlink:title=" ">
<polygon fill="white" stroke="#bfbfbf" points="1632.5,-0.5 1632.5,-30.5 1796.5,-30.5 1796.5,-0.5 1632.5,-0.5"/>
<text text-anchor="start" x="1640.5" y="-18.5" font-family="Helvetica,sans-Serif" font-size="10.00">boost/asio/detail/reactive</text>
<text text-anchor="middle" x="1714.5" y="-7.5" font-family="Helvetica,sans-Serif" font-size="10.00">_socket_service_ext_local.hpp</text>
</a>
</g>
</g>
<!-- Node1&#45;&gt;Node13 -->
<g id="edge12" class="edge">
<title>Node1&#45;&gt;Node13</title>
<path fill="none" stroke="midnightblue" d="M1120.02,-85.03C1232.71,-74.86 1437.31,-55.26 1622.01,-31.15"/>
<polygon fill="midnightblue" stroke="midnightblue" points="1622.73,-34.59 1632.19,-29.82 1621.82,-27.65 1622.73,-34.59"/>
</g>
<!-- Node14 -->
<g id="node14" class="node">
<title>Node14</title>
<g id="a_node14"><a xlink:title=" ">
<polygon fill="white" stroke="#bfbfbf" points="1814.5,-0.5 1814.5,-30.5 1938.5,-30.5 1938.5,-0.5 1814.5,-0.5"/>
<text text-anchor="start" x="1822.5" y="-18.5" font-family="Helvetica,sans-Serif" font-size="10.00">boost/asio/detail/push</text>
<text text-anchor="middle" x="1876.5" y="-7.5" font-family="Helvetica,sans-Serif" font-size="10.00">_options.hpp</text>
</a>
</g>
</g>
<!-- Node1&#45;&gt;Node14 -->
<g id="edge13" class="edge">
<title>Node1&#45;&gt;Node14</title>
<path fill="none" stroke="midnightblue" d="M1120.16,-89.08C1260.98,-82.7 1550.28,-66.44 1804.08,-31.09"/>
<polygon fill="midnightblue" stroke="midnightblue" points="1804.82,-34.52 1814.24,-29.66 1803.85,-27.59 1804.82,-34.52"/>
</g>
<!-- Node15 -->
<g id="node15" class="node">
<title>Node15</title>
<g id="a_node15"><a xlink:title=" ">
<polygon fill="white" stroke="#bfbfbf" points="1957,-0.5 1957,-30.5 2076,-30.5 2076,-0.5 1957,-0.5"/>
<text text-anchor="start" x="1965" y="-18.5" font-family="Helvetica,sans-Serif" font-size="10.00">boost/asio/detail/pop</text>
<text text-anchor="middle" x="2016.5" y="-7.5" font-family="Helvetica,sans-Serif" font-size="10.00">_options.hpp</text>
</a>
</g>
</g>
<!-- Node1&#45;&gt;Node15 -->
<g id="edge14" class="edge">
<title>Node1&#45;&gt;Node15</title>
<path fill="none" stroke="midnightblue" d="M1120.18,-90.72C1280.64,-86.52 1637.38,-73.04 1946.69,-30.97"/>
<polygon fill="midnightblue" stroke="midnightblue" points="1947.32,-34.42 1956.75,-29.59 1946.37,-27.48 1947.32,-34.42"/>
</g>
</g>
</svg>
