<?xml version="1.0" encoding="UTF-8" standalone="no"?>
<!DOCTYPE svg PUBLIC "-//W3C//DTD SVG 1.1//EN"
 "http://www.w3.org/Graphics/SVG/1.1/DTD/svg11.dtd">
<!-- Generated by graphviz version 2.43.0 (0)
 -->
<!-- Title: /home/kali/projects/vsomeip/implementation/helper/1.76/boost/asio/detail/reactive_socket_recvmsg_op_ext.hpp Pages: 1 -->
<svg width="1999pt" height="139pt"
 viewBox="0.00 0.00 1999.00 139.00" xmlns="http://www.w3.org/2000/svg" xmlns:xlink="http://www.w3.org/1999/xlink">
<g id="graph0" class="graph" transform="scale(1 1) rotate(0) translate(4 135)">
<title>/home/kali/projects/vsomeip/implementation/helper/1.76/boost/asio/detail/reactive_socket_recvmsg_op_ext.hpp</title>
<polygon fill="white" stroke="transparent" points="-4,4 -4,-135 1995,-135 1995,4 -4,4"/>
<!-- Node1 -->
<g id="node1" class="node">
<title>Node1</title>
<g id="a_node1"><a xlink:title=" ">
<polygon fill="#bfbfbf" stroke="black" points="919,-67.5 919,-130.5 1062,-130.5 1062,-67.5 919,-67.5"/>
<text text-anchor="start" x="927" y="-118.5" font-family="Helvetica,sans-Serif" font-size="10.00">/home/kali/projects</text>
<text text-anchor="start" x="927" y="-107.5" font-family="Helvetica,sans-Serif" font-size="10.00">/vsomeip/implementation</text>
<text text-anchor="start" x="927" y="-96.5" font-family="Helvetica,sans-Serif" font-size="10.00">/helper/1.76/boost/asio</text>
<text text-anchor="start" x="927" y="-85.5" font-family="Helvetica,sans-Serif" font-size="10.00">/detail/reactive_socket</text>
<text text-anchor="middle" x="990.5" y="-74.5" font-family="Helvetica,sans-Serif" font-size="10.00">_recvmsg_op_ext.hpp</text>
</a>
</g>
</g>
<!-- Node2 -->
<g id="node2" class="node">
<title>Node2</title>
<g id="a_node2"><a xlink:title=" ">
<polygon fill="white" stroke="#bfbfbf" points="0,-6 0,-25 151,-25 151,-6 0,-6"/>
<text text-anchor="middle" x="75.5" y="-13" font-family="Helvetica,sans-Serif" font-size="10.00">boost/asio/detail/config.hpp</text>
</a>
</g>
</g>
<!-- Node1&#45;&gt;Node2 -->
<g id="edge1" class="edge">
<title>Node1&#45;&gt;Node2</title>
<path fill="none" stroke="midnightblue" d="M918.95,-94.36C774.95,-86.56 440.03,-66.06 160.5,-31 151.02,-29.81 140.98,-28.31 131.26,-26.74"/>
<polygon fill="midnightblue" stroke="midnightblue" points="131.71,-23.26 121.27,-25.07 130.56,-30.17 131.71,-23.26"/>
</g>
<!-- Node3 -->
<g id="node3" class="node">
<title>Node3</title>
<g id="a_node3"><a xlink:title=" ">
<polygon fill="white" stroke="#bfbfbf" points="169.5,-0.5 169.5,-30.5 291.5,-30.5 291.5,-0.5 169.5,-0.5"/>
<text text-anchor="start" x="177.5" y="-18.5" font-family="Helvetica,sans-Serif" font-size="10.00">boost/asio/detail/bind</text>
<text text-anchor="middle" x="230.5" y="-7.5" font-family="Helvetica,sans-Serif" font-size="10.00">_handler.hpp</text>
</a>
</g>
</g>
<!-- Node1&#45;&gt;Node3 -->
<g id="edge2" class="edge">
<title>Node1&#45;&gt;Node3</title>
<path fill="none" stroke="midnightblue" d="M918.67,-93.58C794.67,-85.38 532.37,-65.59 301.44,-31.04"/>
<polygon fill="midnightblue" stroke="midnightblue" points="301.92,-27.57 291.51,-29.54 300.88,-34.49 301.92,-27.57"/>
</g>
<!-- Node4 -->
<g id="node4" class="node">
<title>Node4</title>
<g id="a_node4"><a xlink:title=" ">
<polygon fill="white" stroke="#bfbfbf" points="310,-0.5 310,-30.5 441,-30.5 441,-0.5 310,-0.5"/>
<text text-anchor="start" x="318" y="-18.5" font-family="Helvetica,sans-Serif" font-size="10.00">boost/asio/detail/buffer</text>
<text text-anchor="middle" x="375.5" y="-7.5" font-family="Helvetica,sans-Serif" font-size="10.00">_sequence_adapter.hpp</text>
</a>
</g>
</g>
<!-- Node1&#45;&gt;Node4 -->
<g id="edge3" class="edge">
<title>Node1&#45;&gt;Node4</title>
<path fill="none" stroke="midnightblue" d="M918.66,-90.65C816.95,-79.89 625,-58.32 451.39,-31.08"/>
<polygon fill="midnightblue" stroke="midnightblue" points="451.73,-27.59 441.31,-29.48 450.64,-34.5 451.73,-27.59"/>
</g>
<!-- Node5 -->
<g id="node5" class="node">
<title>Node5</title>
<g id="a_node5"><a xlink:title=" ">
<polygon fill="white" stroke="#bfbfbf" points="459.5,-0.5 459.5,-30.5 593.5,-30.5 593.5,-0.5 459.5,-0.5"/>
<text text-anchor="start" x="467.5" y="-18.5" font-family="Helvetica,sans-Serif" font-size="10.00">boost/asio/detail/fenced</text>
<text text-anchor="middle" x="526.5" y="-7.5" font-family="Helvetica,sans-Serif" font-size="10.00">_block.hpp</text>
</a>
</g>
</g>
<!-- Node1&#45;&gt;Node5 -->
<g id="edge4" class="edge">
<title>Node1&#45;&gt;Node5</title>
<path fill="none" stroke="midnightblue" d="M918.92,-86.03C843.22,-73.28 720.02,-52.28 603.77,-31.21"/>
<polygon fill="midnightblue" stroke="midnightblue" points="604.09,-27.71 593.62,-29.37 602.84,-34.6 604.09,-27.71"/>
</g>
<!-- Node6 -->
<g id="node6" class="node">
<title>Node6</title>
<g id="a_node6"><a xlink:title=" ">
<polygon fill="white" stroke="#bfbfbf" points="612,-0.5 612,-30.5 749,-30.5 749,-0.5 612,-0.5"/>
<text text-anchor="start" x="620" y="-18.5" font-family="Helvetica,sans-Serif" font-size="10.00">boost/asio/detail/handler</text>
<text text-anchor="middle" x="680.5" y="-7.5" font-family="Helvetica,sans-Serif" font-size="10.00">_alloc_helpers.hpp</text>
</a>
</g>
</g>
<!-- Node1&#45;&gt;Node6 -->
<g id="edge5" class="edge">
<title>Node1&#45;&gt;Node6</title>
<path fill="none" stroke="midnightblue" d="M918.99,-79.2C866.19,-65.32 794.95,-46.59 744.12,-33.23"/>
<polygon fill="midnightblue" stroke="midnightblue" points="744.8,-29.79 734.24,-30.63 743.02,-36.55 744.8,-29.79"/>
</g>
<!-- Node7 -->
<g id="node7" class="node">
<title>Node7</title>
<g id="a_node7"><a xlink:title=" ">
<polygon fill="white" stroke="#bfbfbf" points="767,-0.5 767,-30.5 904,-30.5 904,-0.5 767,-0.5"/>
<text text-anchor="start" x="775" y="-18.5" font-family="Helvetica,sans-Serif" font-size="10.00">boost/asio/detail/handler</text>
<text text-anchor="middle" x="835.5" y="-7.5" font-family="Helvetica,sans-Serif" font-size="10.00">_invoke_helpers.hpp</text>
</a>
</g>
</g>
<!-- Node1&#45;&gt;Node7 -->
<g id="edge6" class="edge">
<title>Node1&#45;&gt;Node7</title>
<path fill="none" stroke="midnightblue" d="M932.34,-67.42C911.86,-56.65 889.45,-44.87 871.35,-35.35"/>
<polygon fill="midnightblue" stroke="midnightblue" points="872.8,-32.16 862.32,-30.6 869.54,-38.35 872.8,-32.16"/>
</g>
<!-- Node8 -->
<g id="node8" class="node">
<title>Node8</title>
<g id="a_node8"><a xlink:title=" ">
<polygon fill="white" stroke="#bfbfbf" points="922,-0.5 922,-30.5 1059,-30.5 1059,-0.5 922,-0.5"/>
<text text-anchor="start" x="930" y="-18.5" font-family="Helvetica,sans-Serif" font-size="10.00">boost/asio/detail/handler</text>
<text text-anchor="middle" x="990.5" y="-7.5" font-family="Helvetica,sans-Serif" font-size="10.00">_work.hpp</text>
</a>
</g>
</g>
<!-- Node1&#45;&gt;Node8 -->
<g id="edge7" class="edge">
<title>Node1&#45;&gt;Node8</title>
<path fill="none" stroke="midnightblue" d="M990.5,-67.19C990.5,-58.41 990.5,-48.98 990.5,-40.66"/>
<polygon fill="midnightblue" stroke="midnightblue" points="994,-40.52 990.5,-30.52 987,-40.52 994,-40.52"/>
</g>
<!-- Node9 -->
<g id="node9" class="node">
<title>Node9</title>
<g id="a_node9"><a xlink:title=" ">
<polygon fill="white" stroke="#bfbfbf" points="1077,-6 1077,-25 1238,-25 1238,-6 1077,-6"/>
<text text-anchor="middle" x="1157.5" y="-13" font-family="Helvetica,sans-Serif" font-size="10.00">boost/asio/detail/memory.hpp</text>
</a>
</g>
</g>
<!-- Node1&#45;&gt;Node9 -->
<g id="edge8" class="edge">
<title>Node1&#45;&gt;Node9</title>
<path fill="none" stroke="midnightblue" d="M1053.16,-67.42C1080.01,-54.32 1109.92,-39.72 1130.81,-29.52"/>
<polygon fill="midnightblue" stroke="midnightblue" points="1132.56,-32.57 1140.01,-25.03 1129.49,-26.27 1132.56,-32.57"/>
</g>
<!-- Node10 -->
<g id="node10" class="node">
<title>Node10</title>
<g id="a_node10"><a xlink:title=" ">
<polygon fill="white" stroke="#bfbfbf" points="1256,-0.5 1256,-30.5 1391,-30.5 1391,-0.5 1256,-0.5"/>
<text text-anchor="start" x="1264" y="-18.5" font-family="Helvetica,sans-Serif" font-size="10.00">boost/asio/detail/reactor</text>
<text text-anchor="middle" x="1323.5" y="-7.5" font-family="Helvetica,sans-Serif" font-size="10.00">_op_ext.hpp</text>
</a>
</g>
</g>
<!-- Node1&#45;&gt;Node10 -->
<g id="edge9" class="edge">
<title>Node1&#45;&gt;Node10</title>
<path fill="none" stroke="midnightblue" d="M1062.35,-80.42C1119.88,-66.33 1200,-46.73 1256.28,-32.95"/>
<polygon fill="midnightblue" stroke="midnightblue" points="1257.27,-36.31 1266.15,-30.54 1255.61,-29.51 1257.27,-36.31"/>
</g>
<!-- Node11 -->
<g id="node11" class="node">
<title>Node11</title>
<g id="a_node11"><a xlink:title=" ">
<polygon fill="white" stroke="#bfbfbf" points="1409.5,-0.5 1409.5,-30.5 1541.5,-30.5 1541.5,-0.5 1409.5,-0.5"/>
<text text-anchor="start" x="1417.5" y="-18.5" font-family="Helvetica,sans-Serif" font-size="10.00">boost/asio/detail/socket</text>
<text text-anchor="middle" x="1475.5" y="-7.5" font-family="Helvetica,sans-Serif" font-size="10.00">_ops_ext.hpp</text>
</a>
</g>
</g>
<!-- Node1&#45;&gt;Node11 -->
<g id="edge10" class="edge">
<title>Node1&#45;&gt;Node11</title>
<path fill="none" stroke="midnightblue" d="M1062.08,-86.95C1141.83,-74.49 1274.86,-53.27 1399.19,-31.21"/>
<polygon fill="midnightblue" stroke="midnightblue" points="1400.03,-34.61 1409.27,-29.41 1398.81,-27.72 1400.03,-34.61"/>
</g>
<!-- Node12 -->
<g id="node12" class="node">
<title>Node12</title>
<g id="a_node12"><a xlink:title=" ">
<polygon fill="white" stroke="#bfbfbf" points="1560,-6 1560,-25 1711,-25 1711,-6 1560,-6"/>
<text text-anchor="middle" x="1635.5" y="-13" font-family="Helvetica,sans-Serif" font-size="10.00">boost/asio/socket_base.hpp</text>
</a>
</g>
</g>
<!-- Node1&#45;&gt;Node12 -->
<g id="edge11" class="edge">
<title>Node1&#45;&gt;Node12</title>
<path fill="none" stroke="midnightblue" d="M1062.25,-90.57C1168.94,-79.27 1375.59,-56.37 1550.5,-31 1559.33,-29.72 1568.65,-28.25 1577.76,-26.75"/>
<polygon fill="midnightblue" stroke="midnightblue" points="1578.63,-30.15 1587.91,-25.05 1577.47,-23.25 1578.63,-30.15"/>
</g>
<!-- Node13 -->
<g id="node13" class="node">
<title>Node13</title>
<g id="a_node13"><a xlink:title=" ">
<polygon fill="white" stroke="#bfbfbf" points="1729.5,-0.5 1729.5,-30.5 1853.5,-30.5 1853.5,-0.5 1729.5,-0.5"/>
<text text-anchor="start" x="1737.5" y="-18.5" font-family="Helvetica,sans-Serif" font-size="10.00">boost/asio/detail/push</text>
<text text-anchor="middle" x="1791.5" y="-7.5" font-family="Helvetica,sans-Serif" font-size="10.00">_options.hpp</text>
</a>
</g>
</g>
<!-- Node1&#45;&gt;Node13 -->
<g id="edge12" class="edge">
<title>Node1&#45;&gt;Node13</title>
<path fill="none" stroke="midnightblue" d="M1062.05,-94.05C1191.36,-86.34 1472.66,-66.95 1719.01,-31.12"/>
<polygon fill="midnightblue" stroke="midnightblue" points="1719.84,-34.53 1729.23,-29.62 1718.83,-27.61 1719.84,-34.53"/>
</g>
<!-- Node14 -->
<g id="node14" class="node">
<title>Node14</title>
<g id="a_node14"><a xlink:title=" ">
<polygon fill="white" stroke="#bfbfbf" points="1872,-0.5 1872,-30.5 1991,-30.5 1991,-0.5 1872,-0.5"/>
<text text-anchor="start" x="1880" y="-18.5" font-family="Helvetica,sans-Serif" font-size="10.00">boost/asio/detail/pop</text>
<text text-anchor="middle" x="1931.5" y="-7.5" font-family="Helvetica,sans-Serif" font-size="10.00">_options.hpp</text>
</a>
</g>
</g>
<!-- Node1&#45;&gt;Node14 -->
<g id="edge13" class="edge">
<title>Node1&#45;&gt;Node14</title>
<path fill="none" stroke="midnightblue" d="M1062.05,-95.66C1209.77,-90.15 1559.18,-73.58 1861.46,-31.02"/>
<polygon fill="midnightblue" stroke="midnightblue" points="1862.34,-34.43 1871.75,-29.55 1861.35,-27.5 1862.34,-34.43"/>
</g>
</g>
</svg>
