<?xml version="1.0" encoding="UTF-8" standalone="no"?>
<!DOCTYPE svg PUBLIC "-//W3C//DTD SVG 1.1//EN"
 "http://www.w3.org/Graphics/SVG/1.1/DTD/svg11.dtd">
<!-- Generated by graphviz version 2.43.0 (0)
 -->
<!-- Title: /home/kali/projects/vsomeip/implementation/helper/1.76/boost/asio/basic_stream_socket_ext.hpp Pages: 1 -->
<svg width="1401pt" height="139pt"
 viewBox="0.00 0.00 1401.00 139.00" xmlns="http://www.w3.org/2000/svg" xmlns:xlink="http://www.w3.org/1999/xlink">
<g id="graph0" class="graph" transform="scale(1 1) rotate(0) translate(4 135)">
<title>/home/kali/projects/vsomeip/implementation/helper/1.76/boost/asio/basic_stream_socket_ext.hpp</title>
<polygon fill="white" stroke="transparent" points="-4,4 -4,-135 1397,-135 1397,4 -4,4"/>
<!-- Node1 -->
<g id="node1" class="node">
<title>Node1</title>
<g id="a_node1"><a xlink:title=" ">
<polygon fill="#bfbfbf" stroke="black" points="620.5,-78.5 620.5,-130.5 784.5,-130.5 784.5,-78.5 620.5,-78.5"/>
<text text-anchor="start" x="628.5" y="-118.5" font-family="Helvetica,sans-Serif" font-size="10.00">/home/kali/projects</text>
<text text-anchor="start" x="628.5" y="-107.5" font-family="Helvetica,sans-Serif" font-size="10.00">/vsomeip/implementation</text>
<text text-anchor="start" x="628.5" y="-96.5" font-family="Helvetica,sans-Serif" font-size="10.00">/helper/1.76/boost/asio</text>
<text text-anchor="middle" x="702.5" y="-85.5" font-family="Helvetica,sans-Serif" font-size="10.00">/basic_stream_socket_ext.hpp</text>
</a>
</g>
</g>
<!-- Node2 -->
<g id="node2" class="node">
<title>Node2</title>
<g id="a_node2"><a xlink:title=" ">
<polygon fill="white" stroke="#bfbfbf" points="0,-11.5 0,-30.5 151,-30.5 151,-11.5 0,-11.5"/>
<text text-anchor="middle" x="75.5" y="-18.5" font-family="Helvetica,sans-Serif" font-size="10.00">boost/asio/detail/config.hpp</text>
</a>
</g>
</g>
<!-- Node1&#45;&gt;Node2 -->
<g id="edge1" class="edge">
<title>Node1&#45;&gt;Node2</title>
<path fill="none" stroke="midnightblue" d="M620.18,-97.3C513.42,-88.54 321.64,-70.38 159.5,-42 145.61,-39.57 130.6,-36.23 117.15,-32.97"/>
<polygon fill="midnightblue" stroke="midnightblue" points="117.77,-29.52 107.22,-30.51 116.09,-36.31 117.77,-29.52"/>
</g>
<!-- Node3 -->
<g id="node3" class="node">
<title>Node3</title>
<g id="a_node3"><a xlink:title=" ">
<polygon fill="white" stroke="#bfbfbf" points="169,-11.5 169,-30.5 222,-30.5 222,-11.5 169,-11.5"/>
<text text-anchor="middle" x="195.5" y="-18.5" font-family="Helvetica,sans-Serif" font-size="10.00">cstddef</text>
</a>
</g>
</g>
<!-- Node1&#45;&gt;Node3 -->
<g id="edge2" class="edge">
<title>Node1&#45;&gt;Node3</title>
<path fill="none" stroke="midnightblue" d="M620.44,-102.07C524.8,-98.31 363.07,-85.38 231.5,-42 226.66,-40.4 221.73,-38.15 217.13,-35.72"/>
<polygon fill="midnightblue" stroke="midnightblue" points="218.7,-32.59 208.29,-30.66 215.23,-38.67 218.7,-32.59"/>
</g>
<!-- Node4 -->
<g id="node4" class="node">
<title>Node4</title>
<g id="a_node4"><a xlink:title=" ">
<polygon fill="white" stroke="#bfbfbf" points="240.5,-11.5 240.5,-30.5 392.5,-30.5 392.5,-11.5 240.5,-11.5"/>
<text text-anchor="middle" x="316.5" y="-18.5" font-family="Helvetica,sans-Serif" font-size="10.00">boost/asio/async_result.hpp</text>
</a>
</g>
</g>
<!-- Node1&#45;&gt;Node4 -->
<g id="edge3" class="edge">
<title>Node1&#45;&gt;Node4</title>
<path fill="none" stroke="midnightblue" d="M620.28,-87.38C559.7,-75.34 475.34,-58.23 401.5,-42 388.53,-39.15 374.49,-35.91 361.62,-32.88"/>
<polygon fill="midnightblue" stroke="midnightblue" points="362.14,-29.4 351.6,-30.5 360.52,-36.22 362.14,-29.4"/>
</g>
<!-- Node5 -->
<g id="node5" class="node">
<title>Node5</title>
<g id="a_node5"><a xlink:title=" ">
<polygon fill="white" stroke="#bfbfbf" points="410.5,-6 410.5,-36 542.5,-36 542.5,-6 410.5,-6"/>
<text text-anchor="start" x="418.5" y="-24" font-family="Helvetica,sans-Serif" font-size="10.00">boost/asio/basic_socket</text>
<text text-anchor="middle" x="476.5" y="-13" font-family="Helvetica,sans-Serif" font-size="10.00">_ext_local.hpp</text>
</a>
</g>
</g>
<!-- Node1&#45;&gt;Node5 -->
<g id="edge4" class="edge">
<title>Node1&#45;&gt;Node5</title>
<path fill="none" stroke="midnightblue" d="M633.16,-78.49C598.12,-65.86 556.45,-50.83 524.91,-39.46"/>
<polygon fill="midnightblue" stroke="midnightblue" points="526.05,-36.15 515.46,-36.05 523.68,-42.73 526.05,-36.15"/>
</g>
<!-- Node6 -->
<g id="node6" class="node">
<title>Node6</title>
<g id="a_node6"><a xlink:title=" ">
<polygon fill="white" stroke="#bfbfbf" points="561,-0.5 561,-41.5 698,-41.5 698,-0.5 561,-0.5"/>
<text text-anchor="start" x="569" y="-29.5" font-family="Helvetica,sans-Serif" font-size="10.00">boost/asio/detail/handler</text>
<text text-anchor="start" x="569" y="-18.5" font-family="Helvetica,sans-Serif" font-size="10.00">_type_requirements_ext</text>
<text text-anchor="middle" x="629.5" y="-7.5" font-family="Helvetica,sans-Serif" font-size="10.00">_local.hpp</text>
</a>
</g>
</g>
<!-- Node1&#45;&gt;Node6 -->
<g id="edge5" class="edge">
<title>Node1&#45;&gt;Node6</title>
<path fill="none" stroke="midnightblue" d="M679.8,-78.16C671.56,-68.96 662.22,-58.53 653.85,-49.18"/>
<polygon fill="midnightblue" stroke="midnightblue" points="656.36,-46.74 647.08,-41.63 651.15,-51.41 656.36,-46.74"/>
</g>
<!-- Node7 -->
<g id="node7" class="node">
<title>Node7</title>
<g id="a_node7"><a xlink:title=" ">
<polygon fill="white" stroke="#bfbfbf" points="716,-6 716,-36 835,-36 835,-6 716,-6"/>
<text text-anchor="start" x="724" y="-24" font-family="Helvetica,sans-Serif" font-size="10.00">boost/asio/detail/non</text>
<text text-anchor="middle" x="775.5" y="-13" font-family="Helvetica,sans-Serif" font-size="10.00">_const_lvalue.hpp</text>
</a>
</g>
</g>
<!-- Node1&#45;&gt;Node7 -->
<g id="edge6" class="edge">
<title>Node1&#45;&gt;Node7</title>
<path fill="none" stroke="midnightblue" d="M725.2,-78.16C735.07,-67.14 746.52,-54.35 756,-43.77"/>
<polygon fill="midnightblue" stroke="midnightblue" points="758.75,-45.95 762.81,-36.17 753.53,-41.28 758.75,-45.95"/>
</g>
<!-- Node8 -->
<g id="node8" class="node">
<title>Node8</title>
<g id="a_node8"><a xlink:title=" ">
<polygon fill="white" stroke="#bfbfbf" points="853.5,-6 853.5,-36 981.5,-36 981.5,-6 853.5,-6"/>
<text text-anchor="start" x="861.5" y="-24" font-family="Helvetica,sans-Serif" font-size="10.00">boost/asio/detail/throw</text>
<text text-anchor="middle" x="917.5" y="-13" font-family="Helvetica,sans-Serif" font-size="10.00">_error.hpp</text>
</a>
</g>
</g>
<!-- Node1&#45;&gt;Node8 -->
<g id="edge7" class="edge">
<title>Node1&#45;&gt;Node8</title>
<path fill="none" stroke="midnightblue" d="M768.47,-78.49C801.66,-65.91 841.1,-50.96 871.06,-39.6"/>
<polygon fill="midnightblue" stroke="midnightblue" points="872.33,-42.87 880.44,-36.05 869.84,-36.32 872.33,-42.87"/>
</g>
<!-- Node9 -->
<g id="node9" class="node">
<title>Node9</title>
<g id="a_node9"><a xlink:title=" ">
<polygon fill="white" stroke="#bfbfbf" points="1000,-11.5 1000,-30.5 1113,-30.5 1113,-11.5 1000,-11.5"/>
<text text-anchor="middle" x="1056.5" y="-18.5" font-family="Helvetica,sans-Serif" font-size="10.00">boost/asio/error.hpp</text>
</a>
</g>
</g>
<!-- Node1&#45;&gt;Node9 -->
<g id="edge8" class="edge">
<title>Node1&#45;&gt;Node9</title>
<path fill="none" stroke="midnightblue" d="M784.55,-87.88C842.41,-76.41 921.56,-59.77 990.5,-42 1000.22,-39.49 1010.66,-36.48 1020.3,-33.57"/>
<polygon fill="midnightblue" stroke="midnightblue" points="1021.46,-36.87 1029.99,-30.59 1019.4,-30.18 1021.46,-36.87"/>
</g>
<!-- Node10 -->
<g id="node10" class="node">
<title>Node10</title>
<g id="a_node10"><a xlink:title=" ">
<polygon fill="white" stroke="#bfbfbf" points="1131.5,-6 1131.5,-36 1255.5,-36 1255.5,-6 1131.5,-6"/>
<text text-anchor="start" x="1139.5" y="-24" font-family="Helvetica,sans-Serif" font-size="10.00">boost/asio/detail/push</text>
<text text-anchor="middle" x="1193.5" y="-13" font-family="Helvetica,sans-Serif" font-size="10.00">_options.hpp</text>
</a>
</g>
</g>
<!-- Node1&#45;&gt;Node10 -->
<g id="edge9" class="edge">
<title>Node1&#45;&gt;Node10</title>
<path fill="none" stroke="midnightblue" d="M784.75,-94.64C869.83,-84.74 1006.28,-66.77 1122.5,-42 1127.19,-41 1132.02,-39.87 1136.85,-38.66"/>
<polygon fill="midnightblue" stroke="midnightblue" points="1137.94,-41.99 1146.74,-36.09 1136.18,-35.22 1137.94,-41.99"/>
</g>
<!-- Node11 -->
<g id="node11" class="node">
<title>Node11</title>
<g id="a_node11"><a xlink:title=" ">
<polygon fill="white" stroke="#bfbfbf" points="1274,-6 1274,-36 1393,-36 1393,-6 1274,-6"/>
<text text-anchor="start" x="1282" y="-24" font-family="Helvetica,sans-Serif" font-size="10.00">boost/asio/detail/pop</text>
<text text-anchor="middle" x="1333.5" y="-13" font-family="Helvetica,sans-Serif" font-size="10.00">_options.hpp</text>
</a>
</g>
</g>
<!-- Node1&#45;&gt;Node11 -->
<g id="edge10" class="edge">
<title>Node1&#45;&gt;Node11</title>
<path fill="none" stroke="midnightblue" d="M784.61,-98.98C894.68,-91.91 1095.77,-75.42 1264.5,-42 1269.42,-41.03 1274.5,-39.86 1279.56,-38.6"/>
<polygon fill="midnightblue" stroke="midnightblue" points="1280.46,-41.98 1289.24,-36.05 1278.68,-35.21 1280.46,-41.98"/>
</g>
</g>
</svg>
