<?xml version="1.0" encoding="UTF-8" standalone="no"?>
<!DOCTYPE svg PUBLIC "-//W3C//DTD SVG 1.1//EN"
 "http://www.w3.org/Graphics/SVG/1.1/DTD/svg11.dtd">
<!-- Generated by graphviz version 2.43.0 (0)
 -->
<!-- Title: /home/kali/projects/vsomeip/implementation/helper/1.76/boost/asio/detail/impl/reactive_socket_service_base_ext_local.ipp Pages: 1 -->
<svg width="600pt" height="150pt"
 viewBox="0.00 0.00 600.00 150.00" xmlns="http://www.w3.org/2000/svg" xmlns:xlink="http://www.w3.org/1999/xlink">
<g id="graph0" class="graph" transform="scale(1 1) rotate(0) translate(4 146)">
<title>/home/kali/projects/vsomeip/implementation/helper/1.76/boost/asio/detail/impl/reactive_socket_service_base_ext_local.ipp</title>
<polygon fill="white" stroke="transparent" points="-4,4 -4,-146 596,-146 596,4 -4,4"/>
<!-- Node1 -->
<g id="node1" class="node">
<title>Node1</title>
<g id="a_node1"><a xlink:title=" ">
<polygon fill="#bfbfbf" stroke="black" points="240,-78.5 240,-141.5 393,-141.5 393,-78.5 240,-78.5"/>
<text text-anchor="start" x="248" y="-129.5" font-family="Helvetica,sans-Serif" font-size="10.00">/home/kali/projects</text>
<text text-anchor="start" x="248" y="-118.5" font-family="Helvetica,sans-Serif" font-size="10.00">/vsomeip/implementation</text>
<text text-anchor="start" x="248" y="-107.5" font-family="Helvetica,sans-Serif" font-size="10.00">/helper/1.76/boost/asio</text>
<text text-anchor="start" x="248" y="-96.5" font-family="Helvetica,sans-Serif" font-size="10.00">/detail/impl/reactive_socket</text>
<text text-anchor="middle" x="316.5" y="-85.5" font-family="Helvetica,sans-Serif" font-size="10.00">_service_base_ext_local.ipp</text>
</a>
</g>
</g>
<!-- Node2 -->
<g id="node2" class="node">
<title>Node2</title>
<g id="a_node2"><a xlink:title=" ">
<polygon fill="white" stroke="#bfbfbf" points="0,-11.5 0,-30.5 151,-30.5 151,-11.5 0,-11.5"/>
<text text-anchor="middle" x="75.5" y="-18.5" font-family="Helvetica,sans-Serif" font-size="10.00">boost/asio/detail/config.hpp</text>
</a>
</g>
</g>
<!-- Node1&#45;&gt;Node2 -->
<g id="edge1" class="edge">
<title>Node1&#45;&gt;Node2</title>
<path fill="none" stroke="midnightblue" d="M239.91,-81.35C195.82,-65.44 142.64,-46.24 108.94,-34.07"/>
<polygon fill="midnightblue" stroke="midnightblue" points="109.74,-30.64 99.14,-30.54 107.36,-37.22 109.74,-30.64"/>
</g>
<!-- Node3 -->
<g id="node3" class="node">
<title>Node3</title>
<g id="a_node3"><a xlink:title=" ">
<polygon fill="white" stroke="#bfbfbf" points="169,-0.5 169,-41.5 312,-41.5 312,-0.5 169,-0.5"/>
<text text-anchor="start" x="177" y="-29.5" font-family="Helvetica,sans-Serif" font-size="10.00">boost/asio/detail/reactive</text>
<text text-anchor="start" x="177" y="-18.5" font-family="Helvetica,sans-Serif" font-size="10.00">_socket_service_base_ext</text>
<text text-anchor="middle" x="240.5" y="-7.5" font-family="Helvetica,sans-Serif" font-size="10.00">_local.hpp</text>
</a>
</g>
</g>
<!-- Node1&#45;&gt;Node3 -->
<g id="edge2" class="edge">
<title>Node1&#45;&gt;Node3</title>
<path fill="none" stroke="midnightblue" d="M289.49,-78.08C281.31,-68.71 272.38,-58.49 264.41,-49.38"/>
<polygon fill="midnightblue" stroke="midnightblue" points="266.92,-46.92 257.7,-41.69 261.65,-51.53 266.92,-46.92"/>
</g>
<!-- Node4 -->
<g id="node4" class="node">
<title>Node4</title>
<g id="a_node4"><a xlink:title=" ">
<polygon fill="white" stroke="#bfbfbf" points="330.5,-6 330.5,-36 454.5,-36 454.5,-6 330.5,-6"/>
<text text-anchor="start" x="338.5" y="-24" font-family="Helvetica,sans-Serif" font-size="10.00">boost/asio/detail/push</text>
<text text-anchor="middle" x="392.5" y="-13" font-family="Helvetica,sans-Serif" font-size="10.00">_options.hpp</text>
</a>
</g>
</g>
<!-- Node1&#45;&gt;Node4 -->
<g id="edge3" class="edge">
<title>Node1&#45;&gt;Node4</title>
<path fill="none" stroke="midnightblue" d="M343.51,-78.08C353.34,-66.83 364.24,-54.35 373.26,-44.02"/>
<polygon fill="midnightblue" stroke="midnightblue" points="376.09,-46.1 380.04,-36.27 370.82,-41.49 376.09,-46.1"/>
</g>
<!-- Node5 -->
<g id="node5" class="node">
<title>Node5</title>
<g id="a_node5"><a xlink:title=" ">
<polygon fill="white" stroke="#bfbfbf" points="473,-6 473,-36 592,-36 592,-6 473,-6"/>
<text text-anchor="start" x="481" y="-24" font-family="Helvetica,sans-Serif" font-size="10.00">boost/asio/detail/pop</text>
<text text-anchor="middle" x="532.5" y="-13" font-family="Helvetica,sans-Serif" font-size="10.00">_options.hpp</text>
</a>
</g>
</g>
<!-- Node1&#45;&gt;Node5 -->
<g id="edge4" class="edge">
<title>Node1&#45;&gt;Node5</title>
<path fill="none" stroke="midnightblue" d="M392.35,-78.45C424.43,-65.53 460.67,-50.93 488.26,-39.82"/>
<polygon fill="midnightblue" stroke="midnightblue" points="489.67,-43.02 497.64,-36.04 487.06,-36.53 489.67,-43.02"/>
</g>
</g>
</svg>
