<?xml version="1.0" encoding="UTF-8" standalone="no"?>
<!DOCTYPE svg PUBLIC "-//W3C//DTD SVG 1.1//EN"
 "http://www.w3.org/Graphics/SVG/1.1/DTD/svg11.dtd">
<!-- Generated by graphviz version 2.43.0 (0)
 -->
<!-- Title: /home/kali/projects/vsomeip/implementation/helper/1.70/boost/asio/detail/reactive_socket_recvfrom_op_ext.hpp Pages: 1 -->
<svg width="1364pt" height="139pt"
 viewBox="0.00 0.00 1364.00 139.00" xmlns="http://www.w3.org/2000/svg" xmlns:xlink="http://www.w3.org/1999/xlink">
<g id="graph0" class="graph" transform="scale(1 1) rotate(0) translate(4 135)">
<title>/home/kali/projects/vsomeip/implementation/helper/1.70/boost/asio/detail/reactive_socket_recvfrom_op_ext.hpp</title>
<polygon fill="white" stroke="transparent" points="-4,4 -4,-135 1360,-135 1360,4 -4,4"/>
<!-- Node1 -->
<g id="node1" class="node">
<title>Node1</title>
<g id="a_node1"><a xlink:title=" ">
<polygon fill="#bfbfbf" stroke="black" points="621,-67.5 621,-130.5 764,-130.5 764,-67.5 621,-67.5"/>
<text text-anchor="start" x="629" y="-118.5" font-family="Helvetica,sans-Serif" font-size="10.00">/home/kali/projects</text>
<text text-anchor="start" x="629" y="-107.5" font-family="Helvetica,sans-Serif" font-size="10.00">/vsomeip/implementation</text>
<text text-anchor="start" x="629" y="-96.5" font-family="Helvetica,sans-Serif" font-size="10.00">/helper/1.70/boost/asio</text>
<text text-anchor="start" x="629" y="-85.5" font-family="Helvetica,sans-Serif" font-size="10.00">/detail/reactive_socket</text>
<text text-anchor="middle" x="692.5" y="-74.5" font-family="Helvetica,sans-Serif" font-size="10.00">_recvfrom_op_ext.hpp</text>
</a>
</g>
</g>
<!-- Node2 -->
<g id="node2" class="node">
<title>Node2</title>
<g id="a_node2"><a xlink:title=" ">
<polygon fill="white" stroke="#bfbfbf" points="0,-6 0,-25 151,-25 151,-6 0,-6"/>
<text text-anchor="middle" x="75.5" y="-13" font-family="Helvetica,sans-Serif" font-size="10.00">boost/asio/detail/config.hpp</text>
</a>
</g>
</g>
<!-- Node1&#45;&gt;Node2 -->
<g id="edge1" class="edge">
<title>Node1&#45;&gt;Node2</title>
<path fill="none" stroke="midnightblue" d="M620.94,-89.99C518.67,-78.32 324.87,-55.36 160.5,-31 151.79,-29.71 142.58,-28.24 133.58,-26.76"/>
<polygon fill="midnightblue" stroke="midnightblue" points="133.98,-23.27 123.54,-25.07 132.82,-30.18 133.98,-23.27"/>
</g>
<!-- Node3 -->
<g id="node3" class="node">
<title>Node3</title>
<g id="a_node3"><a xlink:title=" ">
<polygon fill="white" stroke="#bfbfbf" points="169.5,-0.5 169.5,-30.5 291.5,-30.5 291.5,-0.5 169.5,-0.5"/>
<text text-anchor="start" x="177.5" y="-18.5" font-family="Helvetica,sans-Serif" font-size="10.00">boost/asio/detail/bind</text>
<text text-anchor="middle" x="230.5" y="-7.5" font-family="Helvetica,sans-Serif" font-size="10.00">_handler.hpp</text>
</a>
</g>
</g>
<!-- Node1&#45;&gt;Node3 -->
<g id="edge2" class="edge">
<title>Node1&#45;&gt;Node3</title>
<path fill="none" stroke="midnightblue" d="M620.83,-86.52C544.29,-74.09 419.17,-53.27 301.47,-31.15"/>
<polygon fill="midnightblue" stroke="midnightblue" points="302.03,-27.69 291.56,-29.28 300.74,-34.57 302.03,-27.69"/>
</g>
<!-- Node4 -->
<g id="node4" class="node">
<title>Node4</title>
<g id="a_node4"><a xlink:title=" ">
<polygon fill="white" stroke="#bfbfbf" points="310,-0.5 310,-30.5 441,-30.5 441,-0.5 310,-0.5"/>
<text text-anchor="start" x="318" y="-18.5" font-family="Helvetica,sans-Serif" font-size="10.00">boost/asio/detail/buffer</text>
<text text-anchor="middle" x="375.5" y="-7.5" font-family="Helvetica,sans-Serif" font-size="10.00">_sequence_adapter.hpp</text>
</a>
</g>
</g>
<!-- Node1&#45;&gt;Node4 -->
<g id="edge3" class="edge">
<title>Node1&#45;&gt;Node4</title>
<path fill="none" stroke="midnightblue" d="M620.96,-79.61C566.58,-65.63 492.42,-46.56 439.88,-33.05"/>
<polygon fill="midnightblue" stroke="midnightblue" points="440.56,-29.61 430,-30.51 438.82,-36.39 440.56,-29.61"/>
</g>
<!-- Node5 -->
<g id="node5" class="node">
<title>Node5</title>
<g id="a_node5"><a xlink:title=" ">
<polygon fill="white" stroke="#bfbfbf" points="459.5,-0.5 459.5,-30.5 593.5,-30.5 593.5,-0.5 459.5,-0.5"/>
<text text-anchor="start" x="467.5" y="-18.5" font-family="Helvetica,sans-Serif" font-size="10.00">boost/asio/detail/fenced</text>
<text text-anchor="middle" x="526.5" y="-7.5" font-family="Helvetica,sans-Serif" font-size="10.00">_block.hpp</text>
</a>
</g>
</g>
<!-- Node1&#45;&gt;Node5 -->
<g id="edge4" class="edge">
<title>Node1&#45;&gt;Node5</title>
<path fill="none" stroke="midnightblue" d="M630.22,-67.42C608.08,-56.55 583.84,-44.65 564.37,-35.09"/>
<polygon fill="midnightblue" stroke="midnightblue" points="565.74,-31.87 555.22,-30.6 562.65,-38.15 565.74,-31.87"/>
</g>
<!-- Node6 -->
<g id="node6" class="node">
<title>Node6</title>
<g id="a_node6"><a xlink:title=" ">
<polygon fill="white" stroke="#bfbfbf" points="612,-6 612,-25 773,-25 773,-6 612,-6"/>
<text text-anchor="middle" x="692.5" y="-13" font-family="Helvetica,sans-Serif" font-size="10.00">boost/asio/detail/memory.hpp</text>
</a>
</g>
</g>
<!-- Node1&#45;&gt;Node6 -->
<g id="edge5" class="edge">
<title>Node1&#45;&gt;Node6</title>
<path fill="none" stroke="midnightblue" d="M692.5,-67.19C692.5,-56.55 692.5,-44.95 692.5,-35.53"/>
<polygon fill="midnightblue" stroke="midnightblue" points="696,-35.34 692.5,-25.34 689,-35.34 696,-35.34"/>
</g>
<!-- Node7 -->
<g id="node7" class="node">
<title>Node7</title>
<g id="a_node7"><a xlink:title=" ">
<polygon fill="white" stroke="#bfbfbf" points="791,-0.5 791,-30.5 926,-30.5 926,-0.5 791,-0.5"/>
<text text-anchor="start" x="799" y="-18.5" font-family="Helvetica,sans-Serif" font-size="10.00">boost/asio/detail/reactor</text>
<text text-anchor="middle" x="858.5" y="-7.5" font-family="Helvetica,sans-Serif" font-size="10.00">_op_ext.hpp</text>
</a>
</g>
</g>
<!-- Node1&#45;&gt;Node7 -->
<g id="edge6" class="edge">
<title>Node1&#45;&gt;Node7</title>
<path fill="none" stroke="midnightblue" d="M754.78,-67.42C776.92,-56.55 801.16,-44.65 820.63,-35.09"/>
<polygon fill="midnightblue" stroke="midnightblue" points="822.35,-38.15 829.78,-30.6 819.26,-31.87 822.35,-38.15"/>
</g>
<!-- Node8 -->
<g id="node8" class="node">
<title>Node8</title>
<g id="a_node8"><a xlink:title=" ">
<polygon fill="white" stroke="#bfbfbf" points="944.5,-0.5 944.5,-30.5 1076.5,-30.5 1076.5,-0.5 944.5,-0.5"/>
<text text-anchor="start" x="952.5" y="-18.5" font-family="Helvetica,sans-Serif" font-size="10.00">boost/asio/detail/socket</text>
<text text-anchor="middle" x="1010.5" y="-7.5" font-family="Helvetica,sans-Serif" font-size="10.00">_ops_ext.hpp</text>
</a>
</g>
</g>
<!-- Node1&#45;&gt;Node8 -->
<g id="edge7" class="edge">
<title>Node1&#45;&gt;Node8</title>
<path fill="none" stroke="midnightblue" d="M764.26,-79.61C818.82,-65.63 893.21,-46.56 945.92,-33.05"/>
<polygon fill="midnightblue" stroke="midnightblue" points="947.01,-36.39 955.82,-30.51 945.27,-29.61 947.01,-36.39"/>
</g>
<!-- Node9 -->
<g id="node9" class="node">
<title>Node9</title>
<g id="a_node9"><a xlink:title=" ">
<polygon fill="white" stroke="#bfbfbf" points="1094.5,-0.5 1094.5,-30.5 1218.5,-30.5 1218.5,-0.5 1094.5,-0.5"/>
<text text-anchor="start" x="1102.5" y="-18.5" font-family="Helvetica,sans-Serif" font-size="10.00">boost/asio/detail/push</text>
<text text-anchor="middle" x="1156.5" y="-7.5" font-family="Helvetica,sans-Serif" font-size="10.00">_options.hpp</text>
</a>
</g>
</g>
<!-- Node1&#45;&gt;Node9 -->
<g id="edge8" class="edge">
<title>Node1&#45;&gt;Node9</title>
<path fill="none" stroke="midnightblue" d="M764.34,-86.47C841.07,-74 966.5,-53.14 1084.27,-31.2"/>
<polygon fill="midnightblue" stroke="midnightblue" points="1085,-34.62 1094.18,-29.35 1083.71,-27.74 1085,-34.62"/>
</g>
<!-- Node10 -->
<g id="node10" class="node">
<title>Node10</title>
<g id="a_node10"><a xlink:title=" ">
<polygon fill="white" stroke="#bfbfbf" points="1237,-0.5 1237,-30.5 1356,-30.5 1356,-0.5 1237,-0.5"/>
<text text-anchor="start" x="1245" y="-18.5" font-family="Helvetica,sans-Serif" font-size="10.00">boost/asio/detail/pop</text>
<text text-anchor="middle" x="1296.5" y="-7.5" font-family="Helvetica,sans-Serif" font-size="10.00">_options.hpp</text>
</a>
</g>
</g>
<!-- Node1&#45;&gt;Node10 -->
<g id="edge9" class="edge">
<title>Node1&#45;&gt;Node10</title>
<path fill="none" stroke="midnightblue" d="M764.17,-90.93C865.11,-80.54 1055.06,-59.45 1226.74,-31.04"/>
<polygon fill="midnightblue" stroke="midnightblue" points="1227.43,-34.47 1236.72,-29.38 1226.28,-27.57 1227.43,-34.47"/>
</g>
</g>
</svg>
