<?xml version="1.0" encoding="UTF-8" standalone="no"?>
<!DOCTYPE svg PUBLIC "-//W3C//DTD SVG 1.1//EN"
 "http://www.w3.org/Graphics/SVG/1.1/DTD/svg11.dtd">
<!-- Generated by graphviz version 2.43.0 (0)
 -->
<!-- Title: /home/kali/projects/vsomeip/implementation/helper/1.70/boost/asio/basic_socket_ext_local.hpp Pages: 1 -->
<svg width="2234pt" height="128pt"
 viewBox="0.00 0.00 2234.00 128.00" xmlns="http://www.w3.org/2000/svg" xmlns:xlink="http://www.w3.org/1999/xlink">
<g id="graph0" class="graph" transform="scale(1 1) rotate(0) translate(4 124)">
<title>/home/kali/projects/vsomeip/implementation/helper/1.70/boost/asio/basic_socket_ext_local.hpp</title>
<polygon fill="white" stroke="transparent" points="-4,4 -4,-124 2230,-124 2230,4 -4,4"/>
<!-- Node1 -->
<g id="node1" class="node">
<title>Node1</title>
<g id="a_node1"><a xlink:title=" ">
<polygon fill="#bfbfbf" stroke="black" points="1046.5,-67.5 1046.5,-119.5 1198.5,-119.5 1198.5,-67.5 1046.5,-67.5"/>
<text text-anchor="start" x="1054.5" y="-107.5" font-family="Helvetica,sans-Serif" font-size="10.00">/home/kali/projects</text>
<text text-anchor="start" x="1054.5" y="-96.5" font-family="Helvetica,sans-Serif" font-size="10.00">/vsomeip/implementation</text>
<text text-anchor="start" x="1054.5" y="-85.5" font-family="Helvetica,sans-Serif" font-size="10.00">/helper/1.70/boost/asio</text>
<text text-anchor="middle" x="1122.5" y="-74.5" font-family="Helvetica,sans-Serif" font-size="10.00">/basic_socket_ext_local.hpp</text>
</a>
</g>
</g>
<!-- Node2 -->
<g id="node2" class="node">
<title>Node2</title>
<g id="a_node2"><a xlink:title=" ">
<polygon fill="white" stroke="#bfbfbf" points="0,-6 0,-25 151,-25 151,-6 0,-6"/>
<text text-anchor="middle" x="75.5" y="-13" font-family="Helvetica,sans-Serif" font-size="10.00">boost/asio/detail/config.hpp</text>
</a>
</g>
</g>
<!-- Node1&#45;&gt;Node2 -->
<g id="edge1" class="edge">
<title>Node1&#45;&gt;Node2</title>
<path fill="none" stroke="midnightblue" d="M1046.49,-90.36C883.61,-85.17 489,-69.41 160.5,-31 150.69,-29.85 140.28,-28.33 130.25,-26.71"/>
<polygon fill="midnightblue" stroke="midnightblue" points="130.81,-23.25 120.37,-25.06 129.66,-30.16 130.81,-23.25"/>
</g>
<!-- Node3 -->
<g id="node3" class="node">
<title>Node3</title>
<g id="a_node3"><a xlink:title=" ">
<polygon fill="white" stroke="#bfbfbf" points="169.5,-6 169.5,-25 321.5,-25 321.5,-6 169.5,-6"/>
<text text-anchor="middle" x="245.5" y="-13" font-family="Helvetica,sans-Serif" font-size="10.00">boost/asio/async_result.hpp</text>
</a>
</g>
</g>
<!-- Node1&#45;&gt;Node3 -->
<g id="edge2" class="edge">
<title>Node1&#45;&gt;Node3</title>
<path fill="none" stroke="midnightblue" d="M1046.37,-88.91C904.94,-81.72 592.26,-63.42 330.5,-31 320.91,-29.81 310.75,-28.3 300.91,-26.7"/>
<polygon fill="midnightblue" stroke="midnightblue" points="301.26,-23.21 290.82,-25.02 300.11,-30.12 301.26,-23.21"/>
</g>
<!-- Node4 -->
<g id="node4" class="node">
<title>Node4</title>
<g id="a_node4"><a xlink:title=" ">
<polygon fill="white" stroke="#bfbfbf" points="339.5,-0.5 339.5,-30.5 495.5,-30.5 495.5,-0.5 339.5,-0.5"/>
<text text-anchor="start" x="347.5" y="-18.5" font-family="Helvetica,sans-Serif" font-size="10.00">boost/asio/detail/handler</text>
<text text-anchor="middle" x="417.5" y="-7.5" font-family="Helvetica,sans-Serif" font-size="10.00">_type_requirements_ext.hpp</text>
</a>
</g>
</g>
<!-- Node1&#45;&gt;Node4 -->
<g id="edge3" class="edge">
<title>Node1&#45;&gt;Node4</title>
<path fill="none" stroke="midnightblue" d="M1046.2,-86.54C931.26,-77.19 706.64,-57.53 505.87,-31.13"/>
<polygon fill="midnightblue" stroke="midnightblue" points="506.09,-27.63 495.72,-29.79 505.17,-34.57 506.09,-27.63"/>
</g>
<!-- Node5 -->
<g id="node5" class="node">
<title>Node5</title>
<g id="a_node5"><a xlink:title=" ">
<polygon fill="white" stroke="#bfbfbf" points="513.5,-0.5 513.5,-30.5 623.5,-30.5 623.5,-0.5 513.5,-0.5"/>
<text text-anchor="start" x="521.5" y="-18.5" font-family="Helvetica,sans-Serif" font-size="10.00">boost/asio/detail/io</text>
<text text-anchor="middle" x="568.5" y="-7.5" font-family="Helvetica,sans-Serif" font-size="10.00">_object_impl.hpp</text>
</a>
</g>
</g>
<!-- Node1&#45;&gt;Node5 -->
<g id="edge4" class="edge">
<title>Node1&#45;&gt;Node5</title>
<path fill="none" stroke="midnightblue" d="M1046.19,-85.26C951.59,-75.76 785.29,-57.35 633.56,-31.08"/>
<polygon fill="midnightblue" stroke="midnightblue" points="634.04,-27.61 623.59,-29.34 632.84,-34.51 634.04,-27.61"/>
</g>
<!-- Node6 -->
<g id="node6" class="node">
<title>Node6</title>
<g id="a_node6"><a xlink:title=" ">
<polygon fill="white" stroke="#bfbfbf" points="642,-0.5 642,-30.5 761,-30.5 761,-0.5 642,-0.5"/>
<text text-anchor="start" x="650" y="-18.5" font-family="Helvetica,sans-Serif" font-size="10.00">boost/asio/detail/non</text>
<text text-anchor="middle" x="701.5" y="-7.5" font-family="Helvetica,sans-Serif" font-size="10.00">_const_lvalue.hpp</text>
</a>
</g>
</g>
<!-- Node1&#45;&gt;Node6 -->
<g id="edge5" class="edge">
<title>Node1&#45;&gt;Node6</title>
<path fill="none" stroke="midnightblue" d="M1046.49,-79.99C977.41,-68.44 872.41,-50.46 771.39,-31.13"/>
<polygon fill="midnightblue" stroke="midnightblue" points="771.79,-27.65 761.31,-29.2 770.47,-34.52 771.79,-27.65"/>
</g>
<!-- Node7 -->
<g id="node7" class="node">
<title>Node7</title>
<g id="a_node7"><a xlink:title=" ">
<polygon fill="white" stroke="#bfbfbf" points="779.5,-0.5 779.5,-30.5 907.5,-30.5 907.5,-0.5 779.5,-0.5"/>
<text text-anchor="start" x="787.5" y="-18.5" font-family="Helvetica,sans-Serif" font-size="10.00">boost/asio/detail/throw</text>
<text text-anchor="middle" x="843.5" y="-7.5" font-family="Helvetica,sans-Serif" font-size="10.00">_error.hpp</text>
</a>
</g>
</g>
<!-- Node1&#45;&gt;Node7 -->
<g id="edge6" class="edge">
<title>Node1&#45;&gt;Node7</title>
<path fill="none" stroke="midnightblue" d="M1046.26,-71.73C1001.75,-59.61 946.34,-44.51 904.69,-33.17"/>
<polygon fill="midnightblue" stroke="midnightblue" points="905.53,-29.77 894.96,-30.52 903.69,-36.52 905.53,-29.77"/>
</g>
<!-- Node8 -->
<g id="node8" class="node">
<title>Node8</title>
<g id="a_node8"><a xlink:title=" ">
<polygon fill="white" stroke="#bfbfbf" points="925.5,-0.5 925.5,-30.5 1047.5,-30.5 1047.5,-0.5 925.5,-0.5"/>
<text text-anchor="start" x="933.5" y="-18.5" font-family="Helvetica,sans-Serif" font-size="10.00">boost/asio/detail/type</text>
<text text-anchor="middle" x="986.5" y="-7.5" font-family="Helvetica,sans-Serif" font-size="10.00">_traits.hpp</text>
</a>
</g>
</g>
<!-- Node1&#45;&gt;Node8 -->
<g id="edge7" class="edge">
<title>Node1&#45;&gt;Node8</title>
<path fill="none" stroke="midnightblue" d="M1077.59,-67.4C1059.18,-57.12 1038.21,-45.4 1021.03,-35.8"/>
<polygon fill="midnightblue" stroke="midnightblue" points="1022.36,-32.53 1011.92,-30.71 1018.94,-38.64 1022.36,-32.53"/>
</g>
<!-- Node9 -->
<g id="node9" class="node">
<title>Node9</title>
<g id="a_node9"><a xlink:title=" ">
<polygon fill="white" stroke="#bfbfbf" points="1066,-6 1066,-25 1179,-25 1179,-6 1066,-6"/>
<text text-anchor="middle" x="1122.5" y="-13" font-family="Helvetica,sans-Serif" font-size="10.00">boost/asio/error.hpp</text>
</a>
</g>
</g>
<!-- Node1&#45;&gt;Node9 -->
<g id="edge8" class="edge">
<title>Node1&#45;&gt;Node9</title>
<path fill="none" stroke="midnightblue" d="M1122.5,-67.19C1122.5,-56.76 1122.5,-44.9 1122.5,-35.27"/>
<polygon fill="midnightblue" stroke="midnightblue" points="1126,-35.21 1122.5,-25.21 1119,-35.21 1126,-35.21"/>
</g>
<!-- Node10 -->
<g id="node10" class="node">
<title>Node10</title>
<g id="a_node10"><a xlink:title=" ">
<polygon fill="white" stroke="#bfbfbf" points="1197,-0.5 1197,-30.5 1314,-30.5 1314,-0.5 1197,-0.5"/>
<text text-anchor="start" x="1205" y="-18.5" font-family="Helvetica,sans-Serif" font-size="10.00">boost/asio/execution</text>
<text text-anchor="middle" x="1255.5" y="-7.5" font-family="Helvetica,sans-Serif" font-size="10.00">_context.hpp</text>
</a>
</g>
</g>
<!-- Node1&#45;&gt;Node10 -->
<g id="edge9" class="edge">
<title>Node1&#45;&gt;Node10</title>
<path fill="none" stroke="midnightblue" d="M1166.42,-67.4C1184.42,-57.12 1204.93,-45.4 1221.73,-35.8"/>
<polygon fill="midnightblue" stroke="midnightblue" points="1223.69,-38.71 1230.64,-30.71 1220.22,-32.63 1223.69,-38.71"/>
</g>
<!-- Node11 -->
<g id="node11" class="node">
<title>Node11</title>
<g id="a_node11"><a xlink:title=" ">
<polygon fill="white" stroke="#bfbfbf" points="1332.5,-6 1332.5,-25 1464.5,-25 1464.5,-6 1332.5,-6"/>
<text text-anchor="middle" x="1398.5" y="-13" font-family="Helvetica,sans-Serif" font-size="10.00">boost/asio/executor.hpp</text>
</a>
</g>
</g>
<!-- Node1&#45;&gt;Node11 -->
<g id="edge10" class="edge">
<title>Node1&#45;&gt;Node11</title>
<path fill="none" stroke="midnightblue" d="M1198.65,-71.53C1250.09,-57.37 1316,-39.22 1357.75,-27.72"/>
<polygon fill="midnightblue" stroke="midnightblue" points="1358.85,-31.05 1367.56,-25.02 1356.99,-24.3 1358.85,-31.05"/>
</g>
<!-- Node12 -->
<g id="node12" class="node">
<title>Node12</title>
<g id="a_node12"><a xlink:title=" ">
<polygon fill="white" stroke="#bfbfbf" points="1482.5,-6 1482.5,-25 1594.5,-25 1594.5,-6 1482.5,-6"/>
<text text-anchor="middle" x="1538.5" y="-13" font-family="Helvetica,sans-Serif" font-size="10.00">boost/asio/post.hpp</text>
</a>
</g>
</g>
<!-- Node1&#45;&gt;Node12 -->
<g id="edge11" class="edge">
<title>Node1&#45;&gt;Node12</title>
<path fill="none" stroke="midnightblue" d="M1198.69,-80.19C1269.91,-68.44 1379.15,-49.78 1473.5,-31 1479.38,-29.83 1485.55,-28.54 1491.65,-27.22"/>
<polygon fill="midnightblue" stroke="midnightblue" points="1492.76,-30.56 1501.78,-25 1491.26,-23.72 1492.76,-30.56"/>
</g>
<!-- Node13 -->
<g id="node13" class="node">
<title>Node13</title>
<g id="a_node13"><a xlink:title=" ">
<polygon fill="white" stroke="#bfbfbf" points="1613,-6 1613,-25 1764,-25 1764,-6 1613,-6"/>
<text text-anchor="middle" x="1688.5" y="-13" font-family="Helvetica,sans-Serif" font-size="10.00">boost/asio/socket_base.hpp</text>
</a>
</g>
</g>
<!-- Node1&#45;&gt;Node13 -->
<g id="edge12" class="edge">
<title>Node1&#45;&gt;Node13</title>
<path fill="none" stroke="midnightblue" d="M1198.86,-83.74C1293.85,-72.6 1460.91,-52.27 1603.5,-31 1612.21,-29.7 1621.41,-28.23 1630.41,-26.74"/>
<polygon fill="midnightblue" stroke="midnightblue" points="1631.17,-30.16 1640.46,-25.06 1630.02,-23.26 1631.17,-30.16"/>
</g>
<!-- Node14 -->
<g id="node14" class="node">
<title>Node14</title>
<g id="a_node14"><a xlink:title=" ">
<polygon fill="white" stroke="#bfbfbf" points="1782.5,-0.5 1782.5,-30.5 1946.5,-30.5 1946.5,-0.5 1782.5,-0.5"/>
<text text-anchor="start" x="1790.5" y="-18.5" font-family="Helvetica,sans-Serif" font-size="10.00">boost/asio/detail/reactive</text>
<text text-anchor="middle" x="1864.5" y="-7.5" font-family="Helvetica,sans-Serif" font-size="10.00">_socket_service_ext_local.hpp</text>
</a>
</g>
</g>
<!-- Node1&#45;&gt;Node14 -->
<g id="edge13" class="edge">
<title>Node1&#45;&gt;Node14</title>
<path fill="none" stroke="midnightblue" d="M1198.84,-86.88C1318.73,-77.69 1558.63,-57.9 1772.05,-31.14"/>
<polygon fill="midnightblue" stroke="midnightblue" points="1772.71,-34.58 1782.19,-29.86 1771.83,-27.64 1772.71,-34.58"/>
</g>
<!-- Node15 -->
<g id="node15" class="node">
<title>Node15</title>
<g id="a_node15"><a xlink:title=" ">
<polygon fill="white" stroke="#bfbfbf" points="1964.5,-0.5 1964.5,-30.5 2088.5,-30.5 2088.5,-0.5 1964.5,-0.5"/>
<text text-anchor="start" x="1972.5" y="-18.5" font-family="Helvetica,sans-Serif" font-size="10.00">boost/asio/detail/push</text>
<text text-anchor="middle" x="2026.5" y="-7.5" font-family="Helvetica,sans-Serif" font-size="10.00">_options.hpp</text>
</a>
</g>
</g>
<!-- Node1&#45;&gt;Node15 -->
<g id="edge14" class="edge">
<title>Node1&#45;&gt;Node15</title>
<path fill="none" stroke="midnightblue" d="M1198.65,-90.13C1343.87,-84.91 1670.5,-69.74 1954.17,-31.07"/>
<polygon fill="midnightblue" stroke="midnightblue" points="1954.81,-34.51 1964.24,-29.68 1953.86,-27.58 1954.81,-34.51"/>
</g>
<!-- Node16 -->
<g id="node16" class="node">
<title>Node16</title>
<g id="a_node16"><a xlink:title=" ">
<polygon fill="white" stroke="#bfbfbf" points="2107,-0.5 2107,-30.5 2226,-30.5 2226,-0.5 2107,-0.5"/>
<text text-anchor="start" x="2115" y="-18.5" font-family="Helvetica,sans-Serif" font-size="10.00">boost/asio/detail/pop</text>
<text text-anchor="middle" x="2166.5" y="-7.5" font-family="Helvetica,sans-Serif" font-size="10.00">_options.hpp</text>
</a>
</g>
</g>
<!-- Node1&#45;&gt;Node16 -->
<g id="edge15" class="edge">
<title>Node1&#45;&gt;Node16</title>
<path fill="none" stroke="midnightblue" d="M1198.72,-91.42C1361.86,-88.31 1756.92,-76.45 2096.72,-30.96"/>
<polygon fill="midnightblue" stroke="midnightblue" points="2097.31,-34.41 2106.75,-29.61 2096.37,-27.48 2097.31,-34.41"/>
</g>
</g>
</svg>
