<?xml version="1.0" encoding="UTF-8" standalone="no"?>
<!DOCTYPE svg PUBLIC "-//W3C//DTD SVG 1.1//EN"
 "http://www.w3.org/Graphics/SVG/1.1/DTD/svg11.dtd">
<!-- Generated by graphviz version 2.43.0 (0)
 -->
<!-- Title: /home/kali/projects/vsomeip/implementation/helper/1.76/boost/asio/basic_socket_ext.hpp Pages: 1 -->
<svg width="2192pt" height="128pt"
 viewBox="0.00 0.00 2192.00 128.00" xmlns="http://www.w3.org/2000/svg" xmlns:xlink="http://www.w3.org/1999/xlink">
<g id="graph0" class="graph" transform="scale(1 1) rotate(0) translate(4 124)">
<title>/home/kali/projects/vsomeip/implementation/helper/1.76/boost/asio/basic_socket_ext.hpp</title>
<polygon fill="white" stroke="transparent" points="-4,4 -4,-124 2188,-124 2188,4 -4,4"/>
<!-- Node1 -->
<g id="node1" class="node">
<title>Node1</title>
<g id="a_node1"><a xlink:title=" ">
<polygon fill="#bfbfbf" stroke="black" points="1033,-67.5 1033,-119.5 1176,-119.5 1176,-67.5 1033,-67.5"/>
<text text-anchor="start" x="1041" y="-107.5" font-family="Helvetica,sans-Serif" font-size="10.00">/home/kali/projects</text>
<text text-anchor="start" x="1041" y="-96.5" font-family="Helvetica,sans-Serif" font-size="10.00">/vsomeip/implementation</text>
<text text-anchor="start" x="1041" y="-85.5" font-family="Helvetica,sans-Serif" font-size="10.00">/helper/1.76/boost/asio</text>
<text text-anchor="middle" x="1104.5" y="-74.5" font-family="Helvetica,sans-Serif" font-size="10.00">/basic_socket_ext.hpp</text>
</a>
</g>
</g>
<!-- Node2 -->
<g id="node2" class="node">
<title>Node2</title>
<g id="a_node2"><a xlink:title=" ">
<polygon fill="white" stroke="#bfbfbf" points="0,-6 0,-25 151,-25 151,-6 0,-6"/>
<text text-anchor="middle" x="75.5" y="-13" font-family="Helvetica,sans-Serif" font-size="10.00">boost/asio/detail/config.hpp</text>
</a>
</g>
</g>
<!-- Node1&#45;&gt;Node2 -->
<g id="edge1" class="edge">
<title>Node1&#45;&gt;Node2</title>
<path fill="none" stroke="midnightblue" d="M1032.92,-90.38C874.98,-85.13 484.89,-69.13 160.5,-31 150.69,-29.85 140.28,-28.32 130.25,-26.7"/>
<polygon fill="midnightblue" stroke="midnightblue" points="130.81,-23.24 120.37,-25.05 129.66,-30.15 130.81,-23.24"/>
</g>
<!-- Node3 -->
<g id="node3" class="node">
<title>Node3</title>
<g id="a_node3"><a xlink:title=" ">
<polygon fill="white" stroke="#bfbfbf" points="169.5,-6 169.5,-25 321.5,-25 321.5,-6 169.5,-6"/>
<text text-anchor="middle" x="245.5" y="-13" font-family="Helvetica,sans-Serif" font-size="10.00">boost/asio/async_result.hpp</text>
</a>
</g>
</g>
<!-- Node1&#45;&gt;Node3 -->
<g id="edge2" class="edge">
<title>Node1&#45;&gt;Node3</title>
<path fill="none" stroke="midnightblue" d="M1032.79,-88.96C895.89,-81.71 587.99,-63.13 330.5,-31 320.91,-29.8 310.75,-28.29 300.91,-26.69"/>
<polygon fill="midnightblue" stroke="midnightblue" points="301.26,-23.2 290.82,-25.01 300.11,-30.1 301.26,-23.2"/>
</g>
<!-- Node4 -->
<g id="node4" class="node">
<title>Node4</title>
<g id="a_node4"><a xlink:title=" ">
<polygon fill="white" stroke="#bfbfbf" points="340,-0.5 340,-30.5 477,-30.5 477,-0.5 340,-0.5"/>
<text text-anchor="start" x="348" y="-18.5" font-family="Helvetica,sans-Serif" font-size="10.00">boost/asio/detail/handler</text>
<text text-anchor="middle" x="408.5" y="-7.5" font-family="Helvetica,sans-Serif" font-size="10.00">_type_requirements.hpp</text>
</a>
</g>
</g>
<!-- Node1&#45;&gt;Node4 -->
<g id="edge3" class="edge">
<title>Node1&#45;&gt;Node4</title>
<path fill="none" stroke="midnightblue" d="M1032.89,-87.35C919.37,-78.76 690.96,-59.68 487.34,-31.04"/>
<polygon fill="midnightblue" stroke="midnightblue" points="487.74,-27.56 477.35,-29.63 486.76,-34.49 487.74,-27.56"/>
</g>
<!-- Node5 -->
<g id="node5" class="node">
<title>Node5</title>
<g id="a_node5"><a xlink:title=" ">
<polygon fill="white" stroke="#bfbfbf" points="495.5,-0.5 495.5,-30.5 605.5,-30.5 605.5,-0.5 495.5,-0.5"/>
<text text-anchor="start" x="503.5" y="-18.5" font-family="Helvetica,sans-Serif" font-size="10.00">boost/asio/detail/io</text>
<text text-anchor="middle" x="550.5" y="-7.5" font-family="Helvetica,sans-Serif" font-size="10.00">_object_impl.hpp</text>
</a>
</g>
</g>
<!-- Node1&#45;&gt;Node5 -->
<g id="edge4" class="edge">
<title>Node1&#45;&gt;Node5</title>
<path fill="none" stroke="midnightblue" d="M1032.76,-85.72C939.05,-76.37 769.75,-57.77 615.71,-31.11"/>
<polygon fill="midnightblue" stroke="midnightblue" points="616.04,-27.61 605.59,-29.34 614.84,-34.51 616.04,-27.61"/>
</g>
<!-- Node6 -->
<g id="node6" class="node">
<title>Node6</title>
<g id="a_node6"><a xlink:title=" ">
<polygon fill="white" stroke="#bfbfbf" points="624,-0.5 624,-30.5 743,-30.5 743,-0.5 624,-0.5"/>
<text text-anchor="start" x="632" y="-18.5" font-family="Helvetica,sans-Serif" font-size="10.00">boost/asio/detail/non</text>
<text text-anchor="middle" x="683.5" y="-7.5" font-family="Helvetica,sans-Serif" font-size="10.00">_const_lvalue.hpp</text>
</a>
</g>
</g>
<!-- Node1&#45;&gt;Node6 -->
<g id="edge5" class="edge">
<title>Node1&#45;&gt;Node6</title>
<path fill="none" stroke="midnightblue" d="M1032.91,-80.73C963.92,-69.22 856.34,-50.83 753.27,-31.11"/>
<polygon fill="midnightblue" stroke="midnightblue" points="753.79,-27.65 743.31,-29.2 752.47,-34.52 753.79,-27.65"/>
</g>
<!-- Node7 -->
<g id="node7" class="node">
<title>Node7</title>
<g id="a_node7"><a xlink:title=" ">
<polygon fill="white" stroke="#bfbfbf" points="761.5,-0.5 761.5,-30.5 889.5,-30.5 889.5,-0.5 761.5,-0.5"/>
<text text-anchor="start" x="769.5" y="-18.5" font-family="Helvetica,sans-Serif" font-size="10.00">boost/asio/detail/throw</text>
<text text-anchor="middle" x="825.5" y="-7.5" font-family="Helvetica,sans-Serif" font-size="10.00">_error.hpp</text>
</a>
</g>
</g>
<!-- Node1&#45;&gt;Node7 -->
<g id="edge6" class="edge">
<title>Node1&#45;&gt;Node7</title>
<path fill="none" stroke="midnightblue" d="M1032.65,-72.93C987.56,-60.65 930.04,-44.98 887.05,-33.27"/>
<polygon fill="midnightblue" stroke="midnightblue" points="887.85,-29.86 877.29,-30.61 886.01,-36.61 887.85,-29.86"/>
</g>
<!-- Node8 -->
<g id="node8" class="node">
<title>Node8</title>
<g id="a_node8"><a xlink:title=" ">
<polygon fill="white" stroke="#bfbfbf" points="907.5,-0.5 907.5,-30.5 1029.5,-30.5 1029.5,-0.5 907.5,-0.5"/>
<text text-anchor="start" x="915.5" y="-18.5" font-family="Helvetica,sans-Serif" font-size="10.00">boost/asio/detail/type</text>
<text text-anchor="middle" x="968.5" y="-7.5" font-family="Helvetica,sans-Serif" font-size="10.00">_traits.hpp</text>
</a>
</g>
</g>
<!-- Node1&#45;&gt;Node8 -->
<g id="edge7" class="edge">
<title>Node1&#45;&gt;Node8</title>
<path fill="none" stroke="midnightblue" d="M1059.59,-67.4C1041.18,-57.12 1020.21,-45.4 1003.03,-35.8"/>
<polygon fill="midnightblue" stroke="midnightblue" points="1004.36,-32.53 993.92,-30.71 1000.94,-38.64 1004.36,-32.53"/>
</g>
<!-- Node9 -->
<g id="node9" class="node">
<title>Node9</title>
<g id="a_node9"><a xlink:title=" ">
<polygon fill="white" stroke="#bfbfbf" points="1048,-6 1048,-25 1161,-25 1161,-6 1048,-6"/>
<text text-anchor="middle" x="1104.5" y="-13" font-family="Helvetica,sans-Serif" font-size="10.00">boost/asio/error.hpp</text>
</a>
</g>
</g>
<!-- Node1&#45;&gt;Node9 -->
<g id="edge8" class="edge">
<title>Node1&#45;&gt;Node9</title>
<path fill="none" stroke="midnightblue" d="M1104.5,-67.19C1104.5,-56.76 1104.5,-44.9 1104.5,-35.27"/>
<polygon fill="midnightblue" stroke="midnightblue" points="1108,-35.21 1104.5,-25.21 1101,-35.21 1108,-35.21"/>
</g>
<!-- Node10 -->
<g id="node10" class="node">
<title>Node10</title>
<g id="a_node10"><a xlink:title=" ">
<polygon fill="white" stroke="#bfbfbf" points="1179,-0.5 1179,-30.5 1296,-30.5 1296,-0.5 1179,-0.5"/>
<text text-anchor="start" x="1187" y="-18.5" font-family="Helvetica,sans-Serif" font-size="10.00">boost/asio/execution</text>
<text text-anchor="middle" x="1237.5" y="-7.5" font-family="Helvetica,sans-Serif" font-size="10.00">_context.hpp</text>
</a>
</g>
</g>
<!-- Node1&#45;&gt;Node10 -->
<g id="edge9" class="edge">
<title>Node1&#45;&gt;Node10</title>
<path fill="none" stroke="midnightblue" d="M1148.42,-67.4C1166.42,-57.12 1186.93,-45.4 1203.73,-35.8"/>
<polygon fill="midnightblue" stroke="midnightblue" points="1205.69,-38.71 1212.64,-30.71 1202.22,-32.63 1205.69,-38.71"/>
</g>
<!-- Node11 -->
<g id="node11" class="node">
<title>Node11</title>
<g id="a_node11"><a xlink:title=" ">
<polygon fill="white" stroke="#bfbfbf" points="1314.5,-6 1314.5,-25 1446.5,-25 1446.5,-6 1314.5,-6"/>
<text text-anchor="middle" x="1380.5" y="-13" font-family="Helvetica,sans-Serif" font-size="10.00">boost/asio/executor.hpp</text>
</a>
</g>
</g>
<!-- Node1&#45;&gt;Node11 -->
<g id="edge10" class="edge">
<title>Node1&#45;&gt;Node11</title>
<path fill="none" stroke="midnightblue" d="M1176.3,-72.73C1228.34,-58.4 1296.86,-39.53 1339.8,-27.71"/>
<polygon fill="midnightblue" stroke="midnightblue" points="1340.9,-31.04 1349.61,-25.01 1339.04,-24.29 1340.9,-31.04"/>
</g>
<!-- Node12 -->
<g id="node12" class="node">
<title>Node12</title>
<g id="a_node12"><a xlink:title=" ">
<polygon fill="white" stroke="#bfbfbf" points="1464.5,-6 1464.5,-25 1576.5,-25 1576.5,-6 1464.5,-6"/>
<text text-anchor="middle" x="1520.5" y="-13" font-family="Helvetica,sans-Serif" font-size="10.00">boost/asio/post.hpp</text>
</a>
</g>
</g>
<!-- Node1&#45;&gt;Node12 -->
<g id="edge11" class="edge">
<title>Node1&#45;&gt;Node12</title>
<path fill="none" stroke="midnightblue" d="M1176.27,-80.92C1247.34,-69.22 1359.18,-50.17 1455.5,-31 1461.38,-29.83 1467.55,-28.54 1473.65,-27.22"/>
<polygon fill="midnightblue" stroke="midnightblue" points="1474.76,-30.56 1483.78,-25 1473.26,-23.72 1474.76,-30.56"/>
</g>
<!-- Node13 -->
<g id="node13" class="node">
<title>Node13</title>
<g id="a_node13"><a xlink:title=" ">
<polygon fill="white" stroke="#bfbfbf" points="1595,-6 1595,-25 1746,-25 1746,-6 1595,-6"/>
<text text-anchor="middle" x="1670.5" y="-13" font-family="Helvetica,sans-Serif" font-size="10.00">boost/asio/socket_base.hpp</text>
</a>
</g>
</g>
<!-- Node1&#45;&gt;Node13 -->
<g id="edge12" class="edge">
<title>Node1&#45;&gt;Node13</title>
<path fill="none" stroke="midnightblue" d="M1176.34,-84.26C1270.47,-73.26 1440.62,-52.61 1585.5,-31 1594.21,-29.7 1603.41,-28.23 1612.41,-26.74"/>
<polygon fill="midnightblue" stroke="midnightblue" points="1613.17,-30.16 1622.46,-25.06 1612.02,-23.26 1613.17,-30.16"/>
</g>
<!-- Node14 -->
<g id="node14" class="node">
<title>Node14</title>
<g id="a_node14"><a xlink:title=" ">
<polygon fill="white" stroke="#bfbfbf" points="1764.5,-0.5 1764.5,-30.5 1904.5,-30.5 1904.5,-0.5 1764.5,-0.5"/>
<text text-anchor="start" x="1772.5" y="-18.5" font-family="Helvetica,sans-Serif" font-size="10.00">boost/asio/detail/reactive</text>
<text text-anchor="middle" x="1834.5" y="-7.5" font-family="Helvetica,sans-Serif" font-size="10.00">_socket_service_ext.hpp</text>
</a>
</g>
</g>
<!-- Node1&#45;&gt;Node14 -->
<g id="edge13" class="edge">
<title>Node1&#45;&gt;Node14</title>
<path fill="none" stroke="midnightblue" d="M1176.02,-87.8C1294.31,-79.56 1538.26,-60.68 1754.39,-31.08"/>
<polygon fill="midnightblue" stroke="midnightblue" points="1754.91,-34.54 1764.34,-29.71 1753.96,-27.61 1754.91,-34.54"/>
</g>
<!-- Node15 -->
<g id="node15" class="node">
<title>Node15</title>
<g id="a_node15"><a xlink:title=" ">
<polygon fill="white" stroke="#bfbfbf" points="1922.5,-0.5 1922.5,-30.5 2046.5,-30.5 2046.5,-0.5 1922.5,-0.5"/>
<text text-anchor="start" x="1930.5" y="-18.5" font-family="Helvetica,sans-Serif" font-size="10.00">boost/asio/detail/push</text>
<text text-anchor="middle" x="1984.5" y="-7.5" font-family="Helvetica,sans-Serif" font-size="10.00">_options.hpp</text>
</a>
</g>
</g>
<!-- Node1&#45;&gt;Node15 -->
<g id="edge14" class="edge">
<title>Node1&#45;&gt;Node15</title>
<path fill="none" stroke="midnightblue" d="M1176.25,-90.07C1316.09,-84.68 1634.95,-69.16 1911.99,-31.1"/>
<polygon fill="midnightblue" stroke="midnightblue" points="1912.81,-34.52 1922.24,-29.68 1911.85,-27.58 1912.81,-34.52"/>
</g>
<!-- Node16 -->
<g id="node16" class="node">
<title>Node16</title>
<g id="a_node16"><a xlink:title=" ">
<polygon fill="white" stroke="#bfbfbf" points="2065,-0.5 2065,-30.5 2184,-30.5 2184,-0.5 2065,-0.5"/>
<text text-anchor="start" x="2073" y="-18.5" font-family="Helvetica,sans-Serif" font-size="10.00">boost/asio/detail/pop</text>
<text text-anchor="middle" x="2124.5" y="-7.5" font-family="Helvetica,sans-Serif" font-size="10.00">_options.hpp</text>
</a>
</g>
</g>
<!-- Node1&#45;&gt;Node16 -->
<g id="edge15" class="edge">
<title>Node1&#45;&gt;Node16</title>
<path fill="none" stroke="midnightblue" d="M1176.13,-91.35C1333.46,-88.07 1721.03,-75.87 2054.41,-31"/>
<polygon fill="midnightblue" stroke="midnightblue" points="2055.31,-34.41 2064.75,-29.6 2054.37,-27.48 2055.31,-34.41"/>
</g>
</g>
</svg>
