<?xml version="1.0" encoding="UTF-8" standalone="no"?>
<!DOCTYPE svg PUBLIC "-//W3C//DTD SVG 1.1//EN"
 "http://www.w3.org/Graphics/SVG/1.1/DTD/svg11.dtd">
<!-- Generated by graphviz version 2.43.0 (0)
 -->
<!-- Title: /home/kali/projects/vsomeip/implementation/helper/1.74/boost/asio/detail/reactive_socket_service_base_ext_local.hpp Pages: 1 -->
<svg width="2982pt" height="139pt"
 viewBox="0.00 0.00 2982.00 139.00" xmlns="http://www.w3.org/2000/svg" xmlns:xlink="http://www.w3.org/1999/xlink">
<g id="graph0" class="graph" transform="scale(1 1) rotate(0) translate(4 135)">
<title>/home/kali/projects/vsomeip/implementation/helper/1.74/boost/asio/detail/reactive_socket_service_base_ext_local.hpp</title>
<polygon fill="white" stroke="transparent" points="-4,4 -4,-135 2978,-135 2978,4 -4,4"/>
<!-- Node1 -->
<g id="node1" class="node">
<title>Node1</title>
<g id="a_node1"><a xlink:title=" ">
<polygon fill="#bfbfbf" stroke="black" points="1429.5,-67.5 1429.5,-130.5 1585.5,-130.5 1585.5,-67.5 1429.5,-67.5"/>
<text text-anchor="start" x="1437.5" y="-118.5" font-family="Helvetica,sans-Serif" font-size="10.00">/home/kali/projects</text>
<text text-anchor="start" x="1437.5" y="-107.5" font-family="Helvetica,sans-Serif" font-size="10.00">/vsomeip/implementation</text>
<text text-anchor="start" x="1437.5" y="-96.5" font-family="Helvetica,sans-Serif" font-size="10.00">/helper/1.74/boost/asio</text>
<text text-anchor="start" x="1437.5" y="-85.5" font-family="Helvetica,sans-Serif" font-size="10.00">/detail/reactive_socket</text>
<text text-anchor="middle" x="1507.5" y="-74.5" font-family="Helvetica,sans-Serif" font-size="10.00">_service_base_ext_local.hpp</text>
</a>
</g>
</g>
<!-- Node2 -->
<g id="node2" class="node">
<title>Node2</title>
<g id="a_node2"><a xlink:title=" ">
<polygon fill="white" stroke="#bfbfbf" points="0,-6 0,-25 151,-25 151,-6 0,-6"/>
<text text-anchor="middle" x="75.5" y="-13" font-family="Helvetica,sans-Serif" font-size="10.00">boost/asio/detail/config.hpp</text>
</a>
</g>
</g>
<!-- Node1&#45;&gt;Node2 -->
<g id="edge1" class="edge">
<title>Node1&#45;&gt;Node2</title>
<path fill="none" stroke="midnightblue" d="M1429.36,-97.42C1221.88,-95.18 640.13,-84.23 159.5,-31 149.57,-29.9 139.04,-28.37 128.91,-26.72"/>
<polygon fill="midnightblue" stroke="midnightblue" points="129.4,-23.25 118.95,-25.03 128.23,-30.15 129.4,-23.25"/>
</g>
<!-- Node3 -->
<g id="node3" class="node">
<title>Node3</title>
<g id="a_node3"><a xlink:title=" ">
<polygon fill="white" stroke="#bfbfbf" points="169,-6 169,-25 288,-25 288,-6 169,-6"/>
<text text-anchor="middle" x="228.5" y="-13" font-family="Helvetica,sans-Serif" font-size="10.00">boost/asio/buffer.hpp</text>
</a>
</g>
</g>
<!-- Node1&#45;&gt;Node3 -->
<g id="edge2" class="edge">
<title>Node1&#45;&gt;Node3</title>
<path fill="none" stroke="midnightblue" d="M1429.19,-97.85C1235.94,-96.59 721.23,-87.69 296.5,-31 289.01,-30 281.12,-28.62 273.47,-27.11"/>
<polygon fill="midnightblue" stroke="midnightblue" points="274.11,-23.67 263.61,-25.07 272.69,-30.53 274.11,-23.67"/>
</g>
<!-- Node4 -->
<g id="node4" class="node">
<title>Node4</title>
<g id="a_node4"><a xlink:title=" ">
<polygon fill="white" stroke="#bfbfbf" points="306,-6 306,-25 419,-25 419,-6 306,-6"/>
<text text-anchor="middle" x="362.5" y="-13" font-family="Helvetica,sans-Serif" font-size="10.00">boost/asio/error.hpp</text>
</a>
</g>
</g>
<!-- Node1&#45;&gt;Node4 -->
<g id="edge3" class="edge">
<title>Node1&#45;&gt;Node4</title>
<path fill="none" stroke="midnightblue" d="M1429.48,-97.36C1251.12,-94.99 800.2,-83.8 427.5,-31 420.58,-30.02 413.3,-28.69 406.22,-27.24"/>
<polygon fill="midnightblue" stroke="midnightblue" points="406.56,-23.73 396.05,-25.04 405.09,-30.58 406.56,-23.73"/>
</g>
<!-- Node5 -->
<g id="node5" class="node">
<title>Node5</title>
<g id="a_node5"><a xlink:title=" ">
<polygon fill="white" stroke="#bfbfbf" points="437,-0.5 437,-30.5 554,-30.5 554,-0.5 437,-0.5"/>
<text text-anchor="start" x="445" y="-18.5" font-family="Helvetica,sans-Serif" font-size="10.00">boost/asio/execution</text>
<text text-anchor="middle" x="495.5" y="-7.5" font-family="Helvetica,sans-Serif" font-size="10.00">_context.hpp</text>
</a>
</g>
</g>
<!-- Node1&#45;&gt;Node5 -->
<g id="edge4" class="edge">
<title>Node1&#45;&gt;Node5</title>
<path fill="none" stroke="midnightblue" d="M1429.31,-96.22C1268.68,-91.74 889.91,-76.97 564.34,-31.14"/>
<polygon fill="midnightblue" stroke="midnightblue" points="564.63,-27.65 554.24,-29.71 563.65,-34.58 564.63,-27.65"/>
</g>
<!-- Node6 -->
<g id="node6" class="node">
<title>Node6</title>
<g id="a_node6"><a xlink:title=" ">
<polygon fill="white" stroke="#bfbfbf" points="572,-6 572,-25 723,-25 723,-6 572,-6"/>
<text text-anchor="middle" x="647.5" y="-13" font-family="Helvetica,sans-Serif" font-size="10.00">boost/asio/socket_base.hpp</text>
</a>
</g>
</g>
<!-- Node1&#45;&gt;Node6 -->
<g id="edge5" class="edge">
<title>Node1&#45;&gt;Node6</title>
<path fill="none" stroke="midnightblue" d="M1429.34,-93.45C1289.14,-84.8 985.8,-63.87 731.5,-31 722.13,-29.79 712.21,-28.28 702.6,-26.7"/>
<polygon fill="midnightblue" stroke="midnightblue" points="703.17,-23.25 692.73,-25.03 702.01,-30.15 703.17,-23.25"/>
</g>
<!-- Node7 -->
<g id="node7" class="node">
<title>Node7</title>
<g id="a_node7"><a xlink:title=" ">
<polygon fill="white" stroke="#bfbfbf" points="741,-0.5 741,-30.5 872,-30.5 872,-0.5 741,-0.5"/>
<text text-anchor="start" x="749" y="-18.5" font-family="Helvetica,sans-Serif" font-size="10.00">boost/asio/detail/buffer</text>
<text text-anchor="middle" x="806.5" y="-7.5" font-family="Helvetica,sans-Serif" font-size="10.00">_sequence_adapter.hpp</text>
</a>
</g>
</g>
<!-- Node1&#45;&gt;Node7 -->
<g id="edge6" class="edge">
<title>Node1&#45;&gt;Node7</title>
<path fill="none" stroke="midnightblue" d="M1429.02,-91.82C1311.93,-82.12 1084.45,-61.37 882.13,-31.18"/>
<polygon fill="midnightblue" stroke="midnightblue" points="882.63,-27.71 872.22,-29.68 881.58,-34.63 882.63,-27.71"/>
</g>
<!-- Node8 -->
<g id="node8" class="node">
<title>Node8</title>
<g id="a_node8"><a xlink:title=" ">
<polygon fill="white" stroke="#bfbfbf" points="890,-6 890,-25 1051,-25 1051,-6 890,-6"/>
<text text-anchor="middle" x="970.5" y="-13" font-family="Helvetica,sans-Serif" font-size="10.00">boost/asio/detail/memory.hpp</text>
</a>
</g>
</g>
<!-- Node1&#45;&gt;Node8 -->
<g id="edge7" class="edge">
<title>Node1&#45;&gt;Node8</title>
<path fill="none" stroke="midnightblue" d="M1429.14,-86.52C1339.86,-73.38 1189.6,-51.07 1060.5,-31 1051.54,-29.61 1042.09,-28.11 1032.81,-26.63"/>
<polygon fill="midnightblue" stroke="midnightblue" points="1033.26,-23.16 1022.83,-25.03 1032.15,-30.07 1033.26,-23.16"/>
</g>
<!-- Node9 -->
<g id="node9" class="node">
<title>Node9</title>
<g id="a_node9"><a xlink:title=" ">
<polygon fill="white" stroke="#bfbfbf" points="1069.5,-0.5 1069.5,-30.5 1209.5,-30.5 1209.5,-0.5 1069.5,-0.5"/>
<text text-anchor="start" x="1077.5" y="-18.5" font-family="Helvetica,sans-Serif" font-size="10.00">boost/asio/detail/reactive</text>
<text text-anchor="middle" x="1139.5" y="-7.5" font-family="Helvetica,sans-Serif" font-size="10.00">_null_buffers_op.hpp</text>
</a>
</g>
</g>
<!-- Node1&#45;&gt;Node9 -->
<g id="edge8" class="edge">
<title>Node1&#45;&gt;Node9</title>
<path fill="none" stroke="midnightblue" d="M1429.46,-80.72C1365.37,-66.52 1275.27,-46.57 1212.58,-32.68"/>
<polygon fill="midnightblue" stroke="midnightblue" points="1213.28,-29.26 1202.76,-30.51 1211.77,-36.09 1213.28,-29.26"/>
</g>
<!-- Node10 -->
<g id="node10" class="node">
<title>Node10</title>
<g id="a_node10"><a xlink:title=" ">
<polygon fill="white" stroke="#bfbfbf" points="1228,-0.5 1228,-30.5 1395,-30.5 1395,-0.5 1228,-0.5"/>
<text text-anchor="start" x="1236" y="-18.5" font-family="Helvetica,sans-Serif" font-size="10.00">boost/asio/detail/reactive</text>
<text text-anchor="middle" x="1311.5" y="-7.5" font-family="Helvetica,sans-Serif" font-size="10.00">_socket_recv_op_ext_local.hpp</text>
</a>
</g>
</g>
<!-- Node1&#45;&gt;Node10 -->
<g id="edge9" class="edge">
<title>Node1&#45;&gt;Node10</title>
<path fill="none" stroke="midnightblue" d="M1433.96,-67.42C1407.23,-56.3 1377.9,-44.11 1354.65,-34.44"/>
<polygon fill="midnightblue" stroke="midnightblue" points="1355.99,-31.21 1345.41,-30.6 1353.3,-37.67 1355.99,-31.21"/>
</g>
<!-- Node11 -->
<g id="node11" class="node">
<title>Node11</title>
<g id="a_node11"><a xlink:title=" ">
<polygon fill="white" stroke="#bfbfbf" points="1413.5,-0.5 1413.5,-30.5 1601.5,-30.5 1601.5,-0.5 1413.5,-0.5"/>
<text text-anchor="start" x="1421.5" y="-18.5" font-family="Helvetica,sans-Serif" font-size="10.00">boost/asio/detail/reactive</text>
<text text-anchor="middle" x="1507.5" y="-7.5" font-family="Helvetica,sans-Serif" font-size="10.00">_socket_recvmsg_op_ext_local.hpp</text>
</a>
</g>
</g>
<!-- Node1&#45;&gt;Node11 -->
<g id="edge10" class="edge">
<title>Node1&#45;&gt;Node11</title>
<path fill="none" stroke="midnightblue" d="M1507.5,-67.19C1507.5,-58.41 1507.5,-48.98 1507.5,-40.66"/>
<polygon fill="midnightblue" stroke="midnightblue" points="1511,-40.52 1507.5,-30.52 1504,-40.52 1511,-40.52"/>
</g>
<!-- Node12 -->
<g id="node12" class="node">
<title>Node12</title>
<g id="a_node12"><a xlink:title=" ">
<polygon fill="white" stroke="#bfbfbf" points="1619.5,-0.5 1619.5,-30.5 1759.5,-30.5 1759.5,-0.5 1619.5,-0.5"/>
<text text-anchor="start" x="1627.5" y="-18.5" font-family="Helvetica,sans-Serif" font-size="10.00">boost/asio/detail/reactive</text>
<text text-anchor="middle" x="1689.5" y="-7.5" font-family="Helvetica,sans-Serif" font-size="10.00">_socket_send_op.hpp</text>
</a>
</g>
</g>
<!-- Node1&#45;&gt;Node12 -->
<g id="edge11" class="edge">
<title>Node1&#45;&gt;Node12</title>
<path fill="none" stroke="midnightblue" d="M1575.79,-67.42C1600.39,-56.4 1627.36,-44.33 1648.85,-34.7"/>
<polygon fill="midnightblue" stroke="midnightblue" points="1650.32,-37.88 1658.01,-30.6 1647.46,-31.49 1650.32,-37.88"/>
</g>
<!-- Node13 -->
<g id="node13" class="node">
<title>Node13</title>
<g id="a_node13"><a xlink:title=" ">
<polygon fill="white" stroke="#bfbfbf" points="1777.5,-0.5 1777.5,-30.5 1917.5,-30.5 1917.5,-0.5 1777.5,-0.5"/>
<text text-anchor="start" x="1785.5" y="-18.5" font-family="Helvetica,sans-Serif" font-size="10.00">boost/asio/detail/reactive</text>
<text text-anchor="middle" x="1847.5" y="-7.5" font-family="Helvetica,sans-Serif" font-size="10.00">_wait_op.hpp</text>
</a>
</g>
</g>
<!-- Node1&#45;&gt;Node13 -->
<g id="edge12" class="edge">
<title>Node1&#45;&gt;Node13</title>
<path fill="none" stroke="midnightblue" d="M1585.5,-79.3C1643.95,-65.29 1723.15,-46.31 1779.13,-32.89"/>
<polygon fill="midnightblue" stroke="midnightblue" points="1780.04,-36.27 1788.95,-30.53 1778.41,-29.46 1780.04,-36.27"/>
</g>
<!-- Node14 -->
<g id="node14" class="node">
<title>Node14</title>
<g id="a_node14"><a xlink:title=" ">
<polygon fill="white" stroke="#bfbfbf" points="1936,-6 1936,-25 2091,-25 2091,-6 1936,-6"/>
<text text-anchor="middle" x="2013.5" y="-13" font-family="Helvetica,sans-Serif" font-size="10.00">boost/asio/detail/reactor.hpp</text>
</a>
</g>
</g>
<!-- Node1&#45;&gt;Node14 -->
<g id="edge13" class="edge">
<title>Node1&#45;&gt;Node14</title>
<path fill="none" stroke="midnightblue" d="M1585.52,-85.68C1669.69,-72.36 1807.63,-50.41 1926.5,-31 1934.86,-29.63 1943.68,-28.18 1952.36,-26.74"/>
<polygon fill="midnightblue" stroke="midnightblue" points="1953.15,-30.16 1962.45,-25.07 1952.01,-23.25 1953.15,-30.16"/>
</g>
<!-- Node15 -->
<g id="node15" class="node">
<title>Node15</title>
<g id="a_node15"><a xlink:title=" ">
<polygon fill="white" stroke="#bfbfbf" points="2109,-0.5 2109,-30.5 2244,-30.5 2244,-0.5 2109,-0.5"/>
<text text-anchor="start" x="2117" y="-18.5" font-family="Helvetica,sans-Serif" font-size="10.00">boost/asio/detail/reactor</text>
<text text-anchor="middle" x="2176.5" y="-7.5" font-family="Helvetica,sans-Serif" font-size="10.00">_op.hpp</text>
</a>
</g>
</g>
<!-- Node1&#45;&gt;Node15 -->
<g id="edge14" class="edge">
<title>Node1&#45;&gt;Node15</title>
<path fill="none" stroke="midnightblue" d="M1585.93,-91.05C1697.67,-80.73 1909.28,-59.61 2098.46,-31.25"/>
<polygon fill="midnightblue" stroke="midnightblue" points="2099.23,-34.67 2108.59,-29.72 2098.18,-27.75 2099.23,-34.67"/>
</g>
<!-- Node16 -->
<g id="node16" class="node">
<title>Node16</title>
<g id="a_node16"><a xlink:title=" ">
<polygon fill="white" stroke="#bfbfbf" points="2262.5,-0.5 2262.5,-30.5 2394.5,-30.5 2394.5,-0.5 2262.5,-0.5"/>
<text text-anchor="start" x="2270.5" y="-18.5" font-family="Helvetica,sans-Serif" font-size="10.00">boost/asio/detail/socket</text>
<text text-anchor="middle" x="2328.5" y="-7.5" font-family="Helvetica,sans-Serif" font-size="10.00">_holder.hpp</text>
</a>
</g>
</g>
<!-- Node1&#45;&gt;Node16 -->
<g id="edge15" class="edge">
<title>Node1&#45;&gt;Node16</title>
<path fill="none" stroke="midnightblue" d="M1585.66,-93.6C1720.02,-85.45 2003.51,-65.75 2252.35,-31.07"/>
<polygon fill="midnightblue" stroke="midnightblue" points="2252.89,-34.53 2262.31,-29.67 2251.92,-27.6 2252.89,-34.53"/>
</g>
<!-- Node17 -->
<g id="node17" class="node">
<title>Node17</title>
<g id="a_node17"><a xlink:title=" ">
<polygon fill="white" stroke="#bfbfbf" points="2412.5,-0.5 2412.5,-30.5 2544.5,-30.5 2544.5,-0.5 2412.5,-0.5"/>
<text text-anchor="start" x="2420.5" y="-18.5" font-family="Helvetica,sans-Serif" font-size="10.00">boost/asio/detail/socket</text>
<text text-anchor="middle" x="2478.5" y="-7.5" font-family="Helvetica,sans-Serif" font-size="10.00">_ops_ext_local.hpp</text>
</a>
</g>
</g>
<!-- Node1&#45;&gt;Node17 -->
<g id="edge16" class="edge">
<title>Node1&#45;&gt;Node17</title>
<path fill="none" stroke="midnightblue" d="M1585.72,-95.21C1740.12,-89.05 2095.04,-71.56 2402.32,-31.06"/>
<polygon fill="midnightblue" stroke="midnightblue" points="2402.86,-34.52 2412.32,-29.73 2401.94,-27.58 2402.86,-34.52"/>
</g>
<!-- Node18 -->
<g id="node18" class="node">
<title>Node18</title>
<g id="a_node18"><a xlink:title=" ">
<polygon fill="white" stroke="#bfbfbf" points="2562.5,-0.5 2562.5,-30.5 2694.5,-30.5 2694.5,-0.5 2562.5,-0.5"/>
<text text-anchor="start" x="2570.5" y="-18.5" font-family="Helvetica,sans-Serif" font-size="10.00">boost/asio/detail/socket</text>
<text text-anchor="middle" x="2628.5" y="-7.5" font-family="Helvetica,sans-Serif" font-size="10.00">_types.hpp</text>
</a>
</g>
</g>
<!-- Node1&#45;&gt;Node18 -->
<g id="edge17" class="edge">
<title>Node1&#45;&gt;Node18</title>
<path fill="none" stroke="midnightblue" d="M1585.57,-96.39C1758.29,-92.08 2185.83,-77.39 2552.31,-31.04"/>
<polygon fill="midnightblue" stroke="midnightblue" points="2552.84,-34.5 2562.32,-29.77 2551.96,-27.56 2552.84,-34.5"/>
</g>
<!-- Node19 -->
<g id="node19" class="node">
<title>Node19</title>
<g id="a_node19"><a xlink:title=" ">
<polygon fill="white" stroke="#bfbfbf" points="2712.5,-0.5 2712.5,-30.5 2836.5,-30.5 2836.5,-0.5 2712.5,-0.5"/>
<text text-anchor="start" x="2720.5" y="-18.5" font-family="Helvetica,sans-Serif" font-size="10.00">boost/asio/detail/push</text>
<text text-anchor="middle" x="2774.5" y="-7.5" font-family="Helvetica,sans-Serif" font-size="10.00">_options.hpp</text>
</a>
</g>
</g>
<!-- Node1&#45;&gt;Node19 -->
<g id="edge18" class="edge">
<title>Node1&#45;&gt;Node19</title>
<path fill="none" stroke="midnightblue" d="M1585.52,-97.55C1775.35,-95.61 2276.4,-85.41 2702.2,-31.04"/>
<polygon fill="midnightblue" stroke="midnightblue" points="2702.78,-34.49 2712.25,-29.75 2701.88,-27.55 2702.78,-34.49"/>
</g>
<!-- Node20 -->
<g id="node20" class="node">
<title>Node20</title>
<g id="a_node20"><a xlink:title=" ">
<polygon fill="white" stroke="#bfbfbf" points="2855,-0.5 2855,-30.5 2974,-30.5 2974,-0.5 2855,-0.5"/>
<text text-anchor="start" x="2863" y="-18.5" font-family="Helvetica,sans-Serif" font-size="10.00">boost/asio/detail/pop</text>
<text text-anchor="middle" x="2914.5" y="-7.5" font-family="Helvetica,sans-Serif" font-size="10.00">_options.hpp</text>
</a>
</g>
</g>
<!-- Node1&#45;&gt;Node20 -->
<g id="edge19" class="edge">
<title>Node1&#45;&gt;Node20</title>
<path fill="none" stroke="midnightblue" d="M1585.55,-98.36C1790.69,-98.4 2361.88,-92.59 2844.8,-30.93"/>
<polygon fill="midnightblue" stroke="midnightblue" points="2845.29,-34.4 2854.76,-29.65 2844.39,-27.46 2845.29,-34.4"/>
</g>
</g>
</svg>
