<?xml version="1.0" encoding="UTF-8" standalone="no"?>
<!DOCTYPE svg PUBLIC "-//W3C//DTD SVG 1.1//EN"
 "http://www.w3.org/Graphics/SVG/1.1/DTD/svg11.dtd">
<!-- Generated by graphviz version 2.43.0 (0)
 -->
<!-- Title: /home/kali/projects/vsomeip/implementation/utility/include/byteorder.hpp Pages: 1 -->
<svg width="3948pt" height="139pt"
 viewBox="0.00 0.00 3948.00 139.00" xmlns="http://www.w3.org/2000/svg" xmlns:xlink="http://www.w3.org/1999/xlink">
<g id="graph0" class="graph" transform="scale(1 1) rotate(0) translate(4 135)">
<title>/home/kali/projects/vsomeip/implementation/utility/include/byteorder.hpp</title>
<polygon fill="white" stroke="transparent" points="-4,4 -4,-135 3944,-135 3944,4 -4,4"/>
<!-- Node1 -->
<g id="node1" class="node">
<title>Node1</title>
<g id="a_node1"><a xlink:title=" ">
<polygon fill="#bfbfbf" stroke="black" points="1901,-89.5 1901,-130.5 2058,-130.5 2058,-89.5 1901,-89.5"/>
<text text-anchor="start" x="1909" y="-118.5" font-family="Helvetica,sans-Serif" font-size="10.00">/home/kali/projects</text>
<text text-anchor="start" x="1909" y="-107.5" font-family="Helvetica,sans-Serif" font-size="10.00">/vsomeip/implementation</text>
<text text-anchor="middle" x="1979.5" y="-96.5" font-family="Helvetica,sans-Serif" font-size="10.00">/utility/include/byteorder.hpp</text>
</a>
</g>
</g>
<!-- Node2 -->
<g id="node2" class="node">
<title>Node2</title>
<g id="a_node2"><a xlink:href="client__endpoint__impl_8cpp.html" target="_top" xlink:title=" ">
<polygon fill="white" stroke="black" points="0,-0.5 0,-52.5 163,-52.5 163,-0.5 0,-0.5"/>
<text text-anchor="start" x="8" y="-40.5" font-family="Helvetica,sans-Serif" font-size="10.00">/home/kali/projects</text>
<text text-anchor="start" x="8" y="-29.5" font-family="Helvetica,sans-Serif" font-size="10.00">/vsomeip/implementation</text>
<text text-anchor="start" x="8" y="-18.5" font-family="Helvetica,sans-Serif" font-size="10.00">/endpoints/src/client_endpoint</text>
<text text-anchor="middle" x="81.5" y="-7.5" font-family="Helvetica,sans-Serif" font-size="10.00">_impl.cpp</text>
</a>
</g>
</g>
<!-- Node1&#45;&gt;Node2 -->
<g id="edge1" class="edge">
<title>Node1&#45;&gt;Node2</title>
<path fill="none" stroke="midnightblue" d="M1890.74,-109.13C1575.18,-109.12 508.54,-105.16 171.5,-53 168.77,-52.58 166.01,-52.1 163.23,-51.57"/>
<polygon fill="midnightblue" stroke="midnightblue" points="1890.75,-112.63 1900.75,-109.12 1890.75,-105.63 1890.75,-112.63"/>
</g>
<!-- Node3 -->
<g id="node3" class="node">
<title>Node3</title>
<g id="a_node3"><a xlink:href="endpoint__manager__impl_8cpp.html" target="_top" xlink:title=" ">
<polygon fill="white" stroke="black" points="181,-0.5 181,-52.5 324,-52.5 324,-0.5 181,-0.5"/>
<text text-anchor="start" x="189" y="-40.5" font-family="Helvetica,sans-Serif" font-size="10.00">/home/kali/projects</text>
<text text-anchor="start" x="189" y="-29.5" font-family="Helvetica,sans-Serif" font-size="10.00">/vsomeip/implementation</text>
<text text-anchor="start" x="189" y="-18.5" font-family="Helvetica,sans-Serif" font-size="10.00">/endpoints/src/endpoint</text>
<text text-anchor="middle" x="252.5" y="-7.5" font-family="Helvetica,sans-Serif" font-size="10.00">_manager_impl.cpp</text>
</a>
</g>
</g>
<!-- Node1&#45;&gt;Node3 -->
<g id="edge2" class="edge">
<title>Node1&#45;&gt;Node3</title>
<path fill="none" stroke="midnightblue" d="M1890.44,-109.18C1593.03,-109.3 635.84,-105.47 332.5,-53 329.77,-52.53 327.01,-51.99 324.23,-51.39"/>
<polygon fill="midnightblue" stroke="midnightblue" points="1890.74,-112.68 1900.74,-109.18 1890.74,-105.68 1890.74,-112.68"/>
</g>
<!-- Node4 -->
<g id="node4" class="node">
<title>Node4</title>
<g id="a_node4"><a xlink:href="local__server__endpoint__impl_8cpp.html" target="_top" xlink:title=" ">
<polygon fill="white" stroke="black" points="342,-0.5 342,-52.5 489,-52.5 489,-0.5 342,-0.5"/>
<text text-anchor="start" x="350" y="-40.5" font-family="Helvetica,sans-Serif" font-size="10.00">/home/kali/projects</text>
<text text-anchor="start" x="350" y="-29.5" font-family="Helvetica,sans-Serif" font-size="10.00">/vsomeip/implementation</text>
<text text-anchor="start" x="350" y="-18.5" font-family="Helvetica,sans-Serif" font-size="10.00">/endpoints/src/local_server</text>
<text text-anchor="middle" x="415.5" y="-7.5" font-family="Helvetica,sans-Serif" font-size="10.00">_endpoint_impl.cpp</text>
</a>
</g>
</g>
<!-- Node1&#45;&gt;Node4 -->
<g id="edge3" class="edge">
<title>Node1&#45;&gt;Node4</title>
<path fill="none" stroke="midnightblue" d="M1890.55,-108.71C1613.36,-107.31 767.63,-99.27 497.5,-53 494.71,-52.52 491.88,-51.97 489.03,-51.37"/>
<polygon fill="midnightblue" stroke="midnightblue" points="1890.94,-112.21 1900.96,-108.76 1890.97,-105.21 1890.94,-112.21"/>
</g>
<!-- Node5 -->
<g id="node5" class="node">
<title>Node5</title>
<g id="a_node5"><a xlink:href="server__endpoint__impl_8cpp.html" target="_top" xlink:title=" ">
<polygon fill="white" stroke="black" points="507,-0.5 507,-52.5 674,-52.5 674,-0.5 507,-0.5"/>
<text text-anchor="start" x="515" y="-40.5" font-family="Helvetica,sans-Serif" font-size="10.00">/home/kali/projects</text>
<text text-anchor="start" x="515" y="-29.5" font-family="Helvetica,sans-Serif" font-size="10.00">/vsomeip/implementation</text>
<text text-anchor="start" x="515" y="-18.5" font-family="Helvetica,sans-Serif" font-size="10.00">/endpoints/src/server_endpoint</text>
<text text-anchor="middle" x="590.5" y="-7.5" font-family="Helvetica,sans-Serif" font-size="10.00">_impl.cpp</text>
</a>
</g>
</g>
<!-- Node1&#45;&gt;Node5 -->
<g id="edge4" class="edge">
<title>Node1&#45;&gt;Node5</title>
<path fill="none" stroke="midnightblue" d="M1890.54,-107.79C1637.33,-103.92 915.94,-89.9 682.5,-53 679.72,-52.56 676.9,-52.07 674.06,-51.53"/>
<polygon fill="midnightblue" stroke="midnightblue" points="1890.75,-111.29 1900.8,-107.94 1890.85,-104.29 1890.75,-111.29"/>
</g>
<!-- Node6 -->
<g id="node6" class="node">
<title>Node6</title>
<g id="a_node6"><a xlink:href="tcp__client__endpoint__impl_8cpp.html" target="_top" xlink:title=" ">
<polygon fill="white" stroke="black" points="692,-0.5 692,-52.5 835,-52.5 835,-0.5 692,-0.5"/>
<text text-anchor="start" x="700" y="-40.5" font-family="Helvetica,sans-Serif" font-size="10.00">/home/kali/projects</text>
<text text-anchor="start" x="700" y="-29.5" font-family="Helvetica,sans-Serif" font-size="10.00">/vsomeip/implementation</text>
<text text-anchor="start" x="700" y="-18.5" font-family="Helvetica,sans-Serif" font-size="10.00">/endpoints/src/tcp_client</text>
<text text-anchor="middle" x="763.5" y="-7.5" font-family="Helvetica,sans-Serif" font-size="10.00">_endpoint_impl.cpp</text>
</a>
</g>
</g>
<!-- Node1&#45;&gt;Node6 -->
<g id="edge5" class="edge">
<title>Node1&#45;&gt;Node6</title>
<path fill="none" stroke="midnightblue" d="M1890.78,-107.59C1659.83,-103.46 1044.06,-89.27 843.5,-53 840.77,-52.51 838.01,-51.95 835.24,-51.33"/>
<polygon fill="midnightblue" stroke="midnightblue" points="1890.76,-111.09 1900.82,-107.77 1890.88,-104.1 1890.76,-111.09"/>
</g>
<!-- Node7 -->
<g id="node7" class="node">
<title>Node7</title>
<g id="a_node7"><a xlink:href="tcp__server__endpoint__impl_8cpp.html" target="_top" xlink:title=" ">
<polygon fill="white" stroke="black" points="853,-0.5 853,-52.5 996,-52.5 996,-0.5 853,-0.5"/>
<text text-anchor="start" x="861" y="-40.5" font-family="Helvetica,sans-Serif" font-size="10.00">/home/kali/projects</text>
<text text-anchor="start" x="861" y="-29.5" font-family="Helvetica,sans-Serif" font-size="10.00">/vsomeip/implementation</text>
<text text-anchor="start" x="861" y="-18.5" font-family="Helvetica,sans-Serif" font-size="10.00">/endpoints/src/tcp_server</text>
<text text-anchor="middle" x="924.5" y="-7.5" font-family="Helvetica,sans-Serif" font-size="10.00">_endpoint_impl.cpp</text>
</a>
</g>
</g>
<!-- Node1&#45;&gt;Node7 -->
<g id="edge6" class="edge">
<title>Node1&#45;&gt;Node7</title>
<path fill="none" stroke="midnightblue" d="M1890.4,-106.74C1683.04,-101.03 1172.96,-84.17 1004.5,-53 1001.78,-52.5 999.02,-51.93 996.24,-51.3"/>
<polygon fill="midnightblue" stroke="midnightblue" points="1890.55,-110.25 1900.64,-107.02 1890.74,-103.25 1890.55,-110.25"/>
</g>
<!-- Node8 -->
<g id="node8" class="node">
<title>Node8</title>
<g id="a_node8"><a xlink:href="tp_8cpp.html" target="_top" xlink:title=" ">
<polygon fill="white" stroke="black" points="1014,-6 1014,-47 1157,-47 1157,-6 1014,-6"/>
<text text-anchor="start" x="1022" y="-35" font-family="Helvetica,sans-Serif" font-size="10.00">/home/kali/projects</text>
<text text-anchor="start" x="1022" y="-24" font-family="Helvetica,sans-Serif" font-size="10.00">/vsomeip/implementation</text>
<text text-anchor="middle" x="1085.5" y="-13" font-family="Helvetica,sans-Serif" font-size="10.00">/endpoints/src/tp.cpp</text>
</a>
</g>
</g>
<!-- Node1&#45;&gt;Node8 -->
<g id="edge7" class="edge">
<title>Node1&#45;&gt;Node8</title>
<path fill="none" stroke="midnightblue" d="M1890.86,-109.81C1740.36,-109.66 1425.8,-102.69 1165.5,-53 1157.48,-51.47 1149.14,-49.39 1141.01,-47.07"/>
<polygon fill="midnightblue" stroke="midnightblue" points="1890.98,-113.31 1900.98,-109.81 1890.98,-106.31 1890.98,-113.31"/>
</g>
<!-- Node9 -->
<g id="node9" class="node">
<title>Node9</title>
<g id="a_node9"><a xlink:href="tp__message_8cpp.html" target="_top" xlink:title=" ">
<polygon fill="white" stroke="black" points="1175,-6 1175,-47 1342,-47 1342,-6 1175,-6"/>
<text text-anchor="start" x="1183" y="-35" font-family="Helvetica,sans-Serif" font-size="10.00">/home/kali/projects</text>
<text text-anchor="start" x="1183" y="-24" font-family="Helvetica,sans-Serif" font-size="10.00">/vsomeip/implementation</text>
<text text-anchor="middle" x="1258.5" y="-13" font-family="Helvetica,sans-Serif" font-size="10.00">/endpoints/src/tp_message.cpp</text>
</a>
</g>
</g>
<!-- Node1&#45;&gt;Node9 -->
<g id="edge8" class="edge">
<title>Node1&#45;&gt;Node9</title>
<path fill="none" stroke="midnightblue" d="M1890.86,-106.18C1768.46,-101.13 1541.19,-87.62 1350.5,-53 1341.61,-51.39 1332.34,-49.3 1323.25,-47.03"/>
<polygon fill="midnightblue" stroke="midnightblue" points="1890.8,-109.68 1900.93,-106.58 1891.08,-102.68 1890.8,-109.68"/>
</g>
<!-- Node10 -->
<g id="node10" class="node">
<title>Node10</title>
<g id="a_node10"><a xlink:href="tp__reassembler_8cpp.html" target="_top" xlink:title=" ">
<polygon fill="white" stroke="black" points="1360,-6 1360,-47 1543,-47 1543,-6 1360,-6"/>
<text text-anchor="start" x="1368" y="-35" font-family="Helvetica,sans-Serif" font-size="10.00">/home/kali/projects</text>
<text text-anchor="start" x="1368" y="-24" font-family="Helvetica,sans-Serif" font-size="10.00">/vsomeip/implementation</text>
<text text-anchor="middle" x="1451.5" y="-13" font-family="Helvetica,sans-Serif" font-size="10.00">/endpoints/src/tp_reassembler.cpp</text>
</a>
</g>
</g>
<!-- Node1&#45;&gt;Node10 -->
<g id="edge9" class="edge">
<title>Node1&#45;&gt;Node10</title>
<path fill="none" stroke="midnightblue" d="M1890.86,-100.53C1803.96,-91.49 1667.95,-75.38 1551.5,-53 1542.53,-51.28 1533.16,-49.23 1523.91,-47.05"/>
<polygon fill="midnightblue" stroke="midnightblue" points="1890.64,-104.03 1900.95,-101.57 1891.36,-97.06 1890.64,-104.03"/>
</g>
<!-- Node11 -->
<g id="node11" class="node">
<title>Node11</title>
<g id="a_node11"><a xlink:href="udp__server__endpoint__impl_8cpp.html" target="_top" xlink:title=" ">
<polygon fill="white" stroke="black" points="1561,-0.5 1561,-52.5 1704,-52.5 1704,-0.5 1561,-0.5"/>
<text text-anchor="start" x="1569" y="-40.5" font-family="Helvetica,sans-Serif" font-size="10.00">/home/kali/projects</text>
<text text-anchor="start" x="1569" y="-29.5" font-family="Helvetica,sans-Serif" font-size="10.00">/vsomeip/implementation</text>
<text text-anchor="start" x="1569" y="-18.5" font-family="Helvetica,sans-Serif" font-size="10.00">/endpoints/src/udp_server</text>
<text text-anchor="middle" x="1632.5" y="-7.5" font-family="Helvetica,sans-Serif" font-size="10.00">_endpoint_impl.cpp</text>
</a>
</g>
</g>
<!-- Node1&#45;&gt;Node11 -->
<g id="edge10" class="edge">
<title>Node1&#45;&gt;Node11</title>
<path fill="none" stroke="midnightblue" d="M1890.83,-92.75C1838.61,-82.6 1771.45,-68.53 1712.5,-53 1709.82,-52.29 1707.1,-51.55 1704.36,-50.78"/>
<polygon fill="midnightblue" stroke="midnightblue" points="1890.25,-96.21 1900.73,-94.67 1891.58,-89.33 1890.25,-96.21"/>
</g>
<!-- Node12 -->
<g id="node12" class="node">
<title>Node12</title>
<g id="a_node12"><a xlink:href="message_2src_2deserializer_8cpp.html" target="_top" xlink:title=" ">
<polygon fill="white" stroke="black" points="1722,-6 1722,-47 1883,-47 1883,-6 1722,-6"/>
<text text-anchor="start" x="1730" y="-35" font-family="Helvetica,sans-Serif" font-size="10.00">/home/kali/projects</text>
<text text-anchor="start" x="1730" y="-24" font-family="Helvetica,sans-Serif" font-size="10.00">/vsomeip/implementation</text>
<text text-anchor="middle" x="1802.5" y="-13" font-family="Helvetica,sans-Serif" font-size="10.00">/message/src/deserializer.cpp</text>
</a>
</g>
</g>
<!-- Node1&#45;&gt;Node12 -->
<g id="edge11" class="edge">
<title>Node1&#45;&gt;Node12</title>
<path fill="none" stroke="midnightblue" d="M1928.01,-85.29C1901.6,-73.13 1869.83,-58.5 1844.86,-47"/>
<polygon fill="midnightblue" stroke="midnightblue" points="1926.56,-88.48 1937.1,-89.48 1929.48,-82.12 1926.56,-88.48"/>
</g>
<!-- Node13 -->
<g id="node13" class="node">
<title>Node13</title>
<g id="a_node13"><a xlink:href="message_2src_2message__base__impl_8cpp.html" target="_top" xlink:title=" ">
<polygon fill="white" stroke="black" points="1901,-0.5 1901,-52.5 2058,-52.5 2058,-0.5 1901,-0.5"/>
<text text-anchor="start" x="1909" y="-40.5" font-family="Helvetica,sans-Serif" font-size="10.00">/home/kali/projects</text>
<text text-anchor="start" x="1909" y="-29.5" font-family="Helvetica,sans-Serif" font-size="10.00">/vsomeip/implementation</text>
<text text-anchor="start" x="1909" y="-18.5" font-family="Helvetica,sans-Serif" font-size="10.00">/message/src/message_base</text>
<text text-anchor="middle" x="1979.5" y="-7.5" font-family="Helvetica,sans-Serif" font-size="10.00">_impl.cpp</text>
</a>
</g>
</g>
<!-- Node1&#45;&gt;Node13 -->
<g id="edge12" class="edge">
<title>Node1&#45;&gt;Node13</title>
<path fill="none" stroke="midnightblue" d="M1979.5,-79.12C1979.5,-70.41 1979.5,-60.99 1979.5,-52.61"/>
<polygon fill="midnightblue" stroke="midnightblue" points="1976,-79.27 1979.5,-89.27 1983,-79.27 1976,-79.27"/>
</g>
<!-- Node14 -->
<g id="node14" class="node">
<title>Node14</title>
<g id="a_node14"><a xlink:href="message_2src_2message__impl_8cpp.html" target="_top" xlink:title=" ">
<polygon fill="white" stroke="black" points="2076.5,-6 2076.5,-47 2252.5,-47 2252.5,-6 2076.5,-6"/>
<text text-anchor="start" x="2084.5" y="-35" font-family="Helvetica,sans-Serif" font-size="10.00">/home/kali/projects</text>
<text text-anchor="start" x="2084.5" y="-24" font-family="Helvetica,sans-Serif" font-size="10.00">/vsomeip/implementation</text>
<text text-anchor="middle" x="2164.5" y="-13" font-family="Helvetica,sans-Serif" font-size="10.00">/message/src/message_impl.cpp</text>
</a>
</g>
</g>
<!-- Node1&#45;&gt;Node14 -->
<g id="edge13" class="edge">
<title>Node1&#45;&gt;Node14</title>
<path fill="none" stroke="midnightblue" d="M2033.32,-85.29C2060.92,-73.13 2094.13,-58.5 2120.23,-47"/>
<polygon fill="midnightblue" stroke="midnightblue" points="2031.55,-82.24 2023.81,-89.48 2034.37,-88.65 2031.55,-82.24"/>
</g>
<!-- Node15 -->
<g id="node15" class="node">
<title>Node15</title>
<g id="a_node15"><a xlink:href="serializer_8cpp.html" target="_top" xlink:title=" ">
<polygon fill="white" stroke="black" points="2270,-6 2270,-47 2419,-47 2419,-6 2270,-6"/>
<text text-anchor="start" x="2278" y="-35" font-family="Helvetica,sans-Serif" font-size="10.00">/home/kali/projects</text>
<text text-anchor="start" x="2278" y="-24" font-family="Helvetica,sans-Serif" font-size="10.00">/vsomeip/implementation</text>
<text text-anchor="middle" x="2344.5" y="-13" font-family="Helvetica,sans-Serif" font-size="10.00">/message/src/serializer.cpp</text>
</a>
</g>
</g>
<!-- Node1&#45;&gt;Node15 -->
<g id="edge14" class="edge">
<title>Node1&#45;&gt;Node15</title>
<path fill="none" stroke="midnightblue" d="M2067.94,-93.83C2123.77,-83.67 2197.24,-69.21 2261.5,-53 2268.66,-51.19 2276.12,-49.14 2283.51,-47.01"/>
<polygon fill="midnightblue" stroke="midnightblue" points="2067.3,-90.39 2058.08,-95.62 2068.55,-97.28 2067.3,-90.39"/>
</g>
<!-- Node16 -->
<g id="node16" class="node">
<title>Node16</title>
<g id="a_node16"><a xlink:href="routing__manager__base_8cpp.html" target="_top" xlink:title=" ">
<polygon fill="white" stroke="black" points="2436.5,-0.5 2436.5,-52.5 2594.5,-52.5 2594.5,-0.5 2436.5,-0.5"/>
<text text-anchor="start" x="2444.5" y="-40.5" font-family="Helvetica,sans-Serif" font-size="10.00">/home/kali/projects</text>
<text text-anchor="start" x="2444.5" y="-29.5" font-family="Helvetica,sans-Serif" font-size="10.00">/vsomeip/implementation</text>
<text text-anchor="start" x="2444.5" y="-18.5" font-family="Helvetica,sans-Serif" font-size="10.00">/routing/src/routing_manager</text>
<text text-anchor="middle" x="2515.5" y="-7.5" font-family="Helvetica,sans-Serif" font-size="10.00">_base.cpp</text>
</a>
</g>
</g>
<!-- Node1&#45;&gt;Node16 -->
<g id="edge15" class="edge">
<title>Node1&#45;&gt;Node16</title>
<path fill="none" stroke="midnightblue" d="M2068.41,-102.16C2159.5,-94.17 2304.88,-78.65 2428.5,-53 2431.12,-52.46 2433.78,-51.87 2436.45,-51.26"/>
<polygon fill="midnightblue" stroke="midnightblue" points="2068.06,-98.68 2058.4,-103.03 2068.67,-105.65 2068.06,-98.68"/>
</g>
<!-- Node17 -->
<g id="node17" class="node">
<title>Node17</title>
<g id="a_node17"><a xlink:href="routing__manager__impl_8cpp.html" target="_top" xlink:title=" ">
<polygon fill="white" stroke="black" points="2612.5,-0.5 2612.5,-52.5 2770.5,-52.5 2770.5,-0.5 2612.5,-0.5"/>
<text text-anchor="start" x="2620.5" y="-40.5" font-family="Helvetica,sans-Serif" font-size="10.00">/home/kali/projects</text>
<text text-anchor="start" x="2620.5" y="-29.5" font-family="Helvetica,sans-Serif" font-size="10.00">/vsomeip/implementation</text>
<text text-anchor="start" x="2620.5" y="-18.5" font-family="Helvetica,sans-Serif" font-size="10.00">/routing/src/routing_manager</text>
<text text-anchor="middle" x="2691.5" y="-7.5" font-family="Helvetica,sans-Serif" font-size="10.00">_impl.cpp</text>
</a>
</g>
</g>
<!-- Node1&#45;&gt;Node17 -->
<g id="edge16" class="edge">
<title>Node1&#45;&gt;Node17</title>
<path fill="none" stroke="midnightblue" d="M2068.5,-106.39C2190.23,-101.61 2415.05,-88.42 2603.5,-53 2606.31,-52.47 2609.17,-51.89 2612.04,-51.27"/>
<polygon fill="midnightblue" stroke="midnightblue" points="2068.34,-102.9 2058.48,-106.78 2068.61,-109.89 2068.34,-102.9"/>
</g>
<!-- Node18 -->
<g id="node18" class="node">
<title>Node18</title>
<g id="a_node18"><a xlink:href="routing__manager__proxy_8cpp.html" target="_top" xlink:title=" ">
<polygon fill="white" stroke="black" points="2788.5,-0.5 2788.5,-52.5 2946.5,-52.5 2946.5,-0.5 2788.5,-0.5"/>
<text text-anchor="start" x="2796.5" y="-40.5" font-family="Helvetica,sans-Serif" font-size="10.00">/home/kali/projects</text>
<text text-anchor="start" x="2796.5" y="-29.5" font-family="Helvetica,sans-Serif" font-size="10.00">/vsomeip/implementation</text>
<text text-anchor="start" x="2796.5" y="-18.5" font-family="Helvetica,sans-Serif" font-size="10.00">/routing/src/routing_manager</text>
<text text-anchor="middle" x="2867.5" y="-7.5" font-family="Helvetica,sans-Serif" font-size="10.00">_proxy.cpp</text>
</a>
</g>
</g>
<!-- Node1&#45;&gt;Node18 -->
<g id="edge17" class="edge">
<title>Node1&#45;&gt;Node18</title>
<path fill="none" stroke="midnightblue" d="M2068.67,-108.9C2217.23,-107.37 2524.32,-98.37 2779.5,-53 2782.32,-52.5 2785.18,-51.94 2788.05,-51.34"/>
<polygon fill="midnightblue" stroke="midnightblue" points="2068.21,-105.41 2058.25,-109 2068.28,-112.41 2068.21,-105.41"/>
</g>
<!-- Node19 -->
<g id="node19" class="node">
<title>Node19</title>
<g id="a_node19"><a xlink:href="routing__manager__stub_8cpp.html" target="_top" xlink:title=" ">
<polygon fill="white" stroke="black" points="2964.5,-0.5 2964.5,-52.5 3122.5,-52.5 3122.5,-0.5 2964.5,-0.5"/>
<text text-anchor="start" x="2972.5" y="-40.5" font-family="Helvetica,sans-Serif" font-size="10.00">/home/kali/projects</text>
<text text-anchor="start" x="2972.5" y="-29.5" font-family="Helvetica,sans-Serif" font-size="10.00">/vsomeip/implementation</text>
<text text-anchor="start" x="2972.5" y="-18.5" font-family="Helvetica,sans-Serif" font-size="10.00">/routing/src/routing_manager</text>
<text text-anchor="middle" x="3043.5" y="-7.5" font-family="Helvetica,sans-Serif" font-size="10.00">_stub.cpp</text>
</a>
</g>
</g>
<!-- Node1&#45;&gt;Node19 -->
<g id="edge18" class="edge">
<title>Node1&#45;&gt;Node19</title>
<path fill="none" stroke="midnightblue" d="M2068.26,-106.46C2275.48,-100.12 2786.36,-81.98 2955.5,-53 2958.32,-52.52 2961.18,-51.97 2964.06,-51.39"/>
<polygon fill="midnightblue" stroke="midnightblue" points="2067.91,-102.97 2058.02,-106.77 2068.13,-109.97 2067.91,-102.97"/>
</g>
<!-- Node20 -->
<g id="node20" class="node">
<title>Node20</title>
<g id="a_node20"><a xlink:href="policy_8cpp.html" target="_top" xlink:title=" ">
<polygon fill="white" stroke="black" points="3141,-6 3141,-47 3284,-47 3284,-6 3141,-6"/>
<text text-anchor="start" x="3149" y="-35" font-family="Helvetica,sans-Serif" font-size="10.00">/home/kali/projects</text>
<text text-anchor="start" x="3149" y="-24" font-family="Helvetica,sans-Serif" font-size="10.00">/vsomeip/implementation</text>
<text text-anchor="middle" x="3212.5" y="-13" font-family="Helvetica,sans-Serif" font-size="10.00">/security/src/policy.cpp</text>
</a>
</g>
</g>
<!-- Node1&#45;&gt;Node20 -->
<g id="edge19" class="edge">
<title>Node1&#45;&gt;Node20</title>
<path fill="none" stroke="midnightblue" d="M2068.21,-107.62C2301.4,-103.54 2927.68,-89.41 3131.5,-53 3139.77,-51.52 3148.38,-49.44 3156.75,-47.09"/>
<polygon fill="midnightblue" stroke="midnightblue" points="2068.01,-104.13 2058.07,-107.8 2068.13,-111.13 2068.01,-104.13"/>
</g>
<!-- Node21 -->
<g id="node21" class="node">
<title>Node21</title>
<g id="a_node21"><a xlink:href="service__discovery__impl_8cpp.html" target="_top" xlink:title=" ">
<polygon fill="white" stroke="black" points="3302,-0.5 3302,-52.5 3457,-52.5 3457,-0.5 3302,-0.5"/>
<text text-anchor="start" x="3310" y="-40.5" font-family="Helvetica,sans-Serif" font-size="10.00">/home/kali/projects</text>
<text text-anchor="start" x="3310" y="-29.5" font-family="Helvetica,sans-Serif" font-size="10.00">/vsomeip/implementation</text>
<text text-anchor="start" x="3310" y="-18.5" font-family="Helvetica,sans-Serif" font-size="10.00">/service_discovery/src</text>
<text text-anchor="middle" x="3379.5" y="-7.5" font-family="Helvetica,sans-Serif" font-size="10.00">/service_discovery_impl.cpp</text>
</a>
</g>
</g>
<!-- Node1&#45;&gt;Node21 -->
<g id="edge20" class="edge">
<title>Node1&#45;&gt;Node21</title>
<path fill="none" stroke="midnightblue" d="M2068.75,-108.05C2324.56,-104.87 3057.06,-92.47 3293.5,-53 3296.26,-52.54 3299.07,-52.02 3301.88,-51.44"/>
<polygon fill="midnightblue" stroke="midnightblue" points="2068.35,-104.55 2058.39,-108.17 2068.44,-111.55 2068.35,-104.55"/>
</g>
<!-- Node22 -->
<g id="node22" class="node">
<title>Node22</title>
<g id="a_node22"><a xlink:href="connector__impl_8cpp.html" target="_top" xlink:title=" ">
<polygon fill="white" stroke="black" points="3475,-0.5 3475,-52.5 3618,-52.5 3618,-0.5 3475,-0.5"/>
<text text-anchor="start" x="3483" y="-40.5" font-family="Helvetica,sans-Serif" font-size="10.00">/home/kali/projects</text>
<text text-anchor="start" x="3483" y="-29.5" font-family="Helvetica,sans-Serif" font-size="10.00">/vsomeip/implementation</text>
<text text-anchor="start" x="3483" y="-18.5" font-family="Helvetica,sans-Serif" font-size="10.00">/tracing/src/connector</text>
<text text-anchor="middle" x="3546.5" y="-7.5" font-family="Helvetica,sans-Serif" font-size="10.00">_impl.cpp</text>
</a>
</g>
</g>
<!-- Node1&#45;&gt;Node22 -->
<g id="edge21" class="edge">
<title>Node1&#45;&gt;Node22</title>
<path fill="none" stroke="midnightblue" d="M2068.36,-108.8C2346.1,-107.69 3195.49,-100.39 3466.5,-53 3469.23,-52.52 3471.99,-51.98 3474.77,-51.37"/>
<polygon fill="midnightblue" stroke="midnightblue" points="2068.31,-105.3 2058.32,-108.84 2068.34,-112.3 2068.31,-105.3"/>
</g>
<!-- Node23 -->
<g id="node23" class="node">
<title>Node23</title>
<g id="a_node23"><a xlink:href="header_8cpp.html" target="_top" xlink:title=" ">
<polygon fill="white" stroke="black" points="3636,-6 3636,-47 3779,-47 3779,-6 3636,-6"/>
<text text-anchor="start" x="3644" y="-35" font-family="Helvetica,sans-Serif" font-size="10.00">/home/kali/projects</text>
<text text-anchor="start" x="3644" y="-24" font-family="Helvetica,sans-Serif" font-size="10.00">/vsomeip/implementation</text>
<text text-anchor="middle" x="3707.5" y="-13" font-family="Helvetica,sans-Serif" font-size="10.00">/tracing/src/header.cpp</text>
</a>
</g>
</g>
<!-- Node1&#45;&gt;Node23 -->
<g id="edge22" class="edge">
<title>Node1&#45;&gt;Node23</title>
<path fill="none" stroke="midnightblue" d="M2068.61,-109.19C2366.21,-109.31 3323.98,-105.5 3627.5,-53 3635.83,-51.56 3644.49,-49.46 3652.91,-47.08"/>
<polygon fill="midnightblue" stroke="midnightblue" points="2068.31,-105.69 2058.31,-109.18 2068.31,-112.69 2068.31,-105.69"/>
</g>
<!-- Node24 -->
<g id="node24" class="node">
<title>Node24</title>
<g id="a_node24"><a xlink:href="utility_8cpp.html" target="_top" xlink:title=" ">
<polygon fill="white" stroke="black" points="3797,-6 3797,-47 3940,-47 3940,-6 3797,-6"/>
<text text-anchor="start" x="3805" y="-35" font-family="Helvetica,sans-Serif" font-size="10.00">/home/kali/projects</text>
<text text-anchor="start" x="3805" y="-24" font-family="Helvetica,sans-Serif" font-size="10.00">/vsomeip/implementation</text>
<text text-anchor="middle" x="3868.5" y="-13" font-family="Helvetica,sans-Serif" font-size="10.00">/utility/src/utility.cpp</text>
</a>
</g>
</g>
<!-- Node1&#45;&gt;Node24 -->
<g id="edge23" class="edge">
<title>Node1&#45;&gt;Node24</title>
<path fill="none" stroke="midnightblue" d="M2068.1,-109.5C2383.7,-110.79 3452.07,-110.67 3788.5,-53 3796.83,-51.57 3805.5,-49.48 3813.91,-47.1"/>
<polygon fill="midnightblue" stroke="midnightblue" points="2068.11,-106 2058.09,-109.46 2068.08,-113 2068.11,-106"/>
</g>
</g>
</svg>
