<?xml version="1.0" encoding="UTF-8" standalone="no"?>
<!DOCTYPE svg PUBLIC "-//W3C//DTD SVG 1.1//EN"
 "http://www.w3.org/Graphics/SVG/1.1/DTD/svg11.dtd">
<!-- Generated by graphviz version 2.43.0 (0)
 -->
<!-- Title: /home/kali/projects/vsomeip/implementation/tracing/include/channel_impl.hpp Pages: 1 -->
<svg width="328pt" height="150pt"
 viewBox="0.00 0.00 328.00 150.00" xmlns="http://www.w3.org/2000/svg" xmlns:xlink="http://www.w3.org/1999/xlink">
<g id="graph0" class="graph" transform="scale(1 1) rotate(0) translate(4 146)">
<title>/home/kali/projects/vsomeip/implementation/tracing/include/channel_impl.hpp</title>
<polygon fill="white" stroke="transparent" points="-4,4 -4,-146 324,-146 324,4 -4,4"/>
<!-- Node1 -->
<g id="node1" class="node">
<title>Node1</title>
<g id="a_node1"><a xlink:title=" ">
<polygon fill="#bfbfbf" stroke="black" points="92,-89.5 92,-141.5 235,-141.5 235,-89.5 92,-89.5"/>
<text text-anchor="start" x="100" y="-129.5" font-family="Helvetica,sans-Serif" font-size="10.00">/home/kali/projects</text>
<text text-anchor="start" x="100" y="-118.5" font-family="Helvetica,sans-Serif" font-size="10.00">/vsomeip/implementation</text>
<text text-anchor="start" x="100" y="-107.5" font-family="Helvetica,sans-Serif" font-size="10.00">/tracing/include/channel</text>
<text text-anchor="middle" x="163.5" y="-96.5" font-family="Helvetica,sans-Serif" font-size="10.00">_impl.hpp</text>
</a>
</g>
</g>
<!-- Node2 -->
<g id="node2" class="node">
<title>Node2</title>
<g id="a_node2"><a xlink:href="channel__impl_8cpp.html" target="_top" xlink:title=" ">
<polygon fill="white" stroke="black" points="0,-6 0,-47 159,-47 159,-6 0,-6"/>
<text text-anchor="start" x="8" y="-35" font-family="Helvetica,sans-Serif" font-size="10.00">/home/kali/projects</text>
<text text-anchor="start" x="8" y="-24" font-family="Helvetica,sans-Serif" font-size="10.00">/vsomeip/implementation</text>
<text text-anchor="middle" x="79.5" y="-13" font-family="Helvetica,sans-Serif" font-size="10.00">/tracing/src/channel_impl.cpp</text>
</a>
</g>
</g>
<!-- Node1&#45;&gt;Node2 -->
<g id="edge1" class="edge">
<title>Node1&#45;&gt;Node2</title>
<path fill="none" stroke="midnightblue" d="M131.97,-81.85C120.68,-70.15 108.3,-57.33 98.41,-47.08"/>
<polygon fill="midnightblue" stroke="midnightblue" points="129.74,-84.57 139.2,-89.34 134.78,-79.71 129.74,-84.57"/>
</g>
<!-- Node3 -->
<g id="node3" class="node">
<title>Node3</title>
<g id="a_node3"><a xlink:href="connector__impl_8cpp.html" target="_top" xlink:title=" ">
<polygon fill="white" stroke="black" points="177,-0.5 177,-52.5 320,-52.5 320,-0.5 177,-0.5"/>
<text text-anchor="start" x="185" y="-40.5" font-family="Helvetica,sans-Serif" font-size="10.00">/home/kali/projects</text>
<text text-anchor="start" x="185" y="-29.5" font-family="Helvetica,sans-Serif" font-size="10.00">/vsomeip/implementation</text>
<text text-anchor="start" x="185" y="-18.5" font-family="Helvetica,sans-Serif" font-size="10.00">/tracing/src/connector</text>
<text text-anchor="middle" x="248.5" y="-7.5" font-family="Helvetica,sans-Serif" font-size="10.00">_impl.cpp</text>
</a>
</g>
</g>
<!-- Node1&#45;&gt;Node3 -->
<g id="edge2" class="edge">
<title>Node1&#45;&gt;Node3</title>
<path fill="none" stroke="midnightblue" d="M195.18,-82.08C204.7,-72.34 214.99,-61.8 223.97,-52.61"/>
<polygon fill="midnightblue" stroke="midnightblue" points="192.57,-79.74 188.09,-89.34 197.58,-84.63 192.57,-79.74"/>
</g>
</g>
</svg>
