<?xml version="1.0" encoding="UTF-8" standalone="no"?>
<!DOCTYPE svg PUBLIC "-//W3C//DTD SVG 1.1//EN"
 "http://www.w3.org/Graphics/SVG/1.1/DTD/svg11.dtd">
<!-- Generated by graphviz version 2.43.0 (0)
 -->
<!-- Title: vsomeip_v3::endpoint_manager_impl Pages: 1 -->
<svg width="713pt" height="217pt"
 viewBox="0.00 0.00 713.00 216.50" xmlns="http://www.w3.org/2000/svg" xmlns:xlink="http://www.w3.org/1999/xlink">
<g id="graph0" class="graph" transform="scale(1 1) rotate(0) translate(4 212.5)">
<title>vsomeip_v3::endpoint_manager_impl</title>
<polygon fill="white" stroke="transparent" points="-4,4 -4,-212.5 709,-212.5 709,4 -4,4"/>
<!-- Node1 -->
<g id="node1" class="node">
<title>Node1</title>
<g id="a_node1"><a xlink:title=" ">
<polygon fill="#bfbfbf" stroke="black" points="580,-123.5 580,-153.5 705,-153.5 705,-123.5 580,-123.5"/>
<text text-anchor="start" x="588" y="-141.5" font-family="Helvetica,sans-Serif" font-size="10.00">vsomeip_v3::endpoint</text>
<text text-anchor="middle" x="642.5" y="-130.5" font-family="Helvetica,sans-Serif" font-size="10.00">_manager_impl</text>
</a>
</g>
</g>
<!-- Node2 -->
<g id="node2" class="node">
<title>Node2</title>
<g id="a_node2"><a xlink:href="classvsomeip__v3_1_1endpoint__manager__base.html" target="_top" xlink:title=" ">
<polygon fill="white" stroke="black" points="418,-123.5 418,-153.5 543,-153.5 543,-123.5 418,-123.5"/>
<text text-anchor="start" x="426" y="-141.5" font-family="Helvetica,sans-Serif" font-size="10.00">vsomeip_v3::endpoint</text>
<text text-anchor="middle" x="480.5" y="-130.5" font-family="Helvetica,sans-Serif" font-size="10.00">_manager_base</text>
</a>
</g>
</g>
<!-- Node2&#45;&gt;Node1 -->
<g id="edge1" class="edge">
<title>Node2&#45;&gt;Node1</title>
<path fill="none" stroke="midnightblue" d="M553.56,-138.5C562.32,-138.5 571.21,-138.5 579.8,-138.5"/>
<polygon fill="midnightblue" stroke="midnightblue" points="553.36,-135 543.36,-138.5 553.36,-142 553.36,-135"/>
</g>
<!-- Node3 -->
<g id="node3" class="node">
<title>Node3</title>
<g id="a_node3"><a xlink:title=" ">
<polygon fill="white" stroke="black" points="223.5,-167 223.5,-208 345.5,-208 345.5,-167 223.5,-167"/>
<text text-anchor="start" x="231.5" y="-196" font-family="Helvetica,sans-Serif" font-size="10.00">std::enable_shared</text>
<text text-anchor="start" x="231.5" y="-185" font-family="Helvetica,sans-Serif" font-size="10.00">_from_this&lt; endpoint</text>
<text text-anchor="middle" x="284.5" y="-174" font-family="Helvetica,sans-Serif" font-size="10.00">_manager_base &gt;</text>
</a>
</g>
</g>
<!-- Node3&#45;&gt;Node2 -->
<g id="edge2" class="edge">
<title>Node3&#45;&gt;Node2</title>
<path fill="none" stroke="midnightblue" d="M355.45,-169.83C376.62,-164.49 399.65,-158.67 420.06,-153.51"/>
<polygon fill="midnightblue" stroke="midnightblue" points="354.39,-166.49 345.55,-172.33 356.11,-173.28 354.39,-166.49"/>
</g>
<!-- Node4 -->
<g id="node4" class="node">
<title>Node4</title>
<g id="a_node4"><a xlink:href="classvsomeip__v3_1_1endpoint__host.html" target="_top" xlink:title=" ">
<polygon fill="white" stroke="black" points="209,-129 209,-148 360,-148 360,-129 209,-129"/>
<text text-anchor="middle" x="284.5" y="-136" font-family="Helvetica,sans-Serif" font-size="10.00">vsomeip_v3::endpoint_host</text>
</a>
</g>
</g>
<!-- Node4&#45;&gt;Node2 -->
<g id="edge3" class="edge">
<title>Node4&#45;&gt;Node2</title>
<path fill="none" stroke="midnightblue" d="M370.57,-138.5C386.43,-138.5 402.72,-138.5 417.71,-138.5"/>
<polygon fill="midnightblue" stroke="midnightblue" points="370.23,-135 360.23,-138.5 370.23,-142 370.23,-135"/>
</g>
<!-- Node5 -->
<g id="node5" class="node">
<title>Node5</title>
<g id="a_node5"><a xlink:href="classvsomeip__v3_1_1routing__manager__base.html" target="_top" xlink:title=" ">
<polygon fill="white" stroke="black" points="226.5,-79.5 226.5,-109.5 342.5,-109.5 342.5,-79.5 226.5,-79.5"/>
<text text-anchor="start" x="234.5" y="-97.5" font-family="Helvetica,sans-Serif" font-size="10.00">vsomeip_v3::routing</text>
<text text-anchor="middle" x="284.5" y="-86.5" font-family="Helvetica,sans-Serif" font-size="10.00">_manager_base</text>
</a>
</g>
</g>
<!-- Node5&#45;&gt;Node2 -->
<g id="edge4" class="edge">
<title>Node5&#45;&gt;Node2</title>
<path fill="none" stroke="#9a32cd" stroke-dasharray="5,2" d="M352.52,-109.7C373.67,-114.5 396.91,-119.77 417.68,-124.48"/>
<polygon fill="#9a32cd" stroke="#9a32cd" points="353.18,-106.26 342.66,-107.46 351.64,-113.09 353.18,-106.26"/>
<text text-anchor="middle" x="389" y="-122.5" font-family="Helvetica,sans-Serif" font-size="10.00"> rm_</text>
</g>
<!-- Node6 -->
<g id="node6" class="node">
<title>Node6</title>
<g id="a_node6"><a xlink:href="classvsomeip__v3_1_1routing__manager.html" target="_top" xlink:title=" ">
<polygon fill="white" stroke="black" points="13.5,-148.5 13.5,-178.5 129.5,-178.5 129.5,-148.5 13.5,-148.5"/>
<text text-anchor="start" x="21.5" y="-166.5" font-family="Helvetica,sans-Serif" font-size="10.00">vsomeip_v3::routing</text>
<text text-anchor="middle" x="71.5" y="-155.5" font-family="Helvetica,sans-Serif" font-size="10.00">_manager</text>
</a>
</g>
</g>
<!-- Node6&#45;&gt;Node5 -->
<g id="edge5" class="edge">
<title>Node6&#45;&gt;Node5</title>
<path fill="none" stroke="midnightblue" d="M128.35,-145.23C162.43,-134.09 205.46,-120.02 237.55,-109.52"/>
<polygon fill="midnightblue" stroke="midnightblue" points="126.96,-142.01 118.54,-148.44 129.14,-148.66 126.96,-142.01"/>
</g>
<!-- Node7 -->
<g id="node7" class="node">
<title>Node7</title>
<g id="a_node7"><a xlink:href="classvsomeip__v3_1_1routing__host.html" target="_top" xlink:title=" ">
<polygon fill="white" stroke="black" points="0,-110 0,-129 143,-129 143,-110 0,-110"/>
<text text-anchor="middle" x="71.5" y="-117" font-family="Helvetica,sans-Serif" font-size="10.00">vsomeip_v3::routing_host</text>
</a>
</g>
</g>
<!-- Node7&#45;&gt;Node5 -->
<g id="edge6" class="edge">
<title>Node7&#45;&gt;Node5</title>
<path fill="none" stroke="midnightblue" d="M153.03,-109.96C177.45,-107.06 203.77,-103.95 226.33,-101.27"/>
<polygon fill="midnightblue" stroke="midnightblue" points="152.57,-106.49 143.05,-111.14 153.4,-113.44 152.57,-106.49"/>
</g>
<!-- Node8 -->
<g id="node8" class="node">
<title>Node8</title>
<g id="a_node8"><a xlink:title=" ">
<polygon fill="white" stroke="black" points="14.5,-50 14.5,-91 128.5,-91 128.5,-50 14.5,-50"/>
<text text-anchor="start" x="22.5" y="-79" font-family="Helvetica,sans-Serif" font-size="10.00">std::enable_shared</text>
<text text-anchor="start" x="22.5" y="-68" font-family="Helvetica,sans-Serif" font-size="10.00">_from_this&lt; routing</text>
<text text-anchor="middle" x="71.5" y="-57" font-family="Helvetica,sans-Serif" font-size="10.00">_manager_base &gt;</text>
</a>
</g>
</g>
<!-- Node8&#45;&gt;Node5 -->
<g id="edge7" class="edge">
<title>Node8&#45;&gt;Node5</title>
<path fill="none" stroke="midnightblue" d="M138.89,-78.05C166.95,-81.24 199.31,-84.92 226.29,-87.99"/>
<polygon fill="midnightblue" stroke="midnightblue" points="139.1,-74.55 128.77,-76.9 138.31,-81.51 139.1,-74.55"/>
</g>
<!-- Node9 -->
<g id="node9" class="node">
<title>Node9</title>
<g id="a_node9"><a xlink:href="classvsomeip__v3_1_1routing__manager__host.html" target="_top" xlink:title=" ">
<polygon fill="white" stroke="black" points="13.5,-0.5 13.5,-30.5 129.5,-30.5 129.5,-0.5 13.5,-0.5"/>
<text text-anchor="start" x="21.5" y="-18.5" font-family="Helvetica,sans-Serif" font-size="10.00">vsomeip_v3::routing</text>
<text text-anchor="middle" x="71.5" y="-7.5" font-family="Helvetica,sans-Serif" font-size="10.00">_manager_host</text>
</a>
</g>
</g>
<!-- Node9&#45;&gt;Node5 -->
<g id="edge8" class="edge">
<title>Node9&#45;&gt;Node5</title>
<path fill="none" stroke="#9a32cd" stroke-dasharray="5,2" d="M124.95,-33.93C131.04,-36.12 137.16,-38.34 143,-40.5 177.69,-53.31 216.95,-68.46 245.14,-79.45"/>
<polygon fill="#9a32cd" stroke="#9a32cd" points="126.03,-30.6 115.44,-30.52 123.68,-37.19 126.03,-30.6"/>
<text text-anchor="middle" x="176" y="-60.5" font-family="Helvetica,sans-Serif" font-size="10.00"> host_</text>
</g>
</g>
</svg>
