<?xml version="1.0" encoding="UTF-8" standalone="no"?>
<!DOCTYPE svg PUBLIC "-//W3C//DTD SVG 1.1//EN"
 "http://www.w3.org/Graphics/SVG/1.1/DTD/svg11.dtd">
<!-- Generated by graphviz version 2.43.0 (0)
 -->
<!-- Title: boost::asio::detail::reactive_socket_service_base_ext Pages: 1 -->
<svg width="148pt" height="128pt"
 viewBox="0.00 0.00 148.00 128.00" xmlns="http://www.w3.org/2000/svg" xmlns:xlink="http://www.w3.org/1999/xlink">
<g id="graph0" class="graph" transform="scale(1 1) rotate(0) translate(4 124)">
<title>boost::asio::detail::reactive_socket_service_base_ext</title>
<polygon fill="white" stroke="transparent" points="-4,4 -4,-124 144,-124 144,4 -4,4"/>
<!-- Node1 -->
<g id="node1" class="node">
<title>Node1</title>
<g id="a_node1"><a xlink:title=" ">
<polygon fill="#bfbfbf" stroke="black" points="0,-78.5 0,-119.5 140,-119.5 140,-78.5 0,-78.5"/>
<text text-anchor="start" x="8" y="-107.5" font-family="Helvetica,sans-Serif" font-size="10.00">boost::asio::detail</text>
<text text-anchor="start" x="8" y="-96.5" font-family="Helvetica,sans-Serif" font-size="10.00">::reactive_socket_service</text>
<text text-anchor="middle" x="70" y="-85.5" font-family="Helvetica,sans-Serif" font-size="10.00">_base_ext</text>
</a>
</g>
</g>
<!-- Node2 -->
<g id="node2" class="node">
<title>Node2</title>
<g id="a_node2"><a xlink:href="classboost_1_1asio_1_1detail_1_1reactive__socket__service__ext.html" target="_top" xlink:title=" ">
<polygon fill="white" stroke="black" points="0,-0.5 0,-41.5 140,-41.5 140,-0.5 0,-0.5"/>
<text text-anchor="start" x="8" y="-29.5" font-family="Helvetica,sans-Serif" font-size="10.00">boost::asio::detail</text>
<text text-anchor="start" x="8" y="-18.5" font-family="Helvetica,sans-Serif" font-size="10.00">::reactive_socket_service</text>
<text text-anchor="middle" x="70" y="-7.5" font-family="Helvetica,sans-Serif" font-size="10.00">_ext&lt; Protocol &gt;</text>
</a>
</g>
</g>
<!-- Node1&#45;&gt;Node2 -->
<g id="edge1" class="edge">
<title>Node1&#45;&gt;Node2</title>
<path fill="none" stroke="midnightblue" d="M43.62,-68.59C42.29,-59.51 43.1,-49.74 46.07,-41.51"/>
<polygon fill="midnightblue" stroke="midnightblue" points="40.26,-69.56 46.05,-78.43 47.05,-67.88 40.26,-69.56"/>
</g>
<!-- Node1&#45;&gt;Node2 -->
<g id="edge2" class="edge">
<title>Node1&#45;&gt;Node2</title>
<path fill="none" stroke="midnightblue" d="M56.79,-68.3C56.15,-59.3 56.57,-49.65 58.04,-41.51"/>
<polygon fill="midnightblue" stroke="midnightblue" points="53.34,-68.92 58.02,-78.43 60.29,-68.08 53.34,-68.92"/>
</g>
<!-- Node1&#45;&gt;Node2 -->
<g id="edge3" class="edge">
<title>Node1&#45;&gt;Node2</title>
<path fill="none" stroke="midnightblue" d="M70,-68.3C70,-59.3 70,-49.65 70,-41.51"/>
<polygon fill="midnightblue" stroke="midnightblue" points="66.5,-68.43 70,-78.43 73.5,-68.43 66.5,-68.43"/>
</g>
<!-- Node1&#45;&gt;Node2 -->
<g id="edge4" class="edge">
<title>Node1&#45;&gt;Node2</title>
<path fill="none" stroke="midnightblue" d="M83.21,-68.3C83.85,-59.3 83.43,-49.65 81.96,-41.51"/>
<polygon fill="midnightblue" stroke="midnightblue" points="79.71,-68.08 81.98,-78.43 86.66,-68.92 79.71,-68.08"/>
</g>
<!-- Node1&#45;&gt;Node2 -->
<g id="edge5" class="edge">
<title>Node1&#45;&gt;Node2</title>
<path fill="none" stroke="midnightblue" d="M96.38,-68.59C97.71,-59.51 96.9,-49.74 93.93,-41.51"/>
<polygon fill="midnightblue" stroke="midnightblue" points="92.95,-67.88 93.95,-78.43 99.74,-69.56 92.95,-67.88"/>
</g>
</g>
</svg>
