<?xml version="1.0" encoding="UTF-8" standalone="no"?>
<!DOCTYPE svg PUBLIC "-//W3C//DTD SVG 1.1//EN"
 "http://www.w3.org/Graphics/SVG/1.1/DTD/svg11.dtd">
<!-- Generated by graphviz version 2.43.0 (0)
 -->
<!-- Title: boost::asio::detail::reactive_socket_recv_op_ext&lt; MutableBufferSequence, Handler &gt; Pages: 1 -->
<svg width="230pt" height="262pt"
 viewBox="0.00 0.00 230.00 262.00" xmlns="http://www.w3.org/2000/svg" xmlns:xlink="http://www.w3.org/1999/xlink">
<g id="graph0" class="graph" transform="scale(1 1) rotate(0) translate(4 258)">
<title>boost::asio::detail::reactive_socket_recv_op_ext&lt; MutableBufferSequence, Handler &gt;</title>
<polygon fill="white" stroke="transparent" points="-4,4 -4,-258 226,-258 226,4 -4,4"/>
<!-- Node1 -->
<g id="node1" class="node">
<title>Node1</title>
<g id="a_node1"><a xlink:title=" ">
<polygon fill="#bfbfbf" stroke="black" points="18.5,-0.5 18.5,-52.5 203.5,-52.5 203.5,-0.5 18.5,-0.5"/>
<text text-anchor="start" x="26.5" y="-40.5" font-family="Helvetica,sans-Serif" font-size="10.00">boost::asio::detail</text>
<text text-anchor="start" x="26.5" y="-29.5" font-family="Helvetica,sans-Serif" font-size="10.00">::reactive_socket_recv</text>
<text text-anchor="start" x="26.5" y="-18.5" font-family="Helvetica,sans-Serif" font-size="10.00">_op_ext&lt; MutableBufferSequence,</text>
<text text-anchor="middle" x="111" y="-7.5" font-family="Helvetica,sans-Serif" font-size="10.00"> Handler &gt;</text>
</a>
</g>
</g>
<!-- Node2 -->
<g id="node2" class="node">
<title>Node2</title>
<g id="a_node2"><a xlink:href="classboost_1_1asio_1_1detail_1_1reactive__socket__recv__op__base__ext.html" target="_top" xlink:title=" ">
<polygon fill="white" stroke="black" points="0,-89.5 0,-130.5 222,-130.5 222,-89.5 0,-89.5"/>
<text text-anchor="start" x="8" y="-118.5" font-family="Helvetica,sans-Serif" font-size="10.00">boost::asio::detail</text>
<text text-anchor="start" x="8" y="-107.5" font-family="Helvetica,sans-Serif" font-size="10.00">::reactive_socket_recv</text>
<text text-anchor="middle" x="111" y="-96.5" font-family="Helvetica,sans-Serif" font-size="10.00">_op_base_ext&lt; MutableBufferSequence &gt;</text>
</a>
</g>
</g>
<!-- Node2&#45;&gt;Node1 -->
<g id="edge1" class="edge">
<title>Node2&#45;&gt;Node1</title>
<path fill="none" stroke="midnightblue" d="M84.92,-79.41C83.44,-70.62 83.75,-61.08 85.85,-52.61"/>
<polygon fill="midnightblue" stroke="midnightblue" points="81.58,-80.47 87.49,-89.27 88.36,-78.71 81.58,-80.47"/>
</g>
<!-- Node2&#45;&gt;Node1 -->
<g id="edge12" class="edge">
<title>Node2&#45;&gt;Node1</title>
<path fill="none" stroke="midnightblue" d="M97.94,-79.12C97.22,-70.41 97.38,-60.99 98.43,-52.61"/>
<polygon fill="midnightblue" stroke="midnightblue" points="94.49,-79.8 99.24,-89.27 101.44,-78.91 94.49,-79.8"/>
</g>
<!-- Node2&#45;&gt;Node1 -->
<g id="edge13" class="edge">
<title>Node2&#45;&gt;Node1</title>
<path fill="none" stroke="midnightblue" d="M111,-79.12C111,-70.41 111,-60.99 111,-52.61"/>
<polygon fill="midnightblue" stroke="midnightblue" points="107.5,-79.27 111,-89.27 114.5,-79.27 107.5,-79.27"/>
</g>
<!-- Node2&#45;&gt;Node1 -->
<g id="edge14" class="edge">
<title>Node2&#45;&gt;Node1</title>
<path fill="none" stroke="midnightblue" d="M124.06,-79.12C124.78,-70.41 124.62,-60.99 123.57,-52.61"/>
<polygon fill="midnightblue" stroke="midnightblue" points="120.56,-78.91 122.76,-89.27 127.51,-79.8 120.56,-78.91"/>
</g>
<!-- Node2&#45;&gt;Node1 -->
<g id="edge15" class="edge">
<title>Node2&#45;&gt;Node1</title>
<path fill="none" stroke="midnightblue" d="M137.08,-79.41C138.56,-70.62 138.25,-61.08 136.15,-52.61"/>
<polygon fill="midnightblue" stroke="midnightblue" points="133.64,-78.71 134.51,-89.27 140.42,-80.47 133.64,-78.71"/>
</g>
<!-- Node3 -->
<g id="node3" class="node">
<title>Node3</title>
<g id="a_node3"><a xlink:href="classboost_1_1asio_1_1detail_1_1reactor__op__ext.html" target="_top" xlink:title=" ">
<polygon fill="white" stroke="black" points="59,-167.5 59,-197.5 163,-197.5 163,-167.5 59,-167.5"/>
<text text-anchor="start" x="67" y="-185.5" font-family="Helvetica,sans-Serif" font-size="10.00">boost::asio::detail</text>
<text text-anchor="middle" x="111" y="-174.5" font-family="Helvetica,sans-Serif" font-size="10.00">::reactor_op_ext</text>
</a>
</g>
</g>
<!-- Node3&#45;&gt;Node2 -->
<g id="edge2" class="edge">
<title>Node3&#45;&gt;Node2</title>
<path fill="none" stroke="midnightblue" d="M85.34,-157.84C83.22,-148.99 83.61,-139.03 86.52,-130.59"/>
<polygon fill="midnightblue" stroke="midnightblue" points="82.06,-159.06 88.81,-167.23 88.63,-156.64 82.06,-159.06"/>
</g>
<!-- Node3&#45;&gt;Node2 -->
<g id="edge8" class="edge">
<title>Node3&#45;&gt;Node2</title>
<path fill="none" stroke="midnightblue" d="M98.1,-157.27C97.12,-148.56 97.34,-138.85 98.76,-130.59"/>
<polygon fill="midnightblue" stroke="midnightblue" points="94.68,-158.01 99.9,-167.23 101.57,-156.77 94.68,-158.01"/>
</g>
<!-- Node3&#45;&gt;Node2 -->
<g id="edge9" class="edge">
<title>Node3&#45;&gt;Node2</title>
<path fill="none" stroke="midnightblue" d="M111,-156.98C111,-148.35 111,-138.76 111,-130.59"/>
<polygon fill="midnightblue" stroke="midnightblue" points="107.5,-157.23 111,-167.23 114.5,-157.23 107.5,-157.23"/>
</g>
<!-- Node3&#45;&gt;Node2 -->
<g id="edge10" class="edge">
<title>Node3&#45;&gt;Node2</title>
<path fill="none" stroke="midnightblue" d="M123.9,-157.27C124.88,-148.56 124.66,-138.85 123.24,-130.59"/>
<polygon fill="midnightblue" stroke="midnightblue" points="120.43,-156.77 122.1,-167.23 127.32,-158.01 120.43,-156.77"/>
</g>
<!-- Node3&#45;&gt;Node2 -->
<g id="edge11" class="edge">
<title>Node3&#45;&gt;Node2</title>
<path fill="none" stroke="midnightblue" d="M136.66,-157.84C138.78,-148.99 138.39,-139.03 135.48,-130.59"/>
<polygon fill="midnightblue" stroke="midnightblue" points="133.37,-156.64 133.19,-167.23 139.94,-159.06 133.37,-156.64"/>
</g>
<!-- Node4 -->
<g id="node4" class="node">
<title>Node4</title>
<g id="a_node4"><a xlink:title=" ">
<polygon fill="white" stroke="black" points="77,-234.5 77,-253.5 145,-253.5 145,-234.5 77,-234.5"/>
<text text-anchor="middle" x="111" y="-241.5" font-family="Helvetica,sans-Serif" font-size="10.00">reactor_op</text>
</a>
</g>
</g>
<!-- Node4&#45;&gt;Node3 -->
<g id="edge3" class="edge">
<title>Node4&#45;&gt;Node3</title>
<path fill="none" stroke="midnightblue" d="M86.21,-225.68C82.84,-216.73 83.32,-205.94 87.68,-197.52"/>
<polygon fill="midnightblue" stroke="midnightblue" points="83.31,-227.64 91.4,-234.48 89.34,-224.08 83.31,-227.64"/>
</g>
<!-- Node4&#45;&gt;Node3 -->
<g id="edge4" class="edge">
<title>Node4&#45;&gt;Node3</title>
<path fill="none" stroke="midnightblue" d="M98.45,-224.82C96.94,-216.04 97.23,-205.68 99.34,-197.52"/>
<polygon fill="midnightblue" stroke="midnightblue" points="95.1,-225.81 101.2,-234.48 101.83,-223.9 95.1,-225.81"/>
</g>
<!-- Node4&#45;&gt;Node3 -->
<g id="edge5" class="edge">
<title>Node4&#45;&gt;Node3</title>
<path fill="none" stroke="midnightblue" d="M111,-224.23C111,-215.59 111,-205.5 111,-197.52"/>
<polygon fill="midnightblue" stroke="midnightblue" points="107.5,-224.48 111,-234.48 114.5,-224.48 107.5,-224.48"/>
</g>
<!-- Node4&#45;&gt;Node3 -->
<g id="edge6" class="edge">
<title>Node4&#45;&gt;Node3</title>
<path fill="none" stroke="midnightblue" d="M123.55,-224.82C125.06,-216.04 124.77,-205.68 122.66,-197.52"/>
<polygon fill="midnightblue" stroke="midnightblue" points="120.17,-223.9 120.8,-234.48 126.9,-225.81 120.17,-223.9"/>
</g>
<!-- Node4&#45;&gt;Node3 -->
<g id="edge7" class="edge">
<title>Node4&#45;&gt;Node3</title>
<path fill="none" stroke="midnightblue" d="M135.79,-225.68C139.16,-216.73 138.68,-205.94 134.32,-197.52"/>
<polygon fill="midnightblue" stroke="midnightblue" points="132.66,-224.08 130.6,-234.48 138.69,-227.64 132.66,-224.08"/>
</g>
</g>
</svg>
