<?xml version="1.0" encoding="UTF-8" standalone="no"?>
<!DOCTYPE svg PUBLIC "-//W3C//DTD SVG 1.1//EN"
 "http://www.w3.org/Graphics/SVG/1.1/DTD/svg11.dtd">
<!-- Generated by graphviz version 2.43.0 (0)
 -->
<!-- Title: vsomeip_v3::server_endpoint_impl&lt; Protocol &gt; Pages: 1 -->
<svg width="694pt" height="137pt"
 viewBox="0.00 0.00 694.00 137.00" xmlns="http://www.w3.org/2000/svg" xmlns:xlink="http://www.w3.org/1999/xlink">
<g id="graph0" class="graph" transform="scale(1 1) rotate(0) translate(4 133)">
<title>vsomeip_v3::server_endpoint_impl&lt; Protocol &gt;</title>
<polygon fill="white" stroke="transparent" points="-4,4 -4,-133 690,-133 690,4 -4,4"/>
<!-- Node1 -->
<g id="node1" class="node">
<title>Node1</title>
<g id="a_node1"><a xlink:title=" ">
<polygon fill="#bfbfbf" stroke="black" points="355,-49.5 355,-79.5 509,-79.5 509,-49.5 355,-49.5"/>
<text text-anchor="start" x="363" y="-67.5" font-family="Helvetica,sans-Serif" font-size="10.00">vsomeip_v3::server</text>
<text text-anchor="middle" x="432" y="-56.5" font-family="Helvetica,sans-Serif" font-size="10.00">_endpoint_impl&lt; Protocol &gt;</text>
</a>
</g>
</g>
<!-- Node5 -->
<g id="node5" class="node">
<title>Node5</title>
<g id="a_node5"><a xlink:href="classvsomeip__v3_1_1local__server__endpoint__impl.html" target="_top" xlink:title=" ">
<polygon fill="white" stroke="black" points="545,-98.5 545,-128.5 686,-128.5 686,-98.5 545,-98.5"/>
<text text-anchor="start" x="553" y="-116.5" font-family="Helvetica,sans-Serif" font-size="10.00">vsomeip_v3::local_server</text>
<text text-anchor="middle" x="615.5" y="-105.5" font-family="Helvetica,sans-Serif" font-size="10.00">_endpoint_impl</text>
</a>
</g>
</g>
<!-- Node1&#45;&gt;Node5 -->
<g id="edge4" class="edge">
<title>Node1&#45;&gt;Node5</title>
<path fill="none" stroke="midnightblue" d="M498.74,-82.25C518.41,-87.56 539.78,-93.33 558.75,-98.45"/>
<polygon fill="midnightblue" stroke="midnightblue" points="499.5,-78.83 488.94,-79.6 497.68,-85.59 499.5,-78.83"/>
</g>
<!-- Node6 -->
<g id="node6" class="node">
<title>Node6</title>
<g id="a_node6"><a xlink:href="classvsomeip__v3_1_1tcp__server__endpoint__impl.html" target="_top" xlink:title=" ">
<polygon fill="white" stroke="black" points="549,-49.5 549,-79.5 682,-79.5 682,-49.5 549,-49.5"/>
<text text-anchor="start" x="557" y="-67.5" font-family="Helvetica,sans-Serif" font-size="10.00">vsomeip_v3::tcp_server</text>
<text text-anchor="middle" x="615.5" y="-56.5" font-family="Helvetica,sans-Serif" font-size="10.00">_endpoint_impl</text>
</a>
</g>
</g>
<!-- Node1&#45;&gt;Node6 -->
<g id="edge5" class="edge">
<title>Node1&#45;&gt;Node6</title>
<path fill="none" stroke="midnightblue" d="M519.45,-64.5C529.35,-64.5 539.31,-64.5 548.87,-64.5"/>
<polygon fill="midnightblue" stroke="midnightblue" points="519.18,-61 509.18,-64.5 519.18,-68 519.18,-61"/>
</g>
<!-- Node7 -->
<g id="node7" class="node">
<title>Node7</title>
<g id="a_node7"><a xlink:href="classvsomeip__v3_1_1udp__server__endpoint__impl.html" target="_top" xlink:title=" ">
<polygon fill="white" stroke="black" points="547.5,-0.5 547.5,-30.5 683.5,-30.5 683.5,-0.5 547.5,-0.5"/>
<text text-anchor="start" x="555.5" y="-18.5" font-family="Helvetica,sans-Serif" font-size="10.00">vsomeip_v3::udp_server</text>
<text text-anchor="middle" x="615.5" y="-7.5" font-family="Helvetica,sans-Serif" font-size="10.00">_endpoint_impl</text>
</a>
</g>
</g>
<!-- Node1&#45;&gt;Node7 -->
<g id="edge6" class="edge">
<title>Node1&#45;&gt;Node7</title>
<path fill="none" stroke="midnightblue" d="M498.74,-46.75C518.41,-41.44 539.78,-35.67 558.75,-30.55"/>
<polygon fill="midnightblue" stroke="midnightblue" points="497.68,-43.41 488.94,-49.4 499.5,-50.17 497.68,-43.41"/>
</g>
<!-- Node2 -->
<g id="node2" class="node">
<title>Node2</title>
<g id="a_node2"><a xlink:href="classvsomeip__v3_1_1endpoint__impl.html" target="_top" xlink:title=" ">
<polygon fill="white" stroke="black" points="177.5,-77.5 177.5,-107.5 302.5,-107.5 302.5,-77.5 177.5,-77.5"/>
<text text-anchor="start" x="185.5" y="-95.5" font-family="Helvetica,sans-Serif" font-size="10.00">vsomeip_v3::endpoint</text>
<text text-anchor="middle" x="240" y="-84.5" font-family="Helvetica,sans-Serif" font-size="10.00">_impl&lt; Protocol &gt;</text>
</a>
</g>
</g>
<!-- Node2&#45;&gt;Node1 -->
<g id="edge1" class="edge">
<title>Node2&#45;&gt;Node1</title>
<path fill="none" stroke="midnightblue" d="M312.96,-81.9C326.6,-79.89 340.9,-77.78 354.67,-75.75"/>
<polygon fill="midnightblue" stroke="midnightblue" points="312.07,-78.49 302.69,-83.41 313.09,-85.41 312.07,-78.49"/>
</g>
<!-- Node3 -->
<g id="node3" class="node">
<title>Node3</title>
<g id="a_node3"><a xlink:href="classvsomeip__v3_1_1endpoint.html" target="_top" xlink:title=" ">
<polygon fill="white" stroke="black" points="0,-83 0,-102 125,-102 125,-83 0,-83"/>
<text text-anchor="middle" x="62.5" y="-90" font-family="Helvetica,sans-Serif" font-size="10.00">vsomeip_v3::endpoint</text>
</a>
</g>
</g>
<!-- Node3&#45;&gt;Node2 -->
<g id="edge2" class="edge">
<title>Node3&#45;&gt;Node2</title>
<path fill="none" stroke="midnightblue" d="M135.4,-92.5C149.34,-92.5 163.82,-92.5 177.39,-92.5"/>
<polygon fill="midnightblue" stroke="midnightblue" points="135.37,-89 125.37,-92.5 135.37,-96 135.37,-89"/>
</g>
<!-- Node4 -->
<g id="node4" class="node">
<title>Node4</title>
<g id="a_node4"><a xlink:title=" ">
<polygon fill="white" stroke="black" points="161,-17 161,-58 319,-58 319,-17 161,-17"/>
<text text-anchor="start" x="169" y="-46" font-family="Helvetica,sans-Serif" font-size="10.00">std::enable_shared</text>
<text text-anchor="start" x="169" y="-35" font-family="Helvetica,sans-Serif" font-size="10.00">_from_this&lt; server_endpoint</text>
<text text-anchor="middle" x="240" y="-24" font-family="Helvetica,sans-Serif" font-size="10.00">_impl&lt; Protocol &gt; &gt;</text>
</a>
</g>
</g>
<!-- Node4&#45;&gt;Node1 -->
<g id="edge3" class="edge">
<title>Node4&#45;&gt;Node1</title>
<path fill="none" stroke="midnightblue" d="M329.1,-50.02C337.66,-51.24 346.3,-52.46 354.73,-53.66"/>
<polygon fill="midnightblue" stroke="midnightblue" points="329.5,-46.54 319.1,-48.6 328.51,-53.47 329.5,-46.54"/>
</g>
</g>
</svg>
