<?xml version="1.0" encoding="UTF-8" standalone="no"?>
<!DOCTYPE svg PUBLIC "-//W3C//DTD SVG 1.1//EN"
 "http://www.w3.org/Graphics/SVG/1.1/DTD/svg11.dtd">
<!-- Generated by graphviz version 2.43.0 (0)
 -->
<!-- Title: vsomeip_v3::message_base_impl Pages: 1 -->
<svg width="314pt" height="241pt"
 viewBox="0.00 0.00 314.00 241.00" xmlns="http://www.w3.org/2000/svg" xmlns:xlink="http://www.w3.org/1999/xlink">
<g id="graph0" class="graph" transform="scale(1 1) rotate(0) translate(4 237)">
<title>vsomeip_v3::message_base_impl</title>
<polygon fill="white" stroke="transparent" points="-4,4 -4,-237 310,-237 310,4 -4,4"/>
<!-- Node1 -->
<g id="node1" class="node">
<title>Node1</title>
<g id="a_node1"><a xlink:title=" ">
<polygon fill="#bfbfbf" stroke="black" points="67,-0.5 67,-30.5 193,-30.5 193,-0.5 67,-0.5"/>
<text text-anchor="start" x="75" y="-18.5" font-family="Helvetica,sans-Serif" font-size="10.00">vsomeip_v3::message</text>
<text text-anchor="middle" x="130" y="-7.5" font-family="Helvetica,sans-Serif" font-size="10.00">_base_impl</text>
</a>
</g>
</g>
<!-- Node2 -->
<g id="node2" class="node">
<title>Node2</title>
<g id="a_node2"><a xlink:href="classvsomeip__v3_1_1message__base.html" target="_top" xlink:title="Base class to implement SOME/IP messages.">
<polygon fill="white" stroke="black" points="97.5,-156.5 97.5,-175.5 252.5,-175.5 252.5,-156.5 97.5,-156.5"/>
<text text-anchor="middle" x="175" y="-163.5" font-family="Helvetica,sans-Serif" font-size="10.00">vsomeip_v3::message_base</text>
</a>
</g>
</g>
<!-- Node2&#45;&gt;Node1 -->
<g id="edge1" class="edge">
<title>Node2&#45;&gt;Node1</title>
<path fill="none" stroke="midnightblue" d="M175.12,-146.35C174.61,-122.69 171.47,-81.09 157,-49 153.98,-42.31 149.21,-35.89 144.5,-30.55"/>
<polygon fill="midnightblue" stroke="midnightblue" points="171.62,-146.44 175.2,-156.41 178.62,-146.38 171.62,-146.44"/>
</g>
<!-- Node5 -->
<g id="node5" class="node">
<title>Node5</title>
<g id="a_node5"><a xlink:href="classvsomeip__v3_1_1message__header__impl.html" target="_top" xlink:title=" ">
<polygon fill="white" stroke="black" points="21,-78.5 21,-108.5 147,-108.5 147,-78.5 21,-78.5"/>
<text text-anchor="start" x="29" y="-96.5" font-family="Helvetica,sans-Serif" font-size="10.00">vsomeip_v3::message</text>
<text text-anchor="middle" x="84" y="-85.5" font-family="Helvetica,sans-Serif" font-size="10.00">_header_impl</text>
</a>
</g>
</g>
<!-- Node2&#45;&gt;Node5 -->
<g id="edge6" class="edge">
<title>Node2&#45;&gt;Node5</title>
<path fill="none" stroke="#9a32cd" stroke-dasharray="5,2" d="M144.61,-152.02C136.88,-148.06 128.83,-143.32 122,-138 111.24,-129.62 101.19,-117.86 94.13,-108.69"/>
<polygon fill="#9a32cd" stroke="#9a32cd" points="143.25,-155.25 153.78,-156.45 146.3,-148.95 143.25,-155.25"/>
<text text-anchor="middle" x="141.5" y="-130" font-family="Helvetica,sans-Serif" font-size="10.00"> owner_</text>
</g>
<!-- Node3 -->
<g id="node3" class="node">
<title>Node3</title>
<g id="a_node3"><a xlink:href="classvsomeip__v3_1_1serializable.html" target="_top" xlink:title=" ">
<polygon fill="white" stroke="black" points="0,-213.5 0,-232.5 138,-232.5 138,-213.5 0,-213.5"/>
<text text-anchor="middle" x="69" y="-220.5" font-family="Helvetica,sans-Serif" font-size="10.00">vsomeip_v3::serializable</text>
</a>
</g>
</g>
<!-- Node3&#45;&gt;Node2 -->
<g id="edge2" class="edge">
<title>Node3&#45;&gt;Node2</title>
<path fill="none" stroke="midnightblue" d="M94.68,-208.68C114.55,-198.36 141.49,-184.39 158.55,-175.53"/>
<polygon fill="midnightblue" stroke="midnightblue" points="92.83,-205.69 85.56,-213.41 96.05,-211.91 92.83,-205.69"/>
</g>
<!-- Node3&#45;&gt;Node5 -->
<g id="edge5" class="edge">
<title>Node3&#45;&gt;Node5</title>
<path fill="none" stroke="midnightblue" d="M71.21,-203.24C74.24,-177.46 79.63,-131.65 82.34,-108.59"/>
<polygon fill="midnightblue" stroke="midnightblue" points="67.72,-202.9 70.03,-213.24 74.68,-203.71 67.72,-202.9"/>
</g>
<!-- Node4 -->
<g id="node4" class="node">
<title>Node4</title>
<g id="a_node4"><a xlink:href="classvsomeip__v3_1_1deserializable.html" target="_top" xlink:title=" ">
<polygon fill="white" stroke="black" points="156,-213.5 156,-232.5 306,-232.5 306,-213.5 156,-213.5"/>
<text text-anchor="middle" x="231" y="-220.5" font-family="Helvetica,sans-Serif" font-size="10.00">vsomeip_v3::deserializable</text>
</a>
</g>
</g>
<!-- Node4&#45;&gt;Node2 -->
<g id="edge3" class="edge">
<title>Node4&#45;&gt;Node2</title>
<path fill="none" stroke="midnightblue" d="M214.83,-206.12C204.76,-196.22 192.17,-183.86 183.87,-175.71"/>
<polygon fill="midnightblue" stroke="midnightblue" points="212.66,-208.9 222.25,-213.41 217.57,-203.9 212.66,-208.9"/>
</g>
<!-- Node5&#45;&gt;Node1 -->
<g id="edge4" class="edge">
<title>Node5&#45;&gt;Node1</title>
<path fill="none" stroke="#9a32cd" stroke-dasharray="5,2" d="M97.88,-69.57C105.52,-56.94 114.78,-41.65 121.39,-30.73"/>
<polygon fill="#9a32cd" stroke="#9a32cd" points="94.84,-67.84 92.65,-78.2 100.82,-71.46 94.84,-67.84"/>
<text text-anchor="middle" x="131.5" y="-52" font-family="Helvetica,sans-Serif" font-size="10.00"> header_</text>
</g>
</g>
</svg>
