<?xml version="1.0" encoding="UTF-8" standalone="no"?>
<!DOCTYPE svg PUBLIC "-//W3C//DTD SVG 1.1//EN"
 "http://www.w3.org/Graphics/SVG/1.1/DTD/svg11.dtd">
<!-- Generated by graphviz version 2.43.0 (0)
 -->
<!-- Title: vsomeip_v3::sd::ipv6_option_impl Pages: 1 -->
<svg width="165pt" height="229pt"
 viewBox="0.00 0.00 165.00 229.00" xmlns="http://www.w3.org/2000/svg" xmlns:xlink="http://www.w3.org/1999/xlink">
<g id="graph0" class="graph" transform="scale(1 1) rotate(0) translate(4 225)">
<title>vsomeip_v3::sd::ipv6_option_impl</title>
<polygon fill="white" stroke="transparent" points="-4,4 -4,-225 161,-225 161,4 -4,4"/>
<!-- Node1 -->
<g id="node1" class="node">
<title>Node1</title>
<g id="a_node1"><a xlink:title=" ">
<polygon fill="#bfbfbf" stroke="black" points="18.5,-0.5 18.5,-30.5 138.5,-30.5 138.5,-0.5 18.5,-0.5"/>
<text text-anchor="start" x="26.5" y="-18.5" font-family="Helvetica,sans-Serif" font-size="10.00">vsomeip_v3::sd::ipv6</text>
<text text-anchor="middle" x="78.5" y="-7.5" font-family="Helvetica,sans-Serif" font-size="10.00">_option_impl</text>
</a>
</g>
</g>
<!-- Node2 -->
<g id="node2" class="node">
<title>Node2</title>
<g id="a_node2"><a xlink:href="classvsomeip__v3_1_1sd_1_1ip__option__impl.html" target="_top" xlink:title=" ">
<polygon fill="white" stroke="black" points="24.5,-67.5 24.5,-97.5 132.5,-97.5 132.5,-67.5 24.5,-67.5"/>
<text text-anchor="start" x="32.5" y="-85.5" font-family="Helvetica,sans-Serif" font-size="10.00">vsomeip_v3::sd::ip</text>
<text text-anchor="middle" x="78.5" y="-74.5" font-family="Helvetica,sans-Serif" font-size="10.00">_option_impl</text>
</a>
</g>
</g>
<!-- Node2&#45;&gt;Node1 -->
<g id="edge1" class="edge">
<title>Node2&#45;&gt;Node1</title>
<path fill="none" stroke="midnightblue" d="M78.5,-57.11C78.5,-48.15 78.5,-38.32 78.5,-30.58"/>
<polygon fill="midnightblue" stroke="midnightblue" points="75,-57.4 78.5,-67.4 82,-57.4 75,-57.4"/>
</g>
<!-- Node3 -->
<g id="node3" class="node">
<title>Node3</title>
<g id="a_node3"><a xlink:href="classvsomeip__v3_1_1sd_1_1option__impl.html" target="_top" xlink:title=" ">
<polygon fill="white" stroke="black" points="0,-134.5 0,-153.5 157,-153.5 157,-134.5 0,-134.5"/>
<text text-anchor="middle" x="78.5" y="-141.5" font-family="Helvetica,sans-Serif" font-size="10.00">vsomeip_v3::sd::option_impl</text>
</a>
</g>
</g>
<!-- Node3&#45;&gt;Node2 -->
<g id="edge2" class="edge">
<title>Node3&#45;&gt;Node2</title>
<path fill="none" stroke="midnightblue" d="M78.5,-124.23C78.5,-115.59 78.5,-105.5 78.5,-97.52"/>
<polygon fill="midnightblue" stroke="midnightblue" points="75,-124.48 78.5,-134.48 82,-124.48 75,-124.48"/>
</g>
<!-- Node4 -->
<g id="node4" class="node">
<title>Node4</title>
<g id="a_node4"><a xlink:href="classvsomeip__v3_1_1sd_1_1message__element__impl.html" target="_top" xlink:title=" ">
<polygon fill="white" stroke="black" points="7,-190.5 7,-220.5 150,-220.5 150,-190.5 7,-190.5"/>
<text text-anchor="start" x="15" y="-208.5" font-family="Helvetica,sans-Serif" font-size="10.00">vsomeip_v3::sd::message</text>
<text text-anchor="middle" x="78.5" y="-197.5" font-family="Helvetica,sans-Serif" font-size="10.00">_element_impl</text>
</a>
</g>
</g>
<!-- Node4&#45;&gt;Node3 -->
<g id="edge3" class="edge">
<title>Node4&#45;&gt;Node3</title>
<path fill="none" stroke="midnightblue" d="M78.5,-180.29C78.5,-170.86 78.5,-160.65 78.5,-153.66"/>
<polygon fill="midnightblue" stroke="midnightblue" points="75,-180.4 78.5,-190.4 82,-180.4 75,-180.4"/>
</g>
</g>
</svg>
