<?xml version="1.0" encoding="UTF-8" standalone="no"?>
<!DOCTYPE svg PUBLIC "-//W3C//DTD SVG 1.1//EN"
 "http://www.w3.org/Graphics/SVG/1.1/DTD/svg11.dtd">
<!-- Generated by graphviz version 2.43.0 (0)
 -->
<!-- Title: vsomeip_v3::tcp_client_endpoint_impl Pages: 1 -->
<svg width="670pt" height="187pt"
 viewBox="0.00 0.00 670.00 186.50" xmlns="http://www.w3.org/2000/svg" xmlns:xlink="http://www.w3.org/1999/xlink">
<g id="graph0" class="graph" transform="scale(1 1) rotate(0) translate(4 182.5)">
<title>vsomeip_v3::tcp_client_endpoint_impl</title>
<polygon fill="white" stroke="transparent" points="-4,4 -4,-182.5 666,-182.5 666,4 -4,4"/>
<!-- Node1 -->
<g id="node1" class="node">
<title>Node1</title>
<g id="a_node1"><a xlink:title=" ">
<polygon fill="#bfbfbf" stroke="black" points="533,-56 533,-86 662,-86 662,-56 533,-56"/>
<text text-anchor="start" x="541" y="-74" font-family="Helvetica,sans-Serif" font-size="10.00">vsomeip_v3::tcp_client</text>
<text text-anchor="middle" x="597.5" y="-63" font-family="Helvetica,sans-Serif" font-size="10.00">_endpoint_impl</text>
</a>
</g>
</g>
<!-- Node2 -->
<g id="node2" class="node">
<title>Node2</title>
<g id="a_node2"><a xlink:href="classvsomeip__v3_1_1client__endpoint__impl.html" target="_top" xlink:title=" ">
<polygon fill="white" stroke="black" points="384,-56 384,-86 496,-86 496,-56 384,-56"/>
<text text-anchor="start" x="392" y="-74" font-family="Helvetica,sans-Serif" font-size="10.00">tcp_client_endpoint</text>
<text text-anchor="middle" x="440" y="-63" font-family="Helvetica,sans-Serif" font-size="10.00">_base_impl</text>
</a>
</g>
</g>
<!-- Node2&#45;&gt;Node1 -->
<g id="edge1" class="edge">
<title>Node2&#45;&gt;Node1</title>
<path fill="none" stroke="midnightblue" d="M506.43,-71C515.2,-71 524.19,-71 532.93,-71"/>
<polygon fill="midnightblue" stroke="midnightblue" points="506.26,-67.5 496.26,-71 506.26,-74.5 506.26,-67.5"/>
</g>
<!-- Node3 -->
<g id="node3" class="node">
<title>Node3</title>
<g id="a_node3"><a xlink:href="classvsomeip__v3_1_1endpoint__impl.html" target="_top" xlink:title=" ">
<polygon fill="white" stroke="black" points="177,-148 177,-178 302,-178 302,-148 177,-148"/>
<text text-anchor="start" x="185" y="-166" font-family="Helvetica,sans-Serif" font-size="10.00">vsomeip_v3::endpoint</text>
<text text-anchor="middle" x="239.5" y="-155" font-family="Helvetica,sans-Serif" font-size="10.00">_impl&lt; Protocol &gt;</text>
</a>
</g>
</g>
<!-- Node3&#45;&gt;Node2 -->
<g id="edge2" class="edge">
<title>Node3&#45;&gt;Node2</title>
<path fill="none" stroke="midnightblue" d="M300.62,-144.54C306.21,-142.47 311.74,-140.28 317,-138 352.03,-122.81 390.29,-100.85 414.45,-86.26"/>
<polygon fill="midnightblue" stroke="midnightblue" points="299.44,-141.24 291.2,-147.91 301.8,-147.84 299.44,-141.24"/>
</g>
<!-- Node4 -->
<g id="node4" class="node">
<title>Node4</title>
<g id="a_node4"><a xlink:href="classvsomeip__v3_1_1endpoint.html" target="_top" xlink:title=" ">
<polygon fill="white" stroke="black" points="0,-128.5 0,-147.5 125,-147.5 125,-128.5 0,-128.5"/>
<text text-anchor="middle" x="62.5" y="-135.5" font-family="Helvetica,sans-Serif" font-size="10.00">vsomeip_v3::endpoint</text>
</a>
</g>
</g>
<!-- Node4&#45;&gt;Node3 -->
<g id="edge3" class="edge">
<title>Node4&#45;&gt;Node3</title>
<path fill="none" stroke="midnightblue" d="M135.14,-148.23C148.95,-150.21 163.31,-152.26 176.77,-154.18"/>
<polygon fill="midnightblue" stroke="midnightblue" points="135.59,-144.76 125.2,-146.81 134.6,-151.69 135.59,-144.76"/>
</g>
<!-- Node5 -->
<g id="node5" class="node">
<title>Node5</title>
<g id="a_node5"><a xlink:href="classvsomeip__v3_1_1client__endpoint.html" target="_top" xlink:title=" ">
<polygon fill="white" stroke="black" points="185,-99 185,-129 294,-129 294,-99 185,-99"/>
<text text-anchor="start" x="193" y="-117" font-family="Helvetica,sans-Serif" font-size="10.00">vsomeip_v3::client</text>
<text text-anchor="middle" x="239.5" y="-106" font-family="Helvetica,sans-Serif" font-size="10.00">_endpoint</text>
</a>
</g>
</g>
<!-- Node4&#45;&gt;Node5 -->
<g id="edge5" class="edge">
<title>Node4&#45;&gt;Node5</title>
<path fill="none" stroke="midnightblue" d="M135.39,-128.14C151.95,-125.87 169.28,-123.49 184.91,-121.35"/>
<polygon fill="midnightblue" stroke="midnightblue" points="134.63,-124.71 125.2,-129.54 135.58,-131.65 134.63,-124.71"/>
</g>
<!-- Node5&#45;&gt;Node2 -->
<g id="edge4" class="edge">
<title>Node5&#45;&gt;Node2</title>
<path fill="none" stroke="midnightblue" d="M304.22,-100.2C329.86,-94.64 359.15,-88.3 383.86,-82.95"/>
<polygon fill="midnightblue" stroke="midnightblue" points="303.25,-96.83 294.22,-102.36 304.73,-103.67 303.25,-96.83"/>
</g>
<!-- Node6 -->
<g id="node6" class="node">
<title>Node6</title>
<g id="a_node6"><a xlink:title=" ">
<polygon fill="white" stroke="black" points="162,-38.5 162,-79.5 317,-79.5 317,-38.5 162,-38.5"/>
<text text-anchor="start" x="170" y="-67.5" font-family="Helvetica,sans-Serif" font-size="10.00">std::enable_shared</text>
<text text-anchor="start" x="170" y="-56.5" font-family="Helvetica,sans-Serif" font-size="10.00">_from_this&lt; client_endpoint</text>
<text text-anchor="middle" x="239.5" y="-45.5" font-family="Helvetica,sans-Serif" font-size="10.00">_impl&lt; Protocol &gt; &gt;</text>
</a>
</g>
</g>
<!-- Node6&#45;&gt;Node2 -->
<g id="edge6" class="edge">
<title>Node6&#45;&gt;Node2</title>
<path fill="none" stroke="midnightblue" d="M327.25,-64.24C346.51,-65.41 366.41,-66.61 383.99,-67.67"/>
<polygon fill="midnightblue" stroke="midnightblue" points="327.44,-60.75 317.25,-63.64 327.02,-67.74 327.44,-60.75"/>
</g>
<!-- Node7 -->
<g id="node7" class="node">
<title>Node7</title>
<g id="a_node7"><a xlink:href="structvsomeip__v3_1_1train.html" target="_top" xlink:title=" ">
<polygon fill="white" stroke="black" points="187.5,-0.5 187.5,-19.5 291.5,-19.5 291.5,-0.5 187.5,-0.5"/>
<text text-anchor="middle" x="239.5" y="-7.5" font-family="Helvetica,sans-Serif" font-size="10.00">vsomeip_v3::train</text>
</a>
</g>
</g>
<!-- Node7&#45;&gt;Node2 -->
<g id="edge7" class="edge">
<title>Node7&#45;&gt;Node2</title>
<path fill="none" stroke="#9a32cd" stroke-dasharray="5,2" d="M291.77,-22.07C300.23,-24.25 308.89,-26.6 317,-29 344.39,-37.1 374.76,-47.55 398.34,-56"/>
<polygon fill="#9a32cd" stroke="#9a32cd" points="292.52,-18.65 281.97,-19.59 290.81,-25.44 292.52,-18.65"/>
<text text-anchor="middle" x="350.5" y="-48" font-family="Helvetica,sans-Serif" font-size="10.00"> train_</text>
</g>
</g>
</svg>
