<?xml version="1.0" encoding="UTF-8" standalone="no"?>
<!DOCTYPE svg PUBLIC "-//W3C//DTD SVG 1.1//EN"
 "http://www.w3.org/Graphics/SVG/1.1/DTD/svg11.dtd">
<!-- Generated by graphviz version 2.43.0 (0)
 -->
<!-- Title: vsomeip_v3::message_base_impl Pages: 1 -->
<svg width="504pt" height="207pt"
 viewBox="0.00 0.00 504.00 207.00" xmlns="http://www.w3.org/2000/svg" xmlns:xlink="http://www.w3.org/1999/xlink">
<g id="graph0" class="graph" transform="scale(1 1) rotate(0) translate(4 203)">
<title>vsomeip_v3::message_base_impl</title>
<polygon fill="white" stroke="transparent" points="-4,4 -4,-203 500,-203 500,4 -4,4"/>
<!-- Node1 -->
<g id="node1" class="node">
<title>Node1</title>
<g id="a_node1"><a xlink:title=" ">
<polygon fill="#bfbfbf" stroke="black" points="168,-56.5 168,-86.5 294,-86.5 294,-56.5 168,-56.5"/>
<text text-anchor="start" x="176" y="-74.5" font-family="Helvetica,sans-Serif" font-size="10.00">vsomeip_v3::message</text>
<text text-anchor="middle" x="231" y="-63.5" font-family="Helvetica,sans-Serif" font-size="10.00">_base_impl</text>
</a>
</g>
</g>
<!-- Node5 -->
<g id="node5" class="node">
<title>Node5</title>
<g id="a_node5"><a xlink:href="classvsomeip_1_1message__impl.html" target="_top" xlink:title=" ">
<polygon fill="white" stroke="black" points="0,-0.5 0,-19.5 136,-19.5 136,-0.5 0,-0.5"/>
<text text-anchor="middle" x="68" y="-7.5" font-family="Helvetica,sans-Serif" font-size="10.00">vsomeip::message_impl</text>
</a>
</g>
</g>
<!-- Node1&#45;&gt;Node5 -->
<g id="edge4" class="edge">
<title>Node1&#45;&gt;Node5</title>
<path fill="none" stroke="midnightblue" d="M182.9,-52.94C152.87,-41.98 115.52,-28.35 91.72,-19.66"/>
<polygon fill="midnightblue" stroke="midnightblue" points="181.78,-56.26 192.37,-56.4 184.18,-49.68 181.78,-56.26"/>
</g>
<!-- Node6 -->
<g id="node6" class="node">
<title>Node6</title>
<g id="a_node6"><a xlink:href="classvsomeip__v3_1_1message__impl.html" target="_top" xlink:title=" ">
<polygon fill="white" stroke="black" points="154.5,-0.5 154.5,-19.5 307.5,-19.5 307.5,-0.5 154.5,-0.5"/>
<text text-anchor="middle" x="231" y="-7.5" font-family="Helvetica,sans-Serif" font-size="10.00">vsomeip_v3::message_impl</text>
</a>
</g>
</g>
<!-- Node1&#45;&gt;Node6 -->
<g id="edge5" class="edge">
<title>Node1&#45;&gt;Node6</title>
<path fill="none" stroke="midnightblue" d="M231,-46.29C231,-36.86 231,-26.65 231,-19.66"/>
<polygon fill="midnightblue" stroke="midnightblue" points="227.5,-46.4 231,-56.4 234.5,-46.4 227.5,-46.4"/>
</g>
<!-- Node7 -->
<g id="node7" class="node">
<title>Node7</title>
<g id="a_node7"><a xlink:href="classvsomeip__v3_1_1sd_1_1message__impl.html" target="_top" xlink:title=" ">
<polygon fill="white" stroke="black" points="326,-0.5 326,-19.5 496,-19.5 496,-0.5 326,-0.5"/>
<text text-anchor="middle" x="411" y="-7.5" font-family="Helvetica,sans-Serif" font-size="10.00">vsomeip_v3::sd::message_impl</text>
</a>
</g>
</g>
<!-- Node1&#45;&gt;Node7 -->
<g id="edge6" class="edge">
<title>Node1&#45;&gt;Node7</title>
<path fill="none" stroke="midnightblue" d="M283.28,-53.22C316.7,-42.17 358.58,-28.33 385.07,-19.57"/>
<polygon fill="midnightblue" stroke="midnightblue" points="282.05,-49.94 273.66,-56.4 284.25,-56.58 282.05,-49.94"/>
</g>
<!-- Node2 -->
<g id="node2" class="node">
<title>Node2</title>
<g id="a_node2"><a xlink:href="classvsomeip__v3_1_1message__base.html" target="_top" xlink:title="Base class to implement SOME/IP messages.">
<polygon fill="white" stroke="black" points="153.5,-123.5 153.5,-142.5 308.5,-142.5 308.5,-123.5 153.5,-123.5"/>
<text text-anchor="middle" x="231" y="-130.5" font-family="Helvetica,sans-Serif" font-size="10.00">vsomeip_v3::message_base</text>
</a>
</g>
</g>
<!-- Node2&#45;&gt;Node1 -->
<g id="edge1" class="edge">
<title>Node2&#45;&gt;Node1</title>
<path fill="none" stroke="midnightblue" d="M231,-113.23C231,-104.59 231,-94.5 231,-86.52"/>
<polygon fill="midnightblue" stroke="midnightblue" points="227.5,-113.48 231,-123.48 234.5,-113.48 227.5,-113.48"/>
</g>
<!-- Node3 -->
<g id="node3" class="node">
<title>Node3</title>
<g id="a_node3"><a xlink:href="classvsomeip__v3_1_1serializable.html" target="_top" xlink:title=" ">
<polygon fill="white" stroke="black" points="81,-179.5 81,-198.5 219,-198.5 219,-179.5 81,-179.5"/>
<text text-anchor="middle" x="150" y="-186.5" font-family="Helvetica,sans-Serif" font-size="10.00">vsomeip_v3::serializable</text>
</a>
</g>
</g>
<!-- Node3&#45;&gt;Node2 -->
<g id="edge2" class="edge">
<title>Node3&#45;&gt;Node2</title>
<path fill="none" stroke="midnightblue" d="M171.57,-173.62C186.36,-163.76 205.51,-150.99 218.02,-142.65"/>
<polygon fill="midnightblue" stroke="midnightblue" points="169.39,-170.86 163.01,-179.32 173.28,-176.69 169.39,-170.86"/>
</g>
<!-- Node4 -->
<g id="node4" class="node">
<title>Node4</title>
<g id="a_node4"><a xlink:href="classvsomeip__v3_1_1deserializable.html" target="_top" xlink:title=" ">
<polygon fill="white" stroke="black" points="237,-179.5 237,-198.5 387,-198.5 387,-179.5 237,-179.5"/>
<text text-anchor="middle" x="312" y="-186.5" font-family="Helvetica,sans-Serif" font-size="10.00">vsomeip_v3::deserializable</text>
</a>
</g>
</g>
<!-- Node4&#45;&gt;Node2 -->
<g id="edge3" class="edge">
<title>Node4&#45;&gt;Node2</title>
<path fill="none" stroke="midnightblue" d="M290.43,-173.62C275.64,-163.76 256.49,-150.99 243.98,-142.65"/>
<polygon fill="midnightblue" stroke="midnightblue" points="288.72,-176.69 298.99,-179.32 292.61,-170.86 288.72,-176.69"/>
</g>
</g>
</svg>
