<?xml version="1.0" encoding="UTF-8" standalone="no"?>
<!DOCTYPE svg PUBLIC "-//W3C//DTD SVG 1.1//EN"
 "http://www.w3.org/Graphics/SVG/1.1/DTD/svg11.dtd">
<!-- Generated by graphviz version 2.43.0 (0)
 -->
<!-- Title: vsomeip_v3::routing_manager_stub_host Pages: 1 -->
<svg width="126pt" height="106pt"
 viewBox="0.00 0.00 126.00 106.00" xmlns="http://www.w3.org/2000/svg" xmlns:xlink="http://www.w3.org/1999/xlink">
<g id="graph0" class="graph" transform="scale(1 1) rotate(0) translate(4 102)">
<title>vsomeip_v3::routing_manager_stub_host</title>
<polygon fill="white" stroke="transparent" points="-4,4 -4,-102 122,-102 122,4 -4,4"/>
<!-- Node1 -->
<g id="node1" class="node">
<title>Node1</title>
<g id="a_node1"><a xlink:title=" ">
<polygon fill="#bfbfbf" stroke="black" points="0,-67.5 0,-97.5 118,-97.5 118,-67.5 0,-67.5"/>
<text text-anchor="start" x="8" y="-85.5" font-family="Helvetica,sans-Serif" font-size="10.00">vsomeip_v3::routing</text>
<text text-anchor="middle" x="59" y="-74.5" font-family="Helvetica,sans-Serif" font-size="10.00">_manager_stub_host</text>
</a>
</g>
</g>
<!-- Node2 -->
<g id="node2" class="node">
<title>Node2</title>
<g id="a_node2"><a xlink:href="classvsomeip__v3_1_1routing__manager__impl.html" target="_top" xlink:title=" ">
<polygon fill="white" stroke="black" points="1,-0.5 1,-30.5 117,-30.5 117,-0.5 1,-0.5"/>
<text text-anchor="start" x="9" y="-18.5" font-family="Helvetica,sans-Serif" font-size="10.00">vsomeip_v3::routing</text>
<text text-anchor="middle" x="59" y="-7.5" font-family="Helvetica,sans-Serif" font-size="10.00">_manager_impl</text>
</a>
</g>
</g>
<!-- Node1&#45;&gt;Node2 -->
<g id="edge1" class="edge">
<title>Node1&#45;&gt;Node2</title>
<path fill="none" stroke="midnightblue" d="M59,-57.11C59,-48.15 59,-38.32 59,-30.58"/>
<polygon fill="midnightblue" stroke="midnightblue" points="55.5,-57.4 59,-67.4 62.5,-57.4 55.5,-57.4"/>
</g>
</g>
</svg>
