<?xml version="1.0" encoding="UTF-8" standalone="no"?>
<!DOCTYPE svg PUBLIC "-//W3C//DTD SVG 1.1//EN"
 "http://www.w3.org/Graphics/SVG/1.1/DTD/svg11.dtd">
<!-- Generated by graphviz version 2.43.0 (0)
 -->
<!-- Title: vsomeip_v3::endpoint Pages: 1 -->
<svg width="664pt" height="284pt"
 viewBox="0.00 0.00 664.00 284.00" xmlns="http://www.w3.org/2000/svg" xmlns:xlink="http://www.w3.org/1999/xlink">
<g id="graph0" class="graph" transform="scale(1 1) rotate(0) translate(4 280)">
<title>vsomeip_v3::endpoint</title>
<polygon fill="white" stroke="transparent" points="-4,4 -4,-280 660,-280 660,4 -4,4"/>
<!-- Node1 -->
<g id="node1" class="node">
<title>Node1</title>
<g id="a_node1"><a xlink:title=" ">
<polygon fill="#bfbfbf" stroke="black" points="0,-153 0,-172 125,-172 125,-153 0,-153"/>
<text text-anchor="middle" x="62.5" y="-160" font-family="Helvetica,sans-Serif" font-size="10.00">vsomeip_v3::endpoint</text>
</a>
</g>
</g>
<!-- Node2 -->
<g id="node2" class="node">
<title>Node2</title>
<g id="a_node2"><a xlink:href="classvsomeip__v3_1_1client__endpoint.html" target="_top" xlink:title=" ">
<polygon fill="white" stroke="black" points="170.5,-196.5 170.5,-226.5 279.5,-226.5 279.5,-196.5 170.5,-196.5"/>
<text text-anchor="start" x="178.5" y="-214.5" font-family="Helvetica,sans-Serif" font-size="10.00">vsomeip_v3::client</text>
<text text-anchor="middle" x="225" y="-203.5" font-family="Helvetica,sans-Serif" font-size="10.00">_endpoint</text>
</a>
</g>
</g>
<!-- Node1&#45;&gt;Node2 -->
<g id="edge1" class="edge">
<title>Node1&#45;&gt;Node2</title>
<path fill="none" stroke="midnightblue" d="M104.58,-175.04C125.97,-181.57 152.27,-189.6 174.75,-196.46"/>
<polygon fill="midnightblue" stroke="midnightblue" points="105.41,-171.64 94.83,-172.06 103.37,-178.33 105.41,-171.64"/>
</g>
<!-- Node7 -->
<g id="node7" class="node">
<title>Node7</title>
<g id="a_node7"><a xlink:href="classvsomeip__v3_1_1endpoint__impl.html" target="_top" xlink:title=" ">
<polygon fill="white" stroke="black" points="162.5,-147.5 162.5,-177.5 287.5,-177.5 287.5,-147.5 162.5,-147.5"/>
<text text-anchor="start" x="170.5" y="-165.5" font-family="Helvetica,sans-Serif" font-size="10.00">vsomeip_v3::endpoint</text>
<text text-anchor="middle" x="225" y="-154.5" font-family="Helvetica,sans-Serif" font-size="10.00">_impl&lt; Protocol &gt;</text>
</a>
</g>
</g>
<!-- Node1&#45;&gt;Node7 -->
<g id="edge6" class="edge">
<title>Node1&#45;&gt;Node7</title>
<path fill="none" stroke="midnightblue" d="M135.21,-162.5C144.25,-162.5 153.44,-162.5 162.31,-162.5"/>
<polygon fill="midnightblue" stroke="midnightblue" points="135.09,-159 125.09,-162.5 135.09,-166 135.09,-159"/>
</g>
<!-- Node13 -->
<g id="node13" class="node">
<title>Node13</title>
<g id="a_node13"><a xlink:href="classvsomeip__v3_1_1virtual__server__endpoint__impl.html" target="_top" xlink:title=" ">
<polygon fill="white" stroke="black" points="161,-98.5 161,-128.5 289,-128.5 289,-98.5 161,-98.5"/>
<text text-anchor="start" x="169" y="-116.5" font-family="Helvetica,sans-Serif" font-size="10.00">vsomeip_v3::virtual</text>
<text text-anchor="middle" x="225" y="-105.5" font-family="Helvetica,sans-Serif" font-size="10.00">_server_endpoint_impl</text>
</a>
</g>
</g>
<!-- Node1&#45;&gt;Node13 -->
<g id="edge15" class="edge">
<title>Node1&#45;&gt;Node13</title>
<path fill="none" stroke="midnightblue" d="M104.58,-149.96C125.97,-143.43 152.27,-135.4 174.75,-128.54"/>
<polygon fill="midnightblue" stroke="midnightblue" points="103.37,-146.67 94.83,-152.94 105.41,-153.36 103.37,-146.67"/>
</g>
<!-- Node3 -->
<g id="node3" class="node">
<title>Node3</title>
<g id="a_node3"><a xlink:href="classvsomeip__v3_1_1client__endpoint__impl.html" target="_top" xlink:title=" ">
<polygon fill="white" stroke="black" points="325,-196.5 325,-226.5 479,-226.5 479,-196.5 325,-196.5"/>
<text text-anchor="start" x="333" y="-214.5" font-family="Helvetica,sans-Serif" font-size="10.00">vsomeip_v3::client</text>
<text text-anchor="middle" x="402" y="-203.5" font-family="Helvetica,sans-Serif" font-size="10.00">_endpoint_impl&lt; Protocol &gt;</text>
</a>
</g>
</g>
<!-- Node2&#45;&gt;Node3 -->
<g id="edge2" class="edge">
<title>Node2&#45;&gt;Node3</title>
<path fill="none" stroke="midnightblue" d="M290.09,-211.5C301.35,-211.5 313.17,-211.5 324.73,-211.5"/>
<polygon fill="midnightblue" stroke="midnightblue" points="289.93,-208 279.93,-211.5 289.93,-215 289.93,-208"/>
</g>
<!-- Node4 -->
<g id="node4" class="node">
<title>Node4</title>
<g id="a_node4"><a xlink:href="classvsomeip__v3_1_1local__client__endpoint__impl.html" target="_top" xlink:title=" ">
<polygon fill="white" stroke="black" points="517,-245.5 517,-275.5 654,-275.5 654,-245.5 517,-245.5"/>
<text text-anchor="start" x="525" y="-263.5" font-family="Helvetica,sans-Serif" font-size="10.00">vsomeip_v3::local_client</text>
<text text-anchor="middle" x="585.5" y="-252.5" font-family="Helvetica,sans-Serif" font-size="10.00">_endpoint_impl</text>
</a>
</g>
</g>
<!-- Node3&#45;&gt;Node4 -->
<g id="edge3" class="edge">
<title>Node3&#45;&gt;Node4</title>
<path fill="none" stroke="midnightblue" d="M468.74,-229.25C488.41,-234.56 509.78,-240.33 528.75,-245.45"/>
<polygon fill="midnightblue" stroke="midnightblue" points="469.5,-225.83 458.94,-226.6 467.68,-232.59 469.5,-225.83"/>
</g>
<!-- Node5 -->
<g id="node5" class="node">
<title>Node5</title>
<g id="a_node5"><a xlink:href="classvsomeip__v3_1_1tcp__client__endpoint__impl.html" target="_top" xlink:title=" ">
<polygon fill="white" stroke="black" points="521,-196.5 521,-226.5 650,-226.5 650,-196.5 521,-196.5"/>
<text text-anchor="start" x="529" y="-214.5" font-family="Helvetica,sans-Serif" font-size="10.00">vsomeip_v3::tcp_client</text>
<text text-anchor="middle" x="585.5" y="-203.5" font-family="Helvetica,sans-Serif" font-size="10.00">_endpoint_impl</text>
</a>
</g>
</g>
<!-- Node3&#45;&gt;Node5 -->
<g id="edge4" class="edge">
<title>Node3&#45;&gt;Node5</title>
<path fill="none" stroke="midnightblue" d="M489.33,-211.5C499.95,-211.5 510.66,-211.5 520.86,-211.5"/>
<polygon fill="midnightblue" stroke="midnightblue" points="489.18,-208 479.18,-211.5 489.18,-215 489.18,-208"/>
</g>
<!-- Node6 -->
<g id="node6" class="node">
<title>Node6</title>
<g id="a_node6"><a xlink:href="classvsomeip__v3_1_1udp__client__endpoint__impl.html" target="_top" xlink:title=" ">
<polygon fill="white" stroke="black" points="519.5,-147.5 519.5,-177.5 651.5,-177.5 651.5,-147.5 519.5,-147.5"/>
<text text-anchor="start" x="527.5" y="-165.5" font-family="Helvetica,sans-Serif" font-size="10.00">vsomeip_v3::udp_client</text>
<text text-anchor="middle" x="585.5" y="-154.5" font-family="Helvetica,sans-Serif" font-size="10.00">_endpoint_impl</text>
</a>
</g>
</g>
<!-- Node3&#45;&gt;Node6 -->
<g id="edge5" class="edge">
<title>Node3&#45;&gt;Node6</title>
<path fill="none" stroke="midnightblue" d="M468.74,-193.75C488.41,-188.44 509.78,-182.67 528.75,-177.55"/>
<polygon fill="midnightblue" stroke="midnightblue" points="467.68,-190.41 458.94,-196.4 469.5,-197.17 467.68,-190.41"/>
</g>
<!-- Node8 -->
<g id="node8" class="node">
<title>Node8</title>
<g id="a_node8"><a xlink:href="classvsomeip__v3_1_1client__endpoint__impl.html" target="_top" xlink:title=" ">
<polygon fill="white" stroke="black" points="325,-147.5 325,-177.5 479,-177.5 479,-147.5 325,-147.5"/>
<text text-anchor="start" x="333" y="-165.5" font-family="Helvetica,sans-Serif" font-size="10.00">vsomeip_v3::client</text>
<text text-anchor="middle" x="402" y="-154.5" font-family="Helvetica,sans-Serif" font-size="10.00">_endpoint_impl&lt; Protocol &gt;</text>
</a>
</g>
</g>
<!-- Node7&#45;&gt;Node8 -->
<g id="edge7" class="edge">
<title>Node7&#45;&gt;Node8</title>
<path fill="none" stroke="midnightblue" d="M297.97,-162.5C306.83,-162.5 315.91,-162.5 324.83,-162.5"/>
<polygon fill="midnightblue" stroke="midnightblue" points="297.7,-159 287.7,-162.5 297.7,-166 297.7,-159"/>
</g>
<!-- Node9 -->
<g id="node9" class="node">
<title>Node9</title>
<g id="a_node9"><a xlink:href="classvsomeip__v3_1_1server__endpoint__impl.html" target="_top" xlink:title=" ">
<polygon fill="white" stroke="black" points="325,-74.5 325,-104.5 479,-104.5 479,-74.5 325,-74.5"/>
<text text-anchor="start" x="333" y="-92.5" font-family="Helvetica,sans-Serif" font-size="10.00">vsomeip_v3::server</text>
<text text-anchor="middle" x="402" y="-81.5" font-family="Helvetica,sans-Serif" font-size="10.00">_endpoint_impl&lt; Protocol &gt;</text>
</a>
</g>
</g>
<!-- Node7&#45;&gt;Node9 -->
<g id="edge11" class="edge">
<title>Node7&#45;&gt;Node9</title>
<path fill="none" stroke="midnightblue" d="M276.04,-143.69C280.44,-141.96 284.8,-140.22 289,-138.5 315.72,-127.57 345.66,-114.43 367.85,-104.5"/>
<polygon fill="midnightblue" stroke="midnightblue" points="274.49,-140.54 266.44,-147.42 277.03,-147.06 274.49,-140.54"/>
</g>
<!-- Node8&#45;&gt;Node4 -->
<g id="edge8" class="edge">
<title>Node8&#45;&gt;Node4</title>
<path fill="none" stroke="midnightblue" d="M470.66,-182.16C473.56,-183.81 476.36,-185.58 479,-187.5 500.88,-203.37 493.24,-220.47 515,-236.5 519.63,-239.91 524.77,-242.86 530.11,-245.41"/>
<polygon fill="midnightblue" stroke="midnightblue" points="472.19,-179.02 461.69,-177.62 469.03,-185.26 472.19,-179.02"/>
</g>
<!-- Node8&#45;&gt;Node5 -->
<g id="edge9" class="edge">
<title>Node8&#45;&gt;Node5</title>
<path fill="none" stroke="midnightblue" d="M468.74,-180.25C488.41,-185.56 509.78,-191.33 528.75,-196.45"/>
<polygon fill="midnightblue" stroke="midnightblue" points="469.5,-176.83 458.94,-177.6 467.68,-183.59 469.5,-176.83"/>
</g>
<!-- Node8&#45;&gt;Node6 -->
<g id="edge10" class="edge">
<title>Node8&#45;&gt;Node6</title>
<path fill="none" stroke="midnightblue" d="M489.29,-162.5C499.43,-162.5 509.65,-162.5 519.44,-162.5"/>
<polygon fill="midnightblue" stroke="midnightblue" points="489.18,-159 479.18,-162.5 489.18,-166 489.18,-159"/>
</g>
<!-- Node10 -->
<g id="node10" class="node">
<title>Node10</title>
<g id="a_node10"><a xlink:href="classvsomeip__v3_1_1local__server__endpoint__impl.html" target="_top" xlink:title=" ">
<polygon fill="white" stroke="black" points="515,-98.5 515,-128.5 656,-128.5 656,-98.5 515,-98.5"/>
<text text-anchor="start" x="523" y="-116.5" font-family="Helvetica,sans-Serif" font-size="10.00">vsomeip_v3::local_server</text>
<text text-anchor="middle" x="585.5" y="-105.5" font-family="Helvetica,sans-Serif" font-size="10.00">_endpoint_impl</text>
</a>
</g>
</g>
<!-- Node9&#45;&gt;Node10 -->
<g id="edge12" class="edge">
<title>Node9&#45;&gt;Node10</title>
<path fill="none" stroke="midnightblue" d="M489.23,-100.9C497.83,-102.04 506.48,-103.18 514.87,-104.29"/>
<polygon fill="midnightblue" stroke="midnightblue" points="489.56,-97.42 479.18,-99.57 488.64,-104.35 489.56,-97.42"/>
</g>
<!-- Node11 -->
<g id="node11" class="node">
<title>Node11</title>
<g id="a_node11"><a xlink:href="classvsomeip__v3_1_1tcp__server__endpoint__impl.html" target="_top" xlink:title=" ">
<polygon fill="white" stroke="black" points="519,-49.5 519,-79.5 652,-79.5 652,-49.5 519,-49.5"/>
<text text-anchor="start" x="527" y="-67.5" font-family="Helvetica,sans-Serif" font-size="10.00">vsomeip_v3::tcp_server</text>
<text text-anchor="middle" x="585.5" y="-56.5" font-family="Helvetica,sans-Serif" font-size="10.00">_endpoint_impl</text>
</a>
</g>
</g>
<!-- Node9&#45;&gt;Node11 -->
<g id="edge13" class="edge">
<title>Node9&#45;&gt;Node11</title>
<path fill="none" stroke="midnightblue" d="M489.14,-77.64C499.14,-76.26 509.21,-74.87 518.87,-73.54"/>
<polygon fill="midnightblue" stroke="midnightblue" points="488.61,-74.17 479.18,-79.01 489.57,-81.11 488.61,-74.17"/>
</g>
<!-- Node12 -->
<g id="node12" class="node">
<title>Node12</title>
<g id="a_node12"><a xlink:href="classvsomeip__v3_1_1udp__server__endpoint__impl.html" target="_top" xlink:title=" ">
<polygon fill="white" stroke="black" points="517.5,-0.5 517.5,-30.5 653.5,-30.5 653.5,-0.5 517.5,-0.5"/>
<text text-anchor="start" x="525.5" y="-18.5" font-family="Helvetica,sans-Serif" font-size="10.00">vsomeip_v3::udp_server</text>
<text text-anchor="middle" x="585.5" y="-7.5" font-family="Helvetica,sans-Serif" font-size="10.00">_endpoint_impl</text>
</a>
</g>
</g>
<!-- Node9&#45;&gt;Node12 -->
<g id="edge14" class="edge">
<title>Node9&#45;&gt;Node12</title>
<path fill="none" stroke="midnightblue" d="M445.3,-70.19C466.15,-60.89 491.74,-49.76 515,-40.5 523.46,-37.13 532.57,-33.71 541.32,-30.52"/>
<polygon fill="midnightblue" stroke="midnightblue" points="443.77,-67.04 436.08,-74.33 446.64,-73.43 443.77,-67.04"/>
</g>
</g>
</svg>
