<?xml version="1.0" encoding="UTF-8" standalone="no"?>
<!DOCTYPE svg PUBLIC "-//W3C//DTD SVG 1.1//EN"
 "http://www.w3.org/Graphics/SVG/1.1/DTD/svg11.dtd">
<!-- Generated by graphviz version 2.43.0 (0)
 -->
<!-- Title: boost::asio::basic_stream_socket_ext&lt; Protocol, StreamSocketService &gt; Pages: 1 -->
<svg width="564pt" height="170pt"
 viewBox="0.00 0.00 564.00 170.00" xmlns="http://www.w3.org/2000/svg" xmlns:xlink="http://www.w3.org/1999/xlink">
<g id="graph0" class="graph" transform="scale(1 1) rotate(0) translate(4 166)">
<title>boost::asio::basic_stream_socket_ext&lt; Protocol, StreamSocketService &gt;</title>
<polygon fill="white" stroke="transparent" points="-4,4 -4,-166 560,-166 560,4 -4,4"/>
<!-- Node1 -->
<g id="node1" class="node">
<title>Node1</title>
<g id="a_node1"><a xlink:title="Provides stream&#45;oriented socket functionality.">
<polygon fill="#bfbfbf" stroke="black" points="376,-60.5 376,-101.5 556,-101.5 556,-60.5 376,-60.5"/>
<text text-anchor="start" x="384" y="-89.5" font-family="Helvetica,sans-Serif" font-size="10.00">boost::asio::basic</text>
<text text-anchor="start" x="384" y="-78.5" font-family="Helvetica,sans-Serif" font-size="10.00">_stream_socket_ext&lt;</text>
<text text-anchor="middle" x="466" y="-67.5" font-family="Helvetica,sans-Serif" font-size="10.00"> Protocol, StreamSocketService &gt;</text>
</a>
</g>
</g>
<!-- Node2 -->
<g id="node2" class="node">
<title>Node2</title>
<g id="a_node2"><a xlink:title=" ">
<polygon fill="white" stroke="black" points="195,-120.5 195,-161.5 328,-161.5 328,-120.5 195,-120.5"/>
<text text-anchor="start" x="203" y="-149.5" font-family="Helvetica,sans-Serif" font-size="10.00">basic_socket&lt; Protocol,</text>
<text text-anchor="start" x="203" y="-138.5" font-family="Helvetica,sans-Serif" font-size="10.00"> stream_socket_service</text>
<text text-anchor="middle" x="261.5" y="-127.5" font-family="Helvetica,sans-Serif" font-size="10.00">_ext&lt; Protocol &gt; &gt;</text>
</a>
</g>
</g>
<!-- Node2&#45;&gt;Node1 -->
<g id="edge1" class="edge">
<title>Node2&#45;&gt;Node1</title>
<path fill="none" stroke="midnightblue" d="M338.01,-118.63C356.94,-113.02 377.15,-107.03 395.75,-101.52"/>
<polygon fill="midnightblue" stroke="midnightblue" points="336.84,-115.32 328.25,-121.52 338.83,-122.03 336.84,-115.32"/>
</g>
<!-- Node3 -->
<g id="node3" class="node">
<title>Node3</title>
<g id="a_node3"><a xlink:href="classboost_1_1asio_1_1basic__socket__ext__local.html" target="_top" xlink:title=" ">
<polygon fill="white" stroke="black" points="184.5,-0.5 184.5,-41.5 338.5,-41.5 338.5,-0.5 184.5,-0.5"/>
<text text-anchor="start" x="192.5" y="-29.5" font-family="Helvetica,sans-Serif" font-size="10.00">boost::asio::basic</text>
<text text-anchor="start" x="192.5" y="-18.5" font-family="Helvetica,sans-Serif" font-size="10.00">_socket_ext_local&lt; Protocol</text>
<text text-anchor="middle" x="261.5" y="-7.5" font-family="Helvetica,sans-Serif" font-size="10.00"> BOOST_ASIO_SVC_TARG &gt;</text>
</a>
</g>
</g>
<!-- Node3&#45;&gt;Node1 -->
<g id="edge2" class="edge">
<title>Node3&#45;&gt;Node1</title>
<path fill="none" stroke="midnightblue" d="M341.69,-44.47C359.52,-49.75 378.3,-55.31 395.68,-60.46"/>
<polygon fill="midnightblue" stroke="midnightblue" points="342.49,-41.05 331.91,-41.56 340.5,-47.76 342.49,-41.05"/>
</g>
<!-- Node4 -->
<g id="node4" class="node">
<title>Node4</title>
<g id="a_node4"><a xlink:title=" ">
<polygon fill="white" stroke="black" points="0,-57.5 0,-98.5 147,-98.5 147,-57.5 0,-57.5"/>
<text text-anchor="start" x="8" y="-86.5" font-family="Helvetica,sans-Serif" font-size="10.00">BOOST_ASIO_SVC_ACCESS</text>
<text text-anchor="start" x="8" y="-75.5" font-family="Helvetica,sans-Serif" font-size="10.00"> basic_io_object&lt; BOOST</text>
<text text-anchor="middle" x="73.5" y="-64.5" font-family="Helvetica,sans-Serif" font-size="10.00">_ASIO_SVC_T &gt;</text>
</a>
</g>
</g>
<!-- Node4&#45;&gt;Node3 -->
<g id="edge3" class="edge">
<title>Node4&#45;&gt;Node3</title>
<path fill="none" stroke="#8b1a1a" d="M151.25,-54.48C165.25,-50.19 179.76,-45.74 193.45,-41.55"/>
<polygon fill="#8b1a1a" stroke="#8b1a1a" points="150.19,-51.15 141.65,-57.42 152.24,-57.84 150.19,-51.15"/>
</g>
<!-- Node6 -->
<g id="node6" class="node">
<title>Node6</title>
<g id="a_node6"><a xlink:href="classboost_1_1asio_1_1basic__socket__ext__local.html" target="_top" xlink:title=" ">
<polygon fill="white" stroke="black" points="183,-60.5 183,-101.5 340,-101.5 340,-60.5 183,-60.5"/>
<text text-anchor="start" x="191" y="-89.5" font-family="Helvetica,sans-Serif" font-size="10.00">boost::asio::basic</text>
<text text-anchor="start" x="191" y="-78.5" font-family="Helvetica,sans-Serif" font-size="10.00">_socket_ext_local&lt; Protocol,</text>
<text text-anchor="middle" x="261.5" y="-67.5" font-family="Helvetica,sans-Serif" font-size="10.00"> Executor &gt;</text>
</a>
</g>
</g>
<!-- Node4&#45;&gt;Node6 -->
<g id="edge9" class="edge">
<title>Node4&#45;&gt;Node6</title>
<path fill="none" stroke="#8b1a1a" d="M157.47,-79.34C165.94,-79.47 174.52,-79.61 182.92,-79.75"/>
<polygon fill="#8b1a1a" stroke="#8b1a1a" points="157.27,-75.83 147.21,-79.17 157.15,-82.83 157.27,-75.83"/>
</g>
<!-- Node5 -->
<g id="node5" class="node">
<title>Node5</title>
<g id="a_node5"><a xlink:title=" ">
<polygon fill="white" stroke="black" points="35,-16.5 35,-35.5 112,-35.5 112,-16.5 35,-16.5"/>
<text text-anchor="middle" x="73.5" y="-23.5" font-family="Helvetica,sans-Serif" font-size="10.00">socket_base</text>
</a>
</g>
</g>
<!-- Node5&#45;&gt;Node3 -->
<g id="edge4" class="edge">
<title>Node5&#45;&gt;Node3</title>
<path fill="none" stroke="midnightblue" d="M92.87,-12.82C114.15,-6.22 150.58,-2.82 184.06,-3.09"/>
<polygon fill="midnightblue" stroke="midnightblue" points="91.55,-9.57 83.47,-16.43 94.06,-16.11 91.55,-9.57"/>
</g>
<!-- Node5&#45;&gt;Node3 -->
<g id="edge5" class="edge">
<title>Node5&#45;&gt;Node3</title>
<path fill="none" stroke="midnightblue" d="M122.29,-18.73C141.22,-17.53 163.46,-16.71 184.49,-16.39"/>
<polygon fill="midnightblue" stroke="midnightblue" points="121.87,-15.25 112.14,-19.44 122.36,-22.23 121.87,-15.25"/>
</g>
<!-- Node5&#45;&gt;Node3 -->
<g id="edge6" class="edge">
<title>Node5&#45;&gt;Node3</title>
<path fill="none" stroke="midnightblue" d="M122.29,-30.7C141.22,-30.89 163.46,-30.51 184.49,-29.69"/>
<polygon fill="midnightblue" stroke="midnightblue" points="122.19,-27.2 112.14,-30.54 122.08,-34.2 122.19,-27.2"/>
</g>
<!-- Node5&#45;&gt;Node3 -->
<g id="edge7" class="edge">
<title>Node5&#45;&gt;Node3</title>
<path fill="none" stroke="midnightblue" d="M94.11,-38.5C119.6,-44.68 165.23,-45.43 202.27,-41.5"/>
<polygon fill="midnightblue" stroke="midnightblue" points="95.09,-35.14 84.5,-35.52 93.01,-41.83 95.09,-35.14"/>
</g>
<!-- Node5&#45;&gt;Node6 -->
<g id="edge10" class="edge">
<title>Node5&#45;&gt;Node6</title>
<path fill="none" stroke="midnightblue" d="M122.25,-22.17C159.39,-29.05 209.26,-45.18 237.84,-60.49"/>
<polygon fill="midnightblue" stroke="midnightblue" points="122.58,-18.68 112.14,-20.48 121.43,-25.58 122.58,-18.68"/>
</g>
<!-- Node5&#45;&gt;Node6 -->
<g id="edge11" class="edge">
<title>Node5&#45;&gt;Node6</title>
<path fill="none" stroke="midnightblue" d="M121.88,-34.04C149.23,-41.11 183.59,-51.25 211.26,-60.4"/>
<polygon fill="midnightblue" stroke="midnightblue" points="122.69,-30.64 112.14,-31.58 120.98,-37.42 122.69,-30.64"/>
</g>
<!-- Node5&#45;&gt;Node6 -->
<g id="edge12" class="edge">
<title>Node5&#45;&gt;Node6</title>
<path fill="none" stroke="midnightblue" d="M102.09,-39.12C123.49,-46.9 154.25,-56.56 182.98,-64.74"/>
<polygon fill="midnightblue" stroke="midnightblue" points="103.27,-35.83 92.67,-35.59 100.8,-42.38 103.27,-35.83"/>
</g>
<!-- Node5&#45;&gt;Node6 -->
<g id="edge13" class="edge">
<title>Node5&#45;&gt;Node6</title>
<path fill="none" stroke="midnightblue" d="M88.84,-41.68C109.04,-54.5 147.37,-68.69 182.7,-78"/>
<polygon fill="midnightblue" stroke="midnightblue" points="90.83,-38.8 80.69,-35.72 86.69,-44.45 90.83,-38.8"/>
</g>
<!-- Node6&#45;&gt;Node1 -->
<g id="edge8" class="edge">
<title>Node6&#45;&gt;Node1</title>
<path fill="none" stroke="midnightblue" d="M350.37,-67.61C358.75,-67.47 367.26,-67.47 375.66,-67.58"/>
<polygon fill="midnightblue" stroke="midnightblue" points="350.13,-64.11 340.21,-67.83 350.29,-71.11 350.13,-64.11"/>
</g>
<!-- Node6&#45;&gt;Node1 -->
<g id="edge14" class="edge">
<title>Node6&#45;&gt;Node1</title>
<path fill="none" stroke="midnightblue" d="M350.37,-81C358.75,-81 367.26,-81 375.66,-81"/>
<polygon fill="midnightblue" stroke="midnightblue" points="350.21,-77.5 340.21,-81 350.21,-84.5 350.21,-77.5"/>
</g>
<!-- Node6&#45;&gt;Node1 -->
<g id="edge15" class="edge">
<title>Node6&#45;&gt;Node1</title>
<path fill="none" stroke="midnightblue" d="M350.37,-94.39C358.75,-94.53 367.26,-94.53 375.66,-94.42"/>
<polygon fill="midnightblue" stroke="midnightblue" points="350.29,-90.89 340.21,-94.17 350.13,-97.89 350.29,-90.89"/>
</g>
</g>
</svg>
