<?xml version="1.0" encoding="UTF-8" standalone="no"?>
<!DOCTYPE svg PUBLIC "-//W3C//DTD SVG 1.1//EN"
 "http://www.w3.org/Graphics/SVG/1.1/DTD/svg11.dtd">
<!-- Generated by graphviz version 2.43.0 (0)
 -->
<!-- Title: vsomeip_v3::endpoint_impl&lt; Protocol &gt; Pages: 1 -->
<svg width="661pt" height="284pt"
 viewBox="0.00 0.00 661.00 284.00" xmlns="http://www.w3.org/2000/svg" xmlns:xlink="http://www.w3.org/1999/xlink">
<g id="graph0" class="graph" transform="scale(1 1) rotate(0) translate(4 280)">
<title>vsomeip_v3::endpoint_impl&lt; Protocol &gt;</title>
<polygon fill="white" stroke="transparent" points="-4,4 -4,-280 657,-280 657,4 -4,4"/>
<!-- Node1 -->
<g id="node1" class="node">
<title>Node1</title>
<g id="a_node1"><a xlink:title=" ">
<polygon fill="#bfbfbf" stroke="black" points="161,-98.5 161,-128.5 286,-128.5 286,-98.5 161,-98.5"/>
<text text-anchor="start" x="169" y="-116.5" font-family="Helvetica,sans-Serif" font-size="10.00">vsomeip_v3::endpoint</text>
<text text-anchor="middle" x="223.5" y="-105.5" font-family="Helvetica,sans-Serif" font-size="10.00">_impl&lt; Protocol &gt;</text>
</a>
</g>
</g>
<!-- Node3 -->
<g id="node3" class="node">
<title>Node3</title>
<g id="a_node3"><a xlink:href="classvsomeip__v3_1_1client__endpoint__impl.html" target="_top" xlink:title=" ">
<polygon fill="white" stroke="black" points="322,-171.5 322,-201.5 476,-201.5 476,-171.5 322,-171.5"/>
<text text-anchor="start" x="330" y="-189.5" font-family="Helvetica,sans-Serif" font-size="10.00">vsomeip_v3::client</text>
<text text-anchor="middle" x="399" y="-178.5" font-family="Helvetica,sans-Serif" font-size="10.00">_endpoint_impl&lt; Protocol &gt;</text>
</a>
</g>
</g>
<!-- Node1&#45;&gt;Node3 -->
<g id="edge2" class="edge">
<title>Node1&#45;&gt;Node3</title>
<path fill="none" stroke="midnightblue" d="M269.88,-132.59C298.65,-144.7 335.36,-160.14 362.1,-171.39"/>
<polygon fill="midnightblue" stroke="midnightblue" points="271.02,-129.28 260.45,-128.63 268.31,-135.73 271.02,-129.28"/>
</g>
<!-- Node7 -->
<g id="node7" class="node">
<title>Node7</title>
<g id="a_node7"><a xlink:href="classvsomeip__v3_1_1server__endpoint__impl.html" target="_top" xlink:title=" ">
<polygon fill="white" stroke="black" points="322,-74.5 322,-104.5 476,-104.5 476,-74.5 322,-74.5"/>
<text text-anchor="start" x="330" y="-92.5" font-family="Helvetica,sans-Serif" font-size="10.00">vsomeip_v3::server</text>
<text text-anchor="middle" x="399" y="-81.5" font-family="Helvetica,sans-Serif" font-size="10.00">_endpoint_impl&lt; Protocol &gt;</text>
</a>
</g>
</g>
<!-- Node1&#45;&gt;Node7 -->
<g id="edge6" class="edge">
<title>Node1&#45;&gt;Node7</title>
<path fill="none" stroke="midnightblue" d="M296.07,-103.6C304.61,-102.42 313.36,-101.21 321.96,-100.02"/>
<polygon fill="midnightblue" stroke="midnightblue" points="295.58,-100.13 286.16,-104.97 296.54,-107.07 295.58,-100.13"/>
</g>
<!-- Node2 -->
<g id="node2" class="node">
<title>Node2</title>
<g id="a_node2"><a xlink:href="classvsomeip__v3_1_1endpoint.html" target="_top" xlink:title=" ">
<polygon fill="white" stroke="black" points="0,-104 0,-123 125,-123 125,-104 0,-104"/>
<text text-anchor="middle" x="62.5" y="-111" font-family="Helvetica,sans-Serif" font-size="10.00">vsomeip_v3::endpoint</text>
</a>
</g>
</g>
<!-- Node2&#45;&gt;Node1 -->
<g id="edge1" class="edge">
<title>Node2&#45;&gt;Node1</title>
<path fill="none" stroke="midnightblue" d="M135.59,-113.5C143.99,-113.5 152.5,-113.5 160.74,-113.5"/>
<polygon fill="midnightblue" stroke="midnightblue" points="135.43,-110 125.43,-113.5 135.43,-117 135.43,-110"/>
</g>
<!-- Node4 -->
<g id="node4" class="node">
<title>Node4</title>
<g id="a_node4"><a xlink:href="classvsomeip__v3_1_1local__client__endpoint__impl.html" target="_top" xlink:title=" ">
<polygon fill="white" stroke="black" points="514,-245.5 514,-275.5 651,-275.5 651,-245.5 514,-245.5"/>
<text text-anchor="start" x="522" y="-263.5" font-family="Helvetica,sans-Serif" font-size="10.00">vsomeip_v3::local_client</text>
<text text-anchor="middle" x="582.5" y="-252.5" font-family="Helvetica,sans-Serif" font-size="10.00">_endpoint_impl</text>
</a>
</g>
</g>
<!-- Node3&#45;&gt;Node4 -->
<g id="edge3" class="edge">
<title>Node3&#45;&gt;Node4</title>
<path fill="none" stroke="midnightblue" d="M441.29,-205.97C462.28,-215.6 488.3,-227.14 512,-236.5 519.72,-239.55 528,-242.6 536.05,-245.45"/>
<polygon fill="midnightblue" stroke="midnightblue" points="442.58,-202.71 432.03,-201.7 439.64,-209.06 442.58,-202.71"/>
</g>
<!-- Node5 -->
<g id="node5" class="node">
<title>Node5</title>
<g id="a_node5"><a xlink:href="classvsomeip__v3_1_1tcp__client__endpoint__impl.html" target="_top" xlink:title=" ">
<polygon fill="white" stroke="black" points="518,-196.5 518,-226.5 647,-226.5 647,-196.5 518,-196.5"/>
<text text-anchor="start" x="526" y="-214.5" font-family="Helvetica,sans-Serif" font-size="10.00">vsomeip_v3::tcp_client</text>
<text text-anchor="middle" x="582.5" y="-203.5" font-family="Helvetica,sans-Serif" font-size="10.00">_endpoint_impl</text>
</a>
</g>
</g>
<!-- Node3&#45;&gt;Node5 -->
<g id="edge4" class="edge">
<title>Node3&#45;&gt;Node5</title>
<path fill="none" stroke="midnightblue" d="M486.33,-198.39C496.95,-199.85 507.66,-201.33 517.86,-202.73"/>
<polygon fill="midnightblue" stroke="midnightblue" points="486.57,-194.89 476.18,-196.99 485.61,-201.83 486.57,-194.89"/>
</g>
<!-- Node6 -->
<g id="node6" class="node">
<title>Node6</title>
<g id="a_node6"><a xlink:href="classvsomeip__v3_1_1udp__client__endpoint__impl.html" target="_top" xlink:title=" ">
<polygon fill="white" stroke="black" points="516.5,-147.5 516.5,-177.5 648.5,-177.5 648.5,-147.5 516.5,-147.5"/>
<text text-anchor="start" x="524.5" y="-165.5" font-family="Helvetica,sans-Serif" font-size="10.00">vsomeip_v3::udp_client</text>
<text text-anchor="middle" x="582.5" y="-154.5" font-family="Helvetica,sans-Serif" font-size="10.00">_endpoint_impl</text>
</a>
</g>
</g>
<!-- Node3&#45;&gt;Node6 -->
<g id="edge5" class="edge">
<title>Node3&#45;&gt;Node6</title>
<path fill="none" stroke="midnightblue" d="M486.29,-175.09C496.43,-173.75 506.65,-172.4 516.44,-171.1"/>
<polygon fill="midnightblue" stroke="midnightblue" points="485.64,-171.65 476.18,-176.43 486.56,-178.58 485.64,-171.65"/>
</g>
<!-- Node8 -->
<g id="node8" class="node">
<title>Node8</title>
<g id="a_node8"><a xlink:href="classvsomeip__v3_1_1local__server__endpoint__impl.html" target="_top" xlink:title=" ">
<polygon fill="white" stroke="black" points="512,-98.5 512,-128.5 653,-128.5 653,-98.5 512,-98.5"/>
<text text-anchor="start" x="520" y="-116.5" font-family="Helvetica,sans-Serif" font-size="10.00">vsomeip_v3::local_server</text>
<text text-anchor="middle" x="582.5" y="-105.5" font-family="Helvetica,sans-Serif" font-size="10.00">_endpoint_impl</text>
</a>
</g>
</g>
<!-- Node7&#45;&gt;Node8 -->
<g id="edge7" class="edge">
<title>Node7&#45;&gt;Node8</title>
<path fill="none" stroke="midnightblue" d="M486.23,-100.9C494.83,-102.04 503.48,-103.18 511.87,-104.29"/>
<polygon fill="midnightblue" stroke="midnightblue" points="486.56,-97.42 476.18,-99.57 485.64,-104.35 486.56,-97.42"/>
</g>
<!-- Node9 -->
<g id="node9" class="node">
<title>Node9</title>
<g id="a_node9"><a xlink:href="classvsomeip__v3_1_1tcp__server__endpoint__impl.html" target="_top" xlink:title=" ">
<polygon fill="white" stroke="black" points="516,-49.5 516,-79.5 649,-79.5 649,-49.5 516,-49.5"/>
<text text-anchor="start" x="524" y="-67.5" font-family="Helvetica,sans-Serif" font-size="10.00">vsomeip_v3::tcp_server</text>
<text text-anchor="middle" x="582.5" y="-56.5" font-family="Helvetica,sans-Serif" font-size="10.00">_endpoint_impl</text>
</a>
</g>
</g>
<!-- Node7&#45;&gt;Node9 -->
<g id="edge8" class="edge">
<title>Node7&#45;&gt;Node9</title>
<path fill="none" stroke="midnightblue" d="M486.14,-77.64C496.14,-76.26 506.21,-74.87 515.87,-73.54"/>
<polygon fill="midnightblue" stroke="midnightblue" points="485.61,-74.17 476.18,-79.01 486.57,-81.11 485.61,-74.17"/>
</g>
<!-- Node10 -->
<g id="node10" class="node">
<title>Node10</title>
<g id="a_node10"><a xlink:href="classvsomeip__v3_1_1udp__server__endpoint__impl.html" target="_top" xlink:title=" ">
<polygon fill="white" stroke="black" points="514.5,-0.5 514.5,-30.5 650.5,-30.5 650.5,-0.5 514.5,-0.5"/>
<text text-anchor="start" x="522.5" y="-18.5" font-family="Helvetica,sans-Serif" font-size="10.00">vsomeip_v3::udp_server</text>
<text text-anchor="middle" x="582.5" y="-7.5" font-family="Helvetica,sans-Serif" font-size="10.00">_endpoint_impl</text>
</a>
</g>
</g>
<!-- Node7&#45;&gt;Node10 -->
<g id="edge9" class="edge">
<title>Node7&#45;&gt;Node10</title>
<path fill="none" stroke="midnightblue" d="M441.29,-70.03C462.28,-60.4 488.3,-48.86 512,-39.5 519.72,-36.45 528,-33.4 536.05,-30.55"/>
<polygon fill="midnightblue" stroke="midnightblue" points="439.64,-66.94 432.03,-74.3 442.58,-73.29 439.64,-66.94"/>
</g>
</g>
</svg>
