<?xml version="1.0" encoding="UTF-8" standalone="no"?>
<!DOCTYPE svg PUBLIC "-//W3C//DTD SVG 1.1//EN"
 "http://www.w3.org/Graphics/SVG/1.1/DTD/svg11.dtd">
<!-- Generated by graphviz version 2.43.0 (0)
 -->
<!-- Title: vsomeip_v3::local_server_endpoint_impl Pages: 1 -->
<svg width="664pt" height="100pt"
 viewBox="0.00 0.00 664.00 99.50" xmlns="http://www.w3.org/2000/svg" xmlns:xlink="http://www.w3.org/1999/xlink">
<g id="graph0" class="graph" transform="scale(1 1) rotate(0) translate(4 95.5)">
<title>vsomeip_v3::local_server_endpoint_impl</title>
<polygon fill="white" stroke="transparent" points="-4,4 -4,-95.5 660,-95.5 660,4 -4,4"/>
<!-- Node1 -->
<g id="node1" class="node">
<title>Node1</title>
<g id="a_node1"><a xlink:title=" ">
<polygon fill="#bfbfbf" stroke="black" points="515,-33 515,-63 656,-63 656,-33 515,-33"/>
<text text-anchor="start" x="523" y="-51" font-family="Helvetica,sans-Serif" font-size="10.00">vsomeip_v3::local_server</text>
<text text-anchor="middle" x="585.5" y="-40" font-family="Helvetica,sans-Serif" font-size="10.00">_endpoint_impl</text>
</a>
</g>
</g>
<!-- Node2 -->
<g id="node2" class="node">
<title>Node2</title>
<g id="a_node2"><a xlink:href="classvsomeip__v3_1_1server__endpoint__impl.html" target="_top" xlink:title=" ">
<polygon fill="white" stroke="black" points="355,-33 355,-63 479,-63 479,-33 355,-33"/>
<text text-anchor="start" x="363" y="-51" font-family="Helvetica,sans-Serif" font-size="10.00">local_server_endpoint</text>
<text text-anchor="middle" x="417" y="-40" font-family="Helvetica,sans-Serif" font-size="10.00">_base_impl</text>
</a>
</g>
</g>
<!-- Node2&#45;&gt;Node1 -->
<g id="edge1" class="edge">
<title>Node2&#45;&gt;Node1</title>
<path fill="none" stroke="midnightblue" d="M489.25,-48C497.69,-48 506.3,-48 514.72,-48"/>
<polygon fill="midnightblue" stroke="midnightblue" points="489.05,-44.5 479.05,-48 489.05,-51.5 489.05,-44.5"/>
</g>
<!-- Node3 -->
<g id="node3" class="node">
<title>Node3</title>
<g id="a_node3"><a xlink:href="classvsomeip__v3_1_1endpoint__impl.html" target="_top" xlink:title=" ">
<polygon fill="white" stroke="black" points="177.5,-61 177.5,-91 302.5,-91 302.5,-61 177.5,-61"/>
<text text-anchor="start" x="185.5" y="-79" font-family="Helvetica,sans-Serif" font-size="10.00">vsomeip_v3::endpoint</text>
<text text-anchor="middle" x="240" y="-68" font-family="Helvetica,sans-Serif" font-size="10.00">_impl&lt; Protocol &gt;</text>
</a>
</g>
</g>
<!-- Node3&#45;&gt;Node2 -->
<g id="edge2" class="edge">
<title>Node3&#45;&gt;Node2</title>
<path fill="none" stroke="midnightblue" d="M312.76,-64.52C326.73,-62.28 341.26,-59.96 354.86,-57.78"/>
<polygon fill="midnightblue" stroke="midnightblue" points="312.02,-61.09 302.7,-66.13 313.13,-68 312.02,-61.09"/>
</g>
<!-- Node4 -->
<g id="node4" class="node">
<title>Node4</title>
<g id="a_node4"><a xlink:href="classvsomeip__v3_1_1endpoint.html" target="_top" xlink:title=" ">
<polygon fill="white" stroke="black" points="0,-66.5 0,-85.5 125,-85.5 125,-66.5 0,-66.5"/>
<text text-anchor="middle" x="62.5" y="-73.5" font-family="Helvetica,sans-Serif" font-size="10.00">vsomeip_v3::endpoint</text>
</a>
</g>
</g>
<!-- Node4&#45;&gt;Node3 -->
<g id="edge3" class="edge">
<title>Node4&#45;&gt;Node3</title>
<path fill="none" stroke="midnightblue" d="M135.4,-76C149.34,-76 163.82,-76 177.39,-76"/>
<polygon fill="midnightblue" stroke="midnightblue" points="135.37,-72.5 125.37,-76 135.37,-79.5 135.37,-72.5"/>
</g>
<!-- Node5 -->
<g id="node5" class="node">
<title>Node5</title>
<g id="a_node5"><a xlink:title=" ">
<polygon fill="white" stroke="black" points="161,-0.5 161,-41.5 319,-41.5 319,-0.5 161,-0.5"/>
<text text-anchor="start" x="169" y="-29.5" font-family="Helvetica,sans-Serif" font-size="10.00">std::enable_shared</text>
<text text-anchor="start" x="169" y="-18.5" font-family="Helvetica,sans-Serif" font-size="10.00">_from_this&lt; server_endpoint</text>
<text text-anchor="middle" x="240" y="-7.5" font-family="Helvetica,sans-Serif" font-size="10.00">_impl&lt; Protocol &gt; &gt;</text>
</a>
</g>
</g>
<!-- Node5&#45;&gt;Node2 -->
<g id="edge4" class="edge">
<title>Node5&#45;&gt;Node2</title>
<path fill="none" stroke="midnightblue" d="M328.94,-34.57C337.72,-35.92 346.5,-37.28 354.93,-38.58"/>
<polygon fill="midnightblue" stroke="midnightblue" points="329.45,-31.1 319.03,-33.04 328.38,-38.02 329.45,-31.1"/>
</g>
</g>
</svg>
