<?xml version="1.0" encoding="UTF-8" standalone="no"?>
<!DOCTYPE svg PUBLIC "-//W3C//DTD SVG 1.1//EN"
 "http://www.w3.org/Graphics/SVG/1.1/DTD/svg11.dtd">
<!-- Generated by graphviz version 2.43.0 (0)
 -->
<!-- Title: vsomeip_v3::client_endpoint_impl&lt; Protocol &gt; Pages: 1 -->
<svg width="687pt" height="149pt"
 viewBox="0.00 0.00 687.00 148.50" xmlns="http://www.w3.org/2000/svg" xmlns:xlink="http://www.w3.org/1999/xlink">
<g id="graph0" class="graph" transform="scale(1 1) rotate(0) translate(4 144.5)">
<title>vsomeip_v3::client_endpoint_impl&lt; Protocol &gt;</title>
<polygon fill="white" stroke="transparent" points="-4,4 -4,-144.5 683,-144.5 683,4 -4,4"/>
<!-- Node1 -->
<g id="node1" class="node">
<title>Node1</title>
<g id="a_node1"><a xlink:title=" ">
<polygon fill="#bfbfbf" stroke="black" points="352,-61 352,-91 506,-91 506,-61 352,-61"/>
<text text-anchor="start" x="360" y="-79" font-family="Helvetica,sans-Serif" font-size="10.00">vsomeip_v3::client</text>
<text text-anchor="middle" x="429" y="-68" font-family="Helvetica,sans-Serif" font-size="10.00">_endpoint_impl&lt; Protocol &gt;</text>
</a>
</g>
</g>
<!-- Node6 -->
<g id="node6" class="node">
<title>Node6</title>
<g id="a_node6"><a xlink:href="classvsomeip__v3_1_1local__client__endpoint__impl.html" target="_top" xlink:title=" ">
<polygon fill="white" stroke="black" points="542,-110 542,-140 679,-140 679,-110 542,-110"/>
<text text-anchor="start" x="550" y="-128" font-family="Helvetica,sans-Serif" font-size="10.00">vsomeip_v3::local_client</text>
<text text-anchor="middle" x="610.5" y="-117" font-family="Helvetica,sans-Serif" font-size="10.00">_endpoint_impl</text>
</a>
</g>
</g>
<!-- Node1&#45;&gt;Node6 -->
<g id="edge6" class="edge">
<title>Node1&#45;&gt;Node6</title>
<path fill="none" stroke="midnightblue" d="M495.02,-93.75C514.47,-99.06 535.61,-104.83 554.36,-109.95"/>
<polygon fill="midnightblue" stroke="midnightblue" points="495.89,-90.36 485.32,-91.1 494.05,-97.11 495.89,-90.36"/>
</g>
<!-- Node7 -->
<g id="node7" class="node">
<title>Node7</title>
<g id="a_node7"><a xlink:href="classvsomeip__v3_1_1tcp__client__endpoint__impl.html" target="_top" xlink:title=" ">
<polygon fill="white" stroke="black" points="546,-61 546,-91 675,-91 675,-61 546,-61"/>
<text text-anchor="start" x="554" y="-79" font-family="Helvetica,sans-Serif" font-size="10.00">vsomeip_v3::tcp_client</text>
<text text-anchor="middle" x="610.5" y="-68" font-family="Helvetica,sans-Serif" font-size="10.00">_endpoint_impl</text>
</a>
</g>
</g>
<!-- Node1&#45;&gt;Node7 -->
<g id="edge7" class="edge">
<title>Node1&#45;&gt;Node7</title>
<path fill="none" stroke="midnightblue" d="M516.14,-76C526.2,-76 536.32,-76 545.99,-76"/>
<polygon fill="midnightblue" stroke="midnightblue" points="516.12,-72.5 506.12,-76 516.12,-79.5 516.12,-72.5"/>
</g>
<!-- Node8 -->
<g id="node8" class="node">
<title>Node8</title>
<g id="a_node8"><a xlink:href="classvsomeip__v3_1_1udp__client__endpoint__impl.html" target="_top" xlink:title=" ">
<polygon fill="white" stroke="black" points="544.5,-12 544.5,-42 676.5,-42 676.5,-12 544.5,-12"/>
<text text-anchor="start" x="552.5" y="-30" font-family="Helvetica,sans-Serif" font-size="10.00">vsomeip_v3::udp_client</text>
<text text-anchor="middle" x="610.5" y="-19" font-family="Helvetica,sans-Serif" font-size="10.00">_endpoint_impl</text>
</a>
</g>
</g>
<!-- Node1&#45;&gt;Node8 -->
<g id="edge8" class="edge">
<title>Node1&#45;&gt;Node8</title>
<path fill="none" stroke="midnightblue" d="M495.02,-58.25C514.47,-52.94 535.61,-47.17 554.36,-42.05"/>
<polygon fill="midnightblue" stroke="midnightblue" points="494.05,-54.89 485.32,-60.9 495.89,-61.64 494.05,-54.89"/>
</g>
<!-- Node2 -->
<g id="node2" class="node">
<title>Node2</title>
<g id="a_node2"><a xlink:href="classvsomeip__v3_1_1endpoint__impl.html" target="_top" xlink:title=" ">
<polygon fill="white" stroke="black" points="176,-110 176,-140 301,-140 301,-110 176,-110"/>
<text text-anchor="start" x="184" y="-128" font-family="Helvetica,sans-Serif" font-size="10.00">vsomeip_v3::endpoint</text>
<text text-anchor="middle" x="238.5" y="-117" font-family="Helvetica,sans-Serif" font-size="10.00">_impl&lt; Protocol &gt;</text>
</a>
</g>
</g>
<!-- Node2&#45;&gt;Node1 -->
<g id="edge1" class="edge">
<title>Node2&#45;&gt;Node1</title>
<path fill="none" stroke="midnightblue" d="M307.29,-107.38C327.92,-102.02 350.38,-96.18 370.27,-91.01"/>
<polygon fill="midnightblue" stroke="midnightblue" points="306.14,-104.06 297.34,-109.97 307.9,-110.84 306.14,-104.06"/>
</g>
<!-- Node3 -->
<g id="node3" class="node">
<title>Node3</title>
<g id="a_node3"><a xlink:href="classvsomeip__v3_1_1endpoint.html" target="_top" xlink:title=" ">
<polygon fill="white" stroke="black" points="0,-90.5 0,-109.5 125,-109.5 125,-90.5 0,-90.5"/>
<text text-anchor="middle" x="62.5" y="-97.5" font-family="Helvetica,sans-Serif" font-size="10.00">vsomeip_v3::endpoint</text>
</a>
</g>
</g>
<!-- Node3&#45;&gt;Node2 -->
<g id="edge2" class="edge">
<title>Node3&#45;&gt;Node2</title>
<path fill="none" stroke="midnightblue" d="M135.48,-110.34C148.89,-112.27 162.79,-114.27 175.86,-116.14"/>
<polygon fill="midnightblue" stroke="midnightblue" points="135.73,-106.84 125.34,-108.88 134.74,-113.77 135.73,-106.84"/>
</g>
<!-- Node4 -->
<g id="node4" class="node">
<title>Node4</title>
<g id="a_node4"><a xlink:href="classvsomeip__v3_1_1client__endpoint.html" target="_top" xlink:title=" ">
<polygon fill="white" stroke="black" points="184,-61 184,-91 293,-91 293,-61 184,-61"/>
<text text-anchor="start" x="192" y="-79" font-family="Helvetica,sans-Serif" font-size="10.00">vsomeip_v3::client</text>
<text text-anchor="middle" x="238.5" y="-68" font-family="Helvetica,sans-Serif" font-size="10.00">_endpoint</text>
</a>
</g>
</g>
<!-- Node3&#45;&gt;Node4 -->
<g id="edge4" class="edge">
<title>Node3&#45;&gt;Node4</title>
<path fill="none" stroke="midnightblue" d="M135.34,-90.09C151.6,-87.85 168.59,-85.5 183.94,-83.39"/>
<polygon fill="midnightblue" stroke="midnightblue" points="134.76,-86.64 125.34,-91.47 135.72,-93.57 134.76,-86.64"/>
</g>
<!-- Node4&#45;&gt;Node1 -->
<g id="edge3" class="edge">
<title>Node4&#45;&gt;Node1</title>
<path fill="none" stroke="midnightblue" d="M303.09,-76C318.74,-76 335.66,-76 351.84,-76"/>
<polygon fill="midnightblue" stroke="midnightblue" points="303.01,-72.5 293.01,-76 303.01,-79.5 303.01,-72.5"/>
</g>
<!-- Node5 -->
<g id="node5" class="node">
<title>Node5</title>
<g id="a_node5"><a xlink:title=" ">
<polygon fill="white" stroke="black" points="161,-0.5 161,-41.5 316,-41.5 316,-0.5 161,-0.5"/>
<text text-anchor="start" x="169" y="-29.5" font-family="Helvetica,sans-Serif" font-size="10.00">std::enable_shared</text>
<text text-anchor="start" x="169" y="-18.5" font-family="Helvetica,sans-Serif" font-size="10.00">_from_this&lt; client_endpoint</text>
<text text-anchor="middle" x="238.5" y="-7.5" font-family="Helvetica,sans-Serif" font-size="10.00">_impl&lt; Protocol &gt; &gt;</text>
</a>
</g>
</g>
<!-- Node5&#45;&gt;Node1 -->
<g id="edge5" class="edge">
<title>Node5&#45;&gt;Node1</title>
<path fill="none" stroke="midnightblue" d="M319.63,-44.38C338.87,-49.99 358.91,-55.84 376.46,-60.96"/>
<polygon fill="midnightblue" stroke="midnightblue" points="320.54,-41 309.96,-41.56 318.58,-47.72 320.54,-41"/>
</g>
</g>
</svg>
