<?xml version="1.0" encoding="UTF-8" standalone="no"?>
<!DOCTYPE svg PUBLIC "-//W3C//DTD SVG 1.1//EN"
 "http://www.w3.org/Graphics/SVG/1.1/DTD/svg11.dtd">
<!-- Generated by graphviz version 2.43.0 (0)
 -->
<!-- Title: boost::asio::detail::reactive_socket_recvmsg_op_base_ext&lt; MutableBufferSequence &gt; Pages: 1 -->
<svg width="230pt" height="173pt"
 viewBox="0.00 0.00 230.00 173.00" xmlns="http://www.w3.org/2000/svg" xmlns:xlink="http://www.w3.org/1999/xlink">
<g id="graph0" class="graph" transform="scale(1 1) rotate(0) translate(4 169)">
<title>boost::asio::detail::reactive_socket_recvmsg_op_base_ext&lt; MutableBufferSequence &gt;</title>
<polygon fill="white" stroke="transparent" points="-4,4 -4,-169 226,-169 226,4 -4,4"/>
<!-- Node1 -->
<g id="node1" class="node">
<title>Node1</title>
<g id="a_node1"><a xlink:title=" ">
<polygon fill="#bfbfbf" stroke="black" points="0,-0.5 0,-41.5 222,-41.5 222,-0.5 0,-0.5"/>
<text text-anchor="start" x="8" y="-29.5" font-family="Helvetica,sans-Serif" font-size="10.00">boost::asio::detail</text>
<text text-anchor="start" x="8" y="-18.5" font-family="Helvetica,sans-Serif" font-size="10.00">::reactive_socket_recvmsg</text>
<text text-anchor="middle" x="111" y="-7.5" font-family="Helvetica,sans-Serif" font-size="10.00">_op_base_ext&lt; MutableBufferSequence &gt;</text>
</a>
</g>
</g>
<!-- Node2 -->
<g id="node2" class="node">
<title>Node2</title>
<g id="a_node2"><a xlink:href="classboost_1_1asio_1_1detail_1_1reactor__op__ext.html" target="_top" xlink:title=" ">
<polygon fill="white" stroke="black" points="59,-78.5 59,-108.5 163,-108.5 163,-78.5 59,-78.5"/>
<text text-anchor="start" x="67" y="-96.5" font-family="Helvetica,sans-Serif" font-size="10.00">boost::asio::detail</text>
<text text-anchor="middle" x="111" y="-85.5" font-family="Helvetica,sans-Serif" font-size="10.00">::reactor_op_ext</text>
</a>
</g>
</g>
<!-- Node2&#45;&gt;Node1 -->
<g id="edge1" class="edge">
<title>Node2&#45;&gt;Node1</title>
<path fill="none" stroke="midnightblue" d="M85.34,-68.84C83.22,-59.99 83.61,-50.03 86.52,-41.59"/>
<polygon fill="midnightblue" stroke="midnightblue" points="82.06,-70.06 88.81,-78.23 88.63,-67.64 82.06,-70.06"/>
</g>
<!-- Node2&#45;&gt;Node1 -->
<g id="edge7" class="edge">
<title>Node2&#45;&gt;Node1</title>
<path fill="none" stroke="midnightblue" d="M98.1,-68.27C97.12,-59.56 97.34,-49.85 98.76,-41.59"/>
<polygon fill="midnightblue" stroke="midnightblue" points="94.68,-69.01 99.9,-78.23 101.57,-67.77 94.68,-69.01"/>
</g>
<!-- Node2&#45;&gt;Node1 -->
<g id="edge8" class="edge">
<title>Node2&#45;&gt;Node1</title>
<path fill="none" stroke="midnightblue" d="M111,-67.98C111,-59.35 111,-49.76 111,-41.59"/>
<polygon fill="midnightblue" stroke="midnightblue" points="107.5,-68.23 111,-78.23 114.5,-68.23 107.5,-68.23"/>
</g>
<!-- Node2&#45;&gt;Node1 -->
<g id="edge9" class="edge">
<title>Node2&#45;&gt;Node1</title>
<path fill="none" stroke="midnightblue" d="M123.9,-68.27C124.88,-59.56 124.66,-49.85 123.24,-41.59"/>
<polygon fill="midnightblue" stroke="midnightblue" points="120.43,-67.77 122.1,-78.23 127.32,-69.01 120.43,-67.77"/>
</g>
<!-- Node2&#45;&gt;Node1 -->
<g id="edge10" class="edge">
<title>Node2&#45;&gt;Node1</title>
<path fill="none" stroke="midnightblue" d="M136.66,-68.84C138.78,-59.99 138.39,-50.03 135.48,-41.59"/>
<polygon fill="midnightblue" stroke="midnightblue" points="133.37,-67.64 133.19,-78.23 139.94,-70.06 133.37,-67.64"/>
</g>
<!-- Node3 -->
<g id="node3" class="node">
<title>Node3</title>
<g id="a_node3"><a xlink:title=" ">
<polygon fill="white" stroke="black" points="77,-145.5 77,-164.5 145,-164.5 145,-145.5 77,-145.5"/>
<text text-anchor="middle" x="111" y="-152.5" font-family="Helvetica,sans-Serif" font-size="10.00">reactor_op</text>
</a>
</g>
</g>
<!-- Node3&#45;&gt;Node2 -->
<g id="edge2" class="edge">
<title>Node3&#45;&gt;Node2</title>
<path fill="none" stroke="midnightblue" d="M86.21,-136.68C82.84,-127.73 83.32,-116.94 87.68,-108.52"/>
<polygon fill="midnightblue" stroke="midnightblue" points="83.31,-138.64 91.4,-145.48 89.34,-135.08 83.31,-138.64"/>
</g>
<!-- Node3&#45;&gt;Node2 -->
<g id="edge3" class="edge">
<title>Node3&#45;&gt;Node2</title>
<path fill="none" stroke="midnightblue" d="M98.45,-135.82C96.94,-127.04 97.23,-116.68 99.34,-108.52"/>
<polygon fill="midnightblue" stroke="midnightblue" points="95.1,-136.81 101.2,-145.48 101.83,-134.9 95.1,-136.81"/>
</g>
<!-- Node3&#45;&gt;Node2 -->
<g id="edge4" class="edge">
<title>Node3&#45;&gt;Node2</title>
<path fill="none" stroke="midnightblue" d="M111,-135.23C111,-126.59 111,-116.5 111,-108.52"/>
<polygon fill="midnightblue" stroke="midnightblue" points="107.5,-135.48 111,-145.48 114.5,-135.48 107.5,-135.48"/>
</g>
<!-- Node3&#45;&gt;Node2 -->
<g id="edge5" class="edge">
<title>Node3&#45;&gt;Node2</title>
<path fill="none" stroke="midnightblue" d="M123.55,-135.82C125.06,-127.04 124.77,-116.68 122.66,-108.52"/>
<polygon fill="midnightblue" stroke="midnightblue" points="120.17,-134.9 120.8,-145.48 126.9,-136.81 120.17,-134.9"/>
</g>
<!-- Node3&#45;&gt;Node2 -->
<g id="edge6" class="edge">
<title>Node3&#45;&gt;Node2</title>
<path fill="none" stroke="midnightblue" d="M135.79,-136.68C139.16,-127.73 138.68,-116.94 134.32,-108.52"/>
<polygon fill="midnightblue" stroke="midnightblue" points="132.66,-135.08 130.6,-145.48 138.69,-138.64 132.66,-135.08"/>
</g>
</g>
</svg>
