<?xml version="1.0" encoding="UTF-8" standalone="no"?>
<!DOCTYPE svg PUBLIC "-//W3C//DTD SVG 1.1//EN"
 "http://www.w3.org/Graphics/SVG/1.1/DTD/svg11.dtd">
<!-- Generated by graphviz version 2.43.0 (0)
 -->
<!-- Title: vsomeip_v3::message_base Pages: 1 -->
<svg width="755pt" height="164pt"
 viewBox="0.00 0.00 755.00 164.00" xmlns="http://www.w3.org/2000/svg" xmlns:xlink="http://www.w3.org/1999/xlink">
<g id="graph0" class="graph" transform="scale(1 1) rotate(0) translate(4 160)">
<title>vsomeip_v3::message_base</title>
<polygon fill="white" stroke="transparent" points="-4,4 -4,-160 751,-160 751,4 -4,4"/>
<!-- Node1 -->
<g id="node1" class="node">
<title>Node1</title>
<g id="a_node1"><a xlink:title="Base class to implement SOME/IP messages.">
<polygon fill="#bfbfbf" stroke="black" points="186,-79.5 186,-98.5 341,-98.5 341,-79.5 186,-79.5"/>
<text text-anchor="middle" x="263.5" y="-86.5" font-family="Helvetica,sans-Serif" font-size="10.00">vsomeip_v3::message_base</text>
</a>
</g>
</g>
<!-- Node4 -->
<g id="node4" class="node">
<title>Node4</title>
<g id="a_node4"><a xlink:href="classvsomeip_1_1message.html" target="_top" xlink:title="Implements regular SOME/IP messages.">
<polygon fill="white" stroke="black" points="404.5,-136.5 404.5,-155.5 513.5,-155.5 513.5,-136.5 404.5,-136.5"/>
<text text-anchor="middle" x="459" y="-143.5" font-family="Helvetica,sans-Serif" font-size="10.00">vsomeip::message</text>
</a>
</g>
</g>
<!-- Node1&#45;&gt;Node4 -->
<g id="edge3" class="edge">
<title>Node1&#45;&gt;Node4</title>
<path fill="none" stroke="midnightblue" d="M300.23,-102.04C322.21,-109.82 351.04,-119.59 377,-127 388.81,-130.37 401.7,-133.6 413.66,-136.4"/>
<polygon fill="midnightblue" stroke="midnightblue" points="301.24,-98.69 290.65,-98.62 298.89,-105.28 301.24,-98.69"/>
</g>
<!-- Node5 -->
<g id="node5" class="node">
<title>Node5</title>
<g id="a_node5"><a xlink:href="classvsomeip_1_1message__base__impl.html" target="_top" xlink:title=" ">
<polygon fill="white" stroke="black" points="377,-98.5 377,-117.5 541,-117.5 541,-98.5 377,-98.5"/>
<text text-anchor="middle" x="459" y="-105.5" font-family="Helvetica,sans-Serif" font-size="10.00">vsomeip::message_base_impl</text>
</a>
</g>
</g>
<!-- Node1&#45;&gt;Node5 -->
<g id="edge4" class="edge">
<title>Node1&#45;&gt;Node5</title>
<path fill="none" stroke="midnightblue" d="M351.22,-97.51C359.76,-98.35 368.41,-99.2 376.89,-100.04"/>
<polygon fill="midnightblue" stroke="midnightblue" points="351.55,-94.03 341.25,-96.54 350.86,-101 351.55,-94.03"/>
</g>
<!-- Node6 -->
<g id="node6" class="node">
<title>Node6</title>
<g id="a_node6"><a xlink:href="classvsomeip__v3_1_1message.html" target="_top" xlink:title="Implements regular SOME/IP messages.">
<polygon fill="white" stroke="black" points="396,-60.5 396,-79.5 522,-79.5 522,-60.5 396,-60.5"/>
<text text-anchor="middle" x="459" y="-67.5" font-family="Helvetica,sans-Serif" font-size="10.00">vsomeip_v3::message</text>
</a>
</g>
</g>
<!-- Node1&#45;&gt;Node6 -->
<g id="edge5" class="edge">
<title>Node1&#45;&gt;Node6</title>
<path fill="none" stroke="midnightblue" d="M351.55,-80.45C366.52,-78.98 381.8,-77.48 395.94,-76.09"/>
<polygon fill="midnightblue" stroke="midnightblue" points="350.86,-77 341.25,-81.46 351.55,-83.97 350.86,-77"/>
</g>
<!-- Node10 -->
<g id="node10" class="node">
<title>Node10</title>
<g id="a_node10"><a xlink:href="classvsomeip__v3_1_1message__base__impl.html" target="_top" xlink:title=" ">
<polygon fill="white" stroke="black" points="396,-11 396,-41 522,-41 522,-11 396,-11"/>
<text text-anchor="start" x="404" y="-29" font-family="Helvetica,sans-Serif" font-size="10.00">vsomeip_v3::message</text>
<text text-anchor="middle" x="459" y="-18" font-family="Helvetica,sans-Serif" font-size="10.00">_base_impl</text>
</a>
</g>
</g>
<!-- Node1&#45;&gt;Node10 -->
<g id="edge9" class="edge">
<title>Node1&#45;&gt;Node10</title>
<path fill="none" stroke="midnightblue" d="M301.74,-76.15C323.61,-68.67 351.82,-59.14 377,-51 387.08,-47.74 397.9,-44.34 408.24,-41.13"/>
<polygon fill="midnightblue" stroke="midnightblue" points="300.5,-72.87 292.17,-79.43 302.77,-79.49 300.5,-72.87"/>
</g>
<!-- Node2 -->
<g id="node2" class="node">
<title>Node2</title>
<g id="a_node2"><a xlink:href="classvsomeip__v3_1_1serializable.html" target="_top" xlink:title=" ">
<polygon fill="white" stroke="black" points="6,-98.5 6,-117.5 144,-117.5 144,-98.5 6,-98.5"/>
<text text-anchor="middle" x="75" y="-105.5" font-family="Helvetica,sans-Serif" font-size="10.00">vsomeip_v3::serializable</text>
</a>
</g>
</g>
<!-- Node2&#45;&gt;Node1 -->
<g id="edge1" class="edge">
<title>Node2&#45;&gt;Node1</title>
<path fill="none" stroke="midnightblue" d="M154.39,-100.01C164.76,-98.96 175.39,-97.87 185.73,-96.82"/>
<polygon fill="midnightblue" stroke="midnightblue" points="153.72,-96.56 144.12,-101.06 154.43,-103.53 153.72,-96.56"/>
</g>
<!-- Node3 -->
<g id="node3" class="node">
<title>Node3</title>
<g id="a_node3"><a xlink:href="classvsomeip__v3_1_1deserializable.html" target="_top" xlink:title=" ">
<polygon fill="white" stroke="black" points="0,-60.5 0,-79.5 150,-79.5 150,-60.5 0,-60.5"/>
<text text-anchor="middle" x="75" y="-67.5" font-family="Helvetica,sans-Serif" font-size="10.00">vsomeip_v3::deserializable</text>
</a>
</g>
</g>
<!-- Node3&#45;&gt;Node1 -->
<g id="edge2" class="edge">
<title>Node3&#45;&gt;Node1</title>
<path fill="none" stroke="midnightblue" d="M160.46,-78.6C168.89,-79.46 177.42,-80.33 185.76,-81.18"/>
<polygon fill="midnightblue" stroke="midnightblue" points="160.55,-75.1 150.25,-77.56 159.84,-82.06 160.55,-75.1"/>
</g>
<!-- Node7 -->
<g id="node7" class="node">
<title>Node7</title>
<g id="a_node7"><a xlink:href="classvsomeip_1_1message__impl.html" target="_top" xlink:title=" ">
<polygon fill="white" stroke="black" points="594,-76.5 594,-95.5 730,-95.5 730,-76.5 594,-76.5"/>
<text text-anchor="middle" x="662" y="-83.5" font-family="Helvetica,sans-Serif" font-size="10.00">vsomeip::message_impl</text>
</a>
</g>
</g>
<!-- Node6&#45;&gt;Node7 -->
<g id="edge6" class="edge">
<title>Node6&#45;&gt;Node7</title>
<path fill="none" stroke="midnightblue" d="M532.24,-75.75C552.33,-77.35 574.06,-79.08 593.84,-80.65"/>
<polygon fill="midnightblue" stroke="midnightblue" points="532.47,-72.26 522.22,-74.95 531.91,-79.24 532.47,-72.26"/>
</g>
<!-- Node8 -->
<g id="node8" class="node">
<title>Node8</title>
<g id="a_node8"><a xlink:href="classvsomeip__v3_1_1message__impl.html" target="_top" xlink:title=" ">
<polygon fill="white" stroke="black" points="585.5,-38.5 585.5,-57.5 738.5,-57.5 738.5,-38.5 585.5,-38.5"/>
<text text-anchor="middle" x="662" y="-45.5" font-family="Helvetica,sans-Serif" font-size="10.00">vsomeip_v3::message_impl</text>
</a>
</g>
</g>
<!-- Node6&#45;&gt;Node8 -->
<g id="edge7" class="edge">
<title>Node6&#45;&gt;Node8</title>
<path fill="none" stroke="midnightblue" d="M532.21,-62.1C549.45,-60.21 567.89,-58.19 585.28,-56.29"/>
<polygon fill="midnightblue" stroke="midnightblue" points="531.78,-58.62 522.22,-63.19 532.54,-65.58 531.78,-58.62"/>
</g>
<!-- Node9 -->
<g id="node9" class="node">
<title>Node9</title>
<g id="a_node9"><a xlink:href="classvsomeip__v3_1_1sd_1_1message__impl.html" target="_top" xlink:title=" ">
<polygon fill="white" stroke="black" points="577,-0.5 577,-19.5 747,-19.5 747,-0.5 577,-0.5"/>
<text text-anchor="middle" x="662" y="-7.5" font-family="Helvetica,sans-Serif" font-size="10.00">vsomeip_v3::sd::message_impl</text>
</a>
</g>
</g>
<!-- Node6&#45;&gt;Node9 -->
<g id="edge8" class="edge">
<title>Node6&#45;&gt;Node9</title>
<path fill="none" stroke="midnightblue" d="M518.11,-57.8C525.92,-55.54 533.73,-52.95 541,-50 558.17,-43.04 559.77,-35.79 577,-29 586.6,-25.22 597.13,-22.1 607.38,-19.55"/>
<polygon fill="midnightblue" stroke="midnightblue" points="516.99,-54.48 508.26,-60.48 518.83,-61.23 516.99,-54.48"/>
</g>
<!-- Node10&#45;&gt;Node7 -->
<g id="edge10" class="edge">
<title>Node10&#45;&gt;Node7</title>
<path fill="none" stroke="midnightblue" d="M521.73,-44.21C528.27,-46.39 534.8,-48.67 541,-51 557.39,-57.15 560.38,-61.49 577,-67 587.93,-70.63 599.88,-73.79 611.25,-76.44"/>
<polygon fill="midnightblue" stroke="midnightblue" points="522.75,-40.87 512.16,-41.1 520.59,-47.52 522.75,-40.87"/>
</g>
<!-- Node10&#45;&gt;Node8 -->
<g id="edge11" class="edge">
<title>Node10&#45;&gt;Node8</title>
<path fill="none" stroke="midnightblue" d="M532.21,-33.9C549.45,-35.79 567.89,-37.81 585.28,-39.71"/>
<polygon fill="midnightblue" stroke="midnightblue" points="532.54,-30.42 522.22,-32.81 531.78,-37.38 532.54,-30.42"/>
</g>
<!-- Node10&#45;&gt;Node9 -->
<g id="edge12" class="edge">
<title>Node10&#45;&gt;Node9</title>
<path fill="none" stroke="midnightblue" d="M532.54,-20.23C546.94,-19.08 562.17,-17.87 576.91,-16.69"/>
<polygon fill="midnightblue" stroke="midnightblue" points="531.91,-16.76 522.22,-21.05 532.47,-23.74 531.91,-16.76"/>
</g>
</g>
</svg>
