<?xml version="1.0" encoding="UTF-8" standalone="no"?>
<!DOCTYPE svg PUBLIC "-//W3C//DTD SVG 1.1//EN"
 "http://www.w3.org/Graphics/SVG/1.1/DTD/svg11.dtd">
<!-- Generated by graphviz version 2.43.0 (0)
 -->
<!-- Title: vsomeip_v3::e2e::profile_interface::protector Pages: 1 -->
<svg width="517pt" height="137pt"
 viewBox="0.00 0.00 517.00 137.00" xmlns="http://www.w3.org/2000/svg" xmlns:xlink="http://www.w3.org/1999/xlink">
<g id="graph0" class="graph" transform="scale(1 1) rotate(0) translate(4 133)">
<title>vsomeip_v3::e2e::profile_interface::protector</title>
<polygon fill="white" stroke="transparent" points="-4,4 -4,-133 513,-133 513,4 -4,4"/>
<!-- Node1 -->
<g id="node1" class="node">
<title>Node1</title>
<g id="a_node1"><a xlink:title=" ">
<polygon fill="#bfbfbf" stroke="black" points="187,-49.5 187,-79.5 324,-79.5 324,-49.5 187,-49.5"/>
<text text-anchor="start" x="195" y="-67.5" font-family="Helvetica,sans-Serif" font-size="10.00">vsomeip_v3::e2e::profile</text>
<text text-anchor="middle" x="255.5" y="-56.5" font-family="Helvetica,sans-Serif" font-size="10.00">_interface::protector</text>
</a>
</g>
</g>
<!-- Node3 -->
<g id="node3" class="node">
<title>Node3</title>
<g id="a_node3"><a xlink:href="classvsomeip__v3_1_1e2e_1_1profile01_1_1protector.html" target="_top" xlink:title=" ">
<polygon fill="white" stroke="black" points="360,-98.5 360,-128.5 509,-128.5 509,-98.5 360,-98.5"/>
<text text-anchor="start" x="368" y="-116.5" font-family="Helvetica,sans-Serif" font-size="10.00">vsomeip_v3::e2e::profile01</text>
<text text-anchor="middle" x="434.5" y="-105.5" font-family="Helvetica,sans-Serif" font-size="10.00">::protector</text>
</a>
</g>
</g>
<!-- Node1&#45;&gt;Node3 -->
<g id="edge2" class="edge">
<title>Node1&#45;&gt;Node3</title>
<path fill="none" stroke="midnightblue" d="M320.87,-82.32C339.99,-87.61 360.72,-93.35 379.13,-98.45"/>
<polygon fill="midnightblue" stroke="midnightblue" points="321.62,-78.9 311.05,-79.6 319.75,-85.64 321.62,-78.9"/>
</g>
<!-- Node4 -->
<g id="node4" class="node">
<title>Node4</title>
<g id="a_node4"><a xlink:href="classvsomeip__v3_1_1e2e_1_1profile04_1_1protector.html" target="_top" xlink:title=" ">
<polygon fill="white" stroke="black" points="360,-49.5 360,-79.5 509,-79.5 509,-49.5 360,-49.5"/>
<text text-anchor="start" x="368" y="-67.5" font-family="Helvetica,sans-Serif" font-size="10.00">vsomeip_v3::e2e::profile04</text>
<text text-anchor="middle" x="434.5" y="-56.5" font-family="Helvetica,sans-Serif" font-size="10.00">::protector</text>
</a>
</g>
</g>
<!-- Node1&#45;&gt;Node4 -->
<g id="edge3" class="edge">
<title>Node1&#45;&gt;Node4</title>
<path fill="none" stroke="midnightblue" d="M334.44,-64.5C342.92,-64.5 351.54,-64.5 359.97,-64.5"/>
<polygon fill="midnightblue" stroke="midnightblue" points="334.17,-61 324.17,-64.5 334.17,-68 334.17,-61"/>
</g>
<!-- Node5 -->
<g id="node5" class="node">
<title>Node5</title>
<g id="a_node5"><a xlink:href="classvsomeip__v3_1_1e2e_1_1profile__custom_1_1protector.html" target="_top" xlink:title=" ">
<polygon fill="white" stroke="black" points="366,-0.5 366,-30.5 503,-30.5 503,-0.5 366,-0.5"/>
<text text-anchor="start" x="374" y="-18.5" font-family="Helvetica,sans-Serif" font-size="10.00">vsomeip_v3::e2e::profile</text>
<text text-anchor="middle" x="434.5" y="-7.5" font-family="Helvetica,sans-Serif" font-size="10.00">_custom::protector</text>
</a>
</g>
</g>
<!-- Node1&#45;&gt;Node5 -->
<g id="edge4" class="edge">
<title>Node1&#45;&gt;Node5</title>
<path fill="none" stroke="midnightblue" d="M320.87,-46.68C339.99,-41.39 360.72,-35.65 379.13,-30.55"/>
<polygon fill="midnightblue" stroke="midnightblue" points="319.75,-43.36 311.05,-49.4 321.62,-50.1 319.75,-43.36"/>
</g>
<!-- Node2 -->
<g id="node2" class="node">
<title>Node2</title>
<g id="a_node2"><a xlink:href="classvsomeip__v3_1_1e2e_1_1profile__interface_1_1profile__interface.html" target="_top" xlink:title=" ">
<polygon fill="white" stroke="black" points="0,-49.5 0,-79.5 151,-79.5 151,-49.5 0,-49.5"/>
<text text-anchor="start" x="8" y="-67.5" font-family="Helvetica,sans-Serif" font-size="10.00">vsomeip_v3::e2e::profile</text>
<text text-anchor="middle" x="75.5" y="-56.5" font-family="Helvetica,sans-Serif" font-size="10.00">_interface::profile_interface</text>
</a>
</g>
</g>
<!-- Node2&#45;&gt;Node1 -->
<g id="edge1" class="edge">
<title>Node2&#45;&gt;Node1</title>
<path fill="none" stroke="midnightblue" d="M161.23,-64.5C169.8,-64.5 178.42,-64.5 186.78,-64.5"/>
<polygon fill="midnightblue" stroke="midnightblue" points="161.21,-61 151.21,-64.5 161.21,-68 161.21,-61"/>
</g>
</g>
</svg>
