<?xml version="1.0" encoding="UTF-8" standalone="no"?>
<!DOCTYPE svg PUBLIC "-//W3C//DTD SVG 1.1//EN"
 "http://www.w3.org/Graphics/SVG/1.1/DTD/svg11.dtd">
<!-- Generated by graphviz version 2.43.0 (0)
 -->
<!-- Title: vsomeip_v3::sd::message_element_impl Pages: 1 -->
<svg width="743pt" height="312pt"
 viewBox="0.00 0.00 743.00 311.50" xmlns="http://www.w3.org/2000/svg" xmlns:xlink="http://www.w3.org/1999/xlink">
<g id="graph0" class="graph" transform="scale(1 1) rotate(0) translate(4 307.5)">
<title>vsomeip_v3::sd::message_element_impl</title>
<polygon fill="white" stroke="transparent" points="-4,4 -4,-307.5 739,-307.5 739,4 -4,4"/>
<!-- Node1 -->
<g id="node1" class="node">
<title>Node1</title>
<g id="a_node1"><a xlink:title=" ">
<polygon fill="#bfbfbf" stroke="black" points="0,-169.5 0,-199.5 143,-199.5 143,-169.5 0,-169.5"/>
<text text-anchor="start" x="8" y="-187.5" font-family="Helvetica,sans-Serif" font-size="10.00">vsomeip_v3::sd::message</text>
<text text-anchor="middle" x="71.5" y="-176.5" font-family="Helvetica,sans-Serif" font-size="10.00">_element_impl</text>
</a>
</g>
</g>
<!-- Node2 -->
<g id="node2" class="node">
<title>Node2</title>
<g id="a_node2"><a xlink:href="classvsomeip__v3_1_1sd_1_1entry__impl.html" target="_top" xlink:title=" ">
<polygon fill="white" stroke="black" points="181.5,-246 181.5,-265 333.5,-265 333.5,-246 181.5,-246"/>
<text text-anchor="middle" x="257.5" y="-253" font-family="Helvetica,sans-Serif" font-size="10.00">vsomeip_v3::sd::entry_impl</text>
</a>
</g>
</g>
<!-- Node1&#45;&gt;Node2 -->
<g id="edge1" class="edge">
<title>Node1&#45;&gt;Node2</title>
<path fill="none" stroke="midnightblue" d="M121.22,-203.3C156.75,-217.01 203.43,-235.02 231.64,-245.91"/>
<polygon fill="midnightblue" stroke="midnightblue" points="122.11,-199.89 111.52,-199.56 119.59,-206.42 122.11,-199.89"/>
</g>
<!-- Node5 -->
<g id="node5" class="node">
<title>Node5</title>
<g id="a_node5"><a xlink:href="classvsomeip__v3_1_1sd_1_1option__impl.html" target="_top" xlink:title=" ">
<polygon fill="white" stroke="black" points="179,-129 179,-148 336,-148 336,-129 179,-129"/>
<text text-anchor="middle" x="257.5" y="-136" font-family="Helvetica,sans-Serif" font-size="10.00">vsomeip_v3::sd::option_impl</text>
</a>
</g>
</g>
<!-- Node1&#45;&gt;Node5 -->
<g id="edge4" class="edge">
<title>Node1&#45;&gt;Node5</title>
<path fill="none" stroke="midnightblue" d="M142.49,-167C168.25,-160.56 196.47,-153.51 218.39,-148.03"/>
<polygon fill="midnightblue" stroke="midnightblue" points="141.6,-163.62 132.75,-169.44 143.3,-170.41 141.6,-163.62"/>
</g>
<!-- Node3 -->
<g id="node3" class="node">
<title>Node3</title>
<g id="a_node3"><a xlink:href="classvsomeip__v3_1_1sd_1_1eventgroupentry__impl.html" target="_top" xlink:title=" ">
<polygon fill="white" stroke="black" points="372,-284 372,-303 579,-303 579,-284 372,-284"/>
<text text-anchor="middle" x="475.5" y="-291" font-family="Helvetica,sans-Serif" font-size="10.00">vsomeip_v3::sd::eventgroupentry_impl</text>
</a>
</g>
</g>
<!-- Node2&#45;&gt;Node3 -->
<g id="edge2" class="edge">
<title>Node2&#45;&gt;Node3</title>
<path fill="none" stroke="midnightblue" d="M322.59,-266.78C353.67,-272.24 390.59,-278.74 420.25,-283.96"/>
<polygon fill="midnightblue" stroke="midnightblue" points="323.18,-263.33 312.73,-265.04 321.97,-270.22 323.18,-263.33"/>
</g>
<!-- Node4 -->
<g id="node4" class="node">
<title>Node4</title>
<g id="a_node4"><a xlink:href="classvsomeip__v3_1_1sd_1_1serviceentry__impl.html" target="_top" xlink:title=" ">
<polygon fill="white" stroke="black" points="382,-246 382,-265 569,-265 569,-246 382,-246"/>
<text text-anchor="middle" x="475.5" y="-253" font-family="Helvetica,sans-Serif" font-size="10.00">vsomeip_v3::sd::serviceentry_impl</text>
</a>
</g>
</g>
<!-- Node2&#45;&gt;Node4 -->
<g id="edge3" class="edge">
<title>Node2&#45;&gt;Node4</title>
<path fill="none" stroke="midnightblue" d="M344.02,-255.5C356.38,-255.5 369.16,-255.5 381.66,-255.5"/>
<polygon fill="midnightblue" stroke="midnightblue" points="343.74,-252 333.74,-255.5 343.74,-259 343.74,-252"/>
</g>
<!-- Node6 -->
<g id="node6" class="node">
<title>Node6</title>
<g id="a_node6"><a xlink:href="classvsomeip__v3_1_1sd_1_1configuration__option__impl.html" target="_top" xlink:title=" ">
<polygon fill="white" stroke="black" points="394,-196.5 394,-226.5 557,-226.5 557,-196.5 394,-196.5"/>
<text text-anchor="start" x="402" y="-214.5" font-family="Helvetica,sans-Serif" font-size="10.00">vsomeip_v3::sd::configuration</text>
<text text-anchor="middle" x="475.5" y="-203.5" font-family="Helvetica,sans-Serif" font-size="10.00">_option_impl</text>
</a>
</g>
</g>
<!-- Node5&#45;&gt;Node6 -->
<g id="edge5" class="edge">
<title>Node5&#45;&gt;Node6</title>
<path fill="none" stroke="midnightblue" d="M288,-152.52C310.62,-162.89 342.81,-176.84 372,-186.5 382.95,-190.13 394.73,-193.48 406.25,-196.48"/>
<polygon fill="midnightblue" stroke="midnightblue" points="289.17,-149.21 278.63,-148.18 286.23,-155.56 289.17,-149.21"/>
</g>
<!-- Node7 -->
<g id="node7" class="node">
<title>Node7</title>
<g id="a_node7"><a xlink:href="classvsomeip__v3_1_1sd_1_1ip__option__impl.html" target="_top" xlink:title=" ">
<polygon fill="white" stroke="black" points="421.5,-147.5 421.5,-177.5 529.5,-177.5 529.5,-147.5 421.5,-147.5"/>
<text text-anchor="start" x="429.5" y="-165.5" font-family="Helvetica,sans-Serif" font-size="10.00">vsomeip_v3::sd::ip</text>
<text text-anchor="middle" x="475.5" y="-154.5" font-family="Helvetica,sans-Serif" font-size="10.00">_option_impl</text>
</a>
</g>
</g>
<!-- Node5&#45;&gt;Node7 -->
<g id="edge6" class="edge">
<title>Node5&#45;&gt;Node7</title>
<path fill="none" stroke="midnightblue" d="M346.24,-148.25C371.74,-151.08 398.81,-154.09 421.48,-156.61"/>
<polygon fill="midnightblue" stroke="midnightblue" points="346.5,-144.76 336.18,-147.13 345.73,-151.71 346.5,-144.76"/>
</g>
<!-- Node10 -->
<g id="node10" class="node">
<title>Node10</title>
<g id="a_node10"><a xlink:href="classvsomeip__v3_1_1sd_1_1load__balancing__option__impl.html" target="_top" xlink:title=" ">
<polygon fill="white" stroke="black" points="409.5,-98.5 409.5,-128.5 541.5,-128.5 541.5,-98.5 409.5,-98.5"/>
<text text-anchor="start" x="417.5" y="-116.5" font-family="Helvetica,sans-Serif" font-size="10.00">vsomeip_v3::sd::load</text>
<text text-anchor="middle" x="475.5" y="-105.5" font-family="Helvetica,sans-Serif" font-size="10.00">_balancing_option_impl</text>
</a>
</g>
</g>
<!-- Node5&#45;&gt;Node10 -->
<g id="edge9" class="edge">
<title>Node5&#45;&gt;Node10</title>
<path fill="none" stroke="midnightblue" d="M346.39,-128.33C367.41,-125.9 389.47,-123.34 409.26,-121.05"/>
<polygon fill="midnightblue" stroke="midnightblue" points="345.71,-124.88 336.18,-129.51 346.51,-131.84 345.71,-124.88"/>
</g>
<!-- Node11 -->
<g id="node11" class="node">
<title>Node11</title>
<g id="a_node11"><a xlink:href="classvsomeip__v3_1_1sd_1_1protection__option__impl.html" target="_top" xlink:title=" ">
<polygon fill="white" stroke="black" points="401,-49.5 401,-79.5 550,-79.5 550,-49.5 401,-49.5"/>
<text text-anchor="start" x="409" y="-67.5" font-family="Helvetica,sans-Serif" font-size="10.00">vsomeip_v3::sd::protection</text>
<text text-anchor="middle" x="475.5" y="-56.5" font-family="Helvetica,sans-Serif" font-size="10.00">_option_impl</text>
</a>
</g>
</g>
<!-- Node5&#45;&gt;Node11 -->
<g id="edge10" class="edge">
<title>Node5&#45;&gt;Node11</title>
<path fill="none" stroke="midnightblue" d="M286.38,-124.48C309.01,-113.53 341.98,-98.53 372,-88.5 381.79,-85.23 392.26,-82.23 402.62,-79.55"/>
<polygon fill="midnightblue" stroke="midnightblue" points="284.79,-121.36 277.35,-128.9 287.87,-127.65 284.79,-121.36"/>
</g>
<!-- Node12 -->
<g id="node12" class="node">
<title>Node12</title>
<g id="a_node12"><a xlink:href="classvsomeip__v3_1_1sd_1_1selective__option__impl.html" target="_top" xlink:title=" ">
<polygon fill="white" stroke="black" points="404,-0.5 404,-30.5 547,-30.5 547,-0.5 404,-0.5"/>
<text text-anchor="start" x="412" y="-18.5" font-family="Helvetica,sans-Serif" font-size="10.00">vsomeip_v3::sd::selective</text>
<text text-anchor="middle" x="475.5" y="-7.5" font-family="Helvetica,sans-Serif" font-size="10.00">_option_impl</text>
</a>
</g>
</g>
<!-- Node5&#45;&gt;Node12 -->
<g id="edge11" class="edge">
<title>Node5&#45;&gt;Node12</title>
<path fill="none" stroke="midnightblue" d="M273.28,-121.19C293.33,-98.83 331.35,-60.33 372,-39.5 381.92,-34.41 392.93,-30.39 403.96,-27.21"/>
<polygon fill="midnightblue" stroke="midnightblue" points="270.48,-119.07 266.5,-128.89 275.73,-123.69 270.48,-119.07"/>
</g>
<!-- Node8 -->
<g id="node8" class="node">
<title>Node8</title>
<g id="a_node8"><a xlink:href="classvsomeip__v3_1_1sd_1_1ipv4__option__impl.html" target="_top" xlink:title=" ">
<polygon fill="white" stroke="black" points="615,-171.5 615,-201.5 735,-201.5 735,-171.5 615,-171.5"/>
<text text-anchor="start" x="623" y="-189.5" font-family="Helvetica,sans-Serif" font-size="10.00">vsomeip_v3::sd::ipv4</text>
<text text-anchor="middle" x="675" y="-178.5" font-family="Helvetica,sans-Serif" font-size="10.00">_option_impl</text>
</a>
</g>
</g>
<!-- Node7&#45;&gt;Node8 -->
<g id="edge7" class="edge">
<title>Node7&#45;&gt;Node8</title>
<path fill="none" stroke="midnightblue" d="M539.78,-170.19C563.84,-173.11 591.14,-176.43 614.8,-179.31"/>
<polygon fill="midnightblue" stroke="midnightblue" points="540.04,-166.7 529.69,-168.96 539.19,-173.64 540.04,-166.7"/>
</g>
<!-- Node9 -->
<g id="node9" class="node">
<title>Node9</title>
<g id="a_node9"><a xlink:href="classvsomeip__v3_1_1sd_1_1ipv6__option__impl.html" target="_top" xlink:title=" ">
<polygon fill="white" stroke="black" points="615,-122.5 615,-152.5 735,-152.5 735,-122.5 615,-122.5"/>
<text text-anchor="start" x="623" y="-140.5" font-family="Helvetica,sans-Serif" font-size="10.00">vsomeip_v3::sd::ipv6</text>
<text text-anchor="middle" x="675" y="-129.5" font-family="Helvetica,sans-Serif" font-size="10.00">_option_impl</text>
</a>
</g>
</g>
<!-- Node7&#45;&gt;Node9 -->
<g id="edge8" class="edge">
<title>Node7&#45;&gt;Node9</title>
<path fill="none" stroke="midnightblue" d="M539.78,-154.49C563.84,-151.44 591.14,-147.99 614.8,-144.99"/>
<polygon fill="midnightblue" stroke="midnightblue" points="539.17,-151.04 529.69,-155.77 540.05,-157.98 539.17,-151.04"/>
</g>
</g>
</svg>
