<?xml version="1.0" encoding="UTF-8" standalone="no"?>
<!DOCTYPE svg PUBLIC "-//W3C//DTD SVG 1.1//EN"
 "http://www.w3.org/Graphics/SVG/1.1/DTD/svg11.dtd">
<!-- Generated by graphviz version 2.43.0 (0)
 -->
<!-- Title: vsomeip_v3::routing_manager_base Pages: 1 -->
<svg width="333pt" height="187pt"
 viewBox="0.00 0.00 333.00 187.00" xmlns="http://www.w3.org/2000/svg" xmlns:xlink="http://www.w3.org/1999/xlink">
<g id="graph0" class="graph" transform="scale(1 1) rotate(0) translate(4 183)">
<title>vsomeip_v3::routing_manager_base</title>
<polygon fill="white" stroke="transparent" points="-4,4 -4,-183 329,-183 329,4 -4,4"/>
<!-- Node1 -->
<g id="node1" class="node">
<title>Node1</title>
<g id="a_node1"><a xlink:title=" ">
<polygon fill="#bfbfbf" stroke="black" points="209,-79.5 209,-109.5 325,-109.5 325,-79.5 209,-79.5"/>
<text text-anchor="start" x="217" y="-97.5" font-family="Helvetica,sans-Serif" font-size="10.00">vsomeip_v3::routing</text>
<text text-anchor="middle" x="267" y="-86.5" font-family="Helvetica,sans-Serif" font-size="10.00">_manager_base</text>
</a>
</g>
</g>
<!-- Node2 -->
<g id="node2" class="node">
<title>Node2</title>
<g id="a_node2"><a xlink:href="classvsomeip__v3_1_1routing__manager.html" target="_top" xlink:title=" ">
<polygon fill="white" stroke="black" points="13.5,-148.5 13.5,-178.5 129.5,-178.5 129.5,-148.5 13.5,-148.5"/>
<text text-anchor="start" x="21.5" y="-166.5" font-family="Helvetica,sans-Serif" font-size="10.00">vsomeip_v3::routing</text>
<text text-anchor="middle" x="71.5" y="-155.5" font-family="Helvetica,sans-Serif" font-size="10.00">_manager</text>
</a>
</g>
</g>
<!-- Node2&#45;&gt;Node1 -->
<g id="edge1" class="edge">
<title>Node2&#45;&gt;Node1</title>
<path fill="none" stroke="midnightblue" d="M124.65,-145.03C130.84,-142.83 137.06,-140.62 143,-138.5 169.92,-128.91 200.14,-118.1 223.88,-109.6"/>
<polygon fill="midnightblue" stroke="midnightblue" points="123.26,-141.8 115.01,-148.45 125.6,-148.4 123.26,-141.8"/>
</g>
<!-- Node3 -->
<g id="node3" class="node">
<title>Node3</title>
<g id="a_node3"><a xlink:href="classvsomeip__v3_1_1routing__host.html" target="_top" xlink:title=" ">
<polygon fill="white" stroke="black" points="0,-110 0,-129 143,-129 143,-110 0,-110"/>
<text text-anchor="middle" x="71.5" y="-117" font-family="Helvetica,sans-Serif" font-size="10.00">vsomeip_v3::routing_host</text>
</a>
</g>
</g>
<!-- Node3&#45;&gt;Node1 -->
<g id="edge2" class="edge">
<title>Node3&#45;&gt;Node1</title>
<path fill="none" stroke="midnightblue" d="M153.16,-109.08C171.85,-106.66 191.37,-104.14 208.81,-101.89"/>
<polygon fill="midnightblue" stroke="midnightblue" points="152.65,-105.62 143.18,-110.37 153.55,-112.56 152.65,-105.62"/>
</g>
<!-- Node4 -->
<g id="node4" class="node">
<title>Node4</title>
<g id="a_node4"><a xlink:title=" ">
<polygon fill="white" stroke="black" points="14.5,-50 14.5,-91 128.5,-91 128.5,-50 14.5,-50"/>
<text text-anchor="start" x="22.5" y="-79" font-family="Helvetica,sans-Serif" font-size="10.00">std::enable_shared</text>
<text text-anchor="start" x="22.5" y="-68" font-family="Helvetica,sans-Serif" font-size="10.00">_from_this&lt; routing</text>
<text text-anchor="middle" x="71.5" y="-57" font-family="Helvetica,sans-Serif" font-size="10.00">_manager_base &gt;</text>
</a>
</g>
</g>
<!-- Node4&#45;&gt;Node1 -->
<g id="edge3" class="edge">
<title>Node4&#45;&gt;Node1</title>
<path fill="none" stroke="midnightblue" d="M138.68,-78.71C161.53,-81.54 186.91,-84.69 208.96,-87.43"/>
<polygon fill="midnightblue" stroke="midnightblue" points="139.08,-75.23 128.73,-77.47 138.22,-82.18 139.08,-75.23"/>
</g>
<!-- Node5 -->
<g id="node5" class="node">
<title>Node5</title>
<g id="a_node5"><a xlink:href="classvsomeip__v3_1_1routing__manager__host.html" target="_top" xlink:title=" ">
<polygon fill="white" stroke="black" points="13.5,-0.5 13.5,-30.5 129.5,-30.5 129.5,-0.5 13.5,-0.5"/>
<text text-anchor="start" x="21.5" y="-18.5" font-family="Helvetica,sans-Serif" font-size="10.00">vsomeip_v3::routing</text>
<text text-anchor="middle" x="71.5" y="-7.5" font-family="Helvetica,sans-Serif" font-size="10.00">_manager_host</text>
</a>
</g>
</g>
<!-- Node5&#45;&gt;Node1 -->
<g id="edge4" class="edge">
<title>Node5&#45;&gt;Node1</title>
<path fill="none" stroke="#9a32cd" stroke-dasharray="5,2" d="M126.22,-34.09C131.91,-36.19 137.59,-38.35 143,-40.5 174,-52.78 208.75,-68.19 233.38,-79.4"/>
<polygon fill="#9a32cd" stroke="#9a32cd" points="127.28,-30.75 116.69,-30.61 124.88,-37.33 127.28,-30.75"/>
<text text-anchor="middle" x="176" y="-62.5" font-family="Helvetica,sans-Serif" font-size="10.00"> host_</text>
</g>
</g>
</svg>
