<?xml version="1.0" encoding="UTF-8" standalone="no"?>
<!DOCTYPE svg PUBLIC "-//W3C//DTD SVG 1.1//EN"
 "http://www.w3.org/Graphics/SVG/1.1/DTD/svg11.dtd">
<!-- Generated by graphviz version 2.43.0 (0)
 -->
<!-- Title: vsomeip_v3::serializable Pages: 1 -->
<svg width="743pt" height="252pt"
 viewBox="0.00 0.00 743.00 252.00" xmlns="http://www.w3.org/2000/svg" xmlns:xlink="http://www.w3.org/1999/xlink">
<g id="graph0" class="graph" transform="scale(1 1) rotate(0) translate(4 248)">
<title>vsomeip_v3::serializable</title>
<polygon fill="white" stroke="transparent" points="-4,4 -4,-248 739,-248 739,4 -4,4"/>
<!-- Node1 -->
<g id="node1" class="node">
<title>Node1</title>
<g id="a_node1"><a xlink:title=" ">
<polygon fill="#bfbfbf" stroke="black" points="0,-123.5 0,-142.5 138,-142.5 138,-123.5 0,-123.5"/>
<text text-anchor="middle" x="69" y="-130.5" font-family="Helvetica,sans-Serif" font-size="10.00">vsomeip_v3::serializable</text>
</a>
</g>
</g>
<!-- Node2 -->
<g id="node2" class="node">
<title>Node2</title>
<g id="a_node2"><a xlink:href="classvsomeip_1_1message__base.html" target="_top" xlink:title="Base class to implement SOME/IP messages.">
<polygon fill="white" stroke="black" points="183,-199.5 183,-218.5 320,-218.5 320,-199.5 183,-199.5"/>
<text text-anchor="middle" x="251.5" y="-206.5" font-family="Helvetica,sans-Serif" font-size="10.00">vsomeip::message_base</text>
</a>
</g>
</g>
<!-- Node1&#45;&gt;Node2 -->
<g id="edge1" class="edge">
<title>Node1&#45;&gt;Node2</title>
<path fill="none" stroke="midnightblue" d="M93.21,-148C113.75,-160.71 144.9,-178.63 174,-190 183.43,-193.68 193.8,-196.83 203.78,-199.43"/>
<polygon fill="midnightblue" stroke="midnightblue" points="94.9,-144.93 84.57,-142.57 91.17,-150.85 94.9,-144.93"/>
</g>
<!-- Node3 -->
<g id="node3" class="node">
<title>Node3</title>
<g id="a_node3"><a xlink:href="classvsomeip_1_1payload.html" target="_top" xlink:title="This class implements an array of bytes to be used as payload for SOME/IP messages.">
<polygon fill="white" stroke="black" points="199.5,-161.5 199.5,-180.5 303.5,-180.5 303.5,-161.5 199.5,-161.5"/>
<text text-anchor="middle" x="251.5" y="-168.5" font-family="Helvetica,sans-Serif" font-size="10.00">vsomeip::payload</text>
</a>
</g>
</g>
<!-- Node1&#45;&gt;Node3 -->
<g id="edge2" class="edge">
<title>Node1&#45;&gt;Node3</title>
<path fill="none" stroke="midnightblue" d="M125.48,-144.68C151.08,-150.07 181.08,-156.39 205.28,-161.48"/>
<polygon fill="midnightblue" stroke="midnightblue" points="126.05,-141.22 115.55,-142.59 124.61,-148.07 126.05,-141.22"/>
</g>
<!-- Node4 -->
<g id="node4" class="node">
<title>Node4</title>
<g id="a_node4"><a xlink:href="classvsomeip__v3_1_1message__base.html" target="_top" xlink:title="Base class to implement SOME/IP messages.">
<polygon fill="white" stroke="black" points="174,-123.5 174,-142.5 329,-142.5 329,-123.5 174,-123.5"/>
<text text-anchor="middle" x="251.5" y="-130.5" font-family="Helvetica,sans-Serif" font-size="10.00">vsomeip_v3::message_base</text>
</a>
</g>
</g>
<!-- Node1&#45;&gt;Node4 -->
<g id="edge3" class="edge">
<title>Node1&#45;&gt;Node4</title>
<path fill="none" stroke="midnightblue" d="M148.39,-133C156.79,-133 165.32,-133 173.7,-133"/>
<polygon fill="midnightblue" stroke="midnightblue" points="148.24,-129.5 138.24,-133 148.24,-136.5 148.24,-129.5"/>
</g>
<!-- Node12 -->
<g id="node12" class="node">
<title>Node12</title>
<g id="a_node12"><a xlink:href="classvsomeip__v3_1_1message__header__impl.html" target="_top" xlink:title=" ">
<polygon fill="white" stroke="black" points="188.5,-74 188.5,-104 314.5,-104 314.5,-74 188.5,-74"/>
<text text-anchor="start" x="196.5" y="-92" font-family="Helvetica,sans-Serif" font-size="10.00">vsomeip_v3::message</text>
<text text-anchor="middle" x="251.5" y="-81" font-family="Helvetica,sans-Serif" font-size="10.00">_header_impl</text>
</a>
</g>
</g>
<!-- Node1&#45;&gt;Node12 -->
<g id="edge14" class="edge">
<title>Node1&#45;&gt;Node12</title>
<path fill="none" stroke="midnightblue" d="M119.04,-121.04C140.51,-115.81 165.95,-109.61 188.7,-104.07"/>
<polygon fill="midnightblue" stroke="midnightblue" points="118.05,-117.68 109.17,-123.45 119.71,-124.48 118.05,-117.68"/>
</g>
<!-- Node13 -->
<g id="node13" class="node">
<title>Node13</title>
<g id="a_node13"><a xlink:href="classvsomeip__v3_1_1payload.html" target="_top" xlink:title="This class implements an array of bytes to be used as payload for SOME/IP messages.">
<polygon fill="white" stroke="black" points="191,-35.5 191,-54.5 312,-54.5 312,-35.5 191,-35.5"/>
<text text-anchor="middle" x="251.5" y="-42.5" font-family="Helvetica,sans-Serif" font-size="10.00">vsomeip_v3::payload</text>
</a>
</g>
</g>
<!-- Node1&#45;&gt;Node13 -->
<g id="edge15" class="edge">
<title>Node1&#45;&gt;Node13</title>
<path fill="none" stroke="midnightblue" d="M89.74,-116.89C109.82,-101.25 142.39,-77.91 174,-64 182.64,-60.2 192.18,-57.06 201.51,-54.51"/>
<polygon fill="midnightblue" stroke="midnightblue" points="87.36,-114.31 81.69,-123.26 91.7,-119.8 87.36,-114.31"/>
</g>
<!-- Node5 -->
<g id="node5" class="node">
<title>Node5</title>
<g id="a_node5"><a xlink:href="classvsomeip_1_1message.html" target="_top" xlink:title="Implements regular SOME/IP messages.">
<polygon fill="white" stroke="black" points="392.5,-120.5 392.5,-139.5 501.5,-139.5 501.5,-120.5 392.5,-120.5"/>
<text text-anchor="middle" x="447" y="-127.5" font-family="Helvetica,sans-Serif" font-size="10.00">vsomeip::message</text>
</a>
</g>
</g>
<!-- Node4&#45;&gt;Node5 -->
<g id="edge4" class="edge">
<title>Node4&#45;&gt;Node5</title>
<path fill="none" stroke="midnightblue" d="M339.48,-131.65C357.47,-131.37 375.91,-131.09 392.29,-130.83"/>
<polygon fill="midnightblue" stroke="midnightblue" points="339.2,-128.16 329.25,-131.81 339.31,-135.15 339.2,-128.16"/>
</g>
<!-- Node6 -->
<g id="node6" class="node">
<title>Node6</title>
<g id="a_node6"><a xlink:href="classvsomeip_1_1message__base__impl.html" target="_top" xlink:title=" ">
<polygon fill="white" stroke="black" points="365,-82.5 365,-101.5 529,-101.5 529,-82.5 365,-82.5"/>
<text text-anchor="middle" x="447" y="-89.5" font-family="Helvetica,sans-Serif" font-size="10.00">vsomeip::message_base_impl</text>
</a>
</g>
</g>
<!-- Node4&#45;&gt;Node6 -->
<g id="edge5" class="edge">
<title>Node4&#45;&gt;Node6</title>
<path fill="none" stroke="midnightblue" d="M307.16,-121.42C336.82,-115.13 373.03,-107.46 401.03,-101.53"/>
<polygon fill="midnightblue" stroke="midnightblue" points="306.44,-117.99 297.38,-123.49 307.89,-124.84 306.44,-117.99"/>
</g>
<!-- Node7 -->
<g id="node7" class="node">
<title>Node7</title>
<g id="a_node7"><a xlink:href="classvsomeip__v3_1_1message.html" target="_top" xlink:title="Implements regular SOME/IP messages.">
<polygon fill="white" stroke="black" points="384,-208.5 384,-227.5 510,-227.5 510,-208.5 384,-208.5"/>
<text text-anchor="middle" x="447" y="-215.5" font-family="Helvetica,sans-Serif" font-size="10.00">vsomeip_v3::message</text>
</a>
</g>
</g>
<!-- Node4&#45;&gt;Node7 -->
<g id="edge6" class="edge">
<title>Node4&#45;&gt;Node7</title>
<path fill="none" stroke="midnightblue" d="M318.97,-146.44C322.47,-148.08 325.84,-149.93 329,-152 351.01,-166.43 342.9,-184.72 365,-199 370.94,-202.84 377.58,-205.91 384.43,-208.36"/>
<polygon fill="midnightblue" stroke="midnightblue" points="320.06,-143.1 309.48,-142.53 317.4,-149.57 320.06,-143.1"/>
</g>
<!-- Node11 -->
<g id="node11" class="node">
<title>Node11</title>
<g id="a_node11"><a xlink:href="classvsomeip__v3_1_1message__base__impl.html" target="_top" xlink:title=" ">
<polygon fill="white" stroke="black" points="384,-159 384,-189 510,-189 510,-159 384,-159"/>
<text text-anchor="start" x="392" y="-177" font-family="Helvetica,sans-Serif" font-size="10.00">vsomeip_v3::message</text>
<text text-anchor="middle" x="447" y="-166" font-family="Helvetica,sans-Serif" font-size="10.00">_base_impl</text>
</a>
</g>
</g>
<!-- Node4&#45;&gt;Node11 -->
<g id="edge10" class="edge">
<title>Node4&#45;&gt;Node11</title>
<path fill="none" stroke="midnightblue" d="M307.31,-144.61C331.14,-149.66 359.17,-155.6 383.78,-160.82"/>
<polygon fill="midnightblue" stroke="midnightblue" points="307.89,-141.16 297.38,-142.51 306.44,-148.01 307.89,-141.16"/>
</g>
<!-- Node8 -->
<g id="node8" class="node">
<title>Node8</title>
<g id="a_node8"><a xlink:href="classvsomeip_1_1message__impl.html" target="_top" xlink:title=" ">
<polygon fill="white" stroke="black" points="582,-224.5 582,-243.5 718,-243.5 718,-224.5 582,-224.5"/>
<text text-anchor="middle" x="650" y="-231.5" font-family="Helvetica,sans-Serif" font-size="10.00">vsomeip::message_impl</text>
</a>
</g>
</g>
<!-- Node7&#45;&gt;Node8 -->
<g id="edge7" class="edge">
<title>Node7&#45;&gt;Node8</title>
<path fill="none" stroke="midnightblue" d="M520.24,-223.75C540.33,-225.35 562.06,-227.08 581.84,-228.65"/>
<polygon fill="midnightblue" stroke="midnightblue" points="520.47,-220.26 510.22,-222.95 519.91,-227.24 520.47,-220.26"/>
</g>
<!-- Node9 -->
<g id="node9" class="node">
<title>Node9</title>
<g id="a_node9"><a xlink:href="classvsomeip__v3_1_1message__impl.html" target="_top" xlink:title=" ">
<polygon fill="white" stroke="black" points="573.5,-186.5 573.5,-205.5 726.5,-205.5 726.5,-186.5 573.5,-186.5"/>
<text text-anchor="middle" x="650" y="-193.5" font-family="Helvetica,sans-Serif" font-size="10.00">vsomeip_v3::message_impl</text>
</a>
</g>
</g>
<!-- Node7&#45;&gt;Node9 -->
<g id="edge8" class="edge">
<title>Node7&#45;&gt;Node9</title>
<path fill="none" stroke="midnightblue" d="M520.21,-210.1C537.45,-208.21 555.89,-206.19 573.28,-204.29"/>
<polygon fill="midnightblue" stroke="midnightblue" points="519.78,-206.62 510.22,-211.19 520.54,-213.58 519.78,-206.62"/>
</g>
<!-- Node10 -->
<g id="node10" class="node">
<title>Node10</title>
<g id="a_node10"><a xlink:href="classvsomeip__v3_1_1sd_1_1message__impl.html" target="_top" xlink:title=" ">
<polygon fill="white" stroke="black" points="565,-148.5 565,-167.5 735,-167.5 735,-148.5 565,-148.5"/>
<text text-anchor="middle" x="650" y="-155.5" font-family="Helvetica,sans-Serif" font-size="10.00">vsomeip_v3::sd::message_impl</text>
</a>
</g>
</g>
<!-- Node7&#45;&gt;Node10 -->
<g id="edge9" class="edge">
<title>Node7&#45;&gt;Node10</title>
<path fill="none" stroke="midnightblue" d="M509.53,-205.76C516.2,-203.79 522.81,-201.54 529,-199 546.35,-191.88 547.62,-184.05 565,-177 574.42,-173.18 584.76,-170.04 594.87,-167.51"/>
<polygon fill="midnightblue" stroke="midnightblue" points="508.47,-202.42 499.76,-208.45 510.33,-209.17 508.47,-202.42"/>
</g>
<!-- Node11&#45;&gt;Node8 -->
<g id="edge11" class="edge">
<title>Node11&#45;&gt;Node8</title>
<path fill="none" stroke="midnightblue" d="M509.73,-192.21C516.27,-194.39 522.8,-196.67 529,-199 545.39,-205.15 548.38,-209.49 565,-215 575.93,-218.63 587.88,-221.79 599.25,-224.44"/>
<polygon fill="midnightblue" stroke="midnightblue" points="510.75,-188.87 500.16,-189.1 508.59,-195.52 510.75,-188.87"/>
</g>
<!-- Node11&#45;&gt;Node9 -->
<g id="edge12" class="edge">
<title>Node11&#45;&gt;Node9</title>
<path fill="none" stroke="midnightblue" d="M520.21,-181.9C537.45,-183.79 555.89,-185.81 573.28,-187.71"/>
<polygon fill="midnightblue" stroke="midnightblue" points="520.54,-178.42 510.22,-180.81 519.78,-185.38 520.54,-178.42"/>
</g>
<!-- Node11&#45;&gt;Node10 -->
<g id="edge13" class="edge">
<title>Node11&#45;&gt;Node10</title>
<path fill="none" stroke="midnightblue" d="M520.54,-168.23C534.94,-167.08 550.17,-165.87 564.91,-164.69"/>
<polygon fill="midnightblue" stroke="midnightblue" points="519.91,-164.76 510.22,-169.05 520.47,-171.74 519.91,-164.76"/>
</g>
<!-- Node14 -->
<g id="node14" class="node">
<title>Node14</title>
<g id="a_node14"><a xlink:href="classvsomeip_1_1payload__impl.html" target="_top" xlink:title=" ">
<polygon fill="white" stroke="black" points="381.5,-38.5 381.5,-57.5 512.5,-57.5 512.5,-38.5 381.5,-38.5"/>
<text text-anchor="middle" x="447" y="-45.5" font-family="Helvetica,sans-Serif" font-size="10.00">vsomeip::payload_impl</text>
</a>
</g>
</g>
<!-- Node13&#45;&gt;Node14 -->
<g id="edge16" class="edge">
<title>Node13&#45;&gt;Node14</title>
<path fill="none" stroke="midnightblue" d="M322.32,-46.08C341.53,-46.38 362.27,-46.7 381.18,-47"/>
<polygon fill="midnightblue" stroke="midnightblue" points="322.19,-42.58 312.14,-45.92 322.08,-49.58 322.19,-42.58"/>
</g>
<!-- Node15 -->
<g id="node15" class="node">
<title>Node15</title>
<g id="a_node15"><a xlink:href="classvsomeip__v3_1_1payload__impl.html" target="_top" xlink:title=" ">
<polygon fill="white" stroke="black" points="373,-0.5 373,-19.5 521,-19.5 521,-0.5 373,-0.5"/>
<text text-anchor="middle" x="447" y="-7.5" font-family="Helvetica,sans-Serif" font-size="10.00">vsomeip_v3::payload_impl</text>
</a>
</g>
</g>
<!-- Node13&#45;&gt;Node15 -->
<g id="edge17" class="edge">
<title>Node13&#45;&gt;Node15</title>
<path fill="none" stroke="midnightblue" d="M314.99,-33.7C340.29,-29.12 369.19,-23.89 393.39,-19.52"/>
<polygon fill="midnightblue" stroke="midnightblue" points="314.34,-30.26 305.12,-35.48 315.58,-37.15 314.34,-30.26"/>
</g>
</g>
</svg>
