<?xml version="1.0" encoding="UTF-8" standalone="no"?>
<!DOCTYPE svg PUBLIC "-//W3C//DTD SVG 1.1//EN"
 "http://www.w3.org/Graphics/SVG/1.1/DTD/svg11.dtd">
<!-- Generated by graphviz version 2.43.0 (0)
 -->
<!-- Title: boost::asio::basic_datagram_socket_ext&lt; Protocol, DatagramSocketService &gt; Pages: 1 -->
<svg width="578pt" height="170pt"
 viewBox="0.00 0.00 578.00 170.00" xmlns="http://www.w3.org/2000/svg" xmlns:xlink="http://www.w3.org/1999/xlink">
<g id="graph0" class="graph" transform="scale(1 1) rotate(0) translate(4 166)">
<title>boost::asio::basic_datagram_socket_ext&lt; Protocol, DatagramSocketService &gt;</title>
<polygon fill="white" stroke="transparent" points="-4,4 -4,-166 574,-166 574,4 -4,4"/>
<!-- Node1 -->
<g id="node1" class="node">
<title>Node1</title>
<g id="a_node1"><a xlink:title="Provides datagram&#45;oriented socket functionality.">
<polygon fill="#bfbfbf" stroke="black" points="368,-60.5 368,-101.5 570,-101.5 570,-60.5 368,-60.5"/>
<text text-anchor="start" x="376" y="-89.5" font-family="Helvetica,sans-Serif" font-size="10.00">boost::asio::basic</text>
<text text-anchor="start" x="376" y="-78.5" font-family="Helvetica,sans-Serif" font-size="10.00">_datagram_socket_ext</text>
<text text-anchor="middle" x="469" y="-67.5" font-family="Helvetica,sans-Serif" font-size="10.00">&lt; Protocol, DatagramSocketService &gt;</text>
</a>
</g>
</g>
<!-- Node2 -->
<g id="node2" class="node">
<title>Node2</title>
<g id="a_node2"><a xlink:title=" ">
<polygon fill="white" stroke="black" points="185.5,-120.5 185.5,-161.5 329.5,-161.5 329.5,-120.5 185.5,-120.5"/>
<text text-anchor="start" x="193.5" y="-149.5" font-family="Helvetica,sans-Serif" font-size="10.00">basic_socket&lt; Protocol,</text>
<text text-anchor="start" x="193.5" y="-138.5" font-family="Helvetica,sans-Serif" font-size="10.00"> datagram_socket_service</text>
<text text-anchor="middle" x="257.5" y="-127.5" font-family="Helvetica,sans-Serif" font-size="10.00">_ext&lt;Protocol&gt; &gt;</text>
</a>
</g>
</g>
<!-- Node2&#45;&gt;Node1 -->
<g id="edge1" class="edge">
<title>Node2&#45;&gt;Node1</title>
<path fill="none" stroke="midnightblue" d="M339.41,-117.83C358.14,-112.46 377.95,-106.79 396.27,-101.54"/>
<polygon fill="midnightblue" stroke="midnightblue" points="338.37,-114.48 329.72,-120.6 340.3,-121.21 338.37,-114.48"/>
</g>
<!-- Node3 -->
<g id="node3" class="node">
<title>Node3</title>
<g id="a_node3"><a xlink:href="classboost_1_1asio_1_1basic__socket__ext.html" target="_top" xlink:title=" ">
<polygon fill="white" stroke="black" points="183,-0.5 183,-41.5 332,-41.5 332,-0.5 183,-0.5"/>
<text text-anchor="start" x="191" y="-29.5" font-family="Helvetica,sans-Serif" font-size="10.00">boost::asio::basic</text>
<text text-anchor="start" x="191" y="-18.5" font-family="Helvetica,sans-Serif" font-size="10.00">_socket_ext&lt; Protocol</text>
<text text-anchor="middle" x="257.5" y="-7.5" font-family="Helvetica,sans-Serif" font-size="10.00"> BOOST_ASIO_SVC_TARG &gt;</text>
</a>
</g>
</g>
<!-- Node3&#45;&gt;Node1 -->
<g id="edge2" class="edge">
<title>Node3&#45;&gt;Node1</title>
<path fill="none" stroke="midnightblue" d="M339.92,-44.32C358.51,-49.64 378.14,-55.26 396.29,-60.46"/>
<polygon fill="midnightblue" stroke="midnightblue" points="340.88,-40.95 330.3,-41.56 338.95,-47.68 340.88,-40.95"/>
</g>
<!-- Node4 -->
<g id="node4" class="node">
<title>Node4</title>
<g id="a_node4"><a xlink:title=" ">
<polygon fill="white" stroke="black" points="0,-57.5 0,-98.5 147,-98.5 147,-57.5 0,-57.5"/>
<text text-anchor="start" x="8" y="-86.5" font-family="Helvetica,sans-Serif" font-size="10.00">BOOST_ASIO_SVC_ACCESS</text>
<text text-anchor="start" x="8" y="-75.5" font-family="Helvetica,sans-Serif" font-size="10.00"> basic_io_object&lt; BOOST</text>
<text text-anchor="middle" x="73.5" y="-64.5" font-family="Helvetica,sans-Serif" font-size="10.00">_ASIO_SVC_T &gt;</text>
</a>
</g>
</g>
<!-- Node4&#45;&gt;Node3 -->
<g id="edge3" class="edge">
<title>Node4&#45;&gt;Node3</title>
<path fill="none" stroke="#8b1a1a" d="M149.99,-54.36C163.57,-50.1 177.62,-45.7 190.89,-41.55"/>
<polygon fill="#8b1a1a" stroke="#8b1a1a" points="148.7,-51.09 140.21,-57.42 150.8,-57.77 148.7,-51.09"/>
</g>
<!-- Node6 -->
<g id="node6" class="node">
<title>Node6</title>
<g id="a_node6"><a xlink:href="classboost_1_1asio_1_1basic__socket__ext.html" target="_top" xlink:title=" ">
<polygon fill="white" stroke="black" points="193.5,-60.5 193.5,-101.5 321.5,-101.5 321.5,-60.5 193.5,-60.5"/>
<text text-anchor="start" x="201.5" y="-89.5" font-family="Helvetica,sans-Serif" font-size="10.00">boost::asio::basic</text>
<text text-anchor="start" x="201.5" y="-78.5" font-family="Helvetica,sans-Serif" font-size="10.00">_socket_ext&lt; Protocol,</text>
<text text-anchor="middle" x="257.5" y="-67.5" font-family="Helvetica,sans-Serif" font-size="10.00"> Executor &gt;</text>
</a>
</g>
</g>
<!-- Node4&#45;&gt;Node6 -->
<g id="edge9" class="edge">
<title>Node4&#45;&gt;Node6</title>
<path fill="none" stroke="#8b1a1a" d="M157.31,-79.36C169.39,-79.56 181.68,-79.77 193.29,-79.96"/>
<polygon fill="#8b1a1a" stroke="#8b1a1a" points="157.27,-75.86 147.22,-79.2 157.16,-82.86 157.27,-75.86"/>
</g>
<!-- Node5 -->
<g id="node5" class="node">
<title>Node5</title>
<g id="a_node5"><a xlink:title=" ">
<polygon fill="white" stroke="black" points="35,-16.5 35,-35.5 112,-35.5 112,-16.5 35,-16.5"/>
<text text-anchor="middle" x="73.5" y="-23.5" font-family="Helvetica,sans-Serif" font-size="10.00">socket_base</text>
</a>
</g>
</g>
<!-- Node5&#45;&gt;Node3 -->
<g id="edge4" class="edge">
<title>Node5&#45;&gt;Node3</title>
<path fill="none" stroke="midnightblue" d="M92.85,-12.7C113.92,-6.12 149.8,-2.76 182.61,-3.1"/>
<polygon fill="midnightblue" stroke="midnightblue" points="91.32,-9.54 83.28,-16.43 93.87,-16.06 91.32,-9.54"/>
</g>
<!-- Node5&#45;&gt;Node3 -->
<g id="edge5" class="edge">
<title>Node5&#45;&gt;Node3</title>
<path fill="none" stroke="midnightblue" d="M122.41,-18.66C140.88,-17.48 162.43,-16.68 182.78,-16.38"/>
<polygon fill="midnightblue" stroke="midnightblue" points="121.94,-15.18 112.21,-19.37 122.43,-22.16 121.94,-15.18"/>
</g>
<!-- Node5&#45;&gt;Node3 -->
<g id="edge6" class="edge">
<title>Node5&#45;&gt;Node3</title>
<path fill="none" stroke="midnightblue" d="M122.41,-30.71C140.88,-30.87 162.43,-30.49 182.78,-29.67"/>
<polygon fill="midnightblue" stroke="midnightblue" points="122.26,-27.21 112.21,-30.56 122.16,-34.21 122.26,-27.21"/>
</g>
<!-- Node5&#45;&gt;Node3 -->
<g id="edge7" class="edge">
<title>Node5&#45;&gt;Node3</title>
<path fill="none" stroke="midnightblue" d="M94.02,-38.59C119.03,-44.69 163.44,-45.41 199.52,-41.5"/>
<polygon fill="midnightblue" stroke="midnightblue" points="94.87,-35.19 84.29,-35.52 92.77,-41.86 94.87,-35.19"/>
</g>
<!-- Node5&#45;&gt;Node6 -->
<g id="edge10" class="edge">
<title>Node5&#45;&gt;Node6</title>
<path fill="none" stroke="midnightblue" d="M122.09,-22.34C158.32,-29.3 206.54,-45.29 234.29,-60.47"/>
<polygon fill="midnightblue" stroke="midnightblue" points="122.66,-18.88 112.21,-20.62 121.46,-25.78 122.66,-18.88"/>
</g>
<!-- Node5&#45;&gt;Node6 -->
<g id="edge11" class="edge">
<title>Node5&#45;&gt;Node6</title>
<path fill="none" stroke="midnightblue" d="M122.06,-34.36C148.67,-41.42 181.75,-51.42 208.44,-60.44"/>
<polygon fill="midnightblue" stroke="midnightblue" points="122.77,-30.93 112.21,-31.8 121.01,-37.7 122.77,-30.93"/>
</g>
<!-- Node5&#45;&gt;Node6 -->
<g id="edge12" class="edge">
<title>Node5&#45;&gt;Node6</title>
<path fill="none" stroke="midnightblue" d="M101.83,-39.25C125.94,-48.18 161.98,-59.57 193.22,-68.34"/>
<polygon fill="midnightblue" stroke="midnightblue" points="102.87,-35.9 92.28,-35.59 100.37,-42.43 102.87,-35.9"/>
</g>
<!-- Node5&#45;&gt;Node6 -->
<g id="edge13" class="edge">
<title>Node5&#45;&gt;Node6</title>
<path fill="none" stroke="midnightblue" d="M88.67,-41.77C110.98,-56.19 155.67,-72.33 193.32,-81.29"/>
<polygon fill="midnightblue" stroke="midnightblue" points="90.66,-38.89 80.56,-35.72 86.48,-44.51 90.66,-38.89"/>
</g>
<!-- Node6&#45;&gt;Node1 -->
<g id="edge8" class="edge">
<title>Node6&#45;&gt;Node1</title>
<path fill="none" stroke="midnightblue" d="M331.73,-68.06C343.4,-67.63 355.64,-67.45 367.81,-67.51"/>
<polygon fill="midnightblue" stroke="midnightblue" points="331.48,-64.57 321.64,-68.5 331.78,-71.56 331.48,-64.57"/>
</g>
<!-- Node6&#45;&gt;Node1 -->
<g id="edge14" class="edge">
<title>Node6&#45;&gt;Node1</title>
<path fill="none" stroke="midnightblue" d="M331.73,-81C343.4,-81 355.64,-81 367.81,-81"/>
<polygon fill="midnightblue" stroke="midnightblue" points="331.64,-77.5 321.64,-81 331.64,-84.5 331.64,-77.5"/>
</g>
<!-- Node6&#45;&gt;Node1 -->
<g id="edge15" class="edge">
<title>Node6&#45;&gt;Node1</title>
<path fill="none" stroke="midnightblue" d="M331.73,-93.94C343.4,-94.37 355.64,-94.55 367.81,-94.49"/>
<polygon fill="midnightblue" stroke="midnightblue" points="331.78,-90.44 321.64,-93.5 331.48,-97.43 331.78,-90.44"/>
</g>
</g>
</svg>
