<?xml version="1.0" encoding="UTF-8" standalone="no"?>
<!DOCTYPE svg PUBLIC "-//W3C//DTD SVG 1.1//EN"
 "http://www.w3.org/Graphics/SVG/1.1/DTD/svg11.dtd">
<!-- Generated by graphviz version 2.43.0 (0)
 -->
<!-- Title: vsomeip_v3::udp_client_endpoint_impl Pages: 1 -->
<svg width="676pt" height="187pt"
 viewBox="0.00 0.00 676.00 186.50" xmlns="http://www.w3.org/2000/svg" xmlns:xlink="http://www.w3.org/1999/xlink">
<g id="graph0" class="graph" transform="scale(1 1) rotate(0) translate(4 182.5)">
<title>vsomeip_v3::udp_client_endpoint_impl</title>
<polygon fill="white" stroke="transparent" points="-4,4 -4,-182.5 672,-182.5 672,4 -4,4"/>
<!-- Node1 -->
<g id="node1" class="node">
<title>Node1</title>
<g id="a_node1"><a xlink:title=" ">
<polygon fill="#bfbfbf" stroke="black" points="536,-56 536,-86 668,-86 668,-56 536,-56"/>
<text text-anchor="start" x="544" y="-74" font-family="Helvetica,sans-Serif" font-size="10.00">vsomeip_v3::udp_client</text>
<text text-anchor="middle" x="602" y="-63" font-family="Helvetica,sans-Serif" font-size="10.00">_endpoint_impl</text>
</a>
</g>
</g>
<!-- Node2 -->
<g id="node2" class="node">
<title>Node2</title>
<g id="a_node2"><a xlink:href="classvsomeip__v3_1_1client__endpoint__impl.html" target="_top" xlink:title=" ">
<polygon fill="white" stroke="black" points="384,-56 384,-86 499,-86 499,-56 384,-56"/>
<text text-anchor="start" x="392" y="-74" font-family="Helvetica,sans-Serif" font-size="10.00">udp_client_endpoint</text>
<text text-anchor="middle" x="441.5" y="-63" font-family="Helvetica,sans-Serif" font-size="10.00">_base_impl</text>
</a>
</g>
</g>
<!-- Node2&#45;&gt;Node1 -->
<g id="edge1" class="edge">
<title>Node2&#45;&gt;Node1</title>
<path fill="none" stroke="midnightblue" d="M509.47,-71C518.25,-71 527.24,-71 535.99,-71"/>
<polygon fill="midnightblue" stroke="midnightblue" points="509.27,-67.5 499.27,-71 509.27,-74.5 509.27,-67.5"/>
</g>
<!-- Node3 -->
<g id="node3" class="node">
<title>Node3</title>
<g id="a_node3"><a xlink:href="classvsomeip__v3_1_1endpoint__impl.html" target="_top" xlink:title=" ">
<polygon fill="white" stroke="black" points="177,-148 177,-178 302,-178 302,-148 177,-148"/>
<text text-anchor="start" x="185" y="-166" font-family="Helvetica,sans-Serif" font-size="10.00">vsomeip_v3::endpoint</text>
<text text-anchor="middle" x="239.5" y="-155" font-family="Helvetica,sans-Serif" font-size="10.00">_impl&lt; Protocol &gt;</text>
</a>
</g>
</g>
<!-- Node3&#45;&gt;Node2 -->
<g id="edge2" class="edge">
<title>Node3&#45;&gt;Node2</title>
<path fill="none" stroke="midnightblue" d="M300.61,-144.51C306.2,-142.45 311.74,-140.26 317,-138 352.4,-122.76 391.15,-100.81 415.62,-86.24"/>
<polygon fill="midnightblue" stroke="midnightblue" points="299.43,-141.22 291.19,-147.87 301.78,-147.81 299.43,-141.22"/>
</g>
<!-- Node4 -->
<g id="node4" class="node">
<title>Node4</title>
<g id="a_node4"><a xlink:href="classvsomeip__v3_1_1endpoint.html" target="_top" xlink:title=" ">
<polygon fill="white" stroke="black" points="0,-128.5 0,-147.5 125,-147.5 125,-128.5 0,-128.5"/>
<text text-anchor="middle" x="62.5" y="-135.5" font-family="Helvetica,sans-Serif" font-size="10.00">vsomeip_v3::endpoint</text>
</a>
</g>
</g>
<!-- Node4&#45;&gt;Node3 -->
<g id="edge3" class="edge">
<title>Node4&#45;&gt;Node3</title>
<path fill="none" stroke="midnightblue" d="M135.14,-148.23C148.95,-150.21 163.31,-152.26 176.77,-154.18"/>
<polygon fill="midnightblue" stroke="midnightblue" points="135.59,-144.76 125.2,-146.81 134.6,-151.69 135.59,-144.76"/>
</g>
<!-- Node5 -->
<g id="node5" class="node">
<title>Node5</title>
<g id="a_node5"><a xlink:href="classvsomeip__v3_1_1client__endpoint.html" target="_top" xlink:title=" ">
<polygon fill="white" stroke="black" points="185,-99 185,-129 294,-129 294,-99 185,-99"/>
<text text-anchor="start" x="193" y="-117" font-family="Helvetica,sans-Serif" font-size="10.00">vsomeip_v3::client</text>
<text text-anchor="middle" x="239.5" y="-106" font-family="Helvetica,sans-Serif" font-size="10.00">_endpoint</text>
</a>
</g>
</g>
<!-- Node4&#45;&gt;Node5 -->
<g id="edge5" class="edge">
<title>Node4&#45;&gt;Node5</title>
<path fill="none" stroke="midnightblue" d="M135.39,-128.14C151.95,-125.87 169.28,-123.49 184.91,-121.35"/>
<polygon fill="midnightblue" stroke="midnightblue" points="134.63,-124.71 125.2,-129.54 135.58,-131.65 134.63,-124.71"/>
</g>
<!-- Node5&#45;&gt;Node2 -->
<g id="edge4" class="edge">
<title>Node5&#45;&gt;Node2</title>
<path fill="none" stroke="midnightblue" d="M304.09,-100.33C329.73,-94.81 359.07,-88.51 383.96,-83.16"/>
<polygon fill="midnightblue" stroke="midnightblue" points="303.14,-96.95 294.1,-102.48 304.61,-103.8 303.14,-96.95"/>
</g>
<!-- Node6 -->
<g id="node6" class="node">
<title>Node6</title>
<g id="a_node6"><a xlink:title=" ">
<polygon fill="white" stroke="black" points="162,-38.5 162,-79.5 317,-79.5 317,-38.5 162,-38.5"/>
<text text-anchor="start" x="170" y="-67.5" font-family="Helvetica,sans-Serif" font-size="10.00">std::enable_shared</text>
<text text-anchor="start" x="170" y="-56.5" font-family="Helvetica,sans-Serif" font-size="10.00">_from_this&lt; client_endpoint</text>
<text text-anchor="middle" x="239.5" y="-45.5" font-family="Helvetica,sans-Serif" font-size="10.00">_impl&lt; Protocol &gt; &gt;</text>
</a>
</g>
</g>
<!-- Node6&#45;&gt;Node2 -->
<g id="edge6" class="edge">
<title>Node6&#45;&gt;Node2</title>
<path fill="none" stroke="midnightblue" d="M327.47,-64.22C346.56,-65.36 366.3,-66.55 383.83,-67.6"/>
<polygon fill="midnightblue" stroke="midnightblue" points="327.44,-60.71 317.25,-63.61 327.03,-67.7 327.44,-60.71"/>
</g>
<!-- Node7 -->
<g id="node7" class="node">
<title>Node7</title>
<g id="a_node7"><a xlink:href="structvsomeip__v3_1_1train.html" target="_top" xlink:title=" ">
<polygon fill="white" stroke="black" points="187.5,-0.5 187.5,-19.5 291.5,-19.5 291.5,-0.5 187.5,-0.5"/>
<text text-anchor="middle" x="239.5" y="-7.5" font-family="Helvetica,sans-Serif" font-size="10.00">vsomeip_v3::train</text>
</a>
</g>
</g>
<!-- Node7&#45;&gt;Node2 -->
<g id="edge7" class="edge">
<title>Node7&#45;&gt;Node2</title>
<path fill="none" stroke="#9a32cd" stroke-dasharray="5,2" d="M291.47,-22.02C300.03,-24.22 308.79,-26.59 317,-29 344.6,-37.1 375.21,-47.5 399.05,-55.93"/>
<polygon fill="#9a32cd" stroke="#9a32cd" points="292.12,-18.58 281.56,-19.52 290.4,-25.36 292.12,-18.58"/>
<text text-anchor="middle" x="350.5" y="-48" font-family="Helvetica,sans-Serif" font-size="10.00"> train_</text>
</g>
</g>
</svg>
