<?xml version="1.0" encoding="UTF-8" standalone="no"?>
<!DOCTYPE svg PUBLIC "-//W3C//DTD SVG 1.1//EN"
 "http://www.w3.org/Graphics/SVG/1.1/DTD/svg11.dtd">
<!-- Generated by graphviz version 2.43.0 (0)
 -->
<!-- Title: vsomeip_v3::sd::entry_impl Pages: 1 -->
<svg width="420pt" height="151pt"
 viewBox="0.00 0.00 420.00 151.00" xmlns="http://www.w3.org/2000/svg" xmlns:xlink="http://www.w3.org/1999/xlink">
<g id="graph0" class="graph" transform="scale(1 1) rotate(0) translate(4 147)">
<title>vsomeip_v3::sd::entry_impl</title>
<polygon fill="white" stroke="transparent" points="-4,4 -4,-147 416,-147 416,4 -4,4"/>
<!-- Node1 -->
<g id="node1" class="node">
<title>Node1</title>
<g id="a_node1"><a xlink:title=" ">
<polygon fill="#bfbfbf" stroke="black" points="134.5,-56.5 134.5,-75.5 286.5,-75.5 286.5,-56.5 134.5,-56.5"/>
<text text-anchor="middle" x="210.5" y="-63.5" font-family="Helvetica,sans-Serif" font-size="10.00">vsomeip_v3::sd::entry_impl</text>
</a>
</g>
</g>
<!-- Node3 -->
<g id="node3" class="node">
<title>Node3</title>
<g id="a_node3"><a xlink:href="classvsomeip__v3_1_1sd_1_1eventgroupentry__impl.html" target="_top" xlink:title=" ">
<polygon fill="white" stroke="black" points="0,-0.5 0,-19.5 207,-19.5 207,-0.5 0,-0.5"/>
<text text-anchor="middle" x="103.5" y="-7.5" font-family="Helvetica,sans-Serif" font-size="10.00">vsomeip_v3::sd::eventgroupentry_impl</text>
</a>
</g>
</g>
<!-- Node1&#45;&gt;Node3 -->
<g id="edge2" class="edge">
<title>Node1&#45;&gt;Node3</title>
<path fill="none" stroke="midnightblue" d="M184.2,-51.73C164.39,-41.73 137.79,-28.31 120.65,-19.65"/>
<polygon fill="midnightblue" stroke="midnightblue" points="182.8,-54.94 193.31,-56.32 185.96,-48.69 182.8,-54.94"/>
</g>
<!-- Node4 -->
<g id="node4" class="node">
<title>Node4</title>
<g id="a_node4"><a xlink:href="classvsomeip__v3_1_1sd_1_1serviceentry__impl.html" target="_top" xlink:title=" ">
<polygon fill="white" stroke="black" points="225,-0.5 225,-19.5 412,-19.5 412,-0.5 225,-0.5"/>
<text text-anchor="middle" x="318.5" y="-7.5" font-family="Helvetica,sans-Serif" font-size="10.00">vsomeip_v3::sd::serviceentry_impl</text>
</a>
</g>
</g>
<!-- Node1&#45;&gt;Node4 -->
<g id="edge3" class="edge">
<title>Node1&#45;&gt;Node4</title>
<path fill="none" stroke="midnightblue" d="M237.05,-51.73C257.05,-41.73 283.89,-28.31 301.19,-19.65"/>
<polygon fill="midnightblue" stroke="midnightblue" points="235.23,-48.72 227.85,-56.32 238.36,-54.98 235.23,-48.72"/>
</g>
<!-- Node2 -->
<g id="node2" class="node">
<title>Node2</title>
<g id="a_node2"><a xlink:href="classvsomeip__v3_1_1sd_1_1message__element__impl.html" target="_top" xlink:title=" ">
<polygon fill="white" stroke="black" points="139,-112.5 139,-142.5 282,-142.5 282,-112.5 139,-112.5"/>
<text text-anchor="start" x="147" y="-130.5" font-family="Helvetica,sans-Serif" font-size="10.00">vsomeip_v3::sd::message</text>
<text text-anchor="middle" x="210.5" y="-119.5" font-family="Helvetica,sans-Serif" font-size="10.00">_element_impl</text>
</a>
</g>
</g>
<!-- Node2&#45;&gt;Node1 -->
<g id="edge1" class="edge">
<title>Node2&#45;&gt;Node1</title>
<path fill="none" stroke="midnightblue" d="M210.5,-102.29C210.5,-92.86 210.5,-82.65 210.5,-75.66"/>
<polygon fill="midnightblue" stroke="midnightblue" points="207,-102.4 210.5,-112.4 214,-102.4 207,-102.4"/>
</g>
</g>
</svg>
