<?xml version="1.0" encoding="UTF-8" standalone="no"?>
<!DOCTYPE svg PUBLIC "-//W3C//DTD SVG 1.1//EN"
 "http://www.w3.org/Graphics/SVG/1.1/DTD/svg11.dtd">
<!-- Generated by graphviz version 2.43.0 (0)
 -->
<!-- Title: boost::asio::basic_socket_ext_local&lt; BOOST_ASIO_SVC_TPARAM &gt; Pages: 1 -->
<svg width="286pt" height="128pt"
 viewBox="0.00 0.00 285.50 128.00" xmlns="http://www.w3.org/2000/svg" xmlns:xlink="http://www.w3.org/1999/xlink">
<g id="graph0" class="graph" transform="scale(1 1) rotate(0) translate(4 124)">
<title>boost::asio::basic_socket_ext_local&lt; BOOST_ASIO_SVC_TPARAM &gt;</title>
<polygon fill="white" stroke="transparent" points="-4,4 -4,-124 281.5,-124 281.5,4 -4,4"/>
<!-- Node1 -->
<g id="node1" class="node">
<title>Node1</title>
<g id="a_node1"><a xlink:title="Provides socket functionality.">
<polygon fill="#bfbfbf" stroke="black" points="129.5,-0.5 129.5,-41.5 277.5,-41.5 277.5,-0.5 129.5,-0.5"/>
<text text-anchor="start" x="137.5" y="-29.5" font-family="Helvetica,sans-Serif" font-size="10.00">boost::asio::basic</text>
<text text-anchor="start" x="137.5" y="-18.5" font-family="Helvetica,sans-Serif" font-size="10.00">_socket_ext_local&lt; BOOST</text>
<text text-anchor="middle" x="203.5" y="-7.5" font-family="Helvetica,sans-Serif" font-size="10.00">_ASIO_SVC_TPARAM &gt;</text>
</a>
</g>
</g>
<!-- Node2 -->
<g id="node2" class="node">
<title>Node2</title>
<g id="a_node2"><a xlink:title=" ">
<polygon fill="white" stroke="black" points="0,-78.5 0,-119.5 147,-119.5 147,-78.5 0,-78.5"/>
<text text-anchor="start" x="8" y="-107.5" font-family="Helvetica,sans-Serif" font-size="10.00">BOOST_ASIO_SVC_ACCESS</text>
<text text-anchor="start" x="8" y="-96.5" font-family="Helvetica,sans-Serif" font-size="10.00"> basic_io_object&lt; BOOST</text>
<text text-anchor="middle" x="73.5" y="-85.5" font-family="Helvetica,sans-Serif" font-size="10.00">_ASIO_SVC_T &gt;</text>
</a>
</g>
</g>
<!-- Node2&#45;&gt;Node1 -->
<g id="edge1" class="edge">
<title>Node2&#45;&gt;Node1</title>
<path fill="none" stroke="#8b1a1a" d="M115.92,-73.2C133.51,-62.92 153.62,-51.16 170.14,-41.51"/>
<polygon fill="#8b1a1a" stroke="#8b1a1a" points="113.84,-70.36 106.98,-78.43 117.38,-76.4 113.84,-70.36"/>
</g>
<!-- Node3 -->
<g id="node3" class="node">
<title>Node3</title>
<g id="a_node3"><a xlink:title=" ">
<polygon fill="white" stroke="black" points="165,-89.5 165,-108.5 242,-108.5 242,-89.5 165,-89.5"/>
<text text-anchor="middle" x="203.5" y="-96.5" font-family="Helvetica,sans-Serif" font-size="10.00">socket_base</text>
</a>
</g>
</g>
<!-- Node3&#45;&gt;Node1 -->
<g id="edge2" class="edge">
<title>Node3&#45;&gt;Node1</title>
<path fill="none" stroke="midnightblue" d="M185.94,-79.85C182.5,-68.34 182.36,-53.45 185.51,-41.66"/>
<polygon fill="midnightblue" stroke="midnightblue" points="182.84,-81.49 190.02,-89.28 189.26,-78.71 182.84,-81.49"/>
</g>
<!-- Node3&#45;&gt;Node1 -->
<g id="edge3" class="edge">
<title>Node3&#45;&gt;Node1</title>
<path fill="none" stroke="midnightblue" d="M197.58,-79.14C196.5,-67.73 196.47,-53.21 197.5,-41.66"/>
<polygon fill="midnightblue" stroke="midnightblue" points="194.15,-79.87 199.01,-89.28 201.08,-78.89 194.15,-79.87"/>
</g>
<!-- Node3&#45;&gt;Node1 -->
<g id="edge4" class="edge">
<title>Node3&#45;&gt;Node1</title>
<path fill="none" stroke="midnightblue" d="M209.42,-79.14C210.5,-67.73 210.53,-53.21 209.5,-41.66"/>
<polygon fill="midnightblue" stroke="midnightblue" points="205.92,-78.89 207.99,-89.28 212.85,-79.87 205.92,-78.89"/>
</g>
<!-- Node3&#45;&gt;Node1 -->
<g id="edge5" class="edge">
<title>Node3&#45;&gt;Node1</title>
<path fill="none" stroke="midnightblue" d="M221.06,-79.85C224.5,-68.34 224.64,-53.45 221.49,-41.66"/>
<polygon fill="midnightblue" stroke="midnightblue" points="217.74,-78.71 216.98,-89.28 224.16,-81.49 217.74,-78.71"/>
</g>
</g>
</svg>
