<?xml version="1.0" encoding="UTF-8" standalone="no"?>
<!DOCTYPE svg PUBLIC "-//W3C//DTD SVG 1.1//EN"
 "http://www.w3.org/Graphics/SVG/1.1/DTD/svg11.dtd">
<!-- Generated by graphviz version 2.43.0 (0)
 -->
<!-- Title: boost::asio::detail::reactive_socket_recvmsg_op_ext&lt; MutableBufferSequence, Handler &gt; Pages: 1 -->
<svg width="695pt" height="63pt"
 viewBox="0.00 0.00 695.00 62.55" xmlns="http://www.w3.org/2000/svg" xmlns:xlink="http://www.w3.org/1999/xlink">
<g id="graph0" class="graph" transform="scale(1 1) rotate(0) translate(4 58.55)">
<title>boost::asio::detail::reactive_socket_recvmsg_op_ext&lt; MutableBufferSequence, Handler &gt;</title>
<polygon fill="white" stroke="transparent" points="-4,4 -4,-58.55 691,-58.55 691,4 -4,4"/>
<!-- Node1 -->
<g id="node1" class="node">
<title>Node1</title>
<g id="a_node1"><a xlink:title=" ">
<polygon fill="#bfbfbf" stroke="black" points="502,-1.27 502,-53.27 687,-53.27 687,-1.27 502,-1.27"/>
<text text-anchor="start" x="510" y="-41.27" font-family="Helvetica,sans-Serif" font-size="10.00">boost::asio::detail</text>
<text text-anchor="start" x="510" y="-30.27" font-family="Helvetica,sans-Serif" font-size="10.00">::reactive_socket_recvmsg</text>
<text text-anchor="start" x="510" y="-19.27" font-family="Helvetica,sans-Serif" font-size="10.00">_op_ext&lt; MutableBufferSequence,</text>
<text text-anchor="middle" x="594.5" y="-8.27" font-family="Helvetica,sans-Serif" font-size="10.00"> Handler &gt;</text>
</a>
</g>
</g>
<!-- Node2 -->
<g id="node2" class="node">
<title>Node2</title>
<g id="a_node2"><a xlink:href="classboost_1_1asio_1_1detail_1_1reactive__socket__recvmsg__op__base__ext.html" target="_top" xlink:title=" ">
<polygon fill="white" stroke="black" points="244,-6.77 244,-47.77 466,-47.77 466,-6.77 244,-6.77"/>
<text text-anchor="start" x="252" y="-35.77" font-family="Helvetica,sans-Serif" font-size="10.00">boost::asio::detail</text>
<text text-anchor="start" x="252" y="-24.77" font-family="Helvetica,sans-Serif" font-size="10.00">::reactive_socket_recvmsg</text>
<text text-anchor="middle" x="355" y="-13.77" font-family="Helvetica,sans-Serif" font-size="10.00">_op_base_ext&lt; MutableBufferSequence &gt;</text>
</a>
</g>
</g>
<!-- Node2&#45;&gt;Node1 -->
<g id="edge1" class="edge">
<title>Node2&#45;&gt;Node1</title>
<path fill="none" stroke="midnightblue" d="M404.57,-5C434.41,-0.41 473.48,0.84 508.33,-1.26"/>
<polygon fill="midnightblue" stroke="midnightblue" points="403.68,-1.6 394.42,-6.76 404.87,-8.5 403.68,-1.6"/>
</g>
<!-- Node2&#45;&gt;Node1 -->
<g id="edge12" class="edge">
<title>Node2&#45;&gt;Node1</title>
<path fill="none" stroke="midnightblue" d="M476.21,-13.78C484.87,-13.79 493.51,-13.89 501.96,-14.09"/>
<polygon fill="midnightblue" stroke="midnightblue" points="476.05,-10.28 466.06,-13.81 476.07,-17.28 476.05,-10.28"/>
</g>
<!-- Node2&#45;&gt;Node1 -->
<g id="edge13" class="edge">
<title>Node2&#45;&gt;Node1</title>
<path fill="none" stroke="midnightblue" d="M476.21,-27.27C484.87,-27.27 493.51,-27.27 501.96,-27.27"/>
<polygon fill="midnightblue" stroke="midnightblue" points="476.06,-23.77 466.06,-27.27 476.06,-30.77 476.06,-23.77"/>
</g>
<!-- Node2&#45;&gt;Node1 -->
<g id="edge14" class="edge">
<title>Node2&#45;&gt;Node1</title>
<path fill="none" stroke="midnightblue" d="M476.21,-40.77C484.87,-40.76 493.51,-40.66 501.96,-40.45"/>
<polygon fill="midnightblue" stroke="midnightblue" points="476.07,-37.27 466.06,-40.74 476.05,-44.27 476.07,-37.27"/>
</g>
<!-- Node2&#45;&gt;Node1 -->
<g id="edge15" class="edge">
<title>Node2&#45;&gt;Node1</title>
<path fill="none" stroke="midnightblue" d="M404.57,-49.55C434.41,-54.14 473.48,-55.38 508.33,-53.29"/>
<polygon fill="midnightblue" stroke="midnightblue" points="404.87,-46.05 394.42,-47.79 403.68,-52.94 404.87,-46.05"/>
</g>
<!-- Node3 -->
<g id="node3" class="node">
<title>Node3</title>
<g id="a_node3"><a xlink:href="classboost_1_1asio_1_1detail_1_1reactor__op__ext.html" target="_top" xlink:title=" ">
<polygon fill="white" stroke="black" points="104,-12.27 104,-42.27 208,-42.27 208,-12.27 104,-12.27"/>
<text text-anchor="start" x="112" y="-30.27" font-family="Helvetica,sans-Serif" font-size="10.00">boost::asio::detail</text>
<text text-anchor="middle" x="156" y="-19.27" font-family="Helvetica,sans-Serif" font-size="10.00">::reactor_op_ext</text>
</a>
</g>
</g>
<!-- Node3&#45;&gt;Node2 -->
<g id="edge2" class="edge">
<title>Node3&#45;&gt;Node2</title>
<path fill="none" stroke="midnightblue" d="M181.37,-8.75C216.85,1.84 282.76,2.51 322.07,-6.75"/>
<polygon fill="midnightblue" stroke="midnightblue" points="180.04,-5.51 171.81,-12.18 182.4,-12.1 180.04,-5.51"/>
</g>
<!-- Node3&#45;&gt;Node2 -->
<g id="edge8" class="edge">
<title>Node3&#45;&gt;Node2</title>
<path fill="none" stroke="midnightblue" d="M218.35,-14.67C226.51,-14.26 235.07,-13.99 243.75,-13.86"/>
<polygon fill="midnightblue" stroke="midnightblue" points="218.02,-11.18 208.25,-15.26 218.43,-18.17 218.02,-11.18"/>
</g>
<!-- Node3&#45;&gt;Node2 -->
<g id="edge9" class="edge">
<title>Node3&#45;&gt;Node2</title>
<path fill="none" stroke="midnightblue" d="M218.35,-27.27C226.51,-27.27 235.07,-27.27 243.75,-27.27"/>
<polygon fill="midnightblue" stroke="midnightblue" points="218.25,-23.77 208.25,-27.27 218.25,-30.77 218.25,-23.77"/>
</g>
<!-- Node3&#45;&gt;Node2 -->
<g id="edge10" class="edge">
<title>Node3&#45;&gt;Node2</title>
<path fill="none" stroke="midnightblue" d="M218.35,-39.88C226.51,-40.29 235.07,-40.56 243.75,-40.69"/>
<polygon fill="midnightblue" stroke="midnightblue" points="218.43,-36.38 208.25,-39.29 218.02,-43.37 218.43,-36.38"/>
</g>
<!-- Node3&#45;&gt;Node2 -->
<g id="edge11" class="edge">
<title>Node3&#45;&gt;Node2</title>
<path fill="none" stroke="midnightblue" d="M181.37,-45.8C216.85,-56.39 282.76,-57.06 322.07,-47.8"/>
<polygon fill="midnightblue" stroke="midnightblue" points="182.4,-42.45 171.81,-42.37 180.04,-49.04 182.4,-42.45"/>
</g>
<!-- Node4 -->
<g id="node4" class="node">
<title>Node4</title>
<g id="a_node4"><a xlink:title=" ">
<polygon fill="white" stroke="black" points="0,-17.77 0,-36.77 68,-36.77 68,-17.77 0,-17.77"/>
<text text-anchor="middle" x="34" y="-24.77" font-family="Helvetica,sans-Serif" font-size="10.00">reactor_op</text>
</a>
</g>
</g>
<!-- Node4&#45;&gt;Node3 -->
<g id="edge3" class="edge">
<title>Node4&#45;&gt;Node3</title>
<path fill="none" stroke="midnightblue" d="M45.96,-10.89C69.41,3.65 124.12,3.25 145.86,-12.09"/>
<polygon fill="midnightblue" stroke="midnightblue" points="43.37,-8.51 38.21,-17.76 48.02,-13.75 43.37,-8.51"/>
</g>
<!-- Node4&#45;&gt;Node3 -->
<g id="edge4" class="edge">
<title>Node4&#45;&gt;Node3</title>
<path fill="none" stroke="midnightblue" d="M61.32,-15.88C73.81,-14.13 89.17,-13.47 103.81,-13.9"/>
<polygon fill="midnightblue" stroke="midnightblue" points="60.41,-12.49 51.18,-17.7 61.64,-19.38 60.41,-12.49"/>
</g>
<!-- Node4&#45;&gt;Node3 -->
<g id="edge5" class="edge">
<title>Node4&#45;&gt;Node3</title>
<path fill="none" stroke="midnightblue" d="M78.22,-27.27C86.43,-27.27 95.1,-27.27 103.54,-27.27"/>
<polygon fill="midnightblue" stroke="midnightblue" points="78.11,-23.77 68.11,-27.27 78.11,-30.77 78.11,-23.77"/>
</g>
<!-- Node4&#45;&gt;Node3 -->
<g id="edge6" class="edge">
<title>Node4&#45;&gt;Node3</title>
<path fill="none" stroke="midnightblue" d="M61.32,-38.67C73.81,-40.42 89.17,-41.08 103.81,-40.64"/>
<polygon fill="midnightblue" stroke="midnightblue" points="61.64,-35.17 51.18,-36.85 60.41,-42.06 61.64,-35.17"/>
</g>
<!-- Node4&#45;&gt;Node3 -->
<g id="edge7" class="edge">
<title>Node4&#45;&gt;Node3</title>
<path fill="none" stroke="midnightblue" d="M45.96,-43.66C69.41,-58.2 124.12,-57.8 145.86,-42.46"/>
<polygon fill="midnightblue" stroke="midnightblue" points="48.02,-40.8 38.21,-36.79 43.37,-46.04 48.02,-40.8"/>
</g>
</g>
</svg>
