<?xml version="1.0" encoding="UTF-8" standalone="no"?>
<!DOCTYPE svg PUBLIC "-//W3C//DTD SVG 1.1//EN"
 "http://www.w3.org/Graphics/SVG/1.1/DTD/svg11.dtd">
<!-- Generated by graphviz version 2.43.0 (0)
 -->
<!-- Title: vsomeip_v3::deserializable Pages: 1 -->
<svg width="755pt" height="246pt"
 viewBox="0.00 0.00 755.00 246.00" xmlns="http://www.w3.org/2000/svg" xmlns:xlink="http://www.w3.org/1999/xlink">
<g id="graph0" class="graph" transform="scale(1 1) rotate(0) translate(4 242)">
<title>vsomeip_v3::deserializable</title>
<polygon fill="white" stroke="transparent" points="-4,4 -4,-242 751,-242 751,4 -4,4"/>
<!-- Node1 -->
<g id="node1" class="node">
<title>Node1</title>
<g id="a_node1"><a xlink:title=" ">
<polygon fill="#bfbfbf" stroke="black" points="0,-133.5 0,-152.5 150,-152.5 150,-133.5 0,-133.5"/>
<text text-anchor="middle" x="75" y="-140.5" font-family="Helvetica,sans-Serif" font-size="10.00">vsomeip_v3::deserializable</text>
</a>
</g>
</g>
<!-- Node2 -->
<g id="node2" class="node">
<title>Node2</title>
<g id="a_node2"><a xlink:href="classvsomeip_1_1message__base.html" target="_top" xlink:title="Base class to implement SOME/IP messages.">
<polygon fill="white" stroke="black" points="195,-190.5 195,-209.5 332,-209.5 332,-190.5 195,-190.5"/>
<text text-anchor="middle" x="263.5" y="-197.5" font-family="Helvetica,sans-Serif" font-size="10.00">vsomeip::message_base</text>
</a>
</g>
</g>
<!-- Node1&#45;&gt;Node2 -->
<g id="edge1" class="edge">
<title>Node1&#45;&gt;Node2</title>
<path fill="none" stroke="midnightblue" d="M111.23,-156.07C132.69,-163.8 160.75,-173.52 186,-181 197.28,-184.34 209.62,-187.58 221.03,-190.41"/>
<polygon fill="midnightblue" stroke="midnightblue" points="112.17,-152.68 101.57,-152.56 109.78,-159.26 112.17,-152.68"/>
</g>
<!-- Node3 -->
<g id="node3" class="node">
<title>Node3</title>
<g id="a_node3"><a xlink:href="classvsomeip_1_1payload.html" target="_top" xlink:title="This class implements an array of bytes to be used as payload for SOME/IP messages.">
<polygon fill="white" stroke="black" points="211.5,-152.5 211.5,-171.5 315.5,-171.5 315.5,-152.5 211.5,-152.5"/>
<text text-anchor="middle" x="263.5" y="-159.5" font-family="Helvetica,sans-Serif" font-size="10.00">vsomeip::payload</text>
</a>
</g>
</g>
<!-- Node1&#45;&gt;Node3 -->
<g id="edge2" class="edge">
<title>Node1&#45;&gt;Node3</title>
<path fill="none" stroke="midnightblue" d="M160.43,-151.6C177.84,-153.38 195.66,-155.19 211.44,-156.8"/>
<polygon fill="midnightblue" stroke="midnightblue" points="160.55,-148.1 150.25,-150.56 159.84,-155.06 160.55,-148.1"/>
</g>
<!-- Node4 -->
<g id="node4" class="node">
<title>Node4</title>
<g id="a_node4"><a xlink:href="classvsomeip__v3_1_1message__base.html" target="_top" xlink:title="Base class to implement SOME/IP messages.">
<polygon fill="white" stroke="black" points="186,-114.5 186,-133.5 341,-133.5 341,-114.5 186,-114.5"/>
<text text-anchor="middle" x="263.5" y="-121.5" font-family="Helvetica,sans-Serif" font-size="10.00">vsomeip_v3::message_base</text>
</a>
</g>
</g>
<!-- Node1&#45;&gt;Node4 -->
<g id="edge3" class="edge">
<title>Node1&#45;&gt;Node4</title>
<path fill="none" stroke="midnightblue" d="M160.46,-134.4C168.89,-133.54 177.42,-132.67 185.76,-131.82"/>
<polygon fill="midnightblue" stroke="midnightblue" points="159.84,-130.94 150.25,-135.44 160.55,-137.9 159.84,-130.94"/>
</g>
<!-- Node12 -->
<g id="node12" class="node">
<title>Node12</title>
<g id="a_node12"><a xlink:href="classvsomeip__v3_1_1payload.html" target="_top" xlink:title="This class implements an array of bytes to be used as payload for SOME/IP messages.">
<polygon fill="white" stroke="black" points="203,-38.5 203,-57.5 324,-57.5 324,-38.5 203,-38.5"/>
<text text-anchor="middle" x="263.5" y="-45.5" font-family="Helvetica,sans-Serif" font-size="10.00">vsomeip_v3::payload</text>
</a>
</g>
</g>
<!-- Node1&#45;&gt;Node12 -->
<g id="edge14" class="edge">
<title>Node1&#45;&gt;Node12</title>
<path fill="none" stroke="midnightblue" d="M104.03,-128.72C142.59,-109.08 210.94,-74.26 243.82,-57.52"/>
<polygon fill="midnightblue" stroke="midnightblue" points="102.23,-125.71 94.91,-133.37 105.41,-131.95 102.23,-125.71"/>
</g>
<!-- Node5 -->
<g id="node5" class="node">
<title>Node5</title>
<g id="a_node5"><a xlink:href="classvsomeip_1_1message.html" target="_top" xlink:title="Implements regular SOME/IP messages.">
<polygon fill="white" stroke="black" points="404.5,-114.5 404.5,-133.5 513.5,-133.5 513.5,-114.5 404.5,-114.5"/>
<text text-anchor="middle" x="459" y="-121.5" font-family="Helvetica,sans-Serif" font-size="10.00">vsomeip::message</text>
</a>
</g>
</g>
<!-- Node4&#45;&gt;Node5 -->
<g id="edge4" class="edge">
<title>Node4&#45;&gt;Node5</title>
<path fill="none" stroke="midnightblue" d="M351.48,-124C369.47,-124 387.91,-124 404.29,-124"/>
<polygon fill="midnightblue" stroke="midnightblue" points="351.25,-120.5 341.25,-124 351.25,-127.5 351.25,-120.5"/>
</g>
<!-- Node6 -->
<g id="node6" class="node">
<title>Node6</title>
<g id="a_node6"><a xlink:href="classvsomeip_1_1message__base__impl.html" target="_top" xlink:title=" ">
<polygon fill="white" stroke="black" points="377,-76.5 377,-95.5 541,-95.5 541,-76.5 377,-76.5"/>
<text text-anchor="middle" x="459" y="-83.5" font-family="Helvetica,sans-Serif" font-size="10.00">vsomeip::message_base_impl</text>
</a>
</g>
</g>
<!-- Node4&#45;&gt;Node6 -->
<g id="edge5" class="edge">
<title>Node4&#45;&gt;Node6</title>
<path fill="none" stroke="midnightblue" d="M323.25,-112.46C350.85,-107.04 383.35,-100.66 409.52,-95.52"/>
<polygon fill="midnightblue" stroke="midnightblue" points="322.47,-109.05 313.33,-114.41 323.82,-115.92 322.47,-109.05"/>
</g>
<!-- Node7 -->
<g id="node7" class="node">
<title>Node7</title>
<g id="a_node7"><a xlink:href="classvsomeip__v3_1_1message.html" target="_top" xlink:title="Implements regular SOME/IP messages.">
<polygon fill="white" stroke="black" points="396,-202.5 396,-221.5 522,-221.5 522,-202.5 396,-202.5"/>
<text text-anchor="middle" x="459" y="-209.5" font-family="Helvetica,sans-Serif" font-size="10.00">vsomeip_v3::message</text>
</a>
</g>
</g>
<!-- Node4&#45;&gt;Node7 -->
<g id="edge6" class="edge">
<title>Node4&#45;&gt;Node7</title>
<path fill="none" stroke="midnightblue" d="M331.25,-137.42C334.65,-139.07 337.93,-140.92 341,-143 363.68,-158.35 354.22,-177.8 377,-193 382.77,-196.85 389.22,-199.92 395.9,-202.38"/>
<polygon fill="midnightblue" stroke="midnightblue" points="332.56,-134.18 321.98,-133.51 329.84,-140.62 332.56,-134.18"/>
</g>
<!-- Node11 -->
<g id="node11" class="node">
<title>Node11</title>
<g id="a_node11"><a xlink:href="classvsomeip__v3_1_1message__base__impl.html" target="_top" xlink:title=" ">
<polygon fill="white" stroke="black" points="396,-153 396,-183 522,-183 522,-153 396,-153"/>
<text text-anchor="start" x="404" y="-171" font-family="Helvetica,sans-Serif" font-size="10.00">vsomeip_v3::message</text>
<text text-anchor="middle" x="459" y="-160" font-family="Helvetica,sans-Serif" font-size="10.00">_base_impl</text>
</a>
</g>
</g>
<!-- Node4&#45;&gt;Node11 -->
<g id="edge10" class="edge">
<title>Node4&#45;&gt;Node11</title>
<path fill="none" stroke="midnightblue" d="M316.3,-135.78C340.79,-141.35 370.21,-148.04 395.88,-153.87"/>
<polygon fill="midnightblue" stroke="midnightblue" points="317.01,-132.35 306.49,-133.55 315.46,-139.18 317.01,-132.35"/>
</g>
<!-- Node8 -->
<g id="node8" class="node">
<title>Node8</title>
<g id="a_node8"><a xlink:href="classvsomeip_1_1message__impl.html" target="_top" xlink:title=" ">
<polygon fill="white" stroke="black" points="594,-218.5 594,-237.5 730,-237.5 730,-218.5 594,-218.5"/>
<text text-anchor="middle" x="662" y="-225.5" font-family="Helvetica,sans-Serif" font-size="10.00">vsomeip::message_impl</text>
</a>
</g>
</g>
<!-- Node7&#45;&gt;Node8 -->
<g id="edge7" class="edge">
<title>Node7&#45;&gt;Node8</title>
<path fill="none" stroke="midnightblue" d="M532.24,-217.75C552.33,-219.35 574.06,-221.08 593.84,-222.65"/>
<polygon fill="midnightblue" stroke="midnightblue" points="532.47,-214.26 522.22,-216.95 531.91,-221.24 532.47,-214.26"/>
</g>
<!-- Node9 -->
<g id="node9" class="node">
<title>Node9</title>
<g id="a_node9"><a xlink:href="classvsomeip__v3_1_1message__impl.html" target="_top" xlink:title=" ">
<polygon fill="white" stroke="black" points="585.5,-180.5 585.5,-199.5 738.5,-199.5 738.5,-180.5 585.5,-180.5"/>
<text text-anchor="middle" x="662" y="-187.5" font-family="Helvetica,sans-Serif" font-size="10.00">vsomeip_v3::message_impl</text>
</a>
</g>
</g>
<!-- Node7&#45;&gt;Node9 -->
<g id="edge8" class="edge">
<title>Node7&#45;&gt;Node9</title>
<path fill="none" stroke="midnightblue" d="M532.21,-204.1C549.45,-202.21 567.89,-200.19 585.28,-198.29"/>
<polygon fill="midnightblue" stroke="midnightblue" points="531.78,-200.62 522.22,-205.19 532.54,-207.58 531.78,-200.62"/>
</g>
<!-- Node10 -->
<g id="node10" class="node">
<title>Node10</title>
<g id="a_node10"><a xlink:href="classvsomeip__v3_1_1sd_1_1message__impl.html" target="_top" xlink:title=" ">
<polygon fill="white" stroke="black" points="577,-142.5 577,-161.5 747,-161.5 747,-142.5 577,-142.5"/>
<text text-anchor="middle" x="662" y="-149.5" font-family="Helvetica,sans-Serif" font-size="10.00">vsomeip_v3::sd::message_impl</text>
</a>
</g>
</g>
<!-- Node7&#45;&gt;Node10 -->
<g id="edge9" class="edge">
<title>Node7&#45;&gt;Node10</title>
<path fill="none" stroke="midnightblue" d="M521.53,-199.76C528.2,-197.79 534.81,-195.54 541,-193 558.35,-185.88 559.62,-178.05 577,-171 586.42,-167.18 596.76,-164.04 606.87,-161.51"/>
<polygon fill="midnightblue" stroke="midnightblue" points="520.47,-196.42 511.76,-202.45 522.33,-203.17 520.47,-196.42"/>
</g>
<!-- Node11&#45;&gt;Node8 -->
<g id="edge11" class="edge">
<title>Node11&#45;&gt;Node8</title>
<path fill="none" stroke="midnightblue" d="M521.73,-186.21C528.27,-188.39 534.8,-190.67 541,-193 557.39,-199.15 560.38,-203.49 577,-209 587.93,-212.63 599.88,-215.79 611.25,-218.44"/>
<polygon fill="midnightblue" stroke="midnightblue" points="522.75,-182.87 512.16,-183.1 520.59,-189.52 522.75,-182.87"/>
</g>
<!-- Node11&#45;&gt;Node9 -->
<g id="edge12" class="edge">
<title>Node11&#45;&gt;Node9</title>
<path fill="none" stroke="midnightblue" d="M532.21,-175.9C549.45,-177.79 567.89,-179.81 585.28,-181.71"/>
<polygon fill="midnightblue" stroke="midnightblue" points="532.54,-172.42 522.22,-174.81 531.78,-179.38 532.54,-172.42"/>
</g>
<!-- Node11&#45;&gt;Node10 -->
<g id="edge13" class="edge">
<title>Node11&#45;&gt;Node10</title>
<path fill="none" stroke="midnightblue" d="M532.54,-162.23C546.94,-161.08 562.17,-159.87 576.91,-158.69"/>
<polygon fill="midnightblue" stroke="midnightblue" points="531.91,-158.76 522.22,-163.05 532.47,-165.74 531.91,-158.76"/>
</g>
<!-- Node13 -->
<g id="node13" class="node">
<title>Node13</title>
<g id="a_node13"><a xlink:href="classvsomeip_1_1payload__impl.html" target="_top" xlink:title=" ">
<polygon fill="white" stroke="black" points="393.5,-38.5 393.5,-57.5 524.5,-57.5 524.5,-38.5 393.5,-38.5"/>
<text text-anchor="middle" x="459" y="-45.5" font-family="Helvetica,sans-Serif" font-size="10.00">vsomeip::payload_impl</text>
</a>
</g>
</g>
<!-- Node12&#45;&gt;Node13 -->
<g id="edge15" class="edge">
<title>Node12&#45;&gt;Node13</title>
<path fill="none" stroke="midnightblue" d="M334.32,-48C353.53,-48 374.27,-48 393.18,-48"/>
<polygon fill="midnightblue" stroke="midnightblue" points="334.14,-44.5 324.14,-48 334.14,-51.5 334.14,-44.5"/>
</g>
<!-- Node14 -->
<g id="node14" class="node">
<title>Node14</title>
<g id="a_node14"><a xlink:href="classvsomeip__v3_1_1payload__impl.html" target="_top" xlink:title=" ">
<polygon fill="white" stroke="black" points="385,-0.5 385,-19.5 533,-19.5 533,-0.5 385,-0.5"/>
<text text-anchor="middle" x="459" y="-7.5" font-family="Helvetica,sans-Serif" font-size="10.00">vsomeip_v3::payload_impl</text>
</a>
</g>
</g>
<!-- Node12&#45;&gt;Node14 -->
<g id="edge16" class="edge">
<title>Node12&#45;&gt;Node14</title>
<path fill="none" stroke="midnightblue" d="M323.25,-36.46C350.85,-31.04 383.35,-24.66 409.52,-19.52"/>
<polygon fill="midnightblue" stroke="midnightblue" points="322.47,-33.05 313.33,-38.41 323.82,-39.92 322.47,-33.05"/>
</g>
</g>
</svg>
