<?xml version="1.0" encoding="UTF-8" standalone="no"?>
<!DOCTYPE svg PUBLIC "-//W3C//DTD SVG 1.1//EN"
 "http://www.w3.org/Graphics/SVG/1.1/DTD/svg11.dtd">
<!-- Generated by graphviz version 2.43.0 (0)
 -->
<!-- Title: vsomeip_v3::message_header_impl Pages: 1 -->
<svg width="314pt" height="163pt"
 viewBox="0.00 0.00 314.00 163.00" xmlns="http://www.w3.org/2000/svg" xmlns:xlink="http://www.w3.org/1999/xlink">
<g id="graph0" class="graph" transform="scale(1 1) rotate(0) translate(4 159)">
<title>vsomeip_v3::message_header_impl</title>
<polygon fill="white" stroke="transparent" points="-4,4 -4,-159 310,-159 310,4 -4,4"/>
<!-- Node1 -->
<g id="node1" class="node">
<title>Node1</title>
<g id="a_node1"><a xlink:title=" ">
<polygon fill="#bfbfbf" stroke="black" points="22,-0.5 22,-30.5 148,-30.5 148,-0.5 22,-0.5"/>
<text text-anchor="start" x="30" y="-18.5" font-family="Helvetica,sans-Serif" font-size="10.00">vsomeip_v3::message</text>
<text text-anchor="middle" x="85" y="-7.5" font-family="Helvetica,sans-Serif" font-size="10.00">_header_impl</text>
</a>
</g>
</g>
<!-- Node2 -->
<g id="node2" class="node">
<title>Node2</title>
<g id="a_node2"><a xlink:href="classvsomeip__v3_1_1serializable.html" target="_top" xlink:title=" ">
<polygon fill="white" stroke="black" points="0,-135.5 0,-154.5 138,-154.5 138,-135.5 0,-135.5"/>
<text text-anchor="middle" x="69" y="-142.5" font-family="Helvetica,sans-Serif" font-size="10.00">vsomeip_v3::serializable</text>
</a>
</g>
</g>
<!-- Node2&#45;&gt;Node1 -->
<g id="edge1" class="edge">
<title>Node2&#45;&gt;Node1</title>
<path fill="none" stroke="midnightblue" d="M71.35,-125.24C74.59,-99.46 80.34,-53.65 83.23,-30.59"/>
<polygon fill="midnightblue" stroke="midnightblue" points="67.87,-124.88 70.1,-135.24 74.82,-125.75 67.87,-124.88"/>
</g>
<!-- Node3 -->
<g id="node3" class="node">
<title>Node3</title>
<g id="a_node3"><a xlink:href="classvsomeip__v3_1_1message__base.html" target="_top" xlink:title="Base class to implement SOME/IP messages.">
<polygon fill="white" stroke="black" points="97.5,-78.5 97.5,-97.5 252.5,-97.5 252.5,-78.5 97.5,-78.5"/>
<text text-anchor="middle" x="175" y="-85.5" font-family="Helvetica,sans-Serif" font-size="10.00">vsomeip_v3::message_base</text>
</a>
</g>
</g>
<!-- Node2&#45;&gt;Node3 -->
<g id="edge3" class="edge">
<title>Node2&#45;&gt;Node3</title>
<path fill="none" stroke="midnightblue" d="M94.68,-130.68C114.55,-120.36 141.49,-106.39 158.55,-97.53"/>
<polygon fill="midnightblue" stroke="midnightblue" points="92.83,-127.69 85.56,-135.41 96.05,-133.91 92.83,-127.69"/>
</g>
<!-- Node3&#45;&gt;Node1 -->
<g id="edge2" class="edge">
<title>Node3&#45;&gt;Node1</title>
<path fill="none" stroke="#9a32cd" stroke-dasharray="5,2" d="M156.01,-72.13C140.37,-59.87 118.33,-42.61 102.97,-30.58"/>
<polygon fill="#9a32cd" stroke="#9a32cd" points="153.93,-74.94 163.96,-78.36 158.25,-69.43 153.93,-74.94"/>
<text text-anchor="middle" x="158.5" y="-52" font-family="Helvetica,sans-Serif" font-size="10.00"> owner_</text>
</g>
<!-- Node4 -->
<g id="node4" class="node">
<title>Node4</title>
<g id="a_node4"><a xlink:href="classvsomeip__v3_1_1deserializable.html" target="_top" xlink:title=" ">
<polygon fill="white" stroke="black" points="156,-135.5 156,-154.5 306,-154.5 306,-135.5 156,-135.5"/>
<text text-anchor="middle" x="231" y="-142.5" font-family="Helvetica,sans-Serif" font-size="10.00">vsomeip_v3::deserializable</text>
</a>
</g>
</g>
<!-- Node4&#45;&gt;Node3 -->
<g id="edge4" class="edge">
<title>Node4&#45;&gt;Node3</title>
<path fill="none" stroke="midnightblue" d="M214.83,-128.12C204.76,-118.22 192.17,-105.86 183.87,-97.71"/>
<polygon fill="midnightblue" stroke="midnightblue" points="212.66,-130.9 222.25,-135.41 217.57,-125.9 212.66,-130.9"/>
</g>
</g>
</svg>
