<?xml version="1.0" encoding="UTF-8" standalone="no"?>
<!DOCTYPE svg PUBLIC "-//W3C//DTD SVG 1.1//EN"
 "http://www.w3.org/Graphics/SVG/1.1/DTD/svg11.dtd">
<!-- Generated by graphviz version 2.43.0 (0)
 -->
<!-- Title: vsomeip_v3::sd::selective_option_impl Pages: 1 -->
<svg width="316pt" height="510pt"
 viewBox="0.00 0.00 316.00 510.00" xmlns="http://www.w3.org/2000/svg" xmlns:xlink="http://www.w3.org/1999/xlink">
<g id="graph0" class="graph" transform="scale(1 1) rotate(0) translate(4 506)">
<title>vsomeip_v3::sd::selective_option_impl</title>
<polygon fill="white" stroke="transparent" points="-4,4 -4,-506 312,-506 312,4 -4,4"/>
<!-- Node1 -->
<g id="node1" class="node">
<title>Node1</title>
<g id="a_node1"><a xlink:title=" ">
<polygon fill="#bfbfbf" stroke="black" points="127.5,-0.5 127.5,-30.5 270.5,-30.5 270.5,-0.5 127.5,-0.5"/>
<text text-anchor="start" x="135.5" y="-18.5" font-family="Helvetica,sans-Serif" font-size="10.00">vsomeip_v3::sd::selective</text>
<text text-anchor="middle" x="199" y="-7.5" font-family="Helvetica,sans-Serif" font-size="10.00">_option_impl</text>
</a>
</g>
</g>
<!-- Node2 -->
<g id="node2" class="node">
<title>Node2</title>
<g id="a_node2"><a xlink:href="classvsomeip__v3_1_1sd_1_1option__impl.html" target="_top" xlink:title=" ">
<polygon fill="white" stroke="black" points="120.5,-68.5 120.5,-87.5 277.5,-87.5 277.5,-68.5 120.5,-68.5"/>
<text text-anchor="middle" x="199" y="-75.5" font-family="Helvetica,sans-Serif" font-size="10.00">vsomeip_v3::sd::option_impl</text>
</a>
</g>
</g>
<!-- Node2&#45;&gt;Node1 -->
<g id="edge1" class="edge">
<title>Node2&#45;&gt;Node1</title>
<path fill="none" stroke="midnightblue" d="M199,-58.22C199,-49.36 199,-38.96 199,-30.76"/>
<polygon fill="midnightblue" stroke="midnightblue" points="195.5,-58.33 199,-68.33 202.5,-58.33 195.5,-58.33"/>
</g>
<!-- Node3 -->
<g id="node3" class="node">
<title>Node3</title>
<g id="a_node3"><a xlink:href="classvsomeip__v3_1_1sd_1_1message__element__impl.html" target="_top" xlink:title=" ">
<polygon fill="white" stroke="black" points="127.5,-125.5 127.5,-155.5 270.5,-155.5 270.5,-125.5 127.5,-125.5"/>
<text text-anchor="start" x="135.5" y="-143.5" font-family="Helvetica,sans-Serif" font-size="10.00">vsomeip_v3::sd::message</text>
<text text-anchor="middle" x="199" y="-132.5" font-family="Helvetica,sans-Serif" font-size="10.00">_element_impl</text>
</a>
</g>
</g>
<!-- Node3&#45;&gt;Node2 -->
<g id="edge2" class="edge">
<title>Node3&#45;&gt;Node2</title>
<path fill="none" stroke="midnightblue" d="M199,-115.35C199,-105.51 199,-94.78 199,-87.54"/>
<polygon fill="midnightblue" stroke="midnightblue" points="195.5,-115.47 199,-125.47 202.5,-115.47 195.5,-115.47"/>
</g>
<!-- Node4 -->
<g id="node4" class="node">
<title>Node4</title>
<g id="a_node4"><a xlink:href="classvsomeip__v3_1_1sd_1_1message__impl.html" target="_top" xlink:title=" ">
<polygon fill="white" stroke="black" points="114,-203.5 114,-222.5 284,-222.5 284,-203.5 114,-203.5"/>
<text text-anchor="middle" x="199" y="-210.5" font-family="Helvetica,sans-Serif" font-size="10.00">vsomeip_v3::sd::message_impl</text>
</a>
</g>
</g>
<!-- Node4&#45;&gt;Node3 -->
<g id="edge3" class="edge">
<title>Node4&#45;&gt;Node3</title>
<path fill="none" stroke="#9a32cd" stroke-dasharray="5,2" d="M199,-193.24C199,-181.41 199,-166.38 199,-155.58"/>
<polygon fill="#9a32cd" stroke="#9a32cd" points="195.5,-193.36 199,-203.36 202.5,-193.36 195.5,-193.36"/>
<text text-anchor="middle" x="218.5" y="-177" font-family="Helvetica,sans-Serif" font-size="10.00"> owner_</text>
</g>
<!-- Node5 -->
<g id="node5" class="node">
<title>Node5</title>
<g id="a_node5"><a xlink:href="classvsomeip__v3_1_1message.html" target="_top" xlink:title="Implements regular SOME/IP messages.">
<polygon fill="white" stroke="black" points="182,-309.5 182,-328.5 308,-328.5 308,-309.5 182,-309.5"/>
<text text-anchor="middle" x="245" y="-316.5" font-family="Helvetica,sans-Serif" font-size="10.00">vsomeip_v3::message</text>
</a>
</g>
</g>
<!-- Node5&#45;&gt;Node4 -->
<g id="edge4" class="edge">
<title>Node5&#45;&gt;Node4</title>
<path fill="none" stroke="midnightblue" d="M239.98,-299.3C236.61,-287.74 231.74,-272.74 226,-260 219.83,-246.32 210.66,-231.54 204.75,-222.52"/>
<polygon fill="midnightblue" stroke="midnightblue" points="236.67,-300.45 242.73,-309.13 243.41,-298.56 236.67,-300.45"/>
</g>
<!-- Node6 -->
<g id="node6" class="node">
<title>Node6</title>
<g id="a_node6"><a xlink:href="classvsomeip__v3_1_1message__base.html" target="_top" xlink:title="Base class to implement SOME/IP messages.">
<polygon fill="white" stroke="black" points="97.5,-425.5 97.5,-444.5 252.5,-444.5 252.5,-425.5 97.5,-425.5"/>
<text text-anchor="middle" x="175" y="-432.5" font-family="Helvetica,sans-Serif" font-size="10.00">vsomeip_v3::message_base</text>
</a>
</g>
</g>
<!-- Node6&#45;&gt;Node5 -->
<g id="edge5" class="edge">
<title>Node6&#45;&gt;Node5</title>
<path fill="none" stroke="midnightblue" d="M185.6,-416.74C200.78,-392.01 228.17,-347.41 239.68,-328.67"/>
<polygon fill="midnightblue" stroke="midnightblue" points="182.51,-415.08 180.26,-425.43 188.48,-418.74 182.51,-415.08"/>
</g>
<!-- Node9 -->
<g id="node9" class="node">
<title>Node9</title>
<g id="a_node9"><a xlink:href="classvsomeip__v3_1_1message__base__impl.html" target="_top" xlink:title=" ">
<polygon fill="white" stroke="black" points="91,-260.5 91,-290.5 217,-290.5 217,-260.5 91,-260.5"/>
<text text-anchor="start" x="99" y="-278.5" font-family="Helvetica,sans-Serif" font-size="10.00">vsomeip_v3::message</text>
<text text-anchor="middle" x="154" y="-267.5" font-family="Helvetica,sans-Serif" font-size="10.00">_base_impl</text>
</a>
</g>
</g>
<!-- Node6&#45;&gt;Node9 -->
<g id="edge9" class="edge">
<title>Node6&#45;&gt;Node9</title>
<path fill="none" stroke="midnightblue" d="M172.44,-414.81C168.16,-382.69 159.64,-318.77 155.87,-290.51"/>
<polygon fill="midnightblue" stroke="midnightblue" points="169.02,-415.63 173.81,-425.08 175.96,-414.71 169.02,-415.63"/>
</g>
<!-- Node10 -->
<g id="node10" class="node">
<title>Node10</title>
<g id="a_node10"><a xlink:href="classvsomeip__v3_1_1message__header__impl.html" target="_top" xlink:title=" ">
<polygon fill="white" stroke="black" points="13,-347.5 13,-377.5 139,-377.5 139,-347.5 13,-347.5"/>
<text text-anchor="start" x="21" y="-365.5" font-family="Helvetica,sans-Serif" font-size="10.00">vsomeip_v3::message</text>
<text text-anchor="middle" x="76" y="-354.5" font-family="Helvetica,sans-Serif" font-size="10.00">_header_impl</text>
</a>
</g>
</g>
<!-- Node6&#45;&gt;Node10 -->
<g id="edge12" class="edge">
<title>Node6&#45;&gt;Node10</title>
<path fill="none" stroke="#9a32cd" stroke-dasharray="5,2" d="M139.68,-421.48C130.87,-417.54 121.74,-412.7 114,-407 103.02,-398.91 92.98,-387.14 85.98,-377.88"/>
<polygon fill="#9a32cd" stroke="#9a32cd" points="138.45,-424.76 149.03,-425.4 141.16,-418.31 138.45,-424.76"/>
<text text-anchor="middle" x="133.5" y="-399" font-family="Helvetica,sans-Serif" font-size="10.00"> owner_</text>
</g>
<!-- Node7 -->
<g id="node7" class="node">
<title>Node7</title>
<g id="a_node7"><a xlink:href="classvsomeip__v3_1_1serializable.html" target="_top" xlink:title=" ">
<polygon fill="white" stroke="black" points="0,-482.5 0,-501.5 138,-501.5 138,-482.5 0,-482.5"/>
<text text-anchor="middle" x="69" y="-489.5" font-family="Helvetica,sans-Serif" font-size="10.00">vsomeip_v3::serializable</text>
</a>
</g>
</g>
<!-- Node7&#45;&gt;Node6 -->
<g id="edge6" class="edge">
<title>Node7&#45;&gt;Node6</title>
<path fill="none" stroke="midnightblue" d="M94.68,-477.68C114.55,-467.36 141.49,-453.39 158.55,-444.53"/>
<polygon fill="midnightblue" stroke="midnightblue" points="92.83,-474.69 85.56,-482.41 96.05,-480.91 92.83,-474.69"/>
</g>
<!-- Node7&#45;&gt;Node10 -->
<g id="edge11" class="edge">
<title>Node7&#45;&gt;Node10</title>
<path fill="none" stroke="midnightblue" d="M70.03,-472.24C71.45,-446.46 73.96,-400.65 75.23,-377.59"/>
<polygon fill="midnightblue" stroke="midnightblue" points="66.53,-472.06 69.48,-482.24 73.52,-472.44 66.53,-472.06"/>
</g>
<!-- Node8 -->
<g id="node8" class="node">
<title>Node8</title>
<g id="a_node8"><a xlink:href="classvsomeip__v3_1_1deserializable.html" target="_top" xlink:title=" ">
<polygon fill="white" stroke="black" points="156,-482.5 156,-501.5 306,-501.5 306,-482.5 156,-482.5"/>
<text text-anchor="middle" x="231" y="-489.5" font-family="Helvetica,sans-Serif" font-size="10.00">vsomeip_v3::deserializable</text>
</a>
</g>
</g>
<!-- Node8&#45;&gt;Node6 -->
<g id="edge7" class="edge">
<title>Node8&#45;&gt;Node6</title>
<path fill="none" stroke="midnightblue" d="M214.83,-475.12C204.76,-465.22 192.17,-452.86 183.87,-444.71"/>
<polygon fill="midnightblue" stroke="midnightblue" points="212.66,-477.9 222.25,-482.41 217.57,-472.9 212.66,-477.9"/>
</g>
<!-- Node9&#45;&gt;Node4 -->
<g id="edge8" class="edge">
<title>Node9&#45;&gt;Node4</title>
<path fill="none" stroke="midnightblue" d="M170.57,-252.22C178.25,-241.9 186.92,-230.24 192.65,-222.54"/>
<polygon fill="midnightblue" stroke="midnightblue" points="167.6,-250.36 164.44,-260.47 173.21,-254.53 167.6,-250.36"/>
</g>
<!-- Node10&#45;&gt;Node9 -->
<g id="edge10" class="edge">
<title>Node10&#45;&gt;Node9</title>
<path fill="none" stroke="#9a32cd" stroke-dasharray="5,2" d="M88.48,-338.41C94.3,-328.75 101.77,-317.75 110,-309 116.38,-302.22 124.32,-295.87 131.69,-290.61"/>
<polygon fill="#9a32cd" stroke="#9a32cd" points="85.4,-336.74 83.42,-347.15 91.46,-340.24 85.4,-336.74"/>
<text text-anchor="middle" x="131.5" y="-316.5" font-family="Helvetica,sans-Serif" font-size="10.00"> header_</text>
</g>
</g>
</svg>
