<?xml version="1.0" encoding="UTF-8" standalone="no"?>
<!DOCTYPE svg PUBLIC "-//W3C//DTD SVG 1.1//EN"
 "http://www.w3.org/Graphics/SVG/1.1/DTD/svg11.dtd">
<!-- Generated by graphviz version 2.43.0 (0)
 -->
<!-- Title: boost::asio::detail::reactive_socket_service_ext_local&lt; Protocol &gt; Pages: 1 -->
<svg width="364pt" height="188pt"
 viewBox="0.00 0.00 364.00 188.30" xmlns="http://www.w3.org/2000/svg" xmlns:xlink="http://www.w3.org/1999/xlink">
<g id="graph0" class="graph" transform="scale(1 1) rotate(0) translate(4 184.3)">
<title>boost::asio::detail::reactive_socket_service_ext_local&lt; Protocol &gt;</title>
<polygon fill="white" stroke="transparent" points="-4,4 -4,-184.3 360,-184.3 360,4 -4,4"/>
<!-- Node1 -->
<g id="node1" class="node">
<title>Node1</title>
<g id="a_node1"><a xlink:title=" ">
<polygon fill="#bfbfbf" stroke="black" points="216,-132.5 216,-173.5 356,-173.5 356,-132.5 216,-132.5"/>
<text text-anchor="start" x="224" y="-161.5" font-family="Helvetica,sans-Serif" font-size="10.00">boost::asio::detail</text>
<text text-anchor="start" x="224" y="-150.5" font-family="Helvetica,sans-Serif" font-size="10.00">::reactive_socket_service</text>
<text text-anchor="middle" x="286" y="-139.5" font-family="Helvetica,sans-Serif" font-size="10.00">_ext_local&lt; Protocol &gt;</text>
</a>
</g>
</g>
<!-- Node2 -->
<g id="node2" class="node">
<title>Node2</title>
<g id="a_node2"><a xlink:href="classboost_1_1asio_1_1detail_1_1reactive__socket__service__base__ext__local.html" target="_top" xlink:title=" ">
<polygon fill="white" stroke="black" points="20,-132.5 20,-173.5 160,-173.5 160,-132.5 20,-132.5"/>
<text text-anchor="start" x="28" y="-161.5" font-family="Helvetica,sans-Serif" font-size="10.00">boost::asio::detail</text>
<text text-anchor="start" x="28" y="-150.5" font-family="Helvetica,sans-Serif" font-size="10.00">::reactive_socket_service</text>
<text text-anchor="middle" x="90" y="-139.5" font-family="Helvetica,sans-Serif" font-size="10.00">_base_ext_local</text>
</a>
</g>
</g>
<!-- Node2&#45;&gt;Node1 -->
<g id="edge1" class="edge">
<title>Node2&#45;&gt;Node1</title>
<path fill="none" stroke="midnightblue" d="M132.84,-130.33C169.04,-123.92 220.58,-124.63 253.41,-132.44"/>
<polygon fill="midnightblue" stroke="midnightblue" points="131.69,-126.99 122.6,-132.44 133.1,-133.85 131.69,-126.99"/>
</g>
<!-- Node2&#45;&gt;Node1 -->
<g id="edge3" class="edge">
<title>Node2&#45;&gt;Node1</title>
<path fill="none" stroke="midnightblue" d="M170.51,-139.7C185.53,-139.36 201.13,-139.46 215.81,-140.01"/>
<polygon fill="midnightblue" stroke="midnightblue" points="170.11,-136.21 160.22,-140 170.32,-143.2 170.11,-136.21"/>
</g>
<!-- Node2&#45;&gt;Node1 -->
<g id="edge5" class="edge">
<title>Node2&#45;&gt;Node1</title>
<path fill="none" stroke="midnightblue" d="M170.51,-153C185.53,-153 201.13,-153 215.81,-153"/>
<polygon fill="midnightblue" stroke="midnightblue" points="170.22,-149.5 160.22,-153 170.22,-156.5 170.22,-149.5"/>
</g>
<!-- Node2&#45;&gt;Node1 -->
<g id="edge7" class="edge">
<title>Node2&#45;&gt;Node1</title>
<path fill="none" stroke="midnightblue" d="M170.51,-166.3C185.53,-166.64 201.13,-166.54 215.81,-165.99"/>
<polygon fill="midnightblue" stroke="midnightblue" points="170.32,-162.8 160.22,-166 170.11,-169.79 170.32,-162.8"/>
</g>
<!-- Node2&#45;&gt;Node1 -->
<g id="edge9" class="edge">
<title>Node2&#45;&gt;Node1</title>
<path fill="none" stroke="midnightblue" d="M132.84,-175.67C169.04,-182.08 220.58,-181.37 253.41,-173.56"/>
<polygon fill="midnightblue" stroke="midnightblue" points="133.1,-172.15 122.6,-173.56 131.69,-179.01 133.1,-172.15"/>
</g>
<!-- Node3 -->
<g id="node3" class="node">
<title>Node3</title>
<g id="a_node3"><a xlink:title=" ">
<polygon fill="white" stroke="black" points="18.5,-61 18.5,-113 161.5,-113 161.5,-61 18.5,-61"/>
<text text-anchor="start" x="26.5" y="-101" font-family="Helvetica,sans-Serif" font-size="10.00">boost::asio::detail</text>
<text text-anchor="start" x="26.5" y="-90" font-family="Helvetica,sans-Serif" font-size="10.00">::service_base&lt; reactive</text>
<text text-anchor="start" x="26.5" y="-79" font-family="Helvetica,sans-Serif" font-size="10.00">_socket_service_ext_local</text>
<text text-anchor="middle" x="90" y="-68" font-family="Helvetica,sans-Serif" font-size="10.00">&lt; Protocol &gt; &gt;</text>
</a>
</g>
</g>
<!-- Node3&#45;&gt;Node1 -->
<g id="edge2" class="edge">
<title>Node3&#45;&gt;Node1</title>
<path fill="none" stroke="midnightblue" d="M171.4,-114.35C189.23,-120.42 207.83,-126.75 224.7,-132.48"/>
<polygon fill="midnightblue" stroke="midnightblue" points="172.18,-110.92 161.59,-111.01 169.93,-117.55 172.18,-110.92"/>
</g>
<!-- Node4 -->
<g id="node4" class="node">
<title>Node4</title>
<g id="a_node4"><a xlink:title=" ">
<polygon fill="white" stroke="black" points="0,-0.5 0,-41.5 180,-41.5 180,-0.5 0,-0.5"/>
<text text-anchor="start" x="8" y="-29.5" font-family="Helvetica,sans-Serif" font-size="10.00">execution_context_service</text>
<text text-anchor="start" x="8" y="-18.5" font-family="Helvetica,sans-Serif" font-size="10.00">_base&lt; reactive_socket</text>
<text text-anchor="middle" x="90" y="-7.5" font-family="Helvetica,sans-Serif" font-size="10.00">_service_ext_local&lt; Protocol &gt; &gt;</text>
</a>
</g>
</g>
<!-- Node4&#45;&gt;Node1 -->
<g id="edge4" class="edge">
<title>Node4&#45;&gt;Node1</title>
<path fill="none" stroke="midnightblue" d="M189.03,-39.86C227.12,-65.94 261.4,-106.07 276.64,-132.07"/>
<polygon fill="midnightblue" stroke="midnightblue" points="190.61,-36.72 180.32,-34.2 186.8,-42.59 190.61,-36.72"/>
</g>
<!-- Node4&#45;&gt;Node1 -->
<g id="edge6" class="edge">
<title>Node4&#45;&gt;Node1</title>
<path fill="none" stroke="midnightblue" d="M169.28,-46.03C172.97,-47.91 176.57,-49.89 180,-52 215.78,-73.97 249.31,-109.91 268.46,-132.47"/>
<polygon fill="midnightblue" stroke="midnightblue" points="170.47,-42.72 159.93,-41.61 167.47,-49.05 170.47,-42.72"/>
</g>
<!-- Node4&#45;&gt;Node1 -->
<g id="edge8" class="edge">
<title>Node4&#45;&gt;Node1</title>
<path fill="none" stroke="midnightblue" d="M126.06,-45.62C143.11,-52.44 163.45,-59.84 180,-70 208.24,-87.34 235.07,-113.38 254.54,-132.26"/>
<polygon fill="midnightblue" stroke="midnightblue" points="127.03,-42.24 116.45,-41.66 124.36,-48.71 127.03,-42.24"/>
</g>
</g>
</svg>
