<?xml version="1.0" encoding="UTF-8" standalone="no"?>
<!DOCTYPE svg PUBLIC "-//W3C//DTD SVG 1.1//EN"
 "http://www.w3.org/Graphics/SVG/1.1/DTD/svg11.dtd">
<!-- Generated by graphviz version 2.43.0 (0)
 -->
<!-- Title: vsomeip_v3::client_endpoint Pages: 1 -->
<svg width="641pt" height="137pt"
 viewBox="0.00 0.00 641.00 137.00" xmlns="http://www.w3.org/2000/svg" xmlns:xlink="http://www.w3.org/1999/xlink">
<g id="graph0" class="graph" transform="scale(1 1) rotate(0) translate(4 133)">
<title>vsomeip_v3::client_endpoint</title>
<polygon fill="white" stroke="transparent" points="-4,4 -4,-133 637,-133 637,4 -4,4"/>
<!-- Node1 -->
<g id="node1" class="node">
<title>Node1</title>
<g id="a_node1"><a xlink:title=" ">
<polygon fill="#bfbfbf" stroke="black" points="161,-49.5 161,-79.5 270,-79.5 270,-49.5 161,-49.5"/>
<text text-anchor="start" x="169" y="-67.5" font-family="Helvetica,sans-Serif" font-size="10.00">vsomeip_v3::client</text>
<text text-anchor="middle" x="215.5" y="-56.5" font-family="Helvetica,sans-Serif" font-size="10.00">_endpoint</text>
</a>
</g>
</g>
<!-- Node3 -->
<g id="node3" class="node">
<title>Node3</title>
<g id="a_node3"><a xlink:href="classvsomeip__v3_1_1client__endpoint__impl.html" target="_top" xlink:title=" ">
<polygon fill="white" stroke="black" points="306,-49.5 306,-79.5 460,-79.5 460,-49.5 306,-49.5"/>
<text text-anchor="start" x="314" y="-67.5" font-family="Helvetica,sans-Serif" font-size="10.00">vsomeip_v3::client</text>
<text text-anchor="middle" x="383" y="-56.5" font-family="Helvetica,sans-Serif" font-size="10.00">_endpoint_impl&lt; Protocol &gt;</text>
</a>
</g>
</g>
<!-- Node1&#45;&gt;Node3 -->
<g id="edge2" class="edge">
<title>Node1&#45;&gt;Node3</title>
<path fill="none" stroke="midnightblue" d="M280.32,-64.5C288.73,-64.5 297.41,-64.5 305.99,-64.5"/>
<polygon fill="midnightblue" stroke="midnightblue" points="280.23,-61 270.23,-64.5 280.23,-68 280.23,-61"/>
</g>
<!-- Node2 -->
<g id="node2" class="node">
<title>Node2</title>
<g id="a_node2"><a xlink:href="classvsomeip__v3_1_1endpoint.html" target="_top" xlink:title=" ">
<polygon fill="white" stroke="black" points="0,-55 0,-74 125,-74 125,-55 0,-55"/>
<text text-anchor="middle" x="62.5" y="-62" font-family="Helvetica,sans-Serif" font-size="10.00">vsomeip_v3::endpoint</text>
</a>
</g>
</g>
<!-- Node2&#45;&gt;Node1 -->
<g id="edge1" class="edge">
<title>Node2&#45;&gt;Node1</title>
<path fill="none" stroke="midnightblue" d="M135.61,-64.5C144.06,-64.5 152.58,-64.5 160.72,-64.5"/>
<polygon fill="midnightblue" stroke="midnightblue" points="135.35,-61 125.35,-64.5 135.35,-68 135.35,-61"/>
</g>
<!-- Node4 -->
<g id="node4" class="node">
<title>Node4</title>
<g id="a_node4"><a xlink:href="classvsomeip__v3_1_1local__client__endpoint__impl.html" target="_top" xlink:title=" ">
<polygon fill="white" stroke="black" points="496,-98.5 496,-128.5 633,-128.5 633,-98.5 496,-98.5"/>
<text text-anchor="start" x="504" y="-116.5" font-family="Helvetica,sans-Serif" font-size="10.00">vsomeip_v3::local_client</text>
<text text-anchor="middle" x="564.5" y="-105.5" font-family="Helvetica,sans-Serif" font-size="10.00">_endpoint_impl</text>
</a>
</g>
</g>
<!-- Node3&#45;&gt;Node4 -->
<g id="edge3" class="edge">
<title>Node3&#45;&gt;Node4</title>
<path fill="none" stroke="midnightblue" d="M449.02,-82.25C468.47,-87.56 489.61,-93.33 508.36,-98.45"/>
<polygon fill="midnightblue" stroke="midnightblue" points="449.89,-78.86 439.32,-79.6 448.05,-85.61 449.89,-78.86"/>
</g>
<!-- Node5 -->
<g id="node5" class="node">
<title>Node5</title>
<g id="a_node5"><a xlink:href="classvsomeip__v3_1_1tcp__client__endpoint__impl.html" target="_top" xlink:title=" ">
<polygon fill="white" stroke="black" points="500,-49.5 500,-79.5 629,-79.5 629,-49.5 500,-49.5"/>
<text text-anchor="start" x="508" y="-67.5" font-family="Helvetica,sans-Serif" font-size="10.00">vsomeip_v3::tcp_client</text>
<text text-anchor="middle" x="564.5" y="-56.5" font-family="Helvetica,sans-Serif" font-size="10.00">_endpoint_impl</text>
</a>
</g>
</g>
<!-- Node3&#45;&gt;Node5 -->
<g id="edge4" class="edge">
<title>Node3&#45;&gt;Node5</title>
<path fill="none" stroke="midnightblue" d="M470.14,-64.5C480.2,-64.5 490.32,-64.5 499.99,-64.5"/>
<polygon fill="midnightblue" stroke="midnightblue" points="470.12,-61 460.12,-64.5 470.12,-68 470.12,-61"/>
</g>
<!-- Node6 -->
<g id="node6" class="node">
<title>Node6</title>
<g id="a_node6"><a xlink:href="classvsomeip__v3_1_1udp__client__endpoint__impl.html" target="_top" xlink:title=" ">
<polygon fill="white" stroke="black" points="498.5,-0.5 498.5,-30.5 630.5,-30.5 630.5,-0.5 498.5,-0.5"/>
<text text-anchor="start" x="506.5" y="-18.5" font-family="Helvetica,sans-Serif" font-size="10.00">vsomeip_v3::udp_client</text>
<text text-anchor="middle" x="564.5" y="-7.5" font-family="Helvetica,sans-Serif" font-size="10.00">_endpoint_impl</text>
</a>
</g>
</g>
<!-- Node3&#45;&gt;Node6 -->
<g id="edge5" class="edge">
<title>Node3&#45;&gt;Node6</title>
<path fill="none" stroke="midnightblue" d="M449.02,-46.75C468.47,-41.44 489.61,-35.67 508.36,-30.55"/>
<polygon fill="midnightblue" stroke="midnightblue" points="448.05,-43.39 439.32,-49.4 449.89,-50.14 448.05,-43.39"/>
</g>
</g>
</svg>
