<?xml version="1.0" encoding="UTF-8" standalone="no"?>
<!DOCTYPE svg PUBLIC "-//W3C//DTD SVG 1.1//EN"
 "http://www.w3.org/Graphics/SVG/1.1/DTD/svg11.dtd">
<!-- Generated by graphviz version 2.43.0 (0)
 -->
<!-- Title: vsomeip::message_impl Pages: 1 -->
<svg width="316pt" height="307pt"
 viewBox="0.00 0.00 316.00 307.00" xmlns="http://www.w3.org/2000/svg" xmlns:xlink="http://www.w3.org/1999/xlink">
<g id="graph0" class="graph" transform="scale(1 1) rotate(0) translate(4 303)">
<title>vsomeip::message_impl</title>
<polygon fill="white" stroke="transparent" points="-4,4 -4,-303 312,-303 312,4 -4,4"/>
<!-- Node1 -->
<g id="node1" class="node">
<title>Node1</title>
<g id="a_node1"><a xlink:title=" ">
<polygon fill="#bfbfbf" stroke="black" points="131,-0.5 131,-19.5 267,-19.5 267,-0.5 131,-0.5"/>
<text text-anchor="middle" x="199" y="-7.5" font-family="Helvetica,sans-Serif" font-size="10.00">vsomeip::message_impl</text>
</a>
</g>
</g>
<!-- Node2 -->
<g id="node2" class="node">
<title>Node2</title>
<g id="a_node2"><a xlink:href="classvsomeip__v3_1_1message__base__impl.html" target="_top" xlink:title=" ">
<polygon fill="white" stroke="black" points="91,-57.5 91,-87.5 217,-87.5 217,-57.5 91,-57.5"/>
<text text-anchor="start" x="99" y="-75.5" font-family="Helvetica,sans-Serif" font-size="10.00">vsomeip_v3::message</text>
<text text-anchor="middle" x="154" y="-64.5" font-family="Helvetica,sans-Serif" font-size="10.00">_base_impl</text>
</a>
</g>
</g>
<!-- Node2&#45;&gt;Node1 -->
<g id="edge1" class="edge">
<title>Node2&#45;&gt;Node1</title>
<path fill="none" stroke="midnightblue" d="M170.57,-49.22C178.25,-38.9 186.92,-27.24 192.65,-19.54"/>
<polygon fill="midnightblue" stroke="midnightblue" points="167.6,-47.36 164.44,-57.47 173.21,-51.53 167.6,-47.36"/>
</g>
<!-- Node3 -->
<g id="node3" class="node">
<title>Node3</title>
<g id="a_node3"><a xlink:href="classvsomeip__v3_1_1message__base.html" target="_top" xlink:title="Base class to implement SOME/IP messages.">
<polygon fill="white" stroke="black" points="97.5,-222.5 97.5,-241.5 252.5,-241.5 252.5,-222.5 97.5,-222.5"/>
<text text-anchor="middle" x="175" y="-229.5" font-family="Helvetica,sans-Serif" font-size="10.00">vsomeip_v3::message_base</text>
</a>
</g>
</g>
<!-- Node3&#45;&gt;Node2 -->
<g id="edge2" class="edge">
<title>Node3&#45;&gt;Node2</title>
<path fill="none" stroke="midnightblue" d="M172.44,-211.81C168.16,-179.69 159.64,-115.77 155.87,-87.51"/>
<polygon fill="midnightblue" stroke="midnightblue" points="169.02,-212.63 173.81,-222.08 175.96,-211.71 169.02,-212.63"/>
</g>
<!-- Node6 -->
<g id="node6" class="node">
<title>Node6</title>
<g id="a_node6"><a xlink:href="classvsomeip__v3_1_1message__header__impl.html" target="_top" xlink:title=" ">
<polygon fill="white" stroke="black" points="13,-144.5 13,-174.5 139,-174.5 139,-144.5 13,-144.5"/>
<text text-anchor="start" x="21" y="-162.5" font-family="Helvetica,sans-Serif" font-size="10.00">vsomeip_v3::message</text>
<text text-anchor="middle" x="76" y="-151.5" font-family="Helvetica,sans-Serif" font-size="10.00">_header_impl</text>
</a>
</g>
</g>
<!-- Node3&#45;&gt;Node6 -->
<g id="edge7" class="edge">
<title>Node3&#45;&gt;Node6</title>
<path fill="none" stroke="#9a32cd" stroke-dasharray="5,2" d="M139.68,-218.48C130.87,-214.54 121.74,-209.7 114,-204 103.02,-195.91 92.98,-184.14 85.98,-174.88"/>
<polygon fill="#9a32cd" stroke="#9a32cd" points="138.45,-221.76 149.03,-222.4 141.16,-215.31 138.45,-221.76"/>
<text text-anchor="middle" x="133.5" y="-196" font-family="Helvetica,sans-Serif" font-size="10.00"> owner_</text>
</g>
<!-- Node7 -->
<g id="node7" class="node">
<title>Node7</title>
<g id="a_node7"><a xlink:href="classvsomeip__v3_1_1message.html" target="_top" xlink:title="Implements regular SOME/IP messages.">
<polygon fill="white" stroke="black" points="182,-106.5 182,-125.5 308,-125.5 308,-106.5 182,-106.5"/>
<text text-anchor="middle" x="245" y="-113.5" font-family="Helvetica,sans-Serif" font-size="10.00">vsomeip_v3::message</text>
</a>
</g>
</g>
<!-- Node3&#45;&gt;Node7 -->
<g id="edge9" class="edge">
<title>Node3&#45;&gt;Node7</title>
<path fill="none" stroke="midnightblue" d="M185.6,-213.74C200.78,-189.01 228.17,-144.41 239.68,-125.67"/>
<polygon fill="midnightblue" stroke="midnightblue" points="182.51,-212.08 180.26,-222.43 188.48,-215.74 182.51,-212.08"/>
</g>
<!-- Node4 -->
<g id="node4" class="node">
<title>Node4</title>
<g id="a_node4"><a xlink:href="classvsomeip__v3_1_1serializable.html" target="_top" xlink:title=" ">
<polygon fill="white" stroke="black" points="0,-279.5 0,-298.5 138,-298.5 138,-279.5 0,-279.5"/>
<text text-anchor="middle" x="69" y="-286.5" font-family="Helvetica,sans-Serif" font-size="10.00">vsomeip_v3::serializable</text>
</a>
</g>
</g>
<!-- Node4&#45;&gt;Node3 -->
<g id="edge3" class="edge">
<title>Node4&#45;&gt;Node3</title>
<path fill="none" stroke="midnightblue" d="M94.68,-274.68C114.55,-264.36 141.49,-250.39 158.55,-241.53"/>
<polygon fill="midnightblue" stroke="midnightblue" points="92.83,-271.69 85.56,-279.41 96.05,-277.91 92.83,-271.69"/>
</g>
<!-- Node4&#45;&gt;Node6 -->
<g id="edge6" class="edge">
<title>Node4&#45;&gt;Node6</title>
<path fill="none" stroke="midnightblue" d="M70.03,-269.24C71.45,-243.46 73.96,-197.65 75.23,-174.59"/>
<polygon fill="midnightblue" stroke="midnightblue" points="66.53,-269.06 69.48,-279.24 73.52,-269.44 66.53,-269.06"/>
</g>
<!-- Node5 -->
<g id="node5" class="node">
<title>Node5</title>
<g id="a_node5"><a xlink:href="classvsomeip__v3_1_1deserializable.html" target="_top" xlink:title=" ">
<polygon fill="white" stroke="black" points="156,-279.5 156,-298.5 306,-298.5 306,-279.5 156,-279.5"/>
<text text-anchor="middle" x="231" y="-286.5" font-family="Helvetica,sans-Serif" font-size="10.00">vsomeip_v3::deserializable</text>
</a>
</g>
</g>
<!-- Node5&#45;&gt;Node3 -->
<g id="edge4" class="edge">
<title>Node5&#45;&gt;Node3</title>
<path fill="none" stroke="midnightblue" d="M214.83,-272.12C204.76,-262.22 192.17,-249.86 183.87,-241.71"/>
<polygon fill="midnightblue" stroke="midnightblue" points="212.66,-274.9 222.25,-279.41 217.57,-269.9 212.66,-274.9"/>
</g>
<!-- Node6&#45;&gt;Node2 -->
<g id="edge5" class="edge">
<title>Node6&#45;&gt;Node2</title>
<path fill="none" stroke="#9a32cd" stroke-dasharray="5,2" d="M88.48,-135.41C94.3,-125.75 101.77,-114.75 110,-106 116.38,-99.22 124.32,-92.87 131.69,-87.61"/>
<polygon fill="#9a32cd" stroke="#9a32cd" points="85.4,-133.74 83.42,-144.15 91.46,-137.24 85.4,-133.74"/>
<text text-anchor="middle" x="131.5" y="-113.5" font-family="Helvetica,sans-Serif" font-size="10.00"> header_</text>
</g>
<!-- Node7&#45;&gt;Node1 -->
<g id="edge8" class="edge">
<title>Node7&#45;&gt;Node1</title>
<path fill="none" stroke="midnightblue" d="M239.98,-96.3C236.61,-84.74 231.74,-69.74 226,-57 219.83,-43.32 210.66,-28.54 204.75,-19.52"/>
<polygon fill="midnightblue" stroke="midnightblue" points="236.67,-97.45 242.73,-106.13 243.41,-95.56 236.67,-97.45"/>
</g>
</g>
</svg>
