<?xml version="1.0" encoding="UTF-8" standalone="no"?>
<!DOCTYPE svg PUBLIC "-//W3C//DTD SVG 1.1//EN"
 "http://www.w3.org/Graphics/SVG/1.1/DTD/svg11.dtd">
<!-- Generated by graphviz version 2.43.0 (0)
 -->
<!-- Title: vsomeip_v3::application_impl Pages: 1 -->
<svg width="343pt" height="138pt"
 viewBox="0.00 0.00 343.00 138.00" xmlns="http://www.w3.org/2000/svg" xmlns:xlink="http://www.w3.org/1999/xlink">
<g id="graph0" class="graph" transform="scale(1 1) rotate(0) translate(4 134)">
<title>vsomeip_v3::application_impl</title>
<polygon fill="white" stroke="transparent" points="-4,4 -4,-134 339,-134 339,4 -4,4"/>
<!-- Node1 -->
<g id="node1" class="node">
<title>Node1</title>
<g id="a_node1"><a xlink:title=" ">
<polygon fill="#bfbfbf" stroke="black" points="172,-66.5 172,-85.5 335,-85.5 335,-66.5 172,-66.5"/>
<text text-anchor="middle" x="253.5" y="-73.5" font-family="Helvetica,sans-Serif" font-size="10.00">vsomeip_v3::application_impl</text>
</a>
</g>
</g>
<!-- Node2 -->
<g id="node2" class="node">
<title>Node2</title>
<g id="a_node2"><a xlink:href="classvsomeip__v3_1_1application.html" target="_top" xlink:title="This class contains the public API of the vsomeip implementation.">
<polygon fill="white" stroke="black" points="0,-110.5 0,-129.5 136,-129.5 136,-110.5 0,-110.5"/>
<text text-anchor="middle" x="68" y="-117.5" font-family="Helvetica,sans-Serif" font-size="10.00">vsomeip_v3::application</text>
</a>
</g>
</g>
<!-- Node2&#45;&gt;Node1 -->
<g id="edge1" class="edge">
<title>Node2&#45;&gt;Node1</title>
<path fill="none" stroke="midnightblue" d="M118.92,-108.03C148.41,-100.96 185.25,-92.13 212.76,-85.53"/>
<polygon fill="midnightblue" stroke="midnightblue" points="117.72,-104.72 108.82,-110.45 119.36,-111.52 117.72,-104.72"/>
</g>
<!-- Node3 -->
<g id="node3" class="node">
<title>Node3</title>
<g id="a_node3"><a xlink:href="classvsomeip__v3_1_1routing__manager__host.html" target="_top" xlink:title=" ">
<polygon fill="white" stroke="black" points="10,-61 10,-91 126,-91 126,-61 10,-61"/>
<text text-anchor="start" x="18" y="-79" font-family="Helvetica,sans-Serif" font-size="10.00">vsomeip_v3::routing</text>
<text text-anchor="middle" x="68" y="-68" font-family="Helvetica,sans-Serif" font-size="10.00">_manager_host</text>
</a>
</g>
</g>
<!-- Node3&#45;&gt;Node1 -->
<g id="edge2" class="edge">
<title>Node3&#45;&gt;Node1</title>
<path fill="none" stroke="midnightblue" d="M136.11,-76C147.75,-76 159.95,-76 171.9,-76"/>
<polygon fill="midnightblue" stroke="midnightblue" points="136.05,-72.5 126.05,-76 136.05,-79.5 136.05,-72.5"/>
</g>
<!-- Node4 -->
<g id="node4" class="node">
<title>Node4</title>
<g id="a_node4"><a xlink:title=" ">
<polygon fill="white" stroke="black" points="1,-0.5 1,-41.5 135,-41.5 135,-0.5 1,-0.5"/>
<text text-anchor="start" x="9" y="-29.5" font-family="Helvetica,sans-Serif" font-size="10.00">std::enable_shared</text>
<text text-anchor="start" x="9" y="-18.5" font-family="Helvetica,sans-Serif" font-size="10.00">_from_this&lt; application</text>
<text text-anchor="middle" x="68" y="-7.5" font-family="Helvetica,sans-Serif" font-size="10.00">_impl &gt;</text>
</a>
</g>
</g>
<!-- Node4&#45;&gt;Node1 -->
<g id="edge3" class="edge">
<title>Node4&#45;&gt;Node1</title>
<path fill="none" stroke="midnightblue" d="M144.93,-43.76C171.48,-51.72 199.86,-60.22 220.8,-66.5"/>
<polygon fill="midnightblue" stroke="midnightblue" points="145.83,-40.37 135.25,-40.86 143.82,-47.08 145.83,-40.37"/>
</g>
</g>
</svg>
