<?xml version="1.0" encoding="UTF-8" standalone="no"?>
<!DOCTYPE svg PUBLIC "-//W3C//DTD SVG 1.1//EN"
 "http://www.w3.org/Graphics/SVG/1.1/DTD/svg11.dtd">
<!-- Generated by graphviz version 2.43.0 (0)
 -->
<!-- Title: boost::asio::detail::reactive_socket_recvfrom_op_base_ext&lt; MutableBufferSequence, Endpoint &gt; Pages: 1 -->
<svg width="687pt" height="63pt"
 viewBox="0.00 0.00 687.00 62.65" xmlns="http://www.w3.org/2000/svg" xmlns:xlink="http://www.w3.org/1999/xlink">
<g id="graph0" class="graph" transform="scale(1 1) rotate(0) translate(4 58.65)">
<title>boost::asio::detail::reactive_socket_recvfrom_op_base_ext&lt; MutableBufferSequence, Endpoint &gt;</title>
<polygon fill="white" stroke="transparent" points="-4,4 -4,-58.65 683,-58.65 683,4 -4,4"/>
<!-- Node1 -->
<g id="node1" class="node">
<title>Node1</title>
<g id="a_node1"><a xlink:title=" ">
<polygon fill="#bfbfbf" stroke="black" points="244,-1.33 244,-53.33 458,-53.33 458,-1.33 244,-1.33"/>
<text text-anchor="start" x="252" y="-41.33" font-family="Helvetica,sans-Serif" font-size="10.00">boost::asio::detail</text>
<text text-anchor="start" x="252" y="-30.33" font-family="Helvetica,sans-Serif" font-size="10.00">::reactive_socket_recvfrom</text>
<text text-anchor="start" x="252" y="-19.33" font-family="Helvetica,sans-Serif" font-size="10.00">_op_base_ext&lt; MutableBufferSequence,</text>
<text text-anchor="middle" x="351" y="-8.33" font-family="Helvetica,sans-Serif" font-size="10.00"> Endpoint &gt;</text>
</a>
</g>
</g>
<!-- Node4 -->
<g id="node4" class="node">
<title>Node4</title>
<g id="a_node4"><a xlink:href="classboost_1_1asio_1_1detail_1_1reactive__socket__recvfrom__op__ext.html" target="_top" xlink:title=" ">
<polygon fill="white" stroke="black" points="494,-1.33 494,-53.33 679,-53.33 679,-1.33 494,-1.33"/>
<text text-anchor="start" x="502" y="-41.33" font-family="Helvetica,sans-Serif" font-size="10.00">boost::asio::detail</text>
<text text-anchor="start" x="502" y="-30.33" font-family="Helvetica,sans-Serif" font-size="10.00">::reactive_socket_recvfrom</text>
<text text-anchor="start" x="502" y="-19.33" font-family="Helvetica,sans-Serif" font-size="10.00">_op_ext&lt; MutableBufferSequence,</text>
<text text-anchor="middle" x="586.5" y="-8.33" font-family="Helvetica,sans-Serif" font-size="10.00"> Endpoint, Handler &gt;</text>
</a>
</g>
</g>
<!-- Node1&#45;&gt;Node4 -->
<g id="edge11" class="edge">
<title>Node1&#45;&gt;Node4</title>
<path fill="none" stroke="midnightblue" d="M445.81,-0.8C464.28,-0.03 483.54,-0.2 501.66,-1.3"/>
<polygon fill="midnightblue" stroke="midnightblue" points="445.45,2.69 435.64,-1.32 445.81,-4.3 445.45,2.69"/>
</g>
<!-- Node1&#45;&gt;Node4 -->
<g id="edge12" class="edge">
<title>Node1&#45;&gt;Node4</title>
<path fill="none" stroke="midnightblue" d="M468.25,-13.83C476.85,-13.82 485.46,-13.92 493.88,-14.11"/>
<polygon fill="midnightblue" stroke="midnightblue" points="468.14,-10.33 458.16,-13.88 468.18,-17.33 468.14,-10.33"/>
</g>
<!-- Node1&#45;&gt;Node4 -->
<g id="edge13" class="edge">
<title>Node1&#45;&gt;Node4</title>
<path fill="none" stroke="midnightblue" d="M468.25,-27.33C476.85,-27.33 485.46,-27.33 493.88,-27.33"/>
<polygon fill="midnightblue" stroke="midnightblue" points="468.16,-23.83 458.16,-27.33 468.16,-30.83 468.16,-23.83"/>
</g>
<!-- Node1&#45;&gt;Node4 -->
<g id="edge14" class="edge">
<title>Node1&#45;&gt;Node4</title>
<path fill="none" stroke="midnightblue" d="M468.25,-40.83C476.85,-40.83 485.46,-40.74 493.88,-40.54"/>
<polygon fill="midnightblue" stroke="midnightblue" points="468.18,-37.33 458.16,-40.78 468.14,-44.33 468.18,-37.33"/>
</g>
<!-- Node1&#45;&gt;Node4 -->
<g id="edge15" class="edge">
<title>Node1&#45;&gt;Node4</title>
<path fill="none" stroke="midnightblue" d="M445.81,-53.86C464.28,-54.62 483.54,-54.45 501.66,-53.35"/>
<polygon fill="midnightblue" stroke="midnightblue" points="445.81,-50.35 435.64,-53.34 445.45,-57.34 445.81,-50.35"/>
</g>
<!-- Node2 -->
<g id="node2" class="node">
<title>Node2</title>
<g id="a_node2"><a xlink:href="classboost_1_1asio_1_1detail_1_1reactor__op__ext.html" target="_top" xlink:title=" ">
<polygon fill="white" stroke="black" points="104,-12.33 104,-42.33 208,-42.33 208,-12.33 104,-12.33"/>
<text text-anchor="start" x="112" y="-30.33" font-family="Helvetica,sans-Serif" font-size="10.00">boost::asio::detail</text>
<text text-anchor="middle" x="156" y="-19.33" font-family="Helvetica,sans-Serif" font-size="10.00">::reactor_op_ext</text>
</a>
</g>
</g>
<!-- Node2&#45;&gt;Node1 -->
<g id="edge1" class="edge">
<title>Node2&#45;&gt;Node1</title>
<path fill="none" stroke="midnightblue" d="M181.19,-8.71C206.07,-1.21 246,1.26 280.77,-1.31"/>
<polygon fill="midnightblue" stroke="midnightblue" points="179.71,-5.53 171.51,-12.23 182.1,-12.1 179.71,-5.53"/>
</g>
<!-- Node2&#45;&gt;Node1 -->
<g id="edge7" class="edge">
<title>Node2&#45;&gt;Node1</title>
<path fill="none" stroke="midnightblue" d="M218.31,-14.66C226.46,-14.26 235,-14 243.65,-13.89"/>
<polygon fill="midnightblue" stroke="midnightblue" points="217.99,-11.17 208.21,-15.25 218.4,-18.16 217.99,-11.17"/>
</g>
<!-- Node2&#45;&gt;Node1 -->
<g id="edge8" class="edge">
<title>Node2&#45;&gt;Node1</title>
<path fill="none" stroke="midnightblue" d="M218.31,-27.33C226.46,-27.33 235,-27.33 243.65,-27.33"/>
<polygon fill="midnightblue" stroke="midnightblue" points="218.21,-23.83 208.21,-27.33 218.21,-30.83 218.21,-23.83"/>
</g>
<!-- Node2&#45;&gt;Node1 -->
<g id="edge9" class="edge">
<title>Node2&#45;&gt;Node1</title>
<path fill="none" stroke="midnightblue" d="M218.31,-40C226.46,-40.4 235,-40.65 243.65,-40.76"/>
<polygon fill="midnightblue" stroke="midnightblue" points="218.4,-36.49 208.21,-39.41 217.99,-43.48 218.4,-36.49"/>
</g>
<!-- Node2&#45;&gt;Node1 -->
<g id="edge10" class="edge">
<title>Node2&#45;&gt;Node1</title>
<path fill="none" stroke="midnightblue" d="M181.19,-45.94C206.07,-53.45 246,-55.91 280.77,-53.34"/>
<polygon fill="midnightblue" stroke="midnightblue" points="182.1,-42.55 171.51,-42.42 179.71,-49.13 182.1,-42.55"/>
</g>
<!-- Node3 -->
<g id="node3" class="node">
<title>Node3</title>
<g id="a_node3"><a xlink:title=" ">
<polygon fill="white" stroke="black" points="0,-17.83 0,-36.83 68,-36.83 68,-17.83 0,-17.83"/>
<text text-anchor="middle" x="34" y="-24.83" font-family="Helvetica,sans-Serif" font-size="10.00">reactor_op</text>
</a>
</g>
</g>
<!-- Node3&#45;&gt;Node2 -->
<g id="edge2" class="edge">
<title>Node3&#45;&gt;Node2</title>
<path fill="none" stroke="midnightblue" d="M45.96,-10.95C69.41,3.6 124.12,3.2 145.86,-12.15"/>
<polygon fill="midnightblue" stroke="midnightblue" points="43.37,-8.56 38.21,-17.81 48.02,-13.8 43.37,-8.56"/>
</g>
<!-- Node3&#45;&gt;Node2 -->
<g id="edge3" class="edge">
<title>Node3&#45;&gt;Node2</title>
<path fill="none" stroke="midnightblue" d="M61.32,-15.93C73.81,-14.18 89.17,-13.52 103.81,-13.96"/>
<polygon fill="midnightblue" stroke="midnightblue" points="60.41,-12.54 51.18,-17.75 61.64,-19.43 60.41,-12.54"/>
</g>
<!-- Node3&#45;&gt;Node2 -->
<g id="edge4" class="edge">
<title>Node3&#45;&gt;Node2</title>
<path fill="none" stroke="midnightblue" d="M78.22,-27.33C86.43,-27.33 95.1,-27.33 103.54,-27.33"/>
<polygon fill="midnightblue" stroke="midnightblue" points="78.11,-23.83 68.11,-27.33 78.11,-30.83 78.11,-23.83"/>
</g>
<!-- Node3&#45;&gt;Node2 -->
<g id="edge5" class="edge">
<title>Node3&#45;&gt;Node2</title>
<path fill="none" stroke="midnightblue" d="M61.32,-38.72C73.81,-40.47 89.17,-41.13 103.81,-40.7"/>
<polygon fill="midnightblue" stroke="midnightblue" points="61.64,-35.23 51.18,-36.9 60.41,-42.12 61.64,-35.23"/>
</g>
<!-- Node3&#45;&gt;Node2 -->
<g id="edge6" class="edge">
<title>Node3&#45;&gt;Node2</title>
<path fill="none" stroke="midnightblue" d="M45.96,-43.71C69.41,-58.26 124.12,-57.86 145.86,-42.51"/>
<polygon fill="midnightblue" stroke="midnightblue" points="48.02,-40.86 38.21,-36.84 43.37,-46.09 48.02,-40.86"/>
</g>
</g>
</svg>
