<?xml version="1.0" encoding="UTF-8" standalone="no"?>
<!DOCTYPE svg PUBLIC "-//W3C//DTD SVG 1.1//EN"
 "http://www.w3.org/Graphics/SVG/1.1/DTD/svg11.dtd">
<!-- Generated by graphviz version 2.43.0 (0)
 -->
<!-- Title: vsomeip_v3::sd::service_discovery_impl Pages: 1 -->
<svg width="312pt" height="100pt"
 viewBox="0.00 0.00 312.00 99.50" xmlns="http://www.w3.org/2000/svg" xmlns:xlink="http://www.w3.org/1999/xlink">
<g id="graph0" class="graph" transform="scale(1 1) rotate(0) translate(4 95.5)">
<title>vsomeip_v3::sd::service_discovery_impl</title>
<polygon fill="white" stroke="transparent" points="-4,4 -4,-95.5 308,-95.5 308,4 -4,4"/>
<!-- Node1 -->
<g id="node1" class="node">
<title>Node1</title>
<g id="a_node1"><a xlink:title=" ">
<polygon fill="#bfbfbf" stroke="black" points="170,-33 170,-63 304,-63 304,-33 170,-33"/>
<text text-anchor="start" x="178" y="-51" font-family="Helvetica,sans-Serif" font-size="10.00">vsomeip_v3::sd::service</text>
<text text-anchor="middle" x="237" y="-40" font-family="Helvetica,sans-Serif" font-size="10.00">_discovery_impl</text>
</a>
</g>
</g>
<!-- Node2 -->
<g id="node2" class="node">
<title>Node2</title>
<g id="a_node2"><a xlink:href="classvsomeip__v3_1_1sd_1_1service__discovery.html" target="_top" xlink:title=" ">
<polygon fill="white" stroke="black" points="0,-61 0,-91 134,-91 134,-61 0,-61"/>
<text text-anchor="start" x="8" y="-79" font-family="Helvetica,sans-Serif" font-size="10.00">vsomeip_v3::sd::service</text>
<text text-anchor="middle" x="67" y="-68" font-family="Helvetica,sans-Serif" font-size="10.00">_discovery</text>
</a>
</g>
</g>
<!-- Node2&#45;&gt;Node1 -->
<g id="edge1" class="edge">
<title>Node2&#45;&gt;Node1</title>
<path fill="none" stroke="midnightblue" d="M144.32,-63.28C152.83,-61.86 161.44,-60.43 169.81,-59.03"/>
<polygon fill="midnightblue" stroke="midnightblue" points="143.69,-59.84 134.4,-64.93 144.84,-66.74 143.69,-59.84"/>
</g>
<!-- Node3 -->
<g id="node3" class="node">
<title>Node3</title>
<g id="a_node3"><a xlink:title=" ">
<polygon fill="white" stroke="black" points="9.5,-0.5 9.5,-41.5 124.5,-41.5 124.5,-0.5 9.5,-0.5"/>
<text text-anchor="start" x="17.5" y="-29.5" font-family="Helvetica,sans-Serif" font-size="10.00">std::enable_shared</text>
<text text-anchor="start" x="17.5" y="-18.5" font-family="Helvetica,sans-Serif" font-size="10.00">_from_this&lt; service</text>
<text text-anchor="middle" x="67" y="-7.5" font-family="Helvetica,sans-Serif" font-size="10.00">_discovery_impl &gt;</text>
</a>
</g>
</g>
<!-- Node3&#45;&gt;Node1 -->
<g id="edge2" class="edge">
<title>Node3&#45;&gt;Node1</title>
<path fill="none" stroke="midnightblue" d="M134.87,-31.75C146.41,-33.6 158.39,-35.53 169.9,-37.38"/>
<polygon fill="midnightblue" stroke="midnightblue" points="135.31,-28.27 124.88,-30.14 134.2,-35.18 135.31,-28.27"/>
</g>
</g>
</svg>
