<?xml version="1.0" encoding="UTF-8" standalone="no"?>
<!DOCTYPE svg PUBLIC "-//W3C//DTD SVG 1.1//EN"
 "http://www.w3.org/Graphics/SVG/1.1/DTD/svg11.dtd">
<!-- Generated by graphviz version 2.43.0 (0)
 -->
<!-- Title: vsomeip_v3::sd::ipv4_option_impl Pages: 1 -->
<svg width="316pt" height="578pt"
 viewBox="0.00 0.00 316.00 578.00" xmlns="http://www.w3.org/2000/svg" xmlns:xlink="http://www.w3.org/1999/xlink">
<g id="graph0" class="graph" transform="scale(1 1) rotate(0) translate(4 574)">
<title>vsomeip_v3::sd::ipv4_option_impl</title>
<polygon fill="white" stroke="transparent" points="-4,4 -4,-574 312,-574 312,4 -4,4"/>
<!-- Node1 -->
<g id="node1" class="node">
<title>Node1</title>
<g id="a_node1"><a xlink:title=" ">
<polygon fill="#bfbfbf" stroke="black" points="139,-0.5 139,-30.5 259,-30.5 259,-0.5 139,-0.5"/>
<text text-anchor="start" x="147" y="-18.5" font-family="Helvetica,sans-Serif" font-size="10.00">vsomeip_v3::sd::ipv4</text>
<text text-anchor="middle" x="199" y="-7.5" font-family="Helvetica,sans-Serif" font-size="10.00">_option_impl</text>
</a>
</g>
</g>
<!-- Node2 -->
<g id="node2" class="node">
<title>Node2</title>
<g id="a_node2"><a xlink:href="classvsomeip__v3_1_1sd_1_1ip__option__impl.html" target="_top" xlink:title=" ">
<polygon fill="white" stroke="black" points="145,-68.5 145,-98.5 253,-98.5 253,-68.5 145,-68.5"/>
<text text-anchor="start" x="153" y="-86.5" font-family="Helvetica,sans-Serif" font-size="10.00">vsomeip_v3::sd::ip</text>
<text text-anchor="middle" x="199" y="-75.5" font-family="Helvetica,sans-Serif" font-size="10.00">_option_impl</text>
</a>
</g>
</g>
<!-- Node2&#45;&gt;Node1 -->
<g id="edge1" class="edge">
<title>Node2&#45;&gt;Node1</title>
<path fill="none" stroke="midnightblue" d="M199,-58.03C199,-48.86 199,-38.74 199,-30.79"/>
<polygon fill="midnightblue" stroke="midnightblue" points="195.5,-58.18 199,-68.18 202.5,-58.18 195.5,-58.18"/>
</g>
<!-- Node3 -->
<g id="node3" class="node">
<title>Node3</title>
<g id="a_node3"><a xlink:href="classvsomeip__v3_1_1sd_1_1option__impl.html" target="_top" xlink:title=" ">
<polygon fill="white" stroke="black" points="120.5,-136.5 120.5,-155.5 277.5,-155.5 277.5,-136.5 120.5,-136.5"/>
<text text-anchor="middle" x="199" y="-143.5" font-family="Helvetica,sans-Serif" font-size="10.00">vsomeip_v3::sd::option_impl</text>
</a>
</g>
</g>
<!-- Node3&#45;&gt;Node2 -->
<g id="edge2" class="edge">
<title>Node3&#45;&gt;Node2</title>
<path fill="none" stroke="midnightblue" d="M199,-126.22C199,-117.36 199,-106.96 199,-98.76"/>
<polygon fill="midnightblue" stroke="midnightblue" points="195.5,-126.33 199,-136.33 202.5,-126.33 195.5,-126.33"/>
</g>
<!-- Node4 -->
<g id="node4" class="node">
<title>Node4</title>
<g id="a_node4"><a xlink:href="classvsomeip__v3_1_1sd_1_1message__element__impl.html" target="_top" xlink:title=" ">
<polygon fill="white" stroke="black" points="127.5,-193.5 127.5,-223.5 270.5,-223.5 270.5,-193.5 127.5,-193.5"/>
<text text-anchor="start" x="135.5" y="-211.5" font-family="Helvetica,sans-Serif" font-size="10.00">vsomeip_v3::sd::message</text>
<text text-anchor="middle" x="199" y="-200.5" font-family="Helvetica,sans-Serif" font-size="10.00">_element_impl</text>
</a>
</g>
</g>
<!-- Node4&#45;&gt;Node3 -->
<g id="edge3" class="edge">
<title>Node4&#45;&gt;Node3</title>
<path fill="none" stroke="midnightblue" d="M199,-183.35C199,-173.51 199,-162.78 199,-155.54"/>
<polygon fill="midnightblue" stroke="midnightblue" points="195.5,-183.47 199,-193.47 202.5,-183.47 195.5,-183.47"/>
</g>
<!-- Node5 -->
<g id="node5" class="node">
<title>Node5</title>
<g id="a_node5"><a xlink:href="classvsomeip__v3_1_1sd_1_1message__impl.html" target="_top" xlink:title=" ">
<polygon fill="white" stroke="black" points="114,-271.5 114,-290.5 284,-290.5 284,-271.5 114,-271.5"/>
<text text-anchor="middle" x="199" y="-278.5" font-family="Helvetica,sans-Serif" font-size="10.00">vsomeip_v3::sd::message_impl</text>
</a>
</g>
</g>
<!-- Node5&#45;&gt;Node4 -->
<g id="edge4" class="edge">
<title>Node5&#45;&gt;Node4</title>
<path fill="none" stroke="#9a32cd" stroke-dasharray="5,2" d="M199,-261.24C199,-249.41 199,-234.38 199,-223.58"/>
<polygon fill="#9a32cd" stroke="#9a32cd" points="195.5,-261.36 199,-271.36 202.5,-261.36 195.5,-261.36"/>
<text text-anchor="middle" x="218.5" y="-245" font-family="Helvetica,sans-Serif" font-size="10.00"> owner_</text>
</g>
<!-- Node6 -->
<g id="node6" class="node">
<title>Node6</title>
<g id="a_node6"><a xlink:href="classvsomeip__v3_1_1message.html" target="_top" xlink:title="Implements regular SOME/IP messages.">
<polygon fill="white" stroke="black" points="182,-377.5 182,-396.5 308,-396.5 308,-377.5 182,-377.5"/>
<text text-anchor="middle" x="245" y="-384.5" font-family="Helvetica,sans-Serif" font-size="10.00">vsomeip_v3::message</text>
</a>
</g>
</g>
<!-- Node6&#45;&gt;Node5 -->
<g id="edge5" class="edge">
<title>Node6&#45;&gt;Node5</title>
<path fill="none" stroke="midnightblue" d="M239.98,-367.3C236.61,-355.74 231.74,-340.74 226,-328 219.83,-314.32 210.66,-299.54 204.75,-290.52"/>
<polygon fill="midnightblue" stroke="midnightblue" points="236.67,-368.45 242.73,-377.13 243.41,-366.56 236.67,-368.45"/>
</g>
<!-- Node7 -->
<g id="node7" class="node">
<title>Node7</title>
<g id="a_node7"><a xlink:href="classvsomeip__v3_1_1message__base.html" target="_top" xlink:title="Base class to implement SOME/IP messages.">
<polygon fill="white" stroke="black" points="97.5,-493.5 97.5,-512.5 252.5,-512.5 252.5,-493.5 97.5,-493.5"/>
<text text-anchor="middle" x="175" y="-500.5" font-family="Helvetica,sans-Serif" font-size="10.00">vsomeip_v3::message_base</text>
</a>
</g>
</g>
<!-- Node7&#45;&gt;Node6 -->
<g id="edge6" class="edge">
<title>Node7&#45;&gt;Node6</title>
<path fill="none" stroke="midnightblue" d="M185.6,-484.74C200.78,-460.01 228.17,-415.41 239.68,-396.67"/>
<polygon fill="midnightblue" stroke="midnightblue" points="182.51,-483.08 180.26,-493.43 188.48,-486.74 182.51,-483.08"/>
</g>
<!-- Node10 -->
<g id="node10" class="node">
<title>Node10</title>
<g id="a_node10"><a xlink:href="classvsomeip__v3_1_1message__base__impl.html" target="_top" xlink:title=" ">
<polygon fill="white" stroke="black" points="91,-328.5 91,-358.5 217,-358.5 217,-328.5 91,-328.5"/>
<text text-anchor="start" x="99" y="-346.5" font-family="Helvetica,sans-Serif" font-size="10.00">vsomeip_v3::message</text>
<text text-anchor="middle" x="154" y="-335.5" font-family="Helvetica,sans-Serif" font-size="10.00">_base_impl</text>
</a>
</g>
</g>
<!-- Node7&#45;&gt;Node10 -->
<g id="edge10" class="edge">
<title>Node7&#45;&gt;Node10</title>
<path fill="none" stroke="midnightblue" d="M172.44,-482.81C168.16,-450.69 159.64,-386.77 155.87,-358.51"/>
<polygon fill="midnightblue" stroke="midnightblue" points="169.02,-483.63 173.81,-493.08 175.96,-482.71 169.02,-483.63"/>
</g>
<!-- Node11 -->
<g id="node11" class="node">
<title>Node11</title>
<g id="a_node11"><a xlink:href="classvsomeip__v3_1_1message__header__impl.html" target="_top" xlink:title=" ">
<polygon fill="white" stroke="black" points="13,-415.5 13,-445.5 139,-445.5 139,-415.5 13,-415.5"/>
<text text-anchor="start" x="21" y="-433.5" font-family="Helvetica,sans-Serif" font-size="10.00">vsomeip_v3::message</text>
<text text-anchor="middle" x="76" y="-422.5" font-family="Helvetica,sans-Serif" font-size="10.00">_header_impl</text>
</a>
</g>
</g>
<!-- Node7&#45;&gt;Node11 -->
<g id="edge13" class="edge">
<title>Node7&#45;&gt;Node11</title>
<path fill="none" stroke="#9a32cd" stroke-dasharray="5,2" d="M139.68,-489.48C130.87,-485.54 121.74,-480.7 114,-475 103.02,-466.91 92.98,-455.14 85.98,-445.88"/>
<polygon fill="#9a32cd" stroke="#9a32cd" points="138.45,-492.76 149.03,-493.4 141.16,-486.31 138.45,-492.76"/>
<text text-anchor="middle" x="133.5" y="-467" font-family="Helvetica,sans-Serif" font-size="10.00"> owner_</text>
</g>
<!-- Node8 -->
<g id="node8" class="node">
<title>Node8</title>
<g id="a_node8"><a xlink:href="classvsomeip__v3_1_1serializable.html" target="_top" xlink:title=" ">
<polygon fill="white" stroke="black" points="0,-550.5 0,-569.5 138,-569.5 138,-550.5 0,-550.5"/>
<text text-anchor="middle" x="69" y="-557.5" font-family="Helvetica,sans-Serif" font-size="10.00">vsomeip_v3::serializable</text>
</a>
</g>
</g>
<!-- Node8&#45;&gt;Node7 -->
<g id="edge7" class="edge">
<title>Node8&#45;&gt;Node7</title>
<path fill="none" stroke="midnightblue" d="M94.68,-545.68C114.55,-535.36 141.49,-521.39 158.55,-512.53"/>
<polygon fill="midnightblue" stroke="midnightblue" points="92.83,-542.69 85.56,-550.41 96.05,-548.91 92.83,-542.69"/>
</g>
<!-- Node8&#45;&gt;Node11 -->
<g id="edge12" class="edge">
<title>Node8&#45;&gt;Node11</title>
<path fill="none" stroke="midnightblue" d="M70.03,-540.24C71.45,-514.46 73.96,-468.65 75.23,-445.59"/>
<polygon fill="midnightblue" stroke="midnightblue" points="66.53,-540.06 69.48,-550.24 73.52,-540.44 66.53,-540.06"/>
</g>
<!-- Node9 -->
<g id="node9" class="node">
<title>Node9</title>
<g id="a_node9"><a xlink:href="classvsomeip__v3_1_1deserializable.html" target="_top" xlink:title=" ">
<polygon fill="white" stroke="black" points="156,-550.5 156,-569.5 306,-569.5 306,-550.5 156,-550.5"/>
<text text-anchor="middle" x="231" y="-557.5" font-family="Helvetica,sans-Serif" font-size="10.00">vsomeip_v3::deserializable</text>
</a>
</g>
</g>
<!-- Node9&#45;&gt;Node7 -->
<g id="edge8" class="edge">
<title>Node9&#45;&gt;Node7</title>
<path fill="none" stroke="midnightblue" d="M214.83,-543.12C204.76,-533.22 192.17,-520.86 183.87,-512.71"/>
<polygon fill="midnightblue" stroke="midnightblue" points="212.66,-545.9 222.25,-550.41 217.57,-540.9 212.66,-545.9"/>
</g>
<!-- Node10&#45;&gt;Node5 -->
<g id="edge9" class="edge">
<title>Node10&#45;&gt;Node5</title>
<path fill="none" stroke="midnightblue" d="M170.57,-320.22C178.25,-309.9 186.92,-298.24 192.65,-290.54"/>
<polygon fill="midnightblue" stroke="midnightblue" points="167.6,-318.36 164.44,-328.47 173.21,-322.53 167.6,-318.36"/>
</g>
<!-- Node11&#45;&gt;Node10 -->
<g id="edge11" class="edge">
<title>Node11&#45;&gt;Node10</title>
<path fill="none" stroke="#9a32cd" stroke-dasharray="5,2" d="M88.48,-406.41C94.3,-396.75 101.77,-385.75 110,-377 116.38,-370.22 124.32,-363.87 131.69,-358.61"/>
<polygon fill="#9a32cd" stroke="#9a32cd" points="85.4,-404.74 83.42,-415.15 91.46,-408.24 85.4,-404.74"/>
<text text-anchor="middle" x="131.5" y="-384.5" font-family="Helvetica,sans-Serif" font-size="10.00"> header_</text>
</g>
</g>
</svg>
