<?xml version="1.0" encoding="UTF-8" standalone="no"?>
<!DOCTYPE svg PUBLIC "-//W3C//DTD SVG 1.1//EN"
 "http://www.w3.org/Graphics/SVG/1.1/DTD/svg11.dtd">
<!-- Generated by graphviz version 2.43.0 (0)
 -->
<!-- Title: vsomeip_v3::e2e::profile_interface::profile_interface Pages: 1 -->
<svg width="517pt" height="296pt"
 viewBox="0.00 0.00 517.00 296.00" xmlns="http://www.w3.org/2000/svg" xmlns:xlink="http://www.w3.org/1999/xlink">
<g id="graph0" class="graph" transform="scale(1 1) rotate(0) translate(4 292)">
<title>vsomeip_v3::e2e::profile_interface::profile_interface</title>
<polygon fill="white" stroke="transparent" points="-4,4 -4,-292 513,-292 513,4 -4,4"/>
<!-- Node1 -->
<g id="node1" class="node">
<title>Node1</title>
<g id="a_node1"><a xlink:title=" ">
<polygon fill="#bfbfbf" stroke="black" points="0,-101.5 0,-131.5 151,-131.5 151,-101.5 0,-101.5"/>
<text text-anchor="start" x="8" y="-119.5" font-family="Helvetica,sans-Serif" font-size="10.00">vsomeip_v3::e2e::profile</text>
<text text-anchor="middle" x="75.5" y="-108.5" font-family="Helvetica,sans-Serif" font-size="10.00">_interface::profile_interface</text>
</a>
</g>
</g>
<!-- Node2 -->
<g id="node2" class="node">
<title>Node2</title>
<g id="a_node2"><a xlink:href="classvsomeip__v3_1_1e2e_1_1profile__interface_1_1checker.html" target="_top" xlink:title=" ">
<polygon fill="white" stroke="black" points="187,-180.5 187,-210.5 324,-210.5 324,-180.5 187,-180.5"/>
<text text-anchor="start" x="195" y="-198.5" font-family="Helvetica,sans-Serif" font-size="10.00">vsomeip_v3::e2e::profile</text>
<text text-anchor="middle" x="255.5" y="-187.5" font-family="Helvetica,sans-Serif" font-size="10.00">_interface::checker</text>
</a>
</g>
</g>
<!-- Node1&#45;&gt;Node2 -->
<g id="edge1" class="edge">
<title>Node1&#45;&gt;Node2</title>
<path fill="none" stroke="midnightblue" d="M119.66,-135.65C150.62,-149.39 191.76,-167.65 220.42,-180.38"/>
<polygon fill="midnightblue" stroke="midnightblue" points="120.96,-132.4 110.4,-131.55 118.12,-138.8 120.96,-132.4"/>
</g>
<!-- Node6 -->
<g id="node6" class="node">
<title>Node6</title>
<g id="a_node6"><a xlink:href="classvsomeip__v3_1_1e2e_1_1profile__interface_1_1protector.html" target="_top" xlink:title=" ">
<polygon fill="white" stroke="black" points="187,-74.5 187,-104.5 324,-104.5 324,-74.5 187,-74.5"/>
<text text-anchor="start" x="195" y="-92.5" font-family="Helvetica,sans-Serif" font-size="10.00">vsomeip_v3::e2e::profile</text>
<text text-anchor="middle" x="255.5" y="-81.5" font-family="Helvetica,sans-Serif" font-size="10.00">_interface::protector</text>
</a>
</g>
</g>
<!-- Node1&#45;&gt;Node6 -->
<g id="edge5" class="edge">
<title>Node1&#45;&gt;Node6</title>
<path fill="none" stroke="midnightblue" d="M161.23,-103.65C169.8,-102.35 178.42,-101.04 186.78,-99.77"/>
<polygon fill="midnightblue" stroke="midnightblue" points="160.58,-100.21 151.21,-105.17 161.63,-107.13 160.58,-100.21"/>
</g>
<!-- Node3 -->
<g id="node3" class="node">
<title>Node3</title>
<g id="a_node3"><a xlink:href="classvsomeip__v3_1_1e2e_1_1profile01_1_1profile__01__checker.html" target="_top" xlink:title=" ">
<polygon fill="white" stroke="black" points="360,-257.5 360,-287.5 509,-287.5 509,-257.5 360,-257.5"/>
<text text-anchor="start" x="368" y="-275.5" font-family="Helvetica,sans-Serif" font-size="10.00">vsomeip_v3::e2e::profile01</text>
<text text-anchor="middle" x="434.5" y="-264.5" font-family="Helvetica,sans-Serif" font-size="10.00">::profile_01_checker</text>
</a>
</g>
</g>
<!-- Node2&#45;&gt;Node3 -->
<g id="edge2" class="edge">
<title>Node2&#45;&gt;Node3</title>
<path fill="none" stroke="midnightblue" d="M292.09,-215.49C311.76,-226.08 336.83,-238.86 360,-248.5 367.56,-251.65 375.69,-254.66 383.69,-257.42"/>
<polygon fill="midnightblue" stroke="midnightblue" points="293.64,-212.35 283.19,-210.64 290.3,-218.5 293.64,-212.35"/>
</g>
<!-- Node4 -->
<g id="node4" class="node">
<title>Node4</title>
<g id="a_node4"><a xlink:href="classvsomeip__v3_1_1e2e_1_1profile04_1_1profile__04__checker.html" target="_top" xlink:title=" ">
<polygon fill="white" stroke="black" points="360,-208.5 360,-238.5 509,-238.5 509,-208.5 360,-208.5"/>
<text text-anchor="start" x="368" y="-226.5" font-family="Helvetica,sans-Serif" font-size="10.00">vsomeip_v3::e2e::profile04</text>
<text text-anchor="middle" x="434.5" y="-215.5" font-family="Helvetica,sans-Serif" font-size="10.00">::profile_04_checker</text>
</a>
</g>
</g>
<!-- Node2&#45;&gt;Node4 -->
<g id="edge3" class="edge">
<title>Node2&#45;&gt;Node4</title>
<path fill="none" stroke="midnightblue" d="M334.16,-207.78C342.73,-209.14 351.45,-210.52 359.97,-211.87"/>
<polygon fill="midnightblue" stroke="midnightblue" points="334.6,-204.31 324.17,-206.21 333.5,-211.23 334.6,-204.31"/>
</g>
<!-- Node5 -->
<g id="node5" class="node">
<title>Node5</title>
<g id="a_node5"><a xlink:href="classvsomeip__v3_1_1e2e_1_1profile__custom_1_1profile__custom__checker.html" target="_top" xlink:title=" ">
<polygon fill="white" stroke="black" points="366,-148 366,-189 503,-189 503,-148 366,-148"/>
<text text-anchor="start" x="374" y="-177" font-family="Helvetica,sans-Serif" font-size="10.00">vsomeip_v3::e2e::profile</text>
<text text-anchor="start" x="374" y="-166" font-family="Helvetica,sans-Serif" font-size="10.00">_custom::profile_custom</text>
<text text-anchor="middle" x="434.5" y="-155" font-family="Helvetica,sans-Serif" font-size="10.00">_checker</text>
</a>
</g>
</g>
<!-- Node2&#45;&gt;Node5 -->
<g id="edge4" class="edge">
<title>Node2&#45;&gt;Node5</title>
<path fill="none" stroke="midnightblue" d="M334.2,-183.65C344.75,-182.04 355.51,-180.4 365.86,-178.82"/>
<polygon fill="midnightblue" stroke="midnightblue" points="333.53,-180.21 324.17,-185.18 334.59,-187.13 333.53,-180.21"/>
</g>
<!-- Node7 -->
<g id="node7" class="node">
<title>Node7</title>
<g id="a_node7"><a xlink:href="classvsomeip__v3_1_1e2e_1_1profile01_1_1protector.html" target="_top" xlink:title=" ">
<polygon fill="white" stroke="black" points="360,-98.5 360,-128.5 509,-128.5 509,-98.5 360,-98.5"/>
<text text-anchor="start" x="368" y="-116.5" font-family="Helvetica,sans-Serif" font-size="10.00">vsomeip_v3::e2e::profile01</text>
<text text-anchor="middle" x="434.5" y="-105.5" font-family="Helvetica,sans-Serif" font-size="10.00">::protector</text>
</a>
</g>
</g>
<!-- Node6&#45;&gt;Node7 -->
<g id="edge6" class="edge">
<title>Node6&#45;&gt;Node7</title>
<path fill="none" stroke="midnightblue" d="M334.16,-100.03C342.73,-101.19 351.45,-102.37 359.97,-103.53"/>
<polygon fill="midnightblue" stroke="midnightblue" points="334.55,-96.55 324.17,-98.68 333.61,-103.49 334.55,-96.55"/>
</g>
<!-- Node8 -->
<g id="node8" class="node">
<title>Node8</title>
<g id="a_node8"><a xlink:href="classvsomeip__v3_1_1e2e_1_1profile04_1_1protector.html" target="_top" xlink:title=" ">
<polygon fill="white" stroke="black" points="360,-49.5 360,-79.5 509,-79.5 509,-49.5 360,-49.5"/>
<text text-anchor="start" x="368" y="-67.5" font-family="Helvetica,sans-Serif" font-size="10.00">vsomeip_v3::e2e::profile04</text>
<text text-anchor="middle" x="434.5" y="-56.5" font-family="Helvetica,sans-Serif" font-size="10.00">::protector</text>
</a>
</g>
</g>
<!-- Node6&#45;&gt;Node8 -->
<g id="edge7" class="edge">
<title>Node6&#45;&gt;Node8</title>
<path fill="none" stroke="midnightblue" d="M334.16,-78.53C342.73,-77.32 351.45,-76.09 359.97,-74.89"/>
<polygon fill="midnightblue" stroke="midnightblue" points="333.59,-75.08 324.17,-79.94 334.56,-82.01 333.59,-75.08"/>
</g>
<!-- Node9 -->
<g id="node9" class="node">
<title>Node9</title>
<g id="a_node9"><a xlink:href="classvsomeip__v3_1_1e2e_1_1profile__custom_1_1protector.html" target="_top" xlink:title=" ">
<polygon fill="white" stroke="black" points="366,-0.5 366,-30.5 503,-30.5 503,-0.5 366,-0.5"/>
<text text-anchor="start" x="374" y="-18.5" font-family="Helvetica,sans-Serif" font-size="10.00">vsomeip_v3::e2e::profile</text>
<text text-anchor="middle" x="434.5" y="-7.5" font-family="Helvetica,sans-Serif" font-size="10.00">_custom::protector</text>
</a>
</g>
</g>
<!-- Node6&#45;&gt;Node9 -->
<g id="edge8" class="edge">
<title>Node6&#45;&gt;Node9</title>
<path fill="none" stroke="midnightblue" d="M294.14,-69.81C313.53,-60.05 337.73,-48.47 360,-39.5 367.72,-36.39 376.01,-33.38 384.15,-30.6"/>
<polygon fill="midnightblue" stroke="midnightblue" points="292.36,-66.78 285.03,-74.43 295.53,-73.03 292.36,-66.78"/>
</g>
</g>
</svg>
