<?xml version="1.0" encoding="UTF-8" standalone="no"?>
<!DOCTYPE svg PUBLIC "-//W3C//DTD SVG 1.1//EN"
 "http://www.w3.org/Graphics/SVG/1.1/DTD/svg11.dtd">
<!-- Generated by graphviz version 2.43.0 (0)
 -->
<!-- Title: vsomeip_v3::plugin Pages: 1 -->
<svg width="487pt" height="258pt"
 viewBox="0.00 0.00 487.00 257.50" xmlns="http://www.w3.org/2000/svg" xmlns:xlink="http://www.w3.org/1999/xlink">
<g id="graph0" class="graph" transform="scale(1 1) rotate(0) translate(4 253.5)">
<title>vsomeip_v3::plugin</title>
<polygon fill="white" stroke="transparent" points="-4,4 -4,-253.5 483,-253.5 483,4 -4,4"/>
<!-- Node1 -->
<g id="node1" class="node">
<title>Node1</title>
<g id="a_node1"><a xlink:title=" ">
<polygon fill="#bfbfbf" stroke="black" points="0,-104 0,-123 112,-123 112,-104 0,-104"/>
<text text-anchor="middle" x="56" y="-111" font-family="Helvetica,sans-Serif" font-size="10.00">vsomeip_v3::plugin</text>
</a>
</g>
</g>
<!-- Node2 -->
<g id="node2" class="node">
<title>Node2</title>
<g id="a_node2"><a xlink:href="classvsomeip__v3_1_1plugin__impl.html" target="_top" xlink:title=" ">
<polygon fill="white" stroke="black" points="154,-208 154,-249 273,-249 273,-208 154,-208"/>
<text text-anchor="start" x="162" y="-237" font-family="Helvetica,sans-Serif" font-size="10.00">vsomeip_v3::plugin</text>
<text text-anchor="start" x="162" y="-226" font-family="Helvetica,sans-Serif" font-size="10.00">_impl&lt; configuration</text>
<text text-anchor="middle" x="213.5" y="-215" font-family="Helvetica,sans-Serif" font-size="10.00">_plugin_impl &gt;</text>
</a>
</g>
</g>
<!-- Node1&#45;&gt;Node2 -->
<g id="edge1" class="edge">
<title>Node1&#45;&gt;Node2</title>
<path fill="none" stroke="midnightblue" d="M72.22,-130.65C89.3,-149.14 118.49,-178.6 148,-198.5 152.91,-201.81 158.25,-204.94 163.69,-207.83"/>
<polygon fill="midnightblue" stroke="midnightblue" points="74.79,-128.27 65.48,-123.22 69.61,-132.98 74.79,-128.27"/>
</g>
<!-- Node4 -->
<g id="node4" class="node">
<title>Node4</title>
<g id="a_node4"><a xlink:href="classvsomeip__v3_1_1plugin__impl.html" target="_top" xlink:title=" ">
<polygon fill="white" stroke="black" points="154,-148 154,-189 273,-189 273,-148 154,-148"/>
<text text-anchor="start" x="162" y="-177" font-family="Helvetica,sans-Serif" font-size="10.00">vsomeip_v3::plugin</text>
<text text-anchor="start" x="162" y="-166" font-family="Helvetica,sans-Serif" font-size="10.00">_impl&lt; e2e_provider</text>
<text text-anchor="middle" x="213.5" y="-155" font-family="Helvetica,sans-Serif" font-size="10.00">_impl &gt;</text>
</a>
</g>
</g>
<!-- Node1&#45;&gt;Node4 -->
<g id="edge3" class="edge">
<title>Node1&#45;&gt;Node4</title>
<path fill="none" stroke="midnightblue" d="M93.69,-126.48C111.82,-132.89 134.12,-140.78 154.49,-147.98"/>
<polygon fill="midnightblue" stroke="midnightblue" points="94.68,-123.12 84.09,-123.08 92.35,-129.71 94.68,-123.12"/>
</g>
<!-- Node6 -->
<g id="node6" class="node">
<title>Node6</title>
<g id="a_node6"><a xlink:href="classvsomeip__v3_1_1plugin__impl.html" target="_top" xlink:title=" ">
<polygon fill="white" stroke="black" points="148,-98.5 148,-128.5 279,-128.5 279,-98.5 148,-98.5"/>
<text text-anchor="start" x="156" y="-116.5" font-family="Helvetica,sans-Serif" font-size="10.00">vsomeip_v3::plugin</text>
<text text-anchor="middle" x="213.5" y="-105.5" font-family="Helvetica,sans-Serif" font-size="10.00">_impl&lt; runtime_impl &gt;</text>
</a>
</g>
</g>
<!-- Node1&#45;&gt;Node6 -->
<g id="edge5" class="edge">
<title>Node1&#45;&gt;Node6</title>
<path fill="none" stroke="midnightblue" d="M122.41,-113.5C130.83,-113.5 139.45,-113.5 147.86,-113.5"/>
<polygon fill="midnightblue" stroke="midnightblue" points="122.26,-110 112.26,-113.5 122.26,-117 122.26,-110"/>
</g>
<!-- Node8 -->
<g id="node8" class="node">
<title>Node8</title>
<g id="a_node8"><a xlink:href="classvsomeip_1_1plugin__impl.html" target="_top" xlink:title=" ">
<polygon fill="white" stroke="black" points="152.5,-49.5 152.5,-79.5 274.5,-79.5 274.5,-49.5 152.5,-49.5"/>
<text text-anchor="start" x="160.5" y="-67.5" font-family="Helvetica,sans-Serif" font-size="10.00">vsomeip::plugin_impl</text>
<text text-anchor="middle" x="213.5" y="-56.5" font-family="Helvetica,sans-Serif" font-size="10.00">&lt; Plugin_ &gt;</text>
</a>
</g>
</g>
<!-- Node1&#45;&gt;Node8 -->
<g id="edge7" class="edge">
<title>Node1&#45;&gt;Node8</title>
<path fill="none" stroke="midnightblue" d="M97.09,-100.87C117.75,-94.36 143.11,-86.37 164.78,-79.54"/>
<polygon fill="midnightblue" stroke="midnightblue" points="95.84,-97.59 87.35,-103.94 97.94,-104.27 95.84,-97.59"/>
</g>
<!-- Node9 -->
<g id="node9" class="node">
<title>Node9</title>
<g id="a_node9"><a xlink:href="classvsomeip__v3_1_1plugin__impl.html" target="_top" xlink:title=" ">
<polygon fill="white" stroke="black" points="157.5,-0.5 157.5,-30.5 269.5,-30.5 269.5,-0.5 157.5,-0.5"/>
<text text-anchor="start" x="165.5" y="-18.5" font-family="Helvetica,sans-Serif" font-size="10.00">vsomeip_v3::plugin</text>
<text text-anchor="middle" x="213.5" y="-7.5" font-family="Helvetica,sans-Serif" font-size="10.00">_impl&lt; Plugin_ &gt;</text>
</a>
</g>
</g>
<!-- Node1&#45;&gt;Node9 -->
<g id="edge8" class="edge">
<title>Node1&#45;&gt;Node9</title>
<path fill="none" stroke="midnightblue" d="M74.48,-96.33C91.91,-79.96 120.05,-55.48 148,-39.5 153.7,-36.24 159.94,-33.27 166.2,-30.62"/>
<polygon fill="midnightblue" stroke="midnightblue" points="71.64,-94.2 66.83,-103.65 76.47,-99.26 71.64,-94.2"/>
</g>
<!-- Node3 -->
<g id="node3" class="node">
<title>Node3</title>
<g id="a_node3"><a xlink:href="classvsomeip__v3_1_1configuration__plugin__impl.html" target="_top" xlink:title=" ">
<polygon fill="white" stroke="black" points="324,-213.5 324,-243.5 470,-243.5 470,-213.5 324,-213.5"/>
<text text-anchor="start" x="332" y="-231.5" font-family="Helvetica,sans-Serif" font-size="10.00">vsomeip_v3::configuration</text>
<text text-anchor="middle" x="397" y="-220.5" font-family="Helvetica,sans-Serif" font-size="10.00">_plugin_impl</text>
</a>
</g>
</g>
<!-- Node2&#45;&gt;Node3 -->
<g id="edge2" class="edge">
<title>Node2&#45;&gt;Node3</title>
<path fill="none" stroke="midnightblue" d="M283.19,-228.5C296.49,-228.5 310.46,-228.5 323.87,-228.5"/>
<polygon fill="midnightblue" stroke="midnightblue" points="283.18,-225 273.18,-228.5 283.18,-232 283.18,-225"/>
</g>
<!-- Node5 -->
<g id="node5" class="node">
<title>Node5</title>
<g id="a_node5"><a xlink:href="classvsomeip__v3_1_1e2e_1_1e2e__provider__impl.html" target="_top" xlink:title=" ">
<polygon fill="white" stroke="black" points="335,-153.5 335,-183.5 459,-183.5 459,-153.5 335,-153.5"/>
<text text-anchor="start" x="343" y="-171.5" font-family="Helvetica,sans-Serif" font-size="10.00">vsomeip_v3::e2e::e2e</text>
<text text-anchor="middle" x="397" y="-160.5" font-family="Helvetica,sans-Serif" font-size="10.00">_provider_impl</text>
</a>
</g>
</g>
<!-- Node4&#45;&gt;Node5 -->
<g id="edge4" class="edge">
<title>Node4&#45;&gt;Node5</title>
<path fill="none" stroke="midnightblue" d="M283.51,-168.5C300.35,-168.5 318.26,-168.5 334.72,-168.5"/>
<polygon fill="midnightblue" stroke="midnightblue" points="283.18,-165 273.18,-168.5 283.18,-172 283.18,-165"/>
</g>
<!-- Node7 -->
<g id="node7" class="node">
<title>Node7</title>
<g id="a_node7"><a xlink:href="classvsomeip__v3_1_1sd_1_1runtime__impl.html" target="_top" xlink:title=" ">
<polygon fill="white" stroke="black" points="315,-104 315,-123 479,-123 479,-104 315,-104"/>
<text text-anchor="middle" x="397" y="-111" font-family="Helvetica,sans-Serif" font-size="10.00">vsomeip_v3::sd::runtime_impl</text>
</a>
</g>
</g>
<!-- Node6&#45;&gt;Node7 -->
<g id="edge6" class="edge">
<title>Node6&#45;&gt;Node7</title>
<path fill="none" stroke="midnightblue" d="M289.21,-113.5C297.68,-113.5 306.33,-113.5 314.88,-113.5"/>
<polygon fill="midnightblue" stroke="midnightblue" points="289,-110 279,-113.5 289,-117 289,-110"/>
</g>
</g>
</svg>
