<?xml version="1.0" encoding="UTF-8" standalone="no"?>
<!DOCTYPE svg PUBLIC "-//W3C//DTD SVG 1.1//EN"
 "http://www.w3.org/Graphics/SVG/1.1/DTD/svg11.dtd">
<!-- Generated by graphviz version 2.43.0 (0)
 -->
<!-- Title: vsomeip_v3::configuration_plugin_impl Pages: 1 -->
<svg width="484pt" height="100pt"
 viewBox="0.00 0.00 484.00 99.50" xmlns="http://www.w3.org/2000/svg" xmlns:xlink="http://www.w3.org/1999/xlink">
<g id="graph0" class="graph" transform="scale(1 1) rotate(0) translate(4 95.5)">
<title>vsomeip_v3::configuration_plugin_impl</title>
<polygon fill="white" stroke="transparent" points="-4,4 -4,-95.5 480,-95.5 480,4 -4,4"/>
<!-- Node1 -->
<g id="node1" class="node">
<title>Node1</title>
<g id="a_node1"><a xlink:title=" ">
<polygon fill="#bfbfbf" stroke="black" points="330,-33 330,-63 476,-63 476,-33 330,-33"/>
<text text-anchor="start" x="338" y="-51" font-family="Helvetica,sans-Serif" font-size="10.00">vsomeip_v3::configuration</text>
<text text-anchor="middle" x="403" y="-40" font-family="Helvetica,sans-Serif" font-size="10.00">_plugin_impl</text>
</a>
</g>
</g>
<!-- Node2 -->
<g id="node2" class="node">
<title>Node2</title>
<g id="a_node2"><a xlink:href="classvsomeip__v3_1_1configuration__plugin.html" target="_top" xlink:title=" ">
<polygon fill="white" stroke="black" points="148,-61 148,-91 294,-91 294,-61 148,-61"/>
<text text-anchor="start" x="156" y="-79" font-family="Helvetica,sans-Serif" font-size="10.00">vsomeip_v3::configuration</text>
<text text-anchor="middle" x="221" y="-68" font-family="Helvetica,sans-Serif" font-size="10.00">_plugin</text>
</a>
</g>
</g>
<!-- Node2&#45;&gt;Node1 -->
<g id="edge1" class="edge">
<title>Node2&#45;&gt;Node1</title>
<path fill="none" stroke="midnightblue" d="M304.16,-63.22C312.72,-61.89 321.37,-60.54 329.81,-59.23"/>
<polygon fill="midnightblue" stroke="midnightblue" points="303.52,-59.78 294.18,-64.77 304.59,-66.69 303.52,-59.78"/>
</g>
<!-- Node3 -->
<g id="node3" class="node">
<title>Node3</title>
<g id="a_node3"><a xlink:href="classvsomeip__v3_1_1plugin__impl.html" target="_top" xlink:title=" ">
<polygon fill="white" stroke="black" points="161.5,-0.5 161.5,-41.5 280.5,-41.5 280.5,-0.5 161.5,-0.5"/>
<text text-anchor="start" x="169.5" y="-29.5" font-family="Helvetica,sans-Serif" font-size="10.00">vsomeip_v3::plugin</text>
<text text-anchor="start" x="169.5" y="-18.5" font-family="Helvetica,sans-Serif" font-size="10.00">_impl&lt; configuration</text>
<text text-anchor="middle" x="221" y="-7.5" font-family="Helvetica,sans-Serif" font-size="10.00">_plugin_impl &gt;</text>
</a>
</g>
</g>
<!-- Node3&#45;&gt;Node1 -->
<g id="edge2" class="edge">
<title>Node3&#45;&gt;Node1</title>
<path fill="none" stroke="midnightblue" d="M290.97,-31.35C303.66,-33.25 316.94,-35.24 329.73,-37.16"/>
<polygon fill="midnightblue" stroke="midnightblue" points="291.35,-27.86 280.94,-29.84 290.31,-34.79 291.35,-27.86"/>
</g>
<!-- Node4 -->
<g id="node4" class="node">
<title>Node4</title>
<g id="a_node4"><a xlink:href="classvsomeip__v3_1_1plugin.html" target="_top" xlink:title=" ">
<polygon fill="white" stroke="black" points="0,-11.5 0,-30.5 112,-30.5 112,-11.5 0,-11.5"/>
<text text-anchor="middle" x="56" y="-18.5" font-family="Helvetica,sans-Serif" font-size="10.00">vsomeip_v3::plugin</text>
</a>
</g>
</g>
<!-- Node4&#45;&gt;Node3 -->
<g id="edge3" class="edge">
<title>Node4&#45;&gt;Node3</title>
<path fill="none" stroke="midnightblue" d="M122.35,-21C135.21,-21 148.62,-21 161.25,-21"/>
<polygon fill="midnightblue" stroke="midnightblue" points="122.18,-17.5 112.18,-21 122.18,-24.5 122.18,-17.5"/>
</g>
</g>
</svg>
