<?xml version="1.0" encoding="UTF-8" standalone="no"?>
<!DOCTYPE svg PUBLIC "-//W3C//DTD SVG 1.1//EN"
 "http://www.w3.org/Graphics/SVG/1.1/DTD/svg11.dtd">
<!-- Generated by graphviz version 2.43.0 (0)
 -->
<!-- Title: vsomeip::message_impl Pages: 1 -->
<svg width="314pt" height="207pt"
 viewBox="0.00 0.00 314.00 207.00" xmlns="http://www.w3.org/2000/svg" xmlns:xlink="http://www.w3.org/1999/xlink">
<g id="graph0" class="graph" transform="scale(1 1) rotate(0) translate(4 203)">
<title>vsomeip::message_impl</title>
<polygon fill="white" stroke="transparent" points="-4,4 -4,-203 310,-203 310,4 -4,4"/>
<!-- Node1 -->
<g id="node1" class="node">
<title>Node1</title>
<g id="a_node1"><a xlink:title=" ">
<polygon fill="#bfbfbf" stroke="black" points="82,-0.5 82,-19.5 218,-19.5 218,-0.5 82,-0.5"/>
<text text-anchor="middle" x="150" y="-7.5" font-family="Helvetica,sans-Serif" font-size="10.00">vsomeip::message_impl</text>
</a>
</g>
</g>
<!-- Node2 -->
<g id="node2" class="node">
<title>Node2</title>
<g id="a_node2"><a xlink:href="classvsomeip__v3_1_1message__base__impl.html" target="_top" xlink:title=" ">
<polygon fill="white" stroke="black" points="15,-56.5 15,-86.5 141,-86.5 141,-56.5 15,-56.5"/>
<text text-anchor="start" x="23" y="-74.5" font-family="Helvetica,sans-Serif" font-size="10.00">vsomeip_v3::message</text>
<text text-anchor="middle" x="78" y="-63.5" font-family="Helvetica,sans-Serif" font-size="10.00">_base_impl</text>
</a>
</g>
</g>
<!-- Node2&#45;&gt;Node1 -->
<g id="edge1" class="edge">
<title>Node2&#45;&gt;Node1</title>
<path fill="none" stroke="midnightblue" d="M102.94,-49.89C115.46,-39.54 129.96,-27.56 139.52,-19.66"/>
<polygon fill="midnightblue" stroke="midnightblue" points="100.54,-47.33 95.06,-56.4 105,-52.73 100.54,-47.33"/>
</g>
<!-- Node3 -->
<g id="node3" class="node">
<title>Node3</title>
<g id="a_node3"><a xlink:href="classvsomeip__v3_1_1message__base.html" target="_top" xlink:title="Base class to implement SOME/IP messages.">
<polygon fill="white" stroke="black" points="72.5,-123.5 72.5,-142.5 227.5,-142.5 227.5,-123.5 72.5,-123.5"/>
<text text-anchor="middle" x="150" y="-130.5" font-family="Helvetica,sans-Serif" font-size="10.00">vsomeip_v3::message_base</text>
</a>
</g>
</g>
<!-- Node3&#45;&gt;Node2 -->
<g id="edge2" class="edge">
<title>Node3&#45;&gt;Node2</title>
<path fill="none" stroke="midnightblue" d="M131.75,-116.92C120.45,-107.58 106.03,-95.66 94.97,-86.52"/>
<polygon fill="midnightblue" stroke="midnightblue" points="129.75,-119.8 139.68,-123.48 134.21,-114.41 129.75,-119.8"/>
</g>
<!-- Node6 -->
<g id="node6" class="node">
<title>Node6</title>
<g id="a_node6"><a xlink:href="classvsomeip__v3_1_1message.html" target="_top" xlink:title="Implements regular SOME/IP messages.">
<polygon fill="white" stroke="black" points="159,-62 159,-81 285,-81 285,-62 159,-62"/>
<text text-anchor="middle" x="222" y="-69" font-family="Helvetica,sans-Serif" font-size="10.00">vsomeip_v3::message</text>
</a>
</g>
</g>
<!-- Node3&#45;&gt;Node6 -->
<g id="edge6" class="edge">
<title>Node3&#45;&gt;Node6</title>
<path fill="none" stroke="midnightblue" d="M168.18,-116.97C181.96,-105.59 200.38,-90.37 211.7,-81.01"/>
<polygon fill="midnightblue" stroke="midnightblue" points="165.79,-114.41 160.32,-123.48 170.25,-119.8 165.79,-114.41"/>
</g>
<!-- Node4 -->
<g id="node4" class="node">
<title>Node4</title>
<g id="a_node4"><a xlink:href="classvsomeip__v3_1_1serializable.html" target="_top" xlink:title=" ">
<polygon fill="white" stroke="black" points="0,-179.5 0,-198.5 138,-198.5 138,-179.5 0,-179.5"/>
<text text-anchor="middle" x="69" y="-186.5" font-family="Helvetica,sans-Serif" font-size="10.00">vsomeip_v3::serializable</text>
</a>
</g>
</g>
<!-- Node4&#45;&gt;Node3 -->
<g id="edge3" class="edge">
<title>Node4&#45;&gt;Node3</title>
<path fill="none" stroke="midnightblue" d="M90.57,-173.62C105.36,-163.76 124.51,-150.99 137.02,-142.65"/>
<polygon fill="midnightblue" stroke="midnightblue" points="88.39,-170.86 82.01,-179.32 92.28,-176.69 88.39,-170.86"/>
</g>
<!-- Node5 -->
<g id="node5" class="node">
<title>Node5</title>
<g id="a_node5"><a xlink:href="classvsomeip__v3_1_1deserializable.html" target="_top" xlink:title=" ">
<polygon fill="white" stroke="black" points="156,-179.5 156,-198.5 306,-198.5 306,-179.5 156,-179.5"/>
<text text-anchor="middle" x="231" y="-186.5" font-family="Helvetica,sans-Serif" font-size="10.00">vsomeip_v3::deserializable</text>
</a>
</g>
</g>
<!-- Node5&#45;&gt;Node3 -->
<g id="edge4" class="edge">
<title>Node5&#45;&gt;Node3</title>
<path fill="none" stroke="midnightblue" d="M209.43,-173.62C194.64,-163.76 175.49,-150.99 162.98,-142.65"/>
<polygon fill="midnightblue" stroke="midnightblue" points="207.72,-176.69 217.99,-179.32 211.61,-170.86 207.72,-176.69"/>
</g>
<!-- Node6&#45;&gt;Node1 -->
<g id="edge5" class="edge">
<title>Node6&#45;&gt;Node1</title>
<path fill="none" stroke="midnightblue" d="M203.82,-55.47C190.04,-44.09 171.62,-28.87 160.3,-19.51"/>
<polygon fill="midnightblue" stroke="midnightblue" points="201.75,-58.3 211.68,-61.98 206.21,-52.91 201.75,-58.3"/>
</g>
</g>
</svg>
