<?xml version="1.0" encoding="UTF-8" standalone="no"?>
<!DOCTYPE svg PUBLIC "-//W3C//DTD SVG 1.1//EN"
 "http://www.w3.org/Graphics/SVG/1.1/DTD/svg11.dtd">
<!-- Generated by graphviz version 2.43.0 (0)
 -->
<!-- Title: boost::asio::basic_socket_acceptor_ext&lt; Protocol, SocketAcceptorService &gt; Pages: 1 -->
<svg width="387pt" height="148pt"
 viewBox="0.00 0.00 387.00 148.00" xmlns="http://www.w3.org/2000/svg" xmlns:xlink="http://www.w3.org/1999/xlink">
<g id="graph0" class="graph" transform="scale(1 1) rotate(0) translate(4 144)">
<title>boost::asio::basic_socket_acceptor_ext&lt; Protocol, SocketAcceptorService &gt;</title>
<polygon fill="white" stroke="transparent" points="-4,4 -4,-144 383,-144 383,4 -4,4"/>
<!-- Node1 -->
<g id="node1" class="node">
<title>Node1</title>
<g id="a_node1"><a xlink:title="Provides the ability to accept new connections.">
<polygon fill="#bfbfbf" stroke="black" points="183,-49.5 183,-90.5 379,-90.5 379,-49.5 183,-49.5"/>
<text text-anchor="start" x="191" y="-78.5" font-family="Helvetica,sans-Serif" font-size="10.00">boost::asio::basic</text>
<text text-anchor="start" x="191" y="-67.5" font-family="Helvetica,sans-Serif" font-size="10.00">_socket_acceptor_ext</text>
<text text-anchor="middle" x="281" y="-56.5" font-family="Helvetica,sans-Serif" font-size="10.00">&lt; Protocol, SocketAcceptorService &gt;</text>
</a>
</g>
</g>
<!-- Node2 -->
<g id="node2" class="node">
<title>Node2</title>
<g id="a_node2"><a xlink:title=" ">
<polygon fill="white" stroke="black" points="6.5,-98.5 6.5,-139.5 140.5,-139.5 140.5,-98.5 6.5,-98.5"/>
<text text-anchor="start" x="14.5" y="-127.5" font-family="Helvetica,sans-Serif" font-size="10.00">basic_io_object&lt; socket</text>
<text text-anchor="start" x="14.5" y="-116.5" font-family="Helvetica,sans-Serif" font-size="10.00">_acceptor_service_ext</text>
<text text-anchor="middle" x="73.5" y="-105.5" font-family="Helvetica,sans-Serif" font-size="10.00">&lt;Protocol&gt; &gt;</text>
</a>
</g>
</g>
<!-- Node2&#45;&gt;Node1 -->
<g id="edge1" class="edge">
<title>Node2&#45;&gt;Node1</title>
<path fill="none" stroke="midnightblue" d="M150.71,-100.83C164.72,-97.49 179.43,-93.98 193.71,-90.58"/>
<polygon fill="midnightblue" stroke="midnightblue" points="149.57,-97.5 140.65,-103.23 151.19,-104.31 149.57,-97.5"/>
</g>
<!-- Node3 -->
<g id="node3" class="node">
<title>Node3</title>
<g id="a_node3"><a xlink:title=" ">
<polygon fill="white" stroke="black" points="35,-60.5 35,-79.5 112,-79.5 112,-60.5 35,-60.5"/>
<text text-anchor="middle" x="73.5" y="-67.5" font-family="Helvetica,sans-Serif" font-size="10.00">socket_base</text>
</a>
</g>
</g>
<!-- Node3&#45;&gt;Node1 -->
<g id="edge2" class="edge">
<title>Node3&#45;&gt;Node1</title>
<path fill="none" stroke="midnightblue" d="M88.74,-55.42C121.11,-41.17 200.96,-39.18 246.6,-49.45"/>
<polygon fill="midnightblue" stroke="midnightblue" points="86.9,-52.44 80,-60.48 90.4,-58.5 86.9,-52.44"/>
</g>
<!-- Node3&#45;&gt;Node1 -->
<g id="edge4" class="edge">
<title>Node3&#45;&gt;Node1</title>
<path fill="none" stroke="midnightblue" d="M111.98,-59.29C131.97,-57.28 157.58,-56.36 182.74,-56.52"/>
<polygon fill="midnightblue" stroke="midnightblue" points="111.32,-55.85 101.79,-60.48 112.13,-62.8 111.32,-55.85"/>
</g>
<!-- Node3&#45;&gt;Node1 -->
<g id="edge5" class="edge">
<title>Node3&#45;&gt;Node1</title>
<path fill="none" stroke="midnightblue" d="M122.42,-70C140.47,-70 161.71,-70 182.65,-70"/>
<polygon fill="midnightblue" stroke="midnightblue" points="122.19,-66.5 112.19,-70 122.19,-73.5 122.19,-66.5"/>
</g>
<!-- Node3&#45;&gt;Node1 -->
<g id="edge6" class="edge">
<title>Node3&#45;&gt;Node1</title>
<path fill="none" stroke="midnightblue" d="M111.98,-80.71C131.97,-82.72 157.58,-83.64 182.74,-83.48"/>
<polygon fill="midnightblue" stroke="midnightblue" points="112.13,-77.2 101.79,-79.52 111.32,-84.15 112.13,-77.2"/>
</g>
<!-- Node3&#45;&gt;Node1 -->
<g id="edge7" class="edge">
<title>Node3&#45;&gt;Node1</title>
<path fill="none" stroke="midnightblue" d="M88.74,-84.58C121.11,-98.83 200.96,-100.82 246.6,-90.55"/>
<polygon fill="midnightblue" stroke="midnightblue" points="90.4,-81.5 80,-79.52 86.9,-87.56 90.4,-81.5"/>
</g>
<!-- Node4 -->
<g id="node4" class="node">
<title>Node4</title>
<g id="a_node4"><a xlink:title=" ">
<polygon fill="white" stroke="black" points="0,-0.5 0,-41.5 147,-41.5 147,-0.5 0,-0.5"/>
<text text-anchor="start" x="8" y="-29.5" font-family="Helvetica,sans-Serif" font-size="10.00">BOOST_ASIO_SVC_ACCESS</text>
<text text-anchor="start" x="8" y="-18.5" font-family="Helvetica,sans-Serif" font-size="10.00"> basic_io_object&lt; BOOST</text>
<text text-anchor="middle" x="73.5" y="-7.5" font-family="Helvetica,sans-Serif" font-size="10.00">_ASIO_SVC_T &gt;</text>
</a>
</g>
</g>
<!-- Node4&#45;&gt;Node1 -->
<g id="edge3" class="edge">
<title>Node4&#45;&gt;Node1</title>
<path fill="none" stroke="#8b1a1a" d="M157.29,-40.74C169.37,-43.62 181.84,-46.6 193.99,-49.49"/>
<polygon fill="#8b1a1a" stroke="#8b1a1a" points="157.78,-37.26 147.24,-38.34 156.16,-44.07 157.78,-37.26"/>
</g>
</g>
</svg>
