<?xml version="1.0" encoding="UTF-8" standalone="no"?>
<!DOCTYPE svg PUBLIC "-//W3C//DTD SVG 1.1//EN"
 "http://www.w3.org/Graphics/SVG/1.1/DTD/svg11.dtd">
<!-- Generated by graphviz version 2.43.0 (0)
 -->
<!-- Title: vsomeip_v3::e2e::profile_interface::checker Pages: 1 -->
<svg width="517pt" height="149pt"
 viewBox="0.00 0.00 517.00 148.50" xmlns="http://www.w3.org/2000/svg" xmlns:xlink="http://www.w3.org/1999/xlink">
<g id="graph0" class="graph" transform="scale(1 1) rotate(0) translate(4 144.5)">
<title>vsomeip_v3::e2e::profile_interface::checker</title>
<polygon fill="white" stroke="transparent" points="-4,4 -4,-144.5 513,-144.5 513,4 -4,4"/>
<!-- Node1 -->
<g id="node1" class="node">
<title>Node1</title>
<g id="a_node1"><a xlink:title=" ">
<polygon fill="#bfbfbf" stroke="black" points="187,-61 187,-91 324,-91 324,-61 187,-61"/>
<text text-anchor="start" x="195" y="-79" font-family="Helvetica,sans-Serif" font-size="10.00">vsomeip_v3::e2e::profile</text>
<text text-anchor="middle" x="255.5" y="-68" font-family="Helvetica,sans-Serif" font-size="10.00">_interface::checker</text>
</a>
</g>
</g>
<!-- Node3 -->
<g id="node3" class="node">
<title>Node3</title>
<g id="a_node3"><a xlink:href="classvsomeip__v3_1_1e2e_1_1profile01_1_1profile__01__checker.html" target="_top" xlink:title=" ">
<polygon fill="white" stroke="black" points="360,-110 360,-140 509,-140 509,-110 360,-110"/>
<text text-anchor="start" x="368" y="-128" font-family="Helvetica,sans-Serif" font-size="10.00">vsomeip_v3::e2e::profile01</text>
<text text-anchor="middle" x="434.5" y="-117" font-family="Helvetica,sans-Serif" font-size="10.00">::profile_01_checker</text>
</a>
</g>
</g>
<!-- Node1&#45;&gt;Node3 -->
<g id="edge2" class="edge">
<title>Node1&#45;&gt;Node3</title>
<path fill="none" stroke="midnightblue" d="M320.87,-93.82C339.99,-99.11 360.72,-104.85 379.13,-109.95"/>
<polygon fill="midnightblue" stroke="midnightblue" points="321.62,-90.4 311.05,-91.1 319.75,-97.14 321.62,-90.4"/>
</g>
<!-- Node4 -->
<g id="node4" class="node">
<title>Node4</title>
<g id="a_node4"><a xlink:href="classvsomeip__v3_1_1e2e_1_1profile04_1_1profile__04__checker.html" target="_top" xlink:title=" ">
<polygon fill="white" stroke="black" points="360,-61 360,-91 509,-91 509,-61 360,-61"/>
<text text-anchor="start" x="368" y="-79" font-family="Helvetica,sans-Serif" font-size="10.00">vsomeip_v3::e2e::profile04</text>
<text text-anchor="middle" x="434.5" y="-68" font-family="Helvetica,sans-Serif" font-size="10.00">::profile_04_checker</text>
</a>
</g>
</g>
<!-- Node1&#45;&gt;Node4 -->
<g id="edge3" class="edge">
<title>Node1&#45;&gt;Node4</title>
<path fill="none" stroke="midnightblue" d="M334.44,-76C342.92,-76 351.54,-76 359.97,-76"/>
<polygon fill="midnightblue" stroke="midnightblue" points="334.17,-72.5 324.17,-76 334.17,-79.5 334.17,-72.5"/>
</g>
<!-- Node5 -->
<g id="node5" class="node">
<title>Node5</title>
<g id="a_node5"><a xlink:href="classvsomeip__v3_1_1e2e_1_1profile__custom_1_1profile__custom__checker.html" target="_top" xlink:title=" ">
<polygon fill="white" stroke="black" points="366,-0.5 366,-41.5 503,-41.5 503,-0.5 366,-0.5"/>
<text text-anchor="start" x="374" y="-29.5" font-family="Helvetica,sans-Serif" font-size="10.00">vsomeip_v3::e2e::profile</text>
<text text-anchor="start" x="374" y="-18.5" font-family="Helvetica,sans-Serif" font-size="10.00">_custom::profile_custom</text>
<text text-anchor="middle" x="434.5" y="-7.5" font-family="Helvetica,sans-Serif" font-size="10.00">_checker</text>
</a>
</g>
</g>
<!-- Node1&#45;&gt;Node5 -->
<g id="edge4" class="edge">
<title>Node1&#45;&gt;Node5</title>
<path fill="none" stroke="midnightblue" d="M314.57,-57.95C331.43,-52.72 349.96,-46.96 367.28,-41.58"/>
<polygon fill="midnightblue" stroke="midnightblue" points="313.38,-54.66 304.87,-60.97 315.45,-61.35 313.38,-54.66"/>
</g>
<!-- Node2 -->
<g id="node2" class="node">
<title>Node2</title>
<g id="a_node2"><a xlink:href="classvsomeip__v3_1_1e2e_1_1profile__interface_1_1profile__interface.html" target="_top" xlink:title=" ">
<polygon fill="white" stroke="black" points="0,-61 0,-91 151,-91 151,-61 0,-61"/>
<text text-anchor="start" x="8" y="-79" font-family="Helvetica,sans-Serif" font-size="10.00">vsomeip_v3::e2e::profile</text>
<text text-anchor="middle" x="75.5" y="-68" font-family="Helvetica,sans-Serif" font-size="10.00">_interface::profile_interface</text>
</a>
</g>
</g>
<!-- Node2&#45;&gt;Node1 -->
<g id="edge1" class="edge">
<title>Node2&#45;&gt;Node1</title>
<path fill="none" stroke="midnightblue" d="M161.23,-76C169.8,-76 178.42,-76 186.78,-76"/>
<polygon fill="midnightblue" stroke="midnightblue" points="161.21,-72.5 151.21,-76 161.21,-79.5 161.21,-72.5"/>
</g>
</g>
</svg>
