<?xml version="1.0" encoding="UTF-8" standalone="no"?>
<!DOCTYPE svg PUBLIC "-//W3C//DTD SVG 1.1//EN"
 "http://www.w3.org/Graphics/SVG/1.1/DTD/svg11.dtd">
<!-- Generated by graphviz version 2.43.0 (0)
 -->
<!-- Title: vsomeip_v3::sd::option_impl Pages: 1 -->
<svg width="699pt" height="235pt"
 viewBox="0.00 0.00 699.00 235.00" xmlns="http://www.w3.org/2000/svg" xmlns:xlink="http://www.w3.org/1999/xlink">
<g id="graph0" class="graph" transform="scale(1 1) rotate(0) translate(4 231)">
<title>vsomeip_v3::sd::option_impl</title>
<polygon fill="white" stroke="transparent" points="-4,4 -4,-231 695,-231 695,4 -4,4"/>
<!-- Node1 -->
<g id="node1" class="node">
<title>Node1</title>
<g id="a_node1"><a xlink:title=" ">
<polygon fill="#bfbfbf" stroke="black" points="179,-104 179,-123 336,-123 336,-104 179,-104"/>
<text text-anchor="middle" x="257.5" y="-111" font-family="Helvetica,sans-Serif" font-size="10.00">vsomeip_v3::sd::option_impl</text>
</a>
</g>
</g>
<!-- Node3 -->
<g id="node3" class="node">
<title>Node3</title>
<g id="a_node3"><a xlink:href="classvsomeip__v3_1_1sd_1_1configuration__option__impl.html" target="_top" xlink:title=" ">
<polygon fill="white" stroke="black" points="372,-196.5 372,-226.5 535,-226.5 535,-196.5 372,-196.5"/>
<text text-anchor="start" x="380" y="-214.5" font-family="Helvetica,sans-Serif" font-size="10.00">vsomeip_v3::sd::configuration</text>
<text text-anchor="middle" x="453.5" y="-203.5" font-family="Helvetica,sans-Serif" font-size="10.00">_option_impl</text>
</a>
</g>
</g>
<!-- Node1&#45;&gt;Node3 -->
<g id="edge2" class="edge">
<title>Node1&#45;&gt;Node3</title>
<path fill="none" stroke="midnightblue" d="M279.01,-129.13C301.02,-145.3 337.47,-170.4 372,-186.5 379.83,-190.15 388.32,-193.44 396.76,-196.35"/>
<polygon fill="midnightblue" stroke="midnightblue" points="280.89,-126.17 270.78,-123 276.71,-131.78 280.89,-126.17"/>
</g>
<!-- Node4 -->
<g id="node4" class="node">
<title>Node4</title>
<g id="a_node4"><a xlink:href="classvsomeip__v3_1_1sd_1_1ip__option__impl.html" target="_top" xlink:title=" ">
<polygon fill="white" stroke="black" points="399.5,-147.5 399.5,-177.5 507.5,-177.5 507.5,-147.5 399.5,-147.5"/>
<text text-anchor="start" x="407.5" y="-165.5" font-family="Helvetica,sans-Serif" font-size="10.00">vsomeip_v3::sd::ip</text>
<text text-anchor="middle" x="453.5" y="-154.5" font-family="Helvetica,sans-Serif" font-size="10.00">_option_impl</text>
</a>
</g>
</g>
<!-- Node1&#45;&gt;Node4 -->
<g id="edge3" class="edge">
<title>Node1&#45;&gt;Node4</title>
<path fill="none" stroke="midnightblue" d="M306.38,-125.59C334.57,-132.71 370.26,-141.73 399.32,-149.07"/>
<polygon fill="midnightblue" stroke="midnightblue" points="306.92,-122.12 296.37,-123.06 305.2,-128.91 306.92,-122.12"/>
</g>
<!-- Node7 -->
<g id="node7" class="node">
<title>Node7</title>
<g id="a_node7"><a xlink:href="classvsomeip__v3_1_1sd_1_1load__balancing__option__impl.html" target="_top" xlink:title=" ">
<polygon fill="white" stroke="black" points="387.5,-98.5 387.5,-128.5 519.5,-128.5 519.5,-98.5 387.5,-98.5"/>
<text text-anchor="start" x="395.5" y="-116.5" font-family="Helvetica,sans-Serif" font-size="10.00">vsomeip_v3::sd::load</text>
<text text-anchor="middle" x="453.5" y="-105.5" font-family="Helvetica,sans-Serif" font-size="10.00">_balancing_option_impl</text>
</a>
</g>
</g>
<!-- Node1&#45;&gt;Node7 -->
<g id="edge6" class="edge">
<title>Node1&#45;&gt;Node7</title>
<path fill="none" stroke="midnightblue" d="M346.05,-113.5C359.91,-113.5 374.04,-113.5 387.28,-113.5"/>
<polygon fill="midnightblue" stroke="midnightblue" points="346.01,-110 336.01,-113.5 346.01,-117 346.01,-110"/>
</g>
<!-- Node8 -->
<g id="node8" class="node">
<title>Node8</title>
<g id="a_node8"><a xlink:href="classvsomeip__v3_1_1sd_1_1protection__option__impl.html" target="_top" xlink:title=" ">
<polygon fill="white" stroke="black" points="379,-49.5 379,-79.5 528,-79.5 528,-49.5 379,-49.5"/>
<text text-anchor="start" x="387" y="-67.5" font-family="Helvetica,sans-Serif" font-size="10.00">vsomeip_v3::sd::protection</text>
<text text-anchor="middle" x="453.5" y="-56.5" font-family="Helvetica,sans-Serif" font-size="10.00">_option_impl</text>
</a>
</g>
</g>
<!-- Node1&#45;&gt;Node8 -->
<g id="edge7" class="edge">
<title>Node1&#45;&gt;Node8</title>
<path fill="none" stroke="midnightblue" d="M306.07,-101.49C332.28,-94.86 365.07,-86.58 392.97,-79.54"/>
<polygon fill="midnightblue" stroke="midnightblue" points="305.2,-98.09 296.37,-103.94 306.92,-104.88 305.2,-98.09"/>
</g>
<!-- Node9 -->
<g id="node9" class="node">
<title>Node9</title>
<g id="a_node9"><a xlink:href="classvsomeip__v3_1_1sd_1_1selective__option__impl.html" target="_top" xlink:title=" ">
<polygon fill="white" stroke="black" points="382,-0.5 382,-30.5 525,-30.5 525,-0.5 382,-0.5"/>
<text text-anchor="start" x="390" y="-18.5" font-family="Helvetica,sans-Serif" font-size="10.00">vsomeip_v3::sd::selective</text>
<text text-anchor="middle" x="453.5" y="-7.5" font-family="Helvetica,sans-Serif" font-size="10.00">_option_impl</text>
</a>
</g>
</g>
<!-- Node1&#45;&gt;Node9 -->
<g id="edge8" class="edge">
<title>Node1&#45;&gt;Node9</title>
<path fill="none" stroke="midnightblue" d="M278.94,-97.56C300.89,-81.08 337.29,-55.57 372,-39.5 379.15,-36.19 386.86,-33.21 394.58,-30.56"/>
<polygon fill="midnightblue" stroke="midnightblue" points="276.57,-94.96 270.74,-103.8 280.81,-100.53 276.57,-94.96"/>
</g>
<!-- Node2 -->
<g id="node2" class="node">
<title>Node2</title>
<g id="a_node2"><a xlink:href="classvsomeip__v3_1_1sd_1_1message__element__impl.html" target="_top" xlink:title=" ">
<polygon fill="white" stroke="black" points="0,-98.5 0,-128.5 143,-128.5 143,-98.5 0,-98.5"/>
<text text-anchor="start" x="8" y="-116.5" font-family="Helvetica,sans-Serif" font-size="10.00">vsomeip_v3::sd::message</text>
<text text-anchor="middle" x="71.5" y="-105.5" font-family="Helvetica,sans-Serif" font-size="10.00">_element_impl</text>
</a>
</g>
</g>
<!-- Node2&#45;&gt;Node1 -->
<g id="edge1" class="edge">
<title>Node2&#45;&gt;Node1</title>
<path fill="none" stroke="midnightblue" d="M153.32,-113.5C161.76,-113.5 170.32,-113.5 178.73,-113.5"/>
<polygon fill="midnightblue" stroke="midnightblue" points="153.11,-110 143.11,-113.5 153.11,-117 153.11,-110"/>
</g>
<!-- Node5 -->
<g id="node5" class="node">
<title>Node5</title>
<g id="a_node5"><a xlink:href="classvsomeip__v3_1_1sd_1_1ipv4__option__impl.html" target="_top" xlink:title=" ">
<polygon fill="white" stroke="black" points="571,-171.5 571,-201.5 691,-201.5 691,-171.5 571,-171.5"/>
<text text-anchor="start" x="579" y="-189.5" font-family="Helvetica,sans-Serif" font-size="10.00">vsomeip_v3::sd::ipv4</text>
<text text-anchor="middle" x="631" y="-178.5" font-family="Helvetica,sans-Serif" font-size="10.00">_option_impl</text>
</a>
</g>
</g>
<!-- Node4&#45;&gt;Node5 -->
<g id="edge4" class="edge">
<title>Node4&#45;&gt;Node5</title>
<path fill="none" stroke="midnightblue" d="M517.67,-171.14C535.03,-173.51 553.79,-176.08 570.92,-178.42"/>
<polygon fill="midnightblue" stroke="midnightblue" points="518.01,-167.65 507.63,-169.77 517.07,-174.59 518.01,-167.65"/>
</g>
<!-- Node6 -->
<g id="node6" class="node">
<title>Node6</title>
<g id="a_node6"><a xlink:href="classvsomeip__v3_1_1sd_1_1ipv6__option__impl.html" target="_top" xlink:title=" ">
<polygon fill="white" stroke="black" points="571,-122.5 571,-152.5 691,-152.5 691,-122.5 571,-122.5"/>
<text text-anchor="start" x="579" y="-140.5" font-family="Helvetica,sans-Serif" font-size="10.00">vsomeip_v3::sd::ipv6</text>
<text text-anchor="middle" x="631" y="-129.5" font-family="Helvetica,sans-Serif" font-size="10.00">_option_impl</text>
</a>
</g>
</g>
<!-- Node4&#45;&gt;Node6 -->
<g id="edge5" class="edge">
<title>Node4&#45;&gt;Node6</title>
<path fill="none" stroke="midnightblue" d="M517.67,-153.5C535.03,-151.03 553.79,-148.36 570.92,-145.92"/>
<polygon fill="midnightblue" stroke="midnightblue" points="517.04,-150.06 507.63,-154.93 518.03,-156.99 517.04,-150.06"/>
</g>
</g>
</svg>
