<?xml version="1.0" encoding="UTF-8" standalone="no"?>
<!DOCTYPE svg PUBLIC "-//W3C//DTD SVG 1.1//EN"
 "http://www.w3.org/Graphics/SVG/1.1/DTD/svg11.dtd">
<!-- Generated by graphviz version 2.43.0 (0)
 -->
<!-- Title: vsomeip_v3::sd::ip_option_impl Pages: 1 -->
<svg width="266pt" height="229pt"
 viewBox="0.00 0.00 266.00 229.00" xmlns="http://www.w3.org/2000/svg" xmlns:xlink="http://www.w3.org/1999/xlink">
<g id="graph0" class="graph" transform="scale(1 1) rotate(0) translate(4 225)">
<title>vsomeip_v3::sd::ip_option_impl</title>
<polygon fill="white" stroke="transparent" points="-4,4 -4,-225 262,-225 262,4 -4,4"/>
<!-- Node1 -->
<g id="node1" class="node">
<title>Node1</title>
<g id="a_node1"><a xlink:title=" ">
<polygon fill="#bfbfbf" stroke="black" points="75,-67.5 75,-97.5 183,-97.5 183,-67.5 75,-67.5"/>
<text text-anchor="start" x="83" y="-85.5" font-family="Helvetica,sans-Serif" font-size="10.00">vsomeip_v3::sd::ip</text>
<text text-anchor="middle" x="129" y="-74.5" font-family="Helvetica,sans-Serif" font-size="10.00">_option_impl</text>
</a>
</g>
</g>
<!-- Node4 -->
<g id="node4" class="node">
<title>Node4</title>
<g id="a_node4"><a xlink:href="classvsomeip__v3_1_1sd_1_1ipv4__option__impl.html" target="_top" xlink:title=" ">
<polygon fill="white" stroke="black" points="0,-0.5 0,-30.5 120,-30.5 120,-0.5 0,-0.5"/>
<text text-anchor="start" x="8" y="-18.5" font-family="Helvetica,sans-Serif" font-size="10.00">vsomeip_v3::sd::ipv4</text>
<text text-anchor="middle" x="60" y="-7.5" font-family="Helvetica,sans-Serif" font-size="10.00">_option_impl</text>
</a>
</g>
</g>
<!-- Node1&#45;&gt;Node4 -->
<g id="edge3" class="edge">
<title>Node1&#45;&gt;Node4</title>
<path fill="none" stroke="midnightblue" d="M106.51,-60.31C96.16,-50.56 84.16,-39.26 74.94,-30.58"/>
<polygon fill="midnightblue" stroke="midnightblue" points="104.35,-63.09 114.03,-67.4 109.15,-57.99 104.35,-63.09"/>
</g>
<!-- Node5 -->
<g id="node5" class="node">
<title>Node5</title>
<g id="a_node5"><a xlink:href="classvsomeip__v3_1_1sd_1_1ipv6__option__impl.html" target="_top" xlink:title=" ">
<polygon fill="white" stroke="black" points="138,-0.5 138,-30.5 258,-30.5 258,-0.5 138,-0.5"/>
<text text-anchor="start" x="146" y="-18.5" font-family="Helvetica,sans-Serif" font-size="10.00">vsomeip_v3::sd::ipv6</text>
<text text-anchor="middle" x="198" y="-7.5" font-family="Helvetica,sans-Serif" font-size="10.00">_option_impl</text>
</a>
</g>
</g>
<!-- Node1&#45;&gt;Node5 -->
<g id="edge4" class="edge">
<title>Node1&#45;&gt;Node5</title>
<path fill="none" stroke="midnightblue" d="M151.49,-60.31C161.84,-50.56 173.84,-39.26 183.06,-30.58"/>
<polygon fill="midnightblue" stroke="midnightblue" points="148.85,-57.99 143.97,-67.4 153.65,-63.09 148.85,-57.99"/>
</g>
<!-- Node2 -->
<g id="node2" class="node">
<title>Node2</title>
<g id="a_node2"><a xlink:href="classvsomeip__v3_1_1sd_1_1option__impl.html" target="_top" xlink:title=" ">
<polygon fill="white" stroke="black" points="50.5,-134.5 50.5,-153.5 207.5,-153.5 207.5,-134.5 50.5,-134.5"/>
<text text-anchor="middle" x="129" y="-141.5" font-family="Helvetica,sans-Serif" font-size="10.00">vsomeip_v3::sd::option_impl</text>
</a>
</g>
</g>
<!-- Node2&#45;&gt;Node1 -->
<g id="edge1" class="edge">
<title>Node2&#45;&gt;Node1</title>
<path fill="none" stroke="midnightblue" d="M129,-124.23C129,-115.59 129,-105.5 129,-97.52"/>
<polygon fill="midnightblue" stroke="midnightblue" points="125.5,-124.48 129,-134.48 132.5,-124.48 125.5,-124.48"/>
</g>
<!-- Node3 -->
<g id="node3" class="node">
<title>Node3</title>
<g id="a_node3"><a xlink:href="classvsomeip__v3_1_1sd_1_1message__element__impl.html" target="_top" xlink:title=" ">
<polygon fill="white" stroke="black" points="57.5,-190.5 57.5,-220.5 200.5,-220.5 200.5,-190.5 57.5,-190.5"/>
<text text-anchor="start" x="65.5" y="-208.5" font-family="Helvetica,sans-Serif" font-size="10.00">vsomeip_v3::sd::message</text>
<text text-anchor="middle" x="129" y="-197.5" font-family="Helvetica,sans-Serif" font-size="10.00">_element_impl</text>
</a>
</g>
</g>
<!-- Node3&#45;&gt;Node2 -->
<g id="edge2" class="edge">
<title>Node3&#45;&gt;Node2</title>
<path fill="none" stroke="midnightblue" d="M129,-180.29C129,-170.86 129,-160.65 129,-153.66"/>
<polygon fill="midnightblue" stroke="midnightblue" points="125.5,-180.4 129,-190.4 132.5,-180.4 125.5,-180.4"/>
</g>
</g>
</svg>
