<?xml version="1.0" encoding="UTF-8" standalone="no"?>
<!DOCTYPE svg PUBLIC "-//W3C//DTD SVG 1.1//EN"
 "http://www.w3.org/Graphics/SVG/1.1/DTD/svg11.dtd">
<!-- Generated by graphviz version 2.43.0 (0)
 -->
<!-- Title: vsomeip_v3::udp_client_endpoint_impl Pages: 1 -->
<svg width="643pt" height="149pt"
 viewBox="0.00 0.00 643.00 148.50" xmlns="http://www.w3.org/2000/svg" xmlns:xlink="http://www.w3.org/1999/xlink">
<g id="graph0" class="graph" transform="scale(1 1) rotate(0) translate(4 144.5)">
<title>vsomeip_v3::udp_client_endpoint_impl</title>
<polygon fill="white" stroke="transparent" points="-4,4 -4,-144.5 639,-144.5 639,4 -4,4"/>
<!-- Node1 -->
<g id="node1" class="node">
<title>Node1</title>
<g id="a_node1"><a xlink:title=" ">
<polygon fill="#bfbfbf" stroke="black" points="503,-61 503,-91 635,-91 635,-61 503,-61"/>
<text text-anchor="start" x="511" y="-79" font-family="Helvetica,sans-Serif" font-size="10.00">vsomeip_v3::udp_client</text>
<text text-anchor="middle" x="569" y="-68" font-family="Helvetica,sans-Serif" font-size="10.00">_endpoint_impl</text>
</a>
</g>
</g>
<!-- Node2 -->
<g id="node2" class="node">
<title>Node2</title>
<g id="a_node2"><a xlink:href="classvsomeip__v3_1_1client__endpoint__impl.html" target="_top" xlink:title=" ">
<polygon fill="white" stroke="black" points="352,-61 352,-91 467,-91 467,-61 352,-61"/>
<text text-anchor="start" x="360" y="-79" font-family="Helvetica,sans-Serif" font-size="10.00">udp_client_endpoint</text>
<text text-anchor="middle" x="409.5" y="-68" font-family="Helvetica,sans-Serif" font-size="10.00">_base_impl</text>
</a>
</g>
</g>
<!-- Node2&#45;&gt;Node1 -->
<g id="edge1" class="edge">
<title>Node2&#45;&gt;Node1</title>
<path fill="none" stroke="midnightblue" d="M477.52,-76C485.94,-76 494.54,-76 502.93,-76"/>
<polygon fill="midnightblue" stroke="midnightblue" points="477.36,-72.5 467.36,-76 477.36,-79.5 477.36,-72.5"/>
</g>
<!-- Node3 -->
<g id="node3" class="node">
<title>Node3</title>
<g id="a_node3"><a xlink:href="classvsomeip__v3_1_1endpoint__impl.html" target="_top" xlink:title=" ">
<polygon fill="white" stroke="black" points="176,-110 176,-140 301,-140 301,-110 176,-110"/>
<text text-anchor="start" x="184" y="-128" font-family="Helvetica,sans-Serif" font-size="10.00">vsomeip_v3::endpoint</text>
<text text-anchor="middle" x="238.5" y="-117" font-family="Helvetica,sans-Serif" font-size="10.00">_impl&lt; Protocol &gt;</text>
</a>
</g>
</g>
<!-- Node3&#45;&gt;Node2 -->
<g id="edge2" class="edge">
<title>Node3&#45;&gt;Node2</title>
<path fill="none" stroke="midnightblue" d="M301.22,-107.11C319.39,-101.84 339.09,-96.12 356.59,-91.05"/>
<polygon fill="midnightblue" stroke="midnightblue" points="300.21,-103.75 291.58,-109.9 302.16,-110.48 300.21,-103.75"/>
</g>
<!-- Node4 -->
<g id="node4" class="node">
<title>Node4</title>
<g id="a_node4"><a xlink:href="classvsomeip__v3_1_1endpoint.html" target="_top" xlink:title=" ">
<polygon fill="white" stroke="black" points="0,-90.5 0,-109.5 125,-109.5 125,-90.5 0,-90.5"/>
<text text-anchor="middle" x="62.5" y="-97.5" font-family="Helvetica,sans-Serif" font-size="10.00">vsomeip_v3::endpoint</text>
</a>
</g>
</g>
<!-- Node4&#45;&gt;Node3 -->
<g id="edge3" class="edge">
<title>Node4&#45;&gt;Node3</title>
<path fill="none" stroke="midnightblue" d="M135.48,-110.34C148.89,-112.27 162.79,-114.27 175.86,-116.14"/>
<polygon fill="midnightblue" stroke="midnightblue" points="135.73,-106.84 125.34,-108.88 134.74,-113.77 135.73,-106.84"/>
</g>
<!-- Node5 -->
<g id="node5" class="node">
<title>Node5</title>
<g id="a_node5"><a xlink:href="classvsomeip__v3_1_1client__endpoint.html" target="_top" xlink:title=" ">
<polygon fill="white" stroke="black" points="184,-61 184,-91 293,-91 293,-61 184,-61"/>
<text text-anchor="start" x="192" y="-79" font-family="Helvetica,sans-Serif" font-size="10.00">vsomeip_v3::client</text>
<text text-anchor="middle" x="238.5" y="-68" font-family="Helvetica,sans-Serif" font-size="10.00">_endpoint</text>
</a>
</g>
</g>
<!-- Node4&#45;&gt;Node5 -->
<g id="edge5" class="edge">
<title>Node4&#45;&gt;Node5</title>
<path fill="none" stroke="midnightblue" d="M135.34,-90.09C151.6,-87.85 168.59,-85.5 183.94,-83.39"/>
<polygon fill="midnightblue" stroke="midnightblue" points="134.76,-86.64 125.34,-91.47 135.72,-93.57 134.76,-86.64"/>
</g>
<!-- Node5&#45;&gt;Node2 -->
<g id="edge4" class="edge">
<title>Node5&#45;&gt;Node2</title>
<path fill="none" stroke="midnightblue" d="M303.68,-76C319.54,-76 336.41,-76 351.87,-76"/>
<polygon fill="midnightblue" stroke="midnightblue" points="303.44,-72.5 293.44,-76 303.44,-79.5 303.44,-72.5"/>
</g>
<!-- Node6 -->
<g id="node6" class="node">
<title>Node6</title>
<g id="a_node6"><a xlink:title=" ">
<polygon fill="white" stroke="black" points="161,-0.5 161,-41.5 316,-41.5 316,-0.5 161,-0.5"/>
<text text-anchor="start" x="169" y="-29.5" font-family="Helvetica,sans-Serif" font-size="10.00">std::enable_shared</text>
<text text-anchor="start" x="169" y="-18.5" font-family="Helvetica,sans-Serif" font-size="10.00">_from_this&lt; client_endpoint</text>
<text text-anchor="middle" x="238.5" y="-7.5" font-family="Helvetica,sans-Serif" font-size="10.00">_impl&lt; Protocol &gt; &gt;</text>
</a>
</g>
</g>
<!-- Node6&#45;&gt;Node2 -->
<g id="edge6" class="edge">
<title>Node6&#45;&gt;Node2</title>
<path fill="none" stroke="midnightblue" d="M312.7,-44.82C329.49,-50.29 346.88,-55.94 362.16,-60.92"/>
<polygon fill="midnightblue" stroke="midnightblue" points="313.5,-41.4 302.91,-41.64 311.34,-48.06 313.5,-41.4"/>
</g>
</g>
</svg>
