<?xml version="1.0" encoding="UTF-8" standalone="no"?>
<!DOCTYPE svg PUBLIC "-//W3C//DTD SVG 1.1//EN"
 "http://www.w3.org/Graphics/SVG/1.1/DTD/svg11.dtd">
<!-- Generated by graphviz version 2.43.0 (0)
 -->
<!-- Title: vsomeip_v3::endpoint_host Pages: 1 -->
<svg width="159pt" height="162pt"
 viewBox="0.00 0.00 159.00 162.00" xmlns="http://www.w3.org/2000/svg" xmlns:xlink="http://www.w3.org/1999/xlink">
<g id="graph0" class="graph" transform="scale(1 1) rotate(0) translate(4 158)">
<title>vsomeip_v3::endpoint_host</title>
<polygon fill="white" stroke="transparent" points="-4,4 -4,-158 155,-158 155,4 -4,4"/>
<!-- Node1 -->
<g id="node1" class="node">
<title>Node1</title>
<g id="a_node1"><a xlink:title=" ">
<polygon fill="#bfbfbf" stroke="black" points="0,-134.5 0,-153.5 151,-153.5 151,-134.5 0,-134.5"/>
<text text-anchor="middle" x="75.5" y="-141.5" font-family="Helvetica,sans-Serif" font-size="10.00">vsomeip_v3::endpoint_host</text>
</a>
</g>
</g>
<!-- Node2 -->
<g id="node2" class="node">
<title>Node2</title>
<g id="a_node2"><a xlink:href="classvsomeip__v3_1_1endpoint__manager__base.html" target="_top" xlink:title=" ">
<polygon fill="white" stroke="black" points="13,-67.5 13,-97.5 138,-97.5 138,-67.5 13,-67.5"/>
<text text-anchor="start" x="21" y="-85.5" font-family="Helvetica,sans-Serif" font-size="10.00">vsomeip_v3::endpoint</text>
<text text-anchor="middle" x="75.5" y="-74.5" font-family="Helvetica,sans-Serif" font-size="10.00">_manager_base</text>
</a>
</g>
</g>
<!-- Node1&#45;&gt;Node2 -->
<g id="edge1" class="edge">
<title>Node1&#45;&gt;Node2</title>
<path fill="none" stroke="midnightblue" d="M75.5,-124.23C75.5,-115.59 75.5,-105.5 75.5,-97.52"/>
<polygon fill="midnightblue" stroke="midnightblue" points="72,-124.48 75.5,-134.48 79,-124.48 72,-124.48"/>
</g>
<!-- Node3 -->
<g id="node3" class="node">
<title>Node3</title>
<g id="a_node3"><a xlink:href="classvsomeip__v3_1_1endpoint__manager__impl.html" target="_top" xlink:title=" ">
<polygon fill="white" stroke="black" points="13,-0.5 13,-30.5 138,-30.5 138,-0.5 13,-0.5"/>
<text text-anchor="start" x="21" y="-18.5" font-family="Helvetica,sans-Serif" font-size="10.00">vsomeip_v3::endpoint</text>
<text text-anchor="middle" x="75.5" y="-7.5" font-family="Helvetica,sans-Serif" font-size="10.00">_manager_impl</text>
</a>
</g>
</g>
<!-- Node2&#45;&gt;Node3 -->
<g id="edge2" class="edge">
<title>Node2&#45;&gt;Node3</title>
<path fill="none" stroke="midnightblue" d="M75.5,-57.11C75.5,-48.15 75.5,-38.32 75.5,-30.58"/>
<polygon fill="midnightblue" stroke="midnightblue" points="72,-57.4 75.5,-67.4 79,-57.4 72,-57.4"/>
</g>
</g>
</svg>
