<?xml version="1.0" encoding="UTF-8" standalone="no"?>
<!DOCTYPE svg PUBLIC "-//W3C//DTD SVG 1.1//EN"
 "http://www.w3.org/Graphics/SVG/1.1/DTD/svg11.dtd">
<!-- Generated by graphviz version 2.43.0 (0)
 -->
<!-- Title: boost::asio::detail::reactive_socket_recvfrom_op_base_ext&lt; MutableBufferSequence, Endpoint &gt; Pages: 1 -->
<svg width="222pt" height="184pt"
 viewBox="0.00 0.00 222.00 184.00" xmlns="http://www.w3.org/2000/svg" xmlns:xlink="http://www.w3.org/1999/xlink">
<g id="graph0" class="graph" transform="scale(1 1) rotate(0) translate(4 180)">
<title>boost::asio::detail::reactive_socket_recvfrom_op_base_ext&lt; MutableBufferSequence, Endpoint &gt;</title>
<polygon fill="white" stroke="transparent" points="-4,4 -4,-180 218,-180 218,4 -4,4"/>
<!-- Node1 -->
<g id="node1" class="node">
<title>Node1</title>
<g id="a_node1"><a xlink:title=" ">
<polygon fill="#bfbfbf" stroke="black" points="0,-0.5 0,-52.5 214,-52.5 214,-0.5 0,-0.5"/>
<text text-anchor="start" x="8" y="-40.5" font-family="Helvetica,sans-Serif" font-size="10.00">boost::asio::detail</text>
<text text-anchor="start" x="8" y="-29.5" font-family="Helvetica,sans-Serif" font-size="10.00">::reactive_socket_recvfrom</text>
<text text-anchor="start" x="8" y="-18.5" font-family="Helvetica,sans-Serif" font-size="10.00">_op_base_ext&lt; MutableBufferSequence,</text>
<text text-anchor="middle" x="107" y="-7.5" font-family="Helvetica,sans-Serif" font-size="10.00"> Endpoint &gt;</text>
</a>
</g>
</g>
<!-- Node2 -->
<g id="node2" class="node">
<title>Node2</title>
<g id="a_node2"><a xlink:href="classboost_1_1asio_1_1detail_1_1reactor__op__ext.html" target="_top" xlink:title=" ">
<polygon fill="white" stroke="black" points="55,-89.5 55,-119.5 159,-119.5 159,-89.5 55,-89.5"/>
<text text-anchor="start" x="63" y="-107.5" font-family="Helvetica,sans-Serif" font-size="10.00">boost::asio::detail</text>
<text text-anchor="middle" x="107" y="-96.5" font-family="Helvetica,sans-Serif" font-size="10.00">::reactor_op_ext</text>
</a>
</g>
</g>
<!-- Node2&#45;&gt;Node1 -->
<g id="edge1" class="edge">
<title>Node2&#45;&gt;Node1</title>
<path fill="none" stroke="midnightblue" d="M81.75,-79.71C79.52,-71.06 79.42,-61.26 81.46,-52.5"/>
<polygon fill="midnightblue" stroke="midnightblue" points="78.54,-81.1 85.35,-89.2 85.08,-78.61 78.54,-81.1"/>
</g>
<!-- Node2&#45;&gt;Node1 -->
<g id="edge7" class="edge">
<title>Node2&#45;&gt;Node1</title>
<path fill="none" stroke="midnightblue" d="M94.3,-79.14C93.26,-70.63 93.23,-61.07 94.23,-52.5"/>
<polygon fill="midnightblue" stroke="midnightblue" points="90.91,-80.01 96.18,-89.2 97.79,-78.73 90.91,-80.01"/>
</g>
<!-- Node2&#45;&gt;Node1 -->
<g id="edge8" class="edge">
<title>Node2&#45;&gt;Node1</title>
<path fill="none" stroke="midnightblue" d="M107,-79.14C107,-70.63 107,-61.07 107,-52.5"/>
<polygon fill="midnightblue" stroke="midnightblue" points="103.5,-79.2 107,-89.2 110.5,-79.21 103.5,-79.2"/>
</g>
<!-- Node2&#45;&gt;Node1 -->
<g id="edge9" class="edge">
<title>Node2&#45;&gt;Node1</title>
<path fill="none" stroke="midnightblue" d="M119.7,-79.14C120.74,-70.63 120.77,-61.07 119.77,-52.5"/>
<polygon fill="midnightblue" stroke="midnightblue" points="116.21,-78.73 117.82,-89.2 123.09,-80.01 116.21,-78.73"/>
</g>
<!-- Node2&#45;&gt;Node1 -->
<g id="edge10" class="edge">
<title>Node2&#45;&gt;Node1</title>
<path fill="none" stroke="midnightblue" d="M132.25,-79.71C134.48,-71.06 134.58,-61.26 132.54,-52.5"/>
<polygon fill="midnightblue" stroke="midnightblue" points="128.92,-78.61 128.65,-89.2 135.46,-81.1 128.92,-78.61"/>
</g>
<!-- Node3 -->
<g id="node3" class="node">
<title>Node3</title>
<g id="a_node3"><a xlink:title=" ">
<polygon fill="white" stroke="black" points="73,-156.5 73,-175.5 141,-175.5 141,-156.5 73,-156.5"/>
<text text-anchor="middle" x="107" y="-163.5" font-family="Helvetica,sans-Serif" font-size="10.00">reactor_op</text>
</a>
</g>
</g>
<!-- Node3&#45;&gt;Node2 -->
<g id="edge2" class="edge">
<title>Node3&#45;&gt;Node2</title>
<path fill="none" stroke="midnightblue" d="M82.21,-147.68C78.84,-138.73 79.32,-127.94 83.68,-119.52"/>
<polygon fill="midnightblue" stroke="midnightblue" points="79.31,-149.64 87.4,-156.48 85.34,-146.08 79.31,-149.64"/>
</g>
<!-- Node3&#45;&gt;Node2 -->
<g id="edge3" class="edge">
<title>Node3&#45;&gt;Node2</title>
<path fill="none" stroke="midnightblue" d="M94.45,-146.82C92.94,-138.04 93.23,-127.68 95.34,-119.52"/>
<polygon fill="midnightblue" stroke="midnightblue" points="91.1,-147.81 97.2,-156.48 97.83,-145.9 91.1,-147.81"/>
</g>
<!-- Node3&#45;&gt;Node2 -->
<g id="edge4" class="edge">
<title>Node3&#45;&gt;Node2</title>
<path fill="none" stroke="midnightblue" d="M107,-146.23C107,-137.59 107,-127.5 107,-119.52"/>
<polygon fill="midnightblue" stroke="midnightblue" points="103.5,-146.48 107,-156.48 110.5,-146.48 103.5,-146.48"/>
</g>
<!-- Node3&#45;&gt;Node2 -->
<g id="edge5" class="edge">
<title>Node3&#45;&gt;Node2</title>
<path fill="none" stroke="midnightblue" d="M119.55,-146.82C121.06,-138.04 120.77,-127.68 118.66,-119.52"/>
<polygon fill="midnightblue" stroke="midnightblue" points="116.17,-145.9 116.8,-156.48 122.9,-147.81 116.17,-145.9"/>
</g>
<!-- Node3&#45;&gt;Node2 -->
<g id="edge6" class="edge">
<title>Node3&#45;&gt;Node2</title>
<path fill="none" stroke="midnightblue" d="M131.79,-147.68C135.16,-138.73 134.68,-127.94 130.32,-119.52"/>
<polygon fill="midnightblue" stroke="midnightblue" points="128.66,-146.08 126.6,-156.48 134.69,-149.64 128.66,-146.08"/>
</g>
</g>
</svg>
