<?xml version="1.0" encoding="UTF-8" standalone="no"?>
<!DOCTYPE svg PUBLIC "-//W3C//DTD SVG 1.1//EN"
 "http://www.w3.org/Graphics/SVG/1.1/DTD/svg11.dtd">
<!-- Generated by graphviz version 2.43.0 (0)
 -->
<!-- Title: boost::asio::detail::reactive_socket_recv_op_ext_local&lt; MutableBufferSequence, Handler &gt; Pages: 1 -->
<svg width="664pt" height="63pt"
 viewBox="0.00 0.00 664.00 62.65" xmlns="http://www.w3.org/2000/svg" xmlns:xlink="http://www.w3.org/1999/xlink">
<g id="graph0" class="graph" transform="scale(1 1) rotate(0) translate(4 58.65)">
<title>boost::asio::detail::reactive_socket_recv_op_ext_local&lt; MutableBufferSequence, Handler &gt;</title>
<polygon fill="white" stroke="transparent" points="-4,4 -4,-58.65 660,-58.65 660,4 -4,4"/>
<!-- Node1 -->
<g id="node1" class="node">
<title>Node1</title>
<g id="a_node1"><a xlink:title=" ">
<polygon fill="#bfbfbf" stroke="black" points="492,-1.33 492,-53.33 656,-53.33 656,-1.33 492,-1.33"/>
<text text-anchor="start" x="500" y="-41.33" font-family="Helvetica,sans-Serif" font-size="10.00">boost::asio::detail</text>
<text text-anchor="start" x="500" y="-30.33" font-family="Helvetica,sans-Serif" font-size="10.00">::reactive_socket_recv</text>
<text text-anchor="start" x="500" y="-19.33" font-family="Helvetica,sans-Serif" font-size="10.00">_op_ext_local&lt; MutableBuffer</text>
<text text-anchor="middle" x="574" y="-8.33" font-family="Helvetica,sans-Serif" font-size="10.00">Sequence, Handler &gt;</text>
</a>
</g>
</g>
<!-- Node2 -->
<g id="node2" class="node">
<title>Node2</title>
<g id="a_node2"><a xlink:href="classboost_1_1asio_1_1detail_1_1reactive__socket__recv__op__base__ext__local.html" target="_top" xlink:title=" ">
<polygon fill="white" stroke="black" points="264,-1.33 264,-53.33 456,-53.33 456,-1.33 264,-1.33"/>
<text text-anchor="start" x="272" y="-41.33" font-family="Helvetica,sans-Serif" font-size="10.00">boost::asio::detail</text>
<text text-anchor="start" x="272" y="-30.33" font-family="Helvetica,sans-Serif" font-size="10.00">::reactive_socket_recv</text>
<text text-anchor="start" x="272" y="-19.33" font-family="Helvetica,sans-Serif" font-size="10.00">_op_base_ext_local&lt; MutableBuffer</text>
<text text-anchor="middle" x="360" y="-8.33" font-family="Helvetica,sans-Serif" font-size="10.00">Sequence &gt;</text>
</a>
</g>
</g>
<!-- Node2&#45;&gt;Node1 -->
<g id="edge1" class="edge">
<title>Node2&#45;&gt;Node1</title>
<path fill="none" stroke="midnightblue" d="M447.1,-0.75C463.59,-0.04 480.74,-0.22 496.88,-1.3"/>
<polygon fill="midnightblue" stroke="midnightblue" points="446.73,2.73 436.94,-1.32 447.12,-4.26 446.73,2.73"/>
</g>
<!-- Node2&#45;&gt;Node1 -->
<g id="edge12" class="edge">
<title>Node2&#45;&gt;Node1</title>
<path fill="none" stroke="midnightblue" d="M466.21,-13.83C474.79,-13.82 483.38,-13.93 491.76,-14.16"/>
<polygon fill="midnightblue" stroke="midnightblue" points="466.13,-10.33 456.15,-13.89 466.17,-17.33 466.13,-10.33"/>
</g>
<!-- Node2&#45;&gt;Node1 -->
<g id="edge13" class="edge">
<title>Node2&#45;&gt;Node1</title>
<path fill="none" stroke="midnightblue" d="M466.21,-27.33C474.79,-27.33 483.38,-27.33 491.76,-27.33"/>
<polygon fill="midnightblue" stroke="midnightblue" points="466.15,-23.83 456.15,-27.33 466.15,-30.83 466.15,-23.83"/>
</g>
<!-- Node2&#45;&gt;Node1 -->
<g id="edge14" class="edge">
<title>Node2&#45;&gt;Node1</title>
<path fill="none" stroke="midnightblue" d="M466.21,-40.83C474.79,-40.83 483.38,-40.72 491.76,-40.49"/>
<polygon fill="midnightblue" stroke="midnightblue" points="466.17,-37.33 456.15,-40.76 466.13,-44.33 466.17,-37.33"/>
</g>
<!-- Node2&#45;&gt;Node1 -->
<g id="edge15" class="edge">
<title>Node2&#45;&gt;Node1</title>
<path fill="none" stroke="midnightblue" d="M447.1,-53.9C463.59,-54.62 480.74,-54.43 496.88,-53.35"/>
<polygon fill="midnightblue" stroke="midnightblue" points="447.12,-50.4 436.94,-53.34 446.73,-57.38 447.12,-50.4"/>
</g>
<!-- Node3 -->
<g id="node3" class="node">
<title>Node3</title>
<g id="a_node3"><a xlink:href="classboost_1_1asio_1_1detail_1_1reactor__op__ext__local.html" target="_top" xlink:title=" ">
<polygon fill="white" stroke="black" points="104,-12.33 104,-42.33 228,-42.33 228,-12.33 104,-12.33"/>
<text text-anchor="start" x="112" y="-30.33" font-family="Helvetica,sans-Serif" font-size="10.00">boost::asio::detail</text>
<text text-anchor="middle" x="166" y="-19.33" font-family="Helvetica,sans-Serif" font-size="10.00">::reactor_op_ext_local</text>
</a>
</g>
</g>
<!-- Node3&#45;&gt;Node2 -->
<g id="edge2" class="edge">
<title>Node3&#45;&gt;Node2</title>
<path fill="none" stroke="midnightblue" d="M191.07,-8.71C215.82,-1.21 255.54,1.26 290.13,-1.31"/>
<polygon fill="midnightblue" stroke="midnightblue" points="189.62,-5.51 181.43,-12.23 192.03,-12.09 189.62,-5.51"/>
</g>
<!-- Node3&#45;&gt;Node2 -->
<g id="edge8" class="edge">
<title>Node3&#45;&gt;Node2</title>
<path fill="none" stroke="midnightblue" d="M238.09,-14.24C246.48,-13.96 255.14,-13.82 263.79,-13.83"/>
<polygon fill="midnightblue" stroke="midnightblue" points="237.86,-10.75 228.01,-14.66 238.15,-17.74 237.86,-10.75"/>
</g>
<!-- Node3&#45;&gt;Node2 -->
<g id="edge9" class="edge">
<title>Node3&#45;&gt;Node2</title>
<path fill="none" stroke="midnightblue" d="M238.09,-27.33C246.48,-27.33 255.14,-27.33 263.79,-27.33"/>
<polygon fill="midnightblue" stroke="midnightblue" points="238.01,-23.83 228.01,-27.33 238.01,-30.83 238.01,-23.83"/>
</g>
<!-- Node3&#45;&gt;Node2 -->
<g id="edge10" class="edge">
<title>Node3&#45;&gt;Node2</title>
<path fill="none" stroke="midnightblue" d="M238.09,-40.41C246.48,-40.7 255.14,-40.84 263.79,-40.83"/>
<polygon fill="midnightblue" stroke="midnightblue" points="238.15,-36.91 228.01,-40 237.86,-43.91 238.15,-36.91"/>
</g>
<!-- Node3&#45;&gt;Node2 -->
<g id="edge11" class="edge">
<title>Node3&#45;&gt;Node2</title>
<path fill="none" stroke="midnightblue" d="M191.07,-45.94C215.82,-53.45 255.54,-55.91 290.13,-53.34"/>
<polygon fill="midnightblue" stroke="midnightblue" points="192.03,-42.57 181.43,-42.42 189.62,-49.14 192.03,-42.57"/>
</g>
<!-- Node4 -->
<g id="node4" class="node">
<title>Node4</title>
<g id="a_node4"><a xlink:title=" ">
<polygon fill="white" stroke="black" points="0,-17.83 0,-36.83 68,-36.83 68,-17.83 0,-17.83"/>
<text text-anchor="middle" x="34" y="-24.83" font-family="Helvetica,sans-Serif" font-size="10.00">reactor_op</text>
</a>
</g>
</g>
<!-- Node4&#45;&gt;Node3 -->
<g id="edge3" class="edge">
<title>Node4&#45;&gt;Node3</title>
<path fill="none" stroke="midnightblue" d="M46.2,-11.34C71.23,3.61 131.34,3.34 155.1,-12.15"/>
<polygon fill="midnightblue" stroke="midnightblue" points="43.89,-8.7 38.48,-17.81 48.39,-14.07 43.89,-8.7"/>
</g>
<!-- Node4&#45;&gt;Node3 -->
<g id="edge4" class="edge">
<title>Node4&#45;&gt;Node3</title>
<path fill="none" stroke="midnightblue" d="M62.17,-16.11C74.32,-14.44 89.17,-13.69 103.77,-13.85"/>
<polygon fill="midnightblue" stroke="midnightblue" points="61.53,-12.67 52.26,-17.81 62.71,-19.57 61.53,-12.67"/>
</g>
<!-- Node4&#45;&gt;Node3 -->
<g id="edge5" class="edge">
<title>Node4&#45;&gt;Node3</title>
<path fill="none" stroke="midnightblue" d="M78.23,-27.33C86.45,-27.33 95.2,-27.33 103.86,-27.33"/>
<polygon fill="midnightblue" stroke="midnightblue" points="78.14,-23.83 68.14,-27.33 78.14,-30.83 78.14,-23.83"/>
</g>
<!-- Node4&#45;&gt;Node3 -->
<g id="edge6" class="edge">
<title>Node4&#45;&gt;Node3</title>
<path fill="none" stroke="midnightblue" d="M62.17,-38.54C74.32,-40.21 89.17,-40.96 103.77,-40.81"/>
<polygon fill="midnightblue" stroke="midnightblue" points="62.71,-35.09 52.26,-36.85 61.53,-41.99 62.71,-35.09"/>
</g>
<!-- Node4&#45;&gt;Node3 -->
<g id="edge7" class="edge">
<title>Node4&#45;&gt;Node3</title>
<path fill="none" stroke="midnightblue" d="M46.2,-43.32C71.23,-58.26 131.34,-57.99 155.1,-42.51"/>
<polygon fill="midnightblue" stroke="midnightblue" points="48.39,-40.58 38.48,-36.84 43.89,-45.95 48.39,-40.58"/>
</g>
</g>
</svg>
