<?xml version="1.0" encoding="UTF-8" standalone="no"?>
<!DOCTYPE svg PUBLIC "-//W3C//DTD SVG 1.1//EN"
 "http://www.w3.org/Graphics/SVG/1.1/DTD/svg11.dtd">
<!-- Generated by graphviz version 2.43.0 (0)
 -->
<!-- Title: boost::asio::stream_socket_service_ext&lt; Protocol &gt; Pages: 1 -->
<svg width="196pt" height="128pt"
 viewBox="0.00 0.00 196.00 128.00" xmlns="http://www.w3.org/2000/svg" xmlns:xlink="http://www.w3.org/1999/xlink">
<g id="graph0" class="graph" transform="scale(1 1) rotate(0) translate(4 124)">
<title>boost::asio::stream_socket_service_ext&lt; Protocol &gt;</title>
<polygon fill="white" stroke="transparent" points="-4,4 -4,-124 192,-124 192,4 -4,4"/>
<!-- Node1 -->
<g id="node1" class="node">
<title>Node1</title>
<g id="a_node1"><a xlink:title="Default service implementation for a stream socket.">
<polygon fill="#bfbfbf" stroke="black" points="36.5,-0.5 36.5,-41.5 151.5,-41.5 151.5,-0.5 36.5,-0.5"/>
<text text-anchor="start" x="44.5" y="-29.5" font-family="Helvetica,sans-Serif" font-size="10.00">boost::asio::stream</text>
<text text-anchor="start" x="44.5" y="-18.5" font-family="Helvetica,sans-Serif" font-size="10.00">_socket_service_ext</text>
<text text-anchor="middle" x="94" y="-7.5" font-family="Helvetica,sans-Serif" font-size="10.00">&lt; Protocol &gt;</text>
</a>
</g>
</g>
<!-- Node2 -->
<g id="node2" class="node">
<title>Node2</title>
<g id="a_node2"><a xlink:title=" ">
<polygon fill="white" stroke="black" points="0,-78.5 0,-119.5 188,-119.5 188,-78.5 0,-78.5"/>
<text text-anchor="start" x="8" y="-107.5" font-family="Helvetica,sans-Serif" font-size="10.00">boost::asio::detail</text>
<text text-anchor="start" x="8" y="-96.5" font-family="Helvetica,sans-Serif" font-size="10.00">::service_base&lt; stream</text>
<text text-anchor="middle" x="94" y="-85.5" font-family="Helvetica,sans-Serif" font-size="10.00">_socket_service_ext&lt; Protocol &gt; &gt;</text>
</a>
</g>
</g>
<!-- Node2&#45;&gt;Node1 -->
<g id="edge1" class="edge">
<title>Node2&#45;&gt;Node1</title>
<path fill="none" stroke="midnightblue" d="M94,-68.3C94,-59.3 94,-49.65 94,-41.51"/>
<polygon fill="midnightblue" stroke="midnightblue" points="90.5,-68.43 94,-78.43 97.5,-68.43 90.5,-68.43"/>
</g>
</g>
</svg>
