<?xml version="1.0" encoding="UTF-8" standalone="no"?>
<!DOCTYPE svg PUBLIC "-//W3C//DTD SVG 1.1//EN"
 "http://www.w3.org/Graphics/SVG/1.1/DTD/svg11.dtd">
<!-- Generated by graphviz version 2.43.0 (0)
 -->
<!-- Title: vsomeip_v3::sd::eventgroupentry_impl Pages: 1 -->
<svg width="316pt" height="499pt"
 viewBox="0.00 0.00 316.00 499.00" xmlns="http://www.w3.org/2000/svg" xmlns:xlink="http://www.w3.org/1999/xlink">
<g id="graph0" class="graph" transform="scale(1 1) rotate(0) translate(4 495)">
<title>vsomeip_v3::sd::eventgroupentry_impl</title>
<polygon fill="white" stroke="transparent" points="-4,4 -4,-495 312,-495 312,4 -4,4"/>
<!-- Node1 -->
<g id="node1" class="node">
<title>Node1</title>
<g id="a_node1"><a xlink:title=" ">
<polygon fill="#bfbfbf" stroke="black" points="95.5,-0.5 95.5,-19.5 302.5,-19.5 302.5,-0.5 95.5,-0.5"/>
<text text-anchor="middle" x="199" y="-7.5" font-family="Helvetica,sans-Serif" font-size="10.00">vsomeip_v3::sd::eventgroupentry_impl</text>
</a>
</g>
</g>
<!-- Node2 -->
<g id="node2" class="node">
<title>Node2</title>
<g id="a_node2"><a xlink:href="classvsomeip__v3_1_1sd_1_1entry__impl.html" target="_top" xlink:title=" ">
<polygon fill="white" stroke="black" points="123,-57.5 123,-76.5 275,-76.5 275,-57.5 123,-57.5"/>
<text text-anchor="middle" x="199" y="-64.5" font-family="Helvetica,sans-Serif" font-size="10.00">vsomeip_v3::sd::entry_impl</text>
</a>
</g>
</g>
<!-- Node2&#45;&gt;Node1 -->
<g id="edge1" class="edge">
<title>Node2&#45;&gt;Node1</title>
<path fill="none" stroke="midnightblue" d="M199,-47.12C199,-37.82 199,-27.06 199,-19.71"/>
<polygon fill="midnightblue" stroke="midnightblue" points="195.5,-47.41 199,-57.41 202.5,-47.41 195.5,-47.41"/>
</g>
<!-- Node3 -->
<g id="node3" class="node">
<title>Node3</title>
<g id="a_node3"><a xlink:href="classvsomeip__v3_1_1sd_1_1message__element__impl.html" target="_top" xlink:title=" ">
<polygon fill="white" stroke="black" points="127.5,-114.5 127.5,-144.5 270.5,-144.5 270.5,-114.5 127.5,-114.5"/>
<text text-anchor="start" x="135.5" y="-132.5" font-family="Helvetica,sans-Serif" font-size="10.00">vsomeip_v3::sd::message</text>
<text text-anchor="middle" x="199" y="-121.5" font-family="Helvetica,sans-Serif" font-size="10.00">_element_impl</text>
</a>
</g>
</g>
<!-- Node3&#45;&gt;Node2 -->
<g id="edge2" class="edge">
<title>Node3&#45;&gt;Node2</title>
<path fill="none" stroke="midnightblue" d="M199,-104.35C199,-94.51 199,-83.78 199,-76.54"/>
<polygon fill="midnightblue" stroke="midnightblue" points="195.5,-104.47 199,-114.47 202.5,-104.47 195.5,-104.47"/>
</g>
<!-- Node4 -->
<g id="node4" class="node">
<title>Node4</title>
<g id="a_node4"><a xlink:href="classvsomeip__v3_1_1sd_1_1message__impl.html" target="_top" xlink:title=" ">
<polygon fill="white" stroke="black" points="114,-192.5 114,-211.5 284,-211.5 284,-192.5 114,-192.5"/>
<text text-anchor="middle" x="199" y="-199.5" font-family="Helvetica,sans-Serif" font-size="10.00">vsomeip_v3::sd::message_impl</text>
</a>
</g>
</g>
<!-- Node4&#45;&gt;Node3 -->
<g id="edge3" class="edge">
<title>Node4&#45;&gt;Node3</title>
<path fill="none" stroke="#9a32cd" stroke-dasharray="5,2" d="M199,-182.24C199,-170.41 199,-155.38 199,-144.58"/>
<polygon fill="#9a32cd" stroke="#9a32cd" points="195.5,-182.36 199,-192.36 202.5,-182.36 195.5,-182.36"/>
<text text-anchor="middle" x="218.5" y="-166" font-family="Helvetica,sans-Serif" font-size="10.00"> owner_</text>
</g>
<!-- Node5 -->
<g id="node5" class="node">
<title>Node5</title>
<g id="a_node5"><a xlink:href="classvsomeip__v3_1_1message.html" target="_top" xlink:title="Implements regular SOME/IP messages.">
<polygon fill="white" stroke="black" points="182,-298.5 182,-317.5 308,-317.5 308,-298.5 182,-298.5"/>
<text text-anchor="middle" x="245" y="-305.5" font-family="Helvetica,sans-Serif" font-size="10.00">vsomeip_v3::message</text>
</a>
</g>
</g>
<!-- Node5&#45;&gt;Node4 -->
<g id="edge4" class="edge">
<title>Node5&#45;&gt;Node4</title>
<path fill="none" stroke="midnightblue" d="M239.98,-288.3C236.61,-276.74 231.74,-261.74 226,-249 219.83,-235.32 210.66,-220.54 204.75,-211.52"/>
<polygon fill="midnightblue" stroke="midnightblue" points="236.67,-289.45 242.73,-298.13 243.41,-287.56 236.67,-289.45"/>
</g>
<!-- Node6 -->
<g id="node6" class="node">
<title>Node6</title>
<g id="a_node6"><a xlink:href="classvsomeip__v3_1_1message__base.html" target="_top" xlink:title="Base class to implement SOME/IP messages.">
<polygon fill="white" stroke="black" points="97.5,-414.5 97.5,-433.5 252.5,-433.5 252.5,-414.5 97.5,-414.5"/>
<text text-anchor="middle" x="175" y="-421.5" font-family="Helvetica,sans-Serif" font-size="10.00">vsomeip_v3::message_base</text>
</a>
</g>
</g>
<!-- Node6&#45;&gt;Node5 -->
<g id="edge5" class="edge">
<title>Node6&#45;&gt;Node5</title>
<path fill="none" stroke="midnightblue" d="M185.6,-405.74C200.78,-381.01 228.17,-336.41 239.68,-317.67"/>
<polygon fill="midnightblue" stroke="midnightblue" points="182.51,-404.08 180.26,-414.43 188.48,-407.74 182.51,-404.08"/>
</g>
<!-- Node9 -->
<g id="node9" class="node">
<title>Node9</title>
<g id="a_node9"><a xlink:href="classvsomeip__v3_1_1message__base__impl.html" target="_top" xlink:title=" ">
<polygon fill="white" stroke="black" points="91,-249.5 91,-279.5 217,-279.5 217,-249.5 91,-249.5"/>
<text text-anchor="start" x="99" y="-267.5" font-family="Helvetica,sans-Serif" font-size="10.00">vsomeip_v3::message</text>
<text text-anchor="middle" x="154" y="-256.5" font-family="Helvetica,sans-Serif" font-size="10.00">_base_impl</text>
</a>
</g>
</g>
<!-- Node6&#45;&gt;Node9 -->
<g id="edge9" class="edge">
<title>Node6&#45;&gt;Node9</title>
<path fill="none" stroke="midnightblue" d="M172.44,-403.81C168.16,-371.69 159.64,-307.77 155.87,-279.51"/>
<polygon fill="midnightblue" stroke="midnightblue" points="169.02,-404.63 173.81,-414.08 175.96,-403.71 169.02,-404.63"/>
</g>
<!-- Node10 -->
<g id="node10" class="node">
<title>Node10</title>
<g id="a_node10"><a xlink:href="classvsomeip__v3_1_1message__header__impl.html" target="_top" xlink:title=" ">
<polygon fill="white" stroke="black" points="13,-336.5 13,-366.5 139,-366.5 139,-336.5 13,-336.5"/>
<text text-anchor="start" x="21" y="-354.5" font-family="Helvetica,sans-Serif" font-size="10.00">vsomeip_v3::message</text>
<text text-anchor="middle" x="76" y="-343.5" font-family="Helvetica,sans-Serif" font-size="10.00">_header_impl</text>
</a>
</g>
</g>
<!-- Node6&#45;&gt;Node10 -->
<g id="edge12" class="edge">
<title>Node6&#45;&gt;Node10</title>
<path fill="none" stroke="#9a32cd" stroke-dasharray="5,2" d="M139.68,-410.48C130.87,-406.54 121.74,-401.7 114,-396 103.02,-387.91 92.98,-376.14 85.98,-366.88"/>
<polygon fill="#9a32cd" stroke="#9a32cd" points="138.45,-413.76 149.03,-414.4 141.16,-407.31 138.45,-413.76"/>
<text text-anchor="middle" x="133.5" y="-388" font-family="Helvetica,sans-Serif" font-size="10.00"> owner_</text>
</g>
<!-- Node7 -->
<g id="node7" class="node">
<title>Node7</title>
<g id="a_node7"><a xlink:href="classvsomeip__v3_1_1serializable.html" target="_top" xlink:title=" ">
<polygon fill="white" stroke="black" points="0,-471.5 0,-490.5 138,-490.5 138,-471.5 0,-471.5"/>
<text text-anchor="middle" x="69" y="-478.5" font-family="Helvetica,sans-Serif" font-size="10.00">vsomeip_v3::serializable</text>
</a>
</g>
</g>
<!-- Node7&#45;&gt;Node6 -->
<g id="edge6" class="edge">
<title>Node7&#45;&gt;Node6</title>
<path fill="none" stroke="midnightblue" d="M94.68,-466.68C114.55,-456.36 141.49,-442.39 158.55,-433.53"/>
<polygon fill="midnightblue" stroke="midnightblue" points="92.83,-463.69 85.56,-471.41 96.05,-469.91 92.83,-463.69"/>
</g>
<!-- Node7&#45;&gt;Node10 -->
<g id="edge11" class="edge">
<title>Node7&#45;&gt;Node10</title>
<path fill="none" stroke="midnightblue" d="M70.03,-461.24C71.45,-435.46 73.96,-389.65 75.23,-366.59"/>
<polygon fill="midnightblue" stroke="midnightblue" points="66.53,-461.06 69.48,-471.24 73.52,-461.44 66.53,-461.06"/>
</g>
<!-- Node8 -->
<g id="node8" class="node">
<title>Node8</title>
<g id="a_node8"><a xlink:href="classvsomeip__v3_1_1deserializable.html" target="_top" xlink:title=" ">
<polygon fill="white" stroke="black" points="156,-471.5 156,-490.5 306,-490.5 306,-471.5 156,-471.5"/>
<text text-anchor="middle" x="231" y="-478.5" font-family="Helvetica,sans-Serif" font-size="10.00">vsomeip_v3::deserializable</text>
</a>
</g>
</g>
<!-- Node8&#45;&gt;Node6 -->
<g id="edge7" class="edge">
<title>Node8&#45;&gt;Node6</title>
<path fill="none" stroke="midnightblue" d="M214.83,-464.12C204.76,-454.22 192.17,-441.86 183.87,-433.71"/>
<polygon fill="midnightblue" stroke="midnightblue" points="212.66,-466.9 222.25,-471.41 217.57,-461.9 212.66,-466.9"/>
</g>
<!-- Node9&#45;&gt;Node4 -->
<g id="edge8" class="edge">
<title>Node9&#45;&gt;Node4</title>
<path fill="none" stroke="midnightblue" d="M170.57,-241.22C178.25,-230.9 186.92,-219.24 192.65,-211.54"/>
<polygon fill="midnightblue" stroke="midnightblue" points="167.6,-239.36 164.44,-249.47 173.21,-243.53 167.6,-239.36"/>
</g>
<!-- Node10&#45;&gt;Node9 -->
<g id="edge10" class="edge">
<title>Node10&#45;&gt;Node9</title>
<path fill="none" stroke="#9a32cd" stroke-dasharray="5,2" d="M88.48,-327.41C94.3,-317.75 101.77,-306.75 110,-298 116.38,-291.22 124.32,-284.87 131.69,-279.61"/>
<polygon fill="#9a32cd" stroke="#9a32cd" points="85.4,-325.74 83.42,-336.15 91.46,-329.24 85.4,-325.74"/>
<text text-anchor="middle" x="131.5" y="-305.5" font-family="Helvetica,sans-Serif" font-size="10.00"> header_</text>
</g>
</g>
</svg>
