<?xml version="1.0" encoding="UTF-8" standalone="no"?>
<!DOCTYPE svg PUBLIC "-//W3C//DTD SVG 1.1//EN"
 "http://www.w3.org/Graphics/SVG/1.1/DTD/svg11.dtd">
<!-- Generated by graphviz version 2.43.0 (0)
 -->
<!-- Title: /home/kali/projects/vsomeip/implementation/endpoints/include/client_endpoint.hpp Pages: 1 -->
<svg width="1576pt" height="328pt"
 viewBox="0.00 0.00 1576.00 328.00" xmlns="http://www.w3.org/2000/svg" xmlns:xlink="http://www.w3.org/1999/xlink">
<g id="graph0" class="graph" transform="scale(1 1) rotate(0) translate(4 324)">
<title>/home/kali/projects/vsomeip/implementation/endpoints/include/client_endpoint.hpp</title>
<polygon fill="white" stroke="transparent" points="-4,4 -4,-324 1572,-324 1572,4 -4,4"/>
<!-- Node1 -->
<g id="node1" class="node">
<title>Node1</title>
<g id="a_node1"><a xlink:title=" ">
<polygon fill="#bfbfbf" stroke="black" points="1174,-267.5 1174,-319.5 1317,-319.5 1317,-267.5 1174,-267.5"/>
<text text-anchor="start" x="1182" y="-307.5" font-family="Helvetica,sans-Serif" font-size="10.00">/home/kali/projects</text>
<text text-anchor="start" x="1182" y="-296.5" font-family="Helvetica,sans-Serif" font-size="10.00">/vsomeip/implementation</text>
<text text-anchor="start" x="1182" y="-285.5" font-family="Helvetica,sans-Serif" font-size="10.00">/endpoints/include/client</text>
<text text-anchor="middle" x="1245.5" y="-274.5" font-family="Helvetica,sans-Serif" font-size="10.00">_endpoint.hpp</text>
</a>
</g>
</g>
<!-- Node2 -->
<g id="node2" class="node">
<title>Node2</title>
<g id="a_node2"><a xlink:href="client__endpoint__impl_8hpp.html" target="_top" xlink:title=" ">
<polygon fill="white" stroke="black" points="930,-178.5 930,-230.5 1073,-230.5 1073,-178.5 930,-178.5"/>
<text text-anchor="start" x="938" y="-218.5" font-family="Helvetica,sans-Serif" font-size="10.00">/home/kali/projects</text>
<text text-anchor="start" x="938" y="-207.5" font-family="Helvetica,sans-Serif" font-size="10.00">/vsomeip/implementation</text>
<text text-anchor="start" x="938" y="-196.5" font-family="Helvetica,sans-Serif" font-size="10.00">/endpoints/include/client</text>
<text text-anchor="middle" x="1001.5" y="-185.5" font-family="Helvetica,sans-Serif" font-size="10.00">_endpoint_impl.hpp</text>
</a>
</g>
</g>
<!-- Node1&#45;&gt;Node2 -->
<g id="edge1" class="edge">
<title>Node1&#45;&gt;Node2</title>
<path fill="none" stroke="midnightblue" d="M1165.56,-264C1135.26,-253.19 1101.01,-240.98 1071.67,-230.52"/>
<polygon fill="midnightblue" stroke="midnightblue" points="1164.66,-267.39 1175.25,-267.45 1167.01,-260.8 1164.66,-267.39"/>
</g>
<!-- Node15 -->
<g id="node15" class="node">
<title>Node15</title>
<g id="a_node15"><a xlink:href="runtime_2src_2runtime_8cpp.html" target="_top" xlink:title=" ">
<polygon fill="white" stroke="black" points="1091,-184 1091,-225 1234,-225 1234,-184 1091,-184"/>
<text text-anchor="start" x="1099" y="-213" font-family="Helvetica,sans-Serif" font-size="10.00">/home/kali/projects</text>
<text text-anchor="start" x="1099" y="-202" font-family="Helvetica,sans-Serif" font-size="10.00">/vsomeip/implementation</text>
<text text-anchor="middle" x="1162.5" y="-191" font-family="Helvetica,sans-Serif" font-size="10.00">/runtime/src/runtime.cpp</text>
</a>
</g>
</g>
<!-- Node1&#45;&gt;Node15 -->
<g id="edge17" class="edge">
<title>Node1&#45;&gt;Node15</title>
<path fill="none" stroke="midnightblue" d="M1214.35,-259.85C1203.19,-248.15 1190.96,-235.33 1181.18,-225.08"/>
<polygon fill="midnightblue" stroke="midnightblue" points="1212.06,-262.52 1221.49,-267.34 1217.12,-257.68 1212.06,-262.52"/>
</g>
<!-- Node16 -->
<g id="node16" class="node">
<title>Node16</title>
<g id="a_node16"><a xlink:href="service__discovery__impl_8cpp.html" target="_top" xlink:title=" ">
<polygon fill="white" stroke="black" points="1252,-178.5 1252,-230.5 1407,-230.5 1407,-178.5 1252,-178.5"/>
<text text-anchor="start" x="1260" y="-218.5" font-family="Helvetica,sans-Serif" font-size="10.00">/home/kali/projects</text>
<text text-anchor="start" x="1260" y="-207.5" font-family="Helvetica,sans-Serif" font-size="10.00">/vsomeip/implementation</text>
<text text-anchor="start" x="1260" y="-196.5" font-family="Helvetica,sans-Serif" font-size="10.00">/service_discovery/src</text>
<text text-anchor="middle" x="1329.5" y="-185.5" font-family="Helvetica,sans-Serif" font-size="10.00">/service_discovery_impl.cpp</text>
</a>
</g>
</g>
<!-- Node1&#45;&gt;Node16 -->
<g id="edge18" class="edge">
<title>Node1&#45;&gt;Node16</title>
<path fill="none" stroke="midnightblue" d="M1276.81,-260.08C1286.21,-250.34 1296.38,-239.8 1305.26,-230.61"/>
<polygon fill="midnightblue" stroke="midnightblue" points="1274.22,-257.71 1269.8,-267.34 1279.26,-262.57 1274.22,-257.71"/>
</g>
<!-- Node17 -->
<g id="node17" class="node">
<title>Node17</title>
<g id="a_node17"><a xlink:href="header_8cpp.html" target="_top" xlink:title=" ">
<polygon fill="white" stroke="black" points="1425,-184 1425,-225 1568,-225 1568,-184 1425,-184"/>
<text text-anchor="start" x="1433" y="-213" font-family="Helvetica,sans-Serif" font-size="10.00">/home/kali/projects</text>
<text text-anchor="start" x="1433" y="-202" font-family="Helvetica,sans-Serif" font-size="10.00">/vsomeip/implementation</text>
<text text-anchor="middle" x="1496.5" y="-191" font-family="Helvetica,sans-Serif" font-size="10.00">/tracing/src/header.cpp</text>
</a>
</g>
</g>
<!-- Node1&#45;&gt;Node17 -->
<g id="edge19" class="edge">
<title>Node1&#45;&gt;Node17</title>
<path fill="none" stroke="midnightblue" d="M1326.84,-264.3C1363.79,-251.5 1406.59,-236.66 1439.96,-225.1"/>
<polygon fill="midnightblue" stroke="midnightblue" points="1325.39,-261.1 1317.09,-267.69 1327.69,-267.72 1325.39,-261.1"/>
</g>
<!-- Node3 -->
<g id="node3" class="node">
<title>Node3</title>
<g id="a_node3"><a xlink:href="local__client__endpoint__impl_8hpp.html" target="_top" xlink:title=" ">
<polygon fill="white" stroke="black" points="417,-89.5 417,-141.5 562,-141.5 562,-89.5 417,-89.5"/>
<text text-anchor="start" x="425" y="-129.5" font-family="Helvetica,sans-Serif" font-size="10.00">/home/kali/projects</text>
<text text-anchor="start" x="425" y="-118.5" font-family="Helvetica,sans-Serif" font-size="10.00">/vsomeip/implementation</text>
<text text-anchor="start" x="425" y="-107.5" font-family="Helvetica,sans-Serif" font-size="10.00">/endpoints/include/local</text>
<text text-anchor="middle" x="489.5" y="-96.5" font-family="Helvetica,sans-Serif" font-size="10.00">_client_endpoint_impl.hpp</text>
</a>
</g>
</g>
<!-- Node2&#45;&gt;Node3 -->
<g id="edge2" class="edge">
<title>Node2&#45;&gt;Node3</title>
<path fill="none" stroke="midnightblue" d="M919.85,-189.63C821.25,-172.87 656.9,-144.95 562.4,-128.89"/>
<polygon fill="midnightblue" stroke="midnightblue" points="919.32,-193.09 929.77,-191.31 920.5,-186.19 919.32,-193.09"/>
</g>
<!-- Node9 -->
<g id="node9" class="node">
<title>Node9</title>
<g id="a_node9"><a xlink:href="tcp__client__endpoint__impl_8hpp.html" target="_top" xlink:title=" ">
<polygon fill="white" stroke="black" points="1011,-89.5 1011,-141.5 1156,-141.5 1156,-89.5 1011,-89.5"/>
<text text-anchor="start" x="1019" y="-129.5" font-family="Helvetica,sans-Serif" font-size="10.00">/home/kali/projects</text>
<text text-anchor="start" x="1019" y="-118.5" font-family="Helvetica,sans-Serif" font-size="10.00">/vsomeip/implementation</text>
<text text-anchor="start" x="1019" y="-107.5" font-family="Helvetica,sans-Serif" font-size="10.00">/endpoints/include/tcp</text>
<text text-anchor="middle" x="1083.5" y="-96.5" font-family="Helvetica,sans-Serif" font-size="10.00">_client_endpoint_impl.hpp</text>
</a>
</g>
</g>
<!-- Node2&#45;&gt;Node9 -->
<g id="edge8" class="edge">
<title>Node2&#45;&gt;Node9</title>
<path fill="none" stroke="midnightblue" d="M1032.33,-170.79C1041.44,-161.13 1051.26,-150.71 1059.84,-141.61"/>
<polygon fill="midnightblue" stroke="midnightblue" points="1029.53,-168.66 1025.22,-178.34 1034.62,-173.46 1029.53,-168.66"/>
</g>
<!-- Node12 -->
<g id="node12" class="node">
<title>Node12</title>
<g id="a_node12"><a xlink:href="udp__client__endpoint__impl_8hpp.html" target="_top" xlink:title=" ">
<polygon fill="white" stroke="black" points="848,-89.5 848,-141.5 993,-141.5 993,-89.5 848,-89.5"/>
<text text-anchor="start" x="856" y="-129.5" font-family="Helvetica,sans-Serif" font-size="10.00">/home/kali/projects</text>
<text text-anchor="start" x="856" y="-118.5" font-family="Helvetica,sans-Serif" font-size="10.00">/vsomeip/implementation</text>
<text text-anchor="start" x="856" y="-107.5" font-family="Helvetica,sans-Serif" font-size="10.00">/endpoints/include/udp</text>
<text text-anchor="middle" x="920.5" y="-96.5" font-family="Helvetica,sans-Serif" font-size="10.00">_client_endpoint_impl.hpp</text>
</a>
</g>
</g>
<!-- Node2&#45;&gt;Node12 -->
<g id="edge12" class="edge">
<title>Node2&#45;&gt;Node12</title>
<path fill="none" stroke="midnightblue" d="M971.05,-170.79C962.05,-161.13 952.35,-150.71 943.88,-141.61"/>
<polygon fill="midnightblue" stroke="midnightblue" points="968.7,-173.4 978.07,-178.34 973.82,-168.63 968.7,-173.4"/>
</g>
<!-- Node14 -->
<g id="node14" class="node">
<title>Node14</title>
<g id="a_node14"><a xlink:href="client__endpoint__impl_8cpp.html" target="_top" xlink:title=" ">
<polygon fill="white" stroke="black" points="1174,-89.5 1174,-141.5 1337,-141.5 1337,-89.5 1174,-89.5"/>
<text text-anchor="start" x="1182" y="-129.5" font-family="Helvetica,sans-Serif" font-size="10.00">/home/kali/projects</text>
<text text-anchor="start" x="1182" y="-118.5" font-family="Helvetica,sans-Serif" font-size="10.00">/vsomeip/implementation</text>
<text text-anchor="start" x="1182" y="-107.5" font-family="Helvetica,sans-Serif" font-size="10.00">/endpoints/src/client_endpoint</text>
<text text-anchor="middle" x="1255.5" y="-96.5" font-family="Helvetica,sans-Serif" font-size="10.00">_impl.cpp</text>
</a>
</g>
</g>
<!-- Node2&#45;&gt;Node14 -->
<g id="edge16" class="edge">
<title>Node2&#45;&gt;Node14</title>
<path fill="none" stroke="midnightblue" d="M1083,-175.58C1114.86,-164.67 1151.12,-152.25 1182.14,-141.63"/>
<polygon fill="midnightblue" stroke="midnightblue" points="1081.59,-172.37 1073.27,-178.92 1083.86,-178.99 1081.59,-172.37"/>
</g>
<!-- Node4 -->
<g id="node4" class="node">
<title>Node4</title>
<g id="a_node4"><a xlink:href="endpoint__manager__base_8cpp.html" target="_top" xlink:title=" ">
<polygon fill="white" stroke="black" points="0,-0.5 0,-52.5 143,-52.5 143,-0.5 0,-0.5"/>
<text text-anchor="start" x="8" y="-40.5" font-family="Helvetica,sans-Serif" font-size="10.00">/home/kali/projects</text>
<text text-anchor="start" x="8" y="-29.5" font-family="Helvetica,sans-Serif" font-size="10.00">/vsomeip/implementation</text>
<text text-anchor="start" x="8" y="-18.5" font-family="Helvetica,sans-Serif" font-size="10.00">/endpoints/src/endpoint</text>
<text text-anchor="middle" x="71.5" y="-7.5" font-family="Helvetica,sans-Serif" font-size="10.00">_manager_base.cpp</text>
</a>
</g>
</g>
<!-- Node3&#45;&gt;Node4 -->
<g id="edge3" class="edge">
<title>Node3&#45;&gt;Node4</title>
<path fill="none" stroke="midnightblue" d="M406.81,-102.5C337.98,-91.78 237.69,-74.48 151.5,-53 148.81,-52.33 146.08,-51.62 143.33,-50.88"/>
<polygon fill="midnightblue" stroke="midnightblue" points="406.31,-105.96 416.73,-104.03 407.38,-99.04 406.31,-105.96"/>
</g>
<!-- Node5 -->
<g id="node5" class="node">
<title>Node5</title>
<g id="a_node5"><a xlink:href="local__client__endpoint__impl_8cpp.html" target="_top" xlink:title=" ">
<polygon fill="white" stroke="black" points="161,-0.5 161,-52.5 304,-52.5 304,-0.5 161,-0.5"/>
<text text-anchor="start" x="169" y="-40.5" font-family="Helvetica,sans-Serif" font-size="10.00">/home/kali/projects</text>
<text text-anchor="start" x="169" y="-29.5" font-family="Helvetica,sans-Serif" font-size="10.00">/vsomeip/implementation</text>
<text text-anchor="start" x="169" y="-18.5" font-family="Helvetica,sans-Serif" font-size="10.00">/endpoints/src/local_client</text>
<text text-anchor="middle" x="232.5" y="-7.5" font-family="Helvetica,sans-Serif" font-size="10.00">_endpoint_impl.cpp</text>
</a>
</g>
</g>
<!-- Node3&#45;&gt;Node5 -->
<g id="edge4" class="edge">
<title>Node3&#45;&gt;Node5</title>
<path fill="none" stroke="midnightblue" d="M407.2,-86.64C374.01,-75.4 336.07,-62.56 304.05,-51.72"/>
<polygon fill="midnightblue" stroke="midnightblue" points="406.29,-90.03 416.88,-89.92 408.53,-83.4 406.29,-90.03"/>
</g>
<!-- Node6 -->
<g id="node6" class="node">
<title>Node6</title>
<g id="a_node6"><a xlink:href="routing__manager__base_8cpp.html" target="_top" xlink:title=" ">
<polygon fill="white" stroke="black" points="322.5,-0.5 322.5,-52.5 480.5,-52.5 480.5,-0.5 322.5,-0.5"/>
<text text-anchor="start" x="330.5" y="-40.5" font-family="Helvetica,sans-Serif" font-size="10.00">/home/kali/projects</text>
<text text-anchor="start" x="330.5" y="-29.5" font-family="Helvetica,sans-Serif" font-size="10.00">/vsomeip/implementation</text>
<text text-anchor="start" x="330.5" y="-18.5" font-family="Helvetica,sans-Serif" font-size="10.00">/routing/src/routing_manager</text>
<text text-anchor="middle" x="401.5" y="-7.5" font-family="Helvetica,sans-Serif" font-size="10.00">_base.cpp</text>
</a>
</g>
</g>
<!-- Node3&#45;&gt;Node6 -->
<g id="edge5" class="edge">
<title>Node3&#45;&gt;Node6</title>
<path fill="none" stroke="midnightblue" d="M456.7,-82.08C446.85,-72.34 436.19,-61.8 426.9,-52.61"/>
<polygon fill="midnightblue" stroke="midnightblue" points="454.47,-84.79 464.05,-89.34 459.4,-79.82 454.47,-84.79"/>
</g>
<!-- Node7 -->
<g id="node7" class="node">
<title>Node7</title>
<g id="a_node7"><a xlink:href="routing__manager__impl_8cpp.html" target="_top" xlink:title=" ">
<polygon fill="white" stroke="black" points="674.5,-0.5 674.5,-52.5 832.5,-52.5 832.5,-0.5 674.5,-0.5"/>
<text text-anchor="start" x="682.5" y="-40.5" font-family="Helvetica,sans-Serif" font-size="10.00">/home/kali/projects</text>
<text text-anchor="start" x="682.5" y="-29.5" font-family="Helvetica,sans-Serif" font-size="10.00">/vsomeip/implementation</text>
<text text-anchor="start" x="682.5" y="-18.5" font-family="Helvetica,sans-Serif" font-size="10.00">/routing/src/routing_manager</text>
<text text-anchor="middle" x="753.5" y="-7.5" font-family="Helvetica,sans-Serif" font-size="10.00">_impl.cpp</text>
</a>
</g>
</g>
<!-- Node3&#45;&gt;Node7 -->
<g id="edge6" class="edge">
<title>Node3&#45;&gt;Node7</title>
<path fill="none" stroke="midnightblue" d="M572.13,-87.27C605.72,-76.2 644.3,-63.49 677.22,-52.64"/>
<polygon fill="midnightblue" stroke="midnightblue" points="570.74,-84.04 562.34,-90.5 572.93,-90.69 570.74,-84.04"/>
</g>
<!-- Node8 -->
<g id="node8" class="node">
<title>Node8</title>
<g id="a_node8"><a xlink:href="routing__manager__proxy_8cpp.html" target="_top" xlink:title=" ">
<polygon fill="white" stroke="black" points="498.5,-0.5 498.5,-52.5 656.5,-52.5 656.5,-0.5 498.5,-0.5"/>
<text text-anchor="start" x="506.5" y="-40.5" font-family="Helvetica,sans-Serif" font-size="10.00">/home/kali/projects</text>
<text text-anchor="start" x="506.5" y="-29.5" font-family="Helvetica,sans-Serif" font-size="10.00">/vsomeip/implementation</text>
<text text-anchor="start" x="506.5" y="-18.5" font-family="Helvetica,sans-Serif" font-size="10.00">/routing/src/routing_manager</text>
<text text-anchor="middle" x="577.5" y="-7.5" font-family="Helvetica,sans-Serif" font-size="10.00">_proxy.cpp</text>
</a>
</g>
</g>
<!-- Node3&#45;&gt;Node8 -->
<g id="edge7" class="edge">
<title>Node3&#45;&gt;Node8</title>
<path fill="none" stroke="midnightblue" d="M522.3,-82.08C532.15,-72.34 542.81,-61.8 552.1,-52.61"/>
<polygon fill="midnightblue" stroke="midnightblue" points="519.6,-79.82 514.95,-89.34 524.53,-84.79 519.6,-79.82"/>
</g>
<!-- Node9&#45;&gt;Node7 -->
<g id="edge11" class="edge">
<title>Node9&#45;&gt;Node7</title>
<path fill="none" stroke="midnightblue" d="M1000.86,-88.65C929.95,-70.04 909.47,-70.43 841.5,-53 838.57,-52.25 835.59,-51.47 832.59,-50.67"/>
<polygon fill="midnightblue" stroke="midnightblue" points="1000.16,-92.08 1010.73,-91.27 1001.96,-85.32 1000.16,-92.08"/>
</g>
<!-- Node10 -->
<g id="node10" class="node">
<title>Node10</title>
<g id="a_node10"><a xlink:href="endpoint__manager__impl_8cpp.html" target="_top" xlink:title=" ">
<polygon fill="white" stroke="black" points="1012,-0.5 1012,-52.5 1155,-52.5 1155,-0.5 1012,-0.5"/>
<text text-anchor="start" x="1020" y="-40.5" font-family="Helvetica,sans-Serif" font-size="10.00">/home/kali/projects</text>
<text text-anchor="start" x="1020" y="-29.5" font-family="Helvetica,sans-Serif" font-size="10.00">/vsomeip/implementation</text>
<text text-anchor="start" x="1020" y="-18.5" font-family="Helvetica,sans-Serif" font-size="10.00">/endpoints/src/endpoint</text>
<text text-anchor="middle" x="1083.5" y="-7.5" font-family="Helvetica,sans-Serif" font-size="10.00">_manager_impl.cpp</text>
</a>
</g>
</g>
<!-- Node9&#45;&gt;Node10 -->
<g id="edge9" class="edge">
<title>Node9&#45;&gt;Node10</title>
<path fill="none" stroke="midnightblue" d="M1083.5,-79.19C1083.5,-70.28 1083.5,-60.9 1083.5,-52.61"/>
<polygon fill="midnightblue" stroke="midnightblue" points="1080,-79.34 1083.5,-89.34 1087,-79.34 1080,-79.34"/>
</g>
<!-- Node11 -->
<g id="node11" class="node">
<title>Node11</title>
<g id="a_node11"><a xlink:href="tcp__client__endpoint__impl_8cpp.html" target="_top" xlink:title=" ">
<polygon fill="white" stroke="black" points="1173,-0.5 1173,-52.5 1316,-52.5 1316,-0.5 1173,-0.5"/>
<text text-anchor="start" x="1181" y="-40.5" font-family="Helvetica,sans-Serif" font-size="10.00">/home/kali/projects</text>
<text text-anchor="start" x="1181" y="-29.5" font-family="Helvetica,sans-Serif" font-size="10.00">/vsomeip/implementation</text>
<text text-anchor="start" x="1181" y="-18.5" font-family="Helvetica,sans-Serif" font-size="10.00">/endpoints/src/tcp_client</text>
<text text-anchor="middle" x="1244.5" y="-7.5" font-family="Helvetica,sans-Serif" font-size="10.00">_endpoint_impl.cpp</text>
</a>
</g>
</g>
<!-- Node9&#45;&gt;Node11 -->
<g id="edge10" class="edge">
<title>Node9&#45;&gt;Node11</title>
<path fill="none" stroke="midnightblue" d="M1139.03,-84.49C1158.26,-74.1 1179.61,-62.57 1198.04,-52.61"/>
<polygon fill="midnightblue" stroke="midnightblue" points="1137.2,-81.5 1130.07,-89.34 1140.53,-87.66 1137.2,-81.5"/>
</g>
<!-- Node12&#45;&gt;Node7 -->
<g id="edge15" class="edge">
<title>Node12&#45;&gt;Node7</title>
<path fill="none" stroke="midnightblue" d="M863.17,-84.64C843.15,-74.2 820.9,-62.61 801.69,-52.61"/>
<polygon fill="midnightblue" stroke="midnightblue" points="861.71,-87.82 872.2,-89.34 864.95,-81.61 861.71,-87.82"/>
</g>
<!-- Node12&#45;&gt;Node10 -->
<g id="edge13" class="edge">
<title>Node12&#45;&gt;Node10</title>
<path fill="none" stroke="midnightblue" d="M976.72,-84.49C996.19,-74.1 1017.8,-62.57 1036.46,-52.61"/>
<polygon fill="midnightblue" stroke="midnightblue" points="974.82,-81.54 967.65,-89.34 978.12,-87.71 974.82,-81.54"/>
</g>
<!-- Node13 -->
<g id="node13" class="node">
<title>Node13</title>
<g id="a_node13"><a xlink:href="udp__client__endpoint__impl_8cpp.html" target="_top" xlink:title=" ">
<polygon fill="white" stroke="black" points="851,-0.5 851,-52.5 994,-52.5 994,-0.5 851,-0.5"/>
<text text-anchor="start" x="859" y="-40.5" font-family="Helvetica,sans-Serif" font-size="10.00">/home/kali/projects</text>
<text text-anchor="start" x="859" y="-29.5" font-family="Helvetica,sans-Serif" font-size="10.00">/vsomeip/implementation</text>
<text text-anchor="start" x="859" y="-18.5" font-family="Helvetica,sans-Serif" font-size="10.00">/endpoints/src/udp_client</text>
<text text-anchor="middle" x="922.5" y="-7.5" font-family="Helvetica,sans-Serif" font-size="10.00">_endpoint_impl.cpp</text>
</a>
</g>
</g>
<!-- Node12&#45;&gt;Node13 -->
<g id="edge14" class="edge">
<title>Node12&#45;&gt;Node13</title>
<path fill="none" stroke="midnightblue" d="M921.31,-79.19C921.52,-70.28 921.73,-60.9 921.92,-52.61"/>
<polygon fill="midnightblue" stroke="midnightblue" points="917.81,-79.26 921.08,-89.34 924.81,-79.42 917.81,-79.26"/>
</g>
</g>
</svg>
