<?xml version="1.0" encoding="UTF-8" standalone="no"?>
<!DOCTYPE svg PUBLIC "-//W3C//DTD SVG 1.1//EN"
 "http://www.w3.org/Graphics/SVG/1.1/DTD/svg11.dtd">
<!-- Generated by graphviz version 2.43.0 (0)
 -->
<!-- Title: /home/kali/projects/vsomeip/implementation/endpoints/include/client_endpoint.hpp Pages: 1 -->
<svg width="540pt" height="173pt"
 viewBox="0.00 0.00 540.00 173.00" xmlns="http://www.w3.org/2000/svg" xmlns:xlink="http://www.w3.org/1999/xlink">
<g id="graph0" class="graph" transform="scale(1 1) rotate(0) translate(4 169)">
<title>/home/kali/projects/vsomeip/implementation/endpoints/include/client_endpoint.hpp</title>
<polygon fill="white" stroke="transparent" points="-4,4 -4,-169 536,-169 536,4 -4,4"/>
<!-- Node1 -->
<g id="node1" class="node">
<title>Node1</title>
<g id="a_node1"><a xlink:title=" ">
<polygon fill="#bfbfbf" stroke="black" points="248,-112.5 248,-164.5 391,-164.5 391,-112.5 248,-112.5"/>
<text text-anchor="start" x="256" y="-152.5" font-family="Helvetica,sans-Serif" font-size="10.00">/home/kali/projects</text>
<text text-anchor="start" x="256" y="-141.5" font-family="Helvetica,sans-Serif" font-size="10.00">/vsomeip/implementation</text>
<text text-anchor="start" x="256" y="-130.5" font-family="Helvetica,sans-Serif" font-size="10.00">/endpoints/include/client</text>
<text text-anchor="middle" x="319.5" y="-119.5" font-family="Helvetica,sans-Serif" font-size="10.00">_endpoint.hpp</text>
</a>
</g>
</g>
<!-- Node2 -->
<g id="node2" class="node">
<title>Node2</title>
<g id="a_node2"><a xlink:href="endpoint_8hpp.html" target="_top" xlink:title=" ">
<polygon fill="white" stroke="black" points="279.5,-56.5 279.5,-75.5 359.5,-75.5 359.5,-56.5 279.5,-56.5"/>
<text text-anchor="middle" x="319.5" y="-63.5" font-family="Helvetica,sans-Serif" font-size="10.00">endpoint.hpp</text>
</a>
</g>
</g>
<!-- Node1&#45;&gt;Node2 -->
<g id="edge1" class="edge">
<title>Node1&#45;&gt;Node2</title>
<path fill="none" stroke="midnightblue" d="M319.5,-112.45C319.5,-103.73 319.5,-94.1 319.5,-85.96"/>
<polygon fill="midnightblue" stroke="midnightblue" points="323,-85.7 319.5,-75.7 316,-85.7 323,-85.7"/>
</g>
<!-- Node3 -->
<g id="node3" class="node">
<title>Node3</title>
<g id="a_node3"><a xlink:title=" ">
<polygon fill="white" stroke="#bfbfbf" points="0,-0.5 0,-19.5 141,-19.5 141,-0.5 0,-0.5"/>
<text text-anchor="middle" x="70.5" y="-7.5" font-family="Helvetica,sans-Serif" font-size="10.00">boost/asio/ip/address.hpp</text>
</a>
</g>
</g>
<!-- Node2&#45;&gt;Node3 -->
<g id="edge2" class="edge">
<title>Node2&#45;&gt;Node3</title>
<path fill="none" stroke="midnightblue" d="M280.05,-56.44C236.61,-47.02 166.71,-31.87 119.72,-21.68"/>
<polygon fill="midnightblue" stroke="midnightblue" points="120.28,-18.22 109.77,-19.52 118.8,-25.06 120.28,-18.22"/>
</g>
<!-- Node4 -->
<g id="node4" class="node">
<title>Node4</title>
<g id="a_node4"><a xlink:title=" ">
<polygon fill="white" stroke="#bfbfbf" points="159,-0.5 159,-19.5 318,-19.5 318,-0.5 159,-0.5"/>
<text text-anchor="middle" x="238.5" y="-7.5" font-family="Helvetica,sans-Serif" font-size="10.00">vsomeip/primitive_types.hpp</text>
</a>
</g>
</g>
<!-- Node2&#45;&gt;Node4 -->
<g id="edge3" class="edge">
<title>Node2&#45;&gt;Node4</title>
<path fill="none" stroke="midnightblue" d="M306.49,-56.32C293.97,-47.98 274.82,-35.21 260.03,-25.35"/>
<polygon fill="midnightblue" stroke="midnightblue" points="261.74,-22.29 251.48,-19.65 257.86,-28.11 261.74,-22.29"/>
</g>
<!-- Node5 -->
<g id="node5" class="node">
<title>Node5</title>
<g id="a_node5"><a xlink:title=" ">
<polygon fill="white" stroke="#bfbfbf" points="336.5,-0.5 336.5,-19.5 466.5,-19.5 466.5,-0.5 336.5,-0.5"/>
<text text-anchor="middle" x="401.5" y="-7.5" font-family="Helvetica,sans-Serif" font-size="10.00">vsomeip/constants.hpp</text>
</a>
</g>
</g>
<!-- Node2&#45;&gt;Node5 -->
<g id="edge4" class="edge">
<title>Node2&#45;&gt;Node5</title>
<path fill="none" stroke="midnightblue" d="M332.67,-56.32C345.35,-47.98 364.73,-35.21 379.71,-25.35"/>
<polygon fill="midnightblue" stroke="midnightblue" points="381.93,-28.08 388.36,-19.65 378.08,-22.23 381.93,-28.08"/>
</g>
<!-- Node6 -->
<g id="node6" class="node">
<title>Node6</title>
<g id="a_node6"><a xlink:title=" ">
<polygon fill="white" stroke="#bfbfbf" points="485,-0.5 485,-19.5 532,-19.5 532,-0.5 485,-0.5"/>
<text text-anchor="middle" x="508.5" y="-7.5" font-family="Helvetica,sans-Serif" font-size="10.00">vector</text>
</a>
</g>
</g>
<!-- Node2&#45;&gt;Node6 -->
<g id="edge5" class="edge">
<title>Node2&#45;&gt;Node6</title>
<path fill="none" stroke="midnightblue" d="M349.45,-56.44C383.65,-46.67 439.45,-30.73 475.05,-20.56"/>
<polygon fill="midnightblue" stroke="midnightblue" points="476.31,-23.84 484.96,-17.73 474.39,-17.11 476.31,-23.84"/>
</g>
</g>
</svg>
