<?xml version="1.0" encoding="UTF-8" standalone="no"?>
<!DOCTYPE svg PUBLIC "-//W3C//DTD SVG 1.1//EN"
 "http://www.w3.org/Graphics/SVG/1.1/DTD/svg11.dtd">
<!-- Generated by graphviz version 2.43.0 (0)
 -->
<!-- Title: /home/kali/projects/vsomeip/interface/compat/vsomeip/message_base.hpp Pages: 1 -->
<svg width="653pt" height="184pt"
 viewBox="0.00 0.00 652.50 184.00" xmlns="http://www.w3.org/2000/svg" xmlns:xlink="http://www.w3.org/1999/xlink">
<g id="graph0" class="graph" transform="scale(1 1) rotate(0) translate(4 180)">
<title>/home/kali/projects/vsomeip/interface/compat/vsomeip/message_base.hpp</title>
<polygon fill="white" stroke="transparent" points="-4,4 -4,-180 648.5,-180 648.5,4 -4,4"/>
<!-- Node1 -->
<g id="node1" class="node">
<title>Node1</title>
<g id="a_node1"><a xlink:title=" ">
<polygon fill="#bfbfbf" stroke="black" points="188.5,-134.5 188.5,-175.5 346.5,-175.5 346.5,-134.5 188.5,-134.5"/>
<text text-anchor="start" x="196.5" y="-163.5" font-family="Helvetica,sans-Serif" font-size="10.00">/home/kali/projects</text>
<text text-anchor="start" x="196.5" y="-152.5" font-family="Helvetica,sans-Serif" font-size="10.00">/vsomeip/interface/compat</text>
<text text-anchor="middle" x="267.5" y="-141.5" font-family="Helvetica,sans-Serif" font-size="10.00">/vsomeip/message_base.hpp</text>
</a>
</g>
</g>
<!-- Node2 -->
<g id="node2" class="node">
<title>Node2</title>
<g id="a_node2"><a xlink:href="interface_2compat_2vsomeip_2enumeration__types_8hpp.html" target="_top" xlink:title=" ">
<polygon fill="white" stroke="black" points="360,-67.5 360,-97.5 495,-97.5 495,-67.5 360,-67.5"/>
<text text-anchor="start" x="368" y="-85.5" font-family="Helvetica,sans-Serif" font-size="10.00">../../compat/vsomeip</text>
<text text-anchor="middle" x="427.5" y="-74.5" font-family="Helvetica,sans-Serif" font-size="10.00">/enumeration_types.hpp</text>
</a>
</g>
</g>
<!-- Node1&#45;&gt;Node2 -->
<g id="edge1" class="edge">
<title>Node1&#45;&gt;Node2</title>
<path fill="none" stroke="midnightblue" d="M312.07,-134.36C335.29,-124.13 363.5,-111.7 386.22,-101.69"/>
<polygon fill="midnightblue" stroke="midnightblue" points="387.85,-104.79 395.59,-97.56 385.03,-98.39 387.85,-104.79"/>
</g>
<!-- Node4 -->
<g id="node4" class="node">
<title>Node4</title>
<g id="a_node4"><a xlink:href="compat_2vsomeip_2export_8hpp.html" target="_top" xlink:title=" ">
<polygon fill="white" stroke="black" points="107.5,-0.5 107.5,-30.5 223.5,-30.5 223.5,-0.5 107.5,-0.5"/>
<text text-anchor="start" x="115.5" y="-18.5" font-family="Helvetica,sans-Serif" font-size="10.00">../../compat/vsomeip</text>
<text text-anchor="middle" x="165.5" y="-7.5" font-family="Helvetica,sans-Serif" font-size="10.00">/export.hpp</text>
</a>
</g>
</g>
<!-- Node1&#45;&gt;Node4 -->
<g id="edge3" class="edge">
<title>Node1&#45;&gt;Node4</title>
<path fill="none" stroke="midnightblue" d="M226.17,-134.48C210.98,-125.38 194.95,-113.17 184.5,-98 172.94,-81.22 168.34,-58.36 166.55,-41.12"/>
<polygon fill="midnightblue" stroke="midnightblue" points="170.01,-40.42 165.73,-30.72 163.03,-40.97 170.01,-40.42"/>
</g>
<!-- Node5 -->
<g id="node5" class="node">
<title>Node5</title>
<g id="a_node5"><a xlink:href="compat_2vsomeip_2internal_2deserializable_8hpp.html" target="_top" xlink:title=" ">
<polygon fill="white" stroke="black" points="193,-67.5 193,-97.5 342,-97.5 342,-67.5 193,-67.5"/>
<text text-anchor="start" x="201" y="-85.5" font-family="Helvetica,sans-Serif" font-size="10.00">../../compat/vsomeip</text>
<text text-anchor="middle" x="267.5" y="-74.5" font-family="Helvetica,sans-Serif" font-size="10.00">/internal/deserializable.hpp</text>
</a>
</g>
</g>
<!-- Node1&#45;&gt;Node5 -->
<g id="edge4" class="edge">
<title>Node1&#45;&gt;Node5</title>
<path fill="none" stroke="midnightblue" d="M267.5,-134.36C267.5,-126.23 267.5,-116.7 267.5,-108.11"/>
<polygon fill="midnightblue" stroke="midnightblue" points="271,-107.89 267.5,-97.89 264,-107.89 271,-107.89"/>
</g>
<!-- Node6 -->
<g id="node6" class="node">
<title>Node6</title>
<g id="a_node6"><a xlink:href="compat_2vsomeip_2internal_2serializable_8hpp.html" target="_top" xlink:title=" ">
<polygon fill="white" stroke="black" points="0,-67.5 0,-97.5 137,-97.5 137,-67.5 0,-67.5"/>
<text text-anchor="start" x="8" y="-85.5" font-family="Helvetica,sans-Serif" font-size="10.00">../../compat/vsomeip</text>
<text text-anchor="middle" x="68.5" y="-74.5" font-family="Helvetica,sans-Serif" font-size="10.00">/internal/serializable.hpp</text>
</a>
</g>
</g>
<!-- Node1&#45;&gt;Node6 -->
<g id="edge6" class="edge">
<title>Node1&#45;&gt;Node6</title>
<path fill="none" stroke="midnightblue" d="M212.33,-134.46C182.8,-123.99 146.72,-111.21 118.09,-101.07"/>
<polygon fill="midnightblue" stroke="midnightblue" points="118.89,-97.64 108.29,-97.6 116.55,-104.24 118.89,-97.64"/>
</g>
<!-- Node7 -->
<g id="node7" class="node">
<title>Node7</title>
<g id="a_node7"><a xlink:href="interface_2compat_2vsomeip_2primitive__types_8hpp.html" target="_top" xlink:title=" ">
<polygon fill="white" stroke="black" points="513,-67.5 513,-97.5 630,-97.5 630,-67.5 513,-67.5"/>
<text text-anchor="start" x="521" y="-85.5" font-family="Helvetica,sans-Serif" font-size="10.00">../../compat/vsomeip</text>
<text text-anchor="middle" x="571.5" y="-74.5" font-family="Helvetica,sans-Serif" font-size="10.00">/primitive_types.hpp</text>
</a>
</g>
</g>
<!-- Node1&#45;&gt;Node7 -->
<g id="edge8" class="edge">
<title>Node1&#45;&gt;Node7</title>
<path fill="none" stroke="midnightblue" d="M346.58,-135.66C395.09,-124.41 456.6,-110.15 503.02,-99.38"/>
<polygon fill="midnightblue" stroke="midnightblue" points="504.04,-102.74 512.99,-97.07 502.45,-95.92 504.04,-102.74"/>
</g>
<!-- Node3 -->
<g id="node3" class="node">
<title>Node3</title>
<g id="a_node3"><a xlink:title=" ">
<polygon fill="white" stroke="#bfbfbf" points="404.5,-6 404.5,-25 454.5,-25 454.5,-6 404.5,-6"/>
<text text-anchor="middle" x="429.5" y="-13" font-family="Helvetica,sans-Serif" font-size="10.00">cstdint</text>
</a>
</g>
</g>
<!-- Node2&#45;&gt;Node3 -->
<g id="edge2" class="edge">
<title>Node2&#45;&gt;Node3</title>
<path fill="none" stroke="midnightblue" d="M427.93,-67.4C428.22,-58.06 428.6,-45.71 428.91,-35.52"/>
<polygon fill="midnightblue" stroke="midnightblue" points="432.42,-35.3 429.23,-25.19 425.43,-35.08 432.42,-35.3"/>
</g>
<!-- Node5&#45;&gt;Node4 -->
<g id="edge5" class="edge">
<title>Node5&#45;&gt;Node4</title>
<path fill="none" stroke="midnightblue" d="M245.37,-67.4C230.93,-58.2 211.9,-46.07 196.03,-35.95"/>
<polygon fill="midnightblue" stroke="midnightblue" points="197.9,-33 187.59,-30.58 194.14,-38.9 197.9,-33"/>
</g>
<!-- Node6&#45;&gt;Node4 -->
<g id="edge7" class="edge">
<title>Node6&#45;&gt;Node4</title>
<path fill="none" stroke="midnightblue" d="M89.55,-67.4C103.15,-58.28 121.04,-46.29 136.05,-36.24"/>
<polygon fill="midnightblue" stroke="midnightblue" points="138.13,-39.05 144.49,-30.58 134.24,-33.24 138.13,-39.05"/>
</g>
<!-- Node7&#45;&gt;Node3 -->
<g id="edge10" class="edge">
<title>Node7&#45;&gt;Node3</title>
<path fill="none" stroke="midnightblue" d="M540.69,-67.4C515.88,-56.04 481.32,-40.22 457.34,-29.24"/>
<polygon fill="midnightblue" stroke="midnightblue" points="458.63,-25.99 448.08,-25.01 455.72,-32.35 458.63,-25.99"/>
</g>
<!-- Node8 -->
<g id="node8" class="node">
<title>Node8</title>
<g id="a_node8"><a xlink:title=" ">
<polygon fill="white" stroke="#bfbfbf" points="512.5,-6 512.5,-25 554.5,-25 554.5,-6 512.5,-6"/>
<text text-anchor="middle" x="533.5" y="-13" font-family="Helvetica,sans-Serif" font-size="10.00">array</text>
</a>
</g>
</g>
<!-- Node7&#45;&gt;Node8 -->
<g id="edge9" class="edge">
<title>Node7&#45;&gt;Node8</title>
<path fill="none" stroke="midnightblue" d="M563.25,-67.4C557.51,-57.56 549.8,-44.38 543.67,-33.89"/>
<polygon fill="midnightblue" stroke="midnightblue" points="546.65,-32.06 538.58,-25.19 540.61,-35.59 546.65,-32.06"/>
</g>
<!-- Node9 -->
<g id="node9" class="node">
<title>Node9</title>
<g id="a_node9"><a xlink:title=" ">
<polygon fill="white" stroke="#bfbfbf" points="572.5,-6 572.5,-25 644.5,-25 644.5,-6 572.5,-6"/>
<text text-anchor="middle" x="608.5" y="-13" font-family="Helvetica,sans-Serif" font-size="10.00">sys/types.h</text>
</a>
</g>
</g>
<!-- Node7&#45;&gt;Node9 -->
<g id="edge11" class="edge">
<title>Node7&#45;&gt;Node9</title>
<path fill="none" stroke="midnightblue" d="M579.53,-67.4C585.13,-57.56 592.63,-44.38 598.6,-33.89"/>
<polygon fill="midnightblue" stroke="midnightblue" points="601.65,-35.62 603.55,-25.19 595.56,-32.15 601.65,-35.62"/>
</g>
</g>
</svg>
