<?xml version="1.0" encoding="UTF-8" standalone="no"?>
<!DOCTYPE svg PUBLIC "-//W3C//DTD SVG 1.1//EN"
 "http://www.w3.org/Graphics/SVG/1.1/DTD/svg11.dtd">
<!-- Generated by graphviz version 2.43.0 (0)
 -->
<!-- Title: /home/kali/projects/vsomeip/interface/compat/vsomeip/vsomeip.hpp Pages: 1 -->
<svg width="1338pt" height="318pt"
 viewBox="0.00 0.00 1337.50 318.00" xmlns="http://www.w3.org/2000/svg" xmlns:xlink="http://www.w3.org/1999/xlink">
<g id="graph0" class="graph" transform="scale(1 1) rotate(0) translate(4 314)">
<title>/home/kali/projects/vsomeip/interface/compat/vsomeip/vsomeip.hpp</title>
<polygon fill="white" stroke="transparent" points="-4,4 -4,-314 1333.5,-314 1333.5,4 -4,4"/>
<!-- Node1 -->
<g id="node1" class="node">
<title>Node1</title>
<g id="a_node1"><a xlink:title=" ">
<polygon fill="#bfbfbf" stroke="black" points="702,-268.5 702,-309.5 850,-309.5 850,-268.5 702,-268.5"/>
<text text-anchor="start" x="710" y="-297.5" font-family="Helvetica,sans-Serif" font-size="10.00">/home/kali/projects</text>
<text text-anchor="start" x="710" y="-286.5" font-family="Helvetica,sans-Serif" font-size="10.00">/vsomeip/interface/compat</text>
<text text-anchor="middle" x="776" y="-275.5" font-family="Helvetica,sans-Serif" font-size="10.00">/vsomeip/vsomeip.hpp</text>
</a>
</g>
</g>
<!-- Node2 -->
<g id="node2" class="node">
<title>Node2</title>
<g id="a_node2"><a xlink:href="compat_2vsomeip_2application_8hpp.html" target="_top" xlink:title=" ">
<polygon fill="white" stroke="black" points="346,-201.5 346,-231.5 462,-231.5 462,-201.5 346,-201.5"/>
<text text-anchor="start" x="354" y="-219.5" font-family="Helvetica,sans-Serif" font-size="10.00">../../compat/vsomeip</text>
<text text-anchor="middle" x="404" y="-208.5" font-family="Helvetica,sans-Serif" font-size="10.00">/application.hpp</text>
</a>
</g>
</g>
<!-- Node1&#45;&gt;Node2 -->
<g id="edge1" class="edge">
<title>Node1&#45;&gt;Node2</title>
<path fill="none" stroke="midnightblue" d="M701.61,-273.9C634.69,-261.22 537.19,-242.74 472.23,-230.43"/>
<polygon fill="midnightblue" stroke="midnightblue" points="472.57,-226.93 462.1,-228.51 471.27,-233.81 472.57,-226.93"/>
</g>
<!-- Node8 -->
<g id="node8" class="node">
<title>Node8</title>
<g id="a_node8"><a xlink:href="interface_2compat_2vsomeip_2constants_8hpp.html" target="_top" xlink:title=" ">
<polygon fill="white" stroke="black" points="632,-134.5 632,-164.5 748,-164.5 748,-134.5 632,-134.5"/>
<text text-anchor="start" x="640" y="-152.5" font-family="Helvetica,sans-Serif" font-size="10.00">../../compat/vsomeip</text>
<text text-anchor="middle" x="690" y="-141.5" font-family="Helvetica,sans-Serif" font-size="10.00">/constants.hpp</text>
</a>
</g>
</g>
<!-- Node1&#45;&gt;Node8 -->
<g id="edge24" class="edge">
<title>Node1&#45;&gt;Node8</title>
<path fill="none" stroke="midnightblue" d="M744.36,-268.25C731.59,-258.76 717.82,-246.33 709,-232 698.38,-214.75 693.69,-192.11 691.62,-175.07"/>
<polygon fill="midnightblue" stroke="midnightblue" points="695.08,-174.4 690.61,-164.79 688.11,-175.09 695.08,-174.4"/>
</g>
<!-- Node18 -->
<g id="node18" class="node">
<title>Node18</title>
<g id="a_node18"><a xlink:href="interface_2compat_2vsomeip_2defines_8hpp.html" target="_top" xlink:title=" ">
<polygon fill="white" stroke="black" points="928,-201.5 928,-231.5 1044,-231.5 1044,-201.5 928,-201.5"/>
<text text-anchor="start" x="936" y="-219.5" font-family="Helvetica,sans-Serif" font-size="10.00">../../compat/vsomeip</text>
<text text-anchor="middle" x="986" y="-208.5" font-family="Helvetica,sans-Serif" font-size="10.00">/defines.hpp</text>
</a>
</g>
</g>
<!-- Node1&#45;&gt;Node18 -->
<g id="edge25" class="edge">
<title>Node1&#45;&gt;Node18</title>
<path fill="none" stroke="midnightblue" d="M834.22,-268.46C865.65,-257.9 904.12,-244.99 934.46,-234.8"/>
<polygon fill="midnightblue" stroke="midnightblue" points="935.64,-238.1 944.01,-231.6 933.42,-231.46 935.64,-238.1"/>
</g>
<!-- Node19 -->
<g id="node19" class="node">
<title>Node19</title>
<g id="a_node19"><a xlink:href="compat_2vsomeip_2message_8hpp.html" target="_top" xlink:title=" ">
<polygon fill="white" stroke="black" points="546,-201.5 546,-231.5 662,-231.5 662,-201.5 546,-201.5"/>
<text text-anchor="start" x="554" y="-219.5" font-family="Helvetica,sans-Serif" font-size="10.00">../../compat/vsomeip</text>
<text text-anchor="middle" x="604" y="-208.5" font-family="Helvetica,sans-Serif" font-size="10.00">/message.hpp</text>
</a>
</g>
</g>
<!-- Node1&#45;&gt;Node19 -->
<g id="edge26" class="edge">
<title>Node1&#45;&gt;Node19</title>
<path fill="none" stroke="midnightblue" d="M728.09,-268.36C702.9,-258.04 672.26,-245.48 647.72,-235.42"/>
<polygon fill="midnightblue" stroke="midnightblue" points="648.88,-232.11 638.3,-231.56 646.23,-238.59 648.88,-232.11"/>
</g>
<!-- Node24 -->
<g id="node24" class="node">
<title>Node24</title>
<g id="a_node24"><a xlink:href="compat_2vsomeip_2payload_8hpp.html" target="_top" xlink:title=" ">
<polygon fill="white" stroke="black" points="1086,-134.5 1086,-164.5 1202,-164.5 1202,-134.5 1086,-134.5"/>
<text text-anchor="start" x="1094" y="-152.5" font-family="Helvetica,sans-Serif" font-size="10.00">../../compat/vsomeip</text>
<text text-anchor="middle" x="1144" y="-141.5" font-family="Helvetica,sans-Serif" font-size="10.00">/payload.hpp</text>
</a>
</g>
</g>
<!-- Node1&#45;&gt;Node24 -->
<g id="edge36" class="edge">
<title>Node1&#45;&gt;Node24</title>
<path fill="none" stroke="midnightblue" d="M807.01,-268.4C845.43,-244.22 907.28,-205.73 919,-201 947.05,-189.68 1020.37,-174.13 1075.75,-163.29"/>
<polygon fill="midnightblue" stroke="midnightblue" points="1076.72,-166.66 1085.86,-161.32 1075.38,-159.79 1076.72,-166.66"/>
</g>
<!-- Node25 -->
<g id="node25" class="node">
<title>Node25</title>
<g id="a_node25"><a xlink:href="interface_2compat_2vsomeip_2runtime_8hpp.html" target="_top" xlink:title=" ">
<polygon fill="white" stroke="black" points="804,-134.5 804,-164.5 920,-164.5 920,-134.5 804,-134.5"/>
<text text-anchor="start" x="812" y="-152.5" font-family="Helvetica,sans-Serif" font-size="10.00">../../compat/vsomeip</text>
<text text-anchor="middle" x="862" y="-141.5" font-family="Helvetica,sans-Serif" font-size="10.00">/runtime.hpp</text>
</a>
</g>
</g>
<!-- Node1&#45;&gt;Node25 -->
<g id="edge42" class="edge">
<title>Node1&#45;&gt;Node25</title>
<path fill="none" stroke="midnightblue" d="M807.64,-268.25C820.41,-258.76 834.18,-246.33 843,-232 853.62,-214.75 858.31,-192.11 860.38,-175.07"/>
<polygon fill="midnightblue" stroke="midnightblue" points="863.89,-175.09 861.39,-164.79 856.92,-174.4 863.89,-175.09"/>
</g>
<!-- Node26 -->
<g id="node26" class="node">
<title>Node26</title>
<g id="a_node26"><a xlink:href="interface_2compat_2vsomeip_2trace_8hpp.html" target="_top" xlink:title=" ">
<polygon fill="white" stroke="black" points="718,-201.5 718,-231.5 834,-231.5 834,-201.5 718,-201.5"/>
<text text-anchor="start" x="726" y="-219.5" font-family="Helvetica,sans-Serif" font-size="10.00">../../compat/vsomeip</text>
<text text-anchor="middle" x="776" y="-208.5" font-family="Helvetica,sans-Serif" font-size="10.00">/trace.hpp</text>
</a>
</g>
</g>
<!-- Node1&#45;&gt;Node26 -->
<g id="edge48" class="edge">
<title>Node1&#45;&gt;Node26</title>
<path fill="none" stroke="midnightblue" d="M776,-268.36C776,-260.23 776,-250.7 776,-242.11"/>
<polygon fill="midnightblue" stroke="midnightblue" points="779.5,-241.89 776,-231.89 772.5,-241.89 779.5,-241.89"/>
</g>
<!-- Node3 -->
<g id="node3" class="node">
<title>Node3</title>
<g id="a_node3"><a xlink:title=" ">
<polygon fill="white" stroke="#bfbfbf" points="134,-140 134,-159 184,-159 184,-140 134,-140"/>
<text text-anchor="middle" x="159" y="-147" font-family="Helvetica,sans-Serif" font-size="10.00">chrono</text>
</a>
</g>
</g>
<!-- Node2&#45;&gt;Node3 -->
<g id="edge2" class="edge">
<title>Node2&#45;&gt;Node3</title>
<path fill="none" stroke="midnightblue" d="M345.8,-203.12C304.27,-193.83 247.28,-180.15 198,-165 195.43,-164.21 192.79,-163.35 190.15,-162.44"/>
<polygon fill="midnightblue" stroke="midnightblue" points="191.31,-159.14 180.71,-159.08 188.96,-165.73 191.31,-159.14"/>
</g>
<!-- Node4 -->
<g id="node4" class="node">
<title>Node4</title>
<g id="a_node4"><a xlink:title=" ">
<polygon fill="white" stroke="#bfbfbf" points="397,-73 397,-92 455,-92 455,-73 397,-73"/>
<text text-anchor="middle" x="426" y="-80" font-family="Helvetica,sans-Serif" font-size="10.00">memory</text>
</a>
</g>
</g>
<!-- Node2&#45;&gt;Node4 -->
<g id="edge3" class="edge">
<title>Node2&#45;&gt;Node4</title>
<path fill="none" stroke="midnightblue" d="M345.74,-209.03C283.05,-199.68 196.66,-178.37 231,-134 249.87,-109.62 335.28,-94.86 386.6,-88.04"/>
<polygon fill="midnightblue" stroke="midnightblue" points="387.21,-91.49 396.69,-86.74 386.32,-84.55 387.21,-91.49"/>
</g>
<!-- Node5 -->
<g id="node5" class="node">
<title>Node5</title>
<g id="a_node5"><a xlink:title=" ">
<polygon fill="white" stroke="#bfbfbf" points="240,-140 240,-159 272,-159 272,-140 240,-140"/>
<text text-anchor="middle" x="256" y="-147" font-family="Helvetica,sans-Serif" font-size="10.00">set</text>
</a>
</g>
</g>
<!-- Node2&#45;&gt;Node5 -->
<g id="edge4" class="edge">
<title>Node2&#45;&gt;Node5</title>
<path fill="none" stroke="midnightblue" d="M366,-201.44C341.39,-191.96 308.85,-178.72 281,-165 280.32,-164.67 279.64,-164.32 278.96,-163.97"/>
<polygon fill="midnightblue" stroke="midnightblue" points="280.55,-160.85 270.1,-159.12 277.19,-166.99 280.55,-160.85"/>
</g>
<!-- Node6 -->
<g id="node6" class="node">
<title>Node6</title>
<g id="a_node6"><a xlink:title=" ">
<polygon fill="white" stroke="#bfbfbf" points="290,-140 290,-159 328,-159 328,-140 290,-140"/>
<text text-anchor="middle" x="309" y="-147" font-family="Helvetica,sans-Serif" font-size="10.00">map</text>
</a>
</g>
</g>
<!-- Node2&#45;&gt;Node6 -->
<g id="edge5" class="edge">
<title>Node2&#45;&gt;Node6</title>
<path fill="none" stroke="midnightblue" d="M383.39,-201.4C367.6,-190.6 345.91,-175.76 330.03,-164.89"/>
<polygon fill="midnightblue" stroke="midnightblue" points="331.66,-161.77 321.43,-159.01 327.71,-167.54 331.66,-161.77"/>
</g>
<!-- Node7 -->
<g id="node7" class="node">
<title>Node7</title>
<g id="a_node7"><a xlink:title=" ">
<polygon fill="white" stroke="#bfbfbf" points="1282.5,-73 1282.5,-92 1329.5,-92 1329.5,-73 1282.5,-73"/>
<text text-anchor="middle" x="1306" y="-80" font-family="Helvetica,sans-Serif" font-size="10.00">vector</text>
</a>
</g>
</g>
<!-- Node2&#45;&gt;Node7 -->
<g id="edge6" class="edge">
<title>Node2&#45;&gt;Node7</title>
<path fill="none" stroke="midnightblue" d="M462.2,-208.45C485.44,-205.82 512.46,-202.99 537,-201 686.5,-188.87 1071.78,-220.8 1211,-165 1229.05,-157.76 1268.31,-120.79 1290.29,-99.21"/>
<polygon fill="midnightblue" stroke="midnightblue" points="1292.89,-101.57 1297.54,-92.04 1287.97,-96.59 1292.89,-101.57"/>
</g>
<!-- Node2&#45;&gt;Node8 -->
<g id="edge7" class="edge">
<title>Node2&#45;&gt;Node8</title>
<path fill="none" stroke="midnightblue" d="M462.22,-202.27C508.52,-191.75 573.37,-177.01 622.04,-165.94"/>
<polygon fill="midnightblue" stroke="midnightblue" points="622.88,-169.34 631.86,-163.71 621.33,-162.52 622.88,-169.34"/>
</g>
<!-- Node10 -->
<g id="node10" class="node">
<title>Node10</title>
<g id="a_node10"><a xlink:href="interface_2compat_2vsomeip_2enumeration__types_8hpp.html" target="_top" xlink:title=" ">
<polygon fill="white" stroke="black" points="495.5,-67.5 495.5,-97.5 630.5,-97.5 630.5,-67.5 495.5,-67.5"/>
<text text-anchor="start" x="503.5" y="-85.5" font-family="Helvetica,sans-Serif" font-size="10.00">../../compat/vsomeip</text>
<text text-anchor="middle" x="563" y="-74.5" font-family="Helvetica,sans-Serif" font-size="10.00">/enumeration_types.hpp</text>
</a>
</g>
</g>
<!-- Node2&#45;&gt;Node10 -->
<g id="edge15" class="edge">
<title>Node2&#45;&gt;Node10</title>
<path fill="none" stroke="midnightblue" d="M423.66,-201.31C437.18,-191.4 455.44,-177.72 471,-165 495.07,-145.32 521.54,-121.65 539.88,-104.9"/>
<polygon fill="midnightblue" stroke="midnightblue" points="542.69,-107.06 547.7,-97.73 537.96,-101.91 542.69,-107.06"/>
</g>
<!-- Node12 -->
<g id="node12" class="node">
<title>Node12</title>
<g id="a_node12"><a xlink:href="interface_2compat_2vsomeip_2primitive__types_8hpp.html" target="_top" xlink:title=" ">
<polygon fill="white" stroke="black" points="648.5,-67.5 648.5,-97.5 765.5,-97.5 765.5,-67.5 648.5,-67.5"/>
<text text-anchor="start" x="656.5" y="-85.5" font-family="Helvetica,sans-Serif" font-size="10.00">../../compat/vsomeip</text>
<text text-anchor="middle" x="707" y="-74.5" font-family="Helvetica,sans-Serif" font-size="10.00">/primitive_types.hpp</text>
</a>
</g>
</g>
<!-- Node2&#45;&gt;Node12 -->
<g id="edge23" class="edge">
<title>Node2&#45;&gt;Node12</title>
<path fill="none" stroke="midnightblue" d="M436.14,-201.5C491.37,-177.44 604.22,-128.28 665.38,-101.63"/>
<polygon fill="midnightblue" stroke="midnightblue" points="666.96,-104.76 674.73,-97.56 664.17,-98.34 666.96,-104.76"/>
</g>
<!-- Node15 -->
<g id="node15" class="node">
<title>Node15</title>
<g id="a_node15"><a xlink:href="interface_2compat_2vsomeip_2function__types_8hpp.html" target="_top" xlink:title=" ">
<polygon fill="white" stroke="black" points="0,-134.5 0,-164.5 116,-164.5 116,-134.5 0,-134.5"/>
<text text-anchor="start" x="8" y="-152.5" font-family="Helvetica,sans-Serif" font-size="10.00">../../compat/vsomeip</text>
<text text-anchor="middle" x="58" y="-141.5" font-family="Helvetica,sans-Serif" font-size="10.00">/function_types.hpp</text>
</a>
</g>
</g>
<!-- Node2&#45;&gt;Node15 -->
<g id="edge16" class="edge">
<title>Node2&#45;&gt;Node15</title>
<path fill="none" stroke="midnightblue" d="M345.91,-205.58C291.61,-196.17 208.01,-181.34 126.06,-165.17"/>
<polygon fill="midnightblue" stroke="midnightblue" points="126.57,-161.71 116.08,-163.2 125.21,-168.57 126.57,-161.71"/>
</g>
<!-- Node17 -->
<g id="node17" class="node">
<title>Node17</title>
<g id="a_node17"><a xlink:href="compat_2vsomeip_2handler_8hpp.html" target="_top" xlink:title=" ">
<polygon fill="white" stroke="black" points="346,-134.5 346,-164.5 462,-164.5 462,-134.5 346,-134.5"/>
<text text-anchor="start" x="354" y="-152.5" font-family="Helvetica,sans-Serif" font-size="10.00">../../compat/vsomeip</text>
<text text-anchor="middle" x="404" y="-141.5" font-family="Helvetica,sans-Serif" font-size="10.00">/handler.hpp</text>
</a>
</g>
</g>
<!-- Node2&#45;&gt;Node17 -->
<g id="edge19" class="edge">
<title>Node2&#45;&gt;Node17</title>
<path fill="none" stroke="midnightblue" d="M404,-201.4C404,-193.64 404,-183.81 404,-174.86"/>
<polygon fill="midnightblue" stroke="midnightblue" points="407.5,-174.58 404,-164.58 400.5,-174.58 407.5,-174.58"/>
</g>
<!-- Node9 -->
<g id="node9" class="node">
<title>Node9</title>
<g id="a_node9"><a xlink:title=" ">
<polygon fill="white" stroke="#bfbfbf" points="784,-73 784,-92 828,-92 828,-73 784,-73"/>
<text text-anchor="middle" x="806" y="-80" font-family="Helvetica,sans-Serif" font-size="10.00">string</text>
</a>
</g>
</g>
<!-- Node8&#45;&gt;Node9 -->
<g id="edge8" class="edge">
<title>Node8&#45;&gt;Node9</title>
<path fill="none" stroke="midnightblue" d="M715.17,-134.4C734.98,-123.29 762.42,-107.92 781.94,-96.98"/>
<polygon fill="midnightblue" stroke="midnightblue" points="783.81,-99.95 790.82,-92.01 780.38,-93.84 783.81,-99.95"/>
</g>
<!-- Node8&#45;&gt;Node10 -->
<g id="edge9" class="edge">
<title>Node8&#45;&gt;Node10</title>
<path fill="none" stroke="midnightblue" d="M662.44,-134.4C644.05,-124.98 619.67,-112.5 599.65,-102.26"/>
<polygon fill="midnightblue" stroke="midnightblue" points="601,-99.02 590.5,-97.58 597.81,-105.25 601,-99.02"/>
</g>
<!-- Node8&#45;&gt;Node12 -->
<g id="edge11" class="edge">
<title>Node8&#45;&gt;Node12</title>
<path fill="none" stroke="midnightblue" d="M693.69,-134.4C695.76,-126.47 698.4,-116.38 700.78,-107.27"/>
<polygon fill="midnightblue" stroke="midnightblue" points="704.17,-108.14 703.32,-97.58 697.4,-106.37 704.17,-108.14"/>
</g>
<!-- Node11 -->
<g id="node11" class="node">
<title>Node11</title>
<g id="a_node11"><a xlink:title=" ">
<polygon fill="white" stroke="#bfbfbf" points="578,-6 578,-25 628,-25 628,-6 578,-6"/>
<text text-anchor="middle" x="603" y="-13" font-family="Helvetica,sans-Serif" font-size="10.00">cstdint</text>
</a>
</g>
</g>
<!-- Node10&#45;&gt;Node11 -->
<g id="edge10" class="edge">
<title>Node10&#45;&gt;Node11</title>
<path fill="none" stroke="midnightblue" d="M571.68,-67.4C577.73,-57.56 585.84,-44.38 592.3,-33.89"/>
<polygon fill="midnightblue" stroke="midnightblue" points="595.39,-35.55 597.65,-25.19 589.43,-31.88 595.39,-35.55"/>
</g>
<!-- Node12&#45;&gt;Node11 -->
<g id="edge13" class="edge">
<title>Node12&#45;&gt;Node11</title>
<path fill="none" stroke="midnightblue" d="M684.43,-67.4C666.99,-56.5 642.97,-41.48 625.53,-30.58"/>
<polygon fill="midnightblue" stroke="midnightblue" points="626.95,-27.34 616.61,-25.01 623.24,-33.28 626.95,-27.34"/>
</g>
<!-- Node13 -->
<g id="node13" class="node">
<title>Node13</title>
<g id="a_node13"><a xlink:title=" ">
<polygon fill="white" stroke="#bfbfbf" points="648,-6 648,-25 690,-25 690,-6 648,-6"/>
<text text-anchor="middle" x="669" y="-13" font-family="Helvetica,sans-Serif" font-size="10.00">array</text>
</a>
</g>
</g>
<!-- Node12&#45;&gt;Node13 -->
<g id="edge12" class="edge">
<title>Node12&#45;&gt;Node13</title>
<path fill="none" stroke="midnightblue" d="M698.75,-67.4C693.01,-57.56 685.3,-44.38 679.17,-33.89"/>
<polygon fill="midnightblue" stroke="midnightblue" points="682.15,-32.06 674.08,-25.19 676.11,-35.59 682.15,-32.06"/>
</g>
<!-- Node14 -->
<g id="node14" class="node">
<title>Node14</title>
<g id="a_node14"><a xlink:title=" ">
<polygon fill="white" stroke="#bfbfbf" points="708,-6 708,-25 780,-25 780,-6 708,-6"/>
<text text-anchor="middle" x="744" y="-13" font-family="Helvetica,sans-Serif" font-size="10.00">sys/types.h</text>
</a>
</g>
</g>
<!-- Node12&#45;&gt;Node14 -->
<g id="edge14" class="edge">
<title>Node12&#45;&gt;Node14</title>
<path fill="none" stroke="midnightblue" d="M715.03,-67.4C720.63,-57.56 728.13,-44.38 734.1,-33.89"/>
<polygon fill="midnightblue" stroke="midnightblue" points="737.15,-35.62 739.05,-25.19 731.06,-32.15 737.15,-35.62"/>
</g>
<!-- Node15&#45;&gt;Node4 -->
<g id="edge18" class="edge">
<title>Node15&#45;&gt;Node4</title>
<path fill="none" stroke="midnightblue" d="M116.07,-135.76C119.09,-135.15 122.08,-134.56 125,-134 218.57,-116.04 329.19,-98.39 386.75,-89.48"/>
<polygon fill="midnightblue" stroke="midnightblue" points="387.51,-92.91 396.86,-87.92 386.45,-85.99 387.51,-92.91"/>
</g>
<!-- Node16 -->
<g id="node16" class="node">
<title>Node16</title>
<g id="a_node16"><a xlink:title=" ">
<polygon fill="white" stroke="#bfbfbf" points="180.5,-73 180.5,-92 245.5,-92 245.5,-73 180.5,-73"/>
<text text-anchor="middle" x="213" y="-80" font-family="Helvetica,sans-Serif" font-size="10.00">functional</text>
</a>
</g>
</g>
<!-- Node15&#45;&gt;Node16 -->
<g id="edge17" class="edge">
<title>Node15&#45;&gt;Node16</title>
<path fill="none" stroke="midnightblue" d="M91.63,-134.4C118.95,-122.94 157.11,-106.94 183.31,-95.95"/>
<polygon fill="midnightblue" stroke="midnightblue" points="184.85,-99.1 192.71,-92.01 182.14,-92.65 184.85,-99.1"/>
</g>
<!-- Node17&#45;&gt;Node4 -->
<g id="edge21" class="edge">
<title>Node17&#45;&gt;Node4</title>
<path fill="none" stroke="midnightblue" d="M408.77,-134.4C412,-124.86 416.29,-112.18 419.79,-101.86"/>
<polygon fill="midnightblue" stroke="midnightblue" points="423.17,-102.79 423.06,-92.19 416.54,-100.54 423.17,-102.79"/>
</g>
<!-- Node17&#45;&gt;Node12 -->
<g id="edge22" class="edge">
<title>Node17&#45;&gt;Node12</title>
<path fill="none" stroke="midnightblue" d="M462.2,-136.09C507.64,-126.38 572.65,-112.48 638.1,-98.41"/>
<polygon fill="midnightblue" stroke="midnightblue" points="639.14,-101.76 648.18,-96.24 637.66,-94.92 639.14,-101.76"/>
</g>
<!-- Node17&#45;&gt;Node16 -->
<g id="edge20" class="edge">
<title>Node17&#45;&gt;Node16</title>
<path fill="none" stroke="midnightblue" d="M362.56,-134.4C328.15,-122.69 279.8,-106.23 247.48,-95.23"/>
<polygon fill="midnightblue" stroke="midnightblue" points="248.59,-91.92 238,-92.01 246.34,-98.54 248.59,-91.92"/>
</g>
<!-- Node19&#45;&gt;Node4 -->
<g id="edge27" class="edge">
<title>Node19&#45;&gt;Node4</title>
<path fill="none" stroke="midnightblue" d="M574.98,-201.44C556.81,-192.11 533.27,-179.02 514,-165 486.37,-144.89 457.99,-117.06 441.19,-99.68"/>
<polygon fill="midnightblue" stroke="midnightblue" points="443.36,-96.88 433.92,-92.07 438.29,-101.72 443.36,-96.88"/>
</g>
<!-- Node20 -->
<g id="node20" class="node">
<title>Node20</title>
<g id="a_node20"><a xlink:href="compat_2vsomeip_2message__base_8hpp.html" target="_top" xlink:title=" ">
<polygon fill="white" stroke="black" points="938,-134.5 938,-164.5 1054,-164.5 1054,-134.5 938,-134.5"/>
<text text-anchor="start" x="946" y="-152.5" font-family="Helvetica,sans-Serif" font-size="10.00">../../compat/vsomeip</text>
<text text-anchor="middle" x="996" y="-141.5" font-family="Helvetica,sans-Serif" font-size="10.00">/message_base.hpp</text>
</a>
</g>
</g>
<!-- Node19&#45;&gt;Node20 -->
<g id="edge28" class="edge">
<title>Node19&#45;&gt;Node20</title>
<path fill="none" stroke="midnightblue" d="M662,-207.54C725.05,-198.65 828.98,-183.31 928.06,-165.11"/>
<polygon fill="midnightblue" stroke="midnightblue" points="928.74,-168.55 937.94,-163.28 927.47,-161.66 928.74,-168.55"/>
</g>
<!-- Node20&#45;&gt;Node10 -->
<g id="edge29" class="edge">
<title>Node20&#45;&gt;Node10</title>
<path fill="none" stroke="midnightblue" d="M937.96,-135.61C934.93,-135.04 931.93,-134.5 929,-134 804.64,-112.84 769.65,-117.71 640.83,-98.06"/>
<polygon fill="midnightblue" stroke="midnightblue" points="640.98,-94.54 630.57,-96.47 639.91,-101.46 640.98,-94.54"/>
</g>
<!-- Node20&#45;&gt;Node12 -->
<g id="edge35" class="edge">
<title>Node20&#45;&gt;Node12</title>
<path fill="none" stroke="midnightblue" d="M937.86,-135.42C890.99,-124.88 824.95,-110.03 775.51,-98.91"/>
<polygon fill="midnightblue" stroke="midnightblue" points="776.06,-95.45 765.54,-96.67 774.53,-102.28 776.06,-95.45"/>
</g>
<!-- Node21 -->
<g id="node21" class="node">
<title>Node21</title>
<g id="a_node21"><a xlink:href="compat_2vsomeip_2export_8hpp.html" target="_top" xlink:title=" ">
<polygon fill="white" stroke="black" points="938,-0.5 938,-30.5 1054,-30.5 1054,-0.5 938,-0.5"/>
<text text-anchor="start" x="946" y="-18.5" font-family="Helvetica,sans-Serif" font-size="10.00">../../compat/vsomeip</text>
<text text-anchor="middle" x="996" y="-7.5" font-family="Helvetica,sans-Serif" font-size="10.00">/export.hpp</text>
</a>
</g>
</g>
<!-- Node20&#45;&gt;Node21 -->
<g id="edge30" class="edge">
<title>Node20&#45;&gt;Node21</title>
<path fill="none" stroke="midnightblue" d="M955.98,-134.38C939.61,-126.4 922.34,-114.62 913,-98 906.25,-85.99 906.25,-79.01 913,-67 920.66,-53.37 933.66,-42.99 947.12,-35.29"/>
<polygon fill="midnightblue" stroke="midnightblue" points="948.77,-38.38 955.98,-30.62 945.5,-32.19 948.77,-38.38"/>
</g>
<!-- Node22 -->
<g id="node22" class="node">
<title>Node22</title>
<g id="a_node22"><a xlink:href="compat_2vsomeip_2internal_2deserializable_8hpp.html" target="_top" xlink:title=" ">
<polygon fill="white" stroke="black" points="921.5,-67.5 921.5,-97.5 1070.5,-97.5 1070.5,-67.5 921.5,-67.5"/>
<text text-anchor="start" x="929.5" y="-85.5" font-family="Helvetica,sans-Serif" font-size="10.00">../../compat/vsomeip</text>
<text text-anchor="middle" x="996" y="-74.5" font-family="Helvetica,sans-Serif" font-size="10.00">/internal/deserializable.hpp</text>
</a>
</g>
</g>
<!-- Node20&#45;&gt;Node22 -->
<g id="edge31" class="edge">
<title>Node20&#45;&gt;Node22</title>
<path fill="none" stroke="midnightblue" d="M996,-134.4C996,-126.64 996,-116.81 996,-107.86"/>
<polygon fill="midnightblue" stroke="midnightblue" points="999.5,-107.58 996,-97.58 992.5,-107.58 999.5,-107.58"/>
</g>
<!-- Node23 -->
<g id="node23" class="node">
<title>Node23</title>
<g id="a_node23"><a xlink:href="compat_2vsomeip_2internal_2serializable_8hpp.html" target="_top" xlink:title=" ">
<polygon fill="white" stroke="black" points="1088.5,-67.5 1088.5,-97.5 1225.5,-97.5 1225.5,-67.5 1088.5,-67.5"/>
<text text-anchor="start" x="1096.5" y="-85.5" font-family="Helvetica,sans-Serif" font-size="10.00">../../compat/vsomeip</text>
<text text-anchor="middle" x="1157" y="-74.5" font-family="Helvetica,sans-Serif" font-size="10.00">/internal/serializable.hpp</text>
</a>
</g>
</g>
<!-- Node20&#45;&gt;Node23 -->
<g id="edge33" class="edge">
<title>Node20&#45;&gt;Node23</title>
<path fill="none" stroke="midnightblue" d="M1030.93,-134.4C1054.88,-124.73 1086.85,-111.82 1112.6,-101.43"/>
<polygon fill="midnightblue" stroke="midnightblue" points="1114.17,-104.57 1122.13,-97.58 1111.55,-98.07 1114.17,-104.57"/>
</g>
<!-- Node22&#45;&gt;Node21 -->
<g id="edge32" class="edge">
<title>Node22&#45;&gt;Node21</title>
<path fill="none" stroke="midnightblue" d="M996,-67.4C996,-59.64 996,-49.81 996,-40.86"/>
<polygon fill="midnightblue" stroke="midnightblue" points="999.5,-40.58 996,-30.58 992.5,-40.58 999.5,-40.58"/>
</g>
<!-- Node23&#45;&gt;Node21 -->
<g id="edge34" class="edge">
<title>Node23&#45;&gt;Node21</title>
<path fill="none" stroke="midnightblue" d="M1122.07,-67.4C1098.12,-57.73 1066.15,-44.82 1040.4,-34.43"/>
<polygon fill="midnightblue" stroke="midnightblue" points="1041.45,-31.07 1030.87,-30.58 1038.83,-37.57 1041.45,-31.07"/>
</g>
<!-- Node24&#45;&gt;Node7 -->
<g id="edge37" class="edge">
<title>Node24&#45;&gt;Node7</title>
<path fill="none" stroke="midnightblue" d="M1179.15,-134.4C1207.83,-122.89 1247.94,-106.8 1275.33,-95.81"/>
<polygon fill="midnightblue" stroke="midnightblue" points="1276.82,-98.98 1284.8,-92.01 1274.21,-92.48 1276.82,-98.98"/>
</g>
<!-- Node24&#45;&gt;Node12 -->
<g id="edge41" class="edge">
<title>Node24&#45;&gt;Node12</title>
<path fill="none" stroke="midnightblue" d="M1085.66,-137.68C1078.05,-136.38 1070.34,-135.12 1063,-134 938.7,-115.12 903.95,-119.24 775.76,-98.03"/>
<polygon fill="midnightblue" stroke="midnightblue" points="775.99,-94.52 765.54,-96.32 774.83,-101.42 775.99,-94.52"/>
</g>
<!-- Node24&#45;&gt;Node21 -->
<g id="edge38" class="edge">
<title>Node24&#45;&gt;Node21</title>
<path fill="none" stroke="midnightblue" d="M1189.67,-134.46C1207.03,-126.65 1225.01,-114.97 1235,-98 1241.99,-86.13 1243.68,-77.7 1235,-67 1213.84,-40.9 1127.34,-27.77 1064.47,-21.54"/>
<polygon fill="midnightblue" stroke="midnightblue" points="1064.49,-18.03 1054.2,-20.57 1063.83,-25 1064.49,-18.03"/>
</g>
<!-- Node24&#45;&gt;Node22 -->
<g id="edge39" class="edge">
<title>Node24&#45;&gt;Node22</title>
<path fill="none" stroke="midnightblue" d="M1111.89,-134.4C1090.07,-124.81 1061.01,-112.05 1037.44,-101.7"/>
<polygon fill="midnightblue" stroke="midnightblue" points="1038.61,-98.39 1028.05,-97.58 1035.8,-104.8 1038.61,-98.39"/>
</g>
<!-- Node24&#45;&gt;Node23 -->
<g id="edge40" class="edge">
<title>Node24&#45;&gt;Node23</title>
<path fill="none" stroke="midnightblue" d="M1146.82,-134.4C1148.39,-126.56 1150.38,-116.6 1152.19,-107.57"/>
<polygon fill="midnightblue" stroke="midnightblue" points="1155.66,-108.07 1154.18,-97.58 1148.79,-106.7 1155.66,-108.07"/>
</g>
<!-- Node25&#45;&gt;Node4 -->
<g id="edge43" class="edge">
<title>Node25&#45;&gt;Node4</title>
<path fill="none" stroke="midnightblue" d="M803.97,-140.44C788.69,-138.33 772.23,-136.07 757,-134 637.04,-117.72 606.04,-120.03 487,-98 479.79,-96.67 472.15,-95.03 464.8,-93.34"/>
<polygon fill="midnightblue" stroke="midnightblue" points="465.58,-89.93 455.04,-91.03 463.97,-96.74 465.58,-89.93"/>
</g>
<!-- Node25&#45;&gt;Node7 -->
<g id="edge45" class="edge">
<title>Node25&#45;&gt;Node7</title>
<path fill="none" stroke="midnightblue" d="M920.04,-135.58C923.06,-135.02 926.07,-134.49 929,-134 1064.08,-111.49 1099.8,-119.72 1235,-98 1247.3,-96.02 1260.7,-93.41 1272.52,-90.94"/>
<polygon fill="midnightblue" stroke="midnightblue" points="1273.37,-94.34 1282.42,-88.83 1271.92,-87.49 1273.37,-94.34"/>
</g>
<!-- Node25&#45;&gt;Node9 -->
<g id="edge44" class="edge">
<title>Node25&#45;&gt;Node9</title>
<path fill="none" stroke="midnightblue" d="M849.85,-134.4C841.12,-124.26 829.32,-110.57 820.16,-99.94"/>
<polygon fill="midnightblue" stroke="midnightblue" points="822.67,-97.49 813.49,-92.19 817.37,-102.06 822.67,-97.49"/>
</g>
<!-- Node25&#45;&gt;Node12 -->
<g id="edge47" class="edge">
<title>Node25&#45;&gt;Node12</title>
<path fill="none" stroke="midnightblue" d="M828.37,-134.4C805.42,-124.77 774.81,-111.94 750.08,-101.56"/>
<polygon fill="midnightblue" stroke="midnightblue" points="751.14,-98.22 740.57,-97.58 748.44,-104.67 751.14,-98.22"/>
</g>
<!-- Node25&#45;&gt;Node21 -->
<g id="edge46" class="edge">
<title>Node25&#45;&gt;Node21</title>
<path fill="none" stroke="midnightblue" d="M866.22,-134.25C872.05,-116.63 884.04,-86.56 903,-67 915.93,-53.65 933.16,-42.97 949.28,-34.93"/>
<polygon fill="midnightblue" stroke="midnightblue" points="951.07,-37.96 958.6,-30.5 948.06,-31.63 951.07,-37.96"/>
</g>
<!-- Node26&#45;&gt;Node4 -->
<g id="edge49" class="edge">
<title>Node26&#45;&gt;Node4</title>
<path fill="none" stroke="midnightblue" d="M730.51,-201.45C699.92,-191.77 658.79,-178.29 623,-165 562.48,-142.53 492.98,-112.85 454.83,-96.21"/>
<polygon fill="midnightblue" stroke="midnightblue" points="455.95,-92.88 445.38,-92.08 453.14,-99.29 455.95,-92.88"/>
</g>
<!-- Node26&#45;&gt;Node7 -->
<g id="edge50" class="edge">
<title>Node26&#45;&gt;Node7</title>
<path fill="none" stroke="midnightblue" d="M834.18,-209.56C961.72,-196.51 1254.78,-166.41 1257,-165 1279.81,-150.48 1293.49,-121.18 1300.38,-101.96"/>
<polygon fill="midnightblue" stroke="midnightblue" points="1303.78,-102.82 1303.6,-92.23 1297.14,-100.62 1303.78,-102.82"/>
</g>
<!-- Node26&#45;&gt;Node8 -->
<g id="edge51" class="edge">
<title>Node26&#45;&gt;Node8</title>
<path fill="none" stroke="midnightblue" d="M757.34,-201.4C745.51,-192.45 730.01,-180.74 716.86,-170.8"/>
<polygon fill="midnightblue" stroke="midnightblue" points="718.71,-167.81 708.62,-164.58 714.49,-173.4 718.71,-167.81"/>
</g>
<!-- Node26&#45;&gt;Node12 -->
<g id="edge52" class="edge">
<title>Node26&#45;&gt;Node12</title>
<path fill="none" stroke="midnightblue" d="M775.05,-201.41C773.4,-184.47 768.94,-155.62 757,-134 750.91,-122.97 741.72,-112.71 732.88,-104.36"/>
<polygon fill="midnightblue" stroke="midnightblue" points="735.06,-101.61 725.29,-97.53 730.39,-106.82 735.06,-101.61"/>
</g>
</g>
</svg>
