<?xml version="1.0" encoding="UTF-8" standalone="no"?>
<!DOCTYPE svg PUBLIC "-//W3C//DTD SVG 1.1//EN"
 "http://www.w3.org/Graphics/SVG/1.1/DTD/svg11.dtd">
<!-- Generated by graphviz version 2.43.0 (0)
 -->
<!-- Title: /home/kali/projects/vsomeip/interface/compat/vsomeip/internal/serializable.hpp Pages: 1 -->
<svg width="722pt" height="473pt"
 viewBox="0.00 0.00 721.50 473.00" xmlns="http://www.w3.org/2000/svg" xmlns:xlink="http://www.w3.org/1999/xlink">
<g id="graph0" class="graph" transform="scale(1 1) rotate(0) translate(4 469)">
<title>/home/kali/projects/vsomeip/interface/compat/vsomeip/internal/serializable.hpp</title>
<polygon fill="white" stroke="transparent" points="-4,4 -4,-469 717.5,-469 717.5,4 -4,4"/>
<!-- Node1 -->
<g id="node1" class="node">
<title>Node1</title>
<g id="a_node1"><a xlink:title=" ">
<polygon fill="#bfbfbf" stroke="black" points="184,-423.5 184,-464.5 366,-464.5 366,-423.5 184,-423.5"/>
<text text-anchor="start" x="192" y="-452.5" font-family="Helvetica,sans-Serif" font-size="10.00">/home/kali/projects</text>
<text text-anchor="start" x="192" y="-441.5" font-family="Helvetica,sans-Serif" font-size="10.00">/vsomeip/interface/compat</text>
<text text-anchor="middle" x="275" y="-430.5" font-family="Helvetica,sans-Serif" font-size="10.00">/vsomeip/internal/serializable.hpp</text>
</a>
</g>
</g>
<!-- Node2 -->
<g id="node2" class="node">
<title>Node2</title>
<g id="a_node2"><a xlink:href="compat_2vsomeip_2message__base_8hpp.html" target="_top" xlink:title=" ">
<polygon fill="white" stroke="black" points="143,-345.5 143,-386.5 301,-386.5 301,-345.5 143,-345.5"/>
<text text-anchor="start" x="151" y="-374.5" font-family="Helvetica,sans-Serif" font-size="10.00">/home/kali/projects</text>
<text text-anchor="start" x="151" y="-363.5" font-family="Helvetica,sans-Serif" font-size="10.00">/vsomeip/interface/compat</text>
<text text-anchor="middle" x="222" y="-352.5" font-family="Helvetica,sans-Serif" font-size="10.00">/vsomeip/message_base.hpp</text>
</a>
</g>
</g>
<!-- Node1&#45;&gt;Node2 -->
<g id="edge1" class="edge">
<title>Node1&#45;&gt;Node2</title>
<path fill="none" stroke="midnightblue" d="M255.51,-415.05C248.89,-405.57 241.66,-395.18 235.6,-386.51"/>
<polygon fill="midnightblue" stroke="midnightblue" points="252.76,-417.23 261.35,-423.43 258.5,-413.22 252.76,-417.23"/>
</g>
<!-- Node11 -->
<g id="node11" class="node">
<title>Node11</title>
<g id="a_node11"><a xlink:href="compat_2vsomeip_2payload_8hpp.html" target="_top" xlink:title=" ">
<polygon fill="white" stroke="black" points="285,-267.5 285,-308.5 433,-308.5 433,-267.5 285,-267.5"/>
<text text-anchor="start" x="293" y="-296.5" font-family="Helvetica,sans-Serif" font-size="10.00">/home/kali/projects</text>
<text text-anchor="start" x="293" y="-285.5" font-family="Helvetica,sans-Serif" font-size="10.00">/vsomeip/interface/compat</text>
<text text-anchor="middle" x="359" y="-274.5" font-family="Helvetica,sans-Serif" font-size="10.00">/vsomeip/payload.hpp</text>
</a>
</g>
</g>
<!-- Node1&#45;&gt;Node11 -->
<g id="edge11" class="edge">
<title>Node1&#45;&gt;Node11</title>
<path fill="none" stroke="midnightblue" d="M293.46,-414.62C298.96,-405.87 304.88,-396.13 310,-387 324.89,-360.45 340.31,-328.81 349.78,-308.81"/>
<polygon fill="midnightblue" stroke="midnightblue" points="290.35,-413 287.94,-423.32 296.26,-416.75 290.35,-413"/>
</g>
<!-- Node3 -->
<g id="node3" class="node">
<title>Node3</title>
<g id="a_node3"><a xlink:href="compat_2vsomeip_2message_8hpp.html" target="_top" xlink:title=" ">
<polygon fill="white" stroke="black" points="119,-267.5 119,-308.5 267,-308.5 267,-267.5 119,-267.5"/>
<text text-anchor="start" x="127" y="-296.5" font-family="Helvetica,sans-Serif" font-size="10.00">/home/kali/projects</text>
<text text-anchor="start" x="127" y="-285.5" font-family="Helvetica,sans-Serif" font-size="10.00">/vsomeip/interface/compat</text>
<text text-anchor="middle" x="193" y="-274.5" font-family="Helvetica,sans-Serif" font-size="10.00">/vsomeip/message.hpp</text>
</a>
</g>
</g>
<!-- Node2&#45;&gt;Node3 -->
<g id="edge2" class="edge">
<title>Node2&#45;&gt;Node3</title>
<path fill="none" stroke="midnightblue" d="M210.89,-335.88C207.39,-326.72 203.62,-316.83 200.44,-308.51"/>
<polygon fill="midnightblue" stroke="midnightblue" points="207.7,-337.33 214.53,-345.43 214.24,-334.84 207.7,-337.33"/>
</g>
<!-- Node4 -->
<g id="node4" class="node">
<title>Node4</title>
<g id="a_node4"><a xlink:href="compat_2message_2include_2message__base__impl_8hpp.html" target="_top" xlink:title=" ">
<polygon fill="white" stroke="black" points="121.5,-178.5 121.5,-230.5 264.5,-230.5 264.5,-178.5 121.5,-178.5"/>
<text text-anchor="start" x="129.5" y="-218.5" font-family="Helvetica,sans-Serif" font-size="10.00">/home/kali/projects</text>
<text text-anchor="start" x="129.5" y="-207.5" font-family="Helvetica,sans-Serif" font-size="10.00">/vsomeip/implementation</text>
<text text-anchor="start" x="129.5" y="-196.5" font-family="Helvetica,sans-Serif" font-size="10.00">/compat/message/include</text>
<text text-anchor="middle" x="193" y="-185.5" font-family="Helvetica,sans-Serif" font-size="10.00">/message_base_impl.hpp</text>
</a>
</g>
</g>
<!-- Node3&#45;&gt;Node4 -->
<g id="edge3" class="edge">
<title>Node3&#45;&gt;Node4</title>
<path fill="none" stroke="midnightblue" d="M193,-257.12C193,-248.41 193,-238.99 193,-230.61"/>
<polygon fill="midnightblue" stroke="midnightblue" points="189.5,-257.27 193,-267.27 196.5,-257.27 189.5,-257.27"/>
</g>
<!-- Node5 -->
<g id="node5" class="node">
<title>Node5</title>
<g id="a_node5"><a xlink:href="compat_2message_2include_2message__impl_8hpp.html" target="_top" xlink:title=" ">
<polygon fill="white" stroke="black" points="30.5,-89.5 30.5,-141.5 173.5,-141.5 173.5,-89.5 30.5,-89.5"/>
<text text-anchor="start" x="38.5" y="-129.5" font-family="Helvetica,sans-Serif" font-size="10.00">/home/kali/projects</text>
<text text-anchor="start" x="38.5" y="-118.5" font-family="Helvetica,sans-Serif" font-size="10.00">/vsomeip/implementation</text>
<text text-anchor="start" x="38.5" y="-107.5" font-family="Helvetica,sans-Serif" font-size="10.00">/compat/message/include</text>
<text text-anchor="middle" x="102" y="-96.5" font-family="Helvetica,sans-Serif" font-size="10.00">/message_impl.hpp</text>
</a>
</g>
</g>
<!-- Node3&#45;&gt;Node5 -->
<g id="edge9" class="edge">
<title>Node3&#45;&gt;Node5</title>
<path fill="none" stroke="midnightblue" d="M142.08,-261.85C130.33,-253.64 119.19,-243.37 112,-231 96.06,-203.57 96.06,-166.04 98.35,-141.54"/>
<polygon fill="midnightblue" stroke="midnightblue" points="140.41,-264.94 150.69,-267.47 144.23,-259.08 140.41,-264.94"/>
</g>
<!-- Node10 -->
<g id="node10" class="node">
<title>Node10</title>
<g id="a_node10"><a xlink:href="compat_2vsomeip_2vsomeip_8hpp.html" target="_top" xlink:title=" ">
<polygon fill="white" stroke="black" points="283,-184 283,-225 431,-225 431,-184 283,-184"/>
<text text-anchor="start" x="291" y="-213" font-family="Helvetica,sans-Serif" font-size="10.00">/home/kali/projects</text>
<text text-anchor="start" x="291" y="-202" font-family="Helvetica,sans-Serif" font-size="10.00">/vsomeip/interface/compat</text>
<text text-anchor="middle" x="357" y="-191" font-family="Helvetica,sans-Serif" font-size="10.00">/vsomeip/vsomeip.hpp</text>
</a>
</g>
</g>
<!-- Node3&#45;&gt;Node10 -->
<g id="edge10" class="edge">
<title>Node3&#45;&gt;Node10</title>
<path fill="none" stroke="midnightblue" d="M241.35,-262.97C265.7,-250.87 294.82,-236.4 317.75,-225"/>
<polygon fill="midnightblue" stroke="midnightblue" points="239.68,-259.89 232.28,-267.48 242.79,-266.16 239.68,-259.89"/>
</g>
<!-- Node4&#45;&gt;Node5 -->
<g id="edge4" class="edge">
<title>Node4&#45;&gt;Node5</title>
<path fill="none" stroke="midnightblue" d="M159.39,-171.36C149.11,-161.54 137.97,-150.89 128.26,-141.61"/>
<polygon fill="midnightblue" stroke="midnightblue" points="157.03,-173.96 166.68,-178.34 161.87,-168.9 157.03,-173.96"/>
</g>
<!-- Node9 -->
<g id="node9" class="node">
<title>Node9</title>
<g id="a_node9"><a xlink:href="compat_2message_2src_2message__base__impl_8cpp.html" target="_top" xlink:title=" ">
<polygon fill="white" stroke="black" points="192,-89.5 192,-141.5 360,-141.5 360,-89.5 192,-89.5"/>
<text text-anchor="start" x="200" y="-129.5" font-family="Helvetica,sans-Serif" font-size="10.00">/home/kali/projects</text>
<text text-anchor="start" x="200" y="-118.5" font-family="Helvetica,sans-Serif" font-size="10.00">/vsomeip/implementation</text>
<text text-anchor="start" x="200" y="-107.5" font-family="Helvetica,sans-Serif" font-size="10.00">/compat/message/src/message</text>
<text text-anchor="middle" x="276" y="-96.5" font-family="Helvetica,sans-Serif" font-size="10.00">_base_impl.cpp</text>
</a>
</g>
</g>
<!-- Node4&#45;&gt;Node9 -->
<g id="edge8" class="edge">
<title>Node4&#45;&gt;Node9</title>
<path fill="none" stroke="midnightblue" d="M223.93,-171.08C233.23,-161.34 243.28,-150.8 252.05,-141.61"/>
<polygon fill="midnightblue" stroke="midnightblue" points="221.38,-168.68 217.01,-178.34 226.44,-173.52 221.38,-168.68"/>
</g>
<!-- Node6 -->
<g id="node6" class="node">
<title>Node6</title>
<g id="a_node6"><a xlink:href="compat_2message_2src_2message__impl_8cpp.html" target="_top" xlink:title=" ">
<polygon fill="white" stroke="black" points="0,-0.5 0,-52.5 168,-52.5 168,-0.5 0,-0.5"/>
<text text-anchor="start" x="8" y="-40.5" font-family="Helvetica,sans-Serif" font-size="10.00">/home/kali/projects</text>
<text text-anchor="start" x="8" y="-29.5" font-family="Helvetica,sans-Serif" font-size="10.00">/vsomeip/implementation</text>
<text text-anchor="start" x="8" y="-18.5" font-family="Helvetica,sans-Serif" font-size="10.00">/compat/message/src/message</text>
<text text-anchor="middle" x="84" y="-7.5" font-family="Helvetica,sans-Serif" font-size="10.00">_impl.cpp</text>
</a>
</g>
</g>
<!-- Node5&#45;&gt;Node6 -->
<g id="edge5" class="edge">
<title>Node5&#45;&gt;Node6</title>
<path fill="none" stroke="midnightblue" d="M94.75,-79.48C92.89,-70.49 90.93,-60.99 89.19,-52.61"/>
<polygon fill="midnightblue" stroke="midnightblue" points="91.34,-80.25 96.79,-89.34 98.19,-78.83 91.34,-80.25"/>
</g>
<!-- Node7 -->
<g id="node7" class="node">
<title>Node7</title>
<g id="a_node7"><a xlink:href="compat_2runtime_2src_2application__impl_8cpp.html" target="_top" xlink:title=" ">
<polygon fill="white" stroke="black" points="186,-0.5 186,-52.5 358,-52.5 358,-0.5 186,-0.5"/>
<text text-anchor="start" x="194" y="-40.5" font-family="Helvetica,sans-Serif" font-size="10.00">/home/kali/projects</text>
<text text-anchor="start" x="194" y="-29.5" font-family="Helvetica,sans-Serif" font-size="10.00">/vsomeip/implementation</text>
<text text-anchor="start" x="194" y="-18.5" font-family="Helvetica,sans-Serif" font-size="10.00">/compat/runtime/src/application</text>
<text text-anchor="middle" x="272" y="-7.5" font-family="Helvetica,sans-Serif" font-size="10.00">_impl.cpp</text>
</a>
</g>
</g>
<!-- Node5&#45;&gt;Node7 -->
<g id="edge6" class="edge">
<title>Node5&#45;&gt;Node7</title>
<path fill="none" stroke="midnightblue" d="M160.08,-84.78C180.53,-74.31 203.3,-62.66 222.94,-52.61"/>
<polygon fill="midnightblue" stroke="midnightblue" points="158.48,-81.66 151.17,-89.34 161.67,-87.9 158.48,-81.66"/>
</g>
<!-- Node8 -->
<g id="node8" class="node">
<title>Node8</title>
<g id="a_node8"><a xlink:href="compat_2runtime_2src_2runtime__impl_8cpp.html" target="_top" xlink:title=" ">
<polygon fill="white" stroke="black" points="376,-0.5 376,-52.5 532,-52.5 532,-0.5 376,-0.5"/>
<text text-anchor="start" x="384" y="-40.5" font-family="Helvetica,sans-Serif" font-size="10.00">/home/kali/projects</text>
<text text-anchor="start" x="384" y="-29.5" font-family="Helvetica,sans-Serif" font-size="10.00">/vsomeip/implementation</text>
<text text-anchor="start" x="384" y="-18.5" font-family="Helvetica,sans-Serif" font-size="10.00">/compat/runtime/src/runtime</text>
<text text-anchor="middle" x="454" y="-7.5" font-family="Helvetica,sans-Serif" font-size="10.00">_impl.cpp</text>
</a>
</g>
</g>
<!-- Node5&#45;&gt;Node8 -->
<g id="edge7" class="edge">
<title>Node5&#45;&gt;Node8</title>
<path fill="none" stroke="midnightblue" d="M183.6,-88.97C265.49,-68.74 289.05,-72.01 367,-53 369.91,-52.29 372.86,-51.55 375.84,-50.78"/>
<polygon fill="midnightblue" stroke="midnightblue" points="182.71,-85.58 173.87,-91.42 184.42,-92.37 182.71,-85.58"/>
</g>
<!-- Node11&#45;&gt;Node10 -->
<g id="edge17" class="edge">
<title>Node11&#45;&gt;Node10</title>
<path fill="none" stroke="midnightblue" d="M358.27,-257.06C358,-246.38 357.71,-234.63 357.48,-225.05"/>
<polygon fill="midnightblue" stroke="midnightblue" points="354.77,-257.36 358.52,-267.27 361.77,-257.19 354.77,-257.36"/>
</g>
<!-- Node12 -->
<g id="node12" class="node">
<title>Node12</title>
<g id="a_node12"><a xlink:href="compat_2message_2include_2payload__impl_8hpp.html" target="_top" xlink:title=" ">
<polygon fill="white" stroke="black" points="382.5,-89.5 382.5,-141.5 525.5,-141.5 525.5,-89.5 382.5,-89.5"/>
<text text-anchor="start" x="390.5" y="-129.5" font-family="Helvetica,sans-Serif" font-size="10.00">/home/kali/projects</text>
<text text-anchor="start" x="390.5" y="-118.5" font-family="Helvetica,sans-Serif" font-size="10.00">/vsomeip/implementation</text>
<text text-anchor="start" x="390.5" y="-107.5" font-family="Helvetica,sans-Serif" font-size="10.00">/compat/message/include</text>
<text text-anchor="middle" x="454" y="-96.5" font-family="Helvetica,sans-Serif" font-size="10.00">/payload_impl.hpp</text>
</a>
</g>
</g>
<!-- Node11&#45;&gt;Node12 -->
<g id="edge12" class="edge">
<title>Node11&#45;&gt;Node12</title>
<path fill="none" stroke="midnightblue" d="M409.63,-261.68C421.38,-253.47 432.6,-243.24 440,-231 456.47,-203.75 457.89,-166.18 456.59,-141.62"/>
<polygon fill="midnightblue" stroke="midnightblue" points="407.48,-258.91 401.03,-267.31 411.31,-264.76 407.48,-258.91"/>
</g>
<!-- Node12&#45;&gt;Node6 -->
<g id="edge13" class="edge">
<title>Node12&#45;&gt;Node6</title>
<path fill="none" stroke="midnightblue" d="M372.28,-89.81C371.18,-89.53 370.09,-89.26 369,-89 284.64,-68.5 261.6,-72.5 177,-53 174.06,-52.32 171.08,-51.62 168.07,-50.88"/>
<polygon fill="midnightblue" stroke="midnightblue" points="371.71,-93.28 382.27,-92.4 373.46,-86.5 371.71,-93.28"/>
</g>
<!-- Node12&#45;&gt;Node7 -->
<g id="edge15" class="edge">
<title>Node12&#45;&gt;Node7</title>
<path fill="none" stroke="midnightblue" d="M392.11,-84.92C370.14,-74.41 345.64,-62.7 324.52,-52.61"/>
<polygon fill="midnightblue" stroke="midnightblue" points="390.83,-88.18 401.36,-89.34 393.85,-81.87 390.83,-88.18"/>
</g>
<!-- Node12&#45;&gt;Node8 -->
<g id="edge16" class="edge">
<title>Node12&#45;&gt;Node8</title>
<path fill="none" stroke="midnightblue" d="M454,-79.19C454,-70.28 454,-60.9 454,-52.61"/>
<polygon fill="midnightblue" stroke="midnightblue" points="450.5,-79.34 454,-89.34 457.5,-79.34 450.5,-79.34"/>
</g>
<!-- Node13 -->
<g id="node13" class="node">
<title>Node13</title>
<g id="a_node13"><a xlink:href="compat_2message_2src_2payload__impl_8cpp.html" target="_top" xlink:title=" ">
<polygon fill="white" stroke="black" points="550.5,-0.5 550.5,-52.5 713.5,-52.5 713.5,-0.5 550.5,-0.5"/>
<text text-anchor="start" x="558.5" y="-40.5" font-family="Helvetica,sans-Serif" font-size="10.00">/home/kali/projects</text>
<text text-anchor="start" x="558.5" y="-29.5" font-family="Helvetica,sans-Serif" font-size="10.00">/vsomeip/implementation</text>
<text text-anchor="start" x="558.5" y="-18.5" font-family="Helvetica,sans-Serif" font-size="10.00">/compat/message/src/payload</text>
<text text-anchor="middle" x="632" y="-7.5" font-family="Helvetica,sans-Serif" font-size="10.00">_impl.cpp</text>
</a>
</g>
</g>
<!-- Node12&#45;&gt;Node13 -->
<g id="edge14" class="edge">
<title>Node12&#45;&gt;Node13</title>
<path fill="none" stroke="midnightblue" d="M514.53,-84.92C536.02,-74.41 559.98,-62.7 580.63,-52.61"/>
<polygon fill="midnightblue" stroke="midnightblue" points="512.93,-81.8 505.48,-89.34 516.01,-88.09 512.93,-81.8"/>
</g>
</g>
</svg>
