<?xml version="1.0" encoding="UTF-8" standalone="no"?>
<!DOCTYPE svg PUBLIC "-//W3C//DTD SVG 1.1//EN"
 "http://www.w3.org/Graphics/SVG/1.1/DTD/svg11.dtd">
<!-- Generated by graphviz version 2.43.0 (0)
 -->
<!-- Title: /home/kali/projects/vsomeip/interface/compat/vsomeip/application.hpp Pages: 1 -->
<svg width="723pt" height="240pt"
 viewBox="0.00 0.00 723.24 240.00" xmlns="http://www.w3.org/2000/svg" xmlns:xlink="http://www.w3.org/1999/xlink">
<g id="graph0" class="graph" transform="scale(1 1) rotate(0) translate(4 236)">
<title>/home/kali/projects/vsomeip/interface/compat/vsomeip/application.hpp</title>
<polygon fill="white" stroke="transparent" points="-4,4 -4,-236 719.24,-236 719.24,4 -4,4"/>
<!-- Node1 -->
<g id="node1" class="node">
<title>Node1</title>
<g id="a_node1"><a xlink:title=" ">
<polygon fill="#bfbfbf" stroke="black" points="212,-190.5 212,-231.5 360,-231.5 360,-190.5 212,-190.5"/>
<text text-anchor="start" x="220" y="-219.5" font-family="Helvetica,sans-Serif" font-size="10.00">/home/kali/projects</text>
<text text-anchor="start" x="220" y="-208.5" font-family="Helvetica,sans-Serif" font-size="10.00">/vsomeip/interface/compat</text>
<text text-anchor="middle" x="286" y="-197.5" font-family="Helvetica,sans-Serif" font-size="10.00">/vsomeip/application.hpp</text>
</a>
</g>
</g>
<!-- Node2 -->
<g id="node2" class="node">
<title>Node2</title>
<g id="a_node2"><a xlink:title=" ">
<polygon fill="white" stroke="#bfbfbf" points="0,-129 0,-148 50,-148 50,-129 0,-129"/>
<text text-anchor="middle" x="25" y="-136" font-family="Helvetica,sans-Serif" font-size="10.00">chrono</text>
</a>
</g>
</g>
<!-- Node1&#45;&gt;Node2 -->
<g id="edge1" class="edge">
<title>Node1&#45;&gt;Node2</title>
<path fill="none" stroke="midnightblue" d="M211.94,-193.45C168.52,-183.22 112.77,-169.17 64,-154 61.44,-153.2 58.8,-152.33 56.15,-151.42"/>
<polygon fill="midnightblue" stroke="midnightblue" points="57.31,-148.12 46.72,-148.05 54.96,-154.71 57.31,-148.12"/>
</g>
<!-- Node3 -->
<g id="node3" class="node">
<title>Node3</title>
<g id="a_node3"><a xlink:title=" ">
<polygon fill="white" stroke="#bfbfbf" points="613,-62 613,-81 671,-81 671,-62 613,-62"/>
<text text-anchor="middle" x="642" y="-69" font-family="Helvetica,sans-Serif" font-size="10.00">memory</text>
</a>
</g>
</g>
<!-- Node1&#45;&gt;Node3 -->
<g id="edge2" class="edge">
<title>Node1&#45;&gt;Node3</title>
<path fill="none" stroke="midnightblue" d="M360.35,-205.41C475.57,-197.54 686.42,-179.77 709,-154 729.3,-130.83 694.02,-102.93 667.42,-86.52"/>
<polygon fill="midnightblue" stroke="midnightblue" points="668.86,-83.3 658.47,-81.21 665.29,-89.33 668.86,-83.3"/>
</g>
<!-- Node4 -->
<g id="node4" class="node">
<title>Node4</title>
<g id="a_node4"><a xlink:title=" ">
<polygon fill="white" stroke="#bfbfbf" points="106,-129 106,-148 138,-148 138,-129 106,-129"/>
<text text-anchor="middle" x="122" y="-136" font-family="Helvetica,sans-Serif" font-size="10.00">set</text>
</a>
</g>
</g>
<!-- Node1&#45;&gt;Node4 -->
<g id="edge3" class="edge">
<title>Node1&#45;&gt;Node4</title>
<path fill="none" stroke="midnightblue" d="M232.42,-190.47C206.27,-180.42 174.59,-167.47 147,-154 146.32,-153.67 145.64,-153.33 144.95,-152.98"/>
<polygon fill="midnightblue" stroke="midnightblue" points="146.54,-149.86 136.09,-148.14 143.19,-156 146.54,-149.86"/>
</g>
<!-- Node5 -->
<g id="node5" class="node">
<title>Node5</title>
<g id="a_node5"><a xlink:title=" ">
<polygon fill="white" stroke="#bfbfbf" points="156,-129 156,-148 194,-148 194,-129 156,-129"/>
<text text-anchor="middle" x="175" y="-136" font-family="Helvetica,sans-Serif" font-size="10.00">map</text>
</a>
</g>
</g>
<!-- Node1&#45;&gt;Node5 -->
<g id="edge4" class="edge">
<title>Node1&#45;&gt;Node5</title>
<path fill="none" stroke="midnightblue" d="M255.08,-190.36C236.68,-178.67 213.76,-164.12 197.16,-153.57"/>
<polygon fill="midnightblue" stroke="midnightblue" points="198.97,-150.58 188.66,-148.17 195.22,-156.49 198.97,-150.58"/>
</g>
<!-- Node6 -->
<g id="node6" class="node">
<title>Node6</title>
<g id="a_node6"><a xlink:title=" ">
<polygon fill="white" stroke="#bfbfbf" points="212.5,-129 212.5,-148 259.5,-148 259.5,-129 212.5,-129"/>
<text text-anchor="middle" x="236" y="-136" font-family="Helvetica,sans-Serif" font-size="10.00">vector</text>
</a>
</g>
</g>
<!-- Node1&#45;&gt;Node6 -->
<g id="edge5" class="edge">
<title>Node1&#45;&gt;Node6</title>
<path fill="none" stroke="midnightblue" d="M272.07,-190.36C264.55,-179.76 255.35,-166.79 248.13,-156.6"/>
<polygon fill="midnightblue" stroke="midnightblue" points="250.79,-154.31 242.15,-148.17 245.08,-158.35 250.79,-154.31"/>
</g>
<!-- Node7 -->
<g id="node7" class="node">
<title>Node7</title>
<g id="a_node7"><a xlink:href="interface_2compat_2vsomeip_2constants_8hpp.html" target="_top" xlink:title=" ">
<polygon fill="white" stroke="black" points="278,-123.5 278,-153.5 394,-153.5 394,-123.5 278,-123.5"/>
<text text-anchor="start" x="286" y="-141.5" font-family="Helvetica,sans-Serif" font-size="10.00">../../compat/vsomeip</text>
<text text-anchor="middle" x="336" y="-130.5" font-family="Helvetica,sans-Serif" font-size="10.00">/constants.hpp</text>
</a>
</g>
</g>
<!-- Node1&#45;&gt;Node7 -->
<g id="edge6" class="edge">
<title>Node1&#45;&gt;Node7</title>
<path fill="none" stroke="midnightblue" d="M299.93,-190.36C306.15,-181.59 313.51,-171.21 319.96,-162.12"/>
<polygon fill="midnightblue" stroke="midnightblue" points="322.86,-164.07 325.79,-153.89 317.15,-160.02 322.86,-164.07"/>
</g>
<!-- Node9 -->
<g id="node9" class="node">
<title>Node9</title>
<g id="a_node9"><a xlink:href="interface_2compat_2vsomeip_2enumeration__types_8hpp.html" target="_top" xlink:title=" ">
<polygon fill="white" stroke="black" points="153.5,-56.5 153.5,-86.5 288.5,-86.5 288.5,-56.5 153.5,-56.5"/>
<text text-anchor="start" x="161.5" y="-74.5" font-family="Helvetica,sans-Serif" font-size="10.00">../../compat/vsomeip</text>
<text text-anchor="middle" x="221" y="-63.5" font-family="Helvetica,sans-Serif" font-size="10.00">/enumeration_types.hpp</text>
</a>
</g>
</g>
<!-- Node1&#45;&gt;Node9 -->
<g id="edge14" class="edge">
<title>Node1&#45;&gt;Node9</title>
<path fill="none" stroke="midnightblue" d="M211.81,-197.39C165.14,-187.77 111.15,-172.96 97,-154 75.38,-125.05 114.67,-103.36 154.62,-89.66"/>
<polygon fill="midnightblue" stroke="midnightblue" points="155.8,-92.96 164.21,-86.52 153.62,-86.31 155.8,-92.96"/>
</g>
<!-- Node11 -->
<g id="node11" class="node">
<title>Node11</title>
<g id="a_node11"><a xlink:href="interface_2compat_2vsomeip_2primitive__types_8hpp.html" target="_top" xlink:title=" ">
<polygon fill="white" stroke="black" points="369.5,-56.5 369.5,-86.5 486.5,-86.5 486.5,-56.5 369.5,-56.5"/>
<text text-anchor="start" x="377.5" y="-74.5" font-family="Helvetica,sans-Serif" font-size="10.00">../../compat/vsomeip</text>
<text text-anchor="middle" x="428" y="-63.5" font-family="Helvetica,sans-Serif" font-size="10.00">/primitive_types.hpp</text>
</a>
</g>
</g>
<!-- Node1&#45;&gt;Node11 -->
<g id="edge22" class="edge">
<title>Node1&#45;&gt;Node11</title>
<path fill="none" stroke="midnightblue" d="M350.66,-190.37C369.74,-181.85 389.19,-170.04 403,-154 416.84,-137.93 423.02,-114.33 425.78,-96.65"/>
<polygon fill="midnightblue" stroke="midnightblue" points="429.27,-96.9 427.09,-86.53 422.33,-95.99 429.27,-96.9"/>
</g>
<!-- Node14 -->
<g id="node14" class="node">
<title>Node14</title>
<g id="a_node14"><a xlink:href="interface_2compat_2vsomeip_2function__types_8hpp.html" target="_top" xlink:title=" ">
<polygon fill="white" stroke="black" points="584,-123.5 584,-153.5 700,-153.5 700,-123.5 584,-123.5"/>
<text text-anchor="start" x="592" y="-141.5" font-family="Helvetica,sans-Serif" font-size="10.00">../../compat/vsomeip</text>
<text text-anchor="middle" x="642" y="-130.5" font-family="Helvetica,sans-Serif" font-size="10.00">/function_types.hpp</text>
</a>
</g>
</g>
<!-- Node1&#45;&gt;Node14 -->
<g id="edge15" class="edge">
<title>Node1&#45;&gt;Node14</title>
<path fill="none" stroke="midnightblue" d="M360.03,-196.11C416.07,-185.49 495.22,-170.27 573.83,-154.22"/>
<polygon fill="midnightblue" stroke="midnightblue" points="574.82,-157.59 583.91,-152.15 573.41,-150.73 574.82,-157.59"/>
</g>
<!-- Node16 -->
<g id="node16" class="node">
<title>Node16</title>
<g id="a_node16"><a xlink:href="compat_2vsomeip_2handler_8hpp.html" target="_top" xlink:title=" ">
<polygon fill="white" stroke="black" points="450,-123.5 450,-153.5 566,-153.5 566,-123.5 450,-123.5"/>
<text text-anchor="start" x="458" y="-141.5" font-family="Helvetica,sans-Serif" font-size="10.00">../../compat/vsomeip</text>
<text text-anchor="middle" x="508" y="-130.5" font-family="Helvetica,sans-Serif" font-size="10.00">/handler.hpp</text>
</a>
</g>
</g>
<!-- Node1&#45;&gt;Node16 -->
<g id="edge18" class="edge">
<title>Node1&#45;&gt;Node16</title>
<path fill="none" stroke="midnightblue" d="M347.54,-190.46C380.92,-179.86 421.79,-166.88 453.93,-156.67"/>
<polygon fill="midnightblue" stroke="midnightblue" points="455.14,-159.96 463.61,-153.6 453.02,-153.29 455.14,-159.96"/>
</g>
<!-- Node8 -->
<g id="node8" class="node">
<title>Node8</title>
<g id="a_node8"><a xlink:title=" ">
<polygon fill="white" stroke="#bfbfbf" points="307,-62 307,-81 351,-81 351,-62 307,-62"/>
<text text-anchor="middle" x="329" y="-69" font-family="Helvetica,sans-Serif" font-size="10.00">string</text>
</a>
</g>
</g>
<!-- Node7&#45;&gt;Node8 -->
<g id="edge7" class="edge">
<title>Node7&#45;&gt;Node8</title>
<path fill="none" stroke="midnightblue" d="M334.48,-123.4C333.47,-113.96 332.12,-101.45 331.01,-91.19"/>
<polygon fill="midnightblue" stroke="midnightblue" points="334.49,-90.76 329.94,-81.19 327.53,-91.51 334.49,-90.76"/>
</g>
<!-- Node7&#45;&gt;Node9 -->
<g id="edge8" class="edge">
<title>Node7&#45;&gt;Node9</title>
<path fill="none" stroke="midnightblue" d="M311.05,-123.4C294.62,-114.11 272.91,-101.84 254.92,-91.67"/>
<polygon fill="midnightblue" stroke="midnightblue" points="256.33,-88.45 245.9,-86.58 252.89,-94.54 256.33,-88.45"/>
</g>
<!-- Node7&#45;&gt;Node11 -->
<g id="edge10" class="edge">
<title>Node7&#45;&gt;Node11</title>
<path fill="none" stroke="midnightblue" d="M355.96,-123.4C368.74,-114.37 385.52,-102.51 399.67,-92.52"/>
<polygon fill="midnightblue" stroke="midnightblue" points="401.93,-95.21 408.08,-86.58 397.89,-89.49 401.93,-95.21"/>
</g>
<!-- Node10 -->
<g id="node10" class="node">
<title>Node10</title>
<g id="a_node10"><a xlink:title=" ">
<polygon fill="white" stroke="#bfbfbf" points="260,-0.5 260,-19.5 310,-19.5 310,-0.5 260,-0.5"/>
<text text-anchor="middle" x="285" y="-7.5" font-family="Helvetica,sans-Serif" font-size="10.00">cstdint</text>
</a>
</g>
</g>
<!-- Node9&#45;&gt;Node10 -->
<g id="edge9" class="edge">
<title>Node9&#45;&gt;Node10</title>
<path fill="none" stroke="midnightblue" d="M236.17,-56.4C245.75,-47.49 258.16,-35.95 268.07,-26.74"/>
<polygon fill="midnightblue" stroke="midnightblue" points="270.75,-29.03 275.69,-19.66 265.98,-23.9 270.75,-29.03"/>
</g>
<!-- Node11&#45;&gt;Node10 -->
<g id="edge12" class="edge">
<title>Node11&#45;&gt;Node10</title>
<path fill="none" stroke="midnightblue" d="M394.11,-56.4C370.12,-46.42 338.23,-33.15 315.12,-23.53"/>
<polygon fill="midnightblue" stroke="midnightblue" points="316.39,-20.27 305.81,-19.66 313.7,-26.73 316.39,-20.27"/>
</g>
<!-- Node12 -->
<g id="node12" class="node">
<title>Node12</title>
<g id="a_node12"><a xlink:title=" ">
<polygon fill="white" stroke="#bfbfbf" points="444,-0.5 444,-19.5 486,-19.5 486,-0.5 444,-0.5"/>
<text text-anchor="middle" x="465" y="-7.5" font-family="Helvetica,sans-Serif" font-size="10.00">array</text>
</a>
</g>
</g>
<!-- Node11&#45;&gt;Node12 -->
<g id="edge11" class="edge">
<title>Node11&#45;&gt;Node12</title>
<path fill="none" stroke="midnightblue" d="M436.77,-56.4C441.98,-48.02 448.63,-37.33 454.17,-28.42"/>
<polygon fill="midnightblue" stroke="midnightblue" points="457.31,-30 459.62,-19.66 451.36,-26.3 457.31,-30"/>
</g>
<!-- Node13 -->
<g id="node13" class="node">
<title>Node13</title>
<g id="a_node13"><a xlink:title=" ">
<polygon fill="white" stroke="#bfbfbf" points="354,-0.5 354,-19.5 426,-19.5 426,-0.5 354,-0.5"/>
<text text-anchor="middle" x="390" y="-7.5" font-family="Helvetica,sans-Serif" font-size="10.00">sys/types.h</text>
</a>
</g>
</g>
<!-- Node11&#45;&gt;Node13 -->
<g id="edge13" class="edge">
<title>Node11&#45;&gt;Node13</title>
<path fill="none" stroke="midnightblue" d="M418.99,-56.4C413.59,-47.93 406.67,-37.1 400.95,-28.14"/>
<polygon fill="midnightblue" stroke="midnightblue" points="403.86,-26.2 395.53,-19.66 397.96,-29.97 403.86,-26.2"/>
</g>
<!-- Node14&#45;&gt;Node3 -->
<g id="edge17" class="edge">
<title>Node14&#45;&gt;Node3</title>
<path fill="none" stroke="midnightblue" d="M642,-123.4C642,-114.06 642,-101.71 642,-91.52"/>
<polygon fill="midnightblue" stroke="midnightblue" points="645.5,-91.19 642,-81.19 638.5,-91.19 645.5,-91.19"/>
</g>
<!-- Node15 -->
<g id="node15" class="node">
<title>Node15</title>
<g id="a_node15"><a xlink:title=" ">
<polygon fill="white" stroke="#bfbfbf" points="514.5,-62 514.5,-81 579.5,-81 579.5,-62 514.5,-62"/>
<text text-anchor="middle" x="547" y="-69" font-family="Helvetica,sans-Serif" font-size="10.00">functional</text>
</a>
</g>
</g>
<!-- Node14&#45;&gt;Node15 -->
<g id="edge16" class="edge">
<title>Node14&#45;&gt;Node15</title>
<path fill="none" stroke="midnightblue" d="M621.39,-123.4C605.6,-112.6 583.91,-97.76 568.03,-86.89"/>
<polygon fill="midnightblue" stroke="midnightblue" points="569.66,-83.77 559.43,-81.01 565.71,-89.54 569.66,-83.77"/>
</g>
<!-- Node16&#45;&gt;Node3 -->
<g id="edge20" class="edge">
<title>Node16&#45;&gt;Node3</title>
<path fill="none" stroke="midnightblue" d="M537.08,-123.4C560.38,-112.09 592.81,-96.36 615.43,-85.39"/>
<polygon fill="midnightblue" stroke="midnightblue" points="616.99,-88.52 624.46,-81.01 613.94,-82.22 616.99,-88.52"/>
</g>
<!-- Node16&#45;&gt;Node11 -->
<g id="edge21" class="edge">
<title>Node16&#45;&gt;Node11</title>
<path fill="none" stroke="midnightblue" d="M490.64,-123.4C479.74,-114.54 465.49,-102.96 453.34,-93.09"/>
<polygon fill="midnightblue" stroke="midnightblue" points="455.29,-90.17 445.32,-86.58 450.88,-95.6 455.29,-90.17"/>
</g>
<!-- Node16&#45;&gt;Node15 -->
<g id="edge19" class="edge">
<title>Node16&#45;&gt;Node15</title>
<path fill="none" stroke="midnightblue" d="M516.46,-123.4C522.36,-113.56 530.27,-100.38 536.56,-89.89"/>
<polygon fill="midnightblue" stroke="midnightblue" points="539.64,-91.57 541.78,-81.19 533.64,-87.97 539.64,-91.57"/>
</g>
</g>
</svg>
