<?xml version="1.0" encoding="UTF-8" standalone="no"?>
<!DOCTYPE svg PUBLIC "-//W3C//DTD SVG 1.1//EN"
 "http://www.w3.org/Graphics/SVG/1.1/DTD/svg11.dtd">
<!-- Generated by graphviz version 2.43.0 (0)
 -->
<!-- Title: /home/kali/projects/vsomeip/implementation/compat/runtime/src/runtime.cpp Pages: 1 -->
<svg width="520pt" height="296pt"
 viewBox="0.00 0.00 520.00 296.00" xmlns="http://www.w3.org/2000/svg" xmlns:xlink="http://www.w3.org/1999/xlink">
<g id="graph0" class="graph" transform="scale(1 1) rotate(0) translate(4 292)">
<title>/home/kali/projects/vsomeip/implementation/compat/runtime/src/runtime.cpp</title>
<polygon fill="white" stroke="transparent" points="-4,4 -4,-292 516,-292 516,4 -4,4"/>
<!-- Node1 -->
<g id="node1" class="node">
<title>Node1</title>
<g id="a_node1"><a xlink:title=" ">
<polygon fill="#bfbfbf" stroke="black" points="132,-246.5 132,-287.5 308,-287.5 308,-246.5 132,-246.5"/>
<text text-anchor="start" x="140" y="-275.5" font-family="Helvetica,sans-Serif" font-size="10.00">/home/kali/projects</text>
<text text-anchor="start" x="140" y="-264.5" font-family="Helvetica,sans-Serif" font-size="10.00">/vsomeip/implementation</text>
<text text-anchor="middle" x="220" y="-253.5" font-family="Helvetica,sans-Serif" font-size="10.00">/compat/runtime/src/runtime.cpp</text>
</a>
</g>
</g>
<!-- Node2 -->
<g id="node2" class="node">
<title>Node2</title>
<g id="a_node2"><a xlink:href="interface_2compat_2vsomeip_2runtime_8hpp.html" target="_top" xlink:title=" ">
<polygon fill="white" stroke="black" points="81.5,-123.5 81.5,-142.5 242.5,-142.5 242.5,-123.5 81.5,-123.5"/>
<text text-anchor="middle" x="162" y="-130.5" font-family="Helvetica,sans-Serif" font-size="10.00">compat/vsomeip/runtime.hpp</text>
</a>
</g>
</g>
<!-- Node1&#45;&gt;Node2 -->
<g id="edge1" class="edge">
<title>Node1&#45;&gt;Node2</title>
<path fill="none" stroke="midnightblue" d="M211.32,-246.24C200.09,-220.69 180.7,-176.56 169.88,-151.93"/>
<polygon fill="midnightblue" stroke="midnightblue" points="173.04,-150.43 165.82,-142.69 166.63,-153.25 173.04,-150.43"/>
</g>
<!-- Node11 -->
<g id="node11" class="node">
<title>Node11</title>
<g id="a_node11"><a xlink:href="compat_2runtime_2include_2runtime__impl_8hpp.html" target="_top" xlink:title=" ">
<polygon fill="white" stroke="black" points="219,-179.5 219,-209.5 321,-209.5 321,-179.5 219,-179.5"/>
<text text-anchor="start" x="227" y="-197.5" font-family="Helvetica,sans-Serif" font-size="10.00">../include/runtime</text>
<text text-anchor="middle" x="270" y="-186.5" font-family="Helvetica,sans-Serif" font-size="10.00">_impl.hpp</text>
</a>
</g>
</g>
<!-- Node1&#45;&gt;Node11 -->
<g id="edge10" class="edge">
<title>Node1&#45;&gt;Node11</title>
<path fill="none" stroke="midnightblue" d="M233.93,-246.36C240.15,-237.59 247.51,-227.21 253.96,-218.12"/>
<polygon fill="midnightblue" stroke="midnightblue" points="256.86,-220.07 259.79,-209.89 251.15,-216.02 256.86,-220.07"/>
</g>
<!-- Node3 -->
<g id="node3" class="node">
<title>Node3</title>
<g id="a_node3"><a xlink:title=" ">
<polygon fill="white" stroke="#bfbfbf" points="0,-62 0,-81 58,-81 58,-62 0,-62"/>
<text text-anchor="middle" x="29" y="-69" font-family="Helvetica,sans-Serif" font-size="10.00">memory</text>
</a>
</g>
</g>
<!-- Node2&#45;&gt;Node3 -->
<g id="edge2" class="edge">
<title>Node2&#45;&gt;Node3</title>
<path fill="none" stroke="midnightblue" d="M142.94,-123.48C120.53,-113.45 83.09,-96.7 57.29,-85.15"/>
<polygon fill="midnightblue" stroke="midnightblue" points="58.58,-81.9 48.02,-81.01 55.72,-88.29 58.58,-81.9"/>
</g>
<!-- Node4 -->
<g id="node4" class="node">
<title>Node4</title>
<g id="a_node4"><a xlink:title=" ">
<polygon fill="white" stroke="#bfbfbf" points="76,-62 76,-81 120,-81 120,-62 76,-62"/>
<text text-anchor="middle" x="98" y="-69" font-family="Helvetica,sans-Serif" font-size="10.00">string</text>
</a>
</g>
</g>
<!-- Node2&#45;&gt;Node4 -->
<g id="edge3" class="edge">
<title>Node2&#45;&gt;Node4</title>
<path fill="none" stroke="midnightblue" d="M152.83,-123.48C142.85,-114.2 126.69,-99.17 114.49,-87.83"/>
<polygon fill="midnightblue" stroke="midnightblue" points="116.86,-85.25 107.15,-81.01 112.09,-90.38 116.86,-85.25"/>
</g>
<!-- Node5 -->
<g id="node5" class="node">
<title>Node5</title>
<g id="a_node5"><a xlink:title=" ">
<polygon fill="white" stroke="#bfbfbf" points="138.5,-62 138.5,-81 185.5,-81 185.5,-62 138.5,-62"/>
<text text-anchor="middle" x="162" y="-69" font-family="Helvetica,sans-Serif" font-size="10.00">vector</text>
</a>
</g>
</g>
<!-- Node2&#45;&gt;Node5 -->
<g id="edge4" class="edge">
<title>Node2&#45;&gt;Node5</title>
<path fill="none" stroke="midnightblue" d="M162,-123.48C162,-115.08 162,-101.98 162,-91.16"/>
<polygon fill="midnightblue" stroke="midnightblue" points="165.5,-91.01 162,-81.01 158.5,-91.01 165.5,-91.01"/>
</g>
<!-- Node6 -->
<g id="node6" class="node">
<title>Node6</title>
<g id="a_node6"><a xlink:href="compat_2vsomeip_2export_8hpp.html" target="_top" xlink:title=" ">
<polygon fill="white" stroke="black" points="204,-56.5 204,-86.5 320,-86.5 320,-56.5 204,-56.5"/>
<text text-anchor="start" x="212" y="-74.5" font-family="Helvetica,sans-Serif" font-size="10.00">../../compat/vsomeip</text>
<text text-anchor="middle" x="262" y="-63.5" font-family="Helvetica,sans-Serif" font-size="10.00">/export.hpp</text>
</a>
</g>
</g>
<!-- Node2&#45;&gt;Node6 -->
<g id="edge5" class="edge">
<title>Node2&#45;&gt;Node6</title>
<path fill="none" stroke="midnightblue" d="M176.33,-123.48C190.12,-115.27 211.48,-102.56 229.42,-91.88"/>
<polygon fill="midnightblue" stroke="midnightblue" points="231.63,-94.64 238.43,-86.52 228.05,-88.63 231.63,-94.64"/>
</g>
<!-- Node7 -->
<g id="node7" class="node">
<title>Node7</title>
<g id="a_node7"><a xlink:href="interface_2compat_2vsomeip_2primitive__types_8hpp.html" target="_top" xlink:title=" ">
<polygon fill="white" stroke="black" points="338.5,-56.5 338.5,-86.5 455.5,-86.5 455.5,-56.5 338.5,-56.5"/>
<text text-anchor="start" x="346.5" y="-74.5" font-family="Helvetica,sans-Serif" font-size="10.00">../../compat/vsomeip</text>
<text text-anchor="middle" x="397" y="-63.5" font-family="Helvetica,sans-Serif" font-size="10.00">/primitive_types.hpp</text>
</a>
</g>
</g>
<!-- Node2&#45;&gt;Node7 -->
<g id="edge6" class="edge">
<title>Node2&#45;&gt;Node7</title>
<path fill="none" stroke="midnightblue" d="M195.67,-123.48C231.07,-114.51 287.64,-100.19 331.82,-89"/>
<polygon fill="midnightblue" stroke="midnightblue" points="332.78,-92.37 341.62,-86.52 331.06,-85.58 332.78,-92.37"/>
</g>
<!-- Node8 -->
<g id="node8" class="node">
<title>Node8</title>
<g id="a_node8"><a xlink:title=" ">
<polygon fill="white" stroke="#bfbfbf" points="312,-0.5 312,-19.5 354,-19.5 354,-0.5 312,-0.5"/>
<text text-anchor="middle" x="333" y="-7.5" font-family="Helvetica,sans-Serif" font-size="10.00">array</text>
</a>
</g>
</g>
<!-- Node7&#45;&gt;Node8 -->
<g id="edge7" class="edge">
<title>Node7&#45;&gt;Node8</title>
<path fill="none" stroke="midnightblue" d="M381.83,-56.4C372.25,-47.49 359.84,-35.95 349.93,-26.74"/>
<polygon fill="midnightblue" stroke="midnightblue" points="352.02,-23.9 342.31,-19.66 347.25,-29.03 352.02,-23.9"/>
</g>
<!-- Node9 -->
<g id="node9" class="node">
<title>Node9</title>
<g id="a_node9"><a xlink:title=" ">
<polygon fill="white" stroke="#bfbfbf" points="372,-0.5 372,-19.5 422,-19.5 422,-0.5 372,-0.5"/>
<text text-anchor="middle" x="397" y="-7.5" font-family="Helvetica,sans-Serif" font-size="10.00">cstdint</text>
</a>
</g>
</g>
<!-- Node7&#45;&gt;Node9 -->
<g id="edge8" class="edge">
<title>Node7&#45;&gt;Node9</title>
<path fill="none" stroke="midnightblue" d="M397,-56.4C397,-48.47 397,-38.46 397,-29.86"/>
<polygon fill="midnightblue" stroke="midnightblue" points="400.5,-29.66 397,-19.66 393.5,-29.66 400.5,-29.66"/>
</g>
<!-- Node10 -->
<g id="node10" class="node">
<title>Node10</title>
<g id="a_node10"><a xlink:title=" ">
<polygon fill="white" stroke="#bfbfbf" points="440,-0.5 440,-19.5 512,-19.5 512,-0.5 440,-0.5"/>
<text text-anchor="middle" x="476" y="-7.5" font-family="Helvetica,sans-Serif" font-size="10.00">sys/types.h</text>
</a>
</g>
</g>
<!-- Node7&#45;&gt;Node10 -->
<g id="edge9" class="edge">
<title>Node7&#45;&gt;Node10</title>
<path fill="none" stroke="midnightblue" d="M415.72,-56.4C427.91,-47.22 443.79,-35.26 456.19,-25.92"/>
<polygon fill="midnightblue" stroke="midnightblue" points="458.62,-28.47 464.5,-19.66 454.41,-22.88 458.62,-28.47"/>
</g>
<!-- Node11&#45;&gt;Node2 -->
<g id="edge13" class="edge">
<title>Node11&#45;&gt;Node2</title>
<path fill="none" stroke="midnightblue" d="M244.41,-179.4C226.93,-169.77 203.91,-157.09 186.64,-147.58"/>
<polygon fill="midnightblue" stroke="midnightblue" points="188.16,-144.42 177.71,-142.66 184.78,-150.55 188.16,-144.42"/>
</g>
<!-- Node12 -->
<g id="node12" class="node">
<title>Node12</title>
<g id="a_node12"><a xlink:title=" ">
<polygon fill="white" stroke="#bfbfbf" points="261,-123.5 261,-142.5 299,-142.5 299,-123.5 261,-123.5"/>
<text text-anchor="middle" x="280" y="-130.5" font-family="Helvetica,sans-Serif" font-size="10.00">map</text>
</a>
</g>
</g>
<!-- Node11&#45;&gt;Node12 -->
<g id="edge11" class="edge">
<title>Node11&#45;&gt;Node12</title>
<path fill="none" stroke="midnightblue" d="M272.37,-179.4C273.72,-171.38 275.42,-161.23 276.88,-152.57"/>
<polygon fill="midnightblue" stroke="midnightblue" points="280.34,-153.1 278.54,-142.66 273.44,-151.94 280.34,-153.1"/>
</g>
<!-- Node13 -->
<g id="node13" class="node">
<title>Node13</title>
<g id="a_node13"><a xlink:title=" ">
<polygon fill="white" stroke="#bfbfbf" points="317,-123.5 317,-142.5 365,-142.5 365,-123.5 317,-123.5"/>
<text text-anchor="middle" x="341" y="-130.5" font-family="Helvetica,sans-Serif" font-size="10.00">mutex</text>
</a>
</g>
</g>
<!-- Node11&#45;&gt;Node13 -->
<g id="edge12" class="edge">
<title>Node11&#45;&gt;Node13</title>
<path fill="none" stroke="midnightblue" d="M286.83,-179.4C297.67,-170.31 311.78,-158.49 322.87,-149.19"/>
<polygon fill="midnightblue" stroke="midnightblue" points="325.25,-151.76 330.67,-142.66 320.76,-146.4 325.25,-151.76"/>
</g>
</g>
</svg>
