<?xml version="1.0" encoding="UTF-8" standalone="no"?>
<!DOCTYPE svg PUBLIC "-//W3C//DTD SVG 1.1//EN"
 "http://www.w3.org/Graphics/SVG/1.1/DTD/svg11.dtd">
<!-- Generated by graphviz version 2.43.0 (0)
 -->
<!-- Title: /home/kali/projects/vsomeip/implementation/compat/message/include/message_impl.hpp Pages: 1 -->
<svg width="822pt" height="374pt"
 viewBox="0.00 0.00 822.00 374.00" xmlns="http://www.w3.org/2000/svg" xmlns:xlink="http://www.w3.org/1999/xlink">
<g id="graph0" class="graph" transform="scale(1 1) rotate(0) translate(4 370)">
<title>/home/kali/projects/vsomeip/implementation/compat/message/include/message_impl.hpp</title>
<polygon fill="white" stroke="transparent" points="-4,4 -4,-370 818,-370 818,4 -4,4"/>
<!-- Node1 -->
<g id="node1" class="node">
<title>Node1</title>
<g id="a_node1"><a xlink:title=" ">
<polygon fill="#bfbfbf" stroke="black" points="458,-313.5 458,-365.5 601,-365.5 601,-313.5 458,-313.5"/>
<text text-anchor="start" x="466" y="-353.5" font-family="Helvetica,sans-Serif" font-size="10.00">/home/kali/projects</text>
<text text-anchor="start" x="466" y="-342.5" font-family="Helvetica,sans-Serif" font-size="10.00">/vsomeip/implementation</text>
<text text-anchor="start" x="466" y="-331.5" font-family="Helvetica,sans-Serif" font-size="10.00">/compat/message/include</text>
<text text-anchor="middle" x="529.5" y="-320.5" font-family="Helvetica,sans-Serif" font-size="10.00">/message_impl.hpp</text>
</a>
</g>
</g>
<!-- Node2 -->
<g id="node2" class="node">
<title>Node2</title>
<g id="a_node2"><a xlink:href="compat_2vsomeip_2message_8hpp.html" target="_top" xlink:title=" ">
<polygon fill="white" stroke="black" points="391,-201.5 391,-220.5 558,-220.5 558,-201.5 391,-201.5"/>
<text text-anchor="middle" x="474.5" y="-208.5" font-family="Helvetica,sans-Serif" font-size="10.00">compat/vsomeip/message.hpp</text>
</a>
</g>
</g>
<!-- Node1&#45;&gt;Node2 -->
<g id="edge1" class="edge">
<title>Node1&#45;&gt;Node2</title>
<path fill="none" stroke="midnightblue" d="M518.5,-313.2C507.78,-288.54 491.75,-251.67 482.28,-229.9"/>
<polygon fill="midnightblue" stroke="midnightblue" points="485.41,-228.32 478.22,-220.55 478.99,-231.12 485.41,-228.32"/>
</g>
<!-- Node13 -->
<g id="node13" class="node">
<title>Node13</title>
<g id="a_node13"><a xlink:href="compat_2message_2include_2message__base__impl_8hpp.html" target="_top" xlink:title=" ">
<polygon fill="white" stroke="black" points="513,-257.5 513,-276.5 650,-276.5 650,-257.5 513,-257.5"/>
<text text-anchor="middle" x="581.5" y="-264.5" font-family="Helvetica,sans-Serif" font-size="10.00">message_base_impl.hpp</text>
</a>
</g>
</g>
<!-- Node1&#45;&gt;Node13 -->
<g id="edge15" class="edge">
<title>Node1&#45;&gt;Node13</title>
<path fill="none" stroke="midnightblue" d="M547.98,-313.45C555,-303.93 562.82,-293.33 569.14,-284.76"/>
<polygon fill="midnightblue" stroke="midnightblue" points="571.97,-286.82 575.09,-276.7 566.33,-282.67 571.97,-286.82"/>
</g>
<!-- Node3 -->
<g id="node3" class="node">
<title>Node3</title>
<g id="a_node3"><a xlink:title=" ">
<polygon fill="white" stroke="#bfbfbf" points="266.5,-140 266.5,-159 324.5,-159 324.5,-140 266.5,-140"/>
<text text-anchor="middle" x="295.5" y="-147" font-family="Helvetica,sans-Serif" font-size="10.00">memory</text>
</a>
</g>
</g>
<!-- Node2&#45;&gt;Node3 -->
<g id="edge2" class="edge">
<title>Node2&#45;&gt;Node3</title>
<path fill="none" stroke="midnightblue" d="M446.26,-201.49C417.68,-192.77 372.3,-178.58 333.5,-165 331.39,-164.26 329.22,-163.48 327.03,-162.69"/>
<polygon fill="midnightblue" stroke="midnightblue" points="328.12,-159.36 317.53,-159.14 325.67,-165.91 328.12,-159.36"/>
</g>
<!-- Node4 -->
<g id="node4" class="node">
<title>Node4</title>
<g id="a_node4"><a xlink:href="compat_2vsomeip_2message__base_8hpp.html" target="_top" xlink:title=" ">
<polygon fill="white" stroke="black" points="342.5,-134.5 342.5,-164.5 458.5,-164.5 458.5,-134.5 342.5,-134.5"/>
<text text-anchor="start" x="350.5" y="-152.5" font-family="Helvetica,sans-Serif" font-size="10.00">../../compat/vsomeip</text>
<text text-anchor="middle" x="400.5" y="-141.5" font-family="Helvetica,sans-Serif" font-size="10.00">/message_base.hpp</text>
</a>
</g>
</g>
<!-- Node2&#45;&gt;Node4 -->
<g id="edge3" class="edge">
<title>Node2&#45;&gt;Node4</title>
<path fill="none" stroke="midnightblue" d="M463.9,-201.48C454.06,-193.57 439.04,-181.48 426.08,-171.07"/>
<polygon fill="midnightblue" stroke="midnightblue" points="427.93,-168.06 417.94,-164.52 423.54,-173.52 427.93,-168.06"/>
</g>
<!-- Node5 -->
<g id="node5" class="node">
<title>Node5</title>
<g id="a_node5"><a xlink:href="interface_2compat_2vsomeip_2enumeration__types_8hpp.html" target="_top" xlink:title=" ">
<polygon fill="white" stroke="black" points="0,-67.5 0,-97.5 135,-97.5 135,-67.5 0,-67.5"/>
<text text-anchor="start" x="8" y="-85.5" font-family="Helvetica,sans-Serif" font-size="10.00">../../compat/vsomeip</text>
<text text-anchor="middle" x="67.5" y="-74.5" font-family="Helvetica,sans-Serif" font-size="10.00">/enumeration_types.hpp</text>
</a>
</g>
</g>
<!-- Node4&#45;&gt;Node5 -->
<g id="edge4" class="edge">
<title>Node4&#45;&gt;Node5</title>
<path fill="none" stroke="midnightblue" d="M342.41,-135.83C339.4,-135.21 336.42,-134.59 333.5,-134 252.4,-117.54 229.6,-114.29 145.1,-98.3"/>
<polygon fill="midnightblue" stroke="midnightblue" points="145.52,-94.82 135.04,-96.39 144.22,-101.69 145.52,-94.82"/>
</g>
<!-- Node7 -->
<g id="node7" class="node">
<title>Node7</title>
<g id="a_node7"><a xlink:href="compat_2vsomeip_2export_8hpp.html" target="_top" xlink:title=" ">
<polygon fill="white" stroke="black" points="422.5,-0.5 422.5,-30.5 538.5,-30.5 538.5,-0.5 422.5,-0.5"/>
<text text-anchor="start" x="430.5" y="-18.5" font-family="Helvetica,sans-Serif" font-size="10.00">../../compat/vsomeip</text>
<text text-anchor="middle" x="480.5" y="-7.5" font-family="Helvetica,sans-Serif" font-size="10.00">/export.hpp</text>
</a>
</g>
</g>
<!-- Node4&#45;&gt;Node7 -->
<g id="edge6" class="edge">
<title>Node4&#45;&gt;Node7</title>
<path fill="none" stroke="midnightblue" d="M360.01,-134.5C343.44,-126.54 325.97,-114.74 316.5,-98 309.72,-86.01 308.32,-78.08 316.5,-67 338.49,-37.23 377.76,-24.46 412.36,-19.2"/>
<polygon fill="midnightblue" stroke="midnightblue" points="413,-22.65 422.45,-17.85 412.07,-15.71 413,-22.65"/>
</g>
<!-- Node8 -->
<g id="node8" class="node">
<title>Node8</title>
<g id="a_node8"><a xlink:href="compat_2vsomeip_2internal_2deserializable_8hpp.html" target="_top" xlink:title=" ">
<polygon fill="white" stroke="black" points="326,-67.5 326,-97.5 475,-97.5 475,-67.5 326,-67.5"/>
<text text-anchor="start" x="334" y="-85.5" font-family="Helvetica,sans-Serif" font-size="10.00">../../compat/vsomeip</text>
<text text-anchor="middle" x="400.5" y="-74.5" font-family="Helvetica,sans-Serif" font-size="10.00">/internal/deserializable.hpp</text>
</a>
</g>
</g>
<!-- Node4&#45;&gt;Node8 -->
<g id="edge7" class="edge">
<title>Node4&#45;&gt;Node8</title>
<path fill="none" stroke="midnightblue" d="M400.5,-134.4C400.5,-126.64 400.5,-116.81 400.5,-107.86"/>
<polygon fill="midnightblue" stroke="midnightblue" points="404,-107.58 400.5,-97.58 397,-107.58 404,-107.58"/>
</g>
<!-- Node9 -->
<g id="node9" class="node">
<title>Node9</title>
<g id="a_node9"><a xlink:href="compat_2vsomeip_2internal_2serializable_8hpp.html" target="_top" xlink:title=" ">
<polygon fill="white" stroke="black" points="493,-67.5 493,-97.5 630,-97.5 630,-67.5 493,-67.5"/>
<text text-anchor="start" x="501" y="-85.5" font-family="Helvetica,sans-Serif" font-size="10.00">../../compat/vsomeip</text>
<text text-anchor="middle" x="561.5" y="-74.5" font-family="Helvetica,sans-Serif" font-size="10.00">/internal/serializable.hpp</text>
</a>
</g>
</g>
<!-- Node4&#45;&gt;Node9 -->
<g id="edge9" class="edge">
<title>Node4&#45;&gt;Node9</title>
<path fill="none" stroke="midnightblue" d="M435.43,-134.4C459.38,-124.73 491.35,-111.82 517.1,-101.43"/>
<polygon fill="midnightblue" stroke="midnightblue" points="518.67,-104.57 526.63,-97.58 516.05,-98.07 518.67,-104.57"/>
</g>
<!-- Node10 -->
<g id="node10" class="node">
<title>Node10</title>
<g id="a_node10"><a xlink:href="interface_2compat_2vsomeip_2primitive__types_8hpp.html" target="_top" xlink:title=" ">
<polygon fill="white" stroke="black" points="153,-67.5 153,-97.5 270,-97.5 270,-67.5 153,-67.5"/>
<text text-anchor="start" x="161" y="-85.5" font-family="Helvetica,sans-Serif" font-size="10.00">../../compat/vsomeip</text>
<text text-anchor="middle" x="211.5" y="-74.5" font-family="Helvetica,sans-Serif" font-size="10.00">/primitive_types.hpp</text>
</a>
</g>
</g>
<!-- Node4&#45;&gt;Node10 -->
<g id="edge11" class="edge">
<title>Node4&#45;&gt;Node10</title>
<path fill="none" stroke="midnightblue" d="M359.49,-134.4C330.88,-124.56 292.53,-111.37 262.03,-100.88"/>
<polygon fill="midnightblue" stroke="midnightblue" points="263.02,-97.52 252.43,-97.58 260.75,-104.14 263.02,-97.52"/>
</g>
<!-- Node6 -->
<g id="node6" class="node">
<title>Node6</title>
<g id="a_node6"><a xlink:title=" ">
<polygon fill="white" stroke="#bfbfbf" points="82.5,-6 82.5,-25 132.5,-25 132.5,-6 82.5,-6"/>
<text text-anchor="middle" x="107.5" y="-13" font-family="Helvetica,sans-Serif" font-size="10.00">cstdint</text>
</a>
</g>
</g>
<!-- Node5&#45;&gt;Node6 -->
<g id="edge5" class="edge">
<title>Node5&#45;&gt;Node6</title>
<path fill="none" stroke="midnightblue" d="M76.18,-67.4C82.23,-57.56 90.34,-44.38 96.8,-33.89"/>
<polygon fill="midnightblue" stroke="midnightblue" points="99.89,-35.55 102.15,-25.19 93.93,-31.88 99.89,-35.55"/>
</g>
<!-- Node8&#45;&gt;Node7 -->
<g id="edge8" class="edge">
<title>Node8&#45;&gt;Node7</title>
<path fill="none" stroke="midnightblue" d="M417.86,-67.4C428.76,-58.54 443.01,-46.96 455.16,-37.09"/>
<polygon fill="midnightblue" stroke="midnightblue" points="457.62,-39.6 463.18,-30.58 453.21,-34.17 457.62,-39.6"/>
</g>
<!-- Node9&#45;&gt;Node7 -->
<g id="edge10" class="edge">
<title>Node9&#45;&gt;Node7</title>
<path fill="none" stroke="midnightblue" d="M543.92,-67.4C532.89,-58.54 518.46,-46.96 506.15,-37.09"/>
<polygon fill="midnightblue" stroke="midnightblue" points="508.03,-34.11 498.04,-30.58 503.65,-39.56 508.03,-34.11"/>
</g>
<!-- Node10&#45;&gt;Node6 -->
<g id="edge13" class="edge">
<title>Node10&#45;&gt;Node6</title>
<path fill="none" stroke="midnightblue" d="M188.93,-67.4C171.49,-56.5 147.47,-41.48 130.03,-30.58"/>
<polygon fill="midnightblue" stroke="midnightblue" points="131.45,-27.34 121.11,-25.01 127.74,-33.28 131.45,-27.34"/>
</g>
<!-- Node11 -->
<g id="node11" class="node">
<title>Node11</title>
<g id="a_node11"><a xlink:title=" ">
<polygon fill="white" stroke="#bfbfbf" points="152.5,-6 152.5,-25 194.5,-25 194.5,-6 152.5,-6"/>
<text text-anchor="middle" x="173.5" y="-13" font-family="Helvetica,sans-Serif" font-size="10.00">array</text>
</a>
</g>
</g>
<!-- Node10&#45;&gt;Node11 -->
<g id="edge12" class="edge">
<title>Node10&#45;&gt;Node11</title>
<path fill="none" stroke="midnightblue" d="M203.25,-67.4C197.51,-57.56 189.8,-44.38 183.67,-33.89"/>
<polygon fill="midnightblue" stroke="midnightblue" points="186.65,-32.06 178.58,-25.19 180.61,-35.59 186.65,-32.06"/>
</g>
<!-- Node12 -->
<g id="node12" class="node">
<title>Node12</title>
<g id="a_node12"><a xlink:title=" ">
<polygon fill="white" stroke="#bfbfbf" points="212.5,-6 212.5,-25 284.5,-25 284.5,-6 212.5,-6"/>
<text text-anchor="middle" x="248.5" y="-13" font-family="Helvetica,sans-Serif" font-size="10.00">sys/types.h</text>
</a>
</g>
</g>
<!-- Node10&#45;&gt;Node12 -->
<g id="edge14" class="edge">
<title>Node10&#45;&gt;Node12</title>
<path fill="none" stroke="midnightblue" d="M219.53,-67.4C225.13,-57.56 232.63,-44.38 238.6,-33.89"/>
<polygon fill="midnightblue" stroke="midnightblue" points="241.65,-35.62 243.55,-25.19 235.56,-32.15 241.65,-35.62"/>
</g>
<!-- Node13&#45;&gt;Node2 -->
<g id="edge17" class="edge">
<title>Node13&#45;&gt;Node2</title>
<path fill="none" stroke="midnightblue" d="M564.31,-257.32C547.15,-248.66 520.55,-235.24 500.75,-225.25"/>
<polygon fill="midnightblue" stroke="midnightblue" points="502.15,-222.04 491.65,-220.65 499,-228.28 502.15,-222.04"/>
</g>
<!-- Node13&#45;&gt;Node7 -->
<g id="edge16" class="edge">
<title>Node13&#45;&gt;Node7</title>
<path fill="none" stroke="midnightblue" d="M589,-257.13C613.22,-227.36 685.18,-129.44 639.5,-67 618.73,-38.61 581.89,-25.79 548.89,-20.16"/>
<polygon fill="midnightblue" stroke="midnightblue" points="549.21,-16.67 538.8,-18.63 548.16,-23.59 549.21,-16.67"/>
</g>
<!-- Node14 -->
<g id="node14" class="node">
<title>Node14</title>
<g id="a_node14"><a xlink:title=" ">
<polygon fill="white" stroke="#bfbfbf" points="687,-201.5 687,-220.5 814,-220.5 814,-201.5 687,-201.5"/>
<text text-anchor="middle" x="750.5" y="-208.5" font-family="Helvetica,sans-Serif" font-size="10.00">vsomeip/message.hpp</text>
</a>
</g>
</g>
<!-- Node13&#45;&gt;Node14 -->
<g id="edge18" class="edge">
<title>Node13&#45;&gt;Node14</title>
<path fill="none" stroke="midnightblue" d="M608.28,-257.44C636.83,-248.32 682.23,-233.81 714.04,-223.65"/>
<polygon fill="midnightblue" stroke="midnightblue" points="715.39,-226.89 723.85,-220.52 713.26,-220.23 715.39,-226.89"/>
</g>
</g>
</svg>
