<?xml version="1.0" encoding="UTF-8" standalone="no"?>
<!DOCTYPE svg PUBLIC "-//W3C//DTD SVG 1.1//EN"
 "http://www.w3.org/Graphics/SVG/1.1/DTD/svg11.dtd">
<!-- Generated by graphviz version 2.43.0 (0)
 -->
<!-- Title: /home/kali/projects/vsomeip/implementation/compat/message/src/message_base_impl.cpp Pages: 1 -->
<svg width="1304pt" height="374pt"
 viewBox="0.00 0.00 1304.40 374.00" xmlns="http://www.w3.org/2000/svg" xmlns:xlink="http://www.w3.org/1999/xlink">
<g id="graph0" class="graph" transform="scale(1 1) rotate(0) translate(4 370)">
<title>/home/kali/projects/vsomeip/implementation/compat/message/src/message_base_impl.cpp</title>
<polygon fill="white" stroke="transparent" points="-4,4 -4,-370 1300.4,-370 1300.4,4 -4,4"/>
<!-- Node1 -->
<g id="node1" class="node">
<title>Node1</title>
<g id="a_node1"><a xlink:title=" ">
<polygon fill="#bfbfbf" stroke="black" points="501.4,-313.5 501.4,-365.5 669.4,-365.5 669.4,-313.5 501.4,-313.5"/>
<text text-anchor="start" x="509.4" y="-353.5" font-family="Helvetica,sans-Serif" font-size="10.00">/home/kali/projects</text>
<text text-anchor="start" x="509.4" y="-342.5" font-family="Helvetica,sans-Serif" font-size="10.00">/vsomeip/implementation</text>
<text text-anchor="start" x="509.4" y="-331.5" font-family="Helvetica,sans-Serif" font-size="10.00">/compat/message/src/message</text>
<text text-anchor="middle" x="585.4" y="-320.5" font-family="Helvetica,sans-Serif" font-size="10.00">_base_impl.cpp</text>
</a>
</g>
</g>
<!-- Node2 -->
<g id="node2" class="node">
<title>Node2</title>
<g id="a_node2"><a xlink:title=" ">
<polygon fill="white" stroke="#bfbfbf" points="391.9,-252 391.9,-271 512.9,-271 512.9,-252 391.9,-252"/>
<text text-anchor="middle" x="452.4" y="-259" font-family="Helvetica,sans-Serif" font-size="10.00">vsomeip/runtime.hpp</text>
</a>
</g>
</g>
<!-- Node1&#45;&gt;Node2 -->
<g id="edge1" class="edge">
<title>Node1&#45;&gt;Node2</title>
<path fill="none" stroke="midnightblue" d="M541.49,-313.4C519.71,-300.96 494.26,-286.42 476.16,-276.07"/>
<polygon fill="midnightblue" stroke="midnightblue" points="477.83,-273 467.41,-271.08 474.36,-279.08 477.83,-273"/>
</g>
<!-- Node3 -->
<g id="node3" class="node">
<title>Node3</title>
<g id="a_node3"><a xlink:href="compat_2message_2include_2message__base__impl_8hpp.html" target="_top" xlink:title=" ">
<polygon fill="white" stroke="black" points="531.4,-246.5 531.4,-276.5 639.4,-276.5 639.4,-246.5 531.4,-246.5"/>
<text text-anchor="start" x="539.4" y="-264.5" font-family="Helvetica,sans-Serif" font-size="10.00">../include/message</text>
<text text-anchor="middle" x="585.4" y="-253.5" font-family="Helvetica,sans-Serif" font-size="10.00">_base_impl.hpp</text>
</a>
</g>
</g>
<!-- Node1&#45;&gt;Node3 -->
<g id="edge2" class="edge">
<title>Node1&#45;&gt;Node3</title>
<path fill="none" stroke="midnightblue" d="M585.4,-313.19C585.4,-304.79 585.4,-295.44 585.4,-287.09"/>
<polygon fill="midnightblue" stroke="midnightblue" points="588.9,-286.85 585.4,-276.85 581.9,-286.85 588.9,-286.85"/>
</g>
<!-- Node16 -->
<g id="node16" class="node">
<title>Node16</title>
<g id="a_node16"><a xlink:href="message_2include_2message__impl_8hpp.html" target="_top" xlink:title=" ">
<polygon fill="white" stroke="black" points="710.4,-246.5 710.4,-276.5 836.4,-276.5 836.4,-246.5 710.4,-246.5"/>
<text text-anchor="start" x="718.4" y="-264.5" font-family="Helvetica,sans-Serif" font-size="10.00">../../../message/include</text>
<text text-anchor="middle" x="773.4" y="-253.5" font-family="Helvetica,sans-Serif" font-size="10.00">/message_impl.hpp</text>
</a>
</g>
</g>
<!-- Node1&#45;&gt;Node16 -->
<g id="edge19" class="edge">
<title>Node1&#45;&gt;Node16</title>
<path fill="none" stroke="midnightblue" d="M647.48,-313.4C674.2,-302.6 704.83,-290.22 729.19,-280.37"/>
<polygon fill="midnightblue" stroke="midnightblue" points="730.57,-283.59 738.53,-276.6 727.95,-277.1 730.57,-283.59"/>
</g>
<!-- Node4 -->
<g id="node4" class="node">
<title>Node4</title>
<g id="a_node4"><a xlink:href="compat_2vsomeip_2export_8hpp.html" target="_top" xlink:title=" ">
<polygon fill="white" stroke="black" points="95.4,-0.5 95.4,-19.5 249.4,-19.5 249.4,-0.5 95.4,-0.5"/>
<text text-anchor="middle" x="172.4" y="-7.5" font-family="Helvetica,sans-Serif" font-size="10.00">compat/vsomeip/export.hpp</text>
</a>
</g>
</g>
<!-- Node3&#45;&gt;Node4 -->
<g id="edge3" class="edge">
<title>Node3&#45;&gt;Node4</title>
<path fill="none" stroke="midnightblue" d="M531.3,-248.13C393.82,-216.15 39.59,-130.27 7.4,-87 -19.4,-50.97 34.66,-31.51 87.92,-21.33"/>
<polygon fill="midnightblue" stroke="midnightblue" points="88.62,-24.76 97.83,-19.54 87.37,-17.87 88.62,-24.76"/>
</g>
<!-- Node5 -->
<g id="node5" class="node">
<title>Node5</title>
<g id="a_node5"><a xlink:href="compat_2vsomeip_2message_8hpp.html" target="_top" xlink:title=" ">
<polygon fill="white" stroke="black" points="448.9,-190.5 448.9,-209.5 615.9,-209.5 615.9,-190.5 448.9,-190.5"/>
<text text-anchor="middle" x="532.4" y="-197.5" font-family="Helvetica,sans-Serif" font-size="10.00">compat/vsomeip/message.hpp</text>
</a>
</g>
</g>
<!-- Node3&#45;&gt;Node5 -->
<g id="edge4" class="edge">
<title>Node3&#45;&gt;Node5</title>
<path fill="none" stroke="midnightblue" d="M572.84,-246.4C565.06,-237.66 555.04,-226.41 546.92,-217.3"/>
<polygon fill="midnightblue" stroke="midnightblue" points="549.38,-214.8 540.12,-209.66 544.15,-219.45 549.38,-214.8"/>
</g>
<!-- Node15 -->
<g id="node15" class="node">
<title>Node15</title>
<g id="a_node15"><a xlink:title=" ">
<polygon fill="white" stroke="#bfbfbf" points="617.9,-129 617.9,-148 744.9,-148 744.9,-129 617.9,-129"/>
<text text-anchor="middle" x="681.4" y="-136" font-family="Helvetica,sans-Serif" font-size="10.00">vsomeip/message.hpp</text>
</a>
</g>
</g>
<!-- Node3&#45;&gt;Node15 -->
<g id="edge18" class="edge">
<title>Node3&#45;&gt;Node15</title>
<path fill="none" stroke="midnightblue" d="M596.79,-246.14C614.67,-223.61 649.24,-180.04 668.19,-156.16"/>
<polygon fill="midnightblue" stroke="midnightblue" points="671.14,-158.06 674.62,-148.05 665.66,-153.71 671.14,-158.06"/>
</g>
<!-- Node6 -->
<g id="node6" class="node">
<title>Node6</title>
<g id="a_node6"><a xlink:title=" ">
<polygon fill="white" stroke="#bfbfbf" points="522.4,-129 522.4,-148 580.4,-148 580.4,-129 522.4,-129"/>
<text text-anchor="middle" x="551.4" y="-136" font-family="Helvetica,sans-Serif" font-size="10.00">memory</text>
</a>
</g>
</g>
<!-- Node5&#45;&gt;Node6 -->
<g id="edge5" class="edge">
<title>Node5&#45;&gt;Node6</title>
<path fill="none" stroke="midnightblue" d="M535.13,-190.48C537.83,-181.99 542.08,-168.7 545.55,-157.82"/>
<polygon fill="midnightblue" stroke="midnightblue" points="548.98,-158.6 548.69,-148.01 542.31,-156.47 548.98,-158.6"/>
</g>
<!-- Node7 -->
<g id="node7" class="node">
<title>Node7</title>
<g id="a_node7"><a xlink:href="compat_2vsomeip_2message__base_8hpp.html" target="_top" xlink:title=" ">
<polygon fill="white" stroke="black" points="325.4,-123.5 325.4,-153.5 441.4,-153.5 441.4,-123.5 325.4,-123.5"/>
<text text-anchor="start" x="333.4" y="-141.5" font-family="Helvetica,sans-Serif" font-size="10.00">../../compat/vsomeip</text>
<text text-anchor="middle" x="383.4" y="-130.5" font-family="Helvetica,sans-Serif" font-size="10.00">/message_base.hpp</text>
</a>
</g>
</g>
<!-- Node5&#45;&gt;Node7 -->
<g id="edge6" class="edge">
<title>Node5&#45;&gt;Node7</title>
<path fill="none" stroke="midnightblue" d="M511.06,-190.48C489.46,-181.85 455.43,-168.26 427.94,-157.29"/>
<polygon fill="midnightblue" stroke="midnightblue" points="429.1,-153.98 418.52,-153.52 426.51,-160.48 429.1,-153.98"/>
</g>
<!-- Node7&#45;&gt;Node4 -->
<g id="edge9" class="edge">
<title>Node7&#45;&gt;Node4</title>
<path fill="none" stroke="midnightblue" d="M377.8,-123.46C369.8,-105.2 353.36,-73.56 329.4,-56 306.18,-38.98 276.68,-28.39 249.54,-21.79"/>
<polygon fill="midnightblue" stroke="midnightblue" points="250.19,-18.35 239.66,-19.54 248.64,-25.18 250.19,-18.35"/>
</g>
<!-- Node8 -->
<g id="node8" class="node">
<title>Node8</title>
<g id="a_node8"><a xlink:href="interface_2compat_2vsomeip_2enumeration__types_8hpp.html" target="_top" xlink:title=" ">
<polygon fill="white" stroke="black" points="377.9,-56.5 377.9,-86.5 512.9,-86.5 512.9,-56.5 377.9,-56.5"/>
<text text-anchor="start" x="385.9" y="-74.5" font-family="Helvetica,sans-Serif" font-size="10.00">../../compat/vsomeip</text>
<text text-anchor="middle" x="445.4" y="-63.5" font-family="Helvetica,sans-Serif" font-size="10.00">/enumeration_types.hpp</text>
</a>
</g>
</g>
<!-- Node7&#45;&gt;Node8 -->
<g id="edge7" class="edge">
<title>Node7&#45;&gt;Node8</title>
<path fill="none" stroke="midnightblue" d="M396.86,-123.4C405.06,-114.79 415.71,-103.63 424.95,-93.94"/>
<polygon fill="midnightblue" stroke="midnightblue" points="427.61,-96.23 431.98,-86.58 422.54,-91.4 427.61,-96.23"/>
</g>
<!-- Node10 -->
<g id="node10" class="node">
<title>Node10</title>
<g id="a_node10"><a xlink:href="compat_2vsomeip_2internal_2deserializable_8hpp.html" target="_top" xlink:title=" ">
<polygon fill="white" stroke="black" points="16.9,-56.5 16.9,-86.5 165.9,-86.5 165.9,-56.5 16.9,-56.5"/>
<text text-anchor="start" x="24.9" y="-74.5" font-family="Helvetica,sans-Serif" font-size="10.00">../../compat/vsomeip</text>
<text text-anchor="middle" x="91.4" y="-63.5" font-family="Helvetica,sans-Serif" font-size="10.00">/internal/deserializable.hpp</text>
</a>
</g>
</g>
<!-- Node7&#45;&gt;Node10 -->
<g id="edge10" class="edge">
<title>Node7&#45;&gt;Node10</title>
<path fill="none" stroke="midnightblue" d="M325.36,-124.58C279.15,-114.29 214.19,-99.83 164.44,-88.76"/>
<polygon fill="midnightblue" stroke="midnightblue" points="164.91,-85.28 154.39,-86.52 163.39,-92.11 164.91,-85.28"/>
</g>
<!-- Node11 -->
<g id="node11" class="node">
<title>Node11</title>
<g id="a_node11"><a xlink:href="compat_2vsomeip_2internal_2serializable_8hpp.html" target="_top" xlink:title=" ">
<polygon fill="white" stroke="black" points="183.9,-56.5 183.9,-86.5 320.9,-86.5 320.9,-56.5 183.9,-56.5"/>
<text text-anchor="start" x="191.9" y="-74.5" font-family="Helvetica,sans-Serif" font-size="10.00">../../compat/vsomeip</text>
<text text-anchor="middle" x="252.4" y="-63.5" font-family="Helvetica,sans-Serif" font-size="10.00">/internal/serializable.hpp</text>
</a>
</g>
</g>
<!-- Node7&#45;&gt;Node11 -->
<g id="edge12" class="edge">
<title>Node7&#45;&gt;Node11</title>
<path fill="none" stroke="midnightblue" d="M354.98,-123.4C335.92,-113.94 310.63,-101.39 289.92,-91.12"/>
<polygon fill="midnightblue" stroke="midnightblue" points="291.29,-87.89 280.77,-86.58 288.18,-94.16 291.29,-87.89"/>
</g>
<!-- Node12 -->
<g id="node12" class="node">
<title>Node12</title>
<g id="a_node12"><a xlink:href="interface_2compat_2vsomeip_2primitive__types_8hpp.html" target="_top" xlink:title=" ">
<polygon fill="white" stroke="black" points="530.9,-56.5 530.9,-86.5 647.9,-86.5 647.9,-56.5 530.9,-56.5"/>
<text text-anchor="start" x="538.9" y="-74.5" font-family="Helvetica,sans-Serif" font-size="10.00">../../compat/vsomeip</text>
<text text-anchor="middle" x="589.4" y="-63.5" font-family="Helvetica,sans-Serif" font-size="10.00">/primitive_types.hpp</text>
</a>
</g>
</g>
<!-- Node7&#45;&gt;Node12 -->
<g id="edge14" class="edge">
<title>Node7&#45;&gt;Node12</title>
<path fill="none" stroke="midnightblue" d="M427.85,-123.48C459.28,-113.56 501.61,-100.2 535.06,-89.65"/>
<polygon fill="midnightblue" stroke="midnightblue" points="536.2,-92.96 544.68,-86.61 534.09,-86.28 536.2,-92.96"/>
</g>
<!-- Node9 -->
<g id="node9" class="node">
<title>Node9</title>
<g id="a_node9"><a xlink:title=" ">
<polygon fill="white" stroke="#bfbfbf" points="422.4,-0.5 422.4,-19.5 472.4,-19.5 472.4,-0.5 422.4,-0.5"/>
<text text-anchor="middle" x="447.4" y="-7.5" font-family="Helvetica,sans-Serif" font-size="10.00">cstdint</text>
</a>
</g>
</g>
<!-- Node8&#45;&gt;Node9 -->
<g id="edge8" class="edge">
<title>Node8&#45;&gt;Node9</title>
<path fill="none" stroke="midnightblue" d="M445.88,-56.4C446.14,-48.47 446.48,-38.46 446.77,-29.86"/>
<polygon fill="midnightblue" stroke="midnightblue" points="450.27,-29.77 447.11,-19.66 443.28,-29.53 450.27,-29.77"/>
</g>
<!-- Node10&#45;&gt;Node4 -->
<g id="edge11" class="edge">
<title>Node10&#45;&gt;Node4</title>
<path fill="none" stroke="midnightblue" d="M110.6,-56.4C123.22,-47.13 139.7,-35.03 152.46,-25.65"/>
<polygon fill="midnightblue" stroke="midnightblue" points="154.63,-28.4 160.62,-19.66 150.49,-22.76 154.63,-28.4"/>
</g>
<!-- Node11&#45;&gt;Node4 -->
<g id="edge13" class="edge">
<title>Node11&#45;&gt;Node4</title>
<path fill="none" stroke="midnightblue" d="M233.44,-56.4C220.98,-47.13 204.71,-35.03 192.1,-25.65"/>
<polygon fill="midnightblue" stroke="midnightblue" points="194.16,-22.82 184.04,-19.66 189.98,-28.43 194.16,-22.82"/>
</g>
<!-- Node12&#45;&gt;Node9 -->
<g id="edge16" class="edge">
<title>Node12&#45;&gt;Node9</title>
<path fill="none" stroke="midnightblue" d="M555.75,-56.4C531.93,-46.42 500.26,-33.15 477.32,-23.53"/>
<polygon fill="midnightblue" stroke="midnightblue" points="478.64,-20.29 468.07,-19.66 475.94,-26.75 478.64,-20.29"/>
</g>
<!-- Node13 -->
<g id="node13" class="node">
<title>Node13</title>
<g id="a_node13"><a xlink:title=" ">
<polygon fill="white" stroke="#bfbfbf" points="530.4,-0.5 530.4,-19.5 572.4,-19.5 572.4,-0.5 530.4,-0.5"/>
<text text-anchor="middle" x="551.4" y="-7.5" font-family="Helvetica,sans-Serif" font-size="10.00">array</text>
</a>
</g>
</g>
<!-- Node12&#45;&gt;Node13 -->
<g id="edge15" class="edge">
<title>Node12&#45;&gt;Node13</title>
<path fill="none" stroke="midnightblue" d="M580.4,-56.4C574.99,-47.93 568.07,-37.1 562.35,-28.14"/>
<polygon fill="midnightblue" stroke="midnightblue" points="565.27,-26.2 556.93,-19.66 559.37,-29.97 565.27,-26.2"/>
</g>
<!-- Node14 -->
<g id="node14" class="node">
<title>Node14</title>
<g id="a_node14"><a xlink:title=" ">
<polygon fill="white" stroke="#bfbfbf" points="590.4,-0.5 590.4,-19.5 662.4,-19.5 662.4,-0.5 590.4,-0.5"/>
<text text-anchor="middle" x="626.4" y="-7.5" font-family="Helvetica,sans-Serif" font-size="10.00">sys/types.h</text>
</a>
</g>
</g>
<!-- Node12&#45;&gt;Node14 -->
<g id="edge17" class="edge">
<title>Node12&#45;&gt;Node14</title>
<path fill="none" stroke="midnightblue" d="M598.17,-56.4C603.38,-48.02 610.03,-37.33 615.57,-28.42"/>
<polygon fill="midnightblue" stroke="midnightblue" points="618.71,-30 621.02,-19.66 612.77,-26.3 618.71,-30"/>
</g>
<!-- Node16&#45;&gt;Node6 -->
<g id="edge20" class="edge">
<title>Node16&#45;&gt;Node6</title>
<path fill="none" stroke="midnightblue" d="M747.5,-246.38C704.33,-222.85 618.24,-175.93 575.97,-152.89"/>
<polygon fill="midnightblue" stroke="midnightblue" points="577.62,-149.8 567.17,-148.09 574.27,-155.95 577.62,-149.8"/>
</g>
<!-- Node17 -->
<g id="node17" class="node">
<title>Node17</title>
<g id="a_node17"><a xlink:title=" ">
<polygon fill="white" stroke="#bfbfbf" points="1182.4,-62 1182.4,-81 1296.4,-81 1296.4,-62 1182.4,-62"/>
<text text-anchor="middle" x="1239.4" y="-69" font-family="Helvetica,sans-Serif" font-size="10.00">vsomeip/export.hpp</text>
</a>
</g>
</g>
<!-- Node16&#45;&gt;Node17 -->
<g id="edge21" class="edge">
<title>Node16&#45;&gt;Node17</title>
<path fill="none" stroke="midnightblue" d="M836.54,-251.72C913.19,-239.02 1044.46,-210.56 1143.4,-154 1175.01,-135.93 1206.11,-106.89 1223.99,-88.79"/>
<polygon fill="midnightblue" stroke="midnightblue" points="1226.79,-90.94 1231.24,-81.33 1221.76,-86.07 1226.79,-90.94"/>
</g>
<!-- Node18 -->
<g id="node18" class="node">
<title>Node18</title>
<g id="a_node18"><a xlink:title=" ">
<polygon fill="white" stroke="#bfbfbf" points="665.9,-62 665.9,-81 824.9,-81 824.9,-62 665.9,-62"/>
<text text-anchor="middle" x="745.4" y="-69" font-family="Helvetica,sans-Serif" font-size="10.00">vsomeip/primitive_types.hpp</text>
</a>
</g>
</g>
<!-- Node16&#45;&gt;Node18 -->
<g id="edge22" class="edge">
<title>Node16&#45;&gt;Node18</title>
<path fill="none" stroke="midnightblue" d="M771.42,-246.44C767.89,-221.54 760.25,-168.07 753.4,-123 751.79,-112.4 749.92,-100.57 748.39,-91.02"/>
<polygon fill="midnightblue" stroke="midnightblue" points="751.84,-90.39 746.8,-81.07 744.93,-91.5 751.84,-90.39"/>
</g>
<!-- Node19 -->
<g id="node19" class="node">
<title>Node19</title>
<g id="a_node19"><a xlink:href="message_2include_2message__base__impl_8hpp.html" target="_top" xlink:title=" ">
<polygon fill="white" stroke="black" points="835.9,-190.5 835.9,-209.5 972.9,-209.5 972.9,-190.5 835.9,-190.5"/>
<text text-anchor="middle" x="904.4" y="-197.5" font-family="Helvetica,sans-Serif" font-size="10.00">message_base_impl.hpp</text>
</a>
</g>
</g>
<!-- Node16&#45;&gt;Node19 -->
<g id="edge23" class="edge">
<title>Node16&#45;&gt;Node19</title>
<path fill="none" stroke="midnightblue" d="M804.45,-246.4C826.13,-236.55 854.86,-223.5 875.95,-213.92"/>
<polygon fill="midnightblue" stroke="midnightblue" points="877.68,-216.98 885.34,-209.66 874.79,-210.61 877.68,-216.98"/>
</g>
<!-- Node19&#45;&gt;Node15 -->
<g id="edge26" class="edge">
<title>Node19&#45;&gt;Node15</title>
<path fill="none" stroke="midnightblue" d="M872.45,-190.48C833.21,-180 766.53,-162.21 723.23,-150.66"/>
<polygon fill="midnightblue" stroke="midnightblue" points="723.86,-147.21 713.29,-148.01 722.05,-153.97 723.86,-147.21"/>
</g>
<!-- Node19&#45;&gt;Node17 -->
<g id="edge25" class="edge">
<title>Node19&#45;&gt;Node17</title>
<path fill="none" stroke="midnightblue" d="M922.41,-190.38C939.58,-181.9 965.94,-168.19 987.4,-154 1005.87,-141.79 1006.49,-132.67 1026.4,-123 1033.9,-119.36 1131.06,-97.01 1191.54,-83.29"/>
<polygon fill="midnightblue" stroke="midnightblue" points="1192.66,-86.63 1201.64,-81 1191.12,-79.8 1192.66,-86.63"/>
</g>
<!-- Node20 -->
<g id="node20" class="node">
<title>Node20</title>
<g id="a_node20"><a xlink:title=" ">
<polygon fill="white" stroke="#bfbfbf" points="1034.9,-129 1034.9,-148 1133.9,-148 1133.9,-129 1034.9,-129"/>
<text text-anchor="middle" x="1084.4" y="-136" font-family="Helvetica,sans-Serif" font-size="10.00">boost/thread.hpp</text>
</a>
</g>
</g>
<!-- Node19&#45;&gt;Node20 -->
<g id="edge24" class="edge">
<title>Node19&#45;&gt;Node20</title>
<path fill="none" stroke="midnightblue" d="M930.19,-190.48C961.34,-180.18 1013.88,-162.81 1048.86,-151.25"/>
<polygon fill="midnightblue" stroke="midnightblue" points="1050.27,-154.47 1058.66,-148.01 1048.07,-147.82 1050.27,-154.47"/>
</g>
<!-- Node21 -->
<g id="node21" class="node">
<title>Node21</title>
<g id="a_node21"><a xlink:href="message__header__impl_8hpp.html" target="_top" xlink:title=" ">
<polygon fill="white" stroke="black" points="830.4,-129 830.4,-148 978.4,-148 978.4,-129 830.4,-129"/>
<text text-anchor="middle" x="904.4" y="-136" font-family="Helvetica,sans-Serif" font-size="10.00">message_header_impl.hpp</text>
</a>
</g>
</g>
<!-- Node19&#45;&gt;Node21 -->
<g id="edge27" class="edge">
<title>Node19&#45;&gt;Node21</title>
<path fill="none" stroke="midnightblue" d="M904.4,-190.48C904.4,-182.08 904.4,-168.98 904.4,-158.16"/>
<polygon fill="midnightblue" stroke="midnightblue" points="907.9,-158.01 904.4,-148.01 900.9,-158.01 907.9,-158.01"/>
</g>
<!-- Node21&#45;&gt;Node17 -->
<g id="edge28" class="edge">
<title>Node21&#45;&gt;Node17</title>
<path fill="none" stroke="midnightblue" d="M952.6,-128.91C1006.49,-119.2 1096.34,-102.69 1173.4,-87 1179.22,-85.82 1185.32,-84.53 1191.36,-83.24"/>
<polygon fill="midnightblue" stroke="midnightblue" points="1192.37,-86.6 1201.4,-81.06 1190.89,-79.76 1192.37,-86.6"/>
</g>
<!-- Node21&#45;&gt;Node18 -->
<g id="edge29" class="edge">
<title>Node21&#45;&gt;Node18</title>
<path fill="none" stroke="midnightblue" d="M883.29,-128.87C855.77,-117.62 807.46,-97.87 775.94,-84.99"/>
<polygon fill="midnightblue" stroke="midnightblue" points="776.93,-81.61 766.35,-81.06 774.28,-88.09 776.93,-81.61"/>
</g>
<!-- Node22 -->
<g id="node22" class="node">
<title>Node22</title>
<g id="a_node22"><a xlink:title=" ">
<polygon fill="white" stroke="#bfbfbf" points="842.4,-56.5 842.4,-86.5 966.4,-86.5 966.4,-56.5 842.4,-56.5"/>
<text text-anchor="start" x="850.4" y="-74.5" font-family="Helvetica,sans-Serif" font-size="10.00">vsomeip/enumeration</text>
<text text-anchor="middle" x="904.4" y="-63.5" font-family="Helvetica,sans-Serif" font-size="10.00">_types.hpp</text>
</a>
</g>
</g>
<!-- Node21&#45;&gt;Node22 -->
<g id="edge30" class="edge">
<title>Node21&#45;&gt;Node22</title>
<path fill="none" stroke="midnightblue" d="M904.4,-128.73C904.4,-120.54 904.4,-107.92 904.4,-96.71"/>
<polygon fill="midnightblue" stroke="midnightblue" points="907.9,-96.59 904.4,-86.59 900.9,-96.59 907.9,-96.59"/>
</g>
<!-- Node23 -->
<g id="node23" class="node">
<title>Node23</title>
<g id="a_node23"><a xlink:title=" ">
<polygon fill="white" stroke="#bfbfbf" points="984.9,-62 984.9,-81 1163.9,-81 1163.9,-62 984.9,-62"/>
<text text-anchor="middle" x="1074.4" y="-69" font-family="Helvetica,sans-Serif" font-size="10.00">vsomeip/internal/serializable.hpp</text>
</a>
</g>
</g>
<!-- Node21&#45;&gt;Node23 -->
<g id="edge31" class="edge">
<title>Node21&#45;&gt;Node23</title>
<path fill="none" stroke="midnightblue" d="M926.98,-128.87C956.65,-117.52 1008.95,-97.52 1042.62,-84.65"/>
<polygon fill="midnightblue" stroke="midnightblue" points="1043.92,-87.9 1052.01,-81.06 1041.42,-81.37 1043.92,-87.9"/>
</g>
</g>
</svg>
