<?xml version="1.0" encoding="UTF-8" standalone="no"?>
<!DOCTYPE svg PUBLIC "-//W3C//DTD SVG 1.1//EN"
 "http://www.w3.org/Graphics/SVG/1.1/DTD/svg11.dtd">
<!-- Generated by graphviz version 2.43.0 (0)
 -->
<!-- Title: /home/kali/projects/vsomeip/implementation/compat/runtime/include/application_impl.hpp Pages: 1 -->
<svg width="746pt" height="307pt"
 viewBox="0.00 0.00 746.00 307.00" xmlns="http://www.w3.org/2000/svg" xmlns:xlink="http://www.w3.org/1999/xlink">
<g id="graph0" class="graph" transform="scale(1 1) rotate(0) translate(4 303)">
<title>/home/kali/projects/vsomeip/implementation/compat/runtime/include/application_impl.hpp</title>
<polygon fill="white" stroke="transparent" points="-4,4 -4,-303 742,-303 742,4 -4,4"/>
<!-- Node1 -->
<g id="node1" class="node">
<title>Node1</title>
<g id="a_node1"><a xlink:title=" ">
<polygon fill="#bfbfbf" stroke="black" points="49.5,-246.5 49.5,-298.5 192.5,-298.5 192.5,-246.5 49.5,-246.5"/>
<text text-anchor="start" x="57.5" y="-286.5" font-family="Helvetica,sans-Serif" font-size="10.00">/home/kali/projects</text>
<text text-anchor="start" x="57.5" y="-275.5" font-family="Helvetica,sans-Serif" font-size="10.00">/vsomeip/implementation</text>
<text text-anchor="start" x="57.5" y="-264.5" font-family="Helvetica,sans-Serif" font-size="10.00">/compat/runtime/include</text>
<text text-anchor="middle" x="121" y="-253.5" font-family="Helvetica,sans-Serif" font-size="10.00">/application_impl.hpp</text>
</a>
</g>
</g>
<!-- Node2 -->
<g id="node2" class="node">
<title>Node2</title>
<g id="a_node2"><a xlink:title=" ">
<polygon fill="white" stroke="#bfbfbf" points="0,-129 0,-148 38,-148 38,-129 0,-129"/>
<text text-anchor="middle" x="19" y="-136" font-family="Helvetica,sans-Serif" font-size="10.00">map</text>
</a>
</g>
</g>
<!-- Node1&#45;&gt;Node2 -->
<g id="edge1" class="edge">
<title>Node1&#45;&gt;Node2</title>
<path fill="none" stroke="midnightblue" d="M101.57,-246.36C81.06,-219.81 49.31,-178.73 31.76,-156.01"/>
<polygon fill="midnightblue" stroke="midnightblue" points="34.46,-153.79 25.58,-148.01 28.92,-158.07 34.46,-153.79"/>
</g>
<!-- Node3 -->
<g id="node3" class="node">
<title>Node3</title>
<g id="a_node3"><a xlink:title=" ">
<polygon fill="white" stroke="#bfbfbf" points="97,-190.5 97,-209.5 145,-209.5 145,-190.5 97,-190.5"/>
<text text-anchor="middle" x="121" y="-197.5" font-family="Helvetica,sans-Serif" font-size="10.00">mutex</text>
</a>
</g>
</g>
<!-- Node1&#45;&gt;Node3 -->
<g id="edge2" class="edge">
<title>Node1&#45;&gt;Node3</title>
<path fill="none" stroke="midnightblue" d="M121,-246.45C121,-237.73 121,-228.1 121,-219.96"/>
<polygon fill="midnightblue" stroke="midnightblue" points="124.5,-219.7 121,-209.7 117.5,-219.7 124.5,-219.7"/>
</g>
<!-- Node4 -->
<g id="node4" class="node">
<title>Node4</title>
<g id="a_node4"><a xlink:href="compat_2vsomeip_2application_8hpp.html" target="_top" xlink:title=" ">
<polygon fill="white" stroke="black" points="180,-190.5 180,-209.5 356,-209.5 356,-190.5 180,-190.5"/>
<text text-anchor="middle" x="268" y="-197.5" font-family="Helvetica,sans-Serif" font-size="10.00">compat/vsomeip/application.hpp</text>
</a>
</g>
</g>
<!-- Node1&#45;&gt;Node4 -->
<g id="edge3" class="edge">
<title>Node1&#45;&gt;Node4</title>
<path fill="none" stroke="midnightblue" d="M173.24,-246.45C196.15,-235.46 222.07,-223.03 241.01,-213.94"/>
<polygon fill="midnightblue" stroke="midnightblue" points="242.72,-217.01 250.22,-209.53 239.69,-210.7 242.72,-217.01"/>
</g>
<!-- Node4&#45;&gt;Node2 -->
<g id="edge7" class="edge">
<title>Node4&#45;&gt;Node2</title>
<path fill="none" stroke="midnightblue" d="M210.77,-190.43C166.74,-183.03 104.72,-170.87 52,-154 50.08,-153.38 48.12,-152.69 46.16,-151.96"/>
<polygon fill="midnightblue" stroke="midnightblue" points="47.13,-148.57 36.55,-148.02 44.47,-155.05 47.13,-148.57"/>
</g>
<!-- Node5 -->
<g id="node5" class="node">
<title>Node5</title>
<g id="a_node5"><a xlink:title=" ">
<polygon fill="white" stroke="#bfbfbf" points="688,-129 688,-148 738,-148 738,-129 688,-129"/>
<text text-anchor="middle" x="713" y="-136" font-family="Helvetica,sans-Serif" font-size="10.00">chrono</text>
</a>
</g>
</g>
<!-- Node4&#45;&gt;Node5 -->
<g id="edge4" class="edge">
<title>Node4&#45;&gt;Node5</title>
<path fill="none" stroke="midnightblue" d="M356.18,-195.47C439.14,-190.68 566.36,-179.56 674,-154 677,-153.29 680.08,-152.41 683.13,-151.45"/>
<polygon fill="midnightblue" stroke="midnightblue" points="684.35,-154.73 692.65,-148.14 682.05,-148.11 684.35,-154.73"/>
</g>
<!-- Node6 -->
<g id="node6" class="node">
<title>Node6</title>
<g id="a_node6"><a xlink:title=" ">
<polygon fill="white" stroke="#bfbfbf" points="545,-62 545,-81 603,-81 603,-62 545,-62"/>
<text text-anchor="middle" x="574" y="-69" font-family="Helvetica,sans-Serif" font-size="10.00">memory</text>
</a>
</g>
</g>
<!-- Node4&#45;&gt;Node6 -->
<g id="edge5" class="edge">
<title>Node4&#45;&gt;Node6</title>
<path fill="none" stroke="midnightblue" d="M356.11,-194.42C460.41,-188.09 622.39,-174.99 641,-154 661.54,-130.83 625.73,-102.72 599.04,-86.3"/>
<polygon fill="midnightblue" stroke="midnightblue" points="600.47,-83.08 590.09,-81 596.91,-89.1 600.47,-83.08"/>
</g>
<!-- Node7 -->
<g id="node7" class="node">
<title>Node7</title>
<g id="a_node7"><a xlink:title=" ">
<polygon fill="white" stroke="#bfbfbf" points="94,-129 94,-148 126,-148 126,-129 94,-129"/>
<text text-anchor="middle" x="110" y="-136" font-family="Helvetica,sans-Serif" font-size="10.00">set</text>
</a>
</g>
</g>
<!-- Node4&#45;&gt;Node7 -->
<g id="edge6" class="edge">
<title>Node4&#45;&gt;Node7</title>
<path fill="none" stroke="midnightblue" d="M237.23,-190.49C209.84,-182.47 168.96,-169.41 135,-154 134.3,-153.68 133.59,-153.35 132.88,-153"/>
<polygon fill="midnightblue" stroke="midnightblue" points="134.23,-149.76 123.76,-148.13 130.93,-155.93 134.23,-149.76"/>
</g>
<!-- Node8 -->
<g id="node8" class="node">
<title>Node8</title>
<g id="a_node8"><a xlink:title=" ">
<polygon fill="white" stroke="#bfbfbf" points="144.5,-129 144.5,-148 191.5,-148 191.5,-129 144.5,-129"/>
<text text-anchor="middle" x="168" y="-136" font-family="Helvetica,sans-Serif" font-size="10.00">vector</text>
</a>
</g>
</g>
<!-- Node4&#45;&gt;Node8 -->
<g id="edge8" class="edge">
<title>Node4&#45;&gt;Node8</title>
<path fill="none" stroke="midnightblue" d="M253.67,-190.48C237.34,-180.75 210.4,-164.73 191.09,-153.24"/>
<polygon fill="midnightblue" stroke="midnightblue" points="192.68,-150.11 182.3,-148.01 189.11,-156.13 192.68,-150.11"/>
</g>
<!-- Node9 -->
<g id="node9" class="node">
<title>Node9</title>
<g id="a_node9"><a xlink:href="interface_2compat_2vsomeip_2constants_8hpp.html" target="_top" xlink:title=" ">
<polygon fill="white" stroke="black" points="210,-123.5 210,-153.5 326,-153.5 326,-123.5 210,-123.5"/>
<text text-anchor="start" x="218" y="-141.5" font-family="Helvetica,sans-Serif" font-size="10.00">../../compat/vsomeip</text>
<text text-anchor="middle" x="268" y="-130.5" font-family="Helvetica,sans-Serif" font-size="10.00">/constants.hpp</text>
</a>
</g>
</g>
<!-- Node4&#45;&gt;Node9 -->
<g id="edge9" class="edge">
<title>Node4&#45;&gt;Node9</title>
<path fill="none" stroke="midnightblue" d="M268,-190.48C268,-183.47 268,-173.19 268,-163.7"/>
<polygon fill="midnightblue" stroke="midnightblue" points="271.5,-163.52 268,-153.52 264.5,-163.52 271.5,-163.52"/>
</g>
<!-- Node11 -->
<g id="node11" class="node">
<title>Node11</title>
<g id="a_node11"><a xlink:href="interface_2compat_2vsomeip_2enumeration__types_8hpp.html" target="_top" xlink:title=" ">
<polygon fill="white" stroke="black" points="85.5,-56.5 85.5,-86.5 220.5,-86.5 220.5,-56.5 85.5,-56.5"/>
<text text-anchor="start" x="93.5" y="-74.5" font-family="Helvetica,sans-Serif" font-size="10.00">../../compat/vsomeip</text>
<text text-anchor="middle" x="153" y="-63.5" font-family="Helvetica,sans-Serif" font-size="10.00">/enumeration_types.hpp</text>
</a>
</g>
</g>
<!-- Node4&#45;&gt;Node11 -->
<g id="edge17" class="edge">
<title>Node4&#45;&gt;Node11</title>
<path fill="none" stroke="midnightblue" d="M196.08,-190.46C151.02,-183.46 98.93,-171.77 85,-154 68.12,-132.46 93.7,-108.49 118.16,-92.15"/>
<polygon fill="midnightblue" stroke="midnightblue" points="120.15,-95.04 126.7,-86.71 116.39,-89.14 120.15,-95.04"/>
</g>
<!-- Node13 -->
<g id="node13" class="node">
<title>Node13</title>
<g id="a_node13"><a xlink:href="interface_2compat_2vsomeip_2primitive__types_8hpp.html" target="_top" xlink:title=" ">
<polygon fill="white" stroke="black" points="301.5,-56.5 301.5,-86.5 418.5,-86.5 418.5,-56.5 301.5,-56.5"/>
<text text-anchor="start" x="309.5" y="-74.5" font-family="Helvetica,sans-Serif" font-size="10.00">../../compat/vsomeip</text>
<text text-anchor="middle" x="360" y="-63.5" font-family="Helvetica,sans-Serif" font-size="10.00">/primitive_types.hpp</text>
</a>
</g>
</g>
<!-- Node4&#45;&gt;Node13 -->
<g id="edge25" class="edge">
<title>Node4&#45;&gt;Node13</title>
<path fill="none" stroke="midnightblue" d="M287.42,-190.47C302.45,-182.92 322.72,-170.54 335,-154 347.49,-137.17 353.81,-114.02 356.97,-96.69"/>
<polygon fill="midnightblue" stroke="midnightblue" points="360.43,-97.19 358.55,-86.77 353.52,-96.09 360.43,-97.19"/>
</g>
<!-- Node16 -->
<g id="node16" class="node">
<title>Node16</title>
<g id="a_node16"><a xlink:href="interface_2compat_2vsomeip_2function__types_8hpp.html" target="_top" xlink:title=" ">
<polygon fill="white" stroke="black" points="516,-123.5 516,-153.5 632,-153.5 632,-123.5 516,-123.5"/>
<text text-anchor="start" x="524" y="-141.5" font-family="Helvetica,sans-Serif" font-size="10.00">../../compat/vsomeip</text>
<text text-anchor="middle" x="574" y="-130.5" font-family="Helvetica,sans-Serif" font-size="10.00">/function_types.hpp</text>
</a>
</g>
</g>
<!-- Node4&#45;&gt;Node16 -->
<g id="edge18" class="edge">
<title>Node4&#45;&gt;Node16</title>
<path fill="none" stroke="midnightblue" d="M315.24,-190.5C361.33,-182.11 433.71,-168.71 505.75,-154.22"/>
<polygon fill="midnightblue" stroke="midnightblue" points="506.81,-157.58 515.92,-152.17 505.42,-150.72 506.81,-157.58"/>
</g>
<!-- Node18 -->
<g id="node18" class="node">
<title>Node18</title>
<g id="a_node18"><a xlink:href="compat_2vsomeip_2handler_8hpp.html" target="_top" xlink:title=" ">
<polygon fill="white" stroke="black" points="382,-123.5 382,-153.5 498,-153.5 498,-123.5 382,-123.5"/>
<text text-anchor="start" x="390" y="-141.5" font-family="Helvetica,sans-Serif" font-size="10.00">../../compat/vsomeip</text>
<text text-anchor="middle" x="440" y="-130.5" font-family="Helvetica,sans-Serif" font-size="10.00">/handler.hpp</text>
</a>
</g>
</g>
<!-- Node4&#45;&gt;Node18 -->
<g id="edge21" class="edge">
<title>Node4&#45;&gt;Node18</title>
<path fill="none" stroke="midnightblue" d="M292.64,-190.48C317.9,-181.74 357.88,-167.91 389.83,-156.86"/>
<polygon fill="midnightblue" stroke="midnightblue" points="391.16,-160.1 399.46,-153.52 388.87,-153.48 391.16,-160.1"/>
</g>
<!-- Node10 -->
<g id="node10" class="node">
<title>Node10</title>
<g id="a_node10"><a xlink:title=" ">
<polygon fill="white" stroke="#bfbfbf" points="239,-62 239,-81 283,-81 283,-62 239,-62"/>
<text text-anchor="middle" x="261" y="-69" font-family="Helvetica,sans-Serif" font-size="10.00">string</text>
</a>
</g>
</g>
<!-- Node9&#45;&gt;Node10 -->
<g id="edge10" class="edge">
<title>Node9&#45;&gt;Node10</title>
<path fill="none" stroke="midnightblue" d="M266.48,-123.4C265.47,-113.96 264.12,-101.45 263.01,-91.19"/>
<polygon fill="midnightblue" stroke="midnightblue" points="266.49,-90.76 261.94,-81.19 259.53,-91.51 266.49,-90.76"/>
</g>
<!-- Node9&#45;&gt;Node11 -->
<g id="edge11" class="edge">
<title>Node9&#45;&gt;Node11</title>
<path fill="none" stroke="midnightblue" d="M243.05,-123.4C226.62,-114.11 204.91,-101.84 186.92,-91.67"/>
<polygon fill="midnightblue" stroke="midnightblue" points="188.33,-88.45 177.9,-86.58 184.89,-94.54 188.33,-88.45"/>
</g>
<!-- Node9&#45;&gt;Node13 -->
<g id="edge13" class="edge">
<title>Node9&#45;&gt;Node13</title>
<path fill="none" stroke="midnightblue" d="M287.96,-123.4C300.74,-114.37 317.52,-102.51 331.67,-92.52"/>
<polygon fill="midnightblue" stroke="midnightblue" points="333.93,-95.21 340.08,-86.58 329.89,-89.49 333.93,-95.21"/>
</g>
<!-- Node12 -->
<g id="node12" class="node">
<title>Node12</title>
<g id="a_node12"><a xlink:title=" ">
<polygon fill="white" stroke="#bfbfbf" points="192,-0.5 192,-19.5 242,-19.5 242,-0.5 192,-0.5"/>
<text text-anchor="middle" x="217" y="-7.5" font-family="Helvetica,sans-Serif" font-size="10.00">cstdint</text>
</a>
</g>
</g>
<!-- Node11&#45;&gt;Node12 -->
<g id="edge12" class="edge">
<title>Node11&#45;&gt;Node12</title>
<path fill="none" stroke="midnightblue" d="M168.17,-56.4C177.75,-47.49 190.16,-35.95 200.07,-26.74"/>
<polygon fill="midnightblue" stroke="midnightblue" points="202.75,-29.03 207.69,-19.66 197.98,-23.9 202.75,-29.03"/>
</g>
<!-- Node13&#45;&gt;Node12 -->
<g id="edge15" class="edge">
<title>Node13&#45;&gt;Node12</title>
<path fill="none" stroke="midnightblue" d="M326.11,-56.4C302.12,-46.42 270.23,-33.15 247.12,-23.53"/>
<polygon fill="midnightblue" stroke="midnightblue" points="248.39,-20.27 237.81,-19.66 245.7,-26.73 248.39,-20.27"/>
</g>
<!-- Node14 -->
<g id="node14" class="node">
<title>Node14</title>
<g id="a_node14"><a xlink:title=" ">
<polygon fill="white" stroke="#bfbfbf" points="376,-0.5 376,-19.5 418,-19.5 418,-0.5 376,-0.5"/>
<text text-anchor="middle" x="397" y="-7.5" font-family="Helvetica,sans-Serif" font-size="10.00">array</text>
</a>
</g>
</g>
<!-- Node13&#45;&gt;Node14 -->
<g id="edge14" class="edge">
<title>Node13&#45;&gt;Node14</title>
<path fill="none" stroke="midnightblue" d="M368.77,-56.4C373.98,-48.02 380.63,-37.33 386.17,-28.42"/>
<polygon fill="midnightblue" stroke="midnightblue" points="389.31,-30 391.62,-19.66 383.36,-26.3 389.31,-30"/>
</g>
<!-- Node15 -->
<g id="node15" class="node">
<title>Node15</title>
<g id="a_node15"><a xlink:title=" ">
<polygon fill="white" stroke="#bfbfbf" points="286,-0.5 286,-19.5 358,-19.5 358,-0.5 286,-0.5"/>
<text text-anchor="middle" x="322" y="-7.5" font-family="Helvetica,sans-Serif" font-size="10.00">sys/types.h</text>
</a>
</g>
</g>
<!-- Node13&#45;&gt;Node15 -->
<g id="edge16" class="edge">
<title>Node13&#45;&gt;Node15</title>
<path fill="none" stroke="midnightblue" d="M350.99,-56.4C345.59,-47.93 338.67,-37.1 332.95,-28.14"/>
<polygon fill="midnightblue" stroke="midnightblue" points="335.86,-26.2 327.53,-19.66 329.96,-29.97 335.86,-26.2"/>
</g>
<!-- Node16&#45;&gt;Node6 -->
<g id="edge20" class="edge">
<title>Node16&#45;&gt;Node6</title>
<path fill="none" stroke="midnightblue" d="M574,-123.4C574,-114.06 574,-101.71 574,-91.52"/>
<polygon fill="midnightblue" stroke="midnightblue" points="577.5,-91.19 574,-81.19 570.5,-91.19 577.5,-91.19"/>
</g>
<!-- Node17 -->
<g id="node17" class="node">
<title>Node17</title>
<g id="a_node17"><a xlink:title=" ">
<polygon fill="white" stroke="#bfbfbf" points="446.5,-62 446.5,-81 511.5,-81 511.5,-62 446.5,-62"/>
<text text-anchor="middle" x="479" y="-69" font-family="Helvetica,sans-Serif" font-size="10.00">functional</text>
</a>
</g>
</g>
<!-- Node16&#45;&gt;Node17 -->
<g id="edge19" class="edge">
<title>Node16&#45;&gt;Node17</title>
<path fill="none" stroke="midnightblue" d="M553.39,-123.4C537.6,-112.6 515.91,-97.76 500.03,-86.89"/>
<polygon fill="midnightblue" stroke="midnightblue" points="501.66,-83.77 491.43,-81.01 497.71,-89.54 501.66,-83.77"/>
</g>
<!-- Node18&#45;&gt;Node6 -->
<g id="edge23" class="edge">
<title>Node18&#45;&gt;Node6</title>
<path fill="none" stroke="midnightblue" d="M469.08,-123.4C492.38,-112.09 524.81,-96.36 547.43,-85.39"/>
<polygon fill="midnightblue" stroke="midnightblue" points="548.99,-88.52 556.46,-81.01 545.94,-82.22 548.99,-88.52"/>
</g>
<!-- Node18&#45;&gt;Node13 -->
<g id="edge24" class="edge">
<title>Node18&#45;&gt;Node13</title>
<path fill="none" stroke="midnightblue" d="M422.64,-123.4C411.74,-114.54 397.49,-102.96 385.34,-93.09"/>
<polygon fill="midnightblue" stroke="midnightblue" points="387.29,-90.17 377.32,-86.58 382.88,-95.6 387.29,-90.17"/>
</g>
<!-- Node18&#45;&gt;Node17 -->
<g id="edge22" class="edge">
<title>Node18&#45;&gt;Node17</title>
<path fill="none" stroke="midnightblue" d="M448.46,-123.4C454.36,-113.56 462.27,-100.38 468.56,-89.89"/>
<polygon fill="midnightblue" stroke="midnightblue" points="471.64,-91.57 473.78,-81.19 465.64,-87.97 471.64,-91.57"/>
</g>
</g>
</svg>
