<?xml version="1.0" encoding="UTF-8" standalone="no"?>
<!DOCTYPE svg PUBLIC "-//W3C//DTD SVG 1.1//EN"
 "http://www.w3.org/Graphics/SVG/1.1/DTD/svg11.dtd">
<!-- Generated by graphviz version 2.43.0 (0)
 -->
<!-- Title: /home/kali/projects/vsomeip/implementation/compat/runtime/src/application_impl.cpp Pages: 1 -->
<svg width="1753pt" height="463pt"
 viewBox="0.00 0.00 1752.51 463.00" xmlns="http://www.w3.org/2000/svg" xmlns:xlink="http://www.w3.org/1999/xlink">
<g id="graph0" class="graph" transform="scale(1 1) rotate(0) translate(4 459)">
<title>/home/kali/projects/vsomeip/implementation/compat/runtime/src/application_impl.cpp</title>
<polygon fill="white" stroke="transparent" points="-4,4 -4,-459 1748.51,-459 1748.51,4 -4,4"/>
<!-- Node1 -->
<g id="node1" class="node">
<title>Node1</title>
<g id="a_node1"><a xlink:title=" ">
<polygon fill="#bfbfbf" stroke="black" points="608,-402.5 608,-454.5 780,-454.5 780,-402.5 608,-402.5"/>
<text text-anchor="start" x="616" y="-442.5" font-family="Helvetica,sans-Serif" font-size="10.00">/home/kali/projects</text>
<text text-anchor="start" x="616" y="-431.5" font-family="Helvetica,sans-Serif" font-size="10.00">/vsomeip/implementation</text>
<text text-anchor="start" x="616" y="-420.5" font-family="Helvetica,sans-Serif" font-size="10.00">/compat/runtime/src/application</text>
<text text-anchor="middle" x="694" y="-409.5" font-family="Helvetica,sans-Serif" font-size="10.00">_impl.cpp</text>
</a>
</g>
</g>
<!-- Node2 -->
<g id="node2" class="node">
<title>Node2</title>
<g id="a_node2"><a xlink:title=" ">
<polygon fill="white" stroke="#bfbfbf" points="303.5,-341 303.5,-360 440.5,-360 440.5,-341 303.5,-341"/>
<text text-anchor="middle" x="372" y="-348" font-family="Helvetica,sans-Serif" font-size="10.00">vsomeip/application.hpp</text>
</a>
</g>
</g>
<!-- Node1&#45;&gt;Node2 -->
<g id="edge1" class="edge">
<title>Node1&#45;&gt;Node2</title>
<path fill="none" stroke="midnightblue" d="M607.71,-407.13C546.71,-392.74 467.33,-374 418.02,-362.36"/>
<polygon fill="midnightblue" stroke="midnightblue" points="418.81,-358.95 408.28,-360.06 417.21,-365.77 418.81,-358.95"/>
</g>
<!-- Node3 -->
<g id="node3" class="node">
<title>Node3</title>
<g id="a_node3"><a xlink:title=" ">
<polygon fill="white" stroke="#bfbfbf" points="458.5,-341 458.5,-360 579.5,-360 579.5,-341 458.5,-341"/>
<text text-anchor="middle" x="519" y="-348" font-family="Helvetica,sans-Serif" font-size="10.00">vsomeip/runtime.hpp</text>
</a>
</g>
</g>
<!-- Node1&#45;&gt;Node3 -->
<g id="edge2" class="edge">
<title>Node1&#45;&gt;Node3</title>
<path fill="none" stroke="midnightblue" d="M636.21,-402.4C606.64,-389.56 571.92,-374.48 547.99,-364.09"/>
<polygon fill="midnightblue" stroke="midnightblue" points="549.32,-360.85 538.75,-360.08 546.53,-367.27 549.32,-360.85"/>
</g>
<!-- Node4 -->
<g id="node4" class="node">
<title>Node4</title>
<g id="a_node4"><a xlink:href="interface_2compat_2vsomeip_2runtime_8hpp.html" target="_top" xlink:title=" ">
<polygon fill="white" stroke="black" points="561.5,-140 561.5,-159 722.5,-159 722.5,-140 561.5,-140"/>
<text text-anchor="middle" x="642" y="-147" font-family="Helvetica,sans-Serif" font-size="10.00">compat/vsomeip/runtime.hpp</text>
</a>
</g>
</g>
<!-- Node1&#45;&gt;Node4 -->
<g id="edge3" class="edge">
<title>Node1&#45;&gt;Node4</title>
<path fill="none" stroke="midnightblue" d="M685.82,-402.26C682.45,-391.21 678.7,-378.05 676,-366 659.85,-293.99 648.59,-206.76 644.13,-169.19"/>
<polygon fill="midnightblue" stroke="midnightblue" points="647.6,-168.73 642.97,-159.2 640.65,-169.54 647.6,-168.73"/>
</g>
<!-- Node13 -->
<g id="node13" class="node">
<title>Node13</title>
<g id="a_node13"><a xlink:href="logger_8hpp.html" target="_top" xlink:title=" ">
<polygon fill="white" stroke="black" points="1567.5,-274 1567.5,-293 1720.5,-293 1720.5,-274 1567.5,-274"/>
<text text-anchor="middle" x="1644" y="-281" font-family="Helvetica,sans-Serif" font-size="10.00">vsomeip/internal/logger.hpp</text>
</a>
</g>
</g>
<!-- Node1&#45;&gt;Node13 -->
<g id="edge12" class="edge">
<title>Node1&#45;&gt;Node13</title>
<path fill="none" stroke="midnightblue" d="M780.17,-426.16C913.02,-422.71 1175.29,-410.33 1393,-366 1474.77,-349.35 1567.24,-315.14 1613.79,-296.78"/>
<polygon fill="midnightblue" stroke="midnightblue" points="1615.28,-299.96 1623.28,-293.01 1612.69,-293.45 1615.28,-299.96"/>
</g>
<!-- Node20 -->
<g id="node20" class="node">
<title>Node20</title>
<g id="a_node20"><a xlink:href="compat_2runtime_2include_2application__impl_8hpp.html" target="_top" xlink:title=" ">
<polygon fill="white" stroke="black" points="1054,-268.5 1054,-298.5 1172,-298.5 1172,-268.5 1054,-268.5"/>
<text text-anchor="start" x="1062" y="-286.5" font-family="Helvetica,sans-Serif" font-size="10.00">../include/application</text>
<text text-anchor="middle" x="1113" y="-275.5" font-family="Helvetica,sans-Serif" font-size="10.00">_impl.hpp</text>
</a>
</g>
</g>
<!-- Node1&#45;&gt;Node20 -->
<g id="edge20" class="edge">
<title>Node1&#45;&gt;Node20</title>
<path fill="none" stroke="midnightblue" d="M767.46,-402.43C852.03,-373.57 988.7,-326.92 1062.26,-301.82"/>
<polygon fill="midnightblue" stroke="midnightblue" points="1063.44,-305.11 1071.77,-298.57 1061.18,-298.49 1063.44,-305.11"/>
</g>
<!-- Node29 -->
<g id="node29" class="node">
<title>Node29</title>
<g id="a_node29"><a xlink:href="internal_8hpp.html" target="_top" xlink:title=" ">
<polygon fill="white" stroke="black" points="1268,-335.5 1268,-365.5 1384,-365.5 1384,-335.5 1268,-335.5"/>
<text text-anchor="start" x="1276" y="-353.5" font-family="Helvetica,sans-Serif" font-size="10.00">../../../configuration</text>
<text text-anchor="middle" x="1326" y="-342.5" font-family="Helvetica,sans-Serif" font-size="10.00">/include/internal.hpp</text>
</a>
</g>
</g>
<!-- Node1&#45;&gt;Node29 -->
<g id="edge43" class="edge">
<title>Node1&#45;&gt;Node29</title>
<path fill="none" stroke="midnightblue" d="M780.22,-417.13C907.11,-401.87 1141.61,-373.67 1257.5,-359.74"/>
<polygon fill="midnightblue" stroke="midnightblue" points="1258.16,-363.18 1267.67,-358.51 1257.32,-356.23 1258.16,-363.18"/>
</g>
<!-- Node33 -->
<g id="node33" class="node">
<title>Node33</title>
<g id="a_node33"><a xlink:href="compat_2message_2include_2message__impl_8hpp.html" target="_top" xlink:title=" ">
<polygon fill="white" stroke="black" points="684.5,-335.5 684.5,-365.5 801.5,-365.5 801.5,-335.5 684.5,-335.5"/>
<text text-anchor="start" x="692.5" y="-353.5" font-family="Helvetica,sans-Serif" font-size="10.00">../../message/include</text>
<text text-anchor="middle" x="743" y="-342.5" font-family="Helvetica,sans-Serif" font-size="10.00">/message_impl.hpp</text>
</a>
</g>
</g>
<!-- Node1&#45;&gt;Node33 -->
<g id="edge48" class="edge">
<title>Node1&#45;&gt;Node33</title>
<path fill="none" stroke="midnightblue" d="M710.32,-402.19C716.1,-393.22 722.58,-383.18 728.22,-374.42"/>
<polygon fill="midnightblue" stroke="midnightblue" points="731.27,-376.15 733.75,-365.85 725.39,-372.35 731.27,-376.15"/>
</g>
<!-- Node40 -->
<g id="node40" class="node">
<title>Node40</title>
<g id="a_node40"><a xlink:href="compat_2message_2include_2payload__impl_8hpp.html" target="_top" xlink:title=" ">
<polygon fill="white" stroke="black" points="4.5,-201.5 4.5,-231.5 121.5,-231.5 121.5,-201.5 4.5,-201.5"/>
<text text-anchor="start" x="12.5" y="-219.5" font-family="Helvetica,sans-Serif" font-size="10.00">../../message/include</text>
<text text-anchor="middle" x="63" y="-208.5" font-family="Helvetica,sans-Serif" font-size="10.00">/payload_impl.hpp</text>
</a>
</g>
</g>
<!-- Node1&#45;&gt;Node40 -->
<g id="edge63" class="edge">
<title>Node1&#45;&gt;Node40</title>
<path fill="none" stroke="midnightblue" d="M668.29,-402.41C642.94,-378.18 605.54,-343.88 588,-335 567.55,-324.64 269.66,-261.06 131.92,-231.98"/>
<polygon fill="midnightblue" stroke="midnightblue" points="132.4,-228.51 121.89,-229.87 130.95,-235.36 132.4,-228.51"/>
</g>
<!-- Node5 -->
<g id="node5" class="node">
<title>Node5</title>
<g id="a_node5"><a xlink:title=" ">
<polygon fill="white" stroke="#bfbfbf" points="1068,-73 1068,-92 1126,-92 1126,-73 1068,-73"/>
<text text-anchor="middle" x="1097" y="-80" font-family="Helvetica,sans-Serif" font-size="10.00">memory</text>
</a>
</g>
</g>
<!-- Node4&#45;&gt;Node5 -->
<g id="edge4" class="edge">
<title>Node4&#45;&gt;Node5</title>
<path fill="none" stroke="midnightblue" d="M713.12,-139.97C807.96,-128.47 970.76,-108.25 1030,-98 1039.03,-96.44 1048.69,-94.5 1057.79,-92.56"/>
<polygon fill="midnightblue" stroke="midnightblue" points="1058.73,-95.94 1067.75,-90.39 1057.24,-89.1 1058.73,-95.94"/>
</g>
<!-- Node6 -->
<g id="node6" class="node">
<title>Node6</title>
<g id="a_node6"><a xlink:title=" ">
<polygon fill="white" stroke="#bfbfbf" points="816,-73 816,-92 860,-92 860,-73 816,-73"/>
<text text-anchor="middle" x="838" y="-80" font-family="Helvetica,sans-Serif" font-size="10.00">string</text>
</a>
</g>
</g>
<!-- Node4&#45;&gt;Node6 -->
<g id="edge5" class="edge">
<title>Node4&#45;&gt;Node6</title>
<path fill="none" stroke="midnightblue" d="M674.71,-139.95C708.33,-130.83 761.98,-115.32 807,-98 808.42,-97.45 809.87,-96.87 811.32,-96.27"/>
<polygon fill="midnightblue" stroke="midnightblue" points="813.08,-99.31 820.81,-92.07 810.25,-92.91 813.08,-99.31"/>
</g>
<!-- Node7 -->
<g id="node7" class="node">
<title>Node7</title>
<g id="a_node7"><a xlink:title=" ">
<polygon fill="white" stroke="#bfbfbf" points="576.5,-73 576.5,-92 623.5,-92 623.5,-73 576.5,-73"/>
<text text-anchor="middle" x="600" y="-80" font-family="Helvetica,sans-Serif" font-size="10.00">vector</text>
</a>
</g>
</g>
<!-- Node4&#45;&gt;Node7 -->
<g id="edge6" class="edge">
<title>Node4&#45;&gt;Node7</title>
<path fill="none" stroke="midnightblue" d="M636.34,-139.73C629.91,-129.79 619.28,-113.34 611.17,-100.79"/>
<polygon fill="midnightblue" stroke="midnightblue" points="613.94,-98.63 605.57,-92.13 608.06,-102.43 613.94,-98.63"/>
</g>
<!-- Node8 -->
<g id="node8" class="node">
<title>Node8</title>
<g id="a_node8"><a xlink:href="compat_2vsomeip_2export_8hpp.html" target="_top" xlink:title=" ">
<polygon fill="white" stroke="black" points="313,-0.5 313,-30.5 429,-30.5 429,-0.5 313,-0.5"/>
<text text-anchor="start" x="321" y="-18.5" font-family="Helvetica,sans-Serif" font-size="10.00">../../compat/vsomeip</text>
<text text-anchor="middle" x="371" y="-7.5" font-family="Helvetica,sans-Serif" font-size="10.00">/export.hpp</text>
</a>
</g>
</g>
<!-- Node4&#45;&gt;Node8 -->
<g id="edge7" class="edge">
<title>Node4&#45;&gt;Node8</title>
<path fill="none" stroke="midnightblue" d="M644.02,-139.79C647.29,-123.26 651.63,-87.19 633,-67 607.42,-39.27 508.32,-26.38 439.61,-20.68"/>
<polygon fill="midnightblue" stroke="midnightblue" points="439.53,-17.16 429.29,-19.85 438.98,-24.14 439.53,-17.16"/>
</g>
<!-- Node9 -->
<g id="node9" class="node">
<title>Node9</title>
<g id="a_node9"><a xlink:href="interface_2compat_2vsomeip_2primitive__types_8hpp.html" target="_top" xlink:title=" ">
<polygon fill="white" stroke="black" points="680.5,-67.5 680.5,-97.5 797.5,-97.5 797.5,-67.5 680.5,-67.5"/>
<text text-anchor="start" x="688.5" y="-85.5" font-family="Helvetica,sans-Serif" font-size="10.00">../../compat/vsomeip</text>
<text text-anchor="middle" x="739" y="-74.5" font-family="Helvetica,sans-Serif" font-size="10.00">/primitive_types.hpp</text>
</a>
</g>
</g>
<!-- Node4&#45;&gt;Node9 -->
<g id="edge8" class="edge">
<title>Node4&#45;&gt;Node9</title>
<path fill="none" stroke="midnightblue" d="M655.08,-139.73C668.95,-130.44 691.3,-115.46 709.46,-103.3"/>
<polygon fill="midnightblue" stroke="midnightblue" points="711.62,-106.06 717.97,-97.59 707.72,-100.25 711.62,-106.06"/>
</g>
<!-- Node10 -->
<g id="node10" class="node">
<title>Node10</title>
<g id="a_node10"><a xlink:title=" ">
<polygon fill="white" stroke="#bfbfbf" points="680,-6 680,-25 722,-25 722,-6 680,-6"/>
<text text-anchor="middle" x="701" y="-13" font-family="Helvetica,sans-Serif" font-size="10.00">array</text>
</a>
</g>
</g>
<!-- Node9&#45;&gt;Node10 -->
<g id="edge9" class="edge">
<title>Node9&#45;&gt;Node10</title>
<path fill="none" stroke="midnightblue" d="M730.75,-67.4C725.01,-57.56 717.3,-44.38 711.17,-33.89"/>
<polygon fill="midnightblue" stroke="midnightblue" points="714.15,-32.06 706.08,-25.19 708.11,-35.59 714.15,-32.06"/>
</g>
<!-- Node11 -->
<g id="node11" class="node">
<title>Node11</title>
<g id="a_node11"><a xlink:title=" ">
<polygon fill="white" stroke="#bfbfbf" points="1157,-6 1157,-25 1207,-25 1207,-6 1157,-6"/>
<text text-anchor="middle" x="1182" y="-13" font-family="Helvetica,sans-Serif" font-size="10.00">cstdint</text>
</a>
</g>
</g>
<!-- Node9&#45;&gt;Node11 -->
<g id="edge10" class="edge">
<title>Node9&#45;&gt;Node11</title>
<path fill="none" stroke="midnightblue" d="M797.55,-68.72C800.74,-68.11 803.91,-67.54 807,-67 931.41,-45.39 1080.41,-27.76 1146.93,-20.32"/>
<polygon fill="midnightblue" stroke="midnightblue" points="1147.33,-23.8 1156.88,-19.21 1146.56,-16.84 1147.33,-23.8"/>
</g>
<!-- Node12 -->
<g id="node12" class="node">
<title>Node12</title>
<g id="a_node12"><a xlink:title=" ">
<polygon fill="white" stroke="#bfbfbf" points="740,-6 740,-25 812,-25 812,-6 740,-6"/>
<text text-anchor="middle" x="776" y="-13" font-family="Helvetica,sans-Serif" font-size="10.00">sys/types.h</text>
</a>
</g>
</g>
<!-- Node9&#45;&gt;Node12 -->
<g id="edge11" class="edge">
<title>Node9&#45;&gt;Node12</title>
<path fill="none" stroke="midnightblue" d="M747.03,-67.4C752.63,-57.56 760.13,-44.38 766.1,-33.89"/>
<polygon fill="midnightblue" stroke="midnightblue" points="769.15,-35.62 771.05,-25.19 763.06,-32.15 769.15,-35.62"/>
</g>
<!-- Node13&#45;&gt;Node11 -->
<g id="edge14" class="edge">
<title>Node13&#45;&gt;Node11</title>
<path fill="none" stroke="midnightblue" d="M1678.43,-273.97C1699.92,-266.67 1725.92,-253.77 1739,-232 1746.1,-220.19 1746.47,-212.58 1739,-201 1679.9,-109.37 1330.17,-41.97 1217.18,-22.35"/>
<polygon fill="midnightblue" stroke="midnightblue" points="1217.76,-18.9 1207.31,-20.66 1216.57,-25.8 1217.76,-18.9"/>
</g>
<!-- Node14 -->
<g id="node14" class="node">
<title>Node14</title>
<g id="a_node14"><a xlink:title=" ">
<polygon fill="white" stroke="#bfbfbf" points="1532,-140 1532,-159 1582,-159 1582,-140 1532,-140"/>
<text text-anchor="middle" x="1557" y="-147" font-family="Helvetica,sans-Serif" font-size="10.00">chrono</text>
</a>
</g>
</g>
<!-- Node13&#45;&gt;Node14 -->
<g id="edge13" class="edge">
<title>Node13&#45;&gt;Node14</title>
<path fill="none" stroke="midnightblue" d="M1643.89,-273.89C1643.31,-258.15 1640.22,-224.2 1625,-201 1614.81,-185.47 1598.12,-172.97 1583.82,-164.29"/>
<polygon fill="midnightblue" stroke="midnightblue" points="1585.28,-161.09 1574.87,-159.14 1581.8,-167.16 1585.28,-161.09"/>
</g>
<!-- Node15 -->
<g id="node15" class="node">
<title>Node15</title>
<g id="a_node15"><a xlink:title=" ">
<polygon fill="white" stroke="#bfbfbf" points="1276,-207 1276,-226 1324,-226 1324,-207 1276,-207"/>
<text text-anchor="middle" x="1300" y="-214" font-family="Helvetica,sans-Serif" font-size="10.00">mutex</text>
</a>
</g>
</g>
<!-- Node13&#45;&gt;Node15 -->
<g id="edge15" class="edge">
<title>Node13&#45;&gt;Node15</title>
<path fill="none" stroke="midnightblue" d="M1593.99,-274C1582.19,-272.01 1569.65,-269.91 1558,-268 1458.07,-251.58 1430.15,-260.6 1333,-232 1330.85,-231.37 1328.66,-230.63 1326.48,-229.83"/>
<polygon fill="midnightblue" stroke="midnightblue" points="1327.74,-226.56 1317.16,-226.03 1325.1,-233.04 1327.74,-226.56"/>
</g>
<!-- Node16 -->
<g id="node16" class="node">
<title>Node16</title>
<g id="a_node16"><a xlink:title=" ">
<polygon fill="white" stroke="#bfbfbf" points="1672.5,-207 1672.5,-226 1729.5,-226 1729.5,-207 1672.5,-207"/>
<text text-anchor="middle" x="1701" y="-214" font-family="Helvetica,sans-Serif" font-size="10.00">ostream</text>
</a>
</g>
</g>
<!-- Node13&#45;&gt;Node16 -->
<g id="edge16" class="edge">
<title>Node13&#45;&gt;Node16</title>
<path fill="none" stroke="midnightblue" d="M1651.69,-273.73C1660.66,-263.5 1675.69,-246.36 1686.8,-233.69"/>
<polygon fill="midnightblue" stroke="midnightblue" points="1689.47,-235.95 1693.43,-226.13 1684.21,-231.34 1689.47,-235.95"/>
</g>
<!-- Node17 -->
<g id="node17" class="node">
<title>Node17</title>
<g id="a_node17"><a xlink:title=" ">
<polygon fill="white" stroke="#bfbfbf" points="1342,-207 1342,-226 1398,-226 1398,-207 1342,-207"/>
<text text-anchor="middle" x="1370" y="-214" font-family="Helvetica,sans-Serif" font-size="10.00">sstream</text>
</a>
</g>
</g>
<!-- Node13&#45;&gt;Node17 -->
<g id="edge17" class="edge">
<title>Node13&#45;&gt;Node17</title>
<path fill="none" stroke="midnightblue" d="M1593.26,-273.98C1545.08,-265.33 1470.88,-250.6 1408,-232 1405.42,-231.24 1402.77,-230.38 1400.13,-229.48"/>
<polygon fill="midnightblue" stroke="midnightblue" points="1401.3,-226.18 1390.71,-226.06 1398.92,-232.76 1401.3,-226.18"/>
</g>
<!-- Node18 -->
<g id="node18" class="node">
<title>Node18</title>
<g id="a_node18"><a xlink:title=" ">
<polygon fill="white" stroke="#bfbfbf" points="1416.5,-207 1416.5,-226 1483.5,-226 1483.5,-207 1416.5,-207"/>
<text text-anchor="middle" x="1450" y="-214" font-family="Helvetica,sans-Serif" font-size="10.00">streambuf</text>
</a>
</g>
</g>
<!-- Node13&#45;&gt;Node18 -->
<g id="edge18" class="edge">
<title>Node13&#45;&gt;Node18</title>
<path fill="none" stroke="midnightblue" d="M1618.34,-273.94C1588.3,-263.91 1537.02,-246.78 1493,-232 1490.43,-231.14 1487.77,-230.24 1485.1,-229.34"/>
<polygon fill="midnightblue" stroke="midnightblue" points="1486.06,-225.97 1475.46,-226.1 1483.82,-232.61 1486.06,-225.97"/>
</g>
<!-- Node19 -->
<g id="node19" class="node">
<title>Node19</title>
<g id="a_node19"><a xlink:title=" ">
<polygon fill="white" stroke="#bfbfbf" points="1502,-207 1502,-226 1616,-226 1616,-207 1502,-207"/>
<text text-anchor="middle" x="1559" y="-214" font-family="Helvetica,sans-Serif" font-size="10.00">vsomeip/export.hpp</text>
</a>
</g>
</g>
<!-- Node13&#45;&gt;Node19 -->
<g id="edge19" class="edge">
<title>Node13&#45;&gt;Node19</title>
<path fill="none" stroke="midnightblue" d="M1632.54,-273.73C1618.64,-263.11 1595.02,-245.05 1578.31,-232.26"/>
<polygon fill="midnightblue" stroke="midnightblue" points="1580.35,-229.42 1570.28,-226.13 1576.1,-234.98 1580.35,-229.42"/>
</g>
<!-- Node20&#45;&gt;Node15 -->
<g id="edge22" class="edge">
<title>Node20&#45;&gt;Node15</title>
<path fill="none" stroke="midnightblue" d="M1153.58,-268.4C1187.21,-256.7 1234.47,-240.28 1266.11,-229.28"/>
<polygon fill="midnightblue" stroke="midnightblue" points="1267.5,-232.5 1275.79,-225.91 1265.2,-225.89 1267.5,-232.5"/>
</g>
<!-- Node21 -->
<g id="node21" class="node">
<title>Node21</title>
<g id="a_node21"><a xlink:title=" ">
<polygon fill="white" stroke="#bfbfbf" points="1345,-140 1345,-159 1383,-159 1383,-140 1345,-140"/>
<text text-anchor="middle" x="1364" y="-147" font-family="Helvetica,sans-Serif" font-size="10.00">map</text>
</a>
</g>
</g>
<!-- Node20&#45;&gt;Node21 -->
<g id="edge21" class="edge">
<title>Node20&#45;&gt;Node21</title>
<path fill="none" stroke="midnightblue" d="M1135.38,-268.43C1151.08,-258.45 1172.49,-244.65 1191,-232 1210.45,-218.7 1213.12,-211.92 1234,-201 1276.6,-178.72 1291.88,-184.1 1336,-165 1337.03,-164.55 1338.07,-164.09 1339.12,-163.6"/>
<polygon fill="midnightblue" stroke="midnightblue" points="1341.05,-166.56 1348.49,-159.02 1337.97,-160.27 1341.05,-166.56"/>
</g>
<!-- Node22 -->
<g id="node22" class="node">
<title>Node22</title>
<g id="a_node22"><a xlink:href="compat_2vsomeip_2application_8hpp.html" target="_top" xlink:title=" ">
<polygon fill="white" stroke="black" points="1006,-207 1006,-226 1182,-226 1182,-207 1006,-207"/>
<text text-anchor="middle" x="1094" y="-214" font-family="Helvetica,sans-Serif" font-size="10.00">compat/vsomeip/application.hpp</text>
</a>
</g>
</g>
<!-- Node20&#45;&gt;Node22 -->
<g id="edge23" class="edge">
<title>Node20&#45;&gt;Node22</title>
<path fill="none" stroke="midnightblue" d="M1108.88,-268.4C1106.09,-258.86 1102.38,-246.18 1099.37,-235.86"/>
<polygon fill="midnightblue" stroke="midnightblue" points="1102.71,-234.81 1096.54,-226.19 1095.99,-236.77 1102.71,-234.81"/>
</g>
<!-- Node22&#45;&gt;Node5 -->
<g id="edge25" class="edge">
<title>Node22&#45;&gt;Node5</title>
<path fill="none" stroke="midnightblue" d="M1114.8,-206.99C1131.49,-198.91 1153.76,-185.01 1164,-165 1170.28,-152.73 1170.15,-146.33 1164,-134 1155.95,-117.85 1140,-105.51 1125.69,-97.07"/>
<polygon fill="midnightblue" stroke="midnightblue" points="1127.07,-93.83 1116.62,-92.08 1123.69,-99.97 1127.07,-93.83"/>
</g>
<!-- Node22&#45;&gt;Node7 -->
<g id="edge28" class="edge">
<title>Node22&#45;&gt;Node7</title>
<path fill="none" stroke="midnightblue" d="M1040.93,-207C1026.39,-204.84 1010.61,-202.67 996,-201 946.83,-195.37 585.55,-201.39 552,-165 533.31,-144.74 559.77,-116 580.21,-98.62"/>
<polygon fill="midnightblue" stroke="midnightblue" points="582.63,-101.16 588.18,-92.14 578.21,-95.73 582.63,-101.16"/>
</g>
<!-- Node22&#45;&gt;Node9 -->
<g id="edge42" class="edge">
<title>Node22&#45;&gt;Node9</title>
<path fill="none" stroke="midnightblue" d="M1037.01,-206.98C944.73,-193.14 772.59,-167.1 770,-165 752.79,-151.06 745.13,-126.44 741.72,-107.89"/>
<polygon fill="midnightblue" stroke="midnightblue" points="745.15,-107.16 740.16,-97.81 738.23,-108.22 745.15,-107.16"/>
</g>
<!-- Node22&#45;&gt;Node14 -->
<g id="edge24" class="edge">
<title>Node22&#45;&gt;Node14</title>
<path fill="none" stroke="midnightblue" d="M1155.01,-206.94C1253.15,-193.16 1443.05,-166.5 1521.63,-155.47"/>
<polygon fill="midnightblue" stroke="midnightblue" points="1522.54,-158.87 1531.96,-154.02 1521.57,-151.94 1522.54,-158.87"/>
</g>
<!-- Node22&#45;&gt;Node21 -->
<g id="edge27" class="edge">
<title>Node22&#45;&gt;Node21</title>
<path fill="none" stroke="midnightblue" d="M1158.22,-206.97C1207.76,-199.24 1277.47,-185.82 1336,-165 1337.25,-164.56 1338.51,-164.07 1339.77,-163.54"/>
<polygon fill="midnightblue" stroke="midnightblue" points="1341.66,-166.52 1349.22,-159.1 1338.69,-160.19 1341.66,-166.52"/>
</g>
<!-- Node23 -->
<g id="node23" class="node">
<title>Node23</title>
<g id="a_node23"><a xlink:title=" ">
<polygon fill="white" stroke="#bfbfbf" points="989,-140 989,-159 1021,-159 1021,-140 989,-140"/>
<text text-anchor="middle" x="1005" y="-147" font-family="Helvetica,sans-Serif" font-size="10.00">set</text>
</a>
</g>
</g>
<!-- Node22&#45;&gt;Node23 -->
<g id="edge26" class="edge">
<title>Node22&#45;&gt;Node23</title>
<path fill="none" stroke="midnightblue" d="M1082,-206.73C1067.45,-196.11 1042.72,-178.05 1025.22,-165.26"/>
<polygon fill="midnightblue" stroke="midnightblue" points="1026.95,-162.2 1016.81,-159.13 1022.82,-167.85 1026.95,-162.2"/>
</g>
<!-- Node24 -->
<g id="node24" class="node">
<title>Node24</title>
<g id="a_node24"><a xlink:href="interface_2compat_2vsomeip_2constants_8hpp.html" target="_top" xlink:title=" ">
<polygon fill="white" stroke="black" points="779,-134.5 779,-164.5 895,-164.5 895,-134.5 779,-134.5"/>
<text text-anchor="start" x="787" y="-152.5" font-family="Helvetica,sans-Serif" font-size="10.00">../../compat/vsomeip</text>
<text text-anchor="middle" x="837" y="-141.5" font-family="Helvetica,sans-Serif" font-size="10.00">/constants.hpp</text>
</a>
</g>
</g>
<!-- Node22&#45;&gt;Node24 -->
<g id="edge29" class="edge">
<title>Node22&#45;&gt;Node24</title>
<path fill="none" stroke="midnightblue" d="M1060.14,-206.94C1020.14,-196.82 952.7,-179.76 902.4,-167.04"/>
<polygon fill="midnightblue" stroke="midnightblue" points="903.14,-163.62 892.59,-164.56 901.42,-170.4 903.14,-163.62"/>
</g>
<!-- Node25 -->
<g id="node25" class="node">
<title>Node25</title>
<g id="a_node25"><a xlink:href="interface_2compat_2vsomeip_2enumeration__types_8hpp.html" target="_top" xlink:title=" ">
<polygon fill="white" stroke="black" points="885.5,-67.5 885.5,-97.5 1020.5,-97.5 1020.5,-67.5 885.5,-67.5"/>
<text text-anchor="start" x="893.5" y="-85.5" font-family="Helvetica,sans-Serif" font-size="10.00">../../compat/vsomeip</text>
<text text-anchor="middle" x="953" y="-74.5" font-family="Helvetica,sans-Serif" font-size="10.00">/enumeration_types.hpp</text>
</a>
</g>
</g>
<!-- Node22&#45;&gt;Node25 -->
<g id="edge34" class="edge">
<title>Node22&#45;&gt;Node25</title>
<path fill="none" stroke="midnightblue" d="M1055.38,-206.99C1030.72,-199.69 999.78,-186.8 980,-165 965.58,-149.11 958.84,-125.32 955.7,-107.54"/>
<polygon fill="midnightblue" stroke="midnightblue" points="959.16,-106.99 954.21,-97.62 952.24,-108.03 959.16,-106.99"/>
</g>
<!-- Node26 -->
<g id="node26" class="node">
<title>Node26</title>
<g id="a_node26"><a xlink:href="interface_2compat_2vsomeip_2function__types_8hpp.html" target="_top" xlink:title=" ">
<polygon fill="white" stroke="black" points="1211,-134.5 1211,-164.5 1327,-164.5 1327,-134.5 1211,-134.5"/>
<text text-anchor="start" x="1219" y="-152.5" font-family="Helvetica,sans-Serif" font-size="10.00">../../compat/vsomeip</text>
<text text-anchor="middle" x="1269" y="-141.5" font-family="Helvetica,sans-Serif" font-size="10.00">/function_types.hpp</text>
</a>
</g>
</g>
<!-- Node22&#45;&gt;Node26 -->
<g id="edge35" class="edge">
<title>Node22&#45;&gt;Node26</title>
<path fill="none" stroke="midnightblue" d="M1117.24,-206.87C1143.73,-197.03 1187.72,-180.69 1221.54,-168.13"/>
<polygon fill="midnightblue" stroke="midnightblue" points="1223.08,-171.29 1231.23,-164.53 1220.64,-164.73 1223.08,-171.29"/>
</g>
<!-- Node28 -->
<g id="node28" class="node">
<title>Node28</title>
<g id="a_node28"><a xlink:href="compat_2vsomeip_2handler_8hpp.html" target="_top" xlink:title=" ">
<polygon fill="white" stroke="black" points="1039,-134.5 1039,-164.5 1155,-164.5 1155,-134.5 1039,-134.5"/>
<text text-anchor="start" x="1047" y="-152.5" font-family="Helvetica,sans-Serif" font-size="10.00">../../compat/vsomeip</text>
<text text-anchor="middle" x="1097" y="-141.5" font-family="Helvetica,sans-Serif" font-size="10.00">/handler.hpp</text>
</a>
</g>
</g>
<!-- Node22&#45;&gt;Node28 -->
<g id="edge38" class="edge">
<title>Node22&#45;&gt;Node28</title>
<path fill="none" stroke="midnightblue" d="M1094.4,-206.73C1094.78,-198.54 1095.37,-185.92 1095.88,-174.71"/>
<polygon fill="midnightblue" stroke="midnightblue" points="1099.38,-174.74 1096.35,-164.59 1092.39,-174.42 1099.38,-174.74"/>
</g>
<!-- Node24&#45;&gt;Node6 -->
<g id="edge30" class="edge">
<title>Node24&#45;&gt;Node6</title>
<path fill="none" stroke="midnightblue" d="M837.22,-134.4C837.36,-125.06 837.55,-112.71 837.71,-102.52"/>
<polygon fill="midnightblue" stroke="midnightblue" points="841.21,-102.25 837.87,-92.19 834.21,-102.14 841.21,-102.25"/>
</g>
<!-- Node24&#45;&gt;Node9 -->
<g id="edge33" class="edge">
<title>Node24&#45;&gt;Node9</title>
<path fill="none" stroke="midnightblue" d="M815.74,-134.4C801.99,-125.28 783.91,-113.29 768.76,-103.24"/>
<polygon fill="midnightblue" stroke="midnightblue" points="770.49,-100.19 760.22,-97.58 766.62,-106.02 770.49,-100.19"/>
</g>
<!-- Node24&#45;&gt;Node25 -->
<g id="edge31" class="edge">
<title>Node24&#45;&gt;Node25</title>
<path fill="none" stroke="midnightblue" d="M862.17,-134.4C878.74,-125.11 900.64,-112.84 918.78,-102.67"/>
<polygon fill="midnightblue" stroke="midnightblue" points="920.87,-105.52 927.88,-97.58 917.44,-99.41 920.87,-105.52"/>
</g>
<!-- Node25&#45;&gt;Node11 -->
<g id="edge32" class="edge">
<title>Node25&#45;&gt;Node11</title>
<path fill="none" stroke="midnightblue" d="M1002.41,-67.48C1045.98,-55.11 1108.38,-37.4 1146.99,-26.44"/>
<polygon fill="midnightblue" stroke="midnightblue" points="1148.07,-29.77 1156.74,-23.67 1146.16,-23.03 1148.07,-29.77"/>
</g>
<!-- Node26&#45;&gt;Node5 -->
<g id="edge37" class="edge">
<title>Node26&#45;&gt;Node5</title>
<path fill="none" stroke="midnightblue" d="M1231.68,-134.4C1201.1,-122.84 1158.27,-106.66 1129.18,-95.66"/>
<polygon fill="midnightblue" stroke="midnightblue" points="1130.1,-92.27 1119.51,-92.01 1127.63,-98.82 1130.1,-92.27"/>
</g>
<!-- Node27 -->
<g id="node27" class="node">
<title>Node27</title>
<g id="a_node27"><a xlink:title=" ">
<polygon fill="white" stroke="#bfbfbf" points="1190.5,-73 1190.5,-92 1255.5,-92 1255.5,-73 1190.5,-73"/>
<text text-anchor="middle" x="1223" y="-80" font-family="Helvetica,sans-Serif" font-size="10.00">functional</text>
</a>
</g>
</g>
<!-- Node26&#45;&gt;Node27 -->
<g id="edge36" class="edge">
<title>Node26&#45;&gt;Node27</title>
<path fill="none" stroke="midnightblue" d="M1259.02,-134.4C1251.99,-124.46 1242.54,-111.11 1235.08,-100.57"/>
<polygon fill="midnightblue" stroke="midnightblue" points="1237.79,-98.34 1229.15,-92.19 1232.07,-102.38 1237.79,-98.34"/>
</g>
<!-- Node28&#45;&gt;Node5 -->
<g id="edge40" class="edge">
<title>Node28&#45;&gt;Node5</title>
<path fill="none" stroke="midnightblue" d="M1097,-134.4C1097,-125.06 1097,-112.71 1097,-102.52"/>
<polygon fill="midnightblue" stroke="midnightblue" points="1100.5,-102.19 1097,-92.19 1093.5,-102.19 1100.5,-102.19"/>
</g>
<!-- Node28&#45;&gt;Node9 -->
<g id="edge41" class="edge">
<title>Node28&#45;&gt;Node9</title>
<path fill="none" stroke="midnightblue" d="M1038.93,-135.74C1035.92,-135.13 1032.92,-134.55 1030,-134 934.43,-115.96 907.36,-116.42 807.47,-98.02"/>
<polygon fill="midnightblue" stroke="midnightblue" points="808.04,-94.57 797.57,-96.18 806.76,-101.45 808.04,-94.57"/>
</g>
<!-- Node28&#45;&gt;Node27 -->
<g id="edge39" class="edge">
<title>Node28&#45;&gt;Node27</title>
<path fill="none" stroke="midnightblue" d="M1124.34,-134.4C1146.06,-123.19 1176.2,-107.64 1197.44,-96.69"/>
<polygon fill="midnightblue" stroke="midnightblue" points="1199.23,-99.7 1206.51,-92.01 1196.02,-93.48 1199.23,-99.7"/>
</g>
<!-- Node29&#45;&gt;Node11 -->
<g id="edge44" class="edge">
<title>Node29&#45;&gt;Node11</title>
<path fill="none" stroke="midnightblue" d="M1282.25,-335.32C1265.32,-327.45 1247.71,-315.77 1238,-299 1231.1,-287.08 1235.21,-281.49 1238,-268 1244.58,-236.23 1242.63,-222.43 1267,-201 1310.41,-162.82 1357.23,-211.19 1392,-165 1400.29,-153.99 1398.97,-145.89 1392,-134 1354.12,-69.4 1266.33,-37.66 1217.09,-24.43"/>
<polygon fill="midnightblue" stroke="midnightblue" points="1217.76,-20.99 1207.21,-21.89 1216.02,-27.77 1217.76,-20.99"/>
</g>
<!-- Node30 -->
<g id="node30" class="node">
<title>Node30</title>
<g id="a_node30"><a xlink:title=" ">
<polygon fill="white" stroke="#bfbfbf" points="1505,-274 1505,-293 1549,-293 1549,-274 1505,-274"/>
<text text-anchor="middle" x="1527" y="-281" font-family="Helvetica,sans-Serif" font-size="10.00">limits</text>
</a>
</g>
</g>
<!-- Node29&#45;&gt;Node30 -->
<g id="edge45" class="edge">
<title>Node29&#45;&gt;Node30</title>
<path fill="none" stroke="midnightblue" d="M1380.66,-335.49C1414.33,-326.31 1458.15,-313.38 1496,-299 1497.42,-298.46 1498.87,-297.88 1500.33,-297.28"/>
<polygon fill="midnightblue" stroke="midnightblue" points="1502.08,-300.33 1509.82,-293.09 1499.25,-293.93 1502.08,-300.33"/>
</g>
<!-- Node31 -->
<g id="node31" class="node">
<title>Node31</title>
<g id="a_node31"><a xlink:title=" ">
<polygon fill="white" stroke="#bfbfbf" points="1246.5,-274 1246.5,-293 1405.5,-293 1405.5,-274 1246.5,-274"/>
<text text-anchor="middle" x="1326" y="-281" font-family="Helvetica,sans-Serif" font-size="10.00">vsomeip/primitive_types.hpp</text>
</a>
</g>
</g>
<!-- Node29&#45;&gt;Node31 -->
<g id="edge46" class="edge">
<title>Node29&#45;&gt;Node31</title>
<path fill="none" stroke="midnightblue" d="M1326,-335.4C1326,-326.06 1326,-313.71 1326,-303.52"/>
<polygon fill="midnightblue" stroke="midnightblue" points="1329.5,-303.19 1326,-293.19 1322.5,-303.19 1329.5,-303.19"/>
</g>
<!-- Node32 -->
<g id="node32" class="node">
<title>Node32</title>
<g id="a_node32"><a xlink:title=" ">
<polygon fill="white" stroke="#bfbfbf" points="1423.5,-274 1423.5,-293 1486.5,-293 1486.5,-274 1423.5,-274"/>
<text text-anchor="middle" x="1455" y="-281" font-family="Helvetica,sans-Serif" font-size="10.00">pthread.h</text>
</a>
</g>
</g>
<!-- Node29&#45;&gt;Node32 -->
<g id="edge47" class="edge">
<title>Node29&#45;&gt;Node32</title>
<path fill="none" stroke="midnightblue" d="M1353.99,-335.4C1376.33,-324.14 1407.37,-308.5 1429.13,-297.54"/>
<polygon fill="midnightblue" stroke="midnightblue" points="1430.76,-300.63 1438.12,-293.01 1427.61,-294.38 1430.76,-300.63"/>
</g>
<!-- Node34 -->
<g id="node34" class="node">
<title>Node34</title>
<g id="a_node34"><a xlink:href="compat_2vsomeip_2message_8hpp.html" target="_top" xlink:title=" ">
<polygon fill="white" stroke="black" points="819.5,-207 819.5,-226 986.5,-226 986.5,-207 819.5,-207"/>
<text text-anchor="middle" x="903" y="-214" font-family="Helvetica,sans-Serif" font-size="10.00">compat/vsomeip/message.hpp</text>
</a>
</g>
</g>
<!-- Node33&#45;&gt;Node34 -->
<g id="edge49" class="edge">
<title>Node33&#45;&gt;Node34</title>
<path fill="none" stroke="midnightblue" d="M767.44,-335.48C783.28,-325.96 804.04,-312.67 821,-299 846.52,-278.43 872.84,-250.95 888.56,-233.73"/>
<polygon fill="midnightblue" stroke="midnightblue" points="891.28,-235.95 895.38,-226.19 886.08,-231.26 891.28,-235.95"/>
</g>
<!-- Node38 -->
<g id="node38" class="node">
<title>Node38</title>
<g id="a_node38"><a xlink:href="compat_2message_2include_2message__base__impl_8hpp.html" target="_top" xlink:title=" ">
<polygon fill="white" stroke="black" points="674.5,-274 674.5,-293 811.5,-293 811.5,-274 674.5,-274"/>
<text text-anchor="middle" x="743" y="-281" font-family="Helvetica,sans-Serif" font-size="10.00">message_base_impl.hpp</text>
</a>
</g>
</g>
<!-- Node33&#45;&gt;Node38 -->
<g id="edge59" class="edge">
<title>Node33&#45;&gt;Node38</title>
<path fill="none" stroke="midnightblue" d="M743,-335.4C743,-326.06 743,-313.71 743,-303.52"/>
<polygon fill="midnightblue" stroke="midnightblue" points="746.5,-303.19 743,-293.19 739.5,-303.19 746.5,-303.19"/>
</g>
<!-- Node34&#45;&gt;Node5 -->
<g id="edge50" class="edge">
<title>Node34&#45;&gt;Node5</title>
<path fill="none" stroke="midnightblue" d="M909.29,-206.78C921.38,-190.56 949.38,-155.43 980,-134 1004.37,-116.94 1035.42,-103.87 1059.41,-95.3"/>
<polygon fill="midnightblue" stroke="midnightblue" points="1060.59,-98.6 1068.89,-92.02 1058.29,-91.99 1060.59,-98.6"/>
</g>
<!-- Node35 -->
<g id="node35" class="node">
<title>Node35</title>
<g id="a_node35"><a xlink:href="compat_2vsomeip_2message__base_8hpp.html" target="_top" xlink:title=" ">
<polygon fill="white" stroke="black" points="389,-134.5 389,-164.5 505,-164.5 505,-134.5 389,-134.5"/>
<text text-anchor="start" x="397" y="-152.5" font-family="Helvetica,sans-Serif" font-size="10.00">../../compat/vsomeip</text>
<text text-anchor="middle" x="447" y="-141.5" font-family="Helvetica,sans-Serif" font-size="10.00">/message_base.hpp</text>
</a>
</g>
</g>
<!-- Node34&#45;&gt;Node35 -->
<g id="edge51" class="edge">
<title>Node34&#45;&gt;Node35</title>
<path fill="none" stroke="midnightblue" d="M850.99,-206.99C837.94,-204.94 823.97,-202.82 811,-201 681.51,-182.82 648.08,-185.92 519,-165 517.73,-164.79 516.44,-164.58 515.14,-164.36"/>
<polygon fill="midnightblue" stroke="midnightblue" points="515.54,-160.88 505.09,-162.59 514.33,-167.77 515.54,-160.88"/>
</g>
<!-- Node35&#45;&gt;Node8 -->
<g id="edge53" class="edge">
<title>Node35&#45;&gt;Node8</title>
<path fill="none" stroke="midnightblue" d="M485.66,-134.37C501.77,-126.34 518.83,-114.52 528,-98 534.69,-85.95 536.11,-78.13 528,-67 507.67,-39.11 471.68,-26.29 439.29,-20.53"/>
<polygon fill="midnightblue" stroke="midnightblue" points="439.79,-17.06 429.37,-18.96 438.7,-23.98 439.79,-17.06"/>
</g>
<!-- Node35&#45;&gt;Node9 -->
<g id="edge58" class="edge">
<title>Node35&#45;&gt;Node9</title>
<path fill="none" stroke="midnightblue" d="M505.04,-135.58C552.67,-124.98 620.23,-109.94 670.51,-98.75"/>
<polygon fill="midnightblue" stroke="midnightblue" points="671.32,-102.15 680.32,-96.56 669.8,-95.32 671.32,-102.15"/>
</g>
<!-- Node35&#45;&gt;Node25 -->
<g id="edge52" class="edge">
<title>Node35&#45;&gt;Node25</title>
<path fill="none" stroke="midnightblue" d="M505.01,-140.23C520.28,-138.13 536.75,-135.92 552,-134 692.69,-116.3 728.63,-118.07 869,-98 871.06,-97.71 873.15,-97.4 875.25,-97.08"/>
<polygon fill="midnightblue" stroke="midnightblue" points="875.85,-100.53 885.2,-95.55 874.78,-93.62 875.85,-100.53"/>
</g>
<!-- Node36 -->
<g id="node36" class="node">
<title>Node36</title>
<g id="a_node36"><a xlink:href="compat_2vsomeip_2internal_2deserializable_8hpp.html" target="_top" xlink:title=" ">
<polygon fill="white" stroke="black" points="215.5,-67.5 215.5,-97.5 364.5,-97.5 364.5,-67.5 215.5,-67.5"/>
<text text-anchor="start" x="223.5" y="-85.5" font-family="Helvetica,sans-Serif" font-size="10.00">../../compat/vsomeip</text>
<text text-anchor="middle" x="290" y="-74.5" font-family="Helvetica,sans-Serif" font-size="10.00">/internal/deserializable.hpp</text>
</a>
</g>
</g>
<!-- Node35&#45;&gt;Node36 -->
<g id="edge54" class="edge">
<title>Node35&#45;&gt;Node36</title>
<path fill="none" stroke="midnightblue" d="M412.93,-134.4C389.58,-124.73 358.41,-111.82 333.3,-101.43"/>
<polygon fill="midnightblue" stroke="midnightblue" points="334.58,-98.17 324,-97.58 331.9,-104.64 334.58,-98.17"/>
</g>
<!-- Node37 -->
<g id="node37" class="node">
<title>Node37</title>
<g id="a_node37"><a xlink:href="compat_2vsomeip_2internal_2serializable_8hpp.html" target="_top" xlink:title=" ">
<polygon fill="white" stroke="black" points="382.5,-67.5 382.5,-97.5 519.5,-97.5 519.5,-67.5 382.5,-67.5"/>
<text text-anchor="start" x="390.5" y="-85.5" font-family="Helvetica,sans-Serif" font-size="10.00">../../compat/vsomeip</text>
<text text-anchor="middle" x="451" y="-74.5" font-family="Helvetica,sans-Serif" font-size="10.00">/internal/serializable.hpp</text>
</a>
</g>
</g>
<!-- Node35&#45;&gt;Node37 -->
<g id="edge56" class="edge">
<title>Node35&#45;&gt;Node37</title>
<path fill="none" stroke="midnightblue" d="M447.87,-134.4C448.35,-126.56 448.96,-116.6 449.52,-107.57"/>
<polygon fill="midnightblue" stroke="midnightblue" points="453.01,-107.77 450.13,-97.58 446.03,-107.34 453.01,-107.77"/>
</g>
<!-- Node36&#45;&gt;Node8 -->
<g id="edge55" class="edge">
<title>Node36&#45;&gt;Node8</title>
<path fill="none" stroke="midnightblue" d="M307.58,-67.4C318.61,-58.54 333.04,-46.96 345.35,-37.09"/>
<polygon fill="midnightblue" stroke="midnightblue" points="347.85,-39.56 353.46,-30.58 343.47,-34.11 347.85,-39.56"/>
</g>
<!-- Node37&#45;&gt;Node8 -->
<g id="edge57" class="edge">
<title>Node37&#45;&gt;Node8</title>
<path fill="none" stroke="midnightblue" d="M433.64,-67.4C422.74,-58.54 408.49,-46.96 396.34,-37.09"/>
<polygon fill="midnightblue" stroke="midnightblue" points="398.29,-34.17 388.32,-30.58 393.88,-39.6 398.29,-34.17"/>
</g>
<!-- Node38&#45;&gt;Node8 -->
<g id="edge60" class="edge">
<title>Node38&#45;&gt;Node8</title>
<path fill="none" stroke="midnightblue" d="M674.27,-277.8C542.16,-267.22 260.48,-236.62 200,-165 171.89,-131.71 170.83,-101.84 197,-67 210.06,-49.62 259.74,-36.28 302.7,-27.69"/>
<polygon fill="midnightblue" stroke="midnightblue" points="303.44,-31.11 312.59,-25.77 302.11,-24.24 303.44,-31.11"/>
</g>
<!-- Node38&#45;&gt;Node34 -->
<g id="edge61" class="edge">
<title>Node38&#45;&gt;Node34</title>
<path fill="none" stroke="midnightblue" d="M764.25,-273.87C791.94,-262.62 840.56,-242.87 872.27,-229.99"/>
<polygon fill="midnightblue" stroke="midnightblue" points="873.97,-233.07 881.92,-226.06 871.34,-226.58 873.97,-233.07"/>
</g>
<!-- Node39 -->
<g id="node39" class="node">
<title>Node39</title>
<g id="a_node39"><a xlink:title=" ">
<polygon fill="white" stroke="#bfbfbf" points="674.5,-207 674.5,-226 801.5,-226 801.5,-207 674.5,-207"/>
<text text-anchor="middle" x="738" y="-214" font-family="Helvetica,sans-Serif" font-size="10.00">vsomeip/message.hpp</text>
</a>
</g>
</g>
<!-- Node38&#45;&gt;Node39 -->
<g id="edge62" class="edge">
<title>Node38&#45;&gt;Node39</title>
<path fill="none" stroke="midnightblue" d="M742.33,-273.73C741.59,-264.18 740.39,-248.62 739.44,-236.28"/>
<polygon fill="midnightblue" stroke="midnightblue" points="742.92,-235.83 738.66,-226.13 735.94,-236.37 742.92,-235.83"/>
</g>
<!-- Node41 -->
<g id="node41" class="node">
<title>Node41</title>
<g id="a_node41"><a xlink:href="compat_2vsomeip_2payload_8hpp.html" target="_top" xlink:title=" ">
<polygon fill="white" stroke="black" points="209.5,-140 209.5,-159 370.5,-159 370.5,-140 209.5,-140"/>
<text text-anchor="middle" x="290" y="-147" font-family="Helvetica,sans-Serif" font-size="10.00">compat/vsomeip/payload.hpp</text>
</a>
</g>
</g>
<!-- Node40&#45;&gt;Node41 -->
<g id="edge64" class="edge">
<title>Node40&#45;&gt;Node41</title>
<path fill="none" stroke="midnightblue" d="M111.98,-201.48C153.37,-189.62 211.92,-172.86 250.4,-161.84"/>
<polygon fill="midnightblue" stroke="midnightblue" points="251.57,-165.15 260.22,-159.03 249.64,-158.42 251.57,-165.15"/>
</g>
<!-- Node42 -->
<g id="node42" class="node">
<title>Node42</title>
<g id="a_node42"><a xlink:title=" ">
<polygon fill="white" stroke="#bfbfbf" points="0,-140 0,-159 122,-159 122,-140 0,-140"/>
<text text-anchor="middle" x="61" y="-147" font-family="Helvetica,sans-Serif" font-size="10.00">vsomeip/payload.hpp</text>
</a>
</g>
</g>
<!-- Node40&#45;&gt;Node42 -->
<g id="edge70" class="edge">
<title>Node40&#45;&gt;Node42</title>
<path fill="none" stroke="midnightblue" d="M62.57,-201.4C62.28,-192.06 61.9,-179.71 61.59,-169.52"/>
<polygon fill="midnightblue" stroke="midnightblue" points="65.07,-169.08 61.27,-159.19 58.08,-169.3 65.07,-169.08"/>
</g>
<!-- Node41&#45;&gt;Node7 -->
<g id="edge65" class="edge">
<title>Node41&#45;&gt;Node7</title>
<path fill="none" stroke="midnightblue" d="M330.85,-139.94C392.76,-126.95 509.19,-102.54 566.46,-90.53"/>
<polygon fill="midnightblue" stroke="midnightblue" points="567.37,-93.92 576.44,-88.44 565.93,-87.07 567.37,-93.92"/>
</g>
<!-- Node41&#45;&gt;Node8 -->
<g id="edge66" class="edge">
<title>Node41&#45;&gt;Node8</title>
<path fill="none" stroke="midnightblue" d="M261.94,-139.89C242.44,-132.27 217.9,-119.03 206,-98 199.22,-86.01 197.81,-78.08 206,-67 228.13,-37.08 267.64,-24.31 302.45,-19.08"/>
<polygon fill="midnightblue" stroke="midnightblue" points="303.14,-22.52 312.6,-17.75 302.23,-15.58 303.14,-22.52"/>
</g>
<!-- Node41&#45;&gt;Node9 -->
<g id="edge69" class="edge">
<title>Node41&#45;&gt;Node9</title>
<path fill="none" stroke="midnightblue" d="M341.85,-139.97C354.33,-137.96 367.64,-135.87 380,-134 434.46,-125.78 582.23,-105.2 670.29,-93"/>
<polygon fill="midnightblue" stroke="midnightblue" points="670.77,-96.47 680.19,-91.63 669.81,-89.53 670.77,-96.47"/>
</g>
<!-- Node41&#45;&gt;Node36 -->
<g id="edge67" class="edge">
<title>Node41&#45;&gt;Node36</title>
<path fill="none" stroke="midnightblue" d="M290,-139.73C290,-131.54 290,-118.92 290,-107.71"/>
<polygon fill="midnightblue" stroke="midnightblue" points="293.5,-107.59 290,-97.59 286.5,-107.59 293.5,-107.59"/>
</g>
<!-- Node41&#45;&gt;Node37 -->
<g id="edge68" class="edge">
<title>Node41&#45;&gt;Node37</title>
<path fill="none" stroke="midnightblue" d="M311.38,-139.87C335.64,-130.07 375.88,-113.83 406.94,-101.29"/>
<polygon fill="midnightblue" stroke="midnightblue" points="408.29,-104.52 416.25,-97.53 405.67,-98.03 408.29,-104.52"/>
</g>
</g>
</svg>
