<?xml version="1.0" encoding="UTF-8" standalone="no"?>
<!DOCTYPE svg PUBLIC "-//W3C//DTD SVG 1.1//EN"
 "http://www.w3.org/Graphics/SVG/1.1/DTD/svg11.dtd">
<!-- Generated by graphviz version 2.43.0 (0)
 -->
<!-- Title: /home/kali/projects/vsomeip/implementation/compat/runtime/include/runtime_impl.hpp Pages: 1 -->
<svg width="561pt" height="240pt"
 viewBox="0.00 0.00 561.00 240.00" xmlns="http://www.w3.org/2000/svg" xmlns:xlink="http://www.w3.org/1999/xlink">
<g id="graph0" class="graph" transform="scale(1 1) rotate(0) translate(4 236)">
<title>/home/kali/projects/vsomeip/implementation/compat/runtime/include/runtime_impl.hpp</title>
<polygon fill="white" stroke="transparent" points="-4,4 -4,-236 557,-236 557,4 -4,4"/>
<!-- Node1 -->
<g id="node1" class="node">
<title>Node1</title>
<g id="a_node1"><a xlink:title=" ">
<polygon fill="#bfbfbf" stroke="black" points="8.5,-179.5 8.5,-231.5 151.5,-231.5 151.5,-179.5 8.5,-179.5"/>
<text text-anchor="start" x="16.5" y="-219.5" font-family="Helvetica,sans-Serif" font-size="10.00">/home/kali/projects</text>
<text text-anchor="start" x="16.5" y="-208.5" font-family="Helvetica,sans-Serif" font-size="10.00">/vsomeip/implementation</text>
<text text-anchor="start" x="16.5" y="-197.5" font-family="Helvetica,sans-Serif" font-size="10.00">/compat/runtime/include</text>
<text text-anchor="middle" x="80" y="-186.5" font-family="Helvetica,sans-Serif" font-size="10.00">/runtime_impl.hpp</text>
</a>
</g>
</g>
<!-- Node2 -->
<g id="node2" class="node">
<title>Node2</title>
<g id="a_node2"><a xlink:title=" ">
<polygon fill="white" stroke="#bfbfbf" points="0,-123.5 0,-142.5 38,-142.5 38,-123.5 0,-123.5"/>
<text text-anchor="middle" x="19" y="-130.5" font-family="Helvetica,sans-Serif" font-size="10.00">map</text>
</a>
</g>
</g>
<!-- Node1&#45;&gt;Node2 -->
<g id="edge1" class="edge">
<title>Node1&#45;&gt;Node2</title>
<path fill="none" stroke="midnightblue" d="M58.32,-179.45C50,-169.83 40.72,-159.1 33.27,-150.49"/>
<polygon fill="midnightblue" stroke="midnightblue" points="35.71,-147.97 26.52,-142.7 30.42,-152.55 35.71,-147.97"/>
</g>
<!-- Node3 -->
<g id="node3" class="node">
<title>Node3</title>
<g id="a_node3"><a xlink:title=" ">
<polygon fill="white" stroke="#bfbfbf" points="56,-123.5 56,-142.5 104,-142.5 104,-123.5 56,-123.5"/>
<text text-anchor="middle" x="80" y="-130.5" font-family="Helvetica,sans-Serif" font-size="10.00">mutex</text>
</a>
</g>
</g>
<!-- Node1&#45;&gt;Node3 -->
<g id="edge2" class="edge">
<title>Node1&#45;&gt;Node3</title>
<path fill="none" stroke="midnightblue" d="M80,-179.45C80,-170.73 80,-161.1 80,-152.96"/>
<polygon fill="midnightblue" stroke="midnightblue" points="83.5,-152.7 80,-142.7 76.5,-152.7 83.5,-152.7"/>
</g>
<!-- Node4 -->
<g id="node4" class="node">
<title>Node4</title>
<g id="a_node4"><a xlink:href="interface_2compat_2vsomeip_2runtime_8hpp.html" target="_top" xlink:title=" ">
<polygon fill="white" stroke="black" points="122.5,-123.5 122.5,-142.5 283.5,-142.5 283.5,-123.5 122.5,-123.5"/>
<text text-anchor="middle" x="203" y="-130.5" font-family="Helvetica,sans-Serif" font-size="10.00">compat/vsomeip/runtime.hpp</text>
</a>
</g>
</g>
<!-- Node1&#45;&gt;Node4 -->
<g id="edge3" class="edge">
<title>Node1&#45;&gt;Node4</title>
<path fill="none" stroke="midnightblue" d="M123.71,-179.45C142.35,-168.76 163.38,-156.71 179.09,-147.7"/>
<polygon fill="midnightblue" stroke="midnightblue" points="181.19,-150.54 188.12,-142.53 177.71,-144.46 181.19,-150.54"/>
</g>
<!-- Node5 -->
<g id="node5" class="node">
<title>Node5</title>
<g id="a_node5"><a xlink:title=" ">
<polygon fill="white" stroke="#bfbfbf" points="41,-62 41,-81 99,-81 99,-62 41,-62"/>
<text text-anchor="middle" x="70" y="-69" font-family="Helvetica,sans-Serif" font-size="10.00">memory</text>
</a>
</g>
</g>
<!-- Node4&#45;&gt;Node5 -->
<g id="edge4" class="edge">
<title>Node4&#45;&gt;Node5</title>
<path fill="none" stroke="midnightblue" d="M183.94,-123.48C161.53,-113.45 124.09,-96.7 98.29,-85.15"/>
<polygon fill="midnightblue" stroke="midnightblue" points="99.58,-81.9 89.02,-81.01 96.72,-88.29 99.58,-81.9"/>
</g>
<!-- Node6 -->
<g id="node6" class="node">
<title>Node6</title>
<g id="a_node6"><a xlink:title=" ">
<polygon fill="white" stroke="#bfbfbf" points="117,-62 117,-81 161,-81 161,-62 117,-62"/>
<text text-anchor="middle" x="139" y="-69" font-family="Helvetica,sans-Serif" font-size="10.00">string</text>
</a>
</g>
</g>
<!-- Node4&#45;&gt;Node6 -->
<g id="edge5" class="edge">
<title>Node4&#45;&gt;Node6</title>
<path fill="none" stroke="midnightblue" d="M193.83,-123.48C183.85,-114.2 167.69,-99.17 155.49,-87.83"/>
<polygon fill="midnightblue" stroke="midnightblue" points="157.86,-85.25 148.15,-81.01 153.09,-90.38 157.86,-85.25"/>
</g>
<!-- Node7 -->
<g id="node7" class="node">
<title>Node7</title>
<g id="a_node7"><a xlink:title=" ">
<polygon fill="white" stroke="#bfbfbf" points="179.5,-62 179.5,-81 226.5,-81 226.5,-62 179.5,-62"/>
<text text-anchor="middle" x="203" y="-69" font-family="Helvetica,sans-Serif" font-size="10.00">vector</text>
</a>
</g>
</g>
<!-- Node4&#45;&gt;Node7 -->
<g id="edge6" class="edge">
<title>Node4&#45;&gt;Node7</title>
<path fill="none" stroke="midnightblue" d="M203,-123.48C203,-115.08 203,-101.98 203,-91.16"/>
<polygon fill="midnightblue" stroke="midnightblue" points="206.5,-91.01 203,-81.01 199.5,-91.01 206.5,-91.01"/>
</g>
<!-- Node8 -->
<g id="node8" class="node">
<title>Node8</title>
<g id="a_node8"><a xlink:href="compat_2vsomeip_2export_8hpp.html" target="_top" xlink:title=" ">
<polygon fill="white" stroke="black" points="245,-56.5 245,-86.5 361,-86.5 361,-56.5 245,-56.5"/>
<text text-anchor="start" x="253" y="-74.5" font-family="Helvetica,sans-Serif" font-size="10.00">../../compat/vsomeip</text>
<text text-anchor="middle" x="303" y="-63.5" font-family="Helvetica,sans-Serif" font-size="10.00">/export.hpp</text>
</a>
</g>
</g>
<!-- Node4&#45;&gt;Node8 -->
<g id="edge7" class="edge">
<title>Node4&#45;&gt;Node8</title>
<path fill="none" stroke="midnightblue" d="M217.33,-123.48C231.12,-115.27 252.48,-102.56 270.42,-91.88"/>
<polygon fill="midnightblue" stroke="midnightblue" points="272.63,-94.64 279.43,-86.52 269.05,-88.63 272.63,-94.64"/>
</g>
<!-- Node9 -->
<g id="node9" class="node">
<title>Node9</title>
<g id="a_node9"><a xlink:href="interface_2compat_2vsomeip_2primitive__types_8hpp.html" target="_top" xlink:title=" ">
<polygon fill="white" stroke="black" points="379.5,-56.5 379.5,-86.5 496.5,-86.5 496.5,-56.5 379.5,-56.5"/>
<text text-anchor="start" x="387.5" y="-74.5" font-family="Helvetica,sans-Serif" font-size="10.00">../../compat/vsomeip</text>
<text text-anchor="middle" x="438" y="-63.5" font-family="Helvetica,sans-Serif" font-size="10.00">/primitive_types.hpp</text>
</a>
</g>
</g>
<!-- Node4&#45;&gt;Node9 -->
<g id="edge8" class="edge">
<title>Node4&#45;&gt;Node9</title>
<path fill="none" stroke="midnightblue" d="M236.67,-123.48C272.07,-114.51 328.64,-100.19 372.82,-89"/>
<polygon fill="midnightblue" stroke="midnightblue" points="373.78,-92.37 382.62,-86.52 372.06,-85.58 373.78,-92.37"/>
</g>
<!-- Node10 -->
<g id="node10" class="node">
<title>Node10</title>
<g id="a_node10"><a xlink:title=" ">
<polygon fill="white" stroke="#bfbfbf" points="353,-0.5 353,-19.5 395,-19.5 395,-0.5 353,-0.5"/>
<text text-anchor="middle" x="374" y="-7.5" font-family="Helvetica,sans-Serif" font-size="10.00">array</text>
</a>
</g>
</g>
<!-- Node9&#45;&gt;Node10 -->
<g id="edge9" class="edge">
<title>Node9&#45;&gt;Node10</title>
<path fill="none" stroke="midnightblue" d="M422.83,-56.4C413.25,-47.49 400.84,-35.95 390.93,-26.74"/>
<polygon fill="midnightblue" stroke="midnightblue" points="393.02,-23.9 383.31,-19.66 388.25,-29.03 393.02,-23.9"/>
</g>
<!-- Node11 -->
<g id="node11" class="node">
<title>Node11</title>
<g id="a_node11"><a xlink:title=" ">
<polygon fill="white" stroke="#bfbfbf" points="413,-0.5 413,-19.5 463,-19.5 463,-0.5 413,-0.5"/>
<text text-anchor="middle" x="438" y="-7.5" font-family="Helvetica,sans-Serif" font-size="10.00">cstdint</text>
</a>
</g>
</g>
<!-- Node9&#45;&gt;Node11 -->
<g id="edge10" class="edge">
<title>Node9&#45;&gt;Node11</title>
<path fill="none" stroke="midnightblue" d="M438,-56.4C438,-48.47 438,-38.46 438,-29.86"/>
<polygon fill="midnightblue" stroke="midnightblue" points="441.5,-29.66 438,-19.66 434.5,-29.66 441.5,-29.66"/>
</g>
<!-- Node12 -->
<g id="node12" class="node">
<title>Node12</title>
<g id="a_node12"><a xlink:title=" ">
<polygon fill="white" stroke="#bfbfbf" points="481,-0.5 481,-19.5 553,-19.5 553,-0.5 481,-0.5"/>
<text text-anchor="middle" x="517" y="-7.5" font-family="Helvetica,sans-Serif" font-size="10.00">sys/types.h</text>
</a>
</g>
</g>
<!-- Node9&#45;&gt;Node12 -->
<g id="edge11" class="edge">
<title>Node9&#45;&gt;Node12</title>
<path fill="none" stroke="midnightblue" d="M456.72,-56.4C468.91,-47.22 484.79,-35.26 497.19,-25.92"/>
<polygon fill="midnightblue" stroke="midnightblue" points="499.62,-28.47 505.5,-19.66 495.41,-22.88 499.62,-28.47"/>
</g>
</g>
</svg>
