<?xml version="1.0" encoding="UTF-8" standalone="no"?>
<!DOCTYPE svg PUBLIC "-//W3C//DTD SVG 1.1//EN"
 "http://www.w3.org/Graphics/SVG/1.1/DTD/svg11.dtd">
<!-- Generated by graphviz version 2.43.0 (0)
 -->
<!-- Title: /home/kali/projects/vsomeip/interface/compat/vsomeip/export.hpp Pages: 1 -->
<svg width="1008pt" height="562pt"
 viewBox="0.00 0.00 1008.00 562.00" xmlns="http://www.w3.org/2000/svg" xmlns:xlink="http://www.w3.org/1999/xlink">
<g id="graph0" class="graph" transform="scale(1 1) rotate(0) translate(4 558)">
<title>/home/kali/projects/vsomeip/interface/compat/vsomeip/export.hpp</title>
<polygon fill="white" stroke="transparent" points="-4,4 -4,-558 1004,-558 1004,4 -4,4"/>
<!-- Node1 -->
<g id="node1" class="node">
<title>Node1</title>
<g id="a_node1"><a xlink:title=" ">
<polygon fill="#bfbfbf" stroke="black" points="436,-512.5 436,-553.5 584,-553.5 584,-512.5 436,-512.5"/>
<text text-anchor="start" x="444" y="-541.5" font-family="Helvetica,sans-Serif" font-size="10.00">/home/kali/projects</text>
<text text-anchor="start" x="444" y="-530.5" font-family="Helvetica,sans-Serif" font-size="10.00">/vsomeip/interface/compat</text>
<text text-anchor="middle" x="510" y="-519.5" font-family="Helvetica,sans-Serif" font-size="10.00">/vsomeip/export.hpp</text>
</a>
</g>
</g>
<!-- Node2 -->
<g id="node2" class="node">
<title>Node2</title>
<g id="a_node2"><a xlink:href="compat_2message_2include_2message__base__impl_8hpp.html" target="_top" xlink:title=" ">
<polygon fill="white" stroke="black" points="42.5,-178.5 42.5,-230.5 185.5,-230.5 185.5,-178.5 42.5,-178.5"/>
<text text-anchor="start" x="50.5" y="-218.5" font-family="Helvetica,sans-Serif" font-size="10.00">/home/kali/projects</text>
<text text-anchor="start" x="50.5" y="-207.5" font-family="Helvetica,sans-Serif" font-size="10.00">/vsomeip/implementation</text>
<text text-anchor="start" x="50.5" y="-196.5" font-family="Helvetica,sans-Serif" font-size="10.00">/compat/message/include</text>
<text text-anchor="middle" x="114" y="-185.5" font-family="Helvetica,sans-Serif" font-size="10.00">/message_base_impl.hpp</text>
</a>
</g>
</g>
<!-- Node1&#45;&gt;Node2 -->
<g id="edge1" class="edge">
<title>Node1&#45;&gt;Node2</title>
<path fill="none" stroke="midnightblue" d="M425.57,-531.81C324.48,-529.61 163.91,-519.17 125,-476 62.86,-407.05 90.05,-283.49 105.73,-230.62"/>
<polygon fill="midnightblue" stroke="midnightblue" points="425.7,-535.31 435.76,-532.01 425.83,-528.31 425.7,-535.31"/>
</g>
<!-- Node8 -->
<g id="node8" class="node">
<title>Node8</title>
<g id="a_node8"><a xlink:href="compat_2vsomeip_2internal_2deserializable_8hpp.html" target="_top" xlink:title=" ">
<polygon fill="white" stroke="black" points="148,-429 148,-470 342,-470 342,-429 148,-429"/>
<text text-anchor="start" x="156" y="-458" font-family="Helvetica,sans-Serif" font-size="10.00">/home/kali/projects</text>
<text text-anchor="start" x="156" y="-447" font-family="Helvetica,sans-Serif" font-size="10.00">/vsomeip/interface/compat</text>
<text text-anchor="middle" x="245" y="-436" font-family="Helvetica,sans-Serif" font-size="10.00">/vsomeip/internal/deserializable.hpp</text>
</a>
</g>
</g>
<!-- Node1&#45;&gt;Node8 -->
<g id="edge7" class="edge">
<title>Node1&#45;&gt;Node8</title>
<path fill="none" stroke="midnightblue" d="M436.76,-509.48C396.49,-497.09 347.02,-481.88 308.41,-470"/>
<polygon fill="midnightblue" stroke="midnightblue" points="435.94,-512.88 446.53,-512.48 438,-506.19 435.94,-512.88"/>
</g>
<!-- Node9 -->
<g id="node9" class="node">
<title>Node9</title>
<g id="a_node9"><a xlink:href="compat_2vsomeip_2message__base_8hpp.html" target="_top" xlink:title=" ">
<polygon fill="white" stroke="black" points="166,-345.5 166,-386.5 324,-386.5 324,-345.5 166,-345.5"/>
<text text-anchor="start" x="174" y="-374.5" font-family="Helvetica,sans-Serif" font-size="10.00">/home/kali/projects</text>
<text text-anchor="start" x="174" y="-363.5" font-family="Helvetica,sans-Serif" font-size="10.00">/vsomeip/interface/compat</text>
<text text-anchor="middle" x="245" y="-352.5" font-family="Helvetica,sans-Serif" font-size="10.00">/vsomeip/message_base.hpp</text>
</a>
</g>
</g>
<!-- Node1&#45;&gt;Node9 -->
<g id="edge23" class="edge">
<title>Node1&#45;&gt;Node9</title>
<path fill="none" stroke="midnightblue" d="M425.56,-531.52C327.7,-528.95 175.21,-518.09 139,-476 123.64,-458.14 126.84,-443.17 139,-423 148.78,-406.78 165,-395.01 181.84,-386.59"/>
<polygon fill="midnightblue" stroke="midnightblue" points="425.65,-535.02 435.73,-531.76 425.82,-528.02 425.65,-535.02"/>
</g>
<!-- Node12 -->
<g id="node12" class="node">
<title>Node12</title>
<g id="a_node12"><a xlink:href="compat_2vsomeip_2payload_8hpp.html" target="_top" xlink:title=" ">
<polygon fill="white" stroke="black" points="375,-345.5 375,-386.5 523,-386.5 523,-345.5 375,-345.5"/>
<text text-anchor="start" x="383" y="-374.5" font-family="Helvetica,sans-Serif" font-size="10.00">/home/kali/projects</text>
<text text-anchor="start" x="383" y="-363.5" font-family="Helvetica,sans-Serif" font-size="10.00">/vsomeip/interface/compat</text>
<text text-anchor="middle" x="449" y="-352.5" font-family="Helvetica,sans-Serif" font-size="10.00">/vsomeip/payload.hpp</text>
</a>
</g>
</g>
<!-- Node1&#45;&gt;Node12 -->
<g id="edge24" class="edge">
<title>Node1&#45;&gt;Node12</title>
<path fill="none" stroke="midnightblue" d="M535.59,-504.25C541.86,-495.79 547.71,-486.05 551,-476 558.32,-453.61 563,-443.27 551,-423 541.43,-406.83 525.35,-395.02 508.76,-386.53"/>
<polygon fill="midnightblue" stroke="midnightblue" points="532.72,-502.24 529.26,-512.25 538.21,-506.58 532.72,-502.24"/>
</g>
<!-- Node15 -->
<g id="node15" class="node">
<title>Node15</title>
<g id="a_node15"><a xlink:href="compat_2vsomeip_2internal_2serializable_8hpp.html" target="_top" xlink:title=" ">
<polygon fill="white" stroke="black" points="360,-429 360,-470 542,-470 542,-429 360,-429"/>
<text text-anchor="start" x="368" y="-458" font-family="Helvetica,sans-Serif" font-size="10.00">/home/kali/projects</text>
<text text-anchor="start" x="368" y="-447" font-family="Helvetica,sans-Serif" font-size="10.00">/vsomeip/interface/compat</text>
<text text-anchor="middle" x="451" y="-436" font-family="Helvetica,sans-Serif" font-size="10.00">/vsomeip/internal/serializable.hpp</text>
</a>
</g>
</g>
<!-- Node1&#45;&gt;Node15 -->
<g id="edge20" class="edge">
<title>Node1&#45;&gt;Node15</title>
<path fill="none" stroke="midnightblue" d="M489.77,-504.05C481.67,-492.86 472.52,-480.23 465.15,-470.05"/>
<polygon fill="midnightblue" stroke="midnightblue" points="487.02,-506.22 495.72,-512.27 492.69,-502.12 487.02,-506.22"/>
</g>
<!-- Node16 -->
<g id="node16" class="node">
<title>Node16</title>
<g id="a_node16"><a xlink:href="compat_2vsomeip_2plugins_2application__plugin_8hpp.html" target="_top" xlink:title=" ">
<polygon fill="white" stroke="black" points="636.5,-423.5 636.5,-475.5 793.5,-475.5 793.5,-423.5 636.5,-423.5"/>
<text text-anchor="start" x="644.5" y="-463.5" font-family="Helvetica,sans-Serif" font-size="10.00">/home/kali/projects</text>
<text text-anchor="start" x="644.5" y="-452.5" font-family="Helvetica,sans-Serif" font-size="10.00">/vsomeip/interface/compat</text>
<text text-anchor="start" x="644.5" y="-441.5" font-family="Helvetica,sans-Serif" font-size="10.00">/vsomeip/plugins/application</text>
<text text-anchor="middle" x="715" y="-430.5" font-family="Helvetica,sans-Serif" font-size="10.00">_plugin.hpp</text>
</a>
</g>
</g>
<!-- Node1&#45;&gt;Node16 -->
<g id="edge25" class="edge">
<title>Node1&#45;&gt;Node16</title>
<path fill="none" stroke="midnightblue" d="M568.48,-508.75C594.56,-498.38 625.33,-486.15 651.92,-475.58"/>
<polygon fill="midnightblue" stroke="midnightblue" points="567.1,-505.53 559.1,-512.48 569.69,-512.04 567.1,-505.53"/>
</g>
<!-- Node17 -->
<g id="node17" class="node">
<title>Node17</title>
<g id="a_node17"><a xlink:href="compat_2vsomeip_2plugins_2pre__configuration__plugin_8hpp.html" target="_top" xlink:title=" ">
<polygon fill="white" stroke="black" points="812,-423.5 812,-475.5 1000,-475.5 1000,-423.5 812,-423.5"/>
<text text-anchor="start" x="820" y="-463.5" font-family="Helvetica,sans-Serif" font-size="10.00">/home/kali/projects</text>
<text text-anchor="start" x="820" y="-452.5" font-family="Helvetica,sans-Serif" font-size="10.00">/vsomeip/interface/compat</text>
<text text-anchor="start" x="820" y="-441.5" font-family="Helvetica,sans-Serif" font-size="10.00">/vsomeip/plugins/pre_configuration</text>
<text text-anchor="middle" x="906" y="-430.5" font-family="Helvetica,sans-Serif" font-size="10.00">_plugin.hpp</text>
</a>
</g>
</g>
<!-- Node1&#45;&gt;Node17 -->
<g id="edge26" class="edge">
<title>Node1&#45;&gt;Node17</title>
<path fill="none" stroke="midnightblue" d="M594.25,-517.14C652.94,-506.49 732.94,-491.36 803,-476 805.88,-475.37 808.8,-474.72 811.75,-474.05"/>
<polygon fill="midnightblue" stroke="midnightblue" points="593.5,-513.72 584.28,-518.94 594.75,-520.61 593.5,-513.72"/>
</g>
<!-- Node18 -->
<g id="node18" class="node">
<title>Node18</title>
<g id="a_node18"><a xlink:href="interface_2compat_2vsomeip_2runtime_8hpp.html" target="_top" xlink:title=" ">
<polygon fill="white" stroke="black" points="534,-267.5 534,-308.5 682,-308.5 682,-267.5 534,-267.5"/>
<text text-anchor="start" x="542" y="-296.5" font-family="Helvetica,sans-Serif" font-size="10.00">/home/kali/projects</text>
<text text-anchor="start" x="542" y="-285.5" font-family="Helvetica,sans-Serif" font-size="10.00">/vsomeip/interface/compat</text>
<text text-anchor="middle" x="608" y="-274.5" font-family="Helvetica,sans-Serif" font-size="10.00">/vsomeip/runtime.hpp</text>
</a>
</g>
</g>
<!-- Node1&#45;&gt;Node18 -->
<g id="edge27" class="edge">
<title>Node1&#45;&gt;Node18</title>
<path fill="none" stroke="midnightblue" d="M544.73,-505.63C553.87,-497.11 562.88,-486.99 569,-476 599.76,-420.82 606.34,-344.21 607.69,-308.62"/>
<polygon fill="midnightblue" stroke="midnightblue" points="542.25,-503.15 537.08,-512.4 546.89,-508.4 542.25,-503.15"/>
</g>
<!-- Node3 -->
<g id="node3" class="node">
<title>Node3</title>
<g id="a_node3"><a xlink:href="compat_2message_2include_2message__impl_8hpp.html" target="_top" xlink:title=" ">
<polygon fill="white" stroke="black" points="186.5,-89.5 186.5,-141.5 329.5,-141.5 329.5,-89.5 186.5,-89.5"/>
<text text-anchor="start" x="194.5" y="-129.5" font-family="Helvetica,sans-Serif" font-size="10.00">/home/kali/projects</text>
<text text-anchor="start" x="194.5" y="-118.5" font-family="Helvetica,sans-Serif" font-size="10.00">/vsomeip/implementation</text>
<text text-anchor="start" x="194.5" y="-107.5" font-family="Helvetica,sans-Serif" font-size="10.00">/compat/message/include</text>
<text text-anchor="middle" x="258" y="-96.5" font-family="Helvetica,sans-Serif" font-size="10.00">/message_impl.hpp</text>
</a>
</g>
</g>
<!-- Node2&#45;&gt;Node3 -->
<g id="edge2" class="edge">
<title>Node2&#45;&gt;Node3</title>
<path fill="none" stroke="midnightblue" d="M164.37,-173.07C181.39,-162.79 200.18,-151.43 216.44,-141.61"/>
<polygon fill="midnightblue" stroke="midnightblue" points="162.4,-170.17 155.65,-178.34 166.02,-176.16 162.4,-170.17"/>
</g>
<!-- Node7 -->
<g id="node7" class="node">
<title>Node7</title>
<g id="a_node7"><a xlink:href="compat_2message_2src_2message__base__impl_8cpp.html" target="_top" xlink:title=" ">
<polygon fill="white" stroke="black" points="0,-89.5 0,-141.5 168,-141.5 168,-89.5 0,-89.5"/>
<text text-anchor="start" x="8" y="-129.5" font-family="Helvetica,sans-Serif" font-size="10.00">/home/kali/projects</text>
<text text-anchor="start" x="8" y="-118.5" font-family="Helvetica,sans-Serif" font-size="10.00">/vsomeip/implementation</text>
<text text-anchor="start" x="8" y="-107.5" font-family="Helvetica,sans-Serif" font-size="10.00">/compat/message/src/message</text>
<text text-anchor="middle" x="84" y="-96.5" font-family="Helvetica,sans-Serif" font-size="10.00">_base_impl.cpp</text>
</a>
</g>
</g>
<!-- Node2&#45;&gt;Node7 -->
<g id="edge6" class="edge">
<title>Node2&#45;&gt;Node7</title>
<path fill="none" stroke="midnightblue" d="M102.02,-168.77C98.89,-159.69 95.58,-150.08 92.66,-141.61"/>
<polygon fill="midnightblue" stroke="midnightblue" points="98.75,-170.02 105.32,-178.34 105.37,-167.74 98.75,-170.02"/>
</g>
<!-- Node4 -->
<g id="node4" class="node">
<title>Node4</title>
<g id="a_node4"><a xlink:href="compat_2message_2src_2message__impl_8cpp.html" target="_top" xlink:title=" ">
<polygon fill="white" stroke="black" points="80,-0.5 80,-52.5 248,-52.5 248,-0.5 80,-0.5"/>
<text text-anchor="start" x="88" y="-40.5" font-family="Helvetica,sans-Serif" font-size="10.00">/home/kali/projects</text>
<text text-anchor="start" x="88" y="-29.5" font-family="Helvetica,sans-Serif" font-size="10.00">/vsomeip/implementation</text>
<text text-anchor="start" x="88" y="-18.5" font-family="Helvetica,sans-Serif" font-size="10.00">/compat/message/src/message</text>
<text text-anchor="middle" x="164" y="-7.5" font-family="Helvetica,sans-Serif" font-size="10.00">_impl.cpp</text>
</a>
</g>
</g>
<!-- Node3&#45;&gt;Node4 -->
<g id="edge3" class="edge">
<title>Node3&#45;&gt;Node4</title>
<path fill="none" stroke="midnightblue" d="M223.28,-82.36C212.67,-72.54 201.16,-61.89 191.13,-52.61"/>
<polygon fill="midnightblue" stroke="midnightblue" points="221.09,-85.11 230.81,-89.34 225.85,-79.97 221.09,-85.11"/>
</g>
<!-- Node5 -->
<g id="node5" class="node">
<title>Node5</title>
<g id="a_node5"><a xlink:href="compat_2runtime_2src_2application__impl_8cpp.html" target="_top" xlink:title=" ">
<polygon fill="white" stroke="black" points="622,-0.5 622,-52.5 794,-52.5 794,-0.5 622,-0.5"/>
<text text-anchor="start" x="630" y="-40.5" font-family="Helvetica,sans-Serif" font-size="10.00">/home/kali/projects</text>
<text text-anchor="start" x="630" y="-29.5" font-family="Helvetica,sans-Serif" font-size="10.00">/vsomeip/implementation</text>
<text text-anchor="start" x="630" y="-18.5" font-family="Helvetica,sans-Serif" font-size="10.00">/compat/runtime/src/application</text>
<text text-anchor="middle" x="708" y="-7.5" font-family="Helvetica,sans-Serif" font-size="10.00">_impl.cpp</text>
</a>
</g>
</g>
<!-- Node3&#45;&gt;Node5 -->
<g id="edge4" class="edge">
<title>Node3&#45;&gt;Node5</title>
<path fill="none" stroke="midnightblue" d="M339.88,-90.13C341.6,-89.74 343.31,-89.36 345,-89 462.56,-64.03 495.16,-76.63 613,-53 615.93,-52.41 618.9,-51.79 621.9,-51.13"/>
<polygon fill="midnightblue" stroke="midnightblue" points="338.86,-86.77 329.95,-92.5 340.49,-93.58 338.86,-86.77"/>
</g>
<!-- Node6 -->
<g id="node6" class="node">
<title>Node6</title>
<g id="a_node6"><a xlink:href="compat_2runtime_2src_2runtime__impl_8cpp.html" target="_top" xlink:title=" ">
<polygon fill="white" stroke="black" points="448,-0.5 448,-52.5 604,-52.5 604,-0.5 448,-0.5"/>
<text text-anchor="start" x="456" y="-40.5" font-family="Helvetica,sans-Serif" font-size="10.00">/home/kali/projects</text>
<text text-anchor="start" x="456" y="-29.5" font-family="Helvetica,sans-Serif" font-size="10.00">/vsomeip/implementation</text>
<text text-anchor="start" x="456" y="-18.5" font-family="Helvetica,sans-Serif" font-size="10.00">/compat/runtime/src/runtime</text>
<text text-anchor="middle" x="526" y="-7.5" font-family="Helvetica,sans-Serif" font-size="10.00">_impl.cpp</text>
</a>
</g>
</g>
<!-- Node3&#45;&gt;Node6 -->
<g id="edge5" class="edge">
<title>Node3&#45;&gt;Node6</title>
<path fill="none" stroke="midnightblue" d="M339.46,-88.06C374.21,-76.78 414.55,-63.68 448.81,-52.56"/>
<polygon fill="midnightblue" stroke="midnightblue" points="338.25,-84.77 329.82,-91.19 340.41,-91.43 338.25,-84.77"/>
</g>
<!-- Node8&#45;&gt;Node9 -->
<g id="edge8" class="edge">
<title>Node8&#45;&gt;Node9</title>
<path fill="none" stroke="midnightblue" d="M245,-418.56C245,-407.88 245,-396.13 245,-386.55"/>
<polygon fill="midnightblue" stroke="midnightblue" points="241.5,-418.77 245,-428.77 248.5,-418.77 241.5,-418.77"/>
</g>
<!-- Node8&#45;&gt;Node12 -->
<g id="edge13" class="edge">
<title>Node8&#45;&gt;Node12</title>
<path fill="none" stroke="midnightblue" d="M303.16,-425.27C333.83,-413.01 371.03,-398.15 400.18,-386.5"/>
<polygon fill="midnightblue" stroke="midnightblue" points="301.85,-422.02 293.86,-428.98 304.45,-428.52 301.85,-422.02"/>
</g>
<!-- Node10 -->
<g id="node10" class="node">
<title>Node10</title>
<g id="a_node10"><a xlink:href="compat_2vsomeip_2message_8hpp.html" target="_top" xlink:title=" ">
<polygon fill="white" stroke="black" points="171,-267.5 171,-308.5 319,-308.5 319,-267.5 171,-267.5"/>
<text text-anchor="start" x="179" y="-296.5" font-family="Helvetica,sans-Serif" font-size="10.00">/home/kali/projects</text>
<text text-anchor="start" x="179" y="-285.5" font-family="Helvetica,sans-Serif" font-size="10.00">/vsomeip/interface/compat</text>
<text text-anchor="middle" x="245" y="-274.5" font-family="Helvetica,sans-Serif" font-size="10.00">/vsomeip/message.hpp</text>
</a>
</g>
</g>
<!-- Node9&#45;&gt;Node10 -->
<g id="edge9" class="edge">
<title>Node9&#45;&gt;Node10</title>
<path fill="none" stroke="midnightblue" d="M245,-335.3C245,-326.3 245,-316.65 245,-308.51"/>
<polygon fill="midnightblue" stroke="midnightblue" points="241.5,-335.43 245,-345.43 248.5,-335.43 241.5,-335.43"/>
</g>
<!-- Node10&#45;&gt;Node2 -->
<g id="edge10" class="edge">
<title>Node10&#45;&gt;Node2</title>
<path fill="none" stroke="midnightblue" d="M205.01,-262.12C189.01,-252.17 170.61,-240.72 154.55,-230.73"/>
<polygon fill="midnightblue" stroke="midnightblue" points="203.28,-265.17 213.62,-267.48 206.98,-259.22 203.28,-265.17"/>
</g>
<!-- Node10&#45;&gt;Node3 -->
<g id="edge11" class="edge">
<title>Node10&#45;&gt;Node3</title>
<path fill="none" stroke="midnightblue" d="M247.28,-257.13C249.78,-224.36 253.74,-172.36 256.09,-141.61"/>
<polygon fill="midnightblue" stroke="midnightblue" points="243.76,-257.2 246.49,-267.44 250.74,-257.74 243.76,-257.2"/>
</g>
<!-- Node11 -->
<g id="node11" class="node">
<title>Node11</title>
<g id="a_node11"><a xlink:href="compat_2vsomeip_2vsomeip_8hpp.html" target="_top" xlink:title=" ">
<polygon fill="white" stroke="black" points="273,-184 273,-225 421,-225 421,-184 273,-184"/>
<text text-anchor="start" x="281" y="-213" font-family="Helvetica,sans-Serif" font-size="10.00">/home/kali/projects</text>
<text text-anchor="start" x="281" y="-202" font-family="Helvetica,sans-Serif" font-size="10.00">/vsomeip/interface/compat</text>
<text text-anchor="middle" x="347" y="-191" font-family="Helvetica,sans-Serif" font-size="10.00">/vsomeip/vsomeip.hpp</text>
</a>
</g>
</g>
<!-- Node10&#45;&gt;Node11 -->
<g id="edge12" class="edge">
<title>Node10&#45;&gt;Node11</title>
<path fill="none" stroke="midnightblue" d="M277.26,-261.22C291.87,-249.55 308.86,-235.97 322.41,-225.14"/>
<polygon fill="midnightblue" stroke="midnightblue" points="275.06,-258.5 269.43,-267.48 279.43,-263.97 275.06,-258.5"/>
</g>
<!-- Node12&#45;&gt;Node11 -->
<g id="edge19" class="edge">
<title>Node12&#45;&gt;Node11</title>
<path fill="none" stroke="midnightblue" d="M431.07,-336.96C410.58,-304.91 377.56,-253.29 359.61,-225.22"/>
<polygon fill="midnightblue" stroke="midnightblue" points="428.16,-338.9 436.49,-345.44 434.05,-335.13 428.16,-338.9"/>
</g>
<!-- Node13 -->
<g id="node13" class="node">
<title>Node13</title>
<g id="a_node13"><a xlink:href="compat_2message_2include_2payload__impl_8hpp.html" target="_top" xlink:title=" ">
<polygon fill="white" stroke="black" points="354.5,-89.5 354.5,-141.5 497.5,-141.5 497.5,-89.5 354.5,-89.5"/>
<text text-anchor="start" x="362.5" y="-129.5" font-family="Helvetica,sans-Serif" font-size="10.00">/home/kali/projects</text>
<text text-anchor="start" x="362.5" y="-118.5" font-family="Helvetica,sans-Serif" font-size="10.00">/vsomeip/implementation</text>
<text text-anchor="start" x="362.5" y="-107.5" font-family="Helvetica,sans-Serif" font-size="10.00">/compat/message/include</text>
<text text-anchor="middle" x="426" y="-96.5" font-family="Helvetica,sans-Serif" font-size="10.00">/payload_impl.hpp</text>
</a>
</g>
</g>
<!-- Node12&#45;&gt;Node13 -->
<g id="edge14" class="edge">
<title>Node12&#45;&gt;Node13</title>
<path fill="none" stroke="midnightblue" d="M446.22,-335.01C441.64,-285.53 432.59,-187.67 428.32,-141.6"/>
<polygon fill="midnightblue" stroke="midnightblue" points="442.75,-335.45 447.16,-345.08 449.72,-334.8 442.75,-335.45"/>
</g>
<!-- Node13&#45;&gt;Node4 -->
<g id="edge15" class="edge">
<title>Node13&#45;&gt;Node4</title>
<path fill="none" stroke="midnightblue" d="M344.64,-87.48C311.13,-76.35 272.52,-63.54 239.63,-52.61"/>
<polygon fill="midnightblue" stroke="midnightblue" points="343.81,-90.9 354.41,-90.73 346.02,-84.25 343.81,-90.9"/>
</g>
<!-- Node13&#45;&gt;Node5 -->
<g id="edge17" class="edge">
<title>Node13&#45;&gt;Node5</title>
<path fill="none" stroke="midnightblue" d="M507.41,-89.38C544.93,-77.81 589.34,-64.11 626.83,-52.54"/>
<polygon fill="midnightblue" stroke="midnightblue" points="506.05,-86.14 497.53,-92.43 508.11,-92.83 506.05,-86.14"/>
</g>
<!-- Node13&#45;&gt;Node6 -->
<g id="edge18" class="edge">
<title>Node13&#45;&gt;Node6</title>
<path fill="none" stroke="midnightblue" d="M462.61,-82.65C473.99,-72.75 486.37,-61.98 497.14,-52.61"/>
<polygon fill="midnightblue" stroke="midnightblue" points="460.17,-80.13 454.92,-89.34 464.77,-85.41 460.17,-80.13"/>
</g>
<!-- Node14 -->
<g id="node14" class="node">
<title>Node14</title>
<g id="a_node14"><a xlink:href="compat_2message_2src_2payload__impl_8cpp.html" target="_top" xlink:title=" ">
<polygon fill="white" stroke="black" points="266.5,-0.5 266.5,-52.5 429.5,-52.5 429.5,-0.5 266.5,-0.5"/>
<text text-anchor="start" x="274.5" y="-40.5" font-family="Helvetica,sans-Serif" font-size="10.00">/home/kali/projects</text>
<text text-anchor="start" x="274.5" y="-29.5" font-family="Helvetica,sans-Serif" font-size="10.00">/vsomeip/implementation</text>
<text text-anchor="start" x="274.5" y="-18.5" font-family="Helvetica,sans-Serif" font-size="10.00">/compat/message/src/payload</text>
<text text-anchor="middle" x="348" y="-7.5" font-family="Helvetica,sans-Serif" font-size="10.00">_impl.cpp</text>
</a>
</g>
</g>
<!-- Node13&#45;&gt;Node14 -->
<g id="edge16" class="edge">
<title>Node13&#45;&gt;Node14</title>
<path fill="none" stroke="midnightblue" d="M396.67,-81.79C388.01,-72.13 378.67,-61.71 370.51,-52.61"/>
<polygon fill="midnightblue" stroke="midnightblue" points="394.16,-84.23 403.44,-89.34 399.37,-79.55 394.16,-84.23"/>
</g>
<!-- Node15&#45;&gt;Node9 -->
<g id="edge21" class="edge">
<title>Node15&#45;&gt;Node9</title>
<path fill="none" stroke="midnightblue" d="M392.27,-425.27C361.3,-413.01 323.74,-398.15 294.3,-386.5"/>
<polygon fill="midnightblue" stroke="midnightblue" points="391.07,-428.55 401.66,-428.98 393.65,-422.05 391.07,-428.55"/>
</g>
<!-- Node15&#45;&gt;Node12 -->
<g id="edge22" class="edge">
<title>Node15&#45;&gt;Node12</title>
<path fill="none" stroke="midnightblue" d="M450.27,-418.56C450,-407.88 449.71,-396.13 449.48,-386.55"/>
<polygon fill="midnightblue" stroke="midnightblue" points="446.77,-418.86 450.52,-428.77 453.77,-418.69 446.77,-418.86"/>
</g>
<!-- Node18&#45;&gt;Node5 -->
<g id="edge31" class="edge">
<title>Node18&#45;&gt;Node5</title>
<path fill="none" stroke="midnightblue" d="M643.34,-260.78C675.21,-234.72 719.93,-191.56 739,-142 747.46,-120.02 744.45,-111.92 739,-89 735.99,-76.32 729.92,-63.29 723.94,-52.5"/>
<polygon fill="midnightblue" stroke="midnightblue" points="640.75,-258.37 635.12,-267.35 645.12,-263.83 640.75,-258.37"/>
</g>
<!-- Node18&#45;&gt;Node11 -->
<g id="edge33" class="edge">
<title>Node18&#45;&gt;Node11</title>
<path fill="none" stroke="midnightblue" d="M535.87,-264.48C496.21,-252.09 447.48,-236.88 409.46,-225"/>
<polygon fill="midnightblue" stroke="midnightblue" points="534.9,-267.84 545.48,-267.48 536.98,-261.16 534.9,-267.84"/>
</g>
<!-- Node19 -->
<g id="node19" class="node">
<title>Node19</title>
<g id="a_node19"><a xlink:href="compat_2runtime_2include_2runtime__impl_8hpp.html" target="_top" xlink:title=" ">
<polygon fill="white" stroke="black" points="477.5,-178.5 477.5,-230.5 620.5,-230.5 620.5,-178.5 477.5,-178.5"/>
<text text-anchor="start" x="485.5" y="-218.5" font-family="Helvetica,sans-Serif" font-size="10.00">/home/kali/projects</text>
<text text-anchor="start" x="485.5" y="-207.5" font-family="Helvetica,sans-Serif" font-size="10.00">/vsomeip/implementation</text>
<text text-anchor="start" x="485.5" y="-196.5" font-family="Helvetica,sans-Serif" font-size="10.00">/compat/runtime/include</text>
<text text-anchor="middle" x="549" y="-185.5" font-family="Helvetica,sans-Serif" font-size="10.00">/runtime_impl.hpp</text>
</a>
</g>
</g>
<!-- Node18&#45;&gt;Node19 -->
<g id="edge28" class="edge">
<title>Node18&#45;&gt;Node19</title>
<path fill="none" stroke="midnightblue" d="M587.81,-259.12C581.12,-249.87 573.71,-239.63 567.18,-230.61"/>
<polygon fill="midnightblue" stroke="midnightblue" points="585.02,-261.22 593.72,-267.27 590.69,-257.12 585.02,-261.22"/>
</g>
<!-- Node20 -->
<g id="node20" class="node">
<title>Node20</title>
<g id="a_node20"><a xlink:href="compat_2runtime_2src_2runtime_8cpp.html" target="_top" xlink:title=" ">
<polygon fill="white" stroke="black" points="554,-95 554,-136 730,-136 730,-95 554,-95"/>
<text text-anchor="start" x="562" y="-124" font-family="Helvetica,sans-Serif" font-size="10.00">/home/kali/projects</text>
<text text-anchor="start" x="562" y="-113" font-family="Helvetica,sans-Serif" font-size="10.00">/vsomeip/implementation</text>
<text text-anchor="middle" x="642" y="-102" font-family="Helvetica,sans-Serif" font-size="10.00">/compat/runtime/src/runtime.cpp</text>
</a>
</g>
</g>
<!-- Node18&#45;&gt;Node20 -->
<g id="edge32" class="edge">
<title>Node18&#45;&gt;Node20</title>
<path fill="none" stroke="midnightblue" d="M621.13,-257.96C624.51,-249.42 627.81,-239.97 630,-231 637.96,-198.38 640.64,-159.26 641.54,-136.22"/>
<polygon fill="midnightblue" stroke="midnightblue" points="617.78,-256.89 617.18,-267.47 624.24,-259.57 617.78,-256.89"/>
</g>
<!-- Node19&#45;&gt;Node6 -->
<g id="edge30" class="edge">
<title>Node19&#45;&gt;Node6</title>
<path fill="none" stroke="midnightblue" d="M544.39,-168.25C539.92,-134.04 533.25,-82.97 529.29,-52.67"/>
<polygon fill="midnightblue" stroke="midnightblue" points="540.94,-168.82 545.7,-178.28 547.88,-167.91 540.94,-168.82"/>
</g>
<!-- Node19&#45;&gt;Node20 -->
<g id="edge29" class="edge">
<title>Node19&#45;&gt;Node20</title>
<path fill="none" stroke="midnightblue" d="M583.55,-171.18C596.15,-159.39 610.01,-146.43 621.07,-136.08"/>
<polygon fill="midnightblue" stroke="midnightblue" points="580.81,-168.95 575.9,-178.34 585.59,-174.06 580.81,-168.95"/>
</g>
</g>
</svg>
