<?xml version="1.0" encoding="UTF-8" standalone="no"?>
<!DOCTYPE svg PUBLIC "-//W3C//DTD SVG 1.1//EN"
 "http://www.w3.org/Graphics/SVG/1.1/DTD/svg11.dtd">
<!-- Generated by graphviz version 2.43.0 (0)
 -->
<!-- Title: /home/kali/projects/vsomeip/implementation/compat/message/src/message_impl.cpp Pages: 1 -->
<svg width="1796pt" height="452pt"
 viewBox="0.00 0.00 1795.50 452.00" xmlns="http://www.w3.org/2000/svg" xmlns:xlink="http://www.w3.org/1999/xlink">
<g id="graph0" class="graph" transform="scale(1 1) rotate(0) translate(4 448)">
<title>/home/kali/projects/vsomeip/implementation/compat/message/src/message_impl.cpp</title>
<polygon fill="white" stroke="transparent" points="-4,4 -4,-448 1791.5,-448 1791.5,4 -4,4"/>
<!-- Node1 -->
<g id="node1" class="node">
<title>Node1</title>
<g id="a_node1"><a xlink:title=" ">
<polygon fill="#bfbfbf" stroke="black" points="750.5,-391.5 750.5,-443.5 918.5,-443.5 918.5,-391.5 750.5,-391.5"/>
<text text-anchor="start" x="758.5" y="-431.5" font-family="Helvetica,sans-Serif" font-size="10.00">/home/kali/projects</text>
<text text-anchor="start" x="758.5" y="-420.5" font-family="Helvetica,sans-Serif" font-size="10.00">/vsomeip/implementation</text>
<text text-anchor="start" x="758.5" y="-409.5" font-family="Helvetica,sans-Serif" font-size="10.00">/compat/message/src/message</text>
<text text-anchor="middle" x="834.5" y="-398.5" font-family="Helvetica,sans-Serif" font-size="10.00">_impl.cpp</text>
</a>
</g>
</g>
<!-- Node2 -->
<g id="node2" class="node">
<title>Node2</title>
<g id="a_node2"><a xlink:href="logger_8hpp.html" target="_top" xlink:title=" ">
<polygon fill="white" stroke="black" points="513,-207 513,-226 666,-226 666,-207 513,-207"/>
<text text-anchor="middle" x="589.5" y="-214" font-family="Helvetica,sans-Serif" font-size="10.00">vsomeip/internal/logger.hpp</text>
</a>
</g>
</g>
<!-- Node1&#45;&gt;Node2 -->
<g id="edge1" class="edge">
<title>Node1&#45;&gt;Node2</title>
<path fill="none" stroke="midnightblue" d="M803.47,-391.3C751.91,-349.42 650.13,-266.75 608.21,-232.7"/>
<polygon fill="midnightblue" stroke="midnightblue" points="610.41,-229.97 600.44,-226.38 605.99,-235.41 610.41,-229.97"/>
</g>
<!-- Node10 -->
<g id="node10" class="node">
<title>Node10</title>
<g id="a_node10"><a xlink:href="compat_2message_2include_2message__impl_8hpp.html" target="_top" xlink:title=" ">
<polygon fill="white" stroke="black" points="780.5,-324.5 780.5,-354.5 888.5,-354.5 888.5,-324.5 780.5,-324.5"/>
<text text-anchor="start" x="788.5" y="-342.5" font-family="Helvetica,sans-Serif" font-size="10.00">../include/message</text>
<text text-anchor="middle" x="834.5" y="-331.5" font-family="Helvetica,sans-Serif" font-size="10.00">_impl.hpp</text>
</a>
</g>
</g>
<!-- Node1&#45;&gt;Node10 -->
<g id="edge9" class="edge">
<title>Node1&#45;&gt;Node10</title>
<path fill="none" stroke="midnightblue" d="M834.5,-391.19C834.5,-382.79 834.5,-373.44 834.5,-365.09"/>
<polygon fill="midnightblue" stroke="midnightblue" points="838,-364.85 834.5,-354.85 831,-364.85 838,-364.85"/>
</g>
<!-- Node23 -->
<g id="node23" class="node">
<title>Node23</title>
<g id="a_node23"><a xlink:href="compat_2message_2include_2payload__impl_8hpp.html" target="_top" xlink:title=" ">
<polygon fill="white" stroke="black" points="189,-201.5 189,-231.5 292,-231.5 292,-201.5 189,-201.5"/>
<text text-anchor="start" x="197" y="-219.5" font-family="Helvetica,sans-Serif" font-size="10.00">../include/payload</text>
<text text-anchor="middle" x="240.5" y="-208.5" font-family="Helvetica,sans-Serif" font-size="10.00">_impl.hpp</text>
</a>
</g>
</g>
<!-- Node1&#45;&gt;Node23 -->
<g id="edge28" class="edge">
<title>Node1&#45;&gt;Node23</title>
<path fill="none" stroke="midnightblue" d="M759.87,-391.5C637.62,-350.54 397.75,-270.18 292.31,-234.86"/>
<polygon fill="midnightblue" stroke="midnightblue" points="293.13,-231.44 282.53,-231.58 290.9,-238.08 293.13,-231.44"/>
</g>
<!-- Node27 -->
<g id="node27" class="node">
<title>Node27</title>
<g id="a_node27"><a xlink:href="internal_8hpp.html" target="_top" xlink:title=" ">
<polygon fill="white" stroke="black" points="1059.5,-201.5 1059.5,-231.5 1175.5,-231.5 1175.5,-201.5 1059.5,-201.5"/>
<text text-anchor="start" x="1067.5" y="-219.5" font-family="Helvetica,sans-Serif" font-size="10.00">../../../configuration</text>
<text text-anchor="middle" x="1117.5" y="-208.5" font-family="Helvetica,sans-Serif" font-size="10.00">/include/internal.hpp</text>
</a>
</g>
</g>
<!-- Node1&#45;&gt;Node27 -->
<g id="edge36" class="edge">
<title>Node1&#45;&gt;Node27</title>
<path fill="none" stroke="midnightblue" d="M870.06,-391.5C926.89,-351.53 1037.08,-274.05 1089.06,-237.5"/>
<polygon fill="midnightblue" stroke="midnightblue" points="1091.31,-240.2 1097.47,-231.58 1087.28,-234.47 1091.31,-240.2"/>
</g>
<!-- Node31 -->
<g id="node31" class="node">
<title>Node31</title>
<g id="a_node31"><a xlink:href="message_2include_2message__impl_8hpp.html" target="_top" xlink:title=" ">
<polygon fill="white" stroke="black" points="1150.5,-324.5 1150.5,-354.5 1276.5,-354.5 1276.5,-324.5 1150.5,-324.5"/>
<text text-anchor="start" x="1158.5" y="-342.5" font-family="Helvetica,sans-Serif" font-size="10.00">../../../message/include</text>
<text text-anchor="middle" x="1213.5" y="-331.5" font-family="Helvetica,sans-Serif" font-size="10.00">/message_impl.hpp</text>
</a>
</g>
</g>
<!-- Node1&#45;&gt;Node31 -->
<g id="edge41" class="edge">
<title>Node1&#45;&gt;Node31</title>
<path fill="none" stroke="midnightblue" d="M918.61,-399.63C985.06,-386.31 1076.86,-367.9 1140.3,-355.18"/>
<polygon fill="midnightblue" stroke="midnightblue" points="1141.11,-358.59 1150.23,-353.19 1139.74,-351.72 1141.11,-358.59"/>
</g>
<!-- Node3 -->
<g id="node3" class="node">
<title>Node3</title>
<g id="a_node3"><a xlink:title=" ">
<polygon fill="white" stroke="#bfbfbf" points="319.5,-140 319.5,-159 369.5,-159 369.5,-140 319.5,-140"/>
<text text-anchor="middle" x="344.5" y="-147" font-family="Helvetica,sans-Serif" font-size="10.00">chrono</text>
</a>
</g>
</g>
<!-- Node2&#45;&gt;Node3 -->
<g id="edge2" class="edge">
<title>Node2&#45;&gt;Node3</title>
<path fill="none" stroke="midnightblue" d="M544.02,-206.92C500.87,-198.24 434.47,-183.49 378.5,-165 376.58,-164.37 374.62,-163.67 372.65,-162.93"/>
<polygon fill="midnightblue" stroke="midnightblue" points="373.57,-159.53 362.99,-159.05 370.96,-166.03 373.57,-159.53"/>
</g>
<!-- Node4 -->
<g id="node4" class="node">
<title>Node4</title>
<g id="a_node4"><a xlink:title=" ">
<polygon fill="white" stroke="#bfbfbf" points="836.5,-6 836.5,-25 886.5,-25 886.5,-6 836.5,-6"/>
<text text-anchor="middle" x="861.5" y="-13" font-family="Helvetica,sans-Serif" font-size="10.00">cstdint</text>
</a>
</g>
</g>
<!-- Node2&#45;&gt;Node4 -->
<g id="edge3" class="edge">
<title>Node2&#45;&gt;Node4</title>
<path fill="none" stroke="midnightblue" d="M666.19,-207.95C711.28,-201.2 768.32,-188.56 814.5,-165 819.51,-162.44 888.18,-103.13 890.5,-98 900.3,-76.29 886.82,-50.19 875.15,-33.48"/>
<polygon fill="midnightblue" stroke="midnightblue" points="877.8,-31.17 869.01,-25.25 872.18,-35.36 877.8,-31.17"/>
</g>
<!-- Node5 -->
<g id="node5" class="node">
<title>Node5</title>
<g id="a_node5"><a xlink:title=" ">
<polygon fill="white" stroke="#bfbfbf" points="387.5,-140 387.5,-159 435.5,-159 435.5,-140 387.5,-140"/>
<text text-anchor="middle" x="411.5" y="-147" font-family="Helvetica,sans-Serif" font-size="10.00">mutex</text>
</a>
</g>
</g>
<!-- Node2&#45;&gt;Node5 -->
<g id="edge4" class="edge">
<title>Node2&#45;&gt;Node5</title>
<path fill="none" stroke="midnightblue" d="M563.08,-206.99C533.84,-197.42 485.43,-181.09 444.5,-165 442.9,-164.37 441.26,-163.71 439.61,-163.03"/>
<polygon fill="midnightblue" stroke="midnightblue" points="440.81,-159.74 430.24,-159.04 438.07,-166.18 440.81,-159.74"/>
</g>
<!-- Node6 -->
<g id="node6" class="node">
<title>Node6</title>
<g id="a_node6"><a xlink:title=" ">
<polygon fill="white" stroke="#bfbfbf" points="454,-140 454,-159 511,-159 511,-140 454,-140"/>
<text text-anchor="middle" x="482.5" y="-147" font-family="Helvetica,sans-Serif" font-size="10.00">ostream</text>
</a>
</g>
</g>
<!-- Node2&#45;&gt;Node6 -->
<g id="edge5" class="edge">
<title>Node2&#45;&gt;Node6</title>
<path fill="none" stroke="midnightblue" d="M575.07,-206.73C557.18,-195.87 526.48,-177.22 505.37,-164.39"/>
<polygon fill="midnightblue" stroke="midnightblue" points="507.07,-161.33 496.7,-159.13 503.43,-167.31 507.07,-161.33"/>
</g>
<!-- Node7 -->
<g id="node7" class="node">
<title>Node7</title>
<g id="a_node7"><a xlink:title=" ">
<polygon fill="white" stroke="#bfbfbf" points="529.5,-140 529.5,-159 585.5,-159 585.5,-140 529.5,-140"/>
<text text-anchor="middle" x="557.5" y="-147" font-family="Helvetica,sans-Serif" font-size="10.00">sstream</text>
</a>
</g>
</g>
<!-- Node2&#45;&gt;Node7 -->
<g id="edge6" class="edge">
<title>Node2&#45;&gt;Node7</title>
<path fill="none" stroke="midnightblue" d="M585.18,-206.73C580.34,-196.89 572.35,-180.66 566.19,-168.16"/>
<polygon fill="midnightblue" stroke="midnightblue" points="569.3,-166.55 561.75,-159.13 563.02,-169.64 569.3,-166.55"/>
</g>
<!-- Node8 -->
<g id="node8" class="node">
<title>Node8</title>
<g id="a_node8"><a xlink:title=" ">
<polygon fill="white" stroke="#bfbfbf" points="604,-140 604,-159 671,-159 671,-140 604,-140"/>
<text text-anchor="middle" x="637.5" y="-147" font-family="Helvetica,sans-Serif" font-size="10.00">streambuf</text>
</a>
</g>
</g>
<!-- Node2&#45;&gt;Node8 -->
<g id="edge7" class="edge">
<title>Node2&#45;&gt;Node8</title>
<path fill="none" stroke="midnightblue" d="M595.97,-206.73C603.39,-196.7 615.7,-180.01 625,-167.42"/>
<polygon fill="midnightblue" stroke="midnightblue" points="628,-169.25 631.13,-159.13 622.37,-165.09 628,-169.25"/>
</g>
<!-- Node9 -->
<g id="node9" class="node">
<title>Node9</title>
<g id="a_node9"><a xlink:title=" ">
<polygon fill="white" stroke="#bfbfbf" points="1673.5,-140 1673.5,-159 1787.5,-159 1787.5,-140 1673.5,-140"/>
<text text-anchor="middle" x="1730.5" y="-147" font-family="Helvetica,sans-Serif" font-size="10.00">vsomeip/export.hpp</text>
</a>
</g>
</g>
<!-- Node2&#45;&gt;Node9 -->
<g id="edge8" class="edge">
<title>Node2&#45;&gt;Node9</title>
<path fill="none" stroke="midnightblue" d="M660.71,-206.99C681.56,-204.74 704.42,-202.53 725.5,-201 1142.05,-170.84 1250.24,-218.02 1664.5,-165 1671.86,-164.06 1679.61,-162.7 1687.11,-161.18"/>
<polygon fill="midnightblue" stroke="midnightblue" points="1688.08,-164.55 1697.13,-159.04 1686.62,-157.71 1688.08,-164.55"/>
</g>
<!-- Node11 -->
<g id="node11" class="node">
<title>Node11</title>
<g id="a_node11"><a xlink:href="compat_2vsomeip_2message_8hpp.html" target="_top" xlink:title=" ">
<polygon fill="white" stroke="black" points="734,-207 734,-226 901,-226 901,-207 734,-207"/>
<text text-anchor="middle" x="817.5" y="-214" font-family="Helvetica,sans-Serif" font-size="10.00">compat/vsomeip/message.hpp</text>
</a>
</g>
</g>
<!-- Node10&#45;&gt;Node11 -->
<g id="edge10" class="edge">
<title>Node10&#45;&gt;Node11</title>
<path fill="none" stroke="midnightblue" d="M829.15,-324.15C825.7,-314.16 821.49,-300.46 819.5,-288 816.72,-270.64 816.43,-250.57 816.71,-236.29"/>
<polygon fill="midnightblue" stroke="midnightblue" points="820.21,-236.35 817.02,-226.25 813.22,-236.14 820.21,-236.35"/>
</g>
<!-- Node21 -->
<g id="node21" class="node">
<title>Node21</title>
<g id="a_node21"><a xlink:href="compat_2message_2include_2message__base__impl_8hpp.html" target="_top" xlink:title=" ">
<polygon fill="white" stroke="black" points="828,-268.5 828,-287.5 965,-287.5 965,-268.5 828,-268.5"/>
<text text-anchor="middle" x="896.5" y="-275.5" font-family="Helvetica,sans-Serif" font-size="10.00">message_base_impl.hpp</text>
</a>
</g>
</g>
<!-- Node10&#45;&gt;Node21 -->
<g id="edge24" class="edge">
<title>Node10&#45;&gt;Node21</title>
<path fill="none" stroke="midnightblue" d="M849.19,-324.4C858.48,-315.49 870.5,-303.95 880.1,-294.74"/>
<polygon fill="midnightblue" stroke="midnightblue" points="882.69,-297.11 887.48,-287.66 877.84,-292.06 882.69,-297.11"/>
</g>
<!-- Node12 -->
<g id="node12" class="node">
<title>Node12</title>
<g id="a_node12"><a xlink:title=" ">
<polygon fill="white" stroke="#bfbfbf" points="861.5,-140 861.5,-159 919.5,-159 919.5,-140 861.5,-140"/>
<text text-anchor="middle" x="890.5" y="-147" font-family="Helvetica,sans-Serif" font-size="10.00">memory</text>
</a>
</g>
</g>
<!-- Node11&#45;&gt;Node12 -->
<g id="edge11" class="edge">
<title>Node11&#45;&gt;Node12</title>
<path fill="none" stroke="midnightblue" d="M827.35,-206.73C839.06,-196.31 858.82,-178.71 873.12,-165.97"/>
<polygon fill="midnightblue" stroke="midnightblue" points="875.67,-168.39 880.81,-159.13 871.01,-163.16 875.67,-168.39"/>
</g>
<!-- Node13 -->
<g id="node13" class="node">
<title>Node13</title>
<g id="a_node13"><a xlink:href="compat_2vsomeip_2message__base_8hpp.html" target="_top" xlink:title=" ">
<polygon fill="white" stroke="black" points="689.5,-134.5 689.5,-164.5 805.5,-164.5 805.5,-134.5 689.5,-134.5"/>
<text text-anchor="start" x="697.5" y="-152.5" font-family="Helvetica,sans-Serif" font-size="10.00">../../compat/vsomeip</text>
<text text-anchor="middle" x="747.5" y="-141.5" font-family="Helvetica,sans-Serif" font-size="10.00">/message_base.hpp</text>
</a>
</g>
</g>
<!-- Node11&#45;&gt;Node13 -->
<g id="edge12" class="edge">
<title>Node11&#45;&gt;Node13</title>
<path fill="none" stroke="midnightblue" d="M808.06,-206.73C798.42,-197.78 783.08,-183.54 770.26,-171.63"/>
<polygon fill="midnightblue" stroke="midnightblue" points="772.38,-168.83 762.67,-164.59 767.62,-173.96 772.38,-168.83"/>
</g>
<!-- Node14 -->
<g id="node14" class="node">
<title>Node14</title>
<g id="a_node14"><a xlink:href="interface_2compat_2vsomeip_2enumeration__types_8hpp.html" target="_top" xlink:title=" ">
<polygon fill="white" stroke="black" points="746,-67.5 746,-97.5 881,-97.5 881,-67.5 746,-67.5"/>
<text text-anchor="start" x="754" y="-85.5" font-family="Helvetica,sans-Serif" font-size="10.00">../../compat/vsomeip</text>
<text text-anchor="middle" x="813.5" y="-74.5" font-family="Helvetica,sans-Serif" font-size="10.00">/enumeration_types.hpp</text>
</a>
</g>
</g>
<!-- Node13&#45;&gt;Node14 -->
<g id="edge13" class="edge">
<title>Node13&#45;&gt;Node14</title>
<path fill="none" stroke="midnightblue" d="M761.82,-134.4C770.64,-125.71 782.12,-114.4 792.02,-104.66"/>
<polygon fill="midnightblue" stroke="midnightblue" points="794.54,-107.09 799.21,-97.58 789.63,-102.1 794.54,-107.09"/>
</g>
<!-- Node15 -->
<g id="node15" class="node">
<title>Node15</title>
<g id="a_node15"><a xlink:href="compat_2vsomeip_2export_8hpp.html" target="_top" xlink:title=" ">
<polygon fill="white" stroke="black" points="389.5,-0.5 389.5,-30.5 505.5,-30.5 505.5,-0.5 389.5,-0.5"/>
<text text-anchor="start" x="397.5" y="-18.5" font-family="Helvetica,sans-Serif" font-size="10.00">../../compat/vsomeip</text>
<text text-anchor="middle" x="447.5" y="-7.5" font-family="Helvetica,sans-Serif" font-size="10.00">/export.hpp</text>
</a>
</g>
</g>
<!-- Node13&#45;&gt;Node15 -->
<g id="edge15" class="edge">
<title>Node13&#45;&gt;Node15</title>
<path fill="none" stroke="midnightblue" d="M689.88,-134.49C646.15,-123.44 590,-108.24 568.5,-98 546.9,-87.72 544.28,-80.45 524.5,-67 509.28,-56.65 492.18,-45.4 477.97,-36.15"/>
<polygon fill="midnightblue" stroke="midnightblue" points="479.83,-33.18 469.53,-30.67 476.02,-39.05 479.83,-33.18"/>
</g>
<!-- Node16 -->
<g id="node16" class="node">
<title>Node16</title>
<g id="a_node16"><a xlink:href="compat_2vsomeip_2internal_2deserializable_8hpp.html" target="_top" xlink:title=" ">
<polygon fill="white" stroke="black" points="212,-67.5 212,-97.5 361,-97.5 361,-67.5 212,-67.5"/>
<text text-anchor="start" x="220" y="-85.5" font-family="Helvetica,sans-Serif" font-size="10.00">../../compat/vsomeip</text>
<text text-anchor="middle" x="286.5" y="-74.5" font-family="Helvetica,sans-Serif" font-size="10.00">/internal/deserializable.hpp</text>
</a>
</g>
</g>
<!-- Node13&#45;&gt;Node16 -->
<g id="edge16" class="edge">
<title>Node13&#45;&gt;Node16</title>
<path fill="none" stroke="midnightblue" d="M689.33,-135.72C686.01,-135.11 682.72,-134.53 679.5,-134 545.84,-112.04 508.5,-117.66 371.19,-98.19"/>
<polygon fill="midnightblue" stroke="midnightblue" points="371.52,-94.7 361.12,-96.74 370.52,-101.63 371.52,-94.7"/>
</g>
<!-- Node17 -->
<g id="node17" class="node">
<title>Node17</title>
<g id="a_node17"><a xlink:href="compat_2vsomeip_2internal_2serializable_8hpp.html" target="_top" xlink:title=" ">
<polygon fill="white" stroke="black" points="379,-67.5 379,-97.5 516,-97.5 516,-67.5 379,-67.5"/>
<text text-anchor="start" x="387" y="-85.5" font-family="Helvetica,sans-Serif" font-size="10.00">../../compat/vsomeip</text>
<text text-anchor="middle" x="447.5" y="-74.5" font-family="Helvetica,sans-Serif" font-size="10.00">/internal/serializable.hpp</text>
</a>
</g>
</g>
<!-- Node13&#45;&gt;Node17 -->
<g id="edge18" class="edge">
<title>Node13&#45;&gt;Node17</title>
<path fill="none" stroke="midnightblue" d="M689.3,-135.89C641.6,-125.55 573.77,-110.86 522.08,-99.66"/>
<polygon fill="midnightblue" stroke="midnightblue" points="522.82,-96.24 512.3,-97.54 521.33,-103.08 522.82,-96.24"/>
</g>
<!-- Node18 -->
<g id="node18" class="node">
<title>Node18</title>
<g id="a_node18"><a xlink:href="interface_2compat_2vsomeip_2primitive__types_8hpp.html" target="_top" xlink:title=" ">
<polygon fill="white" stroke="black" points="611,-67.5 611,-97.5 728,-97.5 728,-67.5 611,-67.5"/>
<text text-anchor="start" x="619" y="-85.5" font-family="Helvetica,sans-Serif" font-size="10.00">../../compat/vsomeip</text>
<text text-anchor="middle" x="669.5" y="-74.5" font-family="Helvetica,sans-Serif" font-size="10.00">/primitive_types.hpp</text>
</a>
</g>
</g>
<!-- Node13&#45;&gt;Node18 -->
<g id="edge20" class="edge">
<title>Node13&#45;&gt;Node18</title>
<path fill="none" stroke="midnightblue" d="M730.58,-134.4C719.95,-125.54 706.05,-113.96 694.2,-104.09"/>
<polygon fill="midnightblue" stroke="midnightblue" points="696.31,-101.29 686.39,-97.58 691.83,-106.67 696.31,-101.29"/>
</g>
<!-- Node14&#45;&gt;Node4 -->
<g id="edge14" class="edge">
<title>Node14&#45;&gt;Node4</title>
<path fill="none" stroke="midnightblue" d="M823.92,-67.4C831.33,-57.36 841.31,-43.84 849.13,-33.25"/>
<polygon fill="midnightblue" stroke="midnightblue" points="851.95,-35.32 855.08,-25.19 846.32,-31.16 851.95,-35.32"/>
</g>
<!-- Node16&#45;&gt;Node15 -->
<g id="edge17" class="edge">
<title>Node16&#45;&gt;Node15</title>
<path fill="none" stroke="midnightblue" d="M321.43,-67.4C345.38,-57.73 377.35,-44.82 403.1,-34.43"/>
<polygon fill="midnightblue" stroke="midnightblue" points="404.67,-37.57 412.63,-30.58 402.05,-31.07 404.67,-37.57"/>
</g>
<!-- Node17&#45;&gt;Node15 -->
<g id="edge19" class="edge">
<title>Node17&#45;&gt;Node15</title>
<path fill="none" stroke="midnightblue" d="M447.5,-67.4C447.5,-59.64 447.5,-49.81 447.5,-40.86"/>
<polygon fill="midnightblue" stroke="midnightblue" points="451,-40.58 447.5,-30.58 444,-40.58 451,-40.58"/>
</g>
<!-- Node18&#45;&gt;Node4 -->
<g id="edge22" class="edge">
<title>Node18&#45;&gt;Node4</title>
<path fill="none" stroke="midnightblue" d="M711.16,-67.4C745.74,-55.69 794.36,-39.23 826.84,-28.23"/>
<polygon fill="midnightblue" stroke="midnightblue" points="828.02,-31.53 836.37,-25.01 825.78,-24.9 828.02,-31.53"/>
</g>
<!-- Node19 -->
<g id="node19" class="node">
<title>Node19</title>
<g id="a_node19"><a xlink:title=" ">
<polygon fill="white" stroke="#bfbfbf" points="610.5,-6 610.5,-25 652.5,-25 652.5,-6 610.5,-6"/>
<text text-anchor="middle" x="631.5" y="-13" font-family="Helvetica,sans-Serif" font-size="10.00">array</text>
</a>
</g>
</g>
<!-- Node18&#45;&gt;Node19 -->
<g id="edge21" class="edge">
<title>Node18&#45;&gt;Node19</title>
<path fill="none" stroke="midnightblue" d="M661.25,-67.4C655.51,-57.56 647.8,-44.38 641.67,-33.89"/>
<polygon fill="midnightblue" stroke="midnightblue" points="644.65,-32.06 636.58,-25.19 638.61,-35.59 644.65,-32.06"/>
</g>
<!-- Node20 -->
<g id="node20" class="node">
<title>Node20</title>
<g id="a_node20"><a xlink:title=" ">
<polygon fill="white" stroke="#bfbfbf" points="670.5,-6 670.5,-25 742.5,-25 742.5,-6 670.5,-6"/>
<text text-anchor="middle" x="706.5" y="-13" font-family="Helvetica,sans-Serif" font-size="10.00">sys/types.h</text>
</a>
</g>
</g>
<!-- Node18&#45;&gt;Node20 -->
<g id="edge23" class="edge">
<title>Node18&#45;&gt;Node20</title>
<path fill="none" stroke="midnightblue" d="M677.53,-67.4C683.13,-57.56 690.63,-44.38 696.6,-33.89"/>
<polygon fill="midnightblue" stroke="midnightblue" points="699.65,-35.62 701.55,-25.19 693.56,-32.15 699.65,-35.62"/>
</g>
<!-- Node21&#45;&gt;Node11 -->
<g id="edge26" class="edge">
<title>Node21&#45;&gt;Node11</title>
<path fill="none" stroke="midnightblue" d="M885.18,-268.48C872.63,-259.02 852.15,-243.6 837,-232.19"/>
<polygon fill="midnightblue" stroke="midnightblue" points="838.89,-229.23 828.8,-226.01 834.68,-234.82 838.89,-229.23"/>
</g>
<!-- Node21&#45;&gt;Node15 -->
<g id="edge25" class="edge">
<title>Node21&#45;&gt;Node15</title>
<path fill="none" stroke="midnightblue" d="M902.93,-268.31C920.2,-243.85 963.98,-173.6 928.5,-134 879.72,-79.55 669.43,-125.02 601.5,-98 580.27,-89.56 580.17,-78.62 560.5,-67 539.41,-54.53 514.68,-43.15 493.75,-34.36"/>
<polygon fill="midnightblue" stroke="midnightblue" points="495,-31.09 484.42,-30.51 492.33,-37.56 495,-31.09"/>
</g>
<!-- Node22 -->
<g id="node22" class="node">
<title>Node22</title>
<g id="a_node22"><a xlink:title=" ">
<polygon fill="white" stroke="#bfbfbf" points="1242,-207 1242,-226 1369,-226 1369,-207 1242,-207"/>
<text text-anchor="middle" x="1305.5" y="-214" font-family="Helvetica,sans-Serif" font-size="10.00">vsomeip/message.hpp</text>
</a>
</g>
</g>
<!-- Node21&#45;&gt;Node22 -->
<g id="edge27" class="edge">
<title>Node21&#45;&gt;Node22</title>
<path fill="none" stroke="midnightblue" d="M955.1,-268.48C1029.51,-257.65 1157.69,-239 1236.68,-227.51"/>
<polygon fill="midnightblue" stroke="midnightblue" points="1237.62,-230.91 1247.01,-226.01 1236.61,-223.99 1237.62,-230.91"/>
</g>
<!-- Node24 -->
<g id="node24" class="node">
<title>Node24</title>
<g id="a_node24"><a xlink:href="compat_2vsomeip_2payload_8hpp.html" target="_top" xlink:title=" ">
<polygon fill="white" stroke="black" points="0,-140 0,-159 161,-159 161,-140 0,-140"/>
<text text-anchor="middle" x="80.5" y="-147" font-family="Helvetica,sans-Serif" font-size="10.00">compat/vsomeip/payload.hpp</text>
</a>
</g>
</g>
<!-- Node23&#45;&gt;Node24 -->
<g id="edge29" class="edge">
<title>Node23&#45;&gt;Node24</title>
<path fill="none" stroke="midnightblue" d="M205.78,-201.4C177.46,-189.89 137.85,-173.8 110.79,-162.81"/>
<polygon fill="midnightblue" stroke="midnightblue" points="112.02,-159.53 101.44,-159.01 109.39,-166.01 112.02,-159.53"/>
</g>
<!-- Node26 -->
<g id="node26" class="node">
<title>Node26</title>
<g id="a_node26"><a xlink:title=" ">
<polygon fill="white" stroke="#bfbfbf" points="179.5,-140 179.5,-159 301.5,-159 301.5,-140 179.5,-140"/>
<text text-anchor="middle" x="240.5" y="-147" font-family="Helvetica,sans-Serif" font-size="10.00">vsomeip/payload.hpp</text>
</a>
</g>
</g>
<!-- Node23&#45;&gt;Node26 -->
<g id="edge35" class="edge">
<title>Node23&#45;&gt;Node26</title>
<path fill="none" stroke="midnightblue" d="M240.5,-201.4C240.5,-192.06 240.5,-179.71 240.5,-169.52"/>
<polygon fill="midnightblue" stroke="midnightblue" points="244,-169.19 240.5,-159.19 237,-169.19 244,-169.19"/>
</g>
<!-- Node24&#45;&gt;Node15 -->
<g id="edge31" class="edge">
<title>Node24&#45;&gt;Node15</title>
<path fill="none" stroke="midnightblue" d="M79.65,-139.83C78.53,-123.04 78.74,-86.07 99.5,-67 139.17,-30.57 289.48,-20.37 379.07,-17.54"/>
<polygon fill="midnightblue" stroke="midnightblue" points="379.25,-21.04 389.14,-17.25 379.04,-14.04 379.25,-21.04"/>
</g>
<!-- Node24&#45;&gt;Node16 -->
<g id="edge32" class="edge">
<title>Node24&#45;&gt;Node16</title>
<path fill="none" stroke="midnightblue" d="M107.86,-139.87C139.5,-129.88 192.38,-113.2 232.42,-100.56"/>
<polygon fill="midnightblue" stroke="midnightblue" points="233.56,-103.88 242.04,-97.53 231.45,-97.2 233.56,-103.88"/>
</g>
<!-- Node24&#45;&gt;Node17 -->
<g id="edge33" class="edge">
<title>Node24&#45;&gt;Node17</title>
<path fill="none" stroke="midnightblue" d="M130.13,-139.99C185.65,-130.44 278.52,-114.35 368.5,-98.17"/>
<polygon fill="midnightblue" stroke="midnightblue" points="369.38,-101.57 378.6,-96.35 368.14,-94.68 369.38,-101.57"/>
</g>
<!-- Node24&#45;&gt;Node18 -->
<g id="edge34" class="edge">
<title>Node24&#45;&gt;Node18</title>
<path fill="none" stroke="midnightblue" d="M129.94,-140C143.1,-137.88 157.32,-135.73 170.5,-134 181.04,-132.62 466.24,-103.92 600.64,-90.42"/>
<polygon fill="midnightblue" stroke="midnightblue" points="601.23,-93.87 610.83,-89.39 600.53,-86.91 601.23,-93.87"/>
</g>
<!-- Node25 -->
<g id="node25" class="node">
<title>Node25</title>
<g id="a_node25"><a xlink:title=" ">
<polygon fill="white" stroke="#bfbfbf" points="109,-73 109,-92 156,-92 156,-73 109,-73"/>
<text text-anchor="middle" x="132.5" y="-80" font-family="Helvetica,sans-Serif" font-size="10.00">vector</text>
</a>
</g>
</g>
<!-- Node24&#45;&gt;Node25 -->
<g id="edge30" class="edge">
<title>Node24&#45;&gt;Node25</title>
<path fill="none" stroke="midnightblue" d="M87.51,-139.73C95.62,-129.6 109.15,-112.69 119.26,-100.06"/>
<polygon fill="midnightblue" stroke="midnightblue" points="122.08,-102.12 125.6,-92.13 116.62,-97.75 122.08,-102.12"/>
</g>
<!-- Node27&#45;&gt;Node4 -->
<g id="edge37" class="edge">
<title>Node27&#45;&gt;Node4</title>
<path fill="none" stroke="midnightblue" d="M1074.61,-201.4C1052.64,-192.93 1026.23,-180.72 1005.5,-165 960.25,-130.68 963.92,-106.89 923.5,-67 910.33,-54.01 894.08,-40.86 881.51,-31.24"/>
<polygon fill="midnightblue" stroke="midnightblue" points="883.58,-28.41 873.49,-25.18 879.36,-34 883.58,-28.41"/>
</g>
<!-- Node28 -->
<g id="node28" class="node">
<title>Node28</title>
<g id="a_node28"><a xlink:title=" ">
<polygon fill="white" stroke="#bfbfbf" points="1095.5,-140 1095.5,-159 1139.5,-159 1139.5,-140 1095.5,-140"/>
<text text-anchor="middle" x="1117.5" y="-147" font-family="Helvetica,sans-Serif" font-size="10.00">limits</text>
</a>
</g>
</g>
<!-- Node27&#45;&gt;Node28 -->
<g id="edge38" class="edge">
<title>Node27&#45;&gt;Node28</title>
<path fill="none" stroke="midnightblue" d="M1117.5,-201.4C1117.5,-192.06 1117.5,-179.71 1117.5,-169.52"/>
<polygon fill="midnightblue" stroke="midnightblue" points="1121,-169.19 1117.5,-159.19 1114,-169.19 1121,-169.19"/>
</g>
<!-- Node29 -->
<g id="node29" class="node">
<title>Node29</title>
<g id="a_node29"><a xlink:title=" ">
<polygon fill="white" stroke="#bfbfbf" points="1157,-140 1157,-159 1316,-159 1316,-140 1157,-140"/>
<text text-anchor="middle" x="1236.5" y="-147" font-family="Helvetica,sans-Serif" font-size="10.00">vsomeip/primitive_types.hpp</text>
</a>
</g>
</g>
<!-- Node27&#45;&gt;Node29 -->
<g id="edge39" class="edge">
<title>Node27&#45;&gt;Node29</title>
<path fill="none" stroke="midnightblue" d="M1143.32,-201.4C1163.74,-190.24 1192.05,-174.78 1212.09,-163.83"/>
<polygon fill="midnightblue" stroke="midnightblue" points="1213.83,-166.87 1220.93,-159.01 1210.47,-160.73 1213.83,-166.87"/>
</g>
<!-- Node30 -->
<g id="node30" class="node">
<title>Node30</title>
<g id="a_node30"><a xlink:title=" ">
<polygon fill="white" stroke="#bfbfbf" points="1014,-140 1014,-159 1077,-159 1077,-140 1014,-140"/>
<text text-anchor="middle" x="1045.5" y="-147" font-family="Helvetica,sans-Serif" font-size="10.00">pthread.h</text>
</a>
</g>
</g>
<!-- Node27&#45;&gt;Node30 -->
<g id="edge40" class="edge">
<title>Node27&#45;&gt;Node30</title>
<path fill="none" stroke="midnightblue" d="M1101.88,-201.4C1090.32,-190.96 1074.58,-176.75 1062.67,-166"/>
<polygon fill="midnightblue" stroke="midnightblue" points="1064.9,-163.3 1055.13,-159.19 1060.21,-168.49 1064.9,-163.3"/>
</g>
<!-- Node31&#45;&gt;Node9 -->
<g id="edge43" class="edge">
<title>Node31&#45;&gt;Node9</title>
<path fill="none" stroke="midnightblue" d="M1276.64,-332.96C1394.38,-321.34 1640.92,-290.52 1700.5,-232 1717.6,-215.2 1725.03,-187.83 1728.21,-169.5"/>
<polygon fill="midnightblue" stroke="midnightblue" points="1731.7,-169.83 1729.68,-159.43 1724.77,-168.82 1731.7,-169.83"/>
</g>
<!-- Node31&#45;&gt;Node12 -->
<g id="edge42" class="edge">
<title>Node31&#45;&gt;Node12</title>
<path fill="none" stroke="midnightblue" d="M1189.22,-324.37C1129.06,-289.35 973.65,-198.9 914.15,-164.27"/>
<polygon fill="midnightblue" stroke="midnightblue" points="915.86,-161.21 905.46,-159.21 912.34,-167.26 915.86,-161.21"/>
</g>
<!-- Node31&#45;&gt;Node29 -->
<g id="edge44" class="edge">
<title>Node31&#45;&gt;Node29</title>
<path fill="none" stroke="midnightblue" d="M1215.23,-324.37C1219.32,-290.94 1229.59,-206.97 1234.2,-169.3"/>
<polygon fill="midnightblue" stroke="midnightblue" points="1237.69,-169.56 1235.43,-159.21 1230.75,-168.71 1237.69,-169.56"/>
</g>
<!-- Node32 -->
<g id="node32" class="node">
<title>Node32</title>
<g id="a_node32"><a xlink:href="message_2include_2message__base__impl_8hpp.html" target="_top" xlink:title=" ">
<polygon fill="white" stroke="black" points="1393,-268.5 1393,-287.5 1530,-287.5 1530,-268.5 1393,-268.5"/>
<text text-anchor="middle" x="1461.5" y="-275.5" font-family="Helvetica,sans-Serif" font-size="10.00">message_base_impl.hpp</text>
</a>
</g>
</g>
<!-- Node31&#45;&gt;Node32 -->
<g id="edge45" class="edge">
<title>Node31&#45;&gt;Node32</title>
<path fill="none" stroke="midnightblue" d="M1271.96,-324.47C1316.05,-313.9 1375.66,-299.59 1416.18,-289.87"/>
<polygon fill="midnightblue" stroke="midnightblue" points="1417.14,-293.24 1426.04,-287.51 1415.5,-286.44 1417.14,-293.24"/>
</g>
<!-- Node32&#45;&gt;Node9 -->
<g id="edge47" class="edge">
<title>Node32&#45;&gt;Node9</title>
<path fill="none" stroke="midnightblue" d="M1479.51,-268.38C1496.68,-259.9 1523.03,-246.19 1544.5,-232 1562.97,-219.79 1564.08,-211.64 1583.5,-201 1615.71,-183.35 1655.23,-170.19 1685.17,-161.74"/>
<polygon fill="midnightblue" stroke="midnightblue" points="1686.22,-165.08 1694.94,-159.05 1684.37,-158.33 1686.22,-165.08"/>
</g>
<!-- Node32&#45;&gt;Node22 -->
<g id="edge48" class="edge">
<title>Node32&#45;&gt;Node22</title>
<path fill="none" stroke="midnightblue" d="M1439.15,-268.48C1412.51,-258.31 1367.79,-241.26 1337.49,-229.7"/>
<polygon fill="midnightblue" stroke="midnightblue" points="1338.4,-226.3 1327.81,-226.01 1335.91,-232.84 1338.4,-226.3"/>
</g>
<!-- Node33 -->
<g id="node33" class="node">
<title>Node33</title>
<g id="a_node33"><a xlink:title=" ">
<polygon fill="white" stroke="#bfbfbf" points="1592,-207 1592,-226 1691,-226 1691,-207 1592,-207"/>
<text text-anchor="middle" x="1641.5" y="-214" font-family="Helvetica,sans-Serif" font-size="10.00">boost/thread.hpp</text>
</a>
</g>
</g>
<!-- Node32&#45;&gt;Node33 -->
<g id="edge46" class="edge">
<title>Node32&#45;&gt;Node33</title>
<path fill="none" stroke="midnightblue" d="M1487.29,-268.48C1518.43,-258.18 1570.98,-240.81 1605.95,-229.25"/>
<polygon fill="midnightblue" stroke="midnightblue" points="1607.36,-232.47 1615.76,-226.01 1605.16,-225.82 1607.36,-232.47"/>
</g>
<!-- Node34 -->
<g id="node34" class="node">
<title>Node34</title>
<g id="a_node34"><a xlink:href="message__header__impl_8hpp.html" target="_top" xlink:title=" ">
<polygon fill="white" stroke="black" points="1387.5,-207 1387.5,-226 1535.5,-226 1535.5,-207 1387.5,-207"/>
<text text-anchor="middle" x="1461.5" y="-214" font-family="Helvetica,sans-Serif" font-size="10.00">message_header_impl.hpp</text>
</a>
</g>
</g>
<!-- Node32&#45;&gt;Node34 -->
<g id="edge49" class="edge">
<title>Node32&#45;&gt;Node34</title>
<path fill="none" stroke="midnightblue" d="M1461.5,-268.48C1461.5,-260.08 1461.5,-246.98 1461.5,-236.16"/>
<polygon fill="midnightblue" stroke="midnightblue" points="1465,-236.01 1461.5,-226.01 1458,-236.01 1465,-236.01"/>
</g>
<!-- Node34&#45;&gt;Node9 -->
<g id="edge50" class="edge">
<title>Node34&#45;&gt;Node9</title>
<path fill="none" stroke="midnightblue" d="M1496.94,-206.94C1545.33,-195.24 1632.09,-174.28 1685.16,-161.46"/>
<polygon fill="midnightblue" stroke="midnightblue" points="1686.08,-164.83 1694.98,-159.08 1684.44,-158.03 1686.08,-164.83"/>
</g>
<!-- Node34&#45;&gt;Node29 -->
<g id="edge51" class="edge">
<title>Node34&#45;&gt;Node29</title>
<path fill="none" stroke="midnightblue" d="M1431.62,-206.87C1391.59,-195.3 1320.44,-174.75 1276.01,-161.91"/>
<polygon fill="midnightblue" stroke="midnightblue" points="1276.72,-158.48 1266.14,-159.06 1274.78,-165.2 1276.72,-158.48"/>
</g>
<!-- Node35 -->
<g id="node35" class="node">
<title>Node35</title>
<g id="a_node35"><a xlink:title=" ">
<polygon fill="white" stroke="#bfbfbf" points="1531.5,-134.5 1531.5,-164.5 1655.5,-164.5 1655.5,-134.5 1531.5,-134.5"/>
<text text-anchor="start" x="1539.5" y="-152.5" font-family="Helvetica,sans-Serif" font-size="10.00">vsomeip/enumeration</text>
<text text-anchor="middle" x="1593.5" y="-141.5" font-family="Helvetica,sans-Serif" font-size="10.00">_types.hpp</text>
</a>
</g>
</g>
<!-- Node34&#45;&gt;Node35 -->
<g id="edge52" class="edge">
<title>Node34&#45;&gt;Node35</title>
<path fill="none" stroke="midnightblue" d="M1479.03,-206.87C1498.43,-197.31 1530.29,-181.63 1555.47,-169.22"/>
<polygon fill="midnightblue" stroke="midnightblue" points="1557.34,-172.21 1564.76,-164.65 1554.24,-165.93 1557.34,-172.21"/>
</g>
<!-- Node36 -->
<g id="node36" class="node">
<title>Node36</title>
<g id="a_node36"><a xlink:title=" ">
<polygon fill="white" stroke="#bfbfbf" points="1334,-140 1334,-159 1513,-159 1513,-140 1334,-140"/>
<text text-anchor="middle" x="1423.5" y="-147" font-family="Helvetica,sans-Serif" font-size="10.00">vsomeip/internal/serializable.hpp</text>
</a>
</g>
</g>
<!-- Node34&#45;&gt;Node36 -->
<g id="edge53" class="edge">
<title>Node34&#45;&gt;Node36</title>
<path fill="none" stroke="midnightblue" d="M1456.38,-206.73C1450.56,-196.79 1440.94,-180.34 1433.61,-167.79"/>
<polygon fill="midnightblue" stroke="midnightblue" points="1436.61,-165.99 1428.54,-159.13 1430.57,-169.53 1436.61,-165.99"/>
</g>
</g>
</svg>
