<?xml version="1.0" encoding="UTF-8" standalone="no"?>
<!DOCTYPE svg PUBLIC "-//W3C//DTD SVG 1.1//EN"
 "http://www.w3.org/Graphics/SVG/1.1/DTD/svg11.dtd">
<!-- Generated by graphviz version 2.43.0 (0)
 -->
<!-- Title: /home/kali/projects/vsomeip/interface/compat/vsomeip/internal/deserializable.hpp Pages: 1 -->
<svg width="202pt" height="117pt"
 viewBox="0.00 0.00 202.00 117.00" xmlns="http://www.w3.org/2000/svg" xmlns:xlink="http://www.w3.org/1999/xlink">
<g id="graph0" class="graph" transform="scale(1 1) rotate(0) translate(4 113)">
<title>/home/kali/projects/vsomeip/interface/compat/vsomeip/internal/deserializable.hpp</title>
<polygon fill="white" stroke="transparent" points="-4,4 -4,-113 198,-113 198,4 -4,4"/>
<!-- Node1 -->
<g id="node1" class="node">
<title>Node1</title>
<g id="a_node1"><a xlink:title=" ">
<polygon fill="#bfbfbf" stroke="black" points="0,-67.5 0,-108.5 194,-108.5 194,-67.5 0,-67.5"/>
<text text-anchor="start" x="8" y="-96.5" font-family="Helvetica,sans-Serif" font-size="10.00">/home/kali/projects</text>
<text text-anchor="start" x="8" y="-85.5" font-family="Helvetica,sans-Serif" font-size="10.00">/vsomeip/interface/compat</text>
<text text-anchor="middle" x="97" y="-74.5" font-family="Helvetica,sans-Serif" font-size="10.00">/vsomeip/internal/deserializable.hpp</text>
</a>
</g>
</g>
<!-- Node2 -->
<g id="node2" class="node">
<title>Node2</title>
<g id="a_node2"><a xlink:href="compat_2vsomeip_2export_8hpp.html" target="_top" xlink:title=" ">
<polygon fill="white" stroke="black" points="34.5,-0.5 34.5,-30.5 159.5,-30.5 159.5,-0.5 34.5,-0.5"/>
<text text-anchor="start" x="42.5" y="-18.5" font-family="Helvetica,sans-Serif" font-size="10.00">../../../compat/vsomeip</text>
<text text-anchor="middle" x="97" y="-7.5" font-family="Helvetica,sans-Serif" font-size="10.00">/export.hpp</text>
</a>
</g>
</g>
<!-- Node1&#45;&gt;Node2 -->
<g id="edge1" class="edge">
<title>Node1&#45;&gt;Node2</title>
<path fill="none" stroke="midnightblue" d="M97,-67.36C97,-59.23 97,-49.7 97,-41.11"/>
<polygon fill="midnightblue" stroke="midnightblue" points="100.5,-40.89 97,-30.89 93.5,-40.89 100.5,-40.89"/>
</g>
</g>
</svg>
