<?xml version="1.0" encoding="UTF-8" standalone="no"?>
<!DOCTYPE svg PUBLIC "-//W3C//DTD SVG 1.1//EN"
 "http://www.w3.org/Graphics/SVG/1.1/DTD/svg11.dtd">
<!-- Generated by graphviz version 2.43.0 (0)
 -->
<!-- Title: /home/kali/projects/vsomeip/interface/compat/vsomeip/message.hpp Pages: 1 -->
<svg width="653pt" height="251pt"
 viewBox="0.00 0.00 652.50 251.00" xmlns="http://www.w3.org/2000/svg" xmlns:xlink="http://www.w3.org/1999/xlink">
<g id="graph0" class="graph" transform="scale(1 1) rotate(0) translate(4 247)">
<title>/home/kali/projects/vsomeip/interface/compat/vsomeip/message.hpp</title>
<polygon fill="white" stroke="transparent" points="-4,4 -4,-247 648.5,-247 648.5,4 -4,4"/>
<!-- Node1 -->
<g id="node1" class="node">
<title>Node1</title>
<g id="a_node1"><a xlink:title=" ">
<polygon fill="#bfbfbf" stroke="black" points="140.5,-201.5 140.5,-242.5 288.5,-242.5 288.5,-201.5 140.5,-201.5"/>
<text text-anchor="start" x="148.5" y="-230.5" font-family="Helvetica,sans-Serif" font-size="10.00">/home/kali/projects</text>
<text text-anchor="start" x="148.5" y="-219.5" font-family="Helvetica,sans-Serif" font-size="10.00">/vsomeip/interface/compat</text>
<text text-anchor="middle" x="214.5" y="-208.5" font-family="Helvetica,sans-Serif" font-size="10.00">/vsomeip/message.hpp</text>
</a>
</g>
</g>
<!-- Node2 -->
<g id="node2" class="node">
<title>Node2</title>
<g id="a_node2"><a xlink:title=" ">
<polygon fill="white" stroke="#bfbfbf" points="133.5,-140 133.5,-159 191.5,-159 191.5,-140 133.5,-140"/>
<text text-anchor="middle" x="162.5" y="-147" font-family="Helvetica,sans-Serif" font-size="10.00">memory</text>
</a>
</g>
</g>
<!-- Node1&#45;&gt;Node2 -->
<g id="edge1" class="edge">
<title>Node1&#45;&gt;Node2</title>
<path fill="none" stroke="midnightblue" d="M200.02,-201.36C192.11,-190.65 182.43,-177.52 174.88,-167.29"/>
<polygon fill="midnightblue" stroke="midnightblue" points="177.65,-165.14 168.9,-159.17 172.02,-169.3 177.65,-165.14"/>
</g>
<!-- Node3 -->
<g id="node3" class="node">
<title>Node3</title>
<g id="a_node3"><a xlink:href="compat_2vsomeip_2message__base_8hpp.html" target="_top" xlink:title=" ">
<polygon fill="white" stroke="black" points="209.5,-134.5 209.5,-164.5 325.5,-164.5 325.5,-134.5 209.5,-134.5"/>
<text text-anchor="start" x="217.5" y="-152.5" font-family="Helvetica,sans-Serif" font-size="10.00">../../compat/vsomeip</text>
<text text-anchor="middle" x="267.5" y="-141.5" font-family="Helvetica,sans-Serif" font-size="10.00">/message_base.hpp</text>
</a>
</g>
</g>
<!-- Node1&#45;&gt;Node3 -->
<g id="edge2" class="edge">
<title>Node1&#45;&gt;Node3</title>
<path fill="none" stroke="midnightblue" d="M229.26,-201.36C235.86,-192.59 243.66,-182.21 250.5,-173.12"/>
<polygon fill="midnightblue" stroke="midnightblue" points="253.47,-174.99 256.68,-164.89 247.87,-170.78 253.47,-174.99"/>
</g>
<!-- Node4 -->
<g id="node4" class="node">
<title>Node4</title>
<g id="a_node4"><a xlink:href="interface_2compat_2vsomeip_2enumeration__types_8hpp.html" target="_top" xlink:title=" ">
<polygon fill="white" stroke="black" points="360,-67.5 360,-97.5 495,-97.5 495,-67.5 360,-67.5"/>
<text text-anchor="start" x="368" y="-85.5" font-family="Helvetica,sans-Serif" font-size="10.00">../../compat/vsomeip</text>
<text text-anchor="middle" x="427.5" y="-74.5" font-family="Helvetica,sans-Serif" font-size="10.00">/enumeration_types.hpp</text>
</a>
</g>
</g>
<!-- Node3&#45;&gt;Node4 -->
<g id="edge3" class="edge">
<title>Node3&#45;&gt;Node4</title>
<path fill="none" stroke="midnightblue" d="M302.22,-134.4C326.01,-124.73 357.78,-111.82 383.37,-101.43"/>
<polygon fill="midnightblue" stroke="midnightblue" points="384.9,-104.58 392.85,-97.58 382.27,-98.1 384.9,-104.58"/>
</g>
<!-- Node6 -->
<g id="node6" class="node">
<title>Node6</title>
<g id="a_node6"><a xlink:href="compat_2vsomeip_2export_8hpp.html" target="_top" xlink:title=" ">
<polygon fill="white" stroke="black" points="107.5,-0.5 107.5,-30.5 223.5,-30.5 223.5,-0.5 107.5,-0.5"/>
<text text-anchor="start" x="115.5" y="-18.5" font-family="Helvetica,sans-Serif" font-size="10.00">../../compat/vsomeip</text>
<text text-anchor="middle" x="165.5" y="-7.5" font-family="Helvetica,sans-Serif" font-size="10.00">/export.hpp</text>
</a>
</g>
</g>
<!-- Node3&#45;&gt;Node6 -->
<g id="edge5" class="edge">
<title>Node3&#45;&gt;Node6</title>
<path fill="none" stroke="midnightblue" d="M231.32,-134.35C214.72,-126.11 196.17,-114.12 184.5,-98 172.48,-81.4 167.94,-58.34 166.28,-40.98"/>
<polygon fill="midnightblue" stroke="midnightblue" points="169.74,-40.26 165.56,-30.53 162.76,-40.74 169.74,-40.26"/>
</g>
<!-- Node7 -->
<g id="node7" class="node">
<title>Node7</title>
<g id="a_node7"><a xlink:href="compat_2vsomeip_2internal_2deserializable_8hpp.html" target="_top" xlink:title=" ">
<polygon fill="white" stroke="black" points="193,-67.5 193,-97.5 342,-97.5 342,-67.5 193,-67.5"/>
<text text-anchor="start" x="201" y="-85.5" font-family="Helvetica,sans-Serif" font-size="10.00">../../compat/vsomeip</text>
<text text-anchor="middle" x="267.5" y="-74.5" font-family="Helvetica,sans-Serif" font-size="10.00">/internal/deserializable.hpp</text>
</a>
</g>
</g>
<!-- Node3&#45;&gt;Node7 -->
<g id="edge6" class="edge">
<title>Node3&#45;&gt;Node7</title>
<path fill="none" stroke="midnightblue" d="M267.5,-134.4C267.5,-126.64 267.5,-116.81 267.5,-107.86"/>
<polygon fill="midnightblue" stroke="midnightblue" points="271,-107.58 267.5,-97.58 264,-107.58 271,-107.58"/>
</g>
<!-- Node8 -->
<g id="node8" class="node">
<title>Node8</title>
<g id="a_node8"><a xlink:href="compat_2vsomeip_2internal_2serializable_8hpp.html" target="_top" xlink:title=" ">
<polygon fill="white" stroke="black" points="0,-67.5 0,-97.5 137,-97.5 137,-67.5 0,-67.5"/>
<text text-anchor="start" x="8" y="-85.5" font-family="Helvetica,sans-Serif" font-size="10.00">../../compat/vsomeip</text>
<text text-anchor="middle" x="68.5" y="-74.5" font-family="Helvetica,sans-Serif" font-size="10.00">/internal/serializable.hpp</text>
</a>
</g>
</g>
<!-- Node3&#45;&gt;Node8 -->
<g id="edge8" class="edge">
<title>Node3&#45;&gt;Node8</title>
<path fill="none" stroke="midnightblue" d="M224.32,-134.4C194.07,-124.52 153.47,-111.25 121.29,-100.74"/>
<polygon fill="midnightblue" stroke="midnightblue" points="122.19,-97.35 111.6,-97.58 120.01,-104.01 122.19,-97.35"/>
</g>
<!-- Node9 -->
<g id="node9" class="node">
<title>Node9</title>
<g id="a_node9"><a xlink:href="interface_2compat_2vsomeip_2primitive__types_8hpp.html" target="_top" xlink:title=" ">
<polygon fill="white" stroke="black" points="513,-67.5 513,-97.5 630,-97.5 630,-67.5 513,-67.5"/>
<text text-anchor="start" x="521" y="-85.5" font-family="Helvetica,sans-Serif" font-size="10.00">../../compat/vsomeip</text>
<text text-anchor="middle" x="571.5" y="-74.5" font-family="Helvetica,sans-Serif" font-size="10.00">/primitive_types.hpp</text>
</a>
</g>
</g>
<!-- Node3&#45;&gt;Node9 -->
<g id="edge10" class="edge">
<title>Node3&#45;&gt;Node9</title>
<path fill="none" stroke="midnightblue" d="M325.95,-136.1C371.58,-126.41 436.87,-112.51 502.56,-98.41"/>
<polygon fill="midnightblue" stroke="midnightblue" points="503.63,-101.76 512.68,-96.24 502.16,-94.92 503.63,-101.76"/>
</g>
<!-- Node5 -->
<g id="node5" class="node">
<title>Node5</title>
<g id="a_node5"><a xlink:title=" ">
<polygon fill="white" stroke="#bfbfbf" points="404.5,-6 404.5,-25 454.5,-25 454.5,-6 404.5,-6"/>
<text text-anchor="middle" x="429.5" y="-13" font-family="Helvetica,sans-Serif" font-size="10.00">cstdint</text>
</a>
</g>
</g>
<!-- Node4&#45;&gt;Node5 -->
<g id="edge4" class="edge">
<title>Node4&#45;&gt;Node5</title>
<path fill="none" stroke="midnightblue" d="M427.93,-67.4C428.22,-58.06 428.6,-45.71 428.91,-35.52"/>
<polygon fill="midnightblue" stroke="midnightblue" points="432.42,-35.3 429.23,-25.19 425.43,-35.08 432.42,-35.3"/>
</g>
<!-- Node7&#45;&gt;Node6 -->
<g id="edge7" class="edge">
<title>Node7&#45;&gt;Node6</title>
<path fill="none" stroke="midnightblue" d="M245.37,-67.4C230.93,-58.2 211.9,-46.07 196.03,-35.95"/>
<polygon fill="midnightblue" stroke="midnightblue" points="197.9,-33 187.59,-30.58 194.14,-38.9 197.9,-33"/>
</g>
<!-- Node8&#45;&gt;Node6 -->
<g id="edge9" class="edge">
<title>Node8&#45;&gt;Node6</title>
<path fill="none" stroke="midnightblue" d="M89.55,-67.4C103.15,-58.28 121.04,-46.29 136.05,-36.24"/>
<polygon fill="midnightblue" stroke="midnightblue" points="138.13,-39.05 144.49,-30.58 134.24,-33.24 138.13,-39.05"/>
</g>
<!-- Node9&#45;&gt;Node5 -->
<g id="edge12" class="edge">
<title>Node9&#45;&gt;Node5</title>
<path fill="none" stroke="midnightblue" d="M540.69,-67.4C515.88,-56.04 481.32,-40.22 457.34,-29.24"/>
<polygon fill="midnightblue" stroke="midnightblue" points="458.63,-25.99 448.08,-25.01 455.72,-32.35 458.63,-25.99"/>
</g>
<!-- Node10 -->
<g id="node10" class="node">
<title>Node10</title>
<g id="a_node10"><a xlink:title=" ">
<polygon fill="white" stroke="#bfbfbf" points="512.5,-6 512.5,-25 554.5,-25 554.5,-6 512.5,-6"/>
<text text-anchor="middle" x="533.5" y="-13" font-family="Helvetica,sans-Serif" font-size="10.00">array</text>
</a>
</g>
</g>
<!-- Node9&#45;&gt;Node10 -->
<g id="edge11" class="edge">
<title>Node9&#45;&gt;Node10</title>
<path fill="none" stroke="midnightblue" d="M563.25,-67.4C557.51,-57.56 549.8,-44.38 543.67,-33.89"/>
<polygon fill="midnightblue" stroke="midnightblue" points="546.65,-32.06 538.58,-25.19 540.61,-35.59 546.65,-32.06"/>
</g>
<!-- Node11 -->
<g id="node11" class="node">
<title>Node11</title>
<g id="a_node11"><a xlink:title=" ">
<polygon fill="white" stroke="#bfbfbf" points="572.5,-6 572.5,-25 644.5,-25 644.5,-6 572.5,-6"/>
<text text-anchor="middle" x="608.5" y="-13" font-family="Helvetica,sans-Serif" font-size="10.00">sys/types.h</text>
</a>
</g>
</g>
<!-- Node9&#45;&gt;Node11 -->
<g id="edge13" class="edge">
<title>Node9&#45;&gt;Node11</title>
<path fill="none" stroke="midnightblue" d="M579.53,-67.4C585.13,-57.56 592.63,-44.38 598.6,-33.89"/>
<polygon fill="midnightblue" stroke="midnightblue" points="601.65,-35.62 603.55,-25.19 595.56,-32.15 601.65,-35.62"/>
</g>
</g>
</svg>
