<?xml version="1.0" encoding="UTF-8" standalone="no"?>
<!DOCTYPE svg PUBLIC "-//W3C//DTD SVG 1.1//EN"
 "http://www.w3.org/Graphics/SVG/1.1/DTD/svg11.dtd">
<!-- Generated by graphviz version 2.43.0 (0)
 -->
<!-- Title: /home/kali/projects/vsomeip/interface/compat/vsomeip/message.hpp Pages: 1 -->
<svg width="618pt" height="317pt"
 viewBox="0.00 0.00 618.00 317.00" xmlns="http://www.w3.org/2000/svg" xmlns:xlink="http://www.w3.org/1999/xlink">
<g id="graph0" class="graph" transform="scale(1 1) rotate(0) translate(4 313)">
<title>/home/kali/projects/vsomeip/interface/compat/vsomeip/message.hpp</title>
<polygon fill="white" stroke="transparent" points="-4,4 -4,-313 614,-313 614,4 -4,4"/>
<!-- Node1 -->
<g id="node1" class="node">
<title>Node1</title>
<g id="a_node1"><a xlink:title=" ">
<polygon fill="#bfbfbf" stroke="black" points="298,-267.5 298,-308.5 446,-308.5 446,-267.5 298,-267.5"/>
<text text-anchor="start" x="306" y="-296.5" font-family="Helvetica,sans-Serif" font-size="10.00">/home/kali/projects</text>
<text text-anchor="start" x="306" y="-285.5" font-family="Helvetica,sans-Serif" font-size="10.00">/vsomeip/interface/compat</text>
<text text-anchor="middle" x="372" y="-274.5" font-family="Helvetica,sans-Serif" font-size="10.00">/vsomeip/message.hpp</text>
</a>
</g>
</g>
<!-- Node2 -->
<g id="node2" class="node">
<title>Node2</title>
<g id="a_node2"><a xlink:href="compat_2message_2include_2message__base__impl_8hpp.html" target="_top" xlink:title=" ">
<polygon fill="white" stroke="black" points="300.5,-178.5 300.5,-230.5 443.5,-230.5 443.5,-178.5 300.5,-178.5"/>
<text text-anchor="start" x="308.5" y="-218.5" font-family="Helvetica,sans-Serif" font-size="10.00">/home/kali/projects</text>
<text text-anchor="start" x="308.5" y="-207.5" font-family="Helvetica,sans-Serif" font-size="10.00">/vsomeip/implementation</text>
<text text-anchor="start" x="308.5" y="-196.5" font-family="Helvetica,sans-Serif" font-size="10.00">/compat/message/include</text>
<text text-anchor="middle" x="372" y="-185.5" font-family="Helvetica,sans-Serif" font-size="10.00">/message_base_impl.hpp</text>
</a>
</g>
</g>
<!-- Node1&#45;&gt;Node2 -->
<g id="edge1" class="edge">
<title>Node1&#45;&gt;Node2</title>
<path fill="none" stroke="midnightblue" d="M372,-257.12C372,-248.41 372,-238.99 372,-230.61"/>
<polygon fill="midnightblue" stroke="midnightblue" points="368.5,-257.27 372,-267.27 375.5,-257.27 368.5,-257.27"/>
</g>
<!-- Node3 -->
<g id="node3" class="node">
<title>Node3</title>
<g id="a_node3"><a xlink:href="compat_2message_2include_2message__impl_8hpp.html" target="_top" xlink:title=" ">
<polygon fill="white" stroke="black" points="200.5,-89.5 200.5,-141.5 343.5,-141.5 343.5,-89.5 200.5,-89.5"/>
<text text-anchor="start" x="208.5" y="-129.5" font-family="Helvetica,sans-Serif" font-size="10.00">/home/kali/projects</text>
<text text-anchor="start" x="208.5" y="-118.5" font-family="Helvetica,sans-Serif" font-size="10.00">/vsomeip/implementation</text>
<text text-anchor="start" x="208.5" y="-107.5" font-family="Helvetica,sans-Serif" font-size="10.00">/compat/message/include</text>
<text text-anchor="middle" x="272" y="-96.5" font-family="Helvetica,sans-Serif" font-size="10.00">/message_impl.hpp</text>
</a>
</g>
</g>
<!-- Node1&#45;&gt;Node3 -->
<g id="edge7" class="edge">
<title>Node1&#45;&gt;Node3</title>
<path fill="none" stroke="midnightblue" d="M322.06,-261.7C310.19,-253.45 298.74,-243.2 291,-231 273.84,-203.94 270.67,-166.33 270.73,-141.71"/>
<polygon fill="midnightblue" stroke="midnightblue" points="320.45,-264.82 330.74,-267.36 324.27,-258.96 320.45,-264.82"/>
</g>
<!-- Node8 -->
<g id="node8" class="node">
<title>Node8</title>
<g id="a_node8"><a xlink:href="compat_2vsomeip_2vsomeip_8hpp.html" target="_top" xlink:title=" ">
<polygon fill="white" stroke="black" points="462,-184 462,-225 610,-225 610,-184 462,-184"/>
<text text-anchor="start" x="470" y="-213" font-family="Helvetica,sans-Serif" font-size="10.00">/home/kali/projects</text>
<text text-anchor="start" x="470" y="-202" font-family="Helvetica,sans-Serif" font-size="10.00">/vsomeip/interface/compat</text>
<text text-anchor="middle" x="536" y="-191" font-family="Helvetica,sans-Serif" font-size="10.00">/vsomeip/vsomeip.hpp</text>
</a>
</g>
</g>
<!-- Node1&#45;&gt;Node8 -->
<g id="edge8" class="edge">
<title>Node1&#45;&gt;Node8</title>
<path fill="none" stroke="midnightblue" d="M420.35,-262.97C444.7,-250.87 473.82,-236.4 496.75,-225"/>
<polygon fill="midnightblue" stroke="midnightblue" points="418.68,-259.89 411.28,-267.48 421.79,-266.16 418.68,-259.89"/>
</g>
<!-- Node2&#45;&gt;Node3 -->
<g id="edge2" class="edge">
<title>Node2&#45;&gt;Node3</title>
<path fill="none" stroke="midnightblue" d="M335.39,-171.65C324.01,-161.75 311.63,-150.98 300.86,-141.61"/>
<polygon fill="midnightblue" stroke="midnightblue" points="333.23,-174.41 343.08,-178.34 337.83,-169.13 333.23,-174.41"/>
</g>
<!-- Node7 -->
<g id="node7" class="node">
<title>Node7</title>
<g id="a_node7"><a xlink:href="compat_2message_2src_2message__base__impl_8cpp.html" target="_top" xlink:title=" ">
<polygon fill="white" stroke="black" points="362,-89.5 362,-141.5 530,-141.5 530,-89.5 362,-89.5"/>
<text text-anchor="start" x="370" y="-129.5" font-family="Helvetica,sans-Serif" font-size="10.00">/home/kali/projects</text>
<text text-anchor="start" x="370" y="-118.5" font-family="Helvetica,sans-Serif" font-size="10.00">/vsomeip/implementation</text>
<text text-anchor="start" x="370" y="-107.5" font-family="Helvetica,sans-Serif" font-size="10.00">/compat/message/src/message</text>
<text text-anchor="middle" x="446" y="-96.5" font-family="Helvetica,sans-Serif" font-size="10.00">_base_impl.cpp</text>
</a>
</g>
</g>
<!-- Node2&#45;&gt;Node7 -->
<g id="edge6" class="edge">
<title>Node2&#45;&gt;Node7</title>
<path fill="none" stroke="midnightblue" d="M400.07,-170.5C408.22,-160.92 416.98,-150.62 424.64,-141.61"/>
<polygon fill="midnightblue" stroke="midnightblue" points="397.22,-168.45 393.4,-178.34 402.55,-172.99 397.22,-168.45"/>
</g>
<!-- Node4 -->
<g id="node4" class="node">
<title>Node4</title>
<g id="a_node4"><a xlink:href="compat_2message_2src_2message__impl_8cpp.html" target="_top" xlink:title=" ">
<polygon fill="white" stroke="black" points="0,-0.5 0,-52.5 168,-52.5 168,-0.5 0,-0.5"/>
<text text-anchor="start" x="8" y="-40.5" font-family="Helvetica,sans-Serif" font-size="10.00">/home/kali/projects</text>
<text text-anchor="start" x="8" y="-29.5" font-family="Helvetica,sans-Serif" font-size="10.00">/vsomeip/implementation</text>
<text text-anchor="start" x="8" y="-18.5" font-family="Helvetica,sans-Serif" font-size="10.00">/compat/message/src/message</text>
<text text-anchor="middle" x="84" y="-7.5" font-family="Helvetica,sans-Serif" font-size="10.00">_impl.cpp</text>
</a>
</g>
</g>
<!-- Node3&#45;&gt;Node4 -->
<g id="edge3" class="edge">
<title>Node3&#45;&gt;Node4</title>
<path fill="none" stroke="midnightblue" d="M208.58,-85.15C185.69,-74.56 160.09,-62.71 138.07,-52.52"/>
<polygon fill="midnightblue" stroke="midnightblue" points="207.33,-88.43 217.87,-89.45 210.27,-82.08 207.33,-88.43"/>
</g>
<!-- Node5 -->
<g id="node5" class="node">
<title>Node5</title>
<g id="a_node5"><a xlink:href="compat_2runtime_2src_2application__impl_8cpp.html" target="_top" xlink:title=" ">
<polygon fill="white" stroke="black" points="186,-0.5 186,-52.5 358,-52.5 358,-0.5 186,-0.5"/>
<text text-anchor="start" x="194" y="-40.5" font-family="Helvetica,sans-Serif" font-size="10.00">/home/kali/projects</text>
<text text-anchor="start" x="194" y="-29.5" font-family="Helvetica,sans-Serif" font-size="10.00">/vsomeip/implementation</text>
<text text-anchor="start" x="194" y="-18.5" font-family="Helvetica,sans-Serif" font-size="10.00">/compat/runtime/src/application</text>
<text text-anchor="middle" x="272" y="-7.5" font-family="Helvetica,sans-Serif" font-size="10.00">_impl.cpp</text>
</a>
</g>
</g>
<!-- Node3&#45;&gt;Node5 -->
<g id="edge4" class="edge">
<title>Node3&#45;&gt;Node5</title>
<path fill="none" stroke="midnightblue" d="M272,-79.19C272,-70.28 272,-60.9 272,-52.61"/>
<polygon fill="midnightblue" stroke="midnightblue" points="268.5,-79.34 272,-89.34 275.5,-79.34 268.5,-79.34"/>
</g>
<!-- Node6 -->
<g id="node6" class="node">
<title>Node6</title>
<g id="a_node6"><a xlink:href="compat_2runtime_2src_2runtime__impl_8cpp.html" target="_top" xlink:title=" ">
<polygon fill="white" stroke="black" points="376,-0.5 376,-52.5 532,-52.5 532,-0.5 376,-0.5"/>
<text text-anchor="start" x="384" y="-40.5" font-family="Helvetica,sans-Serif" font-size="10.00">/home/kali/projects</text>
<text text-anchor="start" x="384" y="-29.5" font-family="Helvetica,sans-Serif" font-size="10.00">/vsomeip/implementation</text>
<text text-anchor="start" x="384" y="-18.5" font-family="Helvetica,sans-Serif" font-size="10.00">/compat/runtime/src/runtime</text>
<text text-anchor="middle" x="454" y="-7.5" font-family="Helvetica,sans-Serif" font-size="10.00">_impl.cpp</text>
</a>
</g>
</g>
<!-- Node3&#45;&gt;Node6 -->
<g id="edge5" class="edge">
<title>Node3&#45;&gt;Node6</title>
<path fill="none" stroke="midnightblue" d="M333.89,-84.92C355.86,-74.41 380.36,-62.7 401.48,-52.61"/>
<polygon fill="midnightblue" stroke="midnightblue" points="332.15,-81.87 324.64,-89.34 335.17,-88.18 332.15,-81.87"/>
</g>
</g>
</svg>
