<?xml version="1.0" encoding="UTF-8" standalone="no"?>
<!DOCTYPE svg PUBLIC "-//W3C//DTD SVG 1.1//EN"
 "http://www.w3.org/Graphics/SVG/1.1/DTD/svg11.dtd">
<!-- Generated by graphviz version 2.43.0 (0)
 -->
<!-- Title: /home/kali/projects/vsomeip/implementation/configuration/include/configuration_impl.hpp Pages: 1 -->
<svg width="360pt" height="150pt"
 viewBox="0.00 0.00 360.00 150.00" xmlns="http://www.w3.org/2000/svg" xmlns:xlink="http://www.w3.org/1999/xlink">
<g id="graph0" class="graph" transform="scale(1 1) rotate(0) translate(4 146)">
<title>/home/kali/projects/vsomeip/implementation/configuration/include/configuration_impl.hpp</title>
<polygon fill="white" stroke="transparent" points="-4,4 -4,-146 356,-146 356,4 -4,4"/>
<!-- Node1 -->
<g id="node1" class="node">
<title>Node1</title>
<g id="a_node1"><a xlink:title=" ">
<polygon fill="#bfbfbf" stroke="black" points="104,-89.5 104,-141.5 247,-141.5 247,-89.5 104,-89.5"/>
<text text-anchor="start" x="112" y="-129.5" font-family="Helvetica,sans-Serif" font-size="10.00">/home/kali/projects</text>
<text text-anchor="start" x="112" y="-118.5" font-family="Helvetica,sans-Serif" font-size="10.00">/vsomeip/implementation</text>
<text text-anchor="start" x="112" y="-107.5" font-family="Helvetica,sans-Serif" font-size="10.00">/configuration/include</text>
<text text-anchor="middle" x="175.5" y="-96.5" font-family="Helvetica,sans-Serif" font-size="10.00">/configuration_impl.hpp</text>
</a>
</g>
</g>
<!-- Node2 -->
<g id="node2" class="node">
<title>Node2</title>
<g id="a_node2"><a xlink:href="configuration__impl_8cpp.html" target="_top" xlink:title=" ">
<polygon fill="white" stroke="black" points="0,-0.5 0,-52.5 167,-52.5 167,-0.5 0,-0.5"/>
<text text-anchor="start" x="8" y="-40.5" font-family="Helvetica,sans-Serif" font-size="10.00">/home/kali/projects</text>
<text text-anchor="start" x="8" y="-29.5" font-family="Helvetica,sans-Serif" font-size="10.00">/vsomeip/implementation</text>
<text text-anchor="start" x="8" y="-18.5" font-family="Helvetica,sans-Serif" font-size="10.00">/configuration/src/configuration</text>
<text text-anchor="middle" x="83.5" y="-7.5" font-family="Helvetica,sans-Serif" font-size="10.00">_impl.cpp</text>
</a>
</g>
</g>
<!-- Node1&#45;&gt;Node2 -->
<g id="edge1" class="edge">
<title>Node1&#45;&gt;Node2</title>
<path fill="none" stroke="midnightblue" d="M141.52,-82.36C131.13,-72.54 119.87,-61.89 110.05,-52.61"/>
<polygon fill="midnightblue" stroke="midnightblue" points="139.22,-85.01 148.89,-89.34 144.03,-79.92 139.22,-85.01"/>
</g>
<!-- Node3 -->
<g id="node3" class="node">
<title>Node3</title>
<g id="a_node3"><a xlink:href="configuration__plugin__impl_8cpp.html" target="_top" xlink:title=" ">
<polygon fill="white" stroke="black" points="185,-0.5 185,-52.5 352,-52.5 352,-0.5 185,-0.5"/>
<text text-anchor="start" x="193" y="-40.5" font-family="Helvetica,sans-Serif" font-size="10.00">/home/kali/projects</text>
<text text-anchor="start" x="193" y="-29.5" font-family="Helvetica,sans-Serif" font-size="10.00">/vsomeip/implementation</text>
<text text-anchor="start" x="193" y="-18.5" font-family="Helvetica,sans-Serif" font-size="10.00">/configuration/src/configuration</text>
<text text-anchor="middle" x="268.5" y="-7.5" font-family="Helvetica,sans-Serif" font-size="10.00">_plugin_impl.cpp</text>
</a>
</g>
</g>
<!-- Node1&#45;&gt;Node3 -->
<g id="edge2" class="edge">
<title>Node1&#45;&gt;Node3</title>
<path fill="none" stroke="midnightblue" d="M209.85,-82.36C220.35,-72.54 231.74,-61.89 241.66,-52.61"/>
<polygon fill="midnightblue" stroke="midnightblue" points="207.31,-79.95 202.4,-89.34 212.09,-85.06 207.31,-79.95"/>
</g>
</g>
</svg>
