<?xml version="1.0" encoding="UTF-8" standalone="no"?>
<!DOCTYPE svg PUBLIC "-//W3C//DTD SVG 1.1//EN"
 "http://www.w3.org/Graphics/SVG/1.1/DTD/svg11.dtd">
<!-- Generated by graphviz version 2.43.0 (0)
 -->
<!-- Title: /home/kali/projects/vsomeip/implementation/configuration/include/configuration_element.hpp Pages: 1 -->
<svg width="729pt" height="239pt"
 viewBox="0.00 0.00 729.00 239.00" xmlns="http://www.w3.org/2000/svg" xmlns:xlink="http://www.w3.org/1999/xlink">
<g id="graph0" class="graph" transform="scale(1 1) rotate(0) translate(4 235)">
<title>/home/kali/projects/vsomeip/implementation/configuration/include/configuration_element.hpp</title>
<polygon fill="white" stroke="transparent" points="-4,4 -4,-235 725,-235 725,4 -4,4"/>
<!-- Node1 -->
<g id="node1" class="node">
<title>Node1</title>
<g id="a_node1"><a xlink:title=" ">
<polygon fill="#bfbfbf" stroke="black" points="382.5,-178.5 382.5,-230.5 532.5,-230.5 532.5,-178.5 382.5,-178.5"/>
<text text-anchor="start" x="390.5" y="-218.5" font-family="Helvetica,sans-Serif" font-size="10.00">/home/kali/projects</text>
<text text-anchor="start" x="390.5" y="-207.5" font-family="Helvetica,sans-Serif" font-size="10.00">/vsomeip/implementation</text>
<text text-anchor="start" x="390.5" y="-196.5" font-family="Helvetica,sans-Serif" font-size="10.00">/configuration/include</text>
<text text-anchor="middle" x="457.5" y="-185.5" font-family="Helvetica,sans-Serif" font-size="10.00">/configuration_element.hpp</text>
</a>
</g>
</g>
<!-- Node2 -->
<g id="node2" class="node">
<title>Node2</title>
<g id="a_node2"><a xlink:href="configuration__impl_8hpp.html" target="_top" xlink:title=" ">
<polygon fill="white" stroke="black" points="197,-89.5 197,-141.5 340,-141.5 340,-89.5 197,-89.5"/>
<text text-anchor="start" x="205" y="-129.5" font-family="Helvetica,sans-Serif" font-size="10.00">/home/kali/projects</text>
<text text-anchor="start" x="205" y="-118.5" font-family="Helvetica,sans-Serif" font-size="10.00">/vsomeip/implementation</text>
<text text-anchor="start" x="205" y="-107.5" font-family="Helvetica,sans-Serif" font-size="10.00">/configuration/include</text>
<text text-anchor="middle" x="268.5" y="-96.5" font-family="Helvetica,sans-Serif" font-size="10.00">/configuration_impl.hpp</text>
</a>
</g>
</g>
<!-- Node1&#45;&gt;Node2 -->
<g id="edge1" class="edge">
<title>Node1&#45;&gt;Node2</title>
<path fill="none" stroke="midnightblue" d="M393.75,-174.15C370.73,-163.56 344.99,-151.71 322.86,-141.52"/>
<polygon fill="midnightblue" stroke="midnightblue" points="392.54,-177.45 403.09,-178.45 395.47,-171.09 392.54,-177.45"/>
</g>
<!-- Node5 -->
<g id="node5" class="node">
<title>Node5</title>
<g id="a_node5"><a xlink:href="policy__manager__impl_8hpp.html" target="_top" xlink:title=" ">
<polygon fill="white" stroke="black" points="386,-89.5 386,-141.5 529,-141.5 529,-89.5 386,-89.5"/>
<text text-anchor="start" x="394" y="-129.5" font-family="Helvetica,sans-Serif" font-size="10.00">/home/kali/projects</text>
<text text-anchor="start" x="394" y="-118.5" font-family="Helvetica,sans-Serif" font-size="10.00">/vsomeip/implementation</text>
<text text-anchor="start" x="394" y="-107.5" font-family="Helvetica,sans-Serif" font-size="10.00">/security/include/policy</text>
<text text-anchor="middle" x="457.5" y="-96.5" font-family="Helvetica,sans-Serif" font-size="10.00">_manager_impl.hpp</text>
</a>
</g>
</g>
<!-- Node1&#45;&gt;Node5 -->
<g id="edge4" class="edge">
<title>Node1&#45;&gt;Node5</title>
<path fill="none" stroke="midnightblue" d="M457.5,-168.19C457.5,-159.28 457.5,-149.9 457.5,-141.61"/>
<polygon fill="midnightblue" stroke="midnightblue" points="454,-168.34 457.5,-178.34 461,-168.34 454,-168.34"/>
</g>
<!-- Node8 -->
<g id="node8" class="node">
<title>Node8</title>
<g id="a_node8"><a xlink:href="security__impl_8cpp.html" target="_top" xlink:title=" ">
<polygon fill="white" stroke="black" points="547,-89.5 547,-141.5 690,-141.5 690,-89.5 547,-89.5"/>
<text text-anchor="start" x="555" y="-129.5" font-family="Helvetica,sans-Serif" font-size="10.00">/home/kali/projects</text>
<text text-anchor="start" x="555" y="-118.5" font-family="Helvetica,sans-Serif" font-size="10.00">/vsomeip/implementation</text>
<text text-anchor="start" x="555" y="-107.5" font-family="Helvetica,sans-Serif" font-size="10.00">/security/src/security</text>
<text text-anchor="middle" x="618.5" y="-96.5" font-family="Helvetica,sans-Serif" font-size="10.00">_impl.cpp</text>
</a>
</g>
</g>
<!-- Node1&#45;&gt;Node8 -->
<g id="edge7" class="edge">
<title>Node1&#45;&gt;Node8</title>
<path fill="none" stroke="midnightblue" d="M513.03,-173.49C532.26,-163.1 553.61,-151.57 572.04,-141.61"/>
<polygon fill="midnightblue" stroke="midnightblue" points="511.2,-170.5 504.07,-178.34 514.53,-176.66 511.2,-170.5"/>
</g>
<!-- Node3 -->
<g id="node3" class="node">
<title>Node3</title>
<g id="a_node3"><a xlink:href="configuration__impl_8cpp.html" target="_top" xlink:title=" ">
<polygon fill="white" stroke="black" points="0,-0.5 0,-52.5 167,-52.5 167,-0.5 0,-0.5"/>
<text text-anchor="start" x="8" y="-40.5" font-family="Helvetica,sans-Serif" font-size="10.00">/home/kali/projects</text>
<text text-anchor="start" x="8" y="-29.5" font-family="Helvetica,sans-Serif" font-size="10.00">/vsomeip/implementation</text>
<text text-anchor="start" x="8" y="-18.5" font-family="Helvetica,sans-Serif" font-size="10.00">/configuration/src/configuration</text>
<text text-anchor="middle" x="83.5" y="-7.5" font-family="Helvetica,sans-Serif" font-size="10.00">_impl.cpp</text>
</a>
</g>
</g>
<!-- Node2&#45;&gt;Node3 -->
<g id="edge2" class="edge">
<title>Node2&#45;&gt;Node3</title>
<path fill="none" stroke="midnightblue" d="M205.89,-85.06C183.48,-74.52 158.45,-62.75 136.89,-52.61"/>
<polygon fill="midnightblue" stroke="midnightblue" points="204.45,-88.25 214.99,-89.34 207.43,-81.91 204.45,-88.25"/>
</g>
<!-- Node4 -->
<g id="node4" class="node">
<title>Node4</title>
<g id="a_node4"><a xlink:href="configuration__plugin__impl_8cpp.html" target="_top" xlink:title=" ">
<polygon fill="white" stroke="black" points="185,-0.5 185,-52.5 352,-52.5 352,-0.5 185,-0.5"/>
<text text-anchor="start" x="193" y="-40.5" font-family="Helvetica,sans-Serif" font-size="10.00">/home/kali/projects</text>
<text text-anchor="start" x="193" y="-29.5" font-family="Helvetica,sans-Serif" font-size="10.00">/vsomeip/implementation</text>
<text text-anchor="start" x="193" y="-18.5" font-family="Helvetica,sans-Serif" font-size="10.00">/configuration/src/configuration</text>
<text text-anchor="middle" x="268.5" y="-7.5" font-family="Helvetica,sans-Serif" font-size="10.00">_plugin_impl.cpp</text>
</a>
</g>
</g>
<!-- Node2&#45;&gt;Node4 -->
<g id="edge3" class="edge">
<title>Node2&#45;&gt;Node4</title>
<path fill="none" stroke="midnightblue" d="M268.5,-79.19C268.5,-70.28 268.5,-60.9 268.5,-52.61"/>
<polygon fill="midnightblue" stroke="midnightblue" points="265,-79.34 268.5,-89.34 272,-79.34 265,-79.34"/>
</g>
<!-- Node6 -->
<g id="node6" class="node">
<title>Node6</title>
<g id="a_node6"><a xlink:href="policy__manager_8cpp.html" target="_top" xlink:title=" ">
<polygon fill="white" stroke="black" points="369.5,-6 369.5,-47 545.5,-47 545.5,-6 369.5,-6"/>
<text text-anchor="start" x="377.5" y="-35" font-family="Helvetica,sans-Serif" font-size="10.00">/home/kali/projects</text>
<text text-anchor="start" x="377.5" y="-24" font-family="Helvetica,sans-Serif" font-size="10.00">/vsomeip/implementation</text>
<text text-anchor="middle" x="457.5" y="-13" font-family="Helvetica,sans-Serif" font-size="10.00">/security/src/policy_manager.cpp</text>
</a>
</g>
</g>
<!-- Node5&#45;&gt;Node6 -->
<g id="edge5" class="edge">
<title>Node5&#45;&gt;Node6</title>
<path fill="none" stroke="midnightblue" d="M457.5,-79.16C457.5,-68.21 457.5,-56.55 457.5,-47.08"/>
<polygon fill="midnightblue" stroke="midnightblue" points="454,-79.34 457.5,-89.34 461,-79.34 454,-79.34"/>
</g>
<!-- Node7 -->
<g id="node7" class="node">
<title>Node7</title>
<g id="a_node7"><a xlink:href="policy__manager__impl_8cpp.html" target="_top" xlink:title=" ">
<polygon fill="white" stroke="black" points="564,-0.5 564,-52.5 721,-52.5 721,-0.5 564,-0.5"/>
<text text-anchor="start" x="572" y="-40.5" font-family="Helvetica,sans-Serif" font-size="10.00">/home/kali/projects</text>
<text text-anchor="start" x="572" y="-29.5" font-family="Helvetica,sans-Serif" font-size="10.00">/vsomeip/implementation</text>
<text text-anchor="start" x="572" y="-18.5" font-family="Helvetica,sans-Serif" font-size="10.00">/security/src/policy_manager</text>
<text text-anchor="middle" x="642.5" y="-7.5" font-family="Helvetica,sans-Serif" font-size="10.00">_impl.cpp</text>
</a>
</g>
</g>
<!-- Node5&#45;&gt;Node7 -->
<g id="edge6" class="edge">
<title>Node5&#45;&gt;Node7</title>
<path fill="none" stroke="midnightblue" d="M520.11,-85.06C542.52,-74.52 567.55,-62.75 589.11,-52.61"/>
<polygon fill="midnightblue" stroke="midnightblue" points="518.57,-81.91 511.01,-89.34 521.55,-88.25 518.57,-81.91"/>
</g>
</g>
</svg>
