<?xml version="1.0" encoding="UTF-8" standalone="no"?>
<!DOCTYPE svg PUBLIC "-//W3C//DTD SVG 1.1//EN"
 "http://www.w3.org/Graphics/SVG/1.1/DTD/svg11.dtd">
<!-- Generated by graphviz version 2.43.0 (0)
 -->
<!-- Title: /home/kali/projects/vsomeip/implementation/configuration/include/configuration_element.hpp Pages: 1 -->
<svg width="189pt" height="128pt"
 viewBox="0.00 0.00 188.50 128.00" xmlns="http://www.w3.org/2000/svg" xmlns:xlink="http://www.w3.org/1999/xlink">
<g id="graph0" class="graph" transform="scale(1 1) rotate(0) translate(4 124)">
<title>/home/kali/projects/vsomeip/implementation/configuration/include/configuration_element.hpp</title>
<polygon fill="white" stroke="transparent" points="-4,4 -4,-124 184.5,-124 184.5,4 -4,4"/>
<!-- Node1 -->
<g id="node1" class="node">
<title>Node1</title>
<g id="a_node1"><a xlink:title=" ">
<polygon fill="#bfbfbf" stroke="black" points="0,-67.5 0,-119.5 150,-119.5 150,-67.5 0,-67.5"/>
<text text-anchor="start" x="8" y="-107.5" font-family="Helvetica,sans-Serif" font-size="10.00">/home/kali/projects</text>
<text text-anchor="start" x="8" y="-96.5" font-family="Helvetica,sans-Serif" font-size="10.00">/vsomeip/implementation</text>
<text text-anchor="start" x="8" y="-85.5" font-family="Helvetica,sans-Serif" font-size="10.00">/configuration/include</text>
<text text-anchor="middle" x="75" y="-74.5" font-family="Helvetica,sans-Serif" font-size="10.00">/configuration_element.hpp</text>
</a>
</g>
</g>
<!-- Node2 -->
<g id="node2" class="node">
<title>Node2</title>
<g id="a_node2"><a xlink:title=" ">
<polygon fill="white" stroke="#bfbfbf" points="5,-6 5,-25 49,-25 49,-6 5,-6"/>
<text text-anchor="middle" x="27" y="-13" font-family="Helvetica,sans-Serif" font-size="10.00">string</text>
</a>
</g>
</g>
<!-- Node1&#45;&gt;Node2 -->
<g id="edge1" class="edge">
<title>Node1&#45;&gt;Node2</title>
<path fill="none" stroke="midnightblue" d="M59.02,-67.19C52.07,-56.2 44.12,-43.6 37.87,-33.72"/>
<polygon fill="midnightblue" stroke="midnightblue" points="40.8,-31.79 32.5,-25.21 34.88,-35.53 40.8,-31.79"/>
</g>
<!-- Node3 -->
<g id="node3" class="node">
<title>Node3</title>
<g id="a_node3"><a xlink:title=" ">
<polygon fill="white" stroke="#bfbfbf" points="67.5,-0.5 67.5,-30.5 180.5,-30.5 180.5,-0.5 67.5,-0.5"/>
<text text-anchor="start" x="75.5" y="-18.5" font-family="Helvetica,sans-Serif" font-size="10.00">boost/property_tree</text>
<text text-anchor="middle" x="124" y="-7.5" font-family="Helvetica,sans-Serif" font-size="10.00">/ptree.hpp</text>
</a>
</g>
</g>
<!-- Node1&#45;&gt;Node3 -->
<g id="edge2" class="edge">
<title>Node1&#45;&gt;Node3</title>
<path fill="none" stroke="midnightblue" d="M91.32,-67.19C97.1,-58.22 103.58,-48.18 109.22,-39.42"/>
<polygon fill="midnightblue" stroke="midnightblue" points="112.27,-41.15 114.75,-30.85 106.39,-37.35 112.27,-41.15"/>
</g>
</g>
</svg>
