<?xml version="1.0" encoding="UTF-8" standalone="no"?>
<!DOCTYPE svg PUBLIC "-//W3C//DTD SVG 1.1//EN"
 "http://www.w3.org/Graphics/SVG/1.1/DTD/svg11.dtd">
<!-- Generated by graphviz version 2.43.0 (0)
 -->
<!-- Title: /home/kali/projects/vsomeip/implementation/configuration/include/configuration_impl.hpp Pages: 1 -->
<svg width="2143pt" height="374pt"
 viewBox="0.00 0.00 2143.10 374.00" xmlns="http://www.w3.org/2000/svg" xmlns:xlink="http://www.w3.org/1999/xlink">
<g id="graph0" class="graph" transform="scale(1 1) rotate(0) translate(4 370)">
<title>/home/kali/projects/vsomeip/implementation/configuration/include/configuration_impl.hpp</title>
<polygon fill="white" stroke="transparent" points="-4,4 -4,-370 2139.1,-370 2139.1,4 -4,4"/>
<!-- Node1 -->
<g id="node1" class="node">
<title>Node1</title>
<g id="a_node1"><a xlink:title=" ">
<polygon fill="#bfbfbf" stroke="black" points="1422.1,-313.5 1422.1,-365.5 1565.1,-365.5 1565.1,-313.5 1422.1,-313.5"/>
<text text-anchor="start" x="1430.1" y="-353.5" font-family="Helvetica,sans-Serif" font-size="10.00">/home/kali/projects</text>
<text text-anchor="start" x="1430.1" y="-342.5" font-family="Helvetica,sans-Serif" font-size="10.00">/vsomeip/implementation</text>
<text text-anchor="start" x="1430.1" y="-331.5" font-family="Helvetica,sans-Serif" font-size="10.00">/configuration/include</text>
<text text-anchor="middle" x="1493.6" y="-320.5" font-family="Helvetica,sans-Serif" font-size="10.00">/configuration_impl.hpp</text>
</a>
</g>
</g>
<!-- Node2 -->
<g id="node2" class="node">
<title>Node2</title>
<g id="a_node2"><a xlink:title=" ">
<polygon fill="white" stroke="#bfbfbf" points="425.6,-129 425.6,-148 463.6,-148 463.6,-129 425.6,-129"/>
<text text-anchor="middle" x="444.6" y="-136" font-family="Helvetica,sans-Serif" font-size="10.00">map</text>
</a>
</g>
</g>
<!-- Node1&#45;&gt;Node2 -->
<g id="edge1" class="edge">
<title>Node1&#45;&gt;Node2</title>
<path fill="none" stroke="midnightblue" d="M1422.02,-334.75C1294.32,-327.5 1019.01,-309.36 788.6,-277 659.47,-258.86 609.64,-292.51 500.6,-221 476.98,-205.51 460.59,-176.27 451.89,-157.35"/>
<polygon fill="midnightblue" stroke="midnightblue" points="455.05,-155.83 447.85,-148.05 448.63,-158.62 455.05,-155.83"/>
</g>
<!-- Node3 -->
<g id="node3" class="node">
<title>Node3</title>
<g id="a_node3"><a xlink:title=" ">
<polygon fill="white" stroke="#bfbfbf" points="349.6,-129 349.6,-148 407.6,-148 407.6,-129 349.6,-129"/>
<text text-anchor="middle" x="378.6" y="-136" font-family="Helvetica,sans-Serif" font-size="10.00">memory</text>
</a>
</g>
</g>
<!-- Node1&#45;&gt;Node3 -->
<g id="edge2" class="edge">
<title>Node1&#45;&gt;Node3</title>
<path fill="none" stroke="midnightblue" d="M1422.05,-337.64C1234.29,-334.76 730.97,-322.87 571.6,-277 494.66,-254.85 423.16,-186.92 393.3,-155.61"/>
<polygon fill="midnightblue" stroke="midnightblue" points="395.71,-153.06 386.32,-148.15 390.6,-157.84 395.71,-153.06"/>
</g>
<!-- Node4 -->
<g id="node4" class="node">
<title>Node4</title>
<g id="a_node4"><a xlink:title=" ">
<polygon fill="white" stroke="#bfbfbf" points="399.6,-62 399.6,-81 447.6,-81 447.6,-62 399.6,-62"/>
<text text-anchor="middle" x="423.6" y="-69" font-family="Helvetica,sans-Serif" font-size="10.00">mutex</text>
</a>
</g>
</g>
<!-- Node1&#45;&gt;Node4 -->
<g id="edge3" class="edge">
<title>Node1&#45;&gt;Node4</title>
<path fill="none" stroke="midnightblue" d="M1421.91,-336.86C1210.38,-331.64 591.23,-313.58 392.6,-277 215.52,-244.39 112.85,-299.37 6.6,-154 -1.53,-142.88 -2.68,-133.19 6.6,-123 64.31,-59.63 307.64,-108.51 390.6,-87 392.9,-86.4 395.24,-85.67 397.57,-84.84"/>
<polygon fill="midnightblue" stroke="midnightblue" points="398.88,-88.08 406.84,-81.1 396.26,-81.59 398.88,-88.08"/>
</g>
<!-- Node5 -->
<g id="node5" class="node">
<title>Node5</title>
<g id="a_node5"><a xlink:title=" ">
<polygon fill="white" stroke="#bfbfbf" points="1550.1,-0.5 1550.1,-19.5 1597.1,-19.5 1597.1,-0.5 1550.1,-0.5"/>
<text text-anchor="middle" x="1573.6" y="-7.5" font-family="Helvetica,sans-Serif" font-size="10.00">vector</text>
</a>
</g>
</g>
<!-- Node1&#45;&gt;Node5 -->
<g id="edge4" class="edge">
<title>Node1&#45;&gt;Node5</title>
<path fill="none" stroke="midnightblue" d="M1565.39,-328.03C1667.51,-311.38 1846,-275.09 1878.6,-221 1948.1,-105.68 1699.76,-38.5 1607.11,-17.87"/>
<polygon fill="midnightblue" stroke="midnightblue" points="1607.63,-14.4 1597.12,-15.69 1606.14,-21.24 1607.63,-14.4"/>
</g>
<!-- Node6 -->
<g id="node6" class="node">
<title>Node6</title>
<g id="a_node6"><a xlink:title=" ">
<polygon fill="white" stroke="#bfbfbf" points="1895.6,-257.5 1895.6,-276.5 1981.6,-276.5 1981.6,-257.5 1895.6,-257.5"/>
<text text-anchor="middle" x="1938.6" y="-264.5" font-family="Helvetica,sans-Serif" font-size="10.00">unordered_set</text>
</a>
</g>
</g>
<!-- Node1&#45;&gt;Node6 -->
<g id="edge5" class="edge">
<title>Node1&#45;&gt;Node6</title>
<path fill="none" stroke="midnightblue" d="M1565.59,-327.09C1654.93,-312.94 1805.22,-289.13 1885.03,-276.49"/>
<polygon fill="midnightblue" stroke="midnightblue" points="1886.01,-279.87 1895.34,-274.85 1884.92,-272.96 1886.01,-279.87"/>
</g>
<!-- Node7 -->
<g id="node7" class="node">
<title>Node7</title>
<g id="a_node7"><a xlink:title=" ">
<polygon fill="white" stroke="#bfbfbf" points="1999.6,-257.5 1999.6,-276.5 2031.6,-276.5 2031.6,-257.5 1999.6,-257.5"/>
<text text-anchor="middle" x="2015.6" y="-264.5" font-family="Helvetica,sans-Serif" font-size="10.00">list</text>
</a>
</g>
</g>
<!-- Node1&#45;&gt;Node7 -->
<g id="edge6" class="edge">
<title>Node1&#45;&gt;Node7</title>
<path fill="none" stroke="midnightblue" d="M1565.27,-334.65C1660.57,-328.41 1834.1,-313.2 1989.17,-276.86"/>
<polygon fill="midnightblue" stroke="midnightblue" points="1990.43,-280.16 1999.35,-274.44 1988.81,-273.35 1990.43,-280.16"/>
</g>
<!-- Node8 -->
<g id="node8" class="node">
<title>Node8</title>
<g id="a_node8"><a xlink:title=" ">
<polygon fill="white" stroke="#bfbfbf" points="1756.1,-190.5 1756.1,-220.5 1869.1,-220.5 1869.1,-190.5 1756.1,-190.5"/>
<text text-anchor="start" x="1764.1" y="-208.5" font-family="Helvetica,sans-Serif" font-size="10.00">boost/property_tree</text>
<text text-anchor="middle" x="1812.6" y="-197.5" font-family="Helvetica,sans-Serif" font-size="10.00">/ptree.hpp</text>
</a>
</g>
</g>
<!-- Node1&#45;&gt;Node8 -->
<g id="edge7" class="edge">
<title>Node1&#45;&gt;Node8</title>
<path fill="none" stroke="midnightblue" d="M1565.33,-332.18C1618.37,-324.96 1690.78,-309.59 1746.6,-277 1767.12,-265.02 1785.15,-244.69 1797.16,-228.93"/>
<polygon fill="midnightblue" stroke="midnightblue" points="1800.09,-230.86 1803.19,-220.73 1794.45,-226.72 1800.09,-230.86"/>
</g>
<!-- Node9 -->
<g id="node9" class="node">
<title>Node9</title>
<g id="a_node9"><a xlink:href="implementation_2configuration_2include_2trace_8hpp.html" target="_top" xlink:title=" ">
<polygon fill="white" stroke="black" points="1675.6,-196 1675.6,-215 1737.6,-215 1737.6,-196 1675.6,-196"/>
<text text-anchor="middle" x="1706.6" y="-203" font-family="Helvetica,sans-Serif" font-size="10.00">trace.hpp</text>
</a>
</g>
</g>
<!-- Node1&#45;&gt;Node9 -->
<g id="edge8" class="edge">
<title>Node1&#45;&gt;Node9</title>
<path fill="none" stroke="midnightblue" d="M1565.15,-329.59C1627.28,-320.22 1710.38,-303.14 1730.6,-277 1742.9,-261.1 1731.41,-238.51 1720.48,-223.22"/>
<polygon fill="midnightblue" stroke="midnightblue" points="1723.17,-220.97 1714.3,-215.16 1717.61,-225.23 1723.17,-220.97"/>
</g>
<!-- Node13 -->
<g id="node13" class="node">
<title>Node13</title>
<g id="a_node13"><a xlink:href="configuration_8hpp.html" target="_top" xlink:title=" ">
<polygon fill="white" stroke="black" points="1203.1,-257.5 1203.1,-276.5 1304.1,-276.5 1304.1,-257.5 1203.1,-257.5"/>
<text text-anchor="middle" x="1253.6" y="-264.5" font-family="Helvetica,sans-Serif" font-size="10.00">configuration.hpp</text>
</a>
</g>
</g>
<!-- Node1&#45;&gt;Node13 -->
<g id="edge13" class="edge">
<title>Node1&#45;&gt;Node13</title>
<path fill="none" stroke="midnightblue" d="M1421.92,-317.44C1379.55,-305 1327.54,-289.72 1292.64,-279.47"/>
<polygon fill="midnightblue" stroke="midnightblue" points="1293.42,-276.05 1282.83,-276.59 1291.44,-282.76 1293.42,-276.05"/>
</g>
<!-- Node21 -->
<g id="node21" class="node">
<title>Node21</title>
<g id="a_node21"><a xlink:href="config_8hpp.html" target="_top" xlink:title=" ">
<polygon fill="white" stroke="black" points="276.1,-190.5 276.1,-220.5 415.1,-220.5 415.1,-190.5 276.1,-190.5"/>
<text text-anchor="start" x="284.1" y="-208.5" font-family="Helvetica,sans-Serif" font-size="10.00">../../e2e_protection</text>
<text text-anchor="middle" x="345.6" y="-197.5" font-family="Helvetica,sans-Serif" font-size="10.00">/include/e2exf/config.hpp</text>
</a>
</g>
</g>
<!-- Node1&#45;&gt;Node21 -->
<g id="edge80" class="edge">
<title>Node1&#45;&gt;Node21</title>
<path fill="none" stroke="midnightblue" d="M1421.77,-336.96C1197.74,-331.81 521.23,-313.38 429.6,-277 403.6,-266.67 379.77,-244.97 364.18,-228.36"/>
<polygon fill="midnightblue" stroke="midnightblue" points="366.53,-225.74 357.22,-220.68 361.35,-230.44 366.53,-225.74"/>
</g>
<!-- Node29 -->
<g id="node29" class="node">
<title>Node29</title>
<g id="a_node29"><a xlink:href="e2e_8hpp.html" target="_top" xlink:title=" ">
<polygon fill="white" stroke="black" points="1525.6,-196 1525.6,-215 1581.6,-215 1581.6,-196 1525.6,-196"/>
<text text-anchor="middle" x="1553.6" y="-203" font-family="Helvetica,sans-Serif" font-size="10.00">e2e.hpp</text>
</a>
</g>
</g>
<!-- Node1&#45;&gt;Node29 -->
<g id="edge81" class="edge">
<title>Node1&#45;&gt;Node29</title>
<path fill="none" stroke="midnightblue" d="M1507.98,-313.43C1514.06,-302.42 1521,-289.23 1526.6,-277 1534.51,-259.71 1542.12,-239.39 1547.24,-225.01"/>
<polygon fill="midnightblue" stroke="midnightblue" points="1550.62,-225.92 1550.62,-215.33 1544.02,-223.61 1550.62,-225.92"/>
</g>
<!-- Node30 -->
<g id="node30" class="node">
<title>Node30</title>
<g id="a_node30"><a xlink:href="debounce_8hpp.html" target="_top" xlink:title=" ">
<polygon fill="white" stroke="black" points="510.1,-196 510.1,-215 595.1,-215 595.1,-196 510.1,-196"/>
<text text-anchor="middle" x="552.6" y="-203" font-family="Helvetica,sans-Serif" font-size="10.00">debounce.hpp</text>
</a>
</g>
</g>
<!-- Node1&#45;&gt;Node30 -->
<g id="edge82" class="edge">
<title>Node1&#45;&gt;Node30</title>
<path fill="none" stroke="midnightblue" d="M1421.9,-333.28C1269.23,-321.25 901.36,-287.38 599.6,-221 595.68,-220.14 591.61,-219.1 587.58,-217.99"/>
<polygon fill="midnightblue" stroke="midnightblue" points="588.34,-214.56 577.76,-215.1 586.37,-221.28 588.34,-214.56"/>
</g>
<!-- Node34 -->
<g id="node34" class="node">
<title>Node34</title>
<g id="a_node34"><a xlink:href="policy_8hpp.html" target="_top" xlink:title=" ">
<polygon fill="white" stroke="black" points="689.6,-190.5 689.6,-220.5 801.6,-220.5 801.6,-190.5 689.6,-190.5"/>
<text text-anchor="start" x="697.6" y="-208.5" font-family="Helvetica,sans-Serif" font-size="10.00">../../security/include</text>
<text text-anchor="middle" x="745.6" y="-197.5" font-family="Helvetica,sans-Serif" font-size="10.00">/policy.hpp</text>
</a>
</g>
</g>
<!-- Node1&#45;&gt;Node34 -->
<g id="edge83" class="edge">
<title>Node1&#45;&gt;Node34</title>
<path fill="none" stroke="midnightblue" d="M1421.71,-326.83C1297.76,-306.54 1035.94,-262.9 815.6,-221 814.33,-220.76 813.05,-220.51 811.76,-220.26"/>
<polygon fill="midnightblue" stroke="midnightblue" points="812.22,-216.79 801.73,-218.3 810.87,-223.66 812.22,-216.79"/>
</g>
<!-- Node42 -->
<g id="node42" class="node">
<title>Node42</title>
<g id="a_node42"><a xlink:href="configuration__element_8hpp.html" target="_top" xlink:title=" ">
<polygon fill="white" stroke="black" points="1574.1,-257.5 1574.1,-276.5 1721.1,-276.5 1721.1,-257.5 1574.1,-257.5"/>
<text text-anchor="middle" x="1647.6" y="-264.5" font-family="Helvetica,sans-Serif" font-size="10.00">configuration_element.hpp</text>
</a>
</g>
</g>
<!-- Node1&#45;&gt;Node42 -->
<g id="edge74" class="edge">
<title>Node1&#45;&gt;Node42</title>
<path fill="none" stroke="midnightblue" d="M1548.33,-313.45C1572.55,-302.36 1599.98,-289.8 1619.87,-280.7"/>
<polygon fill="midnightblue" stroke="midnightblue" points="1621.34,-283.87 1628.97,-276.53 1618.42,-277.51 1621.34,-283.87"/>
</g>
<!-- Node43 -->
<g id="node43" class="node">
<title>Node43</title>
<g id="a_node43"><a xlink:href="watchdog_8hpp.html" target="_top" xlink:title=" ">
<polygon fill="white" stroke="black" points="2050.1,-257.5 2050.1,-276.5 2135.1,-276.5 2135.1,-257.5 2050.1,-257.5"/>
<text text-anchor="middle" x="2092.6" y="-264.5" font-family="Helvetica,sans-Serif" font-size="10.00">watchdog.hpp</text>
</a>
</g>
</g>
<!-- Node1&#45;&gt;Node43 -->
<g id="edge77" class="edge">
<title>Node1&#45;&gt;Node43</title>
<path fill="none" stroke="midnightblue" d="M1565.45,-331.8C1668.23,-321.9 1863.37,-301.98 2040.06,-277"/>
<polygon fill="midnightblue" stroke="midnightblue" points="2040.66,-280.45 2050.06,-275.57 2039.67,-273.52 2040.66,-280.45"/>
</g>
<!-- Node44 -->
<g id="node44" class="node">
<title>Node44</title>
<g id="a_node44"><a xlink:href="service__instance__range_8hpp.html" target="_top" xlink:title=" ">
<polygon fill="white" stroke="black" points="1365.6,-257.5 1365.6,-276.5 1517.6,-276.5 1517.6,-257.5 1365.6,-257.5"/>
<text text-anchor="middle" x="1441.6" y="-264.5" font-family="Helvetica,sans-Serif" font-size="10.00">service_instance_range.hpp</text>
</a>
</g>
</g>
<!-- Node1&#45;&gt;Node44 -->
<g id="edge78" class="edge">
<title>Node1&#45;&gt;Node44</title>
<path fill="none" stroke="midnightblue" d="M1475.12,-313.45C1468.1,-303.93 1460.28,-293.33 1453.96,-284.76"/>
<polygon fill="midnightblue" stroke="midnightblue" points="1456.77,-282.67 1448.01,-276.7 1451.13,-286.82 1456.77,-282.67"/>
</g>
<!-- Node9&#45;&gt;Node5 -->
<g id="edge10" class="edge">
<title>Node9&#45;&gt;Node5</title>
<path fill="none" stroke="midnightblue" d="M1705.46,-195.87C1703.11,-180.37 1696.75,-147.19 1682.6,-123 1658.94,-82.53 1617.56,-45.67 1593.16,-25.98"/>
<polygon fill="midnightblue" stroke="midnightblue" points="1595.02,-22.99 1585.01,-19.53 1590.68,-28.48 1595.02,-22.99"/>
</g>
<!-- Node10 -->
<g id="node10" class="node">
<title>Node10</title>
<g id="a_node10"><a xlink:title=" ">
<polygon fill="white" stroke="#bfbfbf" points="1601.6,-129 1601.6,-148 1645.6,-148 1645.6,-129 1601.6,-129"/>
<text text-anchor="middle" x="1623.6" y="-136" font-family="Helvetica,sans-Serif" font-size="10.00">string</text>
</a>
</g>
</g>
<!-- Node9&#45;&gt;Node10 -->
<g id="edge9" class="edge">
<title>Node9&#45;&gt;Node10</title>
<path fill="none" stroke="midnightblue" d="M1695.41,-195.73C1681.96,-185.21 1659.2,-167.38 1642.9,-154.62"/>
<polygon fill="midnightblue" stroke="midnightblue" points="1644.65,-151.54 1634.62,-148.13 1640.33,-157.05 1644.65,-151.54"/>
</g>
<!-- Node11 -->
<g id="node11" class="node">
<title>Node11</title>
<g id="a_node11"><a xlink:title=" ">
<polygon fill="white" stroke="#bfbfbf" points="1345.1,-62 1345.1,-81 1504.1,-81 1504.1,-62 1345.1,-62"/>
<text text-anchor="middle" x="1424.6" y="-69" font-family="Helvetica,sans-Serif" font-size="10.00">vsomeip/primitive_types.hpp</text>
</a>
</g>
</g>
<!-- Node9&#45;&gt;Node11 -->
<g id="edge11" class="edge">
<title>Node9&#45;&gt;Node11</title>
<path fill="none" stroke="midnightblue" d="M1703.62,-195.75C1697.39,-178.83 1681.3,-141.64 1654.6,-123 1613.78,-94.5 1559.74,-81.68 1514.3,-76.08"/>
<polygon fill="midnightblue" stroke="midnightblue" points="1514.48,-72.58 1504.15,-74.93 1513.69,-79.54 1514.48,-72.58"/>
</g>
<!-- Node12 -->
<g id="node12" class="node">
<title>Node12</title>
<g id="a_node12"><a xlink:title=" ">
<polygon fill="white" stroke="#bfbfbf" points="1740.1,-129 1740.1,-148 1847.1,-148 1847.1,-129 1740.1,-129"/>
<text text-anchor="middle" x="1793.6" y="-136" font-family="Helvetica,sans-Serif" font-size="10.00">vsomeip/trace.hpp</text>
</a>
</g>
</g>
<!-- Node9&#45;&gt;Node12 -->
<g id="edge12" class="edge">
<title>Node9&#45;&gt;Node12</title>
<path fill="none" stroke="midnightblue" d="M1718.33,-195.73C1732.55,-185.11 1756.73,-167.05 1773.84,-154.26"/>
<polygon fill="midnightblue" stroke="midnightblue" points="1776.14,-156.92 1782.05,-148.13 1771.95,-151.31 1776.14,-156.92"/>
</g>
<!-- Node13&#45;&gt;Node2 -->
<g id="edge14" class="edge">
<title>Node13&#45;&gt;Node2</title>
<path fill="none" stroke="midnightblue" d="M1202.77,-265.5C1081.02,-263.75 775.81,-255.92 680.6,-221 658.48,-212.89 659.13,-199.57 637.6,-190 568.22,-159.15 541.65,-180.78 470.6,-154 469.56,-153.61 468.51,-153.18 467.46,-152.72"/>
<polygon fill="midnightblue" stroke="midnightblue" points="468.77,-149.47 458.27,-148.12 465.64,-155.72 468.77,-149.47"/>
</g>
<!-- Node13&#45;&gt;Node3 -->
<g id="edge15" class="edge">
<title>Node13&#45;&gt;Node3</title>
<path fill="none" stroke="midnightblue" d="M1202.96,-266.52C1074.47,-267.17 738.82,-264.52 637.6,-221 618.81,-212.92 621.88,-199.17 603.6,-190 527.94,-152.07 498,-177.17 416.6,-154 414.01,-153.26 411.36,-152.43 408.71,-151.53"/>
<polygon fill="midnightblue" stroke="midnightblue" points="409.88,-148.24 399.28,-148.14 407.51,-154.82 409.88,-148.24"/>
</g>
<!-- Node13&#45;&gt;Node9 -->
<g id="edge25" class="edge">
<title>Node13&#45;&gt;Node9</title>
<path fill="none" stroke="midnightblue" d="M1304.28,-260.68C1375.66,-252.99 1509.82,-237.85 1623.6,-221 1637.32,-218.97 1652.27,-216.45 1665.64,-214.09"/>
<polygon fill="midnightblue" stroke="midnightblue" points="1666.3,-217.53 1675.52,-212.32 1665.06,-210.64 1666.3,-217.53"/>
</g>
<!-- Node13&#45;&gt;Node10 -->
<g id="edge17" class="edge">
<title>Node13&#45;&gt;Node10</title>
<path fill="none" stroke="midnightblue" d="M1304.16,-260.6C1395.44,-250.65 1579.4,-229.68 1590.6,-221 1610.17,-205.83 1618.19,-177.15 1621.44,-158.18"/>
<polygon fill="midnightblue" stroke="midnightblue" points="1624.93,-158.46 1622.88,-148.07 1618,-157.48 1624.93,-158.46"/>
</g>
<!-- Node13&#45;&gt;Node11 -->
<g id="edge24" class="edge">
<title>Node13&#45;&gt;Node11</title>
<path fill="none" stroke="midnightblue" d="M1304.47,-264.7C1340.97,-261.1 1388.93,-250.49 1419.6,-221 1451.71,-190.12 1447.41,-167.02 1440.6,-123 1438.9,-112.04 1435.25,-100.2 1431.87,-90.74"/>
<polygon fill="midnightblue" stroke="midnightblue" points="1435.09,-89.36 1428.28,-81.24 1428.54,-91.83 1435.09,-89.36"/>
</g>
<!-- Node14 -->
<g id="node14" class="node">
<title>Node14</title>
<g id="a_node14"><a xlink:title=" ">
<polygon fill="white" stroke="#bfbfbf" points="1361.6,-196 1361.6,-215 1393.6,-215 1393.6,-196 1361.6,-196"/>
<text text-anchor="middle" x="1377.6" y="-203" font-family="Helvetica,sans-Serif" font-size="10.00">set</text>
</a>
</g>
</g>
<!-- Node13&#45;&gt;Node14 -->
<g id="edge16" class="edge">
<title>Node13&#45;&gt;Node14</title>
<path fill="none" stroke="midnightblue" d="M1271.63,-257.39C1290.56,-248.35 1321.19,-233.71 1347.6,-221 1349.14,-220.26 1350.73,-219.5 1352.32,-218.72"/>
<polygon fill="midnightblue" stroke="midnightblue" points="1353.93,-221.84 1361.41,-214.34 1350.89,-215.53 1353.93,-221.84"/>
</g>
<!-- Node15 -->
<g id="node15" class="node">
<title>Node15</title>
<g id="a_node15"><a xlink:title=" ">
<polygon fill="white" stroke="#bfbfbf" points="716.6,-62 716.6,-81 766.6,-81 766.6,-62 716.6,-62"/>
<text text-anchor="middle" x="741.6" y="-69" font-family="Helvetica,sans-Serif" font-size="10.00">chrono</text>
</a>
</g>
</g>
<!-- Node13&#45;&gt;Node15 -->
<g id="edge18" class="edge">
<title>Node13&#45;&gt;Node15</title>
<path fill="none" stroke="midnightblue" d="M1202.98,-262.15C1097.15,-253.87 861.26,-234.03 849.6,-221 775.78,-138.5 1150.85,-206.88 1078.6,-123 1068.78,-111.6 861.53,-86.4 777.01,-76.56"/>
<polygon fill="midnightblue" stroke="midnightblue" points="777.2,-73.05 766.87,-75.38 776.4,-80.01 777.2,-73.05"/>
</g>
<!-- Node16 -->
<g id="node16" class="node">
<title>Node16</title>
<g id="a_node16"><a xlink:title=" ">
<polygon fill="white" stroke="#bfbfbf" points="858.1,-196 858.1,-215 999.1,-215 999.1,-196 858.1,-196"/>
<text text-anchor="middle" x="928.6" y="-203" font-family="Helvetica,sans-Serif" font-size="10.00">boost/asio/ip/address.hpp</text>
</a>
</g>
</g>
<!-- Node13&#45;&gt;Node16 -->
<g id="edge19" class="edge">
<title>Node13&#45;&gt;Node16</title>
<path fill="none" stroke="midnightblue" d="M1207.03,-257.48C1148.51,-246.76 1048.12,-228.38 985.22,-216.87"/>
<polygon fill="midnightblue" stroke="midnightblue" points="985.54,-213.37 975.08,-215.01 984.28,-220.25 985.54,-213.37"/>
</g>
<!-- Node17 -->
<g id="node17" class="node">
<title>Node17</title>
<g id="a_node17"><a xlink:title=" ">
<polygon fill="white" stroke="#bfbfbf" points="1333.6,-123.5 1333.6,-153.5 1431.6,-153.5 1431.6,-123.5 1333.6,-123.5"/>
<text text-anchor="start" x="1341.6" y="-141.5" font-family="Helvetica,sans-Serif" font-size="10.00">boost/icl/interval</text>
<text text-anchor="middle" x="1382.6" y="-130.5" font-family="Helvetica,sans-Serif" font-size="10.00">_set.hpp</text>
</a>
</g>
</g>
<!-- Node13&#45;&gt;Node17 -->
<g id="edge20" class="edge">
<title>Node13&#45;&gt;Node17</title>
<path fill="none" stroke="midnightblue" d="M1304.12,-265.33C1337.9,-261.91 1380.13,-251.26 1402.6,-221 1415.2,-204.03 1407.09,-180.1 1397.7,-162.57"/>
<polygon fill="midnightblue" stroke="midnightblue" points="1400.52,-160.46 1392.47,-153.57 1394.47,-163.97 1400.52,-160.46"/>
</g>
<!-- Node18 -->
<g id="node18" class="node">
<title>Node18</title>
<g id="a_node18"><a xlink:title=" ">
<polygon fill="white" stroke="#bfbfbf" points="903.6,-62 903.6,-81 1017.6,-81 1017.6,-62 903.6,-62"/>
<text text-anchor="middle" x="960.6" y="-69" font-family="Helvetica,sans-Serif" font-size="10.00">vsomeip/export.hpp</text>
</a>
</g>
</g>
<!-- Node13&#45;&gt;Node18 -->
<g id="edge21" class="edge">
<title>Node13&#45;&gt;Node18</title>
<path fill="none" stroke="midnightblue" d="M1260.67,-257.31C1271.88,-242.41 1291.07,-211.5 1276.6,-190 1273.84,-185.9 1116.24,-124.72 1111.6,-123 1073.05,-108.74 1028.34,-94.01 997.63,-84.17"/>
<polygon fill="midnightblue" stroke="midnightblue" points="998.37,-80.73 987.78,-81.02 996.24,-87.4 998.37,-80.73"/>
</g>
<!-- Node19 -->
<g id="node19" class="node">
<title>Node19</title>
<g id="a_node19"><a xlink:title=" ">
<polygon fill="white" stroke="#bfbfbf" points="1017.6,-196 1017.6,-215 1135.6,-215 1135.6,-196 1017.6,-196"/>
<text text-anchor="middle" x="1076.6" y="-203" font-family="Helvetica,sans-Serif" font-size="10.00">vsomeip/defines.hpp</text>
</a>
</g>
</g>
<!-- Node13&#45;&gt;Node19 -->
<g id="edge22" class="edge">
<title>Node13&#45;&gt;Node19</title>
<path fill="none" stroke="midnightblue" d="M1228.24,-257.48C1197.61,-247.18 1145.94,-229.81 1111.55,-218.25"/>
<polygon fill="midnightblue" stroke="midnightblue" points="1112.51,-214.88 1101.91,-215.01 1110.28,-221.51 1112.51,-214.88"/>
</g>
<!-- Node20 -->
<g id="node20" class="node">
<title>Node20</title>
<g id="a_node20"><a xlink:title=" ">
<polygon fill="white" stroke="#bfbfbf" points="1154.1,-196 1154.1,-215 1267.1,-215 1267.1,-196 1154.1,-196"/>
<text text-anchor="middle" x="1210.6" y="-203" font-family="Helvetica,sans-Serif" font-size="10.00">vsomeip/plugin.hpp</text>
</a>
</g>
</g>
<!-- Node13&#45;&gt;Node20 -->
<g id="edge23" class="edge">
<title>Node13&#45;&gt;Node20</title>
<path fill="none" stroke="midnightblue" d="M1247.44,-257.48C1240.99,-248.55 1230.7,-234.31 1222.63,-223.14"/>
<polygon fill="midnightblue" stroke="midnightblue" points="1225.44,-221.06 1216.75,-215.01 1219.77,-225.16 1225.44,-221.06"/>
</g>
<!-- Node13&#45;&gt;Node21 -->
<g id="edge26" class="edge">
<title>Node13&#45;&gt;Node21</title>
<path fill="none" stroke="midnightblue" d="M1202.88,-263.56C1081.49,-257.59 764.7,-241.24 500.6,-221 476.19,-219.13 449.66,-216.77 425.55,-214.5"/>
<polygon fill="midnightblue" stroke="midnightblue" points="425.67,-210.99 415.39,-213.53 425.01,-217.96 425.67,-210.99"/>
</g>
<!-- Node13&#45;&gt;Node29 -->
<g id="edge44" class="edge">
<title>Node13&#45;&gt;Node29</title>
<path fill="none" stroke="midnightblue" d="M1296.58,-257.48C1355.3,-245.83 1459.68,-225.13 1515.65,-214.03"/>
<polygon fill="midnightblue" stroke="midnightblue" points="1516.39,-217.45 1525.52,-212.07 1515.03,-210.58 1516.39,-217.45"/>
</g>
<!-- Node13&#45;&gt;Node30 -->
<g id="edge49" class="edge">
<title>Node13&#45;&gt;Node30</title>
<path fill="none" stroke="midnightblue" d="M1202.73,-265.54C1093.45,-263.86 828.42,-256.19 609.6,-221 603.79,-220.07 597.7,-218.82 591.76,-217.44"/>
<polygon fill="midnightblue" stroke="midnightblue" points="592.52,-214.02 581.97,-215.04 590.85,-220.82 592.52,-214.02"/>
</g>
<!-- Node31 -->
<g id="node31" class="node">
<title>Node31</title>
<g id="a_node31"><a xlink:href="internal_8hpp.html" target="_top" xlink:title=" ">
<polygon fill="white" stroke="black" points="1202.1,-129 1202.1,-148 1277.1,-148 1277.1,-129 1202.1,-129"/>
<text text-anchor="middle" x="1239.6" y="-136" font-family="Helvetica,sans-Serif" font-size="10.00">internal.hpp</text>
</a>
</g>
</g>
<!-- Node13&#45;&gt;Node31 -->
<g id="edge51" class="edge">
<title>Node13&#45;&gt;Node31</title>
<path fill="none" stroke="midnightblue" d="M1271.1,-257.46C1284.39,-249.92 1301.67,-237.53 1309.6,-221 1315.55,-208.58 1315.87,-202.27 1309.6,-190 1301.12,-173.43 1284.39,-161.05 1269.41,-152.69"/>
<polygon fill="midnightblue" stroke="midnightblue" points="1270.89,-149.52 1260.4,-148.01 1267.66,-155.73 1270.89,-149.52"/>
</g>
<!-- Node13&#45;&gt;Node34 -->
<g id="edge56" class="edge">
<title>Node13&#45;&gt;Node34</title>
<path fill="none" stroke="midnightblue" d="M1202.8,-262.47C1120.96,-256.4 954.98,-242.54 815.6,-221 814.32,-220.8 813.03,-220.6 811.74,-220.39"/>
<polygon fill="midnightblue" stroke="midnightblue" points="812.12,-216.9 801.67,-218.64 810.93,-223.8 812.12,-216.9"/>
</g>
<!-- Node21&#45;&gt;Node2 -->
<g id="edge43" class="edge">
<title>Node21&#45;&gt;Node2</title>
<path fill="none" stroke="midnightblue" d="M367.08,-190.4C383.68,-179.5 406.55,-164.48 423.15,-153.58"/>
<polygon fill="midnightblue" stroke="midnightblue" points="425.2,-156.42 431.64,-148.01 421.36,-150.57 425.2,-156.42"/>
</g>
<!-- Node21&#45;&gt;Node3 -->
<g id="edge42" class="edge">
<title>Node21&#45;&gt;Node3</title>
<path fill="none" stroke="midnightblue" d="M352.76,-190.4C357.7,-180.66 364.31,-167.65 369.61,-157.21"/>
<polygon fill="midnightblue" stroke="midnightblue" points="372.78,-158.7 374.18,-148.19 366.54,-155.53 372.78,-158.7"/>
</g>
<!-- Node21&#45;&gt;Node11 -->
<g id="edge27" class="edge">
<title>Node21&#45;&gt;Node11</title>
<path fill="none" stroke="midnightblue" d="M339.12,-190.24C331.94,-172.02 323.48,-140.75 340.6,-123 379.04,-83.15 1281.5,-92.51 1336.6,-87 1347.22,-85.94 1358.51,-84.39 1369.33,-82.71"/>
<polygon fill="midnightblue" stroke="midnightblue" points="1370.21,-86.11 1379.53,-81.06 1369.09,-79.2 1370.21,-86.11"/>
</g>
<!-- Node22 -->
<g id="node22" class="node">
<title>Node22</title>
<g id="a_node22"><a xlink:href="profile__interface_2checker_8hpp.html" target="_top" xlink:title=" ">
<polygon fill="white" stroke="black" points="167.6,-123.5 167.6,-153.5 293.6,-153.5 293.6,-123.5 167.6,-123.5"/>
<text text-anchor="start" x="175.6" y="-141.5" font-family="Helvetica,sans-Serif" font-size="10.00">../e2e/profile/profile</text>
<text text-anchor="middle" x="230.6" y="-130.5" font-family="Helvetica,sans-Serif" font-size="10.00">_interface/checker.hpp</text>
</a>
</g>
</g>
<!-- Node21&#45;&gt;Node22 -->
<g id="edge28" class="edge">
<title>Node21&#45;&gt;Node22</title>
<path fill="none" stroke="midnightblue" d="M320.65,-190.4C304.22,-181.11 282.51,-168.84 264.52,-158.67"/>
<polygon fill="midnightblue" stroke="midnightblue" points="265.93,-155.45 255.5,-153.58 262.49,-161.54 265.93,-155.45"/>
</g>
<!-- Node28 -->
<g id="node28" class="node">
<title>Node28</title>
<g id="a_node28"><a xlink:href="profile__interface_2protector_8hpp.html" target="_top" xlink:title=" ">
<polygon fill="white" stroke="black" points="16.1,-123.5 16.1,-153.5 149.1,-153.5 149.1,-123.5 16.1,-123.5"/>
<text text-anchor="start" x="24.1" y="-141.5" font-family="Helvetica,sans-Serif" font-size="10.00">../e2e/profile/profile</text>
<text text-anchor="middle" x="82.6" y="-130.5" font-family="Helvetica,sans-Serif" font-size="10.00">_interface/protector.hpp</text>
</a>
</g>
</g>
<!-- Node21&#45;&gt;Node28 -->
<g id="edge38" class="edge">
<title>Node21&#45;&gt;Node28</title>
<path fill="none" stroke="midnightblue" d="M288.86,-190.48C247.95,-180.37 192.59,-166.68 149.52,-156.04"/>
<polygon fill="midnightblue" stroke="midnightblue" points="150.24,-152.61 139.69,-153.61 148.56,-159.41 150.24,-152.61"/>
</g>
<!-- Node22&#45;&gt;Node4 -->
<g id="edge29" class="edge">
<title>Node22&#45;&gt;Node4</title>
<path fill="none" stroke="midnightblue" d="M279.73,-123.49C311.63,-114.04 353.93,-100.8 390.6,-87 392.21,-86.39 393.86,-85.75 395.51,-85.09"/>
<polygon fill="midnightblue" stroke="midnightblue" points="397.04,-88.24 404.9,-81.14 394.32,-81.79 397.04,-88.24"/>
</g>
<!-- Node22&#45;&gt;Node11 -->
<g id="edge30" class="edge">
<title>Node22&#45;&gt;Node11</title>
<path fill="none" stroke="midnightblue" d="M293.93,-124.79C298.55,-124.1 303.14,-123.5 307.6,-123 762.42,-72.51 881.23,-132.29 1336.6,-87 1347.22,-85.94 1358.51,-84.4 1369.33,-82.72"/>
<polygon fill="midnightblue" stroke="midnightblue" points="1370.21,-86.12 1379.53,-81.07 1369.1,-79.21 1370.21,-86.12"/>
</g>
<!-- Node23 -->
<g id="node23" class="node">
<title>Node23</title>
<g id="a_node23"><a xlink:href="profile__interface_8hpp.html" target="_top" xlink:title=" ">
<polygon fill="white" stroke="black" points="119.6,-56.5 119.6,-86.5 239.6,-86.5 239.6,-56.5 119.6,-56.5"/>
<text text-anchor="start" x="127.6" y="-74.5" font-family="Helvetica,sans-Serif" font-size="10.00">../profile_interface</text>
<text text-anchor="middle" x="179.6" y="-63.5" font-family="Helvetica,sans-Serif" font-size="10.00">/profile_interface.hpp</text>
</a>
</g>
</g>
<!-- Node22&#45;&gt;Node23 -->
<g id="edge31" class="edge">
<title>Node22&#45;&gt;Node23</title>
<path fill="none" stroke="midnightblue" d="M219.53,-123.4C212.92,-114.96 204.37,-104.07 196.88,-94.52"/>
<polygon fill="midnightblue" stroke="midnightblue" points="199.57,-92.28 190.64,-86.58 194.06,-96.6 199.57,-92.28"/>
</g>
<!-- Node25 -->
<g id="node25" class="node">
<title>Node25</title>
<g id="a_node25"><a xlink:href="e2e__protection_2include_2buffer_2buffer_8hpp.html" target="_top" xlink:title=" ">
<polygon fill="white" stroke="black" points="257.6,-62 257.6,-81 381.6,-81 381.6,-62 257.6,-62"/>
<text text-anchor="middle" x="319.6" y="-69" font-family="Helvetica,sans-Serif" font-size="10.00">../../../buffer/buffer.hpp</text>
</a>
</g>
</g>
<!-- Node22&#45;&gt;Node25 -->
<g id="edge33" class="edge">
<title>Node22&#45;&gt;Node25</title>
<path fill="none" stroke="midnightblue" d="M249.91,-123.4C264.56,-112.7 284.64,-98.03 299.48,-87.19"/>
<polygon fill="midnightblue" stroke="midnightblue" points="301.94,-89.73 307.95,-81.01 297.81,-84.08 301.94,-89.73"/>
</g>
<!-- Node24 -->
<g id="node24" class="node">
<title>Node24</title>
<g id="a_node24"><a xlink:title=" ">
<polygon fill="white" stroke="#bfbfbf" points="410.6,-0.5 410.6,-19.5 460.6,-19.5 460.6,-0.5 410.6,-0.5"/>
<text text-anchor="middle" x="435.6" y="-7.5" font-family="Helvetica,sans-Serif" font-size="10.00">cstdint</text>
</a>
</g>
</g>
<!-- Node23&#45;&gt;Node24 -->
<g id="edge32" class="edge">
<title>Node23&#45;&gt;Node24</title>
<path fill="none" stroke="midnightblue" d="M239.62,-56.55C289.62,-44.93 359.11,-28.78 400.51,-19.16"/>
<polygon fill="midnightblue" stroke="midnightblue" points="401.45,-22.53 410.4,-16.86 399.86,-15.71 401.45,-22.53"/>
</g>
<!-- Node25&#45;&gt;Node5 -->
<g id="edge37" class="edge">
<title>Node25&#45;&gt;Node5</title>
<path fill="none" stroke="midnightblue" d="M355.53,-61.97C366.71,-59.64 379.11,-57.38 390.6,-56 621.84,-28.18 1370.85,-14.35 1539.61,-11.54"/>
<polygon fill="midnightblue" stroke="midnightblue" points="1539.72,-15.04 1549.66,-11.38 1539.6,-8.04 1539.72,-15.04"/>
</g>
<!-- Node25&#45;&gt;Node24 -->
<g id="edge35" class="edge">
<title>Node25&#45;&gt;Node24</title>
<path fill="none" stroke="midnightblue" d="M336.22,-61.98C355.51,-52.08 387.56,-35.64 410.03,-24.12"/>
<polygon fill="midnightblue" stroke="midnightblue" points="411.71,-27.19 419.01,-19.51 408.51,-20.96 411.71,-27.19"/>
</g>
<!-- Node26 -->
<g id="node26" class="node">
<title>Node26</title>
<g id="a_node26"><a xlink:title=" ">
<polygon fill="white" stroke="#bfbfbf" points="287.1,-0.5 287.1,-19.5 352.1,-19.5 352.1,-0.5 287.1,-0.5"/>
<text text-anchor="middle" x="319.6" y="-7.5" font-family="Helvetica,sans-Serif" font-size="10.00">stdexcept</text>
</a>
</g>
</g>
<!-- Node25&#45;&gt;Node26 -->
<g id="edge34" class="edge">
<title>Node25&#45;&gt;Node26</title>
<path fill="none" stroke="midnightblue" d="M319.6,-61.98C319.6,-53.58 319.6,-40.48 319.6,-29.66"/>
<polygon fill="midnightblue" stroke="midnightblue" points="323.1,-29.51 319.6,-19.51 316.1,-29.51 323.1,-29.51"/>
</g>
<!-- Node27 -->
<g id="node27" class="node">
<title>Node27</title>
<g id="a_node27"><a xlink:title=" ">
<polygon fill="white" stroke="#bfbfbf" points="562.1,-0.5 562.1,-19.5 619.1,-19.5 619.1,-0.5 562.1,-0.5"/>
<text text-anchor="middle" x="590.6" y="-7.5" font-family="Helvetica,sans-Serif" font-size="10.00">ostream</text>
</a>
</g>
</g>
<!-- Node25&#45;&gt;Node27 -->
<g id="edge36" class="edge">
<title>Node25&#45;&gt;Node27</title>
<path fill="none" stroke="midnightblue" d="M358.43,-61.98C409.91,-50.67 500.24,-30.84 551.74,-19.53"/>
<polygon fill="midnightblue" stroke="midnightblue" points="552.79,-22.88 561.81,-17.32 551.29,-16.05 552.79,-22.88"/>
</g>
<!-- Node28&#45;&gt;Node11 -->
<g id="edge39" class="edge">
<title>Node28&#45;&gt;Node11</title>
<path fill="none" stroke="midnightblue" d="M149.24,-124.17C152.4,-123.73 155.53,-123.34 158.6,-123 679.26,-65.74 815.26,-137.69 1336.6,-87 1347.45,-85.94 1359,-84.37 1370.03,-82.65"/>
<polygon fill="midnightblue" stroke="midnightblue" points="1370.67,-86.09 1379.98,-81.03 1369.55,-79.18 1370.67,-86.09"/>
</g>
<!-- Node28&#45;&gt;Node23 -->
<g id="edge41" class="edge">
<title>Node28&#45;&gt;Node23</title>
<path fill="none" stroke="midnightblue" d="M103.65,-123.4C117.25,-114.28 135.14,-102.29 150.15,-92.24"/>
<polygon fill="midnightblue" stroke="midnightblue" points="152.23,-95.05 158.59,-86.58 148.34,-89.24 152.23,-95.05"/>
</g>
<!-- Node28&#45;&gt;Node25 -->
<g id="edge40" class="edge">
<title>Node28&#45;&gt;Node25</title>
<path fill="none" stroke="midnightblue" d="M133.73,-123.48C177.14,-111.57 238.6,-94.72 278.77,-83.7"/>
<polygon fill="midnightblue" stroke="midnightblue" points="279.78,-87.05 288.5,-81.03 277.93,-80.3 279.78,-87.05"/>
</g>
<!-- Node29&#45;&gt;Node2 -->
<g id="edge45" class="edge">
<title>Node29&#45;&gt;Node2</title>
<path fill="none" stroke="midnightblue" d="M1525.53,-201.34C1495.24,-198.03 1445.56,-192.93 1402.6,-190 1006.75,-163.03 904.11,-204.77 510.6,-154 498.39,-152.43 485.11,-149.71 473.68,-147.05"/>
<polygon fill="midnightblue" stroke="midnightblue" points="474.33,-143.6 463.79,-144.65 472.69,-150.41 474.33,-143.6"/>
</g>
<!-- Node29&#45;&gt;Node5 -->
<g id="edge47" class="edge">
<title>Node29&#45;&gt;Node5</title>
<path fill="none" stroke="midnightblue" d="M1554.48,-195.94C1557.5,-166.79 1567.4,-70.97 1571.64,-29.93"/>
<polygon fill="midnightblue" stroke="midnightblue" points="1575.13,-30.21 1572.68,-19.91 1568.17,-29.49 1575.13,-30.21"/>
</g>
<!-- Node29&#45;&gt;Node10 -->
<g id="edge46" class="edge">
<title>Node29&#45;&gt;Node10</title>
<path fill="none" stroke="midnightblue" d="M1563.04,-195.73C1574.27,-185.31 1593.22,-167.71 1606.94,-154.97"/>
<polygon fill="midnightblue" stroke="midnightblue" points="1609.36,-157.5 1614.31,-148.13 1604.6,-152.37 1609.36,-157.5"/>
</g>
<!-- Node29&#45;&gt;Node11 -->
<g id="edge48" class="edge">
<title>Node29&#45;&gt;Node11</title>
<path fill="none" stroke="midnightblue" d="M1550.99,-195.92C1545.76,-179.92 1532.66,-145.14 1511.6,-123 1496.06,-106.66 1474.07,-93.96 1456.09,-85.38"/>
<polygon fill="midnightblue" stroke="midnightblue" points="1457.12,-82.01 1446.57,-81.04 1454.22,-88.38 1457.12,-82.01"/>
</g>
<!-- Node30&#45;&gt;Node2 -->
<g id="edge50" class="edge">
<title>Node30&#45;&gt;Node2</title>
<path fill="none" stroke="midnightblue" d="M538.03,-195.73C519.98,-184.87 488.99,-166.22 467.68,-153.39"/>
<polygon fill="midnightblue" stroke="midnightblue" points="469.31,-150.29 458.93,-148.13 465.7,-156.28 469.31,-150.29"/>
</g>
<!-- Node31&#45;&gt;Node11 -->
<g id="edge54" class="edge">
<title>Node31&#45;&gt;Node11</title>
<path fill="none" stroke="midnightblue" d="M1264.17,-128.87C1296.6,-117.47 1353.86,-97.35 1390.48,-84.49"/>
<polygon fill="midnightblue" stroke="midnightblue" points="1391.95,-87.68 1400.23,-81.06 1389.63,-81.08 1391.95,-87.68"/>
</g>
<!-- Node31&#45;&gt;Node24 -->
<g id="edge52" class="edge">
<title>Node31&#45;&gt;Node24</title>
<path fill="none" stroke="midnightblue" d="M1222.46,-128.97C1186.95,-111.73 1102.32,-72.98 1026.6,-56 820.45,-9.77 763.26,-36.1 552.6,-20 525.12,-17.9 494.01,-15.51 470.78,-13.72"/>
<polygon fill="midnightblue" stroke="midnightblue" points="470.94,-10.22 460.7,-12.94 470.41,-17.2 470.94,-10.22"/>
</g>
<!-- Node32 -->
<g id="node32" class="node">
<title>Node32</title>
<g id="a_node32"><a xlink:title=" ">
<polygon fill="white" stroke="#bfbfbf" points="1201.6,-62 1201.6,-81 1245.6,-81 1245.6,-62 1201.6,-62"/>
<text text-anchor="middle" x="1223.6" y="-69" font-family="Helvetica,sans-Serif" font-size="10.00">limits</text>
</a>
</g>
</g>
<!-- Node31&#45;&gt;Node32 -->
<g id="edge53" class="edge">
<title>Node31&#45;&gt;Node32</title>
<path fill="none" stroke="midnightblue" d="M1237.44,-128.73C1235.07,-119.09 1231.18,-103.3 1228.13,-90.91"/>
<polygon fill="midnightblue" stroke="midnightblue" points="1231.51,-90 1225.72,-81.13 1224.71,-91.67 1231.51,-90"/>
</g>
<!-- Node33 -->
<g id="node33" class="node">
<title>Node33</title>
<g id="a_node33"><a xlink:title=" ">
<polygon fill="white" stroke="#bfbfbf" points="1264.1,-62 1264.1,-81 1327.1,-81 1327.1,-62 1264.1,-62"/>
<text text-anchor="middle" x="1295.6" y="-69" font-family="Helvetica,sans-Serif" font-size="10.00">pthread.h</text>
</a>
</g>
</g>
<!-- Node31&#45;&gt;Node33 -->
<g id="edge55" class="edge">
<title>Node31&#45;&gt;Node33</title>
<path fill="none" stroke="midnightblue" d="M1247.15,-128.73C1255.88,-118.6 1270.45,-101.69 1281.34,-89.06"/>
<polygon fill="midnightblue" stroke="midnightblue" points="1284.29,-90.99 1288.17,-81.13 1278.99,-86.42 1284.29,-90.99"/>
</g>
<!-- Node34&#45;&gt;Node2 -->
<g id="edge58" class="edge">
<title>Node34&#45;&gt;Node2</title>
<path fill="none" stroke="midnightblue" d="M689.46,-192.75C684.77,-191.8 680.11,-190.88 675.6,-190 587.8,-172.93 563.13,-180.17 477.6,-154 475.67,-153.41 473.7,-152.74 471.74,-152.01"/>
<polygon fill="midnightblue" stroke="midnightblue" points="472.7,-148.63 462.12,-148.11 470.07,-155.11 472.7,-148.63"/>
</g>
<!-- Node34&#45;&gt;Node4 -->
<g id="edge59" class="edge">
<title>Node34&#45;&gt;Node4</title>
<path fill="none" stroke="midnightblue" d="M689.36,-192.8C621.12,-178.55 514.61,-156.1 510.6,-154 494.34,-145.49 458.86,-109.66 438.59,-88.44"/>
<polygon fill="midnightblue" stroke="midnightblue" points="441.06,-85.96 431.63,-81.12 435.98,-90.78 441.06,-85.96"/>
</g>
<!-- Node34&#45;&gt;Node5 -->
<g id="edge61" class="edge">
<title>Node34&#45;&gt;Node5</title>
<path fill="none" stroke="midnightblue" d="M801.91,-196.36C895.22,-182.83 1072.35,-156.87 1078.6,-154 1139.32,-126.13 1131.42,-82.87 1192.6,-56 1254.61,-28.77 1458.54,-16.4 1539.77,-12.47"/>
<polygon fill="midnightblue" stroke="midnightblue" points="1540.12,-15.96 1549.95,-11.99 1539.79,-8.97 1540.12,-15.96"/>
</g>
<!-- Node34&#45;&gt;Node11 -->
<g id="edge65" class="edge">
<title>Node34&#45;&gt;Node11</title>
<path fill="none" stroke="midnightblue" d="M801.66,-196.09C817.17,-193.93 834.02,-191.73 849.6,-190 946.45,-179.27 1196.23,-190.44 1286.6,-154 1306.81,-145.85 1306.32,-134.87 1324.6,-123 1347.27,-108.28 1374.8,-94.66 1395.23,-85.28"/>
<polygon fill="midnightblue" stroke="midnightblue" points="1396.68,-88.46 1404.36,-81.16 1393.8,-82.08 1396.68,-88.46"/>
</g>
<!-- Node34&#45;&gt;Node17 -->
<g id="edge63" class="edge">
<title>Node34&#45;&gt;Node17</title>
<path fill="none" stroke="midnightblue" d="M801.65,-196.03C817.16,-193.87 834.01,-191.68 849.6,-190 1057.89,-167.52 1112.49,-185.58 1319.6,-154 1320.88,-153.8 1322.17,-153.6 1323.47,-153.38"/>
<polygon fill="midnightblue" stroke="midnightblue" points="1324.35,-156.78 1333.56,-151.54 1323.09,-149.89 1324.35,-156.78"/>
</g>
<!-- Node35 -->
<g id="node35" class="node">
<title>Node35</title>
<g id="a_node35"><a xlink:title=" ">
<polygon fill="white" stroke="#bfbfbf" points="839.6,-129 839.6,-148 889.6,-148 889.6,-129 839.6,-129"/>
<text text-anchor="middle" x="864.6" y="-136" font-family="Helvetica,sans-Serif" font-size="10.00">cstring</text>
</a>
</g>
</g>
<!-- Node34&#45;&gt;Node35 -->
<g id="edge57" class="edge">
<title>Node34&#45;&gt;Node35</title>
<path fill="none" stroke="midnightblue" d="M771.42,-190.4C791.84,-179.24 820.15,-163.78 840.19,-152.83"/>
<polygon fill="midnightblue" stroke="midnightblue" points="841.93,-155.87 849.02,-148.01 838.57,-149.73 841.93,-155.87"/>
</g>
<!-- Node36 -->
<g id="node36" class="node">
<title>Node36</title>
<g id="a_node36"><a xlink:title=" ">
<polygon fill="white" stroke="#bfbfbf" points="908.1,-129 908.1,-148 953.1,-148 953.1,-129 908.1,-129"/>
<text text-anchor="middle" x="930.6" y="-136" font-family="Helvetica,sans-Serif" font-size="10.00">utility</text>
</a>
</g>
</g>
<!-- Node34&#45;&gt;Node36 -->
<g id="edge60" class="edge">
<title>Node34&#45;&gt;Node36</title>
<path fill="none" stroke="midnightblue" d="M792.59,-190.42C823.1,-180.92 863.55,-167.68 898.6,-154 900.02,-153.45 901.47,-152.86 902.92,-152.26"/>
<polygon fill="midnightblue" stroke="midnightblue" points="904.68,-155.31 912.47,-148.12 901.9,-148.89 904.68,-155.31"/>
</g>
<!-- Node37 -->
<g id="node37" class="node">
<title>Node37</title>
<g id="a_node37"><a xlink:title=" ">
<polygon fill="white" stroke="#bfbfbf" points="971.6,-123.5 971.6,-153.5 1069.6,-153.5 1069.6,-123.5 971.6,-123.5"/>
<text text-anchor="start" x="979.6" y="-141.5" font-family="Helvetica,sans-Serif" font-size="10.00">boost/icl/interval</text>
<text text-anchor="middle" x="1020.6" y="-130.5" font-family="Helvetica,sans-Serif" font-size="10.00">_map.hpp</text>
</a>
</g>
</g>
<!-- Node34&#45;&gt;Node37 -->
<g id="edge62" class="edge">
<title>Node34&#45;&gt;Node37</title>
<path fill="none" stroke="midnightblue" d="M801.86,-191.67C843.39,-182.14 901.55,-168.67 961.53,-154.24"/>
<polygon fill="midnightblue" stroke="midnightblue" points="962.66,-157.56 971.57,-151.82 961.02,-150.76 962.66,-157.56"/>
</g>
<!-- Node38 -->
<g id="node38" class="node">
<title>Node38</title>
<g id="a_node38"><a xlink:title=" ">
<polygon fill="white" stroke="#bfbfbf" points="691.6,-129 691.6,-148 821.6,-148 821.6,-129 691.6,-129"/>
<text text-anchor="middle" x="756.6" y="-136" font-family="Helvetica,sans-Serif" font-size="10.00">vsomeip/constants.hpp</text>
</a>
</g>
</g>
<!-- Node34&#45;&gt;Node38 -->
<g id="edge64" class="edge">
<title>Node34&#45;&gt;Node38</title>
<path fill="none" stroke="midnightblue" d="M747.99,-190.4C749.58,-180.96 751.7,-168.45 753.44,-158.19"/>
<polygon fill="midnightblue" stroke="midnightblue" points="756.91,-158.64 755.13,-148.19 750.01,-157.47 756.91,-158.64"/>
</g>
<!-- Node39 -->
<g id="node39" class="node">
<title>Node39</title>
<g id="a_node39"><a xlink:href="logger_8hpp.html" target="_top" xlink:title=" ">
<polygon fill="white" stroke="black" points="520.1,-129 520.1,-148 673.1,-148 673.1,-129 520.1,-129"/>
<text text-anchor="middle" x="596.6" y="-136" font-family="Helvetica,sans-Serif" font-size="10.00">vsomeip/internal/logger.hpp</text>
</a>
</g>
</g>
<!-- Node34&#45;&gt;Node39 -->
<g id="edge66" class="edge">
<title>Node34&#45;&gt;Node39</title>
<path fill="none" stroke="midnightblue" d="M713.27,-190.4C687.12,-178.99 650.65,-163.08 625.48,-152.1"/>
<polygon fill="midnightblue" stroke="midnightblue" points="626.67,-148.8 616.1,-148.01 623.87,-155.21 626.67,-148.8"/>
</g>
<!-- Node39&#45;&gt;Node4 -->
<g id="edge69" class="edge">
<title>Node39&#45;&gt;Node4</title>
<path fill="none" stroke="midnightblue" d="M573.65,-128.97C546.78,-118.96 500.93,-101.86 461.6,-87 459.72,-86.29 457.78,-85.56 455.83,-84.82"/>
<polygon fill="midnightblue" stroke="midnightblue" points="456.69,-81.4 446.09,-81.11 454.2,-87.94 456.69,-81.4"/>
</g>
<!-- Node39&#45;&gt;Node15 -->
<g id="edge67" class="edge">
<title>Node39&#45;&gt;Node15</title>
<path fill="none" stroke="midnightblue" d="M615.85,-128.87C640.77,-117.7 684.39,-98.15 713.13,-85.26"/>
<polygon fill="midnightblue" stroke="midnightblue" points="714.57,-88.45 722.26,-81.17 711.71,-82.06 714.57,-88.45"/>
</g>
<!-- Node39&#45;&gt;Node18 -->
<g id="edge73" class="edge">
<title>Node39&#45;&gt;Node18</title>
<path fill="none" stroke="midnightblue" d="M644.56,-128.94C711.08,-117.06 831.19,-95.61 902.64,-82.85"/>
<polygon fill="midnightblue" stroke="midnightblue" points="903.59,-86.24 912.82,-81.03 902.36,-79.34 903.59,-86.24"/>
</g>
<!-- Node39&#45;&gt;Node24 -->
<g id="edge68" class="edge">
<title>Node39&#45;&gt;Node24</title>
<path fill="none" stroke="midnightblue" d="M571.72,-128.84C549.87,-120.43 518.01,-106.13 494.6,-87 474.06,-70.21 456.29,-45 445.77,-28.28"/>
<polygon fill="midnightblue" stroke="midnightblue" points="448.64,-26.26 440.44,-19.55 442.66,-29.91 448.64,-26.26"/>
</g>
<!-- Node39&#45;&gt;Node27 -->
<g id="edge70" class="edge">
<title>Node39&#45;&gt;Node27</title>
<path fill="none" stroke="midnightblue" d="M612.29,-128.85C626.07,-120.26 645.19,-105.69 653.6,-87 659.25,-74.44 659.9,-68.25 653.6,-56 646.52,-42.25 633.08,-31.77 620.42,-24.39"/>
<polygon fill="midnightblue" stroke="midnightblue" points="621.91,-21.22 611.45,-19.57 618.6,-27.39 621.91,-21.22"/>
</g>
<!-- Node40 -->
<g id="node40" class="node">
<title>Node40</title>
<g id="a_node40"><a xlink:title=" ">
<polygon fill="white" stroke="#bfbfbf" points="503.6,-62 503.6,-81 559.6,-81 559.6,-62 503.6,-62"/>
<text text-anchor="middle" x="531.6" y="-69" font-family="Helvetica,sans-Serif" font-size="10.00">sstream</text>
</a>
</g>
</g>
<!-- Node39&#45;&gt;Node40 -->
<g id="edge71" class="edge">
<title>Node39&#45;&gt;Node40</title>
<path fill="none" stroke="midnightblue" d="M587.83,-128.73C577.5,-118.4 560.14,-101.04 547.43,-88.33"/>
<polygon fill="midnightblue" stroke="midnightblue" points="549.77,-85.72 540.23,-81.13 544.82,-90.67 549.77,-85.72"/>
</g>
<!-- Node41 -->
<g id="node41" class="node">
<title>Node41</title>
<g id="a_node41"><a xlink:title=" ">
<polygon fill="white" stroke="#bfbfbf" points="578.1,-62 578.1,-81 645.1,-81 645.1,-62 578.1,-62"/>
<text text-anchor="middle" x="611.6" y="-69" font-family="Helvetica,sans-Serif" font-size="10.00">streambuf</text>
</a>
</g>
</g>
<!-- Node39&#45;&gt;Node41 -->
<g id="edge72" class="edge">
<title>Node39&#45;&gt;Node41</title>
<path fill="none" stroke="midnightblue" d="M598.62,-128.73C600.85,-119.09 604.49,-103.3 607.35,-90.91"/>
<polygon fill="midnightblue" stroke="midnightblue" points="610.77,-91.66 609.61,-81.13 603.95,-90.08 610.77,-91.66"/>
</g>
<!-- Node42&#45;&gt;Node8 -->
<g id="edge76" class="edge">
<title>Node42&#45;&gt;Node8</title>
<path fill="none" stroke="midnightblue" d="M1671.24,-257.48C1695.36,-248.78 1733.49,-235.03 1764.07,-224"/>
<polygon fill="midnightblue" stroke="midnightblue" points="1765.49,-227.21 1773.71,-220.52 1763.12,-220.62 1765.49,-227.21"/>
</g>
<!-- Node42&#45;&gt;Node10 -->
<g id="edge75" class="edge">
<title>Node42&#45;&gt;Node10</title>
<path fill="none" stroke="midnightblue" d="M1645.95,-257.31C1642.1,-236.99 1632.43,-186.05 1627.16,-158.28"/>
<polygon fill="midnightblue" stroke="midnightblue" points="1630.56,-157.43 1625.26,-148.26 1623.69,-158.73 1630.56,-157.43"/>
</g>
<!-- Node44&#45;&gt;Node11 -->
<g id="edge79" class="edge">
<title>Node44&#45;&gt;Node11</title>
<path fill="none" stroke="midnightblue" d="M1450.35,-257.29C1458.16,-248.84 1469.05,-235.25 1473.6,-221 1486.85,-179.51 1489.96,-163.36 1473.6,-123 1467.88,-108.89 1456.11,-96.54 1445.54,-87.59"/>
<polygon fill="midnightblue" stroke="midnightblue" points="1447.46,-84.65 1437.46,-81.17 1443.11,-90.13 1447.46,-84.65"/>
</g>
</g>
</svg>
