<?xml version="1.0" encoding="UTF-8" standalone="no"?>
<!DOCTYPE svg PUBLIC "-//W3C//DTD SVG 1.1//EN"
 "http://www.w3.org/Graphics/SVG/1.1/DTD/svg11.dtd">
<!-- Generated by graphviz version 2.43.0 (0)
 -->
<!-- Title: /home/kali/projects/vsomeip/implementation/e2e_protection/include/e2exf/config.hpp Pages: 1 -->
<svg width="559pt" height="251pt"
 viewBox="0.00 0.00 559.00 251.00" xmlns="http://www.w3.org/2000/svg" xmlns:xlink="http://www.w3.org/1999/xlink">
<g id="graph0" class="graph" transform="scale(1 1) rotate(0) translate(4 247)">
<title>/home/kali/projects/vsomeip/implementation/e2e_protection/include/e2exf/config.hpp</title>
<polygon fill="white" stroke="transparent" points="-4,4 -4,-247 555,-247 555,4 -4,4"/>
<!-- Node1 -->
<g id="node1" class="node">
<title>Node1</title>
<g id="a_node1"><a xlink:title=" ">
<polygon fill="#bfbfbf" stroke="black" points="269,-190.5 269,-242.5 412,-242.5 412,-190.5 269,-190.5"/>
<text text-anchor="start" x="277" y="-230.5" font-family="Helvetica,sans-Serif" font-size="10.00">/home/kali/projects</text>
<text text-anchor="start" x="277" y="-219.5" font-family="Helvetica,sans-Serif" font-size="10.00">/vsomeip/implementation</text>
<text text-anchor="start" x="277" y="-208.5" font-family="Helvetica,sans-Serif" font-size="10.00">/e2e_protection/include</text>
<text text-anchor="middle" x="340.5" y="-197.5" font-family="Helvetica,sans-Serif" font-size="10.00">/e2exf/config.hpp</text>
</a>
</g>
</g>
<!-- Node2 -->
<g id="node2" class="node">
<title>Node2</title>
<g id="a_node2"><a xlink:title=" ">
<polygon fill="white" stroke="#bfbfbf" points="0,-62 0,-81 159,-81 159,-62 0,-62"/>
<text text-anchor="middle" x="79.5" y="-69" font-family="Helvetica,sans-Serif" font-size="10.00">vsomeip/primitive_types.hpp</text>
</a>
</g>
</g>
<!-- Node1&#45;&gt;Node2 -->
<g id="edge1" class="edge">
<title>Node1&#45;&gt;Node2</title>
<path fill="none" stroke="midnightblue" d="M268.76,-210.3C222.07,-203.6 162.3,-188.4 120.5,-154 100.67,-137.68 89.51,-109.33 83.99,-90.74"/>
<polygon fill="midnightblue" stroke="midnightblue" points="87.37,-89.82 81.37,-81.09 80.62,-91.66 87.37,-89.82"/>
</g>
<!-- Node3 -->
<g id="node3" class="node">
<title>Node3</title>
<g id="a_node3"><a xlink:href="profile__interface_2checker_8hpp.html" target="_top" xlink:title=" ">
<polygon fill="white" stroke="black" points="129.5,-123.5 129.5,-153.5 255.5,-153.5 255.5,-123.5 129.5,-123.5"/>
<text text-anchor="start" x="137.5" y="-141.5" font-family="Helvetica,sans-Serif" font-size="10.00">../e2e/profile/profile</text>
<text text-anchor="middle" x="192.5" y="-130.5" font-family="Helvetica,sans-Serif" font-size="10.00">_interface/checker.hpp</text>
</a>
</g>
</g>
<!-- Node1&#45;&gt;Node3 -->
<g id="edge2" class="edge">
<title>Node1&#45;&gt;Node3</title>
<path fill="none" stroke="midnightblue" d="M291.63,-190.4C271.32,-179.97 248.14,-168.07 229.3,-158.4"/>
<polygon fill="midnightblue" stroke="midnightblue" points="230.66,-155.16 220.17,-153.71 227.46,-161.39 230.66,-155.16"/>
</g>
<!-- Node11 -->
<g id="node11" class="node">
<title>Node11</title>
<g id="a_node11"><a xlink:href="profile__interface_2protector_8hpp.html" target="_top" xlink:title=" ">
<polygon fill="white" stroke="black" points="274,-123.5 274,-153.5 407,-153.5 407,-123.5 274,-123.5"/>
<text text-anchor="start" x="282" y="-141.5" font-family="Helvetica,sans-Serif" font-size="10.00">../e2e/profile/profile</text>
<text text-anchor="middle" x="340.5" y="-130.5" font-family="Helvetica,sans-Serif" font-size="10.00">_interface/protector.hpp</text>
</a>
</g>
</g>
<!-- Node1&#45;&gt;Node11 -->
<g id="edge12" class="edge">
<title>Node1&#45;&gt;Node11</title>
<path fill="none" stroke="midnightblue" d="M340.5,-190.19C340.5,-181.79 340.5,-172.44 340.5,-164.09"/>
<polygon fill="midnightblue" stroke="midnightblue" points="344,-163.85 340.5,-153.85 337,-163.85 344,-163.85"/>
</g>
<!-- Node12 -->
<g id="node12" class="node">
<title>Node12</title>
<g id="a_node12"><a xlink:title=" ">
<polygon fill="white" stroke="#bfbfbf" points="425.5,-129 425.5,-148 483.5,-148 483.5,-129 425.5,-129"/>
<text text-anchor="middle" x="454.5" y="-136" font-family="Helvetica,sans-Serif" font-size="10.00">memory</text>
</a>
</g>
</g>
<!-- Node1&#45;&gt;Node12 -->
<g id="edge16" class="edge">
<title>Node1&#45;&gt;Node12</title>
<path fill="none" stroke="midnightblue" d="M378.14,-190.4C396.47,-178.19 417.82,-163.95 433.28,-153.65"/>
<polygon fill="midnightblue" stroke="midnightblue" points="435.25,-156.54 441.63,-148.08 431.37,-150.71 435.25,-156.54"/>
</g>
<!-- Node13 -->
<g id="node13" class="node">
<title>Node13</title>
<g id="a_node13"><a xlink:title=" ">
<polygon fill="white" stroke="#bfbfbf" points="501.5,-129 501.5,-148 539.5,-148 539.5,-129 501.5,-129"/>
<text text-anchor="middle" x="520.5" y="-136" font-family="Helvetica,sans-Serif" font-size="10.00">map</text>
</a>
</g>
</g>
<!-- Node1&#45;&gt;Node13 -->
<g id="edge17" class="edge">
<title>Node1&#45;&gt;Node13</title>
<path fill="none" stroke="midnightblue" d="M406.16,-190.48C433.15,-179.8 464.57,-166.85 492.5,-154 493.49,-153.54 494.5,-153.07 495.52,-152.58"/>
<polygon fill="midnightblue" stroke="midnightblue" points="497.25,-155.63 504.64,-148.04 494.12,-149.37 497.25,-155.63"/>
</g>
<!-- Node3&#45;&gt;Node2 -->
<g id="edge4" class="edge">
<title>Node3&#45;&gt;Node2</title>
<path fill="none" stroke="midnightblue" d="M167.98,-123.4C148.77,-112.34 122.2,-97.06 103.2,-86.13"/>
<polygon fill="midnightblue" stroke="midnightblue" points="104.7,-82.96 94.29,-81.01 101.21,-89.03 104.7,-82.96"/>
</g>
<!-- Node4 -->
<g id="node4" class="node">
<title>Node4</title>
<g id="a_node4"><a xlink:title=" ">
<polygon fill="white" stroke="#bfbfbf" points="176.5,-62 176.5,-81 224.5,-81 224.5,-62 176.5,-62"/>
<text text-anchor="middle" x="200.5" y="-69" font-family="Helvetica,sans-Serif" font-size="10.00">mutex</text>
</a>
</g>
</g>
<!-- Node3&#45;&gt;Node4 -->
<g id="edge3" class="edge">
<title>Node3&#45;&gt;Node4</title>
<path fill="none" stroke="midnightblue" d="M194.24,-123.4C195.4,-113.96 196.94,-101.45 198.2,-91.19"/>
<polygon fill="midnightblue" stroke="midnightblue" points="201.68,-91.55 199.43,-81.19 194.73,-90.69 201.68,-91.55"/>
</g>
<!-- Node5 -->
<g id="node5" class="node">
<title>Node5</title>
<g id="a_node5"><a xlink:href="profile__interface_8hpp.html" target="_top" xlink:title=" ">
<polygon fill="white" stroke="black" points="242.5,-56.5 242.5,-86.5 362.5,-86.5 362.5,-56.5 242.5,-56.5"/>
<text text-anchor="start" x="250.5" y="-74.5" font-family="Helvetica,sans-Serif" font-size="10.00">../profile_interface</text>
<text text-anchor="middle" x="302.5" y="-63.5" font-family="Helvetica,sans-Serif" font-size="10.00">/profile_interface.hpp</text>
</a>
</g>
</g>
<!-- Node3&#45;&gt;Node5 -->
<g id="edge5" class="edge">
<title>Node3&#45;&gt;Node5</title>
<path fill="none" stroke="midnightblue" d="M216.37,-123.4C232.08,-114.11 252.85,-101.84 270.05,-91.67"/>
<polygon fill="midnightblue" stroke="midnightblue" points="271.85,-94.68 278.68,-86.58 268.29,-88.65 271.85,-94.68"/>
</g>
<!-- Node7 -->
<g id="node7" class="node">
<title>Node7</title>
<g id="a_node7"><a xlink:href="e2e__protection_2include_2buffer_2buffer_8hpp.html" target="_top" xlink:title=" ">
<polygon fill="white" stroke="black" points="380.5,-62 380.5,-81 504.5,-81 504.5,-62 380.5,-62"/>
<text text-anchor="middle" x="442.5" y="-69" font-family="Helvetica,sans-Serif" font-size="10.00">../../../buffer/buffer.hpp</text>
</a>
</g>
</g>
<!-- Node3&#45;&gt;Node7 -->
<g id="edge7" class="edge">
<title>Node3&#45;&gt;Node7</title>
<path fill="none" stroke="midnightblue" d="M246.44,-123.48C292.42,-111.52 357.61,-94.57 399.97,-83.56"/>
<polygon fill="midnightblue" stroke="midnightblue" points="400.9,-86.93 409.7,-81.03 399.14,-80.16 400.9,-86.93"/>
</g>
<!-- Node6 -->
<g id="node6" class="node">
<title>Node6</title>
<g id="a_node6"><a xlink:title=" ">
<polygon fill="white" stroke="#bfbfbf" points="277.5,-0.5 277.5,-19.5 327.5,-19.5 327.5,-0.5 277.5,-0.5"/>
<text text-anchor="middle" x="302.5" y="-7.5" font-family="Helvetica,sans-Serif" font-size="10.00">cstdint</text>
</a>
</g>
</g>
<!-- Node5&#45;&gt;Node6 -->
<g id="edge6" class="edge">
<title>Node5&#45;&gt;Node6</title>
<path fill="none" stroke="midnightblue" d="M302.5,-56.4C302.5,-48.47 302.5,-38.46 302.5,-29.86"/>
<polygon fill="midnightblue" stroke="midnightblue" points="306,-29.66 302.5,-19.66 299,-29.66 306,-29.66"/>
</g>
<!-- Node7&#45;&gt;Node6 -->
<g id="edge9" class="edge">
<title>Node7&#45;&gt;Node6</title>
<path fill="none" stroke="midnightblue" d="M422.44,-61.98C398.74,-51.9 359.09,-35.05 331.92,-23.5"/>
<polygon fill="midnightblue" stroke="midnightblue" points="333.09,-20.2 322.52,-19.51 330.36,-26.64 333.09,-20.2"/>
</g>
<!-- Node8 -->
<g id="node8" class="node">
<title>Node8</title>
<g id="a_node8"><a xlink:title=" ">
<polygon fill="white" stroke="#bfbfbf" points="346,-0.5 346,-19.5 411,-19.5 411,-0.5 346,-0.5"/>
<text text-anchor="middle" x="378.5" y="-7.5" font-family="Helvetica,sans-Serif" font-size="10.00">stdexcept</text>
</a>
</g>
</g>
<!-- Node7&#45;&gt;Node8 -->
<g id="edge8" class="edge">
<title>Node7&#45;&gt;Node8</title>
<path fill="none" stroke="midnightblue" d="M433.33,-61.98C423.35,-52.7 407.19,-37.67 394.99,-26.33"/>
<polygon fill="midnightblue" stroke="midnightblue" points="397.36,-23.75 387.65,-19.51 392.59,-28.88 397.36,-23.75"/>
</g>
<!-- Node9 -->
<g id="node9" class="node">
<title>Node9</title>
<g id="a_node9"><a xlink:title=" ">
<polygon fill="white" stroke="#bfbfbf" points="429,-0.5 429,-19.5 486,-19.5 486,-0.5 429,-0.5"/>
<text text-anchor="middle" x="457.5" y="-7.5" font-family="Helvetica,sans-Serif" font-size="10.00">ostream</text>
</a>
</g>
</g>
<!-- Node7&#45;&gt;Node9 -->
<g id="edge10" class="edge">
<title>Node7&#45;&gt;Node9</title>
<path fill="none" stroke="midnightblue" d="M444.65,-61.98C446.79,-53.49 450.14,-40.2 452.88,-29.32"/>
<polygon fill="midnightblue" stroke="midnightblue" points="456.3,-30.06 455.35,-19.51 449.52,-28.35 456.3,-30.06"/>
</g>
<!-- Node10 -->
<g id="node10" class="node">
<title>Node10</title>
<g id="a_node10"><a xlink:title=" ">
<polygon fill="white" stroke="#bfbfbf" points="504,-0.5 504,-19.5 551,-19.5 551,-0.5 504,-0.5"/>
<text text-anchor="middle" x="527.5" y="-7.5" font-family="Helvetica,sans-Serif" font-size="10.00">vector</text>
</a>
</g>
</g>
<!-- Node7&#45;&gt;Node10 -->
<g id="edge11" class="edge">
<title>Node7&#45;&gt;Node10</title>
<path fill="none" stroke="midnightblue" d="M454.68,-61.98C468.31,-52.43 490.63,-36.81 506.97,-25.37"/>
<polygon fill="midnightblue" stroke="midnightblue" points="509.16,-28.11 515.34,-19.51 505.14,-22.38 509.16,-28.11"/>
</g>
<!-- Node11&#45;&gt;Node2 -->
<g id="edge13" class="edge">
<title>Node11&#45;&gt;Node2</title>
<path fill="none" stroke="midnightblue" d="M284.19,-123.48C236.08,-111.5 167.84,-94.5 123.62,-83.49"/>
<polygon fill="midnightblue" stroke="midnightblue" points="124.3,-80.05 113.75,-81.03 122.6,-86.84 124.3,-80.05"/>
</g>
<!-- Node11&#45;&gt;Node5 -->
<g id="edge15" class="edge">
<title>Node11&#45;&gt;Node5</title>
<path fill="none" stroke="midnightblue" d="M332.25,-123.4C327.47,-115.22 321.34,-104.73 315.88,-95.39"/>
<polygon fill="midnightblue" stroke="midnightblue" points="318.8,-93.44 310.73,-86.58 312.75,-96.98 318.8,-93.44"/>
</g>
<!-- Node11&#45;&gt;Node7 -->
<g id="edge14" class="edge">
<title>Node11&#45;&gt;Node7</title>
<path fill="none" stroke="midnightblue" d="M362.63,-123.4C379.74,-112.5 403.3,-97.48 420.4,-86.58"/>
<polygon fill="midnightblue" stroke="midnightblue" points="422.6,-89.33 429.15,-81.01 418.84,-83.43 422.6,-89.33"/>
</g>
</g>
</svg>
