<?xml version="1.0" encoding="UTF-8" standalone="no"?>
<!DOCTYPE svg PUBLIC "-//W3C//DTD SVG 1.1//EN"
 "http://www.w3.org/Graphics/SVG/1.1/DTD/svg11.dtd">
<!-- Generated by graphviz version 2.43.0 (0)
 -->
<!-- Title: /home/kali/projects/vsomeip/implementation/configuration/include/configuration.hpp Pages: 1 -->
<svg width="2280pt" height="318pt"
 viewBox="0.00 0.00 2279.50 318.00" xmlns="http://www.w3.org/2000/svg" xmlns:xlink="http://www.w3.org/1999/xlink">
<g id="graph0" class="graph" transform="scale(1 1) rotate(0) translate(4 314)">
<title>/home/kali/projects/vsomeip/implementation/configuration/include/configuration.hpp</title>
<polygon fill="white" stroke="transparent" points="-4,4 -4,-314 2275.5,-314 2275.5,4 -4,4"/>
<!-- Node1 -->
<g id="node1" class="node">
<title>Node1</title>
<g id="a_node1"><a xlink:title=" ">
<polygon fill="#bfbfbf" stroke="black" points="848.5,-257.5 848.5,-309.5 991.5,-309.5 991.5,-257.5 848.5,-257.5"/>
<text text-anchor="start" x="856.5" y="-297.5" font-family="Helvetica,sans-Serif" font-size="10.00">/home/kali/projects</text>
<text text-anchor="start" x="856.5" y="-286.5" font-family="Helvetica,sans-Serif" font-size="10.00">/vsomeip/implementation</text>
<text text-anchor="start" x="856.5" y="-275.5" font-family="Helvetica,sans-Serif" font-size="10.00">/configuration/include</text>
<text text-anchor="middle" x="920" y="-264.5" font-family="Helvetica,sans-Serif" font-size="10.00">/configuration.hpp</text>
</a>
</g>
</g>
<!-- Node2 -->
<g id="node2" class="node">
<title>Node2</title>
<g id="a_node2"><a xlink:title=" ">
<polygon fill="white" stroke="#bfbfbf" points="448,-129 448,-148 486,-148 486,-129 448,-129"/>
<text text-anchor="middle" x="467" y="-136" font-family="Helvetica,sans-Serif" font-size="10.00">map</text>
</a>
</g>
</g>
<!-- Node1&#45;&gt;Node2 -->
<g id="edge1" class="edge">
<title>Node1&#45;&gt;Node2</title>
<path fill="none" stroke="midnightblue" d="M848.3,-282.74C736.3,-281.51 527.38,-272.19 477,-221 460.86,-204.6 461.1,-176.48 463.48,-157.94"/>
<polygon fill="midnightblue" stroke="midnightblue" points="466.93,-158.49 465.06,-148.06 460.02,-157.38 466.93,-158.49"/>
</g>
<!-- Node3 -->
<g id="node3" class="node">
<title>Node3</title>
<g id="a_node3"><a xlink:title=" ">
<polygon fill="white" stroke="#bfbfbf" points="0,-129 0,-148 58,-148 58,-129 0,-129"/>
<text text-anchor="middle" x="29" y="-136" font-family="Helvetica,sans-Serif" font-size="10.00">memory</text>
</a>
</g>
</g>
<!-- Node1&#45;&gt;Node3 -->
<g id="edge2" class="edge">
<title>Node1&#45;&gt;Node3</title>
<path fill="none" stroke="midnightblue" d="M848.38,-283.14C721.48,-282.74 449.64,-274.93 228,-221 162.9,-205.16 91.28,-171.48 54.27,-152.75"/>
<polygon fill="midnightblue" stroke="midnightblue" points="55.7,-149.55 45.21,-148.11 52.51,-155.78 55.7,-149.55"/>
</g>
<!-- Node4 -->
<g id="node4" class="node">
<title>Node4</title>
<g id="a_node4"><a xlink:title=" ">
<polygon fill="white" stroke="#bfbfbf" points="1812,-196 1812,-215 1844,-215 1844,-196 1812,-196"/>
<text text-anchor="middle" x="1828" y="-203" font-family="Helvetica,sans-Serif" font-size="10.00">set</text>
</a>
</g>
</g>
<!-- Node1&#45;&gt;Node4 -->
<g id="edge3" class="edge">
<title>Node1&#45;&gt;Node4</title>
<path fill="none" stroke="midnightblue" d="M991.64,-280.97C1172.95,-276.54 1646.37,-261.35 1798,-221 1799.93,-220.49 1801.88,-219.85 1803.82,-219.13"/>
<polygon fill="midnightblue" stroke="midnightblue" points="1805.41,-222.25 1813.17,-215.04 1802.61,-215.84 1805.41,-222.25"/>
</g>
<!-- Node5 -->
<g id="node5" class="node">
<title>Node5</title>
<g id="a_node5"><a xlink:title=" ">
<polygon fill="white" stroke="#bfbfbf" points="580,-129 580,-148 624,-148 624,-129 580,-129"/>
<text text-anchor="middle" x="602" y="-136" font-family="Helvetica,sans-Serif" font-size="10.00">string</text>
</a>
</g>
</g>
<!-- Node1&#45;&gt;Node5 -->
<g id="edge4" class="edge">
<title>Node1&#45;&gt;Node5</title>
<path fill="none" stroke="midnightblue" d="M848.19,-262.14C814.13,-251.5 773.27,-237.3 738,-221 695.08,-201.17 648.54,-171.26 622.55,-153.73"/>
<polygon fill="midnightblue" stroke="midnightblue" points="624.49,-150.81 614.25,-148.08 620.55,-156.6 624.49,-150.81"/>
</g>
<!-- Node6 -->
<g id="node6" class="node">
<title>Node6</title>
<g id="a_node6"><a xlink:title=" ">
<polygon fill="white" stroke="#bfbfbf" points="1473,-62 1473,-81 1523,-81 1523,-62 1473,-62"/>
<text text-anchor="middle" x="1498" y="-69" font-family="Helvetica,sans-Serif" font-size="10.00">chrono</text>
</a>
</g>
</g>
<!-- Node1&#45;&gt;Node6 -->
<g id="edge5" class="edge">
<title>Node1&#45;&gt;Node6</title>
<path fill="none" stroke="midnightblue" d="M991.61,-282.56C1171.37,-281.02 1634,-266.02 1727,-154 1735.8,-143.4 1735.63,-133.74 1727,-123 1714.89,-107.92 1594.6,-87.41 1533.39,-77.83"/>
<polygon fill="midnightblue" stroke="midnightblue" points="1533.81,-74.36 1523.39,-76.28 1532.74,-81.27 1533.81,-74.36"/>
</g>
<!-- Node7 -->
<g id="node7" class="node">
<title>Node7</title>
<g id="a_node7"><a xlink:title=" ">
<polygon fill="white" stroke="#bfbfbf" points="1862.5,-196 1862.5,-215 2003.5,-215 2003.5,-196 1862.5,-196"/>
<text text-anchor="middle" x="1933" y="-203" font-family="Helvetica,sans-Serif" font-size="10.00">boost/asio/ip/address.hpp</text>
</a>
</g>
</g>
<!-- Node1&#45;&gt;Node7 -->
<g id="edge6" class="edge">
<title>Node1&#45;&gt;Node7</title>
<path fill="none" stroke="midnightblue" d="M991.66,-280.55C1148.39,-275.67 1533.19,-260.39 1853,-221 1862.16,-219.87 1871.85,-218.37 1881.21,-216.77"/>
<polygon fill="midnightblue" stroke="midnightblue" points="1881.97,-220.19 1891.2,-215 1880.74,-213.3 1881.97,-220.19"/>
</g>
<!-- Node8 -->
<g id="node8" class="node">
<title>Node8</title>
<g id="a_node8"><a xlink:title=" ">
<polygon fill="white" stroke="#bfbfbf" points="1620,-123.5 1620,-153.5 1718,-153.5 1718,-123.5 1620,-123.5"/>
<text text-anchor="start" x="1628" y="-141.5" font-family="Helvetica,sans-Serif" font-size="10.00">boost/icl/interval</text>
<text text-anchor="middle" x="1669" y="-130.5" font-family="Helvetica,sans-Serif" font-size="10.00">_set.hpp</text>
</a>
</g>
</g>
<!-- Node1&#45;&gt;Node8 -->
<g id="edge7" class="edge">
<title>Node1&#45;&gt;Node8</title>
<path fill="none" stroke="midnightblue" d="M991.66,-270.66C1115.7,-249.84 1378.53,-204.29 1609.74,-154.21"/>
<polygon fill="midnightblue" stroke="midnightblue" points="1610.66,-157.59 1619.69,-152.05 1609.17,-150.75 1610.66,-157.59"/>
</g>
<!-- Node9 -->
<g id="node9" class="node">
<title>Node9</title>
<g id="a_node9"><a xlink:title=" ">
<polygon fill="white" stroke="#bfbfbf" points="1634,-62 1634,-81 1748,-81 1748,-62 1634,-62"/>
<text text-anchor="middle" x="1691" y="-69" font-family="Helvetica,sans-Serif" font-size="10.00">vsomeip/export.hpp</text>
</a>
</g>
</g>
<!-- Node1&#45;&gt;Node9 -->
<g id="edge8" class="edge">
<title>Node1&#45;&gt;Node9</title>
<path fill="none" stroke="midnightblue" d="M991.68,-281.65C1152.4,-278.91 1536.91,-267.55 1657,-221 1702.51,-203.36 1722.45,-197.79 1744,-154 1750.08,-141.64 1749.43,-135.66 1744,-123 1737.78,-108.48 1725.1,-96.15 1713.71,-87.31"/>
<polygon fill="midnightblue" stroke="midnightblue" points="1715.52,-84.3 1705.37,-81.25 1711.4,-89.96 1715.52,-84.3"/>
</g>
<!-- Node10 -->
<g id="node10" class="node">
<title>Node10</title>
<g id="a_node10"><a xlink:title=" ">
<polygon fill="white" stroke="#bfbfbf" points="2022,-196 2022,-215 2140,-215 2140,-196 2022,-196"/>
<text text-anchor="middle" x="2081" y="-203" font-family="Helvetica,sans-Serif" font-size="10.00">vsomeip/defines.hpp</text>
</a>
</g>
</g>
<!-- Node1&#45;&gt;Node10 -->
<g id="edge9" class="edge">
<title>Node1&#45;&gt;Node10</title>
<path fill="none" stroke="midnightblue" d="M991.65,-282.27C1166.81,-280.89 1630.36,-272.25 2013,-221 2020.49,-220 2028.38,-218.62 2036.03,-217.11"/>
<polygon fill="midnightblue" stroke="midnightblue" points="2036.8,-220.52 2045.89,-215.06 2035.38,-213.67 2036.8,-220.52"/>
</g>
<!-- Node11 -->
<g id="node11" class="node">
<title>Node11</title>
<g id="a_node11"><a xlink:title=" ">
<polygon fill="white" stroke="#bfbfbf" points="2158.5,-196 2158.5,-215 2271.5,-215 2271.5,-196 2158.5,-196"/>
<text text-anchor="middle" x="2215" y="-203" font-family="Helvetica,sans-Serif" font-size="10.00">vsomeip/plugin.hpp</text>
</a>
</g>
</g>
<!-- Node1&#45;&gt;Node11 -->
<g id="edge10" class="edge">
<title>Node1&#45;&gt;Node11</title>
<path fill="none" stroke="midnightblue" d="M991.72,-283.06C1181.52,-283.65 1712.28,-279.49 2149,-221 2156.27,-220.03 2163.94,-218.66 2171.36,-217.16"/>
<polygon fill="midnightblue" stroke="midnightblue" points="2172.23,-220.55 2181.28,-215.04 2170.77,-213.7 2172.23,-220.55"/>
</g>
<!-- Node12 -->
<g id="node12" class="node">
<title>Node12</title>
<g id="a_node12"><a xlink:title=" ">
<polygon fill="white" stroke="#bfbfbf" points="371.5,-62 371.5,-81 530.5,-81 530.5,-62 371.5,-62"/>
<text text-anchor="middle" x="451" y="-69" font-family="Helvetica,sans-Serif" font-size="10.00">vsomeip/primitive_types.hpp</text>
</a>
</g>
</g>
<!-- Node1&#45;&gt;Node12 -->
<g id="edge11" class="edge">
<title>Node1&#45;&gt;Node12</title>
<path fill="none" stroke="midnightblue" d="M848.48,-282.05C734.17,-279.86 517.31,-269.27 460,-221 422.54,-189.45 435.64,-123.15 444.95,-90.9"/>
<polygon fill="midnightblue" stroke="midnightblue" points="448.39,-91.61 447.99,-81.03 441.7,-89.55 448.39,-91.61"/>
</g>
<!-- Node13 -->
<g id="node13" class="node">
<title>Node13</title>
<g id="a_node13"><a xlink:href="implementation_2configuration_2include_2trace_8hpp.html" target="_top" xlink:title=" ">
<polygon fill="white" stroke="black" points="747,-196 747,-215 809,-215 809,-196 747,-196"/>
<text text-anchor="middle" x="778" y="-203" font-family="Helvetica,sans-Serif" font-size="10.00">trace.hpp</text>
</a>
</g>
</g>
<!-- Node1&#45;&gt;Node13 -->
<g id="edge12" class="edge">
<title>Node1&#45;&gt;Node13</title>
<path fill="none" stroke="midnightblue" d="M873.11,-257.4C849.75,-244.9 822.44,-230.29 803.09,-219.93"/>
<polygon fill="midnightblue" stroke="midnightblue" points="804.5,-216.71 794.03,-215.08 801.19,-222.88 804.5,-216.71"/>
</g>
<!-- Node16 -->
<g id="node16" class="node">
<title>Node16</title>
<g id="a_node16"><a xlink:href="config_8hpp.html" target="_top" xlink:title=" ">
<polygon fill="white" stroke="black" points="237.5,-190.5 237.5,-220.5 376.5,-220.5 376.5,-190.5 237.5,-190.5"/>
<text text-anchor="start" x="245.5" y="-208.5" font-family="Helvetica,sans-Serif" font-size="10.00">../../e2e_protection</text>
<text text-anchor="middle" x="307" y="-197.5" font-family="Helvetica,sans-Serif" font-size="10.00">/include/e2exf/config.hpp</text>
</a>
</g>
</g>
<!-- Node1&#45;&gt;Node16 -->
<g id="edge17" class="edge">
<title>Node1&#45;&gt;Node16</title>
<path fill="none" stroke="midnightblue" d="M848.41,-274.54C749.04,-263.35 563.69,-241.98 406,-221 399.78,-220.17 393.35,-219.29 386.89,-218.39"/>
<polygon fill="midnightblue" stroke="midnightblue" points="387.13,-214.89 376.74,-216.95 386.15,-221.82 387.13,-214.89"/>
</g>
<!-- Node25 -->
<g id="node25" class="node">
<title>Node25</title>
<g id="a_node25"><a xlink:href="e2e_8hpp.html" target="_top" xlink:title=" ">
<polygon fill="white" stroke="black" points="590,-196 590,-215 646,-215 646,-196 590,-196"/>
<text text-anchor="middle" x="618" y="-203" font-family="Helvetica,sans-Serif" font-size="10.00">e2e.hpp</text>
</a>
</g>
</g>
<!-- Node1&#45;&gt;Node25 -->
<g id="edge35" class="edge">
<title>Node1&#45;&gt;Node25</title>
<path fill="none" stroke="midnightblue" d="M848.43,-264.49C788.02,-249.29 703.89,-228.11 655.78,-216.01"/>
<polygon fill="midnightblue" stroke="midnightblue" points="656.63,-212.61 646.08,-213.57 654.92,-219.4 656.63,-212.61"/>
</g>
<!-- Node26 -->
<g id="node26" class="node">
<title>Node26</title>
<g id="a_node26"><a xlink:href="debounce_8hpp.html" target="_top" xlink:title=" ">
<polygon fill="white" stroke="black" points="486.5,-196 486.5,-215 571.5,-215 571.5,-196 486.5,-196"/>
<text text-anchor="middle" x="529" y="-203" font-family="Helvetica,sans-Serif" font-size="10.00">debounce.hpp</text>
</a>
</g>
</g>
<!-- Node1&#45;&gt;Node26 -->
<g id="edge40" class="edge">
<title>Node1&#45;&gt;Node26</title>
<path fill="none" stroke="midnightblue" d="M848.18,-271.45C779.29,-260.39 672.53,-242.02 581,-221 576.62,-219.99 572.05,-218.86 567.52,-217.67"/>
<polygon fill="midnightblue" stroke="midnightblue" points="568.33,-214.26 557.76,-215.03 566.5,-221.02 568.33,-214.26"/>
</g>
<!-- Node27 -->
<g id="node27" class="node">
<title>Node27</title>
<g id="a_node27"><a xlink:href="internal_8hpp.html" target="_top" xlink:title=" ">
<polygon fill="white" stroke="black" points="882.5,-129 882.5,-148 957.5,-148 957.5,-129 882.5,-129"/>
<text text-anchor="middle" x="920" y="-136" font-family="Helvetica,sans-Serif" font-size="10.00">internal.hpp</text>
</a>
</g>
</g>
<!-- Node1&#45;&gt;Node27 -->
<g id="edge42" class="edge">
<title>Node1&#45;&gt;Node27</title>
<path fill="none" stroke="midnightblue" d="M920,-257.26C920,-228.89 920,-183.5 920,-158.15"/>
<polygon fill="midnightblue" stroke="midnightblue" points="923.5,-158.05 920,-148.05 916.5,-158.05 923.5,-158.05"/>
</g>
<!-- Node30 -->
<g id="node30" class="node">
<title>Node30</title>
<g id="a_node30"><a xlink:href="policy_8hpp.html" target="_top" xlink:title=" ">
<polygon fill="white" stroke="black" points="1073,-190.5 1073,-220.5 1185,-220.5 1185,-190.5 1073,-190.5"/>
<text text-anchor="start" x="1081" y="-208.5" font-family="Helvetica,sans-Serif" font-size="10.00">../../security/include</text>
<text text-anchor="middle" x="1129" y="-197.5" font-family="Helvetica,sans-Serif" font-size="10.00">/policy.hpp</text>
</a>
</g>
</g>
<!-- Node1&#45;&gt;Node30 -->
<g id="edge47" class="edge">
<title>Node1&#45;&gt;Node30</title>
<path fill="none" stroke="midnightblue" d="M989.01,-257.4C1018.98,-246.51 1053.37,-234 1080.56,-224.11"/>
<polygon fill="midnightblue" stroke="midnightblue" points="1082.03,-227.3 1090.23,-220.6 1079.64,-220.73 1082.03,-227.3"/>
</g>
<!-- Node13&#45;&gt;Node5 -->
<g id="edge13" class="edge">
<title>Node13&#45;&gt;Node5</title>
<path fill="none" stroke="midnightblue" d="M750.7,-195.92C721.32,-186.47 673.37,-170.42 633,-154 631.62,-153.44 630.22,-152.85 628.81,-152.25"/>
<polygon fill="midnightblue" stroke="midnightblue" points="630.12,-149 619.57,-148.1 627.26,-155.38 630.12,-149"/>
</g>
<!-- Node13&#45;&gt;Node12 -->
<g id="edge15" class="edge">
<title>Node13&#45;&gt;Node12</title>
<path fill="none" stroke="midnightblue" d="M778.7,-195.85C779.53,-179.1 778.75,-142.2 758,-123 727.06,-94.37 619.74,-81.88 540.67,-76.49"/>
<polygon fill="midnightblue" stroke="midnightblue" points="540.89,-73 530.68,-75.84 540.43,-79.98 540.89,-73"/>
</g>
<!-- Node14 -->
<g id="node14" class="node">
<title>Node14</title>
<g id="a_node14"><a xlink:title=" ">
<polygon fill="white" stroke="#bfbfbf" points="624.5,-0.5 624.5,-19.5 671.5,-19.5 671.5,-0.5 624.5,-0.5"/>
<text text-anchor="middle" x="648" y="-7.5" font-family="Helvetica,sans-Serif" font-size="10.00">vector</text>
</a>
</g>
</g>
<!-- Node13&#45;&gt;Node14 -->
<g id="edge14" class="edge">
<title>Node13&#45;&gt;Node14</title>
<path fill="none" stroke="midnightblue" d="M780.58,-195.91C784.72,-180.48 791.3,-147.4 780,-123 758.39,-76.33 706.7,-42.01 674.79,-24.38"/>
<polygon fill="midnightblue" stroke="midnightblue" points="676.44,-21.29 665.97,-19.66 673.13,-27.46 676.44,-21.29"/>
</g>
<!-- Node15 -->
<g id="node15" class="node">
<title>Node15</title>
<g id="a_node15"><a xlink:title=" ">
<polygon fill="white" stroke="#bfbfbf" points="642.5,-129 642.5,-148 749.5,-148 749.5,-129 642.5,-129"/>
<text text-anchor="middle" x="696" y="-136" font-family="Helvetica,sans-Serif" font-size="10.00">vsomeip/trace.hpp</text>
</a>
</g>
</g>
<!-- Node13&#45;&gt;Node15 -->
<g id="edge16" class="edge">
<title>Node13&#45;&gt;Node15</title>
<path fill="none" stroke="midnightblue" d="M766.94,-195.73C753.66,-185.21 731.17,-167.38 715.07,-154.62"/>
<polygon fill="midnightblue" stroke="midnightblue" points="716.89,-151.6 706.88,-148.13 712.55,-157.08 716.89,-151.6"/>
</g>
<!-- Node16&#45;&gt;Node2 -->
<g id="edge34" class="edge">
<title>Node16&#45;&gt;Node2</title>
<path fill="none" stroke="midnightblue" d="M341.72,-190.4C370.69,-178.62 411.49,-162.05 438.56,-151.05"/>
<polygon fill="midnightblue" stroke="midnightblue" points="439.92,-154.28 447.87,-147.27 437.28,-147.79 439.92,-154.28"/>
</g>
<!-- Node16&#45;&gt;Node3 -->
<g id="edge33" class="edge">
<title>Node16&#45;&gt;Node3</title>
<path fill="none" stroke="midnightblue" d="M237.49,-192.86C189.18,-184.05 123.58,-170.63 67,-154 64.42,-153.24 61.77,-152.39 59.12,-151.49"/>
<polygon fill="midnightblue" stroke="midnightblue" points="60.3,-148.19 49.7,-148.08 57.92,-154.77 60.3,-148.19"/>
</g>
<!-- Node16&#45;&gt;Node12 -->
<g id="edge18" class="edge">
<title>Node16&#45;&gt;Node12</title>
<path fill="none" stroke="midnightblue" d="M322.74,-190.41C333.99,-180.31 349.47,-166.36 363,-154 387.83,-131.3 416.37,-104.79 434.05,-88.32"/>
<polygon fill="midnightblue" stroke="midnightblue" points="436.86,-90.49 441.79,-81.11 432.09,-85.37 436.86,-90.49"/>
</g>
<!-- Node17 -->
<g id="node17" class="node">
<title>Node17</title>
<g id="a_node17"><a xlink:href="profile__interface_2checker_8hpp.html" target="_top" xlink:title=" ">
<polygon fill="white" stroke="black" points="228,-123.5 228,-153.5 354,-153.5 354,-123.5 228,-123.5"/>
<text text-anchor="start" x="236" y="-141.5" font-family="Helvetica,sans-Serif" font-size="10.00">../e2e/profile/profile</text>
<text text-anchor="middle" x="291" y="-130.5" font-family="Helvetica,sans-Serif" font-size="10.00">_interface/checker.hpp</text>
</a>
</g>
</g>
<!-- Node16&#45;&gt;Node17 -->
<g id="edge19" class="edge">
<title>Node16&#45;&gt;Node17</title>
<path fill="none" stroke="midnightblue" d="M303.53,-190.4C301.6,-182.56 299.15,-172.6 296.92,-163.57"/>
<polygon fill="midnightblue" stroke="midnightblue" points="300.25,-162.45 294.46,-153.58 293.46,-164.12 300.25,-162.45"/>
</g>
<!-- Node24 -->
<g id="node24" class="node">
<title>Node24</title>
<g id="a_node24"><a xlink:href="profile__interface_2protector_8hpp.html" target="_top" xlink:title=" ">
<polygon fill="white" stroke="black" points="76.5,-123.5 76.5,-153.5 209.5,-153.5 209.5,-123.5 76.5,-123.5"/>
<text text-anchor="start" x="84.5" y="-141.5" font-family="Helvetica,sans-Serif" font-size="10.00">../e2e/profile/profile</text>
<text text-anchor="middle" x="143" y="-130.5" font-family="Helvetica,sans-Serif" font-size="10.00">_interface/protector.hpp</text>
</a>
</g>
</g>
<!-- Node16&#45;&gt;Node24 -->
<g id="edge29" class="edge">
<title>Node16&#45;&gt;Node24</title>
<path fill="none" stroke="midnightblue" d="M271.41,-190.4C246.91,-180.69 214.17,-167.71 187.88,-157.29"/>
<polygon fill="midnightblue" stroke="midnightblue" points="189.1,-154.01 178.52,-153.58 186.52,-160.51 189.1,-154.01"/>
</g>
<!-- Node17&#45;&gt;Node12 -->
<g id="edge21" class="edge">
<title>Node17&#45;&gt;Node12</title>
<path fill="none" stroke="midnightblue" d="M325.72,-123.4C354.04,-111.89 393.65,-95.8 420.71,-84.81"/>
<polygon fill="midnightblue" stroke="midnightblue" points="422.11,-88.01 430.06,-81.01 419.48,-81.53 422.11,-88.01"/>
</g>
<!-- Node18 -->
<g id="node18" class="node">
<title>Node18</title>
<g id="a_node18"><a xlink:title=" ">
<polygon fill="white" stroke="#bfbfbf" points="948,-62 948,-81 996,-81 996,-62 948,-62"/>
<text text-anchor="middle" x="972" y="-69" font-family="Helvetica,sans-Serif" font-size="10.00">mutex</text>
</a>
</g>
</g>
<!-- Node17&#45;&gt;Node18 -->
<g id="edge20" class="edge">
<title>Node17&#45;&gt;Node18</title>
<path fill="none" stroke="midnightblue" d="M354.35,-131.01C380.54,-128.4 411.22,-125.44 439,-123 644.16,-104.96 697.05,-115.66 901,-87 913.14,-85.29 926.33,-82.79 938,-80.33"/>
<polygon fill="midnightblue" stroke="midnightblue" points="938.78,-83.75 947.81,-78.21 937.3,-76.9 938.78,-83.75"/>
</g>
<!-- Node19 -->
<g id="node19" class="node">
<title>Node19</title>
<g id="a_node19"><a xlink:href="profile__interface_8hpp.html" target="_top" xlink:title=" ">
<polygon fill="white" stroke="black" points="91,-56.5 91,-86.5 211,-86.5 211,-56.5 91,-56.5"/>
<text text-anchor="start" x="99" y="-74.5" font-family="Helvetica,sans-Serif" font-size="10.00">../profile_interface</text>
<text text-anchor="middle" x="151" y="-63.5" font-family="Helvetica,sans-Serif" font-size="10.00">/profile_interface.hpp</text>
</a>
</g>
</g>
<!-- Node17&#45;&gt;Node19 -->
<g id="edge22" class="edge">
<title>Node17&#45;&gt;Node19</title>
<path fill="none" stroke="midnightblue" d="M260.62,-123.4C240.07,-113.86 212.74,-101.16 190.5,-90.84"/>
<polygon fill="midnightblue" stroke="midnightblue" points="191.86,-87.61 181.32,-86.58 188.91,-93.96 191.86,-87.61"/>
</g>
<!-- Node21 -->
<g id="node21" class="node">
<title>Node21</title>
<g id="a_node21"><a xlink:href="e2e__protection_2include_2buffer_2buffer_8hpp.html" target="_top" xlink:title=" ">
<polygon fill="white" stroke="black" points="229,-62 229,-81 353,-81 353,-62 229,-62"/>
<text text-anchor="middle" x="291" y="-69" font-family="Helvetica,sans-Serif" font-size="10.00">../../../buffer/buffer.hpp</text>
</a>
</g>
</g>
<!-- Node17&#45;&gt;Node21 -->
<g id="edge24" class="edge">
<title>Node17&#45;&gt;Node21</title>
<path fill="none" stroke="midnightblue" d="M291,-123.4C291,-114.06 291,-101.71 291,-91.52"/>
<polygon fill="midnightblue" stroke="midnightblue" points="294.5,-91.19 291,-81.19 287.5,-91.19 294.5,-91.19"/>
</g>
<!-- Node20 -->
<g id="node20" class="node">
<title>Node20</title>
<g id="a_node20"><a xlink:title=" ">
<polygon fill="white" stroke="#bfbfbf" points="494,-0.5 494,-19.5 544,-19.5 544,-0.5 494,-0.5"/>
<text text-anchor="middle" x="519" y="-7.5" font-family="Helvetica,sans-Serif" font-size="10.00">cstdint</text>
</a>
</g>
</g>
<!-- Node19&#45;&gt;Node20 -->
<g id="edge23" class="edge">
<title>Node19&#45;&gt;Node20</title>
<path fill="none" stroke="midnightblue" d="M211.17,-57.64C214.15,-57.07 217.11,-56.52 220,-56 314.88,-38.9 427.52,-23.18 483.6,-15.65"/>
<polygon fill="midnightblue" stroke="midnightblue" points="484.27,-19.1 493.72,-14.3 483.34,-12.16 484.27,-19.1"/>
</g>
<!-- Node21&#45;&gt;Node14 -->
<g id="edge28" class="edge">
<title>Node21&#45;&gt;Node14</title>
<path fill="none" stroke="midnightblue" d="M331.12,-61.98C341.18,-59.93 351.97,-57.81 362,-56 452.89,-39.58 560.65,-23.55 614.24,-15.81"/>
<polygon fill="midnightblue" stroke="midnightblue" points="614.81,-19.26 624.21,-14.37 613.81,-12.33 614.81,-19.26"/>
</g>
<!-- Node21&#45;&gt;Node20 -->
<g id="edge26" class="edge">
<title>Node21&#45;&gt;Node20</title>
<path fill="none" stroke="midnightblue" d="M323.67,-61.98C366.19,-50.88 440.2,-31.56 483.89,-20.16"/>
<polygon fill="midnightblue" stroke="midnightblue" points="484.99,-23.49 493.78,-17.58 483.22,-16.72 484.99,-23.49"/>
</g>
<!-- Node22 -->
<g id="node22" class="node">
<title>Node22</title>
<g id="a_node22"><a xlink:title=" ">
<polygon fill="white" stroke="#bfbfbf" points="258.5,-0.5 258.5,-19.5 323.5,-19.5 323.5,-0.5 258.5,-0.5"/>
<text text-anchor="middle" x="291" y="-7.5" font-family="Helvetica,sans-Serif" font-size="10.00">stdexcept</text>
</a>
</g>
</g>
<!-- Node21&#45;&gt;Node22 -->
<g id="edge25" class="edge">
<title>Node21&#45;&gt;Node22</title>
<path fill="none" stroke="midnightblue" d="M291,-61.98C291,-53.58 291,-40.48 291,-29.66"/>
<polygon fill="midnightblue" stroke="midnightblue" points="294.5,-29.51 291,-19.51 287.5,-29.51 294.5,-29.51"/>
</g>
<!-- Node23 -->
<g id="node23" class="node">
<title>Node23</title>
<g id="a_node23"><a xlink:title=" ">
<polygon fill="white" stroke="#bfbfbf" points="925.5,-0.5 925.5,-19.5 982.5,-19.5 982.5,-0.5 925.5,-0.5"/>
<text text-anchor="middle" x="954" y="-7.5" font-family="Helvetica,sans-Serif" font-size="10.00">ostream</text>
</a>
</g>
</g>
<!-- Node21&#45;&gt;Node23 -->
<g id="edge27" class="edge">
<title>Node21&#45;&gt;Node23</title>
<path fill="none" stroke="midnightblue" d="M328.43,-61.94C339.22,-59.72 351.04,-57.53 362,-56 569.37,-27.06 820.39,-15.71 915.22,-12.26"/>
<polygon fill="midnightblue" stroke="midnightblue" points="915.35,-15.76 925.22,-11.91 915.1,-8.76 915.35,-15.76"/>
</g>
<!-- Node24&#45;&gt;Node12 -->
<g id="edge30" class="edge">
<title>Node24&#45;&gt;Node12</title>
<path fill="none" stroke="midnightblue" d="M209.45,-123.48C266.82,-111.37 348.45,-94.14 400.57,-83.14"/>
<polygon fill="midnightblue" stroke="midnightblue" points="401.53,-86.52 410.59,-81.03 400.08,-79.67 401.53,-86.52"/>
</g>
<!-- Node24&#45;&gt;Node19 -->
<g id="edge32" class="edge">
<title>Node24&#45;&gt;Node19</title>
<path fill="none" stroke="midnightblue" d="M144.74,-123.4C145.7,-115.56 146.93,-105.6 148.04,-96.57"/>
<polygon fill="midnightblue" stroke="midnightblue" points="151.52,-96.93 149.27,-86.58 144.57,-96.07 151.52,-96.93"/>
</g>
<!-- Node24&#45;&gt;Node21 -->
<g id="edge31" class="edge">
<title>Node24&#45;&gt;Node21</title>
<path fill="none" stroke="midnightblue" d="M175.11,-123.4C201.08,-111.99 237.31,-96.08 262.32,-85.1"/>
<polygon fill="midnightblue" stroke="midnightblue" points="263.88,-88.23 271.63,-81.01 261.07,-81.82 263.88,-88.23"/>
</g>
<!-- Node25&#45;&gt;Node2 -->
<g id="edge36" class="edge">
<title>Node25&#45;&gt;Node2</title>
<path fill="none" stroke="midnightblue" d="M597.93,-195.98C574.43,-185.99 534.35,-168.89 500,-154 498.6,-153.39 497.17,-152.77 495.72,-152.14"/>
<polygon fill="midnightblue" stroke="midnightblue" points="496.75,-148.77 486.18,-147.97 493.94,-155.18 496.75,-148.77"/>
</g>
<!-- Node25&#45;&gt;Node5 -->
<g id="edge37" class="edge">
<title>Node25&#45;&gt;Node5</title>
<path fill="none" stroke="midnightblue" d="M615.84,-195.73C613.47,-186.09 609.58,-170.3 606.53,-157.91"/>
<polygon fill="midnightblue" stroke="midnightblue" points="609.91,-157 604.12,-148.13 603.12,-158.67 609.91,-157"/>
</g>
<!-- Node25&#45;&gt;Node12 -->
<g id="edge39" class="edge">
<title>Node25&#45;&gt;Node12</title>
<path fill="none" stroke="midnightblue" d="M602.38,-195.83C585.82,-186.37 559.18,-170.37 538,-154 511.26,-133.34 483.24,-105.88 466.45,-88.7"/>
<polygon fill="midnightblue" stroke="midnightblue" points="468.63,-85.92 459.16,-81.16 463.6,-90.78 468.63,-85.92"/>
</g>
<!-- Node25&#45;&gt;Node14 -->
<g id="edge38" class="edge">
<title>Node25&#45;&gt;Node14</title>
<path fill="none" stroke="midnightblue" d="M605.66,-195.71C594.21,-186.72 577.93,-171.61 571,-154 565.96,-141.18 566.91,-136.16 571,-123 583,-84.38 613.44,-47.27 632.26,-26.96"/>
<polygon fill="midnightblue" stroke="midnightblue" points="634.94,-29.22 639.29,-19.56 629.86,-24.4 634.94,-29.22"/>
</g>
<!-- Node26&#45;&gt;Node2 -->
<g id="edge41" class="edge">
<title>Node26&#45;&gt;Node2</title>
<path fill="none" stroke="midnightblue" d="M520.64,-195.73C510.88,-185.5 494.53,-168.36 482.45,-155.69"/>
<polygon fill="midnightblue" stroke="midnightblue" points="484.66,-152.95 475.23,-148.13 479.6,-157.78 484.66,-152.95"/>
</g>
<!-- Node27&#45;&gt;Node12 -->
<g id="edge45" class="edge">
<title>Node27&#45;&gt;Node12</title>
<path fill="none" stroke="midnightblue" d="M892.39,-128.96C884.56,-126.77 876,-124.59 868,-123 756.31,-100.8 625.73,-86.89 540.85,-79.42"/>
<polygon fill="midnightblue" stroke="midnightblue" points="541,-75.92 530.73,-78.54 540.39,-82.9 541,-75.92"/>
</g>
<!-- Node27&#45;&gt;Node20 -->
<g id="edge43" class="edge">
<title>Node27&#45;&gt;Node20</title>
<path fill="none" stroke="midnightblue" d="M920.89,-128.78C922.09,-111.9 922.01,-74.79 901,-56 894.54,-50.23 647.58,-24.25 554.24,-14.61"/>
<polygon fill="midnightblue" stroke="midnightblue" points="554.46,-11.12 544.15,-13.57 553.74,-18.08 554.46,-11.12"/>
</g>
<!-- Node28 -->
<g id="node28" class="node">
<title>Node28</title>
<g id="a_node28"><a xlink:title=" ">
<polygon fill="white" stroke="#bfbfbf" points="766,-62 766,-81 810,-81 810,-62 766,-62"/>
<text text-anchor="middle" x="788" y="-69" font-family="Helvetica,sans-Serif" font-size="10.00">limits</text>
</a>
</g>
</g>
<!-- Node27&#45;&gt;Node28 -->
<g id="edge44" class="edge">
<title>Node27&#45;&gt;Node28</title>
<path fill="none" stroke="midnightblue" d="M902.47,-128.87C879.99,-117.8 840.77,-98.49 814.6,-85.6"/>
<polygon fill="midnightblue" stroke="midnightblue" points="816.12,-82.44 805.6,-81.17 813.03,-88.72 816.12,-82.44"/>
</g>
<!-- Node29 -->
<g id="node29" class="node">
<title>Node29</title>
<g id="a_node29"><a xlink:title=" ">
<polygon fill="white" stroke="#bfbfbf" points="828.5,-62 828.5,-81 891.5,-81 891.5,-62 828.5,-62"/>
<text text-anchor="middle" x="860" y="-69" font-family="Helvetica,sans-Serif" font-size="10.00">pthread.h</text>
</a>
</g>
</g>
<!-- Node27&#45;&gt;Node29 -->
<g id="edge46" class="edge">
<title>Node27&#45;&gt;Node29</title>
<path fill="none" stroke="midnightblue" d="M911.91,-128.73C902.46,-118.5 886.64,-101.36 874.95,-88.69"/>
<polygon fill="midnightblue" stroke="midnightblue" points="877.32,-86.1 867.96,-81.13 872.17,-90.85 877.32,-86.1"/>
</g>
<!-- Node30&#45;&gt;Node2 -->
<g id="edge49" class="edge">
<title>Node30&#45;&gt;Node2</title>
<path fill="none" stroke="midnightblue" d="M1072.67,-200.31C971.89,-192.6 754.12,-175.04 571,-154 545.71,-151.09 517.06,-147.04 496.24,-143.96"/>
<polygon fill="midnightblue" stroke="midnightblue" points="496.54,-140.47 486.13,-142.45 495.51,-147.39 496.54,-140.47"/>
</g>
<!-- Node30&#45;&gt;Node8 -->
<g id="edge54" class="edge">
<title>Node30&#45;&gt;Node8</title>
<path fill="none" stroke="midnightblue" d="M1185.02,-201.2C1273.4,-195.42 1450.66,-181.56 1609.77,-154.06"/>
<polygon fill="midnightblue" stroke="midnightblue" points="1610.49,-157.49 1619.74,-152.32 1609.29,-150.59 1610.49,-157.49"/>
</g>
<!-- Node30&#45;&gt;Node12 -->
<g id="edge56" class="edge">
<title>Node30&#45;&gt;Node12</title>
<path fill="none" stroke="midnightblue" d="M1072.84,-195.42C1020.86,-186.54 941.65,-171.78 874,-154 831.45,-142.82 822.78,-133.26 780,-123 700.09,-103.83 607.45,-90.38 540.87,-82.2"/>
<polygon fill="midnightblue" stroke="midnightblue" points="541.17,-78.71 530.83,-80.99 540.33,-85.66 541.17,-78.71"/>
</g>
<!-- Node30&#45;&gt;Node14 -->
<g id="edge52" class="edge">
<title>Node30&#45;&gt;Node14</title>
<path fill="none" stroke="midnightblue" d="M1094.27,-190.36C1077.21,-181.94 1057.49,-169.8 1044,-154 1013.56,-118.35 1042.07,-84.69 1005,-56 955.05,-17.33 761.22,-11.68 682.01,-11"/>
<polygon fill="midnightblue" stroke="midnightblue" points="681.65,-7.5 671.62,-10.94 681.6,-14.5 681.65,-7.5"/>
</g>
<!-- Node30&#45;&gt;Node18 -->
<g id="edge50" class="edge">
<title>Node30&#45;&gt;Node18</title>
<path fill="none" stroke="midnightblue" d="M1073.76,-190.48C1051.78,-182.67 1027.6,-170.99 1010,-154 992.06,-136.68 981.71,-109.24 976.47,-91.05"/>
<polygon fill="midnightblue" stroke="midnightblue" points="979.84,-90.1 973.89,-81.33 973.07,-91.89 979.84,-90.1"/>
</g>
<!-- Node31 -->
<g id="node31" class="node">
<title>Node31</title>
<g id="a_node31"><a xlink:title=" ">
<polygon fill="white" stroke="#bfbfbf" points="1224,-129 1224,-148 1274,-148 1274,-129 1224,-129"/>
<text text-anchor="middle" x="1249" y="-136" font-family="Helvetica,sans-Serif" font-size="10.00">cstring</text>
</a>
</g>
</g>
<!-- Node30&#45;&gt;Node31 -->
<g id="edge48" class="edge">
<title>Node30&#45;&gt;Node31</title>
<path fill="none" stroke="midnightblue" d="M1155.04,-190.4C1175.63,-179.24 1204.17,-163.78 1224.38,-152.83"/>
<polygon fill="midnightblue" stroke="midnightblue" points="1226.17,-155.85 1233.29,-148.01 1222.83,-149.69 1226.17,-155.85"/>
</g>
<!-- Node32 -->
<g id="node32" class="node">
<title>Node32</title>
<g id="a_node32"><a xlink:title=" ">
<polygon fill="white" stroke="#bfbfbf" points="1292.5,-129 1292.5,-148 1337.5,-148 1337.5,-129 1292.5,-129"/>
<text text-anchor="middle" x="1315" y="-136" font-family="Helvetica,sans-Serif" font-size="10.00">utility</text>
</a>
</g>
</g>
<!-- Node30&#45;&gt;Node32 -->
<g id="edge51" class="edge">
<title>Node30&#45;&gt;Node32</title>
<path fill="none" stroke="midnightblue" d="M1176.31,-190.45C1207.01,-180.97 1247.73,-167.73 1283,-154 1284.42,-153.45 1285.87,-152.86 1287.33,-152.26"/>
<polygon fill="midnightblue" stroke="midnightblue" points="1289.08,-155.31 1296.87,-148.13 1286.3,-148.89 1289.08,-155.31"/>
</g>
<!-- Node33 -->
<g id="node33" class="node">
<title>Node33</title>
<g id="a_node33"><a xlink:title=" ">
<polygon fill="white" stroke="#bfbfbf" points="1356,-123.5 1356,-153.5 1454,-153.5 1454,-123.5 1356,-123.5"/>
<text text-anchor="start" x="1364" y="-141.5" font-family="Helvetica,sans-Serif" font-size="10.00">boost/icl/interval</text>
<text text-anchor="middle" x="1405" y="-130.5" font-family="Helvetica,sans-Serif" font-size="10.00">_map.hpp</text>
</a>
</g>
</g>
<!-- Node30&#45;&gt;Node33 -->
<g id="edge53" class="edge">
<title>Node30&#45;&gt;Node33</title>
<path fill="none" stroke="midnightblue" d="M1185.07,-191.79C1226.9,-182.25 1285.7,-168.7 1346.24,-154.16"/>
<polygon fill="midnightblue" stroke="midnightblue" points="1347.06,-157.56 1355.97,-151.82 1345.43,-150.76 1347.06,-157.56"/>
</g>
<!-- Node34 -->
<g id="node34" class="node">
<title>Node34</title>
<g id="a_node34"><a xlink:title=" ">
<polygon fill="white" stroke="#bfbfbf" points="1472,-129 1472,-148 1602,-148 1602,-129 1472,-129"/>
<text text-anchor="middle" x="1537" y="-136" font-family="Helvetica,sans-Serif" font-size="10.00">vsomeip/constants.hpp</text>
</a>
</g>
</g>
<!-- Node30&#45;&gt;Node34 -->
<g id="edge55" class="edge">
<title>Node30&#45;&gt;Node34</title>
<path fill="none" stroke="midnightblue" d="M1185.26,-196.75C1251.74,-187.42 1365.64,-170.89 1463,-154 1470.18,-152.75 1477.74,-151.36 1485.18,-149.95"/>
<polygon fill="midnightblue" stroke="midnightblue" points="1486.03,-153.35 1495.18,-148.02 1484.7,-146.48 1486.03,-153.35"/>
</g>
<!-- Node35 -->
<g id="node35" class="node">
<title>Node35</title>
<g id="a_node35"><a xlink:href="logger_8hpp.html" target="_top" xlink:title=" ">
<polygon fill="white" stroke="black" points="1052.5,-129 1052.5,-148 1205.5,-148 1205.5,-129 1052.5,-129"/>
<text text-anchor="middle" x="1129" y="-136" font-family="Helvetica,sans-Serif" font-size="10.00">vsomeip/internal/logger.hpp</text>
</a>
</g>
</g>
<!-- Node30&#45;&gt;Node35 -->
<g id="edge57" class="edge">
<title>Node30&#45;&gt;Node35</title>
<path fill="none" stroke="midnightblue" d="M1129,-190.4C1129,-181.06 1129,-168.71 1129,-158.52"/>
<polygon fill="midnightblue" stroke="midnightblue" points="1132.5,-158.19 1129,-148.19 1125.5,-158.19 1132.5,-158.19"/>
</g>
<!-- Node35&#45;&gt;Node6 -->
<g id="edge58" class="edge">
<title>Node35&#45;&gt;Node6</title>
<path fill="none" stroke="midnightblue" d="M1177.62,-128.94C1253.04,-115.65 1396.44,-90.39 1462.75,-78.71"/>
<polygon fill="midnightblue" stroke="midnightblue" points="1463.47,-82.14 1472.71,-76.96 1462.25,-75.24 1463.47,-82.14"/>
</g>
<!-- Node35&#45;&gt;Node9 -->
<g id="edge64" class="edge">
<title>Node35&#45;&gt;Node9</title>
<path fill="none" stroke="midnightblue" d="M1176.68,-128.92C1189.13,-126.83 1202.55,-124.71 1215,-123 1292.24,-112.4 1511.99,-90.21 1623.83,-79.11"/>
<polygon fill="midnightblue" stroke="midnightblue" points="1624.38,-82.58 1633.98,-78.11 1623.69,-75.61 1624.38,-82.58"/>
</g>
<!-- Node35&#45;&gt;Node18 -->
<g id="edge60" class="edge">
<title>Node35&#45;&gt;Node18</title>
<path fill="none" stroke="midnightblue" d="M1108.15,-128.87C1081.06,-117.65 1033.54,-97.98 1002.42,-85.09"/>
<polygon fill="midnightblue" stroke="midnightblue" points="1003.51,-81.76 992.93,-81.17 1000.84,-88.23 1003.51,-81.76"/>
</g>
<!-- Node35&#45;&gt;Node20 -->
<g id="edge59" class="edge">
<title>Node35&#45;&gt;Node20</title>
<path fill="none" stroke="midnightblue" d="M1119.61,-128.92C1100.03,-111.59 1052.66,-72.68 1005,-56 840.71,1.52 788.32,-36.12 615,-20 594.94,-18.13 572.52,-16.03 554.39,-14.33"/>
<polygon fill="midnightblue" stroke="midnightblue" points="554.55,-10.83 544.26,-13.38 553.89,-17.8 554.55,-10.83"/>
</g>
<!-- Node35&#45;&gt;Node23 -->
<g id="edge61" class="edge">
<title>Node35&#45;&gt;Node23</title>
<path fill="none" stroke="midnightblue" d="M1125.47,-128.56C1118.47,-111.95 1101.32,-76.22 1076,-56 1051.7,-36.6 1018.24,-25.05 992.51,-18.52"/>
<polygon fill="midnightblue" stroke="midnightblue" points="993.25,-15.1 982.71,-16.18 991.62,-21.9 993.25,-15.1"/>
</g>
<!-- Node36 -->
<g id="node36" class="node">
<title>Node36</title>
<g id="a_node36"><a xlink:title=" ">
<polygon fill="white" stroke="#bfbfbf" points="1128,-62 1128,-81 1184,-81 1184,-62 1128,-62"/>
<text text-anchor="middle" x="1156" y="-69" font-family="Helvetica,sans-Serif" font-size="10.00">sstream</text>
</a>
</g>
</g>
<!-- Node35&#45;&gt;Node36 -->
<g id="edge62" class="edge">
<title>Node35&#45;&gt;Node36</title>
<path fill="none" stroke="midnightblue" d="M1132.64,-128.73C1136.69,-118.99 1143.34,-102.98 1148.51,-90.53"/>
<polygon fill="midnightblue" stroke="midnightblue" points="1151.81,-91.7 1152.42,-81.13 1145.35,-89.02 1151.81,-91.7"/>
</g>
<!-- Node37 -->
<g id="node37" class="node">
<title>Node37</title>
<g id="a_node37"><a xlink:title=" ">
<polygon fill="white" stroke="#bfbfbf" points="1202.5,-62 1202.5,-81 1269.5,-81 1269.5,-62 1202.5,-62"/>
<text text-anchor="middle" x="1236" y="-69" font-family="Helvetica,sans-Serif" font-size="10.00">streambuf</text>
</a>
</g>
</g>
<!-- Node35&#45;&gt;Node37 -->
<g id="edge63" class="edge">
<title>Node35&#45;&gt;Node37</title>
<path fill="none" stroke="midnightblue" d="M1143.43,-128.73C1161.32,-117.87 1192.02,-99.22 1213.13,-86.39"/>
<polygon fill="midnightblue" stroke="midnightblue" points="1215.07,-89.31 1221.8,-81.13 1211.43,-83.33 1215.07,-89.31"/>
</g>
</g>
</svg>
