<?xml version="1.0" encoding="UTF-8" standalone="no"?>
<!DOCTYPE svg PUBLIC "-//W3C//DTD SVG 1.1//EN"
 "http://www.w3.org/Graphics/SVG/1.1/DTD/svg11.dtd">
<!-- Generated by graphviz version 2.43.0 (0)
 -->
<!-- Title: /home/kali/projects/vsomeip/implementation/service_discovery/include/configuration_option_impl.hpp Pages: 1 -->
<svg width="536pt" height="229pt"
 viewBox="0.00 0.00 535.50 229.00" xmlns="http://www.w3.org/2000/svg" xmlns:xlink="http://www.w3.org/1999/xlink">
<g id="graph0" class="graph" transform="scale(1 1) rotate(0) translate(4 225)">
<title>/home/kali/projects/vsomeip/implementation/service_discovery/include/configuration_option_impl.hpp</title>
<polygon fill="white" stroke="transparent" points="-4,4 -4,-225 531.5,-225 531.5,4 -4,4"/>
<!-- Node1 -->
<g id="node1" class="node">
<title>Node1</title>
<g id="a_node1"><a xlink:title=" ">
<polygon fill="#bfbfbf" stroke="black" points="26.5,-168.5 26.5,-220.5 193.5,-220.5 193.5,-168.5 26.5,-168.5"/>
<text text-anchor="start" x="34.5" y="-208.5" font-family="Helvetica,sans-Serif" font-size="10.00">/home/kali/projects</text>
<text text-anchor="start" x="34.5" y="-197.5" font-family="Helvetica,sans-Serif" font-size="10.00">/vsomeip/implementation</text>
<text text-anchor="start" x="34.5" y="-186.5" font-family="Helvetica,sans-Serif" font-size="10.00">/service_discovery/include</text>
<text text-anchor="middle" x="110" y="-175.5" font-family="Helvetica,sans-Serif" font-size="10.00">/configuration_option_impl.hpp</text>
</a>
</g>
</g>
<!-- Node2 -->
<g id="node2" class="node">
<title>Node2</title>
<g id="a_node2"><a xlink:title=" ">
<polygon fill="white" stroke="#bfbfbf" points="0,-112.5 0,-131.5 38,-131.5 38,-112.5 0,-112.5"/>
<text text-anchor="middle" x="19" y="-119.5" font-family="Helvetica,sans-Serif" font-size="10.00">map</text>
</a>
</g>
</g>
<!-- Node1&#45;&gt;Node2 -->
<g id="edge1" class="edge">
<title>Node1&#45;&gt;Node2</title>
<path fill="none" stroke="midnightblue" d="M77.66,-168.45C64.47,-158.23 49.67,-146.76 38.23,-137.9"/>
<polygon fill="midnightblue" stroke="midnightblue" points="40.27,-135.05 30.22,-131.7 35.99,-140.59 40.27,-135.05"/>
</g>
<!-- Node3 -->
<g id="node3" class="node">
<title>Node3</title>
<g id="a_node3"><a xlink:title=" ">
<polygon fill="white" stroke="#bfbfbf" points="56,-112.5 56,-131.5 100,-131.5 100,-112.5 56,-112.5"/>
<text text-anchor="middle" x="78" y="-119.5" font-family="Helvetica,sans-Serif" font-size="10.00">string</text>
</a>
</g>
</g>
<!-- Node1&#45;&gt;Node3 -->
<g id="edge2" class="edge">
<title>Node1&#45;&gt;Node3</title>
<path fill="none" stroke="midnightblue" d="M98.63,-168.45C94.49,-159.33 89.9,-149.22 86.1,-140.85"/>
<polygon fill="midnightblue" stroke="midnightblue" points="89.27,-139.35 81.95,-131.7 82.89,-142.25 89.27,-139.35"/>
</g>
<!-- Node4 -->
<g id="node4" class="node">
<title>Node4</title>
<g id="a_node4"><a xlink:title=" ">
<polygon fill="white" stroke="#bfbfbf" points="118.5,-112.5 118.5,-131.5 165.5,-131.5 165.5,-112.5 118.5,-112.5"/>
<text text-anchor="middle" x="142" y="-119.5" font-family="Helvetica,sans-Serif" font-size="10.00">vector</text>
</a>
</g>
</g>
<!-- Node1&#45;&gt;Node4 -->
<g id="edge3" class="edge">
<title>Node1&#45;&gt;Node4</title>
<path fill="none" stroke="midnightblue" d="M121.37,-168.45C125.51,-159.33 130.1,-149.22 133.9,-140.85"/>
<polygon fill="midnightblue" stroke="midnightblue" points="137.11,-142.25 138.05,-131.7 130.73,-139.35 137.11,-142.25"/>
</g>
<!-- Node5 -->
<g id="node5" class="node">
<title>Node5</title>
<g id="a_node5"><a xlink:href="option__impl_8hpp.html" target="_top" xlink:title=" ">
<polygon fill="white" stroke="black" points="183.5,-112.5 183.5,-131.5 278.5,-131.5 278.5,-112.5 183.5,-112.5"/>
<text text-anchor="middle" x="231" y="-119.5" font-family="Helvetica,sans-Serif" font-size="10.00">option_impl.hpp</text>
</a>
</g>
</g>
<!-- Node1&#45;&gt;Node5 -->
<g id="edge4" class="edge">
<title>Node1&#45;&gt;Node5</title>
<path fill="none" stroke="midnightblue" d="M153,-168.45C171.34,-157.76 192.02,-145.71 207.48,-136.7"/>
<polygon fill="midnightblue" stroke="midnightblue" points="209.49,-139.59 216.37,-131.53 205.96,-133.54 209.49,-139.59"/>
</g>
<!-- Node6 -->
<g id="node6" class="node">
<title>Node6</title>
<g id="a_node6"><a xlink:title=" ">
<polygon fill="white" stroke="#bfbfbf" points="178,-0.5 178,-19.5 228,-19.5 228,-0.5 178,-0.5"/>
<text text-anchor="middle" x="203" y="-7.5" font-family="Helvetica,sans-Serif" font-size="10.00">cstdint</text>
</a>
</g>
</g>
<!-- Node5&#45;&gt;Node6 -->
<g id="edge5" class="edge">
<title>Node5&#45;&gt;Node6</title>
<path fill="none" stroke="midnightblue" d="M190.85,-112.43C171.03,-105.95 148.86,-94.83 137,-76 123.97,-55.31 149.7,-36.27 172.74,-24.21"/>
<polygon fill="midnightblue" stroke="midnightblue" points="174.59,-27.21 182.01,-19.64 171.49,-20.93 174.59,-27.21"/>
</g>
<!-- Node7 -->
<g id="node7" class="node">
<title>Node7</title>
<g id="a_node7"><a xlink:title=" ">
<polygon fill="white" stroke="#bfbfbf" points="146,-56.5 146,-75.5 204,-75.5 204,-56.5 146,-56.5"/>
<text text-anchor="middle" x="175" y="-63.5" font-family="Helvetica,sans-Serif" font-size="10.00">memory</text>
</a>
</g>
</g>
<!-- Node5&#45;&gt;Node7 -->
<g id="edge6" class="edge">
<title>Node5&#45;&gt;Node7</title>
<path fill="none" stroke="midnightblue" d="M222,-112.32C213.81,-104.42 201.49,-92.55 191.53,-82.94"/>
<polygon fill="midnightblue" stroke="midnightblue" points="193.79,-80.26 184.16,-75.83 188.93,-85.29 193.79,-80.26"/>
</g>
<!-- Node8 -->
<g id="node8" class="node">
<title>Node8</title>
<g id="a_node8"><a xlink:href="implementation_2service__discovery_2include_2enumeration__types_8hpp.html" target="_top" xlink:title=" ">
<polygon fill="white" stroke="black" points="222,-56.5 222,-75.5 354,-75.5 354,-56.5 222,-56.5"/>
<text text-anchor="middle" x="288" y="-63.5" font-family="Helvetica,sans-Serif" font-size="10.00">enumeration_types.hpp</text>
</a>
</g>
</g>
<!-- Node5&#45;&gt;Node8 -->
<g id="edge7" class="edge">
<title>Node5&#45;&gt;Node8</title>
<path fill="none" stroke="midnightblue" d="M240.16,-112.32C248.5,-104.42 261.03,-92.55 271.18,-82.94"/>
<polygon fill="midnightblue" stroke="midnightblue" points="273.82,-85.25 278.68,-75.83 269.01,-80.17 273.82,-85.25"/>
</g>
<!-- Node9 -->
<g id="node9" class="node">
<title>Node9</title>
<g id="a_node9"><a xlink:href="message__element__impl_8hpp.html" target="_top" xlink:title=" ">
<polygon fill="white" stroke="black" points="372.5,-56.5 372.5,-75.5 527.5,-75.5 527.5,-56.5 372.5,-56.5"/>
<text text-anchor="middle" x="450" y="-63.5" font-family="Helvetica,sans-Serif" font-size="10.00">message_element_impl.hpp</text>
</a>
</g>
</g>
<!-- Node5&#45;&gt;Node9 -->
<g id="edge9" class="edge">
<title>Node5&#45;&gt;Node9</title>
<path fill="none" stroke="midnightblue" d="M265.7,-112.44C303.58,-103.1 364.35,-88.12 405.66,-77.93"/>
<polygon fill="midnightblue" stroke="midnightblue" points="406.59,-81.31 415.46,-75.52 404.91,-74.51 406.59,-81.31"/>
</g>
<!-- Node8&#45;&gt;Node6 -->
<g id="edge8" class="edge">
<title>Node8&#45;&gt;Node6</title>
<path fill="none" stroke="midnightblue" d="M274.34,-56.32C261.08,-47.9 240.73,-34.97 225.15,-25.07"/>
<polygon fill="midnightblue" stroke="midnightblue" points="226.94,-22.06 216.62,-19.65 223.19,-27.97 226.94,-22.06"/>
</g>
</g>
</svg>
