<?xml version="1.0" encoding="UTF-8" standalone="no"?>
<!DOCTYPE svg PUBLIC "-//W3C//DTD SVG 1.1//EN"
 "http://www.w3.org/Graphics/SVG/1.1/DTD/svg11.dtd">
<!-- Generated by graphviz version 2.43.0 (0)
 -->
<!-- Title: /home/kali/projects/vsomeip/implementation/service_discovery/src/configuration_option_impl.cpp Pages: 1 -->
<svg width="597pt" height="296pt"
 viewBox="0.00 0.00 596.50 296.00" xmlns="http://www.w3.org/2000/svg" xmlns:xlink="http://www.w3.org/1999/xlink">
<g id="graph0" class="graph" transform="scale(1 1) rotate(0) translate(4 292)">
<title>/home/kali/projects/vsomeip/implementation/service_discovery/src/configuration_option_impl.cpp</title>
<polygon fill="white" stroke="transparent" points="-4,4 -4,-292 592.5,-292 592.5,4 -4,4"/>
<!-- Node1 -->
<g id="node1" class="node">
<title>Node1</title>
<g id="a_node1"><a xlink:title=" ">
<polygon fill="#bfbfbf" stroke="black" points="126.5,-235.5 126.5,-287.5 293.5,-287.5 293.5,-235.5 126.5,-235.5"/>
<text text-anchor="start" x="134.5" y="-275.5" font-family="Helvetica,sans-Serif" font-size="10.00">/home/kali/projects</text>
<text text-anchor="start" x="134.5" y="-264.5" font-family="Helvetica,sans-Serif" font-size="10.00">/vsomeip/implementation</text>
<text text-anchor="start" x="134.5" y="-253.5" font-family="Helvetica,sans-Serif" font-size="10.00">/service_discovery/src</text>
<text text-anchor="middle" x="210" y="-242.5" font-family="Helvetica,sans-Serif" font-size="10.00">/configuration_option_impl.cpp</text>
</a>
</g>
</g>
<!-- Node2 -->
<g id="node2" class="node">
<title>Node2</title>
<g id="a_node2"><a xlink:title=" ">
<polygon fill="white" stroke="#bfbfbf" points="8,-174 8,-193 58,-193 58,-174 8,-174"/>
<text text-anchor="middle" x="33" y="-181" font-family="Helvetica,sans-Serif" font-size="10.00">cstring</text>
</a>
</g>
</g>
<!-- Node1&#45;&gt;Node2 -->
<g id="edge1" class="edge">
<title>Node1&#45;&gt;Node2</title>
<path fill="none" stroke="midnightblue" d="M151.55,-235.4C121.64,-222.56 86.53,-207.48 62.32,-197.09"/>
<polygon fill="midnightblue" stroke="midnightblue" points="63.55,-193.81 52.98,-193.08 60.79,-200.24 63.55,-193.81"/>
</g>
<!-- Node3 -->
<g id="node3" class="node">
<title>Node3</title>
<g id="a_node3"><a xlink:href="configuration__option__impl_8hpp.html" target="_top" xlink:title=" ">
<polygon fill="white" stroke="black" points="76,-168.5 76,-198.5 204,-198.5 204,-168.5 76,-168.5"/>
<text text-anchor="start" x="84" y="-186.5" font-family="Helvetica,sans-Serif" font-size="10.00">../include/configuration</text>
<text text-anchor="middle" x="140" y="-175.5" font-family="Helvetica,sans-Serif" font-size="10.00">_option_impl.hpp</text>
</a>
</g>
</g>
<!-- Node1&#45;&gt;Node3 -->
<g id="edge2" class="edge">
<title>Node1&#45;&gt;Node3</title>
<path fill="none" stroke="midnightblue" d="M186.69,-235.19C178.08,-225.84 168.4,-215.33 160.09,-206.32"/>
<polygon fill="midnightblue" stroke="midnightblue" points="162.56,-203.83 153.21,-198.85 157.41,-208.57 162.56,-203.83"/>
</g>
<!-- Node12 -->
<g id="node12" class="node">
<title>Node12</title>
<g id="a_node12"><a xlink:href="message_2include_2deserializer_8hpp.html" target="_top" xlink:title=" ">
<polygon fill="white" stroke="black" points="222.5,-168.5 222.5,-198.5 339.5,-198.5 339.5,-168.5 222.5,-168.5"/>
<text text-anchor="start" x="230.5" y="-186.5" font-family="Helvetica,sans-Serif" font-size="10.00">../../message/include</text>
<text text-anchor="middle" x="281" y="-175.5" font-family="Helvetica,sans-Serif" font-size="10.00">/deserializer.hpp</text>
</a>
</g>
</g>
<!-- Node1&#45;&gt;Node12 -->
<g id="edge12" class="edge">
<title>Node1&#45;&gt;Node12</title>
<path fill="none" stroke="midnightblue" d="M233.64,-235.19C242.38,-225.84 252.2,-215.33 260.62,-206.32"/>
<polygon fill="midnightblue" stroke="midnightblue" points="263.33,-208.54 267.6,-198.85 258.21,-203.76 263.33,-208.54"/>
</g>
<!-- Node15 -->
<g id="node15" class="node">
<title>Node15</title>
<g id="a_node15"><a xlink:href="serializer_8hpp.html" target="_top" xlink:title=" ">
<polygon fill="white" stroke="black" points="357.5,-168.5 357.5,-198.5 474.5,-198.5 474.5,-168.5 357.5,-168.5"/>
<text text-anchor="start" x="365.5" y="-186.5" font-family="Helvetica,sans-Serif" font-size="10.00">../../message/include</text>
<text text-anchor="middle" x="416" y="-175.5" font-family="Helvetica,sans-Serif" font-size="10.00">/serializer.hpp</text>
</a>
</g>
</g>
<!-- Node1&#45;&gt;Node15 -->
<g id="edge16" class="edge">
<title>Node1&#45;&gt;Node15</title>
<path fill="none" stroke="midnightblue" d="M278.02,-235.4C307.56,-224.51 341.45,-212 368.26,-202.11"/>
<polygon fill="midnightblue" stroke="midnightblue" points="369.62,-205.34 377.79,-198.6 367.2,-198.77 369.62,-205.34"/>
</g>
<!-- Node4 -->
<g id="node4" class="node">
<title>Node4</title>
<g id="a_node4"><a xlink:title=" ">
<polygon fill="white" stroke="#bfbfbf" points="0,-112.5 0,-131.5 38,-131.5 38,-112.5 0,-112.5"/>
<text text-anchor="middle" x="19" y="-119.5" font-family="Helvetica,sans-Serif" font-size="10.00">map</text>
</a>
</g>
</g>
<!-- Node3&#45;&gt;Node4 -->
<g id="edge3" class="edge">
<title>Node3&#45;&gt;Node4</title>
<path fill="none" stroke="midnightblue" d="M111.32,-168.4C91.48,-158.64 65.24,-145.74 45.81,-136.18"/>
<polygon fill="midnightblue" stroke="midnightblue" points="47.12,-132.93 36.61,-131.66 44.04,-139.21 47.12,-132.93"/>
</g>
<!-- Node5 -->
<g id="node5" class="node">
<title>Node5</title>
<g id="a_node5"><a xlink:title=" ">
<polygon fill="white" stroke="#bfbfbf" points="56,-112.5 56,-131.5 100,-131.5 100,-112.5 56,-112.5"/>
<text text-anchor="middle" x="78" y="-119.5" font-family="Helvetica,sans-Serif" font-size="10.00">string</text>
</a>
</g>
</g>
<!-- Node3&#45;&gt;Node5 -->
<g id="edge4" class="edge">
<title>Node3&#45;&gt;Node5</title>
<path fill="none" stroke="midnightblue" d="M125.31,-168.4C116.02,-159.49 104,-147.95 94.4,-138.74"/>
<polygon fill="midnightblue" stroke="midnightblue" points="96.66,-136.06 87.02,-131.66 91.81,-141.11 96.66,-136.06"/>
</g>
<!-- Node6 -->
<g id="node6" class="node">
<title>Node6</title>
<g id="a_node6"><a xlink:title=" ">
<polygon fill="white" stroke="#bfbfbf" points="231.5,-112.5 231.5,-131.5 278.5,-131.5 278.5,-112.5 231.5,-112.5"/>
<text text-anchor="middle" x="255" y="-119.5" font-family="Helvetica,sans-Serif" font-size="10.00">vector</text>
</a>
</g>
</g>
<!-- Node3&#45;&gt;Node6 -->
<g id="edge5" class="edge">
<title>Node3&#45;&gt;Node6</title>
<path fill="none" stroke="midnightblue" d="M167.25,-168.4C186.03,-158.68 210.83,-145.86 229.27,-136.31"/>
<polygon fill="midnightblue" stroke="midnightblue" points="230.99,-139.36 238.27,-131.66 227.78,-133.14 230.99,-139.36"/>
</g>
<!-- Node7 -->
<g id="node7" class="node">
<title>Node7</title>
<g id="a_node7"><a xlink:href="option__impl_8hpp.html" target="_top" xlink:title=" ">
<polygon fill="white" stroke="black" points="118.5,-112.5 118.5,-131.5 213.5,-131.5 213.5,-112.5 118.5,-112.5"/>
<text text-anchor="middle" x="166" y="-119.5" font-family="Helvetica,sans-Serif" font-size="10.00">option_impl.hpp</text>
</a>
</g>
</g>
<!-- Node3&#45;&gt;Node7 -->
<g id="edge6" class="edge">
<title>Node3&#45;&gt;Node7</title>
<path fill="none" stroke="midnightblue" d="M146.16,-168.4C149.74,-160.2 154.3,-149.78 158.14,-140.99"/>
<polygon fill="midnightblue" stroke="midnightblue" points="161.42,-142.22 162.22,-131.66 155.01,-139.42 161.42,-142.22"/>
</g>
<!-- Node8 -->
<g id="node8" class="node">
<title>Node8</title>
<g id="a_node8"><a xlink:title=" ">
<polygon fill="white" stroke="#bfbfbf" points="38,-0.5 38,-19.5 88,-19.5 88,-0.5 38,-0.5"/>
<text text-anchor="middle" x="63" y="-7.5" font-family="Helvetica,sans-Serif" font-size="10.00">cstdint</text>
</a>
</g>
</g>
<!-- Node7&#45;&gt;Node8 -->
<g id="edge7" class="edge">
<title>Node7&#45;&gt;Node8</title>
<path fill="none" stroke="midnightblue" d="M125.31,-112.44C90.98,-104.29 45.76,-91.07 35,-76 24.24,-60.93 35.86,-41.07 47.23,-27.29"/>
<polygon fill="midnightblue" stroke="midnightblue" points="50.05,-29.39 54.08,-19.59 44.82,-24.74 50.05,-29.39"/>
</g>
<!-- Node9 -->
<g id="node9" class="node">
<title>Node9</title>
<g id="a_node9"><a xlink:title=" ">
<polygon fill="white" stroke="#bfbfbf" points="194,-56.5 194,-75.5 252,-75.5 252,-56.5 194,-56.5"/>
<text text-anchor="middle" x="223" y="-63.5" font-family="Helvetica,sans-Serif" font-size="10.00">memory</text>
</a>
</g>
</g>
<!-- Node7&#45;&gt;Node9 -->
<g id="edge8" class="edge">
<title>Node7&#45;&gt;Node9</title>
<path fill="none" stroke="midnightblue" d="M175.16,-112.32C183.5,-104.42 196.03,-92.55 206.18,-82.94"/>
<polygon fill="midnightblue" stroke="midnightblue" points="208.82,-85.25 213.68,-75.83 204.01,-80.17 208.82,-85.25"/>
</g>
<!-- Node10 -->
<g id="node10" class="node">
<title>Node10</title>
<g id="a_node10"><a xlink:href="implementation_2service__discovery_2include_2enumeration__types_8hpp.html" target="_top" xlink:title=" ">
<polygon fill="white" stroke="black" points="44,-56.5 44,-75.5 176,-75.5 176,-56.5 44,-56.5"/>
<text text-anchor="middle" x="110" y="-63.5" font-family="Helvetica,sans-Serif" font-size="10.00">enumeration_types.hpp</text>
</a>
</g>
</g>
<!-- Node7&#45;&gt;Node10 -->
<g id="edge9" class="edge">
<title>Node7&#45;&gt;Node10</title>
<path fill="none" stroke="midnightblue" d="M157,-112.32C148.81,-104.42 136.49,-92.55 126.53,-82.94"/>
<polygon fill="midnightblue" stroke="midnightblue" points="128.79,-80.26 119.16,-75.83 123.93,-85.29 128.79,-80.26"/>
</g>
<!-- Node11 -->
<g id="node11" class="node">
<title>Node11</title>
<g id="a_node11"><a xlink:href="message__element__impl_8hpp.html" target="_top" xlink:title=" ">
<polygon fill="white" stroke="black" points="270.5,-56.5 270.5,-75.5 425.5,-75.5 425.5,-56.5 270.5,-56.5"/>
<text text-anchor="middle" x="348" y="-63.5" font-family="Helvetica,sans-Serif" font-size="10.00">message_element_impl.hpp</text>
</a>
</g>
</g>
<!-- Node7&#45;&gt;Node11 -->
<g id="edge11" class="edge">
<title>Node7&#45;&gt;Node11</title>
<path fill="none" stroke="midnightblue" d="M194.84,-112.44C225.86,-103.24 275.33,-88.56 309.62,-78.39"/>
<polygon fill="midnightblue" stroke="midnightblue" points="310.71,-81.72 319.3,-75.52 308.71,-75.01 310.71,-81.72"/>
</g>
<!-- Node10&#45;&gt;Node8 -->
<g id="edge10" class="edge">
<title>Node10&#45;&gt;Node8</title>
<path fill="none" stroke="midnightblue" d="M102.24,-56.08C95.46,-48.3 85.46,-36.8 77.24,-27.37"/>
<polygon fill="midnightblue" stroke="midnightblue" points="79.82,-25 70.62,-19.75 74.54,-29.59 79.82,-25"/>
</g>
<!-- Node12&#45;&gt;Node6 -->
<g id="edge13" class="edge">
<title>Node12&#45;&gt;Node6</title>
<path fill="none" stroke="midnightblue" d="M274.84,-168.4C271.26,-160.2 266.7,-149.78 262.86,-140.99"/>
<polygon fill="midnightblue" stroke="midnightblue" points="265.99,-139.42 258.78,-131.66 259.58,-142.22 265.99,-139.42"/>
</g>
<!-- Node13 -->
<g id="node13" class="node">
<title>Node13</title>
<g id="a_node13"><a xlink:title=" ">
<polygon fill="white" stroke="#bfbfbf" points="297,-112.5 297,-131.5 411,-131.5 411,-112.5 297,-112.5"/>
<text text-anchor="middle" x="354" y="-119.5" font-family="Helvetica,sans-Serif" font-size="10.00">vsomeip/export.hpp</text>
</a>
</g>
</g>
<!-- Node12&#45;&gt;Node13 -->
<g id="edge14" class="edge">
<title>Node12&#45;&gt;Node13</title>
<path fill="none" stroke="midnightblue" d="M298.3,-168.4C309.45,-159.31 323.95,-147.49 335.36,-138.19"/>
<polygon fill="midnightblue" stroke="midnightblue" points="337.84,-140.69 343.38,-131.66 333.42,-135.26 337.84,-140.69"/>
</g>
<!-- Node14 -->
<g id="node14" class="node">
<title>Node14</title>
<g id="a_node14"><a xlink:title=" ">
<polygon fill="white" stroke="#bfbfbf" points="429.5,-112.5 429.5,-131.5 588.5,-131.5 588.5,-112.5 429.5,-112.5"/>
<text text-anchor="middle" x="509" y="-119.5" font-family="Helvetica,sans-Serif" font-size="10.00">vsomeip/primitive_types.hpp</text>
</a>
</g>
</g>
<!-- Node12&#45;&gt;Node14 -->
<g id="edge15" class="edge">
<title>Node12&#45;&gt;Node14</title>
<path fill="none" stroke="midnightblue" d="M334.74,-168.47C374.94,-157.99 429.15,-143.84 466.38,-134.12"/>
<polygon fill="midnightblue" stroke="midnightblue" points="467.61,-137.42 476.4,-131.51 465.84,-130.64 467.61,-137.42"/>
</g>
<!-- Node15&#45;&gt;Node6 -->
<g id="edge17" class="edge">
<title>Node15&#45;&gt;Node6</title>
<path fill="none" stroke="midnightblue" d="M377.85,-168.4C350.47,-158.28 313.96,-144.79 287.87,-135.15"/>
<polygon fill="midnightblue" stroke="midnightblue" points="289.02,-131.84 278.43,-131.66 286.59,-138.41 289.02,-131.84"/>
</g>
<!-- Node15&#45;&gt;Node13 -->
<g id="edge18" class="edge">
<title>Node15&#45;&gt;Node13</title>
<path fill="none" stroke="midnightblue" d="M401.31,-168.4C392.02,-159.49 380,-147.95 370.4,-138.74"/>
<polygon fill="midnightblue" stroke="midnightblue" points="372.66,-136.06 363.02,-131.66 367.81,-141.11 372.66,-136.06"/>
</g>
<!-- Node15&#45;&gt;Node14 -->
<g id="edge19" class="edge">
<title>Node15&#45;&gt;Node14</title>
<path fill="none" stroke="midnightblue" d="M438.04,-168.4C452.81,-158.95 472.18,-146.56 486.95,-137.11"/>
<polygon fill="midnightblue" stroke="midnightblue" points="488.93,-140 495.47,-131.66 485.16,-134.1 488.93,-140"/>
</g>
</g>
</svg>
