<?xml version="1.0" encoding="UTF-8" standalone="no"?>
<!DOCTYPE svg PUBLIC "-//W3C//DTD SVG 1.1//EN"
 "http://www.w3.org/Graphics/SVG/1.1/DTD/svg11.dtd">
<!-- Generated by graphviz version 2.43.0 (0)
 -->
<!-- Title: /home/kali/projects/vsomeip/implementation/tracing/include/connector_impl.hpp Pages: 1 -->
<svg width="1062pt" height="195pt"
 viewBox="0.00 0.00 1062.00 195.00" xmlns="http://www.w3.org/2000/svg" xmlns:xlink="http://www.w3.org/1999/xlink">
<g id="graph0" class="graph" transform="scale(1 1) rotate(0) translate(4 191)">
<title>/home/kali/projects/vsomeip/implementation/tracing/include/connector_impl.hpp</title>
<polygon fill="white" stroke="transparent" points="-4,4 -4,-191 1058,-191 1058,4 -4,4"/>
<!-- Node1 -->
<g id="node1" class="node">
<title>Node1</title>
<g id="a_node1"><a xlink:title=" ">
<polygon fill="#bfbfbf" stroke="black" points="321.5,-134.5 321.5,-186.5 464.5,-186.5 464.5,-134.5 321.5,-134.5"/>
<text text-anchor="start" x="329.5" y="-174.5" font-family="Helvetica,sans-Serif" font-size="10.00">/home/kali/projects</text>
<text text-anchor="start" x="329.5" y="-163.5" font-family="Helvetica,sans-Serif" font-size="10.00">/vsomeip/implementation</text>
<text text-anchor="start" x="329.5" y="-152.5" font-family="Helvetica,sans-Serif" font-size="10.00">/tracing/include/connector</text>
<text text-anchor="middle" x="393" y="-141.5" font-family="Helvetica,sans-Serif" font-size="10.00">_impl.hpp</text>
</a>
</g>
</g>
<!-- Node2 -->
<g id="node2" class="node">
<title>Node2</title>
<g id="a_node2"><a xlink:title=" ">
<polygon fill="white" stroke="#bfbfbf" points="0,-73 0,-92 48,-92 48,-73 0,-73"/>
<text text-anchor="middle" x="24" y="-80" font-family="Helvetica,sans-Serif" font-size="10.00">mutex</text>
</a>
</g>
</g>
<!-- Node1&#45;&gt;Node2 -->
<g id="edge1" class="edge">
<title>Node1&#45;&gt;Node2</title>
<path fill="none" stroke="midnightblue" d="M321.38,-151.31C252.56,-142.29 146.16,-125.34 57,-98 55.07,-97.41 53.1,-96.74 51.14,-96.01"/>
<polygon fill="midnightblue" stroke="midnightblue" points="52.1,-92.63 41.52,-92.1 49.47,-99.11 52.1,-92.63"/>
</g>
<!-- Node3 -->
<g id="node3" class="node">
<title>Node3</title>
<g id="a_node3"><a xlink:title=" ">
<polygon fill="white" stroke="#bfbfbf" points="66.5,-73 66.5,-92 113.5,-92 113.5,-73 66.5,-73"/>
<text text-anchor="middle" x="90" y="-80" font-family="Helvetica,sans-Serif" font-size="10.00">vector</text>
</a>
</g>
</g>
<!-- Node1&#45;&gt;Node3 -->
<g id="edge2" class="edge">
<title>Node1&#45;&gt;Node3</title>
<path fill="none" stroke="midnightblue" d="M321.5,-147.06C266.49,-136.57 188.97,-119.79 123,-98 121.13,-97.38 119.22,-96.7 117.31,-95.97"/>
<polygon fill="midnightblue" stroke="midnightblue" points="118.49,-92.67 107.91,-92.11 115.83,-99.15 118.49,-92.67"/>
</g>
<!-- Node4 -->
<g id="node4" class="node">
<title>Node4</title>
<g id="a_node4"><a xlink:title=" ">
<polygon fill="white" stroke="#bfbfbf" points="132,-73 132,-92 170,-92 170,-73 132,-73"/>
<text text-anchor="middle" x="151" y="-80" font-family="Helvetica,sans-Serif" font-size="10.00">map</text>
</a>
</g>
</g>
<!-- Node1&#45;&gt;Node4 -->
<g id="edge3" class="edge">
<title>Node1&#45;&gt;Node4</title>
<path fill="none" stroke="midnightblue" d="M321.46,-142.73C279.31,-131.91 225.33,-116.44 179,-98 177.8,-97.52 176.58,-97.01 175.36,-96.47"/>
<polygon fill="midnightblue" stroke="midnightblue" points="176.68,-93.22 166.15,-92.04 173.64,-99.53 176.68,-93.22"/>
</g>
<!-- Node5 -->
<g id="node5" class="node">
<title>Node5</title>
<g id="a_node5"><a xlink:title=" ">
<polygon fill="white" stroke="#bfbfbf" points="188.5,-73 188.5,-92 307.5,-92 307.5,-73 188.5,-73"/>
<text text-anchor="middle" x="248" y="-80" font-family="Helvetica,sans-Serif" font-size="10.00">boost/shared_ptr.hpp</text>
</a>
</g>
</g>
<!-- Node1&#45;&gt;Node5 -->
<g id="edge4" class="edge">
<title>Node1&#45;&gt;Node5</title>
<path fill="none" stroke="midnightblue" d="M345.12,-134.4C321.16,-121.85 293.13,-107.15 273.35,-96.79"/>
<polygon fill="midnightblue" stroke="midnightblue" points="274.85,-93.62 264.37,-92.08 271.6,-99.82 274.85,-93.62"/>
</g>
<!-- Node6 -->
<g id="node6" class="node">
<title>Node6</title>
<g id="a_node6"><a xlink:title=" ">
<polygon fill="white" stroke="#bfbfbf" points="173.5,-6 173.5,-25 332.5,-25 332.5,-6 173.5,-6"/>
<text text-anchor="middle" x="253" y="-13" font-family="Helvetica,sans-Serif" font-size="10.00">vsomeip/primitive_types.hpp</text>
</a>
</g>
</g>
<!-- Node1&#45;&gt;Node6 -->
<g id="edge5" class="edge">
<title>Node1&#45;&gt;Node6</title>
<path fill="none" stroke="midnightblue" d="M405.5,-134.39C413.52,-114.33 420.06,-86.45 406,-67 394.08,-50.51 346.28,-36.45 307.25,-27.39"/>
<polygon fill="midnightblue" stroke="midnightblue" points="307.55,-23.87 297.02,-25.08 306.01,-30.7 307.55,-23.87"/>
</g>
<!-- Node7 -->
<g id="node7" class="node">
<title>Node7</title>
<g id="a_node7"><a xlink:title=" ">
<polygon fill="white" stroke="#bfbfbf" points="593,-73 593,-92 707,-92 707,-73 593,-73"/>
<text text-anchor="middle" x="650" y="-80" font-family="Helvetica,sans-Serif" font-size="10.00">vsomeip/export.hpp</text>
</a>
</g>
</g>
<!-- Node1&#45;&gt;Node7 -->
<g id="edge6" class="edge">
<title>Node1&#45;&gt;Node7</title>
<path fill="none" stroke="midnightblue" d="M464.59,-138.33C512.04,-124.3 572.45,-106.43 611.19,-94.98"/>
<polygon fill="midnightblue" stroke="midnightblue" points="612.43,-98.26 621.03,-92.07 610.44,-91.55 612.43,-98.26"/>
</g>
<!-- Node8 -->
<g id="node8" class="node">
<title>Node8</title>
<g id="a_node8"><a xlink:title=" ">
<polygon fill="white" stroke="#bfbfbf" points="725.5,-73 725.5,-92 832.5,-92 832.5,-73 725.5,-73"/>
<text text-anchor="middle" x="779" y="-80" font-family="Helvetica,sans-Serif" font-size="10.00">vsomeip/trace.hpp</text>
</a>
</g>
</g>
<!-- Node1&#45;&gt;Node8 -->
<g id="edge7" class="edge">
<title>Node1&#45;&gt;Node8</title>
<path fill="none" stroke="midnightblue" d="M464.68,-146.66C530.24,-134.73 629.83,-116.11 716,-98 721.49,-96.85 727.24,-95.59 732.94,-94.31"/>
<polygon fill="midnightblue" stroke="midnightblue" points="734.09,-97.64 743.07,-92.02 732.54,-90.81 734.09,-97.64"/>
</g>
<!-- Node9 -->
<g id="node9" class="node">
<title>Node9</title>
<g id="a_node9"><a xlink:href="implementation_2tracing_2include_2enumeration__types_8hpp.html" target="_top" xlink:title=" ">
<polygon fill="white" stroke="black" points="851,-73 851,-92 983,-92 983,-73 851,-73"/>
<text text-anchor="middle" x="917" y="-80" font-family="Helvetica,sans-Serif" font-size="10.00">enumeration_types.hpp</text>
</a>
</g>
</g>
<!-- Node1&#45;&gt;Node9 -->
<g id="edge8" class="edge">
<title>Node1&#45;&gt;Node9</title>
<path fill="none" stroke="midnightblue" d="M464.72,-150.91C553.51,-139.99 709.25,-119.91 842,-98 849.46,-96.77 857.32,-95.37 865.03,-93.93"/>
<polygon fill="midnightblue" stroke="midnightblue" points="865.85,-97.34 875.03,-92.04 864.55,-90.46 865.85,-97.34"/>
</g>
<!-- Node10 -->
<g id="node10" class="node">
<title>Node10</title>
<g id="a_node10"><a xlink:href="header_8hpp.html" target="_top" xlink:title=" ">
<polygon fill="white" stroke="black" points="325.5,-73 325.5,-92 396.5,-92 396.5,-73 325.5,-73"/>
<text text-anchor="middle" x="361" y="-80" font-family="Helvetica,sans-Serif" font-size="10.00">header.hpp</text>
</a>
</g>
</g>
<!-- Node1&#45;&gt;Node10 -->
<g id="edge9" class="edge">
<title>Node1&#45;&gt;Node10</title>
<path fill="none" stroke="midnightblue" d="M382.34,-134.19C377.86,-123.54 372.74,-111.38 368.64,-101.64"/>
<polygon fill="midnightblue" stroke="midnightblue" points="371.77,-100.07 364.67,-92.21 365.32,-102.78 371.77,-100.07"/>
</g>
<!-- Node13 -->
<g id="node13" class="node">
<title>Node13</title>
<g id="a_node13"><a xlink:href="endpoints_2include_2buffer_8hpp.html" target="_top" xlink:title=" ">
<polygon fill="white" stroke="black" points="453.5,-67.5 453.5,-97.5 574.5,-97.5 574.5,-67.5 453.5,-67.5"/>
<text text-anchor="start" x="461.5" y="-85.5" font-family="Helvetica,sans-Serif" font-size="10.00">../../endpoints/include</text>
<text text-anchor="middle" x="514" y="-74.5" font-family="Helvetica,sans-Serif" font-size="10.00">/buffer.hpp</text>
</a>
</g>
</g>
<!-- Node1&#45;&gt;Node13 -->
<g id="edge13" class="edge">
<title>Node1&#45;&gt;Node13</title>
<path fill="none" stroke="midnightblue" d="M432.96,-134.4C449.18,-124.21 467.65,-112.61 482.85,-103.07"/>
<polygon fill="midnightblue" stroke="midnightblue" points="484.78,-105.99 491.38,-97.71 481.05,-100.06 484.78,-105.99"/>
</g>
<!-- Node10&#45;&gt;Node6 -->
<g id="edge11" class="edge">
<title>Node10&#45;&gt;Node6</title>
<path fill="none" stroke="midnightblue" d="M346.43,-72.73C328.38,-61.87 297.39,-43.22 276.08,-30.39"/>
<polygon fill="midnightblue" stroke="midnightblue" points="277.71,-27.29 267.33,-25.13 274.1,-33.28 277.71,-27.29"/>
</g>
<!-- Node11 -->
<g id="node11" class="node">
<title>Node11</title>
<g id="a_node11"><a xlink:title=" ">
<polygon fill="white" stroke="#bfbfbf" points="350,-6 350,-25 408,-25 408,-6 350,-6"/>
<text text-anchor="middle" x="379" y="-13" font-family="Helvetica,sans-Serif" font-size="10.00">memory</text>
</a>
</g>
</g>
<!-- Node10&#45;&gt;Node11 -->
<g id="edge10" class="edge">
<title>Node10&#45;&gt;Node11</title>
<path fill="none" stroke="midnightblue" d="M363.43,-72.73C366.1,-63.09 370.47,-47.3 373.9,-34.91"/>
<polygon fill="midnightblue" stroke="midnightblue" points="377.32,-35.7 376.61,-25.13 370.57,-33.83 377.32,-35.7"/>
</g>
<!-- Node12 -->
<g id="node12" class="node">
<title>Node12</title>
<g id="a_node12"><a xlink:title=" ">
<polygon fill="white" stroke="#bfbfbf" points="35,-0.5 35,-30.5 155,-30.5 155,-0.5 35,-0.5"/>
<text text-anchor="start" x="43" y="-18.5" font-family="Helvetica,sans-Serif" font-size="10.00">boost/asio/ip/address</text>
<text text-anchor="middle" x="95" y="-7.5" font-family="Helvetica,sans-Serif" font-size="10.00">_v4.hpp</text>
</a>
</g>
</g>
<!-- Node10&#45;&gt;Node12 -->
<g id="edge12" class="edge">
<title>Node10&#45;&gt;Node12</title>
<path fill="none" stroke="midnightblue" d="M335.89,-72.98C329.44,-70.91 322.49,-68.78 316,-67 287.95,-59.29 218.63,-43.65 165.03,-31.81"/>
<polygon fill="midnightblue" stroke="midnightblue" points="165.74,-28.38 155.22,-29.64 164.23,-35.22 165.74,-28.38"/>
</g>
<!-- Node13&#45;&gt;Node6 -->
<g id="edge21" class="edge">
<title>Node13&#45;&gt;Node6</title>
<path fill="none" stroke="midnightblue" d="M457.69,-67.48C409.58,-55.5 341.34,-38.5 297.12,-27.49"/>
<polygon fill="midnightblue" stroke="midnightblue" points="297.8,-24.05 287.25,-25.03 296.1,-30.84 297.8,-24.05"/>
</g>
<!-- Node13&#45;&gt;Node11 -->
<g id="edge16" class="edge">
<title>Node13&#45;&gt;Node11</title>
<path fill="none" stroke="midnightblue" d="M484.71,-67.4C461.23,-56.09 428.56,-40.36 405.77,-29.39"/>
<polygon fill="midnightblue" stroke="midnightblue" points="407.2,-26.19 396.67,-25.01 404.16,-32.5 407.2,-26.19"/>
</g>
<!-- Node14 -->
<g id="node14" class="node">
<title>Node14</title>
<g id="a_node14"><a xlink:title=" ">
<polygon fill="white" stroke="#bfbfbf" points="894,-6 894,-25 936,-25 936,-6 894,-6"/>
<text text-anchor="middle" x="915" y="-13" font-family="Helvetica,sans-Serif" font-size="10.00">array</text>
</a>
</g>
</g>
<!-- Node13&#45;&gt;Node14 -->
<g id="edge14" class="edge">
<title>Node13&#45;&gt;Node14</title>
<path fill="none" stroke="midnightblue" d="M574.65,-68.61C577.81,-68.04 580.94,-67.5 584,-67 716.97,-45.32 755.69,-68.83 885,-31 886.87,-30.45 888.77,-29.8 890.66,-29.07"/>
<polygon fill="midnightblue" stroke="midnightblue" points="892.08,-32.27 899.82,-25.04 889.26,-25.87 892.08,-32.27"/>
</g>
<!-- Node15 -->
<g id="node15" class="node">
<title>Node15</title>
<g id="a_node15"><a xlink:title=" ">
<polygon fill="white" stroke="#bfbfbf" points="954,-6 954,-25 1004,-25 1004,-6 954,-6"/>
<text text-anchor="middle" x="979" y="-13" font-family="Helvetica,sans-Serif" font-size="10.00">chrono</text>
</a>
</g>
</g>
<!-- Node13&#45;&gt;Node15 -->
<g id="edge15" class="edge">
<title>Node13&#45;&gt;Node15</title>
<path fill="none" stroke="midnightblue" d="M574.64,-68.53C577.8,-67.99 580.93,-67.47 584,-67 743.39,-42.61 788.82,-71.09 945,-31 947.36,-30.39 949.77,-29.65 952.16,-28.82"/>
<polygon fill="midnightblue" stroke="midnightblue" points="953.68,-31.98 961.71,-25.07 951.12,-25.47 953.68,-31.98"/>
</g>
<!-- Node16 -->
<g id="node16" class="node">
<title>Node16</title>
<g id="a_node16"><a xlink:title=" ">
<polygon fill="white" stroke="#bfbfbf" points="1022,-6 1022,-25 1054,-25 1054,-6 1022,-6"/>
<text text-anchor="middle" x="1038" y="-13" font-family="Helvetica,sans-Serif" font-size="10.00">set</text>
</a>
</g>
</g>
<!-- Node13&#45;&gt;Node16 -->
<g id="edge17" class="edge">
<title>Node13&#45;&gt;Node16</title>
<path fill="none" stroke="midnightblue" d="M574.63,-68.48C577.79,-67.94 580.93,-67.45 584,-67 773.36,-39.55 830.47,-88.39 1013,-31 1014.24,-30.61 1015.48,-30.15 1016.72,-29.64"/>
<polygon fill="midnightblue" stroke="midnightblue" points="1018.46,-32.68 1025.79,-25.02 1015.29,-26.44 1018.46,-32.68"/>
</g>
<!-- Node17 -->
<g id="node17" class="node">
<title>Node17</title>
<g id="a_node17"><a xlink:title=" ">
<polygon fill="white" stroke="#bfbfbf" points="426,-6 426,-25 566,-25 566,-6 426,-6"/>
<text text-anchor="middle" x="496" y="-13" font-family="Helvetica,sans-Serif" font-size="10.00">boost/asio/io_service.hpp</text>
</a>
</g>
</g>
<!-- Node13&#45;&gt;Node17 -->
<g id="edge18" class="edge">
<title>Node13&#45;&gt;Node17</title>
<path fill="none" stroke="midnightblue" d="M510.09,-67.4C507.45,-57.86 503.94,-45.18 501.08,-34.86"/>
<polygon fill="midnightblue" stroke="midnightblue" points="504.45,-33.9 498.41,-25.19 497.7,-35.77 504.45,-33.9"/>
</g>
<!-- Node18 -->
<g id="node18" class="node">
<title>Node18</title>
<g id="a_node18"><a xlink:title=" ">
<polygon fill="white" stroke="#bfbfbf" points="584.5,-6 584.5,-25 739.5,-25 739.5,-6 584.5,-6"/>
<text text-anchor="middle" x="662" y="-13" font-family="Helvetica,sans-Serif" font-size="10.00">boost/asio/steady_timer.hpp</text>
</a>
</g>
</g>
<!-- Node13&#45;&gt;Node18 -->
<g id="edge19" class="edge">
<title>Node13&#45;&gt;Node18</title>
<path fill="none" stroke="midnightblue" d="M546.11,-67.4C572.08,-55.99 608.31,-40.08 633.32,-29.1"/>
<polygon fill="midnightblue" stroke="midnightblue" points="634.88,-32.23 642.63,-25.01 632.07,-25.82 634.88,-32.23"/>
</g>
<!-- Node19 -->
<g id="node19" class="node">
<title>Node19</title>
<g id="a_node19"><a xlink:title=" ">
<polygon fill="white" stroke="#bfbfbf" points="758,-6 758,-25 876,-25 876,-6 758,-6"/>
<text text-anchor="middle" x="817" y="-13" font-family="Helvetica,sans-Serif" font-size="10.00">vsomeip/defines.hpp</text>
</a>
</g>
</g>
<!-- Node13&#45;&gt;Node19 -->
<g id="edge20" class="edge">
<title>Node13&#45;&gt;Node19</title>
<path fill="none" stroke="midnightblue" d="M574.59,-68.5C631.21,-56.36 714.72,-38.44 767.46,-27.13"/>
<polygon fill="midnightblue" stroke="midnightblue" points="768.22,-30.54 777.26,-25.02 766.75,-23.7 768.22,-30.54"/>
</g>
</g>
</svg>
