<?xml version="1.0" encoding="UTF-8" standalone="no"?>
<!DOCTYPE svg PUBLIC "-//W3C//DTD SVG 1.1//EN"
 "http://www.w3.org/Graphics/SVG/1.1/DTD/svg11.dtd">
<!-- Generated by graphviz version 2.43.0 (0)
 -->
<!-- Title: /home/kali/projects/vsomeip/implementation/tracing/src/connector_impl.cpp Pages: 1 -->
<svg width="1565pt" height="262pt"
 viewBox="0.00 0.00 1564.56 262.00" xmlns="http://www.w3.org/2000/svg" xmlns:xlink="http://www.w3.org/1999/xlink">
<g id="graph0" class="graph" transform="scale(1 1) rotate(0) translate(4 258)">
<title>/home/kali/projects/vsomeip/implementation/tracing/src/connector_impl.cpp</title>
<polygon fill="white" stroke="transparent" points="-4,4 -4,-258 1560.56,-258 1560.56,4 -4,4"/>
<!-- Node1 -->
<g id="node1" class="node">
<title>Node1</title>
<g id="a_node1"><a xlink:title=" ">
<polygon fill="#bfbfbf" stroke="black" points="510.06,-201.5 510.06,-253.5 653.06,-253.5 653.06,-201.5 510.06,-201.5"/>
<text text-anchor="start" x="518.06" y="-241.5" font-family="Helvetica,sans-Serif" font-size="10.00">/home/kali/projects</text>
<text text-anchor="start" x="518.06" y="-230.5" font-family="Helvetica,sans-Serif" font-size="10.00">/vsomeip/implementation</text>
<text text-anchor="start" x="518.06" y="-219.5" font-family="Helvetica,sans-Serif" font-size="10.00">/tracing/src/connector</text>
<text text-anchor="middle" x="581.56" y="-208.5" font-family="Helvetica,sans-Serif" font-size="10.00">_impl.cpp</text>
</a>
</g>
</g>
<!-- Node2 -->
<g id="node2" class="node">
<title>Node2</title>
<g id="a_node2"><a xlink:title=" ">
<polygon fill="white" stroke="#bfbfbf" points="40.56,-140 40.56,-159 170.56,-159 170.56,-140 40.56,-140"/>
<text text-anchor="middle" x="105.56" y="-147" font-family="Helvetica,sans-Serif" font-size="10.00">vsomeip/constants.hpp</text>
</a>
</g>
</g>
<!-- Node1&#45;&gt;Node2 -->
<g id="edge1" class="edge">
<title>Node1&#45;&gt;Node2</title>
<path fill="none" stroke="midnightblue" d="M509.88,-216.45C429.37,-204.96 294.84,-185.1 179.56,-165 172.38,-163.75 164.82,-162.35 157.39,-160.94"/>
<polygon fill="midnightblue" stroke="midnightblue" points="157.86,-157.47 147.38,-159.01 156.53,-164.34 157.86,-157.47"/>
</g>
<!-- Node3 -->
<g id="node3" class="node">
<title>Node3</title>
<g id="a_node3"><a xlink:href="logger_8hpp.html" target="_top" xlink:title=" ">
<polygon fill="white" stroke="black" points="1135.06,-140 1135.06,-159 1288.06,-159 1288.06,-140 1135.06,-140"/>
<text text-anchor="middle" x="1211.56" y="-147" font-family="Helvetica,sans-Serif" font-size="10.00">vsomeip/internal/logger.hpp</text>
</a>
</g>
</g>
<!-- Node1&#45;&gt;Node3 -->
<g id="edge2" class="edge">
<title>Node1&#45;&gt;Node3</title>
<path fill="none" stroke="midnightblue" d="M653.21,-217.86C771.47,-203.59 1006.73,-175.21 1130.75,-160.25"/>
<polygon fill="midnightblue" stroke="midnightblue" points="1131.43,-163.69 1140.94,-159.02 1130.59,-156.74 1131.43,-163.69"/>
</g>
<!-- Node11 -->
<g id="node11" class="node">
<title>Node11</title>
<g id="a_node11"><a xlink:href="channel__impl_8hpp.html" target="_top" xlink:title=" ">
<polygon fill="white" stroke="black" points="330.56,-134.5 330.56,-164.5 432.56,-164.5 432.56,-134.5 330.56,-134.5"/>
<text text-anchor="start" x="338.56" y="-152.5" font-family="Helvetica,sans-Serif" font-size="10.00">../include/channel</text>
<text text-anchor="middle" x="381.56" y="-141.5" font-family="Helvetica,sans-Serif" font-size="10.00">_impl.hpp</text>
</a>
</g>
</g>
<!-- Node1&#45;&gt;Node11 -->
<g id="edge10" class="edge">
<title>Node1&#45;&gt;Node11</title>
<path fill="none" stroke="midnightblue" d="M515.52,-201.4C486.97,-190.55 454.22,-178.11 428.25,-168.24"/>
<polygon fill="midnightblue" stroke="midnightblue" points="429.25,-164.88 418.66,-164.6 426.76,-171.42 429.25,-164.88"/>
</g>
<!-- Node17 -->
<g id="node17" class="node">
<title>Node17</title>
<g id="a_node17"><a xlink:href="connector__impl_8hpp.html" target="_top" xlink:title=" ">
<polygon fill="white" stroke="black" points="525.56,-134.5 525.56,-164.5 637.56,-164.5 637.56,-134.5 525.56,-134.5"/>
<text text-anchor="start" x="533.56" y="-152.5" font-family="Helvetica,sans-Serif" font-size="10.00">../include/connector</text>
<text text-anchor="middle" x="581.56" y="-141.5" font-family="Helvetica,sans-Serif" font-size="10.00">_impl.hpp</text>
</a>
</g>
</g>
<!-- Node1&#45;&gt;Node17 -->
<g id="edge17" class="edge">
<title>Node1&#45;&gt;Node17</title>
<path fill="none" stroke="midnightblue" d="M581.56,-201.19C581.56,-192.79 581.56,-183.44 581.56,-175.09"/>
<polygon fill="midnightblue" stroke="midnightblue" points="585.06,-174.85 581.56,-164.85 578.06,-174.85 585.06,-174.85"/>
</g>
<!-- Node31 -->
<g id="node31" class="node">
<title>Node31</title>
<g id="a_node31"><a xlink:href="implementation_2tracing_2include_2defines_8hpp.html" target="_top" xlink:title=" ">
<polygon fill="white" stroke="black" points="1306.56,-140 1306.56,-159 1426.56,-159 1426.56,-140 1306.56,-140"/>
<text text-anchor="middle" x="1366.56" y="-147" font-family="Helvetica,sans-Serif" font-size="10.00">../include/defines.hpp</text>
</a>
</g>
</g>
<!-- Node1&#45;&gt;Node31 -->
<g id="edge39" class="edge">
<title>Node1&#45;&gt;Node31</title>
<path fill="none" stroke="midnightblue" d="M653.28,-223.23C782.6,-216.69 1063.2,-199.56 1297.56,-165 1304.97,-163.91 1312.78,-162.51 1320.37,-161.01"/>
<polygon fill="midnightblue" stroke="midnightblue" points="1321.09,-164.44 1330.18,-159.01 1319.68,-157.58 1321.09,-164.44"/>
</g>
<!-- Node32 -->
<g id="node32" class="node">
<title>Node32</title>
<g id="a_node32"><a xlink:href="implementation_2configuration_2include_2trace_8hpp.html" target="_top" xlink:title=" ">
<polygon fill="white" stroke="black" points="188.56,-134.5 188.56,-164.5 292.56,-164.5 292.56,-134.5 188.56,-134.5"/>
<text text-anchor="start" x="196.56" y="-152.5" font-family="Helvetica,sans-Serif" font-size="10.00">../../configuration</text>
<text text-anchor="middle" x="240.56" y="-141.5" font-family="Helvetica,sans-Serif" font-size="10.00">/include/trace.hpp</text>
</a>
</g>
</g>
<!-- Node1&#45;&gt;Node32 -->
<g id="edge40" class="edge">
<title>Node1&#45;&gt;Node32</title>
<path fill="none" stroke="midnightblue" d="M509.66,-210.48C448.24,-196.79 360.82,-177.3 302.46,-164.3"/>
<polygon fill="midnightblue" stroke="midnightblue" points="303.16,-160.87 292.64,-162.11 301.64,-167.7 303.16,-160.87"/>
</g>
<!-- Node33 -->
<g id="node33" class="node">
<title>Node33</title>
<g id="a_node33"><a xlink:href="byteorder_8hpp.html" target="_top" xlink:title=" ">
<polygon fill="white" stroke="black" points="1445.06,-134.5 1445.06,-164.5 1546.06,-164.5 1546.06,-134.5 1445.06,-134.5"/>
<text text-anchor="start" x="1453.06" y="-152.5" font-family="Helvetica,sans-Serif" font-size="10.00">../../utility/include</text>
<text text-anchor="middle" x="1495.56" y="-141.5" font-family="Helvetica,sans-Serif" font-size="10.00">/byteorder.hpp</text>
</a>
</g>
</g>
<!-- Node1&#45;&gt;Node33 -->
<g id="edge45" class="edge">
<title>Node1&#45;&gt;Node33</title>
<path fill="none" stroke="midnightblue" d="M653.15,-225.33C798.81,-222.09 1140.09,-210.08 1434.91,-164.91"/>
<polygon fill="midnightblue" stroke="midnightblue" points="1435.59,-168.34 1444.94,-163.36 1434.52,-161.43 1435.59,-168.34"/>
</g>
<!-- Node4 -->
<g id="node4" class="node">
<title>Node4</title>
<g id="a_node4"><a xlink:title=" ">
<polygon fill="white" stroke="#bfbfbf" points="1273.56,-6 1273.56,-25 1323.56,-25 1323.56,-6 1273.56,-6"/>
<text text-anchor="middle" x="1298.56" y="-13" font-family="Helvetica,sans-Serif" font-size="10.00">chrono</text>
</a>
</g>
</g>
<!-- Node3&#45;&gt;Node4 -->
<g id="edge3" class="edge">
<title>Node3&#45;&gt;Node4</title>
<path fill="none" stroke="midnightblue" d="M1248.02,-139.94C1269.98,-132.71 1296.21,-119.9 1309.56,-98 1321.31,-78.72 1314.34,-52.15 1307.3,-34.66"/>
<polygon fill="midnightblue" stroke="midnightblue" points="1310.32,-32.82 1303.07,-25.09 1303.91,-35.65 1310.32,-32.82"/>
</g>
<!-- Node5 -->
<g id="node5" class="node">
<title>Node5</title>
<g id="a_node5"><a xlink:title=" ">
<polygon fill="white" stroke="#bfbfbf" points="1356.56,-73 1356.56,-92 1406.56,-92 1406.56,-73 1356.56,-73"/>
<text text-anchor="middle" x="1381.56" y="-80" font-family="Helvetica,sans-Serif" font-size="10.00">cstdint</text>
</a>
</g>
</g>
<!-- Node3&#45;&gt;Node5 -->
<g id="edge4" class="edge">
<title>Node3&#45;&gt;Node5</title>
<path fill="none" stroke="midnightblue" d="M1234.13,-139.87C1263.81,-128.52 1316.11,-108.52 1349.78,-95.65"/>
<polygon fill="midnightblue" stroke="midnightblue" points="1351.07,-98.9 1359.16,-92.06 1348.57,-92.37 1351.07,-98.9"/>
</g>
<!-- Node6 -->
<g id="node6" class="node">
<title>Node6</title>
<g id="a_node6"><a xlink:title=" ">
<polygon fill="white" stroke="#bfbfbf" points="518.56,-73 518.56,-92 566.56,-92 566.56,-73 518.56,-73"/>
<text text-anchor="middle" x="542.56" y="-80" font-family="Helvetica,sans-Serif" font-size="10.00">mutex</text>
</a>
</g>
</g>
<!-- Node3&#45;&gt;Node6 -->
<g id="edge5" class="edge">
<title>Node3&#45;&gt;Node6</title>
<path fill="none" stroke="midnightblue" d="M1134.93,-145.62C989.66,-139.63 679.48,-124.16 575.56,-98 573.26,-97.42 570.91,-96.69 568.58,-95.88"/>
<polygon fill="midnightblue" stroke="midnightblue" points="569.89,-92.63 559.3,-92.15 567.28,-99.12 569.89,-92.63"/>
</g>
<!-- Node7 -->
<g id="node7" class="node">
<title>Node7</title>
<g id="a_node7"><a xlink:title=" ">
<polygon fill="white" stroke="#bfbfbf" points="1425.06,-73 1425.06,-92 1482.06,-92 1482.06,-73 1425.06,-73"/>
<text text-anchor="middle" x="1453.56" y="-80" font-family="Helvetica,sans-Serif" font-size="10.00">ostream</text>
</a>
</g>
</g>
<!-- Node3&#45;&gt;Node7 -->
<g id="edge6" class="edge">
<title>Node3&#45;&gt;Node7</title>
<path fill="none" stroke="midnightblue" d="M1252.22,-139.97C1293.68,-130.91 1359.68,-115.51 1415.56,-98 1417.98,-97.24 1420.46,-96.41 1422.95,-95.55"/>
<polygon fill="midnightblue" stroke="midnightblue" points="1424.22,-98.81 1432.42,-92.09 1421.82,-92.23 1424.22,-98.81"/>
</g>
<!-- Node8 -->
<g id="node8" class="node">
<title>Node8</title>
<g id="a_node8"><a xlink:title=" ">
<polygon fill="white" stroke="#bfbfbf" points="1500.56,-73 1500.56,-92 1556.56,-92 1556.56,-73 1500.56,-73"/>
<text text-anchor="middle" x="1528.56" y="-80" font-family="Helvetica,sans-Serif" font-size="10.00">sstream</text>
</a>
</g>
</g>
<!-- Node3&#45;&gt;Node8 -->
<g id="edge7" class="edge">
<title>Node3&#45;&gt;Node8</title>
<path fill="none" stroke="midnightblue" d="M1261.88,-139.97C1336.44,-127.25 1469.85,-104.15 1491.56,-98 1494.15,-97.27 1496.8,-96.42 1499.45,-95.51"/>
<polygon fill="midnightblue" stroke="midnightblue" points="1500.66,-98.8 1508.83,-92.05 1498.24,-92.23 1500.66,-98.8"/>
</g>
<!-- Node9 -->
<g id="node9" class="node">
<title>Node9</title>
<g id="a_node9"><a xlink:title=" ">
<polygon fill="white" stroke="#bfbfbf" points="1233.06,-73 1233.06,-92 1300.06,-92 1300.06,-73 1233.06,-73"/>
<text text-anchor="middle" x="1266.56" y="-80" font-family="Helvetica,sans-Serif" font-size="10.00">streambuf</text>
</a>
</g>
</g>
<!-- Node3&#45;&gt;Node9 -->
<g id="edge8" class="edge">
<title>Node3&#45;&gt;Node9</title>
<path fill="none" stroke="midnightblue" d="M1218.98,-139.73C1227.55,-129.6 1241.86,-112.69 1252.55,-100.06"/>
<polygon fill="midnightblue" stroke="midnightblue" points="1255.47,-102.02 1259.26,-92.13 1250.13,-97.5 1255.47,-102.02"/>
</g>
<!-- Node10 -->
<g id="node10" class="node">
<title>Node10</title>
<g id="a_node10"><a xlink:title=" ">
<polygon fill="white" stroke="#bfbfbf" points="1100.56,-73 1100.56,-92 1214.56,-92 1214.56,-73 1100.56,-73"/>
<text text-anchor="middle" x="1157.56" y="-80" font-family="Helvetica,sans-Serif" font-size="10.00">vsomeip/export.hpp</text>
</a>
</g>
</g>
<!-- Node3&#45;&gt;Node10 -->
<g id="edge9" class="edge">
<title>Node3&#45;&gt;Node10</title>
<path fill="none" stroke="midnightblue" d="M1204.28,-139.73C1195.86,-129.6 1181.81,-112.69 1171.31,-100.06"/>
<polygon fill="midnightblue" stroke="midnightblue" points="1173.81,-97.58 1164.73,-92.13 1168.42,-102.06 1173.81,-97.58"/>
</g>
<!-- Node11&#45;&gt;Node6 -->
<g id="edge14" class="edge">
<title>Node11&#45;&gt;Node6</title>
<path fill="none" stroke="midnightblue" d="M416.49,-134.4C444.99,-122.89 484.85,-106.8 512.08,-95.81"/>
<polygon fill="midnightblue" stroke="midnightblue" points="513.53,-99 521.49,-92.01 510.9,-92.51 513.53,-99"/>
</g>
<!-- Node12 -->
<g id="node12" class="node">
<title>Node12</title>
<g id="a_node12"><a xlink:title=" ">
<polygon fill="white" stroke="#bfbfbf" points="356.56,-73 356.56,-92 406.56,-92 406.56,-73 356.56,-73"/>
<text text-anchor="middle" x="381.56" y="-80" font-family="Helvetica,sans-Serif" font-size="10.00">atomic</text>
</a>
</g>
</g>
<!-- Node11&#45;&gt;Node12 -->
<g id="edge11" class="edge">
<title>Node11&#45;&gt;Node12</title>
<path fill="none" stroke="midnightblue" d="M381.56,-134.4C381.56,-125.06 381.56,-112.71 381.56,-102.52"/>
<polygon fill="midnightblue" stroke="midnightblue" points="385.06,-102.19 381.56,-92.19 378.06,-102.19 385.06,-102.19"/>
</g>
<!-- Node13 -->
<g id="node13" class="node">
<title>Node13</title>
<g id="a_node13"><a xlink:title=" ">
<polygon fill="white" stroke="#bfbfbf" points="83.06,-73 83.06,-92 148.06,-92 148.06,-73 83.06,-73"/>
<text text-anchor="middle" x="115.56" y="-80" font-family="Helvetica,sans-Serif" font-size="10.00">functional</text>
</a>
</g>
</g>
<!-- Node11&#45;&gt;Node13 -->
<g id="edge12" class="edge">
<title>Node11&#45;&gt;Node13</title>
<path fill="none" stroke="midnightblue" d="M330.18,-138.78C284.29,-129.68 215.42,-114.95 156.56,-98 153.77,-97.2 150.89,-96.31 148.02,-95.38"/>
<polygon fill="midnightblue" stroke="midnightblue" points="148.98,-92.01 138.39,-92.12 146.74,-98.64 148.98,-92.01"/>
</g>
<!-- Node14 -->
<g id="node14" class="node">
<title>Node14</title>
<g id="a_node14"><a xlink:title=" ">
<polygon fill="white" stroke="#bfbfbf" points="424.56,-73 424.56,-92 462.56,-92 462.56,-73 424.56,-73"/>
<text text-anchor="middle" x="443.56" y="-80" font-family="Helvetica,sans-Serif" font-size="10.00">map</text>
</a>
</g>
</g>
<!-- Node11&#45;&gt;Node14 -->
<g id="edge13" class="edge">
<title>Node11&#45;&gt;Node14</title>
<path fill="none" stroke="midnightblue" d="M395.01,-134.4C404.78,-124.16 418,-110.3 428.18,-99.62"/>
<polygon fill="midnightblue" stroke="midnightblue" points="430.9,-101.85 435.27,-92.19 425.83,-97.01 430.9,-101.85"/>
</g>
<!-- Node15 -->
<g id="node15" class="node">
<title>Node15</title>
<g id="a_node15"><a xlink:title=" ">
<polygon fill="white" stroke="#bfbfbf" points="20.56,-73 20.56,-92 64.56,-92 64.56,-73 20.56,-73"/>
<text text-anchor="middle" x="42.56" y="-80" font-family="Helvetica,sans-Serif" font-size="10.00">string</text>
</a>
</g>
</g>
<!-- Node11&#45;&gt;Node15 -->
<g id="edge15" class="edge">
<title>Node11&#45;&gt;Node15</title>
<path fill="none" stroke="midnightblue" d="M330.38,-139.04C320.81,-137.33 310.88,-135.58 301.56,-134 200.41,-116.85 171.65,-128.03 73.56,-98 71.68,-97.43 69.78,-96.76 67.88,-96.03"/>
<polygon fill="midnightblue" stroke="midnightblue" points="69.2,-92.79 58.63,-92.06 66.44,-99.22 69.2,-92.79"/>
</g>
<!-- Node16 -->
<g id="node16" class="node">
<title>Node16</title>
<g id="a_node16"><a xlink:title=" ">
<polygon fill="white" stroke="#bfbfbf" points="166.06,-73 166.06,-92 273.06,-92 273.06,-73 166.06,-73"/>
<text text-anchor="middle" x="219.56" y="-80" font-family="Helvetica,sans-Serif" font-size="10.00">vsomeip/trace.hpp</text>
</a>
</g>
</g>
<!-- Node11&#45;&gt;Node16 -->
<g id="edge16" class="edge">
<title>Node11&#45;&gt;Node16</title>
<path fill="none" stroke="midnightblue" d="M346.41,-134.4C317.73,-122.89 277.62,-106.8 250.23,-95.81"/>
<polygon fill="midnightblue" stroke="midnightblue" points="251.35,-92.48 240.76,-92.01 248.74,-98.98 251.35,-92.48"/>
</g>
<!-- Node17&#45;&gt;Node6 -->
<g id="edge18" class="edge">
<title>Node17&#45;&gt;Node6</title>
<path fill="none" stroke="midnightblue" d="M573.1,-134.4C567.2,-124.56 559.29,-111.38 552.99,-100.89"/>
<polygon fill="midnightblue" stroke="midnightblue" points="555.92,-98.97 547.78,-92.19 549.92,-102.57 555.92,-98.97"/>
</g>
<!-- Node17&#45;&gt;Node10 -->
<g id="edge23" class="edge">
<title>Node17&#45;&gt;Node10</title>
<path fill="none" stroke="midnightblue" d="M637.68,-145.11C731.9,-138.93 927.67,-124.02 1091.56,-98 1098.33,-96.92 1105.45,-95.58 1112.41,-94.16"/>
<polygon fill="midnightblue" stroke="midnightblue" points="1113.37,-97.53 1122.43,-92.02 1111.92,-90.68 1113.37,-97.53"/>
</g>
<!-- Node17&#45;&gt;Node14 -->
<g id="edge20" class="edge">
<title>Node17&#45;&gt;Node14</title>
<path fill="none" stroke="midnightblue" d="M551.62,-134.4C527.62,-123.09 494.22,-107.36 470.93,-96.39"/>
<polygon fill="midnightblue" stroke="midnightblue" points="472.16,-93.1 461.62,-92.01 469.18,-99.43 472.16,-93.1"/>
</g>
<!-- Node17&#45;&gt;Node16 -->
<g id="edge24" class="edge">
<title>Node17&#45;&gt;Node16</title>
<path fill="none" stroke="midnightblue" d="M525.52,-140.15C465.11,-130.89 366.22,-115.01 281.56,-98 275.87,-96.86 269.9,-95.57 264.01,-94.25"/>
<polygon fill="midnightblue" stroke="midnightblue" points="264.76,-90.83 254.23,-92.02 263.2,-97.66 264.76,-90.83"/>
</g>
<!-- Node18 -->
<g id="node18" class="node">
<title>Node18</title>
<g id="a_node18"><a xlink:title=" ">
<polygon fill="white" stroke="#bfbfbf" points="291.06,-73 291.06,-92 338.06,-92 338.06,-73 291.06,-73"/>
<text text-anchor="middle" x="314.56" y="-80" font-family="Helvetica,sans-Serif" font-size="10.00">vector</text>
</a>
</g>
</g>
<!-- Node17&#45;&gt;Node18 -->
<g id="edge19" class="edge">
<title>Node17&#45;&gt;Node18</title>
<path fill="none" stroke="midnightblue" d="M525.41,-139.66C477.48,-131.34 407.06,-117.28 347.56,-98 345.68,-97.39 343.77,-96.71 341.86,-95.99"/>
<polygon fill="midnightblue" stroke="midnightblue" points="343.04,-92.7 332.46,-92.15 340.39,-99.17 343.04,-92.7"/>
</g>
<!-- Node19 -->
<g id="node19" class="node">
<title>Node19</title>
<g id="a_node19"><a xlink:title=" ">
<polygon fill="white" stroke="#bfbfbf" points="813.06,-73 813.06,-92 932.06,-92 932.06,-73 813.06,-73"/>
<text text-anchor="middle" x="872.56" y="-80" font-family="Helvetica,sans-Serif" font-size="10.00">boost/shared_ptr.hpp</text>
</a>
</g>
</g>
<!-- Node17&#45;&gt;Node19 -->
<g id="edge21" class="edge">
<title>Node17&#45;&gt;Node19</title>
<path fill="none" stroke="midnightblue" d="M637.67,-135.97C691.86,-123.86 773.06,-105.72 824.4,-94.26"/>
<polygon fill="midnightblue" stroke="midnightblue" points="825.26,-97.65 834.25,-92.06 823.73,-90.82 825.26,-97.65"/>
</g>
<!-- Node20 -->
<g id="node20" class="node">
<title>Node20</title>
<g id="a_node20"><a xlink:title=" ">
<polygon fill="white" stroke="#bfbfbf" points="271.06,-6 271.06,-25 430.06,-25 430.06,-6 271.06,-6"/>
<text text-anchor="middle" x="350.56" y="-13" font-family="Helvetica,sans-Serif" font-size="10.00">vsomeip/primitive_types.hpp</text>
</a>
</g>
</g>
<!-- Node17&#45;&gt;Node20 -->
<g id="edge22" class="edge">
<title>Node17&#45;&gt;Node20</title>
<path fill="none" stroke="midnightblue" d="M560.48,-134.31C545.97,-124.4 526.36,-110.72 509.56,-98 492.18,-84.84 490.26,-78.2 471.56,-67 444.62,-50.86 411.56,-37.44 386.82,-28.51"/>
<polygon fill="midnightblue" stroke="midnightblue" points="387.69,-25.11 377.1,-25.07 385.36,-31.71 387.69,-25.11"/>
</g>
<!-- Node21 -->
<g id="node21" class="node">
<title>Node21</title>
<g id="a_node21"><a xlink:href="implementation_2tracing_2include_2enumeration__types_8hpp.html" target="_top" xlink:title=" ">
<polygon fill="white" stroke="black" points="950.56,-73 950.56,-92 1082.56,-92 1082.56,-73 950.56,-73"/>
<text text-anchor="middle" x="1016.56" y="-80" font-family="Helvetica,sans-Serif" font-size="10.00">enumeration_types.hpp</text>
</a>
</g>
</g>
<!-- Node17&#45;&gt;Node21 -->
<g id="edge25" class="edge">
<title>Node17&#45;&gt;Node21</title>
<path fill="none" stroke="midnightblue" d="M637.82,-141.52C708.78,-132.51 834.48,-115.85 941.56,-98 949.02,-96.76 956.87,-95.35 964.58,-93.91"/>
<polygon fill="midnightblue" stroke="midnightblue" points="965.41,-97.31 974.58,-92.01 964.1,-90.44 965.41,-97.31"/>
</g>
<!-- Node22 -->
<g id="node22" class="node">
<title>Node22</title>
<g id="a_node22"><a xlink:href="header_8hpp.html" target="_top" xlink:title=" ">
<polygon fill="white" stroke="black" points="585.06,-73 585.06,-92 656.06,-92 656.06,-73 585.06,-73"/>
<text text-anchor="middle" x="620.56" y="-80" font-family="Helvetica,sans-Serif" font-size="10.00">header.hpp</text>
</a>
</g>
</g>
<!-- Node17&#45;&gt;Node22 -->
<g id="edge26" class="edge">
<title>Node17&#45;&gt;Node22</title>
<path fill="none" stroke="midnightblue" d="M590.02,-134.4C595.92,-124.56 603.83,-111.38 610.12,-100.89"/>
<polygon fill="midnightblue" stroke="midnightblue" points="613.2,-102.57 615.34,-92.19 607.2,-98.97 613.2,-102.57"/>
</g>
<!-- Node25 -->
<g id="node25" class="node">
<title>Node25</title>
<g id="a_node25"><a xlink:href="endpoints_2include_2buffer_8hpp.html" target="_top" xlink:title=" ">
<polygon fill="white" stroke="black" points="674.06,-67.5 674.06,-97.5 795.06,-97.5 795.06,-67.5 674.06,-67.5"/>
<text text-anchor="start" x="682.06" y="-85.5" font-family="Helvetica,sans-Serif" font-size="10.00">../../endpoints/include</text>
<text text-anchor="middle" x="734.56" y="-74.5" font-family="Helvetica,sans-Serif" font-size="10.00">/buffer.hpp</text>
</a>
</g>
</g>
<!-- Node17&#45;&gt;Node25 -->
<g id="edge30" class="edge">
<title>Node17&#45;&gt;Node25</title>
<path fill="none" stroke="midnightblue" d="M614.76,-134.4C637.41,-124.77 667.62,-111.94 692.04,-101.56"/>
<polygon fill="midnightblue" stroke="midnightblue" points="693.59,-104.71 701.43,-97.58 690.85,-98.27 693.59,-104.71"/>
</g>
<!-- Node22&#45;&gt;Node20 -->
<g id="edge28" class="edge">
<title>Node22&#45;&gt;Node20</title>
<path fill="none" stroke="midnightblue" d="M595.45,-72.96C589,-70.9 582.05,-68.77 575.56,-67 517.39,-51.14 449.79,-36.46 403.99,-27.06"/>
<polygon fill="midnightblue" stroke="midnightblue" points="404.48,-23.59 393.98,-25.02 403.08,-30.45 404.48,-23.59"/>
</g>
<!-- Node23 -->
<g id="node23" class="node">
<title>Node23</title>
<g id="a_node23"><a xlink:title=" ">
<polygon fill="white" stroke="#bfbfbf" points="585.56,-6 585.56,-25 643.56,-25 643.56,-6 585.56,-6"/>
<text text-anchor="middle" x="614.56" y="-13" font-family="Helvetica,sans-Serif" font-size="10.00">memory</text>
</a>
</g>
</g>
<!-- Node22&#45;&gt;Node23 -->
<g id="edge27" class="edge">
<title>Node22&#45;&gt;Node23</title>
<path fill="none" stroke="midnightblue" d="M619.75,-72.73C618.87,-63.18 617.43,-47.62 616.29,-35.28"/>
<polygon fill="midnightblue" stroke="midnightblue" points="619.76,-34.76 615.36,-25.13 612.79,-35.41 619.76,-34.76"/>
</g>
<!-- Node24 -->
<g id="node24" class="node">
<title>Node24</title>
<g id="a_node24"><a xlink:title=" ">
<polygon fill="white" stroke="#bfbfbf" points="447.56,-0.5 447.56,-30.5 567.56,-30.5 567.56,-0.5 447.56,-0.5"/>
<text text-anchor="start" x="455.56" y="-18.5" font-family="Helvetica,sans-Serif" font-size="10.00">boost/asio/ip/address</text>
<text text-anchor="middle" x="507.56" y="-7.5" font-family="Helvetica,sans-Serif" font-size="10.00">_v4.hpp</text>
</a>
</g>
</g>
<!-- Node22&#45;&gt;Node24 -->
<g id="edge29" class="edge">
<title>Node22&#45;&gt;Node24</title>
<path fill="none" stroke="midnightblue" d="M605.32,-72.73C588.87,-63.27 562.17,-47.91 540.83,-35.64"/>
<polygon fill="midnightblue" stroke="midnightblue" points="542.47,-32.54 532.05,-30.59 538.98,-38.61 542.47,-32.54"/>
</g>
<!-- Node25&#45;&gt;Node4 -->
<g id="edge32" class="edge">
<title>Node25&#45;&gt;Node4</title>
<path fill="none" stroke="midnightblue" d="M795.19,-68.48C798.35,-67.94 801.49,-67.45 804.56,-67 992.59,-39.68 1042.61,-58.87 1230.56,-31 1241.31,-29.41 1252.9,-27.14 1263.42,-24.87"/>
<polygon fill="midnightblue" stroke="midnightblue" points="1264.51,-28.22 1273.51,-22.63 1262.99,-21.38 1264.51,-28.22"/>
</g>
<!-- Node25&#45;&gt;Node20 -->
<g id="edge38" class="edge">
<title>Node25&#45;&gt;Node20</title>
<path fill="none" stroke="midnightblue" d="M674.01,-68.6C671.16,-68.05 668.33,-67.51 665.56,-67 565.1,-48.49 539.4,-47.3 438.56,-31 430.01,-29.62 420.99,-28.15 412.12,-26.69"/>
<polygon fill="midnightblue" stroke="midnightblue" points="412.64,-23.23 402.2,-25.06 411.5,-30.14 412.64,-23.23"/>
</g>
<!-- Node25&#45;&gt;Node23 -->
<g id="edge33" class="edge">
<title>Node25&#45;&gt;Node23</title>
<path fill="none" stroke="midnightblue" d="M708.52,-67.4C687.93,-56.24 659.39,-40.78 639.18,-29.83"/>
<polygon fill="midnightblue" stroke="midnightblue" points="640.72,-26.69 630.26,-25.01 637.39,-32.85 640.72,-26.69"/>
</g>
<!-- Node26 -->
<g id="node26" class="node">
<title>Node26</title>
<g id="a_node26"><a xlink:title=" ">
<polygon fill="white" stroke="#bfbfbf" points="971.56,-6 971.56,-25 1013.56,-25 1013.56,-6 971.56,-6"/>
<text text-anchor="middle" x="992.56" y="-13" font-family="Helvetica,sans-Serif" font-size="10.00">array</text>
</a>
</g>
</g>
<!-- Node25&#45;&gt;Node26 -->
<g id="edge31" class="edge">
<title>Node25&#45;&gt;Node26</title>
<path fill="none" stroke="midnightblue" d="M795.08,-68.85C857.16,-55.76 946.81,-36.47 962.56,-31 964.17,-30.44 965.82,-29.81 967.46,-29.15"/>
<polygon fill="midnightblue" stroke="midnightblue" points="968.96,-32.31 976.66,-25.03 966.1,-25.92 968.96,-32.31"/>
</g>
<!-- Node27 -->
<g id="node27" class="node">
<title>Node27</title>
<g id="a_node27"><a xlink:title=" ">
<polygon fill="white" stroke="#bfbfbf" points="1031.56,-6 1031.56,-25 1063.56,-25 1063.56,-6 1031.56,-6"/>
<text text-anchor="middle" x="1047.56" y="-13" font-family="Helvetica,sans-Serif" font-size="10.00">set</text>
</a>
</g>
</g>
<!-- Node25&#45;&gt;Node27 -->
<g id="edge34" class="edge">
<title>Node25&#45;&gt;Node27</title>
<path fill="none" stroke="midnightblue" d="M795.24,-68.77C798.39,-68.16 801.51,-67.57 804.56,-67 901.1,-49.04 930.13,-64.18 1022.56,-31 1023.6,-30.63 1024.64,-30.21 1025.69,-29.76"/>
<polygon fill="midnightblue" stroke="midnightblue" points="1027.46,-32.79 1034.76,-25.11 1024.26,-26.56 1027.46,-32.79"/>
</g>
<!-- Node28 -->
<g id="node28" class="node">
<title>Node28</title>
<g id="a_node28"><a xlink:title=" ">
<polygon fill="white" stroke="#bfbfbf" points="1081.56,-6 1081.56,-25 1221.56,-25 1221.56,-6 1081.56,-6"/>
<text text-anchor="middle" x="1151.56" y="-13" font-family="Helvetica,sans-Serif" font-size="10.00">boost/asio/io_service.hpp</text>
</a>
</g>
</g>
<!-- Node25&#45;&gt;Node28 -->
<g id="edge35" class="edge">
<title>Node25&#45;&gt;Node28</title>
<path fill="none" stroke="midnightblue" d="M795.22,-68.66C798.37,-68.08 801.5,-67.52 804.56,-67 923.03,-46.8 953.87,-49.85 1072.56,-31 1080.59,-29.72 1089.06,-28.28 1097.35,-26.8"/>
<polygon fill="midnightblue" stroke="midnightblue" points="1098.11,-30.22 1107.33,-25 1096.87,-23.33 1098.11,-30.22"/>
</g>
<!-- Node29 -->
<g id="node29" class="node">
<title>Node29</title>
<g id="a_node29"><a xlink:title=" ">
<polygon fill="white" stroke="#bfbfbf" points="662.06,-6 662.06,-25 817.06,-25 817.06,-6 662.06,-6"/>
<text text-anchor="middle" x="739.56" y="-13" font-family="Helvetica,sans-Serif" font-size="10.00">boost/asio/steady_timer.hpp</text>
</a>
</g>
</g>
<!-- Node25&#45;&gt;Node29 -->
<g id="edge36" class="edge">
<title>Node25&#45;&gt;Node29</title>
<path fill="none" stroke="midnightblue" d="M735.64,-67.4C736.37,-57.96 737.33,-45.45 738.12,-35.19"/>
<polygon fill="midnightblue" stroke="midnightblue" points="741.61,-35.43 738.89,-25.19 734.63,-34.9 741.61,-35.43"/>
</g>
<!-- Node30 -->
<g id="node30" class="node">
<title>Node30</title>
<g id="a_node30"><a xlink:title=" ">
<polygon fill="white" stroke="#bfbfbf" points="835.56,-6 835.56,-25 953.56,-25 953.56,-6 835.56,-6"/>
<text text-anchor="middle" x="894.56" y="-13" font-family="Helvetica,sans-Serif" font-size="10.00">vsomeip/defines.hpp</text>
</a>
</g>
</g>
<!-- Node25&#45;&gt;Node30 -->
<g id="edge37" class="edge">
<title>Node25&#45;&gt;Node30</title>
<path fill="none" stroke="midnightblue" d="M769.28,-67.4C797.6,-55.89 837.21,-39.8 864.26,-28.81"/>
<polygon fill="midnightblue" stroke="midnightblue" points="865.67,-32.01 873.62,-25.01 863.04,-25.53 865.67,-32.01"/>
</g>
<!-- Node32&#45;&gt;Node15 -->
<g id="edge41" class="edge">
<title>Node32&#45;&gt;Node15</title>
<path fill="none" stroke="midnightblue" d="M188.38,-134.81C155.12,-125.57 111.32,-112.46 73.56,-98 72.14,-97.46 70.69,-96.88 69.24,-96.27"/>
<polygon fill="midnightblue" stroke="midnightblue" points="70.31,-92.92 59.75,-92.08 67.48,-99.32 70.31,-92.92"/>
</g>
<!-- Node32&#45;&gt;Node16 -->
<g id="edge44" class="edge">
<title>Node32&#45;&gt;Node16</title>
<path fill="none" stroke="midnightblue" d="M236,-134.4C232.92,-124.86 228.83,-112.18 225.49,-101.86"/>
<polygon fill="midnightblue" stroke="midnightblue" points="228.77,-100.63 222.37,-92.19 222.11,-102.79 228.77,-100.63"/>
</g>
<!-- Node32&#45;&gt;Node18 -->
<g id="edge42" class="edge">
<title>Node32&#45;&gt;Node18</title>
<path fill="none" stroke="midnightblue" d="M256.62,-134.4C268.5,-123.96 284.67,-109.75 296.92,-99"/>
<polygon fill="midnightblue" stroke="midnightblue" points="299.46,-101.42 304.66,-92.19 294.84,-96.16 299.46,-101.42"/>
</g>
<!-- Node32&#45;&gt;Node20 -->
<g id="edge43" class="edge">
<title>Node32&#45;&gt;Node20</title>
<path fill="none" stroke="midnightblue" d="M188.33,-136C185.37,-135.32 182.43,-134.65 179.56,-134 101.15,-116.28 -40.93,-127.88 11.56,-67 43.12,-30.38 171.19,-19.91 260.54,-17.14"/>
<polygon fill="midnightblue" stroke="midnightblue" points="260.79,-20.63 270.69,-16.85 260.6,-13.63 260.79,-20.63"/>
</g>
</g>
</svg>
