<?xml version="1.0" encoding="UTF-8" standalone="no"?>
<!DOCTYPE svg PUBLIC "-//W3C//DTD SVG 1.1//EN"
 "http://www.w3.org/Graphics/SVG/1.1/DTD/svg11.dtd">
<!-- Generated by graphviz version 2.43.0 (0)
 -->
<!-- Title: /home/kali/projects/vsomeip/implementation/e2e_protection/include/crc/crc.hpp Pages: 1 -->
<svg width="682pt" height="161pt"
 viewBox="0.00 0.00 682.00 161.00" xmlns="http://www.w3.org/2000/svg" xmlns:xlink="http://www.w3.org/1999/xlink">
<g id="graph0" class="graph" transform="scale(1 1) rotate(0) translate(4 157)">
<title>/home/kali/projects/vsomeip/implementation/e2e_protection/include/crc/crc.hpp</title>
<polygon fill="white" stroke="transparent" points="-4,4 -4,-157 678,-157 678,4 -4,4"/>
<!-- Node1 -->
<g id="node1" class="node">
<title>Node1</title>
<g id="a_node1"><a xlink:title=" ">
<polygon fill="#bfbfbf" stroke="black" points="265,-100.5 265,-152.5 408,-152.5 408,-100.5 265,-100.5"/>
<text text-anchor="start" x="273" y="-140.5" font-family="Helvetica,sans-Serif" font-size="10.00">/home/kali/projects</text>
<text text-anchor="start" x="273" y="-129.5" font-family="Helvetica,sans-Serif" font-size="10.00">/vsomeip/implementation</text>
<text text-anchor="start" x="273" y="-118.5" font-family="Helvetica,sans-Serif" font-size="10.00">/e2e_protection/include</text>
<text text-anchor="middle" x="336.5" y="-107.5" font-family="Helvetica,sans-Serif" font-size="10.00">/crc/crc.hpp</text>
</a>
</g>
</g>
<!-- Node2 -->
<g id="node2" class="node">
<title>Node2</title>
<g id="a_node2"><a xlink:href="crc_8cpp.html" target="_top" xlink:title=" ">
<polygon fill="white" stroke="black" points="0,-6 0,-58 143,-58 143,-6 0,-6"/>
<text text-anchor="start" x="8" y="-46" font-family="Helvetica,sans-Serif" font-size="10.00">/home/kali/projects</text>
<text text-anchor="start" x="8" y="-35" font-family="Helvetica,sans-Serif" font-size="10.00">/vsomeip/implementation</text>
<text text-anchor="start" x="8" y="-24" font-family="Helvetica,sans-Serif" font-size="10.00">/e2e_protection/src/crc</text>
<text text-anchor="middle" x="71.5" y="-13" font-family="Helvetica,sans-Serif" font-size="10.00">/crc.cpp</text>
</a>
</g>
</g>
<!-- Node1&#45;&gt;Node2 -->
<g id="edge1" class="edge">
<title>Node1&#45;&gt;Node2</title>
<path fill="none" stroke="midnightblue" d="M254.77,-99.28C222.48,-88.67 185.12,-76.1 151.5,-64 146.31,-62.13 140.96,-60.16 135.58,-58.15"/>
<polygon fill="midnightblue" stroke="midnightblue" points="254.03,-102.72 264.62,-102.51 256.21,-96.07 254.03,-102.72"/>
</g>
<!-- Node3 -->
<g id="node3" class="node">
<title>Node3</title>
<g id="a_node3"><a xlink:href="profile__01_8cpp.html" target="_top" xlink:title=" ">
<polygon fill="white" stroke="black" points="161,-6 161,-58 328,-58 328,-6 161,-6"/>
<text text-anchor="start" x="169" y="-46" font-family="Helvetica,sans-Serif" font-size="10.00">/home/kali/projects</text>
<text text-anchor="start" x="169" y="-35" font-family="Helvetica,sans-Serif" font-size="10.00">/vsomeip/implementation</text>
<text text-anchor="start" x="169" y="-24" font-family="Helvetica,sans-Serif" font-size="10.00">/e2e_protection/src/e2e</text>
<text text-anchor="middle" x="244.5" y="-13" font-family="Helvetica,sans-Serif" font-size="10.00">/profile/profile01/profile_01.cpp</text>
</a>
</g>
</g>
<!-- Node1&#45;&gt;Node3 -->
<g id="edge2" class="edge">
<title>Node1&#45;&gt;Node3</title>
<path fill="none" stroke="midnightblue" d="M304.12,-92.95C292.79,-81.56 280.25,-68.95 269.61,-58.25"/>
<polygon fill="midnightblue" stroke="midnightblue" points="301.83,-95.6 311.36,-100.22 306.79,-90.67 301.83,-95.6"/>
</g>
<!-- Node4 -->
<g id="node4" class="node">
<title>Node4</title>
<g id="a_node4"><a xlink:href="profile__04_8cpp.html" target="_top" xlink:title=" ">
<polygon fill="white" stroke="black" points="346,-6 346,-58 513,-58 513,-6 346,-6"/>
<text text-anchor="start" x="354" y="-46" font-family="Helvetica,sans-Serif" font-size="10.00">/home/kali/projects</text>
<text text-anchor="start" x="354" y="-35" font-family="Helvetica,sans-Serif" font-size="10.00">/vsomeip/implementation</text>
<text text-anchor="start" x="354" y="-24" font-family="Helvetica,sans-Serif" font-size="10.00">/e2e_protection/src/e2e</text>
<text text-anchor="middle" x="429.5" y="-13" font-family="Helvetica,sans-Serif" font-size="10.00">/profile/profile04/profile_04.cpp</text>
</a>
</g>
</g>
<!-- Node1&#45;&gt;Node4 -->
<g id="edge3" class="edge">
<title>Node1&#45;&gt;Node4</title>
<path fill="none" stroke="midnightblue" d="M369.23,-92.95C380.68,-81.56 393.36,-68.95 404.12,-58.25"/>
<polygon fill="midnightblue" stroke="midnightblue" points="366.53,-90.69 361.91,-100.22 371.47,-95.65 366.53,-90.69"/>
</g>
<!-- Node5 -->
<g id="node5" class="node">
<title>Node5</title>
<g id="a_node5"><a xlink:href="profile__custom_8cpp.html" target="_top" xlink:title=" ">
<polygon fill="white" stroke="black" points="531,-0.5 531,-63.5 674,-63.5 674,-0.5 531,-0.5"/>
<text text-anchor="start" x="539" y="-51.5" font-family="Helvetica,sans-Serif" font-size="10.00">/home/kali/projects</text>
<text text-anchor="start" x="539" y="-40.5" font-family="Helvetica,sans-Serif" font-size="10.00">/vsomeip/implementation</text>
<text text-anchor="start" x="539" y="-29.5" font-family="Helvetica,sans-Serif" font-size="10.00">/e2e_protection/src/e2e</text>
<text text-anchor="start" x="539" y="-18.5" font-family="Helvetica,sans-Serif" font-size="10.00">/profile/profile_custom</text>
<text text-anchor="middle" x="602.5" y="-7.5" font-family="Helvetica,sans-Serif" font-size="10.00">/profile_custom.cpp</text>
</a>
</g>
</g>
<!-- Node1&#45;&gt;Node5 -->
<g id="edge4" class="edge">
<title>Node1&#45;&gt;Node5</title>
<path fill="none" stroke="midnightblue" d="M418.26,-99.45C450.82,-88.82 488.56,-76.18 522.5,-64 525.16,-63.04 527.87,-62.06 530.61,-61.06"/>
<polygon fill="midnightblue" stroke="midnightblue" points="416.76,-96.26 408.33,-102.68 418.92,-102.92 416.76,-96.26"/>
</g>
</g>
</svg>
