<?xml version="1.0" encoding="UTF-8" standalone="no"?>
<!DOCTYPE svg PUBLIC "-//W3C//DTD SVG 1.1//EN"
 "http://www.w3.org/Graphics/SVG/1.1/DTD/svg11.dtd">
<!-- Generated by graphviz version 2.43.0 (0)
 -->
<!-- Title: /home/kali/projects/vsomeip/implementation/endpoints/src/credentials.cpp Pages: 1 -->
<svg width="879pt" height="173pt"
 viewBox="0.00 0.00 879.00 173.00" xmlns="http://www.w3.org/2000/svg" xmlns:xlink="http://www.w3.org/1999/xlink">
<g id="graph0" class="graph" transform="scale(1 1) rotate(0) translate(4 169)">
<title>/home/kali/projects/vsomeip/implementation/endpoints/src/credentials.cpp</title>
<polygon fill="white" stroke="transparent" points="-4,4 -4,-169 875,-169 875,4 -4,4"/>
<!-- Node1 -->
<g id="node1" class="node">
<title>Node1</title>
<g id="a_node1"><a xlink:title=" ">
<polygon fill="#bfbfbf" stroke="black" points="360.5,-123.5 360.5,-164.5 522.5,-164.5 522.5,-123.5 360.5,-123.5"/>
<text text-anchor="start" x="368.5" y="-152.5" font-family="Helvetica,sans-Serif" font-size="10.00">/home/kali/projects</text>
<text text-anchor="start" x="368.5" y="-141.5" font-family="Helvetica,sans-Serif" font-size="10.00">/vsomeip/implementation</text>
<text text-anchor="middle" x="441.5" y="-130.5" font-family="Helvetica,sans-Serif" font-size="10.00">/endpoints/src/credentials.cpp</text>
</a>
</g>
</g>
<!-- Node2 -->
<g id="node2" class="node">
<title>Node2</title>
<g id="a_node2"><a xlink:title=" ">
<polygon fill="white" stroke="#bfbfbf" points="188,-62 188,-81 265,-81 265,-62 188,-62"/>
<text text-anchor="middle" x="226.5" y="-69" font-family="Helvetica,sans-Serif" font-size="10.00">sys/socket.h</text>
</a>
</g>
</g>
<!-- Node1&#45;&gt;Node2 -->
<g id="edge1" class="edge">
<title>Node1&#45;&gt;Node2</title>
<path fill="none" stroke="midnightblue" d="M381.9,-123.46C343.38,-110.83 294.55,-94.81 262.01,-84.14"/>
<polygon fill="midnightblue" stroke="midnightblue" points="263.05,-80.8 252.46,-81.01 260.87,-87.45 263.05,-80.8"/>
</g>
<!-- Node3 -->
<g id="node3" class="node">
<title>Node3</title>
<g id="a_node3"><a xlink:href="credentials_8hpp.html" target="_top" xlink:title=" ">
<polygon fill="white" stroke="black" points="454,-62 454,-81 593,-81 593,-62 454,-62"/>
<text text-anchor="middle" x="523.5" y="-69" font-family="Helvetica,sans-Serif" font-size="10.00">../include/credentials.hpp</text>
</a>
</g>
</g>
<!-- Node1&#45;&gt;Node3 -->
<g id="edge2" class="edge">
<title>Node1&#45;&gt;Node3</title>
<path fill="none" stroke="midnightblue" d="M464.34,-123.36C477.43,-112.11 493.62,-98.19 505.75,-87.76"/>
<polygon fill="midnightblue" stroke="midnightblue" points="508.11,-90.35 513.41,-81.17 503.55,-85.04 508.11,-90.35"/>
</g>
<!-- Node5 -->
<g id="node5" class="node">
<title>Node5</title>
<g id="a_node5"><a xlink:href="logger_8hpp.html" target="_top" xlink:title=" ">
<polygon fill="white" stroke="black" points="283,-62 283,-81 436,-81 436,-62 283,-62"/>
<text text-anchor="middle" x="359.5" y="-69" font-family="Helvetica,sans-Serif" font-size="10.00">vsomeip/internal/logger.hpp</text>
</a>
</g>
</g>
<!-- Node1&#45;&gt;Node5 -->
<g id="edge4" class="edge">
<title>Node1&#45;&gt;Node5</title>
<path fill="none" stroke="midnightblue" d="M418.66,-123.36C405.57,-112.11 389.38,-98.19 377.25,-87.76"/>
<polygon fill="midnightblue" stroke="midnightblue" points="379.45,-85.04 369.59,-81.17 374.89,-90.35 379.45,-85.04"/>
</g>
<!-- Node13 -->
<g id="node13" class="node">
<title>Node13</title>
<g id="a_node13"><a xlink:href="internal_8hpp.html" target="_top" xlink:title=" ">
<polygon fill="white" stroke="black" points="611.5,-56.5 611.5,-86.5 727.5,-86.5 727.5,-56.5 611.5,-56.5"/>
<text text-anchor="start" x="619.5" y="-74.5" font-family="Helvetica,sans-Serif" font-size="10.00">../../configuration</text>
<text text-anchor="middle" x="669.5" y="-63.5" font-family="Helvetica,sans-Serif" font-size="10.00">/include/internal.hpp</text>
</a>
</g>
</g>
<!-- Node1&#45;&gt;Node13 -->
<g id="edge12" class="edge">
<title>Node1&#45;&gt;Node13</title>
<path fill="none" stroke="midnightblue" d="M504.71,-123.46C538.99,-112.86 580.96,-99.88 613.97,-89.67"/>
<polygon fill="midnightblue" stroke="midnightblue" points="615.39,-92.89 623.91,-86.6 613.32,-86.21 615.39,-92.89"/>
</g>
<!-- Node4 -->
<g id="node4" class="node">
<title>Node4</title>
<g id="a_node4"><a xlink:title=" ">
<polygon fill="white" stroke="#bfbfbf" points="569,-0.5 569,-19.5 728,-19.5 728,-0.5 569,-0.5"/>
<text text-anchor="middle" x="648.5" y="-7.5" font-family="Helvetica,sans-Serif" font-size="10.00">vsomeip/primitive_types.hpp</text>
</a>
</g>
</g>
<!-- Node3&#45;&gt;Node4 -->
<g id="edge3" class="edge">
<title>Node3&#45;&gt;Node4</title>
<path fill="none" stroke="midnightblue" d="M541.41,-61.98C562.39,-51.99 597.35,-35.35 621.59,-23.81"/>
<polygon fill="midnightblue" stroke="midnightblue" points="623.1,-26.97 630.62,-19.51 620.09,-20.65 623.1,-26.97"/>
</g>
<!-- Node6 -->
<g id="node6" class="node">
<title>Node6</title>
<g id="a_node6"><a xlink:title=" ">
<polygon fill="white" stroke="#bfbfbf" points="217.5,-0.5 217.5,-19.5 267.5,-19.5 267.5,-0.5 217.5,-0.5"/>
<text text-anchor="middle" x="242.5" y="-7.5" font-family="Helvetica,sans-Serif" font-size="10.00">chrono</text>
</a>
</g>
</g>
<!-- Node5&#45;&gt;Node6 -->
<g id="edge5" class="edge">
<title>Node5&#45;&gt;Node6</title>
<path fill="none" stroke="midnightblue" d="M342.74,-61.98C323.28,-52.08 290.95,-35.64 268.29,-24.12"/>
<polygon fill="midnightblue" stroke="midnightblue" points="269.73,-20.92 259.23,-19.51 266.56,-27.16 269.73,-20.92"/>
</g>
<!-- Node7 -->
<g id="node7" class="node">
<title>Node7</title>
<g id="a_node7"><a xlink:title=" ">
<polygon fill="white" stroke="#bfbfbf" points="501.5,-0.5 501.5,-19.5 551.5,-19.5 551.5,-0.5 501.5,-0.5"/>
<text text-anchor="middle" x="526.5" y="-7.5" font-family="Helvetica,sans-Serif" font-size="10.00">cstdint</text>
</a>
</g>
</g>
<!-- Node5&#45;&gt;Node7 -->
<g id="edge6" class="edge">
<title>Node5&#45;&gt;Node7</title>
<path fill="none" stroke="midnightblue" d="M383.43,-61.98C412.2,-51.72 460.66,-34.46 493.1,-22.9"/>
<polygon fill="midnightblue" stroke="midnightblue" points="494.37,-26.16 502.62,-19.51 492.02,-19.57 494.37,-26.16"/>
</g>
<!-- Node8 -->
<g id="node8" class="node">
<title>Node8</title>
<g id="a_node8"><a xlink:title=" ">
<polygon fill="white" stroke="#bfbfbf" points="285.5,-0.5 285.5,-19.5 333.5,-19.5 333.5,-0.5 285.5,-0.5"/>
<text text-anchor="middle" x="309.5" y="-7.5" font-family="Helvetica,sans-Serif" font-size="10.00">mutex</text>
</a>
</g>
</g>
<!-- Node5&#45;&gt;Node8 -->
<g id="edge7" class="edge">
<title>Node5&#45;&gt;Node8</title>
<path fill="none" stroke="midnightblue" d="M352.34,-61.98C344.76,-52.96 332.63,-38.52 323.21,-27.31"/>
<polygon fill="midnightblue" stroke="midnightblue" points="325.76,-24.91 316.65,-19.51 320.4,-29.42 325.76,-24.91"/>
</g>
<!-- Node9 -->
<g id="node9" class="node">
<title>Node9</title>
<g id="a_node9"><a xlink:title=" ">
<polygon fill="white" stroke="#bfbfbf" points="352,-0.5 352,-19.5 409,-19.5 409,-0.5 352,-0.5"/>
<text text-anchor="middle" x="380.5" y="-7.5" font-family="Helvetica,sans-Serif" font-size="10.00">ostream</text>
</a>
</g>
</g>
<!-- Node5&#45;&gt;Node9 -->
<g id="edge8" class="edge">
<title>Node5&#45;&gt;Node9</title>
<path fill="none" stroke="midnightblue" d="M362.51,-61.98C365.53,-53.4 370.29,-39.93 374.15,-28.98"/>
<polygon fill="midnightblue" stroke="midnightblue" points="377.47,-30.1 377.5,-19.51 370.87,-27.77 377.47,-30.1"/>
</g>
<!-- Node10 -->
<g id="node10" class="node">
<title>Node10</title>
<g id="a_node10"><a xlink:title=" ">
<polygon fill="white" stroke="#bfbfbf" points="427.5,-0.5 427.5,-19.5 483.5,-19.5 483.5,-0.5 427.5,-0.5"/>
<text text-anchor="middle" x="455.5" y="-7.5" font-family="Helvetica,sans-Serif" font-size="10.00">sstream</text>
</a>
</g>
</g>
<!-- Node5&#45;&gt;Node10 -->
<g id="edge9" class="edge">
<title>Node5&#45;&gt;Node10</title>
<path fill="none" stroke="midnightblue" d="M373.25,-61.98C388.87,-52.3 414.56,-36.37 433.08,-24.89"/>
<polygon fill="midnightblue" stroke="midnightblue" points="435.12,-27.75 441.77,-19.51 431.43,-21.8 435.12,-27.75"/>
</g>
<!-- Node11 -->
<g id="node11" class="node">
<title>Node11</title>
<g id="a_node11"><a xlink:title=" ">
<polygon fill="white" stroke="#bfbfbf" points="0,-0.5 0,-19.5 67,-19.5 67,-0.5 0,-0.5"/>
<text text-anchor="middle" x="33.5" y="-7.5" font-family="Helvetica,sans-Serif" font-size="10.00">streambuf</text>
</a>
</g>
</g>
<!-- Node5&#45;&gt;Node11 -->
<g id="edge10" class="edge">
<title>Node5&#45;&gt;Node11</title>
<path fill="none" stroke="midnightblue" d="M310.57,-61.95C245.94,-50.63 134.52,-31 77.31,-20.1"/>
<polygon fill="midnightblue" stroke="midnightblue" points="77.76,-16.62 67.28,-18.17 76.44,-23.5 77.76,-16.62"/>
</g>
<!-- Node12 -->
<g id="node12" class="node">
<title>Node12</title>
<g id="a_node12"><a xlink:title=" ">
<polygon fill="white" stroke="#bfbfbf" points="85.5,-0.5 85.5,-19.5 199.5,-19.5 199.5,-0.5 85.5,-0.5"/>
<text text-anchor="middle" x="142.5" y="-7.5" font-family="Helvetica,sans-Serif" font-size="10.00">vsomeip/export.hpp</text>
</a>
</g>
</g>
<!-- Node5&#45;&gt;Node12 -->
<g id="edge11" class="edge">
<title>Node5&#45;&gt;Node12</title>
<path fill="none" stroke="midnightblue" d="M328.41,-61.98C290.22,-51.5 225.33,-33.71 183.2,-22.16"/>
<polygon fill="midnightblue" stroke="midnightblue" points="184.1,-18.78 173.53,-19.51 182.25,-25.53 184.1,-18.78"/>
</g>
<!-- Node13&#45;&gt;Node4 -->
<g id="edge15" class="edge">
<title>Node13&#45;&gt;Node4</title>
<path fill="none" stroke="midnightblue" d="M664.52,-56.4C661.66,-48.29 658.03,-38.01 654.95,-29.28"/>
<polygon fill="midnightblue" stroke="midnightblue" points="658.18,-27.92 651.56,-19.66 651.58,-30.25 658.18,-27.92"/>
</g>
<!-- Node13&#45;&gt;Node7 -->
<g id="edge13" class="edge">
<title>Node13&#45;&gt;Node7</title>
<path fill="none" stroke="midnightblue" d="M635.61,-56.4C611.62,-46.42 579.73,-33.15 556.62,-23.53"/>
<polygon fill="midnightblue" stroke="midnightblue" points="557.89,-20.27 547.31,-19.66 555.2,-26.73 557.89,-20.27"/>
</g>
<!-- Node14 -->
<g id="node14" class="node">
<title>Node14</title>
<g id="a_node14"><a xlink:title=" ">
<polygon fill="white" stroke="#bfbfbf" points="745.5,-0.5 745.5,-19.5 789.5,-19.5 789.5,-0.5 745.5,-0.5"/>
<text text-anchor="middle" x="767.5" y="-7.5" font-family="Helvetica,sans-Serif" font-size="10.00">limits</text>
</a>
</g>
</g>
<!-- Node13&#45;&gt;Node14 -->
<g id="edge14" class="edge">
<title>Node13&#45;&gt;Node14</title>
<path fill="none" stroke="midnightblue" d="M692.72,-56.4C708.29,-46.95 728.7,-34.56 744.26,-25.11"/>
<polygon fill="midnightblue" stroke="midnightblue" points="746.51,-27.84 753.24,-19.66 742.88,-21.86 746.51,-27.84"/>
</g>
<!-- Node15 -->
<g id="node15" class="node">
<title>Node15</title>
<g id="a_node15"><a xlink:title=" ">
<polygon fill="white" stroke="#bfbfbf" points="808,-0.5 808,-19.5 871,-19.5 871,-0.5 808,-0.5"/>
<text text-anchor="middle" x="839.5" y="-7.5" font-family="Helvetica,sans-Serif" font-size="10.00">pthread.h</text>
</a>
</g>
</g>
<!-- Node13&#45;&gt;Node15 -->
<g id="edge16" class="edge">
<title>Node13&#45;&gt;Node15</title>
<path fill="none" stroke="midnightblue" d="M709.79,-56.4C738.82,-46.24 777.58,-32.67 805.15,-23.02"/>
<polygon fill="midnightblue" stroke="midnightblue" points="806.48,-26.26 814.76,-19.66 804.17,-19.66 806.48,-26.26"/>
</g>
</g>
</svg>
