<?xml version="1.0" encoding="UTF-8" standalone="no"?>
<!DOCTYPE svg PUBLIC "-//W3C//DTD SVG 1.1//EN"
 "http://www.w3.org/Graphics/SVG/1.1/DTD/svg11.dtd">
<!-- Generated by graphviz version 2.43.0 (0)
 -->
<!-- Title: /home/kali/projects/vsomeip/implementation/utility/include/criticalsection.hpp Pages: 1 -->
<svg width="2865pt" height="217pt"
 viewBox="0.00 0.00 2865.00 217.00" xmlns="http://www.w3.org/2000/svg" xmlns:xlink="http://www.w3.org/1999/xlink">
<g id="graph0" class="graph" transform="scale(1 1) rotate(0) translate(4 213)">
<title>/home/kali/projects/vsomeip/implementation/utility/include/criticalsection.hpp</title>
<polygon fill="white" stroke="transparent" points="-4,4 -4,-213 2861,-213 2861,4 -4,4"/>
<!-- Node1 -->
<g id="node1" class="node">
<title>Node1</title>
<g id="a_node1"><a xlink:title=" ">
<polygon fill="#bfbfbf" stroke="black" points="1426,-167.5 1426,-208.5 1605,-208.5 1605,-167.5 1426,-167.5"/>
<text text-anchor="start" x="1434" y="-196.5" font-family="Helvetica,sans-Serif" font-size="10.00">/home/kali/projects</text>
<text text-anchor="start" x="1434" y="-185.5" font-family="Helvetica,sans-Serif" font-size="10.00">/vsomeip/implementation</text>
<text text-anchor="middle" x="1515.5" y="-174.5" font-family="Helvetica,sans-Serif" font-size="10.00">/utility/include/criticalsection.hpp</text>
</a>
</g>
</g>
<!-- Node2 -->
<g id="node2" class="node">
<title>Node2</title>
<g id="a_node2"><a xlink:href="utility_8hpp.html" target="_top" xlink:title=" ">
<polygon fill="white" stroke="black" points="1360,-89.5 1360,-130.5 1503,-130.5 1503,-89.5 1360,-89.5"/>
<text text-anchor="start" x="1368" y="-118.5" font-family="Helvetica,sans-Serif" font-size="10.00">/home/kali/projects</text>
<text text-anchor="start" x="1368" y="-107.5" font-family="Helvetica,sans-Serif" font-size="10.00">/vsomeip/implementation</text>
<text text-anchor="middle" x="1431.5" y="-96.5" font-family="Helvetica,sans-Serif" font-size="10.00">/utility/include/utility.hpp</text>
</a>
</g>
</g>
<!-- Node1&#45;&gt;Node2 -->
<g id="edge1" class="edge">
<title>Node1&#45;&gt;Node2</title>
<path fill="none" stroke="midnightblue" d="M1486.2,-160.49C1475.3,-150.63 1463.14,-139.63 1453.06,-130.51"/>
<polygon fill="midnightblue" stroke="midnightblue" points="1484.1,-163.31 1493.87,-167.43 1488.8,-158.12 1484.1,-163.31"/>
</g>
<!-- Node20 -->
<g id="node20" class="node">
<title>Node20</title>
<g id="a_node20"><a xlink:href="criticalsection_8cpp.html" target="_top" xlink:title=" ">
<polygon fill="white" stroke="black" points="1521,-89.5 1521,-130.5 1678,-130.5 1678,-89.5 1521,-89.5"/>
<text text-anchor="start" x="1529" y="-118.5" font-family="Helvetica,sans-Serif" font-size="10.00">/home/kali/projects</text>
<text text-anchor="start" x="1529" y="-107.5" font-family="Helvetica,sans-Serif" font-size="10.00">/vsomeip/implementation</text>
<text text-anchor="middle" x="1599.5" y="-96.5" font-family="Helvetica,sans-Serif" font-size="10.00">/utility/src/criticalsection.cpp</text>
</a>
</g>
</g>
<!-- Node1&#45;&gt;Node20 -->
<g id="edge19" class="edge">
<title>Node1&#45;&gt;Node20</title>
<path fill="none" stroke="midnightblue" d="M1544.8,-160.49C1555.7,-150.63 1567.86,-139.63 1577.94,-130.51"/>
<polygon fill="midnightblue" stroke="midnightblue" points="1542.2,-158.12 1537.13,-167.43 1546.9,-163.31 1542.2,-158.12"/>
</g>
<!-- Node3 -->
<g id="node3" class="node">
<title>Node3</title>
<g id="a_node3"><a xlink:href="configuration__impl_8cpp.html" target="_top" xlink:title=" ">
<polygon fill="white" stroke="black" points="0,-0.5 0,-52.5 167,-52.5 167,-0.5 0,-0.5"/>
<text text-anchor="start" x="8" y="-40.5" font-family="Helvetica,sans-Serif" font-size="10.00">/home/kali/projects</text>
<text text-anchor="start" x="8" y="-29.5" font-family="Helvetica,sans-Serif" font-size="10.00">/vsomeip/implementation</text>
<text text-anchor="start" x="8" y="-18.5" font-family="Helvetica,sans-Serif" font-size="10.00">/configuration/src/configuration</text>
<text text-anchor="middle" x="83.5" y="-7.5" font-family="Helvetica,sans-Serif" font-size="10.00">_impl.cpp</text>
</a>
</g>
</g>
<!-- Node2&#45;&gt;Node3 -->
<g id="edge2" class="edge">
<title>Node2&#45;&gt;Node3</title>
<path fill="none" stroke="midnightblue" d="M1349.69,-107.76C1108.5,-103.73 402.9,-89.11 175.5,-53 172.72,-52.56 169.9,-52.06 167.06,-51.52"/>
<polygon fill="midnightblue" stroke="midnightblue" points="1349.74,-111.26 1359.8,-107.93 1349.86,-104.27 1349.74,-111.26"/>
</g>
<!-- Node4 -->
<g id="node4" class="node">
<title>Node4</title>
<g id="a_node4"><a xlink:href="client__endpoint__impl_8cpp.html" target="_top" xlink:title=" ">
<polygon fill="white" stroke="black" points="185,-0.5 185,-52.5 348,-52.5 348,-0.5 185,-0.5"/>
<text text-anchor="start" x="193" y="-40.5" font-family="Helvetica,sans-Serif" font-size="10.00">/home/kali/projects</text>
<text text-anchor="start" x="193" y="-29.5" font-family="Helvetica,sans-Serif" font-size="10.00">/vsomeip/implementation</text>
<text text-anchor="start" x="193" y="-18.5" font-family="Helvetica,sans-Serif" font-size="10.00">/endpoints/src/client_endpoint</text>
<text text-anchor="middle" x="266.5" y="-7.5" font-family="Helvetica,sans-Serif" font-size="10.00">_impl.cpp</text>
</a>
</g>
</g>
<!-- Node2&#45;&gt;Node4 -->
<g id="edge3" class="edge">
<title>Node2&#45;&gt;Node4</title>
<path fill="none" stroke="midnightblue" d="M1349.67,-107.11C1132.91,-101.72 547.41,-84.61 356.5,-53 353.78,-52.55 351.02,-52.05 348.24,-51.5"/>
<polygon fill="midnightblue" stroke="midnightblue" points="1349.63,-110.61 1359.71,-107.36 1349.8,-103.61 1349.63,-110.61"/>
</g>
<!-- Node5 -->
<g id="node5" class="node">
<title>Node5</title>
<g id="a_node5"><a xlink:href="endpoint__manager__base_8cpp.html" target="_top" xlink:title=" ">
<polygon fill="white" stroke="black" points="366,-0.5 366,-52.5 509,-52.5 509,-0.5 366,-0.5"/>
<text text-anchor="start" x="374" y="-40.5" font-family="Helvetica,sans-Serif" font-size="10.00">/home/kali/projects</text>
<text text-anchor="start" x="374" y="-29.5" font-family="Helvetica,sans-Serif" font-size="10.00">/vsomeip/implementation</text>
<text text-anchor="start" x="374" y="-18.5" font-family="Helvetica,sans-Serif" font-size="10.00">/endpoints/src/endpoint</text>
<text text-anchor="middle" x="437.5" y="-7.5" font-family="Helvetica,sans-Serif" font-size="10.00">_manager_base.cpp</text>
</a>
</g>
</g>
<!-- Node2&#45;&gt;Node5 -->
<g id="edge4" class="edge">
<title>Node2&#45;&gt;Node5</title>
<path fill="none" stroke="midnightblue" d="M1349.87,-106.58C1156.7,-100.45 675.92,-82.63 517.5,-53 514.78,-52.49 512.02,-51.92 509.24,-51.29"/>
<polygon fill="midnightblue" stroke="midnightblue" points="1349.85,-110.09 1359.96,-106.9 1350.07,-103.09 1349.85,-110.09"/>
</g>
<!-- Node6 -->
<g id="node6" class="node">
<title>Node6</title>
<g id="a_node6"><a xlink:href="endpoint__manager__impl_8cpp.html" target="_top" xlink:title=" ">
<polygon fill="white" stroke="black" points="527,-0.5 527,-52.5 670,-52.5 670,-0.5 527,-0.5"/>
<text text-anchor="start" x="535" y="-40.5" font-family="Helvetica,sans-Serif" font-size="10.00">/home/kali/projects</text>
<text text-anchor="start" x="535" y="-29.5" font-family="Helvetica,sans-Serif" font-size="10.00">/vsomeip/implementation</text>
<text text-anchor="start" x="535" y="-18.5" font-family="Helvetica,sans-Serif" font-size="10.00">/endpoints/src/endpoint</text>
<text text-anchor="middle" x="598.5" y="-7.5" font-family="Helvetica,sans-Serif" font-size="10.00">_manager_impl.cpp</text>
</a>
</g>
</g>
<!-- Node2&#45;&gt;Node6 -->
<g id="edge5" class="edge">
<title>Node2&#45;&gt;Node6</title>
<path fill="none" stroke="midnightblue" d="M1349.75,-109.16C1210.61,-108.04 919.41,-99.68 678.5,-53 675.78,-52.47 673.02,-51.88 670.25,-51.24"/>
<polygon fill="midnightblue" stroke="midnightblue" points="1349.89,-112.66 1359.91,-109.23 1349.94,-105.66 1349.89,-112.66"/>
</g>
<!-- Node7 -->
<g id="node7" class="node">
<title>Node7</title>
<g id="a_node7"><a xlink:href="local__server__endpoint__impl_8cpp.html" target="_top" xlink:title=" ">
<polygon fill="white" stroke="black" points="688,-0.5 688,-52.5 835,-52.5 835,-0.5 688,-0.5"/>
<text text-anchor="start" x="696" y="-40.5" font-family="Helvetica,sans-Serif" font-size="10.00">/home/kali/projects</text>
<text text-anchor="start" x="696" y="-29.5" font-family="Helvetica,sans-Serif" font-size="10.00">/vsomeip/implementation</text>
<text text-anchor="start" x="696" y="-18.5" font-family="Helvetica,sans-Serif" font-size="10.00">/endpoints/src/local_server</text>
<text text-anchor="middle" x="761.5" y="-7.5" font-family="Helvetica,sans-Serif" font-size="10.00">_endpoint_impl.cpp</text>
</a>
</g>
</g>
<!-- Node2&#45;&gt;Node7 -->
<g id="edge6" class="edge">
<title>Node2&#45;&gt;Node7</title>
<path fill="none" stroke="midnightblue" d="M1349.68,-106.54C1235.37,-101.89 1021.85,-88.82 843.5,-53 840.72,-52.44 837.91,-51.83 835.07,-51.17"/>
<polygon fill="midnightblue" stroke="midnightblue" points="1349.62,-110.04 1359.75,-106.93 1349.9,-103.04 1349.62,-110.04"/>
</g>
<!-- Node8 -->
<g id="node8" class="node">
<title>Node8</title>
<g id="a_node8"><a xlink:href="server__endpoint__impl_8cpp.html" target="_top" xlink:title=" ">
<polygon fill="white" stroke="black" points="853,-0.5 853,-52.5 1020,-52.5 1020,-0.5 853,-0.5"/>
<text text-anchor="start" x="861" y="-40.5" font-family="Helvetica,sans-Serif" font-size="10.00">/home/kali/projects</text>
<text text-anchor="start" x="861" y="-29.5" font-family="Helvetica,sans-Serif" font-size="10.00">/vsomeip/implementation</text>
<text text-anchor="start" x="861" y="-18.5" font-family="Helvetica,sans-Serif" font-size="10.00">/endpoints/src/server_endpoint</text>
<text text-anchor="middle" x="936.5" y="-7.5" font-family="Helvetica,sans-Serif" font-size="10.00">_impl.cpp</text>
</a>
</g>
</g>
<!-- Node2&#45;&gt;Node8 -->
<g id="edge7" class="edge">
<title>Node2&#45;&gt;Node8</title>
<path fill="none" stroke="midnightblue" d="M1349.68,-100.84C1267.88,-91.94 1138.72,-75.83 1028.5,-53 1025.74,-52.43 1022.94,-51.82 1020.12,-51.18"/>
<polygon fill="midnightblue" stroke="midnightblue" points="1349.35,-104.33 1359.67,-101.92 1350.1,-97.37 1349.35,-104.33"/>
</g>
<!-- Node9 -->
<g id="node9" class="node">
<title>Node9</title>
<g id="a_node9"><a xlink:href="tcp__client__endpoint__impl_8cpp.html" target="_top" xlink:title=" ">
<polygon fill="white" stroke="black" points="1038,-0.5 1038,-52.5 1181,-52.5 1181,-0.5 1038,-0.5"/>
<text text-anchor="start" x="1046" y="-40.5" font-family="Helvetica,sans-Serif" font-size="10.00">/home/kali/projects</text>
<text text-anchor="start" x="1046" y="-29.5" font-family="Helvetica,sans-Serif" font-size="10.00">/vsomeip/implementation</text>
<text text-anchor="start" x="1046" y="-18.5" font-family="Helvetica,sans-Serif" font-size="10.00">/endpoints/src/tcp_client</text>
<text text-anchor="middle" x="1109.5" y="-7.5" font-family="Helvetica,sans-Serif" font-size="10.00">_endpoint_impl.cpp</text>
</a>
</g>
</g>
<!-- Node2&#45;&gt;Node9 -->
<g id="edge8" class="edge">
<title>Node2&#45;&gt;Node9</title>
<path fill="none" stroke="midnightblue" d="M1350.06,-91.88C1302.92,-81.54 1242.59,-67.58 1189.5,-53 1186.83,-52.27 1184.11,-51.5 1181.38,-50.71"/>
<polygon fill="midnightblue" stroke="midnightblue" points="1349.39,-95.32 1359.91,-94.03 1350.88,-88.48 1349.39,-95.32"/>
</g>
<!-- Node10 -->
<g id="node10" class="node">
<title>Node10</title>
<g id="a_node10"><a xlink:href="tcp__server__endpoint__impl_8cpp.html" target="_top" xlink:title=" ">
<polygon fill="white" stroke="black" points="1199,-0.5 1199,-52.5 1342,-52.5 1342,-0.5 1199,-0.5"/>
<text text-anchor="start" x="1207" y="-40.5" font-family="Helvetica,sans-Serif" font-size="10.00">/home/kali/projects</text>
<text text-anchor="start" x="1207" y="-29.5" font-family="Helvetica,sans-Serif" font-size="10.00">/vsomeip/implementation</text>
<text text-anchor="start" x="1207" y="-18.5" font-family="Helvetica,sans-Serif" font-size="10.00">/endpoints/src/tcp_server</text>
<text text-anchor="middle" x="1270.5" y="-7.5" font-family="Helvetica,sans-Serif" font-size="10.00">_endpoint_impl.cpp</text>
</a>
</g>
</g>
<!-- Node2&#45;&gt;Node10 -->
<g id="edge9" class="edge">
<title>Node2&#45;&gt;Node10</title>
<path fill="none" stroke="midnightblue" d="M1383.95,-84.93C1363.82,-74.74 1340.37,-62.87 1320.04,-52.58"/>
<polygon fill="midnightblue" stroke="midnightblue" points="1382.43,-88.08 1392.94,-89.48 1385.6,-81.84 1382.43,-88.08"/>
</g>
<!-- Node11 -->
<g id="node11" class="node">
<title>Node11</title>
<g id="a_node11"><a xlink:href="udp__client__endpoint__impl_8cpp.html" target="_top" xlink:title=" ">
<polygon fill="white" stroke="black" points="1360,-0.5 1360,-52.5 1503,-52.5 1503,-0.5 1360,-0.5"/>
<text text-anchor="start" x="1368" y="-40.5" font-family="Helvetica,sans-Serif" font-size="10.00">/home/kali/projects</text>
<text text-anchor="start" x="1368" y="-29.5" font-family="Helvetica,sans-Serif" font-size="10.00">/vsomeip/implementation</text>
<text text-anchor="start" x="1368" y="-18.5" font-family="Helvetica,sans-Serif" font-size="10.00">/endpoints/src/udp_client</text>
<text text-anchor="middle" x="1431.5" y="-7.5" font-family="Helvetica,sans-Serif" font-size="10.00">_endpoint_impl.cpp</text>
</a>
</g>
</g>
<!-- Node2&#45;&gt;Node11 -->
<g id="edge10" class="edge">
<title>Node2&#45;&gt;Node11</title>
<path fill="none" stroke="midnightblue" d="M1431.5,-79.12C1431.5,-70.41 1431.5,-60.99 1431.5,-52.61"/>
<polygon fill="midnightblue" stroke="midnightblue" points="1428,-79.27 1431.5,-89.27 1435,-79.27 1428,-79.27"/>
</g>
<!-- Node12 -->
<g id="node12" class="node">
<title>Node12</title>
<g id="a_node12"><a xlink:href="udp__server__endpoint__impl_8cpp.html" target="_top" xlink:title=" ">
<polygon fill="white" stroke="black" points="1521,-0.5 1521,-52.5 1664,-52.5 1664,-0.5 1521,-0.5"/>
<text text-anchor="start" x="1529" y="-40.5" font-family="Helvetica,sans-Serif" font-size="10.00">/home/kali/projects</text>
<text text-anchor="start" x="1529" y="-29.5" font-family="Helvetica,sans-Serif" font-size="10.00">/vsomeip/implementation</text>
<text text-anchor="start" x="1529" y="-18.5" font-family="Helvetica,sans-Serif" font-size="10.00">/endpoints/src/udp_server</text>
<text text-anchor="middle" x="1592.5" y="-7.5" font-family="Helvetica,sans-Serif" font-size="10.00">_endpoint_impl.cpp</text>
</a>
</g>
</g>
<!-- Node2&#45;&gt;Node12 -->
<g id="edge11" class="edge">
<title>Node2&#45;&gt;Node12</title>
<path fill="none" stroke="midnightblue" d="M1479.05,-84.93C1499.18,-74.74 1522.63,-62.87 1542.96,-52.58"/>
<polygon fill="midnightblue" stroke="midnightblue" points="1477.4,-81.84 1470.06,-89.48 1480.57,-88.08 1477.4,-81.84"/>
</g>
<!-- Node13 -->
<g id="node13" class="node">
<title>Node13</title>
<g id="a_node13"><a xlink:href="plugin__manager__impl_8cpp.html" target="_top" xlink:title=" ">
<polygon fill="white" stroke="black" points="1682,-0.5 1682,-52.5 1831,-52.5 1831,-0.5 1682,-0.5"/>
<text text-anchor="start" x="1690" y="-40.5" font-family="Helvetica,sans-Serif" font-size="10.00">/home/kali/projects</text>
<text text-anchor="start" x="1690" y="-29.5" font-family="Helvetica,sans-Serif" font-size="10.00">/vsomeip/implementation</text>
<text text-anchor="start" x="1690" y="-18.5" font-family="Helvetica,sans-Serif" font-size="10.00">/plugin/src/plugin_manager</text>
<text text-anchor="middle" x="1756.5" y="-7.5" font-family="Helvetica,sans-Serif" font-size="10.00">_impl.cpp</text>
</a>
</g>
</g>
<!-- Node2&#45;&gt;Node13 -->
<g id="edge12" class="edge">
<title>Node2&#45;&gt;Node13</title>
<path fill="none" stroke="midnightblue" d="M1513.12,-88.89C1585.58,-72.14 1605.67,-70.97 1673.5,-53 1676.27,-52.27 1679.08,-51.5 1681.92,-50.71"/>
<polygon fill="midnightblue" stroke="midnightblue" points="1511.98,-85.57 1503.03,-91.25 1513.57,-92.38 1511.98,-85.57"/>
</g>
<!-- Node14 -->
<g id="node14" class="node">
<title>Node14</title>
<g id="a_node14"><a xlink:href="routing__manager__base_8cpp.html" target="_top" xlink:title=" ">
<polygon fill="white" stroke="black" points="1848.5,-0.5 1848.5,-52.5 2006.5,-52.5 2006.5,-0.5 1848.5,-0.5"/>
<text text-anchor="start" x="1856.5" y="-40.5" font-family="Helvetica,sans-Serif" font-size="10.00">/home/kali/projects</text>
<text text-anchor="start" x="1856.5" y="-29.5" font-family="Helvetica,sans-Serif" font-size="10.00">/vsomeip/implementation</text>
<text text-anchor="start" x="1856.5" y="-18.5" font-family="Helvetica,sans-Serif" font-size="10.00">/routing/src/routing_manager</text>
<text text-anchor="middle" x="1927.5" y="-7.5" font-family="Helvetica,sans-Serif" font-size="10.00">_base.cpp</text>
</a>
</g>
</g>
<!-- Node2&#45;&gt;Node14 -->
<g id="edge13" class="edge">
<title>Node2&#45;&gt;Node14</title>
<path fill="none" stroke="midnightblue" d="M1513.56,-88.95C1658.74,-64.17 1699.92,-81.09 1840.5,-53 1843.12,-52.48 1845.78,-51.91 1848.46,-51.31"/>
<polygon fill="midnightblue" stroke="midnightblue" points="1512.63,-85.56 1503.38,-90.73 1513.84,-92.45 1512.63,-85.56"/>
</g>
<!-- Node15 -->
<g id="node15" class="node">
<title>Node15</title>
<g id="a_node15"><a xlink:href="routing__manager__impl_8cpp.html" target="_top" xlink:title=" ">
<polygon fill="white" stroke="black" points="2024.5,-0.5 2024.5,-52.5 2182.5,-52.5 2182.5,-0.5 2024.5,-0.5"/>
<text text-anchor="start" x="2032.5" y="-40.5" font-family="Helvetica,sans-Serif" font-size="10.00">/home/kali/projects</text>
<text text-anchor="start" x="2032.5" y="-29.5" font-family="Helvetica,sans-Serif" font-size="10.00">/vsomeip/implementation</text>
<text text-anchor="start" x="2032.5" y="-18.5" font-family="Helvetica,sans-Serif" font-size="10.00">/routing/src/routing_manager</text>
<text text-anchor="middle" x="2103.5" y="-7.5" font-family="Helvetica,sans-Serif" font-size="10.00">_impl.cpp</text>
</a>
</g>
</g>
<!-- Node2&#45;&gt;Node15 -->
<g id="edge14" class="edge">
<title>Node2&#45;&gt;Node15</title>
<path fill="none" stroke="midnightblue" d="M1513.38,-89.02C1735.7,-55.12 1798.1,-91.83 2015.5,-53 2018.32,-52.5 2021.18,-51.94 2024.05,-51.33"/>
<polygon fill="midnightblue" stroke="midnightblue" points="1512.7,-85.59 1503.36,-90.58 1513.78,-92.5 1512.7,-85.59"/>
</g>
<!-- Node16 -->
<g id="node16" class="node">
<title>Node16</title>
<g id="a_node16"><a xlink:href="routing__manager__proxy_8cpp.html" target="_top" xlink:title=" ">
<polygon fill="white" stroke="black" points="2200.5,-0.5 2200.5,-52.5 2358.5,-52.5 2358.5,-0.5 2200.5,-0.5"/>
<text text-anchor="start" x="2208.5" y="-40.5" font-family="Helvetica,sans-Serif" font-size="10.00">/home/kali/projects</text>
<text text-anchor="start" x="2208.5" y="-29.5" font-family="Helvetica,sans-Serif" font-size="10.00">/vsomeip/implementation</text>
<text text-anchor="start" x="2208.5" y="-18.5" font-family="Helvetica,sans-Serif" font-size="10.00">/routing/src/routing_manager</text>
<text text-anchor="middle" x="2279.5" y="-7.5" font-family="Helvetica,sans-Serif" font-size="10.00">_proxy.cpp</text>
</a>
</g>
</g>
<!-- Node2&#45;&gt;Node16 -->
<g id="edge15" class="edge">
<title>Node2&#45;&gt;Node16</title>
<path fill="none" stroke="midnightblue" d="M1513.64,-89C1813.29,-45.89 1896.87,-102.82 2191.5,-53 2194.32,-52.52 2197.18,-51.99 2200.06,-51.4"/>
<polygon fill="midnightblue" stroke="midnightblue" points="1512.74,-85.6 1503.35,-90.51 1513.75,-92.53 1512.74,-85.6"/>
</g>
<!-- Node17 -->
<g id="node17" class="node">
<title>Node17</title>
<g id="a_node17"><a xlink:href="routing__manager__stub_8cpp.html" target="_top" xlink:title=" ">
<polygon fill="white" stroke="black" points="2376.5,-0.5 2376.5,-52.5 2534.5,-52.5 2534.5,-0.5 2376.5,-0.5"/>
<text text-anchor="start" x="2384.5" y="-40.5" font-family="Helvetica,sans-Serif" font-size="10.00">/home/kali/projects</text>
<text text-anchor="start" x="2384.5" y="-29.5" font-family="Helvetica,sans-Serif" font-size="10.00">/vsomeip/implementation</text>
<text text-anchor="start" x="2384.5" y="-18.5" font-family="Helvetica,sans-Serif" font-size="10.00">/routing/src/routing_manager</text>
<text text-anchor="middle" x="2455.5" y="-7.5" font-family="Helvetica,sans-Serif" font-size="10.00">_stub.cpp</text>
</a>
</g>
</g>
<!-- Node2&#45;&gt;Node17 -->
<g id="edge16" class="edge">
<title>Node2&#45;&gt;Node17</title>
<path fill="none" stroke="midnightblue" d="M1513.45,-89.04C1890.84,-36.53 1995.45,-113.83 2367.5,-53 2370.33,-52.54 2373.19,-52.01 2376.07,-51.44"/>
<polygon fill="midnightblue" stroke="midnightblue" points="1512.75,-85.61 1503.34,-90.47 1513.73,-92.54 1512.75,-85.61"/>
</g>
<!-- Node18 -->
<g id="node18" class="node">
<title>Node18</title>
<g id="a_node18"><a xlink:href="runtime_2src_2application__impl_8cpp.html" target="_top" xlink:title=" ">
<polygon fill="white" stroke="black" points="2553,-0.5 2553,-52.5 2696,-52.5 2696,-0.5 2553,-0.5"/>
<text text-anchor="start" x="2561" y="-40.5" font-family="Helvetica,sans-Serif" font-size="10.00">/home/kali/projects</text>
<text text-anchor="start" x="2561" y="-29.5" font-family="Helvetica,sans-Serif" font-size="10.00">/vsomeip/implementation</text>
<text text-anchor="start" x="2561" y="-18.5" font-family="Helvetica,sans-Serif" font-size="10.00">/runtime/src/application</text>
<text text-anchor="middle" x="2624.5" y="-7.5" font-family="Helvetica,sans-Serif" font-size="10.00">_impl.cpp</text>
</a>
</g>
</g>
<!-- Node2&#45;&gt;Node18 -->
<g id="edge17" class="edge">
<title>Node2&#45;&gt;Node18</title>
<path fill="none" stroke="midnightblue" d="M1513.46,-89.05C1968.46,-27.23 2094.91,-129.98 2543.5,-53 2546.55,-52.48 2549.65,-51.87 2552.76,-51.19"/>
<polygon fill="midnightblue" stroke="midnightblue" points="1512.77,-85.61 1503.34,-90.44 1513.72,-92.55 1512.77,-85.61"/>
</g>
<!-- Node19 -->
<g id="node19" class="node">
<title>Node19</title>
<g id="a_node19"><a xlink:href="utility_8cpp.html" target="_top" xlink:title=" ">
<polygon fill="white" stroke="black" points="2714,-6 2714,-47 2857,-47 2857,-6 2714,-6"/>
<text text-anchor="start" x="2722" y="-35" font-family="Helvetica,sans-Serif" font-size="10.00">/home/kali/projects</text>
<text text-anchor="start" x="2722" y="-24" font-family="Helvetica,sans-Serif" font-size="10.00">/vsomeip/implementation</text>
<text text-anchor="middle" x="2785.5" y="-13" font-family="Helvetica,sans-Serif" font-size="10.00">/utility/src/utility.cpp</text>
</a>
</g>
</g>
<!-- Node2&#45;&gt;Node19 -->
<g id="edge18" class="edge">
<title>Node2&#45;&gt;Node19</title>
<path fill="none" stroke="midnightblue" d="M1513.47,-89.05C2039.91,-18.6 2185.95,-141.85 2705.5,-53 2713.83,-51.57 2722.5,-49.49 2730.91,-47.11"/>
<polygon fill="midnightblue" stroke="midnightblue" points="1512.77,-85.61 1503.34,-90.43 1513.72,-92.55 1512.77,-85.61"/>
</g>
</g>
</svg>
