<?xml version="1.0" encoding="UTF-8" standalone="no"?>
<!DOCTYPE svg PUBLIC "-//W3C//DTD SVG 1.1//EN"
 "http://www.w3.org/Graphics/SVG/1.1/DTD/svg11.dtd">
<!-- Generated by graphviz version 2.43.0 (0)
 -->
<!-- Title: /home/kali/projects/vsomeip/implementation/helper/1.55/boost/asio/datagram_socket_service_ext.hpp Pages: 1 -->
<svg width="3424pt" height="206pt"
 viewBox="0.00 0.00 3423.50 206.00" xmlns="http://www.w3.org/2000/svg" xmlns:xlink="http://www.w3.org/1999/xlink">
<g id="graph0" class="graph" transform="scale(1 1) rotate(0) translate(4 202)">
<title>/home/kali/projects/vsomeip/implementation/helper/1.55/boost/asio/datagram_socket_service_ext.hpp</title>
<polygon fill="white" stroke="transparent" points="-4,4 -4,-202 3419.5,-202 3419.5,4 -4,4"/>
<!-- Node1 -->
<g id="node1" class="node">
<title>Node1</title>
<g id="a_node1"><a xlink:title=" ">
<polygon fill="#bfbfbf" stroke="black" points="1519,-134.5 1519,-197.5 1663,-197.5 1663,-134.5 1519,-134.5"/>
<text text-anchor="start" x="1527" y="-185.5" font-family="Helvetica,sans-Serif" font-size="10.00">/home/kali/projects</text>
<text text-anchor="start" x="1527" y="-174.5" font-family="Helvetica,sans-Serif" font-size="10.00">/vsomeip/implementation</text>
<text text-anchor="start" x="1527" y="-163.5" font-family="Helvetica,sans-Serif" font-size="10.00">/helper/1.55/boost/asio</text>
<text text-anchor="start" x="1527" y="-152.5" font-family="Helvetica,sans-Serif" font-size="10.00">/datagram_socket_service</text>
<text text-anchor="middle" x="1591" y="-141.5" font-family="Helvetica,sans-Serif" font-size="10.00">_ext.hpp</text>
</a>
</g>
</g>
<!-- Node2 -->
<g id="node2" class="node">
<title>Node2</title>
<g id="a_node2"><a xlink:title=" ">
<polygon fill="white" stroke="#bfbfbf" points="0,-6 0,-25 60,-25 60,-6 0,-6"/>
<text text-anchor="middle" x="30" y="-13" font-family="Helvetica,sans-Serif" font-size="10.00">iostream</text>
</a>
</g>
</g>
<!-- Node1&#45;&gt;Node2 -->
<g id="edge1" class="edge">
<title>Node1&#45;&gt;Node2</title>
<path fill="none" stroke="midnightblue" d="M1518.79,-162.47C1347.04,-156 900.83,-136.59 530,-98 324.07,-76.57 269.6,-82.25 69,-31 66.02,-30.24 62.95,-29.33 59.9,-28.34"/>
<polygon fill="midnightblue" stroke="midnightblue" points="60.98,-25.01 50.39,-25 58.66,-31.62 60.98,-25.01"/>
</g>
<!-- Node3 -->
<g id="node3" class="node">
<title>Node3</title>
<g id="a_node3"><a xlink:title=" ">
<polygon fill="white" stroke="#bfbfbf" points="78.5,-6 78.5,-25 229.5,-25 229.5,-6 78.5,-6"/>
<text text-anchor="middle" x="154" y="-13" font-family="Helvetica,sans-Serif" font-size="10.00">boost/asio/detail/config.hpp</text>
</a>
</g>
</g>
<!-- Node1&#45;&gt;Node3 -->
<g id="edge2" class="edge">
<title>Node1&#45;&gt;Node3</title>
<path fill="none" stroke="midnightblue" d="M1518.88,-159.93C1316.35,-145.26 725.38,-99.37 238,-31 228.96,-29.73 219.4,-28.23 210.09,-26.69"/>
<polygon fill="midnightblue" stroke="midnightblue" points="210.58,-23.22 200.13,-25 209.41,-30.12 210.58,-23.22"/>
</g>
<!-- Node4 -->
<g id="node4" class="node">
<title>Node4</title>
<g id="a_node4"><a xlink:title=" ">
<polygon fill="white" stroke="#bfbfbf" points="1702.5,-73 1702.5,-92 1755.5,-92 1755.5,-73 1702.5,-73"/>
<text text-anchor="middle" x="1729" y="-80" font-family="Helvetica,sans-Serif" font-size="10.00">cstddef</text>
</a>
</g>
</g>
<!-- Node1&#45;&gt;Node4 -->
<g id="edge3" class="edge">
<title>Node1&#45;&gt;Node4</title>
<path fill="none" stroke="midnightblue" d="M1642.78,-134.42C1664.46,-121.62 1688.57,-107.38 1705.76,-97.22"/>
<polygon fill="midnightblue" stroke="midnightblue" points="1707.72,-100.13 1714.55,-92.03 1704.16,-94.11 1707.72,-100.13"/>
</g>
<!-- Node5 -->
<g id="node5" class="node">
<title>Node5</title>
<g id="a_node5"><a xlink:title=" ">
<polygon fill="white" stroke="#bfbfbf" points="1774,-73 1774,-92 1926,-92 1926,-73 1774,-73"/>
<text text-anchor="middle" x="1850" y="-80" font-family="Helvetica,sans-Serif" font-size="10.00">boost/asio/async_result.hpp</text>
</a>
</g>
</g>
<!-- Node1&#45;&gt;Node5 -->
<g id="edge4" class="edge">
<title>Node1&#45;&gt;Node5</title>
<path fill="none" stroke="midnightblue" d="M1663.15,-142.3C1711.79,-126.99 1773.95,-107.43 1812.88,-95.18"/>
<polygon fill="midnightblue" stroke="midnightblue" points="1814.25,-98.42 1822.74,-92.08 1812.15,-91.74 1814.25,-98.42"/>
</g>
<!-- Node6 -->
<g id="node6" class="node">
<title>Node6</title>
<g id="a_node6"><a xlink:title=" ">
<polygon fill="white" stroke="#bfbfbf" points="1944,-67.5 1944,-97.5 2066,-97.5 2066,-67.5 1944,-67.5"/>
<text text-anchor="start" x="1952" y="-85.5" font-family="Helvetica,sans-Serif" font-size="10.00">boost/asio/detail/type</text>
<text text-anchor="middle" x="2005" y="-74.5" font-family="Helvetica,sans-Serif" font-size="10.00">_traits.hpp</text>
</a>
</g>
</g>
<!-- Node1&#45;&gt;Node6 -->
<g id="edge5" class="edge">
<title>Node1&#45;&gt;Node6</title>
<path fill="none" stroke="midnightblue" d="M1663.2,-151.2C1730.59,-138.25 1834.25,-118.19 1933.98,-98.19"/>
<polygon fill="midnightblue" stroke="midnightblue" points="1934.81,-101.6 1943.93,-96.2 1933.43,-94.73 1934.81,-101.6"/>
</g>
<!-- Node7 -->
<g id="node7" class="node">
<title>Node7</title>
<g id="a_node7"><a xlink:title=" ">
<polygon fill="white" stroke="#bfbfbf" points="247.5,-6 247.5,-25 360.5,-25 360.5,-6 247.5,-6"/>
<text text-anchor="middle" x="304" y="-13" font-family="Helvetica,sans-Serif" font-size="10.00">boost/asio/error.hpp</text>
</a>
</g>
</g>
<!-- Node1&#45;&gt;Node7 -->
<g id="edge6" class="edge">
<title>Node1&#45;&gt;Node7</title>
<path fill="none" stroke="midnightblue" d="M1518.76,-153.92C1387.35,-134.07 1100.29,-92.21 857,-67 641.12,-44.63 584.76,-62.37 370,-31 363.06,-29.99 355.76,-28.65 348.65,-27.21"/>
<polygon fill="midnightblue" stroke="midnightblue" points="348.94,-23.69 338.43,-25.03 347.48,-30.54 348.94,-23.69"/>
</g>
<!-- Node8 -->
<g id="node8" class="node">
<title>Node8</title>
<g id="a_node8"><a xlink:title=" ">
<polygon fill="white" stroke="#bfbfbf" points="379,-6 379,-25 519,-25 519,-6 379,-6"/>
<text text-anchor="middle" x="449" y="-13" font-family="Helvetica,sans-Serif" font-size="10.00">boost/asio/io_service.hpp</text>
</a>
</g>
</g>
<!-- Node1&#45;&gt;Node8 -->
<g id="edge7" class="edge">
<title>Node1&#45;&gt;Node8</title>
<path fill="none" stroke="midnightblue" d="M1518.73,-142.32C1441.26,-119.06 1314.25,-83.97 1202,-67 905.39,-22.15 825.92,-66.15 528,-31 518.85,-29.92 509.15,-28.43 499.81,-26.82"/>
<polygon fill="midnightblue" stroke="midnightblue" points="500.31,-23.35 489.85,-25.03 499.08,-30.24 500.31,-23.35"/>
</g>
<!-- Node9 -->
<g id="node9" class="node">
<title>Node9</title>
<g id="a_node9"><a xlink:href="1_855_2boost_2asio_2detail_2reactive__socket__service__ext_8hpp.html" target="_top" xlink:title=" ">
<polygon fill="white" stroke="black" points="1484,-67.5 1484,-97.5 1608,-97.5 1608,-67.5 1484,-67.5"/>
<text text-anchor="start" x="1492" y="-85.5" font-family="Helvetica,sans-Serif" font-size="10.00">detail/reactive_socket</text>
<text text-anchor="middle" x="1546" y="-74.5" font-family="Helvetica,sans-Serif" font-size="10.00">_service_ext.hpp</text>
</a>
</g>
</g>
<!-- Node1&#45;&gt;Node9 -->
<g id="edge8" class="edge">
<title>Node1&#45;&gt;Node9</title>
<path fill="none" stroke="midnightblue" d="M1573.99,-134.19C1568.87,-124.92 1563.35,-114.92 1558.57,-106.27"/>
<polygon fill="midnightblue" stroke="midnightblue" points="1561.64,-104.58 1553.74,-97.52 1555.51,-107.96 1561.64,-104.58"/>
</g>
<!-- Node26 -->
<g id="node26" class="node">
<title>Node26</title>
<g id="a_node26"><a xlink:title=" ">
<polygon fill="white" stroke="#bfbfbf" points="3154,-0.5 3154,-30.5 3278,-30.5 3278,-0.5 3154,-0.5"/>
<text text-anchor="start" x="3162" y="-18.5" font-family="Helvetica,sans-Serif" font-size="10.00">boost/asio/detail/push</text>
<text text-anchor="middle" x="3216" y="-7.5" font-family="Helvetica,sans-Serif" font-size="10.00">_options.hpp</text>
</a>
</g>
</g>
<!-- Node1&#45;&gt;Node26 -->
<g id="edge31" class="edge">
<title>Node1&#45;&gt;Node26</title>
<path fill="none" stroke="midnightblue" d="M1603.43,-134.2C1614.53,-111.18 1633.21,-81.32 1660,-67 1730.79,-29.17 2991.19,-39.66 3143.59,-30.67"/>
<polygon fill="midnightblue" stroke="midnightblue" points="3144.07,-34.14 3153.76,-29.86 3143.52,-27.16 3144.07,-34.14"/>
</g>
<!-- Node27 -->
<g id="node27" class="node">
<title>Node27</title>
<g id="a_node27"><a xlink:title=" ">
<polygon fill="white" stroke="#bfbfbf" points="3296.5,-0.5 3296.5,-30.5 3415.5,-30.5 3415.5,-0.5 3296.5,-0.5"/>
<text text-anchor="start" x="3304.5" y="-18.5" font-family="Helvetica,sans-Serif" font-size="10.00">boost/asio/detail/pop</text>
<text text-anchor="middle" x="3356" y="-7.5" font-family="Helvetica,sans-Serif" font-size="10.00">_options.hpp</text>
</a>
</g>
</g>
<!-- Node1&#45;&gt;Node27 -->
<g id="edge32" class="edge">
<title>Node1&#45;&gt;Node27</title>
<path fill="none" stroke="midnightblue" d="M1621.02,-134.29C1648.1,-106.95 1685.02,-70.71 1694,-67 1773.67,-34.11 3124.94,-40.76 3285.87,-30.62"/>
<polygon fill="midnightblue" stroke="midnightblue" points="3286.59,-34.07 3296.27,-29.76 3286.02,-27.09 3286.59,-34.07"/>
</g>
<!-- Node9&#45;&gt;Node2 -->
<g id="edge9" class="edge">
<title>Node9&#45;&gt;Node2</title>
<path fill="none" stroke="midnightblue" d="M1483.94,-80.55C1221.38,-76.39 209.01,-58.66 69,-31 65.74,-30.36 62.39,-29.48 59.09,-28.46"/>
<polygon fill="midnightblue" stroke="midnightblue" points="60.08,-25.1 49.48,-25.14 57.79,-31.72 60.08,-25.1"/>
</g>
<!-- Node9&#45;&gt;Node3 -->
<g id="edge10" class="edge">
<title>Node9&#45;&gt;Node3</title>
<path fill="none" stroke="midnightblue" d="M1483.99,-80.2C1258.75,-75.29 484.21,-56.89 238,-31 227.96,-29.94 217.3,-28.42 207.06,-26.75"/>
<polygon fill="midnightblue" stroke="midnightblue" points="207.46,-23.27 197.01,-25.05 206.29,-30.17 207.46,-23.27"/>
</g>
<!-- Node9&#45;&gt;Node7 -->
<g id="edge12" class="edge">
<title>Node9&#45;&gt;Node7</title>
<path fill="none" stroke="midnightblue" d="M1483.6,-78.86C1241.45,-68.59 376.97,-31.91 370,-31 362.64,-30.04 354.89,-28.67 347.39,-27.15"/>
<polygon fill="midnightblue" stroke="midnightblue" points="347.89,-23.68 337.38,-25.01 346.43,-30.52 347.89,-23.68"/>
</g>
<!-- Node9&#45;&gt;Node8 -->
<g id="edge13" class="edge">
<title>Node9&#45;&gt;Node8</title>
<path fill="none" stroke="midnightblue" d="M1483.9,-74.86C1456.12,-72.09 1422.95,-69.04 1393,-67 1009.11,-40.84 910.39,-73.84 528,-31 518.74,-29.96 508.93,-28.48 499.49,-26.85"/>
<polygon fill="midnightblue" stroke="midnightblue" points="499.9,-23.37 489.43,-25.05 498.66,-30.26 499.9,-23.37"/>
</g>
<!-- Node10 -->
<g id="node10" class="node">
<title>Node10</title>
<g id="a_node10"><a xlink:title=" ">
<polygon fill="white" stroke="#bfbfbf" points="2847.5,-6 2847.5,-25 2966.5,-25 2966.5,-6 2847.5,-6"/>
<text text-anchor="middle" x="2907" y="-13" font-family="Helvetica,sans-Serif" font-size="10.00">boost/asio/buffer.hpp</text>
</a>
</g>
</g>
<!-- Node9&#45;&gt;Node10 -->
<g id="edge11" class="edge">
<title>Node9&#45;&gt;Node10</title>
<path fill="none" stroke="midnightblue" d="M1608.09,-68.82C1612.79,-68.12 1617.46,-67.5 1622,-67 2159.47,-8.15 2301.1,-94.85 2838,-31 2845.95,-30.05 2854.34,-28.65 2862.43,-27.07"/>
<polygon fill="midnightblue" stroke="midnightblue" points="2863.36,-30.45 2872.45,-25.01 2861.95,-23.6 2863.36,-30.45"/>
</g>
<!-- Node11 -->
<g id="node11" class="node">
<title>Node11</title>
<g id="a_node11"><a xlink:title=" ">
<polygon fill="white" stroke="#bfbfbf" points="2984.5,-6 2984.5,-25 3135.5,-25 3135.5,-6 2984.5,-6"/>
<text text-anchor="middle" x="3060" y="-13" font-family="Helvetica,sans-Serif" font-size="10.00">boost/asio/socket_base.hpp</text>
</a>
</g>
</g>
<!-- Node9&#45;&gt;Node11 -->
<g id="edge14" class="edge">
<title>Node9&#45;&gt;Node11</title>
<path fill="none" stroke="midnightblue" d="M1608.09,-68.81C1612.78,-68.11 1617.46,-67.49 1622,-67 2220.51,-2.38 2376.94,-90.35 2976,-31 2986.16,-29.99 2996.95,-28.48 3007.28,-26.8"/>
<polygon fill="midnightblue" stroke="midnightblue" points="3008.16,-30.2 3017.43,-25.08 3006.99,-23.3 3008.16,-30.2"/>
</g>
<!-- Node12 -->
<g id="node12" class="node">
<title>Node12</title>
<g id="a_node12"><a xlink:title=" ">
<polygon fill="white" stroke="#bfbfbf" points="537.5,-6 537.5,-25 706.5,-25 706.5,-6 537.5,-6"/>
<text text-anchor="middle" x="622" y="-13" font-family="Helvetica,sans-Serif" font-size="10.00">boost/asio/detail/addressof.hpp</text>
</a>
</g>
</g>
<!-- Node9&#45;&gt;Node12 -->
<g id="edge15" class="edge">
<title>Node9&#45;&gt;Node12</title>
<path fill="none" stroke="midnightblue" d="M1483.89,-75.02C1456.11,-72.28 1422.94,-69.21 1393,-67 1092.06,-44.76 1015.13,-62.28 715,-31 703.93,-29.85 692.16,-28.28 680.85,-26.6"/>
<polygon fill="midnightblue" stroke="midnightblue" points="681.04,-23.09 670.63,-25.04 679.98,-30.01 681.04,-23.09"/>
</g>
<!-- Node13 -->
<g id="node13" class="node">
<title>Node13</title>
<g id="a_node13"><a xlink:title=" ">
<polygon fill="white" stroke="#bfbfbf" points="724.5,-0.5 724.5,-30.5 855.5,-30.5 855.5,-0.5 724.5,-0.5"/>
<text text-anchor="start" x="732.5" y="-18.5" font-family="Helvetica,sans-Serif" font-size="10.00">boost/asio/detail/buffer</text>
<text text-anchor="middle" x="790" y="-7.5" font-family="Helvetica,sans-Serif" font-size="10.00">_sequence_adapter.hpp</text>
</a>
</g>
</g>
<!-- Node9&#45;&gt;Node13 -->
<g id="edge16" class="edge">
<title>Node9&#45;&gt;Node13</title>
<path fill="none" stroke="midnightblue" d="M1483.87,-75.24C1456.09,-72.53 1422.92,-69.44 1393,-67 1161.88,-48.17 1099.98,-61.01 865.97,-31.01"/>
<polygon fill="midnightblue" stroke="midnightblue" points="866.14,-27.5 855.78,-29.69 865.24,-34.45 866.14,-27.5"/>
</g>
<!-- Node14 -->
<g id="node14" class="node">
<title>Node14</title>
<g id="a_node14"><a xlink:title=" ">
<polygon fill="white" stroke="#bfbfbf" points="874,-6 874,-25 1058,-25 1058,-6 874,-6"/>
<text text-anchor="middle" x="966" y="-13" font-family="Helvetica,sans-Serif" font-size="10.00">boost/asio/detail/noncopyable.hpp</text>
</a>
</g>
</g>
<!-- Node9&#45;&gt;Node14 -->
<g id="edge17" class="edge">
<title>Node9&#45;&gt;Node14</title>
<path fill="none" stroke="midnightblue" d="M1483.91,-75.71C1392.5,-67 1216.36,-49.59 1067,-31 1055.85,-29.61 1044.03,-28.02 1032.55,-26.42"/>
<polygon fill="midnightblue" stroke="midnightblue" points="1032.96,-22.94 1022.57,-25 1031.98,-29.87 1032.96,-22.94"/>
</g>
<!-- Node15 -->
<g id="node15" class="node">
<title>Node15</title>
<g id="a_node15"><a xlink:title=" ">
<polygon fill="white" stroke="#bfbfbf" points="1076,-0.5 1076,-30.5 1216,-30.5 1216,-0.5 1076,-0.5"/>
<text text-anchor="start" x="1084" y="-18.5" font-family="Helvetica,sans-Serif" font-size="10.00">boost/asio/detail/reactive</text>
<text text-anchor="middle" x="1146" y="-7.5" font-family="Helvetica,sans-Serif" font-size="10.00">_null_buffers_op.hpp</text>
</a>
</g>
</g>
<!-- Node9&#45;&gt;Node15 -->
<g id="edge18" class="edge">
<title>Node9&#45;&gt;Node15</title>
<path fill="none" stroke="midnightblue" d="M1483.79,-72.19C1421.27,-62.73 1321.89,-47.4 1226.33,-31.2"/>
<polygon fill="midnightblue" stroke="midnightblue" points="1226.64,-27.71 1216.19,-29.48 1225.47,-34.61 1226.64,-27.71"/>
</g>
<!-- Node16 -->
<g id="node16" class="node">
<title>Node16</title>
<g id="a_node16"><a xlink:title=" ">
<polygon fill="white" stroke="#bfbfbf" points="1234,-0.5 1234,-30.5 1374,-30.5 1374,-0.5 1234,-0.5"/>
<text text-anchor="start" x="1242" y="-18.5" font-family="Helvetica,sans-Serif" font-size="10.00">boost/asio/detail/reactive</text>
<text text-anchor="middle" x="1304" y="-7.5" font-family="Helvetica,sans-Serif" font-size="10.00">_socket_accept_op.hpp</text>
</a>
</g>
</g>
<!-- Node9&#45;&gt;Node16 -->
<g id="edge19" class="edge">
<title>Node9&#45;&gt;Node16</title>
<path fill="none" stroke="midnightblue" d="M1493.79,-67.48C1456.38,-57.43 1405.85,-43.86 1366.33,-33.24"/>
<polygon fill="midnightblue" stroke="midnightblue" points="1367.1,-29.82 1356.54,-30.61 1365.29,-36.59 1367.1,-29.82"/>
</g>
<!-- Node17 -->
<g id="node17" class="node">
<title>Node17</title>
<g id="a_node17"><a xlink:title=" ">
<polygon fill="white" stroke="#bfbfbf" points="1392,-0.5 1392,-30.5 1532,-30.5 1532,-0.5 1392,-0.5"/>
<text text-anchor="start" x="1400" y="-18.5" font-family="Helvetica,sans-Serif" font-size="10.00">boost/asio/detail/reactive</text>
<text text-anchor="middle" x="1462" y="-7.5" font-family="Helvetica,sans-Serif" font-size="10.00">_socket_connect_op.hpp</text>
</a>
</g>
</g>
<!-- Node9&#45;&gt;Node17 -->
<g id="edge20" class="edge">
<title>Node9&#45;&gt;Node17</title>
<path fill="none" stroke="midnightblue" d="M1527.77,-67.4C1516.22,-58.45 1501.08,-46.74 1488.24,-36.8"/>
<polygon fill="midnightblue" stroke="midnightblue" points="1490.24,-33.93 1480.19,-30.58 1485.96,-39.46 1490.24,-33.93"/>
</g>
<!-- Node18 -->
<g id="node18" class="node">
<title>Node18</title>
<g id="a_node18"><a xlink:title=" ">
<polygon fill="white" stroke="#bfbfbf" points="1550,-0.5 1550,-30.5 1712,-30.5 1712,-0.5 1550,-0.5"/>
<text text-anchor="start" x="1558" y="-18.5" font-family="Helvetica,sans-Serif" font-size="10.00">boost/asio/detail/reactive</text>
<text text-anchor="middle" x="1631" y="-7.5" font-family="Helvetica,sans-Serif" font-size="10.00">_socket_recvfrom_op_ext.hpp</text>
</a>
</g>
</g>
<!-- Node9&#45;&gt;Node18 -->
<g id="edge21" class="edge">
<title>Node9&#45;&gt;Node18</title>
<path fill="none" stroke="midnightblue" d="M1564.44,-67.4C1576.14,-58.45 1591.46,-46.74 1604.45,-36.8"/>
<polygon fill="midnightblue" stroke="midnightblue" points="1606.77,-39.43 1612.59,-30.58 1602.52,-33.87 1606.77,-39.43"/>
</g>
<!-- Node19 -->
<g id="node19" class="node">
<title>Node19</title>
<g id="a_node19"><a xlink:title=" ">
<polygon fill="white" stroke="#bfbfbf" points="1730,-0.5 1730,-30.5 1870,-30.5 1870,-0.5 1730,-0.5"/>
<text text-anchor="start" x="1738" y="-18.5" font-family="Helvetica,sans-Serif" font-size="10.00">boost/asio/detail/reactive</text>
<text text-anchor="middle" x="1800" y="-7.5" font-family="Helvetica,sans-Serif" font-size="10.00">_socket_sendto_op.hpp</text>
</a>
</g>
</g>
<!-- Node9&#45;&gt;Node19 -->
<g id="edge22" class="edge">
<title>Node9&#45;&gt;Node19</title>
<path fill="none" stroke="midnightblue" d="M1600.8,-67.48C1640.23,-57.39 1693.55,-43.74 1735.1,-33.11"/>
<polygon fill="midnightblue" stroke="midnightblue" points="1736.04,-36.48 1744.86,-30.61 1734.3,-29.7 1736.04,-36.48"/>
</g>
<!-- Node20 -->
<g id="node20" class="node">
<title>Node20</title>
<g id="a_node20"><a xlink:title=" ">
<polygon fill="white" stroke="#bfbfbf" points="1888,-0.5 1888,-30.5 2052,-30.5 2052,-0.5 1888,-0.5"/>
<text text-anchor="start" x="1896" y="-18.5" font-family="Helvetica,sans-Serif" font-size="10.00">boost/asio/detail/reactive</text>
<text text-anchor="middle" x="1970" y="-7.5" font-family="Helvetica,sans-Serif" font-size="10.00">_socket_service_base_ext.hpp</text>
</a>
</g>
</g>
<!-- Node9&#45;&gt;Node20 -->
<g id="edge23" class="edge">
<title>Node9&#45;&gt;Node20</title>
<path fill="none" stroke="midnightblue" d="M1608.17,-69.38C1612.84,-68.55 1617.49,-67.74 1622,-67 1732.57,-48.72 1763.22,-48.1 1877.46,-31.21"/>
<polygon fill="midnightblue" stroke="midnightblue" points="1878.3,-34.62 1887.67,-29.69 1877.26,-27.7 1878.3,-34.62"/>
</g>
<!-- Node21 -->
<g id="node21" class="node">
<title>Node21</title>
<g id="a_node21"><a xlink:title=" ">
<polygon fill="white" stroke="#bfbfbf" points="2070.5,-6 2070.5,-25 2225.5,-25 2225.5,-6 2070.5,-6"/>
<text text-anchor="middle" x="2148" y="-13" font-family="Helvetica,sans-Serif" font-size="10.00">boost/asio/detail/reactor.hpp</text>
</a>
</g>
</g>
<!-- Node9&#45;&gt;Node21 -->
<g id="edge24" class="edge">
<title>Node9&#45;&gt;Node21</title>
<path fill="none" stroke="midnightblue" d="M1608.12,-69.09C1612.81,-68.32 1617.47,-67.62 1622,-67 1815.98,-40.62 1866.72,-55.11 2061,-31 2070.8,-29.78 2081.19,-28.26 2091.24,-26.66"/>
<polygon fill="midnightblue" stroke="midnightblue" points="2091.84,-30.11 2101.15,-25.04 2090.71,-23.2 2091.84,-30.11"/>
</g>
<!-- Node22 -->
<g id="node22" class="node">
<title>Node22</title>
<g id="a_node22"><a xlink:title=" ">
<polygon fill="white" stroke="#bfbfbf" points="2243.5,-0.5 2243.5,-30.5 2378.5,-30.5 2378.5,-0.5 2243.5,-0.5"/>
<text text-anchor="start" x="2251.5" y="-18.5" font-family="Helvetica,sans-Serif" font-size="10.00">boost/asio/detail/reactor</text>
<text text-anchor="middle" x="2311" y="-7.5" font-family="Helvetica,sans-Serif" font-size="10.00">_op.hpp</text>
</a>
</g>
</g>
<!-- Node9&#45;&gt;Node22 -->
<g id="edge25" class="edge">
<title>Node9&#45;&gt;Node22</title>
<path fill="none" stroke="midnightblue" d="M1608.11,-68.97C1612.8,-68.23 1617.47,-67.56 1622,-67 1889.53,-33.77 1962.4,-63.89 2232.99,-31.15"/>
<polygon fill="midnightblue" stroke="midnightblue" points="2233.62,-34.6 2243.12,-29.9 2232.76,-27.65 2233.62,-34.6"/>
</g>
<!-- Node23 -->
<g id="node23" class="node">
<title>Node23</title>
<g id="a_node23"><a xlink:title=" ">
<polygon fill="white" stroke="#bfbfbf" points="2397,-0.5 2397,-30.5 2529,-30.5 2529,-0.5 2397,-0.5"/>
<text text-anchor="start" x="2405" y="-18.5" font-family="Helvetica,sans-Serif" font-size="10.00">boost/asio/detail/socket</text>
<text text-anchor="middle" x="2463" y="-7.5" font-family="Helvetica,sans-Serif" font-size="10.00">_holder.hpp</text>
</a>
</g>
</g>
<!-- Node9&#45;&gt;Node23 -->
<g id="edge26" class="edge">
<title>Node9&#45;&gt;Node23</title>
<path fill="none" stroke="midnightblue" d="M1608.1,-68.91C1612.79,-68.19 1617.46,-67.54 1622,-67 1957.16,-27.35 2047.82,-70.59 2386.73,-31.02"/>
<polygon fill="midnightblue" stroke="midnightblue" points="2387.31,-34.48 2396.83,-29.83 2386.49,-27.53 2387.31,-34.48"/>
</g>
<!-- Node24 -->
<g id="node24" class="node">
<title>Node24</title>
<g id="a_node24"><a xlink:title=" ">
<polygon fill="white" stroke="#bfbfbf" points="2547,-0.5 2547,-30.5 2679,-30.5 2679,-0.5 2547,-0.5"/>
<text text-anchor="start" x="2555" y="-18.5" font-family="Helvetica,sans-Serif" font-size="10.00">boost/asio/detail/socket</text>
<text text-anchor="middle" x="2613" y="-7.5" font-family="Helvetica,sans-Serif" font-size="10.00">_ops.hpp</text>
</a>
</g>
</g>
<!-- Node9&#45;&gt;Node24 -->
<g id="edge27" class="edge">
<title>Node9&#45;&gt;Node24</title>
<path fill="none" stroke="midnightblue" d="M1608.1,-68.87C1612.79,-68.16 1617.46,-67.52 1622,-67 2023.52,-21.07 2131.54,-76.89 2536.89,-31"/>
<polygon fill="midnightblue" stroke="midnightblue" points="2537.29,-34.47 2546.83,-29.86 2536.5,-27.52 2537.29,-34.47"/>
</g>
<!-- Node25 -->
<g id="node25" class="node">
<title>Node25</title>
<g id="a_node25"><a xlink:title=" ">
<polygon fill="white" stroke="#bfbfbf" points="2697,-0.5 2697,-30.5 2829,-30.5 2829,-0.5 2697,-0.5"/>
<text text-anchor="start" x="2705" y="-18.5" font-family="Helvetica,sans-Serif" font-size="10.00">boost/asio/detail/socket</text>
<text text-anchor="middle" x="2763" y="-7.5" font-family="Helvetica,sans-Serif" font-size="10.00">_types.hpp</text>
</a>
</g>
</g>
<!-- Node9&#45;&gt;Node25 -->
<g id="edge28" class="edge">
<title>Node9&#45;&gt;Node25</title>
<path fill="none" stroke="midnightblue" d="M1608.09,-68.84C1612.79,-68.13 1617.46,-67.51 1622,-67 2089.79,-14.79 2215.17,-83.17 2686.69,-31.01"/>
<polygon fill="midnightblue" stroke="midnightblue" points="2687.28,-34.47 2696.83,-29.88 2686.51,-27.51 2687.28,-34.47"/>
</g>
<!-- Node9&#45;&gt;Node26 -->
<g id="edge29" class="edge">
<title>Node9&#45;&gt;Node26</title>
<path fill="none" stroke="midnightblue" d="M1608.09,-68.79C1612.78,-68.09 1617.46,-67.48 1622,-67 2291.98,4.34 2470.47,-105.95 3143.81,-30.98"/>
<polygon fill="midnightblue" stroke="midnightblue" points="3144.21,-34.46 3153.76,-29.86 3143.43,-27.5 3144.21,-34.46"/>
</g>
<!-- Node9&#45;&gt;Node27 -->
<g id="edge30" class="edge">
<title>Node9&#45;&gt;Node27</title>
<path fill="none" stroke="midnightblue" d="M1608.01,-72.42C1624.84,-70.28 1643.09,-68.26 1660,-67 2377.95,-13.55 2566.71,-112.8 3286.18,-30.91"/>
<polygon fill="midnightblue" stroke="midnightblue" points="3286.74,-34.37 3296.27,-29.76 3285.94,-27.42 3286.74,-34.37"/>
</g>
</g>
</svg>
