<?xml version="1.0" encoding="UTF-8" standalone="no"?>
<!DOCTYPE svg PUBLIC "-//W3C//DTD SVG 1.1//EN"
 "http://www.w3.org/Graphics/SVG/1.1/DTD/svg11.dtd">
<!-- Generated by graphviz version 2.43.0 (0)
 -->
<!-- Title: /home/kali/projects/vsomeip/implementation/helper/1.70/boost/asio Pages: 1 -->
<svg width="326pt" height="111pt"
 viewBox="0.00 0.00 326.00 111.00" xmlns="http://www.w3.org/2000/svg" xmlns:xlink="http://www.w3.org/1999/xlink">
<g id="graph0" class="graph" transform="scale(1 1) rotate(0) translate(4 107)">
<title>/home/kali/projects/vsomeip/implementation/helper/1.70/boost/asio</title>
<polygon fill="white" stroke="transparent" points="-4,4 -4,-107 322,-107 322,4 -4,4"/>
<g id="clust1" class="cluster">
<title>clusterdir_4491f4fe4442e76f3f4c1857ae66f114</title>
<g id="a_clust1"><a xlink:href="dir_4491f4fe4442e76f3f4c1857ae66f114.html" target="_top" xlink:title="boost">
<polygon fill="#edf0f7" stroke="#7f7f7f" stroke-dasharray="5,2" points="8,-8 8,-95 310,-95 310,-8 8,-8"/>
<text text-anchor="middle" x="159" y="-83" font-family="Helvetica,sans-Serif" font-size="10.00">boost</text>
</a>
</g>
</g>
<g id="clust2" class="cluster">
<title>clusterdir_922e6dba4c11af3098c55f66f231f731</title>
<g id="a_clust2"><a xlink:href="dir_922e6dba4c11af3098c55f66f231f731.html" target="_top">
<polygon fill="#edf0f7" stroke="#404040" stroke-width="2" points="16,-16 16,-68 302,-68 302,-16 16,-16"/>
</a>
</g>
</g>
<!-- dir_922e6dba4c11af3098c55f66f231f731 -->
<g id="node1" class="node">
<title>dir_922e6dba4c11af3098c55f66f231f731</title>
<text text-anchor="middle" x="267" y="-39.5" font-family="Helvetica,sans-Serif" font-size="10.00">asio</text>
</g>
<!-- dir_40099ab6e03dfb7427767f32d971a777 -->
<g id="node2" class="node">
<title>dir_40099ab6e03dfb7427767f32d971a777</title>
<g id="a_node2"><a xlink:href="dir_40099ab6e03dfb7427767f32d971a777.html" target="_top" xlink:title="detail">
<polygon fill="#a2b4d6" stroke="#404040" points="222,-60 168,-60 168,-24 222,-24 222,-60"/>
<text text-anchor="middle" x="195" y="-39.5" font-family="Helvetica,sans-Serif" font-size="10.00">detail</text>
</a>
</g>
</g>
<!-- dir_39b8021d84feab0b15ba26594ca98409 -->
<g id="node3" class="node">
<title>dir_39b8021d84feab0b15ba26594ca98409</title>
<g id="a_node3"><a xlink:href="dir_39b8021d84feab0b15ba26594ca98409.html" target="_top" xlink:title="ip">
<polygon fill="#a2b4d6" stroke="#404040" points="150,-60 96,-60 96,-24 150,-24 150,-60"/>
<text text-anchor="middle" x="123" y="-39.5" font-family="Helvetica,sans-Serif" font-size="10.00">ip</text>
</a>
</g>
</g>
<!-- dir_63e5b4203441e9d86cc395a144fb9482 -->
<g id="node4" class="node">
<title>dir_63e5b4203441e9d86cc395a144fb9482</title>
<g id="a_node4"><a xlink:href="dir_63e5b4203441e9d86cc395a144fb9482.html" target="_top" xlink:title="local">
<polygon fill="#a2b4d6" stroke="#404040" points="78,-60 24,-60 24,-24 78,-24 78,-60"/>
<text text-anchor="middle" x="51" y="-39.5" font-family="Helvetica,sans-Serif" font-size="10.00">local</text>
</a>
</g>
</g>
</g>
</svg>
