<?xml version="1.0" encoding="UTF-8" standalone="no"?>
<!DOCTYPE svg PUBLIC "-//W3C//DTD SVG 1.1//EN"
 "http://www.w3.org/Graphics/SVG/1.1/DTD/svg11.dtd">
<!-- Generated by graphviz version 2.43.0 (0)
 -->
<!-- Title: /home/kali/projects/vsomeip/implementation/e2e_protection/src/e2e Pages: 1 -->
<svg width="198pt" height="159pt"
 viewBox="0.00 0.00 198.00 159.00" xmlns="http://www.w3.org/2000/svg" xmlns:xlink="http://www.w3.org/1999/xlink">
<g id="graph0" class="graph" transform="scale(1 1) rotate(0) translate(4 155)">
<title>/home/kali/projects/vsomeip/implementation/e2e_protection/src/e2e</title>
<polygon fill="white" stroke="transparent" points="-4,4 -4,-155 194,-155 194,4 -4,4"/>
<g id="clust1" class="cluster">
<title>clusterdir_26072f771e90755e0dd5d6c321b33fcc</title>
<g id="a_clust1"><a xlink:href="dir_26072f771e90755e0dd5d6c321b33fcc.html" target="_top" xlink:title="src">
<polygon fill="#edf0f7" stroke="#7f7f7f" stroke-dasharray="5,2" points="24,-56 24,-143 182,-143 182,-56 24,-56"/>
<text text-anchor="middle" x="103" y="-131" font-family="Helvetica,sans-Serif" font-size="10.00">src</text>
</a>
</g>
</g>
<g id="clust2" class="cluster">
<title>clusterdir_4c5cb071900c74e64eb69201ab76a37a</title>
<g id="a_clust2"><a xlink:href="dir_4c5cb071900c74e64eb69201ab76a37a.html" target="_top">
<polygon fill="#edf0f7" stroke="#404040" stroke-width="2" points="32,-64 32,-116 174,-116 174,-64 32,-64"/>
</a>
</g>
</g>
<!-- dir_4c5cb071900c74e64eb69201ab76a37a -->
<g id="node1" class="node">
<title>dir_4c5cb071900c74e64eb69201ab76a37a</title>
<text text-anchor="middle" x="139" y="-87.5" font-family="Helvetica,sans-Serif" font-size="10.00">e2e</text>
</g>
<!-- dir_1a314ca59dd122efcbdf7cfcbe800b87 -->
<g id="node2" class="node">
<title>dir_1a314ca59dd122efcbdf7cfcbe800b87</title>
<g id="a_node2"><a xlink:href="dir_1a314ca59dd122efcbdf7cfcbe800b87.html" target="_top" xlink:title="profile">
<polygon fill="#a2b4d6" stroke="#404040" points="94,-108 40,-108 40,-72 94,-72 94,-108"/>
<text text-anchor="middle" x="67" y="-87.5" font-family="Helvetica,sans-Serif" font-size="10.00">profile</text>
</a>
</g>
</g>
<!-- dir_b31d54d5631803016a26f28213a41162 -->
<g id="node3" class="node">
<title>dir_b31d54d5631803016a26f28213a41162</title>
<g id="a_node3"><a xlink:href="dir_b31d54d5631803016a26f28213a41162.html" target="_top" xlink:title="interface">
<polygon fill="none" stroke="red" points="60,-36 0,-36 0,0 60,0 60,-36"/>
<text text-anchor="middle" x="30" y="-15.5" font-family="Helvetica,sans-Serif" font-size="10.00">interface</text>
</a>
</g>
</g>
<!-- dir_1a314ca59dd122efcbdf7cfcbe800b87&#45;&gt;dir_b31d54d5631803016a26f28213a41162 -->
<g id="edge2" class="edge">
<title>dir_1a314ca59dd122efcbdf7cfcbe800b87&#45;&gt;dir_b31d54d5631803016a26f28213a41162</title>
<path fill="none" stroke="black" d="M57.85,-71.7C53.6,-63.64 48.44,-53.89 43.73,-44.98"/>
<polygon fill="black" stroke="black" points="46.81,-43.31 39.04,-36.1 40.62,-46.58 46.81,-43.31"/>
<g id="a_edge2&#45;headlabel"><a xlink:href="dir_000074_000054.html" target="_top" xlink:title="6">
<text text-anchor="middle" x="51" y="-42.66" font-family="Helvetica,sans-Serif" font-size="10.00">6</text>
</a>
</g>
</g>
<!-- dir_261f67b82c2cb416f656d185a1fa5017 -->
<g id="node4" class="node">
<title>dir_261f67b82c2cb416f656d185a1fa5017</title>
<g id="a_node4"><a xlink:href="dir_261f67b82c2cb416f656d185a1fa5017.html" target="_top" xlink:title="include">
<polygon fill="none" stroke="red" stroke-dasharray="5,2" points="132,-36 78,-36 78,0 132,0 132,-36"/>
<text text-anchor="middle" x="105" y="-15.5" font-family="Helvetica,sans-Serif" font-size="10.00">include</text>
</a>
</g>
</g>
<!-- dir_1a314ca59dd122efcbdf7cfcbe800b87&#45;&gt;dir_261f67b82c2cb416f656d185a1fa5017 -->
<g id="edge1" class="edge">
<title>dir_1a314ca59dd122efcbdf7cfcbe800b87&#45;&gt;dir_261f67b82c2cb416f656d185a1fa5017</title>
<path fill="none" stroke="black" d="M76.39,-71.7C80.76,-63.64 86.06,-53.89 90.9,-44.98"/>
<polygon fill="black" stroke="black" points="94.02,-46.56 95.71,-36.1 87.87,-43.22 94.02,-46.56"/>
<g id="a_edge1&#45;headlabel"><a xlink:href="dir_000074_000043.html" target="_top" xlink:title="22">
<text text-anchor="middle" x="94.8" y="-48.58" font-family="Helvetica,sans-Serif" font-size="10.00">22</text>
</a>
</g>
</g>
</g>
</svg>
