<?xml version="1.0" encoding="UTF-8" standalone="no"?>
<!DOCTYPE svg PUBLIC "-//W3C//DTD SVG 1.1//EN"
 "http://www.w3.org/Graphics/SVG/1.1/DTD/svg11.dtd">
<!-- Generated by graphviz version 2.43.0 (0)
 -->
<!-- Title: /home/kali/projects/vsomeip/implementation Pages: 1 -->
<svg width="749pt" height="580pt"
 viewBox="0.00 0.00 749.00 580.00" xmlns="http://www.w3.org/2000/svg" xmlns:xlink="http://www.w3.org/1999/xlink">
<g id="graph0" class="graph" transform="scale(1 1) rotate(0) translate(4 576)">
<title>/home/kali/projects/vsomeip/implementation</title>
<polygon fill="white" stroke="transparent" points="-4,4 -4,-576 745,-576 745,4 -4,4"/>
<g id="clust1" class="cluster">
<title>clusterdir_ed7c47a03c091bb19436c59342bc9555</title>
<g id="a_clust1"><a xlink:href="dir_ed7c47a03c091bb19436c59342bc9555.html" target="_top">
<polygon fill="#edf0f7" stroke="#404040" stroke-width="2" points="8,-8 8,-564 516,-564 516,-8 8,-8"/>
</a>
</g>
</g>
<!-- dir_ed7c47a03c091bb19436c59342bc9555 -->
<g id="node1" class="node">
<title>dir_ed7c47a03c091bb19436c59342bc9555</title>
<text text-anchor="middle" x="425" y="-535.5" font-family="Helvetica,sans-Serif" font-size="10.00">implementation</text>
</g>
<!-- dir_2c8ea7a53eee326c363d0456e064cb96 -->
<g id="node2" class="node">
<title>dir_2c8ea7a53eee326c363d0456e064cb96</title>
<g id="a_node2"><a xlink:href="dir_2c8ea7a53eee326c363d0456e064cb96.html" target="_top" xlink:title="compat">
<polygon fill="#a2b4d6" stroke="#404040" points="488,-484 434,-484 434,-448 488,-448 488,-484"/>
<text text-anchor="middle" x="461" y="-463.5" font-family="Helvetica,sans-Serif" font-size="10.00">compat</text>
</a>
</g>
</g>
<!-- dir_56126a1d848d4a1832817232e79a5a18 -->
<g id="node3" class="node">
<title>dir_56126a1d848d4a1832817232e79a5a18</title>
<g id="a_node3"><a xlink:href="dir_56126a1d848d4a1832817232e79a5a18.html" target="_top" xlink:title="configuration">
<polygon fill="#a2b4d6" stroke="#404040" points="344,-412 264,-412 264,-376 344,-376 344,-412"/>
<text text-anchor="middle" x="304" y="-391.5" font-family="Helvetica,sans-Serif" font-size="10.00">configuration</text>
</a>
</g>
</g>
<!-- dir_2c8ea7a53eee326c363d0456e064cb96&#45;&gt;dir_56126a1d848d4a1832817232e79a5a18 -->
<g id="edge3" class="edge">
<title>dir_2c8ea7a53eee326c363d0456e064cb96&#45;&gt;dir_56126a1d848d4a1832817232e79a5a18</title>
<path fill="none" stroke="black" d="M433.65,-452.81C411.02,-442.72 378.34,-428.14 351.45,-416.16"/>
<polygon fill="black" stroke="black" points="352.76,-412.91 342.21,-412.03 349.91,-419.3 352.76,-412.91"/>
<g id="a_edge3&#45;headlabel"><a xlink:href="dir_000017_000019.html" target="_top" xlink:title="3">
<text text-anchor="middle" x="357.2" y="-409.28" font-family="Helvetica,sans-Serif" font-size="10.00">3</text>
</a>
</g>
</g>
<!-- dir_3ce07147fcbac31fc4d5892a851f6627 -->
<g id="node8" class="node">
<title>dir_3ce07147fcbac31fc4d5892a851f6627</title>
<g id="a_node8"><a xlink:href="dir_3ce07147fcbac31fc4d5892a851f6627.html" target="_top" xlink:title="message">
<polygon fill="#a2b4d6" stroke="#404040" points="370.5,-124 309.5,-124 309.5,-88 370.5,-88 370.5,-124"/>
<text text-anchor="middle" x="340" y="-103.5" font-family="Helvetica,sans-Serif" font-size="10.00">message</text>
</a>
</g>
</g>
<!-- dir_2c8ea7a53eee326c363d0456e064cb96&#45;&gt;dir_3ce07147fcbac31fc4d5892a851f6627 -->
<g id="edge2" class="edge">
<title>dir_2c8ea7a53eee326c363d0456e064cb96&#45;&gt;dir_3ce07147fcbac31fc4d5892a851f6627</title>
<path fill="none" stroke="black" d="M467.49,-447.97C481.57,-408.16 511.13,-306.71 478,-232 476.5,-228.61 406.41,-166.01 366.72,-130.71"/>
<polygon fill="black" stroke="black" points="369.01,-128.07 359.21,-124.04 364.36,-133.3 369.01,-128.07"/>
<g id="a_edge2&#45;headlabel"><a xlink:href="dir_000017_000069.html" target="_top" xlink:title="2">
<text text-anchor="middle" x="373.58" y="-125.83" font-family="Helvetica,sans-Serif" font-size="10.00">2</text>
</a>
</g>
</g>
<!-- dir_b31d54d5631803016a26f28213a41162 -->
<g id="node16" class="node">
<title>dir_b31d54d5631803016a26f28213a41162</title>
<g id="a_node16"><a xlink:href="dir_b31d54d5631803016a26f28213a41162.html" target="_top" xlink:title="interface">
<polygon fill="none" stroke="red" points="584,-52 524,-52 524,-16 584,-16 584,-52"/>
<text text-anchor="middle" x="554" y="-31.5" font-family="Helvetica,sans-Serif" font-size="10.00">interface</text>
</a>
</g>
</g>
<!-- dir_2c8ea7a53eee326c363d0456e064cb96&#45;&gt;dir_b31d54d5631803016a26f28213a41162 -->
<g id="edge1" class="edge">
<title>dir_2c8ea7a53eee326c363d0456e064cb96&#45;&gt;dir_b31d54d5631803016a26f28213a41162</title>
<path fill="none" stroke="black" d="M488,-461.87C540.13,-455.3 651.88,-438.45 679,-412 708.33,-383.39 703,-363.97 703,-323 703,-323 703,-323 703,-177 703,-136.03 705.91,-118.89 679,-88 657.21,-62.99 621.61,-49.46 593.96,-42.35"/>
<polygon fill="black" stroke="black" points="594.72,-38.93 584.18,-40.01 593.09,-45.74 594.72,-38.93"/>
<g id="a_edge1&#45;headlabel"><a xlink:href="dir_000017_000054.html" target="_top" xlink:title="12">
<text text-anchor="middle" x="598.87" y="-34.5" font-family="Helvetica,sans-Serif" font-size="10.00">12</text>
</a>
</g>
</g>
<!-- dir_476f23a9d8d07b93b910130c774b1932 -->
<g id="node4" class="node">
<title>dir_476f23a9d8d07b93b910130c774b1932</title>
<g id="a_node4"><a xlink:href="dir_476f23a9d8d07b93b910130c774b1932.html" target="_top" xlink:title="e2e_protection">
<polygon fill="#a2b4d6" stroke="#404040" points="468.5,-268 379.5,-268 379.5,-232 468.5,-232 468.5,-268"/>
<text text-anchor="middle" x="424" y="-247.5" font-family="Helvetica,sans-Serif" font-size="10.00">e2e_protection</text>
</a>
</g>
</g>
<!-- dir_56126a1d848d4a1832817232e79a5a18&#45;&gt;dir_476f23a9d8d07b93b910130c774b1932 -->
<g id="edge4" class="edge">
<title>dir_56126a1d848d4a1832817232e79a5a18&#45;&gt;dir_476f23a9d8d07b93b910130c774b1932</title>
<path fill="none" stroke="black" d="M319.23,-375.78C330.51,-366.04 345.41,-353.2 357,-340 361.9,-334.42 383.58,-300.65 401.23,-276.36"/>
<polygon fill="black" stroke="black" points="404.12,-278.34 407.28,-268.23 398.5,-274.17 404.12,-278.34"/>
<g id="a_edge4&#45;headlabel"><a xlink:href="dir_000019_000029.html" target="_top" xlink:title="2">
<text text-anchor="middle" x="404.26" y="-280.42" font-family="Helvetica,sans-Serif" font-size="10.00">2</text>
</a>
</g>
</g>
<!-- dir_a341cf5cf1894ba060679bdee57be3d6 -->
<g id="node7" class="node">
<title>dir_a341cf5cf1894ba060679bdee57be3d6</title>
<g id="a_node7"><a xlink:href="dir_a341cf5cf1894ba060679bdee57be3d6.html" target="_top" xlink:title="logger">
<polygon fill="#a2b4d6" stroke="#404040" points="454,-340 400,-340 400,-304 454,-304 454,-340"/>
<text text-anchor="middle" x="427" y="-319.5" font-family="Helvetica,sans-Serif" font-size="10.00">logger</text>
</a>
</g>
</g>
<!-- dir_56126a1d848d4a1832817232e79a5a18&#45;&gt;dir_a341cf5cf1894ba060679bdee57be3d6 -->
<g id="edge7" class="edge">
<title>dir_56126a1d848d4a1832817232e79a5a18&#45;&gt;dir_a341cf5cf1894ba060679bdee57be3d6</title>
<path fill="none" stroke="black" d="M328.19,-375.88C346.06,-365.07 370.51,-351.14 390.69,-340.3"/>
<polygon fill="black" stroke="black" points="392.43,-343.34 399.61,-335.56 389.14,-337.16 392.43,-343.34"/>
<g id="a_edge7&#45;headlabel"><a xlink:href="dir_000019_000067.html" target="_top" xlink:title="1">
<text text-anchor="middle" x="390.58" y="-345.03" font-family="Helvetica,sans-Serif" font-size="10.00">1</text>
</a>
</g>
</g>
<!-- dir_f132f3c082319ace6827058f7d1d886d -->
<g id="node9" class="node">
<title>dir_f132f3c082319ace6827058f7d1d886d</title>
<g id="a_node9"><a xlink:href="dir_f132f3c082319ace6827058f7d1d886d.html" target="_top" xlink:title="plugin">
<polygon fill="#a2b4d6" stroke="#404040" points="291,-124 237,-124 237,-88 291,-88 291,-124"/>
<text text-anchor="middle" x="264" y="-103.5" font-family="Helvetica,sans-Serif" font-size="10.00">plugin</text>
</a>
</g>
</g>
<!-- dir_56126a1d848d4a1832817232e79a5a18&#45;&gt;dir_f132f3c082319ace6827058f7d1d886d -->
<g id="edge11" class="edge">
<title>dir_56126a1d848d4a1832817232e79a5a18&#45;&gt;dir_f132f3c082319ace6827058f7d1d886d</title>
<path fill="none" stroke="black" d="M305.47,-375.81C315.6,-328.56 354.12,-197.73 334,-160 329.51,-151.58 312.97,-139.95 297,-129.74"/>
<polygon fill="black" stroke="black" points="298.6,-126.61 288.27,-124.24 294.86,-132.53 298.6,-126.61"/>
<g id="a_edge11&#45;headlabel"><a xlink:href="dir_000019_000070.html" target="_top" xlink:title="1">
<text text-anchor="middle" x="303.15" y="-123.62" font-family="Helvetica,sans-Serif" font-size="10.00">1</text>
</a>
</g>
</g>
<!-- dir_cf72682d9b1c0bc1c562a1f19b8defa0 -->
<g id="node10" class="node">
<title>dir_cf72682d9b1c0bc1c562a1f19b8defa0</title>
<g id="a_node10"><a xlink:href="dir_cf72682d9b1c0bc1c562a1f19b8defa0.html" target="_top" xlink:title="routing">
<polygon fill="#a2b4d6" stroke="#404040" points="285,-340 231,-340 231,-304 285,-304 285,-340"/>
<text text-anchor="middle" x="258" y="-319.5" font-family="Helvetica,sans-Serif" font-size="10.00">routing</text>
</a>
</g>
</g>
<!-- dir_56126a1d848d4a1832817232e79a5a18&#45;&gt;dir_cf72682d9b1c0bc1c562a1f19b8defa0 -->
<g id="edge8" class="edge">
<title>dir_56126a1d848d4a1832817232e79a5a18&#45;&gt;dir_cf72682d9b1c0bc1c562a1f19b8defa0</title>
<path fill="none" stroke="black" d="M286.71,-375.7C280.59,-367.64 273.97,-357.89 268.53,-348.98"/>
<polygon fill="black" stroke="black" points="271.41,-346.98 263.34,-340.1 265.36,-350.51 271.41,-346.98"/>
<g id="a_edge8&#45;headlabel"><a xlink:href="dir_000019_000082.html" target="_top" xlink:title="1">
<text text-anchor="middle" x="275.67" y="-346.15" font-family="Helvetica,sans-Serif" font-size="10.00">1</text>
</a>
</g>
</g>
<!-- dir_96312f6272b562b103a6f862042db4a4 -->
<g id="node12" class="node">
<title>dir_96312f6272b562b103a6f862042db4a4</title>
<g id="a_node12"><a xlink:href="dir_96312f6272b562b103a6f862042db4a4.html" target="_top" xlink:title="security">
<polygon fill="#a2b4d6" stroke="#404040" points="172,-196 116,-196 116,-160 172,-160 172,-196"/>
<text text-anchor="middle" x="144" y="-175.5" font-family="Helvetica,sans-Serif" font-size="10.00">security</text>
</a>
</g>
</g>
<!-- dir_56126a1d848d4a1832817232e79a5a18&#45;&gt;dir_96312f6272b562b103a6f862042db4a4 -->
<g id="edge5" class="edge">
<title>dir_56126a1d848d4a1832817232e79a5a18&#45;&gt;dir_96312f6272b562b103a6f862042db4a4</title>
<path fill="none" stroke="black" d="M263.82,-379.09C221.62,-360.58 158.93,-323.59 138,-268 130.53,-248.16 130.2,-224.05 132.89,-205.93"/>
<polygon fill="black" stroke="black" points="136.34,-206.51 134.79,-196.03 129.47,-205.19 136.34,-206.51"/>
<g id="a_edge5&#45;headlabel"><a xlink:href="dir_000019_000085.html" target="_top" xlink:title="3">
<text text-anchor="middle" x="138.45" y="-208.07" font-family="Helvetica,sans-Serif" font-size="10.00">3</text>
</a>
</g>
</g>
<!-- dir_061a1b0a0a40a7427f2461ed2f520013 -->
<g id="node13" class="node">
<title>dir_061a1b0a0a40a7427f2461ed2f520013</title>
<g id="a_node13"><a xlink:href="dir_061a1b0a0a40a7427f2461ed2f520013.html" target="_top" xlink:title="service_discovery">
<polygon fill="#a2b4d6" stroke="#404040" points="334,-196 230,-196 230,-160 334,-160 334,-196"/>
<text text-anchor="middle" x="282" y="-175.5" font-family="Helvetica,sans-Serif" font-size="10.00">service_discovery</text>
</a>
</g>
</g>
<!-- dir_56126a1d848d4a1832817232e79a5a18&#45;&gt;dir_061a1b0a0a40a7427f2461ed2f520013 -->
<g id="edge9" class="edge">
<title>dir_56126a1d848d4a1832817232e79a5a18&#45;&gt;dir_061a1b0a0a40a7427f2461ed2f520013</title>
<path fill="none" stroke="black" d="M298.36,-375.85C291.02,-338.83 281.74,-251.18 280.12,-206.39"/>
<polygon fill="black" stroke="black" points="283.62,-206.15 279.89,-196.23 276.62,-206.31 283.62,-206.15"/>
<g id="a_edge9&#45;headlabel"><a xlink:href="dir_000019_000086.html" target="_top" xlink:title="1">
<text text-anchor="middle" x="286.54" y="-207.18" font-family="Helvetica,sans-Serif" font-size="10.00">1</text>
</a>
</g>
</g>
<!-- dir_6972051101bc5f8d68d31d49f06d7aaf -->
<g id="node15" class="node">
<title>dir_6972051101bc5f8d68d31d49f06d7aaf</title>
<g id="a_node15"><a xlink:href="dir_6972051101bc5f8d68d31d49f06d7aaf.html" target="_top" xlink:title="utility">
<polygon fill="#a2b4d6" stroke="#404040" points="171,-52 117,-52 117,-16 171,-16 171,-52"/>
<text text-anchor="middle" x="144" y="-31.5" font-family="Helvetica,sans-Serif" font-size="10.00">utility</text>
</a>
</g>
</g>
<!-- dir_56126a1d848d4a1832817232e79a5a18&#45;&gt;dir_6972051101bc5f8d68d31d49f06d7aaf -->
<g id="edge10" class="edge">
<title>dir_56126a1d848d4a1832817232e79a5a18&#45;&gt;dir_6972051101bc5f8d68d31d49f06d7aaf</title>
<path fill="none" stroke="black" d="M263.9,-386.48C231.57,-379.2 186.74,-365.02 155,-340 124.6,-316.04 121.13,-303.63 106,-268 74.69,-194.25 68.39,-163.21 96,-88 99.7,-77.92 105.94,-68.1 112.8,-59.71"/>
<polygon fill="black" stroke="black" points="115.49,-61.94 119.5,-52.14 110.25,-57.3 115.49,-61.94"/>
<g id="a_edge10&#45;headlabel"><a xlink:href="dir_000019_000102.html" target="_top" xlink:title="1">
<text text-anchor="middle" x="115.24" y="-64.02" font-family="Helvetica,sans-Serif" font-size="10.00">1</text>
</a>
</g>
</g>
<!-- dir_56126a1d848d4a1832817232e79a5a18&#45;&gt;dir_b31d54d5631803016a26f28213a41162 -->
<g id="edge6" class="edge">
<title>dir_56126a1d848d4a1832817232e79a5a18&#45;&gt;dir_b31d54d5631803016a26f28213a41162</title>
<path fill="none" stroke="black" d="M344.26,-393.16C430.84,-391.18 627,-373.21 627,-251 627,-251 627,-251 627,-177 627,-132.03 597.69,-87.04 576.21,-60.1"/>
<polygon fill="black" stroke="black" points="578.89,-57.85 569.84,-52.35 573.48,-62.29 578.89,-57.85"/>
<g id="a_edge6&#45;headlabel"><a xlink:href="dir_000019_000054.html" target="_top" xlink:title="2">
<text text-anchor="middle" x="583.37" y="-56.33" font-family="Helvetica,sans-Serif" font-size="10.00">2</text>
</a>
</g>
</g>
<!-- dir_476f23a9d8d07b93b910130c774b1932&#45;&gt;dir_56126a1d848d4a1832817232e79a5a18 -->
<g id="edge12" class="edge">
<title>dir_476f23a9d8d07b93b910130c774b1932&#45;&gt;dir_56126a1d848d4a1832817232e79a5a18</title>
<path fill="none" stroke="black" d="M419.02,-268.23C406.93,-292.3 380.48,-333.76 375,-340 365.77,-350.51 354.43,-360.81 343.46,-369.49"/>
<polygon fill="black" stroke="black" points="341.03,-366.94 335.19,-375.78 345.27,-372.51 341.03,-366.94"/>
<g id="a_edge12&#45;headlabel"><a xlink:href="dir_000029_000019.html" target="_top" xlink:title="1">
<text text-anchor="middle" x="342.17" y="-360" font-family="Helvetica,sans-Serif" font-size="10.00">1</text>
</a>
</g>
</g>
<!-- dir_476f23a9d8d07b93b910130c774b1932&#45;&gt;dir_b31d54d5631803016a26f28213a41162 -->
<g id="edge13" class="edge">
<title>dir_476f23a9d8d07b93b910130c774b1932&#45;&gt;dir_b31d54d5631803016a26f28213a41162</title>
<path fill="none" stroke="black" d="M450.76,-231.93C463.7,-222.59 478.63,-210.06 489,-196 505.33,-173.85 531.44,-101.38 545.06,-61.65"/>
<polygon fill="black" stroke="black" points="548.41,-62.67 548.32,-52.07 541.79,-60.41 548.41,-62.67"/>
<g id="a_edge13&#45;headlabel"><a xlink:href="dir_000029_000054.html" target="_top" xlink:title="8">
<text text-anchor="middle" x="549.94" y="-64.49" font-family="Helvetica,sans-Serif" font-size="10.00">8</text>
</a>
</g>
</g>
<!-- dir_9c7b9d609ec855ab7fbf064b0ccf8e4e -->
<g id="node5" class="node">
<title>dir_9c7b9d609ec855ab7fbf064b0ccf8e4e</title>
<g id="a_node5"><a xlink:href="dir_9c7b9d609ec855ab7fbf064b0ccf8e4e.html" target="_top" xlink:title="endpoints">
<polygon fill="#a2b4d6" stroke="#404040" points="241.5,-268 176.5,-268 176.5,-232 241.5,-232 241.5,-268"/>
<text text-anchor="middle" x="209" y="-247.5" font-family="Helvetica,sans-Serif" font-size="10.00">endpoints</text>
</a>
</g>
</g>
<!-- dir_9c7b9d609ec855ab7fbf064b0ccf8e4e&#45;&gt;dir_56126a1d848d4a1832817232e79a5a18 -->
<g id="edge14" class="edge">
<title>dir_9c7b9d609ec855ab7fbf064b0ccf8e4e&#45;&gt;dir_56126a1d848d4a1832817232e79a5a18</title>
<path fill="none" stroke="black" d="M207.5,-268.18C206.68,-287.24 207.99,-318.19 222,-340 230.11,-352.63 242.43,-362.86 255.06,-370.85"/>
<polygon fill="black" stroke="black" points="253.43,-373.95 263.82,-376.02 256.99,-367.92 253.43,-373.95"/>
<g id="a_edge14&#45;headlabel"><a xlink:href="dir_000032_000019.html" target="_top" xlink:title="9">
<text text-anchor="middle" x="248.89" y="-372.06" font-family="Helvetica,sans-Serif" font-size="10.00">9</text>
</a>
</g>
</g>
<!-- dir_9c7b9d609ec855ab7fbf064b0ccf8e4e&#45;&gt;dir_cf72682d9b1c0bc1c562a1f19b8defa0 -->
<g id="edge17" class="edge">
<title>dir_9c7b9d609ec855ab7fbf064b0ccf8e4e&#45;&gt;dir_cf72682d9b1c0bc1c562a1f19b8defa0</title>
<path fill="none" stroke="black" d="M226.87,-268.1C233.39,-276.21 240.51,-286.08 246.4,-295.08"/>
<polygon fill="black" stroke="black" points="243.53,-297.08 251.8,-303.7 249.46,-293.37 243.53,-297.08"/>
<g id="a_edge17&#45;headlabel"><a xlink:href="dir_000032_000082.html" target="_top" xlink:title="11">
<text text-anchor="middle" x="239.21" y="-293.05" font-family="Helvetica,sans-Serif" font-size="10.00">11</text>
</a>
</g>
</g>
<!-- dir_9c7b9d609ec855ab7fbf064b0ccf8e4e&#45;&gt;dir_96312f6272b562b103a6f862042db4a4 -->
<g id="edge18" class="edge">
<title>dir_9c7b9d609ec855ab7fbf064b0ccf8e4e&#45;&gt;dir_96312f6272b562b103a6f862042db4a4</title>
<path fill="none" stroke="black" d="M192.93,-231.7C185.06,-223.22 175.44,-212.86 166.83,-203.58"/>
<polygon fill="black" stroke="black" points="169.25,-201.05 159.88,-196.1 164.12,-205.81 169.25,-201.05"/>
<g id="a_edge18&#45;headlabel"><a xlink:href="dir_000032_000085.html" target="_top" xlink:title="3">
<text text-anchor="middle" x="173.78" y="-199.25" font-family="Helvetica,sans-Serif" font-size="10.00">3</text>
</a>
</g>
</g>
<!-- dir_9c7b9d609ec855ab7fbf064b0ccf8e4e&#45;&gt;dir_061a1b0a0a40a7427f2461ed2f520013 -->
<g id="edge19" class="edge">
<title>dir_9c7b9d609ec855ab7fbf064b0ccf8e4e&#45;&gt;dir_061a1b0a0a40a7427f2461ed2f520013</title>
<path fill="none" stroke="black" d="M221.13,-231.7C229.25,-223.05 240.13,-212.45 250.5,-203.03"/>
<polygon fill="black" stroke="black" points="253.13,-205.37 258.27,-196.1 248.47,-200.14 253.13,-205.37"/>
<g id="a_edge19&#45;headlabel"><a xlink:href="dir_000032_000086.html" target="_top" xlink:title="2">
<text text-anchor="middle" x="252.33" y="-207.38" font-family="Helvetica,sans-Serif" font-size="10.00">2</text>
</a>
</g>
</g>
<!-- dir_9c7b9d609ec855ab7fbf064b0ccf8e4e&#45;&gt;dir_6972051101bc5f8d68d31d49f06d7aaf -->
<g id="edge16" class="edge">
<title>dir_9c7b9d609ec855ab7fbf064b0ccf8e4e&#45;&gt;dir_6972051101bc5f8d68d31d49f06d7aaf</title>
<path fill="none" stroke="black" d="M203.79,-231.85C192.5,-194.68 165.7,-106.44 152.15,-61.82"/>
<polygon fill="black" stroke="black" points="155.49,-60.78 149.23,-52.23 148.79,-62.82 155.49,-60.78"/>
<g id="a_edge16&#45;headlabel"><a xlink:href="dir_000032_000102.html" target="_top" xlink:title="19">
<text text-anchor="middle" x="159.25" y="-60.9" font-family="Helvetica,sans-Serif" font-size="10.00">19</text>
</a>
</g>
</g>
<!-- dir_9c7b9d609ec855ab7fbf064b0ccf8e4e&#45;&gt;dir_b31d54d5631803016a26f28213a41162 -->
<g id="edge15" class="edge">
<title>dir_9c7b9d609ec855ab7fbf064b0ccf8e4e&#45;&gt;dir_b31d54d5631803016a26f28213a41162</title>
<path fill="none" stroke="black" d="M241.52,-238.31C269.19,-228.71 309.64,-213.46 343,-196 416.36,-157.59 490.71,-93.76 528.5,-59.14"/>
<polygon fill="black" stroke="black" points="531.03,-61.57 536,-52.21 526.28,-56.42 531.03,-61.57"/>
<g id="a_edge15&#45;headlabel"><a xlink:href="dir_000032_000054.html" target="_top" xlink:title="17">
<text text-anchor="middle" x="530.32" y="-63.59" font-family="Helvetica,sans-Serif" font-size="10.00">17</text>
</a>
</g>
</g>
<!-- dir_865b81be71567c7497d9335ceceb92d8 -->
<g id="node6" class="node">
<title>dir_865b81be71567c7497d9335ceceb92d8</title>
<g id="a_node6"><a xlink:href="dir_865b81be71567c7497d9335ceceb92d8.html" target="_top" xlink:title="helper">
<polygon fill="#a2b4d6" stroke="#404040" points="325,-556 271,-556 271,-520 325,-520 325,-556"/>
<text text-anchor="middle" x="298" y="-535.5" font-family="Helvetica,sans-Serif" font-size="10.00">helper</text>
</a>
</g>
</g>
<!-- dir_a341cf5cf1894ba060679bdee57be3d6&#45;&gt;dir_56126a1d848d4a1832817232e79a5a18 -->
<g id="edge21" class="edge">
<title>dir_a341cf5cf1894ba060679bdee57be3d6&#45;&gt;dir_56126a1d848d4a1832817232e79a5a18</title>
<path fill="none" stroke="black" d="M402.7,-340.19C387.41,-349.44 367.33,-360.95 349.23,-370.86"/>
<polygon fill="black" stroke="black" points="347.11,-368.03 339.99,-375.88 350.44,-374.18 347.11,-368.03"/>
<g id="a_edge21&#45;headlabel"><a xlink:href="dir_000067_000019.html" target="_top" xlink:title="2">
<text text-anchor="middle" x="348.91" y="-361.32" font-family="Helvetica,sans-Serif" font-size="10.00">2</text>
</a>
</g>
</g>
<!-- dir_a341cf5cf1894ba060679bdee57be3d6&#45;&gt;dir_b31d54d5631803016a26f28213a41162 -->
<g id="edge20" class="edge">
<title>dir_a341cf5cf1894ba060679bdee57be3d6&#45;&gt;dir_b31d54d5631803016a26f28213a41162</title>
<path fill="none" stroke="black" d="M454.03,-319.35C486.61,-315.73 540.07,-304.28 565,-268 608.37,-204.88 581.66,-107.86 564.74,-61.47"/>
<polygon fill="black" stroke="black" points="568.01,-60.23 561.21,-52.11 561.46,-62.7 568.01,-60.23"/>
<g id="a_edge20&#45;headlabel"><a xlink:href="dir_000067_000054.html" target="_top" xlink:title="2">
<text text-anchor="middle" x="571.94" y="-60.09" font-family="Helvetica,sans-Serif" font-size="10.00">2</text>
</a>
</g>
</g>
<!-- dir_3ce07147fcbac31fc4d5892a851f6627&#45;&gt;dir_56126a1d848d4a1832817232e79a5a18 -->
<g id="edge24" class="edge">
<title>dir_3ce07147fcbac31fc4d5892a851f6627&#45;&gt;dir_56126a1d848d4a1832817232e79a5a18</title>
<path fill="none" stroke="black" d="M344.56,-124.06C354.25,-163.52 373.81,-263.57 346,-340 342.33,-350.09 335.91,-359.74 329.19,-367.98"/>
<polygon fill="black" stroke="black" points="326.39,-365.87 322.45,-375.7 331.66,-370.47 326.39,-365.87"/>
<g id="a_edge24&#45;headlabel"><a xlink:href="dir_000069_000019.html" target="_top" xlink:title="1">
<text text-anchor="middle" x="326.61" y="-358.79" font-family="Helvetica,sans-Serif" font-size="10.00">1</text>
</a>
</g>
</g>
<!-- dir_3ce07147fcbac31fc4d5892a851f6627&#45;&gt;dir_6972051101bc5f8d68d31d49f06d7aaf -->
<g id="edge23" class="edge">
<title>dir_3ce07147fcbac31fc4d5892a851f6627&#45;&gt;dir_6972051101bc5f8d68d31d49f06d7aaf</title>
<path fill="none" stroke="black" d="M309.08,-91.59C306.03,-90.35 302.96,-89.13 300,-88 259.73,-72.63 212.82,-56.99 181.03,-46.72"/>
<polygon fill="black" stroke="black" points="181.86,-43.31 171.27,-43.59 179.72,-49.98 181.86,-43.31"/>
<g id="a_edge23&#45;headlabel"><a xlink:href="dir_000069_000102.html" target="_top" xlink:title="4">
<text text-anchor="middle" x="186.16" y="-39.21" font-family="Helvetica,sans-Serif" font-size="10.00">4</text>
</a>
</g>
</g>
<!-- dir_3ce07147fcbac31fc4d5892a851f6627&#45;&gt;dir_b31d54d5631803016a26f28213a41162 -->
<g id="edge22" class="edge">
<title>dir_3ce07147fcbac31fc4d5892a851f6627&#45;&gt;dir_b31d54d5631803016a26f28213a41162</title>
<path fill="none" stroke="black" d="M370.84,-92.88C375.56,-91.16 380.39,-89.48 385,-88 441,-70.01 459.94,-73.54 514.31,-54"/>
<polygon fill="black" stroke="black" points="515.57,-57.26 523.74,-50.51 513.14,-50.7 515.57,-57.26"/>
<g id="a_edge22&#45;headlabel"><a xlink:href="dir_000069_000054.html" target="_top" xlink:title="2">
<text text-anchor="middle" x="513.19" y="-58.67" font-family="Helvetica,sans-Serif" font-size="10.00">2</text>
</a>
</g>
</g>
<!-- dir_f132f3c082319ace6827058f7d1d886d&#45;&gt;dir_56126a1d848d4a1832817232e79a5a18 -->
<g id="edge26" class="edge">
<title>dir_f132f3c082319ace6827058f7d1d886d&#45;&gt;dir_56126a1d848d4a1832817232e79a5a18</title>
<path fill="none" stroke="black" d="M291.01,-117.77C314.62,-129.44 345.59,-147.98 352,-160 370.9,-195.44 338.05,-313.06 317.54,-366.35"/>
<polygon fill="black" stroke="black" points="314.22,-365.22 313.75,-375.81 320.72,-367.83 314.22,-365.22"/>
<g id="a_edge26&#45;headlabel"><a xlink:href="dir_000070_000019.html" target="_top" xlink:title="1">
<text text-anchor="middle" x="312.92" y="-358.33" font-family="Helvetica,sans-Serif" font-size="10.00">1</text>
</a>
</g>
</g>
<!-- dir_f132f3c082319ace6827058f7d1d886d&#45;&gt;dir_6972051101bc5f8d68d31d49f06d7aaf -->
<g id="edge27" class="edge">
<title>dir_f132f3c082319ace6827058f7d1d886d&#45;&gt;dir_6972051101bc5f8d68d31d49f06d7aaf</title>
<path fill="none" stroke="black" d="M236.77,-89.12C219.89,-79.27 198.03,-66.52 179.76,-55.86"/>
<polygon fill="black" stroke="black" points="181.52,-52.84 171.12,-50.82 178,-58.88 181.52,-52.84"/>
<g id="a_edge27&#45;headlabel"><a xlink:href="dir_000070_000102.html" target="_top" xlink:title="1">
<text text-anchor="middle" x="186.06" y="-49.7" font-family="Helvetica,sans-Serif" font-size="10.00">1</text>
</a>
</g>
</g>
<!-- dir_f132f3c082319ace6827058f7d1d886d&#45;&gt;dir_b31d54d5631803016a26f28213a41162 -->
<g id="edge25" class="edge">
<title>dir_f132f3c082319ace6827058f7d1d886d&#45;&gt;dir_b31d54d5631803016a26f28213a41162</title>
<path fill="none" stroke="black" d="M291.2,-91.19C294.13,-90 297.1,-88.9 300,-88 391.46,-59.54 423.6,-80.97 514.24,-53.66"/>
<polygon fill="black" stroke="black" points="515.29,-57 523.79,-50.67 513.2,-50.32 515.29,-57"/>
<g id="a_edge25&#45;headlabel"><a xlink:href="dir_000070_000054.html" target="_top" xlink:title="1">
<text text-anchor="middle" x="512.71" y="-58.28" font-family="Helvetica,sans-Serif" font-size="10.00">1</text>
</a>
</g>
</g>
<!-- dir_cf72682d9b1c0bc1c562a1f19b8defa0&#45;&gt;dir_56126a1d848d4a1832817232e79a5a18 -->
<g id="edge30" class="edge">
<title>dir_cf72682d9b1c0bc1c562a1f19b8defa0&#45;&gt;dir_56126a1d848d4a1832817232e79a5a18</title>
<path fill="none" stroke="black" d="M275.14,-340.1C281.25,-348.13 287.87,-357.87 293.34,-366.8"/>
<polygon fill="black" stroke="black" points="290.47,-368.83 298.54,-375.7 296.52,-365.3 290.47,-368.83"/>
<g id="a_edge30&#45;headlabel"><a xlink:href="dir_000082_000019.html" target="_top" xlink:title="6">
<text text-anchor="middle" x="286.21" y="-364.66" font-family="Helvetica,sans-Serif" font-size="10.00">6</text>
</a>
</g>
</g>
<!-- dir_cf72682d9b1c0bc1c562a1f19b8defa0&#45;&gt;dir_476f23a9d8d07b93b910130c774b1932 -->
<g id="edge36" class="edge">
<title>dir_cf72682d9b1c0bc1c562a1f19b8defa0&#45;&gt;dir_476f23a9d8d07b93b910130c774b1932</title>
<path fill="none" stroke="black" d="M285.04,-309.6C309.16,-299.42 345.09,-284.27 374.37,-271.93"/>
<polygon fill="black" stroke="black" points="375.77,-275.14 383.62,-268.03 373.05,-268.69 375.77,-275.14"/>
<g id="a_edge36&#45;headlabel"><a xlink:href="dir_000082_000029.html" target="_top" xlink:title="3">
<text text-anchor="middle" x="373.56" y="-276.65" font-family="Helvetica,sans-Serif" font-size="10.00">3</text>
</a>
</g>
</g>
<!-- dir_cf72682d9b1c0bc1c562a1f19b8defa0&#45;&gt;dir_9c7b9d609ec855ab7fbf064b0ccf8e4e -->
<g id="edge31" class="edge">
<title>dir_cf72682d9b1c0bc1c562a1f19b8defa0&#45;&gt;dir_9c7b9d609ec855ab7fbf064b0ccf8e4e</title>
<path fill="none" stroke="black" d="M239.97,-303.7C233.44,-295.56 226.32,-285.69 220.46,-276.7"/>
<polygon fill="black" stroke="black" points="223.35,-274.73 215.08,-268.1 217.42,-278.44 223.35,-274.73"/>
<g id="a_edge31&#45;headlabel"><a xlink:href="dir_000082_000032.html" target="_top" xlink:title="20">
<text text-anchor="middle" x="227.66" y="-273.77" font-family="Helvetica,sans-Serif" font-size="10.00">20</text>
</a>
</g>
</g>
<!-- dir_cf72682d9b1c0bc1c562a1f19b8defa0&#45;&gt;dir_3ce07147fcbac31fc4d5892a851f6627 -->
<g id="edge29" class="edge">
<title>dir_cf72682d9b1c0bc1c562a1f19b8defa0&#45;&gt;dir_3ce07147fcbac31fc4d5892a851f6627</title>
<path fill="none" stroke="black" d="M274.8,-303.79C295.52,-281.22 329.64,-239.39 343,-196 349.17,-175.96 347.96,-152.18 345.46,-134.24"/>
<polygon fill="black" stroke="black" points="348.88,-133.48 343.84,-124.17 341.97,-134.6 348.88,-133.48"/>
<g id="a_edge29&#45;headlabel"><a xlink:href="dir_000082_000069.html" target="_top" xlink:title="9">
<text text-anchor="middle" x="352.26" y="-134.08" font-family="Helvetica,sans-Serif" font-size="10.00">9</text>
</a>
</g>
</g>
<!-- dir_cf72682d9b1c0bc1c562a1f19b8defa0&#45;&gt;dir_f132f3c082319ace6827058f7d1d886d -->
<g id="edge35" class="edge">
<title>dir_cf72682d9b1c0bc1c562a1f19b8defa0&#45;&gt;dir_f132f3c082319ace6827058f7d1d886d</title>
<path fill="none" stroke="black" d="M259.33,-303.92C260.13,-285.48 259.53,-255.59 250,-232 242.31,-212.95 227.83,-215.38 221,-196 215.68,-180.91 215.65,-175.08 221,-160 224.66,-149.68 231.29,-139.9 238.26,-131.61"/>
<polygon fill="black" stroke="black" points="240.87,-133.94 244.96,-124.16 235.67,-129.26 240.87,-133.94"/>
<g id="a_edge35&#45;headlabel"><a xlink:href="dir_000082_000070.html" target="_top" xlink:title="1">
<text text-anchor="middle" x="240.58" y="-136.01" font-family="Helvetica,sans-Serif" font-size="10.00">1</text>
</a>
</g>
</g>
<!-- dir_cf72682d9b1c0bc1c562a1f19b8defa0&#45;&gt;dir_96312f6272b562b103a6f862042db4a4 -->
<g id="edge33" class="edge">
<title>dir_cf72682d9b1c0bc1c562a1f19b8defa0&#45;&gt;dir_96312f6272b562b103a6f862042db4a4</title>
<path fill="none" stroke="black" d="M230.96,-311.84C210.45,-303.53 183.11,-289.28 167,-268 153.49,-250.16 147.88,-225.15 145.57,-206.19"/>
<polygon fill="black" stroke="black" points="149.04,-205.7 144.57,-196.09 142.07,-206.38 149.04,-205.7"/>
<g id="a_edge33&#45;headlabel"><a xlink:href="dir_000082_000085.html" target="_top" xlink:title="5">
<text text-anchor="middle" x="152.21" y="-206.5" font-family="Helvetica,sans-Serif" font-size="10.00">5</text>
</a>
</g>
</g>
<!-- dir_cf72682d9b1c0bc1c562a1f19b8defa0&#45;&gt;dir_061a1b0a0a40a7427f2461ed2f520013 -->
<g id="edge28" class="edge">
<title>dir_cf72682d9b1c0bc1c562a1f19b8defa0&#45;&gt;dir_061a1b0a0a40a7427f2461ed2f520013</title>
<path fill="none" stroke="black" d="M256.31,-303.87C257.85,-279.56 265.13,-234.82 272,-206.01"/>
<polygon fill="black" stroke="black" points="275.43,-206.74 274.5,-196.19 268.64,-205.02 275.43,-206.74"/>
<g id="a_edge28&#45;headlabel"><a xlink:href="dir_000082_000086.html" target="_top" xlink:title="6">
<text text-anchor="middle" x="277.29" y="-208.43" font-family="Helvetica,sans-Serif" font-size="10.00">6</text>
</a>
</g>
</g>
<!-- dir_cf72682d9b1c0bc1c562a1f19b8defa0&#45;&gt;dir_6972051101bc5f8d68d31d49f06d7aaf -->
<g id="edge34" class="edge">
<title>dir_cf72682d9b1c0bc1c562a1f19b8defa0&#45;&gt;dir_6972051101bc5f8d68d31d49f06d7aaf</title>
<path fill="none" stroke="black" d="M230.59,-313.19C206.26,-305.13 170.96,-290.53 147,-268 120.33,-242.92 116.18,-231.44 107,-196 94.81,-148.95 114.97,-93.64 130,-61.62"/>
<polygon fill="black" stroke="black" points="133.22,-62.99 134.45,-52.47 126.93,-59.93 133.22,-62.99"/>
<g id="a_edge34&#45;headlabel"><a xlink:href="dir_000082_000102.html" target="_top" xlink:title="8">
<text text-anchor="middle" x="134.2" y="-64.97" font-family="Helvetica,sans-Serif" font-size="10.00">8</text>
</a>
</g>
</g>
<!-- dir_cf72682d9b1c0bc1c562a1f19b8defa0&#45;&gt;dir_b31d54d5631803016a26f28213a41162 -->
<g id="edge32" class="edge">
<title>dir_cf72682d9b1c0bc1c562a1f19b8defa0&#45;&gt;dir_b31d54d5631803016a26f28213a41162</title>
<path fill="none" stroke="black" d="M285.28,-317.44C337.41,-310.17 448.58,-292.22 478,-268 540.76,-216.34 552.17,-112.02 553.93,-62.41"/>
<polygon fill="black" stroke="black" points="557.43,-62.22 554.18,-52.14 550.43,-62.05 557.43,-62.22"/>
<g id="a_edge32&#45;headlabel"><a xlink:href="dir_000082_000054.html" target="_top" xlink:title="7">
<text text-anchor="middle" x="560.18" y="-63.38" font-family="Helvetica,sans-Serif" font-size="10.00">7</text>
</a>
</g>
</g>
<!-- dir_edcd78c7944f950aad2a7d808a095802 -->
<g id="node11" class="node">
<title>dir_edcd78c7944f950aad2a7d808a095802</title>
<g id="a_node11"><a xlink:href="dir_edcd78c7944f950aad2a7d808a095802.html" target="_top" xlink:title="runtime">
<polygon fill="#a2b4d6" stroke="#404040" points="184.5,-556 129.5,-556 129.5,-520 184.5,-520 184.5,-556"/>
<text text-anchor="middle" x="157" y="-535.5" font-family="Helvetica,sans-Serif" font-size="10.00">runtime</text>
</a>
</g>
</g>
<!-- dir_edcd78c7944f950aad2a7d808a095802&#45;&gt;dir_56126a1d848d4a1832817232e79a5a18 -->
<g id="edge37" class="edge">
<title>dir_edcd78c7944f950aad2a7d808a095802&#45;&gt;dir_56126a1d848d4a1832817232e79a5a18</title>
<path fill="none" stroke="black" d="M184.63,-522.56C201.44,-512.98 222.73,-499.36 239,-484 258.84,-465.26 276.76,-439.77 288.73,-420.87"/>
<polygon fill="black" stroke="black" points="291.82,-422.52 294.11,-412.18 285.87,-418.84 291.82,-422.52"/>
<g id="a_edge37&#45;headlabel"><a xlink:href="dir_000084_000019.html" target="_top" xlink:title="4">
<text text-anchor="middle" x="292.34" y="-424.57" font-family="Helvetica,sans-Serif" font-size="10.00">4</text>
</a>
</g>
</g>
<!-- dir_edcd78c7944f950aad2a7d808a095802&#45;&gt;dir_9c7b9d609ec855ab7fbf064b0ccf8e4e -->
<g id="edge44" class="edge">
<title>dir_edcd78c7944f950aad2a7d808a095802&#45;&gt;dir_9c7b9d609ec855ab7fbf064b0ccf8e4e</title>
<path fill="none" stroke="black" d="M155.04,-519.85C153.35,-501.86 151.66,-472.81 155,-448 163.39,-385.68 186.07,-315.17 199.21,-277.72"/>
<polygon fill="black" stroke="black" points="202.59,-278.66 202.65,-268.07 196,-276.32 202.59,-278.66"/>
<g id="a_edge44&#45;headlabel"><a xlink:href="dir_000084_000032.html" target="_top" xlink:title="3">
<text text-anchor="middle" x="204.06" y="-280.5" font-family="Helvetica,sans-Serif" font-size="10.00">3</text>
</a>
</g>
</g>
<!-- dir_edcd78c7944f950aad2a7d808a095802&#45;&gt;dir_3ce07147fcbac31fc4d5892a851f6627 -->
<g id="edge40" class="edge">
<title>dir_edcd78c7944f950aad2a7d808a095802&#45;&gt;dir_3ce07147fcbac31fc4d5892a851f6627</title>
<path fill="none" stroke="black" d="M184.62,-532.46C205.79,-529 235.73,-524.14 262,-520 314.19,-511.78 460.4,-522.1 497,-484 524.58,-455.3 507,-434.8 507,-395 507,-395 507,-395 507,-321 507,-240.5 485.39,-212.08 424,-160 410.39,-148.45 394.05,-137.58 379.42,-128.72"/>
<polygon fill="black" stroke="black" points="380.95,-125.56 370.56,-123.48 377.38,-131.59 380.95,-125.56"/>
<g id="a_edge40&#45;headlabel"><a xlink:href="dir_000084_000069.html" target="_top" xlink:title="3">
<text text-anchor="middle" x="385.49" y="-122.45" font-family="Helvetica,sans-Serif" font-size="10.00">3</text>
</a>
</g>
</g>
<!-- dir_edcd78c7944f950aad2a7d808a095802&#45;&gt;dir_f132f3c082319ace6827058f7d1d886d -->
<g id="edge43" class="edge">
<title>dir_edcd78c7944f950aad2a7d808a095802&#45;&gt;dir_f132f3c082319ace6827058f7d1d886d</title>
<path fill="none" stroke="black" d="M147.19,-519.96C115.75,-462.85 24.22,-275.32 107,-160 134.03,-122.35 189.21,-111.1 226.41,-107.93"/>
<polygon fill="black" stroke="black" points="227.12,-111.39 236.86,-107.21 226.64,-104.4 227.12,-111.39"/>
<g id="a_edge43&#45;headlabel"><a xlink:href="dir_000084_000070.html" target="_top" xlink:title="1">
<text text-anchor="middle" x="223.73" y="-111.97" font-family="Helvetica,sans-Serif" font-size="10.00">1</text>
</a>
</g>
</g>
<!-- dir_edcd78c7944f950aad2a7d808a095802&#45;&gt;dir_cf72682d9b1c0bc1c562a1f19b8defa0 -->
<g id="edge38" class="edge">
<title>dir_edcd78c7944f950aad2a7d808a095802&#45;&gt;dir_cf72682d9b1c0bc1c562a1f19b8defa0</title>
<path fill="none" stroke="black" d="M156.37,-519.99C156.26,-501.61 157.77,-471.77 167,-448 182.11,-409.11 212.42,-371.37 233.9,-347.71"/>
<polygon fill="black" stroke="black" points="236.58,-349.96 240.81,-340.25 231.45,-345.21 236.58,-349.96"/>
<g id="a_edge38&#45;headlabel"><a xlink:href="dir_000084_000082.html" target="_top" xlink:title="3">
<text text-anchor="middle" x="236.22" y="-352.03" font-family="Helvetica,sans-Serif" font-size="10.00">3</text>
</a>
</g>
</g>
<!-- dir_edcd78c7944f950aad2a7d808a095802&#45;&gt;dir_96312f6272b562b103a6f862042db4a4 -->
<g id="edge45" class="edge">
<title>dir_edcd78c7944f950aad2a7d808a095802&#45;&gt;dir_96312f6272b562b103a6f862042db4a4</title>
<path fill="none" stroke="black" d="M139.64,-519.93C116.11,-494.89 77,-445.65 77,-395 77,-395 77,-395 77,-321 77,-276.73 103.97,-231.47 123.69,-204.3"/>
<polygon fill="black" stroke="black" points="126.6,-206.25 129.79,-196.14 121,-202.05 126.6,-206.25"/>
<g id="a_edge45&#45;headlabel"><a xlink:href="dir_000084_000085.html" target="_top" xlink:title="1">
<text text-anchor="middle" x="126.73" y="-208.32" font-family="Helvetica,sans-Serif" font-size="10.00">1</text>
</a>
</g>
</g>
<!-- dir_282dd5a982ba644edb6efcfaee8b7735 -->
<g id="node14" class="node">
<title>dir_282dd5a982ba644edb6efcfaee8b7735</title>
<g id="a_node14"><a xlink:href="dir_282dd5a982ba644edb6efcfaee8b7735.html" target="_top" xlink:title="tracing">
<polygon fill="#a2b4d6" stroke="#404040" points="230,-484 176,-484 176,-448 230,-448 230,-484"/>
<text text-anchor="middle" x="203" y="-463.5" font-family="Helvetica,sans-Serif" font-size="10.00">tracing</text>
</a>
</g>
</g>
<!-- dir_edcd78c7944f950aad2a7d808a095802&#45;&gt;dir_282dd5a982ba644edb6efcfaee8b7735 -->
<g id="edge42" class="edge">
<title>dir_edcd78c7944f950aad2a7d808a095802&#45;&gt;dir_282dd5a982ba644edb6efcfaee8b7735</title>
<path fill="none" stroke="black" d="M168.37,-519.7C173.72,-511.56 180.2,-501.69 186.11,-492.7"/>
<polygon fill="black" stroke="black" points="189.19,-494.38 191.76,-484.1 183.34,-490.54 189.19,-494.38"/>
<g id="a_edge42&#45;headlabel"><a xlink:href="dir_000084_000101.html" target="_top" xlink:title="1">
<text text-anchor="middle" x="189.59" y="-496.45" font-family="Helvetica,sans-Serif" font-size="10.00">1</text>
</a>
</g>
</g>
<!-- dir_edcd78c7944f950aad2a7d808a095802&#45;&gt;dir_6972051101bc5f8d68d31d49f06d7aaf -->
<g id="edge41" class="edge">
<title>dir_edcd78c7944f950aad2a7d808a095802&#45;&gt;dir_6972051101bc5f8d68d31d49f06d7aaf</title>
<path fill="none" stroke="black" d="M129.34,-524.4C88.54,-503.69 17,-458.35 17,-395 17,-395 17,-395 17,-177 17,-122.04 70.51,-78.6 108.07,-54.88"/>
<polygon fill="black" stroke="black" points="110.05,-57.77 116.76,-49.56 106.4,-51.8 110.05,-57.77"/>
<g id="a_edge41&#45;headlabel"><a xlink:href="dir_000084_000102.html" target="_top" xlink:title="1">
<text text-anchor="middle" x="108.47" y="-59.56" font-family="Helvetica,sans-Serif" font-size="10.00">1</text>
</a>
</g>
</g>
<!-- dir_edcd78c7944f950aad2a7d808a095802&#45;&gt;dir_b31d54d5631803016a26f28213a41162 -->
<g id="edge39" class="edge">
<title>dir_edcd78c7944f950aad2a7d808a095802&#45;&gt;dir_b31d54d5631803016a26f28213a41162</title>
<path fill="none" stroke="black" d="M184.62,-532.41C205.78,-528.92 235.72,-524.04 262,-520 370.73,-503.28 741,-505.01 741,-395 741,-395 741,-395 741,-177 741,-133.99 734.34,-117.46 703,-88 673.13,-59.92 627.4,-46.56 594.49,-40.31"/>
<polygon fill="black" stroke="black" points="594.74,-36.8 584.28,-38.52 593.53,-43.7 594.74,-36.8"/>
<g id="a_edge39&#45;headlabel"><a xlink:href="dir_000084_000054.html" target="_top" xlink:title="1">
<text text-anchor="middle" x="598.77" y="-32.13" font-family="Helvetica,sans-Serif" font-size="10.00">1</text>
</a>
</g>
</g>
<!-- dir_96312f6272b562b103a6f862042db4a4&#45;&gt;dir_56126a1d848d4a1832817232e79a5a18 -->
<g id="edge46" class="edge">
<title>dir_96312f6272b562b103a6f862042db4a4&#45;&gt;dir_56126a1d848d4a1832817232e79a5a18</title>
<path fill="none" stroke="black" d="M148.06,-196.03C148.35,-214.42 147.07,-244.27 156,-268 174.22,-316.4 224.09,-350.69 261.03,-370.97"/>
<polygon fill="black" stroke="black" points="259.64,-374.2 270.11,-375.82 262.94,-368.02 259.64,-374.2"/>
<g id="a_edge46&#45;headlabel"><a xlink:href="dir_000085_000019.html" target="_top" xlink:title="3">
<text text-anchor="middle" x="255.13" y="-372.51" font-family="Helvetica,sans-Serif" font-size="10.00">3</text>
</a>
</g>
</g>
<!-- dir_96312f6272b562b103a6f862042db4a4&#45;&gt;dir_6972051101bc5f8d68d31d49f06d7aaf -->
<g id="edge48" class="edge">
<title>dir_96312f6272b562b103a6f862042db4a4&#45;&gt;dir_6972051101bc5f8d68d31d49f06d7aaf</title>
<path fill="none" stroke="black" d="M144,-159.87C144,-135.67 144,-91.21 144,-62.39"/>
<polygon fill="black" stroke="black" points="147.5,-62.19 144,-52.19 140.5,-62.19 147.5,-62.19"/>
<g id="a_edge48&#45;headlabel"><a xlink:href="dir_000085_000102.html" target="_top" xlink:title="1">
<text text-anchor="middle" x="150.34" y="-63.28" font-family="Helvetica,sans-Serif" font-size="10.00">1</text>
</a>
</g>
</g>
<!-- dir_96312f6272b562b103a6f862042db4a4&#45;&gt;dir_b31d54d5631803016a26f28213a41162 -->
<g id="edge47" class="edge">
<title>dir_96312f6272b562b103a6f862042db4a4&#45;&gt;dir_b31d54d5631803016a26f28213a41162</title>
<path fill="none" stroke="black" d="M172.15,-170.79C234.25,-157.08 377.72,-125.32 380,-124 398.78,-113.12 394.81,-99.83 413,-88 452.27,-62.46 471.1,-70.02 514.13,-54.17"/>
<polygon fill="black" stroke="black" points="515.67,-57.33 523.7,-50.41 513.11,-50.81 515.67,-57.33"/>
<g id="a_edge47&#45;headlabel"><a xlink:href="dir_000085_000054.html" target="_top" xlink:title="4">
<text text-anchor="middle" x="513.36" y="-58.78" font-family="Helvetica,sans-Serif" font-size="10.00">4</text>
</a>
</g>
</g>
<!-- dir_061a1b0a0a40a7427f2461ed2f520013&#45;&gt;dir_56126a1d848d4a1832817232e79a5a18 -->
<g id="edge50" class="edge">
<title>dir_061a1b0a0a40a7427f2461ed2f520013&#45;&gt;dir_56126a1d848d4a1832817232e79a5a18</title>
<path fill="none" stroke="black" d="M287.66,-196.23C295,-233.32 304.28,-320.98 305.88,-365.71"/>
<polygon fill="black" stroke="black" points="302.38,-365.93 306.11,-375.85 309.38,-365.77 302.38,-365.93"/>
<g id="a_edge50&#45;headlabel"><a xlink:href="dir_000086_000019.html" target="_top" xlink:title="3">
<text text-anchor="middle" x="299.46" y="-359.9" font-family="Helvetica,sans-Serif" font-size="10.00">3</text>
</a>
</g>
</g>
<!-- dir_061a1b0a0a40a7427f2461ed2f520013&#45;&gt;dir_9c7b9d609ec855ab7fbf064b0ccf8e4e -->
<g id="edge51" class="edge">
<title>dir_061a1b0a0a40a7427f2461ed2f520013&#45;&gt;dir_9c7b9d609ec855ab7fbf064b0ccf8e4e</title>
<path fill="none" stroke="black" d="M270.06,-196.1C261.9,-204.8 250.9,-215.52 240.44,-225.03"/>
<polygon fill="black" stroke="black" points="238.1,-222.43 232.96,-231.7 242.75,-227.66 238.1,-222.43"/>
<g id="a_edge51&#45;headlabel"><a xlink:href="dir_000086_000032.html" target="_top" xlink:title="9">
<text text-anchor="middle" x="238.89" y="-215.42" font-family="Helvetica,sans-Serif" font-size="10.00">9</text>
</a>
</g>
</g>
<!-- dir_061a1b0a0a40a7427f2461ed2f520013&#45;&gt;dir_3ce07147fcbac31fc4d5892a851f6627 -->
<g id="edge49" class="edge">
<title>dir_061a1b0a0a40a7427f2461ed2f520013&#45;&gt;dir_3ce07147fcbac31fc4d5892a851f6627</title>
<path fill="none" stroke="black" d="M296.34,-159.7C303.29,-151.3 311.77,-141.07 319.4,-131.86"/>
<polygon fill="black" stroke="black" points="322.14,-134.04 325.83,-124.1 316.75,-129.57 322.14,-134.04"/>
<g id="a_edge49&#45;headlabel"><a xlink:href="dir_000086_000069.html" target="_top" xlink:title="28">
<text text-anchor="middle" x="322.04" y="-136.12" font-family="Helvetica,sans-Serif" font-size="10.00">28</text>
</a>
</g>
</g>
<!-- dir_061a1b0a0a40a7427f2461ed2f520013&#45;&gt;dir_f132f3c082319ace6827058f7d1d886d -->
<g id="edge54" class="edge">
<title>dir_061a1b0a0a40a7427f2461ed2f520013&#45;&gt;dir_f132f3c082319ace6827058f7d1d886d</title>
<path fill="none" stroke="black" d="M277.55,-159.7C275.55,-151.9 273.13,-142.51 270.9,-133.83"/>
<polygon fill="black" stroke="black" points="274.28,-132.92 268.4,-124.1 267.5,-134.66 274.28,-132.92"/>
<g id="a_edge54&#45;headlabel"><a xlink:href="dir_000086_000070.html" target="_top" xlink:title="1">
<text text-anchor="middle" x="277.92" y="-133.19" font-family="Helvetica,sans-Serif" font-size="10.00">1</text>
</a>
</g>
</g>
<!-- dir_061a1b0a0a40a7427f2461ed2f520013&#45;&gt;dir_cf72682d9b1c0bc1c562a1f19b8defa0 -->
<g id="edge52" class="edge">
<title>dir_061a1b0a0a40a7427f2461ed2f520013&#45;&gt;dir_cf72682d9b1c0bc1c562a1f19b8defa0</title>
<path fill="none" stroke="black" d="M283.69,-196.19C282.14,-220.53 274.85,-265.28 267.98,-294.06"/>
<polygon fill="black" stroke="black" points="264.56,-293.32 265.48,-303.87 271.34,-295.05 264.56,-293.32"/>
<g id="a_edge52&#45;headlabel"><a xlink:href="dir_000086_000082.html" target="_top" xlink:title="9">
<text text-anchor="middle" x="262.7" y="-286.63" font-family="Helvetica,sans-Serif" font-size="10.00">9</text>
</a>
</g>
</g>
<!-- dir_061a1b0a0a40a7427f2461ed2f520013&#45;&gt;dir_6972051101bc5f8d68d31d49f06d7aaf -->
<g id="edge55" class="edge">
<title>dir_061a1b0a0a40a7427f2461ed2f520013&#45;&gt;dir_6972051101bc5f8d68d31d49f06d7aaf</title>
<path fill="none" stroke="black" d="M263.69,-159.63C253.09,-149.43 239.59,-136.18 228,-124 213.24,-108.49 210.61,-103.65 196,-88 187.2,-78.58 177.34,-68.43 168.59,-59.56"/>
<polygon fill="black" stroke="black" points="171.08,-57.1 161.55,-52.46 166.11,-62.02 171.08,-57.1"/>
<g id="a_edge55&#45;headlabel"><a xlink:href="dir_000086_000102.html" target="_top" xlink:title="1">
<text text-anchor="middle" x="175.62" y="-55.15" font-family="Helvetica,sans-Serif" font-size="10.00">1</text>
</a>
</g>
</g>
<!-- dir_061a1b0a0a40a7427f2461ed2f520013&#45;&gt;dir_b31d54d5631803016a26f28213a41162 -->
<g id="edge53" class="edge">
<title>dir_061a1b0a0a40a7427f2461ed2f520013&#45;&gt;dir_b31d54d5631803016a26f28213a41162</title>
<path fill="none" stroke="black" d="M332.87,-159.93C357.74,-150.71 387.68,-138.29 413,-124 436.22,-110.89 438.71,-102.63 461,-88 478.17,-76.73 497.85,-65.31 514.68,-55.97"/>
<polygon fill="black" stroke="black" points="516.62,-58.9 523.69,-51.02 513.24,-52.77 516.62,-58.9"/>
<g id="a_edge53&#45;headlabel"><a xlink:href="dir_000086_000054.html" target="_top" xlink:title="6">
<text text-anchor="middle" x="514.84" y="-60.62" font-family="Helvetica,sans-Serif" font-size="10.00">6</text>
</a>
</g>
</g>
<!-- dir_282dd5a982ba644edb6efcfaee8b7735&#45;&gt;dir_56126a1d848d4a1832817232e79a5a18 -->
<g id="edge56" class="edge">
<title>dir_282dd5a982ba644edb6efcfaee8b7735&#45;&gt;dir_56126a1d848d4a1832817232e79a5a18</title>
<path fill="none" stroke="black" d="M227.71,-447.88C240.67,-438.89 256.73,-427.76 270.77,-418.03"/>
<polygon fill="black" stroke="black" points="272.97,-420.76 279.2,-412.19 268.98,-415.01 272.97,-420.76"/>
<g id="a_edge56&#45;headlabel"><a xlink:href="dir_000101_000019.html" target="_top" xlink:title="1">
<text text-anchor="middle" x="271.64" y="-422.64" font-family="Helvetica,sans-Serif" font-size="10.00">1</text>
</a>
</g>
</g>
<!-- dir_282dd5a982ba644edb6efcfaee8b7735&#45;&gt;dir_9c7b9d609ec855ab7fbf064b0ccf8e4e -->
<g id="edge58" class="edge">
<title>dir_282dd5a982ba644edb6efcfaee8b7735&#45;&gt;dir_9c7b9d609ec855ab7fbf064b0ccf8e4e</title>
<path fill="none" stroke="black" d="M203.11,-447.6C203.34,-418.07 204.04,-356.24 206,-304 206.31,-295.68 206.78,-286.62 207.25,-278.39"/>
<polygon fill="black" stroke="black" points="210.76,-278.37 207.86,-268.18 203.77,-277.95 210.76,-278.37"/>
<g id="a_edge58&#45;headlabel"><a xlink:href="dir_000101_000032.html" target="_top" xlink:title="3">
<text text-anchor="middle" x="213.38" y="-279.63" font-family="Helvetica,sans-Serif" font-size="10.00">3</text>
</a>
</g>
</g>
<!-- dir_282dd5a982ba644edb6efcfaee8b7735&#45;&gt;dir_6972051101bc5f8d68d31d49f06d7aaf -->
<g id="edge57" class="edge">
<title>dir_282dd5a982ba644edb6efcfaee8b7735&#45;&gt;dir_6972051101bc5f8d68d31d49f06d7aaf</title>
<path fill="none" stroke="black" d="M191.49,-447.66C176,-423.93 148.08,-379.76 128,-340 97.84,-280.26 90.42,-262.61 84,-196 79.39,-148.15 69.57,-131.52 90,-88 95.14,-77.06 103.56,-67.13 112.24,-58.91"/>
<polygon fill="black" stroke="black" points="114.72,-61.39 119.86,-52.13 110.07,-56.16 114.72,-61.39"/>
<g id="a_edge57&#45;headlabel"><a xlink:href="dir_000101_000102.html" target="_top" xlink:title="2">
<text text-anchor="middle" x="113.91" y="-63.4" font-family="Helvetica,sans-Serif" font-size="10.00">2</text>
</a>
</g>
</g>
<!-- dir_282dd5a982ba644edb6efcfaee8b7735&#45;&gt;dir_b31d54d5631803016a26f28213a41162 -->
<g id="edge59" class="edge">
<title>dir_282dd5a982ba644edb6efcfaee8b7735&#45;&gt;dir_b31d54d5631803016a26f28213a41162</title>
<path fill="none" stroke="black" d="M230.18,-462.62C329.21,-453.21 665,-414.57 665,-323 665,-323 665,-323 665,-177 665,-126.59 621.04,-83.39 588.45,-58.29"/>
<polygon fill="black" stroke="black" points="590.13,-55.18 580.02,-52 585.95,-60.79 590.13,-55.18"/>
<g id="a_edge59&#45;headlabel"><a xlink:href="dir_000101_000054.html" target="_top" xlink:title="2">
<text text-anchor="middle" x="594.71" y="-52.55" font-family="Helvetica,sans-Serif" font-size="10.00">2</text>
</a>
</g>
</g>
<!-- dir_6972051101bc5f8d68d31d49f06d7aaf&#45;&gt;dir_56126a1d848d4a1832817232e79a5a18 -->
<g id="edge60" class="edge">
<title>dir_6972051101bc5f8d68d31d49f06d7aaf&#45;&gt;dir_56126a1d848d4a1832817232e79a5a18</title>
<path fill="none" stroke="black" d="M135.46,-52.14C128.18,-61.85 118.88,-74.7 114,-88 86.39,-163.21 92.69,-194.25 124,-268 139.13,-303.63 142.6,-316.04 173,-340 196.8,-358.76 227.96,-371.43 253.99,-379.66"/>
<polygon fill="black" stroke="black" points="253.11,-383.05 263.69,-382.6 255.14,-376.35 253.11,-383.05"/>
<g id="a_edge60&#45;headlabel"><a xlink:href="dir_000102_000019.html" target="_top" xlink:title="1">
<text text-anchor="middle" x="248.84" y="-382.22" font-family="Helvetica,sans-Serif" font-size="10.00">1</text>
</a>
</g>
</g>
<!-- dir_6972051101bc5f8d68d31d49f06d7aaf&#45;&gt;dir_b31d54d5631803016a26f28213a41162 -->
<g id="edge61" class="edge">
<title>dir_6972051101bc5f8d68d31d49f06d7aaf&#45;&gt;dir_b31d54d5631803016a26f28213a41162</title>
<path fill="none" stroke="black" d="M171.23,-34C285.28,-34 399.34,-34 513.4,-34"/>
<polygon fill="black" stroke="black" points="513.72,-37.5 523.72,-34 513.72,-30.5 513.72,-37.5"/>
<g id="a_edge61&#45;headlabel"><a xlink:href="dir_000102_000054.html" target="_top" xlink:title="1">
<text text-anchor="middle" x="510.13" y="-37.84" font-family="Helvetica,sans-Serif" font-size="10.00">1</text>
</a>
</g>
</g>
</g>
</svg>
