<?xml version="1.0" encoding="UTF-8" standalone="no"?>
<!DOCTYPE svg PUBLIC "-//W3C//DTD SVG 1.1//EN"
 "http://www.w3.org/Graphics/SVG/1.1/DTD/svg11.dtd">
<!-- Generated by graphviz version 2.43.0 (0)
 -->
<!-- Title: /home/kali/projects/vsomeip/implementation/configuration/include Pages: 1 -->
<svg width="171pt" height="151pt"
 viewBox="0.00 0.00 170.50 151.00" xmlns="http://www.w3.org/2000/svg" xmlns:xlink="http://www.w3.org/1999/xlink">
<g id="graph0" class="graph" transform="scale(1 1) rotate(0) translate(4 147)">
<title>/home/kali/projects/vsomeip/implementation/configuration/include</title>
<polygon fill="white" stroke="transparent" points="-4,4 -4,-147 166.5,-147 166.5,4 -4,4"/>
<g id="clust1" class="cluster">
<title>clusterdir_56126a1d848d4a1832817232e79a5a18</title>
<g id="a_clust1"><a xlink:href="dir_56126a1d848d4a1832817232e79a5a18.html" target="_top" xlink:title="configuration">
<polygon fill="#edf0f7" stroke="#7f7f7f" stroke-dasharray="5,2" points="49.5,-64 49.5,-135 129.5,-135 129.5,-64 49.5,-64"/>
<text text-anchor="middle" x="89.5" y="-123" font-family="Helvetica,sans-Serif" font-size="10.00">configuration</text>
</a>
</g>
</g>
<!-- dir_dca01e643b0ec4b7c70c70c593767eaa -->
<g id="node1" class="node">
<title>dir_dca01e643b0ec4b7c70c70c593767eaa</title>
<g id="a_node1"><a xlink:href="dir_dca01e643b0ec4b7c70c70c593767eaa.html" target="_top" xlink:title="include">
<polygon fill="#edf0f7" stroke="#404040" stroke-width="2" points="116.5,-108 62.5,-108 62.5,-72 116.5,-72 116.5,-108"/>
<text text-anchor="middle" x="89.5" y="-87.5" font-family="Helvetica,sans-Serif" font-size="10.00">include</text>
</a>
</g>
</g>
<!-- dir_476f23a9d8d07b93b910130c774b1932 -->
<g id="node2" class="node">
<title>dir_476f23a9d8d07b93b910130c774b1932</title>
<g id="a_node2"><a xlink:href="dir_476f23a9d8d07b93b910130c774b1932.html" target="_top" xlink:title="e2e_protection">
<polygon fill="none" stroke="red" stroke-dasharray="5,2" points="89,-36 0,-36 0,0 89,0 89,-36"/>
<text text-anchor="middle" x="44.5" y="-15.5" font-family="Helvetica,sans-Serif" font-size="10.00">e2e_protection</text>
</a>
</g>
</g>
<!-- dir_dca01e643b0ec4b7c70c70c593767eaa&#45;&gt;dir_476f23a9d8d07b93b910130c774b1932 -->
<g id="edge1" class="edge">
<title>dir_dca01e643b0ec4b7c70c70c593767eaa&#45;&gt;dir_476f23a9d8d07b93b910130c774b1932</title>
<path fill="none" stroke="black" d="M78.38,-71.7C73.14,-63.56 66.8,-53.69 61.02,-44.7"/>
<polygon fill="black" stroke="black" points="63.85,-42.62 55.5,-36.1 57.96,-46.41 63.85,-42.62"/>
<g id="a_edge1&#45;headlabel"><a xlink:href="dir_000042_000029.html" target="_top" xlink:title="2">
<text text-anchor="middle" x="68.18" y="-41.61" font-family="Helvetica,sans-Serif" font-size="10.00">2</text>
</a>
</g>
</g>
<!-- dir_96312f6272b562b103a6f862042db4a4 -->
<g id="node3" class="node">
<title>dir_96312f6272b562b103a6f862042db4a4</title>
<g id="a_node3"><a xlink:href="dir_96312f6272b562b103a6f862042db4a4.html" target="_top" xlink:title="security">
<polygon fill="none" stroke="red" stroke-dasharray="5,2" points="162.5,-36 106.5,-36 106.5,0 162.5,0 162.5,-36"/>
<text text-anchor="middle" x="134.5" y="-15.5" font-family="Helvetica,sans-Serif" font-size="10.00">security</text>
</a>
</g>
</g>
<!-- dir_dca01e643b0ec4b7c70c70c593767eaa&#45;&gt;dir_96312f6272b562b103a6f862042db4a4 -->
<g id="edge2" class="edge">
<title>dir_dca01e643b0ec4b7c70c70c593767eaa&#45;&gt;dir_96312f6272b562b103a6f862042db4a4</title>
<path fill="none" stroke="black" d="M100.62,-71.7C105.86,-63.56 112.2,-53.69 117.98,-44.7"/>
<polygon fill="black" stroke="black" points="121.04,-46.41 123.5,-36.1 115.15,-42.62 121.04,-46.41"/>
<g id="a_edge2&#45;headlabel"><a xlink:href="dir_000042_000085.html" target="_top" xlink:title="2">
<text text-anchor="middle" x="121.49" y="-48.47" font-family="Helvetica,sans-Serif" font-size="10.00">2</text>
</a>
</g>
</g>
</g>
</svg>
