<?xml version="1.0" encoding="UTF-8" standalone="no"?>
<!DOCTYPE svg PUBLIC "-//W3C//DTD SVG 1.1//EN"
 "http://www.w3.org/Graphics/SVG/1.1/DTD/svg11.dtd">
<!-- Generated by graphviz version 2.43.0 (0)
 -->
<!-- Title: /home/kali/projects/vsomeip/implementation/runtime/src Pages: 1 -->
<svg width="780pt" height="167pt"
 viewBox="0.00 0.00 780.00 167.00" xmlns="http://www.w3.org/2000/svg" xmlns:xlink="http://www.w3.org/1999/xlink">
<g id="graph0" class="graph" transform="scale(1 1) rotate(0) translate(4 163)">
<title>/home/kali/projects/vsomeip/implementation/runtime/src</title>
<polygon fill="white" stroke="transparent" points="-4,4 -4,-163 776,-163 776,4 -4,4"/>
<g id="clust1" class="cluster">
<title>clusterdir_edcd78c7944f950aad2a7d808a095802</title>
<g id="a_clust1"><a xlink:href="dir_edcd78c7944f950aad2a7d808a095802.html" target="_top" xlink:title="runtime">
<polygon fill="#edf0f7" stroke="#7f7f7f" stroke-dasharray="5,2" points="8,-8 8,-151 78,-151 78,-8 8,-8"/>
<text text-anchor="middle" x="43" y="-139" font-family="Helvetica,sans-Serif" font-size="10.00">runtime</text>
</a>
</g>
</g>
<!-- dir_09d934579f160da0a50cec206544f0b7 -->
<g id="node1" class="node">
<title>dir_09d934579f160da0a50cec206544f0b7</title>
<g id="a_node1"><a xlink:href="dir_09d934579f160da0a50cec206544f0b7.html" target="_top" xlink:title="include">
<polygon fill="#a2b4d6" stroke="#404040" points="70,-52 16,-52 16,-16 70,-16 70,-52"/>
<text text-anchor="middle" x="43" y="-31.5" font-family="Helvetica,sans-Serif" font-size="10.00">include</text>
</a>
</g>
</g>
<!-- dir_271001906c846293f255e34446db3cb4 -->
<g id="node2" class="node">
<title>dir_271001906c846293f255e34446db3cb4</title>
<g id="a_node2"><a xlink:href="dir_271001906c846293f255e34446db3cb4.html" target="_top" xlink:title="src">
<polygon fill="#edf0f7" stroke="#404040" stroke-width="2" points="70,-124 16,-124 16,-88 70,-88 70,-124"/>
<text text-anchor="middle" x="43" y="-103.5" font-family="Helvetica,sans-Serif" font-size="10.00">src</text>
</a>
</g>
</g>
<!-- dir_271001906c846293f255e34446db3cb4&#45;&gt;dir_09d934579f160da0a50cec206544f0b7 -->
<g id="edge1" class="edge">
<title>dir_271001906c846293f255e34446db3cb4&#45;&gt;dir_09d934579f160da0a50cec206544f0b7</title>
<path fill="none" stroke="black" d="M43,-87.7C43,-79.98 43,-70.71 43,-62.11"/>
<polygon fill="black" stroke="black" points="46.5,-62.1 43,-52.1 39.5,-62.1 46.5,-62.1"/>
<g id="a_edge1&#45;headlabel"><a xlink:href="dir_000096_000049.html" target="_top" xlink:title="4">
<text text-anchor="middle" x="49.34" y="-63.2" font-family="Helvetica,sans-Serif" font-size="10.00">4</text>
</a>
</g>
</g>
<!-- dir_282dd5a982ba644edb6efcfaee8b7735 -->
<g id="node3" class="node">
<title>dir_282dd5a982ba644edb6efcfaee8b7735</title>
<g id="a_node3"><a xlink:href="dir_282dd5a982ba644edb6efcfaee8b7735.html" target="_top" xlink:title="tracing">
<polygon fill="none" stroke="red" stroke-dasharray="5,2" points="142,-52 88,-52 88,-16 142,-16 142,-52"/>
<text text-anchor="middle" x="115" y="-31.5" font-family="Helvetica,sans-Serif" font-size="10.00">tracing</text>
</a>
</g>
</g>
<!-- dir_271001906c846293f255e34446db3cb4&#45;&gt;dir_282dd5a982ba644edb6efcfaee8b7735 -->
<g id="edge2" class="edge">
<title>dir_271001906c846293f255e34446db3cb4&#45;&gt;dir_282dd5a982ba644edb6efcfaee8b7735</title>
<path fill="none" stroke="black" d="M60.8,-87.7C69.6,-79.14 80.38,-68.66 90,-59.3"/>
<polygon fill="black" stroke="black" points="92.68,-61.58 97.41,-52.1 87.8,-56.57 92.68,-61.58"/>
<g id="a_edge2&#45;headlabel"><a xlink:href="dir_000096_000101.html" target="_top" xlink:title="1">
<text text-anchor="middle" x="92.08" y="-63.63" font-family="Helvetica,sans-Serif" font-size="10.00">1</text>
</a>
</g>
</g>
<!-- dir_3ce07147fcbac31fc4d5892a851f6627 -->
<g id="node4" class="node">
<title>dir_3ce07147fcbac31fc4d5892a851f6627</title>
<g id="a_node4"><a xlink:href="dir_3ce07147fcbac31fc4d5892a851f6627.html" target="_top" xlink:title="message">
<polygon fill="none" stroke="red" stroke-dasharray="5,2" points="221.5,-52 160.5,-52 160.5,-16 221.5,-16 221.5,-52"/>
<text text-anchor="middle" x="191" y="-31.5" font-family="Helvetica,sans-Serif" font-size="10.00">message</text>
</a>
</g>
</g>
<!-- dir_271001906c846293f255e34446db3cb4&#45;&gt;dir_3ce07147fcbac31fc4d5892a851f6627 -->
<g id="edge3" class="edge">
<title>dir_271001906c846293f255e34446db3cb4&#45;&gt;dir_3ce07147fcbac31fc4d5892a851f6627</title>
<path fill="none" stroke="black" d="M70.15,-92.16C92.89,-81.4 125.66,-65.9 151.34,-53.76"/>
<polygon fill="black" stroke="black" points="152.91,-56.89 160.45,-49.45 149.92,-50.56 152.91,-56.89"/>
<g id="a_edge3&#45;headlabel"><a xlink:href="dir_000096_000069.html" target="_top" xlink:title="3">
<text text-anchor="middle" x="150.87" y="-58.49" font-family="Helvetica,sans-Serif" font-size="10.00">3</text>
</a>
</g>
</g>
<!-- dir_56126a1d848d4a1832817232e79a5a18 -->
<g id="node5" class="node">
<title>dir_56126a1d848d4a1832817232e79a5a18</title>
<g id="a_node5"><a xlink:href="dir_56126a1d848d4a1832817232e79a5a18.html" target="_top" xlink:title="configuration">
<polygon fill="none" stroke="red" stroke-dasharray="5,2" points="320,-52 240,-52 240,-16 320,-16 320,-52"/>
<text text-anchor="middle" x="280" y="-31.5" font-family="Helvetica,sans-Serif" font-size="10.00">configuration</text>
</a>
</g>
</g>
<!-- dir_271001906c846293f255e34446db3cb4&#45;&gt;dir_56126a1d848d4a1832817232e79a5a18 -->
<g id="edge4" class="edge">
<title>dir_271001906c846293f255e34446db3cb4&#45;&gt;dir_56126a1d848d4a1832817232e79a5a18</title>
<path fill="none" stroke="black" d="M70.23,-97.86C105.14,-88.6 167.72,-71.6 230.32,-52.13"/>
<polygon fill="black" stroke="black" points="231.46,-55.44 239.95,-49.11 229.36,-48.76 231.46,-55.44"/>
<g id="a_edge4&#45;headlabel"><a xlink:href="dir_000096_000019.html" target="_top" xlink:title="3">
<text text-anchor="middle" x="228.87" y="-56.72" font-family="Helvetica,sans-Serif" font-size="10.00">3</text>
</a>
</g>
</g>
<!-- dir_6972051101bc5f8d68d31d49f06d7aaf -->
<g id="node6" class="node">
<title>dir_6972051101bc5f8d68d31d49f06d7aaf</title>
<g id="a_node6"><a xlink:href="dir_6972051101bc5f8d68d31d49f06d7aaf.html" target="_top" xlink:title="utility">
<polygon fill="none" stroke="red" stroke-dasharray="5,2" points="392,-52 338,-52 338,-16 392,-16 392,-52"/>
<text text-anchor="middle" x="365" y="-31.5" font-family="Helvetica,sans-Serif" font-size="10.00">utility</text>
</a>
</g>
</g>
<!-- dir_271001906c846293f255e34446db3cb4&#45;&gt;dir_6972051101bc5f8d68d31d49f06d7aaf -->
<g id="edge5" class="edge">
<title>dir_271001906c846293f255e34446db3cb4&#45;&gt;dir_6972051101bc5f8d68d31d49f06d7aaf</title>
<path fill="none" stroke="black" d="M70.39,-102.3C120.33,-96.88 229.4,-82.73 327.97,-51.88"/>
<polygon fill="black" stroke="black" points="329.32,-55.12 337.78,-48.74 327.19,-48.46 329.32,-55.12"/>
<g id="a_edge5&#45;headlabel"><a xlink:href="dir_000096_000102.html" target="_top" xlink:title="1">
<text text-anchor="middle" x="326.76" y="-56.42" font-family="Helvetica,sans-Serif" font-size="10.00">1</text>
</a>
</g>
</g>
<!-- dir_96312f6272b562b103a6f862042db4a4 -->
<g id="node7" class="node">
<title>dir_96312f6272b562b103a6f862042db4a4</title>
<g id="a_node7"><a xlink:href="dir_96312f6272b562b103a6f862042db4a4.html" target="_top" xlink:title="security">
<polygon fill="none" stroke="red" stroke-dasharray="5,2" points="466,-52 410,-52 410,-16 466,-16 466,-52"/>
<text text-anchor="middle" x="438" y="-31.5" font-family="Helvetica,sans-Serif" font-size="10.00">security</text>
</a>
</g>
</g>
<!-- dir_271001906c846293f255e34446db3cb4&#45;&gt;dir_96312f6272b562b103a6f862042db4a4 -->
<g id="edge6" class="edge">
<title>dir_271001906c846293f255e34446db3cb4&#45;&gt;dir_96312f6272b562b103a6f862042db4a4</title>
<path fill="none" stroke="black" d="M70.06,-103.61C129.01,-100.04 273.27,-88.32 399.78,-51.9"/>
<polygon fill="black" stroke="black" points="401.02,-55.18 409.63,-49 399.05,-48.47 401.02,-55.18"/>
<g id="a_edge6&#45;headlabel"><a xlink:href="dir_000096_000085.html" target="_top" xlink:title="1">
<text text-anchor="middle" x="398.37" y="-56.42" font-family="Helvetica,sans-Serif" font-size="10.00">1</text>
</a>
</g>
</g>
<!-- dir_9c7b9d609ec855ab7fbf064b0ccf8e4e -->
<g id="node8" class="node">
<title>dir_9c7b9d609ec855ab7fbf064b0ccf8e4e</title>
<g id="a_node8"><a xlink:href="dir_9c7b9d609ec855ab7fbf064b0ccf8e4e.html" target="_top" xlink:title="endpoints">
<polygon fill="none" stroke="red" stroke-dasharray="5,2" points="549.5,-52 484.5,-52 484.5,-16 549.5,-16 549.5,-52"/>
<text text-anchor="middle" x="517" y="-31.5" font-family="Helvetica,sans-Serif" font-size="10.00">endpoints</text>
</a>
</g>
</g>
<!-- dir_271001906c846293f255e34446db3cb4&#45;&gt;dir_9c7b9d609ec855ab7fbf064b0ccf8e4e -->
<g id="edge7" class="edge">
<title>dir_271001906c846293f255e34446db3cb4&#45;&gt;dir_9c7b9d609ec855ab7fbf064b0ccf8e4e</title>
<path fill="none" stroke="black" d="M70,-104.14C137.28,-101.49 317.62,-91.21 474.44,-51.72"/>
<polygon fill="black" stroke="black" points="475.45,-55.08 484.26,-49.2 473.71,-48.3 475.45,-55.08"/>
<g id="a_edge7&#45;headlabel"><a xlink:href="dir_000096_000032.html" target="_top" xlink:title="3">
<text text-anchor="middle" x="472.67" y="-56.22" font-family="Helvetica,sans-Serif" font-size="10.00">3</text>
</a>
</g>
</g>
<!-- dir_b31d54d5631803016a26f28213a41162 -->
<g id="node9" class="node">
<title>dir_b31d54d5631803016a26f28213a41162</title>
<g id="a_node9"><a xlink:href="dir_b31d54d5631803016a26f28213a41162.html" target="_top" xlink:title="interface">
<polygon fill="none" stroke="red" points="628,-52 568,-52 568,-16 628,-16 628,-52"/>
<text text-anchor="middle" x="598" y="-31.5" font-family="Helvetica,sans-Serif" font-size="10.00">interface</text>
</a>
</g>
</g>
<!-- dir_271001906c846293f255e34446db3cb4&#45;&gt;dir_b31d54d5631803016a26f28213a41162 -->
<g id="edge8" class="edge">
<title>dir_271001906c846293f255e34446db3cb4&#45;&gt;dir_b31d54d5631803016a26f28213a41162</title>
<path fill="none" stroke="black" d="M70.1,-105.13C146.36,-104.89 368.95,-100.02 557.84,-51.84"/>
<polygon fill="black" stroke="black" points="558.86,-55.19 567.66,-49.28 557.1,-48.41 558.86,-55.19"/>
<g id="a_edge8&#45;headlabel"><a xlink:href="dir_000096_000054.html" target="_top" xlink:title="1">
<text text-anchor="middle" x="556.1" y="-56.34" font-family="Helvetica,sans-Serif" font-size="10.00">1</text>
</a>
</g>
</g>
<!-- dir_cf72682d9b1c0bc1c562a1f19b8defa0 -->
<g id="node10" class="node">
<title>dir_cf72682d9b1c0bc1c562a1f19b8defa0</title>
<g id="a_node10"><a xlink:href="dir_cf72682d9b1c0bc1c562a1f19b8defa0.html" target="_top" xlink:title="routing">
<polygon fill="none" stroke="red" stroke-dasharray="5,2" points="700,-52 646,-52 646,-16 700,-16 700,-52"/>
<text text-anchor="middle" x="673" y="-31.5" font-family="Helvetica,sans-Serif" font-size="10.00">routing</text>
</a>
</g>
</g>
<!-- dir_271001906c846293f255e34446db3cb4&#45;&gt;dir_cf72682d9b1c0bc1c562a1f19b8defa0 -->
<g id="edge9" class="edge">
<title>dir_271001906c846293f255e34446db3cb4&#45;&gt;dir_cf72682d9b1c0bc1c562a1f19b8defa0</title>
<path fill="none" stroke="black" d="M70.13,-103.84C168.81,-99.45 509.11,-82.59 636.03,-51.58"/>
<polygon fill="black" stroke="black" points="637.06,-54.93 645.86,-49.03 635.3,-48.15 637.06,-54.93"/>
<g id="a_edge9&#45;headlabel"><a xlink:href="dir_000096_000082.html" target="_top" xlink:title="2">
<text text-anchor="middle" x="634.3" y="-56.08" font-family="Helvetica,sans-Serif" font-size="10.00">2</text>
</a>
</g>
</g>
<!-- dir_f132f3c082319ace6827058f7d1d886d -->
<g id="node11" class="node">
<title>dir_f132f3c082319ace6827058f7d1d886d</title>
<g id="a_node11"><a xlink:href="dir_f132f3c082319ace6827058f7d1d886d.html" target="_top" xlink:title="plugin">
<polygon fill="none" stroke="red" stroke-dasharray="5,2" points="772,-52 718,-52 718,-16 772,-16 772,-52"/>
<text text-anchor="middle" x="745" y="-31.5" font-family="Helvetica,sans-Serif" font-size="10.00">plugin</text>
</a>
</g>
</g>
<!-- dir_271001906c846293f255e34446db3cb4&#45;&gt;dir_f132f3c082319ace6827058f7d1d886d -->
<g id="edge10" class="edge">
<title>dir_271001906c846293f255e34446db3cb4&#45;&gt;dir_f132f3c082319ace6827058f7d1d886d</title>
<path fill="none" stroke="black" d="M70.37,-104.14C177.15,-100.57 566.44,-85.67 708.11,-51.55"/>
<polygon fill="black" stroke="black" points="709.05,-54.92 717.87,-49.06 707.32,-48.14 709.05,-54.92"/>
<g id="a_edge10&#45;headlabel"><a xlink:href="dir_000096_000070.html" target="_top" xlink:title="1">
<text text-anchor="middle" x="706.26" y="-56.06" font-family="Helvetica,sans-Serif" font-size="10.00">1</text>
</a>
</g>
</g>
</g>
</svg>
