<?xml version="1.0" encoding="UTF-8" standalone="no"?>
<!DOCTYPE svg PUBLIC "-//W3C//DTD SVG 1.1//EN"
 "http://www.w3.org/Graphics/SVG/1.1/DTD/svg11.dtd">
<!-- Generated by graphviz version 2.43.0 (0)
 -->
<!-- Title: /home/kali/projects/vsomeip/implementation/runtime Pages: 1 -->
<svg width="690pt" height="247pt"
 viewBox="0.00 0.00 690.00 247.00" xmlns="http://www.w3.org/2000/svg" xmlns:xlink="http://www.w3.org/1999/xlink">
<g id="graph0" class="graph" transform="scale(1 1) rotate(0) translate(4 243)">
<title>/home/kali/projects/vsomeip/implementation/runtime</title>
<polygon fill="white" stroke="transparent" points="-4,4 -4,-243 686,-243 686,4 -4,4"/>
<g id="clust1" class="cluster">
<title>clusterdir_ed7c47a03c091bb19436c59342bc9555</title>
<g id="a_clust1"><a xlink:href="dir_ed7c47a03c091bb19436c59342bc9555.html" target="_top" xlink:title="implementation">
<polygon fill="#edf0f7" stroke="#404040" stroke-dasharray="5,2" points="8,-8 8,-231 612,-231 612,-8 8,-8"/>
<text text-anchor="middle" x="310" y="-219" font-family="Helvetica,sans-Serif" font-size="10.00">implementation</text>
</a>
</g>
</g>
<g id="clust2" class="cluster">
<title>clusterdir_edcd78c7944f950aad2a7d808a095802</title>
<g id="a_clust2"><a xlink:href="dir_edcd78c7944f950aad2a7d808a095802.html" target="_top">
<polygon fill="#edf0f7" stroke="#404040" stroke-width="2" points="16,-80 16,-204 160,-204 160,-80 16,-80"/>
</a>
</g>
</g>
<!-- dir_56126a1d848d4a1832817232e79a5a18 -->
<g id="node1" class="node">
<title>dir_56126a1d848d4a1832817232e79a5a18</title>
<g id="a_node1"><a xlink:href="dir_56126a1d848d4a1832817232e79a5a18.html" target="_top" xlink:title="configuration">
<polygon fill="#a2b4d6" stroke="red" points="96,-52 16,-52 16,-16 96,-16 96,-52"/>
<text text-anchor="middle" x="56" y="-31.5" font-family="Helvetica,sans-Serif" font-size="10.00">configuration</text>
</a>
</g>
</g>
<!-- dir_cf72682d9b1c0bc1c562a1f19b8defa0 -->
<g id="node2" class="node">
<title>dir_cf72682d9b1c0bc1c562a1f19b8defa0</title>
<g id="a_node2"><a xlink:href="dir_cf72682d9b1c0bc1c562a1f19b8defa0.html" target="_top" xlink:title="routing">
<polygon fill="#a2b4d6" stroke="red" points="168,-52 114,-52 114,-16 168,-16 168,-52"/>
<text text-anchor="middle" x="141" y="-31.5" font-family="Helvetica,sans-Serif" font-size="10.00">routing</text>
</a>
</g>
</g>
<!-- dir_3ce07147fcbac31fc4d5892a851f6627 -->
<g id="node3" class="node">
<title>dir_3ce07147fcbac31fc4d5892a851f6627</title>
<g id="a_node3"><a xlink:href="dir_3ce07147fcbac31fc4d5892a851f6627.html" target="_top" xlink:title="message">
<polygon fill="#a2b4d6" stroke="red" points="229.5,-124 168.5,-124 168.5,-88 229.5,-88 229.5,-124"/>
<text text-anchor="middle" x="199" y="-103.5" font-family="Helvetica,sans-Serif" font-size="10.00">message</text>
</a>
</g>
</g>
<!-- dir_6972051101bc5f8d68d31d49f06d7aaf -->
<g id="node4" class="node">
<title>dir_6972051101bc5f8d68d31d49f06d7aaf</title>
<g id="a_node4"><a xlink:href="dir_6972051101bc5f8d68d31d49f06d7aaf.html" target="_top" xlink:title="utility">
<polygon fill="#a2b4d6" stroke="red" points="302,-124 248,-124 248,-88 302,-88 302,-124"/>
<text text-anchor="middle" x="275" y="-103.5" font-family="Helvetica,sans-Serif" font-size="10.00">utility</text>
</a>
</g>
</g>
<!-- dir_282dd5a982ba644edb6efcfaee8b7735 -->
<g id="node5" class="node">
<title>dir_282dd5a982ba644edb6efcfaee8b7735</title>
<g id="a_node5"><a xlink:href="dir_282dd5a982ba644edb6efcfaee8b7735.html" target="_top" xlink:title="tracing">
<polygon fill="#a2b4d6" stroke="red" points="374,-124 320,-124 320,-88 374,-88 374,-124"/>
<text text-anchor="middle" x="347" y="-103.5" font-family="Helvetica,sans-Serif" font-size="10.00">tracing</text>
</a>
</g>
</g>
<!-- dir_f132f3c082319ace6827058f7d1d886d -->
<g id="node6" class="node">
<title>dir_f132f3c082319ace6827058f7d1d886d</title>
<g id="a_node6"><a xlink:href="dir_f132f3c082319ace6827058f7d1d886d.html" target="_top" xlink:title="plugin">
<polygon fill="#a2b4d6" stroke="red" points="446,-124 392,-124 392,-88 446,-88 446,-124"/>
<text text-anchor="middle" x="419" y="-103.5" font-family="Helvetica,sans-Serif" font-size="10.00">plugin</text>
</a>
</g>
</g>
<!-- dir_9c7b9d609ec855ab7fbf064b0ccf8e4e -->
<g id="node7" class="node">
<title>dir_9c7b9d609ec855ab7fbf064b0ccf8e4e</title>
<g id="a_node7"><a xlink:href="dir_9c7b9d609ec855ab7fbf064b0ccf8e4e.html" target="_top" xlink:title="endpoints">
<polygon fill="#a2b4d6" stroke="red" points="529.5,-124 464.5,-124 464.5,-88 529.5,-88 529.5,-124"/>
<text text-anchor="middle" x="497" y="-103.5" font-family="Helvetica,sans-Serif" font-size="10.00">endpoints</text>
</a>
</g>
</g>
<!-- dir_96312f6272b562b103a6f862042db4a4 -->
<g id="node8" class="node">
<title>dir_96312f6272b562b103a6f862042db4a4</title>
<g id="a_node8"><a xlink:href="dir_96312f6272b562b103a6f862042db4a4.html" target="_top" xlink:title="security">
<polygon fill="#a2b4d6" stroke="red" points="604,-124 548,-124 548,-88 604,-88 604,-124"/>
<text text-anchor="middle" x="576" y="-103.5" font-family="Helvetica,sans-Serif" font-size="10.00">security</text>
</a>
</g>
</g>
<!-- dir_edcd78c7944f950aad2a7d808a095802 -->
<g id="node9" class="node">
<title>dir_edcd78c7944f950aad2a7d808a095802</title>
<text text-anchor="middle" x="124" y="-175.5" font-family="Helvetica,sans-Serif" font-size="10.00">runtime</text>
</g>
<!-- dir_09d934579f160da0a50cec206544f0b7 -->
<g id="node10" class="node">
<title>dir_09d934579f160da0a50cec206544f0b7</title>
<g id="a_node10"><a xlink:href="dir_09d934579f160da0a50cec206544f0b7.html" target="_top" xlink:title="include">
<polygon fill="#a2b4d6" stroke="#404040" points="122,-124 68,-124 68,-88 122,-88 122,-124"/>
<text text-anchor="middle" x="95" y="-103.5" font-family="Helvetica,sans-Serif" font-size="10.00">include</text>
</a>
</g>
</g>
<!-- dir_09d934579f160da0a50cec206544f0b7&#45;&gt;dir_56126a1d848d4a1832817232e79a5a18 -->
<g id="edge1" class="edge">
<title>dir_09d934579f160da0a50cec206544f0b7&#45;&gt;dir_56126a1d848d4a1832817232e79a5a18</title>
<path fill="none" stroke="black" d="M85.36,-87.7C80.87,-79.64 75.44,-69.89 70.48,-60.98"/>
<polygon fill="black" stroke="black" points="73.45,-59.14 65.53,-52.1 67.34,-62.54 73.45,-59.14"/>
<g id="a_edge1&#45;headlabel"><a xlink:href="dir_000049_000019.html" target="_top" xlink:title="1">
<text text-anchor="middle" x="77.68" y="-58.39" font-family="Helvetica,sans-Serif" font-size="10.00">1</text>
</a>
</g>
</g>
<!-- dir_09d934579f160da0a50cec206544f0b7&#45;&gt;dir_cf72682d9b1c0bc1c562a1f19b8defa0 -->
<g id="edge2" class="edge">
<title>dir_09d934579f160da0a50cec206544f0b7&#45;&gt;dir_cf72682d9b1c0bc1c562a1f19b8defa0</title>
<path fill="none" stroke="black" d="M106.37,-87.7C111.72,-79.56 118.2,-69.69 124.11,-60.7"/>
<polygon fill="black" stroke="black" points="127.19,-62.38 129.76,-52.1 121.34,-58.54 127.19,-62.38"/>
<g id="a_edge2&#45;headlabel"><a xlink:href="dir_000049_000082.html" target="_top" xlink:title="1">
<text text-anchor="middle" x="127.59" y="-64.45" font-family="Helvetica,sans-Serif" font-size="10.00">1</text>
</a>
</g>
</g>
<!-- dir_271001906c846293f255e34446db3cb4 -->
<g id="node11" class="node">
<title>dir_271001906c846293f255e34446db3cb4</title>
<g id="a_node11"><a xlink:href="dir_271001906c846293f255e34446db3cb4.html" target="_top" xlink:title="src">
<polygon fill="#a2b4d6" stroke="#404040" points="78,-196 24,-196 24,-160 78,-160 78,-196"/>
<text text-anchor="middle" x="51" y="-175.5" font-family="Helvetica,sans-Serif" font-size="10.00">src</text>
</a>
</g>
</g>
<!-- dir_271001906c846293f255e34446db3cb4&#45;&gt;dir_56126a1d848d4a1832817232e79a5a18 -->
<g id="edge6" class="edge">
<title>dir_271001906c846293f255e34446db3cb4&#45;&gt;dir_56126a1d848d4a1832817232e79a5a18</title>
<path fill="none" stroke="black" d="M51.6,-159.87C52.46,-135.67 54.02,-91.21 55.04,-62.39"/>
<polygon fill="black" stroke="black" points="58.54,-62.31 55.39,-52.19 51.54,-62.06 58.54,-62.31"/>
<g id="a_edge6&#45;headlabel"><a xlink:href="dir_000096_000019.html" target="_top" xlink:title="3">
<text text-anchor="middle" x="61.25" y="-63.5" font-family="Helvetica,sans-Serif" font-size="10.00">3</text>
</a>
</g>
</g>
<!-- dir_271001906c846293f255e34446db3cb4&#45;&gt;dir_cf72682d9b1c0bc1c562a1f19b8defa0 -->
<g id="edge11" class="edge">
<title>dir_271001906c846293f255e34446db3cb4&#45;&gt;dir_cf72682d9b1c0bc1c562a1f19b8defa0</title>
<path fill="none" stroke="black" d="M78.27,-162.28C98.84,-150.59 124.57,-134.52 131,-124 142.26,-105.59 144.25,-80.99 143.71,-62.32"/>
<polygon fill="black" stroke="black" points="147.19,-61.9 143.15,-52.1 140.2,-62.28 147.19,-61.9"/>
<g id="a_edge11&#45;headlabel"><a xlink:href="dir_000096_000082.html" target="_top" xlink:title="2">
<text text-anchor="middle" x="150.22" y="-62.83" font-family="Helvetica,sans-Serif" font-size="10.00">2</text>
</a>
</g>
</g>
<!-- dir_271001906c846293f255e34446db3cb4&#45;&gt;dir_3ce07147fcbac31fc4d5892a851f6627 -->
<g id="edge5" class="edge">
<title>dir_271001906c846293f255e34446db3cb4&#45;&gt;dir_3ce07147fcbac31fc4d5892a851f6627</title>
<path fill="none" stroke="black" d="M78.45,-164.25C99.3,-154.54 128.93,-140.68 159.42,-126.17"/>
<polygon fill="black" stroke="black" points="160.95,-129.32 168.47,-121.86 157.94,-123 160.95,-129.32"/>
<g id="a_edge5&#45;headlabel"><a xlink:href="dir_000096_000069.html" target="_top" xlink:title="3">
<text text-anchor="middle" x="158.93" y="-130.93" font-family="Helvetica,sans-Serif" font-size="10.00">3</text>
</a>
</g>
</g>
<!-- dir_271001906c846293f255e34446db3cb4&#45;&gt;dir_6972051101bc5f8d68d31d49f06d7aaf -->
<g id="edge7" class="edge">
<title>dir_271001906c846293f255e34446db3cb4&#45;&gt;dir_6972051101bc5f8d68d31d49f06d7aaf</title>
<path fill="none" stroke="black" d="M78.23,-163.76C81.49,-162.4 84.79,-161.11 88,-160 150.29,-138.5 171.95,-146.08 238.09,-123.92"/>
<polygon fill="black" stroke="black" points="239.42,-127.17 247.73,-120.59 237.13,-120.55 239.42,-127.17"/>
<g id="a_edge7&#45;headlabel"><a xlink:href="dir_000096_000102.html" target="_top" xlink:title="1">
<text text-anchor="middle" x="236.95" y="-128.52" font-family="Helvetica,sans-Serif" font-size="10.00">1</text>
</a>
</g>
</g>
<!-- dir_271001906c846293f255e34446db3cb4&#45;&gt;dir_282dd5a982ba644edb6efcfaee8b7735 -->
<g id="edge4" class="edge">
<title>dir_271001906c846293f255e34446db3cb4&#45;&gt;dir_282dd5a982ba644edb6efcfaee8b7735</title>
<path fill="none" stroke="black" d="M78.16,-163.53C81.42,-162.2 84.75,-160.99 88,-160 181.05,-131.69 213.1,-152.34 310.2,-123.74"/>
<polygon fill="black" stroke="black" points="311.26,-127.08 319.8,-120.81 309.22,-120.38 311.26,-127.08"/>
<g id="a_edge4&#45;headlabel"><a xlink:href="dir_000096_000101.html" target="_top" xlink:title="1">
<text text-anchor="middle" x="308.64" y="-128.34" font-family="Helvetica,sans-Serif" font-size="10.00">1</text>
</a>
</g>
</g>
<!-- dir_271001906c846293f255e34446db3cb4&#45;&gt;dir_f132f3c082319ace6827058f7d1d886d -->
<g id="edge12" class="edge">
<title>dir_271001906c846293f255e34446db3cb4&#45;&gt;dir_f132f3c082319ace6827058f7d1d886d</title>
<path fill="none" stroke="black" d="M78.12,-163.4C81.39,-162.1 84.74,-160.92 88,-160 211.98,-124.88 254.05,-158.92 382.06,-123.71"/>
<polygon fill="black" stroke="black" points="383.17,-127.03 391.84,-120.93 381.26,-120.29 383.17,-127.03"/>
<g id="a_edge12&#45;headlabel"><a xlink:href="dir_000096_000070.html" target="_top" xlink:title="1">
<text text-anchor="middle" x="380.49" y="-128.24" font-family="Helvetica,sans-Serif" font-size="10.00">1</text>
</a>
</g>
</g>
<!-- dir_271001906c846293f255e34446db3cb4&#45;&gt;dir_9c7b9d609ec855ab7fbf064b0ccf8e4e -->
<g id="edge9" class="edge">
<title>dir_271001906c846293f255e34446db3cb4&#45;&gt;dir_9c7b9d609ec855ab7fbf064b0ccf8e4e</title>
<path fill="none" stroke="black" d="M78.1,-163.32C81.38,-162.04 84.72,-160.89 88,-160 243.12,-118.03 293.87,-161.39 454.55,-123.63"/>
<polygon fill="black" stroke="black" points="455.38,-127.03 464.28,-121.28 453.74,-120.23 455.38,-127.03"/>
<g id="a_edge9&#45;headlabel"><a xlink:href="dir_000096_000032.html" target="_top" xlink:title="3">
<text text-anchor="middle" x="452.56" y="-128.14" font-family="Helvetica,sans-Serif" font-size="10.00">3</text>
</a>
</g>
</g>
<!-- dir_271001906c846293f255e34446db3cb4&#45;&gt;dir_96312f6272b562b103a6f862042db4a4 -->
<g id="edge8" class="edge">
<title>dir_271001906c846293f255e34446db3cb4&#45;&gt;dir_96312f6272b562b103a6f862042db4a4</title>
<path fill="none" stroke="black" d="M78.08,-163.27C81.36,-161.99 84.72,-160.86 88,-160 279.44,-110.06 342.4,-172.67 537.97,-123.7"/>
<polygon fill="black" stroke="black" points="538.87,-127.09 547.68,-121.21 537.13,-120.31 538.87,-127.09"/>
<g id="a_edge8&#45;headlabel"><a xlink:href="dir_000096_000085.html" target="_top" xlink:title="1">
<text text-anchor="middle" x="536.09" y="-128.23" font-family="Helvetica,sans-Serif" font-size="10.00">1</text>
</a>
</g>
</g>
<!-- dir_271001906c846293f255e34446db3cb4&#45;&gt;dir_09d934579f160da0a50cec206544f0b7 -->
<g id="edge3" class="edge">
<title>dir_271001906c846293f255e34446db3cb4&#45;&gt;dir_09d934579f160da0a50cec206544f0b7</title>
<path fill="none" stroke="black" d="M61.88,-159.7C66.99,-151.56 73.2,-141.69 78.84,-132.7"/>
<polygon fill="black" stroke="black" points="81.89,-134.43 84.25,-124.1 75.96,-130.71 81.89,-134.43"/>
<g id="a_edge3&#45;headlabel"><a xlink:href="dir_000096_000049.html" target="_top" xlink:title="4">
<text text-anchor="middle" x="82.38" y="-136.49" font-family="Helvetica,sans-Serif" font-size="10.00">4</text>
</a>
</g>
</g>
<!-- dir_b31d54d5631803016a26f28213a41162 -->
<g id="node12" class="node">
<title>dir_b31d54d5631803016a26f28213a41162</title>
<g id="a_node12"><a xlink:href="dir_b31d54d5631803016a26f28213a41162.html" target="_top" xlink:title="interface">
<polygon fill="none" stroke="red" points="682,-124 622,-124 622,-88 682,-88 682,-124"/>
<text text-anchor="middle" x="652" y="-103.5" font-family="Helvetica,sans-Serif" font-size="10.00">interface</text>
</a>
</g>
</g>
<!-- dir_271001906c846293f255e34446db3cb4&#45;&gt;dir_b31d54d5631803016a26f28213a41162 -->
<g id="edge10" class="edge">
<title>dir_271001906c846293f255e34446db3cb4&#45;&gt;dir_b31d54d5631803016a26f28213a41162</title>
<path fill="none" stroke="black" d="M78.07,-163.23C81.36,-161.96 84.71,-160.84 88,-160 312.71,-102.77 386.29,-180.97 611.84,-124.78"/>
<polygon fill="black" stroke="black" points="612.83,-128.14 621.65,-122.27 611.1,-121.36 612.83,-128.14"/>
<g id="a_edge10&#45;headlabel"><a xlink:href="dir_000096_000054.html" target="_top" xlink:title="1">
<text text-anchor="middle" x="610.05" y="-129.28" font-family="Helvetica,sans-Serif" font-size="10.00">1</text>
</a>
</g>
</g>
</g>
</svg>
