<?xml version="1.0" encoding="UTF-8" standalone="no"?>
<!DOCTYPE svg PUBLIC "-//W3C//DTD SVG 1.1//EN"
 "http://www.w3.org/Graphics/SVG/1.1/DTD/svg11.dtd">
<!-- Generated by graphviz version 2.43.0 (0)
 -->
<!-- Title: /home/kali/projects/vsomeip/interface/vsomeip Pages: 1 -->
<svg width="260pt" height="111pt"
 viewBox="0.00 0.00 260.00 111.00" xmlns="http://www.w3.org/2000/svg" xmlns:xlink="http://www.w3.org/1999/xlink">
<g id="graph0" class="graph" transform="scale(1 1) rotate(0) translate(4 107)">
<title>/home/kali/projects/vsomeip/interface/vsomeip</title>
<polygon fill="white" stroke="transparent" points="-4,4 -4,-107 256,-107 256,4 -4,4"/>
<g id="clust1" class="cluster">
<title>clusterdir_b31d54d5631803016a26f28213a41162</title>
<g id="a_clust1"><a xlink:href="dir_b31d54d5631803016a26f28213a41162.html" target="_top" xlink:title="interface">
<polygon fill="#edf0f7" stroke="#404040" stroke-dasharray="5,2" points="8,-8 8,-95 244,-95 244,-8 8,-8"/>
<text text-anchor="middle" x="126" y="-83" font-family="Helvetica,sans-Serif" font-size="10.00">interface</text>
</a>
</g>
</g>
<g id="clust2" class="cluster">
<title>clusterdir_c128a15a8f9b0f91c32df18479a42502</title>
<g id="a_clust2"><a xlink:href="dir_c128a15a8f9b0f91c32df18479a42502.html" target="_top">
<polygon fill="#edf0f7" stroke="#404040" stroke-width="2" points="16,-16 16,-68 236,-68 236,-16 16,-16"/>
</a>
</g>
</g>
<!-- dir_c128a15a8f9b0f91c32df18479a42502 -->
<g id="node1" class="node">
<title>dir_c128a15a8f9b0f91c32df18479a42502</title>
<text text-anchor="middle" x="198" y="-39.5" font-family="Helvetica,sans-Serif" font-size="10.00">vsomeip</text>
</g>
<!-- dir_f578137286806c44fac2fa0b5f6ff164 -->
<g id="node2" class="node">
<title>dir_f578137286806c44fac2fa0b5f6ff164</title>
<g id="a_node2"><a xlink:href="dir_f578137286806c44fac2fa0b5f6ff164.html" target="_top" xlink:title="internal">
<polygon fill="#a2b4d6" stroke="#404040" points="150,-60 96,-60 96,-24 150,-24 150,-60"/>
<text text-anchor="middle" x="123" y="-39.5" font-family="Helvetica,sans-Serif" font-size="10.00">internal</text>
</a>
</g>
</g>
<!-- dir_aa981868fe60013237feecf2dd5415ba -->
<g id="node3" class="node">
<title>dir_aa981868fe60013237feecf2dd5415ba</title>
<g id="a_node3"><a xlink:href="dir_aa981868fe60013237feecf2dd5415ba.html" target="_top" xlink:title="plugins">
<polygon fill="#a2b4d6" stroke="#404040" points="78,-60 24,-60 24,-24 78,-24 78,-60"/>
<text text-anchor="middle" x="51" y="-39.5" font-family="Helvetica,sans-Serif" font-size="10.00">plugins</text>
</a>
</g>
</g>
</g>
</svg>
