<?xml version="1.0" encoding="UTF-8" standalone="no"?>
<!DOCTYPE svg PUBLIC "-//W3C//DTD SVG 1.1//EN"
 "http://www.w3.org/Graphics/SVG/1.1/DTD/svg11.dtd">
<!-- Generated by graphviz version 2.43.0 (0)
 -->
<!-- Title: /home/kali/projects/vsomeip/implementation/helper/1.74/boost/asio Pages: 1 -->
<svg width="326pt" height="111pt"
 viewBox="0.00 0.00 326.00 111.00" xmlns="http://www.w3.org/2000/svg" xmlns:xlink="http://www.w3.org/1999/xlink">
<g id="graph0" class="graph" transform="scale(1 1) rotate(0) translate(4 107)">
<title>/home/kali/projects/vsomeip/implementation/helper/1.74/boost/asio</title>
<polygon fill="white" stroke="transparent" points="-4,4 -4,-107 322,-107 322,4 -4,4"/>
<g id="clust1" class="cluster">
<title>clusterdir_0b5667836513c23001b668ac5b35e6d9</title>
<g id="a_clust1"><a xlink:href="dir_0b5667836513c23001b668ac5b35e6d9.html" target="_top" xlink:title="boost">
<polygon fill="#edf0f7" stroke="#7f7f7f" stroke-dasharray="5,2" points="8,-8 8,-95 310,-95 310,-8 8,-8"/>
<text text-anchor="middle" x="159" y="-83" font-family="Helvetica,sans-Serif" font-size="10.00">boost</text>
</a>
</g>
</g>
<g id="clust2" class="cluster">
<title>clusterdir_ebff41a83125da5201bbf61b2eb96671</title>
<g id="a_clust2"><a xlink:href="dir_ebff41a83125da5201bbf61b2eb96671.html" target="_top">
<polygon fill="#edf0f7" stroke="#404040" stroke-width="2" points="16,-16 16,-68 302,-68 302,-16 16,-16"/>
</a>
</g>
</g>
<!-- dir_ebff41a83125da5201bbf61b2eb96671 -->
<g id="node1" class="node">
<title>dir_ebff41a83125da5201bbf61b2eb96671</title>
<text text-anchor="middle" x="267" y="-39.5" font-family="Helvetica,sans-Serif" font-size="10.00">asio</text>
</g>
<!-- dir_d375b2ca71a085a19ff560257a9adaa1 -->
<g id="node2" class="node">
<title>dir_d375b2ca71a085a19ff560257a9adaa1</title>
<g id="a_node2"><a xlink:href="dir_d375b2ca71a085a19ff560257a9adaa1.html" target="_top" xlink:title="detail">
<polygon fill="#a2b4d6" stroke="#404040" points="222,-60 168,-60 168,-24 222,-24 222,-60"/>
<text text-anchor="middle" x="195" y="-39.5" font-family="Helvetica,sans-Serif" font-size="10.00">detail</text>
</a>
</g>
</g>
<!-- dir_9baac84c29bada561773b0b868025ac3 -->
<g id="node3" class="node">
<title>dir_9baac84c29bada561773b0b868025ac3</title>
<g id="a_node3"><a xlink:href="dir_9baac84c29bada561773b0b868025ac3.html" target="_top" xlink:title="ip">
<polygon fill="#a2b4d6" stroke="#404040" points="150,-60 96,-60 96,-24 150,-24 150,-60"/>
<text text-anchor="middle" x="123" y="-39.5" font-family="Helvetica,sans-Serif" font-size="10.00">ip</text>
</a>
</g>
</g>
<!-- dir_f054da6a480ee83b39fcd4b7d6110dcc -->
<g id="node4" class="node">
<title>dir_f054da6a480ee83b39fcd4b7d6110dcc</title>
<g id="a_node4"><a xlink:href="dir_f054da6a480ee83b39fcd4b7d6110dcc.html" target="_top" xlink:title="local">
<polygon fill="#a2b4d6" stroke="#404040" points="78,-60 24,-60 24,-24 78,-24 78,-60"/>
<text text-anchor="middle" x="51" y="-39.5" font-family="Helvetica,sans-Serif" font-size="10.00">local</text>
</a>
</g>
</g>
</g>
</svg>
