<?xml version="1.0" encoding="UTF-8" standalone="no"?>
<!DOCTYPE svg PUBLIC "-//W3C//DTD SVG 1.1//EN"
 "http://www.w3.org/Graphics/SVG/1.1/DTD/svg11.dtd">
<!-- Generated by graphviz version 2.43.0 (0)
 -->
<!-- Title: /home/kali/projects/vsomeip/implementation/runtime/include Pages: 1 -->
<svg width="160pt" height="151pt"
 viewBox="0.00 0.00 160.00 151.00" xmlns="http://www.w3.org/2000/svg" xmlns:xlink="http://www.w3.org/1999/xlink">
<g id="graph0" class="graph" transform="scale(1 1) rotate(0) translate(4 147)">
<title>/home/kali/projects/vsomeip/implementation/runtime/include</title>
<polygon fill="white" stroke="transparent" points="-4,4 -4,-147 156,-147 156,4 -4,4"/>
<g id="clust1" class="cluster">
<title>clusterdir_edcd78c7944f950aad2a7d808a095802</title>
<g id="a_clust1"><a xlink:href="dir_edcd78c7944f950aad2a7d808a095802.html" target="_top" xlink:title="runtime">
<polygon fill="#edf0f7" stroke="#7f7f7f" stroke-dasharray="5,2" points="47,-64 47,-135 117,-135 117,-64 47,-64"/>
<text text-anchor="middle" x="82" y="-123" font-family="Helvetica,sans-Serif" font-size="10.00">runtime</text>
</a>
</g>
</g>
<!-- dir_09d934579f160da0a50cec206544f0b7 -->
<g id="node1" class="node">
<title>dir_09d934579f160da0a50cec206544f0b7</title>
<g id="a_node1"><a xlink:href="dir_09d934579f160da0a50cec206544f0b7.html" target="_top" xlink:title="include">
<polygon fill="#edf0f7" stroke="#404040" stroke-width="2" points="109,-108 55,-108 55,-72 109,-72 109,-108"/>
<text text-anchor="middle" x="82" y="-87.5" font-family="Helvetica,sans-Serif" font-size="10.00">include</text>
</a>
</g>
</g>
<!-- dir_56126a1d848d4a1832817232e79a5a18 -->
<g id="node2" class="node">
<title>dir_56126a1d848d4a1832817232e79a5a18</title>
<g id="a_node2"><a xlink:href="dir_56126a1d848d4a1832817232e79a5a18.html" target="_top" xlink:title="configuration">
<polygon fill="none" stroke="red" stroke-dasharray="5,2" points="80,-36 0,-36 0,0 80,0 80,-36"/>
<text text-anchor="middle" x="40" y="-15.5" font-family="Helvetica,sans-Serif" font-size="10.00">configuration</text>
</a>
</g>
</g>
<!-- dir_09d934579f160da0a50cec206544f0b7&#45;&gt;dir_56126a1d848d4a1832817232e79a5a18 -->
<g id="edge1" class="edge">
<title>dir_09d934579f160da0a50cec206544f0b7&#45;&gt;dir_56126a1d848d4a1832817232e79a5a18</title>
<path fill="none" stroke="black" d="M71.62,-71.7C66.74,-63.56 60.81,-53.69 55.42,-44.7"/>
<polygon fill="black" stroke="black" points="58.41,-42.88 50.26,-36.1 52.41,-46.48 58.41,-42.88"/>
<g id="a_edge1&#45;headlabel"><a xlink:href="dir_000049_000019.html" target="_top" xlink:title="1">
<text text-anchor="middle" x="62.69" y="-42" font-family="Helvetica,sans-Serif" font-size="10.00">1</text>
</a>
</g>
</g>
<!-- dir_cf72682d9b1c0bc1c562a1f19b8defa0 -->
<g id="node3" class="node">
<title>dir_cf72682d9b1c0bc1c562a1f19b8defa0</title>
<g id="a_node3"><a xlink:href="dir_cf72682d9b1c0bc1c562a1f19b8defa0.html" target="_top" xlink:title="routing">
<polygon fill="none" stroke="red" stroke-dasharray="5,2" points="152,-36 98,-36 98,0 152,0 152,-36"/>
<text text-anchor="middle" x="125" y="-15.5" font-family="Helvetica,sans-Serif" font-size="10.00">routing</text>
</a>
</g>
</g>
<!-- dir_09d934579f160da0a50cec206544f0b7&#45;&gt;dir_cf72682d9b1c0bc1c562a1f19b8defa0 -->
<g id="edge2" class="edge">
<title>dir_09d934579f160da0a50cec206544f0b7&#45;&gt;dir_cf72682d9b1c0bc1c562a1f19b8defa0</title>
<path fill="none" stroke="black" d="M92.63,-71.7C97.63,-63.56 103.69,-53.69 109.21,-44.7"/>
<polygon fill="black" stroke="black" points="112.24,-46.46 114.49,-36.1 106.28,-42.79 112.24,-46.46"/>
<g id="a_edge2&#45;headlabel"><a xlink:href="dir_000049_000082.html" target="_top" xlink:title="1">
<text text-anchor="middle" x="112.78" y="-48.51" font-family="Helvetica,sans-Serif" font-size="10.00">1</text>
</a>
</g>
</g>
</g>
</svg>
