<?xml version="1.0" encoding="UTF-8" standalone="no"?>
<!DOCTYPE svg PUBLIC "-//W3C//DTD SVG 1.1//EN"
 "http://www.w3.org/Graphics/SVG/1.1/DTD/svg11.dtd">
<!-- Generated by graphviz version 2.43.0 (0)
 -->
<!-- Title: /home/kali/projects/vsomeip/implementation/service_discovery/src Pages: 1 -->
<svg width="666pt" height="167pt"
 viewBox="0.00 0.00 666.00 167.00" xmlns="http://www.w3.org/2000/svg" xmlns:xlink="http://www.w3.org/1999/xlink">
<g id="graph0" class="graph" transform="scale(1 1) rotate(0) translate(4 163)">
<title>/home/kali/projects/vsomeip/implementation/service_discovery/src</title>
<polygon fill="white" stroke="transparent" points="-4,4 -4,-163 662,-163 662,4 -4,4"/>
<g id="clust1" class="cluster">
<title>clusterdir_061a1b0a0a40a7427f2461ed2f520013</title>
<g id="a_clust1"><a xlink:href="dir_061a1b0a0a40a7427f2461ed2f520013.html" target="_top" xlink:title="service_discovery">
<polygon fill="#edf0f7" stroke="#7f7f7f" stroke-dasharray="5,2" points="8,-8 8,-151 112,-151 112,-8 8,-8"/>
<text text-anchor="middle" x="60" y="-139" font-family="Helvetica,sans-Serif" font-size="10.00">service_discovery</text>
</a>
</g>
</g>
<!-- dir_e536cd6c38eff7239838b1bcd538af89 -->
<g id="node1" class="node">
<title>dir_e536cd6c38eff7239838b1bcd538af89</title>
<g id="a_node1"><a xlink:href="dir_e536cd6c38eff7239838b1bcd538af89.html" target="_top" xlink:title="include">
<polygon fill="#a2b4d6" stroke="#404040" points="102,-52 48,-52 48,-16 102,-16 102,-52"/>
<text text-anchor="middle" x="75" y="-31.5" font-family="Helvetica,sans-Serif" font-size="10.00">include</text>
</a>
</g>
</g>
<!-- dir_b9897dd8b4337efdb18d6c26c10007d0 -->
<g id="node2" class="node">
<title>dir_b9897dd8b4337efdb18d6c26c10007d0</title>
<g id="a_node2"><a xlink:href="dir_b9897dd8b4337efdb18d6c26c10007d0.html" target="_top" xlink:title="src">
<polygon fill="#edf0f7" stroke="#404040" stroke-width="2" points="104,-124 50,-124 50,-88 104,-88 104,-124"/>
<text text-anchor="middle" x="77" y="-103.5" font-family="Helvetica,sans-Serif" font-size="10.00">src</text>
</a>
</g>
</g>
<!-- dir_b9897dd8b4337efdb18d6c26c10007d0&#45;&gt;dir_e536cd6c38eff7239838b1bcd538af89 -->
<g id="edge7" class="edge">
<title>dir_b9897dd8b4337efdb18d6c26c10007d0&#45;&gt;dir_e536cd6c38eff7239838b1bcd538af89</title>
<path fill="none" stroke="black" d="M76.51,-87.7C76.29,-79.98 76.02,-70.71 75.77,-62.11"/>
<polygon fill="black" stroke="black" points="79.27,-62 75.49,-52.1 72.28,-62.2 79.27,-62"/>
<g id="a_edge7&#45;headlabel"><a xlink:href="dir_000098_000051.html" target="_top" xlink:title="61">
<text text-anchor="middle" x="82.21" y="-63.01" font-family="Helvetica,sans-Serif" font-size="10.00">61</text>
</a>
</g>
</g>
<!-- dir_3ce07147fcbac31fc4d5892a851f6627 -->
<g id="node3" class="node">
<title>dir_3ce07147fcbac31fc4d5892a851f6627</title>
<g id="a_node3"><a xlink:href="dir_3ce07147fcbac31fc4d5892a851f6627.html" target="_top" xlink:title="message">
<polygon fill="none" stroke="red" stroke-dasharray="5,2" points="181.5,-52 120.5,-52 120.5,-16 181.5,-16 181.5,-52"/>
<text text-anchor="middle" x="151" y="-31.5" font-family="Helvetica,sans-Serif" font-size="10.00">message</text>
</a>
</g>
</g>
<!-- dir_b9897dd8b4337efdb18d6c26c10007d0&#45;&gt;dir_3ce07147fcbac31fc4d5892a851f6627 -->
<g id="edge1" class="edge">
<title>dir_b9897dd8b4337efdb18d6c26c10007d0&#45;&gt;dir_3ce07147fcbac31fc4d5892a851f6627</title>
<path fill="none" stroke="black" d="M95.29,-87.7C104.43,-79.05 115.64,-68.45 125.6,-59.03"/>
<polygon fill="black" stroke="black" points="128.06,-61.52 132.92,-52.1 123.25,-56.43 128.06,-61.52"/>
<g id="a_edge1&#45;headlabel"><a xlink:href="dir_000098_000069.html" target="_top" xlink:title="26">
<text text-anchor="middle" x="127.4" y="-63.55" font-family="Helvetica,sans-Serif" font-size="10.00">26</text>
</a>
</g>
</g>
<!-- dir_56126a1d848d4a1832817232e79a5a18 -->
<g id="node4" class="node">
<title>dir_56126a1d848d4a1832817232e79a5a18</title>
<g id="a_node4"><a xlink:href="dir_56126a1d848d4a1832817232e79a5a18.html" target="_top" xlink:title="configuration">
<polygon fill="none" stroke="red" stroke-dasharray="5,2" points="280,-52 200,-52 200,-16 280,-16 280,-52"/>
<text text-anchor="middle" x="240" y="-31.5" font-family="Helvetica,sans-Serif" font-size="10.00">configuration</text>
</a>
</g>
</g>
<!-- dir_b9897dd8b4337efdb18d6c26c10007d0&#45;&gt;dir_56126a1d848d4a1832817232e79a5a18 -->
<g id="edge2" class="edge">
<title>dir_b9897dd8b4337efdb18d6c26c10007d0&#45;&gt;dir_56126a1d848d4a1832817232e79a5a18</title>
<path fill="none" stroke="black" d="M104.28,-93.28C127.9,-83.14 162.62,-68.23 191.04,-56.03"/>
<polygon fill="black" stroke="black" points="192.6,-59.17 200.4,-52 189.83,-52.73 192.6,-59.17"/>
<g id="a_edge2&#45;headlabel"><a xlink:href="dir_000098_000019.html" target="_top" xlink:title="2">
<text text-anchor="middle" x="190.41" y="-60.69" font-family="Helvetica,sans-Serif" font-size="10.00">2</text>
</a>
</g>
</g>
<!-- dir_6972051101bc5f8d68d31d49f06d7aaf -->
<g id="node5" class="node">
<title>dir_6972051101bc5f8d68d31d49f06d7aaf</title>
<g id="a_node5"><a xlink:href="dir_6972051101bc5f8d68d31d49f06d7aaf.html" target="_top" xlink:title="utility">
<polygon fill="none" stroke="red" stroke-dasharray="5,2" points="352,-52 298,-52 298,-16 352,-16 352,-52"/>
<text text-anchor="middle" x="325" y="-31.5" font-family="Helvetica,sans-Serif" font-size="10.00">utility</text>
</a>
</g>
</g>
<!-- dir_b9897dd8b4337efdb18d6c26c10007d0&#45;&gt;dir_6972051101bc5f8d68d31d49f06d7aaf -->
<g id="edge3" class="edge">
<title>dir_b9897dd8b4337efdb18d6c26c10007d0&#45;&gt;dir_6972051101bc5f8d68d31d49f06d7aaf</title>
<path fill="none" stroke="black" d="M104.28,-99.97C143.38,-92.37 217.6,-76.54 288.23,-51.93"/>
<polygon fill="black" stroke="black" points="289.46,-55.2 297.72,-48.56 287.12,-48.61 289.46,-55.2"/>
<g id="a_edge3&#45;headlabel"><a xlink:href="dir_000098_000102.html" target="_top" xlink:title="1">
<text text-anchor="middle" x="287.03" y="-56.58" font-family="Helvetica,sans-Serif" font-size="10.00">1</text>
</a>
</g>
</g>
<!-- dir_9c7b9d609ec855ab7fbf064b0ccf8e4e -->
<g id="node6" class="node">
<title>dir_9c7b9d609ec855ab7fbf064b0ccf8e4e</title>
<g id="a_node6"><a xlink:href="dir_9c7b9d609ec855ab7fbf064b0ccf8e4e.html" target="_top" xlink:title="endpoints">
<polygon fill="none" stroke="red" stroke-dasharray="5,2" points="435.5,-52 370.5,-52 370.5,-16 435.5,-16 435.5,-52"/>
<text text-anchor="middle" x="403" y="-31.5" font-family="Helvetica,sans-Serif" font-size="10.00">endpoints</text>
</a>
</g>
</g>
<!-- dir_b9897dd8b4337efdb18d6c26c10007d0&#45;&gt;dir_9c7b9d609ec855ab7fbf064b0ccf8e4e -->
<g id="edge4" class="edge">
<title>dir_b9897dd8b4337efdb18d6c26c10007d0&#45;&gt;dir_9c7b9d609ec855ab7fbf064b0ccf8e4e</title>
<path fill="none" stroke="black" d="M104.04,-101.79C153.39,-95.54 261.32,-80.07 360.35,-51.86"/>
<polygon fill="black" stroke="black" points="361.58,-55.15 370.21,-49 359.63,-48.42 361.58,-55.15"/>
<g id="a_edge4&#45;headlabel"><a xlink:href="dir_000098_000032.html" target="_top" xlink:title="5">
<text text-anchor="middle" x="358.92" y="-56.37" font-family="Helvetica,sans-Serif" font-size="10.00">5</text>
</a>
</g>
</g>
<!-- dir_b31d54d5631803016a26f28213a41162 -->
<g id="node7" class="node">
<title>dir_b31d54d5631803016a26f28213a41162</title>
<g id="a_node7"><a xlink:href="dir_b31d54d5631803016a26f28213a41162.html" target="_top" xlink:title="interface">
<polygon fill="none" stroke="red" points="514,-52 454,-52 454,-16 514,-16 514,-52"/>
<text text-anchor="middle" x="484" y="-31.5" font-family="Helvetica,sans-Serif" font-size="10.00">interface</text>
</a>
</g>
</g>
<!-- dir_b9897dd8b4337efdb18d6c26c10007d0&#45;&gt;dir_b31d54d5631803016a26f28213a41162 -->
<g id="edge5" class="edge">
<title>dir_b9897dd8b4337efdb18d6c26c10007d0&#45;&gt;dir_b31d54d5631803016a26f28213a41162</title>
<path fill="none" stroke="black" d="M104.3,-103.57C164.56,-99.89 313.33,-87.91 443.86,-51.91"/>
<polygon fill="black" stroke="black" points="444.95,-55.24 453.63,-49.16 443.05,-48.5 444.95,-55.24"/>
<g id="a_edge5&#45;headlabel"><a xlink:href="dir_000098_000054.html" target="_top" xlink:title="6">
<text text-anchor="middle" x="442.26" y="-56.44" font-family="Helvetica,sans-Serif" font-size="10.00">6</text>
</a>
</g>
</g>
<!-- dir_cf72682d9b1c0bc1c562a1f19b8defa0 -->
<g id="node8" class="node">
<title>dir_cf72682d9b1c0bc1c562a1f19b8defa0</title>
<g id="a_node8"><a xlink:href="dir_cf72682d9b1c0bc1c562a1f19b8defa0.html" target="_top" xlink:title="routing">
<polygon fill="none" stroke="red" stroke-dasharray="5,2" points="586,-52 532,-52 532,-16 586,-16 586,-52"/>
<text text-anchor="middle" x="559" y="-31.5" font-family="Helvetica,sans-Serif" font-size="10.00">routing</text>
</a>
</g>
</g>
<!-- dir_b9897dd8b4337efdb18d6c26c10007d0&#45;&gt;dir_cf72682d9b1c0bc1c562a1f19b8defa0 -->
<g id="edge6" class="edge">
<title>dir_b9897dd8b4337efdb18d6c26c10007d0&#45;&gt;dir_cf72682d9b1c0bc1c562a1f19b8defa0</title>
<path fill="none" stroke="black" d="M104.24,-104.79C173.4,-103.63 361.08,-96.54 521.78,-51.8"/>
<polygon fill="black" stroke="black" points="523.18,-55.04 531.84,-48.94 521.26,-48.31 523.18,-55.04"/>
<g id="a_edge6&#45;headlabel"><a xlink:href="dir_000098_000082.html" target="_top" xlink:title="4">
<text text-anchor="middle" x="520.5" y="-56.25" font-family="Helvetica,sans-Serif" font-size="10.00">4</text>
</a>
</g>
</g>
<!-- dir_f132f3c082319ace6827058f7d1d886d -->
<g id="node9" class="node">
<title>dir_f132f3c082319ace6827058f7d1d886d</title>
<g id="a_node9"><a xlink:href="dir_f132f3c082319ace6827058f7d1d886d.html" target="_top" xlink:title="plugin">
<polygon fill="none" stroke="red" stroke-dasharray="5,2" points="658,-52 604,-52 604,-16 658,-16 658,-52"/>
<text text-anchor="middle" x="631" y="-31.5" font-family="Helvetica,sans-Serif" font-size="10.00">plugin</text>
</a>
</g>
</g>
<!-- dir_b9897dd8b4337efdb18d6c26c10007d0&#45;&gt;dir_f132f3c082319ace6827058f7d1d886d -->
<g id="edge8" class="edge">
<title>dir_b9897dd8b4337efdb18d6c26c10007d0&#45;&gt;dir_f132f3c082319ace6827058f7d1d886d</title>
<path fill="none" stroke="black" d="M104,-105.42C180.48,-105.94 404.71,-102.91 594.01,-51.7"/>
<polygon fill="black" stroke="black" points="595.14,-55.02 603.85,-48.99 593.28,-48.27 595.14,-55.02"/>
<g id="a_edge8&#45;headlabel"><a xlink:href="dir_000098_000070.html" target="_top" xlink:title="1">
<text text-anchor="middle" x="592.43" y="-56.21" font-family="Helvetica,sans-Serif" font-size="10.00">1</text>
</a>
</g>
</g>
</g>
</svg>
