<?xml version="1.0" encoding="UTF-8" standalone="no"?>
<!DOCTYPE svg PUBLIC "-//W3C//DTD SVG 1.1//EN"
 "http://www.w3.org/Graphics/SVG/1.1/DTD/svg11.dtd">
<!-- Generated by graphviz version 2.43.0 (0)
 -->
<!-- Title: /home/kali/projects/vsomeip/implementation/helper Pages: 1 -->
<svg width="470pt" height="111pt"
 viewBox="0.00 0.00 470.00 111.00" xmlns="http://www.w3.org/2000/svg" xmlns:xlink="http://www.w3.org/1999/xlink">
<g id="graph0" class="graph" transform="scale(1 1) rotate(0) translate(4 107)">
<title>/home/kali/projects/vsomeip/implementation/helper</title>
<polygon fill="white" stroke="transparent" points="-4,4 -4,-107 466,-107 466,4 -4,4"/>
<g id="clust1" class="cluster">
<title>clusterdir_ed7c47a03c091bb19436c59342bc9555</title>
<g id="a_clust1"><a xlink:href="dir_ed7c47a03c091bb19436c59342bc9555.html" target="_top" xlink:title="implementation">
<polygon fill="#edf0f7" stroke="#404040" stroke-dasharray="5,2" points="8,-8 8,-95 454,-95 454,-8 8,-8"/>
<text text-anchor="middle" x="231" y="-83" font-family="Helvetica,sans-Serif" font-size="10.00">implementation</text>
</a>
</g>
</g>
<g id="clust2" class="cluster">
<title>clusterdir_865b81be71567c7497d9335ceceb92d8</title>
<g id="a_clust2"><a xlink:href="dir_865b81be71567c7497d9335ceceb92d8.html" target="_top">
<polygon fill="#edf0f7" stroke="#404040" stroke-width="2" points="16,-16 16,-68 446,-68 446,-16 16,-16"/>
</a>
</g>
</g>
<!-- dir_865b81be71567c7497d9335ceceb92d8 -->
<g id="node1" class="node">
<title>dir_865b81be71567c7497d9335ceceb92d8</title>
<text text-anchor="middle" x="411" y="-39.5" font-family="Helvetica,sans-Serif" font-size="10.00">helper</text>
</g>
<!-- dir_0911a9d8d40aedf102d1364a78878361 -->
<g id="node2" class="node">
<title>dir_0911a9d8d40aedf102d1364a78878361</title>
<g id="a_node2"><a xlink:href="dir_0911a9d8d40aedf102d1364a78878361.html" target="_top" xlink:title="1.55">
<polygon fill="#a2b4d6" stroke="#404040" points="366,-60 312,-60 312,-24 366,-24 366,-60"/>
<text text-anchor="middle" x="339" y="-39.5" font-family="Helvetica,sans-Serif" font-size="10.00">1.55</text>
</a>
</g>
</g>
<!-- dir_a21d1de5e7e679adb7704fec0f88e0c4 -->
<g id="node3" class="node">
<title>dir_a21d1de5e7e679adb7704fec0f88e0c4</title>
<g id="a_node3"><a xlink:href="dir_a21d1de5e7e679adb7704fec0f88e0c4.html" target="_top" xlink:title="1.66">
<polygon fill="#a2b4d6" stroke="#404040" points="294,-60 240,-60 240,-24 294,-24 294,-60"/>
<text text-anchor="middle" x="267" y="-39.5" font-family="Helvetica,sans-Serif" font-size="10.00">1.66</text>
</a>
</g>
</g>
<!-- dir_2000d37ee2116393833c088353f9de8f -->
<g id="node4" class="node">
<title>dir_2000d37ee2116393833c088353f9de8f</title>
<g id="a_node4"><a xlink:href="dir_2000d37ee2116393833c088353f9de8f.html" target="_top" xlink:title="1.70">
<polygon fill="#a2b4d6" stroke="#404040" points="222,-60 168,-60 168,-24 222,-24 222,-60"/>
<text text-anchor="middle" x="195" y="-39.5" font-family="Helvetica,sans-Serif" font-size="10.00">1.70</text>
</a>
</g>
</g>
<!-- dir_bc3e66f66cd0e02818b56aaafcc509e8 -->
<g id="node5" class="node">
<title>dir_bc3e66f66cd0e02818b56aaafcc509e8</title>
<g id="a_node5"><a xlink:href="dir_bc3e66f66cd0e02818b56aaafcc509e8.html" target="_top" xlink:title="1.74">
<polygon fill="#a2b4d6" stroke="#404040" points="150,-60 96,-60 96,-24 150,-24 150,-60"/>
<text text-anchor="middle" x="123" y="-39.5" font-family="Helvetica,sans-Serif" font-size="10.00">1.74</text>
</a>
</g>
</g>
<!-- dir_45f6bac8621b744f6e222611155f5474 -->
<g id="node6" class="node">
<title>dir_45f6bac8621b744f6e222611155f5474</title>
<g id="a_node6"><a xlink:href="dir_45f6bac8621b744f6e222611155f5474.html" target="_top" xlink:title="1.76">
<polygon fill="#a2b4d6" stroke="#404040" points="78,-60 24,-60 24,-24 78,-24 78,-60"/>
<text text-anchor="middle" x="51" y="-39.5" font-family="Helvetica,sans-Serif" font-size="10.00">1.76</text>
</a>
</g>
</g>
</g>
</svg>
