<?xml version="1.0" encoding="UTF-8" standalone="no"?>
<!DOCTYPE svg PUBLIC "-//W3C//DTD SVG 1.1//EN"
 "http://www.w3.org/Graphics/SVG/1.1/DTD/svg11.dtd">
<!-- Generated by graphviz version 2.43.0 (0)
 -->
<!-- Title: /home/kali/projects/vsomeip/implementation/e2e_protection/include/e2e Pages: 1 -->
<svg width="340pt" height="175pt"
 viewBox="0.00 0.00 340.00 175.00" xmlns="http://www.w3.org/2000/svg" xmlns:xlink="http://www.w3.org/1999/xlink">
<g id="graph0" class="graph" transform="scale(1 1) rotate(0) translate(4 171)">
<title>/home/kali/projects/vsomeip/implementation/e2e_protection/include/e2e</title>
<polygon fill="white" stroke="transparent" points="-4,4 -4,-171 336,-171 336,4 -4,4"/>
<g id="clust1" class="cluster">
<title>clusterdir_261f67b82c2cb416f656d185a1fa5017</title>
<g id="a_clust1"><a xlink:href="dir_261f67b82c2cb416f656d185a1fa5017.html" target="_top" xlink:title="include">
<polygon fill="#edf0f7" stroke="#7f7f7f" stroke-dasharray="5,2" points="8,-8 8,-159 166,-159 166,-8 8,-8"/>
<text text-anchor="middle" x="87" y="-147" font-family="Helvetica,sans-Serif" font-size="10.00">include</text>
</a>
</g>
</g>
<g id="clust2" class="cluster">
<title>clusterdir_2c10f7dfbcf013b1b190c8d753008e6d</title>
<g id="a_clust2"><a xlink:href="dir_2c10f7dfbcf013b1b190c8d753008e6d.html" target="_top">
<polygon fill="#edf0f7" stroke="#404040" stroke-width="2" points="16,-80 16,-132 158,-132 158,-80 16,-80"/>
</a>
</g>
</g>
<!-- dir_8c17fa292750306381d606ba00a14046 -->
<g id="node1" class="node">
<title>dir_8c17fa292750306381d606ba00a14046</title>
<g id="a_node1"><a xlink:href="dir_8c17fa292750306381d606ba00a14046.html" target="_top" xlink:title="buffer">
<polygon fill="#a2b4d6" stroke="#404040" points="74,-52 20,-52 20,-16 74,-16 74,-52"/>
<text text-anchor="middle" x="47" y="-31.5" font-family="Helvetica,sans-Serif" font-size="10.00">buffer</text>
</a>
</g>
</g>
<!-- dir_a17baa2740823ba34f3b0e33cb8a14f6 -->
<g id="node2" class="node">
<title>dir_a17baa2740823ba34f3b0e33cb8a14f6</title>
<g id="a_node2"><a xlink:href="dir_a17baa2740823ba34f3b0e33cb8a14f6.html" target="_top" xlink:title="e2exf">
<polygon fill="#a2b4d6" stroke="#404040" points="146,-52 92,-52 92,-16 146,-16 146,-52"/>
<text text-anchor="middle" x="119" y="-31.5" font-family="Helvetica,sans-Serif" font-size="10.00">e2exf</text>
</a>
</g>
</g>
<!-- dir_2c10f7dfbcf013b1b190c8d753008e6d -->
<g id="node3" class="node">
<title>dir_2c10f7dfbcf013b1b190c8d753008e6d</title>
<text text-anchor="middle" x="123" y="-103.5" font-family="Helvetica,sans-Serif" font-size="10.00">e2e</text>
</g>
<!-- dir_6430ed959aa6e92f798ce09450cbb0e0 -->
<g id="node4" class="node">
<title>dir_6430ed959aa6e92f798ce09450cbb0e0</title>
<g id="a_node4"><a xlink:href="dir_6430ed959aa6e92f798ce09450cbb0e0.html" target="_top" xlink:title="profile">
<polygon fill="#a2b4d6" stroke="#404040" points="78,-124 24,-124 24,-88 78,-88 78,-124"/>
<text text-anchor="middle" x="51" y="-103.5" font-family="Helvetica,sans-Serif" font-size="10.00">profile</text>
</a>
</g>
</g>
<!-- dir_6430ed959aa6e92f798ce09450cbb0e0&#45;&gt;dir_8c17fa292750306381d606ba00a14046 -->
<g id="edge2" class="edge">
<title>dir_6430ed959aa6e92f798ce09450cbb0e0&#45;&gt;dir_8c17fa292750306381d606ba00a14046</title>
<path fill="none" stroke="black" d="M50.01,-87.7C49.57,-79.98 49.04,-70.71 48.55,-62.11"/>
<polygon fill="black" stroke="black" points="52.04,-61.89 47.98,-52.1 45.05,-62.29 52.04,-61.89"/>
<g id="a_edge2&#45;headlabel"><a xlink:href="dir_000073_000015.html" target="_top" xlink:title="6">
<text text-anchor="middle" x="55.08" y="-62.82" font-family="Helvetica,sans-Serif" font-size="10.00">6</text>
</a>
</g>
</g>
<!-- dir_6430ed959aa6e92f798ce09450cbb0e0&#45;&gt;dir_a17baa2740823ba34f3b0e33cb8a14f6 -->
<g id="edge3" class="edge">
<title>dir_6430ed959aa6e92f798ce09450cbb0e0&#45;&gt;dir_a17baa2740823ba34f3b0e33cb8a14f6</title>
<path fill="none" stroke="black" d="M67.81,-87.7C76.13,-79.14 86.31,-68.66 95.39,-59.3"/>
<polygon fill="black" stroke="black" points="97.93,-61.72 102.38,-52.1 92.91,-56.84 97.93,-61.72"/>
<g id="a_edge3&#45;headlabel"><a xlink:href="dir_000073_000030.html" target="_top" xlink:title="1">
<text text-anchor="middle" x="97.46" y="-63.77" font-family="Helvetica,sans-Serif" font-size="10.00">1</text>
</a>
</g>
</g>
<!-- dir_56126a1d848d4a1832817232e79a5a18 -->
<g id="node5" class="node">
<title>dir_56126a1d848d4a1832817232e79a5a18</title>
<g id="a_node5"><a xlink:href="dir_56126a1d848d4a1832817232e79a5a18.html" target="_top" xlink:title="configuration">
<polygon fill="none" stroke="red" stroke-dasharray="5,2" points="254,-52 174,-52 174,-16 254,-16 254,-52"/>
<text text-anchor="middle" x="214" y="-31.5" font-family="Helvetica,sans-Serif" font-size="10.00">configuration</text>
</a>
</g>
</g>
<!-- dir_6430ed959aa6e92f798ce09450cbb0e0&#45;&gt;dir_56126a1d848d4a1832817232e79a5a18 -->
<g id="edge1" class="edge">
<title>dir_6430ed959aa6e92f798ce09450cbb0e0&#45;&gt;dir_56126a1d848d4a1832817232e79a5a18</title>
<path fill="none" stroke="black" d="M73.64,-87.86C77.95,-85.01 82.51,-82.26 87,-80 118.79,-64.01 131.22,-64.92 163.94,-54.04"/>
<polygon fill="black" stroke="black" points="165.45,-57.22 173.74,-50.63 163.15,-50.61 165.45,-57.22"/>
<g id="a_edge1&#45;headlabel"><a xlink:href="dir_000073_000019.html" target="_top" xlink:title="1">
<text text-anchor="middle" x="162.98" y="-58.58" font-family="Helvetica,sans-Serif" font-size="10.00">1</text>
</a>
</g>
</g>
<!-- dir_b31d54d5631803016a26f28213a41162 -->
<g id="node6" class="node">
<title>dir_b31d54d5631803016a26f28213a41162</title>
<g id="a_node6"><a xlink:href="dir_b31d54d5631803016a26f28213a41162.html" target="_top" xlink:title="interface">
<polygon fill="none" stroke="red" points="332,-52 272,-52 272,-16 332,-16 332,-52"/>
<text text-anchor="middle" x="302" y="-31.5" font-family="Helvetica,sans-Serif" font-size="10.00">interface</text>
</a>
</g>
</g>
<!-- dir_6430ed959aa6e92f798ce09450cbb0e0&#45;&gt;dir_b31d54d5631803016a26f28213a41162 -->
<g id="edge4" class="edge">
<title>dir_6430ed959aa6e92f798ce09450cbb0e0&#45;&gt;dir_b31d54d5631803016a26f28213a41162</title>
<path fill="none" stroke="black" d="M72.18,-87.99C76.85,-84.92 81.92,-82.04 87,-80 157.62,-51.6 184.83,-72.45 261.96,-51.84"/>
<polygon fill="black" stroke="black" points="262.94,-55.2 271.62,-49.11 261.04,-48.46 262.94,-55.2"/>
<g id="a_edge4&#45;headlabel"><a xlink:href="dir_000073_000054.html" target="_top" xlink:title="2">
<text text-anchor="middle" x="260.25" y="-56.41" font-family="Helvetica,sans-Serif" font-size="10.00">2</text>
</a>
</g>
</g>
</g>
</svg>
