<?xml version="1.0" encoding="UTF-8" standalone="no"?>
<!DOCTYPE svg PUBLIC "-//W3C//DTD SVG 1.1//EN"
 "http://www.w3.org/Graphics/SVG/1.1/DTD/svg11.dtd">
<!-- Generated by graphviz version 2.43.0 (0)
 -->
<!-- Title: /home/kali/projects/vsomeip/implementation/logger Pages: 1 -->
<svg width="276pt" height="231pt"
 viewBox="0.00 0.00 276.23 231.00" xmlns="http://www.w3.org/2000/svg" xmlns:xlink="http://www.w3.org/1999/xlink">
<g id="graph0" class="graph" transform="scale(1 1) rotate(0) translate(4 227)">
<title>/home/kali/projects/vsomeip/implementation/logger</title>
<polygon fill="white" stroke="transparent" points="-4,4 -4,-227 272.23,-227 272.23,4 -4,4"/>
<g id="clust1" class="cluster">
<title>clusterdir_ed7c47a03c091bb19436c59342bc9555</title>
<g id="a_clust1"><a xlink:href="dir_ed7c47a03c091bb19436c59342bc9555.html" target="_top" xlink:title="implementation">
<polygon fill="#edf0f7" stroke="#404040" stroke-dasharray="5,2" points="8,-56 8,-215 254,-215 254,-56 8,-56"/>
<text text-anchor="middle" x="131" y="-203" font-family="Helvetica,sans-Serif" font-size="10.00">implementation</text>
</a>
</g>
</g>
<g id="clust2" class="cluster">
<title>clusterdir_a341cf5cf1894ba060679bdee57be3d6</title>
<g id="a_clust2"><a xlink:href="dir_a341cf5cf1894ba060679bdee57be3d6.html" target="_top">
<polygon fill="#edf0f7" stroke="#404040" stroke-width="2" points="16,-64 16,-188 158,-188 158,-64 16,-64"/>
</a>
</g>
</g>
<!-- dir_56126a1d848d4a1832817232e79a5a18 -->
<g id="node1" class="node">
<title>dir_56126a1d848d4a1832817232e79a5a18</title>
<g id="a_node1"><a xlink:href="dir_56126a1d848d4a1832817232e79a5a18.html" target="_top" xlink:title="configuration">
<polygon fill="#a2b4d6" stroke="red" points="246,-108 166,-108 166,-72 246,-72 246,-108"/>
<text text-anchor="middle" x="206" y="-87.5" font-family="Helvetica,sans-Serif" font-size="10.00">configuration</text>
</a>
</g>
</g>
<!-- dir_a341cf5cf1894ba060679bdee57be3d6 -->
<g id="node2" class="node">
<title>dir_a341cf5cf1894ba060679bdee57be3d6</title>
<text text-anchor="middle" x="123" y="-159.5" font-family="Helvetica,sans-Serif" font-size="10.00">logger</text>
</g>
<!-- dir_6cde8a76a7b9710bb9effaebf7807632 -->
<g id="node3" class="node">
<title>dir_6cde8a76a7b9710bb9effaebf7807632</title>
<g id="a_node3"><a xlink:href="dir_6cde8a76a7b9710bb9effaebf7807632.html" target="_top" xlink:title="include">
<polygon fill="#a2b4d6" stroke="#404040" points="113,-108 59,-108 59,-72 113,-72 113,-108"/>
<text text-anchor="middle" x="86" y="-87.5" font-family="Helvetica,sans-Serif" font-size="10.00">include</text>
</a>
</g>
</g>
<!-- dir_b31d54d5631803016a26f28213a41162 -->
<g id="node5" class="node">
<title>dir_b31d54d5631803016a26f28213a41162</title>
<g id="a_node5"><a xlink:href="dir_b31d54d5631803016a26f28213a41162.html" target="_top" xlink:title="interface">
<polygon fill="none" stroke="red" points="210,-36 150,-36 150,0 210,0 210,-36"/>
<text text-anchor="middle" x="180" y="-15.5" font-family="Helvetica,sans-Serif" font-size="10.00">interface</text>
</a>
</g>
</g>
<!-- dir_6cde8a76a7b9710bb9effaebf7807632&#45;&gt;dir_b31d54d5631803016a26f28213a41162 -->
<g id="edge1" class="edge">
<title>dir_6cde8a76a7b9710bb9effaebf7807632&#45;&gt;dir_b31d54d5631803016a26f28213a41162</title>
<path fill="none" stroke="black" d="M100.28,-71.96C105.27,-66.53 111.1,-60.71 117,-56 124.35,-50.13 132.73,-44.55 140.93,-39.6"/>
<polygon fill="black" stroke="black" points="142.82,-42.54 149.69,-34.48 139.29,-36.5 142.82,-42.54"/>
<g id="a_edge1&#45;headlabel"><a xlink:href="dir_000045_000054.html" target="_top" xlink:title="1">
<text text-anchor="middle" x="141.15" y="-44.31" font-family="Helvetica,sans-Serif" font-size="10.00">1</text>
</a>
</g>
</g>
<!-- dir_064d93804a587f65af727aa3b21cc5d8 -->
<g id="node4" class="node">
<title>dir_064d93804a587f65af727aa3b21cc5d8</title>
<g id="a_node4"><a xlink:href="dir_064d93804a587f65af727aa3b21cc5d8.html" target="_top" xlink:title="src">
<polygon fill="#a2b4d6" stroke="#404040" points="78,-180 24,-180 24,-144 78,-144 78,-180"/>
<text text-anchor="middle" x="51" y="-159.5" font-family="Helvetica,sans-Serif" font-size="10.00">src</text>
</a>
</g>
</g>
<!-- dir_064d93804a587f65af727aa3b21cc5d8&#45;&gt;dir_56126a1d848d4a1832817232e79a5a18 -->
<g id="edge2" class="edge">
<title>dir_064d93804a587f65af727aa3b21cc5d8&#45;&gt;dir_56126a1d848d4a1832817232e79a5a18</title>
<path fill="none" stroke="black" d="M78.1,-148.13C81.1,-146.72 84.11,-145.33 87,-144 110.19,-133.36 136.05,-121.81 157.72,-112.21"/>
<polygon fill="black" stroke="black" points="159.32,-115.33 167.05,-108.09 156.48,-108.93 159.32,-115.33"/>
<g id="a_edge2&#45;headlabel"><a xlink:href="dir_000092_000019.html" target="_top" xlink:title="2">
<text text-anchor="middle" x="157.18" y="-116.88" font-family="Helvetica,sans-Serif" font-size="10.00">2</text>
</a>
</g>
</g>
<!-- dir_064d93804a587f65af727aa3b21cc5d8&#45;&gt;dir_6cde8a76a7b9710bb9effaebf7807632 -->
<g id="edge3" class="edge">
<title>dir_064d93804a587f65af727aa3b21cc5d8&#45;&gt;dir_6cde8a76a7b9710bb9effaebf7807632</title>
<path fill="none" stroke="black" d="M59.65,-143.7C63.64,-135.73 68.45,-126.1 72.87,-117.26"/>
<polygon fill="black" stroke="black" points="76.11,-118.61 77.45,-108.1 69.85,-115.48 76.11,-118.61"/>
<g id="a_edge3&#45;headlabel"><a xlink:href="dir_000092_000045.html" target="_top" xlink:title="2">
<text text-anchor="middle" x="77.04" y="-120.6" font-family="Helvetica,sans-Serif" font-size="10.00">2</text>
</a>
</g>
</g>
<!-- dir_064d93804a587f65af727aa3b21cc5d8&#45;&gt;dir_b31d54d5631803016a26f28213a41162 -->
<g id="edge4" class="edge">
<title>dir_064d93804a587f65af727aa3b21cc5d8&#45;&gt;dir_b31d54d5631803016a26f28213a41162</title>
<path fill="none" stroke="black" d="M78.24,-147.33C81.16,-146.11 84.12,-144.97 87,-144 160.62,-119.25 209.06,-168.31 258,-108 272.56,-90.05 270.35,-75.53 258,-56 249.39,-42.39 234.27,-33.68 219.61,-28.17"/>
<polygon fill="black" stroke="black" points="220.72,-24.85 210.12,-24.98 218.49,-31.48 220.72,-24.85"/>
<g id="a_edge4&#45;headlabel"><a xlink:href="dir_000092_000054.html" target="_top" xlink:title="1">
<text text-anchor="middle" x="225.03" y="-20.8" font-family="Helvetica,sans-Serif" font-size="10.00">1</text>
</a>
</g>
</g>
</g>
</svg>
