<?xml version="1.0" encoding="UTF-8" standalone="no"?>
<!DOCTYPE svg PUBLIC "-//W3C//DTD SVG 1.1//EN"
 "http://www.w3.org/Graphics/SVG/1.1/DTD/svg11.dtd">
<!-- Generated by graphviz version 2.43.0 (0)
 -->
<!-- Title: /home/kali/projects/vsomeip/implementation/plugin/src Pages: 1 -->
<svg width="326pt" height="167pt"
 viewBox="0.00 0.00 326.00 167.00" xmlns="http://www.w3.org/2000/svg" xmlns:xlink="http://www.w3.org/1999/xlink">
<g id="graph0" class="graph" transform="scale(1 1) rotate(0) translate(4 163)">
<title>/home/kali/projects/vsomeip/implementation/plugin/src</title>
<polygon fill="white" stroke="transparent" points="-4,4 -4,-163 322,-163 322,4 -4,4"/>
<g id="clust1" class="cluster">
<title>clusterdir_f132f3c082319ace6827058f7d1d886d</title>
<g id="a_clust1"><a xlink:href="dir_f132f3c082319ace6827058f7d1d886d.html" target="_top" xlink:title="plugin">
<polygon fill="#edf0f7" stroke="#7f7f7f" stroke-dasharray="5,2" points="8,-8 8,-151 78,-151 78,-8 8,-8"/>
<text text-anchor="middle" x="43" y="-139" font-family="Helvetica,sans-Serif" font-size="10.00">plugin</text>
</a>
</g>
</g>
<!-- dir_6934c5d6106915e4b5f85649d83ca745 -->
<g id="node1" class="node">
<title>dir_6934c5d6106915e4b5f85649d83ca745</title>
<g id="a_node1"><a xlink:href="dir_6934c5d6106915e4b5f85649d83ca745.html" target="_top" xlink:title="include">
<polygon fill="#a2b4d6" stroke="#404040" points="70,-52 16,-52 16,-16 70,-16 70,-52"/>
<text text-anchor="middle" x="43" y="-31.5" font-family="Helvetica,sans-Serif" font-size="10.00">include</text>
</a>
</g>
</g>
<!-- dir_c39954b8d6a494a0104c2c88eccb2a6d -->
<g id="node2" class="node">
<title>dir_c39954b8d6a494a0104c2c88eccb2a6d</title>
<g id="a_node2"><a xlink:href="dir_c39954b8d6a494a0104c2c88eccb2a6d.html" target="_top" xlink:title="src">
<polygon fill="#edf0f7" stroke="#404040" stroke-width="2" points="70,-124 16,-124 16,-88 70,-88 70,-124"/>
<text text-anchor="middle" x="43" y="-103.5" font-family="Helvetica,sans-Serif" font-size="10.00">src</text>
</a>
</g>
</g>
<!-- dir_c39954b8d6a494a0104c2c88eccb2a6d&#45;&gt;dir_6934c5d6106915e4b5f85649d83ca745 -->
<g id="edge2" class="edge">
<title>dir_c39954b8d6a494a0104c2c88eccb2a6d&#45;&gt;dir_6934c5d6106915e4b5f85649d83ca745</title>
<path fill="none" stroke="black" d="M43,-87.7C43,-79.98 43,-70.71 43,-62.11"/>
<polygon fill="black" stroke="black" points="46.5,-62.1 43,-52.1 39.5,-62.1 46.5,-62.1"/>
<g id="a_edge2&#45;headlabel"><a xlink:href="dir_000094_000047.html" target="_top" xlink:title="2">
<text text-anchor="middle" x="49.34" y="-63.2" font-family="Helvetica,sans-Serif" font-size="10.00">2</text>
</a>
</g>
</g>
<!-- dir_56126a1d848d4a1832817232e79a5a18 -->
<g id="node3" class="node">
<title>dir_56126a1d848d4a1832817232e79a5a18</title>
<g id="a_node3"><a xlink:href="dir_56126a1d848d4a1832817232e79a5a18.html" target="_top" xlink:title="configuration">
<polygon fill="none" stroke="red" stroke-dasharray="5,2" points="168,-52 88,-52 88,-16 168,-16 168,-52"/>
<text text-anchor="middle" x="128" y="-31.5" font-family="Helvetica,sans-Serif" font-size="10.00">configuration</text>
</a>
</g>
</g>
<!-- dir_c39954b8d6a494a0104c2c88eccb2a6d&#45;&gt;dir_56126a1d848d4a1832817232e79a5a18 -->
<g id="edge1" class="edge">
<title>dir_c39954b8d6a494a0104c2c88eccb2a6d&#45;&gt;dir_56126a1d848d4a1832817232e79a5a18</title>
<path fill="none" stroke="black" d="M64.01,-87.7C74.72,-78.88 87.89,-68.03 99.5,-58.47"/>
<polygon fill="black" stroke="black" points="101.74,-61.16 107.23,-52.1 97.29,-55.76 101.74,-61.16"/>
<g id="a_edge1&#45;headlabel"><a xlink:href="dir_000094_000019.html" target="_top" xlink:title="1">
<text text-anchor="middle" x="100.77" y="-63.14" font-family="Helvetica,sans-Serif" font-size="10.00">1</text>
</a>
</g>
</g>
<!-- dir_6972051101bc5f8d68d31d49f06d7aaf -->
<g id="node4" class="node">
<title>dir_6972051101bc5f8d68d31d49f06d7aaf</title>
<g id="a_node4"><a xlink:href="dir_6972051101bc5f8d68d31d49f06d7aaf.html" target="_top" xlink:title="utility">
<polygon fill="none" stroke="red" stroke-dasharray="5,2" points="240,-52 186,-52 186,-16 240,-16 240,-52"/>
<text text-anchor="middle" x="213" y="-31.5" font-family="Helvetica,sans-Serif" font-size="10.00">utility</text>
</a>
</g>
</g>
<!-- dir_c39954b8d6a494a0104c2c88eccb2a6d&#45;&gt;dir_6972051101bc5f8d68d31d49f06d7aaf -->
<g id="edge3" class="edge">
<title>dir_c39954b8d6a494a0104c2c88eccb2a6d&#45;&gt;dir_6972051101bc5f8d68d31d49f06d7aaf</title>
<path fill="none" stroke="black" d="M70.16,-94.85C95.52,-85.24 134.58,-70.12 176.65,-52.03"/>
<polygon fill="black" stroke="black" points="178.17,-55.18 185.96,-48 175.39,-48.76 178.17,-55.18"/>
<g id="a_edge3&#45;headlabel"><a xlink:href="dir_000094_000102.html" target="_top" xlink:title="1">
<text text-anchor="middle" x="176" y="-56.72" font-family="Helvetica,sans-Serif" font-size="10.00">1</text>
</a>
</g>
</g>
<!-- dir_b31d54d5631803016a26f28213a41162 -->
<g id="node5" class="node">
<title>dir_b31d54d5631803016a26f28213a41162</title>
<g id="a_node5"><a xlink:href="dir_b31d54d5631803016a26f28213a41162.html" target="_top" xlink:title="interface">
<polygon fill="none" stroke="red" points="318,-52 258,-52 258,-16 318,-16 318,-52"/>
<text text-anchor="middle" x="288" y="-31.5" font-family="Helvetica,sans-Serif" font-size="10.00">interface</text>
</a>
</g>
</g>
<!-- dir_c39954b8d6a494a0104c2c88eccb2a6d&#45;&gt;dir_b31d54d5631803016a26f28213a41162 -->
<g id="edge4" class="edge">
<title>dir_c39954b8d6a494a0104c2c88eccb2a6d&#45;&gt;dir_b31d54d5631803016a26f28213a41162</title>
<path fill="none" stroke="black" d="M70.07,-99.48C108.05,-91.42 179.36,-75.18 248.25,-51.98"/>
<polygon fill="black" stroke="black" points="249.63,-55.21 257.95,-48.66 247.36,-48.59 249.63,-55.21"/>
<g id="a_edge4&#45;headlabel"><a xlink:href="dir_000094_000054.html" target="_top" xlink:title="1">
<text text-anchor="middle" x="247.14" y="-56.56" font-family="Helvetica,sans-Serif" font-size="10.00">1</text>
</a>
</g>
</g>
</g>
</svg>
