<?xml version="1.0" encoding="UTF-8" standalone="no"?>
<!DOCTYPE svg PUBLIC "-//W3C//DTD SVG 1.1//EN"
 "http://www.w3.org/Graphics/SVG/1.1/DTD/svg11.dtd">
<!-- Generated by graphviz version 2.43.0 (0)
 -->
<!-- Title: /home/kali/projects/vsomeip/implementation/compat/message Pages: 1 -->
<svg width="350pt" height="231pt"
 viewBox="0.00 0.00 350.00 231.00" xmlns="http://www.w3.org/2000/svg" xmlns:xlink="http://www.w3.org/1999/xlink">
<g id="graph0" class="graph" transform="scale(1 1) rotate(0) translate(4 227)">
<title>/home/kali/projects/vsomeip/implementation/compat/message</title>
<polygon fill="white" stroke="transparent" points="-4,4 -4,-227 346,-227 346,4 -4,4"/>
<g id="clust1" class="cluster">
<title>clusterdir_2c8ea7a53eee326c363d0456e064cb96</title>
<g id="a_clust1"><a xlink:href="dir_2c8ea7a53eee326c363d0456e064cb96.html" target="_top" xlink:title="compat">
<polygon fill="#edf0f7" stroke="#7f7f7f" stroke-dasharray="5,2" points="8,-56 8,-215 174,-215 174,-56 8,-56"/>
<text text-anchor="middle" x="91" y="-203" font-family="Helvetica,sans-Serif" font-size="10.00">compat</text>
</a>
</g>
</g>
<g id="clust2" class="cluster">
<title>clusterdir_25d20213550c54e1074ad9cd78db84af</title>
<g id="a_clust2"><a xlink:href="dir_25d20213550c54e1074ad9cd78db84af.html" target="_top">
<polygon fill="#edf0f7" stroke="#404040" stroke-width="2" points="16,-64 16,-188 166,-188 166,-64 16,-64"/>
</a>
</g>
</g>
<!-- dir_25d20213550c54e1074ad9cd78db84af -->
<g id="node1" class="node">
<title>dir_25d20213550c54e1074ad9cd78db84af</title>
<text text-anchor="middle" x="127" y="-159.5" font-family="Helvetica,sans-Serif" font-size="10.00">message</text>
</g>
<!-- dir_1e3e28526c45d59d0708447f2d8b0732 -->
<g id="node2" class="node">
<title>dir_1e3e28526c45d59d0708447f2d8b0732</title>
<g id="a_node2"><a xlink:href="dir_1e3e28526c45d59d0708447f2d8b0732.html" target="_top" xlink:title="include">
<polygon fill="#a2b4d6" stroke="#404040" points="78,-108 24,-108 24,-72 78,-72 78,-108"/>
<text text-anchor="middle" x="51" y="-87.5" font-family="Helvetica,sans-Serif" font-size="10.00">include</text>
</a>
</g>
</g>
<!-- dir_b31d54d5631803016a26f28213a41162 -->
<g id="node4" class="node">
<title>dir_b31d54d5631803016a26f28213a41162</title>
<g id="a_node4"><a xlink:href="dir_b31d54d5631803016a26f28213a41162.html" target="_top" xlink:title="interface">
<polygon fill="none" stroke="red" points="108,-36 48,-36 48,0 108,0 108,-36"/>
<text text-anchor="middle" x="78" y="-15.5" font-family="Helvetica,sans-Serif" font-size="10.00">interface</text>
</a>
</g>
</g>
<!-- dir_1e3e28526c45d59d0708447f2d8b0732&#45;&gt;dir_b31d54d5631803016a26f28213a41162 -->
<g id="edge1" class="edge">
<title>dir_1e3e28526c45d59d0708447f2d8b0732&#45;&gt;dir_b31d54d5631803016a26f28213a41162</title>
<path fill="none" stroke="black" d="M57.67,-71.7C60.71,-63.81 64.38,-54.3 67.76,-45.55"/>
<polygon fill="black" stroke="black" points="71.07,-46.69 71.4,-36.1 64.54,-44.17 71.07,-46.69"/>
<g id="a_edge1&#45;headlabel"><a xlink:href="dir_000040_000054.html" target="_top" xlink:title="4">
<text text-anchor="middle" x="72.42" y="-48.57" font-family="Helvetica,sans-Serif" font-size="10.00">4</text>
</a>
</g>
</g>
<!-- dir_8ed1fcc0951a626d632bb57b8cd116e3 -->
<g id="node3" class="node">
<title>dir_8ed1fcc0951a626d632bb57b8cd116e3</title>
<g id="a_node3"><a xlink:href="dir_8ed1fcc0951a626d632bb57b8cd116e3.html" target="_top" xlink:title="src">
<polygon fill="#a2b4d6" stroke="#404040" points="78,-180 24,-180 24,-144 78,-144 78,-180"/>
<text text-anchor="middle" x="51" y="-159.5" font-family="Helvetica,sans-Serif" font-size="10.00">src</text>
</a>
</g>
</g>
<!-- dir_8ed1fcc0951a626d632bb57b8cd116e3&#45;&gt;dir_1e3e28526c45d59d0708447f2d8b0732 -->
<g id="edge2" class="edge">
<title>dir_8ed1fcc0951a626d632bb57b8cd116e3&#45;&gt;dir_1e3e28526c45d59d0708447f2d8b0732</title>
<path fill="none" stroke="black" d="M51,-143.7C51,-135.98 51,-126.71 51,-118.11"/>
<polygon fill="black" stroke="black" points="54.5,-118.1 51,-108.1 47.5,-118.1 54.5,-118.1"/>
<g id="a_edge2&#45;headlabel"><a xlink:href="dir_000087_000040.html" target="_top" xlink:title="4">
<text text-anchor="middle" x="57.34" y="-119.2" font-family="Helvetica,sans-Serif" font-size="10.00">4</text>
</a>
</g>
</g>
<!-- dir_8ed1fcc0951a626d632bb57b8cd116e3&#45;&gt;dir_b31d54d5631803016a26f28213a41162 -->
<g id="edge5" class="edge">
<title>dir_8ed1fcc0951a626d632bb57b8cd116e3&#45;&gt;dir_b31d54d5631803016a26f28213a41162</title>
<path fill="none" stroke="black" d="M66.61,-143.77C74.37,-134.03 82.95,-121.18 87,-108 93.22,-87.77 90.27,-63.87 86.15,-45.92"/>
<polygon fill="black" stroke="black" points="89.51,-44.95 83.65,-36.12 82.73,-46.68 89.51,-44.95"/>
<g id="a_edge5&#45;headlabel"><a xlink:href="dir_000087_000054.html" target="_top" xlink:title="2">
<text text-anchor="middle" x="93.15" y="-45.23" font-family="Helvetica,sans-Serif" font-size="10.00">2</text>
</a>
</g>
</g>
<!-- dir_3ce07147fcbac31fc4d5892a851f6627 -->
<g id="node5" class="node">
<title>dir_3ce07147fcbac31fc4d5892a851f6627</title>
<g id="a_node5"><a xlink:href="dir_3ce07147fcbac31fc4d5892a851f6627.html" target="_top" xlink:title="message">
<polygon fill="none" stroke="red" stroke-dasharray="5,2" points="243.5,-108 182.5,-108 182.5,-72 243.5,-72 243.5,-108"/>
<text text-anchor="middle" x="213" y="-87.5" font-family="Helvetica,sans-Serif" font-size="10.00">message</text>
</a>
</g>
</g>
<!-- dir_8ed1fcc0951a626d632bb57b8cd116e3&#45;&gt;dir_3ce07147fcbac31fc4d5892a851f6627 -->
<g id="edge3" class="edge">
<title>dir_8ed1fcc0951a626d632bb57b8cd116e3&#45;&gt;dir_3ce07147fcbac31fc4d5892a851f6627</title>
<path fill="none" stroke="black" d="M78.04,-148.47C81.38,-146.95 84.77,-145.43 88,-144 116.27,-131.52 148.36,-117.92 172.96,-107.62"/>
<polygon fill="black" stroke="black" points="174.45,-110.79 182.33,-103.71 171.75,-104.33 174.45,-110.79"/>
<g id="a_edge3&#45;headlabel"><a xlink:href="dir_000087_000069.html" target="_top" xlink:title="2">
<text text-anchor="middle" x="172.23" y="-112.3" font-family="Helvetica,sans-Serif" font-size="10.00">2</text>
</a>
</g>
</g>
<!-- dir_56126a1d848d4a1832817232e79a5a18 -->
<g id="node6" class="node">
<title>dir_56126a1d848d4a1832817232e79a5a18</title>
<g id="a_node6"><a xlink:href="dir_56126a1d848d4a1832817232e79a5a18.html" target="_top" xlink:title="configuration">
<polygon fill="none" stroke="red" stroke-dasharray="5,2" points="342,-108 262,-108 262,-72 342,-72 342,-108"/>
<text text-anchor="middle" x="302" y="-87.5" font-family="Helvetica,sans-Serif" font-size="10.00">configuration</text>
</a>
</g>
</g>
<!-- dir_8ed1fcc0951a626d632bb57b8cd116e3&#45;&gt;dir_56126a1d848d4a1832817232e79a5a18 -->
<g id="edge4" class="edge">
<title>dir_8ed1fcc0951a626d632bb57b8cd116e3&#45;&gt;dir_56126a1d848d4a1832817232e79a5a18</title>
<path fill="none" stroke="black" d="M78.21,-147.7C81.47,-146.35 84.78,-145.08 88,-144 156.26,-121.17 178.9,-127.72 252.07,-108.06"/>
<polygon fill="black" stroke="black" points="253.04,-111.43 261.74,-105.39 251.17,-104.68 253.04,-111.43"/>
<g id="a_edge4&#45;headlabel"><a xlink:href="dir_000087_000019.html" target="_top" xlink:title="2">
<text text-anchor="middle" x="250.33" y="-112.62" font-family="Helvetica,sans-Serif" font-size="10.00">2</text>
</a>
</g>
</g>
</g>
</svg>
