<?xml version="1.0" encoding="UTF-8" standalone="no"?>
<!DOCTYPE svg PUBLIC "-//W3C//DTD SVG 1.1//EN"
 "http://www.w3.org/Graphics/SVG/1.1/DTD/svg11.dtd">
<!-- Generated by graphviz version 2.43.0 (0)
 -->
<!-- Title: /home/kali/projects/vsomeip/implementation/routing/include Pages: 1 -->
<svg width="374pt" height="151pt"
 viewBox="0.00 0.00 373.50 151.00" xmlns="http://www.w3.org/2000/svg" xmlns:xlink="http://www.w3.org/1999/xlink">
<g id="graph0" class="graph" transform="scale(1 1) rotate(0) translate(4 147)">
<title>/home/kali/projects/vsomeip/implementation/routing/include</title>
<polygon fill="white" stroke="transparent" points="-4,4 -4,-147 369.5,-147 369.5,4 -4,4"/>
<g id="clust1" class="cluster">
<title>clusterdir_cf72682d9b1c0bc1c562a1f19b8defa0</title>
<g id="a_clust1"><a xlink:href="dir_cf72682d9b1c0bc1c562a1f19b8defa0.html" target="_top" xlink:title="routing">
<polygon fill="#edf0f7" stroke="#7f7f7f" stroke-dasharray="5,2" points="162,-64 162,-135 232,-135 232,-64 162,-64"/>
<text text-anchor="middle" x="197" y="-123" font-family="Helvetica,sans-Serif" font-size="10.00">routing</text>
</a>
</g>
</g>
<!-- dir_3bfeaedfdd72f75729bfd36e2baddd74 -->
<g id="node1" class="node">
<title>dir_3bfeaedfdd72f75729bfd36e2baddd74</title>
<g id="a_node1"><a xlink:href="dir_3bfeaedfdd72f75729bfd36e2baddd74.html" target="_top" xlink:title="include">
<polygon fill="#edf0f7" stroke="#404040" stroke-width="2" points="224,-108 170,-108 170,-72 224,-72 224,-108"/>
<text text-anchor="middle" x="197" y="-87.5" font-family="Helvetica,sans-Serif" font-size="10.00">include</text>
</a>
</g>
</g>
<!-- dir_061a1b0a0a40a7427f2461ed2f520013 -->
<g id="node2" class="node">
<title>dir_061a1b0a0a40a7427f2461ed2f520013</title>
<g id="a_node2"><a xlink:href="dir_061a1b0a0a40a7427f2461ed2f520013.html" target="_top" xlink:title="service_discovery">
<polygon fill="none" stroke="red" stroke-dasharray="5,2" points="104,-36 0,-36 0,0 104,0 104,-36"/>
<text text-anchor="middle" x="52" y="-15.5" font-family="Helvetica,sans-Serif" font-size="10.00">service_discovery</text>
</a>
</g>
</g>
<!-- dir_3bfeaedfdd72f75729bfd36e2baddd74&#45;&gt;dir_061a1b0a0a40a7427f2461ed2f520013 -->
<g id="edge1" class="edge">
<title>dir_3bfeaedfdd72f75729bfd36e2baddd74&#45;&gt;dir_061a1b0a0a40a7427f2461ed2f520013</title>
<path fill="none" stroke="black" d="M169.73,-75.83C149.16,-65.9 120.5,-52.07 96.62,-40.54"/>
<polygon fill="black" stroke="black" points="97.91,-37.28 87.38,-36.08 94.87,-43.58 97.91,-37.28"/>
<g id="a_edge1&#45;headlabel"><a xlink:href="dir_000048_000086.html" target="_top" xlink:title="1">
<text text-anchor="middle" x="102.38" y="-33.78" font-family="Helvetica,sans-Serif" font-size="10.00">1</text>
</a>
</g>
</g>
<!-- dir_3ce07147fcbac31fc4d5892a851f6627 -->
<g id="node3" class="node">
<title>dir_3ce07147fcbac31fc4d5892a851f6627</title>
<g id="a_node3"><a xlink:href="dir_3ce07147fcbac31fc4d5892a851f6627.html" target="_top" xlink:title="message">
<polygon fill="none" stroke="red" stroke-dasharray="5,2" points="183.5,-36 122.5,-36 122.5,0 183.5,0 183.5,-36"/>
<text text-anchor="middle" x="153" y="-15.5" font-family="Helvetica,sans-Serif" font-size="10.00">message</text>
</a>
</g>
</g>
<!-- dir_3bfeaedfdd72f75729bfd36e2baddd74&#45;&gt;dir_3ce07147fcbac31fc4d5892a851f6627 -->
<g id="edge2" class="edge">
<title>dir_3bfeaedfdd72f75729bfd36e2baddd74&#45;&gt;dir_3ce07147fcbac31fc4d5892a851f6627</title>
<path fill="none" stroke="black" d="M186.12,-71.7C181.01,-63.56 174.8,-53.69 169.16,-44.7"/>
<polygon fill="black" stroke="black" points="172.04,-42.71 163.75,-36.1 166.11,-46.43 172.04,-42.71"/>
<g id="a_edge2&#45;headlabel"><a xlink:href="dir_000048_000069.html" target="_top" xlink:title="2">
<text text-anchor="middle" x="176.35" y="-41.74" font-family="Helvetica,sans-Serif" font-size="10.00">2</text>
</a>
</g>
</g>
<!-- dir_56126a1d848d4a1832817232e79a5a18 -->
<g id="node4" class="node">
<title>dir_56126a1d848d4a1832817232e79a5a18</title>
<g id="a_node4"><a xlink:href="dir_56126a1d848d4a1832817232e79a5a18.html" target="_top" xlink:title="configuration">
<polygon fill="none" stroke="red" stroke-dasharray="5,2" points="282,-36 202,-36 202,0 282,0 282,-36"/>
<text text-anchor="middle" x="242" y="-15.5" font-family="Helvetica,sans-Serif" font-size="10.00">configuration</text>
</a>
</g>
</g>
<!-- dir_3bfeaedfdd72f75729bfd36e2baddd74&#45;&gt;dir_56126a1d848d4a1832817232e79a5a18 -->
<g id="edge3" class="edge">
<title>dir_3bfeaedfdd72f75729bfd36e2baddd74&#45;&gt;dir_56126a1d848d4a1832817232e79a5a18</title>
<path fill="none" stroke="black" d="M208.12,-71.7C213.36,-63.56 219.7,-53.69 225.48,-44.7"/>
<polygon fill="black" stroke="black" points="228.54,-46.41 231,-36.1 222.65,-42.62 228.54,-46.41"/>
<g id="a_edge3&#45;headlabel"><a xlink:href="dir_000048_000019.html" target="_top" xlink:title="3">
<text text-anchor="middle" x="228.99" y="-48.47" font-family="Helvetica,sans-Serif" font-size="10.00">3</text>
</a>
</g>
</g>
<!-- dir_9c7b9d609ec855ab7fbf064b0ccf8e4e -->
<g id="node5" class="node">
<title>dir_9c7b9d609ec855ab7fbf064b0ccf8e4e</title>
<g id="a_node5"><a xlink:href="dir_9c7b9d609ec855ab7fbf064b0ccf8e4e.html" target="_top" xlink:title="endpoints">
<polygon fill="none" stroke="red" stroke-dasharray="5,2" points="365.5,-36 300.5,-36 300.5,0 365.5,0 365.5,-36"/>
<text text-anchor="middle" x="333" y="-15.5" font-family="Helvetica,sans-Serif" font-size="10.00">endpoints</text>
</a>
</g>
</g>
<!-- dir_3bfeaedfdd72f75729bfd36e2baddd74&#45;&gt;dir_9c7b9d609ec855ab7fbf064b0ccf8e4e -->
<g id="edge4" class="edge">
<title>dir_3bfeaedfdd72f75729bfd36e2baddd74&#45;&gt;dir_9c7b9d609ec855ab7fbf064b0ccf8e4e</title>
<path fill="none" stroke="black" d="M224.19,-75C243.32,-65.16 269.28,-51.79 291.05,-40.59"/>
<polygon fill="black" stroke="black" points="292.8,-43.63 300.09,-35.94 289.6,-37.4 292.8,-43.63"/>
<g id="a_edge4&#45;headlabel"><a xlink:href="dir_000048_000032.html" target="_top" xlink:title="5">
<text text-anchor="middle" x="290.9" y="-45.3" font-family="Helvetica,sans-Serif" font-size="10.00">5</text>
</a>
</g>
</g>
</g>
</svg>
