<?xml version="1.0" encoding="UTF-8" standalone="no"?>
<!DOCTYPE svg PUBLIC "-//W3C//DTD SVG 1.1//EN"
 "http://www.w3.org/Graphics/SVG/1.1/DTD/svg11.dtd">
<!-- Generated by graphviz version 2.43.0 (0)
 -->
<!-- Title: /home/kali/projects/vsomeip/implementation/configuration/src Pages: 1 -->
<svg width="648pt" height="167pt"
 viewBox="0.00 0.00 648.00 167.00" xmlns="http://www.w3.org/2000/svg" xmlns:xlink="http://www.w3.org/1999/xlink">
<g id="graph0" class="graph" transform="scale(1 1) rotate(0) translate(4 163)">
<title>/home/kali/projects/vsomeip/implementation/configuration/src</title>
<polygon fill="white" stroke="transparent" points="-4,4 -4,-163 644,-163 644,4 -4,4"/>
<g id="clust1" class="cluster">
<title>clusterdir_56126a1d848d4a1832817232e79a5a18</title>
<g id="a_clust1"><a xlink:href="dir_56126a1d848d4a1832817232e79a5a18.html" target="_top" xlink:title="configuration">
<polygon fill="#edf0f7" stroke="#7f7f7f" stroke-dasharray="5,2" points="8,-8 8,-151 88,-151 88,-8 8,-8"/>
<text text-anchor="middle" x="48" y="-139" font-family="Helvetica,sans-Serif" font-size="10.00">configuration</text>
</a>
</g>
</g>
<!-- dir_dca01e643b0ec4b7c70c70c593767eaa -->
<g id="node1" class="node">
<title>dir_dca01e643b0ec4b7c70c70c593767eaa</title>
<g id="a_node1"><a xlink:href="dir_dca01e643b0ec4b7c70c70c593767eaa.html" target="_top" xlink:title="include">
<polygon fill="#a2b4d6" stroke="#404040" points="78,-52 24,-52 24,-16 78,-16 78,-52"/>
<text text-anchor="middle" x="51" y="-31.5" font-family="Helvetica,sans-Serif" font-size="10.00">include</text>
</a>
</g>
</g>
<!-- dir_2358b23896e7c9ac9fc7fa42dba11fd1 -->
<g id="node2" class="node">
<title>dir_2358b23896e7c9ac9fc7fa42dba11fd1</title>
<g id="a_node2"><a xlink:href="dir_2358b23896e7c9ac9fc7fa42dba11fd1.html" target="_top" xlink:title="src">
<polygon fill="#edf0f7" stroke="#404040" stroke-width="2" points="80,-124 26,-124 26,-88 80,-88 80,-124"/>
<text text-anchor="middle" x="53" y="-103.5" font-family="Helvetica,sans-Serif" font-size="10.00">src</text>
</a>
</g>
</g>
<!-- dir_2358b23896e7c9ac9fc7fa42dba11fd1&#45;&gt;dir_dca01e643b0ec4b7c70c70c593767eaa -->
<g id="edge7" class="edge">
<title>dir_2358b23896e7c9ac9fc7fa42dba11fd1&#45;&gt;dir_dca01e643b0ec4b7c70c70c593767eaa</title>
<path fill="none" stroke="black" d="M52.51,-87.7C52.29,-79.98 52.02,-70.71 51.77,-62.11"/>
<polygon fill="black" stroke="black" points="55.27,-62 51.49,-52.1 48.28,-62.2 55.27,-62"/>
<g id="a_edge7&#45;headlabel"><a xlink:href="dir_000089_000042.html" target="_top" xlink:title="7">
<text text-anchor="middle" x="58.21" y="-63.01" font-family="Helvetica,sans-Serif" font-size="10.00">7</text>
</a>
</g>
</g>
<!-- dir_061a1b0a0a40a7427f2461ed2f520013 -->
<g id="node3" class="node">
<title>dir_061a1b0a0a40a7427f2461ed2f520013</title>
<g id="a_node3"><a xlink:href="dir_061a1b0a0a40a7427f2461ed2f520013.html" target="_top" xlink:title="service_discovery">
<polygon fill="none" stroke="red" stroke-dasharray="5,2" points="200,-52 96,-52 96,-16 200,-16 200,-52"/>
<text text-anchor="middle" x="148" y="-31.5" font-family="Helvetica,sans-Serif" font-size="10.00">service_discovery</text>
</a>
</g>
</g>
<!-- dir_2358b23896e7c9ac9fc7fa42dba11fd1&#45;&gt;dir_061a1b0a0a40a7427f2461ed2f520013 -->
<g id="edge1" class="edge">
<title>dir_2358b23896e7c9ac9fc7fa42dba11fd1&#45;&gt;dir_061a1b0a0a40a7427f2461ed2f520013</title>
<path fill="none" stroke="black" d="M76.48,-87.7C88.56,-78.8 103.45,-67.82 116.52,-58.2"/>
<polygon fill="black" stroke="black" points="118.81,-60.85 124.79,-52.1 114.66,-55.22 118.81,-60.85"/>
<g id="a_edge1&#45;headlabel"><a xlink:href="dir_000089_000086.html" target="_top" xlink:title="1">
<text text-anchor="middle" x="117.6" y="-62.77" font-family="Helvetica,sans-Serif" font-size="10.00">1</text>
</a>
</g>
</g>
<!-- dir_6972051101bc5f8d68d31d49f06d7aaf -->
<g id="node4" class="node">
<title>dir_6972051101bc5f8d68d31d49f06d7aaf</title>
<g id="a_node4"><a xlink:href="dir_6972051101bc5f8d68d31d49f06d7aaf.html" target="_top" xlink:title="utility">
<polygon fill="none" stroke="red" stroke-dasharray="5,2" points="272,-52 218,-52 218,-16 272,-16 272,-52"/>
<text text-anchor="middle" x="245" y="-31.5" font-family="Helvetica,sans-Serif" font-size="10.00">utility</text>
</a>
</g>
</g>
<!-- dir_2358b23896e7c9ac9fc7fa42dba11fd1&#45;&gt;dir_6972051101bc5f8d68d31d49f06d7aaf -->
<g id="edge2" class="edge">
<title>dir_2358b23896e7c9ac9fc7fa42dba11fd1&#45;&gt;dir_6972051101bc5f8d68d31d49f06d7aaf</title>
<path fill="none" stroke="black" d="M80.12,-96.82C109.67,-87.68 158.44,-71.95 208.31,-52.08"/>
<polygon fill="black" stroke="black" points="209.66,-55.31 217.63,-48.32 207.04,-48.81 209.66,-55.31"/>
<g id="a_edge2&#45;headlabel"><a xlink:href="dir_000089_000102.html" target="_top" xlink:title="1">
<text text-anchor="middle" x="207.39" y="-56.78" font-family="Helvetica,sans-Serif" font-size="10.00">1</text>
</a>
</g>
</g>
<!-- dir_96312f6272b562b103a6f862042db4a4 -->
<g id="node5" class="node">
<title>dir_96312f6272b562b103a6f862042db4a4</title>
<g id="a_node5"><a xlink:href="dir_96312f6272b562b103a6f862042db4a4.html" target="_top" xlink:title="security">
<polygon fill="none" stroke="red" stroke-dasharray="5,2" points="346,-52 290,-52 290,-16 346,-16 346,-52"/>
<text text-anchor="middle" x="318" y="-31.5" font-family="Helvetica,sans-Serif" font-size="10.00">security</text>
</a>
</g>
</g>
<!-- dir_2358b23896e7c9ac9fc7fa42dba11fd1&#45;&gt;dir_96312f6272b562b103a6f862042db4a4 -->
<g id="edge3" class="edge">
<title>dir_2358b23896e7c9ac9fc7fa42dba11fd1&#45;&gt;dir_96312f6272b562b103a6f862042db4a4</title>
<path fill="none" stroke="black" d="M80.17,-100.52C121.64,-93.3 203.2,-77.56 280.12,-51.94"/>
<polygon fill="black" stroke="black" points="281.62,-55.13 289.96,-48.6 279.36,-48.5 281.62,-55.13"/>
<g id="a_edge3&#45;headlabel"><a xlink:href="dir_000089_000085.html" target="_top" xlink:title="1">
<text text-anchor="middle" x="279.12" y="-56.47" font-family="Helvetica,sans-Serif" font-size="10.00">1</text>
</a>
</g>
</g>
<!-- dir_a341cf5cf1894ba060679bdee57be3d6 -->
<g id="node6" class="node">
<title>dir_a341cf5cf1894ba060679bdee57be3d6</title>
<g id="a_node6"><a xlink:href="dir_a341cf5cf1894ba060679bdee57be3d6.html" target="_top" xlink:title="logger">
<polygon fill="none" stroke="red" stroke-dasharray="5,2" points="418,-52 364,-52 364,-16 418,-16 418,-52"/>
<text text-anchor="middle" x="391" y="-31.5" font-family="Helvetica,sans-Serif" font-size="10.00">logger</text>
</a>
</g>
</g>
<!-- dir_2358b23896e7c9ac9fc7fa42dba11fd1&#45;&gt;dir_a341cf5cf1894ba060679bdee57be3d6 -->
<g id="edge4" class="edge">
<title>dir_2358b23896e7c9ac9fc7fa42dba11fd1&#45;&gt;dir_a341cf5cf1894ba060679bdee57be3d6</title>
<path fill="none" stroke="black" d="M80.24,-102.68C132.27,-97.73 249.21,-84.11 354.01,-51.85"/>
<polygon fill="black" stroke="black" points="355.3,-55.11 363.79,-48.77 353.2,-48.44 355.3,-55.11"/>
<g id="a_edge4&#45;headlabel"><a xlink:href="dir_000089_000067.html" target="_top" xlink:title="1">
<text text-anchor="middle" x="352.72" y="-56.4" font-family="Helvetica,sans-Serif" font-size="10.00">1</text>
</a>
</g>
</g>
<!-- dir_b31d54d5631803016a26f28213a41162 -->
<g id="node7" class="node">
<title>dir_b31d54d5631803016a26f28213a41162</title>
<g id="a_node7"><a xlink:href="dir_b31d54d5631803016a26f28213a41162.html" target="_top" xlink:title="interface">
<polygon fill="none" stroke="red" points="496,-52 436,-52 436,-16 496,-16 496,-52"/>
<text text-anchor="middle" x="466" y="-31.5" font-family="Helvetica,sans-Serif" font-size="10.00">interface</text>
</a>
</g>
</g>
<!-- dir_2358b23896e7c9ac9fc7fa42dba11fd1&#45;&gt;dir_b31d54d5631803016a26f28213a41162 -->
<g id="edge5" class="edge">
<title>dir_2358b23896e7c9ac9fc7fa42dba11fd1&#45;&gt;dir_b31d54d5631803016a26f28213a41162</title>
<path fill="none" stroke="black" d="M80.27,-103.66C141.21,-100.13 292.84,-88.41 425.69,-51.95"/>
<polygon fill="black" stroke="black" points="426.95,-55.23 435.63,-49.17 425.06,-48.49 426.95,-55.23"/>
<g id="a_edge5&#45;headlabel"><a xlink:href="dir_000089_000054.html" target="_top" xlink:title="2">
<text text-anchor="middle" x="424.25" y="-56.44" font-family="Helvetica,sans-Serif" font-size="10.00">2</text>
</a>
</g>
</g>
<!-- dir_cf72682d9b1c0bc1c562a1f19b8defa0 -->
<g id="node8" class="node">
<title>dir_cf72682d9b1c0bc1c562a1f19b8defa0</title>
<g id="a_node8"><a xlink:href="dir_cf72682d9b1c0bc1c562a1f19b8defa0.html" target="_top" xlink:title="routing">
<polygon fill="none" stroke="red" stroke-dasharray="5,2" points="568,-52 514,-52 514,-16 568,-16 568,-52"/>
<text text-anchor="middle" x="541" y="-31.5" font-family="Helvetica,sans-Serif" font-size="10.00">routing</text>
</a>
</g>
</g>
<!-- dir_2358b23896e7c9ac9fc7fa42dba11fd1&#45;&gt;dir_cf72682d9b1c0bc1c562a1f19b8defa0 -->
<g id="edge6" class="edge">
<title>dir_2358b23896e7c9ac9fc7fa42dba11fd1&#45;&gt;dir_cf72682d9b1c0bc1c562a1f19b8defa0</title>
<path fill="none" stroke="black" d="M80.09,-104.85C149.81,-103.84 340.87,-97.09 504.12,-51.7"/>
<polygon fill="black" stroke="black" points="505.18,-55.04 513.84,-48.94 503.26,-48.31 505.18,-55.04"/>
<g id="a_edge6&#45;headlabel"><a xlink:href="dir_000089_000082.html" target="_top" xlink:title="1">
<text text-anchor="middle" x="502.49" y="-56.25" font-family="Helvetica,sans-Serif" font-size="10.00">1</text>
</a>
</g>
</g>
<!-- dir_f132f3c082319ace6827058f7d1d886d -->
<g id="node9" class="node">
<title>dir_f132f3c082319ace6827058f7d1d886d</title>
<g id="a_node9"><a xlink:href="dir_f132f3c082319ace6827058f7d1d886d.html" target="_top" xlink:title="plugin">
<polygon fill="none" stroke="red" stroke-dasharray="5,2" points="640,-52 586,-52 586,-16 640,-16 640,-52"/>
<text text-anchor="middle" x="613" y="-31.5" font-family="Helvetica,sans-Serif" font-size="10.00">plugin</text>
</a>
</g>
</g>
<!-- dir_2358b23896e7c9ac9fc7fa42dba11fd1&#45;&gt;dir_f132f3c082319ace6827058f7d1d886d -->
<g id="edge8" class="edge">
<title>dir_2358b23896e7c9ac9fc7fa42dba11fd1&#45;&gt;dir_f132f3c082319ace6827058f7d1d886d</title>
<path fill="none" stroke="black" d="M80.04,-105.46C157.16,-106.12 384.49,-103.43 576.18,-51.66"/>
<polygon fill="black" stroke="black" points="577.14,-55.02 585.85,-48.99 575.28,-48.27 577.14,-55.02"/>
<g id="a_edge8&#45;headlabel"><a xlink:href="dir_000089_000070.html" target="_top" xlink:title="1">
<text text-anchor="middle" x="574.43" y="-56.21" font-family="Helvetica,sans-Serif" font-size="10.00">1</text>
</a>
</g>
</g>
</g>
</svg>
