<?xml version="1.0" encoding="UTF-8" standalone="no"?>
<!DOCTYPE svg PUBLIC "-//W3C//DTD SVG 1.1//EN"
 "http://www.w3.org/Graphics/SVG/1.1/DTD/svg11.dtd">
<!-- Generated by graphviz version 2.43.0 (0)
 -->
<!-- Title: /home/kali/projects/vsomeip/implementation/compat Pages: 1 -->
<svg width="262pt" height="247pt"
 viewBox="0.00 0.00 262.00 247.00" xmlns="http://www.w3.org/2000/svg" xmlns:xlink="http://www.w3.org/1999/xlink">
<g id="graph0" class="graph" transform="scale(1 1) rotate(0) translate(4 243)">
<title>/home/kali/projects/vsomeip/implementation/compat</title>
<polygon fill="white" stroke="transparent" points="-4,4 -4,-243 258,-243 258,4 -4,4"/>
<g id="clust1" class="cluster">
<title>clusterdir_ed7c47a03c091bb19436c59342bc9555</title>
<g id="a_clust1"><a xlink:href="dir_ed7c47a03c091bb19436c59342bc9555.html" target="_top" xlink:title="implementation">
<polygon fill="#edf0f7" stroke="#404040" stroke-dasharray="5,2" points="8,-8 8,-231 184,-231 184,-8 8,-8"/>
<text text-anchor="middle" x="96" y="-219" font-family="Helvetica,sans-Serif" font-size="10.00">implementation</text>
</a>
</g>
</g>
<g id="clust2" class="cluster">
<title>clusterdir_2c8ea7a53eee326c363d0456e064cb96</title>
<g id="a_clust2"><a xlink:href="dir_2c8ea7a53eee326c363d0456e064cb96.html" target="_top">
<polygon fill="#edf0f7" stroke="#404040" stroke-width="2" points="32,-80 32,-204 176,-204 176,-80 32,-80"/>
</a>
</g>
</g>
<!-- dir_3ce07147fcbac31fc4d5892a851f6627 -->
<g id="node1" class="node">
<title>dir_3ce07147fcbac31fc4d5892a851f6627</title>
<g id="a_node1"><a xlink:href="dir_3ce07147fcbac31fc4d5892a851f6627.html" target="_top" xlink:title="message">
<polygon fill="#a2b4d6" stroke="red" points="175.5,-52 114.5,-52 114.5,-16 175.5,-16 175.5,-52"/>
<text text-anchor="middle" x="145" y="-31.5" font-family="Helvetica,sans-Serif" font-size="10.00">message</text>
</a>
</g>
</g>
<!-- dir_56126a1d848d4a1832817232e79a5a18 -->
<g id="node2" class="node">
<title>dir_56126a1d848d4a1832817232e79a5a18</title>
<g id="a_node2"><a xlink:href="dir_56126a1d848d4a1832817232e79a5a18.html" target="_top" xlink:title="configuration">
<polygon fill="#a2b4d6" stroke="red" points="96,-52 16,-52 16,-16 96,-16 96,-52"/>
<text text-anchor="middle" x="56" y="-31.5" font-family="Helvetica,sans-Serif" font-size="10.00">configuration</text>
</a>
</g>
</g>
<!-- dir_2c8ea7a53eee326c363d0456e064cb96 -->
<g id="node3" class="node">
<title>dir_2c8ea7a53eee326c363d0456e064cb96</title>
<text text-anchor="middle" x="141" y="-175.5" font-family="Helvetica,sans-Serif" font-size="10.00">compat</text>
</g>
<!-- dir_25d20213550c54e1074ad9cd78db84af -->
<g id="node4" class="node">
<title>dir_25d20213550c54e1074ad9cd78db84af</title>
<g id="a_node4"><a xlink:href="dir_25d20213550c54e1074ad9cd78db84af.html" target="_top" xlink:title="message">
<polygon fill="#a2b4d6" stroke="#404040" points="157.5,-124 96.5,-124 96.5,-88 157.5,-88 157.5,-124"/>
<text text-anchor="middle" x="127" y="-103.5" font-family="Helvetica,sans-Serif" font-size="10.00">message</text>
</a>
</g>
</g>
<!-- dir_25d20213550c54e1074ad9cd78db84af&#45;&gt;dir_3ce07147fcbac31fc4d5892a851f6627 -->
<g id="edge2" class="edge">
<title>dir_25d20213550c54e1074ad9cd78db84af&#45;&gt;dir_3ce07147fcbac31fc4d5892a851f6627</title>
<path fill="none" stroke="black" d="M131.45,-87.7C133.45,-79.9 135.87,-70.51 138.1,-61.83"/>
<polygon fill="black" stroke="black" points="141.5,-62.66 140.6,-52.1 134.72,-60.92 141.5,-62.66"/>
<g id="a_edge2&#45;headlabel"><a xlink:href="dir_000068_000069.html" target="_top" xlink:title="2">
<text text-anchor="middle" x="143.36" y="-64.35" font-family="Helvetica,sans-Serif" font-size="10.00">2</text>
</a>
</g>
</g>
<!-- dir_25d20213550c54e1074ad9cd78db84af&#45;&gt;dir_56126a1d848d4a1832817232e79a5a18 -->
<g id="edge3" class="edge">
<title>dir_25d20213550c54e1074ad9cd78db84af&#45;&gt;dir_56126a1d848d4a1832817232e79a5a18</title>
<path fill="none" stroke="black" d="M109.45,-87.7C100.77,-79.14 90.14,-68.66 80.65,-59.3"/>
<polygon fill="black" stroke="black" points="82.93,-56.63 73.35,-52.1 78.01,-61.62 82.93,-56.63"/>
<g id="a_edge3&#45;headlabel"><a xlink:href="dir_000068_000019.html" target="_top" xlink:title="2">
<text text-anchor="middle" x="87.48" y="-54.63" font-family="Helvetica,sans-Serif" font-size="10.00">2</text>
</a>
</g>
</g>
<!-- dir_b31d54d5631803016a26f28213a41162 -->
<g id="node6" class="node">
<title>dir_b31d54d5631803016a26f28213a41162</title>
<g id="a_node6"><a xlink:href="dir_b31d54d5631803016a26f28213a41162.html" target="_top" xlink:title="interface">
<polygon fill="none" stroke="red" points="254,-52 194,-52 194,-16 254,-16 254,-52"/>
<text text-anchor="middle" x="224" y="-31.5" font-family="Helvetica,sans-Serif" font-size="10.00">interface</text>
</a>
</g>
</g>
<!-- dir_25d20213550c54e1074ad9cd78db84af&#45;&gt;dir_b31d54d5631803016a26f28213a41162 -->
<g id="edge1" class="edge">
<title>dir_25d20213550c54e1074ad9cd78db84af&#45;&gt;dir_b31d54d5631803016a26f28213a41162</title>
<path fill="none" stroke="black" d="M150.98,-87.7C163.31,-78.8 178.52,-67.82 191.85,-58.2"/>
<polygon fill="black" stroke="black" points="194.24,-60.79 200.3,-52.1 190.14,-55.12 194.24,-60.79"/>
<g id="a_edge1&#45;headlabel"><a xlink:href="dir_000068_000054.html" target="_top" xlink:title="6">
<text text-anchor="middle" x="192.98" y="-62.7" font-family="Helvetica,sans-Serif" font-size="10.00">6</text>
</a>
</g>
</g>
<!-- dir_38888aae6fdef4a4dee3fcee8dbbcc7c -->
<g id="node5" class="node">
<title>dir_38888aae6fdef4a4dee3fcee8dbbcc7c</title>
<g id="a_node5"><a xlink:href="dir_38888aae6fdef4a4dee3fcee8dbbcc7c.html" target="_top" xlink:title="runtime">
<polygon fill="#a2b4d6" stroke="#404040" points="95.5,-196 40.5,-196 40.5,-160 95.5,-160 95.5,-196"/>
<text text-anchor="middle" x="68" y="-175.5" font-family="Helvetica,sans-Serif" font-size="10.00">runtime</text>
</a>
</g>
</g>
<!-- dir_38888aae6fdef4a4dee3fcee8dbbcc7c&#45;&gt;dir_56126a1d848d4a1832817232e79a5a18 -->
<g id="edge5" class="edge">
<title>dir_38888aae6fdef4a4dee3fcee8dbbcc7c&#45;&gt;dir_56126a1d848d4a1832817232e79a5a18</title>
<path fill="none" stroke="black" d="M66.55,-159.87C64.51,-135.67 60.75,-91.21 58.31,-62.39"/>
<polygon fill="black" stroke="black" points="61.78,-61.86 57.45,-52.19 54.81,-62.45 61.78,-61.86"/>
<g id="a_edge5&#45;headlabel"><a xlink:href="dir_000083_000019.html" target="_top" xlink:title="1">
<text text-anchor="middle" x="64.91" y="-62.7" font-family="Helvetica,sans-Serif" font-size="10.00">1</text>
</a>
</g>
</g>
<!-- dir_38888aae6fdef4a4dee3fcee8dbbcc7c&#45;&gt;dir_25d20213550c54e1074ad9cd78db84af -->
<g id="edge6" class="edge">
<title>dir_38888aae6fdef4a4dee3fcee8dbbcc7c&#45;&gt;dir_25d20213550c54e1074ad9cd78db84af</title>
<path fill="none" stroke="black" d="M82.58,-159.7C89.66,-151.3 98.28,-141.07 106.05,-131.86"/>
<polygon fill="black" stroke="black" points="108.81,-134.01 112.58,-124.1 103.46,-129.49 108.81,-134.01"/>
<g id="a_edge6&#45;headlabel"><a xlink:href="dir_000083_000068.html" target="_top" xlink:title="4">
<text text-anchor="middle" x="108.67" y="-136.08" font-family="Helvetica,sans-Serif" font-size="10.00">4</text>
</a>
</g>
</g>
<!-- dir_38888aae6fdef4a4dee3fcee8dbbcc7c&#45;&gt;dir_b31d54d5631803016a26f28213a41162 -->
<g id="edge4" class="edge">
<title>dir_38888aae6fdef4a4dee3fcee8dbbcc7c&#45;&gt;dir_b31d54d5631803016a26f28213a41162</title>
<path fill="none" stroke="black" d="M95.92,-164.01C121.07,-151.97 155.76,-134.39 167,-124 186.25,-106.2 201.76,-80.55 211.72,-61.36"/>
<polygon fill="black" stroke="black" points="214.93,-62.76 216.28,-52.25 208.67,-59.62 214.93,-62.76"/>
<g id="a_edge4&#45;headlabel"><a xlink:href="dir_000083_000054.html" target="_top" xlink:title="6">
<text text-anchor="middle" x="215.86" y="-64.74" font-family="Helvetica,sans-Serif" font-size="10.00">6</text>
</a>
</g>
</g>
</g>
</svg>
