<?xml version="1.0" encoding="UTF-8" standalone="no"?>
<!DOCTYPE svg PUBLIC "-//W3C//DTD SVG 1.1//EN"
 "http://www.w3.org/Graphics/SVG/1.1/DTD/svg11.dtd">
<!-- Generated by graphviz version 2.43.0 (0)
 -->
<!-- Title: /home/kali/projects/vsomeip/implementation/helper/1.55/boost/asio Pages: 1 -->
<svg width="254pt" height="183pt"
 viewBox="0.00 0.00 254.00 183.00" xmlns="http://www.w3.org/2000/svg" xmlns:xlink="http://www.w3.org/1999/xlink">
<g id="graph0" class="graph" transform="scale(1 1) rotate(0) translate(4 179)">
<title>/home/kali/projects/vsomeip/implementation/helper/1.55/boost/asio</title>
<polygon fill="white" stroke="transparent" points="-4,4 -4,-179 250,-179 250,4 -4,4"/>
<g id="clust1" class="cluster">
<title>clusterdir_622839eb0058ca2dd134ae05be18fa61</title>
<g id="a_clust1"><a xlink:href="dir_622839eb0058ca2dd134ae05be18fa61.html" target="_top" xlink:title="boost">
<polygon fill="#edf0f7" stroke="#7f7f7f" stroke-dasharray="5,2" points="8,-8 8,-167 238,-167 238,-8 8,-8"/>
<text text-anchor="middle" x="123" y="-155" font-family="Helvetica,sans-Serif" font-size="10.00">boost</text>
</a>
</g>
</g>
<g id="clust2" class="cluster">
<title>clusterdir_8625d800f0dac6903bc9d7d973fe0aa2</title>
<g id="a_clust2"><a xlink:href="dir_8625d800f0dac6903bc9d7d973fe0aa2.html" target="_top">
<polygon fill="#edf0f7" stroke="#404040" stroke-width="2" points="16,-16 16,-140 230,-140 230,-16 16,-16"/>
</a>
</g>
</g>
<!-- dir_8625d800f0dac6903bc9d7d973fe0aa2 -->
<g id="node1" class="node">
<title>dir_8625d800f0dac6903bc9d7d973fe0aa2</title>
<text text-anchor="middle" x="195" y="-111.5" font-family="Helvetica,sans-Serif" font-size="10.00">asio</text>
</g>
<!-- dir_2e3197a2f94a147446da1d24bd7adba2 -->
<g id="node2" class="node">
<title>dir_2e3197a2f94a147446da1d24bd7adba2</title>
<g id="a_node2"><a xlink:href="dir_2e3197a2f94a147446da1d24bd7adba2.html" target="_top" xlink:title="detail">
<polygon fill="#a2b4d6" stroke="#404040" points="222,-60 168,-60 168,-24 222,-24 222,-60"/>
<text text-anchor="middle" x="195" y="-39.5" font-family="Helvetica,sans-Serif" font-size="10.00">detail</text>
</a>
</g>
</g>
<!-- dir_8625d800f0dac6903bc9d7d973fe0aa2&#45;&gt;dir_2e3197a2f94a147446da1d24bd7adba2 -->
<g id="edge1" class="edge">
<title>dir_8625d800f0dac6903bc9d7d973fe0aa2&#45;&gt;dir_2e3197a2f94a147446da1d24bd7adba2</title>
<path fill="none" stroke="black" d="M195,-95.7C195,-87.98 195,-78.71 195,-70.11"/>
<polygon fill="black" stroke="black" points="198.5,-70.1 195,-60.1 191.5,-70.1 198.5,-70.1"/>
<g id="a_edge1&#45;headlabel"><a xlink:href="dir_000005_000022.html" target="_top" xlink:title="1">
<text text-anchor="middle" x="201.34" y="-71.2" font-family="Helvetica,sans-Serif" font-size="10.00">1</text>
</a>
</g>
</g>
<!-- dir_eaeb0a6a932a379ec7f78f4820c3a6d1 -->
<g id="node3" class="node">
<title>dir_eaeb0a6a932a379ec7f78f4820c3a6d1</title>
<g id="a_node3"><a xlink:href="dir_eaeb0a6a932a379ec7f78f4820c3a6d1.html" target="_top" xlink:title="ip">
<polygon fill="#a2b4d6" stroke="#404040" points="150,-132 96,-132 96,-96 150,-96 150,-132"/>
<text text-anchor="middle" x="123" y="-111.5" font-family="Helvetica,sans-Serif" font-size="10.00">ip</text>
</a>
</g>
</g>
<!-- dir_9de9580176179c947eec886b8a1ed57e -->
<g id="node4" class="node">
<title>dir_9de9580176179c947eec886b8a1ed57e</title>
<g id="a_node4"><a xlink:href="dir_9de9580176179c947eec886b8a1ed57e.html" target="_top" xlink:title="local">
<polygon fill="#a2b4d6" stroke="#404040" points="78,-132 24,-132 24,-96 78,-96 78,-132"/>
<text text-anchor="middle" x="51" y="-111.5" font-family="Helvetica,sans-Serif" font-size="10.00">local</text>
</a>
</g>
</g>
</g>
</svg>
