<?xml version="1.0" encoding="UTF-8" standalone="no"?>
<!DOCTYPE svg PUBLIC "-//W3C//DTD SVG 1.1//EN"
 "http://www.w3.org/Graphics/SVG/1.1/DTD/svg11.dtd">
<!-- Generated by graphviz version 2.43.0 (0)
 -->
<!-- Title: /home/kali/projects/vsomeip/implementation/routing/src Pages: 1 -->
<svg width="865pt" height="167pt"
 viewBox="0.00 0.00 865.00 167.00" xmlns="http://www.w3.org/2000/svg" xmlns:xlink="http://www.w3.org/1999/xlink">
<g id="graph0" class="graph" transform="scale(1 1) rotate(0) translate(4 163)">
<title>/home/kali/projects/vsomeip/implementation/routing/src</title>
<polygon fill="white" stroke="transparent" points="-4,4 -4,-163 861,-163 861,4 -4,4"/>
<g id="clust1" class="cluster">
<title>clusterdir_cf72682d9b1c0bc1c562a1f19b8defa0</title>
<g id="a_clust1"><a xlink:href="dir_cf72682d9b1c0bc1c562a1f19b8defa0.html" target="_top" xlink:title="routing">
<polygon fill="#edf0f7" stroke="#7f7f7f" stroke-dasharray="5,2" points="8,-8 8,-151 78,-151 78,-8 8,-8"/>
<text text-anchor="middle" x="43" y="-139" font-family="Helvetica,sans-Serif" font-size="10.00">routing</text>
</a>
</g>
</g>
<!-- dir_3bfeaedfdd72f75729bfd36e2baddd74 -->
<g id="node1" class="node">
<title>dir_3bfeaedfdd72f75729bfd36e2baddd74</title>
<g id="a_node1"><a xlink:href="dir_3bfeaedfdd72f75729bfd36e2baddd74.html" target="_top" xlink:title="include">
<polygon fill="#a2b4d6" stroke="#404040" points="70,-52 16,-52 16,-16 70,-16 70,-52"/>
<text text-anchor="middle" x="43" y="-31.5" font-family="Helvetica,sans-Serif" font-size="10.00">include</text>
</a>
</g>
</g>
<!-- dir_f26bb66bf46917193111165ea70066a5 -->
<g id="node2" class="node">
<title>dir_f26bb66bf46917193111165ea70066a5</title>
<g id="a_node2"><a xlink:href="dir_f26bb66bf46917193111165ea70066a5.html" target="_top" xlink:title="src">
<polygon fill="#edf0f7" stroke="#404040" stroke-width="2" points="70,-124 16,-124 16,-88 70,-88 70,-124"/>
<text text-anchor="middle" x="43" y="-103.5" font-family="Helvetica,sans-Serif" font-size="10.00">src</text>
</a>
</g>
</g>
<!-- dir_f26bb66bf46917193111165ea70066a5&#45;&gt;dir_3bfeaedfdd72f75729bfd36e2baddd74 -->
<g id="edge2" class="edge">
<title>dir_f26bb66bf46917193111165ea70066a5&#45;&gt;dir_3bfeaedfdd72f75729bfd36e2baddd74</title>
<path fill="none" stroke="black" d="M43,-87.7C43,-79.98 43,-70.71 43,-62.11"/>
<polygon fill="black" stroke="black" points="46.5,-62.1 43,-52.1 39.5,-62.1 46.5,-62.1"/>
<g id="a_edge2&#45;headlabel"><a xlink:href="dir_000095_000048.html" target="_top" xlink:title="21">
<text text-anchor="middle" x="49.34" y="-63.2" font-family="Helvetica,sans-Serif" font-size="10.00">21</text>
</a>
</g>
</g>
<!-- dir_061a1b0a0a40a7427f2461ed2f520013 -->
<g id="node3" class="node">
<title>dir_061a1b0a0a40a7427f2461ed2f520013</title>
<g id="a_node3"><a xlink:href="dir_061a1b0a0a40a7427f2461ed2f520013.html" target="_top" xlink:title="service_discovery">
<polygon fill="none" stroke="red" stroke-dasharray="5,2" points="192,-52 88,-52 88,-16 192,-16 192,-52"/>
<text text-anchor="middle" x="140" y="-31.5" font-family="Helvetica,sans-Serif" font-size="10.00">service_discovery</text>
</a>
</g>
</g>
<!-- dir_f26bb66bf46917193111165ea70066a5&#45;&gt;dir_061a1b0a0a40a7427f2461ed2f520013 -->
<g id="edge1" class="edge">
<title>dir_f26bb66bf46917193111165ea70066a5&#45;&gt;dir_061a1b0a0a40a7427f2461ed2f520013</title>
<path fill="none" stroke="black" d="M66.98,-87.7C79.31,-78.8 94.52,-67.82 107.85,-58.2"/>
<polygon fill="black" stroke="black" points="110.24,-60.79 116.3,-52.1 106.14,-55.12 110.24,-60.79"/>
<g id="a_edge1&#45;headlabel"><a xlink:href="dir_000095_000086.html" target="_top" xlink:title="5">
<text text-anchor="middle" x="108.98" y="-62.7" font-family="Helvetica,sans-Serif" font-size="10.00">5</text>
</a>
</g>
</g>
<!-- dir_3ce07147fcbac31fc4d5892a851f6627 -->
<g id="node4" class="node">
<title>dir_3ce07147fcbac31fc4d5892a851f6627</title>
<g id="a_node4"><a xlink:href="dir_3ce07147fcbac31fc4d5892a851f6627.html" target="_top" xlink:title="message">
<polygon fill="none" stroke="red" stroke-dasharray="5,2" points="271.5,-52 210.5,-52 210.5,-16 271.5,-16 271.5,-52"/>
<text text-anchor="middle" x="241" y="-31.5" font-family="Helvetica,sans-Serif" font-size="10.00">message</text>
</a>
</g>
</g>
<!-- dir_f26bb66bf46917193111165ea70066a5&#45;&gt;dir_3ce07147fcbac31fc4d5892a851f6627 -->
<g id="edge3" class="edge">
<title>dir_f26bb66bf46917193111165ea70066a5&#45;&gt;dir_3ce07147fcbac31fc4d5892a851f6627</title>
<path fill="none" stroke="black" d="M70.06,-96.63C99.86,-87.27 149.32,-71.27 200.51,-52.05"/>
<polygon fill="black" stroke="black" points="201.98,-55.23 210.09,-48.42 199.5,-48.69 201.98,-55.23"/>
<g id="a_edge3&#45;headlabel"><a xlink:href="dir_000095_000069.html" target="_top" xlink:title="7">
<text text-anchor="middle" x="199.62" y="-56.66" font-family="Helvetica,sans-Serif" font-size="10.00">7</text>
</a>
</g>
</g>
<!-- dir_476f23a9d8d07b93b910130c774b1932 -->
<g id="node5" class="node">
<title>dir_476f23a9d8d07b93b910130c774b1932</title>
<g id="a_node5"><a xlink:href="dir_476f23a9d8d07b93b910130c774b1932.html" target="_top" xlink:title="e2e_protection">
<polygon fill="none" stroke="red" stroke-dasharray="5,2" points="378.5,-52 289.5,-52 289.5,-16 378.5,-16 378.5,-52"/>
<text text-anchor="middle" x="334" y="-31.5" font-family="Helvetica,sans-Serif" font-size="10.00">e2e_protection</text>
</a>
</g>
</g>
<!-- dir_f26bb66bf46917193111165ea70066a5&#45;&gt;dir_476f23a9d8d07b93b910130c774b1932 -->
<g id="edge4" class="edge">
<title>dir_f26bb66bf46917193111165ea70066a5&#45;&gt;dir_476f23a9d8d07b93b910130c774b1932</title>
<path fill="none" stroke="black" d="M70.32,-99.76C113.05,-91.39 198.41,-73.93 279.41,-52.32"/>
<polygon fill="black" stroke="black" points="280.52,-55.65 289.27,-49.67 278.7,-48.89 280.52,-55.65"/>
<g id="a_edge4&#45;headlabel"><a xlink:href="dir_000095_000029.html" target="_top" xlink:title="3">
<text text-anchor="middle" x="277.79" y="-56.82" font-family="Helvetica,sans-Serif" font-size="10.00">3</text>
</a>
</g>
</g>
<!-- dir_56126a1d848d4a1832817232e79a5a18 -->
<g id="node6" class="node">
<title>dir_56126a1d848d4a1832817232e79a5a18</title>
<g id="a_node6"><a xlink:href="dir_56126a1d848d4a1832817232e79a5a18.html" target="_top" xlink:title="configuration">
<polygon fill="none" stroke="red" stroke-dasharray="5,2" points="477,-52 397,-52 397,-16 477,-16 477,-52"/>
<text text-anchor="middle" x="437" y="-31.5" font-family="Helvetica,sans-Serif" font-size="10.00">configuration</text>
</a>
</g>
</g>
<!-- dir_f26bb66bf46917193111165ea70066a5&#45;&gt;dir_56126a1d848d4a1832817232e79a5a18 -->
<g id="edge5" class="edge">
<title>dir_f26bb66bf46917193111165ea70066a5&#45;&gt;dir_56126a1d848d4a1832817232e79a5a18</title>
<path fill="none" stroke="black" d="M70.17,-102.52C127.3,-96.95 264.08,-81.72 386.86,-52.04"/>
<polygon fill="black" stroke="black" points="387.92,-55.38 396.8,-49.6 386.25,-48.58 387.92,-55.38"/>
<g id="a_edge5&#45;headlabel"><a xlink:href="dir_000095_000019.html" target="_top" xlink:title="3">
<text text-anchor="middle" x="385.11" y="-56.5" font-family="Helvetica,sans-Serif" font-size="10.00">3</text>
</a>
</g>
</g>
<!-- dir_6972051101bc5f8d68d31d49f06d7aaf -->
<g id="node7" class="node">
<title>dir_6972051101bc5f8d68d31d49f06d7aaf</title>
<g id="a_node7"><a xlink:href="dir_6972051101bc5f8d68d31d49f06d7aaf.html" target="_top" xlink:title="utility">
<polygon fill="none" stroke="red" stroke-dasharray="5,2" points="549,-52 495,-52 495,-16 549,-16 549,-52"/>
<text text-anchor="middle" x="522" y="-31.5" font-family="Helvetica,sans-Serif" font-size="10.00">utility</text>
</a>
</g>
</g>
<!-- dir_f26bb66bf46917193111165ea70066a5&#45;&gt;dir_6972051101bc5f8d68d31d49f06d7aaf -->
<g id="edge6" class="edge">
<title>dir_f26bb66bf46917193111165ea70066a5&#45;&gt;dir_6972051101bc5f8d68d31d49f06d7aaf</title>
<path fill="none" stroke="black" d="M70.06,-104.76C138.75,-103.54 325.17,-96.31 484.84,-51.78"/>
<polygon fill="black" stroke="black" points="486.18,-55.04 494.84,-48.94 484.26,-48.31 486.18,-55.04"/>
<g id="a_edge6&#45;headlabel"><a xlink:href="dir_000095_000102.html" target="_top" xlink:title="8">
<text text-anchor="middle" x="483.5" y="-56.26" font-family="Helvetica,sans-Serif" font-size="10.00">8</text>
</a>
</g>
</g>
<!-- dir_96312f6272b562b103a6f862042db4a4 -->
<g id="node8" class="node">
<title>dir_96312f6272b562b103a6f862042db4a4</title>
<g id="a_node8"><a xlink:href="dir_96312f6272b562b103a6f862042db4a4.html" target="_top" xlink:title="security">
<polygon fill="none" stroke="red" stroke-dasharray="5,2" points="623,-52 567,-52 567,-16 623,-16 623,-52"/>
<text text-anchor="middle" x="595" y="-31.5" font-family="Helvetica,sans-Serif" font-size="10.00">security</text>
</a>
</g>
</g>
<!-- dir_f26bb66bf46917193111165ea70066a5&#45;&gt;dir_96312f6272b562b103a6f862042db4a4 -->
<g id="edge7" class="edge">
<title>dir_f26bb66bf46917193111165ea70066a5&#45;&gt;dir_96312f6272b562b103a6f862042db4a4</title>
<path fill="none" stroke="black" d="M70.1,-105.3C146.33,-105.51 368.79,-101.69 556.89,-51.78"/>
<polygon fill="black" stroke="black" points="557.93,-55.13 566.67,-49.14 556.1,-48.37 557.93,-55.13"/>
<g id="a_edge7&#45;headlabel"><a xlink:href="dir_000095_000085.html" target="_top" xlink:title="5">
<text text-anchor="middle" x="555.2" y="-56.31" font-family="Helvetica,sans-Serif" font-size="10.00">5</text>
</a>
</g>
</g>
<!-- dir_9c7b9d609ec855ab7fbf064b0ccf8e4e -->
<g id="node9" class="node">
<title>dir_9c7b9d609ec855ab7fbf064b0ccf8e4e</title>
<g id="a_node9"><a xlink:href="dir_9c7b9d609ec855ab7fbf064b0ccf8e4e.html" target="_top" xlink:title="endpoints">
<polygon fill="none" stroke="red" stroke-dasharray="5,2" points="706.5,-52 641.5,-52 641.5,-16 706.5,-16 706.5,-52"/>
<text text-anchor="middle" x="674" y="-31.5" font-family="Helvetica,sans-Serif" font-size="10.00">endpoints</text>
</a>
</g>
</g>
<!-- dir_f26bb66bf46917193111165ea70066a5&#45;&gt;dir_9c7b9d609ec855ab7fbf064b0ccf8e4e -->
<g id="edge8" class="edge">
<title>dir_f26bb66bf46917193111165ea70066a5&#45;&gt;dir_9c7b9d609ec855ab7fbf064b0ccf8e4e</title>
<path fill="none" stroke="black" d="M70.17,-105.37C153.48,-105.92 412.44,-103.28 631.54,-51.64"/>
<polygon fill="black" stroke="black" points="632.38,-55.04 641.29,-49.31 630.75,-48.23 632.38,-55.04"/>
<g id="a_edge8&#45;headlabel"><a xlink:href="dir_000095_000032.html" target="_top" xlink:title="15">
<text text-anchor="middle" x="629.55" y="-56.14" font-family="Helvetica,sans-Serif" font-size="10.00">15</text>
</a>
</g>
</g>
<!-- dir_b31d54d5631803016a26f28213a41162 -->
<g id="node10" class="node">
<title>dir_b31d54d5631803016a26f28213a41162</title>
<g id="a_node10"><a xlink:href="dir_b31d54d5631803016a26f28213a41162.html" target="_top" xlink:title="interface">
<polygon fill="none" stroke="red" points="785,-52 725,-52 725,-16 785,-16 785,-52"/>
<text text-anchor="middle" x="755" y="-31.5" font-family="Helvetica,sans-Serif" font-size="10.00">interface</text>
</a>
</g>
</g>
<!-- dir_f26bb66bf46917193111165ea70066a5&#45;&gt;dir_b31d54d5631803016a26f28213a41162 -->
<g id="edge9" class="edge">
<title>dir_f26bb66bf46917193111165ea70066a5&#45;&gt;dir_b31d54d5631803016a26f28213a41162</title>
<path fill="none" stroke="black" d="M70.25,-104.06C177.51,-100.18 571.29,-84.17 714.79,-51.72"/>
<polygon fill="black" stroke="black" points="715.77,-55.08 724.68,-49.36 714.14,-48.28 715.77,-55.08"/>
<g id="a_edge9&#45;headlabel"><a xlink:href="dir_000095_000054.html" target="_top" xlink:title="7">
<text text-anchor="middle" x="712.93" y="-56.18" font-family="Helvetica,sans-Serif" font-size="10.00">7</text>
</a>
</g>
</g>
<!-- dir_f132f3c082319ace6827058f7d1d886d -->
<g id="node11" class="node">
<title>dir_f132f3c082319ace6827058f7d1d886d</title>
<g id="a_node11"><a xlink:href="dir_f132f3c082319ace6827058f7d1d886d.html" target="_top" xlink:title="plugin">
<polygon fill="none" stroke="red" stroke-dasharray="5,2" points="857,-52 803,-52 803,-16 857,-16 857,-52"/>
<text text-anchor="middle" x="830" y="-31.5" font-family="Helvetica,sans-Serif" font-size="10.00">plugin</text>
</a>
</g>
</g>
<!-- dir_f26bb66bf46917193111165ea70066a5&#45;&gt;dir_f132f3c082319ace6827058f7d1d886d -->
<g id="edge10" class="edge">
<title>dir_f26bb66bf46917193111165ea70066a5&#45;&gt;dir_f132f3c082319ace6827058f7d1d886d</title>
<path fill="none" stroke="black" d="M70.19,-104.42C185.26,-101.78 633.18,-89.42 792.79,-51.61"/>
<polygon fill="black" stroke="black" points="794.03,-54.91 802.88,-49.08 792.33,-48.12 794.03,-54.91"/>
<g id="a_edge10&#45;headlabel"><a xlink:href="dir_000095_000070.html" target="_top" xlink:title="1">
<text text-anchor="middle" x="791.23" y="-56.04" font-family="Helvetica,sans-Serif" font-size="10.00">1</text>
</a>
</g>
</g>
</g>
</svg>
