<?xml version="1.0" encoding="UTF-8" standalone="no"?>
<!DOCTYPE svg PUBLIC "-//W3C//DTD SVG 1.1//EN"
 "http://www.w3.org/Graphics/SVG/1.1/DTD/svg11.dtd">
<!-- Generated by graphviz version 2.43.0 (0)
 -->
<!-- Title: /home/kali/projects/vsomeip/implementation/compat/runtime/src Pages: 1 -->
<svg width="334pt" height="167pt"
 viewBox="0.00 0.00 334.00 167.00" xmlns="http://www.w3.org/2000/svg" xmlns:xlink="http://www.w3.org/1999/xlink">
<g id="graph0" class="graph" transform="scale(1 1) rotate(0) translate(4 163)">
<title>/home/kali/projects/vsomeip/implementation/compat/runtime/src</title>
<polygon fill="white" stroke="transparent" points="-4,4 -4,-163 330,-163 330,4 -4,4"/>
<g id="clust1" class="cluster">
<title>clusterdir_38888aae6fdef4a4dee3fcee8dbbcc7c</title>
<g id="a_clust1"><a xlink:href="dir_38888aae6fdef4a4dee3fcee8dbbcc7c.html" target="_top" xlink:title="runtime">
<polygon fill="#edf0f7" stroke="#7f7f7f" stroke-dasharray="5,2" points="8,-8 8,-151 78,-151 78,-8 8,-8"/>
<text text-anchor="middle" x="43" y="-139" font-family="Helvetica,sans-Serif" font-size="10.00">runtime</text>
</a>
</g>
</g>
<!-- dir_7245577b1f7bfaf28853ada6e265b9c5 -->
<g id="node1" class="node">
<title>dir_7245577b1f7bfaf28853ada6e265b9c5</title>
<g id="a_node1"><a xlink:href="dir_7245577b1f7bfaf28853ada6e265b9c5.html" target="_top" xlink:title="include">
<polygon fill="#a2b4d6" stroke="#404040" points="70,-52 16,-52 16,-16 70,-16 70,-52"/>
<text text-anchor="middle" x="43" y="-31.5" font-family="Helvetica,sans-Serif" font-size="10.00">include</text>
</a>
</g>
</g>
<!-- dir_0f6e7415bbcc6155900bcd8fb95f616a -->
<g id="node2" class="node">
<title>dir_0f6e7415bbcc6155900bcd8fb95f616a</title>
<g id="a_node2"><a xlink:href="dir_0f6e7415bbcc6155900bcd8fb95f616a.html" target="_top" xlink:title="src">
<polygon fill="#edf0f7" stroke="#404040" stroke-width="2" points="70,-124 16,-124 16,-88 70,-88 70,-124"/>
<text text-anchor="middle" x="43" y="-103.5" font-family="Helvetica,sans-Serif" font-size="10.00">src</text>
</a>
</g>
</g>
<!-- dir_0f6e7415bbcc6155900bcd8fb95f616a&#45;&gt;dir_7245577b1f7bfaf28853ada6e265b9c5 -->
<g id="edge3" class="edge">
<title>dir_0f6e7415bbcc6155900bcd8fb95f616a&#45;&gt;dir_7245577b1f7bfaf28853ada6e265b9c5</title>
<path fill="none" stroke="black" d="M43,-87.7C43,-79.98 43,-70.71 43,-62.11"/>
<polygon fill="black" stroke="black" points="46.5,-62.1 43,-52.1 39.5,-62.1 46.5,-62.1"/>
<g id="a_edge3&#45;headlabel"><a xlink:href="dir_000088_000041.html" target="_top" xlink:title="4">
<text text-anchor="middle" x="49.34" y="-63.2" font-family="Helvetica,sans-Serif" font-size="10.00">4</text>
</a>
</g>
</g>
<!-- dir_25d20213550c54e1074ad9cd78db84af -->
<g id="node3" class="node">
<title>dir_25d20213550c54e1074ad9cd78db84af</title>
<g id="a_node3"><a xlink:href="dir_25d20213550c54e1074ad9cd78db84af.html" target="_top" xlink:title="message">
<polygon fill="none" stroke="red" stroke-dasharray="5,2" points="149.5,-52 88.5,-52 88.5,-16 149.5,-16 149.5,-52"/>
<text text-anchor="middle" x="119" y="-31.5" font-family="Helvetica,sans-Serif" font-size="10.00">message</text>
</a>
</g>
</g>
<!-- dir_0f6e7415bbcc6155900bcd8fb95f616a&#45;&gt;dir_25d20213550c54e1074ad9cd78db84af -->
<g id="edge1" class="edge">
<title>dir_0f6e7415bbcc6155900bcd8fb95f616a&#45;&gt;dir_25d20213550c54e1074ad9cd78db84af</title>
<path fill="none" stroke="black" d="M61.79,-87.7C71.17,-79.05 82.68,-68.45 92.91,-59.03"/>
<polygon fill="black" stroke="black" points="95.45,-61.45 100.43,-52.1 90.7,-56.3 95.45,-61.45"/>
<g id="a_edge1&#45;headlabel"><a xlink:href="dir_000088_000068.html" target="_top" xlink:title="4">
<text text-anchor="middle" x="94.72" y="-63.48" font-family="Helvetica,sans-Serif" font-size="10.00">4</text>
</a>
</g>
</g>
<!-- dir_56126a1d848d4a1832817232e79a5a18 -->
<g id="node4" class="node">
<title>dir_56126a1d848d4a1832817232e79a5a18</title>
<g id="a_node4"><a xlink:href="dir_56126a1d848d4a1832817232e79a5a18.html" target="_top" xlink:title="configuration">
<polygon fill="none" stroke="red" stroke-dasharray="5,2" points="248,-52 168,-52 168,-16 248,-16 248,-52"/>
<text text-anchor="middle" x="208" y="-31.5" font-family="Helvetica,sans-Serif" font-size="10.00">configuration</text>
</a>
</g>
</g>
<!-- dir_0f6e7415bbcc6155900bcd8fb95f616a&#45;&gt;dir_56126a1d848d4a1832817232e79a5a18 -->
<g id="edge2" class="edge">
<title>dir_0f6e7415bbcc6155900bcd8fb95f616a&#45;&gt;dir_56126a1d848d4a1832817232e79a5a18</title>
<path fill="none" stroke="black" d="M70.25,-93.44C94.09,-83.32 129.34,-68.37 158.21,-56.12"/>
<polygon fill="black" stroke="black" points="159.9,-59.21 167.74,-52.08 157.16,-52.77 159.9,-59.21"/>
<g id="a_edge2&#45;headlabel"><a xlink:href="dir_000088_000019.html" target="_top" xlink:title="1">
<text text-anchor="middle" x="157.7" y="-60.73" font-family="Helvetica,sans-Serif" font-size="10.00">1</text>
</a>
</g>
</g>
<!-- dir_b31d54d5631803016a26f28213a41162 -->
<g id="node5" class="node">
<title>dir_b31d54d5631803016a26f28213a41162</title>
<g id="a_node5"><a xlink:href="dir_b31d54d5631803016a26f28213a41162.html" target="_top" xlink:title="interface">
<polygon fill="none" stroke="red" points="326,-52 266,-52 266,-16 326,-16 326,-52"/>
<text text-anchor="middle" x="296" y="-31.5" font-family="Helvetica,sans-Serif" font-size="10.00">interface</text>
</a>
</g>
</g>
<!-- dir_0f6e7415bbcc6155900bcd8fb95f616a&#45;&gt;dir_b31d54d5631803016a26f28213a41162 -->
<g id="edge4" class="edge">
<title>dir_0f6e7415bbcc6155900bcd8fb95f616a&#45;&gt;dir_b31d54d5631803016a26f28213a41162</title>
<path fill="none" stroke="black" d="M70.11,-99.81C109.38,-91.98 184.4,-75.78 256.3,-51.95"/>
<polygon fill="black" stroke="black" points="257.61,-55.2 265.96,-48.69 255.37,-48.57 257.61,-55.2"/>
<g id="a_edge4&#45;headlabel"><a xlink:href="dir_000088_000054.html" target="_top" xlink:title="4">
<text text-anchor="middle" x="255.11" y="-56.54" font-family="Helvetica,sans-Serif" font-size="10.00">4</text>
</a>
</g>
</g>
</g>
</svg>
