<?xml version="1.0" encoding="UTF-8" standalone="no"?>
<!DOCTYPE svg PUBLIC "-//W3C//DTD SVG 1.1//EN"
 "http://www.w3.org/Graphics/SVG/1.1/DTD/svg11.dtd">
<!-- Generated by graphviz version 2.43.0 (0)
 -->
<!-- Title: /home/kali/projects/vsomeip/implementation/compat/runtime Pages: 1 -->
<svg width="374pt" height="231pt"
 viewBox="0.00 0.00 374.00 231.00" xmlns="http://www.w3.org/2000/svg" xmlns:xlink="http://www.w3.org/1999/xlink">
<g id="graph0" class="graph" transform="scale(1 1) rotate(0) translate(4 227)">
<title>/home/kali/projects/vsomeip/implementation/compat/runtime</title>
<polygon fill="white" stroke="transparent" points="-4,4 -4,-227 370,-227 370,4 -4,4"/>
<g id="clust1" class="cluster">
<title>clusterdir_2c8ea7a53eee326c363d0456e064cb96</title>
<g id="a_clust1"><a xlink:href="dir_2c8ea7a53eee326c363d0456e064cb96.html" target="_top" xlink:title="compat">
<polygon fill="#edf0f7" stroke="#7f7f7f" stroke-dasharray="5,2" points="8,-56 8,-215 238,-215 238,-56 8,-56"/>
<text text-anchor="middle" x="123" y="-203" font-family="Helvetica,sans-Serif" font-size="10.00">compat</text>
</a>
</g>
</g>
<g id="clust2" class="cluster">
<title>clusterdir_38888aae6fdef4a4dee3fcee8dbbcc7c</title>
<g id="a_clust2"><a xlink:href="dir_38888aae6fdef4a4dee3fcee8dbbcc7c.html" target="_top">
<polygon fill="#edf0f7" stroke="#404040" stroke-width="2" points="16,-64 16,-188 160,-188 160,-64 16,-64"/>
</a>
</g>
</g>
<!-- dir_25d20213550c54e1074ad9cd78db84af -->
<g id="node1" class="node">
<title>dir_25d20213550c54e1074ad9cd78db84af</title>
<g id="a_node1"><a xlink:href="dir_25d20213550c54e1074ad9cd78db84af.html" target="_top" xlink:title="message">
<polygon fill="#a2b4d6" stroke="red" points="229.5,-108 168.5,-108 168.5,-72 229.5,-72 229.5,-108"/>
<text text-anchor="middle" x="199" y="-87.5" font-family="Helvetica,sans-Serif" font-size="10.00">message</text>
</a>
</g>
</g>
<!-- dir_38888aae6fdef4a4dee3fcee8dbbcc7c -->
<g id="node2" class="node">
<title>dir_38888aae6fdef4a4dee3fcee8dbbcc7c</title>
<text text-anchor="middle" x="124" y="-159.5" font-family="Helvetica,sans-Serif" font-size="10.00">runtime</text>
</g>
<!-- dir_7245577b1f7bfaf28853ada6e265b9c5 -->
<g id="node3" class="node">
<title>dir_7245577b1f7bfaf28853ada6e265b9c5</title>
<g id="a_node3"><a xlink:href="dir_7245577b1f7bfaf28853ada6e265b9c5.html" target="_top" xlink:title="include">
<polygon fill="#a2b4d6" stroke="#404040" points="114,-108 60,-108 60,-72 114,-72 114,-108"/>
<text text-anchor="middle" x="87" y="-87.5" font-family="Helvetica,sans-Serif" font-size="10.00">include</text>
</a>
</g>
</g>
<!-- dir_b31d54d5631803016a26f28213a41162 -->
<g id="node5" class="node">
<title>dir_b31d54d5631803016a26f28213a41162</title>
<g id="a_node5"><a xlink:href="dir_b31d54d5631803016a26f28213a41162.html" target="_top" xlink:title="interface">
<polygon fill="none" stroke="red" points="202,-36 142,-36 142,0 202,0 202,-36"/>
<text text-anchor="middle" x="172" y="-15.5" font-family="Helvetica,sans-Serif" font-size="10.00">interface</text>
</a>
</g>
</g>
<!-- dir_7245577b1f7bfaf28853ada6e265b9c5&#45;&gt;dir_b31d54d5631803016a26f28213a41162 -->
<g id="edge1" class="edge">
<title>dir_7245577b1f7bfaf28853ada6e265b9c5&#45;&gt;dir_b31d54d5631803016a26f28213a41162</title>
<path fill="none" stroke="black" d="M101.79,-71.86C106.72,-66.54 112.39,-60.81 118,-56 123.64,-51.17 129.91,-46.4 136.13,-41.96"/>
<polygon fill="black" stroke="black" points="138.29,-44.73 144.52,-36.16 134.3,-38.97 138.29,-44.73"/>
<g id="a_edge1&#45;headlabel"><a xlink:href="dir_000041_000054.html" target="_top" xlink:title="2">
<text text-anchor="middle" x="136.95" y="-46.61" font-family="Helvetica,sans-Serif" font-size="10.00">2</text>
</a>
</g>
</g>
<!-- dir_0f6e7415bbcc6155900bcd8fb95f616a -->
<g id="node4" class="node">
<title>dir_0f6e7415bbcc6155900bcd8fb95f616a</title>
<g id="a_node4"><a xlink:href="dir_0f6e7415bbcc6155900bcd8fb95f616a.html" target="_top" xlink:title="src">
<polygon fill="#a2b4d6" stroke="#404040" points="78,-180 24,-180 24,-144 78,-144 78,-180"/>
<text text-anchor="middle" x="51" y="-159.5" font-family="Helvetica,sans-Serif" font-size="10.00">src</text>
</a>
</g>
</g>
<!-- dir_0f6e7415bbcc6155900bcd8fb95f616a&#45;&gt;dir_25d20213550c54e1074ad9cd78db84af -->
<g id="edge2" class="edge">
<title>dir_0f6e7415bbcc6155900bcd8fb95f616a&#45;&gt;dir_25d20213550c54e1074ad9cd78db84af</title>
<path fill="none" stroke="black" d="M78.45,-148.25C99.3,-138.54 128.93,-124.68 159.42,-110.17"/>
<polygon fill="black" stroke="black" points="160.95,-113.32 168.47,-105.86 157.94,-107 160.95,-113.32"/>
<g id="a_edge2&#45;headlabel"><a xlink:href="dir_000088_000068.html" target="_top" xlink:title="4">
<text text-anchor="middle" x="158.93" y="-114.93" font-family="Helvetica,sans-Serif" font-size="10.00">4</text>
</a>
</g>
</g>
<!-- dir_0f6e7415bbcc6155900bcd8fb95f616a&#45;&gt;dir_7245577b1f7bfaf28853ada6e265b9c5 -->
<g id="edge4" class="edge">
<title>dir_0f6e7415bbcc6155900bcd8fb95f616a&#45;&gt;dir_7245577b1f7bfaf28853ada6e265b9c5</title>
<path fill="none" stroke="black" d="M59.9,-143.7C64,-135.73 68.95,-126.1 73.49,-117.26"/>
<polygon fill="black" stroke="black" points="76.74,-118.6 78.2,-108.1 70.52,-115.4 76.74,-118.6"/>
<g id="a_edge4&#45;headlabel"><a xlink:href="dir_000088_000041.html" target="_top" xlink:title="4">
<text text-anchor="middle" x="77.62" y="-120.59" font-family="Helvetica,sans-Serif" font-size="10.00">4</text>
</a>
</g>
</g>
<!-- dir_0f6e7415bbcc6155900bcd8fb95f616a&#45;&gt;dir_b31d54d5631803016a26f28213a41162 -->
<g id="edge5" class="edge">
<title>dir_0f6e7415bbcc6155900bcd8fb95f616a&#45;&gt;dir_b31d54d5631803016a26f28213a41162</title>
<path fill="none" stroke="black" d="M78.23,-147.75C81.48,-146.39 84.79,-145.1 88,-144 154.49,-121.21 198.32,-163.07 242,-108 256.36,-89.89 253.93,-75.8 242,-56 235.17,-44.67 223.58,-36.62 211.77,-31"/>
<polygon fill="black" stroke="black" points="212.92,-27.68 202.35,-26.99 210.18,-34.13 212.92,-27.68"/>
<g id="a_edge5&#45;headlabel"><a xlink:href="dir_000088_000054.html" target="_top" xlink:title="4">
<text text-anchor="middle" x="217.34" y="-23.98" font-family="Helvetica,sans-Serif" font-size="10.00">4</text>
</a>
</g>
</g>
<!-- dir_56126a1d848d4a1832817232e79a5a18 -->
<g id="node6" class="node">
<title>dir_56126a1d848d4a1832817232e79a5a18</title>
<g id="a_node6"><a xlink:href="dir_56126a1d848d4a1832817232e79a5a18.html" target="_top" xlink:title="configuration">
<polygon fill="none" stroke="red" stroke-dasharray="5,2" points="366,-108 286,-108 286,-72 366,-72 366,-108"/>
<text text-anchor="middle" x="326" y="-87.5" font-family="Helvetica,sans-Serif" font-size="10.00">configuration</text>
</a>
</g>
</g>
<!-- dir_0f6e7415bbcc6155900bcd8fb95f616a&#45;&gt;dir_56126a1d848d4a1832817232e79a5a18 -->
<g id="edge3" class="edge">
<title>dir_0f6e7415bbcc6155900bcd8fb95f616a&#45;&gt;dir_56126a1d848d4a1832817232e79a5a18</title>
<path fill="none" stroke="black" d="M78.19,-147.63C81.45,-146.29 84.77,-145.04 88,-144 167.31,-118.43 191.24,-128.54 272,-108 273.26,-107.68 274.53,-107.35 275.81,-107"/>
<polygon fill="black" stroke="black" points="277.06,-110.29 285.74,-104.21 275.17,-103.55 277.06,-110.29"/>
<g id="a_edge3&#45;headlabel"><a xlink:href="dir_000088_000019.html" target="_top" xlink:title="1">
<text text-anchor="middle" x="274.37" y="-111.49" font-family="Helvetica,sans-Serif" font-size="10.00">1</text>
</a>
</g>
</g>
</g>
</svg>
