<?xml version="1.0" encoding="UTF-8" standalone="no"?>
<!DOCTYPE svg PUBLIC "-//W3C//DTD SVG 1.1//EN"
 "http://www.w3.org/Graphics/SVG/1.1/DTD/svg11.dtd">
<!-- Generated by graphviz version 2.43.0 (0)
 -->
<!-- Title: /home/kali/projects/vsomeip/implementation/e2e_protection/src/e2e/profile Pages: 1 -->
<svg width="371pt" height="159pt"
 viewBox="0.00 0.00 371.00 159.00" xmlns="http://www.w3.org/2000/svg" xmlns:xlink="http://www.w3.org/1999/xlink">
<g id="graph0" class="graph" transform="scale(1 1) rotate(0) translate(4 155)">
<title>/home/kali/projects/vsomeip/implementation/e2e_protection/src/e2e/profile</title>
<polygon fill="white" stroke="transparent" points="-4,4 -4,-155 367,-155 367,4 -4,4"/>
<g id="clust1" class="cluster">
<title>clusterdir_4c5cb071900c74e64eb69201ab76a37a</title>
<g id="a_clust1"><a xlink:href="dir_4c5cb071900c74e64eb69201ab76a37a.html" target="_top" xlink:title="e2e">
<polygon fill="#edf0f7" stroke="#7f7f7f" stroke-dasharray="5,2" points="8,-56 8,-143 355,-143 355,-56 8,-56"/>
<text text-anchor="middle" x="181.5" y="-131" font-family="Helvetica,sans-Serif" font-size="10.00">e2e</text>
</a>
</g>
</g>
<g id="clust2" class="cluster">
<title>clusterdir_1a314ca59dd122efcbdf7cfcbe800b87</title>
<g id="a_clust2"><a xlink:href="dir_1a314ca59dd122efcbdf7cfcbe800b87.html" target="_top">
<polygon fill="#edf0f7" stroke="#404040" stroke-width="2" points="16,-64 16,-116 347,-116 347,-64 16,-64"/>
</a>
</g>
</g>
<!-- dir_1a314ca59dd122efcbdf7cfcbe800b87 -->
<g id="node1" class="node">
<title>dir_1a314ca59dd122efcbdf7cfcbe800b87</title>
<text text-anchor="middle" x="312" y="-87.5" font-family="Helvetica,sans-Serif" font-size="10.00">profile</text>
</g>
<!-- dir_261f67b82c2cb416f656d185a1fa5017 -->
<g id="node5" class="node">
<title>dir_261f67b82c2cb416f656d185a1fa5017</title>
<g id="a_node5"><a xlink:href="dir_261f67b82c2cb416f656d185a1fa5017.html" target="_top" xlink:title="include">
<polygon fill="none" stroke="red" stroke-dasharray="5,2" points="188,-36 134,-36 134,0 188,0 188,-36"/>
<text text-anchor="middle" x="161" y="-15.5" font-family="Helvetica,sans-Serif" font-size="10.00">include</text>
</a>
</g>
</g>
<!-- dir_1a314ca59dd122efcbdf7cfcbe800b87&#45;&gt;dir_261f67b82c2cb416f656d185a1fa5017 -->
<g id="edge1" class="edge">
<title>dir_1a314ca59dd122efcbdf7cfcbe800b87&#45;&gt;dir_261f67b82c2cb416f656d185a1fa5017</title>
<path fill="none" stroke="black" d="M296.5,-71.66C290.59,-65.94 283.46,-60.03 276,-56 246.62,-40.14 233.24,-46.92 197.8,-35.79"/>
<polygon fill="black" stroke="black" points="198.88,-32.46 188.29,-32.55 196.62,-39.09 198.88,-32.46"/>
<g id="a_edge1&#45;headlabel"><a xlink:href="dir_000074_000043.html" target="_top" xlink:title="22">
<text text-anchor="middle" x="203.2" y="-28.44" font-family="Helvetica,sans-Serif" font-size="10.00">22</text>
</a>
</g>
</g>
<!-- dir_b31d54d5631803016a26f28213a41162 -->
<g id="node6" class="node">
<title>dir_b31d54d5631803016a26f28213a41162</title>
<g id="a_node6"><a xlink:href="dir_b31d54d5631803016a26f28213a41162.html" target="_top" xlink:title="interface">
<polygon fill="none" stroke="red" points="266,-36 206,-36 206,0 266,0 266,-36"/>
<text text-anchor="middle" x="236" y="-15.5" font-family="Helvetica,sans-Serif" font-size="10.00">interface</text>
</a>
</g>
</g>
<!-- dir_1a314ca59dd122efcbdf7cfcbe800b87&#45;&gt;dir_b31d54d5631803016a26f28213a41162 -->
<g id="edge2" class="edge">
<title>dir_1a314ca59dd122efcbdf7cfcbe800b87&#45;&gt;dir_b31d54d5631803016a26f28213a41162</title>
<path fill="none" stroke="black" d="M293.21,-71.7C283.83,-63.05 272.32,-52.45 262.09,-43.03"/>
<polygon fill="black" stroke="black" points="264.3,-40.3 254.57,-36.1 259.55,-45.45 264.3,-40.3"/>
<g id="a_edge2&#45;headlabel"><a xlink:href="dir_000074_000054.html" target="_top" xlink:title="6">
<text text-anchor="middle" x="268.86" y="-38.15" font-family="Helvetica,sans-Serif" font-size="10.00">6</text>
</a>
</g>
</g>
<!-- dir_c8b1b2a2c6d715b391bbebd6d5e164d5 -->
<g id="node2" class="node">
<title>dir_c8b1b2a2c6d715b391bbebd6d5e164d5</title>
<g id="a_node2"><a xlink:href="dir_c8b1b2a2c6d715b391bbebd6d5e164d5.html" target="_top" xlink:title="profile01">
<polygon fill="#a2b4d6" stroke="#404040" points="266.5,-108 207.5,-108 207.5,-72 266.5,-72 266.5,-108"/>
<text text-anchor="middle" x="237" y="-87.5" font-family="Helvetica,sans-Serif" font-size="10.00">profile01</text>
</a>
</g>
</g>
<!-- dir_c8b1b2a2c6d715b391bbebd6d5e164d5&#45;&gt;dir_261f67b82c2cb416f656d185a1fa5017 -->
<g id="edge3" class="edge">
<title>dir_c8b1b2a2c6d715b391bbebd6d5e164d5&#45;&gt;dir_261f67b82c2cb416f656d185a1fa5017</title>
<path fill="none" stroke="black" d="M218.21,-71.7C208.83,-63.05 197.32,-52.45 187.09,-43.03"/>
<polygon fill="black" stroke="black" points="189.3,-40.3 179.57,-36.1 184.55,-45.45 189.3,-40.3"/>
<g id="a_edge3&#45;headlabel"><a xlink:href="dir_000076_000043.html" target="_top" xlink:title="4">
<text text-anchor="middle" x="193.86" y="-38.15" font-family="Helvetica,sans-Serif" font-size="10.00">4</text>
</a>
</g>
</g>
<!-- dir_c8b1b2a2c6d715b391bbebd6d5e164d5&#45;&gt;dir_b31d54d5631803016a26f28213a41162 -->
<g id="edge4" class="edge">
<title>dir_c8b1b2a2c6d715b391bbebd6d5e164d5&#45;&gt;dir_b31d54d5631803016a26f28213a41162</title>
<path fill="none" stroke="black" d="M236.75,-71.7C236.64,-63.98 236.51,-54.71 236.39,-46.11"/>
<polygon fill="black" stroke="black" points="239.89,-46.05 236.24,-36.1 232.89,-46.15 239.89,-46.05"/>
<g id="a_edge4&#45;headlabel"><a xlink:href="dir_000076_000054.html" target="_top" xlink:title="2">
<text text-anchor="middle" x="242.78" y="-47.11" font-family="Helvetica,sans-Serif" font-size="10.00">2</text>
</a>
</g>
</g>
<!-- dir_59eeb17f1a610b36d7482110bd017406 -->
<g id="node3" class="node">
<title>dir_59eeb17f1a610b36d7482110bd017406</title>
<g id="a_node3"><a xlink:href="dir_59eeb17f1a610b36d7482110bd017406.html" target="_top" xlink:title="profile04">
<polygon fill="#a2b4d6" stroke="#404040" points="189.5,-108 130.5,-108 130.5,-72 189.5,-72 189.5,-108"/>
<text text-anchor="middle" x="160" y="-87.5" font-family="Helvetica,sans-Serif" font-size="10.00">profile04</text>
</a>
</g>
</g>
<!-- dir_59eeb17f1a610b36d7482110bd017406&#45;&gt;dir_261f67b82c2cb416f656d185a1fa5017 -->
<g id="edge5" class="edge">
<title>dir_59eeb17f1a610b36d7482110bd017406&#45;&gt;dir_261f67b82c2cb416f656d185a1fa5017</title>
<path fill="none" stroke="black" d="M160.25,-71.7C160.36,-63.98 160.49,-54.71 160.61,-46.11"/>
<polygon fill="black" stroke="black" points="164.11,-46.15 160.76,-36.1 157.11,-46.05 164.11,-46.15"/>
<g id="a_edge5&#45;headlabel"><a xlink:href="dir_000078_000043.html" target="_top" xlink:title="4">
<text text-anchor="middle" x="166.9" y="-47.29" font-family="Helvetica,sans-Serif" font-size="10.00">4</text>
</a>
</g>
</g>
<!-- dir_59eeb17f1a610b36d7482110bd017406&#45;&gt;dir_b31d54d5631803016a26f28213a41162 -->
<g id="edge6" class="edge">
<title>dir_59eeb17f1a610b36d7482110bd017406&#45;&gt;dir_b31d54d5631803016a26f28213a41162</title>
<path fill="none" stroke="black" d="M178.79,-71.7C188.17,-63.05 199.68,-52.45 209.91,-43.03"/>
<polygon fill="black" stroke="black" points="212.45,-45.45 217.43,-36.1 207.7,-40.3 212.45,-45.45"/>
<g id="a_edge6&#45;headlabel"><a xlink:href="dir_000078_000054.html" target="_top" xlink:title="2">
<text text-anchor="middle" x="211.72" y="-47.48" font-family="Helvetica,sans-Serif" font-size="10.00">2</text>
</a>
</g>
</g>
<!-- dir_6779bea9991003ae841a4b19c94369b9 -->
<g id="node4" class="node">
<title>dir_6779bea9991003ae841a4b19c94369b9</title>
<g id="a_node4"><a xlink:href="dir_6779bea9991003ae841a4b19c94369b9.html" target="_top" xlink:title="profile_custom">
<polygon fill="#a2b4d6" stroke="#404040" points="112.5,-108 23.5,-108 23.5,-72 112.5,-72 112.5,-108"/>
<text text-anchor="middle" x="68" y="-87.5" font-family="Helvetica,sans-Serif" font-size="10.00">profile_custom</text>
</a>
</g>
</g>
<!-- dir_6779bea9991003ae841a4b19c94369b9&#45;&gt;dir_261f67b82c2cb416f656d185a1fa5017 -->
<g id="edge7" class="edge">
<title>dir_6779bea9991003ae841a4b19c94369b9&#45;&gt;dir_261f67b82c2cb416f656d185a1fa5017</title>
<path fill="none" stroke="black" d="M90.99,-71.7C102.81,-62.8 117.39,-51.82 130.18,-42.2"/>
<polygon fill="black" stroke="black" points="132.39,-44.91 138.28,-36.1 128.18,-39.32 132.39,-44.91"/>
<g id="a_edge7&#45;headlabel"><a xlink:href="dir_000080_000043.html" target="_top" xlink:title="4">
<text text-anchor="middle" x="131.23" y="-46.84" font-family="Helvetica,sans-Serif" font-size="10.00">4</text>
</a>
</g>
</g>
<!-- dir_6779bea9991003ae841a4b19c94369b9&#45;&gt;dir_b31d54d5631803016a26f28213a41162 -->
<g id="edge8" class="edge">
<title>dir_6779bea9991003ae841a4b19c94369b9&#45;&gt;dir_b31d54d5631803016a26f28213a41162</title>
<path fill="none" stroke="black" d="M92.47,-71.99C101.45,-66.31 111.9,-60.32 122,-56 151.11,-43.53 162.53,-46.68 196.32,-35.88"/>
<polygon fill="black" stroke="black" points="197.59,-39.15 205.94,-32.63 195.35,-32.52 197.59,-39.15"/>
<g id="a_edge8&#45;headlabel"><a xlink:href="dir_000080_000054.html" target="_top" xlink:title="1">
<text text-anchor="middle" x="195.09" y="-40.49" font-family="Helvetica,sans-Serif" font-size="10.00">1</text>
</a>
</g>
</g>
</g>
</svg>
