<?xml version="1.0" encoding="UTF-8" standalone="no"?>
<!DOCTYPE svg PUBLIC "-//W3C//DTD SVG 1.1//EN"
 "http://www.w3.org/Graphics/SVG/1.1/DTD/svg11.dtd">
<!-- Generated by graphviz version 2.43.0 (0)
 -->
<!-- Title: /home/kali/projects/vsomeip/implementation/routing Pages: 1 -->
<svg width="599pt" height="247pt"
 viewBox="0.00 0.00 599.00 247.00" xmlns="http://www.w3.org/2000/svg" xmlns:xlink="http://www.w3.org/1999/xlink">
<g id="graph0" class="graph" transform="scale(1 1) rotate(0) translate(4 243)">
<title>/home/kali/projects/vsomeip/implementation/routing</title>
<polygon fill="white" stroke="transparent" points="-4,4 -4,-243 595,-243 595,4 -4,4"/>
<g id="clust1" class="cluster">
<title>clusterdir_ed7c47a03c091bb19436c59342bc9555</title>
<g id="a_clust1"><a xlink:href="dir_ed7c47a03c091bb19436c59342bc9555.html" target="_top" xlink:title="implementation">
<polygon fill="#edf0f7" stroke="#404040" stroke-dasharray="5,2" points="8,-8 8,-231 521,-231 521,-8 8,-8"/>
<text text-anchor="middle" x="264.5" y="-219" font-family="Helvetica,sans-Serif" font-size="10.00">implementation</text>
</a>
</g>
</g>
<g id="clust2" class="cluster">
<title>clusterdir_cf72682d9b1c0bc1c562a1f19b8defa0</title>
<g id="a_clust2"><a xlink:href="dir_cf72682d9b1c0bc1c562a1f19b8defa0.html" target="_top">
<polygon fill="#edf0f7" stroke="#404040" stroke-width="2" points="16,-80 16,-204 158,-204 158,-80 16,-80"/>
</a>
</g>
</g>
<!-- dir_061a1b0a0a40a7427f2461ed2f520013 -->
<g id="node1" class="node">
<title>dir_061a1b0a0a40a7427f2461ed2f520013</title>
<g id="a_node1"><a xlink:href="dir_061a1b0a0a40a7427f2461ed2f520013.html" target="_top" xlink:title="service_discovery">
<polygon fill="#a2b4d6" stroke="red" points="120,-52 16,-52 16,-16 120,-16 120,-52"/>
<text text-anchor="middle" x="68" y="-31.5" font-family="Helvetica,sans-Serif" font-size="10.00">service_discovery</text>
</a>
</g>
</g>
<!-- dir_3ce07147fcbac31fc4d5892a851f6627 -->
<g id="node2" class="node">
<title>dir_3ce07147fcbac31fc4d5892a851f6627</title>
<g id="a_node2"><a xlink:href="dir_3ce07147fcbac31fc4d5892a851f6627.html" target="_top" xlink:title="message">
<polygon fill="#a2b4d6" stroke="red" points="199.5,-52 138.5,-52 138.5,-16 199.5,-16 199.5,-52"/>
<text text-anchor="middle" x="169" y="-31.5" font-family="Helvetica,sans-Serif" font-size="10.00">message</text>
</a>
</g>
</g>
<!-- dir_56126a1d848d4a1832817232e79a5a18 -->
<g id="node3" class="node">
<title>dir_56126a1d848d4a1832817232e79a5a18</title>
<g id="a_node3"><a xlink:href="dir_56126a1d848d4a1832817232e79a5a18.html" target="_top" xlink:title="configuration">
<polygon fill="#a2b4d6" stroke="red" points="363,-52 283,-52 283,-16 363,-16 363,-52"/>
<text text-anchor="middle" x="323" y="-31.5" font-family="Helvetica,sans-Serif" font-size="10.00">configuration</text>
</a>
</g>
</g>
<!-- dir_9c7b9d609ec855ab7fbf064b0ccf8e4e -->
<g id="node4" class="node">
<title>dir_9c7b9d609ec855ab7fbf064b0ccf8e4e</title>
<g id="a_node4"><a xlink:href="dir_9c7b9d609ec855ab7fbf064b0ccf8e4e.html" target="_top" xlink:title="endpoints">
<polygon fill="#a2b4d6" stroke="red" points="479.5,-52 414.5,-52 414.5,-16 479.5,-16 479.5,-52"/>
<text text-anchor="middle" x="447" y="-31.5" font-family="Helvetica,sans-Serif" font-size="10.00">endpoints</text>
</a>
</g>
</g>
<!-- dir_96312f6272b562b103a6f862042db4a4 -->
<g id="node5" class="node">
<title>dir_96312f6272b562b103a6f862042db4a4</title>
<g id="a_node5"><a xlink:href="dir_96312f6272b562b103a6f862042db4a4.html" target="_top" xlink:title="security">
<polygon fill="#a2b4d6" stroke="red" points="222,-124 166,-124 166,-88 222,-88 222,-124"/>
<text text-anchor="middle" x="194" y="-103.5" font-family="Helvetica,sans-Serif" font-size="10.00">security</text>
</a>
</g>
</g>
<!-- dir_6972051101bc5f8d68d31d49f06d7aaf -->
<g id="node6" class="node">
<title>dir_6972051101bc5f8d68d31d49f06d7aaf</title>
<g id="a_node6"><a xlink:href="dir_6972051101bc5f8d68d31d49f06d7aaf.html" target="_top" xlink:title="utility">
<polygon fill="#a2b4d6" stroke="red" points="294,-124 240,-124 240,-88 294,-88 294,-124"/>
<text text-anchor="middle" x="267" y="-103.5" font-family="Helvetica,sans-Serif" font-size="10.00">utility</text>
</a>
</g>
</g>
<!-- dir_f132f3c082319ace6827058f7d1d886d -->
<g id="node7" class="node">
<title>dir_f132f3c082319ace6827058f7d1d886d</title>
<g id="a_node7"><a xlink:href="dir_f132f3c082319ace6827058f7d1d886d.html" target="_top" xlink:title="plugin">
<polygon fill="#a2b4d6" stroke="red" points="366,-124 312,-124 312,-88 366,-88 366,-124"/>
<text text-anchor="middle" x="339" y="-103.5" font-family="Helvetica,sans-Serif" font-size="10.00">plugin</text>
</a>
</g>
</g>
<!-- dir_476f23a9d8d07b93b910130c774b1932 -->
<g id="node8" class="node">
<title>dir_476f23a9d8d07b93b910130c774b1932</title>
<g id="a_node8"><a xlink:href="dir_476f23a9d8d07b93b910130c774b1932.html" target="_top" xlink:title="e2e_protection">
<polygon fill="#a2b4d6" stroke="red" points="473.5,-124 384.5,-124 384.5,-88 473.5,-88 473.5,-124"/>
<text text-anchor="middle" x="429" y="-103.5" font-family="Helvetica,sans-Serif" font-size="10.00">e2e_protection</text>
</a>
</g>
</g>
<!-- dir_cf72682d9b1c0bc1c562a1f19b8defa0 -->
<g id="node9" class="node">
<title>dir_cf72682d9b1c0bc1c562a1f19b8defa0</title>
<text text-anchor="middle" x="123" y="-175.5" font-family="Helvetica,sans-Serif" font-size="10.00">routing</text>
</g>
<!-- dir_3bfeaedfdd72f75729bfd36e2baddd74 -->
<g id="node10" class="node">
<title>dir_3bfeaedfdd72f75729bfd36e2baddd74</title>
<g id="a_node10"><a xlink:href="dir_3bfeaedfdd72f75729bfd36e2baddd74.html" target="_top" xlink:title="include">
<polygon fill="#a2b4d6" stroke="#404040" points="148,-124 94,-124 94,-88 148,-88 148,-124"/>
<text text-anchor="middle" x="121" y="-103.5" font-family="Helvetica,sans-Serif" font-size="10.00">include</text>
</a>
</g>
</g>
<!-- dir_3bfeaedfdd72f75729bfd36e2baddd74&#45;&gt;dir_061a1b0a0a40a7427f2461ed2f520013 -->
<g id="edge1" class="edge">
<title>dir_3bfeaedfdd72f75729bfd36e2baddd74&#45;&gt;dir_061a1b0a0a40a7427f2461ed2f520013</title>
<path fill="none" stroke="black" d="M107.9,-87.7C101.61,-79.39 93.95,-69.28 87.04,-60.14"/>
<polygon fill="black" stroke="black" points="89.78,-57.96 80.95,-52.1 84.2,-62.19 89.78,-57.96"/>
<g id="a_edge1&#45;headlabel"><a xlink:href="dir_000048_000086.html" target="_top" xlink:title="1">
<text text-anchor="middle" x="94.21" y="-56.62" font-family="Helvetica,sans-Serif" font-size="10.00">1</text>
</a>
</g>
</g>
<!-- dir_3bfeaedfdd72f75729bfd36e2baddd74&#45;&gt;dir_3ce07147fcbac31fc4d5892a851f6627 -->
<g id="edge2" class="edge">
<title>dir_3bfeaedfdd72f75729bfd36e2baddd74&#45;&gt;dir_3ce07147fcbac31fc4d5892a851f6627</title>
<path fill="none" stroke="black" d="M132.87,-87.7C138.5,-79.47 145.35,-69.48 151.57,-60.42"/>
<polygon fill="black" stroke="black" points="154.5,-62.33 157.27,-52.1 148.73,-58.37 154.5,-62.33"/>
<g id="a_edge2&#45;headlabel"><a xlink:href="dir_000048_000069.html" target="_top" xlink:title="2">
<text text-anchor="middle" x="154.81" y="-64.4" font-family="Helvetica,sans-Serif" font-size="10.00">2</text>
</a>
</g>
</g>
<!-- dir_3bfeaedfdd72f75729bfd36e2baddd74&#45;&gt;dir_56126a1d848d4a1832817232e79a5a18 -->
<g id="edge3" class="edge">
<title>dir_3bfeaedfdd72f75729bfd36e2baddd74&#45;&gt;dir_56126a1d848d4a1832817232e79a5a18</title>
<path fill="none" stroke="black" d="M139.81,-87.79C143.65,-84.88 147.8,-82.12 152,-80 190.28,-60.65 237.7,-49.02 272.89,-42.44"/>
<polygon fill="black" stroke="black" points="273.71,-45.85 282.94,-40.64 272.48,-38.96 273.71,-45.85"/>
<g id="a_edge3&#45;headlabel"><a xlink:href="dir_000048_000019.html" target="_top" xlink:title="3">
<text text-anchor="middle" x="270.68" y="-46.78" font-family="Helvetica,sans-Serif" font-size="10.00">3</text>
</a>
</g>
</g>
<!-- dir_3bfeaedfdd72f75729bfd36e2baddd74&#45;&gt;dir_9c7b9d609ec855ab7fbf064b0ccf8e4e -->
<g id="edge4" class="edge">
<title>dir_3bfeaedfdd72f75729bfd36e2baddd74&#45;&gt;dir_9c7b9d609ec855ab7fbf064b0ccf8e4e</title>
<path fill="none" stroke="black" d="M138.92,-87.84C142.96,-84.78 147.42,-81.95 152,-80 242.68,-41.38 274.93,-69.14 372,-52 382.56,-50.14 393.88,-47.77 404.44,-45.39"/>
<polygon fill="black" stroke="black" points="405.32,-48.78 414.28,-43.14 403.75,-41.96 405.32,-48.78"/>
<g id="a_edge4&#45;headlabel"><a xlink:href="dir_000048_000032.html" target="_top" xlink:title="5">
<text text-anchor="middle" x="402.45" y="-49.86" font-family="Helvetica,sans-Serif" font-size="10.00">5</text>
</a>
</g>
</g>
<!-- dir_f26bb66bf46917193111165ea70066a5 -->
<g id="node11" class="node">
<title>dir_f26bb66bf46917193111165ea70066a5</title>
<g id="a_node11"><a xlink:href="dir_f26bb66bf46917193111165ea70066a5.html" target="_top" xlink:title="src">
<polygon fill="#a2b4d6" stroke="#404040" points="78,-196 24,-196 24,-160 78,-160 78,-196"/>
<text text-anchor="middle" x="51" y="-175.5" font-family="Helvetica,sans-Serif" font-size="10.00">src</text>
</a>
</g>
</g>
<!-- dir_f26bb66bf46917193111165ea70066a5&#45;&gt;dir_061a1b0a0a40a7427f2461ed2f520013 -->
<g id="edge5" class="edge">
<title>dir_f26bb66bf46917193111165ea70066a5&#45;&gt;dir_061a1b0a0a40a7427f2461ed2f520013</title>
<path fill="none" stroke="black" d="M53.05,-159.87C55.95,-135.67 61.27,-91.21 64.72,-62.39"/>
<polygon fill="black" stroke="black" points="68.23,-62.53 65.94,-52.19 61.28,-61.7 68.23,-62.53"/>
<g id="a_edge5&#45;headlabel"><a xlink:href="dir_000095_000086.html" target="_top" xlink:title="5">
<text text-anchor="middle" x="70.62" y="-63.94" font-family="Helvetica,sans-Serif" font-size="10.00">5</text>
</a>
</g>
</g>
<!-- dir_f26bb66bf46917193111165ea70066a5&#45;&gt;dir_3ce07147fcbac31fc4d5892a851f6627 -->
<g id="edge7" class="edge">
<title>dir_f26bb66bf46917193111165ea70066a5&#45;&gt;dir_3ce07147fcbac31fc4d5892a851f6627</title>
<path fill="none" stroke="black" d="M55.45,-159.65C61.99,-135.2 74.55,-92.2 85,-80 91.54,-72.37 110.78,-61.85 129.21,-52.9"/>
<polygon fill="black" stroke="black" points="130.88,-55.97 138.41,-48.52 127.87,-49.65 130.88,-55.97"/>
<g id="a_edge7&#45;headlabel"><a xlink:href="dir_000095_000069.html" target="_top" xlink:title="7">
<text text-anchor="middle" x="128.86" y="-57.58" font-family="Helvetica,sans-Serif" font-size="10.00">7</text>
</a>
</g>
</g>
<!-- dir_f26bb66bf46917193111165ea70066a5&#45;&gt;dir_56126a1d848d4a1832817232e79a5a18 -->
<g id="edge9" class="edge">
<title>dir_f26bb66bf46917193111165ea70066a5&#45;&gt;dir_56126a1d848d4a1832817232e79a5a18</title>
<path fill="none" stroke="black" d="M78.14,-162.98C81.08,-161.83 84.07,-160.8 87,-160 172.26,-136.78 423.41,-189.25 483,-124 496.19,-109.56 494.81,-95.59 483,-80 476.16,-70.97 417.44,-56.07 373.11,-45.91"/>
<polygon fill="black" stroke="black" points="373.85,-42.49 363.33,-43.69 372.3,-49.32 373.85,-42.49"/>
<g id="a_edge9&#45;headlabel"><a xlink:href="dir_000095_000019.html" target="_top" xlink:title="3">
<text text-anchor="middle" x="377.99" y="-38.02" font-family="Helvetica,sans-Serif" font-size="10.00">3</text>
</a>
</g>
</g>
<!-- dir_f26bb66bf46917193111165ea70066a5&#45;&gt;dir_9c7b9d609ec855ab7fbf064b0ccf8e4e -->
<g id="edge12" class="edge">
<title>dir_f26bb66bf46917193111165ea70066a5&#45;&gt;dir_9c7b9d609ec855ab7fbf064b0ccf8e4e</title>
<path fill="none" stroke="black" d="M78.14,-162.97C81.08,-161.82 84.06,-160.8 87,-160 174.2,-136.34 431,-190.66 492,-124 505.2,-109.57 499.48,-98.07 492,-80 488.85,-72.39 483.72,-65.4 478.03,-59.31"/>
<polygon fill="black" stroke="black" points="480.23,-56.57 470.63,-52.1 475.35,-61.58 480.23,-56.57"/>
<g id="a_edge12&#45;headlabel"><a xlink:href="dir_000095_000032.html" target="_top" xlink:title="15">
<text text-anchor="middle" x="484.79" y="-54.55" font-family="Helvetica,sans-Serif" font-size="10.00">15</text>
</a>
</g>
</g>
<!-- dir_f26bb66bf46917193111165ea70066a5&#45;&gt;dir_96312f6272b562b103a6f862042db4a4 -->
<g id="edge11" class="edge">
<title>dir_f26bb66bf46917193111165ea70066a5&#45;&gt;dir_96312f6272b562b103a6f862042db4a4</title>
<path fill="none" stroke="black" d="M78.22,-164.08C103.11,-152.25 138.43,-135.44 156.68,-126.56"/>
<polygon fill="black" stroke="black" points="158.34,-129.64 165.77,-122.08 155.25,-123.37 158.34,-129.64"/>
<g id="a_edge11&#45;headlabel"><a xlink:href="dir_000095_000085.html" target="_top" xlink:title="5">
<text text-anchor="middle" x="156.37" y="-131.28" font-family="Helvetica,sans-Serif" font-size="10.00">5</text>
</a>
</g>
</g>
<!-- dir_f26bb66bf46917193111165ea70066a5&#45;&gt;dir_6972051101bc5f8d68d31d49f06d7aaf -->
<g id="edge10" class="edge">
<title>dir_f26bb66bf46917193111165ea70066a5&#45;&gt;dir_6972051101bc5f8d68d31d49f06d7aaf</title>
<path fill="none" stroke="black" d="M78.28,-163.44C81.19,-162.2 84.14,-161.02 87,-160 146.21,-138.85 166.93,-145.47 230.08,-123.95"/>
<polygon fill="black" stroke="black" points="231.44,-127.18 239.72,-120.56 229.12,-120.58 231.44,-127.18"/>
<g id="a_edge10&#45;headlabel"><a xlink:href="dir_000095_000102.html" target="_top" xlink:title="8">
<text text-anchor="middle" x="228.99" y="-128.55" font-family="Helvetica,sans-Serif" font-size="10.00">8</text>
</a>
</g>
</g>
<!-- dir_f26bb66bf46917193111165ea70066a5&#45;&gt;dir_f132f3c082319ace6827058f7d1d886d -->
<g id="edge14" class="edge">
<title>dir_f26bb66bf46917193111165ea70066a5&#45;&gt;dir_f132f3c082319ace6827058f7d1d886d</title>
<path fill="none" stroke="black" d="M78.2,-163.2C81.13,-162.01 84.1,-160.91 87,-160 176.89,-131.88 208.1,-151.68 302.18,-123.75"/>
<polygon fill="black" stroke="black" points="303.26,-127.08 311.8,-120.8 301.21,-120.39 303.26,-127.08"/>
<g id="a_edge14&#45;headlabel"><a xlink:href="dir_000095_000070.html" target="_top" xlink:title="1">
<text text-anchor="middle" x="300.66" y="-128.35" font-family="Helvetica,sans-Serif" font-size="10.00">1</text>
</a>
</g>
</g>
<!-- dir_f26bb66bf46917193111165ea70066a5&#45;&gt;dir_476f23a9d8d07b93b910130c774b1932 -->
<g id="edge8" class="edge">
<title>dir_f26bb66bf46917193111165ea70066a5&#45;&gt;dir_476f23a9d8d07b93b910130c774b1932</title>
<path fill="none" stroke="black" d="M78.17,-163.08C81.1,-161.91 84.08,-160.85 87,-160 207.73,-124.92 246.98,-150.13 374.25,-123.89"/>
<polygon fill="black" stroke="black" points="375.33,-127.24 384.38,-121.73 373.87,-120.39 375.33,-127.24"/>
<g id="a_edge8&#45;headlabel"><a xlink:href="dir_000095_000029.html" target="_top" xlink:title="3">
<text text-anchor="middle" x="372.4" y="-128.26" font-family="Helvetica,sans-Serif" font-size="10.00">3</text>
</a>
</g>
</g>
<!-- dir_f26bb66bf46917193111165ea70066a5&#45;&gt;dir_3bfeaedfdd72f75729bfd36e2baddd74 -->
<g id="edge6" class="edge">
<title>dir_f26bb66bf46917193111165ea70066a5&#45;&gt;dir_3bfeaedfdd72f75729bfd36e2baddd74</title>
<path fill="none" stroke="black" d="M68.3,-159.7C76.86,-151.14 87.34,-140.66 96.7,-131.3"/>
<polygon fill="black" stroke="black" points="99.3,-133.65 103.9,-124.1 94.35,-128.7 99.3,-133.65"/>
<g id="a_edge6&#45;headlabel"><a xlink:href="dir_000095_000048.html" target="_top" xlink:title="21">
<text text-anchor="middle" x="98.77" y="-135.7" font-family="Helvetica,sans-Serif" font-size="10.00">21</text>
</a>
</g>
</g>
<!-- dir_b31d54d5631803016a26f28213a41162 -->
<g id="node12" class="node">
<title>dir_b31d54d5631803016a26f28213a41162</title>
<g id="a_node12"><a xlink:href="dir_b31d54d5631803016a26f28213a41162.html" target="_top" xlink:title="interface">
<polygon fill="none" stroke="red" points="591,-124 531,-124 531,-88 591,-88 591,-124"/>
<text text-anchor="middle" x="561" y="-103.5" font-family="Helvetica,sans-Serif" font-size="10.00">interface</text>
</a>
</g>
</g>
<!-- dir_f26bb66bf46917193111165ea70066a5&#45;&gt;dir_b31d54d5631803016a26f28213a41162 -->
<g id="edge13" class="edge">
<title>dir_f26bb66bf46917193111165ea70066a5&#45;&gt;dir_b31d54d5631803016a26f28213a41162</title>
<path fill="none" stroke="black" d="M78.13,-162.95C81.07,-161.8 84.06,-160.79 87,-160 272.45,-110.35 334.21,-172.33 520.8,-124.82"/>
<polygon fill="black" stroke="black" points="521.86,-128.16 530.65,-122.24 520.09,-121.39 521.86,-128.16"/>
<g id="a_edge13&#45;headlabel"><a xlink:href="dir_000095_000054.html" target="_top" xlink:title="7">
<text text-anchor="middle" x="519.1" y="-129.32" font-family="Helvetica,sans-Serif" font-size="10.00">7</text>
</a>
</g>
</g>
</g>
</svg>
