<?xml version="1.0" encoding="UTF-8" standalone="no"?>
<!DOCTYPE svg PUBLIC "-//W3C//DTD SVG 1.1//EN"
 "http://www.w3.org/Graphics/SVG/1.1/DTD/svg11.dtd">
<!-- Generated by graphviz version 2.43.0 (0)
 -->
<!-- Title: /home/kali/projects/vsomeip/implementation/endpoints/src Pages: 1 -->
<svg width="594pt" height="167pt"
 viewBox="0.00 0.00 594.00 167.00" xmlns="http://www.w3.org/2000/svg" xmlns:xlink="http://www.w3.org/1999/xlink">
<g id="graph0" class="graph" transform="scale(1 1) rotate(0) translate(4 163)">
<title>/home/kali/projects/vsomeip/implementation/endpoints/src</title>
<polygon fill="white" stroke="transparent" points="-4,4 -4,-163 590,-163 590,4 -4,4"/>
<g id="clust1" class="cluster">
<title>clusterdir_9c7b9d609ec855ab7fbf064b0ccf8e4e</title>
<g id="a_clust1"><a xlink:href="dir_9c7b9d609ec855ab7fbf064b0ccf8e4e.html" target="_top" xlink:title="endpoints">
<polygon fill="#edf0f7" stroke="#7f7f7f" stroke-dasharray="5,2" points="8,-8 8,-151 78,-151 78,-8 8,-8"/>
<text text-anchor="middle" x="43" y="-139" font-family="Helvetica,sans-Serif" font-size="10.00">endpoints</text>
</a>
</g>
</g>
<!-- dir_8aaf58c2a1b20b8bdef59baa467903fa -->
<g id="node1" class="node">
<title>dir_8aaf58c2a1b20b8bdef59baa467903fa</title>
<g id="a_node1"><a xlink:href="dir_8aaf58c2a1b20b8bdef59baa467903fa.html" target="_top" xlink:title="include">
<polygon fill="#a2b4d6" stroke="#404040" points="70,-52 16,-52 16,-16 70,-16 70,-52"/>
<text text-anchor="middle" x="43" y="-31.5" font-family="Helvetica,sans-Serif" font-size="10.00">include</text>
</a>
</g>
</g>
<!-- dir_fb9e29b304053fe32bd398f2f401d305 -->
<g id="node2" class="node">
<title>dir_fb9e29b304053fe32bd398f2f401d305</title>
<g id="a_node2"><a xlink:href="dir_fb9e29b304053fe32bd398f2f401d305.html" target="_top" xlink:title="src">
<polygon fill="#edf0f7" stroke="#404040" stroke-width="2" points="70,-124 16,-124 16,-88 70,-88 70,-124"/>
<text text-anchor="middle" x="43" y="-103.5" font-family="Helvetica,sans-Serif" font-size="10.00">src</text>
</a>
</g>
</g>
<!-- dir_fb9e29b304053fe32bd398f2f401d305&#45;&gt;dir_8aaf58c2a1b20b8bdef59baa467903fa -->
<g id="edge4" class="edge">
<title>dir_fb9e29b304053fe32bd398f2f401d305&#45;&gt;dir_8aaf58c2a1b20b8bdef59baa467903fa</title>
<path fill="none" stroke="black" d="M43,-87.7C43,-79.98 43,-70.71 43,-62.11"/>
<polygon fill="black" stroke="black" points="46.5,-62.1 43,-52.1 39.5,-62.1 46.5,-62.1"/>
<g id="a_edge4&#45;headlabel"><a xlink:href="dir_000091_000044.html" target="_top" xlink:title="45">
<text text-anchor="middle" x="49.34" y="-63.2" font-family="Helvetica,sans-Serif" font-size="10.00">45</text>
</a>
</g>
</g>
<!-- dir_061a1b0a0a40a7427f2461ed2f520013 -->
<g id="node3" class="node">
<title>dir_061a1b0a0a40a7427f2461ed2f520013</title>
<g id="a_node3"><a xlink:href="dir_061a1b0a0a40a7427f2461ed2f520013.html" target="_top" xlink:title="service_discovery">
<polygon fill="none" stroke="red" stroke-dasharray="5,2" points="192,-52 88,-52 88,-16 192,-16 192,-52"/>
<text text-anchor="middle" x="140" y="-31.5" font-family="Helvetica,sans-Serif" font-size="10.00">service_discovery</text>
</a>
</g>
</g>
<!-- dir_fb9e29b304053fe32bd398f2f401d305&#45;&gt;dir_061a1b0a0a40a7427f2461ed2f520013 -->
<g id="edge1" class="edge">
<title>dir_fb9e29b304053fe32bd398f2f401d305&#45;&gt;dir_061a1b0a0a40a7427f2461ed2f520013</title>
<path fill="none" stroke="black" d="M66.98,-87.7C79.31,-78.8 94.52,-67.82 107.85,-58.2"/>
<polygon fill="black" stroke="black" points="110.24,-60.79 116.3,-52.1 106.14,-55.12 110.24,-60.79"/>
<g id="a_edge1&#45;headlabel"><a xlink:href="dir_000091_000086.html" target="_top" xlink:title="2">
<text text-anchor="middle" x="108.98" y="-62.7" font-family="Helvetica,sans-Serif" font-size="10.00">2</text>
</a>
</g>
</g>
<!-- dir_56126a1d848d4a1832817232e79a5a18 -->
<g id="node4" class="node">
<title>dir_56126a1d848d4a1832817232e79a5a18</title>
<g id="a_node4"><a xlink:href="dir_56126a1d848d4a1832817232e79a5a18.html" target="_top" xlink:title="configuration">
<polygon fill="none" stroke="red" stroke-dasharray="5,2" points="290,-52 210,-52 210,-16 290,-16 290,-52"/>
<text text-anchor="middle" x="250" y="-31.5" font-family="Helvetica,sans-Serif" font-size="10.00">configuration</text>
</a>
</g>
</g>
<!-- dir_fb9e29b304053fe32bd398f2f401d305&#45;&gt;dir_56126a1d848d4a1832817232e79a5a18 -->
<g id="edge2" class="edge">
<title>dir_fb9e29b304053fe32bd398f2f401d305&#45;&gt;dir_56126a1d848d4a1832817232e79a5a18</title>
<path fill="none" stroke="black" d="M70.15,-95.99C99.8,-86.12 148.94,-69.72 200.29,-52.23"/>
<polygon fill="black" stroke="black" points="201.57,-55.49 209.9,-48.95 199.31,-48.86 201.57,-55.49"/>
<g id="a_edge2&#45;headlabel"><a xlink:href="dir_000091_000019.html" target="_top" xlink:title="7">
<text text-anchor="middle" x="199.08" y="-56.84" font-family="Helvetica,sans-Serif" font-size="10.00">7</text>
</a>
</g>
</g>
<!-- dir_6972051101bc5f8d68d31d49f06d7aaf -->
<g id="node5" class="node">
<title>dir_6972051101bc5f8d68d31d49f06d7aaf</title>
<g id="a_node5"><a xlink:href="dir_6972051101bc5f8d68d31d49f06d7aaf.html" target="_top" xlink:title="utility">
<polygon fill="none" stroke="red" stroke-dasharray="5,2" points="362,-52 308,-52 308,-16 362,-16 362,-52"/>
<text text-anchor="middle" x="335" y="-31.5" font-family="Helvetica,sans-Serif" font-size="10.00">utility</text>
</a>
</g>
</g>
<!-- dir_fb9e29b304053fe32bd398f2f401d305&#45;&gt;dir_6972051101bc5f8d68d31d49f06d7aaf -->
<g id="edge3" class="edge">
<title>dir_fb9e29b304053fe32bd398f2f401d305&#45;&gt;dir_6972051101bc5f8d68d31d49f06d7aaf</title>
<path fill="none" stroke="black" d="M70.08,-101.55C115.75,-95.27 210.86,-80.24 298.24,-51.84"/>
<polygon fill="black" stroke="black" points="299.37,-55.15 307.76,-48.68 297.17,-48.51 299.37,-55.15"/>
<g id="a_edge3&#45;headlabel"><a xlink:href="dir_000091_000102.html" target="_top" xlink:title="19">
<text text-anchor="middle" x="296.85" y="-56.48" font-family="Helvetica,sans-Serif" font-size="10.00">19</text>
</a>
</g>
</g>
<!-- dir_96312f6272b562b103a6f862042db4a4 -->
<g id="node6" class="node">
<title>dir_96312f6272b562b103a6f862042db4a4</title>
<g id="a_node6"><a xlink:href="dir_96312f6272b562b103a6f862042db4a4.html" target="_top" xlink:title="security">
<polygon fill="none" stroke="red" stroke-dasharray="5,2" points="436,-52 380,-52 380,-16 436,-16 436,-52"/>
<text text-anchor="middle" x="408" y="-31.5" font-family="Helvetica,sans-Serif" font-size="10.00">security</text>
</a>
</g>
</g>
<!-- dir_fb9e29b304053fe32bd398f2f401d305&#45;&gt;dir_96312f6272b562b103a6f862042db4a4 -->
<g id="edge5" class="edge">
<title>dir_fb9e29b304053fe32bd398f2f401d305&#45;&gt;dir_96312f6272b562b103a6f862042db4a4</title>
<path fill="none" stroke="black" d="M70.35,-103.09C125.79,-98.69 255.23,-85.74 369.97,-51.87"/>
<polygon fill="black" stroke="black" points="371.05,-55.2 379.62,-48.97 369.03,-48.5 371.05,-55.2"/>
<g id="a_edge5&#45;headlabel"><a xlink:href="dir_000091_000085.html" target="_top" xlink:title="3">
<text text-anchor="middle" x="368.43" y="-56.46" font-family="Helvetica,sans-Serif" font-size="10.00">3</text>
</a>
</g>
</g>
<!-- dir_b31d54d5631803016a26f28213a41162 -->
<g id="node7" class="node">
<title>dir_b31d54d5631803016a26f28213a41162</title>
<g id="a_node7"><a xlink:href="dir_b31d54d5631803016a26f28213a41162.html" target="_top" xlink:title="interface">
<polygon fill="none" stroke="red" points="514,-52 454,-52 454,-16 514,-16 514,-52"/>
<text text-anchor="middle" x="484" y="-31.5" font-family="Helvetica,sans-Serif" font-size="10.00">interface</text>
</a>
</g>
</g>
<!-- dir_fb9e29b304053fe32bd398f2f401d305&#45;&gt;dir_b31d54d5631803016a26f28213a41162 -->
<g id="edge6" class="edge">
<title>dir_fb9e29b304053fe32bd398f2f401d305&#45;&gt;dir_b31d54d5631803016a26f28213a41162</title>
<path fill="none" stroke="black" d="M70.34,-104.02C134.58,-101.18 300,-90.66 443.76,-51.91"/>
<polygon fill="black" stroke="black" points="444.92,-55.22 453.64,-49.19 443.07,-48.47 444.92,-55.22"/>
<g id="a_edge6&#45;headlabel"><a xlink:href="dir_000091_000054.html" target="_top" xlink:title="17">
<text text-anchor="middle" x="442.21" y="-56.41" font-family="Helvetica,sans-Serif" font-size="10.00">17</text>
</a>
</g>
</g>
<!-- dir_cf72682d9b1c0bc1c562a1f19b8defa0 -->
<g id="node8" class="node">
<title>dir_cf72682d9b1c0bc1c562a1f19b8defa0</title>
<g id="a_node8"><a xlink:href="dir_cf72682d9b1c0bc1c562a1f19b8defa0.html" target="_top" xlink:title="routing">
<polygon fill="none" stroke="red" stroke-dasharray="5,2" points="586,-52 532,-52 532,-16 586,-16 586,-52"/>
<text text-anchor="middle" x="559" y="-31.5" font-family="Helvetica,sans-Serif" font-size="10.00">routing</text>
</a>
</g>
</g>
<!-- dir_fb9e29b304053fe32bd398f2f401d305&#45;&gt;dir_cf72682d9b1c0bc1c562a1f19b8defa0 -->
<g id="edge7" class="edge">
<title>dir_fb9e29b304053fe32bd398f2f401d305&#45;&gt;dir_cf72682d9b1c0bc1c562a1f19b8defa0</title>
<path fill="none" stroke="black" d="M70.13,-105.11C142.84,-104.76 347.8,-99.54 522,-51.72"/>
<polygon fill="black" stroke="black" points="523.16,-55.03 531.85,-48.96 521.27,-48.29 523.16,-55.03"/>
<g id="a_edge7&#45;headlabel"><a xlink:href="dir_000091_000082.html" target="_top" xlink:title="11">
<text text-anchor="middle" x="520.46" y="-56.23" font-family="Helvetica,sans-Serif" font-size="10.00">11</text>
</a>
</g>
</g>
</g>
</svg>
