<?xml version="1.0" encoding="UTF-8" standalone="no"?>
<!DOCTYPE svg PUBLIC "-//W3C//DTD SVG 1.1//EN"
 "http://www.w3.org/Graphics/SVG/1.1/DTD/svg11.dtd">
<!-- Generated by graphviz version 2.43.0 (0)
 -->
<!-- Title: /home/kali/projects/vsomeip/implementation/e2e_protection/src/e2e/profile/profile04 Pages: 1 -->
<svg width="140pt" height="151pt"
 viewBox="0.00 0.00 140.00 151.00" xmlns="http://www.w3.org/2000/svg" xmlns:xlink="http://www.w3.org/1999/xlink">
<g id="graph0" class="graph" transform="scale(1 1) rotate(0) translate(4 147)">
<title>/home/kali/projects/vsomeip/implementation/e2e_protection/src/e2e/profile/profile04</title>
<polygon fill="white" stroke="transparent" points="-4,4 -4,-147 136,-147 136,4 -4,4"/>
<g id="clust1" class="cluster">
<title>clusterdir_1a314ca59dd122efcbdf7cfcbe800b87</title>
<g id="a_clust1"><a xlink:href="dir_1a314ca59dd122efcbdf7cfcbe800b87.html" target="_top" xlink:title="profile">
<polygon fill="#edf0f7" stroke="#7f7f7f" stroke-dasharray="5,2" points="26,-64 26,-135 102,-135 102,-64 26,-64"/>
<text text-anchor="middle" x="64" y="-123" font-family="Helvetica,sans-Serif" font-size="10.00">profile</text>
</a>
</g>
</g>
<!-- dir_59eeb17f1a610b36d7482110bd017406 -->
<g id="node1" class="node">
<title>dir_59eeb17f1a610b36d7482110bd017406</title>
<g id="a_node1"><a xlink:href="dir_59eeb17f1a610b36d7482110bd017406.html" target="_top" xlink:title="profile04">
<polygon fill="#edf0f7" stroke="#404040" stroke-width="2" points="93.5,-108 34.5,-108 34.5,-72 93.5,-72 93.5,-108"/>
<text text-anchor="middle" x="64" y="-87.5" font-family="Helvetica,sans-Serif" font-size="10.00">profile04</text>
</a>
</g>
</g>
<!-- dir_261f67b82c2cb416f656d185a1fa5017 -->
<g id="node2" class="node">
<title>dir_261f67b82c2cb416f656d185a1fa5017</title>
<g id="a_node2"><a xlink:href="dir_261f67b82c2cb416f656d185a1fa5017.html" target="_top" xlink:title="include">
<polygon fill="none" stroke="red" stroke-dasharray="5,2" points="54,-36 0,-36 0,0 54,0 54,-36"/>
<text text-anchor="middle" x="27" y="-15.5" font-family="Helvetica,sans-Serif" font-size="10.00">include</text>
</a>
</g>
</g>
<!-- dir_59eeb17f1a610b36d7482110bd017406&#45;&gt;dir_261f67b82c2cb416f656d185a1fa5017 -->
<g id="edge1" class="edge">
<title>dir_59eeb17f1a610b36d7482110bd017406&#45;&gt;dir_261f67b82c2cb416f656d185a1fa5017</title>
<path fill="none" stroke="black" d="M54.85,-71.7C50.6,-63.64 45.44,-53.89 40.73,-44.98"/>
<polygon fill="black" stroke="black" points="43.81,-43.31 36.04,-36.1 37.62,-46.58 43.81,-43.31"/>
<g id="a_edge1&#45;headlabel"><a xlink:href="dir_000078_000043.html" target="_top" xlink:title="4">
<text text-anchor="middle" x="48" y="-42.66" font-family="Helvetica,sans-Serif" font-size="10.00">4</text>
</a>
</g>
</g>
<!-- dir_b31d54d5631803016a26f28213a41162 -->
<g id="node3" class="node">
<title>dir_b31d54d5631803016a26f28213a41162</title>
<g id="a_node3"><a xlink:href="dir_b31d54d5631803016a26f28213a41162.html" target="_top" xlink:title="interface">
<polygon fill="none" stroke="red" points="132,-36 72,-36 72,0 132,0 132,-36"/>
<text text-anchor="middle" x="102" y="-15.5" font-family="Helvetica,sans-Serif" font-size="10.00">interface</text>
</a>
</g>
</g>
<!-- dir_59eeb17f1a610b36d7482110bd017406&#45;&gt;dir_b31d54d5631803016a26f28213a41162 -->
<g id="edge2" class="edge">
<title>dir_59eeb17f1a610b36d7482110bd017406&#45;&gt;dir_b31d54d5631803016a26f28213a41162</title>
<path fill="none" stroke="black" d="M73.39,-71.7C77.76,-63.64 83.06,-53.89 87.9,-44.98"/>
<polygon fill="black" stroke="black" points="91.02,-46.56 92.71,-36.1 84.87,-43.22 91.02,-46.56"/>
<g id="a_edge2&#45;headlabel"><a xlink:href="dir_000078_000054.html" target="_top" xlink:title="2">
<text text-anchor="middle" x="91.8" y="-48.58" font-family="Helvetica,sans-Serif" font-size="10.00">2</text>
</a>
</g>
</g>
</g>
</svg>
