<?xml version="1.0" encoding="UTF-8" standalone="no"?>
<!DOCTYPE svg PUBLIC "-//W3C//DTD SVG 1.1//EN"
 "http://www.w3.org/Graphics/SVG/1.1/DTD/svg11.dtd">
<!-- Generated by graphviz version 2.43.0 (0)
 -->
<!-- Title: /home/kali/projects/vsomeip/implementation/utility Pages: 1 -->
<svg width="332pt" height="183pt"
 viewBox="0.00 0.00 332.00 183.00" xmlns="http://www.w3.org/2000/svg" xmlns:xlink="http://www.w3.org/1999/xlink">
<g id="graph0" class="graph" transform="scale(1 1) rotate(0) translate(4 179)">
<title>/home/kali/projects/vsomeip/implementation/utility</title>
<polygon fill="white" stroke="transparent" points="-4,4 -4,-179 328,-179 328,4 -4,4"/>
<g id="clust1" class="cluster">
<title>clusterdir_ed7c47a03c091bb19436c59342bc9555</title>
<g id="a_clust1"><a xlink:href="dir_ed7c47a03c091bb19436c59342bc9555.html" target="_top" xlink:title="implementation">
<polygon fill="#edf0f7" stroke="#404040" stroke-dasharray="5,2" points="8,-8 8,-167 254,-167 254,-8 8,-8"/>
<text text-anchor="middle" x="131" y="-155" font-family="Helvetica,sans-Serif" font-size="10.00">implementation</text>
</a>
</g>
</g>
<g id="clust2" class="cluster">
<title>clusterdir_6972051101bc5f8d68d31d49f06d7aaf</title>
<g id="a_clust2"><a xlink:href="dir_6972051101bc5f8d68d31d49f06d7aaf.html" target="_top">
<polygon fill="#edf0f7" stroke="#404040" stroke-width="2" points="16,-16 16,-140 158,-140 158,-16 16,-16"/>
</a>
</g>
</g>
<!-- dir_56126a1d848d4a1832817232e79a5a18 -->
<g id="node1" class="node">
<title>dir_56126a1d848d4a1832817232e79a5a18</title>
<g id="a_node1"><a xlink:href="dir_56126a1d848d4a1832817232e79a5a18.html" target="_top" xlink:title="configuration">
<polygon fill="#a2b4d6" stroke="red" points="246,-60 166,-60 166,-24 246,-24 246,-60"/>
<text text-anchor="middle" x="206" y="-39.5" font-family="Helvetica,sans-Serif" font-size="10.00">configuration</text>
</a>
</g>
</g>
<!-- dir_6972051101bc5f8d68d31d49f06d7aaf -->
<g id="node2" class="node">
<title>dir_6972051101bc5f8d68d31d49f06d7aaf</title>
<text text-anchor="middle" x="123" y="-111.5" font-family="Helvetica,sans-Serif" font-size="10.00">utility</text>
</g>
<!-- dir_c55cdcbcef01c53505d84ff6d832833c -->
<g id="node3" class="node">
<title>dir_c55cdcbcef01c53505d84ff6d832833c</title>
<g id="a_node3"><a xlink:href="dir_c55cdcbcef01c53505d84ff6d832833c.html" target="_top" xlink:title="include">
<polygon fill="#a2b4d6" stroke="#404040" points="78,-60 24,-60 24,-24 78,-24 78,-60"/>
<text text-anchor="middle" x="51" y="-39.5" font-family="Helvetica,sans-Serif" font-size="10.00">include</text>
</a>
</g>
</g>
<!-- dir_5c12ad307da9413515ca9f56b7c1b1c0 -->
<g id="node4" class="node">
<title>dir_5c12ad307da9413515ca9f56b7c1b1c0</title>
<g id="a_node4"><a xlink:href="dir_5c12ad307da9413515ca9f56b7c1b1c0.html" target="_top" xlink:title="src">
<polygon fill="#a2b4d6" stroke="#404040" points="78,-132 24,-132 24,-96 78,-96 78,-132"/>
<text text-anchor="middle" x="51" y="-111.5" font-family="Helvetica,sans-Serif" font-size="10.00">src</text>
</a>
</g>
</g>
<!-- dir_5c12ad307da9413515ca9f56b7c1b1c0&#45;&gt;dir_56126a1d848d4a1832817232e79a5a18 -->
<g id="edge1" class="edge">
<title>dir_5c12ad307da9413515ca9f56b7c1b1c0&#45;&gt;dir_56126a1d848d4a1832817232e79a5a18</title>
<path fill="none" stroke="black" d="M78.1,-100.13C81.1,-98.72 84.11,-97.33 87,-96 110.19,-85.36 136.05,-73.81 157.72,-64.21"/>
<polygon fill="black" stroke="black" points="159.32,-67.33 167.05,-60.09 156.48,-60.93 159.32,-67.33"/>
<g id="a_edge1&#45;headlabel"><a xlink:href="dir_000100_000019.html" target="_top" xlink:title="1">
<text text-anchor="middle" x="157.18" y="-68.88" font-family="Helvetica,sans-Serif" font-size="10.00">1</text>
</a>
</g>
</g>
<!-- dir_5c12ad307da9413515ca9f56b7c1b1c0&#45;&gt;dir_c55cdcbcef01c53505d84ff6d832833c -->
<g id="edge3" class="edge">
<title>dir_5c12ad307da9413515ca9f56b7c1b1c0&#45;&gt;dir_c55cdcbcef01c53505d84ff6d832833c</title>
<path fill="none" stroke="black" d="M51,-95.7C51,-87.98 51,-78.71 51,-70.11"/>
<polygon fill="black" stroke="black" points="54.5,-70.1 51,-60.1 47.5,-70.1 54.5,-70.1"/>
<g id="a_edge3&#45;headlabel"><a xlink:href="dir_000100_000053.html" target="_top" xlink:title="3">
<text text-anchor="middle" x="57.34" y="-71.2" font-family="Helvetica,sans-Serif" font-size="10.00">3</text>
</a>
</g>
</g>
<!-- dir_b31d54d5631803016a26f28213a41162 -->
<g id="node5" class="node">
<title>dir_b31d54d5631803016a26f28213a41162</title>
<g id="a_node5"><a xlink:href="dir_b31d54d5631803016a26f28213a41162.html" target="_top" xlink:title="interface">
<polygon fill="none" stroke="red" points="324,-60 264,-60 264,-24 324,-24 324,-60"/>
<text text-anchor="middle" x="294" y="-39.5" font-family="Helvetica,sans-Serif" font-size="10.00">interface</text>
</a>
</g>
</g>
<!-- dir_5c12ad307da9413515ca9f56b7c1b1c0&#45;&gt;dir_b31d54d5631803016a26f28213a41162 -->
<g id="edge2" class="edge">
<title>dir_5c12ad307da9413515ca9f56b7c1b1c0&#45;&gt;dir_b31d54d5631803016a26f28213a41162</title>
<path fill="none" stroke="black" d="M78.24,-99.33C81.16,-98.11 84.12,-96.97 87,-96 157.6,-72.26 182.35,-83.71 254.45,-60.93"/>
<polygon fill="black" stroke="black" points="255.55,-64.25 263.96,-57.81 253.37,-57.59 255.55,-64.25"/>
<g id="a_edge2&#45;headlabel"><a xlink:href="dir_000100_000054.html" target="_top" xlink:title="1">
<text text-anchor="middle" x="253.02" y="-65.56" font-family="Helvetica,sans-Serif" font-size="10.00">1</text>
</a>
</g>
</g>
</g>
</svg>
