<?xml version="1.0" encoding="UTF-8" standalone="no"?>
<!DOCTYPE svg PUBLIC "-//W3C//DTD SVG 1.1//EN"
 "http://www.w3.org/Graphics/SVG/1.1/DTD/svg11.dtd">
<!-- Generated by graphviz version 2.43.0 (0)
 -->
<!-- Title: /home/kali/projects/vsomeip/implementation/service_discovery Pages: 1 -->
<svg width="428pt" height="247pt"
 viewBox="0.00 0.00 428.00 247.00" xmlns="http://www.w3.org/2000/svg" xmlns:xlink="http://www.w3.org/1999/xlink">
<g id="graph0" class="graph" transform="scale(1 1) rotate(0) translate(4 243)">
<title>/home/kali/projects/vsomeip/implementation/service_discovery</title>
<polygon fill="white" stroke="transparent" points="-4,4 -4,-243 424,-243 424,4 -4,4"/>
<g id="clust1" class="cluster">
<title>clusterdir_ed7c47a03c091bb19436c59342bc9555</title>
<g id="a_clust1"><a xlink:href="dir_ed7c47a03c091bb19436c59342bc9555.html" target="_top" xlink:title="implementation">
<polygon fill="#edf0f7" stroke="#404040" stroke-dasharray="5,2" points="8,-8 8,-231 350,-231 350,-8 8,-8"/>
<text text-anchor="middle" x="179" y="-219" font-family="Helvetica,sans-Serif" font-size="10.00">implementation</text>
</a>
</g>
</g>
<g id="clust2" class="cluster">
<title>clusterdir_061a1b0a0a40a7427f2461ed2f520013</title>
<g id="a_clust2"><a xlink:href="dir_061a1b0a0a40a7427f2461ed2f520013.html" target="_top">
<polygon fill="#edf0f7" stroke="#404040" stroke-width="2" points="16,-80 16,-204 208,-204 208,-80 16,-80"/>
</a>
</g>
</g>
<!-- dir_3ce07147fcbac31fc4d5892a851f6627 -->
<g id="node1" class="node">
<title>dir_3ce07147fcbac31fc4d5892a851f6627</title>
<g id="a_node1"><a xlink:href="dir_3ce07147fcbac31fc4d5892a851f6627.html" target="_top" xlink:title="message">
<polygon fill="#a2b4d6" stroke="red" points="77.5,-52 16.5,-52 16.5,-16 77.5,-16 77.5,-52"/>
<text text-anchor="middle" x="47" y="-31.5" font-family="Helvetica,sans-Serif" font-size="10.00">message</text>
</a>
</g>
</g>
<!-- dir_56126a1d848d4a1832817232e79a5a18 -->
<g id="node2" class="node">
<title>dir_56126a1d848d4a1832817232e79a5a18</title>
<g id="a_node2"><a xlink:href="dir_56126a1d848d4a1832817232e79a5a18.html" target="_top" xlink:title="configuration">
<polygon fill="#a2b4d6" stroke="red" points="176,-52 96,-52 96,-16 176,-16 176,-52"/>
<text text-anchor="middle" x="136" y="-31.5" font-family="Helvetica,sans-Serif" font-size="10.00">configuration</text>
</a>
</g>
</g>
<!-- dir_9c7b9d609ec855ab7fbf064b0ccf8e4e -->
<g id="node3" class="node">
<title>dir_9c7b9d609ec855ab7fbf064b0ccf8e4e</title>
<g id="a_node3"><a xlink:href="dir_9c7b9d609ec855ab7fbf064b0ccf8e4e.html" target="_top" xlink:title="endpoints">
<polygon fill="#a2b4d6" stroke="red" points="259.5,-52 194.5,-52 194.5,-16 259.5,-16 259.5,-52"/>
<text text-anchor="middle" x="227" y="-31.5" font-family="Helvetica,sans-Serif" font-size="10.00">endpoints</text>
</a>
</g>
</g>
<!-- dir_cf72682d9b1c0bc1c562a1f19b8defa0 -->
<g id="node4" class="node">
<title>dir_cf72682d9b1c0bc1c562a1f19b8defa0</title>
<g id="a_node4"><a xlink:href="dir_cf72682d9b1c0bc1c562a1f19b8defa0.html" target="_top" xlink:title="routing">
<polygon fill="#a2b4d6" stroke="red" points="332,-52 278,-52 278,-16 332,-16 332,-52"/>
<text text-anchor="middle" x="305" y="-31.5" font-family="Helvetica,sans-Serif" font-size="10.00">routing</text>
</a>
</g>
</g>
<!-- dir_f132f3c082319ace6827058f7d1d886d -->
<g id="node5" class="node">
<title>dir_f132f3c082319ace6827058f7d1d886d</title>
<g id="a_node5"><a xlink:href="dir_f132f3c082319ace6827058f7d1d886d.html" target="_top" xlink:title="plugin">
<polygon fill="#a2b4d6" stroke="red" points="270,-124 216,-124 216,-88 270,-88 270,-124"/>
<text text-anchor="middle" x="243" y="-103.5" font-family="Helvetica,sans-Serif" font-size="10.00">plugin</text>
</a>
</g>
</g>
<!-- dir_6972051101bc5f8d68d31d49f06d7aaf -->
<g id="node6" class="node">
<title>dir_6972051101bc5f8d68d31d49f06d7aaf</title>
<g id="a_node6"><a xlink:href="dir_6972051101bc5f8d68d31d49f06d7aaf.html" target="_top" xlink:title="utility">
<polygon fill="#a2b4d6" stroke="red" points="342,-124 288,-124 288,-88 342,-88 342,-124"/>
<text text-anchor="middle" x="315" y="-103.5" font-family="Helvetica,sans-Serif" font-size="10.00">utility</text>
</a>
</g>
</g>
<!-- dir_061a1b0a0a40a7427f2461ed2f520013 -->
<g id="node7" class="node">
<title>dir_061a1b0a0a40a7427f2461ed2f520013</title>
<text text-anchor="middle" x="148" y="-175.5" font-family="Helvetica,sans-Serif" font-size="10.00">service_discovery</text>
</g>
<!-- dir_e536cd6c38eff7239838b1bcd538af89 -->
<g id="node8" class="node">
<title>dir_e536cd6c38eff7239838b1bcd538af89</title>
<g id="a_node8"><a xlink:href="dir_e536cd6c38eff7239838b1bcd538af89.html" target="_top" xlink:title="include">
<polygon fill="#a2b4d6" stroke="#404040" points="158,-124 104,-124 104,-88 158,-88 158,-124"/>
<text text-anchor="middle" x="131" y="-103.5" font-family="Helvetica,sans-Serif" font-size="10.00">include</text>
</a>
</g>
</g>
<!-- dir_e536cd6c38eff7239838b1bcd538af89&#45;&gt;dir_3ce07147fcbac31fc4d5892a851f6627 -->
<g id="edge1" class="edge">
<title>dir_e536cd6c38eff7239838b1bcd538af89&#45;&gt;dir_3ce07147fcbac31fc4d5892a851f6627</title>
<path fill="none" stroke="black" d="M110.24,-87.7C99.76,-78.97 86.89,-68.24 75.5,-58.75"/>
<polygon fill="black" stroke="black" points="77.45,-55.82 67.53,-52.1 72.97,-61.19 77.45,-55.82"/>
<g id="a_edge1&#45;headlabel"><a xlink:href="dir_000051_000069.html" target="_top" xlink:title="2">
<text text-anchor="middle" x="82.03" y="-53.44" font-family="Helvetica,sans-Serif" font-size="10.00">2</text>
</a>
</g>
</g>
<!-- dir_e536cd6c38eff7239838b1bcd538af89&#45;&gt;dir_56126a1d848d4a1832817232e79a5a18 -->
<g id="edge2" class="edge">
<title>dir_e536cd6c38eff7239838b1bcd538af89&#45;&gt;dir_56126a1d848d4a1832817232e79a5a18</title>
<path fill="none" stroke="black" d="M132.24,-87.7C132.79,-79.98 133.45,-70.71 134.06,-62.11"/>
<polygon fill="black" stroke="black" points="137.56,-62.33 134.78,-52.1 130.57,-61.83 137.56,-62.33"/>
<g id="a_edge2&#45;headlabel"><a xlink:href="dir_000051_000019.html" target="_top" xlink:title="1">
<text text-anchor="middle" x="140.13" y="-63.62" font-family="Helvetica,sans-Serif" font-size="10.00">1</text>
</a>
</g>
</g>
<!-- dir_e536cd6c38eff7239838b1bcd538af89&#45;&gt;dir_9c7b9d609ec855ab7fbf064b0ccf8e4e -->
<g id="edge3" class="edge">
<title>dir_e536cd6c38eff7239838b1bcd538af89&#45;&gt;dir_9c7b9d609ec855ab7fbf064b0ccf8e4e</title>
<path fill="none" stroke="black" d="M151.85,-87.85C155.21,-85.18 158.68,-82.48 162,-80 171.86,-72.63 182.79,-64.89 192.84,-57.96"/>
<polygon fill="black" stroke="black" points="195.11,-60.64 201.38,-52.1 191.16,-54.87 195.11,-60.64"/>
<g id="a_edge3&#45;headlabel"><a xlink:href="dir_000051_000032.html" target="_top" xlink:title="4">
<text text-anchor="middle" x="193.75" y="-62.52" font-family="Helvetica,sans-Serif" font-size="10.00">4</text>
</a>
</g>
</g>
<!-- dir_e536cd6c38eff7239838b1bcd538af89&#45;&gt;dir_cf72682d9b1c0bc1c562a1f19b8defa0 -->
<g id="edge4" class="edge">
<title>dir_e536cd6c38eff7239838b1bcd538af89&#45;&gt;dir_cf72682d9b1c0bc1c562a1f19b8defa0</title>
<path fill="none" stroke="black" d="M149.81,-87.78C153.65,-84.87 157.8,-82.12 162,-80 203.23,-59.2 220.65,-67.59 268.14,-51.88"/>
<polygon fill="black" stroke="black" points="269.42,-55.14 277.71,-48.53 267.11,-48.53 269.42,-55.14"/>
<g id="a_edge4&#45;headlabel"><a xlink:href="dir_000051_000082.html" target="_top" xlink:title="5">
<text text-anchor="middle" x="266.97" y="-56.51" font-family="Helvetica,sans-Serif" font-size="10.00">5</text>
</a>
</g>
</g>
<!-- dir_b9897dd8b4337efdb18d6c26c10007d0 -->
<g id="node9" class="node">
<title>dir_b9897dd8b4337efdb18d6c26c10007d0</title>
<g id="a_node9"><a xlink:href="dir_b9897dd8b4337efdb18d6c26c10007d0.html" target="_top" xlink:title="src">
<polygon fill="#a2b4d6" stroke="#404040" points="78,-196 24,-196 24,-160 78,-160 78,-196"/>
<text text-anchor="middle" x="51" y="-175.5" font-family="Helvetica,sans-Serif" font-size="10.00">src</text>
</a>
</g>
</g>
<!-- dir_b9897dd8b4337efdb18d6c26c10007d0&#45;&gt;dir_3ce07147fcbac31fc4d5892a851f6627 -->
<g id="edge5" class="edge">
<title>dir_b9897dd8b4337efdb18d6c26c10007d0&#45;&gt;dir_3ce07147fcbac31fc4d5892a851f6627</title>
<path fill="none" stroke="black" d="M50.52,-159.87C49.84,-135.67 48.58,-91.21 47.77,-62.39"/>
<polygon fill="black" stroke="black" points="51.26,-62.09 47.48,-52.19 44.27,-62.28 51.26,-62.09"/>
<g id="a_edge5&#45;headlabel"><a xlink:href="dir_000098_000069.html" target="_top" xlink:title="26">
<text text-anchor="middle" x="54.2" y="-63.1" font-family="Helvetica,sans-Serif" font-size="10.00">26</text>
</a>
</g>
</g>
<!-- dir_b9897dd8b4337efdb18d6c26c10007d0&#45;&gt;dir_56126a1d848d4a1832817232e79a5a18 -->
<g id="edge6" class="edge">
<title>dir_b9897dd8b4337efdb18d6c26c10007d0&#45;&gt;dir_56126a1d848d4a1832817232e79a5a18</title>
<path fill="none" stroke="black" d="M56.97,-159.69C64.3,-139.61 77.91,-105.95 95,-80 99.58,-73.05 105.22,-66.12 110.84,-59.85"/>
<polygon fill="black" stroke="black" points="113.6,-62.02 117.86,-52.31 108.48,-57.24 113.6,-62.02"/>
<g id="a_edge6&#45;headlabel"><a xlink:href="dir_000098_000019.html" target="_top" xlink:title="2">
<text text-anchor="middle" x="113.23" y="-64.08" font-family="Helvetica,sans-Serif" font-size="10.00">2</text>
</a>
</g>
</g>
<!-- dir_b9897dd8b4337efdb18d6c26c10007d0&#45;&gt;dir_9c7b9d609ec855ab7fbf064b0ccf8e4e -->
<g id="edge8" class="edge">
<title>dir_b9897dd8b4337efdb18d6c26c10007d0&#45;&gt;dir_9c7b9d609ec855ab7fbf064b0ccf8e4e</title>
<path fill="none" stroke="black" d="M78.1,-164.14C81.1,-162.73 84.11,-161.33 87,-160 122.41,-143.67 138.17,-150.25 167,-124 183.63,-108.86 179.51,-98.7 192,-80 196.38,-73.44 201.43,-66.59 206.31,-60.29"/>
<polygon fill="black" stroke="black" points="209.33,-62.11 212.77,-52.09 203.83,-57.78 209.33,-62.11"/>
<g id="a_edge8&#45;headlabel"><a xlink:href="dir_000098_000032.html" target="_top" xlink:title="5">
<text text-anchor="middle" x="209.33" y="-64.19" font-family="Helvetica,sans-Serif" font-size="10.00">5</text>
</a>
</g>
</g>
<!-- dir_b9897dd8b4337efdb18d6c26c10007d0&#45;&gt;dir_cf72682d9b1c0bc1c562a1f19b8defa0 -->
<g id="edge10" class="edge">
<title>dir_b9897dd8b4337efdb18d6c26c10007d0&#45;&gt;dir_cf72682d9b1c0bc1c562a1f19b8defa0</title>
<path fill="none" stroke="black" d="M78.01,-163.94C81.03,-162.57 84.07,-161.23 87,-160 129.39,-142.17 149.5,-154.4 184,-124 200.56,-109.41 190.96,-95.15 207,-80 227.01,-61.11 239.22,-63.91 268.65,-51.89"/>
<polygon fill="black" stroke="black" points="270.13,-55.06 277.9,-47.86 267.33,-48.65 270.13,-55.06"/>
<g id="a_edge10&#45;headlabel"><a xlink:href="dir_000098_000082.html" target="_top" xlink:title="4">
<text text-anchor="middle" x="267.97" y="-56.6" font-family="Helvetica,sans-Serif" font-size="10.00">4</text>
</a>
</g>
</g>
<!-- dir_b9897dd8b4337efdb18d6c26c10007d0&#45;&gt;dir_f132f3c082319ace6827058f7d1d886d -->
<g id="edge12" class="edge">
<title>dir_b9897dd8b4337efdb18d6c26c10007d0&#45;&gt;dir_f132f3c082319ace6827058f7d1d886d</title>
<path fill="none" stroke="black" d="M78.32,-163.54C81.22,-162.28 84.15,-161.07 87,-160 138.03,-140.75 156.45,-145.39 206.42,-126.1"/>
<polygon fill="black" stroke="black" points="207.79,-129.32 215.78,-122.35 205.19,-122.82 207.79,-129.32"/>
<g id="a_edge12&#45;headlabel"><a xlink:href="dir_000098_000070.html" target="_top" xlink:title="1">
<text text-anchor="middle" x="205.51" y="-130.79" font-family="Helvetica,sans-Serif" font-size="10.00">1</text>
</a>
</g>
</g>
<!-- dir_b9897dd8b4337efdb18d6c26c10007d0&#45;&gt;dir_6972051101bc5f8d68d31d49f06d7aaf -->
<g id="edge7" class="edge">
<title>dir_b9897dd8b4337efdb18d6c26c10007d0&#45;&gt;dir_6972051101bc5f8d68d31d49f06d7aaf</title>
<path fill="none" stroke="black" d="M78.22,-163.26C81.14,-162.05 84.11,-160.94 87,-160 166.61,-134.21 194.39,-149.55 278.12,-123.81"/>
<polygon fill="black" stroke="black" points="279.31,-127.1 287.78,-120.74 277.19,-120.43 279.31,-127.1"/>
<g id="a_edge7&#45;headlabel"><a xlink:href="dir_000098_000102.html" target="_top" xlink:title="1">
<text text-anchor="middle" x="276.74" y="-128.4" font-family="Helvetica,sans-Serif" font-size="10.00">1</text>
</a>
</g>
</g>
<!-- dir_b9897dd8b4337efdb18d6c26c10007d0&#45;&gt;dir_e536cd6c38eff7239838b1bcd538af89 -->
<g id="edge11" class="edge">
<title>dir_b9897dd8b4337efdb18d6c26c10007d0&#45;&gt;dir_e536cd6c38eff7239838b1bcd538af89</title>
<path fill="none" stroke="black" d="M70.78,-159.7C80.75,-150.97 93.01,-140.24 103.86,-130.75"/>
<polygon fill="black" stroke="black" points="106.23,-133.32 111.45,-124.1 101.62,-128.06 106.23,-133.32"/>
<g id="a_edge11&#45;headlabel"><a xlink:href="dir_000098_000051.html" target="_top" xlink:title="61">
<text text-anchor="middle" x="105.4" y="-135.33" font-family="Helvetica,sans-Serif" font-size="10.00">61</text>
</a>
</g>
</g>
<!-- dir_b31d54d5631803016a26f28213a41162 -->
<g id="node10" class="node">
<title>dir_b31d54d5631803016a26f28213a41162</title>
<g id="a_node10"><a xlink:href="dir_b31d54d5631803016a26f28213a41162.html" target="_top" xlink:title="interface">
<polygon fill="none" stroke="red" points="420,-124 360,-124 360,-88 420,-88 420,-124"/>
<text text-anchor="middle" x="390" y="-103.5" font-family="Helvetica,sans-Serif" font-size="10.00">interface</text>
</a>
</g>
</g>
<!-- dir_b9897dd8b4337efdb18d6c26c10007d0&#45;&gt;dir_b31d54d5631803016a26f28213a41162 -->
<g id="edge9" class="edge">
<title>dir_b9897dd8b4337efdb18d6c26c10007d0&#45;&gt;dir_b31d54d5631803016a26f28213a41162</title>
<path fill="none" stroke="black" d="M78.18,-163.11C81.11,-161.93 84.08,-160.86 87,-160 198.68,-126.96 237.08,-156.27 349.92,-124.92"/>
<polygon fill="black" stroke="black" points="350.97,-128.26 359.61,-122.13 349.04,-121.53 350.97,-128.26"/>
<g id="a_edge9&#45;headlabel"><a xlink:href="dir_000098_000054.html" target="_top" xlink:title="6">
<text text-anchor="middle" x="348.3" y="-129.48" font-family="Helvetica,sans-Serif" font-size="10.00">6</text>
</a>
</g>
</g>
</g>
</svg>
