<?xml version="1.0" encoding="UTF-8" standalone="no"?>
<!DOCTYPE svg PUBLIC "-//W3C//DTD SVG 1.1//EN"
 "http://www.w3.org/Graphics/SVG/1.1/DTD/svg11.dtd">
<!-- Generated by graphviz version 2.43.0 (0)
 -->
<!-- Title: /home/kali/projects/vsomeip/implementation/e2e_protection/include/e2e/profile/profile_custom Pages: 1 -->
<svg width="192pt" height="167pt"
 viewBox="0.00 0.00 192.00 167.00" xmlns="http://www.w3.org/2000/svg" xmlns:xlink="http://www.w3.org/1999/xlink">
<g id="graph0" class="graph" transform="scale(1 1) rotate(0) translate(4 163)">
<title>/home/kali/projects/vsomeip/implementation/e2e_protection/include/e2e/profile/profile_custom</title>
<polygon fill="white" stroke="transparent" points="-4,4 -4,-163 188,-163 188,4 -4,4"/>
<g id="clust1" class="cluster">
<title>clusterdir_6430ed959aa6e92f798ce09450cbb0e0</title>
<g id="a_clust1"><a xlink:href="dir_6430ed959aa6e92f798ce09450cbb0e0.html" target="_top" xlink:title="profile">
<polygon fill="#edf0f7" stroke="#7f7f7f" stroke-dasharray="5,2" points="8,-8 8,-151 120,-151 120,-8 8,-8"/>
<text text-anchor="middle" x="64" y="-139" font-family="Helvetica,sans-Serif" font-size="10.00">profile</text>
</a>
</g>
</g>
<!-- dir_14b89642d47e591ba61a09b9ab23b291 -->
<g id="node1" class="node">
<title>dir_14b89642d47e591ba61a09b9ab23b291</title>
<g id="a_node1"><a xlink:href="dir_14b89642d47e591ba61a09b9ab23b291.html" target="_top" xlink:title="profile_interface">
<polygon fill="#a2b4d6" stroke="#404040" points="112,-52 16,-52 16,-16 112,-16 112,-52"/>
<text text-anchor="middle" x="64" y="-31.5" font-family="Helvetica,sans-Serif" font-size="10.00">profile_interface</text>
</a>
</g>
</g>
<!-- dir_c7e5b7921587376004b7d6a891f3b675 -->
<g id="node2" class="node">
<title>dir_c7e5b7921587376004b7d6a891f3b675</title>
<g id="a_node2"><a xlink:href="dir_c7e5b7921587376004b7d6a891f3b675.html" target="_top" xlink:title="profile_custom">
<polygon fill="#edf0f7" stroke="#404040" stroke-width="2" points="110.5,-124 21.5,-124 21.5,-88 110.5,-88 110.5,-124"/>
<text text-anchor="middle" x="66" y="-103.5" font-family="Helvetica,sans-Serif" font-size="10.00">profile_custom</text>
</a>
</g>
</g>
<!-- dir_c7e5b7921587376004b7d6a891f3b675&#45;&gt;dir_14b89642d47e591ba61a09b9ab23b291 -->
<g id="edge1" class="edge">
<title>dir_c7e5b7921587376004b7d6a891f3b675&#45;&gt;dir_14b89642d47e591ba61a09b9ab23b291</title>
<path fill="none" stroke="black" d="M65.51,-87.7C65.29,-79.98 65.02,-70.71 64.77,-62.11"/>
<polygon fill="black" stroke="black" points="68.27,-62 64.49,-52.1 61.28,-62.2 68.27,-62"/>
<g id="a_edge1&#45;headlabel"><a xlink:href="dir_000079_000081.html" target="_top" xlink:title="2">
<text text-anchor="middle" x="71.21" y="-63.01" font-family="Helvetica,sans-Serif" font-size="10.00">2</text>
</a>
</g>
</g>
<!-- dir_8c17fa292750306381d606ba00a14046 -->
<g id="node3" class="node">
<title>dir_8c17fa292750306381d606ba00a14046</title>
<g id="a_node3"><a xlink:href="dir_8c17fa292750306381d606ba00a14046.html" target="_top" xlink:title="buffer">
<polygon fill="none" stroke="#7f7f7f" points="184,-52 130,-52 130,-16 184,-16 184,-52"/>
<text text-anchor="middle" x="157" y="-31.5" font-family="Helvetica,sans-Serif" font-size="10.00">buffer</text>
</a>
</g>
</g>
<!-- dir_c7e5b7921587376004b7d6a891f3b675&#45;&gt;dir_8c17fa292750306381d606ba00a14046 -->
<g id="edge2" class="edge">
<title>dir_c7e5b7921587376004b7d6a891f3b675&#45;&gt;dir_8c17fa292750306381d606ba00a14046</title>
<path fill="none" stroke="black" d="M88.49,-87.7C99.96,-78.88 114.06,-68.03 126.48,-58.47"/>
<polygon fill="black" stroke="black" points="128.97,-60.98 134.76,-52.1 124.7,-55.43 128.97,-60.98"/>
<g id="a_edge2&#45;headlabel"><a xlink:href="dir_000079_000015.html" target="_top" xlink:title="1">
<text text-anchor="middle" x="127.85" y="-62.92" font-family="Helvetica,sans-Serif" font-size="10.00">1</text>
</a>
</g>
</g>
</g>
</svg>
