<?xml version="1.0" encoding="UTF-8" standalone="no"?>
<!DOCTYPE svg PUBLIC "-//W3C//DTD SVG 1.1//EN"
 "http://www.w3.org/Graphics/SVG/1.1/DTD/svg11.dtd">
<!-- Generated by graphviz version 2.43.0 (0)
 -->
<!-- Title: /home/kali/projects/vsomeip/implementation/e2e_protection/include/e2e/profile/e2e_provider_impl.hpp Pages: 1 -->
<svg width="913pt" height="396pt"
 viewBox="0.00 0.00 913.28 396.00" xmlns="http://www.w3.org/2000/svg" xmlns:xlink="http://www.w3.org/1999/xlink">
<g id="graph0" class="graph" transform="scale(1 1) rotate(0) translate(4 392)">
<title>/home/kali/projects/vsomeip/implementation/e2e_protection/include/e2e/profile/e2e_provider_impl.hpp</title>
<polygon fill="white" stroke="transparent" points="-4,4 -4,-392 909.28,-392 909.28,4 -4,4"/>
<!-- Node1 -->
<g id="node1" class="node">
<title>Node1</title>
<g id="a_node1"><a xlink:title=" ">
<polygon fill="#bfbfbf" stroke="black" points="379.28,-324.5 379.28,-387.5 522.28,-387.5 522.28,-324.5 379.28,-324.5"/>
<text text-anchor="start" x="387.28" y="-375.5" font-family="Helvetica,sans-Serif" font-size="10.00">/home/kali/projects</text>
<text text-anchor="start" x="387.28" y="-364.5" font-family="Helvetica,sans-Serif" font-size="10.00">/vsomeip/implementation</text>
<text text-anchor="start" x="387.28" y="-353.5" font-family="Helvetica,sans-Serif" font-size="10.00">/e2e_protection/include</text>
<text text-anchor="start" x="387.28" y="-342.5" font-family="Helvetica,sans-Serif" font-size="10.00">/e2e/profile/e2e_provider</text>
<text text-anchor="middle" x="450.78" y="-331.5" font-family="Helvetica,sans-Serif" font-size="10.00">_impl.hpp</text>
</a>
</g>
</g>
<!-- Node2 -->
<g id="node2" class="node">
<title>Node2</title>
<g id="a_node2"><a xlink:title=" ">
<polygon fill="white" stroke="#bfbfbf" points="348.78,-129 348.78,-148 386.78,-148 386.78,-129 348.78,-129"/>
<text text-anchor="middle" x="367.78" y="-136" font-family="Helvetica,sans-Serif" font-size="10.00">map</text>
</a>
</g>
</g>
<!-- Node1&#45;&gt;Node2 -->
<g id="edge1" class="edge">
<title>Node1&#45;&gt;Node2</title>
<path fill="none" stroke="midnightblue" d="M417.28,-324.29C407.61,-313.71 398,-301.17 391.78,-288 371.4,-244.83 367.89,-187.59 367.55,-158.39"/>
<polygon fill="midnightblue" stroke="midnightblue" points="371.05,-158.02 367.55,-148.02 364.05,-158.02 371.05,-158.02"/>
</g>
<!-- Node3 -->
<g id="node3" class="node">
<title>Node3</title>
<g id="a_node3"><a xlink:title=" ">
<polygon fill="white" stroke="#bfbfbf" points="71.78,-129 71.78,-148 129.78,-148 129.78,-129 71.78,-129"/>
<text text-anchor="middle" x="100.78" y="-136" font-family="Helvetica,sans-Serif" font-size="10.00">memory</text>
</a>
</g>
</g>
<!-- Node1&#45;&gt;Node3 -->
<g id="edge2" class="edge">
<title>Node1&#45;&gt;Node3</title>
<path fill="none" stroke="midnightblue" d="M378.95,-344.11C264.56,-325.12 49.42,-282.04 5.78,-221 -2.23,-209.79 -1.32,-201.81 5.78,-190 17.99,-169.68 41.44,-157.1 61.98,-149.57"/>
<polygon fill="midnightblue" stroke="midnightblue" points="63.12,-152.89 71.47,-146.37 60.88,-146.25 63.12,-152.89"/>
</g>
<!-- Node4 -->
<g id="node4" class="node">
<title>Node4</title>
<g id="a_node4"><a xlink:href="e2e__provider_8hpp.html" target="_top" xlink:title=" ">
<polygon fill="white" stroke="black" points="400.28,-263 400.28,-282 501.28,-282 501.28,-263 400.28,-263"/>
<text text-anchor="middle" x="450.78" y="-270" font-family="Helvetica,sans-Serif" font-size="10.00">e2e_provider.hpp</text>
</a>
</g>
</g>
<!-- Node1&#45;&gt;Node4 -->
<g id="edge3" class="edge">
<title>Node1&#45;&gt;Node4</title>
<path fill="none" stroke="midnightblue" d="M450.78,-324.19C450.78,-313.55 450.78,-301.95 450.78,-292.53"/>
<polygon fill="midnightblue" stroke="midnightblue" points="454.28,-292.34 450.78,-282.34 447.28,-292.34 454.28,-292.34"/>
</g>
<!-- Node13 -->
<g id="node13" class="node">
<title>Node13</title>
<g id="a_node13"><a xlink:href="profile__interface_2checker_8hpp.html" target="_top" xlink:title=" ">
<polygon fill="white" stroke="black" points="632.78,-123.5 632.78,-153.5 758.78,-153.5 758.78,-123.5 632.78,-123.5"/>
<text text-anchor="start" x="640.78" y="-141.5" font-family="Helvetica,sans-Serif" font-size="10.00">../e2e/profile/profile</text>
<text text-anchor="middle" x="695.78" y="-130.5" font-family="Helvetica,sans-Serif" font-size="10.00">_interface/checker.hpp</text>
</a>
</g>
</g>
<!-- Node1&#45;&gt;Node13 -->
<g id="edge31" class="edge">
<title>Node1&#45;&gt;Node13</title>
<path fill="none" stroke="midnightblue" d="M494.73,-324.44C509.97,-313.38 526.94,-300.53 541.78,-288 592.07,-245.56 646.51,-190.74 675.27,-161"/>
<polygon fill="midnightblue" stroke="midnightblue" points="677.93,-163.29 682.34,-153.65 672.89,-158.43 677.93,-163.29"/>
</g>
<!-- Node16 -->
<g id="node16" class="node">
<title>Node16</title>
<g id="a_node16"><a xlink:href="profile__interface_2protector_8hpp.html" target="_top" xlink:title=" ">
<polygon fill="white" stroke="black" points="481.28,-123.5 481.28,-153.5 614.28,-153.5 614.28,-123.5 481.28,-123.5"/>
<text text-anchor="start" x="489.28" y="-141.5" font-family="Helvetica,sans-Serif" font-size="10.00">../e2e/profile/profile</text>
<text text-anchor="middle" x="547.78" y="-130.5" font-family="Helvetica,sans-Serif" font-size="10.00">_interface/protector.hpp</text>
</a>
</g>
</g>
<!-- Node1&#45;&gt;Node16 -->
<g id="edge32" class="edge">
<title>Node1&#45;&gt;Node16</title>
<path fill="none" stroke="midnightblue" d="M485.58,-324.34C510.81,-299.47 542.55,-261.91 554.78,-221 560.39,-202.25 557.93,-180.07 554.46,-163.58"/>
<polygon fill="midnightblue" stroke="midnightblue" points="557.83,-162.59 552.12,-153.67 551.01,-164.2 557.83,-162.59"/>
</g>
<!-- Node18 -->
<g id="node18" class="node">
<title>Node18</title>
<g id="a_node18"><a xlink:href="vsomeip_2export_8hpp.html" target="_top" xlink:title=" ">
<polygon fill="white" stroke="black" points="788.28,-257.5 788.28,-287.5 905.28,-287.5 905.28,-257.5 788.28,-257.5"/>
<text text-anchor="start" x="796.28" y="-275.5" font-family="Helvetica,sans-Serif" font-size="10.00">../../../../../interface</text>
<text text-anchor="middle" x="846.78" y="-264.5" font-family="Helvetica,sans-Serif" font-size="10.00">/vsomeip/export.hpp</text>
</a>
</g>
</g>
<!-- Node1&#45;&gt;Node18 -->
<g id="edge33" class="edge">
<title>Node1&#45;&gt;Node18</title>
<path fill="none" stroke="midnightblue" d="M522.49,-340.24C595.19,-325.28 706.86,-302.3 778.36,-287.58"/>
<polygon fill="midnightblue" stroke="midnightblue" points="779.08,-291.01 788.17,-285.56 777.67,-284.15 779.08,-291.01"/>
</g>
<!-- Node19 -->
<g id="node19" class="node">
<title>Node19</title>
<g id="a_node19"><a xlink:href="vsomeip_2plugin_8hpp.html" target="_top" xlink:title=" ">
<polygon fill="white" stroke="black" points="14.78,-190.5 14.78,-220.5 130.78,-220.5 130.78,-190.5 14.78,-190.5"/>
<text text-anchor="start" x="22.78" y="-208.5" font-family="Helvetica,sans-Serif" font-size="10.00">../../../../../interface</text>
<text text-anchor="middle" x="72.78" y="-197.5" font-family="Helvetica,sans-Serif" font-size="10.00">/vsomeip/plugin.hpp</text>
</a>
</g>
</g>
<!-- Node1&#45;&gt;Node19 -->
<g id="edge34" class="edge">
<title>Node1&#45;&gt;Node19</title>
<path fill="none" stroke="midnightblue" d="M379.24,-326.89C302.49,-296.74 182.92,-249.77 118.16,-224.33"/>
<polygon fill="midnightblue" stroke="midnightblue" points="119.22,-220.98 108.63,-220.58 116.66,-227.5 119.22,-220.98"/>
</g>
<!-- Node4&#45;&gt;Node3 -->
<g id="edge5" class="edge">
<title>Node4&#45;&gt;Node3</title>
<path fill="none" stroke="midnightblue" d="M399.98,-269.04C346.71,-264.76 261.74,-253.05 195.78,-221 162.73,-204.94 131.89,-174.54 114.76,-155.75"/>
<polygon fill="midnightblue" stroke="midnightblue" points="117.16,-153.17 107.9,-148.02 111.93,-157.82 117.16,-153.17"/>
</g>
<!-- Node5 -->
<g id="node5" class="node">
<title>Node5</title>
<g id="a_node5"><a xlink:title=" ">
<polygon fill="white" stroke="#bfbfbf" points="174.78,-129 174.78,-148 218.78,-148 218.78,-129 174.78,-129"/>
<text text-anchor="middle" x="196.78" y="-136" font-family="Helvetica,sans-Serif" font-size="10.00">string</text>
</a>
</g>
</g>
<!-- Node4&#45;&gt;Node5 -->
<g id="edge4" class="edge">
<title>Node4&#45;&gt;Node5</title>
<path fill="none" stroke="midnightblue" d="M400.28,-266.94C339.23,-260.39 241.45,-246.23 215.78,-221 199.13,-204.64 195.9,-176.72 195.8,-158.19"/>
<polygon fill="midnightblue" stroke="midnightblue" points="199.3,-158.13 196.05,-148.05 192.3,-157.96 199.3,-158.13"/>
</g>
<!-- Node6 -->
<g id="node6" class="node">
<title>Node6</title>
<g id="a_node6"><a xlink:href="e2e__protection_2include_2buffer_2buffer_8hpp.html" target="_top" xlink:title=" ">
<polygon fill="white" stroke="black" points="704.28,-62 704.28,-81 819.28,-81 819.28,-62 704.28,-62"/>
<text text-anchor="middle" x="761.78" y="-69" font-family="Helvetica,sans-Serif" font-size="10.00">../../buffer/buffer.hpp</text>
</a>
</g>
</g>
<!-- Node4&#45;&gt;Node6 -->
<g id="edge6" class="edge">
<title>Node4&#45;&gt;Node6</title>
<path fill="none" stroke="midnightblue" d="M501.45,-269.56C574.5,-263.71 707.27,-240.96 767.78,-154 780.73,-135.4 775.18,-108.27 769.18,-90.51"/>
<polygon fill="midnightblue" stroke="midnightblue" points="772.42,-89.18 765.64,-81.04 765.86,-91.63 772.42,-89.18"/>
</g>
<!-- Node11 -->
<g id="node11" class="node">
<title>Node11</title>
<g id="a_node11"><a xlink:href="config_8hpp.html" target="_top" xlink:title=" ">
<polygon fill="white" stroke="black" points="396.78,-196 396.78,-215 512.78,-215 512.78,-196 396.78,-196"/>
<text text-anchor="middle" x="454.78" y="-203" font-family="Helvetica,sans-Serif" font-size="10.00">../../e2exf/config.hpp</text>
</a>
</g>
</g>
<!-- Node4&#45;&gt;Node11 -->
<g id="edge11" class="edge">
<title>Node4&#45;&gt;Node11</title>
<path fill="none" stroke="midnightblue" d="M451.32,-262.73C451.91,-253.18 452.87,-237.62 453.62,-225.28"/>
<polygon fill="midnightblue" stroke="midnightblue" points="457.13,-225.32 454.25,-215.13 450.14,-224.89 457.13,-225.32"/>
</g>
<!-- Node15 -->
<g id="node15" class="node">
<title>Node15</title>
<g id="a_node15"><a xlink:href="profile__interface_8hpp.html" target="_top" xlink:title=" ">
<polygon fill="white" stroke="black" points="499.78,-56.5 499.78,-86.5 619.78,-86.5 619.78,-56.5 499.78,-56.5"/>
<text text-anchor="start" x="507.78" y="-74.5" font-family="Helvetica,sans-Serif" font-size="10.00">../profile_interface</text>
<text text-anchor="middle" x="559.78" y="-63.5" font-family="Helvetica,sans-Serif" font-size="10.00">/profile_interface.hpp</text>
</a>
</g>
</g>
<!-- Node4&#45;&gt;Node15 -->
<g id="edge30" class="edge">
<title>Node4&#45;&gt;Node15</title>
<path fill="none" stroke="midnightblue" d="M472.21,-262.91C489.09,-254.85 511.45,-241.03 521.78,-221 528.1,-208.76 528,-202.29 521.78,-190 509.58,-165.89 484.99,-178.11 472.78,-154 466.56,-141.71 465.91,-134.94 472.78,-123 480.72,-109.22 494.01,-98.85 507.85,-91.22"/>
<polygon fill="midnightblue" stroke="midnightblue" points="509.64,-94.23 516.98,-86.58 506.47,-87.99 509.64,-94.23"/>
</g>
<!-- Node17 -->
<g id="node17" class="node">
<title>Node17</title>
<g id="a_node17"><a xlink:href="e2e_8hpp.html" target="_top" xlink:title=" ">
<polygon fill="white" stroke="black" points="224.78,-190.5 224.78,-220.5 340.78,-220.5 340.78,-190.5 224.78,-190.5"/>
<text text-anchor="start" x="232.78" y="-208.5" font-family="Helvetica,sans-Serif" font-size="10.00">../../../../configuration</text>
<text text-anchor="middle" x="282.78" y="-197.5" font-family="Helvetica,sans-Serif" font-size="10.00">/include/e2e.hpp</text>
</a>
</g>
</g>
<!-- Node4&#45;&gt;Node17 -->
<g id="edge25" class="edge">
<title>Node4&#45;&gt;Node17</title>
<path fill="none" stroke="midnightblue" d="M428.47,-262.87C403.15,-253.07 361.17,-236.83 328.76,-224.29"/>
<polygon fill="midnightblue" stroke="midnightblue" points="329.63,-220.87 319.04,-220.53 327.1,-227.4 329.63,-220.87"/>
</g>
<!-- Node7 -->
<g id="node7" class="node">
<title>Node7</title>
<g id="a_node7"><a xlink:title=" ">
<polygon fill="white" stroke="#bfbfbf" points="689.28,-0.5 689.28,-19.5 754.28,-19.5 754.28,-0.5 689.28,-0.5"/>
<text text-anchor="middle" x="721.78" y="-7.5" font-family="Helvetica,sans-Serif" font-size="10.00">stdexcept</text>
</a>
</g>
</g>
<!-- Node6&#45;&gt;Node7 -->
<g id="edge7" class="edge">
<title>Node6&#45;&gt;Node7</title>
<path fill="none" stroke="midnightblue" d="M756.05,-61.98C750.11,-53.14 740.66,-39.09 733.19,-27.98"/>
<polygon fill="midnightblue" stroke="midnightblue" points="735.99,-25.86 727.5,-19.51 730.18,-29.76 735.99,-25.86"/>
</g>
<!-- Node8 -->
<g id="node8" class="node">
<title>Node8</title>
<g id="a_node8"><a xlink:title=" ">
<polygon fill="white" stroke="#bfbfbf" points="577.78,-0.5 577.78,-19.5 627.78,-19.5 627.78,-0.5 577.78,-0.5"/>
<text text-anchor="middle" x="602.78" y="-7.5" font-family="Helvetica,sans-Serif" font-size="10.00">cstdint</text>
</a>
</g>
</g>
<!-- Node6&#45;&gt;Node8 -->
<g id="edge8" class="edge">
<title>Node6&#45;&gt;Node8</title>
<path fill="none" stroke="midnightblue" d="M739,-61.98C711.73,-51.77 665.87,-34.61 634.98,-23.05"/>
<polygon fill="midnightblue" stroke="midnightblue" points="636.11,-19.74 625.52,-19.51 633.66,-26.29 636.11,-19.74"/>
</g>
<!-- Node9 -->
<g id="node9" class="node">
<title>Node9</title>
<g id="a_node9"><a xlink:title=" ">
<polygon fill="white" stroke="#bfbfbf" points="772.28,-0.5 772.28,-19.5 829.28,-19.5 829.28,-0.5 772.28,-0.5"/>
<text text-anchor="middle" x="800.78" y="-7.5" font-family="Helvetica,sans-Serif" font-size="10.00">ostream</text>
</a>
</g>
</g>
<!-- Node6&#45;&gt;Node9 -->
<g id="edge9" class="edge">
<title>Node6&#45;&gt;Node9</title>
<path fill="none" stroke="midnightblue" d="M767.37,-61.98C773.16,-53.14 782.37,-39.09 789.65,-27.98"/>
<polygon fill="midnightblue" stroke="midnightblue" points="792.65,-29.79 795.2,-19.51 786.79,-25.95 792.65,-29.79"/>
</g>
<!-- Node10 -->
<g id="node10" class="node">
<title>Node10</title>
<g id="a_node10"><a xlink:title=" ">
<polygon fill="white" stroke="#bfbfbf" points="413.28,-0.5 413.28,-19.5 460.28,-19.5 460.28,-0.5 413.28,-0.5"/>
<text text-anchor="middle" x="436.78" y="-7.5" font-family="Helvetica,sans-Serif" font-size="10.00">vector</text>
</a>
</g>
</g>
<!-- Node6&#45;&gt;Node10 -->
<g id="edge10" class="edge">
<title>Node6&#45;&gt;Node10</title>
<path fill="none" stroke="midnightblue" d="M723.57,-61.95C714.17,-59.93 704.13,-57.83 694.78,-56 614.54,-40.33 519.74,-24.47 470.42,-16.42"/>
<polygon fill="midnightblue" stroke="midnightblue" points="470.75,-12.93 460.32,-14.78 469.63,-19.84 470.75,-12.93"/>
</g>
<!-- Node11&#45;&gt;Node2 -->
<g id="edge24" class="edge">
<title>Node11&#45;&gt;Node2</title>
<path fill="none" stroke="midnightblue" d="M443.05,-195.73C428.83,-185.11 404.65,-167.05 387.54,-154.26"/>
<polygon fill="midnightblue" stroke="midnightblue" points="389.43,-151.31 379.33,-148.13 385.24,-156.92 389.43,-151.31"/>
</g>
<!-- Node11&#45;&gt;Node3 -->
<g id="edge23" class="edge">
<title>Node11&#45;&gt;Node3</title>
<path fill="none" stroke="midnightblue" d="M401.64,-195.98C343.56,-186.48 247.83,-170.31 165.78,-154 157.3,-152.31 148.24,-150.38 139.64,-148.48"/>
<polygon fill="midnightblue" stroke="midnightblue" points="140.36,-145.05 129.84,-146.29 138.84,-151.88 140.36,-145.05"/>
</g>
<!-- Node12 -->
<g id="node12" class="node">
<title>Node12</title>
<g id="a_node12"><a xlink:title=" ">
<polygon fill="white" stroke="#bfbfbf" points="323.28,-62 323.28,-81 482.28,-81 482.28,-62 323.28,-62"/>
<text text-anchor="middle" x="402.78" y="-69" font-family="Helvetica,sans-Serif" font-size="10.00">vsomeip/primitive_types.hpp</text>
</a>
</g>
</g>
<!-- Node11&#45;&gt;Node12 -->
<g id="edge12" class="edge">
<title>Node11&#45;&gt;Node12</title>
<path fill="none" stroke="midnightblue" d="M451.37,-195.84C442.99,-174.58 421.28,-119.46 409.93,-90.65"/>
<polygon fill="midnightblue" stroke="midnightblue" points="413.06,-89.04 406.14,-81.02 406.55,-91.61 413.06,-89.04"/>
</g>
<!-- Node11&#45;&gt;Node13 -->
<g id="edge13" class="edge">
<title>Node11&#45;&gt;Node13</title>
<path fill="none" stroke="midnightblue" d="M486.78,-195.87C524.2,-185.78 586.98,-168.84 633.99,-156.16"/>
<polygon fill="midnightblue" stroke="midnightblue" points="635.03,-159.51 643.77,-153.53 633.2,-152.75 635.03,-159.51"/>
</g>
<!-- Node11&#45;&gt;Node16 -->
<g id="edge19" class="edge">
<title>Node11&#45;&gt;Node16</title>
<path fill="none" stroke="midnightblue" d="M467.32,-195.73C480.5,-186.53 501.66,-171.73 518.98,-159.63"/>
<polygon fill="midnightblue" stroke="midnightblue" points="521.43,-162.19 527.62,-153.59 517.42,-156.45 521.43,-162.19"/>
</g>
<!-- Node13&#45;&gt;Node6 -->
<g id="edge18" class="edge">
<title>Node13&#45;&gt;Node6</title>
<path fill="none" stroke="midnightblue" d="M710.1,-123.4C720.6,-113.06 734.85,-99.02 745.73,-88.31"/>
<polygon fill="midnightblue" stroke="midnightblue" points="748.28,-90.71 752.95,-81.19 743.37,-85.72 748.28,-90.71"/>
</g>
<!-- Node13&#45;&gt;Node12 -->
<g id="edge15" class="edge">
<title>Node13&#45;&gt;Node12</title>
<path fill="none" stroke="midnightblue" d="M632.56,-123.48C578.11,-111.4 500.66,-94.21 451.06,-83.21"/>
<polygon fill="midnightblue" stroke="midnightblue" points="451.75,-79.78 441.23,-81.03 450.23,-86.61 451.75,-79.78"/>
</g>
<!-- Node14 -->
<g id="node14" class="node">
<title>Node14</title>
<g id="a_node14"><a xlink:title=" ">
<polygon fill="white" stroke="#bfbfbf" points="637.78,-62 637.78,-81 685.78,-81 685.78,-62 637.78,-62"/>
<text text-anchor="middle" x="661.78" y="-69" font-family="Helvetica,sans-Serif" font-size="10.00">mutex</text>
</a>
</g>
</g>
<!-- Node13&#45;&gt;Node14 -->
<g id="edge14" class="edge">
<title>Node13&#45;&gt;Node14</title>
<path fill="none" stroke="midnightblue" d="M688.4,-123.4C683.31,-113.66 676.5,-100.65 671.05,-90.21"/>
<polygon fill="midnightblue" stroke="midnightblue" points="674.07,-88.43 666.33,-81.19 667.86,-91.68 674.07,-88.43"/>
</g>
<!-- Node13&#45;&gt;Node15 -->
<g id="edge16" class="edge">
<title>Node13&#45;&gt;Node15</title>
<path fill="none" stroke="midnightblue" d="M666.27,-123.4C646.4,-113.9 619.99,-101.28 598.44,-90.98"/>
<polygon fill="midnightblue" stroke="midnightblue" points="599.76,-87.73 589.23,-86.58 596.75,-94.05 599.76,-87.73"/>
</g>
<!-- Node15&#45;&gt;Node8 -->
<g id="edge17" class="edge">
<title>Node15&#45;&gt;Node8</title>
<path fill="none" stroke="midnightblue" d="M569.97,-56.4C576.16,-47.84 584.08,-36.87 590.6,-27.86"/>
<polygon fill="midnightblue" stroke="midnightblue" points="593.5,-29.81 596.52,-19.66 587.83,-25.71 593.5,-29.81"/>
</g>
<!-- Node16&#45;&gt;Node6 -->
<g id="edge21" class="edge">
<title>Node16&#45;&gt;Node6</title>
<path fill="none" stroke="midnightblue" d="M593.95,-123.48C632.81,-111.67 687.7,-95 723.99,-83.98"/>
<polygon fill="midnightblue" stroke="midnightblue" points="725.15,-87.28 733.7,-81.03 723.12,-80.59 725.15,-87.28"/>
</g>
<!-- Node16&#45;&gt;Node12 -->
<g id="edge20" class="edge">
<title>Node16&#45;&gt;Node12</title>
<path fill="none" stroke="midnightblue" d="M516.32,-123.4C490.88,-111.99 455.38,-96.08 430.88,-85.1"/>
<polygon fill="midnightblue" stroke="midnightblue" points="432.31,-81.9 421.76,-81.01 429.45,-88.29 432.31,-81.9"/>
</g>
<!-- Node16&#45;&gt;Node15 -->
<g id="edge22" class="edge">
<title>Node16&#45;&gt;Node15</title>
<path fill="none" stroke="midnightblue" d="M550.38,-123.4C551.83,-115.56 553.67,-105.6 555.34,-96.57"/>
<polygon fill="midnightblue" stroke="midnightblue" points="558.81,-97.05 557.18,-86.58 551.92,-95.77 558.81,-97.05"/>
</g>
<!-- Node17&#45;&gt;Node2 -->
<g id="edge26" class="edge">
<title>Node17&#45;&gt;Node2</title>
<path fill="none" stroke="midnightblue" d="M301.22,-190.4C315.13,-179.76 334.17,-165.2 348.32,-154.38"/>
<polygon fill="midnightblue" stroke="midnightblue" points="350.59,-157.05 356.41,-148.19 346.34,-151.49 350.59,-157.05"/>
</g>
<!-- Node17&#45;&gt;Node5 -->
<g id="edge27" class="edge">
<title>Node17&#45;&gt;Node5</title>
<path fill="none" stroke="midnightblue" d="M264.12,-190.4C250.05,-179.76 230.79,-165.2 216.47,-154.38"/>
<polygon fill="midnightblue" stroke="midnightblue" points="218.37,-151.43 208.28,-148.19 214.15,-157.02 218.37,-151.43"/>
</g>
<!-- Node17&#45;&gt;Node10 -->
<g id="edge28" class="edge">
<title>Node17&#45;&gt;Node10</title>
<path fill="none" stroke="midnightblue" d="M281.65,-190.28C280.14,-161.35 280.9,-95.04 314.78,-56 337.09,-30.3 375.43,-19.26 403.18,-14.53"/>
<polygon fill="midnightblue" stroke="midnightblue" points="403.88,-17.97 413.24,-13.01 402.83,-11.05 403.88,-17.97"/>
</g>
<!-- Node17&#45;&gt;Node12 -->
<g id="edge29" class="edge">
<title>Node17&#45;&gt;Node12</title>
<path fill="none" stroke="midnightblue" d="M290.96,-190.34C301.16,-173.33 319.71,-144.42 339.78,-123 352.39,-109.53 368.69,-96.56 381.55,-87.14"/>
<polygon fill="midnightblue" stroke="midnightblue" points="383.72,-89.89 389.82,-81.22 379.65,-84.2 383.72,-89.89"/>
</g>
<!-- Node19&#45;&gt;Node3 -->
<g id="edge35" class="edge">
<title>Node19&#45;&gt;Node3</title>
<path fill="none" stroke="midnightblue" d="M78.86,-190.4C83.01,-180.76 88.54,-167.91 93.01,-157.54"/>
<polygon fill="midnightblue" stroke="midnightblue" points="96.29,-158.76 97.04,-148.19 89.86,-155.99 96.29,-158.76"/>
</g>
<!-- Node19&#45;&gt;Node5 -->
<g id="edge36" class="edge">
<title>Node19&#45;&gt;Node5</title>
<path fill="none" stroke="midnightblue" d="M99.69,-190.4C121.06,-179.19 150.73,-163.64 171.63,-152.69"/>
<polygon fill="midnightblue" stroke="midnightblue" points="173.32,-155.75 180.55,-148.01 170.07,-149.55 173.32,-155.75"/>
</g>
</g>
</svg>
