<?xml version="1.0" encoding="UTF-8" standalone="no"?>
<!DOCTYPE svg PUBLIC "-//W3C//DTD SVG 1.1//EN"
 "http://www.w3.org/Graphics/SVG/1.1/DTD/svg11.dtd">
<!-- Generated by graphviz version 2.43.0 (0)
 -->
<!-- Title: /home/kali/projects/vsomeip/implementation/e2e_protection/src/e2e/profile/e2e_provider_impl.cpp Pages: 1 -->
<svg width="1934pt" height="474pt"
 viewBox="0.00 0.00 1934.47 474.00" xmlns="http://www.w3.org/2000/svg" xmlns:xlink="http://www.w3.org/1999/xlink">
<g id="graph0" class="graph" transform="scale(1 1) rotate(0) translate(4 470)">
<title>/home/kali/projects/vsomeip/implementation/e2e_protection/src/e2e/profile/e2e_provider_impl.cpp</title>
<polygon fill="white" stroke="transparent" points="-4,4 -4,-470 1930.47,-470 1930.47,4 -4,4"/>
<!-- Node1 -->
<g id="node1" class="node">
<title>Node1</title>
<g id="a_node1"><a xlink:title=" ">
<polygon fill="#bfbfbf" stroke="black" points="384,-413.5 384,-465.5 548,-465.5 548,-413.5 384,-413.5"/>
<text text-anchor="start" x="392" y="-453.5" font-family="Helvetica,sans-Serif" font-size="10.00">/home/kali/projects</text>
<text text-anchor="start" x="392" y="-442.5" font-family="Helvetica,sans-Serif" font-size="10.00">/vsomeip/implementation</text>
<text text-anchor="start" x="392" y="-431.5" font-family="Helvetica,sans-Serif" font-size="10.00">/e2e_protection/src/e2e</text>
<text text-anchor="middle" x="466" y="-420.5" font-family="Helvetica,sans-Serif" font-size="10.00">/profile/e2e_provider_impl.cpp</text>
</a>
</g>
</g>
<!-- Node2 -->
<g id="node2" class="node">
<title>Node2</title>
<g id="a_node2"><a xlink:title=" ">
<polygon fill="white" stroke="#bfbfbf" points="0,-346.5 0,-365.5 56,-365.5 56,-346.5 0,-346.5"/>
<text text-anchor="middle" x="28" y="-353.5" font-family="Helvetica,sans-Serif" font-size="10.00">iomanip</text>
</a>
</g>
</g>
<!-- Node1&#45;&gt;Node2 -->
<g id="edge1" class="edge">
<title>Node1&#45;&gt;Node2</title>
<path fill="none" stroke="midnightblue" d="M383.67,-432.71C302.47,-425.39 175.54,-409.56 70,-377 64.07,-375.17 57.91,-372.64 52.2,-369.98"/>
<polygon fill="midnightblue" stroke="midnightblue" points="53.64,-366.79 43.13,-365.52 50.55,-373.07 53.64,-366.79"/>
</g>
<!-- Node3 -->
<g id="node3" class="node">
<title>Node3</title>
<g id="a_node3"><a xlink:title=" ">
<polygon fill="white" stroke="#bfbfbf" points="84,-62 84,-81 140,-81 140,-62 84,-62"/>
<text text-anchor="middle" x="112" y="-69" font-family="Helvetica,sans-Serif" font-size="10.00">sstream</text>
</a>
</g>
</g>
<!-- Node1&#45;&gt;Node3 -->
<g id="edge2" class="edge">
<title>Node1&#45;&gt;Node3</title>
<path fill="none" stroke="midnightblue" d="M383.87,-431.19C326.73,-423.55 250.15,-408.09 189,-377 133.56,-348.82 84,-346.69 84,-284.5 84,-284.5 84,-284.5 84,-210 84,-166.51 97.61,-116.82 105.86,-90.72"/>
<polygon fill="midnightblue" stroke="midnightblue" points="109.23,-91.66 109,-81.06 102.58,-89.49 109.23,-91.66"/>
</g>
<!-- Node4 -->
<g id="node4" class="node">
<title>Node4</title>
<g id="a_node4"><a xlink:href="logger_8hpp.html" target="_top" xlink:title=" ">
<polygon fill="white" stroke="black" points="198.5,-129 198.5,-148 351.5,-148 351.5,-129 198.5,-129"/>
<text text-anchor="middle" x="275" y="-136" font-family="Helvetica,sans-Serif" font-size="10.00">vsomeip/internal/logger.hpp</text>
</a>
</g>
</g>
<!-- Node1&#45;&gt;Node4 -->
<g id="edge3" class="edge">
<title>Node1&#45;&gt;Node4</title>
<path fill="none" stroke="midnightblue" d="M383.72,-428.23C309.49,-413.85 205.99,-379.67 166,-299 144.39,-255.42 129.15,-230.57 156,-190 169,-170.36 191.35,-158.33 213.19,-150.98"/>
<polygon fill="midnightblue" stroke="midnightblue" points="214.3,-154.3 222.82,-148.01 212.24,-147.61 214.3,-154.3"/>
</g>
<!-- Node11 -->
<g id="node11" class="node">
<title>Node11</title>
<g id="a_node11"><a xlink:href="e2e__provider__impl_8hpp.html" target="_top" xlink:title=" ">
<polygon fill="white" stroke="black" points="1392.5,-335.5 1392.5,-376.5 1523.5,-376.5 1523.5,-335.5 1392.5,-335.5"/>
<text text-anchor="start" x="1400.5" y="-364.5" font-family="Helvetica,sans-Serif" font-size="10.00">../../../../e2e_protection</text>
<text text-anchor="start" x="1400.5" y="-353.5" font-family="Helvetica,sans-Serif" font-size="10.00">/include/e2e/profile/e2e</text>
<text text-anchor="middle" x="1458" y="-342.5" font-family="Helvetica,sans-Serif" font-size="10.00">_provider_impl.hpp</text>
</a>
</g>
</g>
<!-- Node1&#45;&gt;Node11 -->
<g id="edge11" class="edge">
<title>Node1&#45;&gt;Node11</title>
<path fill="none" stroke="midnightblue" d="M548.02,-431.76C736.75,-416.26 1199.54,-378.23 1382.13,-363.23"/>
<polygon fill="midnightblue" stroke="midnightblue" points="1382.51,-366.71 1392.19,-362.41 1381.93,-359.74 1382.51,-366.71"/>
</g>
<!-- Node27 -->
<g id="node27" class="node">
<title>Node27</title>
<g id="a_node27"><a xlink:href="profile01_2checker_8hpp.html" target="_top" xlink:title=" ">
<polygon fill="white" stroke="black" points="1107.5,-190.5 1107.5,-231.5 1262.5,-231.5 1262.5,-190.5 1107.5,-190.5"/>
<text text-anchor="start" x="1115.5" y="-219.5" font-family="Helvetica,sans-Serif" font-size="10.00">../../../../e2e_protection</text>
<text text-anchor="start" x="1115.5" y="-208.5" font-family="Helvetica,sans-Serif" font-size="10.00">/include/e2e/profile/profile01</text>
<text text-anchor="middle" x="1185" y="-197.5" font-family="Helvetica,sans-Serif" font-size="10.00">/checker.hpp</text>
</a>
</g>
</g>
<!-- Node1&#45;&gt;Node27 -->
<g id="edge48" class="edge">
<title>Node1&#45;&gt;Node27</title>
<path fill="none" stroke="midnightblue" d="M548.19,-430.89C622.72,-422.51 734.99,-406.18 829,-377 947.06,-340.36 1076.63,-272.76 1142.06,-236.5"/>
<polygon fill="midnightblue" stroke="midnightblue" points="1143.83,-239.52 1150.86,-231.6 1140.42,-233.41 1143.83,-239.52"/>
</g>
<!-- Node28 -->
<g id="node28" class="node">
<title>Node28</title>
<g id="a_node28"><a xlink:href="profile__01_8hpp.html" target="_top" xlink:title=" ">
<polygon fill="white" stroke="black" points="838,-123.5 838,-153.5 940,-153.5 940,-123.5 838,-123.5"/>
<text text-anchor="start" x="846" y="-141.5" font-family="Helvetica,sans-Serif" font-size="10.00">../profile01/profile</text>
<text text-anchor="middle" x="889" y="-130.5" font-family="Helvetica,sans-Serif" font-size="10.00">_01.hpp</text>
</a>
</g>
</g>
<!-- Node1&#45;&gt;Node28 -->
<g id="edge54" class="edge">
<title>Node1&#45;&gt;Node28</title>
<path fill="none" stroke="midnightblue" d="M498.83,-413.36C547.41,-375.68 640.59,-301.55 714,-232 732.49,-214.48 731.82,-204.15 753,-190 775.74,-174.81 803.66,-163.42 828.27,-155.34"/>
<polygon fill="midnightblue" stroke="midnightblue" points="829.4,-158.65 837.88,-152.29 827.29,-151.98 829.4,-158.65"/>
</g>
<!-- Node30 -->
<g id="node30" class="node">
<title>Node30</title>
<g id="a_node30"><a xlink:href="profile01_2protector_8hpp.html" target="_top" xlink:title=" ">
<polygon fill="white" stroke="black" points="934.5,-190.5 934.5,-231.5 1089.5,-231.5 1089.5,-190.5 934.5,-190.5"/>
<text text-anchor="start" x="942.5" y="-219.5" font-family="Helvetica,sans-Serif" font-size="10.00">../../../../e2e_protection</text>
<text text-anchor="start" x="942.5" y="-208.5" font-family="Helvetica,sans-Serif" font-size="10.00">/include/e2e/profile/profile01</text>
<text text-anchor="middle" x="1012" y="-197.5" font-family="Helvetica,sans-Serif" font-size="10.00">/protector.hpp</text>
</a>
</g>
</g>
<!-- Node1&#45;&gt;Node30 -->
<g id="edge55" class="edge">
<title>Node1&#45;&gt;Node30</title>
<path fill="none" stroke="midnightblue" d="M548.21,-431.88C613.02,-424.44 704.56,-408.92 779,-377 860.53,-342.04 941.94,-275.32 983.55,-238.33"/>
<polygon fill="midnightblue" stroke="midnightblue" points="985.98,-240.85 991.09,-231.57 981.31,-235.64 985.98,-240.85"/>
</g>
<!-- Node31 -->
<g id="node31" class="node">
<title>Node31</title>
<g id="a_node31"><a xlink:href="profile04_2checker_8hpp.html" target="_top" xlink:title=" ">
<polygon fill="white" stroke="black" points="761.5,-190.5 761.5,-231.5 916.5,-231.5 916.5,-190.5 761.5,-190.5"/>
<text text-anchor="start" x="769.5" y="-219.5" font-family="Helvetica,sans-Serif" font-size="10.00">../../../../e2e_protection</text>
<text text-anchor="start" x="769.5" y="-208.5" font-family="Helvetica,sans-Serif" font-size="10.00">/include/e2e/profile/profile04</text>
<text text-anchor="middle" x="839" y="-197.5" font-family="Helvetica,sans-Serif" font-size="10.00">/checker.hpp</text>
</a>
</g>
</g>
<!-- Node1&#45;&gt;Node31 -->
<g id="edge59" class="edge">
<title>Node1&#45;&gt;Node31</title>
<path fill="none" stroke="midnightblue" d="M548.2,-428.11C619.47,-417.75 715.93,-400.08 747,-377 792.85,-342.95 818.89,-278.88 830.86,-241.39"/>
<polygon fill="midnightblue" stroke="midnightblue" points="834.28,-242.15 833.86,-231.56 827.59,-240.1 834.28,-242.15"/>
</g>
<!-- Node32 -->
<g id="node32" class="node">
<title>Node32</title>
<g id="a_node32"><a xlink:href="profile__04_8hpp.html" target="_top" xlink:title=" ">
<polygon fill="white" stroke="black" points="604,-123.5 604,-153.5 706,-153.5 706,-123.5 604,-123.5"/>
<text text-anchor="start" x="612" y="-141.5" font-family="Helvetica,sans-Serif" font-size="10.00">../profile04/profile</text>
<text text-anchor="middle" x="655" y="-130.5" font-family="Helvetica,sans-Serif" font-size="10.00">_04.hpp</text>
</a>
</g>
</g>
<!-- Node1&#45;&gt;Node32 -->
<g id="edge65" class="edge">
<title>Node1&#45;&gt;Node32</title>
<path fill="none" stroke="midnightblue" d="M442.94,-413.37C401.33,-364.95 323.06,-257.54 380,-190 410.52,-153.8 543.55,-163.16 590,-154 591.28,-153.75 592.57,-153.49 593.86,-153.23"/>
<polygon fill="midnightblue" stroke="midnightblue" points="594.87,-156.59 603.96,-151.14 593.45,-149.74 594.87,-156.59"/>
</g>
<!-- Node33 -->
<g id="node33" class="node">
<title>Node33</title>
<g id="a_node33"><a xlink:href="profile04_2protector_8hpp.html" target="_top" xlink:title=" ">
<polygon fill="white" stroke="black" points="388.5,-190.5 388.5,-231.5 543.5,-231.5 543.5,-190.5 388.5,-190.5"/>
<text text-anchor="start" x="396.5" y="-219.5" font-family="Helvetica,sans-Serif" font-size="10.00">../../../../e2e_protection</text>
<text text-anchor="start" x="396.5" y="-208.5" font-family="Helvetica,sans-Serif" font-size="10.00">/include/e2e/profile/profile04</text>
<text text-anchor="middle" x="466" y="-197.5" font-family="Helvetica,sans-Serif" font-size="10.00">/protector.hpp</text>
</a>
</g>
</g>
<!-- Node1&#45;&gt;Node33 -->
<g id="edge66" class="edge">
<title>Node1&#45;&gt;Node33</title>
<path fill="none" stroke="midnightblue" d="M466,-413.4C466,-371.28 466,-286.59 466,-241.62"/>
<polygon fill="midnightblue" stroke="midnightblue" points="469.5,-241.62 466,-231.62 462.5,-241.62 469.5,-241.62"/>
</g>
<!-- Node34 -->
<g id="node34" class="node">
<title>Node34</title>
<g id="a_node34"><a xlink:href="profile__custom_2checker_8hpp.html" target="_top" xlink:title=" ">
<polygon fill="white" stroke="black" points="561.5,-190.5 561.5,-231.5 704.5,-231.5 704.5,-190.5 561.5,-190.5"/>
<text text-anchor="start" x="569.5" y="-219.5" font-family="Helvetica,sans-Serif" font-size="10.00">../../../../e2e_protection</text>
<text text-anchor="start" x="569.5" y="-208.5" font-family="Helvetica,sans-Serif" font-size="10.00">/include/e2e/profile/profile</text>
<text text-anchor="middle" x="633" y="-197.5" font-family="Helvetica,sans-Serif" font-size="10.00">_custom/checker.hpp</text>
</a>
</g>
</g>
<!-- Node1&#45;&gt;Node34 -->
<g id="edge70" class="edge">
<title>Node1&#45;&gt;Node34</title>
<path fill="none" stroke="midnightblue" d="M484.51,-413.4C515.96,-370.74 579.59,-284.44 612.4,-239.93"/>
<polygon fill="midnightblue" stroke="midnightblue" points="615.42,-241.74 618.54,-231.62 609.79,-237.59 615.42,-241.74"/>
</g>
<!-- Node35 -->
<g id="node35" class="node">
<title>Node35</title>
<g id="a_node35"><a xlink:href="profile__custom_8hpp.html" target="_top" xlink:title=" ">
<polygon fill="white" stroke="black" points="416.5,-123.5 416.5,-153.5 547.5,-153.5 547.5,-123.5 416.5,-123.5"/>
<text text-anchor="start" x="424.5" y="-141.5" font-family="Helvetica,sans-Serif" font-size="10.00">../profile_custom/profile</text>
<text text-anchor="middle" x="482" y="-130.5" font-family="Helvetica,sans-Serif" font-size="10.00">_custom.hpp</text>
</a>
</g>
</g>
<!-- Node1&#45;&gt;Node35 -->
<g id="edge77" class="edge">
<title>Node1&#45;&gt;Node35</title>
<path fill="none" stroke="midnightblue" d="M383.84,-414.25C358.89,-404.8 332.23,-392.46 310,-377 226.9,-319.2 114.59,-267.25 180,-190 187.33,-181.34 319.22,-161.77 406.26,-149.69"/>
<polygon fill="midnightblue" stroke="midnightblue" points="406.95,-153.13 416.38,-148.29 405.99,-146.2 406.95,-153.13"/>
</g>
<!-- Node36 -->
<g id="node36" class="node">
<title>Node36</title>
<g id="a_node36"><a xlink:href="profile__custom_2protector_8hpp.html" target="_top" xlink:title=" ">
<polygon fill="white" stroke="black" points="188.5,-190.5 188.5,-231.5 331.5,-231.5 331.5,-190.5 188.5,-190.5"/>
<text text-anchor="start" x="196.5" y="-219.5" font-family="Helvetica,sans-Serif" font-size="10.00">../../../../e2e_protection</text>
<text text-anchor="start" x="196.5" y="-208.5" font-family="Helvetica,sans-Serif" font-size="10.00">/include/e2e/profile/profile</text>
<text text-anchor="middle" x="260" y="-197.5" font-family="Helvetica,sans-Serif" font-size="10.00">_custom/protector.hpp</text>
</a>
</g>
</g>
<!-- Node1&#45;&gt;Node36 -->
<g id="edge78" class="edge">
<title>Node1&#45;&gt;Node36</title>
<path fill="none" stroke="midnightblue" d="M399.55,-413.5C380.65,-404.12 361.12,-392.01 346,-377 306.78,-338.05 281.57,-277.45 269.16,-241.55"/>
<polygon fill="midnightblue" stroke="midnightblue" points="272.35,-240.05 265.86,-231.68 265.71,-242.28 272.35,-240.05"/>
</g>
<!-- Node4&#45;&gt;Node3 -->
<g id="edge8" class="edge">
<title>Node4&#45;&gt;Node3</title>
<path fill="none" stroke="midnightblue" d="M253.35,-128.87C225.02,-117.57 175.18,-97.7 142.89,-84.82"/>
<polygon fill="midnightblue" stroke="midnightblue" points="144.06,-81.52 133.48,-81.06 141.47,-88.02 144.06,-81.52"/>
</g>
<!-- Node5 -->
<g id="node5" class="node">
<title>Node5</title>
<g id="a_node5"><a xlink:title=" ">
<polygon fill="white" stroke="#bfbfbf" points="212,-62 212,-81 262,-81 262,-62 212,-62"/>
<text text-anchor="middle" x="237" y="-69" font-family="Helvetica,sans-Serif" font-size="10.00">chrono</text>
</a>
</g>
</g>
<!-- Node4&#45;&gt;Node5 -->
<g id="edge4" class="edge">
<title>Node4&#45;&gt;Node5</title>
<path fill="none" stroke="midnightblue" d="M269.88,-128.73C264.06,-118.79 254.44,-102.34 247.11,-89.79"/>
<polygon fill="midnightblue" stroke="midnightblue" points="250.11,-87.99 242.04,-81.13 244.07,-91.53 250.11,-87.99"/>
</g>
<!-- Node6 -->
<g id="node6" class="node">
<title>Node6</title>
<g id="a_node6"><a xlink:title=" ">
<polygon fill="white" stroke="#bfbfbf" points="747,-0.5 747,-19.5 797,-19.5 797,-0.5 747,-0.5"/>
<text text-anchor="middle" x="772" y="-7.5" font-family="Helvetica,sans-Serif" font-size="10.00">cstdint</text>
</a>
</g>
</g>
<!-- Node4&#45;&gt;Node6 -->
<g id="edge5" class="edge">
<title>Node4&#45;&gt;Node6</title>
<path fill="none" stroke="midnightblue" d="M351.73,-129.27C394.13,-122.35 446.63,-109.76 489,-87 506.73,-77.48 504.02,-65.04 522,-56 592.43,-20.57 686.42,-12.68 736.71,-11.14"/>
<polygon fill="midnightblue" stroke="midnightblue" points="736.84,-14.64 746.75,-10.9 736.67,-7.64 736.84,-14.64"/>
</g>
<!-- Node7 -->
<g id="node7" class="node">
<title>Node7</title>
<g id="a_node7"><a xlink:title=" ">
<polygon fill="white" stroke="#bfbfbf" points="748,-62 748,-81 796,-81 796,-62 748,-62"/>
<text text-anchor="middle" x="772" y="-69" font-family="Helvetica,sans-Serif" font-size="10.00">mutex</text>
</a>
</g>
</g>
<!-- Node4&#45;&gt;Node7 -->
<g id="edge6" class="edge">
<title>Node4&#45;&gt;Node7</title>
<path fill="none" stroke="midnightblue" d="M351.76,-129.18C455.68,-117.78 635.65,-97.53 701,-87 713.1,-85.05 726.28,-82.48 737.96,-80.05"/>
<polygon fill="midnightblue" stroke="midnightblue" points="738.72,-83.47 747.78,-77.97 737.27,-76.62 738.72,-83.47"/>
</g>
<!-- Node8 -->
<g id="node8" class="node">
<title>Node8</title>
<g id="a_node8"><a xlink:title=" ">
<polygon fill="white" stroke="#bfbfbf" points="439.5,-0.5 439.5,-19.5 496.5,-19.5 496.5,-0.5 439.5,-0.5"/>
<text text-anchor="middle" x="468" y="-7.5" font-family="Helvetica,sans-Serif" font-size="10.00">ostream</text>
</a>
</g>
</g>
<!-- Node4&#45;&gt;Node8 -->
<g id="edge7" class="edge">
<title>Node4&#45;&gt;Node8</title>
<path fill="none" stroke="midnightblue" d="M257.16,-128.81C229.14,-114.03 180.22,-82.97 203,-56 231.51,-22.24 362.85,-13.8 429.28,-11.7"/>
<polygon fill="midnightblue" stroke="midnightblue" points="429.47,-15.19 439.36,-11.41 429.27,-8.2 429.47,-15.19"/>
</g>
<!-- Node9 -->
<g id="node9" class="node">
<title>Node9</title>
<g id="a_node9"><a xlink:title=" ">
<polygon fill="white" stroke="#bfbfbf" points="280.5,-62 280.5,-81 347.5,-81 347.5,-62 280.5,-62"/>
<text text-anchor="middle" x="314" y="-69" font-family="Helvetica,sans-Serif" font-size="10.00">streambuf</text>
</a>
</g>
</g>
<!-- Node4&#45;&gt;Node9 -->
<g id="edge9" class="edge">
<title>Node4&#45;&gt;Node9</title>
<path fill="none" stroke="midnightblue" d="M280.26,-128.73C286.22,-118.79 296.1,-102.34 303.63,-89.79"/>
<polygon fill="midnightblue" stroke="midnightblue" points="306.68,-91.5 308.82,-81.13 300.68,-87.9 306.68,-91.5"/>
</g>
<!-- Node10 -->
<g id="node10" class="node">
<title>Node10</title>
<g id="a_node10"><a xlink:title=" ">
<polygon fill="white" stroke="#bfbfbf" points="366,-62 366,-81 480,-81 480,-62 366,-62"/>
<text text-anchor="middle" x="423" y="-69" font-family="Helvetica,sans-Serif" font-size="10.00">vsomeip/export.hpp</text>
</a>
</g>
</g>
<!-- Node4&#45;&gt;Node10 -->
<g id="edge10" class="edge">
<title>Node4&#45;&gt;Node10</title>
<path fill="none" stroke="midnightblue" d="M294.65,-128.87C320.09,-117.7 364.6,-98.15 393.95,-85.26"/>
<polygon fill="midnightblue" stroke="midnightblue" points="395.52,-88.39 403.27,-81.17 392.7,-81.98 395.52,-88.39"/>
</g>
<!-- Node12 -->
<g id="node12" class="node">
<title>Node12</title>
<g id="a_node12"><a xlink:title=" ">
<polygon fill="white" stroke="#bfbfbf" points="1558,-129 1558,-148 1596,-148 1596,-129 1558,-129"/>
<text text-anchor="middle" x="1577" y="-136" font-family="Helvetica,sans-Serif" font-size="10.00">map</text>
</a>
</g>
</g>
<!-- Node11&#45;&gt;Node12 -->
<g id="edge12" class="edge">
<title>Node11&#45;&gt;Node12</title>
<path fill="none" stroke="midnightblue" d="M1513.65,-335.46C1530.49,-326.85 1547.33,-314.96 1558,-299 1587.13,-255.44 1583.73,-189.88 1579.86,-158.1"/>
<polygon fill="midnightblue" stroke="midnightblue" points="1583.31,-157.45 1578.48,-148.02 1576.37,-158.4 1583.31,-157.45"/>
</g>
<!-- Node13 -->
<g id="node13" class="node">
<title>Node13</title>
<g id="a_node13"><a xlink:title=" ">
<polygon fill="white" stroke="#bfbfbf" points="1849,-129 1849,-148 1907,-148 1907,-129 1849,-129"/>
<text text-anchor="middle" x="1878" y="-136" font-family="Helvetica,sans-Serif" font-size="10.00">memory</text>
</a>
</g>
</g>
<!-- Node11&#45;&gt;Node13 -->
<g id="edge13" class="edge">
<title>Node11&#45;&gt;Node13</title>
<path fill="none" stroke="midnightblue" d="M1523.79,-347.27C1639.52,-332.19 1871.82,-294.68 1920,-232 1938.42,-208.03 1913.35,-174.7 1894.77,-155.28"/>
<polygon fill="midnightblue" stroke="midnightblue" points="1897.14,-152.7 1887.59,-148.11 1892.19,-157.65 1897.14,-152.7"/>
</g>
<!-- Node14 -->
<g id="node14" class="node">
<title>Node14</title>
<g id="a_node14"><a xlink:href="e2e__provider_8hpp.html" target="_top" xlink:title=" ">
<polygon fill="white" stroke="black" points="1447.5,-274 1447.5,-293 1548.5,-293 1548.5,-274 1447.5,-274"/>
<text text-anchor="middle" x="1498" y="-281" font-family="Helvetica,sans-Serif" font-size="10.00">e2e_provider.hpp</text>
</a>
</g>
</g>
<!-- Node11&#45;&gt;Node14 -->
<g id="edge14" class="edge">
<title>Node11&#45;&gt;Node14</title>
<path fill="none" stroke="midnightblue" d="M1469.14,-335.36C1475.1,-324.86 1482.37,-312.05 1488.12,-301.91"/>
<polygon fill="midnightblue" stroke="midnightblue" points="1491.19,-303.6 1493.08,-293.17 1485.1,-300.14 1491.19,-303.6"/>
</g>
<!-- Node21 -->
<g id="node21" class="node">
<title>Node21</title>
<g id="a_node21"><a xlink:href="profile__interface_2checker_8hpp.html" target="_top" xlink:title=" ">
<polygon fill="white" stroke="black" points="1110,-123.5 1110,-153.5 1236,-153.5 1236,-123.5 1110,-123.5"/>
<text text-anchor="start" x="1118" y="-141.5" font-family="Helvetica,sans-Serif" font-size="10.00">../e2e/profile/profile</text>
<text text-anchor="middle" x="1173" y="-130.5" font-family="Helvetica,sans-Serif" font-size="10.00">_interface/checker.hpp</text>
</a>
</g>
</g>
<!-- Node11&#45;&gt;Node21 -->
<g id="edge42" class="edge">
<title>Node11&#45;&gt;Node21</title>
<path fill="none" stroke="midnightblue" d="M1392.46,-344.58C1342.8,-335.19 1280.53,-319.68 1265,-299 1235.85,-260.18 1297.35,-231.4 1272,-190 1263.28,-175.76 1249.14,-165.38 1234.25,-157.87"/>
<polygon fill="midnightblue" stroke="midnightblue" points="1235.46,-154.58 1224.91,-153.56 1232.52,-160.93 1235.46,-154.58"/>
</g>
<!-- Node23 -->
<g id="node23" class="node">
<title>Node23</title>
<g id="a_node23"><a xlink:href="profile__interface_2protector_8hpp.html" target="_top" xlink:title=" ">
<polygon fill="white" stroke="black" points="958.5,-123.5 958.5,-153.5 1091.5,-153.5 1091.5,-123.5 958.5,-123.5"/>
<text text-anchor="start" x="966.5" y="-141.5" font-family="Helvetica,sans-Serif" font-size="10.00">../e2e/profile/profile</text>
<text text-anchor="middle" x="1025" y="-130.5" font-family="Helvetica,sans-Serif" font-size="10.00">_interface/protector.hpp</text>
</a>
</g>
</g>
<!-- Node11&#45;&gt;Node23 -->
<g id="edge43" class="edge">
<title>Node11&#45;&gt;Node23</title>
<path fill="none" stroke="midnightblue" d="M1448.1,-335.25C1437.93,-316.35 1420.69,-287.86 1400,-268 1375.97,-244.93 1303,-202.18 1272,-190 1263.93,-186.83 1171.22,-168.24 1101.74,-154.53"/>
<polygon fill="midnightblue" stroke="midnightblue" points="1102.16,-151.04 1091.67,-152.54 1100.8,-157.91 1102.16,-151.04"/>
</g>
<!-- Node25 -->
<g id="node25" class="node">
<title>Node25</title>
<g id="a_node25"><a xlink:href="vsomeip_2export_8hpp.html" target="_top" xlink:title=" ">
<polygon fill="white" stroke="black" points="1273.5,-268.5 1273.5,-298.5 1390.5,-298.5 1390.5,-268.5 1273.5,-268.5"/>
<text text-anchor="start" x="1281.5" y="-286.5" font-family="Helvetica,sans-Serif" font-size="10.00">../../../../../interface</text>
<text text-anchor="middle" x="1332" y="-275.5" font-family="Helvetica,sans-Serif" font-size="10.00">/vsomeip/export.hpp</text>
</a>
</g>
</g>
<!-- Node11&#45;&gt;Node25 -->
<g id="edge44" class="edge">
<title>Node11&#45;&gt;Node25</title>
<path fill="none" stroke="midnightblue" d="M1422.9,-335.36C1405.17,-325.44 1383.74,-313.45 1366.14,-303.6"/>
<polygon fill="midnightblue" stroke="midnightblue" points="1367.76,-300.5 1357.33,-298.67 1364.34,-306.61 1367.76,-300.5"/>
</g>
<!-- Node26 -->
<g id="node26" class="node">
<title>Node26</title>
<g id="a_node26"><a xlink:href="vsomeip_2plugin_8hpp.html" target="_top" xlink:title=" ">
<polygon fill="white" stroke="black" points="1777,-196 1777,-226 1893,-226 1893,-196 1777,-196"/>
<text text-anchor="start" x="1785" y="-214" font-family="Helvetica,sans-Serif" font-size="10.00">../../../../../interface</text>
<text text-anchor="middle" x="1835" y="-203" font-family="Helvetica,sans-Serif" font-size="10.00">/vsomeip/plugin.hpp</text>
</a>
</g>
</g>
<!-- Node11&#45;&gt;Node26 -->
<g id="edge45" class="edge">
<title>Node11&#45;&gt;Node26</title>
<path fill="none" stroke="midnightblue" d="M1509.63,-335.42C1583.3,-307.47 1717.49,-256.57 1788.33,-229.7"/>
<polygon fill="midnightblue" stroke="midnightblue" points="1789.78,-232.9 1797.89,-226.08 1787.3,-226.35 1789.78,-232.9"/>
</g>
<!-- Node14&#45;&gt;Node13 -->
<g id="edge16" class="edge">
<title>Node14&#45;&gt;Node13</title>
<path fill="none" stroke="midnightblue" d="M1548.81,-279.85C1652.14,-273.93 1878.96,-258.1 1902,-232 1920.76,-210.75 1903.79,-176.67 1890.43,-156.35"/>
<polygon fill="midnightblue" stroke="midnightblue" points="1893.26,-154.29 1884.68,-148.07 1887.51,-158.28 1893.26,-154.29"/>
</g>
<!-- Node15 -->
<g id="node15" class="node">
<title>Node15</title>
<g id="a_node15"><a xlink:title=" ">
<polygon fill="white" stroke="#bfbfbf" points="1727,-129 1727,-148 1771,-148 1771,-129 1727,-129"/>
<text text-anchor="middle" x="1749" y="-136" font-family="Helvetica,sans-Serif" font-size="10.00">string</text>
</a>
</g>
</g>
<!-- Node14&#45;&gt;Node15 -->
<g id="edge15" class="edge">
<title>Node14&#45;&gt;Node15</title>
<path fill="none" stroke="midnightblue" d="M1548.76,-277.87C1609.2,-271.3 1705.12,-257.18 1730,-232 1749.25,-212.52 1751.47,-179.07 1750.68,-158.18"/>
<polygon fill="midnightblue" stroke="midnightblue" points="1754.17,-157.79 1750.03,-148.04 1747.18,-158.24 1754.17,-157.79"/>
</g>
<!-- Node16 -->
<g id="node16" class="node">
<title>Node16</title>
<g id="a_node16"><a xlink:href="e2e__protection_2include_2buffer_2buffer_8hpp.html" target="_top" xlink:title=" ">
<polygon fill="white" stroke="black" points="852.5,-62 852.5,-81 967.5,-81 967.5,-62 852.5,-62"/>
<text text-anchor="middle" x="910" y="-69" font-family="Helvetica,sans-Serif" font-size="10.00">../../buffer/buffer.hpp</text>
</a>
</g>
</g>
<!-- Node14&#45;&gt;Node16 -->
<g id="edge17" class="edge">
<title>Node14&#45;&gt;Node16</title>
<path fill="none" stroke="midnightblue" d="M1479.95,-273.83C1460.37,-264.24 1428.4,-248.03 1402,-232 1329.39,-187.92 1323.94,-154.37 1245,-123 1220.67,-113.33 1068.09,-92.68 977.46,-81"/>
<polygon fill="midnightblue" stroke="midnightblue" points="977.9,-77.53 967.54,-79.73 977.01,-84.47 977.9,-77.53"/>
</g>
<!-- Node19 -->
<g id="node19" class="node">
<title>Node19</title>
<g id="a_node19"><a xlink:href="config_8hpp.html" target="_top" xlink:title=" ">
<polygon fill="white" stroke="black" points="1433,-201.5 1433,-220.5 1549,-220.5 1549,-201.5 1433,-201.5"/>
<text text-anchor="middle" x="1491" y="-208.5" font-family="Helvetica,sans-Serif" font-size="10.00">../../e2exf/config.hpp</text>
</a>
</g>
</g>
<!-- Node14&#45;&gt;Node19 -->
<g id="edge22" class="edge">
<title>Node14&#45;&gt;Node19</title>
<path fill="none" stroke="midnightblue" d="M1497.14,-273.86C1496.08,-263.18 1494.25,-244.72 1492.86,-230.73"/>
<polygon fill="midnightblue" stroke="midnightblue" points="1496.34,-230.32 1491.87,-220.72 1489.37,-231.01 1496.34,-230.32"/>
</g>
<!-- Node22 -->
<g id="node22" class="node">
<title>Node22</title>
<g id="a_node22"><a xlink:href="profile__interface_8hpp.html" target="_top" xlink:title=" ">
<polygon fill="white" stroke="black" points="1050,-56.5 1050,-86.5 1170,-86.5 1170,-56.5 1050,-56.5"/>
<text text-anchor="start" x="1058" y="-74.5" font-family="Helvetica,sans-Serif" font-size="10.00">../profile_interface</text>
<text text-anchor="middle" x="1110" y="-63.5" font-family="Helvetica,sans-Serif" font-size="10.00">/profile_interface.hpp</text>
</a>
</g>
</g>
<!-- Node14&#45;&gt;Node22 -->
<g id="edge41" class="edge">
<title>Node14&#45;&gt;Node22</title>
<path fill="none" stroke="midnightblue" d="M1479.56,-273.92C1463,-265.38 1439.04,-250.84 1424,-232 1391.5,-191.31 1421.18,-156.13 1381,-123 1351.04,-98.29 1250.18,-84.62 1180.34,-77.92"/>
<polygon fill="midnightblue" stroke="midnightblue" points="1180.55,-74.42 1170.27,-76.98 1179.9,-81.39 1180.55,-74.42"/>
</g>
<!-- Node24 -->
<g id="node24" class="node">
<title>Node24</title>
<g id="a_node24"><a xlink:href="e2e_8hpp.html" target="_top" xlink:title=" ">
<polygon fill="white" stroke="black" points="1605,-196 1605,-226 1721,-226 1721,-196 1605,-196"/>
<text text-anchor="start" x="1613" y="-214" font-family="Helvetica,sans-Serif" font-size="10.00">../../../../configuration</text>
<text text-anchor="middle" x="1663" y="-203" font-family="Helvetica,sans-Serif" font-size="10.00">/include/e2e.hpp</text>
</a>
</g>
</g>
<!-- Node14&#45;&gt;Node24 -->
<g id="edge36" class="edge">
<title>Node14&#45;&gt;Node24</title>
<path fill="none" stroke="midnightblue" d="M1517.9,-274C1543.26,-263.16 1587.75,-244.15 1620.8,-230.03"/>
<polygon fill="midnightblue" stroke="midnightblue" points="1622.4,-233.15 1630.22,-226.01 1619.65,-226.72 1622.4,-233.15"/>
</g>
<!-- Node16&#45;&gt;Node6 -->
<g id="edge19" class="edge">
<title>Node16&#45;&gt;Node6</title>
<path fill="none" stroke="midnightblue" d="M890.23,-61.98C866.86,-51.9 827.79,-35.05 801,-23.5"/>
<polygon fill="midnightblue" stroke="midnightblue" points="802.3,-20.25 791.74,-19.51 799.53,-26.68 802.3,-20.25"/>
</g>
<!-- Node16&#45;&gt;Node8 -->
<g id="edge20" class="edge">
<title>Node16&#45;&gt;Node8</title>
<path fill="none" stroke="midnightblue" d="M852.24,-62.48C836.89,-60.36 820.32,-58.08 805,-56 697.18,-41.36 569.91,-24.47 507.09,-16.16"/>
<polygon fill="midnightblue" stroke="midnightblue" points="507.23,-12.65 496.86,-14.81 506.31,-19.59 507.23,-12.65"/>
</g>
<!-- Node17 -->
<g id="node17" class="node">
<title>Node17</title>
<g id="a_node17"><a xlink:title=" ">
<polygon fill="white" stroke="#bfbfbf" points="877.5,-0.5 877.5,-19.5 942.5,-19.5 942.5,-0.5 877.5,-0.5"/>
<text text-anchor="middle" x="910" y="-7.5" font-family="Helvetica,sans-Serif" font-size="10.00">stdexcept</text>
</a>
</g>
</g>
<!-- Node16&#45;&gt;Node17 -->
<g id="edge18" class="edge">
<title>Node16&#45;&gt;Node17</title>
<path fill="none" stroke="midnightblue" d="M910,-61.98C910,-53.58 910,-40.48 910,-29.66"/>
<polygon fill="midnightblue" stroke="midnightblue" points="913.5,-29.51 910,-19.51 906.5,-29.51 913.5,-29.51"/>
</g>
<!-- Node18 -->
<g id="node18" class="node">
<title>Node18</title>
<g id="a_node18"><a xlink:title=" ">
<polygon fill="white" stroke="#bfbfbf" points="1293.5,-0.5 1293.5,-19.5 1340.5,-19.5 1340.5,-0.5 1293.5,-0.5"/>
<text text-anchor="middle" x="1317" y="-7.5" font-family="Helvetica,sans-Serif" font-size="10.00">vector</text>
</a>
</g>
</g>
<!-- Node16&#45;&gt;Node18 -->
<g id="edge21" class="edge">
<title>Node16&#45;&gt;Node18</title>
<path fill="none" stroke="midnightblue" d="M967.88,-62.04C1054.09,-49.43 1213.53,-26.13 1283.08,-15.96"/>
<polygon fill="midnightblue" stroke="midnightblue" points="1283.67,-19.41 1293.06,-14.5 1282.65,-12.48 1283.67,-19.41"/>
</g>
<!-- Node19&#45;&gt;Node12 -->
<g id="edge35" class="edge">
<title>Node19&#45;&gt;Node12</title>
<path fill="none" stroke="midnightblue" d="M1501.55,-201.36C1515.73,-189.73 1541.18,-168.86 1558.57,-154.61"/>
<polygon fill="midnightblue" stroke="midnightblue" points="1560.85,-157.26 1566.37,-148.22 1556.42,-151.85 1560.85,-157.26"/>
</g>
<!-- Node19&#45;&gt;Node13 -->
<g id="edge34" class="edge">
<title>Node19&#45;&gt;Node13</title>
<path fill="none" stroke="midnightblue" d="M1535.17,-201.47C1553.92,-197.88 1576.02,-193.69 1596,-190 1682.61,-174 1784.34,-155.97 1838.82,-146.38"/>
<polygon fill="midnightblue" stroke="midnightblue" points="1839.51,-149.81 1848.75,-144.63 1838.3,-142.91 1839.51,-149.81"/>
</g>
<!-- Node20 -->
<g id="node20" class="node">
<title>Node20</title>
<g id="a_node20"><a xlink:title=" ">
<polygon fill="white" stroke="#bfbfbf" points="1282.5,-62 1282.5,-81 1441.5,-81 1441.5,-62 1282.5,-62"/>
<text text-anchor="middle" x="1362" y="-69" font-family="Helvetica,sans-Serif" font-size="10.00">vsomeip/primitive_types.hpp</text>
</a>
</g>
</g>
<!-- Node19&#45;&gt;Node20 -->
<g id="edge23" class="edge">
<title>Node19&#45;&gt;Node20</title>
<path fill="none" stroke="midnightblue" d="M1484.66,-201.48C1472.58,-185.47 1445.17,-150.06 1419,-123 1406.99,-110.58 1392.39,-97.68 1380.97,-88.03"/>
<polygon fill="midnightblue" stroke="midnightblue" points="1382.87,-85.06 1372.95,-81.34 1378.39,-90.43 1382.87,-85.06"/>
</g>
<!-- Node19&#45;&gt;Node21 -->
<g id="edge24" class="edge">
<title>Node19&#45;&gt;Node21</title>
<path fill="none" stroke="midnightblue" d="M1452.64,-201.5C1401.68,-190.2 1310.61,-170.01 1246.26,-155.74"/>
<polygon fill="midnightblue" stroke="midnightblue" points="1246.7,-152.25 1236.18,-153.51 1245.18,-159.09 1246.7,-152.25"/>
</g>
<!-- Node19&#45;&gt;Node23 -->
<g id="edge30" class="edge">
<title>Node19&#45;&gt;Node23</title>
<path fill="none" stroke="midnightblue" d="M1432.73,-202.48C1358.39,-192.7 1225.63,-174.6 1101.74,-154.08"/>
<polygon fill="midnightblue" stroke="midnightblue" points="1102.14,-150.59 1091.7,-152.4 1100.99,-157.5 1102.14,-150.59"/>
</g>
<!-- Node21&#45;&gt;Node7 -->
<g id="edge25" class="edge">
<title>Node21&#45;&gt;Node7</title>
<path fill="none" stroke="midnightblue" d="M1109.82,-124.56C1106.84,-124.01 1103.89,-123.49 1101,-123 987.3,-103.61 957.7,-106.39 844,-87 831.65,-84.89 818.18,-82.27 806.27,-79.83"/>
<polygon fill="midnightblue" stroke="midnightblue" points="806.76,-76.36 796.26,-77.76 805.34,-83.22 806.76,-76.36"/>
</g>
<!-- Node21&#45;&gt;Node16 -->
<g id="edge29" class="edge">
<title>Node21&#45;&gt;Node16</title>
<path fill="none" stroke="midnightblue" d="M1116.26,-123.48C1067.78,-111.5 999.02,-94.5 954.46,-83.49"/>
<polygon fill="midnightblue" stroke="midnightblue" points="955.06,-80.03 944.51,-81.03 953.38,-86.83 955.06,-80.03"/>
</g>
<!-- Node21&#45;&gt;Node20 -->
<g id="edge26" class="edge">
<title>Node21&#45;&gt;Node20</title>
<path fill="none" stroke="midnightblue" d="M1214.01,-123.4C1247.91,-111.74 1295.49,-95.37 1327.47,-84.38"/>
<polygon fill="midnightblue" stroke="midnightblue" points="1328.95,-87.57 1337.26,-81.01 1326.67,-80.95 1328.95,-87.57"/>
</g>
<!-- Node21&#45;&gt;Node22 -->
<g id="edge27" class="edge">
<title>Node21&#45;&gt;Node22</title>
<path fill="none" stroke="midnightblue" d="M1159.33,-123.4C1150.99,-114.79 1140.17,-103.63 1130.78,-93.94"/>
<polygon fill="midnightblue" stroke="midnightblue" points="1133.12,-91.32 1123.64,-86.58 1128.09,-96.19 1133.12,-91.32"/>
</g>
<!-- Node22&#45;&gt;Node6 -->
<g id="edge28" class="edge">
<title>Node22&#45;&gt;Node6</title>
<path fill="none" stroke="midnightblue" d="M1049.96,-59.93C979.42,-47.51 864.72,-27.32 807.22,-17.2"/>
<polygon fill="midnightblue" stroke="midnightblue" points="807.63,-13.72 797.17,-15.43 806.41,-20.61 807.63,-13.72"/>
</g>
<!-- Node23&#45;&gt;Node16 -->
<g id="edge32" class="edge">
<title>Node23&#45;&gt;Node16</title>
<path fill="none" stroke="midnightblue" d="M1000.05,-123.4C980.4,-112.29 953.21,-96.92 933.85,-85.98"/>
<polygon fill="midnightblue" stroke="midnightblue" points="935.48,-82.88 925.05,-81.01 932.03,-88.97 935.48,-82.88"/>
</g>
<!-- Node23&#45;&gt;Node20 -->
<g id="edge31" class="edge">
<title>Node23&#45;&gt;Node20</title>
<path fill="none" stroke="midnightblue" d="M1091.58,-124.66C1154.86,-112.45 1248.87,-94.32 1307.73,-82.97"/>
<polygon fill="midnightblue" stroke="midnightblue" points="1308.43,-86.4 1317.58,-81.07 1307.1,-79.52 1308.43,-86.4"/>
</g>
<!-- Node23&#45;&gt;Node22 -->
<g id="edge33" class="edge">
<title>Node23&#45;&gt;Node22</title>
<path fill="none" stroke="midnightblue" d="M1043.44,-123.4C1055.14,-114.45 1070.46,-102.74 1083.45,-92.8"/>
<polygon fill="midnightblue" stroke="midnightblue" points="1085.77,-95.43 1091.59,-86.58 1081.52,-89.87 1085.77,-95.43"/>
</g>
<!-- Node24&#45;&gt;Node12 -->
<g id="edge37" class="edge">
<title>Node24&#45;&gt;Node12</title>
<path fill="none" stroke="midnightblue" d="M1645.6,-195.73C1631.15,-183.89 1610.66,-167.09 1595.83,-154.94"/>
<polygon fill="midnightblue" stroke="midnightblue" points="1597.8,-152.03 1587.85,-148.39 1593.36,-157.44 1597.8,-152.03"/>
</g>
<!-- Node24&#45;&gt;Node15 -->
<g id="edge38" class="edge">
<title>Node24&#45;&gt;Node15</title>
<path fill="none" stroke="midnightblue" d="M1680.4,-195.73C1694.85,-183.89 1715.34,-167.09 1730.17,-154.94"/>
<polygon fill="midnightblue" stroke="midnightblue" points="1732.64,-157.44 1738.15,-148.39 1728.2,-152.03 1732.64,-157.44"/>
</g>
<!-- Node24&#45;&gt;Node18 -->
<g id="edge39" class="edge">
<title>Node24&#45;&gt;Node18</title>
<path fill="none" stroke="midnightblue" d="M1661.81,-195.71C1659.48,-176.68 1652.68,-143.09 1633,-123 1554.46,-42.81 1414.93,-19.88 1350.87,-13.45"/>
<polygon fill="midnightblue" stroke="midnightblue" points="1350.81,-9.93 1340.53,-12.49 1350.17,-16.9 1350.81,-9.93"/>
</g>
<!-- Node24&#45;&gt;Node20 -->
<g id="edge40" class="edge">
<title>Node24&#45;&gt;Node20</title>
<path fill="none" stroke="midnightblue" d="M1657.59,-195.73C1649.36,-176.08 1631.78,-141.08 1605,-123 1560.07,-92.67 1500.62,-79.95 1451.77,-74.86"/>
<polygon fill="midnightblue" stroke="midnightblue" points="1451.8,-71.35 1441.51,-73.89 1451.14,-78.32 1451.8,-71.35"/>
</g>
<!-- Node26&#45;&gt;Node13 -->
<g id="edge46" class="edge">
<title>Node26&#45;&gt;Node13</title>
<path fill="none" stroke="midnightblue" d="M1843.7,-195.73C1850.52,-184.56 1860.03,-168.96 1867.31,-157.02"/>
<polygon fill="midnightblue" stroke="midnightblue" points="1870.36,-158.75 1872.58,-148.39 1864.38,-155.11 1870.36,-158.75"/>
</g>
<!-- Node26&#45;&gt;Node15 -->
<g id="edge47" class="edge">
<title>Node26&#45;&gt;Node15</title>
<path fill="none" stroke="midnightblue" d="M1817.6,-195.73C1803.15,-183.89 1782.66,-167.09 1767.83,-154.94"/>
<polygon fill="midnightblue" stroke="midnightblue" points="1769.8,-152.03 1759.85,-148.39 1765.36,-157.44 1769.8,-152.03"/>
</g>
<!-- Node27&#45;&gt;Node21 -->
<g id="edge53" class="edge">
<title>Node27&#45;&gt;Node21</title>
<path fill="none" stroke="midnightblue" d="M1181.66,-190.36C1180.26,-182.14 1178.61,-172.49 1177.14,-163.82"/>
<polygon fill="midnightblue" stroke="midnightblue" points="1180.58,-163.16 1175.45,-153.89 1173.68,-164.34 1180.58,-163.16"/>
</g>
<!-- Node27&#45;&gt;Node28 -->
<g id="edge49" class="edge">
<title>Node27&#45;&gt;Node28</title>
<path fill="none" stroke="midnightblue" d="M1107.23,-191.48C1058.08,-179.77 995.48,-164.86 949.94,-154.01"/>
<polygon fill="midnightblue" stroke="midnightblue" points="950.74,-150.61 940.2,-151.69 949.12,-157.42 950.74,-150.61"/>
</g>
<!-- Node28&#45;&gt;Node6 -->
<g id="edge50" class="edge">
<title>Node28&#45;&gt;Node6</title>
<path fill="none" stroke="midnightblue" d="M876.03,-123.48C854.22,-99.9 810.32,-52.43 787.13,-27.36"/>
<polygon fill="midnightblue" stroke="midnightblue" points="789.49,-24.75 780.13,-19.79 784.35,-29.51 789.49,-24.75"/>
</g>
<!-- Node28&#45;&gt;Node16 -->
<g id="edge52" class="edge">
<title>Node28&#45;&gt;Node16</title>
<path fill="none" stroke="midnightblue" d="M893.56,-123.4C896.64,-113.86 900.73,-101.18 904.07,-90.86"/>
<polygon fill="midnightblue" stroke="midnightblue" points="907.45,-91.79 907.19,-81.19 900.79,-89.63 907.45,-91.79"/>
</g>
<!-- Node29 -->
<g id="node29" class="node">
<title>Node29</title>
<g id="a_node29"><a xlink:title=" ">
<polygon fill="white" stroke="#bfbfbf" points="574,-62 574,-81 692,-81 692,-62 574,-62"/>
<text text-anchor="middle" x="633" y="-69" font-family="Helvetica,sans-Serif" font-size="10.00">vsomeip/defines.hpp</text>
</a>
</g>
</g>
<!-- Node28&#45;&gt;Node29 -->
<g id="edge51" class="edge">
<title>Node28&#45;&gt;Node29</title>
<path fill="none" stroke="midnightblue" d="M837.81,-124.5C790.57,-112.51 721.17,-94.89 676.53,-83.55"/>
<polygon fill="midnightblue" stroke="midnightblue" points="677.13,-80.09 666.57,-81.02 675.4,-86.88 677.13,-80.09"/>
</g>
<!-- Node30&#45;&gt;Node7 -->
<g id="edge56" class="edge">
<title>Node30&#45;&gt;Node7</title>
<path fill="none" stroke="midnightblue" d="M934.37,-191.63C892.66,-180.72 846.33,-166.6 829,-154 806.14,-137.38 789.21,-108.69 779.97,-90.17"/>
<polygon fill="midnightblue" stroke="midnightblue" points="783.1,-88.59 775.64,-81.06 776.78,-91.59 783.1,-88.59"/>
</g>
<!-- Node30&#45;&gt;Node23 -->
<g id="edge58" class="edge">
<title>Node30&#45;&gt;Node23</title>
<path fill="none" stroke="midnightblue" d="M1015.62,-190.36C1017.14,-182.14 1018.92,-172.49 1020.52,-163.82"/>
<polygon fill="midnightblue" stroke="midnightblue" points="1023.97,-164.36 1022.35,-153.89 1017.09,-163.09 1023.97,-164.36"/>
</g>
<!-- Node30&#45;&gt;Node28 -->
<g id="edge57" class="edge">
<title>Node30&#45;&gt;Node28</title>
<path fill="none" stroke="midnightblue" d="M977.74,-190.36C960.58,-180.53 939.89,-168.67 922.8,-158.87"/>
<polygon fill="midnightblue" stroke="midnightblue" points="924.14,-155.61 913.72,-153.67 920.66,-161.68 924.14,-155.61"/>
</g>
<!-- Node31&#45;&gt;Node21 -->
<g id="edge64" class="edge">
<title>Node31&#45;&gt;Node21</title>
<path fill="none" stroke="midnightblue" d="M916.77,-192.02C919.88,-191.33 922.97,-190.66 926,-190 958.51,-182.94 1039.53,-166.45 1099.97,-154.23"/>
<polygon fill="midnightblue" stroke="midnightblue" points="1100.75,-157.64 1109.86,-152.23 1099.36,-150.78 1100.75,-157.64"/>
</g>
<!-- Node31&#45;&gt;Node32 -->
<g id="edge60" class="edge">
<title>Node31&#45;&gt;Node32</title>
<path fill="none" stroke="midnightblue" d="M787.75,-190.36C760.57,-179.95 727.44,-167.25 701.08,-157.15"/>
<polygon fill="midnightblue" stroke="midnightblue" points="702.29,-153.87 691.69,-153.56 699.78,-160.41 702.29,-153.87"/>
</g>
<!-- Node32&#45;&gt;Node6 -->
<g id="edge61" class="edge">
<title>Node32&#45;&gt;Node6</title>
<path fill="none" stroke="midnightblue" d="M667.97,-123.48C689.78,-99.9 733.68,-52.43 756.87,-27.36"/>
<polygon fill="midnightblue" stroke="midnightblue" points="759.65,-29.51 763.87,-19.79 754.51,-24.75 759.65,-29.51"/>
</g>
<!-- Node32&#45;&gt;Node16 -->
<g id="edge63" class="edge">
<title>Node32&#45;&gt;Node16</title>
<path fill="none" stroke="midnightblue" d="M706.3,-124.42C753.39,-112.42 822.38,-94.83 866.74,-83.53"/>
<polygon fill="midnightblue" stroke="midnightblue" points="867.82,-86.86 876.64,-81 866.09,-80.08 867.82,-86.86"/>
</g>
<!-- Node32&#45;&gt;Node29 -->
<g id="edge62" class="edge">
<title>Node32&#45;&gt;Node29</title>
<path fill="none" stroke="midnightblue" d="M650.23,-123.4C647,-113.86 642.71,-101.18 639.21,-90.86"/>
<polygon fill="midnightblue" stroke="midnightblue" points="642.46,-89.54 635.94,-81.19 635.83,-91.79 642.46,-89.54"/>
</g>
<!-- Node33&#45;&gt;Node7 -->
<g id="edge67" class="edge">
<title>Node33&#45;&gt;Node7</title>
<path fill="none" stroke="midnightblue" d="M543.78,-192.09C546.89,-191.38 549.98,-190.68 553,-190 624.94,-173.74 653.7,-195.01 715,-154 738.49,-138.29 755.25,-109.35 764.27,-90.52"/>
<polygon fill="midnightblue" stroke="midnightblue" points="767.54,-91.8 768.49,-81.25 761.16,-88.9 767.54,-91.8"/>
</g>
<!-- Node33&#45;&gt;Node23 -->
<g id="edge69" class="edge">
<title>Node33&#45;&gt;Node23</title>
<path fill="none" stroke="midnightblue" d="M543.69,-191.59C546.83,-191.02 549.94,-190.49 553,-190 724.28,-162.66 772.22,-177.99 948.21,-154"/>
<polygon fill="midnightblue" stroke="midnightblue" points="948.91,-157.44 958.33,-152.6 947.95,-150.51 948.91,-157.44"/>
</g>
<!-- Node33&#45;&gt;Node32 -->
<g id="edge68" class="edge">
<title>Node33&#45;&gt;Node32</title>
<path fill="none" stroke="midnightblue" d="M518.4,-190.46C546.32,-180.04 580.41,-167.32 607.55,-157.2"/>
<polygon fill="midnightblue" stroke="midnightblue" points="609.06,-160.37 617.21,-153.6 606.62,-153.81 609.06,-160.37"/>
</g>
<!-- Node34&#45;&gt;Node7 -->
<g id="edge76" class="edge">
<title>Node34&#45;&gt;Node7</title>
<path fill="none" stroke="midnightblue" d="M696.38,-190.39C715.23,-181.85 734.45,-170.02 748,-154 763.07,-136.18 768.68,-109.25 770.77,-91.28"/>
<polygon fill="midnightblue" stroke="midnightblue" points="774.27,-91.45 771.68,-81.18 767.29,-90.82 774.27,-91.45"/>
</g>
<!-- Node34&#45;&gt;Node21 -->
<g id="edge75" class="edge">
<title>Node34&#45;&gt;Node21</title>
<path fill="none" stroke="midnightblue" d="M704.59,-197.32C720.5,-194.71 737.3,-192.12 753,-190 903.79,-169.66 945.5,-177.04 1099.53,-154.13"/>
<polygon fill="midnightblue" stroke="midnightblue" points="1100.48,-157.53 1109.84,-152.57 1099.43,-150.6 1100.48,-157.53"/>
</g>
<!-- Node34&#45;&gt;Node35 -->
<g id="edge71" class="edge">
<title>Node34&#45;&gt;Node35</title>
<path fill="none" stroke="midnightblue" d="M590.94,-190.36C569.2,-180.21 542.82,-167.9 521.47,-157.93"/>
<polygon fill="midnightblue" stroke="midnightblue" points="522.89,-154.73 512.35,-153.67 519.93,-161.07 522.89,-154.73"/>
</g>
<!-- Node35&#45;&gt;Node6 -->
<g id="edge72" class="edge">
<title>Node35&#45;&gt;Node6</title>
<path fill="none" stroke="midnightblue" d="M492.33,-123.23C506.54,-104.71 533.9,-72.79 565,-56 620.19,-26.2 693.71,-16.13 736.65,-12.73"/>
<polygon fill="midnightblue" stroke="midnightblue" points="737.15,-16.21 746.88,-12 736.66,-9.22 737.15,-16.21"/>
</g>
<!-- Node35&#45;&gt;Node16 -->
<g id="edge74" class="edge">
<title>Node35&#45;&gt;Node16</title>
<path fill="none" stroke="midnightblue" d="M547.94,-127.49C628.33,-115.28 763.4,-94.76 843.87,-82.54"/>
<polygon fill="midnightblue" stroke="midnightblue" points="844.53,-85.98 853.89,-81.02 843.48,-79.06 844.53,-85.98"/>
</g>
<!-- Node35&#45;&gt;Node29 -->
<g id="edge73" class="edge">
<title>Node35&#45;&gt;Node29</title>
<path fill="none" stroke="midnightblue" d="M514.76,-123.4C541.26,-111.99 578.22,-96.08 603.73,-85.1"/>
<polygon fill="midnightblue" stroke="midnightblue" points="605.44,-88.18 613.24,-81.01 602.67,-81.75 605.44,-88.18"/>
</g>
<!-- Node36&#45;&gt;Node7 -->
<g id="edge79" class="edge">
<title>Node36&#45;&gt;Node7</title>
<path fill="none" stroke="midnightblue" d="M331.73,-192.98C336.55,-191.94 341.34,-190.94 346,-190 439.26,-171.22 470.39,-193.37 557,-154 576.84,-144.98 575.68,-133.09 595,-123 619.85,-110.03 693.76,-91.12 737.83,-80.5"/>
<polygon fill="midnightblue" stroke="midnightblue" points="738.9,-83.85 747.81,-78.12 737.27,-77.04 738.9,-83.85"/>
</g>
<!-- Node36&#45;&gt;Node23 -->
<g id="edge81" class="edge">
<title>Node36&#45;&gt;Node23</title>
<path fill="none" stroke="midnightblue" d="M331.53,-196.85C347.45,-194.27 364.26,-191.8 380,-190 628.43,-161.51 695.84,-185.17 948.14,-153.99"/>
<polygon fill="midnightblue" stroke="midnightblue" points="948.86,-157.42 958.35,-152.71 947.99,-150.48 948.86,-157.42"/>
</g>
<!-- Node36&#45;&gt;Node35 -->
<g id="edge80" class="edge">
<title>Node36&#45;&gt;Node35</title>
<path fill="none" stroke="midnightblue" d="M321.54,-190.46C354.92,-179.86 395.79,-166.88 427.93,-156.67"/>
<polygon fill="midnightblue" stroke="midnightblue" points="429.14,-159.96 437.61,-153.6 427.02,-153.29 429.14,-159.96"/>
</g>
</g>
</svg>
