<?xml version="1.0" encoding="UTF-8" standalone="no"?>
<!DOCTYPE svg PUBLIC "-//W3C//DTD SVG 1.1//EN"
 "http://www.w3.org/Graphics/SVG/1.1/DTD/svg11.dtd">
<!-- Generated by graphviz version 2.43.0 (0)
 -->
<!-- Title: /home/kali/projects/vsomeip/implementation/e2e_protection/include/e2e/profile/e2e_provider.hpp Pages: 1 -->
<svg width="613pt" height="318pt"
 viewBox="0.00 0.00 613.03 318.00" xmlns="http://www.w3.org/2000/svg" xmlns:xlink="http://www.w3.org/1999/xlink">
<g id="graph0" class="graph" transform="scale(1 1) rotate(0) translate(4 314)">
<title>/home/kali/projects/vsomeip/implementation/e2e_protection/include/e2e/profile/e2e_provider.hpp</title>
<polygon fill="white" stroke="transparent" points="-4,4 -4,-314 609.03,-314 609.03,4 -4,4"/>
<!-- Node1 -->
<g id="node1" class="node">
<title>Node1</title>
<g id="a_node1"><a xlink:title=" ">
<polygon fill="#bfbfbf" stroke="black" points="80.03,-257.5 80.03,-309.5 238.03,-309.5 238.03,-257.5 80.03,-257.5"/>
<text text-anchor="start" x="88.03" y="-297.5" font-family="Helvetica,sans-Serif" font-size="10.00">/home/kali/projects</text>
<text text-anchor="start" x="88.03" y="-286.5" font-family="Helvetica,sans-Serif" font-size="10.00">/vsomeip/implementation</text>
<text text-anchor="start" x="88.03" y="-275.5" font-family="Helvetica,sans-Serif" font-size="10.00">/e2e_protection/include</text>
<text text-anchor="middle" x="159.03" y="-264.5" font-family="Helvetica,sans-Serif" font-size="10.00">/e2e/profile/e2e_provider.hpp</text>
</a>
</g>
</g>
<!-- Node2 -->
<g id="node2" class="node">
<title>Node2</title>
<g id="a_node2"><a xlink:title=" ">
<polygon fill="white" stroke="#bfbfbf" points="525.03,-129 525.03,-148 569.03,-148 569.03,-129 525.03,-129"/>
<text text-anchor="middle" x="547.03" y="-136" font-family="Helvetica,sans-Serif" font-size="10.00">string</text>
</a>
</g>
</g>
<!-- Node1&#45;&gt;Node2 -->
<g id="edge1" class="edge">
<title>Node1&#45;&gt;Node2</title>
<path fill="none" stroke="midnightblue" d="M235.02,-257.42C307.82,-232.85 420.44,-193.46 516.03,-154 517.4,-153.43 518.8,-152.84 520.21,-152.23"/>
<polygon fill="midnightblue" stroke="midnightblue" points="521.77,-155.36 529.45,-148.07 518.9,-148.98 521.77,-155.36"/>
</g>
<!-- Node3 -->
<g id="node3" class="node">
<title>Node3</title>
<g id="a_node3"><a xlink:title=" ">
<polygon fill="white" stroke="#bfbfbf" points="59.03,-129 59.03,-148 117.03,-148 117.03,-129 59.03,-129"/>
<text text-anchor="middle" x="88.03" y="-136" font-family="Helvetica,sans-Serif" font-size="10.00">memory</text>
</a>
</g>
</g>
<!-- Node1&#45;&gt;Node3 -->
<g id="edge2" class="edge">
<title>Node1&#45;&gt;Node3</title>
<path fill="none" stroke="midnightblue" d="M146.5,-257.26C132.23,-228.51 109.27,-182.27 96.79,-157.14"/>
<polygon fill="midnightblue" stroke="midnightblue" points="99.86,-155.45 92.28,-148.05 93.59,-158.57 99.86,-155.45"/>
</g>
<!-- Node4 -->
<g id="node4" class="node">
<title>Node4</title>
<g id="a_node4"><a xlink:href="e2e__protection_2include_2buffer_2buffer_8hpp.html" target="_top" xlink:title=" ">
<polygon fill="white" stroke="black" points="39.53,-62 39.53,-81 154.53,-81 154.53,-62 39.53,-62"/>
<text text-anchor="middle" x="97.03" y="-69" font-family="Helvetica,sans-Serif" font-size="10.00">../../buffer/buffer.hpp</text>
</a>
</g>
</g>
<!-- Node1&#45;&gt;Node4 -->
<g id="edge3" class="edge">
<title>Node1&#45;&gt;Node4</title>
<path fill="none" stroke="midnightblue" d="M79.67,-266.15C55.43,-257.03 31.41,-242.9 17.03,-221 -6.88,-184.59 -4,-161.14 17.03,-123 26.58,-105.69 44.83,-93.49 61.5,-85.42"/>
<polygon fill="midnightblue" stroke="midnightblue" points="63.35,-88.43 71.05,-81.15 60.49,-82.04 63.35,-88.43"/>
</g>
<!-- Node9 -->
<g id="node9" class="node">
<title>Node9</title>
<g id="a_node9"><a xlink:href="config_8hpp.html" target="_top" xlink:title=" ">
<polygon fill="white" stroke="black" points="187.03,-196 187.03,-215 303.03,-215 303.03,-196 187.03,-196"/>
<text text-anchor="middle" x="245.03" y="-203" font-family="Helvetica,sans-Serif" font-size="10.00">../../e2exf/config.hpp</text>
</a>
</g>
</g>
<!-- Node1&#45;&gt;Node9 -->
<g id="edge8" class="edge">
<title>Node1&#45;&gt;Node9</title>
<path fill="none" stroke="midnightblue" d="M187.67,-257.19C200.88,-245.52 216.13,-232.04 227.59,-221.91"/>
<polygon fill="midnightblue" stroke="midnightblue" points="230,-224.45 235.18,-215.21 225.37,-219.21 230,-224.45"/>
</g>
<!-- Node13 -->
<g id="node13" class="node">
<title>Node13</title>
<g id="a_node13"><a xlink:href="profile__interface_8hpp.html" target="_top" xlink:title=" ">
<polygon fill="white" stroke="black" points="173.03,-56.5 173.03,-86.5 293.03,-86.5 293.03,-56.5 173.03,-56.5"/>
<text text-anchor="start" x="181.03" y="-74.5" font-family="Helvetica,sans-Serif" font-size="10.00">../profile_interface</text>
<text text-anchor="middle" x="233.03" y="-63.5" font-family="Helvetica,sans-Serif" font-size="10.00">/profile_interface.hpp</text>
</a>
</g>
</g>
<!-- Node1&#45;&gt;Node13 -->
<g id="edge27" class="edge">
<title>Node1&#45;&gt;Node13</title>
<path fill="none" stroke="midnightblue" d="M120.62,-257.35C76.66,-225.45 14.98,-169.03 50.03,-123 57.22,-113.56 114.28,-98.75 162.8,-87.6"/>
<polygon fill="midnightblue" stroke="midnightblue" points="163.71,-90.98 172.69,-85.35 162.16,-84.16 163.71,-90.98"/>
</g>
<!-- Node16 -->
<g id="node16" class="node">
<title>Node16</title>
<g id="a_node16"><a xlink:href="e2e_8hpp.html" target="_top" xlink:title=" ">
<polygon fill="white" stroke="black" points="489.03,-190.5 489.03,-220.5 605.03,-220.5 605.03,-190.5 489.03,-190.5"/>
<text text-anchor="start" x="497.03" y="-208.5" font-family="Helvetica,sans-Serif" font-size="10.00">../../../../configuration</text>
<text text-anchor="middle" x="547.03" y="-197.5" font-family="Helvetica,sans-Serif" font-size="10.00">/include/e2e.hpp</text>
</a>
</g>
</g>
<!-- Node1&#45;&gt;Node16 -->
<g id="edge22" class="edge">
<title>Node1&#45;&gt;Node16</title>
<path fill="none" stroke="midnightblue" d="M238.48,-266.94C309.24,-253.08 411.65,-233.02 478.78,-219.87"/>
<polygon fill="midnightblue" stroke="midnightblue" points="479.69,-223.26 488.83,-217.9 478.34,-216.39 479.69,-223.26"/>
</g>
<!-- Node5 -->
<g id="node5" class="node">
<title>Node5</title>
<g id="a_node5"><a xlink:title=" ">
<polygon fill="white" stroke="#bfbfbf" points="1.53,-0.5 1.53,-19.5 66.53,-19.5 66.53,-0.5 1.53,-0.5"/>
<text text-anchor="middle" x="34.03" y="-7.5" font-family="Helvetica,sans-Serif" font-size="10.00">stdexcept</text>
</a>
</g>
</g>
<!-- Node4&#45;&gt;Node5 -->
<g id="edge4" class="edge">
<title>Node4&#45;&gt;Node5</title>
<path fill="none" stroke="midnightblue" d="M88,-61.98C78.27,-52.78 62.57,-37.96 50.61,-26.66"/>
<polygon fill="midnightblue" stroke="midnightblue" points="52.71,-23.83 43.04,-19.51 47.91,-28.92 52.71,-23.83"/>
</g>
<!-- Node6 -->
<g id="node6" class="node">
<title>Node6</title>
<g id="a_node6"><a xlink:title=" ">
<polygon fill="white" stroke="#bfbfbf" points="192.03,-0.5 192.03,-19.5 242.03,-19.5 242.03,-0.5 192.03,-0.5"/>
<text text-anchor="middle" x="217.03" y="-7.5" font-family="Helvetica,sans-Serif" font-size="10.00">cstdint</text>
</a>
</g>
</g>
<!-- Node4&#45;&gt;Node6 -->
<g id="edge5" class="edge">
<title>Node4&#45;&gt;Node6</title>
<path fill="none" stroke="midnightblue" d="M114.22,-61.98C134.27,-52.03 167.63,-35.49 190.89,-23.96"/>
<polygon fill="midnightblue" stroke="midnightblue" points="192.47,-27.09 199.87,-19.51 189.36,-20.82 192.47,-27.09"/>
</g>
<!-- Node7 -->
<g id="node7" class="node">
<title>Node7</title>
<g id="a_node7"><a xlink:title=" ">
<polygon fill="white" stroke="#bfbfbf" points="84.53,-0.5 84.53,-19.5 141.53,-19.5 141.53,-0.5 84.53,-0.5"/>
<text text-anchor="middle" x="113.03" y="-7.5" font-family="Helvetica,sans-Serif" font-size="10.00">ostream</text>
</a>
</g>
</g>
<!-- Node4&#45;&gt;Node7 -->
<g id="edge6" class="edge">
<title>Node4&#45;&gt;Node7</title>
<path fill="none" stroke="midnightblue" d="M99.32,-61.98C101.6,-53.49 105.18,-40.2 108.1,-29.32"/>
<polygon fill="midnightblue" stroke="midnightblue" points="111.53,-30.07 110.74,-19.51 104.77,-28.26 111.53,-30.07"/>
</g>
<!-- Node8 -->
<g id="node8" class="node">
<title>Node8</title>
<g id="a_node8"><a xlink:title=" ">
<polygon fill="white" stroke="#bfbfbf" points="435.53,-0.5 435.53,-19.5 482.53,-19.5 482.53,-0.5 435.53,-0.5"/>
<text text-anchor="middle" x="459.03" y="-7.5" font-family="Helvetica,sans-Serif" font-size="10.00">vector</text>
</a>
</g>
</g>
<!-- Node4&#45;&gt;Node8 -->
<g id="edge7" class="edge">
<title>Node4&#45;&gt;Node8</title>
<path fill="none" stroke="midnightblue" d="M134.51,-61.96C144.11,-59.89 154.43,-57.77 164.03,-56 258.13,-38.66 369.99,-22.92 425.02,-15.49"/>
<polygon fill="midnightblue" stroke="midnightblue" points="425.79,-18.92 435.24,-14.12 424.86,-11.98 425.79,-18.92"/>
</g>
<!-- Node9&#45;&gt;Node3 -->
<g id="edge20" class="edge">
<title>Node9&#45;&gt;Node3</title>
<path fill="none" stroke="midnightblue" d="M224.18,-195.87C197.09,-184.65 149.57,-164.98 118.45,-152.09"/>
<polygon fill="midnightblue" stroke="midnightblue" points="119.54,-148.76 108.97,-148.17 116.87,-155.23 119.54,-148.76"/>
</g>
<!-- Node10 -->
<g id="node10" class="node">
<title>Node10</title>
<g id="a_node10"><a xlink:title=" ">
<polygon fill="white" stroke="#bfbfbf" points="376.53,-62 376.53,-81 535.53,-81 535.53,-62 376.53,-62"/>
<text text-anchor="middle" x="456.03" y="-69" font-family="Helvetica,sans-Serif" font-size="10.00">vsomeip/primitive_types.hpp</text>
</a>
</g>
</g>
<!-- Node9&#45;&gt;Node10 -->
<g id="edge9" class="edge">
<title>Node9&#45;&gt;Node10</title>
<path fill="none" stroke="midnightblue" d="M303.42,-200.71C341.28,-195.42 389.43,-182.98 422.03,-154 440.53,-137.56 449.21,-109.45 453.11,-90.92"/>
<polygon fill="midnightblue" stroke="midnightblue" points="456.56,-91.52 454.93,-81.05 449.68,-90.25 456.56,-91.52"/>
</g>
<!-- Node11 -->
<g id="node11" class="node">
<title>Node11</title>
<g id="a_node11"><a xlink:href="profile__interface_2checker_8hpp.html" target="_top" xlink:title=" ">
<polygon fill="white" stroke="black" points="287.03,-123.5 287.03,-153.5 413.03,-153.5 413.03,-123.5 287.03,-123.5"/>
<text text-anchor="start" x="295.03" y="-141.5" font-family="Helvetica,sans-Serif" font-size="10.00">../e2e/profile/profile</text>
<text text-anchor="middle" x="350.03" y="-130.5" font-family="Helvetica,sans-Serif" font-size="10.00">_interface/checker.hpp</text>
</a>
</g>
</g>
<!-- Node9&#45;&gt;Node11 -->
<g id="edge10" class="edge">
<title>Node9&#45;&gt;Node11</title>
<path fill="none" stroke="midnightblue" d="M259.19,-195.73C274.34,-186.36 298.84,-171.19 318.59,-158.97"/>
<polygon fill="midnightblue" stroke="midnightblue" points="320.61,-161.83 327.27,-153.59 316.93,-155.88 320.61,-161.83"/>
</g>
<!-- Node14 -->
<g id="node14" class="node">
<title>Node14</title>
<g id="a_node14"><a xlink:href="profile__interface_2protector_8hpp.html" target="_top" xlink:title=" ">
<polygon fill="white" stroke="black" points="135.53,-123.5 135.53,-153.5 268.53,-153.5 268.53,-123.5 135.53,-123.5"/>
<text text-anchor="start" x="143.53" y="-141.5" font-family="Helvetica,sans-Serif" font-size="10.00">../e2e/profile/profile</text>
<text text-anchor="middle" x="202.03" y="-130.5" font-family="Helvetica,sans-Serif" font-size="10.00">_interface/protector.hpp</text>
</a>
</g>
</g>
<!-- Node9&#45;&gt;Node14 -->
<g id="edge16" class="edge">
<title>Node9&#45;&gt;Node14</title>
<path fill="none" stroke="midnightblue" d="M239.23,-195.73C233.53,-187.12 224.6,-173.61 216.91,-161.99"/>
<polygon fill="midnightblue" stroke="midnightblue" points="219.79,-160 211.35,-153.59 213.95,-163.86 219.79,-160"/>
</g>
<!-- Node15 -->
<g id="node15" class="node">
<title>Node15</title>
<g id="a_node15"><a xlink:title=" ">
<polygon fill="white" stroke="#bfbfbf" points="469.03,-129 469.03,-148 507.03,-148 507.03,-129 469.03,-129"/>
<text text-anchor="middle" x="488.03" y="-136" font-family="Helvetica,sans-Serif" font-size="10.00">map</text>
</a>
</g>
</g>
<!-- Node9&#45;&gt;Node15 -->
<g id="edge21" class="edge">
<title>Node9&#45;&gt;Node15</title>
<path fill="none" stroke="midnightblue" d="M290.75,-195.95C333.74,-187.34 399.6,-172.68 455.03,-154 456.9,-153.37 458.81,-152.68 460.72,-151.94"/>
<polygon fill="midnightblue" stroke="midnightblue" points="462.2,-155.12 470.1,-148.07 459.53,-148.65 462.2,-155.12"/>
</g>
<!-- Node11&#45;&gt;Node4 -->
<g id="edge15" class="edge">
<title>Node11&#45;&gt;Node4</title>
<path fill="none" stroke="midnightblue" d="M295.45,-123.48C248.91,-111.52 182.94,-94.57 140.07,-83.56"/>
<polygon fill="midnightblue" stroke="midnightblue" points="140.78,-80.13 130.23,-81.03 139.04,-86.91 140.78,-80.13"/>
</g>
<!-- Node11&#45;&gt;Node10 -->
<g id="edge12" class="edge">
<title>Node11&#45;&gt;Node10</title>
<path fill="none" stroke="midnightblue" d="M373.03,-123.4C390.97,-112.39 415.75,-97.2 433.56,-86.28"/>
<polygon fill="midnightblue" stroke="midnightblue" points="435.46,-89.22 442.16,-81.01 431.8,-83.25 435.46,-89.22"/>
</g>
<!-- Node12 -->
<g id="node12" class="node">
<title>Node12</title>
<g id="a_node12"><a xlink:title=" ">
<polygon fill="white" stroke="#bfbfbf" points="311.03,-62 311.03,-81 359.03,-81 359.03,-62 311.03,-62"/>
<text text-anchor="middle" x="335.03" y="-69" font-family="Helvetica,sans-Serif" font-size="10.00">mutex</text>
</a>
</g>
</g>
<!-- Node11&#45;&gt;Node12 -->
<g id="edge11" class="edge">
<title>Node11&#45;&gt;Node12</title>
<path fill="none" stroke="midnightblue" d="M346.78,-123.4C344.6,-113.96 341.71,-101.45 339.34,-91.19"/>
<polygon fill="midnightblue" stroke="midnightblue" points="342.7,-90.15 337.04,-81.19 335.88,-91.73 342.7,-90.15"/>
</g>
<!-- Node11&#45;&gt;Node13 -->
<g id="edge13" class="edge">
<title>Node11&#45;&gt;Node13</title>
<path fill="none" stroke="midnightblue" d="M324.64,-123.4C307.86,-114.07 285.64,-101.73 267.29,-91.53"/>
<polygon fill="midnightblue" stroke="midnightblue" points="268.81,-88.37 258.37,-86.58 265.41,-94.49 268.81,-88.37"/>
</g>
<!-- Node13&#45;&gt;Node6 -->
<g id="edge14" class="edge">
<title>Node13&#45;&gt;Node6</title>
<path fill="none" stroke="midnightblue" d="M229.24,-56.4C227.08,-48.38 224.35,-38.23 222.02,-29.57"/>
<polygon fill="midnightblue" stroke="midnightblue" points="225.34,-28.41 219.36,-19.66 218.58,-30.22 225.34,-28.41"/>
</g>
<!-- Node14&#45;&gt;Node4 -->
<g id="edge18" class="edge">
<title>Node14&#45;&gt;Node4</title>
<path fill="none" stroke="midnightblue" d="M179.25,-123.4C161.48,-112.39 136.93,-97.2 119.29,-86.28"/>
<polygon fill="midnightblue" stroke="midnightblue" points="121.12,-83.29 110.77,-81.01 117.43,-89.25 121.12,-83.29"/>
</g>
<!-- Node14&#45;&gt;Node10 -->
<g id="edge17" class="edge">
<title>Node14&#45;&gt;Node10</title>
<path fill="none" stroke="midnightblue" d="M256.83,-123.48C303.55,-111.52 369.78,-94.57 412.82,-83.56"/>
<polygon fill="midnightblue" stroke="midnightblue" points="413.88,-86.9 422.7,-81.03 412.15,-80.12 413.88,-86.9"/>
</g>
<!-- Node14&#45;&gt;Node13 -->
<g id="edge19" class="edge">
<title>Node14&#45;&gt;Node13</title>
<path fill="none" stroke="midnightblue" d="M208.76,-123.4C212.62,-115.3 217.56,-104.94 221.97,-95.69"/>
<polygon fill="midnightblue" stroke="midnightblue" points="225.17,-97.11 226.32,-86.58 218.85,-94.1 225.17,-97.11"/>
</g>
<!-- Node16&#45;&gt;Node2 -->
<g id="edge24" class="edge">
<title>Node16&#45;&gt;Node2</title>
<path fill="none" stroke="midnightblue" d="M547.03,-190.4C547.03,-181.06 547.03,-168.71 547.03,-158.52"/>
<polygon fill="midnightblue" stroke="midnightblue" points="550.53,-158.19 547.03,-148.19 543.53,-158.19 550.53,-158.19"/>
</g>
<!-- Node16&#45;&gt;Node8 -->
<g id="edge25" class="edge">
<title>Node16&#45;&gt;Node8</title>
<path fill="none" stroke="midnightblue" d="M565.84,-190.37C576.3,-181.29 588.33,-168.49 594.03,-154 599.07,-141.18 598.31,-136.1 594.03,-123 582.58,-87.93 572.99,-80.07 545.03,-56 529.23,-42.4 508.62,-31.43 491.53,-23.73"/>
<polygon fill="midnightblue" stroke="midnightblue" points="492.51,-20.34 481.94,-19.58 489.73,-26.77 492.51,-20.34"/>
</g>
<!-- Node16&#45;&gt;Node10 -->
<g id="edge26" class="edge">
<title>Node16&#45;&gt;Node10</title>
<path fill="none" stroke="midnightblue" d="M560.02,-190.33C573.97,-173.32 592.33,-144.4 578.03,-123 564.88,-103.33 542.5,-91.31 520.47,-83.97"/>
<polygon fill="midnightblue" stroke="midnightblue" points="521.33,-80.57 510.75,-81.01 519.29,-87.27 521.33,-80.57"/>
</g>
<!-- Node16&#45;&gt;Node15 -->
<g id="edge23" class="edge">
<title>Node16&#45;&gt;Node15</title>
<path fill="none" stroke="midnightblue" d="M534.23,-190.4C524.94,-180.16 512.35,-166.3 502.66,-155.62"/>
<polygon fill="midnightblue" stroke="midnightblue" points="505.24,-153.25 495.92,-148.19 500.05,-157.95 505.24,-153.25"/>
</g>
</g>
</svg>
