<?xml version="1.0" encoding="UTF-8" standalone="no"?>
<!DOCTYPE svg PUBLIC "-//W3C//DTD SVG 1.1//EN"
 "http://www.w3.org/Graphics/SVG/1.1/DTD/svg11.dtd">
<!-- Generated by graphviz version 2.43.0 (0)
 -->
<!-- Title: /home/kali/projects/vsomeip/implementation/endpoints/include/endpoint_impl.hpp Pages: 1 -->
<svg width="2162pt" height="328pt"
 viewBox="0.00 0.00 2162.00 328.00" xmlns="http://www.w3.org/2000/svg" xmlns:xlink="http://www.w3.org/1999/xlink">
<g id="graph0" class="graph" transform="scale(1 1) rotate(0) translate(4 324)">
<title>/home/kali/projects/vsomeip/implementation/endpoints/include/endpoint_impl.hpp</title>
<polygon fill="white" stroke="transparent" points="-4,4 -4,-324 2158,-324 2158,4 -4,4"/>
<!-- Node1 -->
<g id="node1" class="node">
<title>Node1</title>
<g id="a_node1"><a xlink:title=" ">
<polygon fill="#bfbfbf" stroke="black" points="1350.5,-267.5 1350.5,-319.5 1502.5,-319.5 1502.5,-267.5 1350.5,-267.5"/>
<text text-anchor="start" x="1358.5" y="-307.5" font-family="Helvetica,sans-Serif" font-size="10.00">/home/kali/projects</text>
<text text-anchor="start" x="1358.5" y="-296.5" font-family="Helvetica,sans-Serif" font-size="10.00">/vsomeip/implementation</text>
<text text-anchor="start" x="1358.5" y="-285.5" font-family="Helvetica,sans-Serif" font-size="10.00">/endpoints/include/endpoint</text>
<text text-anchor="middle" x="1426.5" y="-274.5" font-family="Helvetica,sans-Serif" font-size="10.00">_impl.hpp</text>
</a>
</g>
</g>
<!-- Node2 -->
<g id="node2" class="node">
<title>Node2</title>
<g id="a_node2"><a xlink:href="client__endpoint__impl_8hpp.html" target="_top" xlink:title=" ">
<polygon fill="white" stroke="black" points="1027,-178.5 1027,-230.5 1170,-230.5 1170,-178.5 1027,-178.5"/>
<text text-anchor="start" x="1035" y="-218.5" font-family="Helvetica,sans-Serif" font-size="10.00">/home/kali/projects</text>
<text text-anchor="start" x="1035" y="-207.5" font-family="Helvetica,sans-Serif" font-size="10.00">/vsomeip/implementation</text>
<text text-anchor="start" x="1035" y="-196.5" font-family="Helvetica,sans-Serif" font-size="10.00">/endpoints/include/client</text>
<text text-anchor="middle" x="1098.5" y="-185.5" font-family="Helvetica,sans-Serif" font-size="10.00">_endpoint_impl.hpp</text>
</a>
</g>
</g>
<!-- Node1&#45;&gt;Node2 -->
<g id="edge1" class="edge">
<title>Node1&#45;&gt;Node2</title>
<path fill="none" stroke="midnightblue" d="M1340.7,-269.74C1287.67,-255.68 1220.41,-237.84 1170.23,-224.53"/>
<polygon fill="midnightblue" stroke="midnightblue" points="1339.86,-273.14 1350.43,-272.32 1341.66,-266.37 1339.86,-273.14"/>
</g>
<!-- Node15 -->
<g id="node15" class="node">
<title>Node15</title>
<g id="a_node15"><a xlink:href="server__endpoint__impl_8hpp.html" target="_top" xlink:title=" ">
<polygon fill="white" stroke="black" points="1355,-178.5 1355,-230.5 1498,-230.5 1498,-178.5 1355,-178.5"/>
<text text-anchor="start" x="1363" y="-218.5" font-family="Helvetica,sans-Serif" font-size="10.00">/home/kali/projects</text>
<text text-anchor="start" x="1363" y="-207.5" font-family="Helvetica,sans-Serif" font-size="10.00">/vsomeip/implementation</text>
<text text-anchor="start" x="1363" y="-196.5" font-family="Helvetica,sans-Serif" font-size="10.00">/endpoints/include/server</text>
<text text-anchor="middle" x="1426.5" y="-185.5" font-family="Helvetica,sans-Serif" font-size="10.00">_endpoint_impl.hpp</text>
</a>
</g>
</g>
<!-- Node1&#45;&gt;Node15 -->
<g id="edge17" class="edge">
<title>Node1&#45;&gt;Node15</title>
<path fill="none" stroke="midnightblue" d="M1426.5,-257.19C1426.5,-248.28 1426.5,-238.9 1426.5,-230.61"/>
<polygon fill="midnightblue" stroke="midnightblue" points="1423,-257.34 1426.5,-267.34 1430,-257.34 1423,-257.34"/>
</g>
<!-- Node25 -->
<g id="node25" class="node">
<title>Node25</title>
<g id="a_node25"><a xlink:href="endpoint__impl_8cpp.html" target="_top" xlink:title=" ">
<polygon fill="white" stroke="black" points="1516,-178.5 1516,-230.5 1659,-230.5 1659,-178.5 1516,-178.5"/>
<text text-anchor="start" x="1524" y="-218.5" font-family="Helvetica,sans-Serif" font-size="10.00">/home/kali/projects</text>
<text text-anchor="start" x="1524" y="-207.5" font-family="Helvetica,sans-Serif" font-size="10.00">/vsomeip/implementation</text>
<text text-anchor="start" x="1524" y="-196.5" font-family="Helvetica,sans-Serif" font-size="10.00">/endpoints/src/endpoint</text>
<text text-anchor="middle" x="1587.5" y="-185.5" font-family="Helvetica,sans-Serif" font-size="10.00">_impl.cpp</text>
</a>
</g>
</g>
<!-- Node1&#45;&gt;Node25 -->
<g id="edge37" class="edge">
<title>Node1&#45;&gt;Node25</title>
<path fill="none" stroke="midnightblue" d="M1482.03,-262.49C1501.26,-252.1 1522.61,-240.57 1541.04,-230.61"/>
<polygon fill="midnightblue" stroke="midnightblue" points="1480.2,-259.5 1473.07,-267.34 1483.53,-265.66 1480.2,-259.5"/>
</g>
<!-- Node3 -->
<g id="node3" class="node">
<title>Node3</title>
<g id="a_node3"><a xlink:href="local__client__endpoint__impl_8hpp.html" target="_top" xlink:title=" ">
<polygon fill="white" stroke="black" points="337,-89.5 337,-141.5 482,-141.5 482,-89.5 337,-89.5"/>
<text text-anchor="start" x="345" y="-129.5" font-family="Helvetica,sans-Serif" font-size="10.00">/home/kali/projects</text>
<text text-anchor="start" x="345" y="-118.5" font-family="Helvetica,sans-Serif" font-size="10.00">/vsomeip/implementation</text>
<text text-anchor="start" x="345" y="-107.5" font-family="Helvetica,sans-Serif" font-size="10.00">/endpoints/include/local</text>
<text text-anchor="middle" x="409.5" y="-96.5" font-family="Helvetica,sans-Serif" font-size="10.00">_client_endpoint_impl.hpp</text>
</a>
</g>
</g>
<!-- Node2&#45;&gt;Node3 -->
<g id="edge2" class="edge">
<title>Node2&#45;&gt;Node3</title>
<path fill="none" stroke="midnightblue" d="M1016.64,-200.52C899.13,-195.05 676.29,-180.22 490.5,-142 487.76,-141.44 484.97,-140.81 482.17,-140.15"/>
<polygon fill="midnightblue" stroke="midnightblue" points="1016.5,-204.02 1026.65,-200.98 1016.82,-197.03 1016.5,-204.02"/>
</g>
<!-- Node9 -->
<g id="node9" class="node">
<title>Node9</title>
<g id="a_node9"><a xlink:href="tcp__client__endpoint__impl_8hpp.html" target="_top" xlink:title=" ">
<polygon fill="white" stroke="black" points="1189,-89.5 1189,-141.5 1334,-141.5 1334,-89.5 1189,-89.5"/>
<text text-anchor="start" x="1197" y="-129.5" font-family="Helvetica,sans-Serif" font-size="10.00">/home/kali/projects</text>
<text text-anchor="start" x="1197" y="-118.5" font-family="Helvetica,sans-Serif" font-size="10.00">/vsomeip/implementation</text>
<text text-anchor="start" x="1197" y="-107.5" font-family="Helvetica,sans-Serif" font-size="10.00">/endpoints/include/tcp</text>
<text text-anchor="middle" x="1261.5" y="-96.5" font-family="Helvetica,sans-Serif" font-size="10.00">_client_endpoint_impl.hpp</text>
</a>
</g>
</g>
<!-- Node2&#45;&gt;Node9 -->
<g id="edge8" class="edge">
<title>Node2&#45;&gt;Node9</title>
<path fill="none" stroke="midnightblue" d="M1154.72,-173.49C1174.19,-163.1 1195.8,-151.57 1214.46,-141.61"/>
<polygon fill="midnightblue" stroke="midnightblue" points="1152.82,-170.54 1145.65,-178.34 1156.12,-176.71 1152.82,-170.54"/>
</g>
<!-- Node12 -->
<g id="node12" class="node">
<title>Node12</title>
<g id="a_node12"><a xlink:href="udp__client__endpoint__impl_8hpp.html" target="_top" xlink:title=" ">
<polygon fill="white" stroke="black" points="1026,-89.5 1026,-141.5 1171,-141.5 1171,-89.5 1026,-89.5"/>
<text text-anchor="start" x="1034" y="-129.5" font-family="Helvetica,sans-Serif" font-size="10.00">/home/kali/projects</text>
<text text-anchor="start" x="1034" y="-118.5" font-family="Helvetica,sans-Serif" font-size="10.00">/vsomeip/implementation</text>
<text text-anchor="start" x="1034" y="-107.5" font-family="Helvetica,sans-Serif" font-size="10.00">/endpoints/include/udp</text>
<text text-anchor="middle" x="1098.5" y="-96.5" font-family="Helvetica,sans-Serif" font-size="10.00">_client_endpoint_impl.hpp</text>
</a>
</g>
</g>
<!-- Node2&#45;&gt;Node12 -->
<g id="edge12" class="edge">
<title>Node2&#45;&gt;Node12</title>
<path fill="none" stroke="midnightblue" d="M1098.5,-168.19C1098.5,-159.28 1098.5,-149.9 1098.5,-141.61"/>
<polygon fill="midnightblue" stroke="midnightblue" points="1095,-168.34 1098.5,-178.34 1102,-168.34 1095,-168.34"/>
</g>
<!-- Node14 -->
<g id="node14" class="node">
<title>Node14</title>
<g id="a_node14"><a xlink:href="client__endpoint__impl_8cpp.html" target="_top" xlink:title=" ">
<polygon fill="white" stroke="black" points="500,-89.5 500,-141.5 663,-141.5 663,-89.5 500,-89.5"/>
<text text-anchor="start" x="508" y="-129.5" font-family="Helvetica,sans-Serif" font-size="10.00">/home/kali/projects</text>
<text text-anchor="start" x="508" y="-118.5" font-family="Helvetica,sans-Serif" font-size="10.00">/vsomeip/implementation</text>
<text text-anchor="start" x="508" y="-107.5" font-family="Helvetica,sans-Serif" font-size="10.00">/endpoints/src/client_endpoint</text>
<text text-anchor="middle" x="581.5" y="-96.5" font-family="Helvetica,sans-Serif" font-size="10.00">_impl.cpp</text>
</a>
</g>
</g>
<!-- Node2&#45;&gt;Node14 -->
<g id="edge16" class="edge">
<title>Node2&#45;&gt;Node14</title>
<path fill="none" stroke="midnightblue" d="M1016.97,-195.03C930.62,-185.29 790.59,-167.33 671.5,-142 668.8,-141.43 666.06,-140.82 663.3,-140.18"/>
<polygon fill="midnightblue" stroke="midnightblue" points="1016.64,-198.51 1026.97,-196.14 1017.42,-191.55 1016.64,-198.51"/>
</g>
<!-- Node4 -->
<g id="node4" class="node">
<title>Node4</title>
<g id="a_node4"><a xlink:href="endpoint__manager__base_8cpp.html" target="_top" xlink:title=" ">
<polygon fill="white" stroke="black" points="338,-0.5 338,-52.5 481,-52.5 481,-0.5 338,-0.5"/>
<text text-anchor="start" x="346" y="-40.5" font-family="Helvetica,sans-Serif" font-size="10.00">/home/kali/projects</text>
<text text-anchor="start" x="346" y="-29.5" font-family="Helvetica,sans-Serif" font-size="10.00">/vsomeip/implementation</text>
<text text-anchor="start" x="346" y="-18.5" font-family="Helvetica,sans-Serif" font-size="10.00">/endpoints/src/endpoint</text>
<text text-anchor="middle" x="409.5" y="-7.5" font-family="Helvetica,sans-Serif" font-size="10.00">_manager_base.cpp</text>
</a>
</g>
</g>
<!-- Node3&#45;&gt;Node4 -->
<g id="edge3" class="edge">
<title>Node3&#45;&gt;Node4</title>
<path fill="none" stroke="midnightblue" d="M409.5,-79.19C409.5,-70.28 409.5,-60.9 409.5,-52.61"/>
<polygon fill="midnightblue" stroke="midnightblue" points="406,-79.34 409.5,-89.34 413,-79.34 406,-79.34"/>
</g>
<!-- Node5 -->
<g id="node5" class="node">
<title>Node5</title>
<g id="a_node5"><a xlink:href="local__client__endpoint__impl_8cpp.html" target="_top" xlink:title=" ">
<polygon fill="white" stroke="black" points="0,-0.5 0,-52.5 143,-52.5 143,-0.5 0,-0.5"/>
<text text-anchor="start" x="8" y="-40.5" font-family="Helvetica,sans-Serif" font-size="10.00">/home/kali/projects</text>
<text text-anchor="start" x="8" y="-29.5" font-family="Helvetica,sans-Serif" font-size="10.00">/vsomeip/implementation</text>
<text text-anchor="start" x="8" y="-18.5" font-family="Helvetica,sans-Serif" font-size="10.00">/endpoints/src/local_client</text>
<text text-anchor="middle" x="71.5" y="-7.5" font-family="Helvetica,sans-Serif" font-size="10.00">_endpoint_impl.cpp</text>
</a>
</g>
</g>
<!-- Node3&#45;&gt;Node5 -->
<g id="edge4" class="edge">
<title>Node3&#45;&gt;Node5</title>
<path fill="none" stroke="midnightblue" d="M326.96,-96.3C276.38,-84.76 210.43,-69.03 152.5,-53 149.52,-52.17 146.48,-51.31 143.41,-50.43"/>
<polygon fill="midnightblue" stroke="midnightblue" points="326.34,-99.75 336.87,-98.55 327.89,-92.92 326.34,-99.75"/>
</g>
<!-- Node6 -->
<g id="node6" class="node">
<title>Node6</title>
<g id="a_node6"><a xlink:href="routing__manager__base_8cpp.html" target="_top" xlink:title=" ">
<polygon fill="white" stroke="black" points="161.5,-0.5 161.5,-52.5 319.5,-52.5 319.5,-0.5 161.5,-0.5"/>
<text text-anchor="start" x="169.5" y="-40.5" font-family="Helvetica,sans-Serif" font-size="10.00">/home/kali/projects</text>
<text text-anchor="start" x="169.5" y="-29.5" font-family="Helvetica,sans-Serif" font-size="10.00">/vsomeip/implementation</text>
<text text-anchor="start" x="169.5" y="-18.5" font-family="Helvetica,sans-Serif" font-size="10.00">/routing/src/routing_manager</text>
<text text-anchor="middle" x="240.5" y="-7.5" font-family="Helvetica,sans-Serif" font-size="10.00">_base.cpp</text>
</a>
</g>
</g>
<!-- Node3&#45;&gt;Node6 -->
<g id="edge5" class="edge">
<title>Node3&#45;&gt;Node6</title>
<path fill="none" stroke="midnightblue" d="M351.49,-84.64C331.23,-74.2 308.7,-62.61 289.27,-52.61"/>
<polygon fill="midnightblue" stroke="midnightblue" points="350.13,-87.87 360.62,-89.34 353.33,-81.65 350.13,-87.87"/>
</g>
<!-- Node7 -->
<g id="node7" class="node">
<title>Node7</title>
<g id="a_node7"><a xlink:href="routing__manager__impl_8cpp.html" target="_top" xlink:title=" ">
<polygon fill="white" stroke="black" points="1178.5,-0.5 1178.5,-52.5 1336.5,-52.5 1336.5,-0.5 1178.5,-0.5"/>
<text text-anchor="start" x="1186.5" y="-40.5" font-family="Helvetica,sans-Serif" font-size="10.00">/home/kali/projects</text>
<text text-anchor="start" x="1186.5" y="-29.5" font-family="Helvetica,sans-Serif" font-size="10.00">/vsomeip/implementation</text>
<text text-anchor="start" x="1186.5" y="-18.5" font-family="Helvetica,sans-Serif" font-size="10.00">/routing/src/routing_manager</text>
<text text-anchor="middle" x="1257.5" y="-7.5" font-family="Helvetica,sans-Serif" font-size="10.00">_impl.cpp</text>
</a>
</g>
</g>
<!-- Node3&#45;&gt;Node7 -->
<g id="edge6" class="edge">
<title>Node3&#45;&gt;Node7</title>
<path fill="none" stroke="midnightblue" d="M492.34,-88.86C789.34,-36.77 874.23,-102.32 1168.5,-53 1171.67,-52.47 1174.89,-51.86 1178.13,-51.2"/>
<polygon fill="midnightblue" stroke="midnightblue" points="491.37,-85.48 482.14,-90.68 492.6,-92.37 491.37,-85.48"/>
</g>
<!-- Node8 -->
<g id="node8" class="node">
<title>Node8</title>
<g id="a_node8"><a xlink:href="routing__manager__proxy_8cpp.html" target="_top" xlink:title=" ">
<polygon fill="white" stroke="black" points="499.5,-0.5 499.5,-52.5 657.5,-52.5 657.5,-0.5 499.5,-0.5"/>
<text text-anchor="start" x="507.5" y="-40.5" font-family="Helvetica,sans-Serif" font-size="10.00">/home/kali/projects</text>
<text text-anchor="start" x="507.5" y="-29.5" font-family="Helvetica,sans-Serif" font-size="10.00">/vsomeip/implementation</text>
<text text-anchor="start" x="507.5" y="-18.5" font-family="Helvetica,sans-Serif" font-size="10.00">/routing/src/routing_manager</text>
<text text-anchor="middle" x="578.5" y="-7.5" font-family="Helvetica,sans-Serif" font-size="10.00">_proxy.cpp</text>
</a>
</g>
</g>
<!-- Node3&#45;&gt;Node8 -->
<g id="edge7" class="edge">
<title>Node3&#45;&gt;Node8</title>
<path fill="none" stroke="midnightblue" d="M467.51,-84.64C487.77,-74.2 510.3,-62.61 529.73,-52.61"/>
<polygon fill="midnightblue" stroke="midnightblue" points="465.67,-81.65 458.38,-89.34 468.87,-87.87 465.67,-81.65"/>
</g>
<!-- Node9&#45;&gt;Node7 -->
<g id="edge11" class="edge">
<title>Node9&#45;&gt;Node7</title>
<path fill="none" stroke="midnightblue" d="M1259.88,-79.19C1259.47,-70.28 1259.04,-60.9 1258.65,-52.61"/>
<polygon fill="midnightblue" stroke="midnightblue" points="1256.39,-79.51 1260.34,-89.34 1263.38,-79.19 1256.39,-79.51"/>
</g>
<!-- Node10 -->
<g id="node10" class="node">
<title>Node10</title>
<g id="a_node10"><a xlink:href="endpoint__manager__impl_8cpp.html" target="_top" xlink:title=" ">
<polygon fill="white" stroke="black" points="1355,-0.5 1355,-52.5 1498,-52.5 1498,-0.5 1355,-0.5"/>
<text text-anchor="start" x="1363" y="-40.5" font-family="Helvetica,sans-Serif" font-size="10.00">/home/kali/projects</text>
<text text-anchor="start" x="1363" y="-29.5" font-family="Helvetica,sans-Serif" font-size="10.00">/vsomeip/implementation</text>
<text text-anchor="start" x="1363" y="-18.5" font-family="Helvetica,sans-Serif" font-size="10.00">/endpoints/src/endpoint</text>
<text text-anchor="middle" x="1426.5" y="-7.5" font-family="Helvetica,sans-Serif" font-size="10.00">_manager_impl.cpp</text>
</a>
</g>
</g>
<!-- Node9&#45;&gt;Node10 -->
<g id="edge9" class="edge">
<title>Node9&#45;&gt;Node10</title>
<path fill="none" stroke="midnightblue" d="M1318.14,-84.64C1337.92,-74.2 1359.91,-62.61 1378.88,-52.61"/>
<polygon fill="midnightblue" stroke="midnightblue" points="1316.44,-81.58 1309.22,-89.34 1319.7,-87.77 1316.44,-81.58"/>
</g>
<!-- Node11 -->
<g id="node11" class="node">
<title>Node11</title>
<g id="a_node11"><a xlink:href="tcp__client__endpoint__impl_8cpp.html" target="_top" xlink:title=" ">
<polygon fill="white" stroke="black" points="1516,-0.5 1516,-52.5 1659,-52.5 1659,-0.5 1516,-0.5"/>
<text text-anchor="start" x="1524" y="-40.5" font-family="Helvetica,sans-Serif" font-size="10.00">/home/kali/projects</text>
<text text-anchor="start" x="1524" y="-29.5" font-family="Helvetica,sans-Serif" font-size="10.00">/vsomeip/implementation</text>
<text text-anchor="start" x="1524" y="-18.5" font-family="Helvetica,sans-Serif" font-size="10.00">/endpoints/src/tcp_client</text>
<text text-anchor="middle" x="1587.5" y="-7.5" font-family="Helvetica,sans-Serif" font-size="10.00">_endpoint_impl.cpp</text>
</a>
</g>
</g>
<!-- Node9&#45;&gt;Node11 -->
<g id="edge10" class="edge">
<title>Node9&#45;&gt;Node11</title>
<path fill="none" stroke="midnightblue" d="M1343.99,-88.97C1417.35,-70.07 1438.38,-71.56 1507.5,-53 1510.17,-52.28 1512.89,-51.53 1515.63,-50.75"/>
<polygon fill="midnightblue" stroke="midnightblue" points="1343.07,-85.59 1334.28,-91.51 1344.84,-92.37 1343.07,-85.59"/>
</g>
<!-- Node12&#45;&gt;Node7 -->
<g id="edge15" class="edge">
<title>Node12&#45;&gt;Node7</title>
<path fill="none" stroke="midnightblue" d="M1153.34,-84.49C1172.33,-74.1 1193.41,-62.57 1211.61,-52.61"/>
<polygon fill="midnightblue" stroke="midnightblue" points="1151.58,-81.47 1144.49,-89.34 1154.94,-87.61 1151.58,-81.47"/>
</g>
<!-- Node12&#45;&gt;Node10 -->
<g id="edge13" class="edge">
<title>Node12&#45;&gt;Node10</title>
<path fill="none" stroke="midnightblue" d="M1180.96,-88.71C1254.2,-69.83 1275.52,-71.56 1345.5,-53 1348.49,-52.21 1351.54,-51.37 1354.61,-50.51"/>
<polygon fill="midnightblue" stroke="midnightblue" points="1180.05,-85.33 1171.27,-91.25 1181.83,-92.1 1180.05,-85.33"/>
</g>
<!-- Node13 -->
<g id="node13" class="node">
<title>Node13</title>
<g id="a_node13"><a xlink:href="udp__client__endpoint__impl_8cpp.html" target="_top" xlink:title=" ">
<polygon fill="white" stroke="black" points="1017,-0.5 1017,-52.5 1160,-52.5 1160,-0.5 1017,-0.5"/>
<text text-anchor="start" x="1025" y="-40.5" font-family="Helvetica,sans-Serif" font-size="10.00">/home/kali/projects</text>
<text text-anchor="start" x="1025" y="-29.5" font-family="Helvetica,sans-Serif" font-size="10.00">/vsomeip/implementation</text>
<text text-anchor="start" x="1025" y="-18.5" font-family="Helvetica,sans-Serif" font-size="10.00">/endpoints/src/udp_client</text>
<text text-anchor="middle" x="1088.5" y="-7.5" font-family="Helvetica,sans-Serif" font-size="10.00">_endpoint_impl.cpp</text>
</a>
</g>
</g>
<!-- Node12&#45;&gt;Node13 -->
<g id="edge14" class="edge">
<title>Node12&#45;&gt;Node13</title>
<path fill="none" stroke="midnightblue" d="M1094.44,-79.19C1093.42,-70.28 1092.34,-60.9 1091.39,-52.61"/>
<polygon fill="midnightblue" stroke="midnightblue" points="1090.99,-79.8 1095.61,-89.34 1097.94,-79 1090.99,-79.8"/>
</g>
<!-- Node16 -->
<g id="node16" class="node">
<title>Node16</title>
<g id="a_node16"><a xlink:href="local__server__endpoint__impl_8hpp.html" target="_top" xlink:title=" ">
<polygon fill="white" stroke="black" points="681,-89.5 681,-141.5 830,-141.5 830,-89.5 681,-89.5"/>
<text text-anchor="start" x="689" y="-129.5" font-family="Helvetica,sans-Serif" font-size="10.00">/home/kali/projects</text>
<text text-anchor="start" x="689" y="-118.5" font-family="Helvetica,sans-Serif" font-size="10.00">/vsomeip/implementation</text>
<text text-anchor="start" x="689" y="-107.5" font-family="Helvetica,sans-Serif" font-size="10.00">/endpoints/include/local</text>
<text text-anchor="middle" x="755.5" y="-96.5" font-family="Helvetica,sans-Serif" font-size="10.00">_server_endpoint_impl.hpp</text>
</a>
</g>
</g>
<!-- Node15&#45;&gt;Node16 -->
<g id="edge18" class="edge">
<title>Node15&#45;&gt;Node16</title>
<path fill="none" stroke="midnightblue" d="M1344.67,-192.89C1213.2,-175.84 956.85,-142.61 830.11,-126.17"/>
<polygon fill="midnightblue" stroke="midnightblue" points="1344.32,-196.37 1354.69,-194.19 1345.22,-189.43 1344.32,-196.37"/>
</g>
<!-- Node19 -->
<g id="node19" class="node">
<title>Node19</title>
<g id="a_node19"><a xlink:href="tcp__server__endpoint__impl_8hpp.html" target="_top" xlink:title=" ">
<polygon fill="white" stroke="black" points="1352,-89.5 1352,-141.5 1501,-141.5 1501,-89.5 1352,-89.5"/>
<text text-anchor="start" x="1360" y="-129.5" font-family="Helvetica,sans-Serif" font-size="10.00">/home/kali/projects</text>
<text text-anchor="start" x="1360" y="-118.5" font-family="Helvetica,sans-Serif" font-size="10.00">/vsomeip/implementation</text>
<text text-anchor="start" x="1360" y="-107.5" font-family="Helvetica,sans-Serif" font-size="10.00">/endpoints/include/tcp</text>
<text text-anchor="middle" x="1426.5" y="-96.5" font-family="Helvetica,sans-Serif" font-size="10.00">_server_endpoint_impl.hpp</text>
</a>
</g>
</g>
<!-- Node15&#45;&gt;Node19 -->
<g id="edge26" class="edge">
<title>Node15&#45;&gt;Node19</title>
<path fill="none" stroke="midnightblue" d="M1426.5,-168.19C1426.5,-159.28 1426.5,-149.9 1426.5,-141.61"/>
<polygon fill="midnightblue" stroke="midnightblue" points="1423,-168.34 1426.5,-178.34 1430,-168.34 1423,-168.34"/>
</g>
<!-- Node22 -->
<g id="node22" class="node">
<title>Node22</title>
<g id="a_node22"><a xlink:href="udp__server__endpoint__impl_8hpp.html" target="_top" xlink:title=" ">
<polygon fill="white" stroke="black" points="1519,-89.5 1519,-141.5 1668,-141.5 1668,-89.5 1519,-89.5"/>
<text text-anchor="start" x="1527" y="-129.5" font-family="Helvetica,sans-Serif" font-size="10.00">/home/kali/projects</text>
<text text-anchor="start" x="1527" y="-118.5" font-family="Helvetica,sans-Serif" font-size="10.00">/vsomeip/implementation</text>
<text text-anchor="start" x="1527" y="-107.5" font-family="Helvetica,sans-Serif" font-size="10.00">/endpoints/include/udp</text>
<text text-anchor="middle" x="1593.5" y="-96.5" font-family="Helvetica,sans-Serif" font-size="10.00">_server_endpoint_impl.hpp</text>
</a>
</g>
</g>
<!-- Node15&#45;&gt;Node22 -->
<g id="edge31" class="edge">
<title>Node15&#45;&gt;Node22</title>
<path fill="none" stroke="midnightblue" d="M1483.83,-173.64C1503.85,-163.2 1526.1,-151.61 1545.31,-141.61"/>
<polygon fill="midnightblue" stroke="midnightblue" points="1482.05,-170.61 1474.8,-178.34 1485.29,-176.82 1482.05,-170.61"/>
</g>
<!-- Node24 -->
<g id="node24" class="node">
<title>Node24</title>
<g id="a_node24"><a xlink:href="server__endpoint__impl_8cpp.html" target="_top" xlink:title=" ">
<polygon fill="white" stroke="black" points="1686,-89.5 1686,-141.5 1853,-141.5 1853,-89.5 1686,-89.5"/>
<text text-anchor="start" x="1694" y="-129.5" font-family="Helvetica,sans-Serif" font-size="10.00">/home/kali/projects</text>
<text text-anchor="start" x="1694" y="-118.5" font-family="Helvetica,sans-Serif" font-size="10.00">/vsomeip/implementation</text>
<text text-anchor="start" x="1694" y="-107.5" font-family="Helvetica,sans-Serif" font-size="10.00">/endpoints/src/server_endpoint</text>
<text text-anchor="middle" x="1769.5" y="-96.5" font-family="Helvetica,sans-Serif" font-size="10.00">_impl.cpp</text>
</a>
</g>
</g>
<!-- Node15&#45;&gt;Node24 -->
<g id="edge36" class="edge">
<title>Node15&#45;&gt;Node24</title>
<path fill="none" stroke="midnightblue" d="M1508.38,-177.87C1583.95,-158.51 1605.55,-159.57 1677.5,-142 1680.24,-141.33 1683.02,-140.64 1685.82,-139.93"/>
<polygon fill="midnightblue" stroke="midnightblue" points="1507.18,-174.57 1498.38,-180.47 1508.94,-181.35 1507.18,-174.57"/>
</g>
<!-- Node16&#45;&gt;Node4 -->
<g id="edge19" class="edge">
<title>Node16&#45;&gt;Node4</title>
<path fill="none" stroke="midnightblue" d="M670.82,-88.95C590.13,-69.36 566.85,-72.55 490.5,-53 487.5,-52.23 484.45,-51.42 481.37,-50.57"/>
<polygon fill="midnightblue" stroke="midnightblue" points="670.4,-92.45 680.95,-91.45 672.08,-85.66 670.4,-92.45"/>
</g>
<!-- Node16&#45;&gt;Node5 -->
<g id="edge21" class="edge">
<title>Node16&#45;&gt;Node5</title>
<path fill="none" stroke="midnightblue" d="M670.66,-89.05C442.24,-48.52 376.47,-95.41 152.5,-53 149.46,-52.42 146.37,-51.77 143.26,-51.06"/>
<polygon fill="midnightblue" stroke="midnightblue" points="670.14,-92.51 680.6,-90.85 671.38,-85.62 670.14,-92.51"/>
</g>
<!-- Node16&#45;&gt;Node6 -->
<g id="edge23" class="edge">
<title>Node16&#45;&gt;Node6</title>
<path fill="none" stroke="midnightblue" d="M670.47,-88.97C519.39,-59.6 475.69,-81.81 328.5,-53 325.69,-52.45 322.84,-51.85 319.97,-51.21"/>
<polygon fill="midnightblue" stroke="midnightblue" points="670.08,-92.47 680.57,-90.98 671.45,-85.6 670.08,-92.47"/>
</g>
<!-- Node16&#45;&gt;Node8 -->
<g id="edge24" class="edge">
<title>Node16&#45;&gt;Node8</title>
<path fill="none" stroke="midnightblue" d="M695.31,-84.92C673.95,-74.41 650.12,-62.7 629.58,-52.61"/>
<polygon fill="midnightblue" stroke="midnightblue" points="693.79,-88.07 704.3,-89.34 696.87,-81.78 693.79,-88.07"/>
</g>
<!-- Node16&#45;&gt;Node10 -->
<g id="edge20" class="edge">
<title>Node16&#45;&gt;Node10</title>
<path fill="none" stroke="midnightblue" d="M840.36,-106.11C997.73,-90.48 1321.16,-58.05 1345.5,-53 1348.53,-52.37 1351.61,-51.67 1354.71,-50.92"/>
<polygon fill="midnightblue" stroke="midnightblue" points="839.84,-102.64 830.24,-107.11 840.53,-109.61 839.84,-102.64"/>
</g>
<!-- Node17 -->
<g id="node17" class="node">
<title>Node17</title>
<g id="a_node17"><a xlink:href="local__server__endpoint__impl_8cpp.html" target="_top" xlink:title=" ">
<polygon fill="white" stroke="black" points="852,-0.5 852,-52.5 999,-52.5 999,-0.5 852,-0.5"/>
<text text-anchor="start" x="860" y="-40.5" font-family="Helvetica,sans-Serif" font-size="10.00">/home/kali/projects</text>
<text text-anchor="start" x="860" y="-29.5" font-family="Helvetica,sans-Serif" font-size="10.00">/vsomeip/implementation</text>
<text text-anchor="start" x="860" y="-18.5" font-family="Helvetica,sans-Serif" font-size="10.00">/endpoints/src/local_server</text>
<text text-anchor="middle" x="925.5" y="-7.5" font-family="Helvetica,sans-Serif" font-size="10.00">_endpoint_impl.cpp</text>
</a>
</g>
</g>
<!-- Node16&#45;&gt;Node17 -->
<g id="edge22" class="edge">
<title>Node16&#45;&gt;Node17</title>
<path fill="none" stroke="midnightblue" d="M813.58,-84.78C834.03,-74.31 856.8,-62.66 876.44,-52.61"/>
<polygon fill="midnightblue" stroke="midnightblue" points="811.98,-81.66 804.67,-89.34 815.17,-87.9 811.98,-81.66"/>
</g>
<!-- Node18 -->
<g id="node18" class="node">
<title>Node18</title>
<g id="a_node18"><a xlink:href="routing__manager__stub_8cpp.html" target="_top" xlink:title=" ">
<polygon fill="white" stroke="black" points="675.5,-0.5 675.5,-52.5 833.5,-52.5 833.5,-0.5 675.5,-0.5"/>
<text text-anchor="start" x="683.5" y="-40.5" font-family="Helvetica,sans-Serif" font-size="10.00">/home/kali/projects</text>
<text text-anchor="start" x="683.5" y="-29.5" font-family="Helvetica,sans-Serif" font-size="10.00">/vsomeip/implementation</text>
<text text-anchor="start" x="683.5" y="-18.5" font-family="Helvetica,sans-Serif" font-size="10.00">/routing/src/routing_manager</text>
<text text-anchor="middle" x="754.5" y="-7.5" font-family="Helvetica,sans-Serif" font-size="10.00">_stub.cpp</text>
</a>
</g>
</g>
<!-- Node16&#45;&gt;Node18 -->
<g id="edge25" class="edge">
<title>Node16&#45;&gt;Node18</title>
<path fill="none" stroke="midnightblue" d="M755.09,-79.19C754.99,-70.28 754.88,-60.9 754.79,-52.61"/>
<polygon fill="midnightblue" stroke="midnightblue" points="751.6,-79.38 755.21,-89.34 758.6,-79.3 751.6,-79.38"/>
</g>
<!-- Node19&#45;&gt;Node7 -->
<g id="edge29" class="edge">
<title>Node19&#45;&gt;Node7</title>
<path fill="none" stroke="midnightblue" d="M1368.49,-84.64C1348.23,-74.2 1325.7,-62.61 1306.27,-52.61"/>
<polygon fill="midnightblue" stroke="midnightblue" points="1367.13,-87.87 1377.62,-89.34 1370.33,-81.65 1367.13,-87.87"/>
</g>
<!-- Node19&#45;&gt;Node10 -->
<g id="edge27" class="edge">
<title>Node19&#45;&gt;Node10</title>
<path fill="none" stroke="midnightblue" d="M1426.5,-79.19C1426.5,-70.28 1426.5,-60.9 1426.5,-52.61"/>
<polygon fill="midnightblue" stroke="midnightblue" points="1423,-79.34 1426.5,-89.34 1430,-79.34 1423,-79.34"/>
</g>
<!-- Node20 -->
<g id="node20" class="node">
<title>Node20</title>
<g id="a_node20"><a xlink:href="tcp__server__endpoint__impl_8cpp.html" target="_top" xlink:title=" ">
<polygon fill="white" stroke="black" points="1677,-0.5 1677,-52.5 1820,-52.5 1820,-0.5 1677,-0.5"/>
<text text-anchor="start" x="1685" y="-40.5" font-family="Helvetica,sans-Serif" font-size="10.00">/home/kali/projects</text>
<text text-anchor="start" x="1685" y="-29.5" font-family="Helvetica,sans-Serif" font-size="10.00">/vsomeip/implementation</text>
<text text-anchor="start" x="1685" y="-18.5" font-family="Helvetica,sans-Serif" font-size="10.00">/endpoints/src/tcp_server</text>
<text text-anchor="middle" x="1748.5" y="-7.5" font-family="Helvetica,sans-Serif" font-size="10.00">_endpoint_impl.cpp</text>
</a>
</g>
</g>
<!-- Node19&#45;&gt;Node20 -->
<g id="edge28" class="edge">
<title>Node19&#45;&gt;Node20</title>
<path fill="none" stroke="midnightblue" d="M1510.94,-88.97C1581.83,-70.61 1602,-71.14 1668.5,-53 1671.17,-52.27 1673.89,-51.51 1676.63,-50.73"/>
<polygon fill="midnightblue" stroke="midnightblue" points="1509.86,-85.64 1501.08,-91.56 1511.64,-92.41 1509.86,-85.64"/>
</g>
<!-- Node21 -->
<g id="node21" class="node">
<title>Node21</title>
<g id="a_node21"><a xlink:href="service__discovery__impl_8cpp.html" target="_top" xlink:title=" ">
<polygon fill="white" stroke="black" points="1838,-0.5 1838,-52.5 1993,-52.5 1993,-0.5 1838,-0.5"/>
<text text-anchor="start" x="1846" y="-40.5" font-family="Helvetica,sans-Serif" font-size="10.00">/home/kali/projects</text>
<text text-anchor="start" x="1846" y="-29.5" font-family="Helvetica,sans-Serif" font-size="10.00">/vsomeip/implementation</text>
<text text-anchor="start" x="1846" y="-18.5" font-family="Helvetica,sans-Serif" font-size="10.00">/service_discovery/src</text>
<text text-anchor="middle" x="1915.5" y="-7.5" font-family="Helvetica,sans-Serif" font-size="10.00">/service_discovery_impl.cpp</text>
</a>
</g>
</g>
<!-- Node19&#45;&gt;Node21 -->
<g id="edge30" class="edge">
<title>Node19&#45;&gt;Node21</title>
<path fill="none" stroke="midnightblue" d="M1511.29,-89.01C1652.05,-61.09 1692.82,-80.75 1829.5,-53 1832.25,-52.44 1835.03,-51.84 1837.84,-51.19"/>
<polygon fill="midnightblue" stroke="midnightblue" points="1510.54,-85.59 1501.43,-91.01 1511.93,-92.45 1510.54,-85.59"/>
</g>
<!-- Node22&#45;&gt;Node7 -->
<g id="edge34" class="edge">
<title>Node22&#45;&gt;Node7</title>
<path fill="none" stroke="midnightblue" d="M1509.19,-89.01C1435.61,-70.22 1414.86,-70.64 1345.5,-53 1342.57,-52.26 1339.59,-51.48 1336.59,-50.68"/>
<polygon fill="midnightblue" stroke="midnightblue" points="1508.37,-92.41 1518.93,-91.53 1510.13,-85.64 1508.37,-92.41"/>
</g>
<!-- Node22&#45;&gt;Node10 -->
<g id="edge32" class="edge">
<title>Node22&#45;&gt;Node10</title>
<path fill="none" stroke="midnightblue" d="M1536.17,-84.64C1516.15,-74.2 1493.9,-62.61 1474.69,-52.61"/>
<polygon fill="midnightblue" stroke="midnightblue" points="1534.71,-87.82 1545.2,-89.34 1537.95,-81.61 1534.71,-87.82"/>
</g>
<!-- Node22&#45;&gt;Node21 -->
<g id="edge35" class="edge">
<title>Node22&#45;&gt;Node21</title>
<path fill="none" stroke="midnightblue" d="M1678.04,-88.93C1746.23,-70.87 1765.43,-70.07 1829.5,-53 1832.21,-52.28 1834.96,-51.53 1837.74,-50.77"/>
<polygon fill="midnightblue" stroke="midnightblue" points="1676.84,-85.63 1668.09,-91.6 1678.65,-92.39 1676.84,-85.63"/>
</g>
<!-- Node23 -->
<g id="node23" class="node">
<title>Node23</title>
<g id="a_node23"><a xlink:href="udp__server__endpoint__impl_8cpp.html" target="_top" xlink:title=" ">
<polygon fill="white" stroke="black" points="2011,-0.5 2011,-52.5 2154,-52.5 2154,-0.5 2011,-0.5"/>
<text text-anchor="start" x="2019" y="-40.5" font-family="Helvetica,sans-Serif" font-size="10.00">/home/kali/projects</text>
<text text-anchor="start" x="2019" y="-29.5" font-family="Helvetica,sans-Serif" font-size="10.00">/vsomeip/implementation</text>
<text text-anchor="start" x="2019" y="-18.5" font-family="Helvetica,sans-Serif" font-size="10.00">/endpoints/src/udp_server</text>
<text text-anchor="middle" x="2082.5" y="-7.5" font-family="Helvetica,sans-Serif" font-size="10.00">_endpoint_impl.cpp</text>
</a>
</g>
</g>
<!-- Node22&#45;&gt;Node23 -->
<g id="edge33" class="edge">
<title>Node22&#45;&gt;Node23</title>
<path fill="none" stroke="midnightblue" d="M1678.47,-88.98C1821.73,-60.79 1863.54,-82.54 2002.5,-53 2005.21,-52.42 2007.96,-51.79 2010.72,-51.12"/>
<polygon fill="midnightblue" stroke="midnightblue" points="1677.54,-85.6 1668.43,-91.01 1678.92,-92.46 1677.54,-85.6"/>
</g>
</g>
</svg>
