<?xml version="1.0" encoding="UTF-8" standalone="no"?>
<!DOCTYPE svg PUBLIC "-//W3C//DTD SVG 1.1//EN"
 "http://www.w3.org/Graphics/SVG/1.1/DTD/svg11.dtd">
<!-- Generated by graphviz version 2.43.0 (0)
 -->
<!-- Title: /home/kali/projects/vsomeip/implementation/endpoints/include/endpoint_impl.hpp Pages: 1 -->
<svg width="2458pt" height="385pt"
 viewBox="0.00 0.00 2458.25 385.00" xmlns="http://www.w3.org/2000/svg" xmlns:xlink="http://www.w3.org/1999/xlink">
<g id="graph0" class="graph" transform="scale(1 1) rotate(0) translate(4 381)">
<title>/home/kali/projects/vsomeip/implementation/endpoints/include/endpoint_impl.hpp</title>
<polygon fill="white" stroke="transparent" points="-4,4 -4,-381 2454.25,-381 2454.25,4 -4,4"/>
<!-- Node1 -->
<g id="node1" class="node">
<title>Node1</title>
<g id="a_node1"><a xlink:title=" ">
<polygon fill="#bfbfbf" stroke="black" points="368.52,-324.5 368.52,-376.5 520.52,-376.5 520.52,-324.5 368.52,-324.5"/>
<text text-anchor="start" x="376.52" y="-364.5" font-family="Helvetica,sans-Serif" font-size="10.00">/home/kali/projects</text>
<text text-anchor="start" x="376.52" y="-353.5" font-family="Helvetica,sans-Serif" font-size="10.00">/vsomeip/implementation</text>
<text text-anchor="start" x="376.52" y="-342.5" font-family="Helvetica,sans-Serif" font-size="10.00">/endpoints/include/endpoint</text>
<text text-anchor="middle" x="444.52" y="-331.5" font-family="Helvetica,sans-Serif" font-size="10.00">_impl.hpp</text>
</a>
</g>
</g>
<!-- Node2 -->
<g id="node2" class="node">
<title>Node2</title>
<g id="a_node2"><a xlink:title=" ">
<polygon fill="white" stroke="#bfbfbf" points="2055.52,-129 2055.52,-148 2093.52,-148 2093.52,-129 2055.52,-129"/>
<text text-anchor="middle" x="2074.52" y="-136" font-family="Helvetica,sans-Serif" font-size="10.00">map</text>
</a>
</g>
</g>
<!-- Node1&#45;&gt;Node2 -->
<g id="edge1" class="edge">
<title>Node1&#45;&gt;Node2</title>
<path fill="none" stroke="midnightblue" d="M520.72,-350.26C711.1,-351.14 1222.47,-347.3 1643.52,-288 1773.66,-269.67 1812.51,-276.74 1931.52,-221 1952.21,-211.31 1953.05,-201.94 1972.52,-190 2003.7,-170.88 2013.84,-170.41 2046.52,-154 2047.36,-153.58 2048.21,-153.15 2049.06,-152.72"/>
<polygon fill="midnightblue" stroke="midnightblue" points="2050.97,-155.68 2058.27,-148 2047.78,-149.45 2050.97,-155.68"/>
</g>
<!-- Node3 -->
<g id="node3" class="node">
<title>Node3</title>
<g id="a_node3"><a xlink:title=" ">
<polygon fill="white" stroke="#bfbfbf" points="366.52,-129 366.52,-148 424.52,-148 424.52,-129 366.52,-129"/>
<text text-anchor="middle" x="395.52" y="-136" font-family="Helvetica,sans-Serif" font-size="10.00">memory</text>
</a>
</g>
</g>
<!-- Node1&#45;&gt;Node3 -->
<g id="edge2" class="edge">
<title>Node1&#45;&gt;Node3</title>
<path fill="none" stroke="midnightblue" d="M368.44,-338.38C254.78,-320.02 49.38,-279.49 6.52,-221 -1.62,-209.89 -2.57,-200.35 6.52,-190 29.41,-163.95 262.06,-147.39 356.25,-141.7"/>
<polygon fill="midnightblue" stroke="midnightblue" points="356.73,-145.18 366.5,-141.1 356.31,-138.19 356.73,-145.18"/>
</g>
<!-- Node4 -->
<g id="node4" class="node">
<title>Node4</title>
<g id="a_node4"><a xlink:title=" ">
<polygon fill="white" stroke="#bfbfbf" points="1116.52,-62 1116.52,-81 1164.52,-81 1164.52,-62 1116.52,-62"/>
<text text-anchor="middle" x="1140.52" y="-69" font-family="Helvetica,sans-Serif" font-size="10.00">mutex</text>
</a>
</g>
</g>
<!-- Node1&#45;&gt;Node4 -->
<g id="edge3" class="edge">
<title>Node1&#45;&gt;Node4</title>
<path fill="none" stroke="midnightblue" d="M520.62,-338.01C640.18,-317.16 875.69,-264.61 1043.52,-154 1074.08,-133.86 1105.89,-105.47 1124.42,-88.07"/>
<polygon fill="midnightblue" stroke="midnightblue" points="1126.89,-90.55 1131.72,-81.12 1122.06,-85.48 1126.89,-90.55"/>
</g>
<!-- Node5 -->
<g id="node5" class="node">
<title>Node5</title>
<g id="a_node5"><a xlink:title=" ">
<polygon fill="white" stroke="#bfbfbf" points="343.52,-263 343.52,-282 393.52,-282 393.52,-263 343.52,-263"/>
<text text-anchor="middle" x="368.52" y="-270" font-family="Helvetica,sans-Serif" font-size="10.00">atomic</text>
</a>
</g>
</g>
<!-- Node1&#45;&gt;Node5 -->
<g id="edge4" class="edge">
<title>Node1&#45;&gt;Node5</title>
<path fill="none" stroke="midnightblue" d="M419.22,-324.19C407.77,-312.74 394.58,-299.56 384.53,-289.51"/>
<polygon fill="midnightblue" stroke="midnightblue" points="386.78,-286.81 377.23,-282.21 381.83,-291.75 386.78,-286.81"/>
</g>
<!-- Node6 -->
<g id="node6" class="node">
<title>Node6</title>
<g id="a_node6"><a xlink:title=" ">
<polygon fill="white" stroke="#bfbfbf" points="15.52,-196 15.52,-215 155.52,-215 155.52,-196 15.52,-196"/>
<text text-anchor="middle" x="85.52" y="-203" font-family="Helvetica,sans-Serif" font-size="10.00">boost/asio/io_service.hpp</text>
</a>
</g>
</g>
<!-- Node1&#45;&gt;Node6 -->
<g id="edge5" class="edge">
<title>Node1&#45;&gt;Node6</title>
<path fill="none" stroke="midnightblue" d="M381.58,-324.43C304.02,-293.53 175.31,-242.27 116.53,-218.85"/>
<polygon fill="midnightblue" stroke="midnightblue" points="117.64,-215.52 107.05,-215.08 115.05,-222.03 117.64,-215.52"/>
</g>
<!-- Node7 -->
<g id="node7" class="node">
<title>Node7</title>
<g id="a_node7"><a xlink:title=" ">
<polygon fill="white" stroke="#bfbfbf" points="174.02,-196 174.02,-215 329.02,-215 329.02,-196 174.02,-196"/>
<text text-anchor="middle" x="251.52" y="-203" font-family="Helvetica,sans-Serif" font-size="10.00">boost/asio/steady_timer.hpp</text>
</a>
</g>
</g>
<!-- Node1&#45;&gt;Node7 -->
<g id="edge6" class="edge">
<title>Node1&#45;&gt;Node7</title>
<path fill="none" stroke="midnightblue" d="M393.22,-324.48C374.09,-314.23 352.65,-301.58 334.52,-288 308,-268.12 281.36,-240.23 265.67,-222.77"/>
<polygon fill="midnightblue" stroke="midnightblue" points="268.14,-220.28 258.89,-215.12 262.9,-224.93 268.14,-220.28"/>
</g>
<!-- Node8 -->
<g id="node8" class="node">
<title>Node8</title>
<g id="a_node8"><a xlink:href="endpoints_2include_2buffer_8hpp.html" target="_top" xlink:title=" ">
<polygon fill="white" stroke="black" points="412.02,-263 412.02,-282 477.02,-282 477.02,-263 412.02,-263"/>
<text text-anchor="middle" x="444.52" y="-270" font-family="Helvetica,sans-Serif" font-size="10.00">buffer.hpp</text>
</a>
</g>
</g>
<!-- Node1&#45;&gt;Node8 -->
<g id="edge7" class="edge">
<title>Node1&#45;&gt;Node8</title>
<path fill="none" stroke="midnightblue" d="M444.52,-324.19C444.52,-313.76 444.52,-301.9 444.52,-292.27"/>
<polygon fill="midnightblue" stroke="midnightblue" points="448.02,-292.21 444.52,-282.21 441.02,-292.21 448.02,-292.21"/>
</g>
<!-- Node14 -->
<g id="node14" class="node">
<title>Node14</title>
<g id="a_node14"><a xlink:href="endpoint_8hpp.html" target="_top" xlink:title=" ">
<polygon fill="white" stroke="black" points="821.52,-196 821.52,-215 901.52,-215 901.52,-196 821.52,-196"/>
<text text-anchor="middle" x="861.52" y="-203" font-family="Helvetica,sans-Serif" font-size="10.00">endpoint.hpp</text>
</a>
</g>
</g>
<!-- Node1&#45;&gt;Node14 -->
<g id="edge16" class="edge">
<title>Node1&#45;&gt;Node14</title>
<path fill="none" stroke="midnightblue" d="M517.64,-324.43C608.28,-293.34 759.08,-241.63 826.77,-218.42"/>
<polygon fill="midnightblue" stroke="midnightblue" points="828.19,-221.63 836.52,-215.08 825.92,-215.01 828.19,-221.63"/>
</g>
<!-- Node18 -->
<g id="node18" class="node">
<title>Node18</title>
<g id="a_node18"><a xlink:href="configuration_8hpp.html" target="_top" xlink:title=" ">
<polygon fill="white" stroke="black" points="1491.02,-257.5 1491.02,-287.5 1634.02,-287.5 1634.02,-257.5 1491.02,-257.5"/>
<text text-anchor="start" x="1499.02" y="-275.5" font-family="Helvetica,sans-Serif" font-size="10.00">../../configuration</text>
<text text-anchor="middle" x="1562.52" y="-264.5" font-family="Helvetica,sans-Serif" font-size="10.00">/include/configuration.hpp</text>
</a>
</g>
</g>
<!-- Node1&#45;&gt;Node18 -->
<g id="edge21" class="edge">
<title>Node1&#45;&gt;Node18</title>
<path fill="none" stroke="midnightblue" d="M520.93,-344.31C723.34,-330.55 1272.12,-293.24 1480.64,-279.07"/>
<polygon fill="midnightblue" stroke="midnightblue" points="1481.16,-282.54 1490.9,-278.37 1480.69,-275.56 1481.16,-282.54"/>
</g>
<!-- Node8&#45;&gt;Node3 -->
<g id="edge10" class="edge">
<title>Node8&#45;&gt;Node3</title>
<path fill="none" stroke="midnightblue" d="M438.35,-262.99C431.58,-253.28 420.84,-236.7 414.52,-221 406.24,-200.41 401.08,-175.38 398.26,-158.53"/>
<polygon fill="midnightblue" stroke="midnightblue" points="401.67,-157.68 396.67,-148.33 394.75,-158.75 401.67,-157.68"/>
</g>
<!-- Node8&#45;&gt;Node6 -->
<g id="edge12" class="edge">
<title>Node8&#45;&gt;Node6</title>
<path fill="none" stroke="midnightblue" d="M422.08,-262.91C415.82,-260.74 408.97,-258.59 402.52,-257 298.64,-231.44 270.04,-238.66 164.52,-221 156.79,-219.71 148.64,-218.28 140.63,-216.84"/>
<polygon fill="midnightblue" stroke="midnightblue" points="141.06,-213.36 130.6,-215.03 139.82,-220.25 141.06,-213.36"/>
</g>
<!-- Node8&#45;&gt;Node7 -->
<g id="edge13" class="edge">
<title>Node8&#45;&gt;Node7</title>
<path fill="none" stroke="midnightblue" d="M419.66,-262.87C414.03,-260.93 408.07,-258.89 402.52,-257 363.02,-243.58 317.61,-228.43 286.99,-218.25"/>
<polygon fill="midnightblue" stroke="midnightblue" points="287.79,-214.83 277.2,-215 285.59,-221.48 287.79,-214.83"/>
</g>
<!-- Node9 -->
<g id="node9" class="node">
<title>Node9</title>
<g id="a_node9"><a xlink:title=" ">
<polygon fill="white" stroke="#bfbfbf" points="423.52,-196 423.52,-215 465.52,-215 465.52,-196 423.52,-196"/>
<text text-anchor="middle" x="444.52" y="-203" font-family="Helvetica,sans-Serif" font-size="10.00">array</text>
</a>
</g>
</g>
<!-- Node8&#45;&gt;Node9 -->
<g id="edge8" class="edge">
<title>Node8&#45;&gt;Node9</title>
<path fill="none" stroke="midnightblue" d="M444.52,-262.73C444.52,-253.18 444.52,-237.62 444.52,-225.28"/>
<polygon fill="midnightblue" stroke="midnightblue" points="448.02,-225.13 444.52,-215.13 441.02,-225.13 448.02,-225.13"/>
</g>
<!-- Node10 -->
<g id="node10" class="node">
<title>Node10</title>
<g id="a_node10"><a xlink:title=" ">
<polygon fill="white" stroke="#bfbfbf" points="427.52,-62 427.52,-81 477.52,-81 477.52,-62 427.52,-62"/>
<text text-anchor="middle" x="452.52" y="-69" font-family="Helvetica,sans-Serif" font-size="10.00">chrono</text>
</a>
</g>
</g>
<!-- Node8&#45;&gt;Node10 -->
<g id="edge9" class="edge">
<title>Node8&#45;&gt;Node10</title>
<path fill="none" stroke="midnightblue" d="M432.23,-262.76C401.47,-239.77 325.82,-175.76 357.52,-123 370.48,-101.44 396.1,-88.59 417.46,-81.25"/>
<polygon fill="midnightblue" stroke="midnightblue" points="418.75,-84.51 427.23,-78.16 416.64,-77.84 418.75,-84.51"/>
</g>
<!-- Node11 -->
<g id="node11" class="node">
<title>Node11</title>
<g id="a_node11"><a xlink:title=" ">
<polygon fill="white" stroke="#bfbfbf" points="619.52,-196 619.52,-215 651.52,-215 651.52,-196 619.52,-196"/>
<text text-anchor="middle" x="635.52" y="-203" font-family="Helvetica,sans-Serif" font-size="10.00">set</text>
</a>
</g>
</g>
<!-- Node8&#45;&gt;Node11 -->
<g id="edge11" class="edge">
<title>Node8&#45;&gt;Node11</title>
<path fill="none" stroke="midnightblue" d="M477.13,-263.95C511.19,-255.52 565.78,-240.47 610.52,-221 611.37,-220.63 612.22,-220.24 613.08,-219.84"/>
<polygon fill="midnightblue" stroke="midnightblue" points="614.87,-222.84 622.07,-215.06 611.59,-216.66 614.87,-222.84"/>
</g>
<!-- Node12 -->
<g id="node12" class="node">
<title>Node12</title>
<g id="a_node12"><a xlink:title=" ">
<polygon fill="white" stroke="#bfbfbf" points="483.52,-196 483.52,-215 601.52,-215 601.52,-196 483.52,-196"/>
<text text-anchor="middle" x="542.52" y="-203" font-family="Helvetica,sans-Serif" font-size="10.00">vsomeip/defines.hpp</text>
</a>
</g>
</g>
<!-- Node8&#45;&gt;Node12 -->
<g id="edge14" class="edge">
<title>Node8&#45;&gt;Node12</title>
<path fill="none" stroke="midnightblue" d="M457.74,-262.73C473.98,-251.96 501.74,-233.55 521.05,-220.74"/>
<polygon fill="midnightblue" stroke="midnightblue" points="523.12,-223.57 529.52,-215.13 519.25,-217.74 523.12,-223.57"/>
</g>
<!-- Node13 -->
<g id="node13" class="node">
<title>Node13</title>
<g id="a_node13"><a xlink:title=" ">
<polygon fill="white" stroke="#bfbfbf" points="1505.02,-62 1505.02,-81 1664.02,-81 1664.02,-62 1505.02,-62"/>
<text text-anchor="middle" x="1584.52" y="-69" font-family="Helvetica,sans-Serif" font-size="10.00">vsomeip/primitive_types.hpp</text>
</a>
</g>
</g>
<!-- Node8&#45;&gt;Node13 -->
<g id="edge15" class="edge">
<title>Node8&#45;&gt;Node13</title>
<path fill="none" stroke="midnightblue" d="M477.12,-271.79C646.63,-273.08 1423.03,-275.91 1513.52,-221 1559.85,-192.89 1576.5,-124.93 1582.02,-91.59"/>
<polygon fill="midnightblue" stroke="midnightblue" points="1585.54,-91.77 1583.54,-81.37 1578.61,-90.74 1585.54,-91.77"/>
</g>
<!-- Node14&#45;&gt;Node13 -->
<g id="edge18" class="edge">
<title>Node14&#45;&gt;Node13</title>
<path fill="none" stroke="midnightblue" d="M901.6,-204.43C1022.31,-203.71 1380.74,-197.85 1487.52,-154 1489.87,-153.03 1539.42,-110.96 1566.77,-87.65"/>
<polygon fill="midnightblue" stroke="midnightblue" points="1569.13,-90.24 1574.46,-81.09 1564.58,-84.92 1569.13,-90.24"/>
</g>
<!-- Node15 -->
<g id="node15" class="node">
<title>Node15</title>
<g id="a_node15"><a xlink:title=" ">
<polygon fill="white" stroke="#bfbfbf" points="574.02,-129 574.02,-148 715.02,-148 715.02,-129 574.02,-129"/>
<text text-anchor="middle" x="644.52" y="-136" font-family="Helvetica,sans-Serif" font-size="10.00">boost/asio/ip/address.hpp</text>
</a>
</g>
</g>
<!-- Node14&#45;&gt;Node15 -->
<g id="edge17" class="edge">
<title>Node14&#45;&gt;Node15</title>
<path fill="none" stroke="midnightblue" d="M832.71,-195.87C794.18,-184.33 725.77,-163.84 682.9,-151"/>
<polygon fill="midnightblue" stroke="midnightblue" points="683.7,-147.58 673.11,-148.06 681.69,-154.29 683.7,-147.58"/>
</g>
<!-- Node16 -->
<g id="node16" class="node">
<title>Node16</title>
<g id="a_node16"><a xlink:title=" ">
<polygon fill="white" stroke="#bfbfbf" points="733.52,-129 733.52,-148 863.52,-148 863.52,-129 733.52,-129"/>
<text text-anchor="middle" x="798.52" y="-136" font-family="Helvetica,sans-Serif" font-size="10.00">vsomeip/constants.hpp</text>
</a>
</g>
</g>
<!-- Node14&#45;&gt;Node16 -->
<g id="edge19" class="edge">
<title>Node14&#45;&gt;Node16</title>
<path fill="none" stroke="midnightblue" d="M853.03,-195.73C843.01,-185.4 826.18,-168.04 813.87,-155.33"/>
<polygon fill="midnightblue" stroke="midnightblue" points="816.36,-152.87 806.89,-148.13 811.33,-157.74 816.36,-152.87"/>
</g>
<!-- Node17 -->
<g id="node17" class="node">
<title>Node17</title>
<g id="a_node17"><a xlink:title=" ">
<polygon fill="white" stroke="#bfbfbf" points="1888.02,-0.5 1888.02,-19.5 1935.02,-19.5 1935.02,-0.5 1888.02,-0.5"/>
<text text-anchor="middle" x="1911.52" y="-7.5" font-family="Helvetica,sans-Serif" font-size="10.00">vector</text>
</a>
</g>
</g>
<!-- Node14&#45;&gt;Node17 -->
<g id="edge20" class="edge">
<title>Node14&#45;&gt;Node17</title>
<path fill="none" stroke="midnightblue" d="M901.87,-203.44C1028.12,-199.81 1409.87,-186.25 1454.52,-154 1492.94,-126.26 1458.43,-84.18 1496.52,-56 1556.65,-11.52 1789.57,-9.51 1877.58,-10.4"/>
<polygon fill="midnightblue" stroke="midnightblue" points="1877.78,-13.91 1887.82,-10.53 1877.86,-6.91 1877.78,-13.91"/>
</g>
<!-- Node18&#45;&gt;Node2 -->
<g id="edge22" class="edge">
<title>Node18&#45;&gt;Node2</title>
<path fill="none" stroke="midnightblue" d="M1634.17,-270.35C1703.61,-267.03 1810.73,-256 1896.52,-221 1918.34,-212.1 1918.57,-200.77 1939.52,-190 1984.15,-167.07 2000.33,-173.59 2046.52,-154 2047.56,-153.56 2048.6,-153.1 2049.66,-152.62"/>
<polygon fill="midnightblue" stroke="midnightblue" points="2051.57,-155.58 2059.03,-148.06 2048.51,-149.29 2051.57,-155.58"/>
</g>
<!-- Node18&#45;&gt;Node3 -->
<g id="edge23" class="edge">
<title>Node18&#45;&gt;Node3</title>
<path fill="none" stroke="midnightblue" d="M1490.97,-269.58C1298.04,-264.1 776.72,-247.03 703.52,-221 681.33,-213.11 682.29,-199.02 660.52,-190 568.18,-151.75 535.54,-178.05 438.52,-154 435.13,-153.16 431.63,-152.17 428.15,-151.12"/>
<polygon fill="midnightblue" stroke="midnightblue" points="429.12,-147.76 418.53,-148.03 426.98,-154.42 429.12,-147.76"/>
</g>
<!-- Node18&#45;&gt;Node10 -->
<g id="edge26" class="edge">
<title>Node18&#45;&gt;Node10</title>
<path fill="none" stroke="midnightblue" d="M1490.78,-269.81C1301.91,-265 800.67,-249.65 731.52,-221 712.33,-213.05 715.31,-198.88 696.52,-190 604.97,-146.7 545.61,-223.05 471.52,-154 454.45,-138.09 451.32,-110.05 451.36,-91.37"/>
<polygon fill="midnightblue" stroke="midnightblue" points="454.87,-91.25 451.7,-81.14 447.87,-91.02 454.87,-91.25"/>
</g>
<!-- Node18&#45;&gt;Node11 -->
<g id="edge24" class="edge">
<title>Node18&#45;&gt;Node11</title>
<path fill="none" stroke="midnightblue" d="M1490.7,-271.08C1306.52,-269.41 820.96,-261.23 665.52,-221 663.59,-220.5 661.63,-219.87 659.7,-219.16"/>
<polygon fill="midnightblue" stroke="midnightblue" points="660.91,-215.87 650.34,-215.09 658.11,-222.29 660.91,-215.87"/>
</g>
<!-- Node18&#45;&gt;Node12 -->
<g id="edge30" class="edge">
<title>Node18&#45;&gt;Node12</title>
<path fill="none" stroke="midnightblue" d="M1490.81,-271.53C1331.68,-270.76 937.25,-264.23 610.52,-221 602.95,-220 594.97,-218.61 587.24,-217.08"/>
<polygon fill="midnightblue" stroke="midnightblue" points="587.79,-213.62 577.28,-215.01 586.36,-220.47 587.79,-213.62"/>
</g>
<!-- Node18&#45;&gt;Node13 -->
<g id="edge32" class="edge">
<title>Node18&#45;&gt;Node13</title>
<path fill="none" stroke="midnightblue" d="M1634.29,-270.95C1788.86,-269.03 2142.28,-260.33 2178.52,-221 2217.35,-178.86 2143.57,-135.26 2119.52,-123 2043.98,-84.49 1806.01,-75.21 1674.34,-73.06"/>
<polygon fill="midnightblue" stroke="midnightblue" points="1674.32,-69.56 1664.27,-72.91 1674.22,-76.56 1674.32,-69.56"/>
</g>
<!-- Node18&#45;&gt;Node15 -->
<g id="edge27" class="edge">
<title>Node18&#45;&gt;Node15</title>
<path fill="none" stroke="midnightblue" d="M1490.93,-271.67C1328.38,-271.25 935.99,-265.5 812.52,-221 790.36,-213.01 790.15,-201.38 769.52,-190 740.76,-174.13 705.96,-160.48 680.39,-151.39"/>
<polygon fill="midnightblue" stroke="midnightblue" points="681.32,-148.01 670.73,-148.01 679.02,-154.61 681.32,-148.01"/>
</g>
<!-- Node19 -->
<g id="node19" class="node">
<title>Node19</title>
<g id="a_node19"><a xlink:title=" ">
<polygon fill="white" stroke="#bfbfbf" points="2225.52,-129 2225.52,-148 2269.52,-148 2269.52,-129 2225.52,-129"/>
<text text-anchor="middle" x="2247.52" y="-136" font-family="Helvetica,sans-Serif" font-size="10.00">string</text>
</a>
</g>
</g>
<!-- Node18&#45;&gt;Node19 -->
<g id="edge25" class="edge">
<title>Node18&#45;&gt;Node19</title>
<path fill="none" stroke="midnightblue" d="M1634.29,-270.03C1793.38,-266.17 2165.3,-253.74 2211.52,-221 2232.1,-206.43 2241.07,-177.37 2244.87,-158.18"/>
<polygon fill="midnightblue" stroke="midnightblue" points="2248.34,-158.65 2246.56,-148.21 2241.44,-157.48 2248.34,-158.65"/>
</g>
<!-- Node20 -->
<g id="node20" class="node">
<title>Node20</title>
<g id="a_node20"><a xlink:title=" ">
<polygon fill="white" stroke="#bfbfbf" points="1939.52,-123.5 1939.52,-153.5 2037.52,-153.5 2037.52,-123.5 1939.52,-123.5"/>
<text text-anchor="start" x="1947.52" y="-141.5" font-family="Helvetica,sans-Serif" font-size="10.00">boost/icl/interval</text>
<text text-anchor="middle" x="1988.52" y="-130.5" font-family="Helvetica,sans-Serif" font-size="10.00">_set.hpp</text>
</a>
</g>
</g>
<!-- Node18&#45;&gt;Node20 -->
<g id="edge28" class="edge">
<title>Node18&#45;&gt;Node20</title>
<path fill="none" stroke="midnightblue" d="M1634.37,-259.96C1671.56,-252.19 1716.93,-239.83 1754.52,-221 1774.32,-211.08 1773.71,-199.88 1793.52,-190 1805.84,-183.86 1876.69,-166.19 1929.46,-153.48"/>
<polygon fill="midnightblue" stroke="midnightblue" points="1930.51,-156.83 1939.42,-151.09 1928.88,-150.02 1930.51,-156.83"/>
</g>
<!-- Node21 -->
<g id="node21" class="node">
<title>Node21</title>
<g id="a_node21"><a xlink:title=" ">
<polygon fill="white" stroke="#bfbfbf" points="984.52,-62 984.52,-81 1098.52,-81 1098.52,-62 984.52,-62"/>
<text text-anchor="middle" x="1041.52" y="-69" font-family="Helvetica,sans-Serif" font-size="10.00">vsomeip/export.hpp</text>
</a>
</g>
</g>
<!-- Node18&#45;&gt;Node21 -->
<g id="edge29" class="edge">
<title>Node18&#45;&gt;Node21</title>
<path fill="none" stroke="midnightblue" d="M1490.68,-261.95C1402.98,-248.04 1252.21,-216.71 1137.52,-154 1105.42,-136.44 1074.26,-107.01 1056.53,-88.73"/>
<polygon fill="midnightblue" stroke="midnightblue" points="1058.8,-86.04 1049.38,-81.2 1053.73,-90.86 1058.8,-86.04"/>
</g>
<!-- Node22 -->
<g id="node22" class="node">
<title>Node22</title>
<g id="a_node22"><a xlink:title=" ">
<polygon fill="white" stroke="#bfbfbf" points="2056.02,-196 2056.02,-215 2169.02,-215 2169.02,-196 2056.02,-196"/>
<text text-anchor="middle" x="2112.52" y="-203" font-family="Helvetica,sans-Serif" font-size="10.00">vsomeip/plugin.hpp</text>
</a>
</g>
</g>
<!-- Node18&#45;&gt;Node22 -->
<g id="edge31" class="edge">
<title>Node18&#45;&gt;Node22</title>
<path fill="none" stroke="midnightblue" d="M1634.2,-266.55C1728.97,-259.43 1900.98,-244.5 2046.52,-221 2053.22,-219.92 2060.25,-218.59 2067.13,-217.17"/>
<polygon fill="midnightblue" stroke="midnightblue" points="2067.99,-220.57 2077.04,-215.06 2066.53,-213.72 2067.99,-220.57"/>
</g>
<!-- Node23 -->
<g id="node23" class="node">
<title>Node23</title>
<g id="a_node23"><a xlink:href="implementation_2configuration_2include_2trace_8hpp.html" target="_top" xlink:title=" ">
<polygon fill="white" stroke="black" points="2266.52,-196 2266.52,-215 2328.52,-215 2328.52,-196 2266.52,-196"/>
<text text-anchor="middle" x="2297.52" y="-203" font-family="Helvetica,sans-Serif" font-size="10.00">trace.hpp</text>
</a>
</g>
</g>
<!-- Node18&#45;&gt;Node23 -->
<g id="edge33" class="edge">
<title>Node18&#45;&gt;Node23</title>
<path fill="none" stroke="midnightblue" d="M1634.27,-271.54C1760.16,-270.44 2028.52,-262.83 2250.52,-221 2254.77,-220.2 2259.18,-219.15 2263.51,-217.98"/>
<polygon fill="midnightblue" stroke="midnightblue" points="2264.78,-221.25 2273.39,-215.09 2262.81,-214.54 2264.78,-221.25"/>
</g>
<!-- Node25 -->
<g id="node25" class="node">
<title>Node25</title>
<g id="a_node25"><a xlink:href="config_8hpp.html" target="_top" xlink:title=" ">
<polygon fill="white" stroke="black" points="1365.02,-190.5 1365.02,-220.5 1504.02,-220.5 1504.02,-190.5 1365.02,-190.5"/>
<text text-anchor="start" x="1373.02" y="-208.5" font-family="Helvetica,sans-Serif" font-size="10.00">../../e2e_protection</text>
<text text-anchor="middle" x="1434.52" y="-197.5" font-family="Helvetica,sans-Serif" font-size="10.00">/include/e2exf/config.hpp</text>
</a>
</g>
</g>
<!-- Node18&#45;&gt;Node25 -->
<g id="edge38" class="edge">
<title>Node18&#45;&gt;Node25</title>
<path fill="none" stroke="midnightblue" d="M1534.75,-257.4C1516.13,-247.94 1491.41,-235.39 1471.18,-225.12"/>
<polygon fill="midnightblue" stroke="midnightblue" points="1472.74,-221.98 1462.24,-220.58 1469.57,-228.23 1472.74,-221.98"/>
</g>
<!-- Node33 -->
<g id="node33" class="node">
<title>Node33</title>
<g id="a_node33"><a xlink:href="e2e_8hpp.html" target="_top" xlink:title=" ">
<polygon fill="white" stroke="black" points="1981.52,-196 1981.52,-215 2037.52,-215 2037.52,-196 1981.52,-196"/>
<text text-anchor="middle" x="2009.52" y="-203" font-family="Helvetica,sans-Serif" font-size="10.00">e2e.hpp</text>
</a>
</g>
</g>
<!-- Node18&#45;&gt;Node33 -->
<g id="edge56" class="edge">
<title>Node18&#45;&gt;Node33</title>
<path fill="none" stroke="midnightblue" d="M1634.04,-262.57C1708.1,-253.12 1827.11,-237.32 1929.52,-221 1943.16,-218.83 1958.06,-216.2 1971.27,-213.78"/>
<polygon fill="midnightblue" stroke="midnightblue" points="1972.24,-217.16 1981.44,-211.89 1970.97,-210.27 1972.24,-217.16"/>
</g>
<!-- Node34 -->
<g id="node34" class="node">
<title>Node34</title>
<g id="a_node34"><a xlink:href="debounce_8hpp.html" target="_top" xlink:title=" ">
<polygon fill="white" stroke="black" points="1802.02,-196 1802.02,-215 1887.02,-215 1887.02,-196 1802.02,-196"/>
<text text-anchor="middle" x="1844.52" y="-203" font-family="Helvetica,sans-Serif" font-size="10.00">debounce.hpp</text>
</a>
</g>
</g>
<!-- Node18&#45;&gt;Node34 -->
<g id="edge61" class="edge">
<title>Node18&#45;&gt;Node34</title>
<path fill="none" stroke="midnightblue" d="M1627.62,-257.4C1672.61,-247.53 1733.79,-233.86 1787.52,-221 1792.18,-219.89 1797.05,-218.69 1801.89,-217.49"/>
<polygon fill="midnightblue" stroke="midnightblue" points="1802.86,-220.85 1811.71,-215.02 1801.16,-214.06 1802.86,-220.85"/>
</g>
<!-- Node35 -->
<g id="node35" class="node">
<title>Node35</title>
<g id="a_node35"><a xlink:href="internal_8hpp.html" target="_top" xlink:title=" ">
<polygon fill="white" stroke="black" points="481.02,-129 481.02,-148 556.02,-148 556.02,-129 481.02,-129"/>
<text text-anchor="middle" x="518.52" y="-136" font-family="Helvetica,sans-Serif" font-size="10.00">internal.hpp</text>
</a>
</g>
</g>
<!-- Node18&#45;&gt;Node35 -->
<g id="edge63" class="edge">
<title>Node18&#45;&gt;Node35</title>
<path fill="none" stroke="midnightblue" d="M1490.82,-269.43C1308.27,-263.82 835.62,-246.94 769.52,-221 749.23,-213.04 751.17,-199.45 731.52,-190 663.1,-157.09 637.92,-173.43 564.52,-154 561.1,-153.09 557.55,-152.09 554.02,-151.05"/>
<polygon fill="midnightblue" stroke="midnightblue" points="554.77,-147.62 544.19,-148.05 552.73,-154.32 554.77,-147.62"/>
</g>
<!-- Node38 -->
<g id="node38" class="node">
<title>Node38</title>
<g id="a_node38"><a xlink:href="policy_8hpp.html" target="_top" xlink:title=" ">
<polygon fill="white" stroke="black" points="1633.52,-190.5 1633.52,-220.5 1745.52,-220.5 1745.52,-190.5 1633.52,-190.5"/>
<text text-anchor="start" x="1641.52" y="-208.5" font-family="Helvetica,sans-Serif" font-size="10.00">../../security/include</text>
<text text-anchor="middle" x="1689.52" y="-197.5" font-family="Helvetica,sans-Serif" font-size="10.00">/policy.hpp</text>
</a>
</g>
</g>
<!-- Node18&#45;&gt;Node38 -->
<g id="edge68" class="edge">
<title>Node18&#45;&gt;Node38</title>
<path fill="none" stroke="midnightblue" d="M1590.08,-257.4C1608.47,-247.98 1632.86,-235.5 1652.88,-225.26"/>
<polygon fill="midnightblue" stroke="midnightblue" points="1654.71,-228.25 1662.02,-220.58 1651.52,-222.02 1654.71,-228.25"/>
</g>
<!-- Node23&#45;&gt;Node13 -->
<g id="edge36" class="edge">
<title>Node23&#45;&gt;Node13</title>
<path fill="none" stroke="midnightblue" d="M2298.47,-195.96C2299.81,-179.06 2300.06,-141.41 2278.52,-123 2233.59,-84.6 1851.79,-75.4 1674.42,-73.19"/>
<polygon fill="midnightblue" stroke="midnightblue" points="1674.36,-69.69 1664.32,-73.07 1674.28,-76.69 1674.36,-69.69"/>
</g>
<!-- Node23&#45;&gt;Node17 -->
<g id="edge35" class="edge">
<title>Node23&#45;&gt;Node17</title>
<path fill="none" stroke="midnightblue" d="M2328.77,-199.46C2380.98,-189.74 2476.99,-165.5 2442.52,-123 2379.19,-44.92 2052.4,-19.18 1945.45,-12.78"/>
<polygon fill="midnightblue" stroke="midnightblue" points="1945.41,-9.28 1935.23,-12.19 1945.01,-16.26 1945.41,-9.28"/>
</g>
<!-- Node23&#45;&gt;Node19 -->
<g id="edge34" class="edge">
<title>Node23&#45;&gt;Node19</title>
<path fill="none" stroke="midnightblue" d="M2290.78,-195.73C2282.98,-185.6 2269.98,-168.69 2260.26,-156.06"/>
<polygon fill="midnightblue" stroke="midnightblue" points="2263.03,-153.92 2254.16,-148.13 2257.48,-158.19 2263.03,-153.92"/>
</g>
<!-- Node24 -->
<g id="node24" class="node">
<title>Node24</title>
<g id="a_node24"><a xlink:title=" ">
<polygon fill="white" stroke="#bfbfbf" points="2326.02,-129 2326.02,-148 2433.02,-148 2433.02,-129 2326.02,-129"/>
<text text-anchor="middle" x="2379.52" y="-136" font-family="Helvetica,sans-Serif" font-size="10.00">vsomeip/trace.hpp</text>
</a>
</g>
</g>
<!-- Node23&#45;&gt;Node24 -->
<g id="edge37" class="edge">
<title>Node23&#45;&gt;Node24</title>
<path fill="none" stroke="midnightblue" d="M2308.58,-195.73C2321.86,-185.21 2344.35,-167.38 2360.45,-154.62"/>
<polygon fill="midnightblue" stroke="midnightblue" points="2362.98,-157.08 2368.64,-148.13 2358.63,-151.6 2362.98,-157.08"/>
</g>
<!-- Node25&#45;&gt;Node2 -->
<g id="edge55" class="edge">
<title>Node25&#45;&gt;Node2</title>
<path fill="none" stroke="midnightblue" d="M1504.17,-199.11C1661.87,-186.87 2033.62,-157.71 2046.52,-154 2048.19,-153.52 2049.87,-152.94 2051.53,-152.29"/>
<polygon fill="midnightblue" stroke="midnightblue" points="2053.14,-155.4 2060.73,-148.01 2050.19,-149.05 2053.14,-155.4"/>
</g>
<!-- Node25&#45;&gt;Node3 -->
<g id="edge54" class="edge">
<title>Node25&#45;&gt;Node3</title>
<path fill="none" stroke="midnightblue" d="M1364.76,-204.09C1205.72,-202.45 804.35,-194.29 471.52,-154 459.46,-152.54 446.42,-150.3 434.62,-148.01"/>
<polygon fill="midnightblue" stroke="midnightblue" points="435.1,-144.54 424.61,-146.01 433.73,-151.41 435.1,-144.54"/>
</g>
<!-- Node25&#45;&gt;Node13 -->
<g id="edge39" class="edge">
<title>Node25&#45;&gt;Node13</title>
<path fill="none" stroke="midnightblue" d="M1467.91,-190.34C1486.18,-181.57 1508.49,-169.1 1525.52,-154 1546.7,-135.23 1564.7,-107.58 1575.06,-89.8"/>
<polygon fill="midnightblue" stroke="midnightblue" points="1578.13,-91.49 1580.01,-81.06 1572.04,-88.04 1578.13,-91.49"/>
</g>
<!-- Node26 -->
<g id="node26" class="node">
<title>Node26</title>
<g id="a_node26"><a xlink:href="profile__interface_2checker_8hpp.html" target="_top" xlink:title=" ">
<polygon fill="white" stroke="black" points="1167.52,-123.5 1167.52,-153.5 1293.52,-153.5 1293.52,-123.5 1167.52,-123.5"/>
<text text-anchor="start" x="1175.52" y="-141.5" font-family="Helvetica,sans-Serif" font-size="10.00">../e2e/profile/profile</text>
<text text-anchor="middle" x="1230.52" y="-130.5" font-family="Helvetica,sans-Serif" font-size="10.00">_interface/checker.hpp</text>
</a>
</g>
</g>
<!-- Node25&#45;&gt;Node26 -->
<g id="edge40" class="edge">
<title>Node25&#45;&gt;Node26</title>
<path fill="none" stroke="midnightblue" d="M1390.51,-190.48C1359.38,-180.56 1317.46,-167.2 1284.34,-156.65"/>
<polygon fill="midnightblue" stroke="midnightblue" points="1285.4,-153.31 1274.81,-153.61 1283.28,-159.98 1285.4,-153.31"/>
</g>
<!-- Node32 -->
<g id="node32" class="node">
<title>Node32</title>
<g id="a_node32"><a xlink:href="profile__interface_2protector_8hpp.html" target="_top" xlink:title=" ">
<polygon fill="white" stroke="black" points="1312.02,-123.5 1312.02,-153.5 1445.02,-153.5 1445.02,-123.5 1312.02,-123.5"/>
<text text-anchor="start" x="1320.02" y="-141.5" font-family="Helvetica,sans-Serif" font-size="10.00">../e2e/profile/profile</text>
<text text-anchor="middle" x="1378.52" y="-130.5" font-family="Helvetica,sans-Serif" font-size="10.00">_interface/protector.hpp</text>
</a>
</g>
</g>
<!-- Node25&#45;&gt;Node32 -->
<g id="edge50" class="edge">
<title>Node25&#45;&gt;Node32</title>
<path fill="none" stroke="midnightblue" d="M1422.37,-190.4C1415.03,-181.88 1405.53,-170.85 1397.25,-161.23"/>
<polygon fill="midnightblue" stroke="midnightblue" points="1399.83,-158.87 1390.65,-153.58 1394.53,-163.44 1399.83,-158.87"/>
</g>
<!-- Node26&#45;&gt;Node4 -->
<g id="edge41" class="edge">
<title>Node26&#45;&gt;Node4</title>
<path fill="none" stroke="midnightblue" d="M1210.99,-123.4C1196.04,-112.6 1175.49,-97.76 1160.44,-86.89"/>
<polygon fill="midnightblue" stroke="midnightblue" points="1162.46,-84.02 1152.3,-81.01 1158.36,-89.7 1162.46,-84.02"/>
</g>
<!-- Node26&#45;&gt;Node13 -->
<g id="edge42" class="edge">
<title>Node26&#45;&gt;Node13</title>
<path fill="none" stroke="midnightblue" d="M1293.82,-124.85C1297.1,-124.22 1300.35,-123.6 1303.52,-123 1380.13,-108.51 1468.69,-92.76 1525.59,-82.77"/>
<polygon fill="midnightblue" stroke="midnightblue" points="1526.24,-86.21 1535.49,-81.03 1525.03,-79.31 1526.24,-86.21"/>
</g>
<!-- Node27 -->
<g id="node27" class="node">
<title>Node27</title>
<g id="a_node27"><a xlink:href="profile__interface_8hpp.html" target="_top" xlink:title=" ">
<polygon fill="white" stroke="black" points="1182.52,-56.5 1182.52,-86.5 1302.52,-86.5 1302.52,-56.5 1182.52,-56.5"/>
<text text-anchor="start" x="1190.52" y="-74.5" font-family="Helvetica,sans-Serif" font-size="10.00">../profile_interface</text>
<text text-anchor="middle" x="1242.52" y="-63.5" font-family="Helvetica,sans-Serif" font-size="10.00">/profile_interface.hpp</text>
</a>
</g>
</g>
<!-- Node26&#45;&gt;Node27 -->
<g id="edge43" class="edge">
<title>Node26&#45;&gt;Node27</title>
<path fill="none" stroke="midnightblue" d="M1233.13,-123.4C1234.57,-115.56 1236.41,-105.6 1238.08,-96.57"/>
<polygon fill="midnightblue" stroke="midnightblue" points="1241.55,-97.05 1239.92,-86.58 1234.67,-95.77 1241.55,-97.05"/>
</g>
<!-- Node29 -->
<g id="node29" class="node">
<title>Node29</title>
<g id="a_node29"><a xlink:href="e2e__protection_2include_2buffer_2buffer_8hpp.html" target="_top" xlink:title=" ">
<polygon fill="white" stroke="black" points="1320.52,-62 1320.52,-81 1444.52,-81 1444.52,-62 1320.52,-62"/>
<text text-anchor="middle" x="1382.52" y="-69" font-family="Helvetica,sans-Serif" font-size="10.00">../../../buffer/buffer.hpp</text>
</a>
</g>
</g>
<!-- Node26&#45;&gt;Node29 -->
<g id="edge45" class="edge">
<title>Node26&#45;&gt;Node29</title>
<path fill="none" stroke="midnightblue" d="M1263.5,-123.4C1290.29,-111.94 1327.71,-95.94 1353.4,-84.95"/>
<polygon fill="midnightblue" stroke="midnightblue" points="1354.81,-88.16 1362.63,-81.01 1352.06,-81.72 1354.81,-88.16"/>
</g>
<!-- Node28 -->
<g id="node28" class="node">
<title>Node28</title>
<g id="a_node28"><a xlink:title=" ">
<polygon fill="white" stroke="#bfbfbf" points="852.52,-0.5 852.52,-19.5 902.52,-19.5 902.52,-0.5 852.52,-0.5"/>
<text text-anchor="middle" x="877.52" y="-7.5" font-family="Helvetica,sans-Serif" font-size="10.00">cstdint</text>
</a>
</g>
</g>
<!-- Node27&#45;&gt;Node28 -->
<g id="edge44" class="edge">
<title>Node27&#45;&gt;Node28</title>
<path fill="none" stroke="midnightblue" d="M1182.35,-57.65C1179.37,-57.08 1176.41,-56.52 1173.52,-56 1079.58,-39 968.08,-23.23 912.57,-15.68"/>
<polygon fill="midnightblue" stroke="midnightblue" points="912.93,-12.19 902.55,-14.32 911.99,-19.13 912.93,-12.19"/>
</g>
<!-- Node29&#45;&gt;Node17 -->
<g id="edge49" class="edge">
<title>Node29&#45;&gt;Node17</title>
<path fill="none" stroke="midnightblue" d="M1424.37,-61.93C1435.74,-59.8 1448.08,-57.64 1459.52,-56 1615.02,-33.66 1802.21,-18.84 1877.61,-13.36"/>
<polygon fill="midnightblue" stroke="midnightblue" points="1878.18,-16.83 1887.91,-12.62 1877.68,-9.85 1878.18,-16.83"/>
</g>
<!-- Node29&#45;&gt;Node28 -->
<g id="edge47" class="edge">
<title>Node29&#45;&gt;Node28</title>
<path fill="none" stroke="midnightblue" d="M1344.33,-61.98C1333.74,-59.82 1322.22,-57.64 1311.52,-56 1164.16,-33.37 986.85,-18.94 912.75,-13.47"/>
<polygon fill="midnightblue" stroke="midnightblue" points="912.81,-9.97 902.59,-12.73 912.3,-16.95 912.81,-9.97"/>
</g>
<!-- Node30 -->
<g id="node30" class="node">
<title>Node30</title>
<g id="a_node30"><a xlink:title=" ">
<polygon fill="white" stroke="#bfbfbf" points="1350.02,-0.5 1350.02,-19.5 1415.02,-19.5 1415.02,-0.5 1350.02,-0.5"/>
<text text-anchor="middle" x="1382.52" y="-7.5" font-family="Helvetica,sans-Serif" font-size="10.00">stdexcept</text>
</a>
</g>
</g>
<!-- Node29&#45;&gt;Node30 -->
<g id="edge46" class="edge">
<title>Node29&#45;&gt;Node30</title>
<path fill="none" stroke="midnightblue" d="M1382.52,-61.98C1382.52,-53.58 1382.52,-40.48 1382.52,-29.66"/>
<polygon fill="midnightblue" stroke="midnightblue" points="1386.02,-29.51 1382.52,-19.51 1379.02,-29.51 1386.02,-29.51"/>
</g>
<!-- Node31 -->
<g id="node31" class="node">
<title>Node31</title>
<g id="a_node31"><a xlink:title=" ">
<polygon fill="white" stroke="#bfbfbf" points="1157.02,-0.5 1157.02,-19.5 1214.02,-19.5 1214.02,-0.5 1157.02,-0.5"/>
<text text-anchor="middle" x="1185.52" y="-7.5" font-family="Helvetica,sans-Serif" font-size="10.00">ostream</text>
</a>
</g>
</g>
<!-- Node29&#45;&gt;Node31 -->
<g id="edge48" class="edge">
<title>Node29&#45;&gt;Node31</title>
<path fill="none" stroke="midnightblue" d="M1354.3,-61.98C1319.92,-51.59 1261.71,-34.01 1223.45,-22.45"/>
<polygon fill="midnightblue" stroke="midnightblue" points="1224.28,-19.05 1213.7,-19.51 1222.26,-25.75 1224.28,-19.05"/>
</g>
<!-- Node32&#45;&gt;Node13 -->
<g id="edge51" class="edge">
<title>Node32&#45;&gt;Node13</title>
<path fill="none" stroke="midnightblue" d="M1422.97,-123.48C1460.22,-111.72 1512.76,-95.14 1547.7,-84.12"/>
<polygon fill="midnightblue" stroke="midnightblue" points="1549.01,-87.38 1557.49,-81.03 1546.9,-80.7 1549.01,-87.38"/>
</g>
<!-- Node32&#45;&gt;Node27 -->
<g id="edge53" class="edge">
<title>Node32&#45;&gt;Node27</title>
<path fill="none" stroke="midnightblue" d="M1349.01,-123.4C1329.14,-113.9 1302.73,-101.28 1281.19,-90.98"/>
<polygon fill="midnightblue" stroke="midnightblue" points="1282.51,-87.73 1271.98,-86.58 1279.49,-94.05 1282.51,-87.73"/>
</g>
<!-- Node32&#45;&gt;Node29 -->
<g id="edge52" class="edge">
<title>Node32&#45;&gt;Node29</title>
<path fill="none" stroke="midnightblue" d="M1379.39,-123.4C1379.97,-113.96 1380.74,-101.45 1381.37,-91.19"/>
<polygon fill="midnightblue" stroke="midnightblue" points="1384.87,-91.39 1381.99,-81.19 1377.88,-90.96 1384.87,-91.39"/>
</g>
<!-- Node33&#45;&gt;Node2 -->
<g id="edge57" class="edge">
<title>Node33&#45;&gt;Node2</title>
<path fill="none" stroke="midnightblue" d="M2018.29,-195.73C2028.62,-185.4 2045.99,-168.04 2058.69,-155.33"/>
<polygon fill="midnightblue" stroke="midnightblue" points="2061.3,-157.67 2065.9,-148.13 2056.35,-152.72 2061.3,-157.67"/>
</g>
<!-- Node33&#45;&gt;Node13 -->
<g id="edge60" class="edge">
<title>Node33&#45;&gt;Node13</title>
<path fill="none" stroke="midnightblue" d="M2033.17,-195.96C2068.76,-181.88 2129.21,-152.41 2102.52,-123 2074.37,-91.97 1815.08,-79.39 1674.37,-74.82"/>
<polygon fill="midnightblue" stroke="midnightblue" points="1674.14,-71.31 1664.04,-74.49 1673.92,-78.31 1674.14,-71.31"/>
</g>
<!-- Node33&#45;&gt;Node17 -->
<g id="edge59" class="edge">
<title>Node33&#45;&gt;Node17</title>
<path fill="none" stroke="midnightblue" d="M2031.25,-196C2061.82,-183.81 2114.4,-161.98 2119.52,-154 2126.96,-142.4 2126.59,-134.83 2119.52,-123 2081.51,-59.36 1993.5,-29.76 1945.03,-17.85"/>
<polygon fill="midnightblue" stroke="midnightblue" points="1945.57,-14.38 1935.03,-15.51 1943.97,-21.2 1945.57,-14.38"/>
</g>
<!-- Node33&#45;&gt;Node19 -->
<g id="edge58" class="edge">
<title>Node33&#45;&gt;Node19</title>
<path fill="none" stroke="midnightblue" d="M2030.67,-195.93C2036.12,-193.86 2042,-191.74 2047.52,-190 2105.99,-171.53 2175.7,-155.18 2215.47,-146.37"/>
<polygon fill="midnightblue" stroke="midnightblue" points="2216.37,-149.76 2225.39,-144.2 2214.87,-142.92 2216.37,-149.76"/>
</g>
<!-- Node34&#45;&gt;Node2 -->
<g id="edge62" class="edge">
<title>Node34&#45;&gt;Node2</title>
<path fill="none" stroke="midnightblue" d="M1877.97,-195.96C1885.7,-193.99 1893.9,-191.92 1901.52,-190 1965.92,-173.81 1984.39,-177.43 2046.52,-154 2047.73,-153.54 2048.96,-153.05 2050.19,-152.52"/>
<polygon fill="midnightblue" stroke="midnightblue" points="2051.88,-155.59 2059.42,-148.14 2048.88,-149.27 2051.88,-155.59"/>
</g>
<!-- Node35&#45;&gt;Node13 -->
<g id="edge66" class="edge">
<title>Node35&#45;&gt;Node13</title>
<path fill="none" stroke="midnightblue" d="M541.63,-128.9C548.86,-126.57 556.93,-124.33 564.52,-123 954.06,-54.96 1059.21,-116.77 1453.52,-87 1470.5,-85.72 1488.67,-83.96 1505.91,-82.1"/>
<polygon fill="midnightblue" stroke="midnightblue" points="1506.38,-85.57 1515.94,-81 1505.62,-78.61 1506.38,-85.57"/>
</g>
<!-- Node35&#45;&gt;Node28 -->
<g id="edge64" class="edge">
<title>Node35&#45;&gt;Node28</title>
<path fill="none" stroke="midnightblue" d="M516.93,-128.88C514.4,-112.19 511.59,-75.37 531.52,-56 575.09,-13.67 762.77,-10.05 842.01,-10.46"/>
<polygon fill="midnightblue" stroke="midnightblue" points="842.42,-13.96 852.44,-10.54 842.47,-6.97 842.42,-13.96"/>
</g>
<!-- Node36 -->
<g id="node36" class="node">
<title>Node36</title>
<g id="a_node36"><a xlink:title=" ">
<polygon fill="white" stroke="#bfbfbf" points="540.52,-62 540.52,-81 584.52,-81 584.52,-62 540.52,-62"/>
<text text-anchor="middle" x="562.52" y="-69" font-family="Helvetica,sans-Serif" font-size="10.00">limits</text>
</a>
</g>
</g>
<!-- Node35&#45;&gt;Node36 -->
<g id="edge65" class="edge">
<title>Node35&#45;&gt;Node36</title>
<path fill="none" stroke="midnightblue" d="M524.46,-128.73C531.25,-118.7 542.54,-102.01 551.07,-89.42"/>
<polygon fill="midnightblue" stroke="midnightblue" points="553.98,-91.37 556.68,-81.13 548.18,-87.45 553.98,-91.37"/>
</g>
<!-- Node37 -->
<g id="node37" class="node">
<title>Node37</title>
<g id="a_node37"><a xlink:title=" ">
<polygon fill="white" stroke="#bfbfbf" points="603.02,-62 603.02,-81 666.02,-81 666.02,-62 603.02,-62"/>
<text text-anchor="middle" x="634.52" y="-69" font-family="Helvetica,sans-Serif" font-size="10.00">pthread.h</text>
</a>
</g>
</g>
<!-- Node35&#45;&gt;Node37 -->
<g id="edge67" class="edge">
<title>Node35&#45;&gt;Node37</title>
<path fill="none" stroke="midnightblue" d="M534.17,-128.73C553.73,-117.77 587.44,-98.88 610.34,-86.05"/>
<polygon fill="midnightblue" stroke="midnightblue" points="612.11,-89.07 619.13,-81.13 608.69,-82.96 612.11,-89.07"/>
</g>
<!-- Node38&#45;&gt;Node2 -->
<g id="edge70" class="edge">
<title>Node38&#45;&gt;Node2</title>
<path fill="none" stroke="midnightblue" d="M1745.8,-196.66C1845.47,-182.76 2042.96,-155.14 2046.52,-154 2047.96,-153.54 2049.41,-153.01 2050.85,-152.44"/>
<polygon fill="midnightblue" stroke="midnightblue" points="2052.51,-155.53 2060.1,-148.14 2049.56,-149.18 2052.51,-155.53"/>
</g>
<!-- Node38&#45;&gt;Node4 -->
<g id="edge71" class="edge">
<title>Node38&#45;&gt;Node4</title>
<path fill="none" stroke="midnightblue" d="M1633.24,-199.58C1497.51,-187.66 1162.95,-157.91 1158.52,-154 1141,-138.51 1138.42,-110.15 1138.9,-91.31"/>
<polygon fill="midnightblue" stroke="midnightblue" points="1142.4,-91.43 1139.47,-81.25 1135.41,-91.03 1142.4,-91.43"/>
</g>
<!-- Node38&#45;&gt;Node13 -->
<g id="edge77" class="edge">
<title>Node38&#45;&gt;Node13</title>
<path fill="none" stroke="midnightblue" d="M1745.74,-190.8C1790.85,-179.24 1847.75,-163.15 1854.52,-154 1862.72,-142.92 1863.32,-133.6 1854.52,-123 1831.77,-95.59 1743.61,-82.98 1674.14,-77.22"/>
<polygon fill="midnightblue" stroke="midnightblue" points="1674.28,-73.72 1664.04,-76.42 1673.73,-80.7 1674.28,-73.72"/>
</g>
<!-- Node38&#45;&gt;Node16 -->
<g id="edge76" class="edge">
<title>Node38&#45;&gt;Node16</title>
<path fill="none" stroke="midnightblue" d="M1633.27,-199.49C1598.74,-196.51 1553.59,-192.78 1513.52,-190 1228.87,-170.28 1155.64,-189.52 872.52,-154 864.12,-152.95 855.24,-151.5 846.66,-149.92"/>
<polygon fill="midnightblue" stroke="midnightblue" points="847.25,-146.47 836.77,-148.03 845.93,-153.35 847.25,-146.47"/>
</g>
<!-- Node38&#45;&gt;Node17 -->
<g id="edge73" class="edge">
<title>Node38&#45;&gt;Node17</title>
<path fill="none" stroke="midnightblue" d="M1745.15,-190.48C1796.95,-177.2 1866.88,-158.63 1871.52,-154 1905.34,-120.25 1911.16,-60.43 1911.79,-29.96"/>
<polygon fill="midnightblue" stroke="midnightblue" points="1915.29,-29.85 1911.83,-19.84 1908.29,-29.83 1915.29,-29.85"/>
</g>
<!-- Node38&#45;&gt;Node20 -->
<g id="edge75" class="edge">
<title>Node38&#45;&gt;Node20</title>
<path fill="none" stroke="midnightblue" d="M1745.84,-192.7C1793.69,-182.62 1864.17,-167.62 1925.52,-154 1926.79,-153.72 1928.06,-153.43 1929.35,-153.15"/>
<polygon fill="midnightblue" stroke="midnightblue" points="1930.37,-156.5 1939.36,-150.89 1928.83,-149.68 1930.37,-156.5"/>
</g>
<!-- Node39 -->
<g id="node39" class="node">
<title>Node39</title>
<g id="a_node39"><a xlink:title=" ">
<polygon fill="white" stroke="#bfbfbf" points="1795.52,-129 1795.52,-148 1845.52,-148 1845.52,-129 1795.52,-129"/>
<text text-anchor="middle" x="1820.52" y="-136" font-family="Helvetica,sans-Serif" font-size="10.00">cstring</text>
</a>
</g>
</g>
<!-- Node38&#45;&gt;Node39 -->
<g id="edge69" class="edge">
<title>Node38&#45;&gt;Node39</title>
<path fill="none" stroke="midnightblue" d="M1717.95,-190.4C1740.63,-179.14 1772.15,-163.5 1794.25,-152.54"/>
<polygon fill="midnightblue" stroke="midnightblue" points="1795.98,-155.59 1803.38,-148.01 1792.86,-149.32 1795.98,-155.59"/>
</g>
<!-- Node40 -->
<g id="node40" class="node">
<title>Node40</title>
<g id="a_node40"><a xlink:title=" ">
<polygon fill="white" stroke="#bfbfbf" points="1616.02,-129 1616.02,-148 1661.02,-148 1661.02,-129 1616.02,-129"/>
<text text-anchor="middle" x="1638.52" y="-136" font-family="Helvetica,sans-Serif" font-size="10.00">utility</text>
</a>
</g>
</g>
<!-- Node38&#45;&gt;Node40 -->
<g id="edge72" class="edge">
<title>Node38&#45;&gt;Node40</title>
<path fill="none" stroke="midnightblue" d="M1678.46,-190.4C1670.58,-180.36 1659.97,-166.84 1651.67,-156.25"/>
<polygon fill="midnightblue" stroke="midnightblue" points="1654.27,-153.9 1645.35,-148.19 1648.76,-158.22 1654.27,-153.9"/>
</g>
<!-- Node41 -->
<g id="node41" class="node">
<title>Node41</title>
<g id="a_node41"><a xlink:title=" ">
<polygon fill="white" stroke="#bfbfbf" points="1679.52,-123.5 1679.52,-153.5 1777.52,-153.5 1777.52,-123.5 1679.52,-123.5"/>
<text text-anchor="start" x="1687.52" y="-141.5" font-family="Helvetica,sans-Serif" font-size="10.00">boost/icl/interval</text>
<text text-anchor="middle" x="1728.52" y="-130.5" font-family="Helvetica,sans-Serif" font-size="10.00">_map.hpp</text>
</a>
</g>
</g>
<!-- Node38&#45;&gt;Node41 -->
<g id="edge74" class="edge">
<title>Node38&#45;&gt;Node41</title>
<path fill="none" stroke="midnightblue" d="M1697.99,-190.4C1702.89,-182.22 1709.19,-171.73 1714.79,-162.39"/>
<polygon fill="midnightblue" stroke="midnightblue" points="1717.93,-163.95 1720.08,-153.58 1711.93,-160.35 1717.93,-163.95"/>
</g>
<!-- Node42 -->
<g id="node42" class="node">
<title>Node42</title>
<g id="a_node42"><a xlink:href="logger_8hpp.html" target="_top" xlink:title=" ">
<polygon fill="white" stroke="black" points="882.02,-129 882.02,-148 1035.02,-148 1035.02,-129 882.02,-129"/>
<text text-anchor="middle" x="958.52" y="-136" font-family="Helvetica,sans-Serif" font-size="10.00">vsomeip/internal/logger.hpp</text>
</a>
</g>
</g>
<!-- Node38&#45;&gt;Node42 -->
<g id="edge78" class="edge">
<title>Node38&#45;&gt;Node42</title>
<path fill="none" stroke="midnightblue" d="M1633.38,-199.51C1506.57,-188.23 1197.3,-160.73 1045.49,-147.23"/>
<polygon fill="midnightblue" stroke="midnightblue" points="1045.55,-143.72 1035.27,-146.32 1044.93,-150.7 1045.55,-143.72"/>
</g>
<!-- Node42&#45;&gt;Node4 -->
<g id="edge81" class="edge">
<title>Node42&#45;&gt;Node4</title>
<path fill="none" stroke="midnightblue" d="M985.97,-128.99C1016.06,-119.48 1065.64,-103.26 1107.52,-87 1109.13,-86.38 1110.77,-85.72 1112.42,-85.05"/>
<polygon fill="midnightblue" stroke="midnightblue" points="1113.96,-88.19 1121.79,-81.07 1111.22,-81.75 1113.96,-88.19"/>
</g>
<!-- Node42&#45;&gt;Node10 -->
<g id="edge79" class="edge">
<title>Node42&#45;&gt;Node10</title>
<path fill="none" stroke="midnightblue" d="M911.29,-129C898.72,-126.88 885.12,-124.73 872.52,-123 721.53,-102.32 682.36,-108.77 531.52,-87 517.12,-84.92 501.32,-82.13 487.67,-79.54"/>
<polygon fill="midnightblue" stroke="midnightblue" points="488.18,-76.08 477.7,-77.63 486.86,-82.95 488.18,-76.08"/>
</g>
<!-- Node42&#45;&gt;Node21 -->
<g id="edge85" class="edge">
<title>Node42&#45;&gt;Node21</title>
<path fill="none" stroke="midnightblue" d="M969.72,-128.73C983.16,-118.21 1005.92,-100.38 1022.22,-87.62"/>
<polygon fill="midnightblue" stroke="midnightblue" points="1024.79,-90.05 1030.51,-81.13 1020.48,-84.54 1024.79,-90.05"/>
</g>
<!-- Node42&#45;&gt;Node28 -->
<g id="edge80" class="edge">
<title>Node42&#45;&gt;Node28</title>
<path fill="none" stroke="midnightblue" d="M903.08,-128.99C857.16,-120.67 797.16,-106.42 782.52,-87 774.23,-76 775.16,-67.64 782.52,-56 795.67,-35.23 821.27,-23.86 842.59,-17.75"/>
<polygon fill="midnightblue" stroke="midnightblue" points="843.53,-21.12 852.33,-15.22 841.77,-14.34 843.53,-21.12"/>
</g>
<!-- Node42&#45;&gt;Node31 -->
<g id="edge82" class="edge">
<title>Node42&#45;&gt;Node31</title>
<path fill="none" stroke="midnightblue" d="M912.38,-128.92C859.13,-117.08 782.84,-92.9 815.52,-56 837.24,-31.48 1056.08,-17.6 1146.62,-12.86"/>
<polygon fill="midnightblue" stroke="midnightblue" points="1146.95,-16.35 1156.75,-12.34 1146.59,-9.36 1146.95,-16.35"/>
</g>
<!-- Node43 -->
<g id="node43" class="node">
<title>Node43</title>
<g id="a_node43"><a xlink:title=" ">
<polygon fill="white" stroke="#bfbfbf" points="824.52,-62 824.52,-81 880.52,-81 880.52,-62 824.52,-62"/>
<text text-anchor="middle" x="852.52" y="-69" font-family="Helvetica,sans-Serif" font-size="10.00">sstream</text>
</a>
</g>
</g>
<!-- Node42&#45;&gt;Node43 -->
<g id="edge83" class="edge">
<title>Node42&#45;&gt;Node43</title>
<path fill="none" stroke="midnightblue" d="M944.23,-128.73C926.51,-117.87 896.09,-99.22 875.18,-86.39"/>
<polygon fill="midnightblue" stroke="midnightblue" points="876.95,-83.37 866.59,-81.13 873.29,-89.34 876.95,-83.37"/>
</g>
<!-- Node44 -->
<g id="node44" class="node">
<title>Node44</title>
<g id="a_node44"><a xlink:title=" ">
<polygon fill="white" stroke="#bfbfbf" points="899.02,-62 899.02,-81 966.02,-81 966.02,-62 899.02,-62"/>
<text text-anchor="middle" x="932.52" y="-69" font-family="Helvetica,sans-Serif" font-size="10.00">streambuf</text>
</a>
</g>
</g>
<!-- Node42&#45;&gt;Node44 -->
<g id="edge84" class="edge">
<title>Node42&#45;&gt;Node44</title>
<path fill="none" stroke="midnightblue" d="M955.02,-128.73C951.12,-118.99 944.72,-102.98 939.74,-90.53"/>
<polygon fill="midnightblue" stroke="midnightblue" points="942.94,-89.11 935.97,-81.13 936.44,-91.71 942.94,-89.11"/>
</g>
</g>
</svg>
