<?xml version="1.0" encoding="UTF-8" standalone="no"?>
<!DOCTYPE svg PUBLIC "-//W3C//DTD SVG 1.1//EN"
 "http://www.w3.org/Graphics/SVG/1.1/DTD/svg11.dtd">
<!-- Generated by graphviz version 2.43.0 (0)
 -->
<!-- Title: /home/kali/projects/vsomeip/implementation/endpoints/include/endpoint_manager_base.hpp Pages: 1 -->
<svg width="951pt" height="240pt"
 viewBox="0.00 0.00 951.00 240.00" xmlns="http://www.w3.org/2000/svg" xmlns:xlink="http://www.w3.org/1999/xlink">
<g id="graph0" class="graph" transform="scale(1 1) rotate(0) translate(4 236)">
<title>/home/kali/projects/vsomeip/implementation/endpoints/include/endpoint_manager_base.hpp</title>
<polygon fill="white" stroke="transparent" points="-4,4 -4,-236 947,-236 947,4 -4,4"/>
<!-- Node1 -->
<g id="node1" class="node">
<title>Node1</title>
<g id="a_node1"><a xlink:title=" ">
<polygon fill="#bfbfbf" stroke="black" points="210,-179.5 210,-231.5 362,-231.5 362,-179.5 210,-179.5"/>
<text text-anchor="start" x="218" y="-219.5" font-family="Helvetica,sans-Serif" font-size="10.00">/home/kali/projects</text>
<text text-anchor="start" x="218" y="-208.5" font-family="Helvetica,sans-Serif" font-size="10.00">/vsomeip/implementation</text>
<text text-anchor="start" x="218" y="-197.5" font-family="Helvetica,sans-Serif" font-size="10.00">/endpoints/include/endpoint</text>
<text text-anchor="middle" x="286" y="-186.5" font-family="Helvetica,sans-Serif" font-size="10.00">_manager_base.hpp</text>
</a>
</g>
</g>
<!-- Node2 -->
<g id="node2" class="node">
<title>Node2</title>
<g id="a_node2"><a xlink:title=" ">
<polygon fill="white" stroke="#bfbfbf" points="0,-123.5 0,-142.5 48,-142.5 48,-123.5 0,-123.5"/>
<text text-anchor="middle" x="24" y="-130.5" font-family="Helvetica,sans-Serif" font-size="10.00">mutex</text>
</a>
</g>
</g>
<!-- Node1&#45;&gt;Node2 -->
<g id="edge1" class="edge">
<title>Node1&#45;&gt;Node2</title>
<path fill="none" stroke="midnightblue" d="M209.91,-184.14C167.77,-172.85 114.2,-158.47 57.94,-143.25"/>
<polygon fill="midnightblue" stroke="midnightblue" points="58.71,-139.83 48.15,-140.6 56.89,-146.59 58.71,-139.83"/>
</g>
<!-- Node3 -->
<g id="node3" class="node">
<title>Node3</title>
<g id="a_node3"><a xlink:title=" ">
<polygon fill="white" stroke="#bfbfbf" points="66,-123.5 66,-142.5 104,-142.5 104,-123.5 66,-123.5"/>
<text text-anchor="middle" x="85" y="-130.5" font-family="Helvetica,sans-Serif" font-size="10.00">map</text>
</a>
</g>
</g>
<!-- Node1&#45;&gt;Node3 -->
<g id="edge2" class="edge">
<title>Node1&#45;&gt;Node3</title>
<path fill="none" stroke="midnightblue" d="M214.57,-179.45C179.9,-167.29 140.19,-153.36 113.96,-144.16"/>
<polygon fill="midnightblue" stroke="midnightblue" points="114.87,-140.77 104.28,-140.76 112.56,-147.37 114.87,-140.77"/>
</g>
<!-- Node4 -->
<g id="node4" class="node">
<title>Node4</title>
<g id="a_node4"><a xlink:title=" ">
<polygon fill="white" stroke="#bfbfbf" points="122,-123.5 122,-142.5 154,-142.5 154,-123.5 122,-123.5"/>
<text text-anchor="middle" x="138" y="-130.5" font-family="Helvetica,sans-Serif" font-size="10.00">set</text>
</a>
</g>
</g>
<!-- Node1&#45;&gt;Node4 -->
<g id="edge3" class="edge">
<title>Node1&#45;&gt;Node4</title>
<path fill="none" stroke="midnightblue" d="M233.4,-179.45C209.63,-168.12 182.63,-155.26 163.44,-146.12"/>
<polygon fill="midnightblue" stroke="midnightblue" points="164.71,-142.84 154.17,-141.7 161.7,-149.16 164.71,-142.84"/>
</g>
<!-- Node5 -->
<g id="node5" class="node">
<title>Node5</title>
<g id="a_node5"><a xlink:title=" ">
<polygon fill="white" stroke="#bfbfbf" points="172,-123.5 172,-142.5 258,-142.5 258,-123.5 172,-123.5"/>
<text text-anchor="middle" x="215" y="-130.5" font-family="Helvetica,sans-Serif" font-size="10.00">unordered_set</text>
</a>
</g>
</g>
<!-- Node1&#45;&gt;Node5 -->
<g id="edge4" class="edge">
<title>Node1&#45;&gt;Node5</title>
<path fill="none" stroke="midnightblue" d="M260.77,-179.45C250.88,-169.63 239.83,-158.66 231.07,-149.95"/>
<polygon fill="midnightblue" stroke="midnightblue" points="233.32,-147.26 223.76,-142.7 228.39,-152.23 233.32,-147.26"/>
</g>
<!-- Node6 -->
<g id="node6" class="node">
<title>Node6</title>
<g id="a_node6"><a xlink:title=" ">
<polygon fill="white" stroke="#bfbfbf" points="105,-62 105,-81 163,-81 163,-62 105,-62"/>
<text text-anchor="middle" x="134" y="-69" font-family="Helvetica,sans-Serif" font-size="10.00">memory</text>
</a>
</g>
</g>
<!-- Node1&#45;&gt;Node6 -->
<g id="edge5" class="edge">
<title>Node1&#45;&gt;Node6</title>
<path fill="none" stroke="midnightblue" d="M286.11,-179.27C284.88,-161.58 280.49,-138.42 267,-123 237.27,-89.02 214.2,-103.05 172,-87 170.12,-86.28 168.19,-85.55 166.24,-84.81"/>
<polygon fill="midnightblue" stroke="midnightblue" points="167.09,-81.39 156.5,-81.1 164.6,-87.93 167.09,-81.39"/>
</g>
<!-- Node7 -->
<g id="node7" class="node">
<title>Node7</title>
<g id="a_node7"><a xlink:title=" ">
<polygon fill="white" stroke="#bfbfbf" points="803,-123.5 803,-142.5 943,-142.5 943,-123.5 803,-123.5"/>
<text text-anchor="middle" x="873" y="-130.5" font-family="Helvetica,sans-Serif" font-size="10.00">boost/asio/io_service.hpp</text>
</a>
</g>
</g>
<!-- Node1&#45;&gt;Node7 -->
<g id="edge6" class="edge">
<title>Node1&#45;&gt;Node7</title>
<path fill="none" stroke="midnightblue" d="M362.14,-195.36C473.4,-181.99 679.48,-157.24 792.93,-143.62"/>
<polygon fill="midnightblue" stroke="midnightblue" points="793.44,-147.08 802.95,-142.41 792.6,-140.13 793.44,-147.08"/>
</g>
<!-- Node8 -->
<g id="node8" class="node">
<title>Node8</title>
<g id="a_node8"><a xlink:title=" ">
<polygon fill="white" stroke="#bfbfbf" points="399.5,-0.5 399.5,-19.5 558.5,-19.5 558.5,-0.5 399.5,-0.5"/>
<text text-anchor="middle" x="479" y="-7.5" font-family="Helvetica,sans-Serif" font-size="10.00">vsomeip/primitive_types.hpp</text>
</a>
</g>
</g>
<!-- Node1&#45;&gt;Node8 -->
<g id="edge7" class="edge">
<title>Node1&#45;&gt;Node8</title>
<path fill="none" stroke="midnightblue" d="M362.25,-196.99C483.03,-183.31 709.5,-149.76 756,-87 764.2,-75.93 764.93,-66.49 756,-56 732.23,-28.06 640.57,-17.42 569.12,-13.39"/>
<polygon fill="midnightblue" stroke="midnightblue" points="568.91,-9.88 558.74,-12.85 568.54,-16.87 568.91,-9.88"/>
</g>
<!-- Node9 -->
<g id="node9" class="node">
<title>Node9</title>
<g id="a_node9"><a xlink:href="endpoint_8hpp.html" target="_top" xlink:title=" ">
<polygon fill="white" stroke="black" points="483,-123.5 483,-142.5 563,-142.5 563,-123.5 483,-123.5"/>
<text text-anchor="middle" x="523" y="-130.5" font-family="Helvetica,sans-Serif" font-size="10.00">endpoint.hpp</text>
</a>
</g>
</g>
<!-- Node1&#45;&gt;Node9 -->
<g id="edge8" class="edge">
<title>Node1&#45;&gt;Node9</title>
<path fill="none" stroke="midnightblue" d="M362.29,-181.81C403.13,-169.66 451.66,-155.22 484.62,-145.42"/>
<polygon fill="midnightblue" stroke="midnightblue" points="485.74,-148.73 494.33,-142.53 483.75,-142.03 485.74,-148.73"/>
</g>
<!-- Node13 -->
<g id="node13" class="node">
<title>Node13</title>
<g id="a_node13"><a xlink:href="endpoint__host_8hpp.html" target="_top" xlink:title=" ">
<polygon fill="white" stroke="black" points="314.5,-123.5 314.5,-142.5 421.5,-142.5 421.5,-123.5 314.5,-123.5"/>
<text text-anchor="middle" x="368" y="-130.5" font-family="Helvetica,sans-Serif" font-size="10.00">endpoint_host.hpp</text>
</a>
</g>
</g>
<!-- Node1&#45;&gt;Node13 -->
<g id="edge13" class="edge">
<title>Node1&#45;&gt;Node13</title>
<path fill="none" stroke="midnightblue" d="M315.14,-179.45C326.79,-169.43 339.84,-158.21 350.06,-149.42"/>
<polygon fill="midnightblue" stroke="midnightblue" points="352.59,-151.87 357.89,-142.7 348.02,-146.56 352.59,-151.87"/>
</g>
<!-- Node9&#45;&gt;Node8 -->
<g id="edge10" class="edge">
<title>Node9&#45;&gt;Node8</title>
<path fill="none" stroke="midnightblue" d="M521.6,-123.34C519.11,-108.99 513.29,-79.53 504,-56 500.23,-46.44 494.8,-36.39 489.96,-28.22"/>
<polygon fill="midnightblue" stroke="midnightblue" points="492.91,-26.32 484.69,-19.63 486.94,-29.98 492.91,-26.32"/>
</g>
<!-- Node10 -->
<g id="node10" class="node">
<title>Node10</title>
<g id="a_node10"><a xlink:title=" ">
<polygon fill="white" stroke="#bfbfbf" points="353.5,-62 353.5,-81 494.5,-81 494.5,-62 353.5,-62"/>
<text text-anchor="middle" x="424" y="-69" font-family="Helvetica,sans-Serif" font-size="10.00">boost/asio/ip/address.hpp</text>
</a>
</g>
</g>
<!-- Node9&#45;&gt;Node10 -->
<g id="edge9" class="edge">
<title>Node9&#45;&gt;Node10</title>
<path fill="none" stroke="midnightblue" d="M508.82,-123.48C492.64,-113.75 465.97,-97.73 446.86,-86.24"/>
<polygon fill="midnightblue" stroke="midnightblue" points="448.53,-83.16 438.16,-81.01 444.93,-89.16 448.53,-83.16"/>
</g>
<!-- Node11 -->
<g id="node11" class="node">
<title>Node11</title>
<g id="a_node11"><a xlink:title=" ">
<polygon fill="white" stroke="#bfbfbf" points="551,-62 551,-81 681,-81 681,-62 551,-62"/>
<text text-anchor="middle" x="616" y="-69" font-family="Helvetica,sans-Serif" font-size="10.00">vsomeip/constants.hpp</text>
</a>
</g>
</g>
<!-- Node9&#45;&gt;Node11 -->
<g id="edge11" class="edge">
<title>Node9&#45;&gt;Node11</title>
<path fill="none" stroke="midnightblue" d="M536.32,-123.48C551.38,-113.84 576.12,-98.02 594.04,-86.55"/>
<polygon fill="midnightblue" stroke="midnightblue" points="596.16,-89.35 602.7,-81.01 592.39,-83.45 596.16,-89.35"/>
</g>
<!-- Node12 -->
<g id="node12" class="node">
<title>Node12</title>
<g id="a_node12"><a xlink:title=" ">
<polygon fill="white" stroke="#bfbfbf" points="699.5,-62 699.5,-81 746.5,-81 746.5,-62 699.5,-62"/>
<text text-anchor="middle" x="723" y="-69" font-family="Helvetica,sans-Serif" font-size="10.00">vector</text>
</a>
</g>
</g>
<!-- Node9&#45;&gt;Node12 -->
<g id="edge12" class="edge">
<title>Node9&#45;&gt;Node12</title>
<path fill="none" stroke="midnightblue" d="M560.97,-123.5C595.14,-115.44 646.53,-102.31 690,-87 691.66,-86.41 693.36,-85.78 695.06,-85.12"/>
<polygon fill="midnightblue" stroke="midnightblue" points="696.8,-88.19 704.7,-81.13 694.12,-81.72 696.8,-88.19"/>
</g>
<!-- Node13&#45;&gt;Node6 -->
<g id="edge14" class="edge">
<title>Node13&#45;&gt;Node6</title>
<path fill="none" stroke="midnightblue" d="M322.77,-123.47C282.74,-115.49 222.94,-102.48 172,-87 169.43,-86.22 166.78,-85.35 164.14,-84.43"/>
<polygon fill="midnightblue" stroke="midnightblue" points="165.32,-81.14 154.73,-81 162.92,-87.72 165.32,-81.14"/>
</g>
<!-- Node13&#45;&gt;Node8 -->
<g id="edge16" class="edge">
<title>Node13&#45;&gt;Node8</title>
<path fill="none" stroke="midnightblue" d="M360.79,-123.22C349.37,-108.17 329.87,-77.04 345,-56 356.64,-39.81 374.4,-29.36 393.21,-22.64"/>
<polygon fill="midnightblue" stroke="midnightblue" points="394.37,-25.95 402.81,-19.55 392.22,-19.29 394.37,-25.95"/>
</g>
<!-- Node13&#45;&gt;Node10 -->
<g id="edge15" class="edge">
<title>Node13&#45;&gt;Node10</title>
<path fill="none" stroke="midnightblue" d="M376.02,-123.48C384.59,-114.37 398.36,-99.74 408.96,-88.48"/>
<polygon fill="midnightblue" stroke="midnightblue" points="411.69,-90.69 415.99,-81.01 406.59,-85.89 411.69,-90.69"/>
</g>
<!-- Node14 -->
<g id="node14" class="node">
<title>Node14</title>
<g id="a_node14"><a xlink:href="internal_8hpp.html" target="_top" xlink:title=" ">
<polygon fill="white" stroke="black" points="181,-56.5 181,-86.5 297,-86.5 297,-56.5 181,-56.5"/>
<text text-anchor="start" x="189" y="-74.5" font-family="Helvetica,sans-Serif" font-size="10.00">../../configuration</text>
<text text-anchor="middle" x="239" y="-63.5" font-family="Helvetica,sans-Serif" font-size="10.00">/include/internal.hpp</text>
</a>
</g>
</g>
<!-- Node13&#45;&gt;Node14 -->
<g id="edge17" class="edge">
<title>Node13&#45;&gt;Node14</title>
<path fill="none" stroke="midnightblue" d="M349.52,-123.48C331.07,-114.96 302.13,-101.62 278.5,-90.72"/>
<polygon fill="midnightblue" stroke="midnightblue" points="279.95,-87.53 269.4,-86.52 277.02,-93.89 279.95,-87.53"/>
</g>
<!-- Node14&#45;&gt;Node8 -->
<g id="edge20" class="edge">
<title>Node14&#45;&gt;Node8</title>
<path fill="none" stroke="midnightblue" d="M295.57,-56.47C338.15,-45.92 395.68,-31.66 434.89,-21.94"/>
<polygon fill="midnightblue" stroke="midnightblue" points="435.82,-25.31 444.69,-19.51 434.14,-18.52 435.82,-25.31"/>
</g>
<!-- Node15 -->
<g id="node15" class="node">
<title>Node15</title>
<g id="a_node15"><a xlink:title=" ">
<polygon fill="white" stroke="#bfbfbf" points="289,-0.5 289,-19.5 339,-19.5 339,-0.5 289,-0.5"/>
<text text-anchor="middle" x="314" y="-7.5" font-family="Helvetica,sans-Serif" font-size="10.00">cstdint</text>
</a>
</g>
</g>
<!-- Node14&#45;&gt;Node15 -->
<g id="edge18" class="edge">
<title>Node14&#45;&gt;Node15</title>
<path fill="none" stroke="midnightblue" d="M256.77,-56.4C268.35,-47.22 283.42,-35.26 295.2,-25.92"/>
<polygon fill="midnightblue" stroke="midnightblue" points="297.43,-28.61 303.09,-19.66 293.08,-23.13 297.43,-28.61"/>
</g>
<!-- Node16 -->
<g id="node16" class="node">
<title>Node16</title>
<g id="a_node16"><a xlink:title=" ">
<polygon fill="white" stroke="#bfbfbf" points="145,-0.5 145,-19.5 189,-19.5 189,-0.5 145,-0.5"/>
<text text-anchor="middle" x="167" y="-7.5" font-family="Helvetica,sans-Serif" font-size="10.00">limits</text>
</a>
</g>
</g>
<!-- Node14&#45;&gt;Node16 -->
<g id="edge19" class="edge">
<title>Node14&#45;&gt;Node16</title>
<path fill="none" stroke="midnightblue" d="M221.94,-56.4C210.94,-47.31 196.63,-35.49 185.38,-26.19"/>
<polygon fill="midnightblue" stroke="midnightblue" points="187.41,-23.33 177.48,-19.66 182.96,-28.73 187.41,-23.33"/>
</g>
<!-- Node17 -->
<g id="node17" class="node">
<title>Node17</title>
<g id="a_node17"><a xlink:title=" ">
<polygon fill="white" stroke="#bfbfbf" points="207.5,-0.5 207.5,-19.5 270.5,-19.5 270.5,-0.5 207.5,-0.5"/>
<text text-anchor="middle" x="239" y="-7.5" font-family="Helvetica,sans-Serif" font-size="10.00">pthread.h</text>
</a>
</g>
</g>
<!-- Node14&#45;&gt;Node17 -->
<g id="edge21" class="edge">
<title>Node14&#45;&gt;Node17</title>
<path fill="none" stroke="midnightblue" d="M239,-56.4C239,-48.47 239,-38.46 239,-29.86"/>
<polygon fill="midnightblue" stroke="midnightblue" points="242.5,-29.66 239,-19.66 235.5,-29.66 242.5,-29.66"/>
</g>
</g>
</svg>
