<?xml version="1.0" encoding="UTF-8" standalone="no"?>
<!DOCTYPE svg PUBLIC "-//W3C//DTD SVG 1.1//EN"
 "http://www.w3.org/Graphics/SVG/1.1/DTD/svg11.dtd">
<!-- Generated by graphviz version 2.43.0 (0)
 -->
<!-- Title: /home/kali/projects/vsomeip/implementation/endpoints/src/endpoint_definition.cpp Pages: 1 -->
<svg width="725pt" height="184pt"
 viewBox="0.00 0.00 725.00 184.00" xmlns="http://www.w3.org/2000/svg" xmlns:xlink="http://www.w3.org/1999/xlink">
<g id="graph0" class="graph" transform="scale(1 1) rotate(0) translate(4 180)">
<title>/home/kali/projects/vsomeip/implementation/endpoints/src/endpoint_definition.cpp</title>
<polygon fill="white" stroke="transparent" points="-4,4 -4,-180 721,-180 721,4 -4,4"/>
<!-- Node1 -->
<g id="node1" class="node">
<title>Node1</title>
<g id="a_node1"><a xlink:title=" ">
<polygon fill="#bfbfbf" stroke="black" points="83.5,-123.5 83.5,-175.5 226.5,-175.5 226.5,-123.5 83.5,-123.5"/>
<text text-anchor="start" x="91.5" y="-163.5" font-family="Helvetica,sans-Serif" font-size="10.00">/home/kali/projects</text>
<text text-anchor="start" x="91.5" y="-152.5" font-family="Helvetica,sans-Serif" font-size="10.00">/vsomeip/implementation</text>
<text text-anchor="start" x="91.5" y="-141.5" font-family="Helvetica,sans-Serif" font-size="10.00">/endpoints/src/endpoint</text>
<text text-anchor="middle" x="155" y="-130.5" font-family="Helvetica,sans-Serif" font-size="10.00">_definition.cpp</text>
</a>
</g>
</g>
<!-- Node2 -->
<g id="node2" class="node">
<title>Node2</title>
<g id="a_node2"><a xlink:title=" ">
<polygon fill="white" stroke="#bfbfbf" points="22,-62 22,-81 152,-81 152,-62 22,-62"/>
<text text-anchor="middle" x="87" y="-69" font-family="Helvetica,sans-Serif" font-size="10.00">vsomeip/constants.hpp</text>
</a>
</g>
</g>
<!-- Node1&#45;&gt;Node2 -->
<g id="edge1" class="edge">
<title>Node1&#45;&gt;Node2</title>
<path fill="none" stroke="midnightblue" d="M132.36,-123.19C122.22,-111.86 110.55,-98.82 101.59,-88.81"/>
<polygon fill="midnightblue" stroke="midnightblue" points="104.07,-86.33 94.79,-81.21 98.85,-91 104.07,-86.33"/>
</g>
<!-- Node3 -->
<g id="node3" class="node">
<title>Node3</title>
<g id="a_node3"><a xlink:href="endpoint__definition_8hpp.html" target="_top" xlink:title=" ">
<polygon fill="white" stroke="black" points="170.5,-56.5 170.5,-86.5 277.5,-86.5 277.5,-56.5 170.5,-56.5"/>
<text text-anchor="start" x="178.5" y="-74.5" font-family="Helvetica,sans-Serif" font-size="10.00">../include/endpoint</text>
<text text-anchor="middle" x="224" y="-63.5" font-family="Helvetica,sans-Serif" font-size="10.00">_definition.hpp</text>
</a>
</g>
</g>
<!-- Node1&#45;&gt;Node3 -->
<g id="edge2" class="edge">
<title>Node1&#45;&gt;Node3</title>
<path fill="none" stroke="midnightblue" d="M177.98,-123.19C186.47,-113.84 196.01,-103.33 204.19,-94.32"/>
<polygon fill="midnightblue" stroke="midnightblue" points="206.85,-96.6 210.98,-86.85 201.66,-91.9 206.85,-96.6"/>
</g>
<!-- Node4 -->
<g id="node4" class="node">
<title>Node4</title>
<g id="a_node4"><a xlink:title=" ">
<polygon fill="white" stroke="#bfbfbf" points="0,-0.5 0,-19.5 38,-19.5 38,-0.5 0,-0.5"/>
<text text-anchor="middle" x="19" y="-7.5" font-family="Helvetica,sans-Serif" font-size="10.00">map</text>
</a>
</g>
</g>
<!-- Node3&#45;&gt;Node4 -->
<g id="edge3" class="edge">
<title>Node3&#45;&gt;Node4</title>
<path fill="none" stroke="midnightblue" d="M173.13,-56.47C139.97,-47.21 95.53,-34.6 48.1,-20.27"/>
<polygon fill="midnightblue" stroke="midnightblue" points="48.84,-16.83 38.25,-17.28 46.81,-23.53 48.84,-16.83"/>
</g>
<!-- Node5 -->
<g id="node5" class="node">
<title>Node5</title>
<g id="a_node5"><a xlink:title=" ">
<polygon fill="white" stroke="#bfbfbf" points="56,-0.5 56,-19.5 114,-19.5 114,-0.5 56,-0.5"/>
<text text-anchor="middle" x="85" y="-7.5" font-family="Helvetica,sans-Serif" font-size="10.00">memory</text>
</a>
</g>
</g>
<!-- Node3&#45;&gt;Node5 -->
<g id="edge4" class="edge">
<title>Node3&#45;&gt;Node5</title>
<path fill="none" stroke="midnightblue" d="M191.06,-56.4C167.84,-46.46 137.01,-33.26 114.58,-23.66"/>
<polygon fill="midnightblue" stroke="midnightblue" points="115.8,-20.38 105.23,-19.66 113.04,-26.81 115.8,-20.38"/>
</g>
<!-- Node6 -->
<g id="node6" class="node">
<title>Node6</title>
<g id="a_node6"><a xlink:title=" ">
<polygon fill="white" stroke="#bfbfbf" points="132,-0.5 132,-19.5 182,-19.5 182,-0.5 132,-0.5"/>
<text text-anchor="middle" x="157" y="-7.5" font-family="Helvetica,sans-Serif" font-size="10.00">atomic</text>
</a>
</g>
</g>
<!-- Node3&#45;&gt;Node6 -->
<g id="edge5" class="edge">
<title>Node3&#45;&gt;Node6</title>
<path fill="none" stroke="midnightblue" d="M208.12,-56.4C197.98,-47.4 184.84,-35.72 174.41,-26.47"/>
<polygon fill="midnightblue" stroke="midnightblue" points="176.55,-23.68 166.75,-19.66 171.9,-28.92 176.55,-23.68"/>
</g>
<!-- Node7 -->
<g id="node7" class="node">
<title>Node7</title>
<g id="a_node7"><a xlink:title=" ">
<polygon fill="white" stroke="#bfbfbf" points="200,-0.5 200,-19.5 248,-19.5 248,-0.5 200,-0.5"/>
<text text-anchor="middle" x="224" y="-7.5" font-family="Helvetica,sans-Serif" font-size="10.00">mutex</text>
</a>
</g>
</g>
<!-- Node3&#45;&gt;Node7 -->
<g id="edge6" class="edge">
<title>Node3&#45;&gt;Node7</title>
<path fill="none" stroke="midnightblue" d="M224,-56.4C224,-48.47 224,-38.46 224,-29.86"/>
<polygon fill="midnightblue" stroke="midnightblue" points="227.5,-29.66 224,-19.66 220.5,-29.66 227.5,-29.66"/>
</g>
<!-- Node8 -->
<g id="node8" class="node">
<title>Node8</title>
<g id="a_node8"><a xlink:title=" ">
<polygon fill="white" stroke="#bfbfbf" points="266.5,-0.5 266.5,-19.5 407.5,-19.5 407.5,-0.5 266.5,-0.5"/>
<text text-anchor="middle" x="337" y="-7.5" font-family="Helvetica,sans-Serif" font-size="10.00">boost/asio/ip/address.hpp</text>
</a>
</g>
</g>
<!-- Node3&#45;&gt;Node8 -->
<g id="edge7" class="edge">
<title>Node3&#45;&gt;Node8</title>
<path fill="none" stroke="midnightblue" d="M250.78,-56.4C269.06,-46.77 293.15,-34.09 311.21,-24.58"/>
<polygon fill="midnightblue" stroke="midnightblue" points="313.34,-27.41 320.56,-19.66 310.08,-21.22 313.34,-27.41"/>
</g>
<!-- Node9 -->
<g id="node9" class="node">
<title>Node9</title>
<g id="a_node9"><a xlink:title=" ">
<polygon fill="white" stroke="#bfbfbf" points="425.5,-0.5 425.5,-19.5 584.5,-19.5 584.5,-0.5 425.5,-0.5"/>
<text text-anchor="middle" x="505" y="-7.5" font-family="Helvetica,sans-Serif" font-size="10.00">vsomeip/primitive_types.hpp</text>
</a>
</g>
</g>
<!-- Node3&#45;&gt;Node9 -->
<g id="edge8" class="edge">
<title>Node3&#45;&gt;Node9</title>
<path fill="none" stroke="midnightblue" d="M277.52,-59.17C328.46,-48.38 404.57,-32.26 454.5,-21.69"/>
<polygon fill="midnightblue" stroke="midnightblue" points="455.37,-25.09 464.43,-19.59 453.92,-18.24 455.37,-25.09"/>
</g>
<!-- Node10 -->
<g id="node10" class="node">
<title>Node10</title>
<g id="a_node10"><a xlink:title=" ">
<polygon fill="white" stroke="#bfbfbf" points="603,-0.5 603,-19.5 717,-19.5 717,-0.5 603,-0.5"/>
<text text-anchor="middle" x="660" y="-7.5" font-family="Helvetica,sans-Serif" font-size="10.00">vsomeip/export.hpp</text>
</a>
</g>
</g>
<!-- Node3&#45;&gt;Node10 -->
<g id="edge9" class="edge">
<title>Node3&#45;&gt;Node10</title>
<path fill="none" stroke="midnightblue" d="M277.9,-63.14C357.45,-52.29 506.21,-31.99 592.78,-20.17"/>
<polygon fill="midnightblue" stroke="midnightblue" points="593.33,-23.63 602.77,-18.81 592.39,-16.69 593.33,-23.63"/>
</g>
</g>
</svg>
