<?xml version="1.0" encoding="UTF-8" standalone="no"?>
<!DOCTYPE svg PUBLIC "-//W3C//DTD SVG 1.1//EN"
 "http://www.w3.org/Graphics/SVG/1.1/DTD/svg11.dtd">
<!-- Generated by graphviz version 2.43.0 (0)
 -->
<!-- Title: /home/kali/projects/vsomeip/implementation/service_discovery/src/entry_impl.cpp Pages: 1 -->
<svg width="1990pt" height="318pt"
 viewBox="0.00 0.00 1989.50 318.00" xmlns="http://www.w3.org/2000/svg" xmlns:xlink="http://www.w3.org/1999/xlink">
<g id="graph0" class="graph" transform="scale(1 1) rotate(0) translate(4 314)">
<title>/home/kali/projects/vsomeip/implementation/service_discovery/src/entry_impl.cpp</title>
<polygon fill="white" stroke="transparent" points="-4,4 -4,-314 1985.5,-314 1985.5,4 -4,4"/>
<!-- Node1 -->
<g id="node1" class="node">
<title>Node1</title>
<g id="a_node1"><a xlink:title=" ">
<polygon fill="#bfbfbf" stroke="black" points="1115.5,-257.5 1115.5,-309.5 1258.5,-309.5 1258.5,-257.5 1115.5,-257.5"/>
<text text-anchor="start" x="1123.5" y="-297.5" font-family="Helvetica,sans-Serif" font-size="10.00">/home/kali/projects</text>
<text text-anchor="start" x="1123.5" y="-286.5" font-family="Helvetica,sans-Serif" font-size="10.00">/vsomeip/implementation</text>
<text text-anchor="start" x="1123.5" y="-275.5" font-family="Helvetica,sans-Serif" font-size="10.00">/service_discovery/src</text>
<text text-anchor="middle" x="1187" y="-264.5" font-family="Helvetica,sans-Serif" font-size="10.00">/entry_impl.cpp</text>
</a>
</g>
</g>
<!-- Node2 -->
<g id="node2" class="node">
<title>Node2</title>
<g id="a_node2"><a xlink:title=" ">
<polygon fill="white" stroke="#bfbfbf" points="1016,-196 1016,-215 1080,-215 1080,-196 1016,-196"/>
<text text-anchor="middle" x="1048" y="-203" font-family="Helvetica,sans-Serif" font-size="10.00">algorithm</text>
</a>
</g>
</g>
<!-- Node1&#45;&gt;Node2 -->
<g id="edge1" class="edge">
<title>Node1&#45;&gt;Node2</title>
<path fill="none" stroke="midnightblue" d="M1141.1,-257.4C1118.24,-244.9 1091.5,-230.29 1072.56,-219.93"/>
<polygon fill="midnightblue" stroke="midnightblue" points="1074.14,-216.8 1063.69,-215.08 1070.78,-222.95 1074.14,-216.8"/>
</g>
<!-- Node3 -->
<g id="node3" class="node">
<title>Node3</title>
<g id="a_node3"><a xlink:href="logger_8hpp.html" target="_top" xlink:title=" ">
<polygon fill="white" stroke="black" points="206.5,-129 206.5,-148 359.5,-148 359.5,-129 206.5,-129"/>
<text text-anchor="middle" x="283" y="-136" font-family="Helvetica,sans-Serif" font-size="10.00">vsomeip/internal/logger.hpp</text>
</a>
</g>
</g>
<!-- Node1&#45;&gt;Node3 -->
<g id="edge2" class="edge">
<title>Node1&#45;&gt;Node3</title>
<path fill="none" stroke="midnightblue" d="M1160.32,-257.27C1131.4,-229.92 1089.28,-190.12 1089,-190 1056.47,-175.88 571.76,-152.53 370.05,-143.36"/>
<polygon fill="midnightblue" stroke="midnightblue" points="369.94,-139.85 359.79,-142.9 369.63,-146.85 369.94,-139.85"/>
</g>
<!-- Node11 -->
<g id="node11" class="node">
<title>Node11</title>
<g id="a_node11"><a xlink:href="entry__impl_8hpp.html" target="_top" xlink:title=" ">
<polygon fill="white" stroke="black" points="721.5,-129 721.5,-148 858.5,-148 858.5,-129 721.5,-129"/>
<text text-anchor="middle" x="790" y="-136" font-family="Helvetica,sans-Serif" font-size="10.00">../include/entry_impl.hpp</text>
</a>
</g>
</g>
<!-- Node1&#45;&gt;Node11 -->
<g id="edge10" class="edge">
<title>Node1&#45;&gt;Node11</title>
<path fill="none" stroke="midnightblue" d="M1176.33,-257.25C1165.82,-235.67 1147.6,-205.7 1122,-190 1025.55,-130.86 981.68,-172.09 870,-154 861.98,-152.7 853.51,-151.25 845.22,-149.79"/>
<polygon fill="midnightblue" stroke="midnightblue" points="845.68,-146.31 835.22,-148 844.45,-153.2 845.68,-146.31"/>
</g>
<!-- Node18 -->
<g id="node18" class="node">
<title>Node18</title>
<g id="a_node18"><a xlink:href="service__discovery_2include_2message__impl_8hpp.html" target="_top" xlink:title=" ">
<polygon fill="white" stroke="black" points="1174,-190.5 1174,-220.5 1282,-220.5 1282,-190.5 1174,-190.5"/>
<text text-anchor="start" x="1182" y="-208.5" font-family="Helvetica,sans-Serif" font-size="10.00">../include/message</text>
<text text-anchor="middle" x="1228" y="-197.5" font-family="Helvetica,sans-Serif" font-size="10.00">_impl.hpp</text>
</a>
</g>
</g>
<!-- Node1&#45;&gt;Node18 -->
<g id="edge18" class="edge">
<title>Node1&#45;&gt;Node18</title>
<path fill="none" stroke="midnightblue" d="M1200.65,-257.19C1205.44,-248.31 1210.8,-238.39 1215.49,-229.69"/>
<polygon fill="midnightblue" stroke="midnightblue" points="1218.59,-231.31 1220.26,-220.85 1212.43,-227.98 1218.59,-231.31"/>
</g>
<!-- Node29 -->
<g id="node29" class="node">
<title>Node29</title>
<g id="a_node29"><a xlink:href="message_2include_2deserializer_8hpp.html" target="_top" xlink:title=" ">
<polygon fill="white" stroke="black" points="1864.5,-123.5 1864.5,-153.5 1981.5,-153.5 1981.5,-123.5 1864.5,-123.5"/>
<text text-anchor="start" x="1872.5" y="-141.5" font-family="Helvetica,sans-Serif" font-size="10.00">../../message/include</text>
<text text-anchor="middle" x="1923" y="-130.5" font-family="Helvetica,sans-Serif" font-size="10.00">/deserializer.hpp</text>
</a>
</g>
</g>
<!-- Node1&#45;&gt;Node29 -->
<g id="edge43" class="edge">
<title>Node1&#45;&gt;Node29</title>
<path fill="none" stroke="midnightblue" d="M1258.61,-269.51C1325.89,-257.25 1429.34,-238.22 1519,-221 1665.75,-192.82 1704.82,-185.36 1854.19,-154.36"/>
<polygon fill="midnightblue" stroke="midnightblue" points="1855.11,-157.75 1864.19,-152.29 1853.68,-150.89 1855.11,-157.75"/>
</g>
<!-- Node30 -->
<g id="node30" class="node">
<title>Node30</title>
<g id="a_node30"><a xlink:href="serializer_8hpp.html" target="_top" xlink:title=" ">
<polygon fill="white" stroke="black" points="1729.5,-123.5 1729.5,-153.5 1846.5,-153.5 1846.5,-123.5 1729.5,-123.5"/>
<text text-anchor="start" x="1737.5" y="-141.5" font-family="Helvetica,sans-Serif" font-size="10.00">../../message/include</text>
<text text-anchor="middle" x="1788" y="-130.5" font-family="Helvetica,sans-Serif" font-size="10.00">/serializer.hpp</text>
</a>
</g>
</g>
<!-- Node1&#45;&gt;Node30 -->
<g id="edge47" class="edge">
<title>Node1&#45;&gt;Node30</title>
<path fill="none" stroke="midnightblue" d="M1258.6,-265.46C1375.22,-237.71 1604.68,-183.12 1719.36,-155.83"/>
<polygon fill="midnightblue" stroke="midnightblue" points="1720.51,-159.16 1729.42,-153.44 1718.89,-152.35 1720.51,-159.16"/>
</g>
<!-- Node4 -->
<g id="node4" class="node">
<title>Node4</title>
<g id="a_node4"><a xlink:title=" ">
<polygon fill="white" stroke="#bfbfbf" points="0,-67.5 0,-86.5 50,-86.5 50,-67.5 0,-67.5"/>
<text text-anchor="middle" x="25" y="-74.5" font-family="Helvetica,sans-Serif" font-size="10.00">chrono</text>
</a>
</g>
</g>
<!-- Node3&#45;&gt;Node4 -->
<g id="edge3" class="edge">
<title>Node3&#45;&gt;Node4</title>
<path fill="none" stroke="midnightblue" d="M242.84,-128.91C199.94,-119.64 129.75,-104.17 60.05,-87.19"/>
<polygon fill="midnightblue" stroke="midnightblue" points="60.77,-83.77 50.22,-84.79 59.11,-90.56 60.77,-83.77"/>
</g>
<!-- Node5 -->
<g id="node5" class="node">
<title>Node5</title>
<g id="a_node5"><a xlink:title=" ">
<polygon fill="white" stroke="#bfbfbf" points="421,-6 421,-25 471,-25 471,-6 421,-6"/>
<text text-anchor="middle" x="446" y="-13" font-family="Helvetica,sans-Serif" font-size="10.00">cstdint</text>
</a>
</g>
</g>
<!-- Node3&#45;&gt;Node5 -->
<g id="edge4" class="edge">
<title>Node3&#45;&gt;Node5</title>
<path fill="none" stroke="midnightblue" d="M288.02,-128.61C296.62,-114.06 315.42,-84.99 338,-67 360,-49.47 389.07,-36.32 411.51,-27.84"/>
<polygon fill="midnightblue" stroke="midnightblue" points="412.8,-31.1 421,-24.39 410.4,-24.52 412.8,-31.1"/>
</g>
<!-- Node6 -->
<g id="node6" class="node">
<title>Node6</title>
<g id="a_node6"><a xlink:title=" ">
<polygon fill="white" stroke="#bfbfbf" points="818,-67.5 818,-86.5 866,-86.5 866,-67.5 818,-67.5"/>
<text text-anchor="middle" x="842" y="-74.5" font-family="Helvetica,sans-Serif" font-size="10.00">mutex</text>
</a>
</g>
</g>
<!-- Node3&#45;&gt;Node6 -->
<g id="edge5" class="edge">
<title>Node3&#45;&gt;Node6</title>
<path fill="none" stroke="midnightblue" d="M359.55,-129.35C482.68,-116.25 719.8,-91.01 807.92,-81.63"/>
<polygon fill="midnightblue" stroke="midnightblue" points="808.34,-85.1 817.91,-80.56 807.6,-78.14 808.34,-85.1"/>
</g>
<!-- Node7 -->
<g id="node7" class="node">
<title>Node7</title>
<g id="a_node7"><a xlink:title=" ">
<polygon fill="white" stroke="#bfbfbf" points="68.5,-67.5 68.5,-86.5 125.5,-86.5 125.5,-67.5 68.5,-67.5"/>
<text text-anchor="middle" x="97" y="-74.5" font-family="Helvetica,sans-Serif" font-size="10.00">ostream</text>
</a>
</g>
</g>
<!-- Node3&#45;&gt;Node7 -->
<g id="edge6" class="edge">
<title>Node3&#45;&gt;Node7</title>
<path fill="none" stroke="midnightblue" d="M256.35,-128.98C224.03,-118.64 169.4,-101.16 133.27,-89.6"/>
<polygon fill="midnightblue" stroke="midnightblue" points="134.19,-86.22 123.6,-86.51 132.06,-92.89 134.19,-86.22"/>
</g>
<!-- Node8 -->
<g id="node8" class="node">
<title>Node8</title>
<g id="a_node8"><a xlink:title=" ">
<polygon fill="white" stroke="#bfbfbf" points="144,-67.5 144,-86.5 200,-86.5 200,-67.5 144,-67.5"/>
<text text-anchor="middle" x="172" y="-74.5" font-family="Helvetica,sans-Serif" font-size="10.00">sstream</text>
</a>
</g>
</g>
<!-- Node3&#45;&gt;Node8 -->
<g id="edge7" class="edge">
<title>Node3&#45;&gt;Node8</title>
<path fill="none" stroke="midnightblue" d="M267.1,-128.98C248.72,-119.12 218.24,-102.79 196.76,-91.27"/>
<polygon fill="midnightblue" stroke="midnightblue" points="198.34,-88.15 187.87,-86.51 195.03,-94.32 198.34,-88.15"/>
</g>
<!-- Node9 -->
<g id="node9" class="node">
<title>Node9</title>
<g id="a_node9"><a xlink:title=" ">
<polygon fill="white" stroke="#bfbfbf" points="218.5,-67.5 218.5,-86.5 285.5,-86.5 285.5,-67.5 218.5,-67.5"/>
<text text-anchor="middle" x="252" y="-74.5" font-family="Helvetica,sans-Serif" font-size="10.00">streambuf</text>
</a>
</g>
</g>
<!-- Node3&#45;&gt;Node9 -->
<g id="edge8" class="edge">
<title>Node3&#45;&gt;Node9</title>
<path fill="none" stroke="midnightblue" d="M278.56,-128.98C274.05,-120.32 266.93,-106.65 261.19,-95.65"/>
<polygon fill="midnightblue" stroke="midnightblue" points="264.16,-93.76 256.43,-86.51 257.95,-96.99 264.16,-93.76"/>
</g>
<!-- Node10 -->
<g id="node10" class="node">
<title>Node10</title>
<g id="a_node10"><a xlink:title=" ">
<polygon fill="white" stroke="#bfbfbf" points="1602,-6 1602,-25 1716,-25 1716,-6 1602,-6"/>
<text text-anchor="middle" x="1659" y="-13" font-family="Helvetica,sans-Serif" font-size="10.00">vsomeip/export.hpp</text>
</a>
</g>
</g>
<!-- Node3&#45;&gt;Node10 -->
<g id="edge9" class="edge">
<title>Node3&#45;&gt;Node10</title>
<path fill="none" stroke="midnightblue" d="M292.27,-128.79C310.98,-111.43 352.99,-73.62 371,-67 498.49,-20.11 1458.19,-47.65 1593,-31 1600.53,-30.07 1608.47,-28.69 1616.12,-27.13"/>
<polygon fill="midnightblue" stroke="midnightblue" points="1616.93,-30.54 1625.97,-25.02 1615.46,-23.7 1616.93,-30.54"/>
</g>
<!-- Node12 -->
<g id="node12" class="node">
<title>Node12</title>
<g id="a_node12"><a xlink:title=" ">
<polygon fill="white" stroke="#bfbfbf" points="884,-67.5 884,-86.5 942,-86.5 942,-67.5 884,-67.5"/>
<text text-anchor="middle" x="913" y="-74.5" font-family="Helvetica,sans-Serif" font-size="10.00">memory</text>
</a>
</g>
</g>
<!-- Node11&#45;&gt;Node12 -->
<g id="edge11" class="edge">
<title>Node11&#45;&gt;Node12</title>
<path fill="none" stroke="midnightblue" d="M807.62,-128.98C828.17,-119.03 862.36,-102.49 886.21,-90.96"/>
<polygon fill="midnightblue" stroke="midnightblue" points="887.93,-94.01 895.41,-86.51 884.88,-87.71 887.93,-94.01"/>
</g>
<!-- Node13 -->
<g id="node13" class="node">
<title>Node13</title>
<g id="a_node13"><a xlink:title=" ">
<polygon fill="white" stroke="#bfbfbf" points="1787.5,-67.5 1787.5,-86.5 1834.5,-86.5 1834.5,-67.5 1787.5,-67.5"/>
<text text-anchor="middle" x="1811" y="-74.5" font-family="Helvetica,sans-Serif" font-size="10.00">vector</text>
</a>
</g>
</g>
<!-- Node11&#45;&gt;Node13 -->
<g id="edge12" class="edge">
<title>Node11&#45;&gt;Node13</title>
<path fill="none" stroke="midnightblue" d="M830.95,-128.94C843.43,-126.64 857.23,-124.4 870,-123 1268.56,-79.21 1377.84,-148.99 1777.28,-86.9"/>
<polygon fill="midnightblue" stroke="midnightblue" points="1778.04,-90.32 1787.37,-85.31 1776.95,-83.41 1778.04,-90.32"/>
</g>
<!-- Node14 -->
<g id="node14" class="node">
<title>Node14</title>
<g id="a_node14"><a xlink:title=" ">
<polygon fill="white" stroke="#bfbfbf" points="1283.5,-6 1283.5,-25 1442.5,-25 1442.5,-6 1283.5,-6"/>
<text text-anchor="middle" x="1363" y="-13" font-family="Helvetica,sans-Serif" font-size="10.00">vsomeip/primitive_types.hpp</text>
</a>
</g>
</g>
<!-- Node11&#45;&gt;Node14 -->
<g id="edge13" class="edge">
<title>Node11&#45;&gt;Node14</title>
<path fill="none" stroke="midnightblue" d="M789.46,-128.95C789.03,-113.83 790.57,-82.5 809,-67 843.67,-37.84 1125.1,-24.3 1272.96,-19.14"/>
<polygon fill="midnightblue" stroke="midnightblue" points="1273.5,-22.63 1283.37,-18.79 1273.26,-15.63 1273.5,-22.63"/>
</g>
<!-- Node15 -->
<g id="node15" class="node">
<title>Node15</title>
<g id="a_node15"><a xlink:title=" ">
<polygon fill="white" stroke="#bfbfbf" points="796.5,-6 796.5,-25 975.5,-25 975.5,-6 796.5,-6"/>
<text text-anchor="middle" x="886" y="-13" font-family="Helvetica,sans-Serif" font-size="10.00">vsomeip/internal/serializable.hpp</text>
</a>
</g>
</g>
<!-- Node11&#45;&gt;Node15 -->
<g id="edge14" class="edge">
<title>Node11&#45;&gt;Node15</title>
<path fill="none" stroke="midnightblue" d="M721.21,-137.46C637.38,-135.06 512.44,-122.5 560,-67 588.74,-33.46 701.18,-22.01 786.03,-18.2"/>
<polygon fill="midnightblue" stroke="midnightblue" points="786.39,-21.69 796.23,-17.77 786.09,-14.69 786.39,-21.69"/>
</g>
<!-- Node16 -->
<g id="node16" class="node">
<title>Node16</title>
<g id="a_node16"><a xlink:href="implementation_2service__discovery_2include_2enumeration__types_8hpp.html" target="_top" xlink:title=" ">
<polygon fill="white" stroke="black" points="380,-67.5 380,-86.5 512,-86.5 512,-67.5 380,-67.5"/>
<text text-anchor="middle" x="446" y="-74.5" font-family="Helvetica,sans-Serif" font-size="10.00">enumeration_types.hpp</text>
</a>
</g>
</g>
<!-- Node11&#45;&gt;Node16 -->
<g id="edge15" class="edge">
<title>Node11&#45;&gt;Node16</title>
<path fill="none" stroke="midnightblue" d="M740.71,-128.98C678.51,-118.22 571.63,-99.73 505.11,-88.22"/>
<polygon fill="midnightblue" stroke="midnightblue" points="505.65,-84.76 495.2,-86.51 504.45,-91.66 505.65,-84.76"/>
</g>
<!-- Node17 -->
<g id="node17" class="node">
<title>Node17</title>
<g id="a_node17"><a xlink:href="message__element__impl_8hpp.html" target="_top" xlink:title=" ">
<polygon fill="white" stroke="black" points="568.5,-67.5 568.5,-86.5 723.5,-86.5 723.5,-67.5 568.5,-67.5"/>
<text text-anchor="middle" x="646" y="-74.5" font-family="Helvetica,sans-Serif" font-size="10.00">message_element_impl.hpp</text>
</a>
</g>
</g>
<!-- Node11&#45;&gt;Node17 -->
<g id="edge17" class="edge">
<title>Node11&#45;&gt;Node17</title>
<path fill="none" stroke="midnightblue" d="M769.37,-128.98C744.88,-118.86 703.85,-101.9 675.89,-90.35"/>
<polygon fill="midnightblue" stroke="midnightblue" points="677.17,-87.09 666.59,-86.51 674.5,-93.56 677.17,-87.09"/>
</g>
<!-- Node16&#45;&gt;Node5 -->
<g id="edge16" class="edge">
<title>Node16&#45;&gt;Node5</title>
<path fill="none" stroke="midnightblue" d="M446,-67.48C446,-59.08 446,-45.98 446,-35.16"/>
<polygon fill="midnightblue" stroke="midnightblue" points="449.5,-35.01 446,-25.01 442.5,-35.01 449.5,-35.01"/>
</g>
<!-- Node18&#45;&gt;Node6 -->
<g id="edge21" class="edge">
<title>Node18&#45;&gt;Node6</title>
<path fill="none" stroke="midnightblue" d="M1173.92,-191.15C1129.29,-179.82 1069.75,-163.86 1047,-154 1022.66,-143.45 1020.27,-133.7 996,-123 984.93,-118.12 918,-99.15 876.1,-87.45"/>
<polygon fill="midnightblue" stroke="midnightblue" points="876.86,-84.03 866.29,-84.72 874.98,-90.78 876.86,-84.03"/>
</g>
<!-- Node18&#45;&gt;Node12 -->
<g id="edge20" class="edge">
<title>Node18&#45;&gt;Node12</title>
<path fill="none" stroke="midnightblue" d="M1189.74,-190.43C1164.72,-180.89 1131.52,-167.59 1103,-154 1077.32,-141.76 1073.04,-134.46 1047,-123 1015.83,-109.28 979.08,-97.21 951.96,-89.03"/>
<polygon fill="midnightblue" stroke="midnightblue" points="952.65,-85.59 942.06,-86.1 950.65,-92.3 952.65,-85.59"/>
</g>
<!-- Node18&#45;&gt;Node13 -->
<g id="edge22" class="edge">
<title>Node18&#45;&gt;Node13</title>
<path fill="none" stroke="midnightblue" d="M1282.24,-201.75C1358.48,-196.94 1501.2,-184.42 1619,-154 1680.08,-138.23 1747.9,-108.23 1784.34,-91.02"/>
<polygon fill="midnightblue" stroke="midnightblue" points="1786.24,-93.99 1793.75,-86.52 1783.22,-87.67 1786.24,-93.99"/>
</g>
<!-- Node19 -->
<g id="node19" class="node">
<title>Node19</title>
<g id="a_node19"><a xlink:title=" ">
<polygon fill="white" stroke="#bfbfbf" points="1252,-67.5 1252,-86.5 1302,-86.5 1302,-67.5 1252,-67.5"/>
<text text-anchor="middle" x="1277" y="-74.5" font-family="Helvetica,sans-Serif" font-size="10.00">atomic</text>
</a>
</g>
</g>
<!-- Node18&#45;&gt;Node19 -->
<g id="edge19" class="edge">
<title>Node18&#45;&gt;Node19</title>
<path fill="none" stroke="midnightblue" d="M1236.63,-190.3C1242.39,-180.39 1249.83,-166.71 1255,-154 1262.75,-134.96 1268.96,-112.2 1272.78,-96.59"/>
<polygon fill="midnightblue" stroke="midnightblue" points="1276.24,-97.17 1275.12,-86.63 1269.42,-95.56 1276.24,-97.17"/>
</g>
<!-- Node20 -->
<g id="node20" class="node">
<title>Node20</title>
<g id="a_node20"><a xlink:title=" ">
<polygon fill="white" stroke="#bfbfbf" points="1320.5,-67.5 1320.5,-86.5 1447.5,-86.5 1447.5,-67.5 1320.5,-67.5"/>
<text text-anchor="middle" x="1384" y="-74.5" font-family="Helvetica,sans-Serif" font-size="10.00">vsomeip/message.hpp</text>
</a>
</g>
</g>
<!-- Node18&#45;&gt;Node20 -->
<g id="edge23" class="edge">
<title>Node18&#45;&gt;Node20</title>
<path fill="none" stroke="midnightblue" d="M1245.29,-190.48C1274.75,-166.59 1334.44,-118.19 1365.02,-93.39"/>
<polygon fill="midnightblue" stroke="midnightblue" points="1367.6,-95.81 1373.16,-86.79 1363.19,-90.37 1367.6,-95.81"/>
</g>
<!-- Node21 -->
<g id="node21" class="node">
<title>Node21</title>
<g id="a_node21"><a xlink:href="implementation_2service__discovery_2include_2primitive__types_8hpp.html" target="_top" xlink:title=" ">
<polygon fill="white" stroke="black" points="879,-123.5 879,-153.5 987,-153.5 987,-123.5 879,-123.5"/>
<text text-anchor="start" x="887" y="-141.5" font-family="Helvetica,sans-Serif" font-size="10.00">../include/primitive</text>
<text text-anchor="middle" x="933" y="-130.5" font-family="Helvetica,sans-Serif" font-size="10.00">_types.hpp</text>
</a>
</g>
</g>
<!-- Node18&#45;&gt;Node21 -->
<g id="edge24" class="edge">
<title>Node18&#45;&gt;Node21</title>
<path fill="none" stroke="midnightblue" d="M1173.89,-192.58C1123.97,-181.58 1049.79,-165.23 996.95,-153.59"/>
<polygon fill="midnightblue" stroke="midnightblue" points="997.53,-150.14 987.01,-151.4 996.03,-156.97 997.53,-150.14"/>
</g>
<!-- Node22 -->
<g id="node22" class="node">
<title>Node22</title>
<g id="a_node22"><a xlink:href="message_2include_2message__base__impl_8hpp.html" target="_top" xlink:title=" ">
<polygon fill="white" stroke="black" points="1470,-123.5 1470,-153.5 1610,-153.5 1610,-123.5 1470,-123.5"/>
<text text-anchor="start" x="1478" y="-141.5" font-family="Helvetica,sans-Serif" font-size="10.00">../../message/include</text>
<text text-anchor="middle" x="1540" y="-130.5" font-family="Helvetica,sans-Serif" font-size="10.00">/message_base_impl.hpp</text>
</a>
</g>
</g>
<!-- Node18&#45;&gt;Node22 -->
<g id="edge26" class="edge">
<title>Node18&#45;&gt;Node22</title>
<path fill="none" stroke="midnightblue" d="M1282.35,-193.18C1332.25,-182.78 1406.74,-167.26 1462.81,-155.58"/>
<polygon fill="midnightblue" stroke="midnightblue" points="1463.62,-158.99 1472.7,-153.52 1462.19,-152.13 1463.62,-158.99"/>
</g>
<!-- Node26 -->
<g id="node26" class="node">
<title>Node26</title>
<g id="a_node26"><a xlink:href="endpoint__definition_8hpp.html" target="_top" xlink:title=" ">
<polygon fill="white" stroke="black" points="1112,-123.5 1112,-153.5 1246,-153.5 1246,-123.5 1112,-123.5"/>
<text text-anchor="start" x="1120" y="-141.5" font-family="Helvetica,sans-Serif" font-size="10.00">../../endpoints/include</text>
<text text-anchor="middle" x="1179" y="-130.5" font-family="Helvetica,sans-Serif" font-size="10.00">/endpoint_definition.hpp</text>
</a>
</g>
</g>
<!-- Node18&#45;&gt;Node26 -->
<g id="edge35" class="edge">
<title>Node18&#45;&gt;Node26</title>
<path fill="none" stroke="midnightblue" d="M1217.37,-190.4C1211.08,-182.05 1202.96,-171.29 1195.82,-161.81"/>
<polygon fill="midnightblue" stroke="midnightblue" points="1198.43,-159.45 1189.61,-153.58 1192.84,-163.67 1198.43,-159.45"/>
</g>
<!-- Node21&#45;&gt;Node5 -->
<g id="edge25" class="edge">
<title>Node21&#45;&gt;Node5</title>
<path fill="none" stroke="midnightblue" d="M898.5,-123.38C859.06,-107.7 792.29,-82.55 733,-67 643.77,-43.59 536.04,-27.91 481.44,-20.82"/>
<polygon fill="midnightblue" stroke="midnightblue" points="481.62,-17.32 471.25,-19.52 480.73,-24.26 481.62,-17.32"/>
</g>
<!-- Node22&#45;&gt;Node10 -->
<g id="edge28" class="edge">
<title>Node22&#45;&gt;Node10</title>
<path fill="none" stroke="midnightblue" d="M1572.1,-123.29C1588.85,-114.66 1608.77,-102.33 1623,-87 1636.99,-71.92 1646.93,-50.38 1652.77,-35.08"/>
<polygon fill="midnightblue" stroke="midnightblue" points="1656.22,-35.82 1656.3,-25.23 1649.63,-33.46 1656.22,-35.82"/>
</g>
<!-- Node22&#45;&gt;Node20 -->
<g id="edge29" class="edge">
<title>Node22&#45;&gt;Node20</title>
<path fill="none" stroke="midnightblue" d="M1503.03,-123.4C1476.62,-113.33 1441.44,-99.91 1416.19,-90.28"/>
<polygon fill="midnightblue" stroke="midnightblue" points="1417.29,-86.95 1406.7,-86.66 1414.8,-93.49 1417.29,-86.95"/>
</g>
<!-- Node23 -->
<g id="node23" class="node">
<title>Node23</title>
<g id="a_node23"><a xlink:title=" ">
<polygon fill="white" stroke="#bfbfbf" points="1670.5,-67.5 1670.5,-86.5 1769.5,-86.5 1769.5,-67.5 1670.5,-67.5"/>
<text text-anchor="middle" x="1720" y="-74.5" font-family="Helvetica,sans-Serif" font-size="10.00">boost/thread.hpp</text>
</a>
</g>
</g>
<!-- Node22&#45;&gt;Node23 -->
<g id="edge27" class="edge">
<title>Node22&#45;&gt;Node23</title>
<path fill="none" stroke="midnightblue" d="M1582.66,-123.4C1613.63,-113.16 1655.05,-99.47 1684.28,-89.81"/>
<polygon fill="midnightblue" stroke="midnightblue" points="1685.67,-93.03 1694.07,-86.57 1683.48,-86.39 1685.67,-93.03"/>
</g>
<!-- Node24 -->
<g id="node24" class="node">
<title>Node24</title>
<g id="a_node24"><a xlink:href="message__header__impl_8hpp.html" target="_top" xlink:title=" ">
<polygon fill="white" stroke="black" points="1466,-67.5 1466,-86.5 1614,-86.5 1614,-67.5 1466,-67.5"/>
<text text-anchor="middle" x="1540" y="-74.5" font-family="Helvetica,sans-Serif" font-size="10.00">message_header_impl.hpp</text>
</a>
</g>
</g>
<!-- Node22&#45;&gt;Node24 -->
<g id="edge30" class="edge">
<title>Node22&#45;&gt;Node24</title>
<path fill="none" stroke="midnightblue" d="M1540,-123.4C1540,-115.47 1540,-105.46 1540,-96.86"/>
<polygon fill="midnightblue" stroke="midnightblue" points="1543.5,-96.66 1540,-86.66 1536.5,-96.66 1543.5,-96.66"/>
</g>
<!-- Node24&#45;&gt;Node10 -->
<g id="edge31" class="edge">
<title>Node24&#45;&gt;Node10</title>
<path fill="none" stroke="midnightblue" d="M1557.05,-67.48C1576.84,-57.58 1609.72,-41.14 1632.77,-29.62"/>
<polygon fill="midnightblue" stroke="midnightblue" points="1634.6,-32.61 1641.98,-25.01 1631.47,-26.35 1634.6,-32.61"/>
</g>
<!-- Node24&#45;&gt;Node14 -->
<g id="edge32" class="edge">
<title>Node24&#45;&gt;Node14</title>
<path fill="none" stroke="midnightblue" d="M1514.64,-67.48C1484.02,-57.18 1432.34,-39.81 1397.95,-28.25"/>
<polygon fill="midnightblue" stroke="midnightblue" points="1398.91,-24.88 1388.31,-25.01 1396.68,-31.51 1398.91,-24.88"/>
</g>
<!-- Node24&#45;&gt;Node15 -->
<g id="edge34" class="edge">
<title>Node24&#45;&gt;Node15</title>
<path fill="none" stroke="midnightblue" d="M1465.8,-67.88C1462.83,-67.58 1459.88,-67.28 1457,-67 1291.88,-50.75 1099.66,-34.25 985.66,-24.71"/>
<polygon fill="midnightblue" stroke="midnightblue" points="985.81,-21.21 975.56,-23.87 985.23,-28.19 985.81,-21.21"/>
</g>
<!-- Node25 -->
<g id="node25" class="node">
<title>Node25</title>
<g id="a_node25"><a xlink:title=" ">
<polygon fill="white" stroke="#bfbfbf" points="1460,-0.5 1460,-30.5 1584,-30.5 1584,-0.5 1460,-0.5"/>
<text text-anchor="start" x="1468" y="-18.5" font-family="Helvetica,sans-Serif" font-size="10.00">vsomeip/enumeration</text>
<text text-anchor="middle" x="1522" y="-7.5" font-family="Helvetica,sans-Serif" font-size="10.00">_types.hpp</text>
</a>
</g>
</g>
<!-- Node24&#45;&gt;Node25 -->
<g id="edge33" class="edge">
<title>Node24&#45;&gt;Node25</title>
<path fill="none" stroke="midnightblue" d="M1537.42,-67.48C1535.28,-60.4 1532.13,-49.97 1529.23,-40.39"/>
<polygon fill="midnightblue" stroke="midnightblue" points="1532.49,-39.08 1526.24,-30.52 1525.79,-41.11 1532.49,-39.08"/>
</g>
<!-- Node26&#45;&gt;Node6 -->
<g id="edge39" class="edge">
<title>Node26&#45;&gt;Node6</title>
<path fill="none" stroke="midnightblue" d="M1111.91,-128.36C1052.36,-119.78 962.82,-105.79 876.09,-87.06"/>
<polygon fill="midnightblue" stroke="midnightblue" points="876.6,-83.58 866.08,-84.87 875.1,-90.42 876.6,-83.58"/>
</g>
<!-- Node26&#45;&gt;Node10 -->
<g id="edge42" class="edge">
<title>Node26&#45;&gt;Node10</title>
<path fill="none" stroke="midnightblue" d="M1187.32,-123.27C1197.93,-106.61 1217.92,-79.68 1243,-67 1312.78,-31.72 1515.8,-43.41 1593,-31 1599.69,-29.92 1606.73,-28.6 1613.61,-27.18"/>
<polygon fill="midnightblue" stroke="midnightblue" points="1614.47,-30.58 1623.52,-25.07 1613.01,-23.73 1614.47,-30.58"/>
</g>
<!-- Node26&#45;&gt;Node12 -->
<g id="edge37" class="edge">
<title>Node26&#45;&gt;Node12</title>
<path fill="none" stroke="midnightblue" d="M1114.57,-123.49C1071.2,-114 1012.46,-101.03 951.79,-87.16"/>
<polygon fill="midnightblue" stroke="midnightblue" points="952.57,-83.74 942.04,-84.92 951,-90.57 952.57,-83.74"/>
</g>
<!-- Node26&#45;&gt;Node14 -->
<g id="edge41" class="edge">
<title>Node26&#45;&gt;Node14</title>
<path fill="none" stroke="midnightblue" d="M1181.64,-123.31C1185.32,-107.44 1193.48,-82.02 1210,-67 1232.13,-46.89 1262.45,-34.77 1290.27,-27.47"/>
<polygon fill="midnightblue" stroke="midnightblue" points="1291.11,-30.87 1299.99,-25.09 1289.44,-24.07 1291.11,-30.87"/>
</g>
<!-- Node26&#45;&gt;Node19 -->
<g id="edge38" class="edge">
<title>Node26&#45;&gt;Node19</title>
<path fill="none" stroke="midnightblue" d="M1202.22,-123.4C1217.79,-113.95 1238.2,-101.56 1253.76,-92.11"/>
<polygon fill="midnightblue" stroke="midnightblue" points="1256.01,-94.84 1262.74,-86.66 1252.38,-88.86 1256.01,-94.84"/>
</g>
<!-- Node27 -->
<g id="node27" class="node">
<title>Node27</title>
<g id="a_node27"><a xlink:title=" ">
<polygon fill="white" stroke="#bfbfbf" points="960,-67.5 960,-86.5 998,-86.5 998,-67.5 960,-67.5"/>
<text text-anchor="middle" x="979" y="-74.5" font-family="Helvetica,sans-Serif" font-size="10.00">map</text>
</a>
</g>
</g>
<!-- Node26&#45;&gt;Node27 -->
<g id="edge36" class="edge">
<title>Node26&#45;&gt;Node27</title>
<path fill="none" stroke="midnightblue" d="M1130.67,-123.42C1096.39,-113.39 1049.33,-99.52 1008,-87 1007.9,-86.97 1007.8,-86.94 1007.7,-86.91"/>
<polygon fill="midnightblue" stroke="midnightblue" points="1008.61,-83.53 998.02,-83.94 1006.56,-90.22 1008.61,-83.53"/>
</g>
<!-- Node28 -->
<g id="node28" class="node">
<title>Node28</title>
<g id="a_node28"><a xlink:title=" ">
<polygon fill="white" stroke="#bfbfbf" points="1016.5,-67.5 1016.5,-86.5 1157.5,-86.5 1157.5,-67.5 1016.5,-67.5"/>
<text text-anchor="middle" x="1087" y="-74.5" font-family="Helvetica,sans-Serif" font-size="10.00">boost/asio/ip/address.hpp</text>
</a>
</g>
</g>
<!-- Node26&#45;&gt;Node28 -->
<g id="edge40" class="edge">
<title>Node26&#45;&gt;Node28</title>
<path fill="none" stroke="midnightblue" d="M1157.2,-123.4C1142.59,-113.95 1123.43,-101.56 1108.82,-92.11"/>
<polygon fill="midnightblue" stroke="midnightblue" points="1110.68,-89.15 1100.39,-86.66 1106.88,-95.03 1110.68,-89.15"/>
</g>
<!-- Node29&#45;&gt;Node10 -->
<g id="edge45" class="edge">
<title>Node29&#45;&gt;Node10</title>
<path fill="none" stroke="midnightblue" d="M1920.91,-123.28C1917.76,-107.15 1910.23,-81.23 1893,-67 1867.94,-46.29 1786.11,-32.03 1726.27,-24.08"/>
<polygon fill="midnightblue" stroke="midnightblue" points="1726.48,-20.58 1716.11,-22.76 1725.58,-27.52 1726.48,-20.58"/>
</g>
<!-- Node29&#45;&gt;Node13 -->
<g id="edge44" class="edge">
<title>Node29&#45;&gt;Node13</title>
<path fill="none" stroke="midnightblue" d="M1896.46,-123.4C1878.34,-113.77 1854.46,-101.09 1836.56,-91.58"/>
<polygon fill="midnightblue" stroke="midnightblue" points="1837.77,-88.26 1827.3,-86.66 1834.49,-94.44 1837.77,-88.26"/>
</g>
<!-- Node29&#45;&gt;Node14 -->
<g id="edge46" class="edge">
<title>Node29&#45;&gt;Node14</title>
<path fill="none" stroke="midnightblue" d="M1914.89,-123.21C1904.54,-106.49 1884.95,-79.5 1860,-67 1778.43,-26.11 1541.52,-42.43 1451,-31 1441.21,-29.76 1430.83,-28.24 1420.78,-26.66"/>
<polygon fill="midnightblue" stroke="midnightblue" points="1421.29,-23.2 1410.86,-25.06 1420.17,-30.11 1421.29,-23.2"/>
</g>
<!-- Node30&#45;&gt;Node10 -->
<g id="edge49" class="edge">
<title>Node30&#45;&gt;Node10</title>
<path fill="none" stroke="midnightblue" d="M1829.98,-123.41C1861.23,-110.64 1895.52,-90.3 1877,-67 1858.36,-43.55 1783.04,-30.02 1726.12,-22.98"/>
<polygon fill="midnightblue" stroke="midnightblue" points="1726.42,-19.49 1716.08,-21.78 1725.59,-26.44 1726.42,-19.49"/>
</g>
<!-- Node30&#45;&gt;Node13 -->
<g id="edge48" class="edge">
<title>Node30&#45;&gt;Node13</title>
<path fill="none" stroke="midnightblue" d="M1793.45,-123.4C1796.62,-115.2 1800.65,-104.78 1804.04,-95.99"/>
<polygon fill="midnightblue" stroke="midnightblue" points="1807.31,-97.25 1807.65,-86.66 1800.78,-94.72 1807.31,-97.25"/>
</g>
<!-- Node30&#45;&gt;Node14 -->
<g id="edge50" class="edge">
<title>Node30&#45;&gt;Node14</title>
<path fill="none" stroke="midnightblue" d="M1812.42,-123.26C1834.44,-108.68 1860.96,-85.59 1844,-67 1814.44,-34.61 1494.49,-36.57 1451,-31 1441.21,-29.75 1430.84,-28.22 1420.78,-26.63"/>
<polygon fill="midnightblue" stroke="midnightblue" points="1421.29,-23.17 1410.86,-25.03 1420.18,-30.08 1421.29,-23.17"/>
</g>
</g>
</svg>
