<?xml version="1.0" encoding="UTF-8" standalone="no"?>
<!DOCTYPE svg PUBLIC "-//W3C//DTD SVG 1.1//EN"
 "http://www.w3.org/Graphics/SVG/1.1/DTD/svg11.dtd">
<!-- Generated by graphviz version 2.43.0 (0)
 -->
<!-- Title: /home/kali/projects/vsomeip/implementation/routing/src/eventgroupinfo.cpp Pages: 1 -->
<svg width="2128pt" height="285pt"
 viewBox="0.00 0.00 2128.04 285.00" xmlns="http://www.w3.org/2000/svg" xmlns:xlink="http://www.w3.org/1999/xlink">
<g id="graph0" class="graph" transform="scale(1 1) rotate(0) translate(4 281)">
<title>/home/kali/projects/vsomeip/implementation/routing/src/eventgroupinfo.cpp</title>
<polygon fill="white" stroke="transparent" points="-4,4 -4,-281 2124.04,-281 2124.04,4 -4,4"/>
<!-- Node1 -->
<g id="node1" class="node">
<title>Node1</title>
<g id="a_node1"><a xlink:title=" ">
<polygon fill="#bfbfbf" stroke="black" points="438.5,-235.5 438.5,-276.5 607.5,-276.5 607.5,-235.5 438.5,-235.5"/>
<text text-anchor="start" x="446.5" y="-264.5" font-family="Helvetica,sans-Serif" font-size="10.00">/home/kali/projects</text>
<text text-anchor="start" x="446.5" y="-253.5" font-family="Helvetica,sans-Serif" font-size="10.00">/vsomeip/implementation</text>
<text text-anchor="middle" x="523" y="-242.5" font-family="Helvetica,sans-Serif" font-size="10.00">/routing/src/eventgroupinfo.cpp</text>
</a>
</g>
</g>
<!-- Node2 -->
<g id="node2" class="node">
<title>Node2</title>
<g id="a_node2"><a xlink:title=" ">
<polygon fill="white" stroke="#bfbfbf" points="129,-179.5 129,-198.5 193,-198.5 193,-179.5 129,-179.5"/>
<text text-anchor="middle" x="161" y="-186.5" font-family="Helvetica,sans-Serif" font-size="10.00">algorithm</text>
</a>
</g>
</g>
<!-- Node1&#45;&gt;Node2 -->
<g id="edge1" class="edge">
<title>Node1&#45;&gt;Node2</title>
<path fill="none" stroke="midnightblue" d="M438.33,-241.26C375.91,-230.89 288.69,-215.9 203.09,-199.15"/>
<polygon fill="midnightblue" stroke="midnightblue" points="203.69,-195.7 193.2,-197.21 202.34,-202.57 203.69,-195.7"/>
</g>
<!-- Node3 -->
<g id="node3" class="node">
<title>Node3</title>
<g id="a_node3"><a xlink:title=" ">
<polygon fill="white" stroke="#bfbfbf" points="211,-179.5 211,-198.5 267,-198.5 267,-179.5 211,-179.5"/>
<text text-anchor="middle" x="239" y="-186.5" font-family="Helvetica,sans-Serif" font-size="10.00">iomanip</text>
</a>
</g>
</g>
<!-- Node1&#45;&gt;Node3 -->
<g id="edge2" class="edge">
<title>Node1&#45;&gt;Node3</title>
<path fill="none" stroke="midnightblue" d="M438.18,-235.59C384.68,-223.34 318.2,-208.13 277.19,-198.74"/>
<polygon fill="midnightblue" stroke="midnightblue" points="277.86,-195.3 267.33,-196.48 276.3,-202.13 277.86,-195.3"/>
</g>
<!-- Node4 -->
<g id="node4" class="node">
<title>Node4</title>
<g id="a_node4"><a xlink:title=" ">
<polygon fill="white" stroke="#bfbfbf" points="569,-0.5 569,-19.5 699,-19.5 699,-0.5 569,-0.5"/>
<text text-anchor="middle" x="634" y="-7.5" font-family="Helvetica,sans-Serif" font-size="10.00">vsomeip/constants.hpp</text>
</a>
</g>
</g>
<!-- Node1&#45;&gt;Node4 -->
<g id="edge3" class="edge">
<title>Node1&#45;&gt;Node4</title>
<path fill="none" stroke="midnightblue" d="M530.45,-235.44C544.38,-199.36 575.9,-120.18 608,-56 612.64,-46.72 618.36,-36.7 623.25,-28.47"/>
<polygon fill="midnightblue" stroke="midnightblue" points="626.32,-30.16 628.5,-19.79 620.33,-26.54 626.32,-30.16"/>
</g>
<!-- Node5 -->
<g id="node5" class="node">
<title>Node5</title>
<g id="a_node5"><a xlink:href="logger_8hpp.html" target="_top" xlink:title=" ">
<polygon fill="white" stroke="black" points="151.5,-62 151.5,-81 304.5,-81 304.5,-62 151.5,-62"/>
<text text-anchor="middle" x="228" y="-69" font-family="Helvetica,sans-Serif" font-size="10.00">vsomeip/internal/logger.hpp</text>
</a>
</g>
</g>
<!-- Node1&#45;&gt;Node5 -->
<g id="edge4" class="edge">
<title>Node1&#45;&gt;Node5</title>
<path fill="none" stroke="midnightblue" d="M482.82,-235.31C440.88,-214.22 373.73,-178.9 319,-143 292.43,-125.57 263.77,-102.6 245.86,-87.69"/>
<polygon fill="midnightblue" stroke="midnightblue" points="247.89,-84.83 237.98,-81.08 243.39,-90.19 247.89,-84.83"/>
</g>
<!-- Node13 -->
<g id="node13" class="node">
<title>Node13</title>
<g id="a_node13"><a xlink:href="eventgroupinfo_8hpp.html" target="_top" xlink:title=" ">
<polygon fill="white" stroke="black" points="709.5,-179.5 709.5,-198.5 868.5,-198.5 868.5,-179.5 709.5,-179.5"/>
<text text-anchor="middle" x="789" y="-186.5" font-family="Helvetica,sans-Serif" font-size="10.00">../include/eventgroupinfo.hpp</text>
</a>
</g>
</g>
<!-- Node1&#45;&gt;Node13 -->
<g id="edge12" class="edge">
<title>Node1&#45;&gt;Node13</title>
<path fill="none" stroke="midnightblue" d="M602.81,-235.5C649.03,-224.2 705.5,-210.4 744.06,-200.98"/>
<polygon fill="midnightblue" stroke="midnightblue" points="745.06,-204.34 753.94,-198.57 743.4,-197.54 745.06,-204.34"/>
</g>
<!-- Node21 -->
<g id="node21" class="node">
<title>Node21</title>
<g id="a_node21"><a xlink:href="remote__subscription_8hpp.html" target="_top" xlink:title=" ">
<polygon fill="white" stroke="black" points="855.5,-123.5 855.5,-142.5 992.5,-142.5 992.5,-123.5 855.5,-123.5"/>
<text text-anchor="middle" x="924" y="-130.5" font-family="Helvetica,sans-Serif" font-size="10.00">remote_subscription.hpp</text>
</a>
</g>
</g>
<!-- Node1&#45;&gt;Node21 -->
<g id="edge63" class="edge">
<title>Node1&#45;&gt;Node21</title>
<path fill="none" stroke="midnightblue" d="M607.87,-249.2C698.21,-241.71 834.07,-226.28 878,-199 895.75,-187.98 908.57,-167.32 916.1,-152.24"/>
<polygon fill="midnightblue" stroke="midnightblue" points="919.41,-153.42 920.46,-142.88 913.07,-150.47 919.41,-153.42"/>
</g>
<!-- Node23 -->
<g id="node23" class="node">
<title>Node23</title>
<g id="a_node23"><a xlink:href="endpoint__definition_8hpp.html" target="_top" xlink:title=" ">
<polygon fill="white" stroke="black" points="627,-56.5 627,-86.5 761,-86.5 761,-56.5 627,-56.5"/>
<text text-anchor="start" x="635" y="-74.5" font-family="Helvetica,sans-Serif" font-size="10.00">../../endpoints/include</text>
<text text-anchor="middle" x="694" y="-63.5" font-family="Helvetica,sans-Serif" font-size="10.00">/endpoint_definition.hpp</text>
</a>
</g>
</g>
<!-- Node1&#45;&gt;Node23 -->
<g id="edge64" class="edge">
<title>Node1&#45;&gt;Node23</title>
<path fill="none" stroke="midnightblue" d="M541.3,-235.47C573.5,-201.1 640.05,-130.07 673.65,-94.22"/>
<polygon fill="midnightblue" stroke="midnightblue" points="676.4,-96.41 680.68,-86.72 671.29,-91.62 676.4,-96.41"/>
</g>
<!-- Node25 -->
<g id="node25" class="node">
<title>Node25</title>
<g id="a_node25"><a xlink:href="routing_2include_2event_8hpp.html" target="_top" xlink:title=" ">
<polygon fill="white" stroke="black" points="1201.5,-123.5 1201.5,-142.5 1314.5,-142.5 1314.5,-123.5 1201.5,-123.5"/>
<text text-anchor="middle" x="1258" y="-130.5" font-family="Helvetica,sans-Serif" font-size="10.00">../include/event.hpp</text>
</a>
</g>
</g>
<!-- Node1&#45;&gt;Node25 -->
<g id="edge45" class="edge">
<title>Node1&#45;&gt;Node25</title>
<path fill="none" stroke="midnightblue" d="M607.8,-243.31C684.69,-232.51 801.1,-215.66 902,-199 1009.38,-181.27 1134.45,-157.77 1204.1,-144.43"/>
<polygon fill="midnightblue" stroke="midnightblue" points="1204.8,-147.86 1213.96,-142.54 1203.48,-140.98 1204.8,-147.86"/>
</g>
<!-- Node6 -->
<g id="node6" class="node">
<title>Node6</title>
<g id="a_node6"><a xlink:title=" ">
<polygon fill="white" stroke="#bfbfbf" points="235,-0.5 235,-19.5 285,-19.5 285,-0.5 235,-0.5"/>
<text text-anchor="middle" x="260" y="-7.5" font-family="Helvetica,sans-Serif" font-size="10.00">chrono</text>
</a>
</g>
</g>
<!-- Node5&#45;&gt;Node6 -->
<g id="edge5" class="edge">
<title>Node5&#45;&gt;Node6</title>
<path fill="none" stroke="midnightblue" d="M232.58,-61.98C237.24,-53.32 244.59,-39.65 250.51,-28.65"/>
<polygon fill="midnightblue" stroke="midnightblue" points="253.77,-29.97 255.42,-19.51 247.6,-26.66 253.77,-29.97"/>
</g>
<!-- Node7 -->
<g id="node7" class="node">
<title>Node7</title>
<g id="a_node7"><a xlink:title=" ">
<polygon fill="white" stroke="#bfbfbf" points="501,-0.5 501,-19.5 551,-19.5 551,-0.5 501,-0.5"/>
<text text-anchor="middle" x="526" y="-7.5" font-family="Helvetica,sans-Serif" font-size="10.00">cstdint</text>
</a>
</g>
</g>
<!-- Node5&#45;&gt;Node7 -->
<g id="edge6" class="edge">
<title>Node5&#45;&gt;Node7</title>
<path fill="none" stroke="midnightblue" d="M278.34,-61.95C329.43,-53.03 411.03,-38.12 490.6,-20.2"/>
<polygon fill="midnightblue" stroke="midnightblue" points="491.82,-23.51 500.8,-17.88 490.27,-16.68 491.82,-23.51"/>
</g>
<!-- Node8 -->
<g id="node8" class="node">
<title>Node8</title>
<g id="a_node8"><a xlink:title=" ">
<polygon fill="white" stroke="#bfbfbf" points="435,-0.5 435,-19.5 483,-19.5 483,-0.5 435,-0.5"/>
<text text-anchor="middle" x="459" y="-7.5" font-family="Helvetica,sans-Serif" font-size="10.00">mutex</text>
</a>
</g>
</g>
<!-- Node5&#45;&gt;Node8 -->
<g id="edge7" class="edge">
<title>Node5&#45;&gt;Node8</title>
<path fill="none" stroke="midnightblue" d="M262.38,-61.91C299.98,-52.48 362.26,-36.75 425.17,-20.19"/>
<polygon fill="midnightblue" stroke="midnightblue" points="426.09,-23.57 434.86,-17.63 424.3,-16.8 426.09,-23.57"/>
</g>
<!-- Node9 -->
<g id="node9" class="node">
<title>Node9</title>
<g id="a_node9"><a xlink:title=" ">
<polygon fill="white" stroke="#bfbfbf" points="159.5,-0.5 159.5,-19.5 216.5,-19.5 216.5,-0.5 159.5,-0.5"/>
<text text-anchor="middle" x="188" y="-7.5" font-family="Helvetica,sans-Serif" font-size="10.00">ostream</text>
</a>
</g>
</g>
<!-- Node5&#45;&gt;Node9 -->
<g id="edge8" class="edge">
<title>Node5&#45;&gt;Node9</title>
<path fill="none" stroke="midnightblue" d="M222.27,-61.98C216.33,-53.14 206.88,-39.09 199.41,-27.98"/>
<polygon fill="midnightblue" stroke="midnightblue" points="202.2,-25.86 193.72,-19.51 196.39,-29.76 202.2,-25.86"/>
</g>
<!-- Node10 -->
<g id="node10" class="node">
<title>Node10</title>
<g id="a_node10"><a xlink:title=" ">
<polygon fill="white" stroke="#bfbfbf" points="0,-0.5 0,-19.5 56,-19.5 56,-0.5 0,-0.5"/>
<text text-anchor="middle" x="28" y="-7.5" font-family="Helvetica,sans-Serif" font-size="10.00">sstream</text>
</a>
</g>
</g>
<!-- Node5&#45;&gt;Node10 -->
<g id="edge9" class="edge">
<title>Node5&#45;&gt;Node10</title>
<path fill="none" stroke="midnightblue" d="M199.34,-61.98C164.34,-51.56 105.01,-33.91 66.17,-22.36"/>
<polygon fill="midnightblue" stroke="midnightblue" points="66.86,-18.91 56.28,-19.41 64.87,-25.62 66.86,-18.91"/>
</g>
<!-- Node11 -->
<g id="node11" class="node">
<title>Node11</title>
<g id="a_node11"><a xlink:title=" ">
<polygon fill="white" stroke="#bfbfbf" points="74.5,-0.5 74.5,-19.5 141.5,-19.5 141.5,-0.5 74.5,-0.5"/>
<text text-anchor="middle" x="108" y="-7.5" font-family="Helvetica,sans-Serif" font-size="10.00">streambuf</text>
</a>
</g>
</g>
<!-- Node5&#45;&gt;Node11 -->
<g id="edge10" class="edge">
<title>Node5&#45;&gt;Node11</title>
<path fill="none" stroke="midnightblue" d="M210.81,-61.98C190.76,-52.03 157.4,-35.49 134.14,-23.96"/>
<polygon fill="midnightblue" stroke="midnightblue" points="135.68,-20.82 125.16,-19.51 132.57,-27.09 135.68,-20.82"/>
</g>
<!-- Node12 -->
<g id="node12" class="node">
<title>Node12</title>
<g id="a_node12"><a xlink:title=" ">
<polygon fill="white" stroke="#bfbfbf" points="303,-0.5 303,-19.5 417,-19.5 417,-0.5 303,-0.5"/>
<text text-anchor="middle" x="360" y="-7.5" font-family="Helvetica,sans-Serif" font-size="10.00">vsomeip/export.hpp</text>
</a>
</g>
</g>
<!-- Node5&#45;&gt;Node12 -->
<g id="edge11" class="edge">
<title>Node5&#45;&gt;Node12</title>
<path fill="none" stroke="midnightblue" d="M246.91,-61.98C269.16,-51.95 306.31,-35.2 331.93,-23.65"/>
<polygon fill="midnightblue" stroke="midnightblue" points="333.44,-26.81 341.12,-19.51 330.57,-20.43 333.44,-26.81"/>
</g>
<!-- Node13&#45;&gt;Node6 -->
<g id="edge14" class="edge">
<title>Node13&#45;&gt;Node6</title>
<path fill="none" stroke="midnightblue" d="M709.5,-184.45C647.2,-179.73 559.13,-168.71 486,-143 403.06,-113.84 316.39,-53.36 279.01,-25.55"/>
<polygon fill="midnightblue" stroke="midnightblue" points="281.09,-22.74 271,-19.53 276.89,-28.34 281.09,-22.74"/>
</g>
<!-- Node13&#45;&gt;Node8 -->
<g id="edge17" class="edge">
<title>Node13&#45;&gt;Node8</title>
<path fill="none" stroke="midnightblue" d="M720.16,-179.5C655.82,-168.31 560.55,-143.01 498,-87 480.78,-71.58 470.07,-46.77 464.33,-29.71"/>
<polygon fill="midnightblue" stroke="midnightblue" points="467.56,-28.31 461.25,-19.8 460.88,-30.39 467.56,-28.31"/>
</g>
<!-- Node13&#45;&gt;Node12 -->
<g id="edge21" class="edge">
<title>Node13&#45;&gt;Node12</title>
<path fill="none" stroke="midnightblue" d="M709.27,-182.2C630.89,-172.97 511.24,-149.02 428,-87 405.24,-70.04 384.32,-44.52 371.86,-27.81"/>
<polygon fill="midnightblue" stroke="midnightblue" points="374.56,-25.57 365.85,-19.54 368.9,-29.69 374.56,-25.57"/>
</g>
<!-- Node14 -->
<g id="node14" class="node">
<title>Node14</title>
<g id="a_node14"><a xlink:title=" ">
<polygon fill="white" stroke="#bfbfbf" points="1422,-0.5 1422,-19.5 1472,-19.5 1472,-0.5 1422,-0.5"/>
<text text-anchor="middle" x="1447" y="-7.5" font-family="Helvetica,sans-Serif" font-size="10.00">atomic</text>
</a>
</g>
</g>
<!-- Node13&#45;&gt;Node14 -->
<g id="edge13" class="edge">
<title>Node13&#45;&gt;Node14</title>
<path fill="none" stroke="midnightblue" d="M868.72,-188.06C1141.94,-187.46 2028.29,-178.42 2113,-87 2122.36,-76.89 2122.41,-66.07 2113,-56 2102.13,-44.37 1618.97,-19.54 1482.54,-12.75"/>
<polygon fill="midnightblue" stroke="midnightblue" points="1482.39,-9.24 1472.23,-12.24 1482.05,-16.23 1482.39,-9.24"/>
</g>
<!-- Node15 -->
<g id="node15" class="node">
<title>Node15</title>
<g id="a_node15"><a xlink:title=" ">
<polygon fill="white" stroke="#bfbfbf" points="1103,-62 1103,-81 1135,-81 1135,-62 1103,-62"/>
<text text-anchor="middle" x="1119" y="-69" font-family="Helvetica,sans-Serif" font-size="10.00">list</text>
</a>
</g>
</g>
<!-- Node13&#45;&gt;Node15 -->
<g id="edge15" class="edge">
<title>Node13&#45;&gt;Node15</title>
<path fill="none" stroke="midnightblue" d="M868.79,-184.71C945.8,-180.02 1055.53,-168.91 1089,-143 1105.24,-130.43 1112.8,-107.38 1116.25,-91.07"/>
<polygon fill="midnightblue" stroke="midnightblue" points="1119.72,-91.52 1118.03,-81.06 1112.83,-90.29 1119.72,-91.52"/>
</g>
<!-- Node16 -->
<g id="node16" class="node">
<title>Node16</title>
<g id="a_node16"><a xlink:title=" ">
<polygon fill="white" stroke="#bfbfbf" points="717,-0.5 717,-19.5 775,-19.5 775,-0.5 717,-0.5"/>
<text text-anchor="middle" x="746" y="-7.5" font-family="Helvetica,sans-Serif" font-size="10.00">memory</text>
</a>
</g>
</g>
<!-- Node13&#45;&gt;Node16 -->
<g id="edge16" class="edge">
<title>Node13&#45;&gt;Node16</title>
<path fill="none" stroke="midnightblue" d="M755.38,-179.44C714.22,-166.92 646.49,-139.21 618,-87 611.4,-74.91 610.04,-67.24 618,-56 623.41,-48.36 671.51,-32.84 707.16,-22.19"/>
<polygon fill="midnightblue" stroke="midnightblue" points="708.24,-25.51 716.84,-19.32 706.26,-18.8 708.24,-25.51"/>
</g>
<!-- Node17 -->
<g id="node17" class="node">
<title>Node17</title>
<g id="a_node17"><a xlink:title=" ">
<polygon fill="white" stroke="#bfbfbf" points="1015,-62 1015,-81 1047,-81 1047,-62 1015,-62"/>
<text text-anchor="middle" x="1031" y="-69" font-family="Helvetica,sans-Serif" font-size="10.00">set</text>
</a>
</g>
</g>
<!-- Node13&#45;&gt;Node17 -->
<g id="edge18" class="edge">
<title>Node13&#45;&gt;Node17</title>
<path fill="none" stroke="midnightblue" d="M865.28,-179.47C917.65,-172.22 981.31,-160.23 1002,-143 1017.53,-130.06 1024.86,-107.47 1028.23,-91.34"/>
<polygon fill="midnightblue" stroke="midnightblue" points="1031.7,-91.87 1030,-81.41 1024.8,-90.65 1031.7,-91.87"/>
</g>
<!-- Node18 -->
<g id="node18" class="node">
<title>Node18</title>
<g id="a_node18"><a xlink:title=" ">
<polygon fill="white" stroke="#bfbfbf" points="713.5,-123.5 713.5,-142.5 760.5,-142.5 760.5,-123.5 713.5,-123.5"/>
<text text-anchor="middle" x="737" y="-130.5" font-family="Helvetica,sans-Serif" font-size="10.00">vector</text>
</a>
</g>
</g>
<!-- Node13&#45;&gt;Node18 -->
<g id="edge19" class="edge">
<title>Node13&#45;&gt;Node18</title>
<path fill="none" stroke="midnightblue" d="M780.41,-179.08C772.84,-171.22 761.62,-159.57 752.49,-150.08"/>
<polygon fill="midnightblue" stroke="midnightblue" points="754.88,-147.53 745.43,-142.75 749.84,-152.38 754.88,-147.53"/>
</g>
<!-- Node19 -->
<g id="node19" class="node">
<title>Node19</title>
<g id="a_node19"><a xlink:title=" ">
<polygon fill="white" stroke="#bfbfbf" points="793.5,-0.5 793.5,-19.5 934.5,-19.5 934.5,-0.5 793.5,-0.5"/>
<text text-anchor="middle" x="864" y="-7.5" font-family="Helvetica,sans-Serif" font-size="10.00">boost/asio/ip/address.hpp</text>
</a>
</g>
</g>
<!-- Node13&#45;&gt;Node19 -->
<g id="edge20" class="edge">
<title>Node13&#45;&gt;Node19</title>
<path fill="none" stroke="midnightblue" d="M788.27,-179.29C786.81,-157.1 785.48,-97.29 809,-56 816.18,-43.4 828.36,-32.88 839.44,-25.19"/>
<polygon fill="midnightblue" stroke="midnightblue" points="841.5,-28.03 847.97,-19.64 837.68,-22.16 841.5,-28.03"/>
</g>
<!-- Node20 -->
<g id="node20" class="node">
<title>Node20</title>
<g id="a_node20"><a xlink:title=" ">
<polygon fill="white" stroke="#bfbfbf" points="1008.5,-0.5 1008.5,-19.5 1167.5,-19.5 1167.5,-0.5 1008.5,-0.5"/>
<text text-anchor="middle" x="1088" y="-7.5" font-family="Helvetica,sans-Serif" font-size="10.00">vsomeip/primitive_types.hpp</text>
</a>
</g>
</g>
<!-- Node13&#45;&gt;Node20 -->
<g id="edge22" class="edge">
<title>Node13&#45;&gt;Node20</title>
<path fill="none" stroke="midnightblue" d="M868.71,-179.74C926.42,-172.47 998.45,-160.31 1023,-143 1061.52,-115.84 1078.28,-59.26 1084.64,-29.78"/>
<polygon fill="midnightblue" stroke="midnightblue" points="1088.14,-30.09 1086.64,-19.6 1081.27,-28.74 1088.14,-30.09"/>
</g>
<!-- Node13&#45;&gt;Node21 -->
<g id="edge23" class="edge">
<title>Node13&#45;&gt;Node21</title>
<path fill="none" stroke="midnightblue" d="M810.39,-179.44C832.71,-170.52 867.9,-156.44 893.21,-146.32"/>
<polygon fill="midnightblue" stroke="midnightblue" points="894.72,-149.48 902.71,-142.52 892.12,-142.98 894.72,-149.48"/>
</g>
<!-- Node24 -->
<g id="node24" class="node">
<title>Node24</title>
<g id="a_node24"><a xlink:href="types_8hpp.html" target="_top" xlink:title=" ">
<polygon fill="white" stroke="black" points="817.5,-62 817.5,-81 882.5,-81 882.5,-62 817.5,-62"/>
<text text-anchor="middle" x="850" y="-69" font-family="Helvetica,sans-Serif" font-size="10.00">types.hpp</text>
</a>
</g>
</g>
<!-- Node13&#45;&gt;Node24 -->
<g id="edge44" class="edge">
<title>Node13&#45;&gt;Node24</title>
<path fill="none" stroke="midnightblue" d="M793.58,-179.32C803.52,-160.51 827.21,-115.65 840.52,-90.46"/>
<polygon fill="midnightblue" stroke="midnightblue" points="843.79,-91.76 845.36,-81.28 837.6,-88.49 843.79,-91.76"/>
</g>
<!-- Node21&#45;&gt;Node8 -->
<g id="edge26" class="edge">
<title>Node21&#45;&gt;Node8</title>
<path fill="none" stroke="midnightblue" d="M855.28,-128.61C761.97,-123.19 600.67,-110.68 547,-87 516.53,-73.55 488.78,-45.87 472.9,-27.88"/>
<polygon fill="midnightblue" stroke="midnightblue" points="475.26,-25.26 466.1,-19.94 469.95,-29.81 475.26,-25.26"/>
</g>
<!-- Node21&#45;&gt;Node12 -->
<g id="edge43" class="edge">
<title>Node21&#45;&gt;Node12</title>
<path fill="none" stroke="midnightblue" d="M855.25,-128.06C752.19,-121.59 562.83,-107.36 498,-87 452.95,-72.85 405.9,-43.22 380.04,-25.43"/>
<polygon fill="midnightblue" stroke="midnightblue" points="382.01,-22.53 371.81,-19.67 378,-28.27 382.01,-22.53"/>
</g>
<!-- Node21&#45;&gt;Node14 -->
<g id="edge24" class="edge">
<title>Node21&#45;&gt;Node14</title>
<path fill="none" stroke="midnightblue" d="M933.42,-123.4C943.31,-114.37 959.29,-99.73 973,-87 987.74,-73.31 987.69,-64.35 1006,-56 1078.24,-23.05 1320.51,-13.98 1411.8,-11.7"/>
<polygon fill="midnightblue" stroke="midnightblue" points="1412,-15.2 1421.91,-11.46 1411.83,-8.2 1412,-15.2"/>
</g>
<!-- Node21&#45;&gt;Node17 -->
<g id="edge27" class="edge">
<title>Node21&#45;&gt;Node17</title>
<path fill="none" stroke="midnightblue" d="M939.33,-123.48C956.97,-113.67 986.16,-97.43 1006.86,-85.92"/>
<polygon fill="midnightblue" stroke="midnightblue" points="1008.66,-88.93 1015.7,-81.01 1005.26,-82.81 1008.66,-88.93"/>
</g>
<!-- Node21&#45;&gt;Node20 -->
<g id="edge28" class="edge">
<title>Node21&#45;&gt;Node20</title>
<path fill="none" stroke="midnightblue" d="M927.49,-123.22C934.1,-107.6 949.91,-74.88 973,-56 992.28,-40.23 1017.76,-29.5 1039.83,-22.49"/>
<polygon fill="midnightblue" stroke="midnightblue" points="1041.12,-25.76 1049.69,-19.53 1039.11,-19.05 1041.12,-25.76"/>
</g>
<!-- Node22 -->
<g id="node22" class="node">
<title>Node22</title>
<g id="a_node22"><a xlink:title=" ">
<polygon fill="white" stroke="#bfbfbf" points="953,-0.5 953,-19.5 991,-19.5 991,-0.5 953,-0.5"/>
<text text-anchor="middle" x="972" y="-7.5" font-family="Helvetica,sans-Serif" font-size="10.00">map</text>
</a>
</g>
</g>
<!-- Node21&#45;&gt;Node22 -->
<g id="edge25" class="edge">
<title>Node21&#45;&gt;Node22</title>
<path fill="none" stroke="midnightblue" d="M923.77,-123.15C923.71,-108.52 924.98,-78.68 935,-56 939.78,-45.18 947.92,-34.85 955.35,-26.82"/>
<polygon fill="midnightblue" stroke="midnightblue" points="957.9,-29.22 962.39,-19.63 952.89,-24.32 957.9,-29.22"/>
</g>
<!-- Node21&#45;&gt;Node23 -->
<g id="edge29" class="edge">
<title>Node21&#45;&gt;Node23</title>
<path fill="none" stroke="midnightblue" d="M891.05,-123.48C856.48,-114.53 801.26,-100.25 758.07,-89.07"/>
<polygon fill="midnightblue" stroke="midnightblue" points="758.76,-85.64 748.21,-86.52 757.01,-92.42 758.76,-85.64"/>
</g>
<!-- Node21&#45;&gt;Node24 -->
<g id="edge37" class="edge">
<title>Node21&#45;&gt;Node24</title>
<path fill="none" stroke="midnightblue" d="M913.4,-123.48C901.75,-114.11 882.81,-98.88 868.67,-87.51"/>
<polygon fill="midnightblue" stroke="midnightblue" points="870.57,-84.55 860.58,-81.01 866.18,-90 870.57,-84.55"/>
</g>
<!-- Node23&#45;&gt;Node8 -->
<g id="edge33" class="edge">
<title>Node23&#45;&gt;Node8</title>
<path fill="none" stroke="midnightblue" d="M636.45,-56.46C598.28,-47.06 546.84,-34.25 492.88,-20.19"/>
<polygon fill="midnightblue" stroke="midnightblue" points="493.69,-16.79 483.13,-17.65 491.93,-23.56 493.69,-16.79"/>
</g>
<!-- Node23&#45;&gt;Node12 -->
<g id="edge36" class="edge">
<title>Node23&#45;&gt;Node12</title>
<path fill="none" stroke="midnightblue" d="M626.81,-58.53C565.62,-47.63 476.19,-31.7 418.04,-21.34"/>
<polygon fill="midnightblue" stroke="midnightblue" points="418.38,-17.84 407.92,-19.54 417.15,-24.74 418.38,-17.84"/>
</g>
<!-- Node23&#45;&gt;Node14 -->
<g id="edge32" class="edge">
<title>Node23&#45;&gt;Node14</title>
<path fill="none" stroke="midnightblue" d="M761.12,-61.41C776.82,-59.46 793.48,-57.52 809,-56 1038.27,-33.48 1314.97,-17.9 1411.63,-12.81"/>
<polygon fill="midnightblue" stroke="midnightblue" points="1411.93,-16.3 1421.73,-12.28 1411.56,-9.31 1411.93,-16.3"/>
</g>
<!-- Node23&#45;&gt;Node16 -->
<g id="edge31" class="edge">
<title>Node23&#45;&gt;Node16</title>
<path fill="none" stroke="midnightblue" d="M706.32,-56.4C713.96,-47.66 723.79,-36.41 731.76,-27.3"/>
<polygon fill="midnightblue" stroke="midnightblue" points="734.49,-29.49 738.43,-19.66 729.22,-24.88 734.49,-29.49"/>
</g>
<!-- Node23&#45;&gt;Node19 -->
<g id="edge34" class="edge">
<title>Node23&#45;&gt;Node19</title>
<path fill="none" stroke="midnightblue" d="M734.29,-56.4C763.32,-46.24 802.08,-32.67 829.65,-23.02"/>
<polygon fill="midnightblue" stroke="midnightblue" points="830.98,-26.26 839.26,-19.66 828.67,-19.66 830.98,-26.26"/>
</g>
<!-- Node23&#45;&gt;Node20 -->
<g id="edge35" class="edge">
<title>Node23&#45;&gt;Node20</title>
<path fill="none" stroke="midnightblue" d="M761.28,-60.34C834.02,-49.36 949.22,-31.96 1021.61,-21.03"/>
<polygon fill="midnightblue" stroke="midnightblue" points="1022.16,-24.48 1031.53,-19.53 1021.12,-17.56 1022.16,-24.48"/>
</g>
<!-- Node23&#45;&gt;Node22 -->
<g id="edge30" class="edge">
<title>Node23&#45;&gt;Node22</title>
<path fill="none" stroke="midnightblue" d="M761.05,-59.06C809.28,-50.34 876.01,-37.3 942.93,-20.06"/>
<polygon fill="midnightblue" stroke="midnightblue" points="944.01,-23.39 952.8,-17.48 942.24,-16.62 944.01,-23.39"/>
</g>
<!-- Node24&#45;&gt;Node4 -->
<g id="edge42" class="edge">
<title>Node24&#45;&gt;Node4</title>
<path fill="none" stroke="midnightblue" d="M819.05,-61.98C781.12,-51.53 716.72,-33.79 674.78,-22.23"/>
<polygon fill="midnightblue" stroke="midnightblue" points="675.46,-18.79 664.89,-19.51 673.6,-25.54 675.46,-18.79"/>
</g>
<!-- Node24&#45;&gt;Node16 -->
<g id="edge39" class="edge">
<title>Node24&#45;&gt;Node16</title>
<path fill="none" stroke="midnightblue" d="M835.1,-61.98C818.03,-52.21 789.84,-36.08 769.74,-24.58"/>
<polygon fill="midnightblue" stroke="midnightblue" points="771.29,-21.44 760.87,-19.51 767.81,-27.51 771.29,-21.44"/>
</g>
<!-- Node24&#45;&gt;Node19 -->
<g id="edge40" class="edge">
<title>Node24&#45;&gt;Node19</title>
<path fill="none" stroke="midnightblue" d="M852.01,-61.98C854,-53.49 857.13,-40.2 859.69,-29.32"/>
<polygon fill="midnightblue" stroke="midnightblue" points="863.11,-30.04 862,-19.51 856.3,-28.44 863.11,-30.04"/>
</g>
<!-- Node24&#45;&gt;Node20 -->
<g id="edge41" class="edge">
<title>Node24&#45;&gt;Node20</title>
<path fill="none" stroke="midnightblue" d="M882.59,-62.35C924.46,-51.88 997.29,-33.68 1044.03,-21.99"/>
<polygon fill="midnightblue" stroke="midnightblue" points="1045.03,-25.35 1053.88,-19.53 1043.33,-18.56 1045.03,-25.35"/>
</g>
<!-- Node24&#45;&gt;Node22 -->
<g id="edge38" class="edge">
<title>Node24&#45;&gt;Node22</title>
<path fill="none" stroke="midnightblue" d="M867.48,-61.98C887.86,-52.03 921.78,-35.49 945.42,-23.96"/>
<polygon fill="midnightblue" stroke="midnightblue" points="947.1,-27.04 954.55,-19.51 944.03,-20.75 947.1,-27.04"/>
</g>
<!-- Node25&#45;&gt;Node8 -->
<g id="edge49" class="edge">
<title>Node25&#45;&gt;Node8</title>
<path fill="none" stroke="midnightblue" d="M1201.44,-129.24C1055.47,-121.93 673.57,-101.67 618,-87 566.21,-73.33 510.9,-42.82 481.1,-24.89"/>
<polygon fill="midnightblue" stroke="midnightblue" points="482.72,-21.78 472.36,-19.55 479.07,-27.75 482.72,-21.78"/>
</g>
<!-- Node25&#45;&gt;Node14 -->
<g id="edge51" class="edge">
<title>Node25&#45;&gt;Node14</title>
<path fill="none" stroke="midnightblue" d="M1314.53,-129.47C1416.24,-124.34 1621.55,-111.1 1643,-87 1690.44,-33.69 1551.06,-17.48 1482.57,-12.79"/>
<polygon fill="midnightblue" stroke="midnightblue" points="1482.43,-9.28 1472.23,-12.14 1481.99,-16.26 1482.43,-9.28"/>
</g>
<!-- Node25&#45;&gt;Node15 -->
<g id="edge46" class="edge">
<title>Node25&#45;&gt;Node15</title>
<path fill="none" stroke="midnightblue" d="M1236.12,-123.41C1214,-114.62 1178.9,-100.38 1149,-87 1147.44,-86.3 1145.84,-85.57 1144.23,-84.82"/>
<polygon fill="midnightblue" stroke="midnightblue" points="1145.65,-81.62 1135.11,-80.5 1142.65,-87.95 1145.65,-81.62"/>
</g>
<!-- Node25&#45;&gt;Node16 -->
<g id="edge48" class="edge">
<title>Node25&#45;&gt;Node16</title>
<path fill="none" stroke="midnightblue" d="M1239.53,-123.38C1222.58,-115.1 1197.14,-101.7 1177,-87 1160.75,-75.13 1162.32,-64.33 1144,-56 1001.04,9.06 945.51,-43.82 785.5,-19.79"/>
<polygon fill="midnightblue" stroke="midnightblue" points="785.73,-16.29 775.31,-18.18 784.64,-23.2 785.73,-16.29"/>
</g>
<!-- Node25&#45;&gt;Node17 -->
<g id="edge50" class="edge">
<title>Node25&#45;&gt;Node17</title>
<path fill="none" stroke="midnightblue" d="M1225.48,-123.48C1180.14,-111.59 1098.84,-90.28 1057.18,-79.36"/>
<polygon fill="midnightblue" stroke="midnightblue" points="1057.81,-75.91 1047.25,-76.76 1056.03,-82.68 1057.81,-75.91"/>
</g>
<!-- Node25&#45;&gt;Node19 -->
<g id="edge53" class="edge">
<title>Node25&#45;&gt;Node19</title>
<path fill="none" stroke="midnightblue" d="M1250.06,-123.34C1233.25,-105.21 1194.21,-64.27 1177,-56 1166.4,-50.9 1029.69,-32.46 940.49,-20.83"/>
<polygon fill="midnightblue" stroke="midnightblue" points="940.77,-17.33 930.4,-19.51 939.86,-24.27 940.77,-17.33"/>
</g>
<!-- Node25&#45;&gt;Node20 -->
<g id="edge55" class="edge">
<title>Node25&#45;&gt;Node20</title>
<path fill="none" stroke="midnightblue" d="M1260.34,-123.33C1263.95,-107.9 1268.9,-75.45 1253,-56 1240.4,-40.58 1195.71,-28.97 1156.01,-21.4"/>
<polygon fill="midnightblue" stroke="midnightblue" points="1156.52,-17.94 1146.05,-19.57 1155.25,-24.82 1156.52,-17.94"/>
</g>
<!-- Node25&#45;&gt;Node22 -->
<g id="edge47" class="edge">
<title>Node25&#45;&gt;Node22</title>
<path fill="none" stroke="midnightblue" d="M1255.75,-123.26C1251.11,-107.1 1238.84,-72.7 1215,-56 1138.2,-2.22 1096.86,-40.25 1000.94,-19.81"/>
<polygon fill="midnightblue" stroke="midnightblue" points="1001.7,-16.39 991.18,-17.57 1000.14,-23.22 1001.7,-16.39"/>
</g>
<!-- Node26 -->
<g id="node26" class="node">
<title>Node26</title>
<g id="a_node26"><a xlink:title=" ">
<polygon fill="white" stroke="#bfbfbf" points="1964,-62 1964,-81 2104,-81 2104,-62 1964,-62"/>
<text text-anchor="middle" x="2034" y="-69" font-family="Helvetica,sans-Serif" font-size="10.00">boost/asio/io_service.hpp</text>
</a>
</g>
</g>
<!-- Node25&#45;&gt;Node26 -->
<g id="edge52" class="edge">
<title>Node25&#45;&gt;Node26</title>
<path fill="none" stroke="midnightblue" d="M1314.68,-130.59C1433.7,-127.13 1718.23,-116.27 1955,-87 1964.05,-85.88 1973.62,-84.39 1982.87,-82.79"/>
<polygon fill="midnightblue" stroke="midnightblue" points="1983.51,-86.23 1992.73,-81.02 1982.27,-79.34 1983.51,-86.23"/>
</g>
<!-- Node27 -->
<g id="node27" class="node">
<title>Node27</title>
<g id="a_node27"><a xlink:title=" ">
<polygon fill="white" stroke="#bfbfbf" points="1305.5,-62 1305.5,-81 1460.5,-81 1460.5,-62 1305.5,-62"/>
<text text-anchor="middle" x="1383" y="-69" font-family="Helvetica,sans-Serif" font-size="10.00">boost/asio/steady_timer.hpp</text>
</a>
</g>
</g>
<!-- Node25&#45;&gt;Node27 -->
<g id="edge54" class="edge">
<title>Node25&#45;&gt;Node27</title>
<path fill="none" stroke="midnightblue" d="M1275.91,-123.48C1296.89,-113.49 1331.85,-96.85 1356.09,-85.31"/>
<polygon fill="midnightblue" stroke="midnightblue" points="1357.6,-88.47 1365.12,-81.01 1354.59,-82.15 1357.6,-88.47"/>
</g>
<!-- Node28 -->
<g id="node28" class="node">
<title>Node28</title>
<g id="a_node28"><a xlink:title=" ">
<polygon fill="white" stroke="#bfbfbf" points="1478.5,-62 1478.5,-81 1633.5,-81 1633.5,-62 1478.5,-62"/>
<text text-anchor="middle" x="1556" y="-69" font-family="Helvetica,sans-Serif" font-size="10.00">vsomeip/function_types.hpp</text>
</a>
</g>
</g>
<!-- Node25&#45;&gt;Node28 -->
<g id="edge56" class="edge">
<title>Node25&#45;&gt;Node28</title>
<path fill="none" stroke="midnightblue" d="M1300.7,-123.48C1354.14,-112.8 1445.65,-94.53 1503.37,-83.01"/>
<polygon fill="midnightblue" stroke="midnightblue" points="1504.26,-86.4 1513.38,-81.01 1502.89,-79.53 1504.26,-86.4"/>
</g>
<!-- Node29 -->
<g id="node29" class="node">
<title>Node29</title>
<g id="a_node29"><a xlink:title=" ">
<polygon fill="white" stroke="#bfbfbf" points="1824,-62 1824,-81 1946,-81 1946,-62 1824,-62"/>
<text text-anchor="middle" x="1885" y="-69" font-family="Helvetica,sans-Serif" font-size="10.00">vsomeip/payload.hpp</text>
</a>
</g>
</g>
<!-- Node25&#45;&gt;Node29 -->
<g id="edge57" class="edge">
<title>Node25&#45;&gt;Node29</title>
<path fill="none" stroke="midnightblue" d="M1314.79,-129.73C1415.82,-125.18 1633.26,-113.06 1815,-87 1822.52,-85.92 1830.44,-84.53 1838.14,-83.04"/>
<polygon fill="midnightblue" stroke="midnightblue" points="1838.98,-86.44 1848.1,-81.03 1837.6,-79.58 1838.98,-86.44"/>
</g>
<!-- Node30 -->
<g id="node30" class="node">
<title>Node30</title>
<g id="a_node30"><a xlink:href="internal_8hpp.html" target="_top" xlink:title=" ">
<polygon fill="white" stroke="black" points="1690,-56.5 1690,-86.5 1806,-86.5 1806,-56.5 1690,-56.5"/>
<text text-anchor="start" x="1698" y="-74.5" font-family="Helvetica,sans-Serif" font-size="10.00">../../configuration</text>
<text text-anchor="middle" x="1748" y="-63.5" font-family="Helvetica,sans-Serif" font-size="10.00">/include/internal.hpp</text>
</a>
</g>
</g>
<!-- Node25&#45;&gt;Node30 -->
<g id="edge58" class="edge">
<title>Node25&#45;&gt;Node30</title>
<path fill="none" stroke="midnightblue" d="M1314.67,-127.56C1395.24,-120.86 1547.42,-106.83 1676,-87 1677.28,-86.8 1678.56,-86.6 1679.86,-86.39"/>
<polygon fill="midnightblue" stroke="midnightblue" points="1680.65,-89.8 1689.92,-84.67 1679.48,-82.9 1680.65,-89.8"/>
</g>
<!-- Node30&#45;&gt;Node7 -->
<g id="edge59" class="edge">
<title>Node30&#45;&gt;Node7</title>
<path fill="none" stroke="midnightblue" d="M1689.8,-61.37C1674.61,-59.28 1658.22,-57.3 1643,-56 1166.43,-15.28 1038.22,-89.04 561.02,-19.78"/>
<polygon fill="midnightblue" stroke="midnightblue" points="561.52,-16.31 551.12,-18.32 560.51,-23.24 561.52,-16.31"/>
</g>
<!-- Node30&#45;&gt;Node20 -->
<g id="edge61" class="edge">
<title>Node30&#45;&gt;Node20</title>
<path fill="none" stroke="midnightblue" d="M1689.76,-61.86C1674.56,-59.77 1658.18,-57.66 1643,-56 1479.22,-38.07 1287.53,-24.07 1177.68,-16.71"/>
<polygon fill="midnightblue" stroke="midnightblue" points="1177.84,-13.21 1167.63,-16.04 1177.38,-20.2 1177.84,-13.21"/>
</g>
<!-- Node31 -->
<g id="node31" class="node">
<title>Node31</title>
<g id="a_node31"><a xlink:title=" ">
<polygon fill="white" stroke="#bfbfbf" points="1762,-0.5 1762,-19.5 1806,-19.5 1806,-0.5 1762,-0.5"/>
<text text-anchor="middle" x="1784" y="-7.5" font-family="Helvetica,sans-Serif" font-size="10.00">limits</text>
</a>
</g>
</g>
<!-- Node30&#45;&gt;Node31 -->
<g id="edge60" class="edge">
<title>Node30&#45;&gt;Node31</title>
<path fill="none" stroke="midnightblue" d="M1756.53,-56.4C1761.6,-48.02 1768.07,-37.33 1773.46,-28.42"/>
<polygon fill="midnightblue" stroke="midnightblue" points="1776.58,-30.03 1778.76,-19.66 1770.59,-26.4 1776.58,-30.03"/>
</g>
<!-- Node32 -->
<g id="node32" class="node">
<title>Node32</title>
<g id="a_node32"><a xlink:title=" ">
<polygon fill="white" stroke="#bfbfbf" points="1680.5,-0.5 1680.5,-19.5 1743.5,-19.5 1743.5,-0.5 1680.5,-0.5"/>
<text text-anchor="middle" x="1712" y="-7.5" font-family="Helvetica,sans-Serif" font-size="10.00">pthread.h</text>
</a>
</g>
</g>
<!-- Node30&#45;&gt;Node32 -->
<g id="edge62" class="edge">
<title>Node30&#45;&gt;Node32</title>
<path fill="none" stroke="midnightblue" d="M1739.47,-56.4C1734.4,-48.02 1727.93,-37.33 1722.54,-28.42"/>
<polygon fill="midnightblue" stroke="midnightblue" points="1725.41,-26.4 1717.24,-19.66 1719.42,-30.03 1725.41,-26.4"/>
</g>
</g>
</svg>
