<?xml version="1.0" encoding="UTF-8" standalone="no"?>
<!DOCTYPE svg PUBLIC "-//W3C//DTD SVG 1.1//EN"
 "http://www.w3.org/Graphics/SVG/1.1/DTD/svg11.dtd">
<!-- Generated by graphviz version 2.43.0 (0)
 -->
<!-- Title: /home/kali/projects/vsomeip/implementation/service_discovery/include/eventgroupentry_impl.hpp Pages: 1 -->
<svg width="1332pt" height="307pt"
 viewBox="0.00 0.00 1331.97 307.00" xmlns="http://www.w3.org/2000/svg" xmlns:xlink="http://www.w3.org/1999/xlink">
<g id="graph0" class="graph" transform="scale(1 1) rotate(0) translate(4 303)">
<title>/home/kali/projects/vsomeip/implementation/service_discovery/include/eventgroupentry_impl.hpp</title>
<polygon fill="white" stroke="transparent" points="-4,4 -4,-303 1327.97,-303 1327.97,4 -4,4"/>
<!-- Node1 -->
<g id="node1" class="node">
<title>Node1</title>
<g id="a_node1"><a xlink:title=" ">
<polygon fill="#bfbfbf" stroke="black" points="595.97,-246.5 595.97,-298.5 744.97,-298.5 744.97,-246.5 595.97,-246.5"/>
<text text-anchor="start" x="603.97" y="-286.5" font-family="Helvetica,sans-Serif" font-size="10.00">/home/kali/projects</text>
<text text-anchor="start" x="603.97" y="-275.5" font-family="Helvetica,sans-Serif" font-size="10.00">/vsomeip/implementation</text>
<text text-anchor="start" x="603.97" y="-264.5" font-family="Helvetica,sans-Serif" font-size="10.00">/service_discovery/include</text>
<text text-anchor="middle" x="670.47" y="-253.5" font-family="Helvetica,sans-Serif" font-size="10.00">/eventgroupentry_impl.hpp</text>
</a>
</g>
</g>
<!-- Node2 -->
<g id="node2" class="node">
<title>Node2</title>
<g id="a_node2"><a xlink:href="entry__impl_8hpp.html" target="_top" xlink:title=" ">
<polygon fill="white" stroke="black" points="248.47,-190.5 248.47,-209.5 338.47,-209.5 338.47,-190.5 248.47,-190.5"/>
<text text-anchor="middle" x="293.47" y="-197.5" font-family="Helvetica,sans-Serif" font-size="10.00">entry_impl.hpp</text>
</a>
</g>
</g>
<!-- Node1&#45;&gt;Node2 -->
<g id="edge1" class="edge">
<title>Node1&#45;&gt;Node2</title>
<path fill="none" stroke="midnightblue" d="M595.53,-257.49C522.77,-243.88 414,-223.54 348.76,-211.34"/>
<polygon fill="midnightblue" stroke="midnightblue" points="349.15,-207.85 338.68,-209.45 347.87,-214.73 349.15,-207.85"/>
</g>
<!-- Node10 -->
<g id="node10" class="node">
<title>Node10</title>
<g id="a_node10"><a xlink:href="endpoint__definition_8hpp.html" target="_top" xlink:title=" ">
<polygon fill="white" stroke="black" points="645.47,-123.5 645.47,-153.5 779.47,-153.5 779.47,-123.5 645.47,-123.5"/>
<text text-anchor="start" x="653.47" y="-141.5" font-family="Helvetica,sans-Serif" font-size="10.00">../../endpoints/include</text>
<text text-anchor="middle" x="712.47" y="-130.5" font-family="Helvetica,sans-Serif" font-size="10.00">/endpoint_definition.hpp</text>
</a>
</g>
</g>
<!-- Node1&#45;&gt;Node10 -->
<g id="edge9" class="edge">
<title>Node1&#45;&gt;Node10</title>
<path fill="none" stroke="midnightblue" d="M675.51,-246.22C679.03,-229.96 684.22,-208.5 690.47,-190 693.5,-181.01 697.49,-171.41 701.23,-163.02"/>
<polygon fill="midnightblue" stroke="midnightblue" points="704.46,-164.38 705.45,-153.83 698.1,-161.46 704.46,-164.38"/>
</g>
<!-- Node16 -->
<g id="node16" class="node">
<title>Node16</title>
<g id="a_node16"><a xlink:href="service__discovery_2include_2message__impl_8hpp.html" target="_top" xlink:title=" ">
<polygon fill="white" stroke="black" points="698.97,-190.5 698.97,-209.5 807.97,-209.5 807.97,-190.5 698.97,-190.5"/>
<text text-anchor="middle" x="753.47" y="-197.5" font-family="Helvetica,sans-Serif" font-size="10.00">message_impl.hpp</text>
</a>
</g>
</g>
<!-- Node1&#45;&gt;Node16 -->
<g id="edge17" class="edge">
<title>Node1&#45;&gt;Node16</title>
<path fill="none" stroke="midnightblue" d="M699.96,-246.45C711.76,-236.43 724.97,-225.21 735.31,-216.42"/>
<polygon fill="midnightblue" stroke="midnightblue" points="737.88,-218.84 743.23,-209.7 733.34,-213.5 737.88,-218.84"/>
</g>
<!-- Node3 -->
<g id="node3" class="node">
<title>Node3</title>
<g id="a_node3"><a xlink:title=" ">
<polygon fill="white" stroke="#bfbfbf" points="372.47,-67.5 372.47,-86.5 430.47,-86.5 430.47,-67.5 372.47,-67.5"/>
<text text-anchor="middle" x="401.47" y="-74.5" font-family="Helvetica,sans-Serif" font-size="10.00">memory</text>
</a>
</g>
</g>
<!-- Node2&#45;&gt;Node3 -->
<g id="edge2" class="edge">
<title>Node2&#45;&gt;Node3</title>
<path fill="none" stroke="midnightblue" d="M315.01,-190.45C331.51,-182.96 353.85,-170.67 368.47,-154 382.96,-137.48 391.9,-113.62 396.76,-97.05"/>
<polygon fill="midnightblue" stroke="midnightblue" points="400.27,-97.5 399.49,-86.93 393.51,-95.68 400.27,-97.5"/>
</g>
<!-- Node4 -->
<g id="node4" class="node">
<title>Node4</title>
<g id="a_node4"><a xlink:title=" ">
<polygon fill="white" stroke="#bfbfbf" points="415.97,-129 415.97,-148 462.97,-148 462.97,-129 415.97,-129"/>
<text text-anchor="middle" x="439.47" y="-136" font-family="Helvetica,sans-Serif" font-size="10.00">vector</text>
</a>
</g>
</g>
<!-- Node2&#45;&gt;Node4 -->
<g id="edge3" class="edge">
<title>Node2&#45;&gt;Node4</title>
<path fill="none" stroke="midnightblue" d="M314.39,-190.48C339.21,-180.36 380.81,-163.4 409.16,-151.85"/>
<polygon fill="midnightblue" stroke="midnightblue" points="410.65,-155.02 418.59,-148.01 408.01,-148.54 410.65,-155.02"/>
</g>
<!-- Node5 -->
<g id="node5" class="node">
<title>Node5</title>
<g id="a_node5"><a xlink:title=" ">
<polygon fill="white" stroke="#bfbfbf" points="378.97,-6 378.97,-25 537.97,-25 537.97,-6 378.97,-6"/>
<text text-anchor="middle" x="458.47" y="-13" font-family="Helvetica,sans-Serif" font-size="10.00">vsomeip/primitive_types.hpp</text>
</a>
</g>
</g>
<!-- Node2&#45;&gt;Node5 -->
<g id="edge4" class="edge">
<title>Node2&#45;&gt;Node5</title>
<path fill="none" stroke="midnightblue" d="M248.25,-198.75C175.39,-197.29 37.04,-189.74 6.47,-154 -2.49,-143.53 -1.69,-134.1 6.47,-123 48.8,-65.4 249.37,-36.5 368.64,-24.17"/>
<polygon fill="midnightblue" stroke="midnightblue" points="369.26,-27.63 378.86,-23.14 368.56,-20.66 369.26,-27.63"/>
</g>
<!-- Node6 -->
<g id="node6" class="node">
<title>Node6</title>
<g id="a_node6"><a xlink:title=" ">
<polygon fill="white" stroke="#bfbfbf" points="677.97,-6 677.97,-25 856.97,-25 856.97,-6 677.97,-6"/>
<text text-anchor="middle" x="767.47" y="-13" font-family="Helvetica,sans-Serif" font-size="10.00">vsomeip/internal/serializable.hpp</text>
</a>
</g>
</g>
<!-- Node2&#45;&gt;Node6 -->
<g id="edge5" class="edge">
<title>Node2&#45;&gt;Node6</title>
<path fill="none" stroke="midnightblue" d="M266.19,-190.45C249.17,-183.55 228.64,-171.97 218.47,-154 195.45,-113.34 235.02,-86.52 277.47,-67 311.97,-51.13 534.49,-32.97 667.5,-23.34"/>
<polygon fill="midnightblue" stroke="midnightblue" points="667.99,-26.81 677.71,-22.61 667.49,-19.83 667.99,-26.81"/>
</g>
<!-- Node7 -->
<g id="node7" class="node">
<title>Node7</title>
<g id="a_node7"><a xlink:href="implementation_2service__discovery_2include_2enumeration__types_8hpp.html" target="_top" xlink:title=" ">
<polygon fill="white" stroke="black" points="227.47,-129 227.47,-148 359.47,-148 359.47,-129 227.47,-129"/>
<text text-anchor="middle" x="293.47" y="-136" font-family="Helvetica,sans-Serif" font-size="10.00">enumeration_types.hpp</text>
</a>
</g>
</g>
<!-- Node2&#45;&gt;Node7 -->
<g id="edge6" class="edge">
<title>Node2&#45;&gt;Node7</title>
<path fill="none" stroke="midnightblue" d="M293.47,-190.48C293.47,-182.08 293.47,-168.98 293.47,-158.16"/>
<polygon fill="midnightblue" stroke="midnightblue" points="296.97,-158.01 293.47,-148.01 289.97,-158.01 296.97,-158.01"/>
</g>
<!-- Node9 -->
<g id="node9" class="node">
<title>Node9</title>
<g id="a_node9"><a xlink:href="message__element__impl_8hpp.html" target="_top" xlink:title=" ">
<polygon fill="white" stroke="black" points="15.97,-129 15.97,-148 170.97,-148 170.97,-129 15.97,-129"/>
<text text-anchor="middle" x="93.47" y="-136" font-family="Helvetica,sans-Serif" font-size="10.00">message_element_impl.hpp</text>
</a>
</g>
</g>
<!-- Node2&#45;&gt;Node9 -->
<g id="edge8" class="edge">
<title>Node2&#45;&gt;Node9</title>
<path fill="none" stroke="midnightblue" d="M264.81,-190.48C229.91,-180.09 170.82,-162.51 131.97,-150.95"/>
<polygon fill="midnightblue" stroke="midnightblue" points="132.65,-147.51 122.07,-148.01 130.66,-154.22 132.65,-147.51"/>
</g>
<!-- Node8 -->
<g id="node8" class="node">
<title>Node8</title>
<g id="a_node8"><a xlink:title=" ">
<polygon fill="white" stroke="#bfbfbf" points="286.47,-67.5 286.47,-86.5 336.47,-86.5 336.47,-67.5 286.47,-67.5"/>
<text text-anchor="middle" x="311.47" y="-74.5" font-family="Helvetica,sans-Serif" font-size="10.00">cstdint</text>
</a>
</g>
</g>
<!-- Node7&#45;&gt;Node8 -->
<g id="edge7" class="edge">
<title>Node7&#45;&gt;Node8</title>
<path fill="none" stroke="midnightblue" d="M296.05,-128.98C298.61,-120.49 302.63,-107.2 305.93,-96.32"/>
<polygon fill="midnightblue" stroke="midnightblue" points="309.35,-97.09 308.89,-86.51 302.65,-95.07 309.35,-97.09"/>
</g>
<!-- Node10&#45;&gt;Node3 -->
<g id="edge11" class="edge">
<title>Node10&#45;&gt;Node3</title>
<path fill="none" stroke="midnightblue" d="M645.21,-125.21C590.97,-115.21 512.73,-100.57 444.47,-87 443.21,-86.75 441.92,-86.49 440.63,-86.23"/>
<polygon fill="midnightblue" stroke="midnightblue" points="441.09,-82.75 430.6,-84.18 439.69,-89.61 441.09,-82.75"/>
</g>
<!-- Node10&#45;&gt;Node5 -->
<g id="edge15" class="edge">
<title>Node10&#45;&gt;Node5</title>
<path fill="none" stroke="midnightblue" d="M645.33,-124.84C578.08,-111.9 483.66,-92.88 477.47,-87 463.56,-73.79 459.46,-51.58 458.42,-35.61"/>
<polygon fill="midnightblue" stroke="midnightblue" points="461.91,-35.2 458.12,-25.31 454.92,-35.41 461.91,-35.2"/>
</g>
<!-- Node11 -->
<g id="node11" class="node">
<title>Node11</title>
<g id="a_node11"><a xlink:title=" ">
<polygon fill="white" stroke="#bfbfbf" points="486.47,-67.5 486.47,-86.5 524.47,-86.5 524.47,-67.5 486.47,-67.5"/>
<text text-anchor="middle" x="505.47" y="-74.5" font-family="Helvetica,sans-Serif" font-size="10.00">map</text>
</a>
</g>
</g>
<!-- Node10&#45;&gt;Node11 -->
<g id="edge10" class="edge">
<title>Node10&#45;&gt;Node11</title>
<path fill="none" stroke="midnightblue" d="M660.63,-123.41C627.05,-114.16 582.16,-101.56 534.32,-87.19"/>
<polygon fill="midnightblue" stroke="midnightblue" points="535.3,-83.83 524.72,-84.29 533.28,-90.53 535.3,-83.83"/>
</g>
<!-- Node12 -->
<g id="node12" class="node">
<title>Node12</title>
<g id="a_node12"><a xlink:title=" ">
<polygon fill="white" stroke="#bfbfbf" points="740.47,-67.5 740.47,-86.5 790.47,-86.5 790.47,-67.5 740.47,-67.5"/>
<text text-anchor="middle" x="765.47" y="-74.5" font-family="Helvetica,sans-Serif" font-size="10.00">atomic</text>
</a>
</g>
</g>
<!-- Node10&#45;&gt;Node12 -->
<g id="edge12" class="edge">
<title>Node10&#45;&gt;Node12</title>
<path fill="none" stroke="midnightblue" d="M725.03,-123.4C732.81,-114.66 742.83,-103.41 750.95,-94.3"/>
<polygon fill="midnightblue" stroke="midnightblue" points="753.72,-96.45 757.76,-86.66 748.49,-91.8 753.72,-96.45"/>
</g>
<!-- Node13 -->
<g id="node13" class="node">
<title>Node13</title>
<g id="a_node13"><a xlink:title=" ">
<polygon fill="white" stroke="#bfbfbf" points="808.47,-67.5 808.47,-86.5 856.47,-86.5 856.47,-67.5 808.47,-67.5"/>
<text text-anchor="middle" x="832.47" y="-74.5" font-family="Helvetica,sans-Serif" font-size="10.00">mutex</text>
</a>
</g>
</g>
<!-- Node10&#45;&gt;Node13 -->
<g id="edge13" class="edge">
<title>Node10&#45;&gt;Node13</title>
<path fill="none" stroke="midnightblue" d="M740.91,-123.4C760.59,-113.64 786.61,-100.74 805.88,-91.18"/>
<polygon fill="midnightblue" stroke="midnightblue" points="807.6,-94.24 815.01,-86.66 804.49,-87.96 807.6,-94.24"/>
</g>
<!-- Node14 -->
<g id="node14" class="node">
<title>Node14</title>
<g id="a_node14"><a xlink:title=" ">
<polygon fill="white" stroke="#bfbfbf" points="542.97,-67.5 542.97,-86.5 683.97,-86.5 683.97,-67.5 542.97,-67.5"/>
<text text-anchor="middle" x="613.47" y="-74.5" font-family="Helvetica,sans-Serif" font-size="10.00">boost/asio/ip/address.hpp</text>
</a>
</g>
</g>
<!-- Node10&#45;&gt;Node14 -->
<g id="edge14" class="edge">
<title>Node10&#45;&gt;Node14</title>
<path fill="none" stroke="midnightblue" d="M689.01,-123.4C673.14,-113.86 652.28,-101.32 636.5,-91.84"/>
<polygon fill="midnightblue" stroke="midnightblue" points="638.25,-88.81 627.87,-86.66 634.64,-94.81 638.25,-88.81"/>
</g>
<!-- Node15 -->
<g id="node15" class="node">
<title>Node15</title>
<g id="a_node15"><a xlink:title=" ">
<polygon fill="white" stroke="#bfbfbf" points="1088.47,-6 1088.47,-25 1202.47,-25 1202.47,-6 1088.47,-6"/>
<text text-anchor="middle" x="1145.47" y="-13" font-family="Helvetica,sans-Serif" font-size="10.00">vsomeip/export.hpp</text>
</a>
</g>
</g>
<!-- Node10&#45;&gt;Node15 -->
<g id="edge16" class="edge">
<title>Node10&#45;&gt;Node15</title>
<path fill="none" stroke="midnightblue" d="M711.91,-123.42C712.1,-107.16 715.16,-80.89 731.47,-67 790.66,-16.6 1002.71,-43.36 1079.47,-31 1086.16,-29.92 1093.19,-28.59 1100.07,-27.18"/>
<polygon fill="midnightblue" stroke="midnightblue" points="1100.93,-30.57 1109.99,-25.07 1099.48,-23.73 1100.93,-30.57"/>
</g>
<!-- Node16&#45;&gt;Node3 -->
<g id="edge19" class="edge">
<title>Node16&#45;&gt;Node3</title>
<path fill="none" stroke="midnightblue" d="M723.44,-190.36C699.08,-182.68 664.33,-170.16 636.47,-154 617.62,-143.06 618.05,-132.57 598.47,-123 571.03,-109.59 489.78,-93.61 440.62,-84.75"/>
<polygon fill="midnightblue" stroke="midnightblue" points="441.1,-81.28 430.64,-82.97 439.87,-88.17 441.1,-81.28"/>
</g>
<!-- Node16&#45;&gt;Node4 -->
<g id="edge21" class="edge">
<title>Node16&#45;&gt;Node4</title>
<path fill="none" stroke="midnightblue" d="M698.95,-194.43C641.66,-188.66 549.36,-176.65 472.47,-154 470.32,-153.37 468.13,-152.63 465.95,-151.83"/>
<polygon fill="midnightblue" stroke="midnightblue" points="467.21,-148.56 456.63,-148.03 464.57,-155.04 467.21,-148.56"/>
</g>
<!-- Node16&#45;&gt;Node10 -->
<g id="edge34" class="edge">
<title>Node16&#45;&gt;Node10</title>
<path fill="none" stroke="midnightblue" d="M747.59,-190.48C742.46,-183.02 734.76,-171.85 727.88,-161.87"/>
<polygon fill="midnightblue" stroke="midnightblue" points="730.69,-159.77 722.13,-153.52 724.92,-163.74 730.69,-159.77"/>
</g>
<!-- Node16&#45;&gt;Node12 -->
<g id="edge18" class="edge">
<title>Node16&#45;&gt;Node12</title>
<path fill="none" stroke="midnightblue" d="M763.02,-190.45C771.56,-182.12 783.46,-168.6 788.47,-154 795.29,-134.13 785.84,-110.99 777.07,-95.51"/>
<polygon fill="midnightblue" stroke="midnightblue" points="780.05,-93.67 771.86,-86.96 774.08,-97.32 780.05,-93.67"/>
</g>
<!-- Node16&#45;&gt;Node13 -->
<g id="edge20" class="edge">
<title>Node16&#45;&gt;Node13</title>
<path fill="none" stroke="midnightblue" d="M766.11,-190.32C777.27,-182.1 793.29,-168.83 803.47,-154 815.67,-136.21 823.64,-112.59 828.08,-96.43"/>
<polygon fill="midnightblue" stroke="midnightblue" points="831.5,-97.16 830.6,-86.6 824.72,-95.42 831.5,-97.16"/>
</g>
<!-- Node17 -->
<g id="node17" class="node">
<title>Node17</title>
<g id="a_node17"><a xlink:title=" ">
<polygon fill="white" stroke="#bfbfbf" points="874.97,-67.5 874.97,-86.5 1001.97,-86.5 1001.97,-67.5 874.97,-67.5"/>
<text text-anchor="middle" x="938.47" y="-74.5" font-family="Helvetica,sans-Serif" font-size="10.00">vsomeip/message.hpp</text>
</a>
</g>
</g>
<!-- Node16&#45;&gt;Node17 -->
<g id="edge22" class="edge">
<title>Node16&#45;&gt;Node17</title>
<path fill="none" stroke="midnightblue" d="M767.14,-190.47C781.48,-181.48 804.65,-166.89 824.47,-154 857.07,-132.81 894.52,-107.69 917.33,-92.3"/>
<polygon fill="midnightblue" stroke="midnightblue" points="919.55,-95.03 925.88,-86.53 915.63,-89.23 919.55,-95.03"/>
</g>
<!-- Node18 -->
<g id="node18" class="node">
<title>Node18</title>
<g id="a_node18"><a xlink:href="implementation_2service__discovery_2include_2primitive__types_8hpp.html" target="_top" xlink:title=" ">
<polygon fill="white" stroke="black" points="481.47,-123.5 481.47,-153.5 589.47,-153.5 589.47,-123.5 481.47,-123.5"/>
<text text-anchor="start" x="489.47" y="-141.5" font-family="Helvetica,sans-Serif" font-size="10.00">../include/primitive</text>
<text text-anchor="middle" x="535.47" y="-130.5" font-family="Helvetica,sans-Serif" font-size="10.00">_types.hpp</text>
</a>
</g>
</g>
<!-- Node16&#45;&gt;Node18 -->
<g id="edge23" class="edge">
<title>Node16&#45;&gt;Node18</title>
<path fill="none" stroke="midnightblue" d="M722.23,-190.48C689.6,-181.57 637.58,-167.37 596.71,-156.22"/>
<polygon fill="midnightblue" stroke="midnightblue" points="597.42,-152.78 586.85,-153.52 595.57,-159.53 597.42,-152.78"/>
</g>
<!-- Node19 -->
<g id="node19" class="node">
<title>Node19</title>
<g id="a_node19"><a xlink:href="message_2include_2message__base__impl_8hpp.html" target="_top" xlink:title=" ">
<polygon fill="white" stroke="black" points="1024.47,-123.5 1024.47,-153.5 1164.47,-153.5 1164.47,-123.5 1024.47,-123.5"/>
<text text-anchor="start" x="1032.47" y="-141.5" font-family="Helvetica,sans-Serif" font-size="10.00">../../message/include</text>
<text text-anchor="middle" x="1094.47" y="-130.5" font-family="Helvetica,sans-Serif" font-size="10.00">/message_base_impl.hpp</text>
</a>
</g>
</g>
<!-- Node16&#45;&gt;Node19 -->
<g id="edge25" class="edge">
<title>Node16&#45;&gt;Node19</title>
<path fill="none" stroke="midnightblue" d="M802.33,-190.48C857.68,-180.82 948.72,-164.93 1014.48,-153.46"/>
<polygon fill="midnightblue" stroke="midnightblue" points="1015.14,-156.89 1024.39,-151.73 1013.94,-150 1015.14,-156.89"/>
</g>
<!-- Node18&#45;&gt;Node8 -->
<g id="edge24" class="edge">
<title>Node18&#45;&gt;Node8</title>
<path fill="none" stroke="midnightblue" d="M482.67,-123.47C440.58,-112.29 382.84,-96.96 346.34,-87.26"/>
<polygon fill="midnightblue" stroke="midnightblue" points="347.2,-83.87 336.64,-84.69 345.4,-90.64 347.2,-83.87"/>
</g>
<!-- Node19&#45;&gt;Node15 -->
<g id="edge27" class="edge">
<title>Node19&#45;&gt;Node15</title>
<path fill="none" stroke="midnightblue" d="M1134.49,-123.38C1150.86,-115.4 1168.13,-103.62 1177.47,-87 1187.49,-69.17 1174.3,-47.64 1161.94,-33.09"/>
<polygon fill="midnightblue" stroke="midnightblue" points="1164.27,-30.45 1154.95,-25.42 1159.1,-35.17 1164.27,-30.45"/>
</g>
<!-- Node19&#45;&gt;Node17 -->
<g id="edge28" class="edge">
<title>Node19&#45;&gt;Node17</title>
<path fill="none" stroke="midnightblue" d="M1057.5,-123.4C1031.09,-113.33 995.91,-99.91 970.66,-90.28"/>
<polygon fill="midnightblue" stroke="midnightblue" points="971.76,-86.95 961.17,-86.66 969.26,-93.49 971.76,-86.95"/>
</g>
<!-- Node20 -->
<g id="node20" class="node">
<title>Node20</title>
<g id="a_node20"><a xlink:title=" ">
<polygon fill="white" stroke="#bfbfbf" points="1224.97,-67.5 1224.97,-86.5 1323.97,-86.5 1323.97,-67.5 1224.97,-67.5"/>
<text text-anchor="middle" x="1274.47" y="-74.5" font-family="Helvetica,sans-Serif" font-size="10.00">boost/thread.hpp</text>
</a>
</g>
</g>
<!-- Node19&#45;&gt;Node20 -->
<g id="edge26" class="edge">
<title>Node19&#45;&gt;Node20</title>
<path fill="none" stroke="midnightblue" d="M1137.13,-123.4C1168.09,-113.16 1209.52,-99.47 1238.75,-89.81"/>
<polygon fill="midnightblue" stroke="midnightblue" points="1240.14,-93.03 1248.54,-86.57 1237.95,-86.39 1240.14,-93.03"/>
</g>
<!-- Node21 -->
<g id="node21" class="node">
<title>Node21</title>
<g id="a_node21"><a xlink:href="message__header__impl_8hpp.html" target="_top" xlink:title=" ">
<polygon fill="white" stroke="black" points="1020.47,-67.5 1020.47,-86.5 1168.47,-86.5 1168.47,-67.5 1020.47,-67.5"/>
<text text-anchor="middle" x="1094.47" y="-74.5" font-family="Helvetica,sans-Serif" font-size="10.00">message_header_impl.hpp</text>
</a>
</g>
</g>
<!-- Node19&#45;&gt;Node21 -->
<g id="edge29" class="edge">
<title>Node19&#45;&gt;Node21</title>
<path fill="none" stroke="midnightblue" d="M1094.47,-123.4C1094.47,-115.47 1094.47,-105.46 1094.47,-96.86"/>
<polygon fill="midnightblue" stroke="midnightblue" points="1097.97,-96.66 1094.47,-86.66 1090.97,-96.66 1097.97,-96.66"/>
</g>
<!-- Node21&#45;&gt;Node5 -->
<g id="edge31" class="edge">
<title>Node21&#45;&gt;Node5</title>
<path fill="none" stroke="midnightblue" d="M1020.26,-67.89C1017.29,-67.59 1014.35,-67.29 1011.47,-67 848.21,-50.7 657.62,-33.75 548.19,-24.22"/>
<polygon fill="midnightblue" stroke="midnightblue" points="548.45,-20.73 538.18,-23.35 547.84,-27.71 548.45,-20.73"/>
</g>
<!-- Node21&#45;&gt;Node6 -->
<g id="edge33" class="edge">
<title>Node21&#45;&gt;Node6</title>
<path fill="none" stroke="midnightblue" d="M1047.62,-67.48C988.73,-56.76 887.73,-38.38 824.44,-26.87"/>
<polygon fill="midnightblue" stroke="midnightblue" points="824.7,-23.36 814.23,-25.01 823.44,-30.24 824.7,-23.36"/>
</g>
<!-- Node21&#45;&gt;Node15 -->
<g id="edge30" class="edge">
<title>Node21&#45;&gt;Node15</title>
<path fill="none" stroke="midnightblue" d="M1101.78,-67.48C1109.5,-58.46 1121.88,-44.02 1131.49,-32.81"/>
<polygon fill="midnightblue" stroke="midnightblue" points="1134.32,-34.88 1138.17,-25.01 1129.01,-30.32 1134.32,-34.88"/>
</g>
<!-- Node22 -->
<g id="node22" class="node">
<title>Node22</title>
<g id="a_node22"><a xlink:title=" ">
<polygon fill="white" stroke="#bfbfbf" points="946.47,-0.5 946.47,-30.5 1070.47,-30.5 1070.47,-0.5 946.47,-0.5"/>
<text text-anchor="start" x="954.47" y="-18.5" font-family="Helvetica,sans-Serif" font-size="10.00">vsomeip/enumeration</text>
<text text-anchor="middle" x="1008.47" y="-7.5" font-family="Helvetica,sans-Serif" font-size="10.00">_types.hpp</text>
</a>
</g>
</g>
<!-- Node21&#45;&gt;Node22 -->
<g id="edge32" class="edge">
<title>Node21&#45;&gt;Node22</title>
<path fill="none" stroke="midnightblue" d="M1082.15,-67.48C1070.5,-59.42 1052.59,-47.02 1037.34,-36.47"/>
<polygon fill="midnightblue" stroke="midnightblue" points="1038.95,-33.33 1028.74,-30.52 1034.97,-39.09 1038.95,-33.33"/>
</g>
</g>
</svg>
