<?xml version="1.0" encoding="UTF-8" standalone="no"?>
<!DOCTYPE svg PUBLIC "-//W3C//DTD SVG 1.1//EN"
 "http://www.w3.org/Graphics/SVG/1.1/DTD/svg11.dtd">
<!-- Generated by graphviz version 2.43.0 (0)
 -->
<!-- Title: /home/kali/projects/vsomeip/implementation/service_discovery/src/eventgroupentry_impl.cpp Pages: 1 -->
<svg width="2308pt" height="452pt"
 viewBox="0.00 0.00 2307.62 452.00" xmlns="http://www.w3.org/2000/svg" xmlns:xlink="http://www.w3.org/1999/xlink">
<g id="graph0" class="graph" transform="scale(1 1) rotate(0) translate(4 448)">
<title>/home/kali/projects/vsomeip/implementation/service_discovery/src/eventgroupentry_impl.cpp</title>
<polygon fill="white" stroke="transparent" points="-4,4 -4,-448 2303.62,-448 2303.62,4 -4,4"/>
<!-- Node1 -->
<g id="node1" class="node">
<title>Node1</title>
<g id="a_node1"><a xlink:title=" ">
<polygon fill="#bfbfbf" stroke="black" points="1346,-391.5 1346,-443.5 1494,-443.5 1494,-391.5 1346,-391.5"/>
<text text-anchor="start" x="1354" y="-431.5" font-family="Helvetica,sans-Serif" font-size="10.00">/home/kali/projects</text>
<text text-anchor="start" x="1354" y="-420.5" font-family="Helvetica,sans-Serif" font-size="10.00">/vsomeip/implementation</text>
<text text-anchor="start" x="1354" y="-409.5" font-family="Helvetica,sans-Serif" font-size="10.00">/service_discovery/src</text>
<text text-anchor="middle" x="1420" y="-398.5" font-family="Helvetica,sans-Serif" font-size="10.00">/eventgroupentry_impl.cpp</text>
</a>
</g>
</g>
<!-- Node2 -->
<g id="node2" class="node">
<title>Node2</title>
<g id="a_node2"><a xlink:href="logger_8hpp.html" target="_top" xlink:title=" ">
<polygon fill="white" stroke="black" points="206.5,-196 206.5,-215 359.5,-215 359.5,-196 206.5,-196"/>
<text text-anchor="middle" x="283" y="-203" font-family="Helvetica,sans-Serif" font-size="10.00">vsomeip/internal/logger.hpp</text>
</a>
</g>
</g>
<!-- Node1&#45;&gt;Node2 -->
<g id="edge1" class="edge">
<title>Node1&#45;&gt;Node2</title>
<path fill="none" stroke="midnightblue" d="M1345.73,-414.88C1167.23,-410.37 718.23,-395.26 574,-355 465.39,-324.68 349.98,-251.9 303.82,-220.89"/>
<polygon fill="midnightblue" stroke="midnightblue" points="305.54,-217.82 295.3,-215.1 301.6,-223.61 305.54,-217.82"/>
</g>
<!-- Node10 -->
<g id="node10" class="node">
<title>Node10</title>
<g id="a_node10"><a xlink:href="implementation_2service__discovery_2include_2constants_8hpp.html" target="_top" xlink:title=" ">
<polygon fill="white" stroke="black" points="1299,-129 1299,-148 1431,-148 1431,-129 1299,-129"/>
<text text-anchor="middle" x="1365" y="-136" font-family="Helvetica,sans-Serif" font-size="10.00">../include/constants.hpp</text>
</a>
</g>
</g>
<!-- Node1&#45;&gt;Node10 -->
<g id="edge9" class="edge">
<title>Node1&#45;&gt;Node10</title>
<path fill="none" stroke="midnightblue" d="M1402.97,-391.22C1396.57,-380.5 1389.91,-367.58 1386,-355 1364.28,-285.05 1363.46,-196.74 1364.3,-158.54"/>
<polygon fill="midnightblue" stroke="midnightblue" points="1367.81,-158.47 1364.6,-148.37 1360.81,-158.27 1367.81,-158.47"/>
</g>
<!-- Node13 -->
<g id="node13" class="node">
<title>Node13</title>
<g id="a_node13"><a xlink:href="eventgroupentry__impl_8hpp.html" target="_top" xlink:title=" ">
<polygon fill="white" stroke="black" points="1395.5,-324.5 1395.5,-354.5 1540.5,-354.5 1540.5,-324.5 1395.5,-324.5"/>
<text text-anchor="start" x="1403.5" y="-342.5" font-family="Helvetica,sans-Serif" font-size="10.00">../include/eventgroupentry</text>
<text text-anchor="middle" x="1468" y="-331.5" font-family="Helvetica,sans-Serif" font-size="10.00">_impl.hpp</text>
</a>
</g>
</g>
<!-- Node1&#45;&gt;Node13 -->
<g id="edge12" class="edge">
<title>Node1&#45;&gt;Node13</title>
<path fill="none" stroke="midnightblue" d="M1435.98,-391.19C1441.65,-382.22 1447.99,-372.18 1453.53,-363.42"/>
<polygon fill="midnightblue" stroke="midnightblue" points="1456.56,-365.17 1458.94,-354.85 1450.64,-361.43 1456.56,-365.17"/>
</g>
<!-- Node30 -->
<g id="node30" class="node">
<title>Node30</title>
<g id="a_node30"><a xlink:href="message_2include_2deserializer_8hpp.html" target="_top" xlink:title=" ">
<polygon fill="white" stroke="black" points="591.5,-123.5 591.5,-153.5 708.5,-153.5 708.5,-123.5 591.5,-123.5"/>
<text text-anchor="start" x="599.5" y="-141.5" font-family="Helvetica,sans-Serif" font-size="10.00">../../message/include</text>
<text text-anchor="middle" x="650" y="-130.5" font-family="Helvetica,sans-Serif" font-size="10.00">/deserializer.hpp</text>
</a>
</g>
</g>
<!-- Node1&#45;&gt;Node30 -->
<g id="edge47" class="edge">
<title>Node1&#45;&gt;Node30</title>
<path fill="none" stroke="midnightblue" d="M1345.99,-406.32C1216.56,-386.17 943.6,-333.09 741,-221 713,-205.51 686.39,-179.96 669.26,-161.6"/>
<polygon fill="midnightblue" stroke="midnightblue" points="671.41,-158.76 662.09,-153.73 666.24,-163.48 671.41,-158.76"/>
</g>
<!-- Node31 -->
<g id="node31" class="node">
<title>Node31</title>
<g id="a_node31"><a xlink:href="serializer_8hpp.html" target="_top" xlink:title=" ">
<polygon fill="white" stroke="black" points="456.5,-123.5 456.5,-153.5 573.5,-153.5 573.5,-123.5 456.5,-123.5"/>
<text text-anchor="start" x="464.5" y="-141.5" font-family="Helvetica,sans-Serif" font-size="10.00">../../message/include</text>
<text text-anchor="middle" x="515" y="-130.5" font-family="Helvetica,sans-Serif" font-size="10.00">/serializer.hpp</text>
</a>
</g>
</g>
<!-- Node1&#45;&gt;Node31 -->
<g id="edge51" class="edge">
<title>Node1&#45;&gt;Node31</title>
<path fill="none" stroke="midnightblue" d="M1345.76,-410.5C1260.21,-402.49 1115.87,-385.63 995,-355 911.45,-333.82 892.14,-322.16 813,-288 715.67,-245.99 604.86,-187.96 549.83,-158.42"/>
<polygon fill="midnightblue" stroke="midnightblue" points="551.32,-155.25 540.85,-153.59 548,-161.41 551.32,-155.25"/>
</g>
<!-- Node32 -->
<g id="node32" class="node">
<title>Node32</title>
<g id="a_node32"><a xlink:href="ipv4__option__impl_8hpp.html" target="_top" xlink:title=" ">
<polygon fill="white" stroke="black" points="1575.5,-257.5 1575.5,-287.5 1696.5,-287.5 1696.5,-257.5 1575.5,-257.5"/>
<text text-anchor="start" x="1583.5" y="-275.5" font-family="Helvetica,sans-Serif" font-size="10.00">../include/ipv4_option</text>
<text text-anchor="middle" x="1636" y="-264.5" font-family="Helvetica,sans-Serif" font-size="10.00">_impl.hpp</text>
</a>
</g>
</g>
<!-- Node1&#45;&gt;Node32 -->
<g id="edge55" class="edge">
<title>Node1&#45;&gt;Node32</title>
<path fill="none" stroke="midnightblue" d="M1483.37,-391.38C1505.3,-381.45 1529.5,-369.03 1550,-355 1575.32,-337.67 1600.33,-312.87 1616.79,-295.18"/>
<polygon fill="midnightblue" stroke="midnightblue" points="1619.56,-297.35 1623.73,-287.61 1614.39,-292.62 1619.56,-297.35"/>
</g>
<!-- Node35 -->
<g id="node35" class="node">
<title>Node35</title>
<g id="a_node35"><a xlink:href="ipv6__option__impl_8hpp.html" target="_top" xlink:title=" ">
<polygon fill="white" stroke="black" points="1743.5,-257.5 1743.5,-287.5 1864.5,-287.5 1864.5,-257.5 1743.5,-257.5"/>
<text text-anchor="start" x="1751.5" y="-275.5" font-family="Helvetica,sans-Serif" font-size="10.00">../include/ipv6_option</text>
<text text-anchor="middle" x="1804" y="-264.5" font-family="Helvetica,sans-Serif" font-size="10.00">_impl.hpp</text>
</a>
</g>
</g>
<!-- Node1&#45;&gt;Node35 -->
<g id="edge65" class="edge">
<title>Node1&#45;&gt;Node35</title>
<path fill="none" stroke="midnightblue" d="M1487.33,-391.43C1564.51,-362.68 1689.06,-316.3 1756.67,-291.13"/>
<polygon fill="midnightblue" stroke="midnightblue" points="1758.07,-294.34 1766.22,-287.57 1755.62,-287.78 1758.07,-294.34"/>
</g>
<!-- Node36 -->
<g id="node36" class="node">
<title>Node36</title>
<g id="a_node36"><a xlink:href="selective__option__impl_8hpp.html" target="_top" xlink:title=" ">
<polygon fill="white" stroke="black" points="2071,-190.5 2071,-220.5 2179,-220.5 2179,-190.5 2071,-190.5"/>
<text text-anchor="start" x="2079" y="-208.5" font-family="Helvetica,sans-Serif" font-size="10.00">../include/selective</text>
<text text-anchor="middle" x="2125" y="-197.5" font-family="Helvetica,sans-Serif" font-size="10.00">_option_impl.hpp</text>
</a>
</g>
</g>
<!-- Node1&#45;&gt;Node36 -->
<g id="edge69" class="edge">
<title>Node1&#45;&gt;Node36</title>
<path fill="none" stroke="midnightblue" d="M1494.41,-399.94C1591.76,-377.64 1767.23,-335.26 1914,-288 1973.47,-268.85 2040.52,-242.02 2082.76,-224.46"/>
<polygon fill="midnightblue" stroke="midnightblue" points="2084.28,-227.61 2092.16,-220.53 2081.59,-221.15 2084.28,-227.61"/>
</g>
<!-- Node3 -->
<g id="node3" class="node">
<title>Node3</title>
<g id="a_node3"><a xlink:title=" ">
<polygon fill="white" stroke="#bfbfbf" points="0,-129 0,-148 50,-148 50,-129 0,-129"/>
<text text-anchor="middle" x="25" y="-136" font-family="Helvetica,sans-Serif" font-size="10.00">chrono</text>
</a>
</g>
</g>
<!-- Node2&#45;&gt;Node3 -->
<g id="edge2" class="edge">
<title>Node2&#45;&gt;Node3</title>
<path fill="none" stroke="midnightblue" d="M233.37,-195.99C187.51,-187.5 117.8,-172.99 59,-154 57.08,-153.38 55.11,-152.69 53.14,-151.96"/>
<polygon fill="midnightblue" stroke="midnightblue" points="54.06,-148.56 43.47,-148.1 51.46,-155.06 54.06,-148.56"/>
</g>
<!-- Node4 -->
<g id="node4" class="node">
<title>Node4</title>
<g id="a_node4"><a xlink:title=" ">
<polygon fill="white" stroke="#bfbfbf" points="1384,-0.5 1384,-19.5 1434,-19.5 1434,-0.5 1384,-0.5"/>
<text text-anchor="middle" x="1409" y="-7.5" font-family="Helvetica,sans-Serif" font-size="10.00">cstdint</text>
</a>
</g>
</g>
<!-- Node2&#45;&gt;Node4 -->
<g id="edge3" class="edge">
<title>Node2&#45;&gt;Node4</title>
<path fill="none" stroke="midnightblue" d="M286.64,-195.7C298.59,-168.19 339.66,-83.95 405,-56 495.5,-17.29 1206.58,-11.86 1373.85,-11.12"/>
<polygon fill="midnightblue" stroke="midnightblue" points="1373.87,-14.62 1383.85,-11.07 1373.84,-7.62 1373.87,-14.62"/>
</g>
<!-- Node5 -->
<g id="node5" class="node">
<title>Node5</title>
<g id="a_node5"><a xlink:title=" ">
<polygon fill="white" stroke="#bfbfbf" points="1233,-129 1233,-148 1281,-148 1281,-129 1233,-129"/>
<text text-anchor="middle" x="1257" y="-136" font-family="Helvetica,sans-Serif" font-size="10.00">mutex</text>
</a>
</g>
</g>
<!-- Node2&#45;&gt;Node5 -->
<g id="edge4" class="edge">
<title>Node2&#45;&gt;Node5</title>
<path fill="none" stroke="midnightblue" d="M359.51,-201.92C568.67,-194.66 1140.02,-173.29 1223,-154 1225.52,-153.42 1228.08,-152.66 1230.62,-151.79"/>
<polygon fill="midnightblue" stroke="midnightblue" points="1232.06,-154.99 1240.1,-148.08 1229.51,-148.47 1232.06,-154.99"/>
</g>
<!-- Node6 -->
<g id="node6" class="node">
<title>Node6</title>
<g id="a_node6"><a xlink:title=" ">
<polygon fill="white" stroke="#bfbfbf" points="68.5,-129 68.5,-148 125.5,-148 125.5,-129 68.5,-129"/>
<text text-anchor="middle" x="97" y="-136" font-family="Helvetica,sans-Serif" font-size="10.00">ostream</text>
</a>
</g>
</g>
<!-- Node2&#45;&gt;Node6 -->
<g id="edge5" class="edge">
<title>Node2&#45;&gt;Node6</title>
<path fill="none" stroke="midnightblue" d="M256.97,-195.93C227.33,-186.1 177.51,-169.36 135,-154 132.9,-153.24 130.73,-152.45 128.55,-151.64"/>
<polygon fill="midnightblue" stroke="midnightblue" points="129.65,-148.31 119.05,-148.07 127.18,-154.86 129.65,-148.31"/>
</g>
<!-- Node7 -->
<g id="node7" class="node">
<title>Node7</title>
<g id="a_node7"><a xlink:title=" ">
<polygon fill="white" stroke="#bfbfbf" points="144,-129 144,-148 200,-148 200,-129 144,-129"/>
<text text-anchor="middle" x="172" y="-136" font-family="Helvetica,sans-Serif" font-size="10.00">sstream</text>
</a>
</g>
</g>
<!-- Node2&#45;&gt;Node7 -->
<g id="edge6" class="edge">
<title>Node2&#45;&gt;Node7</title>
<path fill="none" stroke="midnightblue" d="M268.03,-195.73C249.39,-184.82 217.34,-166.05 195.43,-153.22"/>
<polygon fill="midnightblue" stroke="midnightblue" points="197.13,-150.16 186.73,-148.13 193.59,-156.2 197.13,-150.16"/>
</g>
<!-- Node8 -->
<g id="node8" class="node">
<title>Node8</title>
<g id="a_node8"><a xlink:title=" ">
<polygon fill="white" stroke="#bfbfbf" points="218.5,-129 218.5,-148 285.5,-148 285.5,-129 218.5,-129"/>
<text text-anchor="middle" x="252" y="-136" font-family="Helvetica,sans-Serif" font-size="10.00">streambuf</text>
</a>
</g>
</g>
<!-- Node2&#45;&gt;Node8 -->
<g id="edge7" class="edge">
<title>Node2&#45;&gt;Node8</title>
<path fill="none" stroke="midnightblue" d="M278.82,-195.73C274.12,-185.89 266.38,-169.66 260.42,-157.16"/>
<polygon fill="midnightblue" stroke="midnightblue" points="263.58,-155.65 256.11,-148.13 257.26,-158.66 263.58,-155.65"/>
</g>
<!-- Node9 -->
<g id="node9" class="node">
<title>Node9</title>
<g id="a_node9"><a xlink:title=" ">
<polygon fill="white" stroke="#bfbfbf" points="414,-62 414,-81 528,-81 528,-62 414,-62"/>
<text text-anchor="middle" x="471" y="-69" font-family="Helvetica,sans-Serif" font-size="10.00">vsomeip/export.hpp</text>
</a>
</g>
</g>
<!-- Node2&#45;&gt;Node9 -->
<g id="edge8" class="edge">
<title>Node2&#45;&gt;Node9</title>
<path fill="none" stroke="midnightblue" d="M291.42,-195.91C307.09,-180.2 342.25,-146.29 376,-123 397.17,-108.39 423.06,-94.88 442.46,-85.52"/>
<polygon fill="midnightblue" stroke="midnightblue" points="444.15,-88.59 451.69,-81.14 441.15,-82.27 444.15,-88.59"/>
</g>
<!-- Node11 -->
<g id="node11" class="node">
<title>Node11</title>
<g id="a_node11"><a xlink:title=" ">
<polygon fill="white" stroke="#bfbfbf" points="1118,-56.5 1118,-86.5 1242,-86.5 1242,-56.5 1118,-56.5"/>
<text text-anchor="start" x="1126" y="-74.5" font-family="Helvetica,sans-Serif" font-size="10.00">vsomeip/enumeration</text>
<text text-anchor="middle" x="1180" y="-63.5" font-family="Helvetica,sans-Serif" font-size="10.00">_types.hpp</text>
</a>
</g>
</g>
<!-- Node10&#45;&gt;Node11 -->
<g id="edge10" class="edge">
<title>Node10&#45;&gt;Node11</title>
<path fill="none" stroke="midnightblue" d="M1340.43,-128.87C1312.31,-118.99 1265.52,-102.55 1229.71,-89.97"/>
<polygon fill="midnightblue" stroke="midnightblue" points="1230.52,-86.54 1219.93,-86.53 1228.2,-93.15 1230.52,-86.54"/>
</g>
<!-- Node12 -->
<g id="node12" class="node">
<title>Node12</title>
<g id="a_node12"><a xlink:title=" ">
<polygon fill="white" stroke="#bfbfbf" points="1467.5,-62 1467.5,-81 1626.5,-81 1626.5,-62 1467.5,-62"/>
<text text-anchor="middle" x="1547" y="-69" font-family="Helvetica,sans-Serif" font-size="10.00">vsomeip/primitive_types.hpp</text>
</a>
</g>
</g>
<!-- Node10&#45;&gt;Node12 -->
<g id="edge11" class="edge">
<title>Node10&#45;&gt;Node12</title>
<path fill="none" stroke="midnightblue" d="M1389.17,-128.87C1421.08,-117.47 1477.41,-97.35 1513.44,-84.49"/>
<polygon fill="midnightblue" stroke="midnightblue" points="1514.78,-87.72 1523.02,-81.06 1512.43,-81.13 1514.78,-87.72"/>
</g>
<!-- Node14 -->
<g id="node14" class="node">
<title>Node14</title>
<g id="a_node14"><a xlink:href="entry__impl_8hpp.html" target="_top" xlink:title=" ">
<polygon fill="white" stroke="black" points="1999,-129 1999,-148 2089,-148 2089,-129 1999,-129"/>
<text text-anchor="middle" x="2044" y="-136" font-family="Helvetica,sans-Serif" font-size="10.00">entry_impl.hpp</text>
</a>
</g>
</g>
<!-- Node13&#45;&gt;Node14 -->
<g id="edge13" class="edge">
<title>Node13&#45;&gt;Node14</title>
<path fill="none" stroke="midnightblue" d="M1540.89,-333.83C1640.92,-326.67 1815.05,-311.31 1874,-288 1944.95,-259.94 2006.31,-188.67 2031.63,-156.14"/>
<polygon fill="midnightblue" stroke="midnightblue" points="2034.51,-158.14 2037.79,-148.06 2028.94,-153.89 2034.51,-158.14"/>
</g>
<!-- Node20 -->
<g id="node20" class="node">
<title>Node20</title>
<g id="a_node20"><a xlink:href="endpoint__definition_8hpp.html" target="_top" xlink:title=" ">
<polygon fill="white" stroke="black" points="1407,-190.5 1407,-220.5 1541,-220.5 1541,-190.5 1407,-190.5"/>
<text text-anchor="start" x="1415" y="-208.5" font-family="Helvetica,sans-Serif" font-size="10.00">../../endpoints/include</text>
<text text-anchor="middle" x="1474" y="-197.5" font-family="Helvetica,sans-Serif" font-size="10.00">/endpoint_definition.hpp</text>
</a>
</g>
</g>
<!-- Node13&#45;&gt;Node20 -->
<g id="edge21" class="edge">
<title>Node13&#45;&gt;Node20</title>
<path fill="none" stroke="midnightblue" d="M1468.64,-324.37C1469.66,-302.04 1471.64,-258.31 1472.89,-230.85"/>
<polygon fill="midnightblue" stroke="midnightblue" points="1476.4,-230.67 1473.36,-220.52 1469.41,-230.36 1476.4,-230.67"/>
</g>
<!-- Node24 -->
<g id="node24" class="node">
<title>Node24</title>
<g id="a_node24"><a xlink:href="service__discovery_2include_2message__impl_8hpp.html" target="_top" xlink:title=" ">
<polygon fill="white" stroke="black" points="1202.5,-263 1202.5,-282 1311.5,-282 1311.5,-263 1202.5,-263"/>
<text text-anchor="middle" x="1257" y="-270" font-family="Helvetica,sans-Serif" font-size="10.00">message_impl.hpp</text>
</a>
</g>
</g>
<!-- Node13&#45;&gt;Node24 -->
<g id="edge29" class="edge">
<title>Node13&#45;&gt;Node24</title>
<path fill="none" stroke="midnightblue" d="M1422.48,-324.48C1384.16,-312.67 1330.04,-296 1294.26,-284.98"/>
<polygon fill="midnightblue" stroke="midnightblue" points="1295.27,-281.63 1284.69,-282.03 1293.21,-288.32 1295.27,-281.63"/>
</g>
<!-- Node14&#45;&gt;Node12 -->
<g id="edge16" class="edge">
<title>Node14&#45;&gt;Node12</title>
<path fill="none" stroke="midnightblue" d="M1998.58,-131.56C1913,-120.37 1727.12,-96.06 1622.48,-82.37"/>
<polygon fill="midnightblue" stroke="midnightblue" points="1622.68,-78.87 1612.31,-81.04 1621.77,-85.81 1622.68,-78.87"/>
</g>
<!-- Node15 -->
<g id="node15" class="node">
<title>Node15</title>
<g id="a_node15"><a xlink:title=" ">
<polygon fill="white" stroke="#bfbfbf" points="1902,-62 1902,-81 1960,-81 1960,-62 1902,-62"/>
<text text-anchor="middle" x="1931" y="-69" font-family="Helvetica,sans-Serif" font-size="10.00">memory</text>
</a>
</g>
</g>
<!-- Node14&#45;&gt;Node15 -->
<g id="edge14" class="edge">
<title>Node14&#45;&gt;Node15</title>
<path fill="none" stroke="midnightblue" d="M2028.76,-128.73C2009.78,-117.82 1977.15,-99.05 1954.85,-86.22"/>
<polygon fill="midnightblue" stroke="midnightblue" points="1956.41,-83.08 1946,-81.13 1952.92,-89.15 1956.41,-83.08"/>
</g>
<!-- Node16 -->
<g id="node16" class="node">
<title>Node16</title>
<g id="a_node16"><a xlink:title=" ">
<polygon fill="white" stroke="#bfbfbf" points="662.5,-62 662.5,-81 709.5,-81 709.5,-62 662.5,-62"/>
<text text-anchor="middle" x="686" y="-69" font-family="Helvetica,sans-Serif" font-size="10.00">vector</text>
</a>
</g>
</g>
<!-- Node14&#45;&gt;Node16 -->
<g id="edge15" class="edge">
<title>Node14&#45;&gt;Node16</title>
<path fill="none" stroke="midnightblue" d="M1998.59,-134.61C1949.6,-131.54 1869.29,-126.63 1800,-123 1373.64,-100.67 855.17,-79.34 719.68,-73.85"/>
<polygon fill="midnightblue" stroke="midnightblue" points="719.66,-70.35 709.52,-73.44 719.37,-77.34 719.66,-70.35"/>
</g>
<!-- Node17 -->
<g id="node17" class="node">
<title>Node17</title>
<g id="a_node17"><a xlink:title=" ">
<polygon fill="white" stroke="#bfbfbf" points="1684.5,-62 1684.5,-81 1863.5,-81 1863.5,-62 1684.5,-62"/>
<text text-anchor="middle" x="1774" y="-69" font-family="Helvetica,sans-Serif" font-size="10.00">vsomeip/internal/serializable.hpp</text>
</a>
</g>
</g>
<!-- Node14&#45;&gt;Node17 -->
<g id="edge17" class="edge">
<title>Node14&#45;&gt;Node17</title>
<path fill="none" stroke="midnightblue" d="M2008.42,-128.94C1959.86,-117.24 1872.78,-96.28 1819.51,-83.46"/>
<polygon fill="midnightblue" stroke="midnightblue" points="1820.2,-80.02 1809.65,-81.08 1818.56,-86.83 1820.2,-80.02"/>
</g>
<!-- Node18 -->
<g id="node18" class="node">
<title>Node18</title>
<g id="a_node18"><a xlink:href="implementation_2service__discovery_2include_2enumeration__types_8hpp.html" target="_top" xlink:title=" ">
<polygon fill="white" stroke="black" points="1978,-62 1978,-81 2110,-81 2110,-62 1978,-62"/>
<text text-anchor="middle" x="2044" y="-69" font-family="Helvetica,sans-Serif" font-size="10.00">enumeration_types.hpp</text>
</a>
</g>
</g>
<!-- Node14&#45;&gt;Node18 -->
<g id="edge18" class="edge">
<title>Node14&#45;&gt;Node18</title>
<path fill="none" stroke="midnightblue" d="M2044,-128.73C2044,-119.18 2044,-103.62 2044,-91.28"/>
<polygon fill="midnightblue" stroke="midnightblue" points="2047.5,-91.13 2044,-81.13 2040.5,-91.13 2047.5,-91.13"/>
</g>
<!-- Node19 -->
<g id="node19" class="node">
<title>Node19</title>
<g id="a_node19"><a xlink:href="message__element__impl_8hpp.html" target="_top" xlink:title=" ">
<polygon fill="white" stroke="black" points="2128.5,-62 2128.5,-81 2283.5,-81 2283.5,-62 2128.5,-62"/>
<text text-anchor="middle" x="2206" y="-69" font-family="Helvetica,sans-Serif" font-size="10.00">message_element_impl.hpp</text>
</a>
</g>
</g>
<!-- Node14&#45;&gt;Node19 -->
<g id="edge20" class="edge">
<title>Node14&#45;&gt;Node19</title>
<path fill="none" stroke="midnightblue" d="M2065.51,-128.87C2093.67,-117.57 2143.2,-97.7 2175.3,-84.82"/>
<polygon fill="midnightblue" stroke="midnightblue" points="2176.68,-88.04 2184.66,-81.06 2174.07,-81.54 2176.68,-88.04"/>
</g>
<!-- Node18&#45;&gt;Node4 -->
<g id="edge19" class="edge">
<title>Node18&#45;&gt;Node4</title>
<path fill="none" stroke="midnightblue" d="M2004.05,-61.92C1992.76,-59.73 1980.43,-57.56 1969,-56 1771.66,-29.08 1532.84,-16.47 1444.27,-12.48"/>
<polygon fill="midnightblue" stroke="midnightblue" points="1444.37,-8.98 1434.22,-12.03 1444.06,-15.97 1444.37,-8.98"/>
</g>
<!-- Node20&#45;&gt;Node5 -->
<g id="edge25" class="edge">
<title>Node20&#45;&gt;Node5</title>
<path fill="none" stroke="midnightblue" d="M1414.07,-190.41C1377.76,-181.29 1330.74,-168.45 1290,-154 1288.34,-153.41 1286.64,-152.77 1284.94,-152.11"/>
<polygon fill="midnightblue" stroke="midnightblue" points="1285.89,-148.71 1275.31,-148.11 1283.2,-155.18 1285.89,-148.71"/>
</g>
<!-- Node20&#45;&gt;Node9 -->
<g id="edge28" class="edge">
<title>Node20&#45;&gt;Node9</title>
<path fill="none" stroke="midnightblue" d="M1406.83,-201.81C1179.89,-192.64 455.3,-162.72 447,-154 430.37,-136.53 444.77,-108.13 457.35,-89.89"/>
<polygon fill="midnightblue" stroke="midnightblue" points="460.5,-91.52 463.59,-81.39 454.85,-87.38 460.5,-91.52"/>
</g>
<!-- Node20&#45;&gt;Node12 -->
<g id="edge27" class="edge">
<title>Node20&#45;&gt;Node12</title>
<path fill="none" stroke="midnightblue" d="M1484.4,-190.27C1491.45,-180.35 1500.76,-166.66 1508,-154 1520.12,-132.8 1531.92,-107.24 1539.31,-90.47"/>
<polygon fill="midnightblue" stroke="midnightblue" points="1542.53,-91.84 1543.31,-81.28 1536.11,-89.05 1542.53,-91.84"/>
</g>
<!-- Node20&#45;&gt;Node15 -->
<g id="edge23" class="edge">
<title>Node20&#45;&gt;Node15</title>
<path fill="none" stroke="midnightblue" d="M1541.22,-201.94C1608.55,-197.59 1714.22,-185.81 1800,-154 1843.62,-137.83 1888.34,-106.09 1912.6,-87.35"/>
<polygon fill="midnightblue" stroke="midnightblue" points="1914.87,-90.01 1920.57,-81.08 1910.55,-84.51 1914.87,-90.01"/>
</g>
<!-- Node21 -->
<g id="node21" class="node">
<title>Node21</title>
<g id="a_node21"><a xlink:title=" ">
<polygon fill="white" stroke="#bfbfbf" points="1555,-129 1555,-148 1593,-148 1593,-129 1555,-129"/>
<text text-anchor="middle" x="1574" y="-136" font-family="Helvetica,sans-Serif" font-size="10.00">map</text>
</a>
</g>
</g>
<!-- Node20&#45;&gt;Node21 -->
<g id="edge22" class="edge">
<title>Node20&#45;&gt;Node21</title>
<path fill="none" stroke="midnightblue" d="M1495.7,-190.4C1512.47,-179.5 1535.57,-164.48 1552.33,-153.58"/>
<polygon fill="midnightblue" stroke="midnightblue" points="1554.44,-156.39 1560.91,-148.01 1550.62,-150.52 1554.44,-156.39"/>
</g>
<!-- Node22 -->
<g id="node22" class="node">
<title>Node22</title>
<g id="a_node22"><a xlink:title=" ">
<polygon fill="white" stroke="#bfbfbf" points="1449,-129 1449,-148 1499,-148 1499,-129 1449,-129"/>
<text text-anchor="middle" x="1474" y="-136" font-family="Helvetica,sans-Serif" font-size="10.00">atomic</text>
</a>
</g>
</g>
<!-- Node20&#45;&gt;Node22 -->
<g id="edge24" class="edge">
<title>Node20&#45;&gt;Node22</title>
<path fill="none" stroke="midnightblue" d="M1474,-190.4C1474,-181.06 1474,-168.71 1474,-158.52"/>
<polygon fill="midnightblue" stroke="midnightblue" points="1477.5,-158.19 1474,-148.19 1470.5,-158.19 1477.5,-158.19"/>
</g>
<!-- Node23 -->
<g id="node23" class="node">
<title>Node23</title>
<g id="a_node23"><a xlink:title=" ">
<polygon fill="white" stroke="#bfbfbf" points="1649.5,-129 1649.5,-148 1790.5,-148 1790.5,-129 1649.5,-129"/>
<text text-anchor="middle" x="1720" y="-136" font-family="Helvetica,sans-Serif" font-size="10.00">boost/asio/ip/address.hpp</text>
</a>
</g>
</g>
<!-- Node20&#45;&gt;Node23 -->
<g id="edge26" class="edge">
<title>Node20&#45;&gt;Node23</title>
<path fill="none" stroke="midnightblue" d="M1527.08,-190.48C1572.22,-178.55 1636.19,-161.64 1677.89,-150.63"/>
<polygon fill="midnightblue" stroke="midnightblue" points="1678.95,-153.97 1687.72,-148.03 1677.16,-147.2 1678.95,-153.97"/>
</g>
<!-- Node24&#45;&gt;Node5 -->
<g id="edge32" class="edge">
<title>Node24&#45;&gt;Node5</title>
<path fill="none" stroke="midnightblue" d="M1257,-262.84C1257,-241.67 1257,-186.95 1257,-158.03"/>
<polygon fill="midnightblue" stroke="midnightblue" points="1260.5,-158.02 1257,-148.02 1253.5,-158.02 1260.5,-158.02"/>
</g>
<!-- Node24&#45;&gt;Node15 -->
<g id="edge31" class="edge">
<title>Node24&#45;&gt;Node15</title>
<path fill="none" stroke="midnightblue" d="M1311.86,-270.82C1420.02,-267.35 1665.72,-248.73 1844,-154 1874.61,-137.74 1902.4,-107.87 1917.97,-89.16"/>
<polygon fill="midnightblue" stroke="midnightblue" points="1920.83,-91.19 1924.4,-81.21 1915.39,-86.78 1920.83,-91.19"/>
</g>
<!-- Node24&#45;&gt;Node16 -->
<g id="edge33" class="edge">
<title>Node24&#45;&gt;Node16</title>
<path fill="none" stroke="midnightblue" d="M1202.41,-271.93C1091.11,-271.84 842.62,-266.39 773,-221 730.98,-193.6 742.57,-166.16 717,-123 710.39,-111.85 702.78,-99.44 696.75,-89.71"/>
<polygon fill="midnightblue" stroke="midnightblue" points="699.6,-87.67 691.35,-81.03 693.66,-91.37 699.6,-87.67"/>
</g>
<!-- Node24&#45;&gt;Node20 -->
<g id="edge46" class="edge">
<title>Node24&#45;&gt;Node20</title>
<path fill="none" stroke="midnightblue" d="M1285.82,-262.87C1319.29,-252.84 1375.33,-236.06 1417.57,-223.4"/>
<polygon fill="midnightblue" stroke="midnightblue" points="1418.59,-226.75 1427.17,-220.53 1416.58,-220.04 1418.59,-226.75"/>
</g>
<!-- Node24&#45;&gt;Node22 -->
<g id="edge30" class="edge">
<title>Node24&#45;&gt;Node22</title>
<path fill="none" stroke="midnightblue" d="M1271.24,-262.84C1308.03,-240.46 1406.53,-180.54 1451.3,-153.31"/>
<polygon fill="midnightblue" stroke="midnightblue" points="1453.27,-156.21 1459.99,-148.02 1449.63,-150.23 1453.27,-156.21"/>
</g>
<!-- Node25 -->
<g id="node25" class="node">
<title>Node25</title>
<g id="a_node25"><a xlink:title=" ">
<polygon fill="white" stroke="#bfbfbf" points="1087.5,-129 1087.5,-148 1214.5,-148 1214.5,-129 1087.5,-129"/>
<text text-anchor="middle" x="1151" y="-136" font-family="Helvetica,sans-Serif" font-size="10.00">vsomeip/message.hpp</text>
</a>
</g>
</g>
<!-- Node24&#45;&gt;Node25 -->
<g id="edge34" class="edge">
<title>Node24&#45;&gt;Node25</title>
<path fill="none" stroke="midnightblue" d="M1250.05,-262.84C1232.67,-241.21 1187.14,-184.51 1164.37,-156.15"/>
<polygon fill="midnightblue" stroke="midnightblue" points="1166.83,-153.63 1157.84,-148.02 1161.38,-158.01 1166.83,-153.63"/>
</g>
<!-- Node26 -->
<g id="node26" class="node">
<title>Node26</title>
<g id="a_node26"><a xlink:href="implementation_2service__discovery_2include_2primitive__types_8hpp.html" target="_top" xlink:title=" ">
<polygon fill="white" stroke="black" points="782,-190.5 782,-220.5 890,-220.5 890,-190.5 782,-190.5"/>
<text text-anchor="start" x="790" y="-208.5" font-family="Helvetica,sans-Serif" font-size="10.00">../include/primitive</text>
<text text-anchor="middle" x="836" y="-197.5" font-family="Helvetica,sans-Serif" font-size="10.00">_types.hpp</text>
</a>
</g>
</g>
<!-- Node24&#45;&gt;Node26 -->
<g id="edge35" class="edge">
<title>Node24&#45;&gt;Node26</title>
<path fill="none" stroke="midnightblue" d="M1202.29,-263.95C1134.86,-254.52 1016.83,-237.6 916,-221 910.91,-220.16 905.64,-219.27 900.35,-218.35"/>
<polygon fill="midnightblue" stroke="midnightblue" points="900.64,-214.85 890.18,-216.56 899.42,-221.74 900.64,-214.85"/>
</g>
<!-- Node27 -->
<g id="node27" class="node">
<title>Node27</title>
<g id="a_node27"><a xlink:href="message_2include_2message__base__impl_8hpp.html" target="_top" xlink:title=" ">
<polygon fill="white" stroke="black" points="925,-190.5 925,-220.5 1065,-220.5 1065,-190.5 925,-190.5"/>
<text text-anchor="start" x="933" y="-208.5" font-family="Helvetica,sans-Serif" font-size="10.00">../../message/include</text>
<text text-anchor="middle" x="995" y="-197.5" font-family="Helvetica,sans-Serif" font-size="10.00">/message_base_impl.hpp</text>
</a>
</g>
</g>
<!-- Node24&#45;&gt;Node27 -->
<g id="edge37" class="edge">
<title>Node24&#45;&gt;Node27</title>
<path fill="none" stroke="midnightblue" d="M1222.48,-262.94C1181.7,-252.82 1112.95,-235.76 1061.68,-223.04"/>
<polygon fill="midnightblue" stroke="midnightblue" points="1062.22,-219.57 1051.67,-220.56 1060.53,-226.36 1062.22,-219.57"/>
</g>
<!-- Node26&#45;&gt;Node4 -->
<g id="edge36" class="edge">
<title>Node26&#45;&gt;Node4</title>
<path fill="none" stroke="midnightblue" d="M819.2,-190.21C801.08,-173.07 776.97,-144.03 794,-123 867.67,-32.02 1253.94,-14.84 1373.62,-11.69"/>
<polygon fill="midnightblue" stroke="midnightblue" points="1373.8,-15.18 1383.71,-11.44 1373.62,-8.19 1373.8,-15.18"/>
</g>
<!-- Node27&#45;&gt;Node9 -->
<g id="edge39" class="edge">
<title>Node27&#45;&gt;Node9</title>
<path fill="none" stroke="midnightblue" d="M924.82,-193.27C916.14,-192.07 907.38,-190.94 899,-190 845.3,-183.96 450.77,-193.6 414,-154 394.21,-132.68 425.15,-104.13 448.63,-87.09"/>
<polygon fill="midnightblue" stroke="midnightblue" points="450.93,-89.75 457.14,-81.16 446.93,-84.01 450.93,-89.75"/>
</g>
<!-- Node27&#45;&gt;Node25 -->
<g id="edge40" class="edge">
<title>Node27&#45;&gt;Node25</title>
<path fill="none" stroke="midnightblue" d="M1028.85,-190.4C1056.34,-178.94 1094.75,-162.94 1121.11,-151.95"/>
<polygon fill="midnightblue" stroke="midnightblue" points="1122.7,-155.08 1130.58,-148.01 1120.01,-148.62 1122.7,-155.08"/>
</g>
<!-- Node28 -->
<g id="node28" class="node">
<title>Node28</title>
<g id="a_node28"><a xlink:title=" ">
<polygon fill="white" stroke="#bfbfbf" points="803.5,-129 803.5,-148 902.5,-148 902.5,-129 803.5,-129"/>
<text text-anchor="middle" x="853" y="-136" font-family="Helvetica,sans-Serif" font-size="10.00">boost/thread.hpp</text>
</a>
</g>
</g>
<!-- Node27&#45;&gt;Node28 -->
<g id="edge38" class="edge">
<title>Node27&#45;&gt;Node28</title>
<path fill="none" stroke="midnightblue" d="M964.19,-190.4C939.38,-179.04 904.82,-163.22 880.84,-152.24"/>
<polygon fill="midnightblue" stroke="midnightblue" points="882.13,-148.99 871.58,-148.01 879.22,-155.35 882.13,-148.99"/>
</g>
<!-- Node29 -->
<g id="node29" class="node">
<title>Node29</title>
<g id="a_node29"><a xlink:href="message__header__impl_8hpp.html" target="_top" xlink:title=" ">
<polygon fill="white" stroke="black" points="921,-129 921,-148 1069,-148 1069,-129 921,-129"/>
<text text-anchor="middle" x="995" y="-136" font-family="Helvetica,sans-Serif" font-size="10.00">message_header_impl.hpp</text>
</a>
</g>
</g>
<!-- Node27&#45;&gt;Node29 -->
<g id="edge41" class="edge">
<title>Node27&#45;&gt;Node29</title>
<path fill="none" stroke="midnightblue" d="M995,-190.4C995,-181.06 995,-168.71 995,-158.52"/>
<polygon fill="midnightblue" stroke="midnightblue" points="998.5,-158.19 995,-148.19 991.5,-158.19 998.5,-158.19"/>
</g>
<!-- Node29&#45;&gt;Node9 -->
<g id="edge42" class="edge">
<title>Node29&#45;&gt;Node9</title>
<path fill="none" stroke="midnightblue" d="M948.42,-128.98C936.26,-126.88 923.16,-124.75 911,-123 779.35,-104.1 624.74,-87.68 538.29,-79.03"/>
<polygon fill="midnightblue" stroke="midnightblue" points="538.39,-75.52 528.09,-78.01 537.69,-82.48 538.39,-75.52"/>
</g>
<!-- Node29&#45;&gt;Node11 -->
<g id="edge44" class="edge">
<title>Node29&#45;&gt;Node11</title>
<path fill="none" stroke="midnightblue" d="M1019.57,-128.87C1047.69,-118.99 1094.48,-102.55 1130.29,-89.97"/>
<polygon fill="midnightblue" stroke="midnightblue" points="1131.8,-93.15 1140.07,-86.53 1129.48,-86.54 1131.8,-93.15"/>
</g>
<!-- Node29&#45;&gt;Node12 -->
<g id="edge43" class="edge">
<title>Node29&#45;&gt;Node12</title>
<path fill="none" stroke="midnightblue" d="M1040.58,-128.98C1052.71,-126.87 1065.83,-124.72 1078,-123 1209.44,-104.46 1362.46,-89.15 1457.04,-80.42"/>
<polygon fill="midnightblue" stroke="midnightblue" points="1457.5,-83.89 1467.14,-79.49 1456.86,-76.92 1457.5,-83.89"/>
</g>
<!-- Node29&#45;&gt;Node17 -->
<g id="edge45" class="edge">
<title>Node29&#45;&gt;Node17</title>
<path fill="none" stroke="midnightblue" d="M1038.81,-128.93C1051.42,-126.71 1065.22,-124.52 1078,-123 1324.77,-93.57 1388.37,-107.99 1636,-87 1652.86,-85.57 1670.85,-83.84 1688.08,-82.07"/>
<polygon fill="midnightblue" stroke="midnightblue" points="1688.54,-85.54 1698.13,-81.03 1687.82,-78.58 1688.54,-85.54"/>
</g>
<!-- Node30&#45;&gt;Node9 -->
<g id="edge49" class="edge">
<title>Node30&#45;&gt;Node9</title>
<path fill="none" stroke="midnightblue" d="M611.16,-123.4C579.2,-111.79 534.38,-95.51 504.1,-84.52"/>
<polygon fill="midnightblue" stroke="midnightblue" points="505.02,-81.13 494.43,-81.01 502.63,-87.71 505.02,-81.13"/>
</g>
<!-- Node30&#45;&gt;Node12 -->
<g id="edge50" class="edge">
<title>Node30&#45;&gt;Node12</title>
<path fill="none" stroke="midnightblue" d="M708.81,-131.13C734.89,-128.42 765.96,-125.35 794,-123 1033.15,-102.95 1315.56,-85.74 1456.9,-77.57"/>
<polygon fill="midnightblue" stroke="midnightblue" points="1457.46,-81.04 1467.25,-76.97 1457.06,-74.05 1457.46,-81.04"/>
</g>
<!-- Node30&#45;&gt;Node16 -->
<g id="edge48" class="edge">
<title>Node30&#45;&gt;Node16</title>
<path fill="none" stroke="midnightblue" d="M657.81,-123.4C663.2,-113.66 670.41,-100.65 676.19,-90.21"/>
<polygon fill="midnightblue" stroke="midnightblue" points="679.4,-91.64 681.18,-81.19 673.28,-88.25 679.4,-91.64"/>
</g>
<!-- Node31&#45;&gt;Node9 -->
<g id="edge53" class="edge">
<title>Node31&#45;&gt;Node9</title>
<path fill="none" stroke="midnightblue" d="M505.45,-123.4C498.73,-113.46 489.69,-100.11 482.56,-89.57"/>
<polygon fill="midnightblue" stroke="midnightblue" points="485.39,-87.51 476.89,-81.19 479.59,-91.44 485.39,-87.51"/>
</g>
<!-- Node31&#45;&gt;Node12 -->
<g id="edge54" class="edge">
<title>Node31&#45;&gt;Node12</title>
<path fill="none" stroke="midnightblue" d="M573.73,-124.23C576.52,-123.78 579.29,-123.36 582,-123 603.52,-120.13 1221.46,-88.87 1457,-77.02"/>
<polygon fill="midnightblue" stroke="midnightblue" points="1457.43,-80.5 1467.24,-76.5 1457.08,-73.51 1457.43,-80.5"/>
</g>
<!-- Node31&#45;&gt;Node16 -->
<g id="edge52" class="edge">
<title>Node31&#45;&gt;Node16</title>
<path fill="none" stroke="midnightblue" d="M552.1,-123.4C582.51,-111.84 625.08,-95.66 654,-84.66"/>
<polygon fill="midnightblue" stroke="midnightblue" points="655.52,-87.83 663.62,-81.01 653.03,-81.29 655.52,-87.83"/>
</g>
<!-- Node32&#45;&gt;Node12 -->
<g id="edge57" class="edge">
<title>Node32&#45;&gt;Node12</title>
<path fill="none" stroke="midnightblue" d="M1635.52,-257.39C1634.02,-229.77 1627.79,-167.36 1602,-123 1593.8,-108.89 1580.36,-96.44 1568.82,-87.44"/>
<polygon fill="midnightblue" stroke="midnightblue" points="1570.6,-84.4 1560.48,-81.25 1566.43,-90.02 1570.6,-84.4"/>
</g>
<!-- Node32&#45;&gt;Node23 -->
<g id="edge56" class="edge">
<title>Node32&#45;&gt;Node23</title>
<path fill="none" stroke="midnightblue" d="M1644.99,-257.37C1660.52,-232.97 1692.32,-183 1709.09,-156.65"/>
<polygon fill="midnightblue" stroke="midnightblue" points="1712.11,-158.41 1714.53,-148.1 1706.21,-154.65 1712.11,-158.41"/>
</g>
<!-- Node33 -->
<g id="node33" class="node">
<title>Node33</title>
<g id="a_node33"><a xlink:href="ip__option__impl_8hpp.html" target="_top" xlink:title=" ">
<polygon fill="white" stroke="black" points="1847,-196 1847,-215 1957,-215 1957,-196 1847,-196"/>
<text text-anchor="middle" x="1902" y="-203" font-family="Helvetica,sans-Serif" font-size="10.00">ip_option_impl.hpp</text>
</a>
</g>
</g>
<!-- Node32&#45;&gt;Node33 -->
<g id="edge58" class="edge">
<title>Node32&#45;&gt;Node33</title>
<path fill="none" stroke="midnightblue" d="M1693.39,-257.48C1742.52,-245.47 1812.26,-228.43 1857.32,-217.42"/>
<polygon fill="midnightblue" stroke="midnightblue" points="1858.21,-220.8 1867.1,-215.03 1856.55,-214 1858.21,-220.8"/>
</g>
<!-- Node33&#45;&gt;Node12 -->
<g id="edge59" class="edge">
<title>Node33&#45;&gt;Node12</title>
<path fill="none" stroke="midnightblue" d="M1897.45,-195.89C1887.97,-178.87 1864.35,-141.01 1833,-123 1814.62,-112.44 1696.93,-93.95 1618.36,-82.52"/>
<polygon fill="midnightblue" stroke="midnightblue" points="1618.43,-78.99 1608.03,-81.02 1617.43,-85.92 1618.43,-78.99"/>
</g>
<!-- Node34 -->
<g id="node34" class="node">
<title>Node34</title>
<g id="a_node34"><a xlink:href="option__impl_8hpp.html" target="_top" xlink:title=" ">
<polygon fill="white" stroke="black" points="2107.5,-129 2107.5,-148 2202.5,-148 2202.5,-129 2107.5,-129"/>
<text text-anchor="middle" x="2155" y="-136" font-family="Helvetica,sans-Serif" font-size="10.00">option_impl.hpp</text>
</a>
</g>
</g>
<!-- Node33&#45;&gt;Node34 -->
<g id="edge60" class="edge">
<title>Node33&#45;&gt;Node34</title>
<path fill="none" stroke="midnightblue" d="M1935.34,-195.94C1980.65,-184.29 2061.76,-163.45 2111.73,-150.62"/>
<polygon fill="midnightblue" stroke="midnightblue" points="2112.78,-153.96 2121.59,-148.08 2111.03,-147.18 2112.78,-153.96"/>
</g>
<!-- Node34&#45;&gt;Node4 -->
<g id="edge61" class="edge">
<title>Node34&#45;&gt;Node4</title>
<path fill="none" stroke="midnightblue" d="M2183.49,-128.98C2221.96,-117.2 2286.48,-96.33 2293,-87 2300.89,-75.71 2302.49,-65.99 2293,-56 2263.28,-24.73 1605.33,-13.69 1444.32,-11.45"/>
<polygon fill="midnightblue" stroke="midnightblue" points="1444.07,-7.95 1434.02,-11.31 1443.97,-14.95 1444.07,-7.95"/>
</g>
<!-- Node34&#45;&gt;Node15 -->
<g id="edge62" class="edge">
<title>Node34&#45;&gt;Node15</title>
<path fill="none" stroke="midnightblue" d="M2121.99,-128.96C2076.62,-117.15 1997.4,-96.25 1969,-87 1966.59,-86.22 1964.11,-85.37 1961.63,-84.49"/>
<polygon fill="midnightblue" stroke="midnightblue" points="1962.76,-81.17 1952.17,-81.01 1960.35,-87.74 1962.76,-81.17"/>
</g>
<!-- Node34&#45;&gt;Node18 -->
<g id="edge63" class="edge">
<title>Node34&#45;&gt;Node18</title>
<path fill="none" stroke="midnightblue" d="M2140.03,-128.73C2121.39,-117.82 2089.34,-99.05 2067.43,-86.22"/>
<polygon fill="midnightblue" stroke="midnightblue" points="2069.13,-83.16 2058.73,-81.13 2065.59,-89.2 2069.13,-83.16"/>
</g>
<!-- Node34&#45;&gt;Node19 -->
<g id="edge64" class="edge">
<title>Node34&#45;&gt;Node19</title>
<path fill="none" stroke="midnightblue" d="M2161.88,-128.73C2169.83,-118.6 2183.1,-101.69 2193.01,-89.06"/>
<polygon fill="midnightblue" stroke="midnightblue" points="2195.81,-91.16 2199.23,-81.13 2190.3,-86.83 2195.81,-91.16"/>
</g>
<!-- Node35&#45;&gt;Node12 -->
<g id="edge67" class="edge">
<title>Node35&#45;&gt;Node12</title>
<path fill="none" stroke="midnightblue" d="M1808.81,-257.22C1817.62,-228.17 1832.58,-161.65 1800,-123 1788.38,-109.21 1691.22,-92.78 1620.76,-82.49"/>
<polygon fill="midnightblue" stroke="midnightblue" points="1620.97,-78.99 1610.57,-81.02 1619.97,-85.91 1620.97,-78.99"/>
</g>
<!-- Node35&#45;&gt;Node23 -->
<g id="edge66" class="edge">
<title>Node35&#45;&gt;Node23</title>
<path fill="none" stroke="midnightblue" d="M1795.01,-257.37C1779.48,-232.97 1747.68,-183 1730.91,-156.65"/>
<polygon fill="midnightblue" stroke="midnightblue" points="1733.79,-154.65 1725.47,-148.1 1727.89,-158.41 1733.79,-154.65"/>
</g>
<!-- Node35&#45;&gt;Node33 -->
<g id="edge68" class="edge">
<title>Node35&#45;&gt;Node33</title>
<path fill="none" stroke="midnightblue" d="M1825.26,-257.4C1841.7,-246.5 1864.34,-231.48 1880.77,-220.58"/>
<polygon fill="midnightblue" stroke="midnightblue" points="1882.78,-223.45 1889.17,-215.01 1878.91,-217.62 1882.78,-223.45"/>
</g>
<!-- Node36&#45;&gt;Node12 -->
<g id="edge71" class="edge">
<title>Node36&#45;&gt;Node12</title>
<path fill="none" stroke="midnightblue" d="M2086.14,-190.42C2035.57,-172.55 1944.19,-141.8 1864,-123 1785.33,-104.55 1694.09,-90.8 1629.75,-82.35"/>
<polygon fill="midnightblue" stroke="midnightblue" points="1630.03,-78.85 1619.66,-81.03 1629.12,-85.79 1630.03,-78.85"/>
</g>
<!-- Node36&#45;&gt;Node34 -->
<g id="edge72" class="edge">
<title>Node36&#45;&gt;Node34</title>
<path fill="none" stroke="midnightblue" d="M2131.51,-190.4C2135.96,-180.76 2141.89,-167.91 2146.68,-157.54"/>
<polygon fill="midnightblue" stroke="midnightblue" points="2149.97,-158.74 2150.99,-148.19 2143.62,-155.81 2149.97,-158.74"/>
</g>
<!-- Node37 -->
<g id="node37" class="node">
<title>Node37</title>
<g id="a_node37"><a xlink:title=" ">
<polygon fill="white" stroke="#bfbfbf" points="2221,-129 2221,-148 2253,-148 2253,-129 2221,-129"/>
<text text-anchor="middle" x="2237" y="-136" font-family="Helvetica,sans-Serif" font-size="10.00">set</text>
</a>
</g>
</g>
<!-- Node36&#45;&gt;Node37 -->
<g id="edge70" class="edge">
<title>Node36&#45;&gt;Node37</title>
<path fill="none" stroke="midnightblue" d="M2149.3,-190.4C2168.35,-179.34 2194.68,-164.06 2213.51,-153.13"/>
<polygon fill="midnightblue" stroke="midnightblue" points="2215.45,-156.05 2222.34,-148.01 2211.94,-150 2215.45,-156.05"/>
</g>
</g>
</svg>
