<?xml version="1.0" encoding="UTF-8" standalone="no"?>
<!DOCTYPE svg PUBLIC "-//W3C//DTD SVG 1.1//EN"
 "http://www.w3.org/Graphics/SVG/1.1/DTD/svg11.dtd">
<!-- Generated by graphviz version 2.43.0 (0)
 -->
<!-- Title: /home/kali/projects/vsomeip/implementation/routing/include/eventgroupinfo.hpp Pages: 1 -->
<svg width="1093pt" height="317pt"
 viewBox="0.00 0.00 1092.50 317.00" xmlns="http://www.w3.org/2000/svg" xmlns:xlink="http://www.w3.org/1999/xlink">
<g id="graph0" class="graph" transform="scale(1 1) rotate(0) translate(4 313)">
<title>/home/kali/projects/vsomeip/implementation/routing/include/eventgroupinfo.hpp</title>
<polygon fill="white" stroke="transparent" points="-4,4 -4,-313 1088.5,-313 1088.5,4 -4,4"/>
<!-- Node1 -->
<g id="node1" class="node">
<title>Node1</title>
<g id="a_node1"><a xlink:title=" ">
<polygon fill="#bfbfbf" stroke="black" points="675.5,-267.5 675.5,-308.5 866.5,-308.5 866.5,-267.5 675.5,-267.5"/>
<text text-anchor="start" x="683.5" y="-296.5" font-family="Helvetica,sans-Serif" font-size="10.00">/home/kali/projects</text>
<text text-anchor="start" x="683.5" y="-285.5" font-family="Helvetica,sans-Serif" font-size="10.00">/vsomeip/implementation</text>
<text text-anchor="middle" x="771" y="-274.5" font-family="Helvetica,sans-Serif" font-size="10.00">/routing/include/eventgroupinfo.hpp</text>
</a>
</g>
</g>
<!-- Node2 -->
<g id="node2" class="node">
<title>Node2</title>
<g id="a_node2"><a xlink:href="routing__manager__base_8hpp.html" target="_top" xlink:title=" ">
<polygon fill="white" stroke="black" points="414.5,-178.5 414.5,-230.5 557.5,-230.5 557.5,-178.5 414.5,-178.5"/>
<text text-anchor="start" x="422.5" y="-218.5" font-family="Helvetica,sans-Serif" font-size="10.00">/home/kali/projects</text>
<text text-anchor="start" x="422.5" y="-207.5" font-family="Helvetica,sans-Serif" font-size="10.00">/vsomeip/implementation</text>
<text text-anchor="start" x="422.5" y="-196.5" font-family="Helvetica,sans-Serif" font-size="10.00">/routing/include/routing</text>
<text text-anchor="middle" x="486" y="-185.5" font-family="Helvetica,sans-Serif" font-size="10.00">_manager_base.hpp</text>
</a>
</g>
</g>
<!-- Node1&#45;&gt;Node2 -->
<g id="edge1" class="edge">
<title>Node1&#45;&gt;Node2</title>
<path fill="none" stroke="midnightblue" d="M693.04,-264.71C650.79,-252.62 598.93,-237.79 557.68,-226"/>
<polygon fill="midnightblue" stroke="midnightblue" points="692.16,-268.09 702.74,-267.48 694.08,-261.36 692.16,-268.09"/>
</g>
<!-- Node6 -->
<g id="node6" class="node">
<title>Node6</title>
<g id="a_node6"><a xlink:href="routing__manager__impl_8cpp.html" target="_top" xlink:title=" ">
<polygon fill="white" stroke="black" points="618,-0.5 618,-52.5 776,-52.5 776,-0.5 618,-0.5"/>
<text text-anchor="start" x="626" y="-40.5" font-family="Helvetica,sans-Serif" font-size="10.00">/home/kali/projects</text>
<text text-anchor="start" x="626" y="-29.5" font-family="Helvetica,sans-Serif" font-size="10.00">/vsomeip/implementation</text>
<text text-anchor="start" x="626" y="-18.5" font-family="Helvetica,sans-Serif" font-size="10.00">/routing/src/routing_manager</text>
<text text-anchor="middle" x="697" y="-7.5" font-family="Helvetica,sans-Serif" font-size="10.00">_impl.cpp</text>
</a>
</g>
</g>
<!-- Node1&#45;&gt;Node6 -->
<g id="edge13" class="edge">
<title>Node1&#45;&gt;Node6</title>
<path fill="none" stroke="midnightblue" d="M749.43,-259.17C743.64,-250.54 737.91,-240.73 734,-231 709.44,-169.85 701.08,-91.81 698.31,-52.51"/>
<polygon fill="midnightblue" stroke="midnightblue" points="746.57,-261.19 755.18,-267.36 752.3,-257.17 746.57,-261.19"/>
</g>
<!-- Node11 -->
<g id="node11" class="node">
<title>Node11</title>
<g id="a_node11"><a xlink:href="eventgroupinfo_8cpp.html" target="_top" xlink:title=" ">
<polygon fill="white" stroke="black" points="742.5,-184 742.5,-225 911.5,-225 911.5,-184 742.5,-184"/>
<text text-anchor="start" x="750.5" y="-213" font-family="Helvetica,sans-Serif" font-size="10.00">/home/kali/projects</text>
<text text-anchor="start" x="750.5" y="-202" font-family="Helvetica,sans-Serif" font-size="10.00">/vsomeip/implementation</text>
<text text-anchor="middle" x="827" y="-191" font-family="Helvetica,sans-Serif" font-size="10.00">/routing/src/eventgroupinfo.cpp</text>
</a>
</g>
</g>
<!-- Node1&#45;&gt;Node11 -->
<g id="edge12" class="edge">
<title>Node1&#45;&gt;Node11</title>
<path fill="none" stroke="midnightblue" d="M790.43,-258.72C798.06,-247.61 806.64,-235.13 813.57,-225.05"/>
<polygon fill="midnightblue" stroke="midnightblue" points="787.33,-257.05 784.56,-267.27 793.1,-261.01 787.33,-257.05"/>
</g>
<!-- Node12 -->
<g id="node12" class="node">
<title>Node12</title>
<g id="a_node12"><a xlink:href="service__discovery__impl_8cpp.html" target="_top" xlink:title=" ">
<polygon fill="white" stroke="black" points="929.5,-178.5 929.5,-230.5 1084.5,-230.5 1084.5,-178.5 929.5,-178.5"/>
<text text-anchor="start" x="937.5" y="-218.5" font-family="Helvetica,sans-Serif" font-size="10.00">/home/kali/projects</text>
<text text-anchor="start" x="937.5" y="-207.5" font-family="Helvetica,sans-Serif" font-size="10.00">/vsomeip/implementation</text>
<text text-anchor="start" x="937.5" y="-196.5" font-family="Helvetica,sans-Serif" font-size="10.00">/service_discovery/src</text>
<text text-anchor="middle" x="1007" y="-185.5" font-family="Helvetica,sans-Serif" font-size="10.00">/service_discovery_impl.cpp</text>
</a>
</g>
</g>
<!-- Node1&#45;&gt;Node12 -->
<g id="edge14" class="edge">
<title>Node1&#45;&gt;Node12</title>
<path fill="none" stroke="midnightblue" d="M837.14,-264.16C867.41,-253.7 903.37,-241.29 934.39,-230.58"/>
<polygon fill="midnightblue" stroke="midnightblue" points="835.84,-260.91 827.53,-267.48 838.12,-267.52 835.84,-260.91"/>
</g>
<!-- Node3 -->
<g id="node3" class="node">
<title>Node3</title>
<g id="a_node3"><a xlink:href="endpoint__manager__base_8cpp.html" target="_top" xlink:title=" ">
<polygon fill="white" stroke="black" points="168.5,-89.5 168.5,-141.5 311.5,-141.5 311.5,-89.5 168.5,-89.5"/>
<text text-anchor="start" x="176.5" y="-129.5" font-family="Helvetica,sans-Serif" font-size="10.00">/home/kali/projects</text>
<text text-anchor="start" x="176.5" y="-118.5" font-family="Helvetica,sans-Serif" font-size="10.00">/vsomeip/implementation</text>
<text text-anchor="start" x="176.5" y="-107.5" font-family="Helvetica,sans-Serif" font-size="10.00">/endpoints/src/endpoint</text>
<text text-anchor="middle" x="240" y="-96.5" font-family="Helvetica,sans-Serif" font-size="10.00">_manager_base.cpp</text>
</a>
</g>
</g>
<!-- Node2&#45;&gt;Node3 -->
<g id="edge2" class="edge">
<title>Node2&#45;&gt;Node3</title>
<path fill="none" stroke="midnightblue" d="M405.41,-175C374.86,-164.19 340.33,-151.98 310.75,-141.52"/>
<polygon fill="midnightblue" stroke="midnightblue" points="404.58,-178.42 415.18,-178.45 406.92,-171.82 404.58,-178.42"/>
</g>
<!-- Node4 -->
<g id="node4" class="node">
<title>Node4</title>
<g id="a_node4"><a xlink:href="endpoint__manager__impl_8cpp.html" target="_top" xlink:title=" ">
<polygon fill="white" stroke="black" points="439.5,-0.5 439.5,-52.5 582.5,-52.5 582.5,-0.5 439.5,-0.5"/>
<text text-anchor="start" x="447.5" y="-40.5" font-family="Helvetica,sans-Serif" font-size="10.00">/home/kali/projects</text>
<text text-anchor="start" x="447.5" y="-29.5" font-family="Helvetica,sans-Serif" font-size="10.00">/vsomeip/implementation</text>
<text text-anchor="start" x="447.5" y="-18.5" font-family="Helvetica,sans-Serif" font-size="10.00">/endpoints/src/endpoint</text>
<text text-anchor="middle" x="511" y="-7.5" font-family="Helvetica,sans-Serif" font-size="10.00">_manager_impl.cpp</text>
</a>
</g>
</g>
<!-- Node2&#45;&gt;Node4 -->
<g id="edge3" class="edge">
<title>Node2&#45;&gt;Node4</title>
<path fill="none" stroke="midnightblue" d="M567.45,-194.86C601.23,-186.8 637.31,-171.38 658,-142 671.57,-122.74 671.05,-108.61 658,-89 648.73,-75.07 615.38,-60.57 582.79,-49.15"/>
<polygon fill="midnightblue" stroke="midnightblue" points="566.54,-191.48 557.53,-197.04 568.05,-198.31 566.54,-191.48"/>
</g>
<!-- Node5 -->
<g id="node5" class="node">
<title>Node5</title>
<g id="a_node5"><a xlink:href="routing__manager__impl_8hpp.html" target="_top" xlink:title=" ">
<polygon fill="white" stroke="black" points="329.5,-89.5 329.5,-141.5 472.5,-141.5 472.5,-89.5 329.5,-89.5"/>
<text text-anchor="start" x="337.5" y="-129.5" font-family="Helvetica,sans-Serif" font-size="10.00">/home/kali/projects</text>
<text text-anchor="start" x="337.5" y="-118.5" font-family="Helvetica,sans-Serif" font-size="10.00">/vsomeip/implementation</text>
<text text-anchor="start" x="337.5" y="-107.5" font-family="Helvetica,sans-Serif" font-size="10.00">/routing/include/routing</text>
<text text-anchor="middle" x="401" y="-96.5" font-family="Helvetica,sans-Serif" font-size="10.00">_manager_impl.hpp</text>
</a>
</g>
</g>
<!-- Node2&#45;&gt;Node5 -->
<g id="edge4" class="edge">
<title>Node2&#45;&gt;Node5</title>
<path fill="none" stroke="midnightblue" d="M454.32,-171.08C444.8,-161.34 434.51,-150.8 425.53,-141.61"/>
<polygon fill="midnightblue" stroke="midnightblue" points="451.92,-173.63 461.41,-178.34 456.93,-168.74 451.92,-173.63"/>
</g>
<!-- Node8 -->
<g id="node8" class="node">
<title>Node8</title>
<g id="a_node8"><a xlink:href="routing__manager__proxy_8hpp.html" target="_top" xlink:title=" ">
<polygon fill="white" stroke="black" points="7.5,-89.5 7.5,-141.5 150.5,-141.5 150.5,-89.5 7.5,-89.5"/>
<text text-anchor="start" x="15.5" y="-129.5" font-family="Helvetica,sans-Serif" font-size="10.00">/home/kali/projects</text>
<text text-anchor="start" x="15.5" y="-118.5" font-family="Helvetica,sans-Serif" font-size="10.00">/vsomeip/implementation</text>
<text text-anchor="start" x="15.5" y="-107.5" font-family="Helvetica,sans-Serif" font-size="10.00">/routing/include/routing</text>
<text text-anchor="middle" x="79" y="-96.5" font-family="Helvetica,sans-Serif" font-size="10.00">_manager_proxy.hpp</text>
</a>
</g>
</g>
<!-- Node2&#45;&gt;Node8 -->
<g id="edge8" class="edge">
<title>Node2&#45;&gt;Node8</title>
<path fill="none" stroke="midnightblue" d="M404.32,-191C337.8,-180.13 241.71,-162.88 159,-142 156.31,-141.32 153.59,-140.6 150.84,-139.86"/>
<polygon fill="midnightblue" stroke="midnightblue" points="403.9,-194.47 414.33,-192.62 405.02,-187.56 403.9,-194.47"/>
</g>
<!-- Node10 -->
<g id="node10" class="node">
<title>Node10</title>
<g id="a_node10"><a xlink:href="routing__manager__base_8cpp.html" target="_top" xlink:title=" ">
<polygon fill="white" stroke="black" points="491,-89.5 491,-141.5 649,-141.5 649,-89.5 491,-89.5"/>
<text text-anchor="start" x="499" y="-129.5" font-family="Helvetica,sans-Serif" font-size="10.00">/home/kali/projects</text>
<text text-anchor="start" x="499" y="-118.5" font-family="Helvetica,sans-Serif" font-size="10.00">/vsomeip/implementation</text>
<text text-anchor="start" x="499" y="-107.5" font-family="Helvetica,sans-Serif" font-size="10.00">/routing/src/routing_manager</text>
<text text-anchor="middle" x="570" y="-96.5" font-family="Helvetica,sans-Serif" font-size="10.00">_base.cpp</text>
</a>
</g>
</g>
<!-- Node2&#45;&gt;Node10 -->
<g id="edge11" class="edge">
<title>Node2&#45;&gt;Node10</title>
<path fill="none" stroke="midnightblue" d="M517.31,-171.08C526.71,-161.34 536.88,-150.8 545.76,-141.61"/>
<polygon fill="midnightblue" stroke="midnightblue" points="514.72,-168.71 510.3,-178.34 519.76,-173.57 514.72,-168.71"/>
</g>
<!-- Node5&#45;&gt;Node4 -->
<g id="edge5" class="edge">
<title>Node5&#45;&gt;Node4</title>
<path fill="none" stroke="midnightblue" d="M440.91,-82.93C453.53,-72.96 467.29,-62.07 479.25,-52.61"/>
<polygon fill="midnightblue" stroke="midnightblue" points="438.49,-80.39 432.82,-89.34 442.83,-85.88 438.49,-80.39"/>
</g>
<!-- Node5&#45;&gt;Node6 -->
<g id="edge6" class="edge">
<title>Node5&#45;&gt;Node6</title>
<path fill="none" stroke="midnightblue" d="M482.35,-88.92C532.96,-73.78 579.74,-60.37 617.97,-49.57"/>
<polygon fill="midnightblue" stroke="midnightblue" points="481.09,-85.65 472.52,-91.87 483.11,-92.35 481.09,-85.65"/>
</g>
<!-- Node7 -->
<g id="node7" class="node">
<title>Node7</title>
<g id="a_node7"><a xlink:href="runtime_2src_2application__impl_8cpp.html" target="_top" xlink:title=" ">
<polygon fill="white" stroke="black" points="244.5,-0.5 244.5,-52.5 387.5,-52.5 387.5,-0.5 244.5,-0.5"/>
<text text-anchor="start" x="252.5" y="-40.5" font-family="Helvetica,sans-Serif" font-size="10.00">/home/kali/projects</text>
<text text-anchor="start" x="252.5" y="-29.5" font-family="Helvetica,sans-Serif" font-size="10.00">/vsomeip/implementation</text>
<text text-anchor="start" x="252.5" y="-18.5" font-family="Helvetica,sans-Serif" font-size="10.00">/runtime/src/application</text>
<text text-anchor="middle" x="316" y="-7.5" font-family="Helvetica,sans-Serif" font-size="10.00">_impl.cpp</text>
</a>
</g>
</g>
<!-- Node5&#45;&gt;Node7 -->
<g id="edge7" class="edge">
<title>Node5&#45;&gt;Node7</title>
<path fill="none" stroke="midnightblue" d="M369.32,-82.08C359.8,-72.34 349.51,-61.8 340.53,-52.61"/>
<polygon fill="midnightblue" stroke="midnightblue" points="366.92,-84.63 376.41,-89.34 371.93,-79.74 366.92,-84.63"/>
</g>
<!-- Node8&#45;&gt;Node7 -->
<g id="edge10" class="edge">
<title>Node8&#45;&gt;Node7</title>
<path fill="none" stroke="midnightblue" d="M156.64,-86C186.08,-75.19 219.34,-62.98 247.84,-52.52"/>
<polygon fill="midnightblue" stroke="midnightblue" points="155.41,-82.72 147.23,-89.45 157.83,-89.29 155.41,-82.72"/>
</g>
<!-- Node9 -->
<g id="node9" class="node">
<title>Node9</title>
<g id="a_node9"><a xlink:href="routing__manager__proxy_8cpp.html" target="_top" xlink:title=" ">
<polygon fill="white" stroke="black" points="0,-0.5 0,-52.5 158,-52.5 158,-0.5 0,-0.5"/>
<text text-anchor="start" x="8" y="-40.5" font-family="Helvetica,sans-Serif" font-size="10.00">/home/kali/projects</text>
<text text-anchor="start" x="8" y="-29.5" font-family="Helvetica,sans-Serif" font-size="10.00">/vsomeip/implementation</text>
<text text-anchor="start" x="8" y="-18.5" font-family="Helvetica,sans-Serif" font-size="10.00">/routing/src/routing_manager</text>
<text text-anchor="middle" x="79" y="-7.5" font-family="Helvetica,sans-Serif" font-size="10.00">_proxy.cpp</text>
</a>
</g>
</g>
<!-- Node8&#45;&gt;Node9 -->
<g id="edge9" class="edge">
<title>Node8&#45;&gt;Node9</title>
<path fill="none" stroke="midnightblue" d="M79,-79.19C79,-70.28 79,-60.9 79,-52.61"/>
<polygon fill="midnightblue" stroke="midnightblue" points="75.5,-79.34 79,-89.34 82.5,-79.34 75.5,-79.34"/>
</g>
</g>
</svg>
