<?xml version="1.0" encoding="UTF-8" standalone="no"?>
<!DOCTYPE svg PUBLIC "-//W3C//DTD SVG 1.1//EN"
 "http://www.w3.org/Graphics/SVG/1.1/DTD/svg11.dtd">
<!-- Generated by graphviz version 2.43.0 (0)
 -->
<!-- Title: /home/kali/projects/vsomeip/implementation/routing/include/eventgroupinfo.hpp Pages: 1 -->
<svg width="985pt" height="229pt"
 viewBox="0.00 0.00 984.60 229.00" xmlns="http://www.w3.org/2000/svg" xmlns:xlink="http://www.w3.org/1999/xlink">
<g id="graph0" class="graph" transform="scale(1 1) rotate(0) translate(4 225)">
<title>/home/kali/projects/vsomeip/implementation/routing/include/eventgroupinfo.hpp</title>
<polygon fill="white" stroke="transparent" points="-4,4 -4,-225 980.6,-225 980.6,4 -4,4"/>
<!-- Node1 -->
<g id="node1" class="node">
<title>Node1</title>
<g id="a_node1"><a xlink:title=" ">
<polygon fill="#bfbfbf" stroke="black" points="154.1,-179.5 154.1,-220.5 345.1,-220.5 345.1,-179.5 154.1,-179.5"/>
<text text-anchor="start" x="162.1" y="-208.5" font-family="Helvetica,sans-Serif" font-size="10.00">/home/kali/projects</text>
<text text-anchor="start" x="162.1" y="-197.5" font-family="Helvetica,sans-Serif" font-size="10.00">/vsomeip/implementation</text>
<text text-anchor="middle" x="249.6" y="-186.5" font-family="Helvetica,sans-Serif" font-size="10.00">/routing/include/eventgroupinfo.hpp</text>
</a>
</g>
</g>
<!-- Node2 -->
<g id="node2" class="node">
<title>Node2</title>
<g id="a_node2"><a xlink:title=" ">
<polygon fill="white" stroke="#bfbfbf" points="111.6,-0.5 111.6,-19.5 161.6,-19.5 161.6,-0.5 111.6,-0.5"/>
<text text-anchor="middle" x="136.6" y="-7.5" font-family="Helvetica,sans-Serif" font-size="10.00">atomic</text>
</a>
</g>
</g>
<!-- Node1&#45;&gt;Node2 -->
<g id="edge1" class="edge">
<title>Node1&#45;&gt;Node2</title>
<path fill="none" stroke="midnightblue" d="M154.04,-188.83C95.27,-180.38 27.82,-165.96 9.6,-143 -27.67,-96.04 58.82,-46.66 107,-23.89"/>
<polygon fill="midnightblue" stroke="midnightblue" points="108.75,-26.94 116.36,-19.58 105.82,-20.59 108.75,-26.94"/>
</g>
<!-- Node3 -->
<g id="node3" class="node">
<title>Node3</title>
<g id="a_node3"><a xlink:title=" ">
<polygon fill="white" stroke="#bfbfbf" points="18.6,-123.5 18.6,-142.5 68.6,-142.5 68.6,-123.5 18.6,-123.5"/>
<text text-anchor="middle" x="43.6" y="-130.5" font-family="Helvetica,sans-Serif" font-size="10.00">chrono</text>
</a>
</g>
</g>
<!-- Node1&#45;&gt;Node3 -->
<g id="edge2" class="edge">
<title>Node1&#45;&gt;Node3</title>
<path fill="none" stroke="midnightblue" d="M187.79,-179.5C151.91,-168.18 108.04,-154.33 78.18,-144.91"/>
<polygon fill="midnightblue" stroke="midnightblue" points="79.21,-141.57 68.62,-141.9 77.1,-148.24 79.21,-141.57"/>
</g>
<!-- Node4 -->
<g id="node4" class="node">
<title>Node4</title>
<g id="a_node4"><a xlink:title=" ">
<polygon fill="white" stroke="#bfbfbf" points="86.6,-123.5 86.6,-142.5 118.6,-142.5 118.6,-123.5 86.6,-123.5"/>
<text text-anchor="middle" x="102.6" y="-130.5" font-family="Helvetica,sans-Serif" font-size="10.00">list</text>
</a>
</g>
</g>
<!-- Node1&#45;&gt;Node4 -->
<g id="edge3" class="edge">
<title>Node1&#45;&gt;Node4</title>
<path fill="none" stroke="midnightblue" d="M205.49,-179.5C180.23,-168.33 149.43,-154.71 128.14,-145.29"/>
<polygon fill="midnightblue" stroke="midnightblue" points="129.37,-142.01 118.8,-141.17 126.53,-148.41 129.37,-142.01"/>
</g>
<!-- Node5 -->
<g id="node5" class="node">
<title>Node5</title>
<g id="a_node5"><a xlink:title=" ">
<polygon fill="white" stroke="#bfbfbf" points="918.6,-0.5 918.6,-19.5 976.6,-19.5 976.6,-0.5 918.6,-0.5"/>
<text text-anchor="middle" x="947.6" y="-7.5" font-family="Helvetica,sans-Serif" font-size="10.00">memory</text>
</a>
</g>
</g>
<!-- Node1&#45;&gt;Node5 -->
<g id="edge4" class="edge">
<title>Node1&#45;&gt;Node5</title>
<path fill="none" stroke="midnightblue" d="M345.1,-196C434.76,-191.03 571.76,-177.87 685.6,-143 780.42,-113.96 882.57,-52.73 926.04,-25.08"/>
<polygon fill="midnightblue" stroke="midnightblue" points="928.11,-27.91 934.64,-19.56 924.33,-22.02 928.11,-27.91"/>
</g>
<!-- Node6 -->
<g id="node6" class="node">
<title>Node6</title>
<g id="a_node6"><a xlink:title=" ">
<polygon fill="white" stroke="#bfbfbf" points="179.6,-0.5 179.6,-19.5 227.6,-19.5 227.6,-0.5 179.6,-0.5"/>
<text text-anchor="middle" x="203.6" y="-7.5" font-family="Helvetica,sans-Serif" font-size="10.00">mutex</text>
</a>
</g>
</g>
<!-- Node1&#45;&gt;Node6 -->
<g id="edge5" class="edge">
<title>Node1&#45;&gt;Node6</title>
<path fill="none" stroke="midnightblue" d="M207.19,-179.38C192.89,-170.45 178.55,-158.38 170.6,-143 152.84,-108.65 158.57,-92.75 170.6,-56 174.09,-45.34 181.17,-35.12 187.88,-27.12"/>
<polygon fill="midnightblue" stroke="midnightblue" points="190.5,-29.44 194.58,-19.66 185.29,-24.76 190.5,-29.44"/>
</g>
<!-- Node7 -->
<g id="node7" class="node">
<title>Node7</title>
<g id="a_node7"><a xlink:title=" ">
<polygon fill="white" stroke="#bfbfbf" points="212.6,-62 212.6,-81 244.6,-81 244.6,-62 212.6,-62"/>
<text text-anchor="middle" x="228.6" y="-69" font-family="Helvetica,sans-Serif" font-size="10.00">set</text>
</a>
</g>
</g>
<!-- Node1&#45;&gt;Node7 -->
<g id="edge6" class="edge">
<title>Node1&#45;&gt;Node7</title>
<path fill="none" stroke="midnightblue" d="M246.32,-179.23C242.33,-155.23 235.66,-115.02 231.74,-91.41"/>
<polygon fill="midnightblue" stroke="midnightblue" points="235.15,-90.59 230.06,-81.29 228.24,-91.73 235.15,-90.59"/>
</g>
<!-- Node8 -->
<g id="node8" class="node">
<title>Node8</title>
<g id="a_node8"><a xlink:title=" ">
<polygon fill="white" stroke="#bfbfbf" points="252.1,-123.5 252.1,-142.5 299.1,-142.5 299.1,-123.5 252.1,-123.5"/>
<text text-anchor="middle" x="275.6" y="-130.5" font-family="Helvetica,sans-Serif" font-size="10.00">vector</text>
</a>
</g>
</g>
<!-- Node1&#45;&gt;Node8 -->
<g id="edge7" class="edge">
<title>Node1&#45;&gt;Node8</title>
<path fill="none" stroke="midnightblue" d="M257.4,-179.5C260.89,-170.78 264.97,-160.56 268.39,-152.02"/>
<polygon fill="midnightblue" stroke="midnightblue" points="271.67,-153.24 272.14,-142.65 265.17,-150.64 271.67,-153.24"/>
</g>
<!-- Node9 -->
<g id="node9" class="node">
<title>Node9</title>
<g id="a_node9"><a xlink:title=" ">
<polygon fill="white" stroke="#bfbfbf" points="759.1,-0.5 759.1,-19.5 900.1,-19.5 900.1,-0.5 759.1,-0.5"/>
<text text-anchor="middle" x="829.6" y="-7.5" font-family="Helvetica,sans-Serif" font-size="10.00">boost/asio/ip/address.hpp</text>
</a>
</g>
</g>
<!-- Node1&#45;&gt;Node9 -->
<g id="edge8" class="edge">
<title>Node1&#45;&gt;Node9</title>
<path fill="none" stroke="midnightblue" d="M345.5,-198.98C429.41,-195.9 553.1,-183.83 652.6,-143 720.35,-115.2 785.55,-55.38 814.28,-26.81"/>
<polygon fill="midnightblue" stroke="midnightblue" points="816.83,-29.21 821.38,-19.64 811.86,-24.28 816.83,-29.21"/>
</g>
<!-- Node10 -->
<g id="node10" class="node">
<title>Node10</title>
<g id="a_node10"><a xlink:title=" ">
<polygon fill="white" stroke="#bfbfbf" points="245.6,-0.5 245.6,-19.5 359.6,-19.5 359.6,-0.5 245.6,-0.5"/>
<text text-anchor="middle" x="302.6" y="-7.5" font-family="Helvetica,sans-Serif" font-size="10.00">vsomeip/export.hpp</text>
</a>
</g>
</g>
<!-- Node1&#45;&gt;Node10 -->
<g id="edge9" class="edge">
<title>Node1&#45;&gt;Node10</title>
<path fill="none" stroke="midnightblue" d="M233.12,-179.11C211.25,-150.13 178.18,-95.47 203.6,-56 213.9,-39.99 231.45,-29.62 248.93,-22.92"/>
<polygon fill="midnightblue" stroke="midnightblue" points="250.29,-26.15 258.59,-19.56 248,-19.54 250.29,-26.15"/>
</g>
<!-- Node11 -->
<g id="node11" class="node">
<title>Node11</title>
<g id="a_node11"><a xlink:title=" ">
<polygon fill="white" stroke="#bfbfbf" points="433.1,-0.5 433.1,-19.5 592.1,-19.5 592.1,-0.5 433.1,-0.5"/>
<text text-anchor="middle" x="512.6" y="-7.5" font-family="Helvetica,sans-Serif" font-size="10.00">vsomeip/primitive_types.hpp</text>
</a>
</g>
</g>
<!-- Node1&#45;&gt;Node11 -->
<g id="edge10" class="edge">
<title>Node1&#45;&gt;Node11</title>
<path fill="none" stroke="midnightblue" d="M345.47,-196.52C423.03,-188.65 526.78,-163.36 573.6,-87 580.8,-75.25 579.81,-68.3 573.6,-56 566.79,-42.52 553.83,-32.08 541.6,-24.67"/>
<polygon fill="midnightblue" stroke="midnightblue" points="542.94,-21.41 532.5,-19.59 539.53,-27.52 542.94,-21.41"/>
</g>
<!-- Node12 -->
<g id="node12" class="node">
<title>Node12</title>
<g id="a_node12"><a xlink:href="remote__subscription_8hpp.html" target="_top" xlink:title=" ">
<polygon fill="white" stroke="black" points="317.1,-123.5 317.1,-142.5 454.1,-142.5 454.1,-123.5 317.1,-123.5"/>
<text text-anchor="middle" x="385.6" y="-130.5" font-family="Helvetica,sans-Serif" font-size="10.00">remote_subscription.hpp</text>
</a>
</g>
</g>
<!-- Node1&#45;&gt;Node12 -->
<g id="edge11" class="edge">
<title>Node1&#45;&gt;Node12</title>
<path fill="none" stroke="midnightblue" d="M290.4,-179.5C312.36,-169.01 338.84,-156.35 358.29,-147.05"/>
<polygon fill="midnightblue" stroke="midnightblue" points="359.98,-150.12 367.49,-142.65 356.96,-143.81 359.98,-150.12"/>
</g>
<!-- Node15 -->
<g id="node15" class="node">
<title>Node15</title>
<g id="a_node15"><a xlink:href="types_8hpp.html" target="_top" xlink:title=" ">
<polygon fill="white" stroke="black" points="643.1,-62 643.1,-81 708.1,-81 708.1,-62 643.1,-62"/>
<text text-anchor="middle" x="675.6" y="-69" font-family="Helvetica,sans-Serif" font-size="10.00">types.hpp</text>
</a>
</g>
</g>
<!-- Node1&#45;&gt;Node15 -->
<g id="edge32" class="edge">
<title>Node1&#45;&gt;Node15</title>
<path fill="none" stroke="midnightblue" d="M345.18,-193.68C441.68,-186.78 582.81,-172.01 628.6,-143 647.96,-130.73 661.17,-107.27 668.54,-90.79"/>
<polygon fill="midnightblue" stroke="midnightblue" points="671.94,-91.74 672.54,-81.16 665.47,-89.05 671.94,-91.74"/>
</g>
<!-- Node12&#45;&gt;Node2 -->
<g id="edge12" class="edge">
<title>Node12&#45;&gt;Node2</title>
<path fill="none" stroke="midnightblue" d="M360.83,-123.35C340.07,-115.51 310.12,-102.77 286.6,-87 269.88,-75.8 270.64,-66.7 253.6,-56 227.96,-39.9 195.63,-28.01 171.46,-20.51"/>
<polygon fill="midnightblue" stroke="midnightblue" points="172.22,-17.08 161.64,-17.56 170.21,-23.79 172.22,-17.08"/>
</g>
<!-- Node12&#45;&gt;Node6 -->
<g id="edge14" class="edge">
<title>Node12&#45;&gt;Node6</title>
<path fill="none" stroke="midnightblue" d="M374.77,-123.34C352.98,-105.97 304.41,-67.56 286.6,-56 268.44,-44.21 246.92,-32.61 230.35,-24.14"/>
<polygon fill="midnightblue" stroke="midnightblue" points="231.73,-20.91 221.22,-19.54 228.58,-27.16 231.73,-20.91"/>
</g>
<!-- Node12&#45;&gt;Node7 -->
<g id="edge15" class="edge">
<title>Node12&#45;&gt;Node7</title>
<path fill="none" stroke="midnightblue" d="M358.51,-123.36C332.58,-114.87 292.49,-101.14 258.6,-87 257.02,-86.34 255.41,-85.64 253.79,-84.92"/>
<polygon fill="midnightblue" stroke="midnightblue" points="255.18,-81.71 244.64,-80.66 252.23,-88.05 255.18,-81.71"/>
</g>
<!-- Node12&#45;&gt;Node10 -->
<g id="edge31" class="edge">
<title>Node12&#45;&gt;Node10</title>
<path fill="none" stroke="midnightblue" d="M379.63,-123.3C365.99,-103.41 332.33,-54.35 314.36,-28.15"/>
<polygon fill="midnightblue" stroke="midnightblue" points="317.06,-25.89 308.51,-19.62 311.28,-29.85 317.06,-25.89"/>
</g>
<!-- Node12&#45;&gt;Node11 -->
<g id="edge16" class="edge">
<title>Node12&#45;&gt;Node11</title>
<path fill="none" stroke="midnightblue" d="M449.58,-123.5C492.75,-116.3 544.21,-104.35 557.6,-87 572.79,-67.32 550.68,-42.07 532.43,-26.21"/>
<polygon fill="midnightblue" stroke="midnightblue" points="534.4,-23.31 524.46,-19.64 529.95,-28.7 534.4,-23.31"/>
</g>
<!-- Node13 -->
<g id="node13" class="node">
<title>Node13</title>
<g id="a_node13"><a xlink:title=" ">
<polygon fill="white" stroke="#bfbfbf" points="377.6,-0.5 377.6,-19.5 415.6,-19.5 415.6,-0.5 377.6,-0.5"/>
<text text-anchor="middle" x="396.6" y="-7.5" font-family="Helvetica,sans-Serif" font-size="10.00">map</text>
</a>
</g>
</g>
<!-- Node12&#45;&gt;Node13 -->
<g id="edge13" class="edge">
<title>Node12&#45;&gt;Node13</title>
<path fill="none" stroke="midnightblue" d="M386.39,-123.3C388.16,-103.85 392.46,-56.49 394.88,-29.9"/>
<polygon fill="midnightblue" stroke="midnightblue" points="398.39,-29.9 395.81,-19.62 391.42,-29.27 398.39,-29.9"/>
</g>
<!-- Node14 -->
<g id="node14" class="node">
<title>Node14</title>
<g id="a_node14"><a xlink:href="endpoint__definition_8hpp.html" target="_top" xlink:title=" ">
<polygon fill="white" stroke="black" points="414.6,-56.5 414.6,-86.5 548.6,-86.5 548.6,-56.5 414.6,-56.5"/>
<text text-anchor="start" x="422.6" y="-74.5" font-family="Helvetica,sans-Serif" font-size="10.00">../../endpoints/include</text>
<text text-anchor="middle" x="481.6" y="-63.5" font-family="Helvetica,sans-Serif" font-size="10.00">/endpoint_definition.hpp</text>
</a>
</g>
</g>
<!-- Node12&#45;&gt;Node14 -->
<g id="edge17" class="edge">
<title>Node12&#45;&gt;Node14</title>
<path fill="none" stroke="midnightblue" d="M399.35,-123.48C412.6,-115.27 433.1,-102.56 450.32,-91.88"/>
<polygon fill="midnightblue" stroke="midnightblue" points="452.32,-94.77 458.97,-86.52 448.63,-88.82 452.32,-94.77"/>
</g>
<!-- Node12&#45;&gt;Node15 -->
<g id="edge25" class="edge">
<title>Node12&#45;&gt;Node15</title>
<path fill="none" stroke="midnightblue" d="M427.15,-123.48C481.99,-112.22 578.05,-92.51 633.28,-81.18"/>
<polygon fill="midnightblue" stroke="midnightblue" points="634,-84.61 643.1,-79.17 632.6,-77.75 634,-84.61"/>
</g>
<!-- Node14&#45;&gt;Node2 -->
<g id="edge20" class="edge">
<title>Node14&#45;&gt;Node2</title>
<path fill="none" stroke="midnightblue" d="M414.51,-61.54C353.57,-52.96 261.04,-38.84 171.8,-20.09"/>
<polygon fill="midnightblue" stroke="midnightblue" points="172.29,-16.61 161.78,-17.96 170.84,-23.46 172.29,-16.61"/>
</g>
<!-- Node14&#45;&gt;Node5 -->
<g id="edge19" class="edge">
<title>Node14&#45;&gt;Node5</title>
<path fill="none" stroke="midnightblue" d="M548.87,-63.52C647.2,-53.16 826.51,-33.64 908.27,-20.03"/>
<polygon fill="midnightblue" stroke="midnightblue" points="908.95,-23.46 918.21,-18.31 907.76,-16.56 908.95,-23.46"/>
</g>
<!-- Node14&#45;&gt;Node6 -->
<g id="edge21" class="edge">
<title>Node14&#45;&gt;Node6</title>
<path fill="none" stroke="midnightblue" d="M414.53,-57.86C367.56,-48.73 303.13,-35.67 237.77,-20.17"/>
<polygon fill="midnightblue" stroke="midnightblue" points="238.24,-16.68 227.7,-17.76 236.62,-23.49 238.24,-16.68"/>
</g>
<!-- Node14&#45;&gt;Node9 -->
<g id="edge22" class="edge">
<title>Node14&#45;&gt;Node9</title>
<path fill="none" stroke="midnightblue" d="M548.7,-59.03C612.77,-48.07 708.44,-31.72 769.92,-21.2"/>
<polygon fill="midnightblue" stroke="midnightblue" points="770.6,-24.64 779.86,-19.5 769.42,-17.74 770.6,-24.64"/>
</g>
<!-- Node14&#45;&gt;Node10 -->
<g id="edge24" class="edge">
<title>Node14&#45;&gt;Node10</title>
<path fill="none" stroke="midnightblue" d="M439.18,-56.4C408.38,-46.16 367.19,-32.47 338.12,-22.81"/>
<polygon fill="midnightblue" stroke="midnightblue" points="338.98,-19.4 328.38,-19.57 336.77,-26.05 338.98,-19.4"/>
</g>
<!-- Node14&#45;&gt;Node11 -->
<g id="edge23" class="edge">
<title>Node14&#45;&gt;Node11</title>
<path fill="none" stroke="midnightblue" d="M488.94,-56.4C493.26,-48.11 498.76,-37.55 503.37,-28.71"/>
<polygon fill="midnightblue" stroke="midnightblue" points="506.57,-30.14 508.09,-19.66 500.36,-26.91 506.57,-30.14"/>
</g>
<!-- Node14&#45;&gt;Node13 -->
<g id="edge18" class="edge">
<title>Node14&#45;&gt;Node13</title>
<path fill="none" stroke="midnightblue" d="M461.45,-56.4C448.21,-47.13 430.92,-35.03 417.52,-25.65"/>
<polygon fill="midnightblue" stroke="midnightblue" points="419.17,-22.53 408.97,-19.66 415.15,-28.26 419.17,-22.53"/>
</g>
<!-- Node15&#45;&gt;Node5 -->
<g id="edge27" class="edge">
<title>Node15&#45;&gt;Node5</title>
<path fill="none" stroke="midnightblue" d="M708.2,-63.68C751.6,-54.55 830.99,-37.69 908.62,-20.19"/>
<polygon fill="midnightblue" stroke="midnightblue" points="909.58,-23.56 918.57,-17.94 908.04,-16.73 909.58,-23.56"/>
</g>
<!-- Node15&#45;&gt;Node9 -->
<g id="edge28" class="edge">
<title>Node15&#45;&gt;Node9</title>
<path fill="none" stroke="midnightblue" d="M697.66,-61.98C723.96,-51.81 768.11,-34.76 798.02,-23.2"/>
<polygon fill="midnightblue" stroke="midnightblue" points="799.51,-26.38 807.57,-19.51 796.98,-19.85 799.51,-26.38"/>
</g>
<!-- Node15&#45;&gt;Node11 -->
<g id="edge29" class="edge">
<title>Node15&#45;&gt;Node11</title>
<path fill="none" stroke="midnightblue" d="M652.24,-61.98C624.28,-51.77 577.27,-34.61 545.61,-23.05"/>
<polygon fill="midnightblue" stroke="midnightblue" points="546.5,-19.65 535.91,-19.51 544.1,-26.23 546.5,-19.65"/>
</g>
<!-- Node15&#45;&gt;Node13 -->
<g id="edge26" class="edge">
<title>Node15&#45;&gt;Node13</title>
<path fill="none" stroke="midnightblue" d="M642.84,-65.12C596.5,-57.25 509.02,-41.43 425.67,-20.05"/>
<polygon fill="midnightblue" stroke="midnightblue" points="426.35,-16.61 415.79,-17.48 424.59,-23.39 426.35,-16.61"/>
</g>
<!-- Node16 -->
<g id="node16" class="node">
<title>Node16</title>
<g id="a_node16"><a xlink:title=" ">
<polygon fill="white" stroke="#bfbfbf" points="610.6,-0.5 610.6,-19.5 740.6,-19.5 740.6,-0.5 610.6,-0.5"/>
<text text-anchor="middle" x="675.6" y="-7.5" font-family="Helvetica,sans-Serif" font-size="10.00">vsomeip/constants.hpp</text>
</a>
</g>
</g>
<!-- Node15&#45;&gt;Node16 -->
<g id="edge30" class="edge">
<title>Node15&#45;&gt;Node16</title>
<path fill="none" stroke="midnightblue" d="M675.6,-61.98C675.6,-53.58 675.6,-40.48 675.6,-29.66"/>
<polygon fill="midnightblue" stroke="midnightblue" points="679.1,-29.51 675.6,-19.51 672.1,-29.51 679.1,-29.51"/>
</g>
</g>
</svg>
