<?xml version="1.0" encoding="UTF-8" standalone="no"?>
<!DOCTYPE svg PUBLIC "-//W3C//DTD SVG 1.1//EN"
 "http://www.w3.org/Graphics/SVG/1.1/DTD/svg11.dtd">
<!-- Generated by graphviz version 2.43.0 (0)
 -->
<!-- Title: /home/kali/projects/vsomeip/implementation/tracing/include/header.hpp Pages: 1 -->
<svg width="380pt" height="117pt"
 viewBox="0.00 0.00 380.00 117.00" xmlns="http://www.w3.org/2000/svg" xmlns:xlink="http://www.w3.org/1999/xlink">
<g id="graph0" class="graph" transform="scale(1 1) rotate(0) translate(4 113)">
<title>/home/kali/projects/vsomeip/implementation/tracing/include/header.hpp</title>
<polygon fill="white" stroke="transparent" points="-4,4 -4,-113 376,-113 376,4 -4,4"/>
<!-- Node1 -->
<g id="node1" class="node">
<title>Node1</title>
<g id="a_node1"><a xlink:title=" ">
<polygon fill="#bfbfbf" stroke="black" points="80.5,-67.5 80.5,-108.5 229.5,-108.5 229.5,-67.5 80.5,-67.5"/>
<text text-anchor="start" x="88.5" y="-96.5" font-family="Helvetica,sans-Serif" font-size="10.00">/home/kali/projects</text>
<text text-anchor="start" x="88.5" y="-85.5" font-family="Helvetica,sans-Serif" font-size="10.00">/vsomeip/implementation</text>
<text text-anchor="middle" x="155" y="-74.5" font-family="Helvetica,sans-Serif" font-size="10.00">/tracing/include/header.hpp</text>
</a>
</g>
</g>
<!-- Node2 -->
<g id="node2" class="node">
<title>Node2</title>
<g id="a_node2"><a xlink:title=" ">
<polygon fill="white" stroke="#bfbfbf" points="0,-6 0,-25 58,-25 58,-6 0,-6"/>
<text text-anchor="middle" x="29" y="-13" font-family="Helvetica,sans-Serif" font-size="10.00">memory</text>
</a>
</g>
</g>
<!-- Node1&#45;&gt;Node2 -->
<g id="edge1" class="edge">
<title>Node1&#45;&gt;Node2</title>
<path fill="none" stroke="midnightblue" d="M119.9,-67.36C98.72,-55.51 72.27,-40.71 53.37,-30.14"/>
<polygon fill="midnightblue" stroke="midnightblue" points="54.94,-27 44.5,-25.17 51.52,-33.11 54.94,-27"/>
</g>
<!-- Node3 -->
<g id="node3" class="node">
<title>Node3</title>
<g id="a_node3"><a xlink:title=" ">
<polygon fill="white" stroke="#bfbfbf" points="75.5,-6 75.5,-25 234.5,-25 234.5,-6 75.5,-6"/>
<text text-anchor="middle" x="155" y="-13" font-family="Helvetica,sans-Serif" font-size="10.00">vsomeip/primitive_types.hpp</text>
</a>
</g>
</g>
<!-- Node1&#45;&gt;Node3 -->
<g id="edge2" class="edge">
<title>Node1&#45;&gt;Node3</title>
<path fill="none" stroke="midnightblue" d="M155,-67.36C155,-57.3 155,-45.1 155,-35.18"/>
<polygon fill="midnightblue" stroke="midnightblue" points="158.5,-35.17 155,-25.17 151.5,-35.17 158.5,-35.17"/>
</g>
<!-- Node4 -->
<g id="node4" class="node">
<title>Node4</title>
<g id="a_node4"><a xlink:title=" ">
<polygon fill="white" stroke="#bfbfbf" points="252,-0.5 252,-30.5 372,-30.5 372,-0.5 252,-0.5"/>
<text text-anchor="start" x="260" y="-18.5" font-family="Helvetica,sans-Serif" font-size="10.00">boost/asio/ip/address</text>
<text text-anchor="middle" x="312" y="-7.5" font-family="Helvetica,sans-Serif" font-size="10.00">_v4.hpp</text>
</a>
</g>
</g>
<!-- Node1&#45;&gt;Node4 -->
<g id="edge3" class="edge">
<title>Node1&#45;&gt;Node4</title>
<path fill="none" stroke="midnightblue" d="M198.73,-67.36C221.44,-57.17 249.01,-44.79 271.26,-34.79"/>
<polygon fill="midnightblue" stroke="midnightblue" points="272.76,-37.96 280.44,-30.67 269.89,-31.57 272.76,-37.96"/>
</g>
</g>
</svg>
