<?xml version="1.0" encoding="UTF-8" standalone="no"?>
<!DOCTYPE svg PUBLIC "-//W3C//DTD SVG 1.1//EN"
 "http://www.w3.org/Graphics/SVG/1.1/DTD/svg11.dtd">
<!-- Generated by graphviz version 2.43.0 (0)
 -->
<!-- Title: /home/kali/projects/vsomeip/implementation/tracing/src/header.cpp Pages: 1 -->
<svg width="547pt" height="240pt"
 viewBox="0.00 0.00 546.50 240.00" xmlns="http://www.w3.org/2000/svg" xmlns:xlink="http://www.w3.org/1999/xlink">
<g id="graph0" class="graph" transform="scale(1 1) rotate(0) translate(4 236)">
<title>/home/kali/projects/vsomeip/implementation/tracing/src/header.cpp</title>
<polygon fill="white" stroke="transparent" points="-4,4 -4,-236 542.5,-236 542.5,4 -4,4"/>
<!-- Node1 -->
<g id="node1" class="node">
<title>Node1</title>
<g id="a_node1"><a xlink:title=" ">
<polygon fill="#bfbfbf" stroke="black" points="152.5,-190.5 152.5,-231.5 295.5,-231.5 295.5,-190.5 152.5,-190.5"/>
<text text-anchor="start" x="160.5" y="-219.5" font-family="Helvetica,sans-Serif" font-size="10.00">/home/kali/projects</text>
<text text-anchor="start" x="160.5" y="-208.5" font-family="Helvetica,sans-Serif" font-size="10.00">/vsomeip/implementation</text>
<text text-anchor="middle" x="224" y="-197.5" font-family="Helvetica,sans-Serif" font-size="10.00">/tracing/src/header.cpp</text>
</a>
</g>
</g>
<!-- Node2 -->
<g id="node2" class="node">
<title>Node2</title>
<g id="a_node2"><a xlink:title=" ">
<polygon fill="white" stroke="#bfbfbf" points="10,-129 10,-148 60,-148 60,-129 10,-129"/>
<text text-anchor="middle" x="35" y="-136" font-family="Helvetica,sans-Serif" font-size="10.00">cstring</text>
</a>
</g>
</g>
<!-- Node1&#45;&gt;Node2 -->
<g id="edge1" class="edge">
<title>Node1&#45;&gt;Node2</title>
<path fill="none" stroke="midnightblue" d="M167.39,-190.41C137.91,-179.99 101.35,-166.73 69,-154 67.4,-153.37 65.76,-152.71 64.11,-152.04"/>
<polygon fill="midnightblue" stroke="midnightblue" points="65.28,-148.74 54.7,-148.12 62.59,-155.2 65.28,-148.74"/>
</g>
<!-- Node3 -->
<g id="node3" class="node">
<title>Node3</title>
<g id="a_node3"><a xlink:href="header_8hpp.html" target="_top" xlink:title=" ">
<polygon fill="white" stroke="black" points="78,-129 78,-148 196,-148 196,-129 78,-129"/>
<text text-anchor="middle" x="137" y="-136" font-family="Helvetica,sans-Serif" font-size="10.00">../include/header.hpp</text>
</a>
</g>
</g>
<!-- Node1&#45;&gt;Node3 -->
<g id="edge2" class="edge">
<title>Node1&#45;&gt;Node3</title>
<path fill="none" stroke="midnightblue" d="M199.77,-190.36C185.88,-179.11 168.7,-165.19 155.83,-154.76"/>
<polygon fill="midnightblue" stroke="midnightblue" points="157.68,-151.75 147.7,-148.17 153.27,-157.19 157.68,-151.75"/>
</g>
<!-- Node7 -->
<g id="node7" class="node">
<title>Node7</title>
<g id="a_node7"><a xlink:href="endpoint_8hpp.html" target="_top" xlink:title=" ">
<polygon fill="white" stroke="black" points="252.5,-56.5 252.5,-86.5 373.5,-86.5 373.5,-56.5 252.5,-56.5"/>
<text text-anchor="start" x="260.5" y="-74.5" font-family="Helvetica,sans-Serif" font-size="10.00">../../endpoints/include</text>
<text text-anchor="middle" x="313" y="-63.5" font-family="Helvetica,sans-Serif" font-size="10.00">/endpoint.hpp</text>
</a>
</g>
</g>
<!-- Node1&#45;&gt;Node7 -->
<g id="edge6" class="edge">
<title>Node1&#45;&gt;Node7</title>
<path fill="none" stroke="midnightblue" d="M224.65,-190.15C226.13,-171.44 230.62,-143.32 244,-123 252.15,-110.63 264.43,-100.23 276.38,-92.15"/>
<polygon fill="midnightblue" stroke="midnightblue" points="278.41,-95 284.96,-86.67 274.65,-89.1 278.41,-95"/>
</g>
<!-- Node11 -->
<g id="node11" class="node">
<title>Node11</title>
<g id="a_node11"><a xlink:href="client__endpoint_8hpp.html" target="_top" xlink:title=" ">
<polygon fill="white" stroke="black" points="252.5,-123.5 252.5,-153.5 373.5,-153.5 373.5,-123.5 252.5,-123.5"/>
<text text-anchor="start" x="260.5" y="-141.5" font-family="Helvetica,sans-Serif" font-size="10.00">../../endpoints/include</text>
<text text-anchor="middle" x="313" y="-130.5" font-family="Helvetica,sans-Serif" font-size="10.00">/client_endpoint.hpp</text>
</a>
</g>
</g>
<!-- Node1&#45;&gt;Node11 -->
<g id="edge11" class="edge">
<title>Node1&#45;&gt;Node11</title>
<path fill="none" stroke="midnightblue" d="M248.79,-190.36C260.74,-180.89 275.07,-169.54 287.16,-159.97"/>
<polygon fill="midnightblue" stroke="midnightblue" points="289.45,-162.62 295.11,-153.67 285.1,-157.14 289.45,-162.62"/>
</g>
<!-- Node12 -->
<g id="node12" class="node">
<title>Node12</title>
<g id="a_node12"><a xlink:href="byteorder_8hpp.html" target="_top" xlink:title=" ">
<polygon fill="white" stroke="black" points="391.5,-123.5 391.5,-153.5 492.5,-153.5 492.5,-123.5 391.5,-123.5"/>
<text text-anchor="start" x="399.5" y="-141.5" font-family="Helvetica,sans-Serif" font-size="10.00">../../utility/include</text>
<text text-anchor="middle" x="442" y="-130.5" font-family="Helvetica,sans-Serif" font-size="10.00">/byteorder.hpp</text>
</a>
</g>
</g>
<!-- Node1&#45;&gt;Node12 -->
<g id="edge13" class="edge">
<title>Node1&#45;&gt;Node12</title>
<path fill="none" stroke="midnightblue" d="M284.44,-190.46C317.07,-179.9 357,-166.99 388.5,-156.8"/>
<polygon fill="midnightblue" stroke="midnightblue" points="389.97,-160 398.41,-153.6 387.82,-153.34 389.97,-160"/>
</g>
<!-- Node4 -->
<g id="node4" class="node">
<title>Node4</title>
<g id="a_node4"><a xlink:title=" ">
<polygon fill="white" stroke="#bfbfbf" points="0,-62 0,-81 58,-81 58,-62 0,-62"/>
<text text-anchor="middle" x="29" y="-69" font-family="Helvetica,sans-Serif" font-size="10.00">memory</text>
</a>
</g>
</g>
<!-- Node3&#45;&gt;Node4 -->
<g id="edge3" class="edge">
<title>Node3&#45;&gt;Node4</title>
<path fill="none" stroke="midnightblue" d="M122.43,-128.73C104.38,-117.87 73.39,-99.22 52.08,-86.39"/>
<polygon fill="midnightblue" stroke="midnightblue" points="53.71,-83.29 43.33,-81.13 50.1,-89.28 53.71,-83.29"/>
</g>
<!-- Node5 -->
<g id="node5" class="node">
<title>Node5</title>
<g id="a_node5"><a xlink:title=" ">
<polygon fill="white" stroke="#bfbfbf" points="6.5,-0.5 6.5,-19.5 165.5,-19.5 165.5,-0.5 6.5,-0.5"/>
<text text-anchor="middle" x="86" y="-7.5" font-family="Helvetica,sans-Serif" font-size="10.00">vsomeip/primitive_types.hpp</text>
</a>
</g>
</g>
<!-- Node3&#45;&gt;Node5 -->
<g id="edge4" class="edge">
<title>Node3&#45;&gt;Node5</title>
<path fill="none" stroke="midnightblue" d="M130.17,-128.68C122.95,-118.97 111.71,-102.65 105,-87 96.98,-68.29 91.84,-45.48 88.96,-29.76"/>
<polygon fill="midnightblue" stroke="midnightblue" points="92.38,-28.99 87.25,-19.72 85.48,-30.17 92.38,-28.99"/>
</g>
<!-- Node6 -->
<g id="node6" class="node">
<title>Node6</title>
<g id="a_node6"><a xlink:title=" ">
<polygon fill="white" stroke="#bfbfbf" points="114,-56.5 114,-86.5 234,-86.5 234,-56.5 114,-56.5"/>
<text text-anchor="start" x="122" y="-74.5" font-family="Helvetica,sans-Serif" font-size="10.00">boost/asio/ip/address</text>
<text text-anchor="middle" x="174" y="-63.5" font-family="Helvetica,sans-Serif" font-size="10.00">_v4.hpp</text>
</a>
</g>
</g>
<!-- Node3&#45;&gt;Node6 -->
<g id="edge5" class="edge">
<title>Node3&#45;&gt;Node6</title>
<path fill="none" stroke="midnightblue" d="M141.99,-128.73C146.85,-120.2 154.43,-106.87 161,-95.33"/>
<polygon fill="midnightblue" stroke="midnightblue" points="164.07,-97.01 165.98,-86.59 157.99,-93.55 164.07,-97.01"/>
</g>
<!-- Node7&#45;&gt;Node5 -->
<g id="edge8" class="edge">
<title>Node7&#45;&gt;Node5</title>
<path fill="none" stroke="midnightblue" d="M259.49,-56.47C219.47,-45.99 165.49,-31.84 128.43,-22.12"/>
<polygon fill="midnightblue" stroke="midnightblue" points="129.01,-18.66 118.45,-19.51 127.24,-25.43 129.01,-18.66"/>
</g>
<!-- Node8 -->
<g id="node8" class="node">
<title>Node8</title>
<g id="a_node8"><a xlink:title=" ">
<polygon fill="white" stroke="#bfbfbf" points="183.5,-0.5 183.5,-19.5 324.5,-19.5 324.5,-0.5 183.5,-0.5"/>
<text text-anchor="middle" x="254" y="-7.5" font-family="Helvetica,sans-Serif" font-size="10.00">boost/asio/ip/address.hpp</text>
</a>
</g>
</g>
<!-- Node7&#45;&gt;Node8 -->
<g id="edge7" class="edge">
<title>Node7&#45;&gt;Node8</title>
<path fill="none" stroke="midnightblue" d="M299.02,-56.4C290.27,-47.58 278.97,-36.18 269.88,-27.02"/>
<polygon fill="midnightblue" stroke="midnightblue" points="272.11,-24.29 262.59,-19.66 267.14,-29.22 272.11,-24.29"/>
</g>
<!-- Node9 -->
<g id="node9" class="node">
<title>Node9</title>
<g id="a_node9"><a xlink:title=" ">
<polygon fill="white" stroke="#bfbfbf" points="343,-0.5 343,-19.5 473,-19.5 473,-0.5 343,-0.5"/>
<text text-anchor="middle" x="408" y="-7.5" font-family="Helvetica,sans-Serif" font-size="10.00">vsomeip/constants.hpp</text>
</a>
</g>
</g>
<!-- Node7&#45;&gt;Node9 -->
<g id="edge9" class="edge">
<title>Node7&#45;&gt;Node9</title>
<path fill="none" stroke="midnightblue" d="M335.51,-56.4C350.6,-46.95 370.39,-34.56 385.47,-25.11"/>
<polygon fill="midnightblue" stroke="midnightblue" points="387.56,-27.93 394.18,-19.66 383.84,-22 387.56,-27.93"/>
</g>
<!-- Node10 -->
<g id="node10" class="node">
<title>Node10</title>
<g id="a_node10"><a xlink:title=" ">
<polygon fill="white" stroke="#bfbfbf" points="491.5,-0.5 491.5,-19.5 538.5,-19.5 538.5,-0.5 491.5,-0.5"/>
<text text-anchor="middle" x="515" y="-7.5" font-family="Helvetica,sans-Serif" font-size="10.00">vector</text>
</a>
</g>
</g>
<!-- Node7&#45;&gt;Node10 -->
<g id="edge10" class="edge">
<title>Node7&#45;&gt;Node10</title>
<path fill="none" stroke="midnightblue" d="M360.62,-56.47C397.93,-45.48 448.89,-30.47 481.87,-20.76"/>
<polygon fill="midnightblue" stroke="midnightblue" points="482.89,-24.11 491.49,-17.92 480.91,-17.39 482.89,-24.11"/>
</g>
<!-- Node11&#45;&gt;Node7 -->
<g id="edge12" class="edge">
<title>Node11&#45;&gt;Node7</title>
<path fill="none" stroke="midnightblue" d="M313,-123.4C313,-115.64 313,-105.81 313,-96.86"/>
<polygon fill="midnightblue" stroke="midnightblue" points="316.5,-96.58 313,-86.58 309.5,-96.58 316.5,-96.58"/>
</g>
</g>
</svg>
