<?xml version="1.0" encoding="UTF-8" standalone="no"?>
<!DOCTYPE svg PUBLIC "-//W3C//DTD SVG 1.1//EN"
 "http://www.w3.org/Graphics/SVG/1.1/DTD/svg11.dtd">
<!-- Generated by graphviz version 2.43.0 (0)
 -->
<!-- Title: /home/kali/projects/vsomeip/implementation/tracing/include/header.hpp Pages: 1 -->
<svg width="392pt" height="228pt"
 viewBox="0.00 0.00 392.00 228.00" xmlns="http://www.w3.org/2000/svg" xmlns:xlink="http://www.w3.org/1999/xlink">
<g id="graph0" class="graph" transform="scale(1 1) rotate(0) translate(4 224)">
<title>/home/kali/projects/vsomeip/implementation/tracing/include/header.hpp</title>
<polygon fill="white" stroke="transparent" points="-4,4 -4,-224 388,-224 388,4 -4,4"/>
<!-- Node1 -->
<g id="node1" class="node">
<title>Node1</title>
<g id="a_node1"><a xlink:title=" ">
<polygon fill="#bfbfbf" stroke="black" points="157,-178.5 157,-219.5 306,-219.5 306,-178.5 157,-178.5"/>
<text text-anchor="start" x="165" y="-207.5" font-family="Helvetica,sans-Serif" font-size="10.00">/home/kali/projects</text>
<text text-anchor="start" x="165" y="-196.5" font-family="Helvetica,sans-Serif" font-size="10.00">/vsomeip/implementation</text>
<text text-anchor="middle" x="231.5" y="-185.5" font-family="Helvetica,sans-Serif" font-size="10.00">/tracing/include/header.hpp</text>
</a>
</g>
</g>
<!-- Node2 -->
<g id="node2" class="node">
<title>Node2</title>
<g id="a_node2"><a xlink:href="connector__impl_8hpp.html" target="_top" xlink:title=" ">
<polygon fill="white" stroke="black" points="80,-89.5 80,-141.5 223,-141.5 223,-89.5 80,-89.5"/>
<text text-anchor="start" x="88" y="-129.5" font-family="Helvetica,sans-Serif" font-size="10.00">/home/kali/projects</text>
<text text-anchor="start" x="88" y="-118.5" font-family="Helvetica,sans-Serif" font-size="10.00">/vsomeip/implementation</text>
<text text-anchor="start" x="88" y="-107.5" font-family="Helvetica,sans-Serif" font-size="10.00">/tracing/include/connector</text>
<text text-anchor="middle" x="151.5" y="-96.5" font-family="Helvetica,sans-Serif" font-size="10.00">_impl.hpp</text>
</a>
</g>
</g>
<!-- Node1&#45;&gt;Node2 -->
<g id="edge1" class="edge">
<title>Node1&#45;&gt;Node2</title>
<path fill="none" stroke="midnightblue" d="M204.96,-170.96C195.67,-161.5 185.28,-150.91 176.15,-141.61"/>
<polygon fill="midnightblue" stroke="midnightblue" points="202.63,-173.59 212.13,-178.27 207.63,-168.68 202.63,-173.59"/>
</g>
<!-- Node5 -->
<g id="node5" class="node">
<title>Node5</title>
<g id="a_node5"><a xlink:href="header_8cpp.html" target="_top" xlink:title=" ">
<polygon fill="white" stroke="black" points="241,-95 241,-136 384,-136 384,-95 241,-95"/>
<text text-anchor="start" x="249" y="-124" font-family="Helvetica,sans-Serif" font-size="10.00">/home/kali/projects</text>
<text text-anchor="start" x="249" y="-113" font-family="Helvetica,sans-Serif" font-size="10.00">/vsomeip/implementation</text>
<text text-anchor="middle" x="312.5" y="-102" font-family="Helvetica,sans-Serif" font-size="10.00">/tracing/src/header.cpp</text>
</a>
</g>
</g>
<!-- Node1&#45;&gt;Node5 -->
<g id="edge4" class="edge">
<title>Node1&#45;&gt;Node5</title>
<path fill="none" stroke="midnightblue" d="M258.3,-171.04C269.66,-159.6 282.66,-146.53 293.07,-136.05"/>
<polygon fill="midnightblue" stroke="midnightblue" points="255.67,-168.71 251.11,-178.27 260.64,-173.65 255.67,-168.71"/>
</g>
<!-- Node3 -->
<g id="node3" class="node">
<title>Node3</title>
<g id="a_node3"><a xlink:href="runtime_2src_2application__impl_8cpp.html" target="_top" xlink:title=" ">
<polygon fill="white" stroke="black" points="0,-0.5 0,-52.5 143,-52.5 143,-0.5 0,-0.5"/>
<text text-anchor="start" x="8" y="-40.5" font-family="Helvetica,sans-Serif" font-size="10.00">/home/kali/projects</text>
<text text-anchor="start" x="8" y="-29.5" font-family="Helvetica,sans-Serif" font-size="10.00">/vsomeip/implementation</text>
<text text-anchor="start" x="8" y="-18.5" font-family="Helvetica,sans-Serif" font-size="10.00">/runtime/src/application</text>
<text text-anchor="middle" x="71.5" y="-7.5" font-family="Helvetica,sans-Serif" font-size="10.00">_impl.cpp</text>
</a>
</g>
</g>
<!-- Node2&#45;&gt;Node3 -->
<g id="edge2" class="edge">
<title>Node2&#45;&gt;Node3</title>
<path fill="none" stroke="midnightblue" d="M121.42,-81.79C112.54,-72.13 102.96,-61.71 94.59,-52.61"/>
<polygon fill="midnightblue" stroke="midnightblue" points="119.02,-84.34 128.36,-89.34 124.17,-79.61 119.02,-84.34"/>
</g>
<!-- Node4 -->
<g id="node4" class="node">
<title>Node4</title>
<g id="a_node4"><a xlink:href="connector__impl_8cpp.html" target="_top" xlink:title=" ">
<polygon fill="white" stroke="black" points="161,-0.5 161,-52.5 304,-52.5 304,-0.5 161,-0.5"/>
<text text-anchor="start" x="169" y="-40.5" font-family="Helvetica,sans-Serif" font-size="10.00">/home/kali/projects</text>
<text text-anchor="start" x="169" y="-29.5" font-family="Helvetica,sans-Serif" font-size="10.00">/vsomeip/implementation</text>
<text text-anchor="start" x="169" y="-18.5" font-family="Helvetica,sans-Serif" font-size="10.00">/tracing/src/connector</text>
<text text-anchor="middle" x="232.5" y="-7.5" font-family="Helvetica,sans-Serif" font-size="10.00">_impl.cpp</text>
</a>
</g>
</g>
<!-- Node2&#45;&gt;Node4 -->
<g id="edge3" class="edge">
<title>Node2&#45;&gt;Node4</title>
<path fill="none" stroke="midnightblue" d="M181.95,-81.79C190.95,-72.13 200.65,-61.71 209.12,-52.61"/>
<polygon fill="midnightblue" stroke="midnightblue" points="179.18,-79.63 174.93,-89.34 184.3,-84.4 179.18,-79.63"/>
</g>
</g>
</svg>
