<?xml version="1.0" encoding="UTF-8" standalone="no"?>
<!DOCTYPE svg PUBLIC "-//W3C//DTD SVG 1.1//EN"
 "http://www.w3.org/Graphics/SVG/1.1/DTD/svg11.dtd">
<!-- Generated by graphviz version 2.43.0 (0)
 -->
<!-- Title: /home/kali/projects/vsomeip/implementation/service_discovery/include/runtime.hpp Pages: 1 -->
<svg width="680pt" height="239pt"
 viewBox="0.00 0.00 679.50 239.00" xmlns="http://www.w3.org/2000/svg" xmlns:xlink="http://www.w3.org/1999/xlink">
<g id="graph0" class="graph" transform="scale(1 1) rotate(0) translate(4 235)">
<title>/home/kali/projects/vsomeip/implementation/service_discovery/include/runtime.hpp</title>
<polygon fill="white" stroke="transparent" points="-4,4 -4,-235 675.5,-235 675.5,4 -4,4"/>
<!-- Node1 -->
<g id="node1" class="node">
<title>Node1</title>
<g id="a_node1"><a xlink:title=" ">
<polygon fill="#bfbfbf" stroke="black" points="267,-178.5 267,-230.5 413,-230.5 413,-178.5 267,-178.5"/>
<text text-anchor="start" x="275" y="-218.5" font-family="Helvetica,sans-Serif" font-size="10.00">/home/kali/projects</text>
<text text-anchor="start" x="275" y="-207.5" font-family="Helvetica,sans-Serif" font-size="10.00">/vsomeip/implementation</text>
<text text-anchor="start" x="275" y="-196.5" font-family="Helvetica,sans-Serif" font-size="10.00">/service_discovery/include</text>
<text text-anchor="middle" x="340" y="-185.5" font-family="Helvetica,sans-Serif" font-size="10.00">/runtime.hpp</text>
</a>
</g>
</g>
<!-- Node2 -->
<g id="node2" class="node">
<title>Node2</title>
<g id="a_node2"><a xlink:href="routing__manager__impl_8cpp.html" target="_top" xlink:title=" ">
<polygon fill="white" stroke="black" points="0,-89.5 0,-141.5 158,-141.5 158,-89.5 0,-89.5"/>
<text text-anchor="start" x="8" y="-129.5" font-family="Helvetica,sans-Serif" font-size="10.00">/home/kali/projects</text>
<text text-anchor="start" x="8" y="-118.5" font-family="Helvetica,sans-Serif" font-size="10.00">/vsomeip/implementation</text>
<text text-anchor="start" x="8" y="-107.5" font-family="Helvetica,sans-Serif" font-size="10.00">/routing/src/routing_manager</text>
<text text-anchor="middle" x="79" y="-96.5" font-family="Helvetica,sans-Serif" font-size="10.00">_impl.cpp</text>
</a>
</g>
</g>
<!-- Node1&#45;&gt;Node2 -->
<g id="edge1" class="edge">
<title>Node1&#45;&gt;Node2</title>
<path fill="none" stroke="midnightblue" d="M257.32,-175.94C224.3,-164.93 186.55,-152.35 154.3,-141.6"/>
<polygon fill="midnightblue" stroke="midnightblue" points="256.36,-179.31 266.95,-179.15 258.57,-172.67 256.36,-179.31"/>
</g>
<!-- Node3 -->
<g id="node3" class="node">
<title>Node3</title>
<g id="a_node3"><a xlink:href="routing__manager__proxy_8cpp.html" target="_top" xlink:title=" ">
<polygon fill="white" stroke="black" points="176,-89.5 176,-141.5 334,-141.5 334,-89.5 176,-89.5"/>
<text text-anchor="start" x="184" y="-129.5" font-family="Helvetica,sans-Serif" font-size="10.00">/home/kali/projects</text>
<text text-anchor="start" x="184" y="-118.5" font-family="Helvetica,sans-Serif" font-size="10.00">/vsomeip/implementation</text>
<text text-anchor="start" x="184" y="-107.5" font-family="Helvetica,sans-Serif" font-size="10.00">/routing/src/routing_manager</text>
<text text-anchor="middle" x="255" y="-96.5" font-family="Helvetica,sans-Serif" font-size="10.00">_proxy.cpp</text>
</a>
</g>
</g>
<!-- Node1&#45;&gt;Node3 -->
<g id="edge2" class="edge">
<title>Node1&#45;&gt;Node3</title>
<path fill="none" stroke="midnightblue" d="M308.32,-171.08C298.8,-161.34 288.51,-150.8 279.53,-141.61"/>
<polygon fill="midnightblue" stroke="midnightblue" points="305.92,-173.63 315.41,-178.34 310.93,-168.74 305.92,-173.63"/>
</g>
<!-- Node4 -->
<g id="node4" class="node">
<title>Node4</title>
<g id="a_node4"><a xlink:href="service__discovery_2include_2runtime__impl_8hpp.html" target="_top" xlink:title=" ">
<polygon fill="white" stroke="black" points="352,-89.5 352,-141.5 498,-141.5 498,-89.5 352,-89.5"/>
<text text-anchor="start" x="360" y="-129.5" font-family="Helvetica,sans-Serif" font-size="10.00">/home/kali/projects</text>
<text text-anchor="start" x="360" y="-118.5" font-family="Helvetica,sans-Serif" font-size="10.00">/vsomeip/implementation</text>
<text text-anchor="start" x="360" y="-107.5" font-family="Helvetica,sans-Serif" font-size="10.00">/service_discovery/include</text>
<text text-anchor="middle" x="425" y="-96.5" font-family="Helvetica,sans-Serif" font-size="10.00">/runtime_impl.hpp</text>
</a>
</g>
</g>
<!-- Node1&#45;&gt;Node4 -->
<g id="edge3" class="edge">
<title>Node1&#45;&gt;Node4</title>
<path fill="none" stroke="midnightblue" d="M371.68,-171.08C381.2,-161.34 391.49,-150.8 400.47,-141.61"/>
<polygon fill="midnightblue" stroke="midnightblue" points="369.07,-168.74 364.59,-178.34 374.08,-173.63 369.07,-168.74"/>
</g>
<!-- Node6 -->
<g id="node6" class="node">
<title>Node6</title>
<g id="a_node6"><a xlink:href="service__discovery__impl_8cpp.html" target="_top" xlink:title=" ">
<polygon fill="white" stroke="black" points="516.5,-89.5 516.5,-141.5 671.5,-141.5 671.5,-89.5 516.5,-89.5"/>
<text text-anchor="start" x="524.5" y="-129.5" font-family="Helvetica,sans-Serif" font-size="10.00">/home/kali/projects</text>
<text text-anchor="start" x="524.5" y="-118.5" font-family="Helvetica,sans-Serif" font-size="10.00">/vsomeip/implementation</text>
<text text-anchor="start" x="524.5" y="-107.5" font-family="Helvetica,sans-Serif" font-size="10.00">/service_discovery/src</text>
<text text-anchor="middle" x="594" y="-96.5" font-family="Helvetica,sans-Serif" font-size="10.00">/service_discovery_impl.cpp</text>
</a>
</g>
</g>
<!-- Node1&#45;&gt;Node6 -->
<g id="edge5" class="edge">
<title>Node1&#45;&gt;Node6</title>
<path fill="none" stroke="midnightblue" d="M422.8,-175.14C454.45,-164.3 490.28,-152.03 520.95,-141.52"/>
<polygon fill="midnightblue" stroke="midnightblue" points="421.45,-171.9 413.13,-178.45 423.72,-178.52 421.45,-171.9"/>
</g>
<!-- Node5 -->
<g id="node5" class="node">
<title>Node5</title>
<g id="a_node5"><a xlink:href="service__discovery_2src_2runtime__impl_8cpp.html" target="_top" xlink:title=" ">
<polygon fill="white" stroke="black" points="353.5,-0.5 353.5,-52.5 496.5,-52.5 496.5,-0.5 353.5,-0.5"/>
<text text-anchor="start" x="361.5" y="-40.5" font-family="Helvetica,sans-Serif" font-size="10.00">/home/kali/projects</text>
<text text-anchor="start" x="361.5" y="-29.5" font-family="Helvetica,sans-Serif" font-size="10.00">/vsomeip/implementation</text>
<text text-anchor="start" x="361.5" y="-18.5" font-family="Helvetica,sans-Serif" font-size="10.00">/service_discovery/src</text>
<text text-anchor="middle" x="425" y="-7.5" font-family="Helvetica,sans-Serif" font-size="10.00">/runtime_impl.cpp</text>
</a>
</g>
</g>
<!-- Node4&#45;&gt;Node5 -->
<g id="edge4" class="edge">
<title>Node4&#45;&gt;Node5</title>
<path fill="none" stroke="midnightblue" d="M425,-79.19C425,-70.28 425,-60.9 425,-52.61"/>
<polygon fill="midnightblue" stroke="midnightblue" points="421.5,-79.34 425,-89.34 428.5,-79.34 421.5,-79.34"/>
</g>
</g>
</svg>
