<?xml version="1.0" encoding="UTF-8" standalone="no"?>
<!DOCTYPE svg PUBLIC "-//W3C//DTD SVG 1.1//EN"
 "http://www.w3.org/Graphics/SVG/1.1/DTD/svg11.dtd">
<!-- Generated by graphviz version 2.43.0 (0)
 -->
<!-- Title: /home/kali/projects/vsomeip/implementation/service_discovery/include/enumeration_types.hpp Pages: 1 -->
<svg width="1986pt" height="506pt"
 viewBox="0.00 0.00 1986.01 506.00" xmlns="http://www.w3.org/2000/svg" xmlns:xlink="http://www.w3.org/1999/xlink">
<g id="graph0" class="graph" transform="scale(1 1) rotate(0) translate(4 502)">
<title>/home/kali/projects/vsomeip/implementation/service_discovery/include/enumeration_types.hpp</title>
<polygon fill="white" stroke="transparent" points="-4,4 -4,-502 1982.01,-502 1982.01,4 -4,4"/>
<!-- Node1 -->
<g id="node1" class="node">
<title>Node1</title>
<g id="a_node1"><a xlink:title=" ">
<polygon fill="#bfbfbf" stroke="black" points="191.51,-445.5 191.51,-497.5 337.51,-497.5 337.51,-445.5 191.51,-445.5"/>
<text text-anchor="start" x="199.51" y="-485.5" font-family="Helvetica,sans-Serif" font-size="10.00">/home/kali/projects</text>
<text text-anchor="start" x="199.51" y="-474.5" font-family="Helvetica,sans-Serif" font-size="10.00">/vsomeip/implementation</text>
<text text-anchor="start" x="199.51" y="-463.5" font-family="Helvetica,sans-Serif" font-size="10.00">/service_discovery/include</text>
<text text-anchor="middle" x="264.51" y="-452.5" font-family="Helvetica,sans-Serif" font-size="10.00">/enumeration_types.hpp</text>
</a>
</g>
</g>
<!-- Node2 -->
<g id="node2" class="node">
<title>Node2</title>
<g id="a_node2"><a xlink:href="entry__impl_8hpp.html" target="_top" xlink:title=" ">
<polygon fill="white" stroke="black" points="191.51,-267.5 191.51,-319.5 337.51,-319.5 337.51,-267.5 191.51,-267.5"/>
<text text-anchor="start" x="199.51" y="-307.5" font-family="Helvetica,sans-Serif" font-size="10.00">/home/kali/projects</text>
<text text-anchor="start" x="199.51" y="-296.5" font-family="Helvetica,sans-Serif" font-size="10.00">/vsomeip/implementation</text>
<text text-anchor="start" x="199.51" y="-285.5" font-family="Helvetica,sans-Serif" font-size="10.00">/service_discovery/include</text>
<text text-anchor="middle" x="264.51" y="-274.5" font-family="Helvetica,sans-Serif" font-size="10.00">/entry_impl.hpp</text>
</a>
</g>
</g>
<!-- Node1&#45;&gt;Node2 -->
<g id="edge1" class="edge">
<title>Node1&#45;&gt;Node2</title>
<path fill="none" stroke="midnightblue" d="M264.51,-435.25C264.51,-401.04 264.51,-349.97 264.51,-319.67"/>
<polygon fill="midnightblue" stroke="midnightblue" points="261.01,-435.28 264.51,-445.28 268.01,-435.28 261.01,-435.28"/>
</g>
<!-- Node6 -->
<g id="node6" class="node">
<title>Node6</title>
<g id="a_node6"><a xlink:href="service__discovery__impl_8cpp.html" target="_top" xlink:title=" ">
<polygon fill="white" stroke="black" points="986.01,-0.5 986.01,-52.5 1141.01,-52.5 1141.01,-0.5 986.01,-0.5"/>
<text text-anchor="start" x="994.01" y="-40.5" font-family="Helvetica,sans-Serif" font-size="10.00">/home/kali/projects</text>
<text text-anchor="start" x="994.01" y="-29.5" font-family="Helvetica,sans-Serif" font-size="10.00">/vsomeip/implementation</text>
<text text-anchor="start" x="994.01" y="-18.5" font-family="Helvetica,sans-Serif" font-size="10.00">/service_discovery/src</text>
<text text-anchor="middle" x="1063.51" y="-7.5" font-family="Helvetica,sans-Serif" font-size="10.00">/service_discovery_impl.cpp</text>
</a>
</g>
</g>
<!-- Node1&#45;&gt;Node6 -->
<g id="edge44" class="edge">
<title>Node1&#45;&gt;Node6</title>
<path fill="none" stroke="midnightblue" d="M181.52,-451.96C104.44,-429.27 1.51,-382.49 1.51,-294.5 1.51,-294.5 1.51,-294.5 1.51,-203.5 1.51,-135.13 -22.71,-149.37 183.51,-89 332.88,-45.27 799.78,-32.21 985.85,-28.69"/>
<polygon fill="midnightblue" stroke="midnightblue" points="180.68,-455.36 191.25,-454.74 182.6,-448.63 180.68,-455.36"/>
</g>
<!-- Node10 -->
<g id="node10" class="node">
<title>Node10</title>
<g id="a_node10"><a xlink:href="option__impl_8hpp.html" target="_top" xlink:title=" ">
<polygon fill="white" stroke="black" points="980.51,-356.5 980.51,-408.5 1126.51,-408.5 1126.51,-356.5 980.51,-356.5"/>
<text text-anchor="start" x="988.51" y="-396.5" font-family="Helvetica,sans-Serif" font-size="10.00">/home/kali/projects</text>
<text text-anchor="start" x="988.51" y="-385.5" font-family="Helvetica,sans-Serif" font-size="10.00">/vsomeip/implementation</text>
<text text-anchor="start" x="988.51" y="-374.5" font-family="Helvetica,sans-Serif" font-size="10.00">/service_discovery/include</text>
<text text-anchor="middle" x="1053.51" y="-363.5" font-family="Helvetica,sans-Serif" font-size="10.00">/option_impl.hpp</text>
</a>
</g>
</g>
<!-- Node1&#45;&gt;Node10 -->
<g id="edge11" class="edge">
<title>Node1&#45;&gt;Node10</title>
<path fill="none" stroke="midnightblue" d="M347.63,-461.34C502.62,-444.25 833.32,-407.78 980.39,-391.56"/>
<polygon fill="midnightblue" stroke="midnightblue" points="347.24,-457.86 337.68,-462.43 348,-464.82 347.24,-457.86"/>
</g>
<!-- Node3 -->
<g id="node3" class="node">
<title>Node3</title>
<g id="a_node3"><a xlink:href="eventgroupentry__impl_8hpp.html" target="_top" xlink:title=" ">
<polygon fill="white" stroke="black" points="356.01,-178.5 356.01,-230.5 505.01,-230.5 505.01,-178.5 356.01,-178.5"/>
<text text-anchor="start" x="364.01" y="-218.5" font-family="Helvetica,sans-Serif" font-size="10.00">/home/kali/projects</text>
<text text-anchor="start" x="364.01" y="-207.5" font-family="Helvetica,sans-Serif" font-size="10.00">/vsomeip/implementation</text>
<text text-anchor="start" x="364.01" y="-196.5" font-family="Helvetica,sans-Serif" font-size="10.00">/service_discovery/include</text>
<text text-anchor="middle" x="430.51" y="-185.5" font-family="Helvetica,sans-Serif" font-size="10.00">/eventgroupentry_impl.hpp</text>
</a>
</g>
</g>
<!-- Node2&#45;&gt;Node3 -->
<g id="edge2" class="edge">
<title>Node2&#45;&gt;Node3</title>
<path fill="none" stroke="midnightblue" d="M321.5,-262.64C341.4,-252.2 363.52,-240.61 382.61,-230.61"/>
<polygon fill="midnightblue" stroke="midnightblue" points="319.76,-259.59 312.53,-267.34 323.01,-265.79 319.76,-259.59"/>
</g>
<!-- Node7 -->
<g id="node7" class="node">
<title>Node7</title>
<g id="a_node7"><a xlink:href="serviceentry__impl_8hpp.html" target="_top" xlink:title=" ">
<polygon fill="white" stroke="black" points="191.51,-178.5 191.51,-230.5 337.51,-230.5 337.51,-178.5 191.51,-178.5"/>
<text text-anchor="start" x="199.51" y="-218.5" font-family="Helvetica,sans-Serif" font-size="10.00">/home/kali/projects</text>
<text text-anchor="start" x="199.51" y="-207.5" font-family="Helvetica,sans-Serif" font-size="10.00">/vsomeip/implementation</text>
<text text-anchor="start" x="199.51" y="-196.5" font-family="Helvetica,sans-Serif" font-size="10.00">/service_discovery/include</text>
<text text-anchor="middle" x="264.51" y="-185.5" font-family="Helvetica,sans-Serif" font-size="10.00">/serviceentry_impl.hpp</text>
</a>
</g>
</g>
<!-- Node2&#45;&gt;Node7 -->
<g id="edge6" class="edge">
<title>Node2&#45;&gt;Node7</title>
<path fill="none" stroke="midnightblue" d="M264.51,-257.19C264.51,-248.28 264.51,-238.9 264.51,-230.61"/>
<polygon fill="midnightblue" stroke="midnightblue" points="261.01,-257.34 264.51,-267.34 268.01,-257.34 261.01,-257.34"/>
</g>
<!-- Node9 -->
<g id="node9" class="node">
<title>Node9</title>
<g id="a_node9"><a xlink:href="entry__impl_8cpp.html" target="_top" xlink:title=" ">
<polygon fill="white" stroke="black" points="30.01,-178.5 30.01,-230.5 173.01,-230.5 173.01,-178.5 30.01,-178.5"/>
<text text-anchor="start" x="38.01" y="-218.5" font-family="Helvetica,sans-Serif" font-size="10.00">/home/kali/projects</text>
<text text-anchor="start" x="38.01" y="-207.5" font-family="Helvetica,sans-Serif" font-size="10.00">/vsomeip/implementation</text>
<text text-anchor="start" x="38.01" y="-196.5" font-family="Helvetica,sans-Serif" font-size="10.00">/service_discovery/src</text>
<text text-anchor="middle" x="101.51" y="-185.5" font-family="Helvetica,sans-Serif" font-size="10.00">/entry_impl.cpp</text>
</a>
</g>
</g>
<!-- Node2&#45;&gt;Node9 -->
<g id="edge10" class="edge">
<title>Node2&#45;&gt;Node9</title>
<path fill="none" stroke="midnightblue" d="M208.3,-262.49C188.82,-252.1 167.21,-240.57 148.55,-230.61"/>
<polygon fill="midnightblue" stroke="midnightblue" points="206.9,-265.71 217.37,-267.34 210.19,-259.54 206.9,-265.71"/>
</g>
<!-- Node4 -->
<g id="node4" class="node">
<title>Node4</title>
<g id="a_node4"><a xlink:href="eventgroupentry__impl_8cpp.html" target="_top" xlink:title=" ">
<polygon fill="white" stroke="black" points="1257.51,-89.5 1257.51,-141.5 1405.51,-141.5 1405.51,-89.5 1257.51,-89.5"/>
<text text-anchor="start" x="1265.51" y="-129.5" font-family="Helvetica,sans-Serif" font-size="10.00">/home/kali/projects</text>
<text text-anchor="start" x="1265.51" y="-118.5" font-family="Helvetica,sans-Serif" font-size="10.00">/vsomeip/implementation</text>
<text text-anchor="start" x="1265.51" y="-107.5" font-family="Helvetica,sans-Serif" font-size="10.00">/service_discovery/src</text>
<text text-anchor="middle" x="1331.51" y="-96.5" font-family="Helvetica,sans-Serif" font-size="10.00">/eventgroupentry_impl.cpp</text>
</a>
</g>
</g>
<!-- Node3&#45;&gt;Node4 -->
<g id="edge3" class="edge">
<title>Node3&#45;&gt;Node4</title>
<path fill="none" stroke="midnightblue" d="M515.48,-177.83C837.1,-123.15 929.01,-197.29 1247.51,-142 1250.67,-141.45 1253.87,-140.82 1257.09,-140.13"/>
<polygon fill="midnightblue" stroke="midnightblue" points="514.67,-174.42 505.41,-179.58 515.86,-181.32 514.67,-174.42"/>
</g>
<!-- Node5 -->
<g id="node5" class="node">
<title>Node5</title>
<g id="a_node5"><a xlink:href="service__discovery_2src_2message__impl_8cpp.html" target="_top" xlink:title=" ">
<polygon fill="white" stroke="black" points="792.01,-89.5 792.01,-141.5 935.01,-141.5 935.01,-89.5 792.01,-89.5"/>
<text text-anchor="start" x="800.01" y="-129.5" font-family="Helvetica,sans-Serif" font-size="10.00">/home/kali/projects</text>
<text text-anchor="start" x="800.01" y="-118.5" font-family="Helvetica,sans-Serif" font-size="10.00">/vsomeip/implementation</text>
<text text-anchor="start" x="800.01" y="-107.5" font-family="Helvetica,sans-Serif" font-size="10.00">/service_discovery/src</text>
<text text-anchor="middle" x="863.51" y="-96.5" font-family="Helvetica,sans-Serif" font-size="10.00">/message_impl.cpp</text>
</a>
</g>
</g>
<!-- Node3&#45;&gt;Node5 -->
<g id="edge4" class="edge">
<title>Node3&#45;&gt;Node5</title>
<path fill="none" stroke="midnightblue" d="M514.81,-177.79C615.84,-153.94 723.03,-136.57 791.92,-126.42"/>
<polygon fill="midnightblue" stroke="midnightblue" points="513.96,-174.4 505.05,-180.12 515.59,-181.2 513.96,-174.4"/>
</g>
<!-- Node3&#45;&gt;Node6 -->
<g id="edge5" class="edge">
<title>Node3&#45;&gt;Node6</title>
<path fill="none" stroke="midnightblue" d="M510.45,-174.99C581.36,-150.31 688.04,-114.64 782.51,-89 850.59,-70.53 929.09,-53.72 985.79,-42.36"/>
<polygon fill="midnightblue" stroke="midnightblue" points="508.98,-171.8 500.69,-178.4 511.28,-178.41 508.98,-171.8"/>
</g>
<!-- Node7&#45;&gt;Node5 -->
<g id="edge7" class="edge">
<title>Node7&#45;&gt;Node5</title>
<path fill="none" stroke="midnightblue" d="M347.88,-177.87C511.1,-143.88 693.36,-127.78 791.75,-120.87"/>
<polygon fill="midnightblue" stroke="midnightblue" points="346.72,-174.54 337.66,-180.03 348.16,-181.39 346.72,-174.54"/>
</g>
<!-- Node7&#45;&gt;Node6 -->
<g id="edge8" class="edge">
<title>Node7&#45;&gt;Node6</title>
<path fill="none" stroke="midnightblue" d="M336.41,-174.79C404.44,-148.71 509.94,-111.05 604.51,-89 736.65,-58.2 894.02,-41.28 985.95,-33.33"/>
<polygon fill="midnightblue" stroke="midnightblue" points="335.14,-171.53 327.07,-178.39 337.66,-178.06 335.14,-171.53"/>
</g>
<!-- Node8 -->
<g id="node8" class="node">
<title>Node8</title>
<g id="a_node8"><a xlink:href="serviceentry__impl_8cpp.html" target="_top" xlink:title=" ">
<polygon fill="white" stroke="black" points="193.01,-89.5 193.01,-141.5 336.01,-141.5 336.01,-89.5 193.01,-89.5"/>
<text text-anchor="start" x="201.01" y="-129.5" font-family="Helvetica,sans-Serif" font-size="10.00">/home/kali/projects</text>
<text text-anchor="start" x="201.01" y="-118.5" font-family="Helvetica,sans-Serif" font-size="10.00">/vsomeip/implementation</text>
<text text-anchor="start" x="201.01" y="-107.5" font-family="Helvetica,sans-Serif" font-size="10.00">/service_discovery/src</text>
<text text-anchor="middle" x="264.51" y="-96.5" font-family="Helvetica,sans-Serif" font-size="10.00">/serviceentry_impl.cpp</text>
</a>
</g>
</g>
<!-- Node7&#45;&gt;Node8 -->
<g id="edge9" class="edge">
<title>Node7&#45;&gt;Node8</title>
<path fill="none" stroke="midnightblue" d="M264.51,-168.19C264.51,-159.28 264.51,-149.9 264.51,-141.61"/>
<polygon fill="midnightblue" stroke="midnightblue" points="261.01,-168.34 264.51,-178.34 268.01,-168.34 261.01,-168.34"/>
</g>
<!-- Node11 -->
<g id="node11" class="node">
<title>Node11</title>
<g id="a_node11"><a xlink:href="configuration__option__impl_8hpp.html" target="_top" xlink:title=" ">
<polygon fill="white" stroke="black" points="792.01,-267.5 792.01,-319.5 959.01,-319.5 959.01,-267.5 792.01,-267.5"/>
<text text-anchor="start" x="800.01" y="-307.5" font-family="Helvetica,sans-Serif" font-size="10.00">/home/kali/projects</text>
<text text-anchor="start" x="800.01" y="-296.5" font-family="Helvetica,sans-Serif" font-size="10.00">/vsomeip/implementation</text>
<text text-anchor="start" x="800.01" y="-285.5" font-family="Helvetica,sans-Serif" font-size="10.00">/service_discovery/include</text>
<text text-anchor="middle" x="875.51" y="-274.5" font-family="Helvetica,sans-Serif" font-size="10.00">/configuration_option_impl.hpp</text>
</a>
</g>
</g>
<!-- Node10&#45;&gt;Node11 -->
<g id="edge12" class="edge">
<title>Node10&#45;&gt;Node11</title>
<path fill="none" stroke="midnightblue" d="M992.99,-351.92C971.5,-341.41 947.53,-329.7 926.88,-319.61"/>
<polygon fill="midnightblue" stroke="midnightblue" points="991.51,-355.09 1002.03,-356.34 994.58,-348.8 991.51,-355.09"/>
</g>
<!-- Node13 -->
<g id="node13" class="node">
<title>Node13</title>
<g id="a_node13"><a xlink:href="ip__option__impl_8hpp.html" target="_top" xlink:title=" ">
<polygon fill="white" stroke="black" points="1513.51,-267.5 1513.51,-319.5 1659.51,-319.5 1659.51,-267.5 1513.51,-267.5"/>
<text text-anchor="start" x="1521.51" y="-307.5" font-family="Helvetica,sans-Serif" font-size="10.00">/home/kali/projects</text>
<text text-anchor="start" x="1521.51" y="-296.5" font-family="Helvetica,sans-Serif" font-size="10.00">/vsomeip/implementation</text>
<text text-anchor="start" x="1521.51" y="-285.5" font-family="Helvetica,sans-Serif" font-size="10.00">/service_discovery/include</text>
<text text-anchor="middle" x="1586.51" y="-274.5" font-family="Helvetica,sans-Serif" font-size="10.00">/ip_option_impl.hpp</text>
</a>
</g>
</g>
<!-- Node10&#45;&gt;Node13 -->
<g id="edge15" class="edge">
<title>Node10&#45;&gt;Node13</title>
<path fill="none" stroke="midnightblue" d="M1136.87,-367.89C1240.22,-351.02 1414.74,-322.54 1513.2,-306.47"/>
<polygon fill="midnightblue" stroke="midnightblue" points="1136.09,-364.47 1126.79,-369.54 1137.22,-371.38 1136.09,-364.47"/>
</g>
<!-- Node21 -->
<g id="node21" class="node">
<title>Node21</title>
<g id="a_node21"><a xlink:href="load__balancing__option__impl_8hpp.html" target="_top" xlink:title=" ">
<polygon fill="white" stroke="black" points="597.01,-267.5 597.01,-319.5 774.01,-319.5 774.01,-267.5 597.01,-267.5"/>
<text text-anchor="start" x="605.01" y="-307.5" font-family="Helvetica,sans-Serif" font-size="10.00">/home/kali/projects</text>
<text text-anchor="start" x="605.01" y="-296.5" font-family="Helvetica,sans-Serif" font-size="10.00">/vsomeip/implementation</text>
<text text-anchor="start" x="605.01" y="-285.5" font-family="Helvetica,sans-Serif" font-size="10.00">/service_discovery/include</text>
<text text-anchor="middle" x="685.51" y="-274.5" font-family="Helvetica,sans-Serif" font-size="10.00">/load_balancing_option_impl.hpp</text>
</a>
</g>
</g>
<!-- Node10&#45;&gt;Node21 -->
<g id="edge32" class="edge">
<title>Node10&#45;&gt;Node21</title>
<path fill="none" stroke="midnightblue" d="M970.5,-363.43C916.77,-351.54 845.38,-335.39 782.51,-320 779.72,-319.32 776.89,-318.62 774.03,-317.9"/>
<polygon fill="midnightblue" stroke="midnightblue" points="969.8,-366.86 980.32,-365.59 971.31,-360.02 969.8,-366.86"/>
</g>
<!-- Node23 -->
<g id="node23" class="node">
<title>Node23</title>
<g id="a_node23"><a xlink:href="protection__option__impl_8hpp.html" target="_top" xlink:title=" ">
<polygon fill="white" stroke="black" points="977.01,-267.5 977.01,-319.5 1130.01,-319.5 1130.01,-267.5 977.01,-267.5"/>
<text text-anchor="start" x="985.01" y="-307.5" font-family="Helvetica,sans-Serif" font-size="10.00">/home/kali/projects</text>
<text text-anchor="start" x="985.01" y="-296.5" font-family="Helvetica,sans-Serif" font-size="10.00">/vsomeip/implementation</text>
<text text-anchor="start" x="985.01" y="-285.5" font-family="Helvetica,sans-Serif" font-size="10.00">/service_discovery/include</text>
<text text-anchor="middle" x="1053.51" y="-274.5" font-family="Helvetica,sans-Serif" font-size="10.00">/protection_option_impl.hpp</text>
</a>
</g>
</g>
<!-- Node10&#45;&gt;Node23 -->
<g id="edge35" class="edge">
<title>Node10&#45;&gt;Node23</title>
<path fill="none" stroke="midnightblue" d="M1053.51,-346.19C1053.51,-337.28 1053.51,-327.9 1053.51,-319.61"/>
<polygon fill="midnightblue" stroke="midnightblue" points="1050.01,-346.34 1053.51,-356.34 1057.01,-346.34 1050.01,-346.34"/>
</g>
<!-- Node25 -->
<g id="node25" class="node">
<title>Node25</title>
<g id="a_node25"><a xlink:href="selective__option__impl_8hpp.html" target="_top" xlink:title=" ">
<polygon fill="white" stroke="black" points="1185.51,-178.5 1185.51,-230.5 1333.51,-230.5 1333.51,-178.5 1185.51,-178.5"/>
<text text-anchor="start" x="1193.51" y="-218.5" font-family="Helvetica,sans-Serif" font-size="10.00">/home/kali/projects</text>
<text text-anchor="start" x="1193.51" y="-207.5" font-family="Helvetica,sans-Serif" font-size="10.00">/vsomeip/implementation</text>
<text text-anchor="start" x="1193.51" y="-196.5" font-family="Helvetica,sans-Serif" font-size="10.00">/service_discovery/include</text>
<text text-anchor="middle" x="1259.51" y="-185.5" font-family="Helvetica,sans-Serif" font-size="10.00">/selective_option_impl.hpp</text>
</a>
</g>
</g>
<!-- Node10&#45;&gt;Node25 -->
<g id="edge38" class="edge">
<title>Node10&#45;&gt;Node25</title>
<path fill="none" stroke="midnightblue" d="M1136.81,-371.67C1200.04,-362.29 1279.42,-345.73 1299.51,-320 1320.25,-293.44 1299.44,-255.36 1280.92,-230.53"/>
<polygon fill="midnightblue" stroke="midnightblue" points="1136.21,-368.22 1126.81,-373.11 1137.21,-375.15 1136.21,-368.22"/>
</g>
<!-- Node27 -->
<g id="node27" class="node">
<title>Node27</title>
<g id="a_node27"><a xlink:href="option__impl_8cpp.html" target="_top" xlink:title=" ">
<polygon fill="white" stroke="black" points="1148.01,-267.5 1148.01,-319.5 1291.01,-319.5 1291.01,-267.5 1148.01,-267.5"/>
<text text-anchor="start" x="1156.01" y="-307.5" font-family="Helvetica,sans-Serif" font-size="10.00">/home/kali/projects</text>
<text text-anchor="start" x="1156.01" y="-296.5" font-family="Helvetica,sans-Serif" font-size="10.00">/vsomeip/implementation</text>
<text text-anchor="start" x="1156.01" y="-285.5" font-family="Helvetica,sans-Serif" font-size="10.00">/service_discovery/src</text>
<text text-anchor="middle" x="1219.51" y="-274.5" font-family="Helvetica,sans-Serif" font-size="10.00">/option_impl.cpp</text>
</a>
</g>
</g>
<!-- Node10&#45;&gt;Node27 -->
<g id="edge43" class="edge">
<title>Node10&#45;&gt;Node27</title>
<path fill="none" stroke="midnightblue" d="M1110.5,-351.64C1130.4,-341.2 1152.52,-329.61 1171.61,-319.61"/>
<polygon fill="midnightblue" stroke="midnightblue" points="1108.76,-348.59 1101.53,-356.34 1112.01,-354.79 1108.76,-348.59"/>
</g>
<!-- Node11&#45;&gt;Node5 -->
<g id="edge14" class="edge">
<title>Node11&#45;&gt;Node5</title>
<path fill="none" stroke="midnightblue" d="M810.11,-261.47C799.02,-253.17 789,-243.07 782.51,-231 771.36,-210.25 772.04,-199.1 782.51,-178 789.81,-163.29 802.5,-151.15 815.7,-141.66"/>
<polygon fill="midnightblue" stroke="midnightblue" points="808.14,-264.36 818.35,-267.19 812.13,-258.61 808.14,-264.36"/>
</g>
<!-- Node12 -->
<g id="node12" class="node">
<title>Node12</title>
<g id="a_node12"><a xlink:href="configuration__option__impl_8cpp.html" target="_top" xlink:title=" ">
<polygon fill="white" stroke="black" points="792.01,-178.5 792.01,-230.5 959.01,-230.5 959.01,-178.5 792.01,-178.5"/>
<text text-anchor="start" x="800.01" y="-218.5" font-family="Helvetica,sans-Serif" font-size="10.00">/home/kali/projects</text>
<text text-anchor="start" x="800.01" y="-207.5" font-family="Helvetica,sans-Serif" font-size="10.00">/vsomeip/implementation</text>
<text text-anchor="start" x="800.01" y="-196.5" font-family="Helvetica,sans-Serif" font-size="10.00">/service_discovery/src</text>
<text text-anchor="middle" x="875.51" y="-185.5" font-family="Helvetica,sans-Serif" font-size="10.00">/configuration_option_impl.cpp</text>
</a>
</g>
</g>
<!-- Node11&#45;&gt;Node12 -->
<g id="edge13" class="edge">
<title>Node11&#45;&gt;Node12</title>
<path fill="none" stroke="midnightblue" d="M875.51,-257.19C875.51,-248.28 875.51,-238.9 875.51,-230.61"/>
<polygon fill="midnightblue" stroke="midnightblue" points="872.01,-257.34 875.51,-267.34 879.01,-257.34 872.01,-257.34"/>
</g>
<!-- Node14 -->
<g id="node14" class="node">
<title>Node14</title>
<g id="a_node14"><a xlink:href="ipv4__option__impl_8hpp.html" target="_top" xlink:title=" ">
<polygon fill="white" stroke="black" points="1513.51,-178.5 1513.51,-230.5 1659.51,-230.5 1659.51,-178.5 1513.51,-178.5"/>
<text text-anchor="start" x="1521.51" y="-218.5" font-family="Helvetica,sans-Serif" font-size="10.00">/home/kali/projects</text>
<text text-anchor="start" x="1521.51" y="-207.5" font-family="Helvetica,sans-Serif" font-size="10.00">/vsomeip/implementation</text>
<text text-anchor="start" x="1521.51" y="-196.5" font-family="Helvetica,sans-Serif" font-size="10.00">/service_discovery/include</text>
<text text-anchor="middle" x="1586.51" y="-185.5" font-family="Helvetica,sans-Serif" font-size="10.00">/ipv4_option_impl.hpp</text>
</a>
</g>
</g>
<!-- Node13&#45;&gt;Node14 -->
<g id="edge16" class="edge">
<title>Node13&#45;&gt;Node14</title>
<path fill="none" stroke="midnightblue" d="M1586.51,-257.19C1586.51,-248.28 1586.51,-238.9 1586.51,-230.61"/>
<polygon fill="midnightblue" stroke="midnightblue" points="1583.01,-257.34 1586.51,-267.34 1590.01,-257.34 1583.01,-257.34"/>
</g>
<!-- Node15 -->
<g id="node15" class="node">
<title>Node15</title>
<g id="a_node15"><a xlink:href="service__discovery__impl_8hpp.html" target="_top" xlink:title=" ">
<polygon fill="white" stroke="black" points="1823.01,-89.5 1823.01,-141.5 1978.01,-141.5 1978.01,-89.5 1823.01,-89.5"/>
<text text-anchor="start" x="1831.01" y="-129.5" font-family="Helvetica,sans-Serif" font-size="10.00">/home/kali/projects</text>
<text text-anchor="start" x="1831.01" y="-118.5" font-family="Helvetica,sans-Serif" font-size="10.00">/vsomeip/implementation</text>
<text text-anchor="start" x="1831.01" y="-107.5" font-family="Helvetica,sans-Serif" font-size="10.00">/service_discovery/include</text>
<text text-anchor="middle" x="1900.51" y="-96.5" font-family="Helvetica,sans-Serif" font-size="10.00">/service_discovery_impl.hpp</text>
</a>
</g>
</g>
<!-- Node13&#45;&gt;Node15 -->
<g id="edge30" class="edge">
<title>Node13&#45;&gt;Node15</title>
<path fill="none" stroke="midnightblue" d="M1669.64,-287.78C1720.86,-281.23 1785.5,-266 1832.51,-231 1862.74,-208.5 1882.04,-168.23 1892.08,-141.94"/>
<polygon fill="midnightblue" stroke="midnightblue" points="1669.1,-284.32 1659.58,-288.98 1669.93,-291.27 1669.1,-284.32"/>
</g>
<!-- Node18 -->
<g id="node18" class="node">
<title>Node18</title>
<g id="a_node18"><a xlink:href="ipv6__option__impl_8hpp.html" target="_top" xlink:title=" ">
<polygon fill="white" stroke="black" points="1677.51,-178.5 1677.51,-230.5 1823.51,-230.5 1823.51,-178.5 1677.51,-178.5"/>
<text text-anchor="start" x="1685.51" y="-218.5" font-family="Helvetica,sans-Serif" font-size="10.00">/home/kali/projects</text>
<text text-anchor="start" x="1685.51" y="-207.5" font-family="Helvetica,sans-Serif" font-size="10.00">/vsomeip/implementation</text>
<text text-anchor="start" x="1685.51" y="-196.5" font-family="Helvetica,sans-Serif" font-size="10.00">/service_discovery/include</text>
<text text-anchor="middle" x="1750.51" y="-185.5" font-family="Helvetica,sans-Serif" font-size="10.00">/ipv6_option_impl.hpp</text>
</a>
</g>
</g>
<!-- Node13&#45;&gt;Node18 -->
<g id="edge24" class="edge">
<title>Node13&#45;&gt;Node18</title>
<path fill="none" stroke="midnightblue" d="M1642.81,-262.64C1662.47,-252.2 1684.33,-240.61 1703.18,-230.61"/>
<polygon fill="midnightblue" stroke="midnightblue" points="1641.14,-259.56 1633.95,-267.34 1644.42,-265.74 1641.14,-259.56"/>
</g>
<!-- Node20 -->
<g id="node20" class="node">
<title>Node20</title>
<g id="a_node20"><a xlink:href="ip__option__impl_8cpp.html" target="_top" xlink:title=" ">
<polygon fill="white" stroke="black" points="1352.01,-178.5 1352.01,-230.5 1495.01,-230.5 1495.01,-178.5 1352.01,-178.5"/>
<text text-anchor="start" x="1360.01" y="-218.5" font-family="Helvetica,sans-Serif" font-size="10.00">/home/kali/projects</text>
<text text-anchor="start" x="1360.01" y="-207.5" font-family="Helvetica,sans-Serif" font-size="10.00">/vsomeip/implementation</text>
<text text-anchor="start" x="1360.01" y="-196.5" font-family="Helvetica,sans-Serif" font-size="10.00">/service_discovery/src</text>
<text text-anchor="middle" x="1423.51" y="-185.5" font-family="Helvetica,sans-Serif" font-size="10.00">/ip_option_impl.cpp</text>
</a>
</g>
</g>
<!-- Node13&#45;&gt;Node20 -->
<g id="edge31" class="edge">
<title>Node13&#45;&gt;Node20</title>
<path fill="none" stroke="midnightblue" d="M1530.3,-262.49C1510.82,-252.1 1489.21,-240.57 1470.55,-230.61"/>
<polygon fill="midnightblue" stroke="midnightblue" points="1528.9,-265.71 1539.37,-267.34 1532.19,-259.54 1528.9,-265.71"/>
</g>
<!-- Node14&#45;&gt;Node4 -->
<g id="edge20" class="edge">
<title>Node14&#45;&gt;Node4</title>
<path fill="none" stroke="midnightblue" d="M1503.72,-175.25C1471.93,-164.41 1435.9,-152.11 1405.04,-141.59"/>
<polygon fill="midnightblue" stroke="midnightblue" points="1502.85,-178.65 1513.44,-178.57 1505.11,-172.03 1502.85,-178.65"/>
</g>
<!-- Node14&#45;&gt;Node5 -->
<g id="edge22" class="edge">
<title>Node14&#45;&gt;Node5</title>
<path fill="none" stroke="midnightblue" d="M1503.82,-178.06C1503.72,-178.04 1503.62,-178.02 1503.51,-178 1319.16,-142.22 1269.36,-160.86 1082.51,-142 1033.39,-137.04 978.16,-130.6 935.46,-125.44"/>
<polygon fill="midnightblue" stroke="midnightblue" points="1502.9,-181.44 1513.41,-180.12 1504.36,-174.6 1502.9,-181.44"/>
</g>
<!-- Node14&#45;&gt;Node6 -->
<g id="edge23" class="edge">
<title>Node14&#45;&gt;Node6</title>
<path fill="none" stroke="midnightblue" d="M1504.79,-174.16C1486.51,-165.45 1467.97,-154.75 1452.51,-142 1430.15,-123.56 1439.05,-104.42 1414.51,-89 1370.06,-61.06 1230.23,-43.13 1141.05,-34.22"/>
<polygon fill="midnightblue" stroke="midnightblue" points="1503.47,-177.41 1514.02,-178.41 1506.4,-171.05 1503.47,-177.41"/>
</g>
<!-- Node14&#45;&gt;Node15 -->
<g id="edge17" class="edge">
<title>Node14&#45;&gt;Node15</title>
<path fill="none" stroke="midnightblue" d="M1669.69,-177.74C1734.6,-159.98 1753.04,-158.68 1814.51,-142 1817.22,-141.27 1819.97,-140.51 1822.74,-139.74"/>
<polygon fill="midnightblue" stroke="midnightblue" points="1668.47,-174.44 1659.77,-180.48 1670.34,-181.19 1668.47,-174.44"/>
</g>
<!-- Node17 -->
<g id="node17" class="node">
<title>Node17</title>
<g id="a_node17"><a xlink:href="ipv4__option__impl_8cpp.html" target="_top" xlink:title=" ">
<polygon fill="white" stroke="black" points="1462.01,-89.5 1462.01,-141.5 1605.01,-141.5 1605.01,-89.5 1462.01,-89.5"/>
<text text-anchor="start" x="1470.01" y="-129.5" font-family="Helvetica,sans-Serif" font-size="10.00">/home/kali/projects</text>
<text text-anchor="start" x="1470.01" y="-118.5" font-family="Helvetica,sans-Serif" font-size="10.00">/vsomeip/implementation</text>
<text text-anchor="start" x="1470.01" y="-107.5" font-family="Helvetica,sans-Serif" font-size="10.00">/service_discovery/src</text>
<text text-anchor="middle" x="1533.51" y="-96.5" font-family="Helvetica,sans-Serif" font-size="10.00">/ipv4_option_impl.cpp</text>
</a>
</g>
</g>
<!-- Node14&#45;&gt;Node17 -->
<g id="edge21" class="edge">
<title>Node14&#45;&gt;Node17</title>
<path fill="none" stroke="midnightblue" d="M1565.89,-169.64C1560.2,-160.31 1554.13,-150.35 1548.81,-141.61"/>
<polygon fill="midnightblue" stroke="midnightblue" points="1562.99,-171.62 1571.18,-178.34 1568.97,-167.97 1562.99,-171.62"/>
</g>
<!-- Node15&#45;&gt;Node6 -->
<g id="edge19" class="edge">
<title>Node15&#45;&gt;Node6</title>
<path fill="none" stroke="midnightblue" d="M1812.92,-88.85C1563.94,-43.24 1276.54,-31.65 1141.24,-28.59"/>
<polygon fill="midnightblue" stroke="midnightblue" points="1812.4,-92.32 1822.87,-90.7 1813.68,-85.43 1812.4,-92.32"/>
</g>
<!-- Node16 -->
<g id="node16" class="node">
<title>Node16</title>
<g id="a_node16"><a xlink:href="service__discovery_2src_2runtime__impl_8cpp.html" target="_top" xlink:title=" ">
<polygon fill="white" stroke="black" points="1829.01,-0.5 1829.01,-52.5 1972.01,-52.5 1972.01,-0.5 1829.01,-0.5"/>
<text text-anchor="start" x="1837.01" y="-40.5" font-family="Helvetica,sans-Serif" font-size="10.00">/home/kali/projects</text>
<text text-anchor="start" x="1837.01" y="-29.5" font-family="Helvetica,sans-Serif" font-size="10.00">/vsomeip/implementation</text>
<text text-anchor="start" x="1837.01" y="-18.5" font-family="Helvetica,sans-Serif" font-size="10.00">/service_discovery/src</text>
<text text-anchor="middle" x="1900.51" y="-7.5" font-family="Helvetica,sans-Serif" font-size="10.00">/runtime_impl.cpp</text>
</a>
</g>
</g>
<!-- Node15&#45;&gt;Node16 -->
<g id="edge18" class="edge">
<title>Node15&#45;&gt;Node16</title>
<path fill="none" stroke="midnightblue" d="M1900.51,-79.19C1900.51,-70.28 1900.51,-60.9 1900.51,-52.61"/>
<polygon fill="midnightblue" stroke="midnightblue" points="1897.01,-79.34 1900.51,-89.34 1904.01,-79.34 1897.01,-79.34"/>
</g>
<!-- Node18&#45;&gt;Node4 -->
<g id="edge26" class="edge">
<title>Node18&#45;&gt;Node4</title>
<path fill="none" stroke="midnightblue" d="M1667.56,-177.9C1572.1,-155.77 1545.07,-159.46 1452.51,-142 1437.32,-139.14 1421.11,-135.86 1405.64,-132.64"/>
<polygon fill="midnightblue" stroke="midnightblue" points="1666.8,-181.32 1677.33,-180.2 1668.4,-174.5 1666.8,-181.32"/>
</g>
<!-- Node18&#45;&gt;Node5 -->
<g id="edge28" class="edge">
<title>Node18&#45;&gt;Node5</title>
<path fill="none" stroke="midnightblue" d="M1667.39,-177.99C1410.07,-131.78 1339.13,-164.8 1082.51,-142 1033.33,-137.63 978.1,-131.19 935.42,-125.87"/>
<polygon fill="midnightblue" stroke="midnightblue" points="1666.95,-181.47 1677.41,-179.81 1668.2,-174.58 1666.95,-181.47"/>
</g>
<!-- Node18&#45;&gt;Node6 -->
<g id="edge29" class="edge">
<title>Node18&#45;&gt;Node6</title>
<path fill="none" stroke="midnightblue" d="M1694.39,-172.88C1680.29,-163.88 1665.71,-153.38 1653.51,-142 1632.13,-122.05 1639.84,-103.63 1614.51,-89 1535.8,-43.54 1273.31,-31.68 1141.06,-28.59"/>
<polygon fill="midnightblue" stroke="midnightblue" points="1692.75,-175.97 1703.09,-178.27 1696.44,-170.03 1692.75,-175.97"/>
</g>
<!-- Node18&#45;&gt;Node15 -->
<g id="edge25" class="edge">
<title>Node18&#45;&gt;Node15</title>
<path fill="none" stroke="midnightblue" d="M1802.98,-173.07C1820.71,-162.79 1840.29,-151.43 1857.22,-141.61"/>
<polygon fill="midnightblue" stroke="midnightblue" points="1800.79,-170.29 1793.9,-178.34 1804.31,-176.35 1800.79,-170.29"/>
</g>
<!-- Node19 -->
<g id="node19" class="node">
<title>Node19</title>
<g id="a_node19"><a xlink:href="ipv6__option__impl_8cpp.html" target="_top" xlink:title=" ">
<polygon fill="white" stroke="black" points="1662.01,-89.5 1662.01,-141.5 1805.01,-141.5 1805.01,-89.5 1662.01,-89.5"/>
<text text-anchor="start" x="1670.01" y="-129.5" font-family="Helvetica,sans-Serif" font-size="10.00">/home/kali/projects</text>
<text text-anchor="start" x="1670.01" y="-118.5" font-family="Helvetica,sans-Serif" font-size="10.00">/vsomeip/implementation</text>
<text text-anchor="start" x="1670.01" y="-107.5" font-family="Helvetica,sans-Serif" font-size="10.00">/service_discovery/src</text>
<text text-anchor="middle" x="1733.51" y="-96.5" font-family="Helvetica,sans-Serif" font-size="10.00">/ipv6_option_impl.cpp</text>
</a>
</g>
</g>
<!-- Node18&#45;&gt;Node19 -->
<g id="edge27" class="edge">
<title>Node18&#45;&gt;Node19</title>
<path fill="none" stroke="midnightblue" d="M1743.67,-168.48C1741.91,-159.49 1740.06,-149.99 1738.42,-141.61"/>
<polygon fill="midnightblue" stroke="midnightblue" points="1740.24,-169.19 1745.6,-178.34 1747.11,-167.85 1740.24,-169.19"/>
</g>
<!-- Node21&#45;&gt;Node5 -->
<g id="edge34" class="edge">
<title>Node21&#45;&gt;Node5</title>
<path fill="none" stroke="midnightblue" d="M706.01,-258.79C721.76,-234.58 745.06,-202.11 770.51,-178 784.85,-164.42 802.52,-151.9 818.6,-141.75"/>
<polygon fill="midnightblue" stroke="midnightblue" points="703.01,-256.99 700.57,-267.3 708.9,-260.76 703.01,-256.99"/>
</g>
<!-- Node22 -->
<g id="node22" class="node">
<title>Node22</title>
<g id="a_node22"><a xlink:href="load__balancing__option__impl_8cpp.html" target="_top" xlink:title=" ">
<polygon fill="white" stroke="black" points="522.51,-178.5 522.51,-230.5 698.51,-230.5 698.51,-178.5 522.51,-178.5"/>
<text text-anchor="start" x="530.51" y="-218.5" font-family="Helvetica,sans-Serif" font-size="10.00">/home/kali/projects</text>
<text text-anchor="start" x="530.51" y="-207.5" font-family="Helvetica,sans-Serif" font-size="10.00">/vsomeip/implementation</text>
<text text-anchor="start" x="530.51" y="-196.5" font-family="Helvetica,sans-Serif" font-size="10.00">/service_discovery/src</text>
<text text-anchor="middle" x="610.51" y="-185.5" font-family="Helvetica,sans-Serif" font-size="10.00">/load_balancing_option_impl.cpp</text>
</a>
</g>
</g>
<!-- Node21&#45;&gt;Node22 -->
<g id="edge33" class="edge">
<title>Node21&#45;&gt;Node22</title>
<path fill="none" stroke="midnightblue" d="M657.07,-259.5C648.81,-249.92 639.93,-239.62 632.16,-230.61"/>
<polygon fill="midnightblue" stroke="midnightblue" points="654.64,-262.05 663.82,-267.34 659.94,-257.48 654.64,-262.05"/>
</g>
<!-- Node23&#45;&gt;Node5 -->
<g id="edge36" class="edge">
<title>Node23&#45;&gt;Node5</title>
<path fill="none" stroke="midnightblue" d="M1112.31,-261.41C1122.87,-253.02 1132.44,-242.89 1138.51,-231 1149.23,-210.02 1153.24,-196.38 1138.51,-178 1125.72,-162.04 1012.27,-140.68 935.14,-127.79"/>
<polygon fill="midnightblue" stroke="midnightblue" points="1110.05,-258.73 1104.09,-267.49 1114.21,-264.36 1110.05,-258.73"/>
</g>
<!-- Node24 -->
<g id="node24" class="node">
<title>Node24</title>
<g id="a_node24"><a xlink:href="protection__option__impl_8cpp.html" target="_top" xlink:title=" ">
<polygon fill="white" stroke="black" points="977.51,-178.5 977.51,-230.5 1129.51,-230.5 1129.51,-178.5 977.51,-178.5"/>
<text text-anchor="start" x="985.51" y="-218.5" font-family="Helvetica,sans-Serif" font-size="10.00">/home/kali/projects</text>
<text text-anchor="start" x="985.51" y="-207.5" font-family="Helvetica,sans-Serif" font-size="10.00">/vsomeip/implementation</text>
<text text-anchor="start" x="985.51" y="-196.5" font-family="Helvetica,sans-Serif" font-size="10.00">/service_discovery/src</text>
<text text-anchor="middle" x="1053.51" y="-185.5" font-family="Helvetica,sans-Serif" font-size="10.00">/protection_option_impl.cpp</text>
</a>
</g>
</g>
<!-- Node23&#45;&gt;Node24 -->
<g id="edge37" class="edge">
<title>Node23&#45;&gt;Node24</title>
<path fill="none" stroke="midnightblue" d="M1053.51,-257.19C1053.51,-248.28 1053.51,-238.9 1053.51,-230.61"/>
<polygon fill="midnightblue" stroke="midnightblue" points="1050.01,-257.34 1053.51,-267.34 1057.01,-257.34 1050.01,-257.34"/>
</g>
<!-- Node25&#45;&gt;Node4 -->
<g id="edge39" class="edge">
<title>Node25&#45;&gt;Node4</title>
<path fill="none" stroke="midnightblue" d="M1286.82,-170.5C1294.75,-160.92 1303.28,-150.62 1310.74,-141.61"/>
<polygon fill="midnightblue" stroke="midnightblue" points="1284.02,-168.4 1280.34,-178.34 1289.41,-172.86 1284.02,-168.4"/>
</g>
<!-- Node25&#45;&gt;Node5 -->
<g id="edge40" class="edge">
<title>Node25&#45;&gt;Node5</title>
<path fill="none" stroke="midnightblue" d="M1175.32,-178.94C1174.04,-178.62 1172.77,-178.31 1171.51,-178 1091.13,-158.37 997.82,-140.4 935.15,-129.02"/>
<polygon fill="midnightblue" stroke="midnightblue" points="1174.66,-182.39 1185.22,-181.49 1176.4,-175.61 1174.66,-182.39"/>
</g>
<!-- Node25&#45;&gt;Node6 -->
<g id="edge42" class="edge">
<title>Node25&#45;&gt;Node6</title>
<path fill="none" stroke="midnightblue" d="M1175.45,-183.1C1136.2,-171.89 1095.32,-157.19 1082.51,-142 1061.6,-117.2 1059.48,-78.3 1060.78,-52.85"/>
<polygon fill="midnightblue" stroke="midnightblue" points="1174.8,-186.55 1185.38,-185.88 1176.69,-179.81 1174.8,-186.55"/>
</g>
<!-- Node26 -->
<g id="node26" class="node">
<title>Node26</title>
<g id="a_node26"><a xlink:href="selective__option__impl_8cpp.html" target="_top" xlink:title=" ">
<polygon fill="white" stroke="black" points="1092.01,-89.5 1092.01,-141.5 1239.01,-141.5 1239.01,-89.5 1092.01,-89.5"/>
<text text-anchor="start" x="1100.01" y="-129.5" font-family="Helvetica,sans-Serif" font-size="10.00">/home/kali/projects</text>
<text text-anchor="start" x="1100.01" y="-118.5" font-family="Helvetica,sans-Serif" font-size="10.00">/vsomeip/implementation</text>
<text text-anchor="start" x="1100.01" y="-107.5" font-family="Helvetica,sans-Serif" font-size="10.00">/service_discovery/src</text>
<text text-anchor="middle" x="1165.51" y="-96.5" font-family="Helvetica,sans-Serif" font-size="10.00">/selective_option_impl.cpp</text>
</a>
</g>
</g>
<!-- Node25&#45;&gt;Node26 -->
<g id="edge41" class="edge">
<title>Node25&#45;&gt;Node26</title>
<path fill="none" stroke="midnightblue" d="M1224.79,-171.36C1214.18,-161.54 1202.67,-150.89 1192.64,-141.61"/>
<polygon fill="midnightblue" stroke="midnightblue" points="1222.61,-174.11 1232.32,-178.34 1227.36,-168.97 1222.61,-174.11"/>
</g>
</g>
</svg>
