<?xml version="1.0" encoding="UTF-8" standalone="no"?>
<!DOCTYPE svg PUBLIC "-//W3C//DTD SVG 1.1//EN"
 "http://www.w3.org/Graphics/SVG/1.1/DTD/svg11.dtd">
<!-- Generated by graphviz version 2.43.0 (0)
 -->
<!-- Title: /home/kali/projects/vsomeip/implementation/service_discovery/include/primitive_types.hpp Pages: 1 -->
<svg width="1387pt" height="328pt"
 viewBox="0.00 0.00 1387.00 328.00" xmlns="http://www.w3.org/2000/svg" xmlns:xlink="http://www.w3.org/1999/xlink">
<g id="graph0" class="graph" transform="scale(1 1) rotate(0) translate(4 324)">
<title>/home/kali/projects/vsomeip/implementation/service_discovery/include/primitive_types.hpp</title>
<polygon fill="white" stroke="transparent" points="-4,4 -4,-324 1383,-324 1383,4 -4,4"/>
<!-- Node1 -->
<g id="node1" class="node">
<title>Node1</title>
<g id="a_node1"><a xlink:title=" ">
<polygon fill="#bfbfbf" stroke="black" points="625,-267.5 625,-319.5 771,-319.5 771,-267.5 625,-267.5"/>
<text text-anchor="start" x="633" y="-307.5" font-family="Helvetica,sans-Serif" font-size="10.00">/home/kali/projects</text>
<text text-anchor="start" x="633" y="-296.5" font-family="Helvetica,sans-Serif" font-size="10.00">/vsomeip/implementation</text>
<text text-anchor="start" x="633" y="-285.5" font-family="Helvetica,sans-Serif" font-size="10.00">/service_discovery/include</text>
<text text-anchor="middle" x="698" y="-274.5" font-family="Helvetica,sans-Serif" font-size="10.00">/primitive_types.hpp</text>
</a>
</g>
</g>
<!-- Node2 -->
<g id="node2" class="node">
<title>Node2</title>
<g id="a_node2"><a xlink:href="load__balancing__option__impl_8hpp.html" target="_top" xlink:title=" ">
<polygon fill="white" stroke="black" points="429.5,-178.5 429.5,-230.5 606.5,-230.5 606.5,-178.5 429.5,-178.5"/>
<text text-anchor="start" x="437.5" y="-218.5" font-family="Helvetica,sans-Serif" font-size="10.00">/home/kali/projects</text>
<text text-anchor="start" x="437.5" y="-207.5" font-family="Helvetica,sans-Serif" font-size="10.00">/vsomeip/implementation</text>
<text text-anchor="start" x="437.5" y="-196.5" font-family="Helvetica,sans-Serif" font-size="10.00">/service_discovery/include</text>
<text text-anchor="middle" x="518" y="-185.5" font-family="Helvetica,sans-Serif" font-size="10.00">/load_balancing_option_impl.hpp</text>
</a>
</g>
</g>
<!-- Node1&#45;&gt;Node2 -->
<g id="edge1" class="edge">
<title>Node1&#45;&gt;Node2</title>
<path fill="none" stroke="midnightblue" d="M636.79,-262.92C615.06,-252.41 590.83,-240.7 569.95,-230.61"/>
<polygon fill="midnightblue" stroke="midnightblue" points="635.41,-266.14 645.94,-267.34 638.46,-259.83 635.41,-266.14"/>
</g>
<!-- Node5 -->
<g id="node5" class="node">
<title>Node5</title>
<g id="a_node5"><a xlink:href="service__discovery_2include_2message__impl_8hpp.html" target="_top" xlink:title=" ">
<polygon fill="white" stroke="black" points="625,-178.5 625,-230.5 771,-230.5 771,-178.5 625,-178.5"/>
<text text-anchor="start" x="633" y="-218.5" font-family="Helvetica,sans-Serif" font-size="10.00">/home/kali/projects</text>
<text text-anchor="start" x="633" y="-207.5" font-family="Helvetica,sans-Serif" font-size="10.00">/vsomeip/implementation</text>
<text text-anchor="start" x="633" y="-196.5" font-family="Helvetica,sans-Serif" font-size="10.00">/service_discovery/include</text>
<text text-anchor="middle" x="698" y="-185.5" font-family="Helvetica,sans-Serif" font-size="10.00">/message_impl.hpp</text>
</a>
</g>
</g>
<!-- Node1&#45;&gt;Node5 -->
<g id="edge4" class="edge">
<title>Node1&#45;&gt;Node5</title>
<path fill="none" stroke="midnightblue" d="M698,-257.19C698,-248.28 698,-238.9 698,-230.61"/>
<polygon fill="midnightblue" stroke="midnightblue" points="694.5,-257.34 698,-267.34 701.5,-257.34 694.5,-257.34"/>
</g>
<!-- Node14 -->
<g id="node14" class="node">
<title>Node14</title>
<g id="a_node14"><a xlink:href="protection__option__impl_8hpp.html" target="_top" xlink:title=" ">
<polygon fill="white" stroke="black" points="1122.5,-178.5 1122.5,-230.5 1275.5,-230.5 1275.5,-178.5 1122.5,-178.5"/>
<text text-anchor="start" x="1130.5" y="-218.5" font-family="Helvetica,sans-Serif" font-size="10.00">/home/kali/projects</text>
<text text-anchor="start" x="1130.5" y="-207.5" font-family="Helvetica,sans-Serif" font-size="10.00">/vsomeip/implementation</text>
<text text-anchor="start" x="1130.5" y="-196.5" font-family="Helvetica,sans-Serif" font-size="10.00">/service_discovery/include</text>
<text text-anchor="middle" x="1199" y="-185.5" font-family="Helvetica,sans-Serif" font-size="10.00">/protection_option_impl.hpp</text>
</a>
</g>
</g>
<!-- Node1&#45;&gt;Node14 -->
<g id="edge18" class="edge">
<title>Node1&#45;&gt;Node14</title>
<path fill="none" stroke="midnightblue" d="M780.97,-278.09C875.95,-261.6 1030.25,-234.8 1122.45,-218.79"/>
<polygon fill="midnightblue" stroke="midnightblue" points="780.37,-274.64 771.12,-279.8 781.57,-281.54 780.37,-274.64"/>
</g>
<!-- Node3 -->
<g id="node3" class="node">
<title>Node3</title>
<g id="a_node3"><a xlink:href="load__balancing__option__impl_8cpp.html" target="_top" xlink:title=" ">
<polygon fill="white" stroke="black" points="0,-89.5 0,-141.5 176,-141.5 176,-89.5 0,-89.5"/>
<text text-anchor="start" x="8" y="-129.5" font-family="Helvetica,sans-Serif" font-size="10.00">/home/kali/projects</text>
<text text-anchor="start" x="8" y="-118.5" font-family="Helvetica,sans-Serif" font-size="10.00">/vsomeip/implementation</text>
<text text-anchor="start" x="8" y="-107.5" font-family="Helvetica,sans-Serif" font-size="10.00">/service_discovery/src</text>
<text text-anchor="middle" x="88" y="-96.5" font-family="Helvetica,sans-Serif" font-size="10.00">/load_balancing_option_impl.cpp</text>
</a>
</g>
</g>
<!-- Node2&#45;&gt;Node3 -->
<g id="edge2" class="edge">
<title>Node2&#45;&gt;Node3</title>
<path fill="none" stroke="midnightblue" d="M419.44,-186.6C354.15,-175.02 266.72,-158.77 190,-142 185.45,-141.01 180.8,-139.96 176.11,-138.87"/>
<polygon fill="midnightblue" stroke="midnightblue" points="418.85,-190.05 429.31,-188.35 420.07,-183.16 418.85,-190.05"/>
</g>
<!-- Node4 -->
<g id="node4" class="node">
<title>Node4</title>
<g id="a_node4"><a xlink:href="service__discovery_2src_2message__impl_8cpp.html" target="_top" xlink:title=" ">
<polygon fill="white" stroke="black" points="973.5,-0.5 973.5,-52.5 1116.5,-52.5 1116.5,-0.5 973.5,-0.5"/>
<text text-anchor="start" x="981.5" y="-40.5" font-family="Helvetica,sans-Serif" font-size="10.00">/home/kali/projects</text>
<text text-anchor="start" x="981.5" y="-29.5" font-family="Helvetica,sans-Serif" font-size="10.00">/vsomeip/implementation</text>
<text text-anchor="start" x="981.5" y="-18.5" font-family="Helvetica,sans-Serif" font-size="10.00">/service_discovery/src</text>
<text text-anchor="middle" x="1045" y="-7.5" font-family="Helvetica,sans-Serif" font-size="10.00">/message_impl.cpp</text>
</a>
</g>
</g>
<!-- Node2&#45;&gt;Node4 -->
<g id="edge3" class="edge">
<title>Node2&#45;&gt;Node4</title>
<path fill="none" stroke="midnightblue" d="M616.51,-178.05C691.46,-162.3 720.86,-181.55 781,-142 805.22,-126.07 795.2,-105.54 819,-89 864.67,-57.27 926.03,-41.89 973.3,-34.45"/>
<polygon fill="midnightblue" stroke="midnightblue" points="615.62,-174.66 606.63,-180.27 617.16,-181.49 615.62,-174.66"/>
</g>
<!-- Node5&#45;&gt;Node4 -->
<g id="edge14" class="edge">
<title>Node5&#45;&gt;Node4</title>
<path fill="none" stroke="midnightblue" d="M781.56,-204.38C896.75,-203.61 1095.34,-194.44 1141,-142 1156.47,-124.24 1152.3,-109.67 1141,-89 1132.69,-73.81 1118.84,-61.81 1104.22,-52.61"/>
<polygon fill="midnightblue" stroke="midnightblue" points="781.34,-200.88 771.36,-204.43 781.38,-207.88 781.34,-200.88"/>
</g>
<!-- Node6 -->
<g id="node6" class="node">
<title>Node6</title>
<g id="a_node6"><a xlink:href="eventgroupentry__impl_8hpp.html" target="_top" xlink:title=" ">
<polygon fill="white" stroke="black" points="623.5,-89.5 623.5,-141.5 772.5,-141.5 772.5,-89.5 623.5,-89.5"/>
<text text-anchor="start" x="631.5" y="-129.5" font-family="Helvetica,sans-Serif" font-size="10.00">/home/kali/projects</text>
<text text-anchor="start" x="631.5" y="-118.5" font-family="Helvetica,sans-Serif" font-size="10.00">/vsomeip/implementation</text>
<text text-anchor="start" x="631.5" y="-107.5" font-family="Helvetica,sans-Serif" font-size="10.00">/service_discovery/include</text>
<text text-anchor="middle" x="698" y="-96.5" font-family="Helvetica,sans-Serif" font-size="10.00">/eventgroupentry_impl.hpp</text>
</a>
</g>
</g>
<!-- Node5&#45;&gt;Node6 -->
<g id="edge5" class="edge">
<title>Node5&#45;&gt;Node6</title>
<path fill="none" stroke="midnightblue" d="M698,-168.19C698,-159.28 698,-149.9 698,-141.61"/>
<polygon fill="midnightblue" stroke="midnightblue" points="694.5,-168.34 698,-178.34 701.5,-168.34 694.5,-168.34"/>
</g>
<!-- Node8 -->
<g id="node8" class="node">
<title>Node8</title>
<g id="a_node8"><a xlink:href="service__discovery__impl_8cpp.html" target="_top" xlink:title=" ">
<polygon fill="white" stroke="black" points="484.5,-0.5 484.5,-52.5 639.5,-52.5 639.5,-0.5 484.5,-0.5"/>
<text text-anchor="start" x="492.5" y="-40.5" font-family="Helvetica,sans-Serif" font-size="10.00">/home/kali/projects</text>
<text text-anchor="start" x="492.5" y="-29.5" font-family="Helvetica,sans-Serif" font-size="10.00">/vsomeip/implementation</text>
<text text-anchor="start" x="492.5" y="-18.5" font-family="Helvetica,sans-Serif" font-size="10.00">/service_discovery/src</text>
<text text-anchor="middle" x="562" y="-7.5" font-family="Helvetica,sans-Serif" font-size="10.00">/service_discovery_impl.cpp</text>
</a>
</g>
</g>
<!-- Node5&#45;&gt;Node8 -->
<g id="edge17" class="edge">
<title>Node5&#45;&gt;Node8</title>
<path fill="none" stroke="midnightblue" d="M646.96,-172.58C635.11,-163.75 623.26,-153.4 614,-142 592.1,-115.06 577.35,-77.42 569.31,-52.76"/>
<polygon fill="midnightblue" stroke="midnightblue" points="644.97,-175.46 655.14,-178.44 649.05,-169.77 644.97,-175.46"/>
</g>
<!-- Node9 -->
<g id="node9" class="node">
<title>Node9</title>
<g id="a_node9"><a xlink:href="service__discovery__impl_8hpp.html" target="_top" xlink:title=" ">
<polygon fill="white" stroke="black" points="232.5,-89.5 232.5,-141.5 387.5,-141.5 387.5,-89.5 232.5,-89.5"/>
<text text-anchor="start" x="240.5" y="-129.5" font-family="Helvetica,sans-Serif" font-size="10.00">/home/kali/projects</text>
<text text-anchor="start" x="240.5" y="-118.5" font-family="Helvetica,sans-Serif" font-size="10.00">/vsomeip/implementation</text>
<text text-anchor="start" x="240.5" y="-107.5" font-family="Helvetica,sans-Serif" font-size="10.00">/service_discovery/include</text>
<text text-anchor="middle" x="310" y="-96.5" font-family="Helvetica,sans-Serif" font-size="10.00">/service_discovery_impl.hpp</text>
</a>
</g>
</g>
<!-- Node5&#45;&gt;Node9 -->
<g id="edge9" class="edge">
<title>Node5&#45;&gt;Node9</title>
<path fill="none" stroke="midnightblue" d="M615.3,-178.07C615.2,-178.05 615.1,-178.02 615,-178 519.4,-155.53 492.74,-163.85 397,-142 393.93,-141.3 390.81,-140.55 387.67,-139.77"/>
<polygon fill="midnightblue" stroke="midnightblue" points="614.28,-181.42 624.83,-180.43 615.96,-174.63 614.28,-181.42"/>
</g>
<!-- Node10 -->
<g id="node10" class="node">
<title>Node10</title>
<g id="a_node10"><a xlink:href="service__discovery_2src_2runtime__impl_8cpp.html" target="_top" xlink:title=" ">
<polygon fill="white" stroke="black" points="185.5,-0.5 185.5,-52.5 328.5,-52.5 328.5,-0.5 185.5,-0.5"/>
<text text-anchor="start" x="193.5" y="-40.5" font-family="Helvetica,sans-Serif" font-size="10.00">/home/kali/projects</text>
<text text-anchor="start" x="193.5" y="-29.5" font-family="Helvetica,sans-Serif" font-size="10.00">/vsomeip/implementation</text>
<text text-anchor="start" x="193.5" y="-18.5" font-family="Helvetica,sans-Serif" font-size="10.00">/service_discovery/src</text>
<text text-anchor="middle" x="257" y="-7.5" font-family="Helvetica,sans-Serif" font-size="10.00">/runtime_impl.cpp</text>
</a>
</g>
</g>
<!-- Node5&#45;&gt;Node10 -->
<g id="edge16" class="edge">
<title>Node5&#45;&gt;Node10</title>
<path fill="none" stroke="midnightblue" d="M615.31,-178.06C615.2,-178.04 615.1,-178.02 615,-178 572.09,-169.53 252.48,-174.31 223,-142 200.5,-117.34 219.75,-78.41 237.13,-52.91"/>
<polygon fill="midnightblue" stroke="midnightblue" points="614.37,-181.44 624.89,-180.14 615.86,-174.6 614.37,-181.44"/>
</g>
<!-- Node11 -->
<g id="node11" class="node">
<title>Node11</title>
<g id="a_node11"><a xlink:href="service__discovery_2src_2deserializer_8cpp.html" target="_top" xlink:title=" ">
<polygon fill="white" stroke="black" points="828.5,-89.5 828.5,-141.5 971.5,-141.5 971.5,-89.5 828.5,-89.5"/>
<text text-anchor="start" x="836.5" y="-129.5" font-family="Helvetica,sans-Serif" font-size="10.00">/home/kali/projects</text>
<text text-anchor="start" x="836.5" y="-118.5" font-family="Helvetica,sans-Serif" font-size="10.00">/vsomeip/implementation</text>
<text text-anchor="start" x="836.5" y="-107.5" font-family="Helvetica,sans-Serif" font-size="10.00">/service_discovery/src</text>
<text text-anchor="middle" x="900" y="-96.5" font-family="Helvetica,sans-Serif" font-size="10.00">/deserializer.cpp</text>
</a>
</g>
</g>
<!-- Node5&#45;&gt;Node11 -->
<g id="edge12" class="edge">
<title>Node5&#45;&gt;Node11</title>
<path fill="none" stroke="midnightblue" d="M765.48,-174.44C790.24,-163.77 818.04,-151.8 841.91,-141.52"/>
<polygon fill="midnightblue" stroke="midnightblue" points="763.96,-171.28 756.16,-178.45 766.72,-177.71 763.96,-171.28"/>
</g>
<!-- Node12 -->
<g id="node12" class="node">
<title>Node12</title>
<g id="a_node12"><a xlink:href="entry__impl_8cpp.html" target="_top" xlink:title=" ">
<polygon fill="white" stroke="black" points="989.5,-89.5 989.5,-141.5 1132.5,-141.5 1132.5,-89.5 989.5,-89.5"/>
<text text-anchor="start" x="997.5" y="-129.5" font-family="Helvetica,sans-Serif" font-size="10.00">/home/kali/projects</text>
<text text-anchor="start" x="997.5" y="-118.5" font-family="Helvetica,sans-Serif" font-size="10.00">/vsomeip/implementation</text>
<text text-anchor="start" x="997.5" y="-107.5" font-family="Helvetica,sans-Serif" font-size="10.00">/service_discovery/src</text>
<text text-anchor="middle" x="1061" y="-96.5" font-family="Helvetica,sans-Serif" font-size="10.00">/entry_impl.cpp</text>
</a>
</g>
</g>
<!-- Node5&#45;&gt;Node12 -->
<g id="edge13" class="edge">
<title>Node5&#45;&gt;Node12</title>
<path fill="none" stroke="midnightblue" d="M781.12,-187.43C837.53,-176.02 913.64,-159.64 980,-142 982.99,-141.2 986.04,-140.37 989.11,-139.5"/>
<polygon fill="midnightblue" stroke="midnightblue" points="780.29,-184.02 771.18,-189.43 781.67,-190.89 780.29,-184.02"/>
</g>
<!-- Node13 -->
<g id="node13" class="node">
<title>Node13</title>
<g id="a_node13"><a xlink:href="remote__subscription__ack_8cpp.html" target="_top" xlink:title=" ">
<polygon fill="white" stroke="black" points="406,-89.5 406,-141.5 568,-141.5 568,-89.5 406,-89.5"/>
<text text-anchor="start" x="414" y="-129.5" font-family="Helvetica,sans-Serif" font-size="10.00">/home/kali/projects</text>
<text text-anchor="start" x="414" y="-118.5" font-family="Helvetica,sans-Serif" font-size="10.00">/vsomeip/implementation</text>
<text text-anchor="start" x="414" y="-107.5" font-family="Helvetica,sans-Serif" font-size="10.00">/service_discovery/src</text>
<text text-anchor="middle" x="487" y="-96.5" font-family="Helvetica,sans-Serif" font-size="10.00">/remote_subscription_ack.cpp</text>
</a>
</g>
</g>
<!-- Node5&#45;&gt;Node13 -->
<g id="edge15" class="edge">
<title>Node5&#45;&gt;Node13</title>
<path fill="none" stroke="midnightblue" d="M627.85,-174.58C601.9,-163.88 572.72,-151.85 547.68,-141.52"/>
<polygon fill="midnightblue" stroke="midnightblue" points="626.67,-177.88 637.25,-178.45 629.34,-171.41 626.67,-177.88"/>
</g>
<!-- Node6&#45;&gt;Node4 -->
<g id="edge7" class="edge">
<title>Node6&#45;&gt;Node4</title>
<path fill="none" stroke="midnightblue" d="M782.75,-89.86C783.84,-89.57 784.92,-89.28 786,-89 849.01,-72.4 921.18,-55.43 973.31,-43.53"/>
<polygon fill="midnightblue" stroke="midnightblue" points="781.56,-86.56 772.82,-92.55 783.39,-93.31 781.56,-86.56"/>
</g>
<!-- Node7 -->
<g id="node7" class="node">
<title>Node7</title>
<g id="a_node7"><a xlink:href="eventgroupentry__impl_8cpp.html" target="_top" xlink:title=" ">
<polygon fill="white" stroke="black" points="658,-0.5 658,-52.5 806,-52.5 806,-0.5 658,-0.5"/>
<text text-anchor="start" x="666" y="-40.5" font-family="Helvetica,sans-Serif" font-size="10.00">/home/kali/projects</text>
<text text-anchor="start" x="666" y="-29.5" font-family="Helvetica,sans-Serif" font-size="10.00">/vsomeip/implementation</text>
<text text-anchor="start" x="666" y="-18.5" font-family="Helvetica,sans-Serif" font-size="10.00">/service_discovery/src</text>
<text text-anchor="middle" x="732" y="-7.5" font-family="Helvetica,sans-Serif" font-size="10.00">/eventgroupentry_impl.cpp</text>
</a>
</g>
</g>
<!-- Node6&#45;&gt;Node7 -->
<g id="edge6" class="edge">
<title>Node6&#45;&gt;Node7</title>
<path fill="none" stroke="midnightblue" d="M711.57,-79.77C715.12,-70.69 718.88,-61.08 722.19,-52.61"/>
<polygon fill="midnightblue" stroke="midnightblue" points="708.21,-78.75 707.83,-89.34 714.73,-81.3 708.21,-78.75"/>
</g>
<!-- Node6&#45;&gt;Node8 -->
<g id="edge8" class="edge">
<title>Node6&#45;&gt;Node8</title>
<path fill="none" stroke="midnightblue" d="M649.99,-83.79C634.03,-73.58 616.46,-62.34 601.25,-52.61"/>
<polygon fill="midnightblue" stroke="midnightblue" points="648.35,-86.9 658.66,-89.34 652.13,-81 648.35,-86.9"/>
</g>
<!-- Node9&#45;&gt;Node8 -->
<g id="edge11" class="edge">
<title>Node9&#45;&gt;Node8</title>
<path fill="none" stroke="midnightblue" d="M392.15,-86.14C423.55,-75.3 459.09,-63.03 489.53,-52.52"/>
<polygon fill="midnightblue" stroke="midnightblue" points="390.86,-82.88 382.55,-89.45 393.15,-89.5 390.86,-82.88"/>
</g>
<!-- Node9&#45;&gt;Node10 -->
<g id="edge10" class="edge">
<title>Node9&#45;&gt;Node10</title>
<path fill="none" stroke="midnightblue" d="M289.37,-80.64C283.69,-71.31 277.62,-61.35 272.3,-52.61"/>
<polygon fill="midnightblue" stroke="midnightblue" points="286.48,-82.62 294.67,-89.34 292.46,-78.97 286.48,-82.62"/>
</g>
<!-- Node14&#45;&gt;Node4 -->
<g id="edge19" class="edge">
<title>Node14&#45;&gt;Node4</title>
<path fill="none" stroke="midnightblue" d="M1199.53,-168.03C1198.13,-143.48 1192.61,-111.33 1175,-89 1160.23,-70.28 1138.39,-56.97 1116.81,-47.63"/>
<polygon fill="midnightblue" stroke="midnightblue" points="1196.03,-168.17 1199.9,-178.04 1203.03,-167.91 1196.03,-168.17"/>
</g>
<!-- Node15 -->
<g id="node15" class="node">
<title>Node15</title>
<g id="a_node15"><a xlink:href="protection__option__impl_8cpp.html" target="_top" xlink:title=" ">
<polygon fill="white" stroke="black" points="1227,-89.5 1227,-141.5 1379,-141.5 1379,-89.5 1227,-89.5"/>
<text text-anchor="start" x="1235" y="-129.5" font-family="Helvetica,sans-Serif" font-size="10.00">/home/kali/projects</text>
<text text-anchor="start" x="1235" y="-118.5" font-family="Helvetica,sans-Serif" font-size="10.00">/vsomeip/implementation</text>
<text text-anchor="start" x="1235" y="-107.5" font-family="Helvetica,sans-Serif" font-size="10.00">/service_discovery/src</text>
<text text-anchor="middle" x="1303" y="-96.5" font-family="Helvetica,sans-Serif" font-size="10.00">/protection_option_impl.cpp</text>
</a>
</g>
</g>
<!-- Node14&#45;&gt;Node15 -->
<g id="edge20" class="edge">
<title>Node14&#45;&gt;Node15</title>
<path fill="none" stroke="midnightblue" d="M1237.07,-171.65C1248.91,-161.75 1261.78,-150.98 1272.99,-141.61"/>
<polygon fill="midnightblue" stroke="midnightblue" points="1234.51,-169.24 1229.08,-178.34 1239,-174.6 1234.51,-169.24"/>
</g>
</g>
</svg>
