<?xml version="1.0" encoding="UTF-8" standalone="no"?>
<!DOCTYPE svg PUBLIC "-//W3C//DTD SVG 1.1//EN"
 "http://www.w3.org/Graphics/SVG/1.1/DTD/svg11.dtd">
<!-- Generated by graphviz version 2.43.0 (0)
 -->
<!-- Title: /home/kali/projects/vsomeip/implementation/configuration/include/trace.hpp Pages: 1 -->
<svg width="420pt" height="117pt"
 viewBox="0.00 0.00 419.50 117.00" xmlns="http://www.w3.org/2000/svg" xmlns:xlink="http://www.w3.org/1999/xlink">
<g id="graph0" class="graph" transform="scale(1 1) rotate(0) translate(4 113)">
<title>/home/kali/projects/vsomeip/implementation/configuration/include/trace.hpp</title>
<polygon fill="white" stroke="transparent" points="-4,4 -4,-113 415.5,-113 415.5,4 -4,4"/>
<!-- Node1 -->
<g id="node1" class="node">
<title>Node1</title>
<g id="a_node1"><a xlink:title=" ">
<polygon fill="#bfbfbf" stroke="black" points="74.5,-56.5 74.5,-108.5 217.5,-108.5 217.5,-56.5 74.5,-56.5"/>
<text text-anchor="start" x="82.5" y="-96.5" font-family="Helvetica,sans-Serif" font-size="10.00">/home/kali/projects</text>
<text text-anchor="start" x="82.5" y="-85.5" font-family="Helvetica,sans-Serif" font-size="10.00">/vsomeip/implementation</text>
<text text-anchor="start" x="82.5" y="-74.5" font-family="Helvetica,sans-Serif" font-size="10.00">/configuration/include</text>
<text text-anchor="middle" x="146" y="-63.5" font-family="Helvetica,sans-Serif" font-size="10.00">/trace.hpp</text>
</a>
</g>
</g>
<!-- Node2 -->
<g id="node2" class="node">
<title>Node2</title>
<g id="a_node2"><a xlink:title=" ">
<polygon fill="white" stroke="#bfbfbf" points="0,-0.5 0,-19.5 44,-19.5 44,-0.5 0,-0.5"/>
<text text-anchor="middle" x="22" y="-7.5" font-family="Helvetica,sans-Serif" font-size="10.00">string</text>
</a>
</g>
</g>
<!-- Node1&#45;&gt;Node2 -->
<g id="edge1" class="edge">
<title>Node1&#45;&gt;Node2</title>
<path fill="none" stroke="midnightblue" d="M101.93,-56.45C83.14,-45.76 61.94,-33.71 46.1,-24.7"/>
<polygon fill="midnightblue" stroke="midnightblue" points="47.42,-21.43 37,-19.53 43.96,-27.51 47.42,-21.43"/>
</g>
<!-- Node3 -->
<g id="node3" class="node">
<title>Node3</title>
<g id="a_node3"><a xlink:title=" ">
<polygon fill="white" stroke="#bfbfbf" points="62.5,-0.5 62.5,-19.5 109.5,-19.5 109.5,-0.5 62.5,-0.5"/>
<text text-anchor="middle" x="86" y="-7.5" font-family="Helvetica,sans-Serif" font-size="10.00">vector</text>
</a>
</g>
</g>
<!-- Node1&#45;&gt;Node3 -->
<g id="edge2" class="edge">
<title>Node1&#45;&gt;Node3</title>
<path fill="none" stroke="midnightblue" d="M124.68,-56.45C116.49,-46.83 107.36,-36.1 100.03,-27.49"/>
<polygon fill="midnightblue" stroke="midnightblue" points="102.55,-25.04 93.4,-19.7 97.22,-29.58 102.55,-25.04"/>
</g>
<!-- Node4 -->
<g id="node4" class="node">
<title>Node4</title>
<g id="a_node4"><a xlink:title=" ">
<polygon fill="white" stroke="#bfbfbf" points="127.5,-0.5 127.5,-19.5 286.5,-19.5 286.5,-0.5 127.5,-0.5"/>
<text text-anchor="middle" x="207" y="-7.5" font-family="Helvetica,sans-Serif" font-size="10.00">vsomeip/primitive_types.hpp</text>
</a>
</g>
</g>
<!-- Node1&#45;&gt;Node4 -->
<g id="edge3" class="edge">
<title>Node1&#45;&gt;Node4</title>
<path fill="none" stroke="midnightblue" d="M167.68,-56.45C176,-46.83 185.28,-36.1 192.73,-27.49"/>
<polygon fill="midnightblue" stroke="midnightblue" points="195.58,-29.55 199.48,-19.7 190.29,-24.97 195.58,-29.55"/>
</g>
<!-- Node5 -->
<g id="node5" class="node">
<title>Node5</title>
<g id="a_node5"><a xlink:title=" ">
<polygon fill="white" stroke="#bfbfbf" points="304.5,-0.5 304.5,-19.5 411.5,-19.5 411.5,-0.5 304.5,-0.5"/>
<text text-anchor="middle" x="358" y="-7.5" font-family="Helvetica,sans-Serif" font-size="10.00">vsomeip/trace.hpp</text>
</a>
</g>
</g>
<!-- Node1&#45;&gt;Node5 -->
<g id="edge4" class="edge">
<title>Node1&#45;&gt;Node5</title>
<path fill="none" stroke="midnightblue" d="M217.77,-57.63C253.13,-45.88 294.17,-32.23 322.68,-22.75"/>
<polygon fill="midnightblue" stroke="midnightblue" points="323.83,-26.05 332.21,-19.58 321.62,-19.41 323.83,-26.05"/>
</g>
</g>
</svg>
