<?xml version="1.0" encoding="UTF-8" standalone="no"?>
<!DOCTYPE svg PUBLIC "-//W3C//DTD SVG 1.1//EN"
 "http://www.w3.org/Graphics/SVG/1.1/DTD/svg11.dtd">
<!-- Generated by graphviz version 2.43.0 (0)
 -->
<!-- Title: Graphical Class Hierarchy Pages: 1 -->
<svg width="311pt" height="66pt"
 viewBox="0.00 0.00 311.00 66.00" xmlns="http://www.w3.org/2000/svg" xmlns:xlink="http://www.w3.org/1999/xlink">
<g id="graph0" class="graph" transform="scale(1 1) rotate(0) translate(4 62)">
<title>Graphical Class Hierarchy</title>
<polygon fill="white" stroke="transparent" points="-4,4 -4,-62 307,-62 307,4 -4,4"/>
<!-- Node0 -->
<g id="node1" class="node">
<title>Node0</title>
<g id="a_node1"><a xlink:href="classvsomeip__v3_1_1runtime.html" target="_top" xlink:title="Singleton class containing all public resource management facilities of vsomeip.">
<polygon fill="white" stroke="black" points="0,-19.5 0,-38.5 120,-38.5 120,-19.5 0,-19.5"/>
<text text-anchor="middle" x="60" y="-26.5" font-family="Helvetica,sans-Serif" font-size="10.00">vsomeip_v3::runtime</text>
</a>
</g>
</g>
<!-- Node1 -->
<g id="node2" class="node">
<title>Node1</title>
<g id="a_node2"><a xlink:href="classvsomeip_1_1runtime__impl.html" target="_top" xlink:title=" ">
<polygon fill="white" stroke="black" points="164.5,-38.5 164.5,-57.5 294.5,-57.5 294.5,-38.5 164.5,-38.5"/>
<text text-anchor="middle" x="229.5" y="-45.5" font-family="Helvetica,sans-Serif" font-size="10.00">vsomeip::runtime_impl</text>
</a>
</g>
</g>
<!-- Node0&#45;&gt;Node1 -->
<g id="edge1" class="edge">
<title>Node0&#45;&gt;Node1</title>
<path fill="none" stroke="midnightblue" d="M130.27,-36.86C141.53,-38.13 153.15,-39.45 164.29,-40.72"/>
<polygon fill="midnightblue" stroke="midnightblue" points="130.39,-33.35 120.05,-35.7 129.6,-40.3 130.39,-33.35"/>
</g>
<!-- Node2 -->
<g id="node3" class="node">
<title>Node2</title>
<g id="a_node3"><a xlink:href="classvsomeip__v3_1_1runtime__impl.html" target="_top" xlink:title=" ">
<polygon fill="white" stroke="black" points="156,-0.5 156,-19.5 303,-19.5 303,-0.5 156,-0.5"/>
<text text-anchor="middle" x="229.5" y="-7.5" font-family="Helvetica,sans-Serif" font-size="10.00">vsomeip_v3::runtime_impl</text>
</a>
</g>
</g>
<!-- Node0&#45;&gt;Node2 -->
<g id="edge2" class="edge">
<title>Node0&#45;&gt;Node2</title>
<path fill="none" stroke="midnightblue" d="M130.25,-21.14C138.71,-20.18 147.38,-19.2 155.89,-18.24"/>
<polygon fill="midnightblue" stroke="midnightblue" points="129.6,-17.7 120.05,-22.3 130.39,-24.65 129.6,-17.7"/>
</g>
</g>
</svg>
