<?xml version="1.0" encoding="UTF-8" standalone="no"?>
<!DOCTYPE svg PUBLIC "-//W3C//DTD SVG 1.1//EN"
 "http://www.w3.org/Graphics/SVG/1.1/DTD/svg11.dtd">
<!-- Generated by graphviz version 2.43.0 (0)
 -->
<!-- Title: Graphical Class Hierarchy Pages: 1 -->
<svg width="625pt" height="448pt"
 viewBox="0.00 0.00 625.00 448.00" xmlns="http://www.w3.org/2000/svg" xmlns:xlink="http://www.w3.org/1999/xlink">
<g id="graph0" class="graph" transform="scale(1 1) rotate(0) translate(4 444)">
<title>Graphical Class Hierarchy</title>
<polygon fill="white" stroke="transparent" points="-4,4 -4,-444 621,-444 621,4 -4,4"/>
<!-- Node0 -->
<g id="node1" class="node">
<title>Node0</title>
<g id="a_node1"><a xlink:title=" ">
<polygon fill="white" stroke="#bfbfbf" points="27.5,-409.5 27.5,-428.5 119.5,-428.5 119.5,-409.5 27.5,-409.5"/>
<text text-anchor="middle" x="73.5" y="-416.5" font-family="Helvetica,sans-Serif" font-size="10.00">basic_io_object</text>
</a>
</g>
</g>
<!-- Node1 -->
<g id="node2" class="node">
<title>Node1</title>
<g id="a_node2"><a xlink:href="classboost_1_1asio_1_1basic__socket__acceptor__ext.html" target="_top" xlink:title="Provides the ability to accept new connections.">
<polygon fill="white" stroke="black" points="183,-398.5 183,-439.5 379,-439.5 379,-398.5 183,-398.5"/>
<text text-anchor="start" x="191" y="-427.5" font-family="Helvetica,sans-Serif" font-size="10.00">boost::asio::basic</text>
<text text-anchor="start" x="191" y="-416.5" font-family="Helvetica,sans-Serif" font-size="10.00">_socket_acceptor_ext</text>
<text text-anchor="middle" x="281" y="-405.5" font-family="Helvetica,sans-Serif" font-size="10.00">&lt; Protocol, SocketAcceptorService &gt;</text>
</a>
</g>
</g>
<!-- Node0&#45;&gt;Node1 -->
<g id="edge1" class="edge">
<title>Node0&#45;&gt;Node1</title>
<path fill="none" stroke="midnightblue" d="M130,-419C146.31,-419 164.65,-419 182.77,-419"/>
<polygon fill="midnightblue" stroke="midnightblue" points="129.6,-415.5 119.6,-419 129.6,-422.5 129.6,-415.5"/>
</g>
<!-- Node5 -->
<g id="node3" class="node">
<title>Node5</title>
<g id="a_node3"><a xlink:title=" ">
<polygon fill="white" stroke="#bfbfbf" points="241.5,-240.5 241.5,-259.5 320.5,-259.5 320.5,-240.5 241.5,-240.5"/>
<text text-anchor="middle" x="281" y="-247.5" font-family="Helvetica,sans-Serif" font-size="10.00">basic_socket</text>
</a>
</g>
</g>
<!-- Node4 -->
<g id="node4" class="node">
<title>Node4</title>
<g id="a_node4"><a xlink:href="classboost_1_1asio_1_1basic__datagram__socket__ext.html" target="_top" xlink:title="Provides datagram&#45;oriented socket functionality.">
<polygon fill="white" stroke="black" points="415,-278.5 415,-319.5 617,-319.5 617,-278.5 415,-278.5"/>
<text text-anchor="start" x="423" y="-307.5" font-family="Helvetica,sans-Serif" font-size="10.00">boost::asio::basic</text>
<text text-anchor="start" x="423" y="-296.5" font-family="Helvetica,sans-Serif" font-size="10.00">_datagram_socket_ext</text>
<text text-anchor="middle" x="516" y="-285.5" font-family="Helvetica,sans-Serif" font-size="10.00">&lt; Protocol, DatagramSocketService &gt;</text>
</a>
</g>
</g>
<!-- Node5&#45;&gt;Node4 -->
<g id="edge2" class="edge">
<title>Node5&#45;&gt;Node4</title>
<path fill="none" stroke="midnightblue" d="M330.64,-259.29C346.11,-262.31 363.29,-265.73 379,-269 393.32,-271.98 408.47,-275.23 423.25,-278.45"/>
<polygon fill="midnightblue" stroke="midnightblue" points="331.23,-255.84 320.75,-257.37 329.9,-262.71 331.23,-255.84"/>
</g>
<!-- Node6 -->
<g id="node5" class="node">
<title>Node6</title>
<g id="a_node5"><a xlink:href="classboost_1_1asio_1_1basic__stream__socket__ext.html" target="_top" xlink:title="Provides stream&#45;oriented socket functionality.">
<polygon fill="white" stroke="black" points="426,-60.5 426,-101.5 606,-101.5 606,-60.5 426,-60.5"/>
<text text-anchor="start" x="434" y="-89.5" font-family="Helvetica,sans-Serif" font-size="10.00">boost::asio::basic</text>
<text text-anchor="start" x="434" y="-78.5" font-family="Helvetica,sans-Serif" font-size="10.00">_stream_socket_ext&lt;</text>
<text text-anchor="middle" x="516" y="-67.5" font-family="Helvetica,sans-Serif" font-size="10.00"> Protocol, StreamSocketService &gt;</text>
</a>
</g>
</g>
<!-- Node5&#45;&gt;Node6 -->
<g id="edge3" class="edge">
<title>Node5&#45;&gt;Node6</title>
<path fill="none" stroke="midnightblue" d="M331.1,-246.57C347.14,-243.87 364.53,-239.16 379,-231 435.79,-198.95 481.68,-134.59 502.66,-101.57"/>
<polygon fill="midnightblue" stroke="midnightblue" points="330.19,-243.16 320.8,-248.07 331.2,-250.09 330.19,-243.16"/>
</g>
<!-- Node2 -->
<g id="node6" class="node">
<title>Node2</title>
<g id="a_node6"><a xlink:title=" ">
<polygon fill="white" stroke="#bfbfbf" points="0,-164 0,-194 147,-194 147,-164 0,-164"/>
<text text-anchor="start" x="8" y="-182" font-family="Helvetica,sans-Serif" font-size="10.00">BOOST_ASIO_SVC_ACCESS</text>
<text text-anchor="middle" x="73.5" y="-171" font-family="Helvetica,sans-Serif" font-size="10.00"> basic_io_object</text>
</a>
</g>
</g>
<!-- Node2&#45;&gt;Node1 -->
<g id="edge12" class="edge">
<title>Node2&#45;&gt;Node1</title>
<path fill="none" stroke="#8b1a1a" d="M143.72,-200.59C144.87,-201.67 145.96,-202.81 147,-204 201.95,-267.22 127.05,-326.67 183,-389 186.18,-392.54 189.77,-395.67 193.64,-398.43"/>
<polygon fill="#8b1a1a" stroke="#8b1a1a" points="145.51,-197.55 135.46,-194.2 141.23,-203.09 145.51,-197.55"/>
</g>
<!-- Node3 -->
<g id="node7" class="node">
<title>Node3</title>
<g id="a_node7"><a xlink:href="classboost_1_1asio_1_1basic__socket__ext.html" target="_top" xlink:title=" ">
<polygon fill="white" stroke="black" points="206.5,-338.5 206.5,-379.5 355.5,-379.5 355.5,-338.5 206.5,-338.5"/>
<text text-anchor="start" x="214.5" y="-367.5" font-family="Helvetica,sans-Serif" font-size="10.00">boost::asio::basic</text>
<text text-anchor="start" x="214.5" y="-356.5" font-family="Helvetica,sans-Serif" font-size="10.00">_socket_ext&lt; Protocol</text>
<text text-anchor="middle" x="281" y="-345.5" font-family="Helvetica,sans-Serif" font-size="10.00"> BOOST_ASIO_SVC_TARG &gt;</text>
</a>
</g>
</g>
<!-- Node2&#45;&gt;Node3 -->
<g id="edge4" class="edge">
<title>Node2&#45;&gt;Node3</title>
<path fill="none" stroke="#8b1a1a" d="M142.63,-199.9C144.16,-201.19 145.62,-202.55 147,-204 186.81,-245.92 142.52,-287.72 183,-329 189.54,-335.67 197.53,-340.86 206.09,-344.91"/>
<polygon fill="#8b1a1a" stroke="#8b1a1a" points="144.6,-197.01 134.41,-194.11 140.57,-202.73 144.6,-197.01"/>
</g>
<!-- Node9 -->
<g id="node8" class="node">
<title>Node9</title>
<g id="a_node8"><a xlink:href="classboost_1_1asio_1_1basic__socket__ext.html" target="_top" xlink:title=" ">
<polygon fill="white" stroke="black" points="217,-278.5 217,-319.5 345,-319.5 345,-278.5 217,-278.5"/>
<text text-anchor="start" x="225" y="-307.5" font-family="Helvetica,sans-Serif" font-size="10.00">boost::asio::basic</text>
<text text-anchor="start" x="225" y="-296.5" font-family="Helvetica,sans-Serif" font-size="10.00">_socket_ext&lt; Protocol,</text>
<text text-anchor="middle" x="281" y="-285.5" font-family="Helvetica,sans-Serif" font-size="10.00"> Executor &gt;</text>
</a>
</g>
</g>
<!-- Node2&#45;&gt;Node9 -->
<g id="edge6" class="edge">
<title>Node2&#45;&gt;Node9</title>
<path fill="none" stroke="#8b1a1a" d="M140.65,-199.27C142.87,-200.74 144.99,-202.31 147,-204 172.29,-225.24 157.37,-248.17 183,-269 192.85,-277 204.83,-282.88 216.97,-287.19"/>
<polygon fill="#8b1a1a" stroke="#8b1a1a" points="142.12,-196.08 131.72,-194.1 138.62,-202.14 142.12,-196.08"/>
</g>
<!-- Node7 -->
<g id="node9" class="node">
<title>Node7</title>
<g id="a_node9"><a xlink:href="classboost_1_1asio_1_1basic__socket__ext__local.html" target="_top" xlink:title=" ">
<polygon fill="white" stroke="black" points="204,-60.5 204,-101.5 358,-101.5 358,-60.5 204,-60.5"/>
<text text-anchor="start" x="212" y="-89.5" font-family="Helvetica,sans-Serif" font-size="10.00">boost::asio::basic</text>
<text text-anchor="start" x="212" y="-78.5" font-family="Helvetica,sans-Serif" font-size="10.00">_socket_ext_local&lt; Protocol</text>
<text text-anchor="middle" x="281" y="-67.5" font-family="Helvetica,sans-Serif" font-size="10.00"> BOOST_ASIO_SVC_TARG &gt;</text>
</a>
</g>
</g>
<!-- Node2&#45;&gt;Node7 -->
<g id="edge8" class="edge">
<title>Node2&#45;&gt;Node7</title>
<path fill="none" stroke="#8b1a1a" d="M103.43,-157.95C124.65,-143.26 154.58,-124.03 183,-111 190.45,-107.58 198.4,-104.42 206.41,-101.53"/>
<polygon fill="#8b1a1a" stroke="#8b1a1a" points="101.37,-155.13 95.19,-163.74 105.39,-160.86 101.37,-155.13"/>
</g>
<!-- Node10 -->
<g id="node10" class="node">
<title>Node10</title>
<g id="a_node10"><a xlink:href="classboost_1_1asio_1_1basic__socket__ext__local.html" target="_top" xlink:title=" ">
<polygon fill="white" stroke="black" points="202.5,-0.5 202.5,-41.5 359.5,-41.5 359.5,-0.5 202.5,-0.5"/>
<text text-anchor="start" x="210.5" y="-29.5" font-family="Helvetica,sans-Serif" font-size="10.00">boost::asio::basic</text>
<text text-anchor="start" x="210.5" y="-18.5" font-family="Helvetica,sans-Serif" font-size="10.00">_socket_ext_local&lt; Protocol,</text>
<text text-anchor="middle" x="281" y="-7.5" font-family="Helvetica,sans-Serif" font-size="10.00"> Executor &gt;</text>
</a>
</g>
</g>
<!-- Node2&#45;&gt;Node10 -->
<g id="edge10" class="edge">
<title>Node2&#45;&gt;Node10</title>
<path fill="none" stroke="#8b1a1a" d="M88.55,-155.34C106.81,-126.59 141.33,-78.53 183,-51 189.03,-47.02 195.62,-43.54 202.43,-40.51"/>
<polygon fill="#8b1a1a" stroke="#8b1a1a" points="85.51,-153.61 83.21,-163.95 91.46,-157.3 85.51,-153.61"/>
</g>
<!-- Node11 -->
<g id="node11" class="node">
<title>Node11</title>
<g id="a_node11"><a xlink:href="classboost_1_1asio_1_1basic__socket__ext.html" target="_top" xlink:title="Provides socket functionality.">
<polygon fill="white" stroke="black" points="207,-180.5 207,-221.5 355,-221.5 355,-180.5 207,-180.5"/>
<text text-anchor="start" x="215" y="-209.5" font-family="Helvetica,sans-Serif" font-size="10.00">boost::asio::basic</text>
<text text-anchor="start" x="215" y="-198.5" font-family="Helvetica,sans-Serif" font-size="10.00">_socket_ext&lt; BOOST_ASIO</text>
<text text-anchor="middle" x="281" y="-187.5" font-family="Helvetica,sans-Serif" font-size="10.00">_SVC_TPARAM &gt;</text>
</a>
</g>
</g>
<!-- Node2&#45;&gt;Node11 -->
<g id="edge13" class="edge">
<title>Node2&#45;&gt;Node11</title>
<path fill="none" stroke="#8b1a1a" d="M157.3,-187.86C173.64,-189.61 190.67,-191.44 206.66,-193.15"/>
<polygon fill="#8b1a1a" stroke="#8b1a1a" points="157.56,-184.37 147.24,-186.79 156.81,-191.33 157.56,-184.37"/>
</g>
<!-- Node12 -->
<g id="node12" class="node">
<title>Node12</title>
<g id="a_node12"><a xlink:href="classboost_1_1asio_1_1basic__socket__ext__local.html" target="_top" xlink:title="Provides socket functionality.">
<polygon fill="white" stroke="black" points="207,-120.5 207,-161.5 355,-161.5 355,-120.5 207,-120.5"/>
<text text-anchor="start" x="215" y="-149.5" font-family="Helvetica,sans-Serif" font-size="10.00">boost::asio::basic</text>
<text text-anchor="start" x="215" y="-138.5" font-family="Helvetica,sans-Serif" font-size="10.00">_socket_ext_local&lt; BOOST</text>
<text text-anchor="middle" x="281" y="-127.5" font-family="Helvetica,sans-Serif" font-size="10.00">_ASIO_SVC_TPARAM &gt;</text>
</a>
</g>
</g>
<!-- Node2&#45;&gt;Node12 -->
<g id="edge14" class="edge">
<title>Node2&#45;&gt;Node12</title>
<path fill="none" stroke="#8b1a1a" d="M157.3,-163.69C173.64,-160.67 190.67,-157.52 206.66,-154.56"/>
<polygon fill="#8b1a1a" stroke="#8b1a1a" points="156.44,-160.29 147.24,-165.55 157.71,-167.17 156.44,-160.29"/>
</g>
<!-- Node3&#45;&gt;Node4 -->
<g id="edge5" class="edge">
<title>Node3&#45;&gt;Node4</title>
<path fill="none" stroke="midnightblue" d="M365.66,-337.46C388.35,-331.61 412.84,-325.31 435.3,-319.52"/>
<polygon fill="midnightblue" stroke="midnightblue" points="364.53,-334.13 355.72,-340.02 366.28,-340.91 364.53,-334.13"/>
</g>
<!-- Node9&#45;&gt;Node4 -->
<g id="edge7" class="edge">
<title>Node9&#45;&gt;Node4</title>
<path fill="none" stroke="midnightblue" d="M355.31,-299C374.12,-299 394.68,-299 414.6,-299"/>
<polygon fill="midnightblue" stroke="midnightblue" points="355.05,-295.5 345.05,-299 355.05,-302.5 355.05,-295.5"/>
</g>
<!-- Node7&#45;&gt;Node6 -->
<g id="edge9" class="edge">
<title>Node7&#45;&gt;Node6</title>
<path fill="none" stroke="midnightblue" d="M368.31,-81C387.13,-81 407.07,-81 425.98,-81"/>
<polygon fill="midnightblue" stroke="midnightblue" points="368.29,-77.5 358.29,-81 368.29,-84.5 368.29,-77.5"/>
</g>
<!-- Node10&#45;&gt;Node6 -->
<g id="edge11" class="edge">
<title>Node10&#45;&gt;Node6</title>
<path fill="none" stroke="midnightblue" d="M369.41,-43.51C391.05,-49.08 414.12,-55.02 435.36,-60.49"/>
<polygon fill="midnightblue" stroke="midnightblue" points="370.14,-40.08 359.59,-40.98 368.4,-46.86 370.14,-40.08"/>
</g>
<!-- Node8 -->
<g id="node13" class="node">
<title>Node8</title>
<g id="a_node13"><a xlink:title=" ">
<polygon fill="white" stroke="#bfbfbf" points="35,-213.5 35,-232.5 112,-232.5 112,-213.5 35,-213.5"/>
<text text-anchor="middle" x="73.5" y="-220.5" font-family="Helvetica,sans-Serif" font-size="10.00">socket_base</text>
</a>
</g>
</g>
<!-- Node8&#45;&gt;Node1 -->
<g id="edge19" class="edge">
<title>Node8&#45;&gt;Node1</title>
<path fill="none" stroke="midnightblue" d="M81.73,-241.9C95.86,-276.33 130.43,-349.37 183,-389 187.65,-392.5 192.7,-395.6 197.99,-398.34"/>
<polygon fill="midnightblue" stroke="midnightblue" points="84.95,-240.53 78,-232.53 78.45,-243.12 84.95,-240.53"/>
</g>
<!-- Node8&#45;&gt;Node3 -->
<g id="edge15" class="edge">
<title>Node8&#45;&gt;Node3</title>
<path fill="none" stroke="midnightblue" d="M88.13,-240.81C107,-264.28 143.27,-305.35 183,-329 190.27,-333.33 198.23,-337.09 206.35,-340.34"/>
<polygon fill="midnightblue" stroke="midnightblue" points="90.72,-238.44 81.78,-232.75 85.22,-242.77 90.72,-238.44"/>
</g>
<!-- Node8&#45;&gt;Node9 -->
<g id="edge16" class="edge">
<title>Node8&#45;&gt;Node9</title>
<path fill="none" stroke="midnightblue" d="M104.75,-236.8C126.33,-246.4 156.17,-259.19 183,-269 193.84,-272.96 205.49,-276.86 216.82,-280.47"/>
<polygon fill="midnightblue" stroke="midnightblue" points="106.01,-233.53 95.45,-232.63 103.15,-239.91 106.01,-233.53"/>
</g>
<!-- Node8&#45;&gt;Node7 -->
<g id="edge17" class="edge">
<title>Node8&#45;&gt;Node7</title>
<path fill="none" stroke="midnightblue" d="M121.93,-217.42C131.05,-214.56 139.94,-210.3 147,-204 180.06,-174.48 150.59,-141.23 183,-111 189.06,-105.35 196.16,-100.76 203.72,-97.04"/>
<polygon fill="midnightblue" stroke="midnightblue" points="120.81,-214.09 112.02,-220.01 122.58,-220.86 120.81,-214.09"/>
</g>
<!-- Node8&#45;&gt;Node10 -->
<g id="edge18" class="edge">
<title>Node8&#45;&gt;Node10</title>
<path fill="none" stroke="midnightblue" d="M122.05,-218.32C131.33,-215.42 140.26,-210.91 147,-204 195.77,-153.98 135.33,-102.07 183,-51 188.53,-45.07 195.21,-40.31 202.44,-36.48"/>
<polygon fill="midnightblue" stroke="midnightblue" points="121.16,-214.94 112.34,-220.81 122.89,-221.72 121.16,-214.94"/>
</g>
<!-- Node8&#45;&gt;Node11 -->
<g id="edge20" class="edge">
<title>Node8&#45;&gt;Node11</title>
<path fill="none" stroke="midnightblue" d="M122.19,-217.89C147.31,-215.21 178.65,-211.85 206.77,-208.84"/>
<polygon fill="midnightblue" stroke="midnightblue" points="121.76,-214.42 112.19,-218.96 122.51,-221.38 121.76,-214.42"/>
</g>
<!-- Node8&#45;&gt;Node12 -->
<g id="edge21" class="edge">
<title>Node8&#45;&gt;Node12</title>
<path fill="none" stroke="midnightblue" d="M122.24,-214.03C130.77,-211.45 139.36,-208.16 147,-204 166.06,-193.61 164.17,-181.8 183,-171 190.49,-166.7 198.67,-162.95 207,-159.69"/>
<polygon fill="midnightblue" stroke="midnightblue" points="121.05,-210.73 112.33,-216.75 122.89,-217.48 121.05,-210.73"/>
</g>
</g>
</svg>
