<?xml version="1.0" encoding="UTF-8" standalone="no"?>
<!DOCTYPE svg PUBLIC "-//W3C//DTD SVG 1.1//EN"
 "http://www.w3.org/Graphics/SVG/1.1/DTD/svg11.dtd">
<!-- Generated by graphviz version 2.43.0 (0)
 -->
<!-- Title: Graphical Class Hierarchy Pages: 1 -->
<svg width="744pt" height="416pt"
 viewBox="0.00 0.00 744.00 416.00" xmlns="http://www.w3.org/2000/svg" xmlns:xlink="http://www.w3.org/1999/xlink">
<g id="graph0" class="graph" transform="scale(1 1) rotate(0) translate(4 412)">
<title>Graphical Class Hierarchy</title>
<polygon fill="white" stroke="transparent" points="-4,4 -4,-412 740,-412 740,4 -4,4"/>
<!-- Node0 -->
<g id="node1" class="node">
<title>Node0</title>
<g id="a_node1"><a xlink:title=" ">
<polygon fill="white" stroke="#bfbfbf" points="0,-159 0,-178 68,-178 68,-159 0,-159"/>
<text text-anchor="middle" x="34" y="-166" font-family="Helvetica,sans-Serif" font-size="10.00">reactor_op</text>
</a>
</g>
</g>
<!-- Node1 -->
<g id="node2" class="node">
<title>Node1</title>
<g id="a_node2"><a xlink:href="classboost_1_1asio_1_1detail_1_1reactor__op__ext.html" target="_top" xlink:title=" ">
<polygon fill="white" stroke="black" points="114,-259.5 114,-289.5 218,-289.5 218,-259.5 114,-259.5"/>
<text text-anchor="start" x="122" y="-277.5" font-family="Helvetica,sans-Serif" font-size="10.00">boost::asio::detail</text>
<text text-anchor="middle" x="166" y="-266.5" font-family="Helvetica,sans-Serif" font-size="10.00">::reactor_op_ext</text>
</a>
</g>
</g>
<!-- Node0&#45;&gt;Node1 -->
<g id="edge1" class="edge">
<title>Node0&#45;&gt;Node1</title>
<path fill="none" stroke="midnightblue" d="M55.03,-184.84C79.96,-205.16 122.18,-239.58 146.41,-259.34"/>
<polygon fill="midnightblue" stroke="midnightblue" points="56.96,-181.89 47,-178.28 52.54,-187.31 56.96,-181.89"/>
</g>
<!-- Node8 -->
<g id="node9" class="node">
<title>Node8</title>
<g id="a_node9"><a xlink:href="classboost_1_1asio_1_1detail_1_1reactor__op__ext__local.html" target="_top" xlink:title=" ">
<polygon fill="white" stroke="black" points="104,-118.5 104,-148.5 228,-148.5 228,-118.5 104,-118.5"/>
<text text-anchor="start" x="112" y="-136.5" font-family="Helvetica,sans-Serif" font-size="10.00">boost::asio::detail</text>
<text text-anchor="middle" x="166" y="-125.5" font-family="Helvetica,sans-Serif" font-size="10.00">::reactor_op_ext_local</text>
</a>
</g>
</g>
<!-- Node0&#45;&gt;Node8 -->
<g id="edge8" class="edge">
<title>Node0&#45;&gt;Node8</title>
<path fill="none" stroke="midnightblue" d="M77.86,-156.96C87.88,-154.26 98.7,-151.35 109.19,-148.53"/>
<polygon fill="midnightblue" stroke="midnightblue" points="76.89,-153.6 68.14,-159.58 78.71,-160.36 76.89,-153.6"/>
</g>
<!-- Node2 -->
<g id="node3" class="node">
<title>Node2</title>
<g id="a_node3"><a xlink:href="classboost_1_1asio_1_1detail_1_1reactive__socket__recv__op__base__ext.html" target="_top" xlink:title=" ">
<polygon fill="white" stroke="black" points="264,-358 264,-399 486,-399 486,-358 264,-358"/>
<text text-anchor="start" x="272" y="-387" font-family="Helvetica,sans-Serif" font-size="10.00">boost::asio::detail</text>
<text text-anchor="start" x="272" y="-376" font-family="Helvetica,sans-Serif" font-size="10.00">::reactive_socket_recv</text>
<text text-anchor="middle" x="375" y="-365" font-family="Helvetica,sans-Serif" font-size="10.00">_op_base_ext&lt; MutableBufferSequence &gt;</text>
</a>
</g>
</g>
<!-- Node1&#45;&gt;Node2 -->
<g id="edge2" class="edge">
<title>Node1&#45;&gt;Node2</title>
<path fill="none" stroke="midnightblue" d="M191.88,-295.96C210.65,-311.25 237.61,-331.34 264,-344.5 274.11,-349.54 285.11,-354.01 296.12,-357.92"/>
<polygon fill="midnightblue" stroke="midnightblue" points="194.04,-293.21 184.11,-289.52 189.58,-298.6 194.04,-293.21"/>
</g>
<!-- Node4 -->
<g id="node5" class="node">
<title>Node4</title>
<g id="a_node5"><a xlink:href="classboost_1_1asio_1_1detail_1_1reactive__socket__recvfrom__op__base__ext.html" target="_top" xlink:title=" ">
<polygon fill="white" stroke="black" points="268,-282.5 268,-334.5 482,-334.5 482,-282.5 268,-282.5"/>
<text text-anchor="start" x="276" y="-322.5" font-family="Helvetica,sans-Serif" font-size="10.00">boost::asio::detail</text>
<text text-anchor="start" x="276" y="-311.5" font-family="Helvetica,sans-Serif" font-size="10.00">::reactive_socket_recvfrom</text>
<text text-anchor="start" x="276" y="-300.5" font-family="Helvetica,sans-Serif" font-size="10.00">_op_base_ext&lt; MutableBufferSequence,</text>
<text text-anchor="middle" x="375" y="-289.5" font-family="Helvetica,sans-Serif" font-size="10.00"> Endpoint &gt;</text>
</a>
</g>
</g>
<!-- Node1&#45;&gt;Node4 -->
<g id="edge4" class="edge">
<title>Node1&#45;&gt;Node4</title>
<path fill="none" stroke="midnightblue" d="M228.05,-284.53C240.65,-286.6 254.28,-288.84 267.97,-291.08"/>
<polygon fill="midnightblue" stroke="midnightblue" points="228.6,-281.07 218.17,-282.9 227.47,-287.98 228.6,-281.07"/>
</g>
<!-- Node6 -->
<g id="node7" class="node">
<title>Node6</title>
<g id="a_node7"><a xlink:href="classboost_1_1asio_1_1detail_1_1reactive__socket__recvmsg__op__base__ext.html" target="_top" xlink:title=" ">
<polygon fill="white" stroke="black" points="264,-220 264,-261 486,-261 486,-220 264,-220"/>
<text text-anchor="start" x="272" y="-249" font-family="Helvetica,sans-Serif" font-size="10.00">boost::asio::detail</text>
<text text-anchor="start" x="272" y="-238" font-family="Helvetica,sans-Serif" font-size="10.00">::reactive_socket_recvmsg</text>
<text text-anchor="middle" x="375" y="-227" font-family="Helvetica,sans-Serif" font-size="10.00">_op_base_ext&lt; MutableBufferSequence &gt;</text>
</a>
</g>
</g>
<!-- Node1&#45;&gt;Node6 -->
<g id="edge6" class="edge">
<title>Node1&#45;&gt;Node6</title>
<path fill="none" stroke="midnightblue" d="M228.28,-264.43C239.57,-262.58 251.66,-260.59 263.87,-258.59"/>
<polygon fill="midnightblue" stroke="midnightblue" points="227.47,-261.02 218.17,-266.1 228.6,-267.93 227.47,-261.02"/>
</g>
<!-- Node3 -->
<g id="node4" class="node">
<title>Node3</title>
<g id="a_node4"><a xlink:href="classboost_1_1asio_1_1detail_1_1reactive__socket__recv__op__ext.html" target="_top" xlink:title=" ">
<polygon fill="white" stroke="black" points="536.5,-355.5 536.5,-407.5 721.5,-407.5 721.5,-355.5 536.5,-355.5"/>
<text text-anchor="start" x="544.5" y="-395.5" font-family="Helvetica,sans-Serif" font-size="10.00">boost::asio::detail</text>
<text text-anchor="start" x="544.5" y="-384.5" font-family="Helvetica,sans-Serif" font-size="10.00">::reactive_socket_recv</text>
<text text-anchor="start" x="544.5" y="-373.5" font-family="Helvetica,sans-Serif" font-size="10.00">_op_ext&lt; MutableBufferSequence,</text>
<text text-anchor="middle" x="629" y="-362.5" font-family="Helvetica,sans-Serif" font-size="10.00"> Handler &gt;</text>
</a>
</g>
</g>
<!-- Node2&#45;&gt;Node3 -->
<g id="edge3" class="edge">
<title>Node2&#45;&gt;Node3</title>
<path fill="none" stroke="midnightblue" d="M496.37,-379.93C509.75,-380.09 523.22,-380.25 536.16,-380.41"/>
<polygon fill="midnightblue" stroke="midnightblue" points="496.21,-376.43 486.16,-379.81 496.12,-383.43 496.21,-376.43"/>
</g>
<!-- Node5 -->
<g id="node6" class="node">
<title>Node5</title>
<g id="a_node6"><a xlink:href="classboost_1_1asio_1_1detail_1_1reactive__socket__recvfrom__op__ext.html" target="_top" xlink:title=" ">
<polygon fill="white" stroke="black" points="536.5,-284.5 536.5,-336.5 721.5,-336.5 721.5,-284.5 536.5,-284.5"/>
<text text-anchor="start" x="544.5" y="-324.5" font-family="Helvetica,sans-Serif" font-size="10.00">boost::asio::detail</text>
<text text-anchor="start" x="544.5" y="-313.5" font-family="Helvetica,sans-Serif" font-size="10.00">::reactive_socket_recvfrom</text>
<text text-anchor="start" x="544.5" y="-302.5" font-family="Helvetica,sans-Serif" font-size="10.00">_op_ext&lt; MutableBufferSequence,</text>
<text text-anchor="middle" x="629" y="-291.5" font-family="Helvetica,sans-Serif" font-size="10.00"> Endpoint, Handler &gt;</text>
</a>
</g>
</g>
<!-- Node4&#45;&gt;Node5 -->
<g id="edge5" class="edge">
<title>Node4&#45;&gt;Node5</title>
<path fill="none" stroke="midnightblue" d="M492.33,-309.42C507.1,-309.54 522.05,-309.66 536.36,-309.77"/>
<polygon fill="midnightblue" stroke="midnightblue" points="492.17,-305.92 482.14,-309.34 492.11,-312.92 492.17,-305.92"/>
</g>
<!-- Node7 -->
<g id="node8" class="node">
<title>Node7</title>
<g id="a_node8"><a xlink:href="classboost_1_1asio_1_1detail_1_1reactive__socket__recvmsg__op__ext.html" target="_top" xlink:title=" ">
<polygon fill="white" stroke="black" points="536.5,-213.5 536.5,-265.5 721.5,-265.5 721.5,-213.5 536.5,-213.5"/>
<text text-anchor="start" x="544.5" y="-253.5" font-family="Helvetica,sans-Serif" font-size="10.00">boost::asio::detail</text>
<text text-anchor="start" x="544.5" y="-242.5" font-family="Helvetica,sans-Serif" font-size="10.00">::reactive_socket_recvmsg</text>
<text text-anchor="start" x="544.5" y="-231.5" font-family="Helvetica,sans-Serif" font-size="10.00">_op_ext&lt; MutableBufferSequence,</text>
<text text-anchor="middle" x="629" y="-220.5" font-family="Helvetica,sans-Serif" font-size="10.00"> Handler &gt;</text>
</a>
</g>
</g>
<!-- Node6&#45;&gt;Node7 -->
<g id="edge7" class="edge">
<title>Node6&#45;&gt;Node7</title>
<path fill="none" stroke="midnightblue" d="M496.37,-240.02C509.75,-239.97 523.22,-239.92 536.16,-239.86"/>
<polygon fill="midnightblue" stroke="midnightblue" points="496.15,-236.52 486.16,-240.06 496.18,-243.52 496.15,-236.52"/>
</g>
<!-- Node9 -->
<g id="node10" class="node">
<title>Node9</title>
<g id="a_node10"><a xlink:href="classboost_1_1asio_1_1detail_1_1reactive__socket__recv__op__base__ext__local.html" target="_top" xlink:title=" ">
<polygon fill="white" stroke="black" points="279,-142.5 279,-194.5 471,-194.5 471,-142.5 279,-142.5"/>
<text text-anchor="start" x="287" y="-182.5" font-family="Helvetica,sans-Serif" font-size="10.00">boost::asio::detail</text>
<text text-anchor="start" x="287" y="-171.5" font-family="Helvetica,sans-Serif" font-size="10.00">::reactive_socket_recv</text>
<text text-anchor="start" x="287" y="-160.5" font-family="Helvetica,sans-Serif" font-size="10.00">_op_base_ext_local&lt; MutableBuffer</text>
<text text-anchor="middle" x="375" y="-149.5" font-family="Helvetica,sans-Serif" font-size="10.00">Sequence &gt;</text>
</a>
</g>
</g>
<!-- Node8&#45;&gt;Node9 -->
<g id="edge9" class="edge">
<title>Node8&#45;&gt;Node9</title>
<path fill="none" stroke="midnightblue" d="M238.5,-145.59C251.47,-147.78 265.19,-150.1 278.72,-152.39"/>
<polygon fill="midnightblue" stroke="midnightblue" points="238.71,-142.08 228.27,-143.86 237.54,-148.98 238.71,-142.08"/>
</g>
<!-- Node11 -->
<g id="node12" class="node">
<title>Node11</title>
<g id="a_node12"><a xlink:href="classboost_1_1asio_1_1detail_1_1reactive__socket__recvfrom__op__base__ext__local.html" target="_top" xlink:title=" ">
<polygon fill="white" stroke="black" points="279,-71.5 279,-123.5 471,-123.5 471,-71.5 279,-71.5"/>
<text text-anchor="start" x="287" y="-111.5" font-family="Helvetica,sans-Serif" font-size="10.00">boost::asio::detail</text>
<text text-anchor="start" x="287" y="-100.5" font-family="Helvetica,sans-Serif" font-size="10.00">::reactive_socket_recvfrom</text>
<text text-anchor="start" x="287" y="-89.5" font-family="Helvetica,sans-Serif" font-size="10.00">_op_base_ext_local&lt; MutableBuffer</text>
<text text-anchor="middle" x="375" y="-78.5" font-family="Helvetica,sans-Serif" font-size="10.00">Sequence, Endpoint &gt;</text>
</a>
</g>
</g>
<!-- Node8&#45;&gt;Node11 -->
<g id="edge11" class="edge">
<title>Node8&#45;&gt;Node11</title>
<path fill="none" stroke="midnightblue" d="M238.5,-121.07C251.47,-118.81 265.19,-116.42 278.72,-114.07"/>
<polygon fill="midnightblue" stroke="midnightblue" points="237.52,-117.68 228.27,-122.84 238.72,-124.58 237.52,-117.68"/>
</g>
<!-- Node13 -->
<g id="node14" class="node">
<title>Node13</title>
<g id="a_node14"><a xlink:href="classboost_1_1asio_1_1detail_1_1reactive__socket__recvmsg__op__base__ext__local.html" target="_top" xlink:title=" ">
<polygon fill="white" stroke="black" points="279,-0.5 279,-52.5 471,-52.5 471,-0.5 279,-0.5"/>
<text text-anchor="start" x="287" y="-40.5" font-family="Helvetica,sans-Serif" font-size="10.00">boost::asio::detail</text>
<text text-anchor="start" x="287" y="-29.5" font-family="Helvetica,sans-Serif" font-size="10.00">::reactive_socket_recvmsg</text>
<text text-anchor="start" x="287" y="-18.5" font-family="Helvetica,sans-Serif" font-size="10.00">_op_base_ext_local&lt; MutableBuffer</text>
<text text-anchor="middle" x="375" y="-7.5" font-family="Helvetica,sans-Serif" font-size="10.00">Sequence &gt;</text>
</a>
</g>
</g>
<!-- Node8&#45;&gt;Node13 -->
<g id="edge13" class="edge">
<title>Node8&#45;&gt;Node13</title>
<path fill="none" stroke="midnightblue" d="M191.47,-111.74C210.22,-95.99 237.33,-75.16 264,-61.5 270.24,-58.3 276.84,-55.33 283.56,-52.57"/>
<polygon fill="midnightblue" stroke="midnightblue" points="189.05,-109.21 183.72,-118.36 193.59,-114.53 189.05,-109.21"/>
</g>
<!-- Node10 -->
<g id="node11" class="node">
<title>Node10</title>
<g id="a_node11"><a xlink:href="classboost_1_1asio_1_1detail_1_1reactive__socket__recv__op__ext__local.html" target="_top" xlink:title=" ">
<polygon fill="white" stroke="black" points="547,-142.5 547,-194.5 711,-194.5 711,-142.5 547,-142.5"/>
<text text-anchor="start" x="555" y="-182.5" font-family="Helvetica,sans-Serif" font-size="10.00">boost::asio::detail</text>
<text text-anchor="start" x="555" y="-171.5" font-family="Helvetica,sans-Serif" font-size="10.00">::reactive_socket_recv</text>
<text text-anchor="start" x="555" y="-160.5" font-family="Helvetica,sans-Serif" font-size="10.00">_op_ext_local&lt; MutableBuffer</text>
<text text-anchor="middle" x="629" y="-149.5" font-family="Helvetica,sans-Serif" font-size="10.00">Sequence, Handler &gt;</text>
</a>
</g>
</g>
<!-- Node9&#45;&gt;Node10 -->
<g id="edge10" class="edge">
<title>Node9&#45;&gt;Node10</title>
<path fill="none" stroke="midnightblue" d="M481.53,-168.5C503.28,-168.5 525.87,-168.5 546.6,-168.5"/>
<polygon fill="midnightblue" stroke="midnightblue" points="481.27,-165 471.27,-168.5 481.27,-172 481.27,-165"/>
</g>
<!-- Node12 -->
<g id="node13" class="node">
<title>Node12</title>
<g id="a_node13"><a xlink:href="classboost_1_1asio_1_1detail_1_1reactive__socket__recvfrom__op__ext__local.html" target="_top" xlink:title=" ">
<polygon fill="white" stroke="black" points="522,-71.5 522,-123.5 736,-123.5 736,-71.5 522,-71.5"/>
<text text-anchor="start" x="530" y="-111.5" font-family="Helvetica,sans-Serif" font-size="10.00">boost::asio::detail</text>
<text text-anchor="start" x="530" y="-100.5" font-family="Helvetica,sans-Serif" font-size="10.00">::reactive_socket_recvfrom</text>
<text text-anchor="start" x="530" y="-89.5" font-family="Helvetica,sans-Serif" font-size="10.00">_op_ext_local&lt; MutableBufferSequence,</text>
<text text-anchor="middle" x="629" y="-78.5" font-family="Helvetica,sans-Serif" font-size="10.00"> Endpoint, Handler &gt;</text>
</a>
</g>
</g>
<!-- Node11&#45;&gt;Node12 -->
<g id="edge12" class="edge">
<title>Node11&#45;&gt;Node12</title>
<path fill="none" stroke="midnightblue" d="M481.37,-97.5C494.68,-97.5 508.3,-97.5 521.63,-97.5"/>
<polygon fill="midnightblue" stroke="midnightblue" points="481.27,-94 471.27,-97.5 481.27,-101 481.27,-94"/>
</g>
<!-- Node14 -->
<g id="node15" class="node">
<title>Node14</title>
<g id="a_node15"><a xlink:href="classboost_1_1asio_1_1detail_1_1reactive__socket__recvmsg__op__ext__local.html" target="_top" xlink:title=" ">
<polygon fill="white" stroke="black" points="522,-0.5 522,-52.5 736,-52.5 736,-0.5 522,-0.5"/>
<text text-anchor="start" x="530" y="-40.5" font-family="Helvetica,sans-Serif" font-size="10.00">boost::asio::detail</text>
<text text-anchor="start" x="530" y="-29.5" font-family="Helvetica,sans-Serif" font-size="10.00">::reactive_socket_recvmsg</text>
<text text-anchor="start" x="530" y="-18.5" font-family="Helvetica,sans-Serif" font-size="10.00">_op_ext_local&lt; MutableBufferSequence,</text>
<text text-anchor="middle" x="629" y="-7.5" font-family="Helvetica,sans-Serif" font-size="10.00"> Handler &gt;</text>
</a>
</g>
</g>
<!-- Node13&#45;&gt;Node14 -->
<g id="edge14" class="edge">
<title>Node13&#45;&gt;Node14</title>
<path fill="none" stroke="midnightblue" d="M481.37,-26.5C494.68,-26.5 508.3,-26.5 521.63,-26.5"/>
<polygon fill="midnightblue" stroke="midnightblue" points="481.27,-23 471.27,-26.5 481.27,-30 481.27,-23"/>
</g>
</g>
</svg>
