<?xml version="1.0" encoding="UTF-8" standalone="no"?>
<!DOCTYPE svg PUBLIC "-//W3C//DTD SVG 1.1//EN"
 "http://www.w3.org/Graphics/SVG/1.1/DTD/svg11.dtd">
<!-- Generated by graphviz version 2.43.0 (0)
 -->
<!-- Title: Graphical Class Hierarchy Pages: 1 -->
<svg width="755pt" height="259pt"
 viewBox="0.00 0.00 755.00 259.00" xmlns="http://www.w3.org/2000/svg" xmlns:xlink="http://www.w3.org/1999/xlink">
<g id="graph0" class="graph" transform="scale(1 1) rotate(0) translate(4 255)">
<title>Graphical Class Hierarchy</title>
<polygon fill="white" stroke="transparent" points="-4,4 -4,-255 751,-255 751,4 -4,4"/>
<!-- Node0 -->
<g id="node1" class="node">
<title>Node0</title>
<g id="a_node1"><a xlink:href="classvsomeip__v3_1_1deserializable.html" target="_top" xlink:title=" ">
<polygon fill="white" stroke="black" points="0,-155.5 0,-174.5 150,-174.5 150,-155.5 0,-155.5"/>
<text text-anchor="middle" x="75" y="-162.5" font-family="Helvetica,sans-Serif" font-size="10.00">vsomeip_v3::deserializable</text>
</a>
</g>
</g>
<!-- Node1 -->
<g id="node2" class="node">
<title>Node1</title>
<g id="a_node2"><a xlink:href="classvsomeip_1_1message__base.html" target="_top" xlink:title="Base class to implement SOME/IP messages.">
<polygon fill="white" stroke="black" points="195,-155.5 195,-174.5 332,-174.5 332,-155.5 195,-155.5"/>
<text text-anchor="middle" x="263.5" y="-162.5" font-family="Helvetica,sans-Serif" font-size="10.00">vsomeip::message_base</text>
</a>
</g>
</g>
<!-- Node0&#45;&gt;Node1 -->
<g id="edge1" class="edge">
<title>Node0&#45;&gt;Node1</title>
<path fill="none" stroke="midnightblue" d="M160.34,-165C171.9,-165 183.65,-165 194.86,-165"/>
<polygon fill="midnightblue" stroke="midnightblue" points="160.25,-161.5 150.25,-165 160.25,-168.5 160.25,-161.5"/>
</g>
<!-- Node3 -->
<g id="node3" class="node">
<title>Node3</title>
<g id="a_node3"><a xlink:href="classvsomeip_1_1payload.html" target="_top" xlink:title="This class implements an array of bytes to be used as payload for SOME/IP messages.">
<polygon fill="white" stroke="black" points="211.5,-117.5 211.5,-136.5 315.5,-136.5 315.5,-117.5 211.5,-117.5"/>
<text text-anchor="middle" x="263.5" y="-124.5" font-family="Helvetica,sans-Serif" font-size="10.00">vsomeip::payload</text>
</a>
</g>
</g>
<!-- Node0&#45;&gt;Node3 -->
<g id="edge2" class="edge">
<title>Node0&#45;&gt;Node3</title>
<path fill="none" stroke="midnightblue" d="M132.98,-153.39C159.5,-147.99 190.67,-141.64 215.78,-136.52"/>
<polygon fill="midnightblue" stroke="midnightblue" points="132.16,-149.98 123.06,-155.41 133.56,-156.84 132.16,-149.98"/>
</g>
<!-- Node4 -->
<g id="node4" class="node">
<title>Node4</title>
<g id="a_node4"><a xlink:href="classvsomeip__v3_1_1message__base.html" target="_top" xlink:title="Base class to implement SOME/IP messages.">
<polygon fill="white" stroke="black" points="186,-79.5 186,-98.5 341,-98.5 341,-79.5 186,-79.5"/>
<text text-anchor="middle" x="263.5" y="-86.5" font-family="Helvetica,sans-Serif" font-size="10.00">vsomeip_v3::message_base</text>
</a>
</g>
</g>
<!-- Node0&#45;&gt;Node4 -->
<g id="edge3" class="edge">
<title>Node0&#45;&gt;Node4</title>
<path fill="none" stroke="midnightblue" d="M137.84,-152C142.07,-150.25 146.17,-148.26 150,-146 170.05,-134.2 165.9,-119.72 186,-108 192.62,-104.14 200,-101.06 207.5,-98.6"/>
<polygon fill="midnightblue" stroke="midnightblue" points="136.59,-148.73 128.43,-155.49 139.02,-155.3 136.59,-148.73"/>
</g>
<!-- Node13 -->
<g id="node12" class="node">
<title>Node13</title>
<g id="a_node12"><a xlink:href="classvsomeip__v3_1_1payload.html" target="_top" xlink:title="This class implements an array of bytes to be used as payload for SOME/IP messages.">
<polygon fill="white" stroke="black" points="203,-193.5 203,-212.5 324,-212.5 324,-193.5 203,-193.5"/>
<text text-anchor="middle" x="263.5" y="-200.5" font-family="Helvetica,sans-Serif" font-size="10.00">vsomeip_v3::payload</text>
</a>
</g>
</g>
<!-- Node0&#45;&gt;Node13 -->
<g id="edge14" class="edge">
<title>Node0&#45;&gt;Node13</title>
<path fill="none" stroke="midnightblue" d="M132.98,-176.61C159.5,-182.01 190.67,-188.36 215.78,-193.48"/>
<polygon fill="midnightblue" stroke="midnightblue" points="133.56,-173.16 123.06,-174.59 132.16,-180.02 133.56,-173.16"/>
</g>
<!-- Node5 -->
<g id="node5" class="node">
<title>Node5</title>
<g id="a_node5"><a xlink:href="classvsomeip_1_1message.html" target="_top" xlink:title="Implements regular SOME/IP messages.">
<polygon fill="white" stroke="black" points="404.5,-136.5 404.5,-155.5 513.5,-155.5 513.5,-136.5 404.5,-136.5"/>
<text text-anchor="middle" x="459" y="-143.5" font-family="Helvetica,sans-Serif" font-size="10.00">vsomeip::message</text>
</a>
</g>
</g>
<!-- Node4&#45;&gt;Node5 -->
<g id="edge4" class="edge">
<title>Node4&#45;&gt;Node5</title>
<path fill="none" stroke="midnightblue" d="M320.81,-101.32C327.69,-103.31 334.56,-105.54 341,-108 357.9,-114.45 360.06,-120.66 377,-127 386.88,-130.69 397.71,-133.83 408.14,-136.42"/>
<polygon fill="midnightblue" stroke="midnightblue" points="321.34,-97.84 310.77,-98.58 319.49,-104.59 321.34,-97.84"/>
</g>
<!-- Node6 -->
<g id="node6" class="node">
<title>Node6</title>
<g id="a_node6"><a xlink:href="classvsomeip_1_1message__base__impl.html" target="_top" xlink:title=" ">
<polygon fill="white" stroke="black" points="377,-98.5 377,-117.5 541,-117.5 541,-98.5 377,-98.5"/>
<text text-anchor="middle" x="459" y="-105.5" font-family="Helvetica,sans-Serif" font-size="10.00">vsomeip::message_base_impl</text>
</a>
</g>
</g>
<!-- Node4&#45;&gt;Node6 -->
<g id="edge5" class="edge">
<title>Node4&#45;&gt;Node6</title>
<path fill="none" stroke="midnightblue" d="M351.22,-97.51C359.76,-98.35 368.41,-99.2 376.89,-100.04"/>
<polygon fill="midnightblue" stroke="midnightblue" points="351.55,-94.03 341.25,-96.54 350.86,-101 351.55,-94.03"/>
</g>
<!-- Node7 -->
<g id="node7" class="node">
<title>Node7</title>
<g id="a_node7"><a xlink:href="classvsomeip__v3_1_1message.html" target="_top" xlink:title="Implements regular SOME/IP messages.">
<polygon fill="white" stroke="black" points="396,-60.5 396,-79.5 522,-79.5 522,-60.5 396,-60.5"/>
<text text-anchor="middle" x="459" y="-67.5" font-family="Helvetica,sans-Serif" font-size="10.00">vsomeip_v3::message</text>
</a>
</g>
</g>
<!-- Node4&#45;&gt;Node7 -->
<g id="edge6" class="edge">
<title>Node4&#45;&gt;Node7</title>
<path fill="none" stroke="midnightblue" d="M351.55,-80.45C366.52,-78.98 381.8,-77.48 395.94,-76.09"/>
<polygon fill="midnightblue" stroke="midnightblue" points="350.86,-77 341.25,-81.46 351.55,-83.97 350.86,-77"/>
</g>
<!-- Node9 -->
<g id="node11" class="node">
<title>Node9</title>
<g id="a_node11"><a xlink:href="classvsomeip__v3_1_1message__base__impl.html" target="_top" xlink:title=" ">
<polygon fill="white" stroke="black" points="396,-11 396,-41 522,-41 522,-11 396,-11"/>
<text text-anchor="start" x="404" y="-29" font-family="Helvetica,sans-Serif" font-size="10.00">vsomeip_v3::message</text>
<text text-anchor="middle" x="459" y="-18" font-family="Helvetica,sans-Serif" font-size="10.00">_base_impl</text>
</a>
</g>
</g>
<!-- Node4&#45;&gt;Node9 -->
<g id="edge10" class="edge">
<title>Node4&#45;&gt;Node9</title>
<path fill="none" stroke="midnightblue" d="M317.21,-76.76C325.27,-74.45 333.42,-71.85 341,-69 357.74,-62.7 360.4,-57.66 377,-51 385.88,-47.44 395.47,-44.07 404.84,-41.04"/>
<polygon fill="midnightblue" stroke="midnightblue" points="316.19,-73.41 307.48,-79.44 318.05,-80.16 316.19,-73.41"/>
</g>
<!-- Node8 -->
<g id="node8" class="node">
<title>Node8</title>
<g id="a_node8"><a xlink:href="classvsomeip_1_1message__impl.html" target="_top" xlink:title=" ">
<polygon fill="white" stroke="black" points="594,-76.5 594,-95.5 730,-95.5 730,-76.5 594,-76.5"/>
<text text-anchor="middle" x="662" y="-83.5" font-family="Helvetica,sans-Serif" font-size="10.00">vsomeip::message_impl</text>
</a>
</g>
</g>
<!-- Node7&#45;&gt;Node8 -->
<g id="edge7" class="edge">
<title>Node7&#45;&gt;Node8</title>
<path fill="none" stroke="midnightblue" d="M532.24,-75.75C552.33,-77.35 574.06,-79.08 593.84,-80.65"/>
<polygon fill="midnightblue" stroke="midnightblue" points="532.47,-72.26 522.22,-74.95 531.91,-79.24 532.47,-72.26"/>
</g>
<!-- Node10 -->
<g id="node9" class="node">
<title>Node10</title>
<g id="a_node9"><a xlink:href="classvsomeip__v3_1_1message__impl.html" target="_top" xlink:title=" ">
<polygon fill="white" stroke="black" points="585.5,-38.5 585.5,-57.5 738.5,-57.5 738.5,-38.5 585.5,-38.5"/>
<text text-anchor="middle" x="662" y="-45.5" font-family="Helvetica,sans-Serif" font-size="10.00">vsomeip_v3::message_impl</text>
</a>
</g>
</g>
<!-- Node7&#45;&gt;Node10 -->
<g id="edge8" class="edge">
<title>Node7&#45;&gt;Node10</title>
<path fill="none" stroke="midnightblue" d="M532.21,-62.1C549.45,-60.21 567.89,-58.19 585.28,-56.29"/>
<polygon fill="midnightblue" stroke="midnightblue" points="531.78,-58.62 522.22,-63.19 532.54,-65.58 531.78,-58.62"/>
</g>
<!-- Node11 -->
<g id="node10" class="node">
<title>Node11</title>
<g id="a_node10"><a xlink:href="classvsomeip__v3_1_1sd_1_1message__impl.html" target="_top" xlink:title=" ">
<polygon fill="white" stroke="black" points="577,-0.5 577,-19.5 747,-19.5 747,-0.5 577,-0.5"/>
<text text-anchor="middle" x="662" y="-7.5" font-family="Helvetica,sans-Serif" font-size="10.00">vsomeip_v3::sd::message_impl</text>
</a>
</g>
</g>
<!-- Node7&#45;&gt;Node11 -->
<g id="edge9" class="edge">
<title>Node7&#45;&gt;Node11</title>
<path fill="none" stroke="midnightblue" d="M518.11,-57.8C525.92,-55.54 533.73,-52.95 541,-50 558.17,-43.04 559.77,-35.79 577,-29 586.6,-25.22 597.13,-22.1 607.38,-19.55"/>
<polygon fill="midnightblue" stroke="midnightblue" points="516.99,-54.48 508.26,-60.48 518.83,-61.23 516.99,-54.48"/>
</g>
<!-- Node9&#45;&gt;Node8 -->
<g id="edge11" class="edge">
<title>Node9&#45;&gt;Node8</title>
<path fill="none" stroke="midnightblue" d="M521.73,-44.21C528.27,-46.39 534.8,-48.67 541,-51 557.39,-57.15 560.38,-61.49 577,-67 587.93,-70.63 599.88,-73.79 611.25,-76.44"/>
<polygon fill="midnightblue" stroke="midnightblue" points="522.75,-40.87 512.16,-41.1 520.59,-47.52 522.75,-40.87"/>
</g>
<!-- Node9&#45;&gt;Node10 -->
<g id="edge12" class="edge">
<title>Node9&#45;&gt;Node10</title>
<path fill="none" stroke="midnightblue" d="M532.21,-33.9C549.45,-35.79 567.89,-37.81 585.28,-39.71"/>
<polygon fill="midnightblue" stroke="midnightblue" points="532.54,-30.42 522.22,-32.81 531.78,-37.38 532.54,-30.42"/>
</g>
<!-- Node9&#45;&gt;Node11 -->
<g id="edge13" class="edge">
<title>Node9&#45;&gt;Node11</title>
<path fill="none" stroke="midnightblue" d="M532.54,-20.23C546.94,-19.08 562.17,-17.87 576.91,-16.69"/>
<polygon fill="midnightblue" stroke="midnightblue" points="531.91,-16.76 522.22,-21.05 532.47,-23.74 531.91,-16.76"/>
</g>
<!-- Node14 -->
<g id="node13" class="node">
<title>Node14</title>
<g id="a_node13"><a xlink:href="classvsomeip_1_1payload__impl.html" target="_top" xlink:title=" ">
<polygon fill="white" stroke="black" points="393.5,-231.5 393.5,-250.5 524.5,-250.5 524.5,-231.5 393.5,-231.5"/>
<text text-anchor="middle" x="459" y="-238.5" font-family="Helvetica,sans-Serif" font-size="10.00">vsomeip::payload_impl</text>
</a>
</g>
</g>
<!-- Node13&#45;&gt;Node14 -->
<g id="edge15" class="edge">
<title>Node13&#45;&gt;Node14</title>
<path fill="none" stroke="midnightblue" d="M323.25,-214.54C350.85,-219.96 383.35,-226.34 409.52,-231.48"/>
<polygon fill="midnightblue" stroke="midnightblue" points="323.82,-211.08 313.33,-212.59 322.47,-217.95 323.82,-211.08"/>
</g>
<!-- Node15 -->
<g id="node14" class="node">
<title>Node15</title>
<g id="a_node14"><a xlink:href="classvsomeip__v3_1_1payload__impl.html" target="_top" xlink:title=" ">
<polygon fill="white" stroke="black" points="385,-193.5 385,-212.5 533,-212.5 533,-193.5 385,-193.5"/>
<text text-anchor="middle" x="459" y="-200.5" font-family="Helvetica,sans-Serif" font-size="10.00">vsomeip_v3::payload_impl</text>
</a>
</g>
</g>
<!-- Node13&#45;&gt;Node15 -->
<g id="edge16" class="edge">
<title>Node13&#45;&gt;Node15</title>
<path fill="none" stroke="midnightblue" d="M334.23,-203C350.7,-203 368.31,-203 384.92,-203"/>
<polygon fill="midnightblue" stroke="midnightblue" points="334.14,-199.5 324.14,-203 334.14,-206.5 334.14,-199.5"/>
</g>
<!-- Node2 -->
<g id="node15" class="node">
<title>Node2</title>
<g id="a_node15"><a xlink:href="classvsomeip__v3_1_1serializable.html" target="_top" xlink:title=" ">
<polygon fill="white" stroke="black" points="6,-117.5 6,-136.5 144,-136.5 144,-117.5 6,-117.5"/>
<text text-anchor="middle" x="75" y="-124.5" font-family="Helvetica,sans-Serif" font-size="10.00">vsomeip_v3::serializable</text>
</a>
</g>
</g>
<!-- Node2&#45;&gt;Node1 -->
<g id="edge17" class="edge">
<title>Node2&#45;&gt;Node1</title>
<path fill="none" stroke="midnightblue" d="M132.98,-138.61C159.5,-144.01 190.67,-150.36 215.78,-155.48"/>
<polygon fill="midnightblue" stroke="midnightblue" points="133.56,-135.16 123.06,-136.59 132.16,-142.02 133.56,-135.16"/>
</g>
<!-- Node2&#45;&gt;Node3 -->
<g id="edge18" class="edge">
<title>Node2&#45;&gt;Node3</title>
<path fill="none" stroke="midnightblue" d="M154.37,-127C173.58,-127 193.65,-127 211.21,-127"/>
<polygon fill="midnightblue" stroke="midnightblue" points="154.12,-123.5 144.12,-127 154.12,-130.5 154.12,-123.5"/>
</g>
<!-- Node2&#45;&gt;Node4 -->
<g id="edge19" class="edge">
<title>Node2&#45;&gt;Node4</title>
<path fill="none" stroke="midnightblue" d="M132.98,-115.39C159.5,-109.99 190.67,-103.64 215.78,-98.52"/>
<polygon fill="midnightblue" stroke="midnightblue" points="132.16,-111.98 123.06,-117.41 133.56,-118.84 132.16,-111.98"/>
</g>
<!-- Node2&#45;&gt;Node13 -->
<g id="edge21" class="edge">
<title>Node2&#45;&gt;Node13</title>
<path fill="none" stroke="midnightblue" d="M137.84,-140C142.07,-141.75 146.17,-143.74 150,-146 170.05,-157.8 165.9,-172.28 186,-184 192.62,-187.86 200,-190.94 207.5,-193.4"/>
<polygon fill="midnightblue" stroke="midnightblue" points="139.02,-136.7 128.43,-136.51 136.59,-143.27 139.02,-136.7"/>
</g>
<!-- Node12 -->
<g id="node16" class="node">
<title>Node12</title>
<g id="a_node16"><a xlink:href="classvsomeip__v3_1_1message__header__impl.html" target="_top" xlink:title=" ">
<polygon fill="white" stroke="black" points="200.5,-30 200.5,-60 326.5,-60 326.5,-30 200.5,-30"/>
<text text-anchor="start" x="208.5" y="-48" font-family="Helvetica,sans-Serif" font-size="10.00">vsomeip_v3::message</text>
<text text-anchor="middle" x="263.5" y="-37" font-family="Helvetica,sans-Serif" font-size="10.00">_header_impl</text>
</a>
</g>
</g>
<!-- Node2&#45;&gt;Node12 -->
<g id="edge20" class="edge">
<title>Node2&#45;&gt;Node12</title>
<path fill="none" stroke="midnightblue" d="M101.35,-112.36C123.29,-100.06 156.11,-82.53 186,-70 194.38,-66.49 203.43,-63.15 212.28,-60.12"/>
<polygon fill="midnightblue" stroke="midnightblue" points="99.35,-109.47 92.37,-117.45 102.8,-115.57 99.35,-109.47"/>
</g>
</g>
</svg>
