<?xml version="1.0" encoding="UTF-8" standalone="no"?>
<!DOCTYPE svg PUBLIC "-//W3C//DTD SVG 1.1//EN"
 "http://www.w3.org/Graphics/SVG/1.1/DTD/svg11.dtd">
<!-- Generated by graphviz version 2.43.0 (0)
 -->
<!-- Title: Graphical Class Hierarchy Pages: 1 -->
<svg width="359pt" height="325pt"
 viewBox="0.00 0.00 359.00 325.00" xmlns="http://www.w3.org/2000/svg" xmlns:xlink="http://www.w3.org/1999/xlink">
<g id="graph0" class="graph" transform="scale(1 1) rotate(0) translate(4 321)">
<title>Graphical Class Hierarchy</title>
<polygon fill="white" stroke="transparent" points="-4,4 -4,-321 355,-321 355,4 -4,4"/>
<!-- Node0 -->
<g id="node1" class="node">
<title>Node0</title>
<g id="a_node1"><a xlink:title=" ">
<polygon fill="white" stroke="#bfbfbf" points="0,-237.5 0,-256.5 175,-256.5 175,-237.5 0,-237.5"/>
<text text-anchor="middle" x="87.5" y="-244.5" font-family="Helvetica,sans-Serif" font-size="10.00">execution_context_service_base</text>
</a>
</g>
</g>
<!-- Node1 -->
<g id="node2" class="node">
<title>Node1</title>
<g id="a_node2"><a xlink:href="classboost_1_1asio_1_1detail_1_1reactive__socket__service__ext.html" target="_top" xlink:title=" ">
<polygon fill="white" stroke="black" points="211,-240.5 211,-281.5 351,-281.5 351,-240.5 211,-240.5"/>
<text text-anchor="start" x="219" y="-269.5" font-family="Helvetica,sans-Serif" font-size="10.00">boost::asio::detail</text>
<text text-anchor="start" x="219" y="-258.5" font-family="Helvetica,sans-Serif" font-size="10.00">::reactive_socket_service</text>
<text text-anchor="middle" x="281" y="-247.5" font-family="Helvetica,sans-Serif" font-size="10.00">_ext&lt; Protocol &gt;</text>
</a>
</g>
</g>
<!-- Node0&#45;&gt;Node1 -->
<g id="edge1" class="edge">
<title>Node0&#45;&gt;Node1</title>
<path fill="none" stroke="midnightblue" d="M185.15,-254.07C193.81,-254.7 202.46,-255.33 210.81,-255.94"/>
<polygon fill="midnightblue" stroke="midnightblue" points="185.23,-250.56 175.01,-253.32 184.72,-257.54 185.23,-250.56"/>
</g>
<!-- Node5 -->
<g id="node3" class="node">
<title>Node5</title>
<g id="a_node3"><a xlink:href="classboost_1_1asio_1_1detail_1_1reactive__socket__service__ext__local.html" target="_top" xlink:title=" ">
<polygon fill="white" stroke="black" points="211,-180.5 211,-221.5 351,-221.5 351,-180.5 211,-180.5"/>
<text text-anchor="start" x="219" y="-209.5" font-family="Helvetica,sans-Serif" font-size="10.00">boost::asio::detail</text>
<text text-anchor="start" x="219" y="-198.5" font-family="Helvetica,sans-Serif" font-size="10.00">::reactive_socket_service</text>
<text text-anchor="middle" x="281" y="-187.5" font-family="Helvetica,sans-Serif" font-size="10.00">_ext_local&lt; Protocol &gt;</text>
</a>
</g>
</g>
<!-- Node0&#45;&gt;Node5 -->
<g id="edge2" class="edge">
<title>Node0&#45;&gt;Node5</title>
<path fill="none" stroke="midnightblue" d="M143.38,-235.25C153.89,-232.92 164.8,-230.43 175,-228 186.63,-225.23 198.95,-222.17 210.9,-219.14"/>
<polygon fill="midnightblue" stroke="midnightblue" points="142.48,-231.87 133.46,-237.44 143.98,-238.7 142.48,-231.87"/>
</g>
<!-- Node2 -->
<g id="node4" class="node">
<title>Node2</title>
<g id="a_node4"><a xlink:href="classboost_1_1asio_1_1detail_1_1reactive__socket__service__base__ext.html" target="_top" xlink:title=" ">
<polygon fill="white" stroke="black" points="17.5,-275.5 17.5,-316.5 157.5,-316.5 157.5,-275.5 17.5,-275.5"/>
<text text-anchor="start" x="25.5" y="-304.5" font-family="Helvetica,sans-Serif" font-size="10.00">boost::asio::detail</text>
<text text-anchor="start" x="25.5" y="-293.5" font-family="Helvetica,sans-Serif" font-size="10.00">::reactive_socket_service</text>
<text text-anchor="middle" x="87.5" y="-282.5" font-family="Helvetica,sans-Serif" font-size="10.00">_base_ext</text>
</a>
</g>
</g>
<!-- Node2&#45;&gt;Node1 -->
<g id="edge3" class="edge">
<title>Node2&#45;&gt;Node1</title>
<path fill="none" stroke="midnightblue" d="M167.52,-281.56C181.93,-278.92 196.87,-276.19 210.97,-273.62"/>
<polygon fill="midnightblue" stroke="midnightblue" points="166.84,-278.12 157.64,-283.36 168.1,-285.01 166.84,-278.12"/>
</g>
<!-- Node6 -->
<g id="node5" class="node">
<title>Node6</title>
<g id="a_node5"><a xlink:href="classboost_1_1asio_1_1detail_1_1reactive__socket__service__base__ext__local.html" target="_top" xlink:title=" ">
<polygon fill="white" stroke="black" points="17.5,-177.5 17.5,-218.5 157.5,-218.5 157.5,-177.5 17.5,-177.5"/>
<text text-anchor="start" x="25.5" y="-206.5" font-family="Helvetica,sans-Serif" font-size="10.00">boost::asio::detail</text>
<text text-anchor="start" x="25.5" y="-195.5" font-family="Helvetica,sans-Serif" font-size="10.00">::reactive_socket_service</text>
<text text-anchor="middle" x="87.5" y="-184.5" font-family="Helvetica,sans-Serif" font-size="10.00">_base_ext_local</text>
</a>
</g>
</g>
<!-- Node6&#45;&gt;Node5 -->
<g id="edge4" class="edge">
<title>Node6&#45;&gt;Node5</title>
<path fill="none" stroke="midnightblue" d="M167.93,-199.24C182.22,-199.47 197,-199.7 210.97,-199.92"/>
<polygon fill="midnightblue" stroke="midnightblue" points="167.69,-195.74 157.64,-199.08 167.58,-202.74 167.69,-195.74"/>
</g>
<!-- Node3 -->
<g id="node6" class="node">
<title>Node3</title>
<g id="a_node6"><a xlink:title=" ">
<polygon fill="white" stroke="#bfbfbf" points="35.5,-126 35.5,-156 139.5,-156 139.5,-126 35.5,-126"/>
<text text-anchor="start" x="43.5" y="-144" font-family="Helvetica,sans-Serif" font-size="10.00">boost::asio::detail</text>
<text text-anchor="middle" x="87.5" y="-133" font-family="Helvetica,sans-Serif" font-size="10.00">::service_base</text>
</a>
</g>
</g>
<!-- Node3&#45;&gt;Node1 -->
<g id="edge6" class="edge">
<title>Node3&#45;&gt;Node1</title>
<path fill="none" stroke="midnightblue" d="M149.32,-153.56C158.52,-157.22 167.45,-161.93 175,-168 200.13,-188.21 186.99,-209.47 211,-231 214.89,-234.49 219.25,-237.62 223.84,-240.42"/>
<polygon fill="midnightblue" stroke="midnightblue" points="150.27,-150.18 139.68,-150.12 147.92,-156.77 150.27,-150.18"/>
</g>
<!-- Node3&#45;&gt;Node5 -->
<g id="edge7" class="edge">
<title>Node3&#45;&gt;Node5</title>
<path fill="none" stroke="midnightblue" d="M146.73,-159.16C156.18,-162.11 165.86,-165.14 175,-168 187.86,-172.03 201.59,-176.34 214.75,-180.47"/>
<polygon fill="midnightblue" stroke="midnightblue" points="147.59,-155.76 137,-156.12 145.5,-162.44 147.59,-155.76"/>
</g>
<!-- Node4 -->
<g id="node7" class="node">
<title>Node4</title>
<g id="a_node7"><a xlink:href="classboost_1_1asio_1_1datagram__socket__service__ext.html" target="_top" xlink:title="Default service implementation for a datagram socket.">
<polygon fill="white" stroke="black" points="219.5,-120.5 219.5,-161.5 342.5,-161.5 342.5,-120.5 219.5,-120.5"/>
<text text-anchor="start" x="227.5" y="-149.5" font-family="Helvetica,sans-Serif" font-size="10.00">boost::asio::datagram</text>
<text text-anchor="start" x="227.5" y="-138.5" font-family="Helvetica,sans-Serif" font-size="10.00">_socket_service_ext&lt;</text>
<text text-anchor="middle" x="281" y="-127.5" font-family="Helvetica,sans-Serif" font-size="10.00"> Protocol &gt;</text>
</a>
</g>
</g>
<!-- Node3&#45;&gt;Node4 -->
<g id="edge5" class="edge">
<title>Node3&#45;&gt;Node4</title>
<path fill="none" stroke="midnightblue" d="M149.57,-141C171.82,-141 196.97,-141 219.2,-141"/>
<polygon fill="midnightblue" stroke="midnightblue" points="149.57,-137.5 139.57,-141 149.57,-144.5 149.57,-137.5"/>
</g>
<!-- Node7 -->
<g id="node8" class="node">
<title>Node7</title>
<g id="a_node8"><a xlink:href="classboost_1_1asio_1_1socket__acceptor__service__ext.html" target="_top" xlink:title="Default service implementation for a socket acceptor.">
<polygon fill="white" stroke="black" points="218.5,-60.5 218.5,-101.5 343.5,-101.5 343.5,-60.5 218.5,-60.5"/>
<text text-anchor="start" x="226.5" y="-89.5" font-family="Helvetica,sans-Serif" font-size="10.00">boost::asio::socket</text>
<text text-anchor="start" x="226.5" y="-78.5" font-family="Helvetica,sans-Serif" font-size="10.00">_acceptor_service_ext</text>
<text text-anchor="middle" x="281" y="-67.5" font-family="Helvetica,sans-Serif" font-size="10.00">&lt; Protocol &gt;</text>
</a>
</g>
</g>
<!-- Node3&#45;&gt;Node7 -->
<g id="edge8" class="edge">
<title>Node3&#45;&gt;Node7</title>
<path fill="none" stroke="midnightblue" d="M146.64,-122.78C169.29,-115.69 195.28,-107.54 218.26,-100.34"/>
<polygon fill="midnightblue" stroke="midnightblue" points="145.32,-119.53 136.82,-125.86 147.41,-126.21 145.32,-119.53"/>
</g>
<!-- Node8 -->
<g id="node9" class="node">
<title>Node8</title>
<g id="a_node9"><a xlink:href="classboost_1_1asio_1_1stream__socket__service__ext.html" target="_top" xlink:title="Default service implementation for a stream socket.">
<polygon fill="white" stroke="black" points="223.5,-0.5 223.5,-41.5 338.5,-41.5 338.5,-0.5 223.5,-0.5"/>
<text text-anchor="start" x="231.5" y="-29.5" font-family="Helvetica,sans-Serif" font-size="10.00">boost::asio::stream</text>
<text text-anchor="start" x="231.5" y="-18.5" font-family="Helvetica,sans-Serif" font-size="10.00">_socket_service_ext</text>
<text text-anchor="middle" x="281" y="-7.5" font-family="Helvetica,sans-Serif" font-size="10.00">&lt; Protocol &gt;</text>
</a>
</g>
</g>
<!-- Node3&#45;&gt;Node8 -->
<g id="edge9" class="edge">
<title>Node3&#45;&gt;Node8</title>
<path fill="none" stroke="midnightblue" d="M114.21,-119.46C138.23,-99.99 175.6,-71.36 211,-51 216.78,-47.68 222.99,-44.49 229.23,-41.51"/>
<polygon fill="midnightblue" stroke="midnightblue" points="111.82,-116.89 106.3,-125.93 116.26,-122.31 111.82,-116.89"/>
</g>
</g>
</svg>
