<?xml version="1.0" encoding="UTF-8" standalone="no"?>
<!DOCTYPE svg PUBLIC "-//W3C//DTD SVG 1.1//EN"
 "http://www.w3.org/Graphics/SVG/1.1/DTD/svg11.dtd">
<!-- Generated by graphviz version 2.43.0 (0)
 -->
<!-- Title: Graphical Class Hierarchy Pages: 1 -->
<svg width="727pt" height="1101pt"
 viewBox="0.00 0.00 727.00 1100.50" xmlns="http://www.w3.org/2000/svg" xmlns:xlink="http://www.w3.org/1999/xlink">
<g id="graph0" class="graph" transform="scale(1 1) rotate(0) translate(4 1096.5)">
<title>Graphical Class Hierarchy</title>
<polygon fill="white" stroke="transparent" points="-4,4 -4,-1096.5 723,-1096.5 723,4 -4,4"/>
<!-- Node0 -->
<g id="node1" class="node">
<title>Node0</title>
<g id="a_node1"><a xlink:href="classvsomeip__v3_1_1application.html" target="_top" xlink:title="This class contains the public API of the vsomeip implementation.">
<polygon fill="white" stroke="black" points="168.5,-1073 168.5,-1092 304.5,-1092 304.5,-1073 168.5,-1073"/>
<text text-anchor="middle" x="236.5" y="-1080" font-family="Helvetica,sans-Serif" font-size="10.00">vsomeip_v3::application</text>
</a>
</g>
</g>
<!-- Node1 -->
<g id="node2" class="node">
<title>Node1</title>
<g id="a_node2"><a xlink:href="classvsomeip_1_1application__impl.html" target="_top" xlink:title=" ">
<polygon fill="white" stroke="black" points="372,-1073 372,-1092 518,-1092 518,-1073 372,-1073"/>
<text text-anchor="middle" x="445" y="-1080" font-family="Helvetica,sans-Serif" font-size="10.00">vsomeip::application_impl</text>
</a>
</g>
</g>
<!-- Node0&#45;&gt;Node1 -->
<g id="edge1" class="edge">
<title>Node0&#45;&gt;Node1</title>
<path fill="none" stroke="midnightblue" d="M314.55,-1082.5C333.35,-1082.5 353.39,-1082.5 371.95,-1082.5"/>
<polygon fill="midnightblue" stroke="midnightblue" points="314.54,-1079 304.54,-1082.5 314.54,-1086 314.54,-1079"/>
</g>
<!-- Node2 -->
<g id="node3" class="node">
<title>Node2</title>
<g id="a_node3"><a xlink:href="classvsomeip__v3_1_1application__impl.html" target="_top" xlink:title=" ">
<polygon fill="white" stroke="black" points="363.5,-1029 363.5,-1048 526.5,-1048 526.5,-1029 363.5,-1029"/>
<text text-anchor="middle" x="445" y="-1036" font-family="Helvetica,sans-Serif" font-size="10.00">vsomeip_v3::application_impl</text>
</a>
</g>
</g>
<!-- Node0&#45;&gt;Node2 -->
<g id="edge2" class="edge">
<title>Node0&#45;&gt;Node2</title>
<path fill="none" stroke="midnightblue" d="M292.37,-1070.81C325.78,-1063.69 367.91,-1054.71 399.28,-1048.03"/>
<polygon fill="midnightblue" stroke="midnightblue" points="291.36,-1067.45 282.31,-1072.95 292.82,-1074.29 291.36,-1067.45"/>
</g>
<!-- Node5 -->
<g id="node4" class="node">
<title>Node5</title>
<g id="a_node4"><a xlink:href="classvsomeip__v3_1_1configuration.html" target="_top" xlink:title=" ">
<polygon fill="white" stroke="black" points="163.5,-579 163.5,-598 309.5,-598 309.5,-579 163.5,-579"/>
<text text-anchor="middle" x="236.5" y="-586" font-family="Helvetica,sans-Serif" font-size="10.00">vsomeip_v3::configuration</text>
</a>
</g>
</g>
<!-- Node4 -->
<g id="node5" class="node">
<title>Node4</title>
<g id="a_node5"><a xlink:href="classvsomeip__v3_1_1cfg_1_1configuration__impl.html" target="_top" xlink:title=" ">
<polygon fill="white" stroke="black" points="348,-579 348,-598 542,-598 542,-579 348,-579"/>
<text text-anchor="middle" x="445" y="-586" font-family="Helvetica,sans-Serif" font-size="10.00">vsomeip_v3::cfg::configuration_impl</text>
</a>
</g>
</g>
<!-- Node5&#45;&gt;Node4 -->
<g id="edge3" class="edge">
<title>Node5&#45;&gt;Node4</title>
<path fill="none" stroke="midnightblue" d="M319.97,-588.5C329.14,-588.5 338.54,-588.5 347.86,-588.5"/>
<polygon fill="midnightblue" stroke="midnightblue" points="319.72,-585 309.72,-588.5 319.72,-592 319.72,-585"/>
</g>
<!-- Node24 -->
<g id="node6" class="node">
<title>Node24</title>
<g id="a_node6"><a xlink:href="classvsomeip__v3_1_1configuration__plugin.html" target="_top" xlink:title=" ">
<polygon fill="white" stroke="black" points="163.5,-776.5 163.5,-806.5 309.5,-806.5 309.5,-776.5 163.5,-776.5"/>
<text text-anchor="start" x="171.5" y="-794.5" font-family="Helvetica,sans-Serif" font-size="10.00">vsomeip_v3::configuration</text>
<text text-anchor="middle" x="236.5" y="-783.5" font-family="Helvetica,sans-Serif" font-size="10.00">_plugin</text>
</a>
</g>
</g>
<!-- Node23 -->
<g id="node7" class="node">
<title>Node23</title>
<g id="a_node7"><a xlink:href="classvsomeip__v3_1_1configuration__plugin__impl.html" target="_top" xlink:title=" ">
<polygon fill="white" stroke="black" points="372,-828.5 372,-858.5 518,-858.5 518,-828.5 372,-828.5"/>
<text text-anchor="start" x="380" y="-846.5" font-family="Helvetica,sans-Serif" font-size="10.00">vsomeip_v3::configuration</text>
<text text-anchor="middle" x="445" y="-835.5" font-family="Helvetica,sans-Serif" font-size="10.00">_plugin_impl</text>
</a>
</g>
</g>
<!-- Node24&#45;&gt;Node23 -->
<g id="edge4" class="edge">
<title>Node24&#45;&gt;Node23</title>
<path fill="none" stroke="midnightblue" d="M307.05,-809.01C332.15,-815.33 360.23,-822.41 384.41,-828.49"/>
<polygon fill="midnightblue" stroke="midnightblue" points="307.78,-805.59 297.23,-806.54 306.07,-812.38 307.78,-805.59"/>
</g>
<!-- Node19 -->
<g id="node8" class="node">
<title>Node19</title>
<g id="a_node8"><a xlink:href="classvsomeip__v3_1_1e2e_1_1e2e__provider.html" target="_top" xlink:title=" ">
<polygon fill="white" stroke="black" points="174.5,-666.5 174.5,-696.5 298.5,-696.5 298.5,-666.5 174.5,-666.5"/>
<text text-anchor="start" x="182.5" y="-684.5" font-family="Helvetica,sans-Serif" font-size="10.00">vsomeip_v3::e2e::e2e</text>
<text text-anchor="middle" x="236.5" y="-673.5" font-family="Helvetica,sans-Serif" font-size="10.00">_provider</text>
</a>
</g>
</g>
<!-- Node18 -->
<g id="node9" class="node">
<title>Node18</title>
<g id="a_node9"><a xlink:href="classvsomeip__v3_1_1e2e_1_1e2e__provider__impl.html" target="_top" xlink:title=" ">
<polygon fill="white" stroke="black" points="383,-666.5 383,-696.5 507,-696.5 507,-666.5 383,-666.5"/>
<text text-anchor="start" x="391" y="-684.5" font-family="Helvetica,sans-Serif" font-size="10.00">vsomeip_v3::e2e::e2e</text>
<text text-anchor="middle" x="445" y="-673.5" font-family="Helvetica,sans-Serif" font-size="10.00">_provider_impl</text>
</a>
</g>
</g>
<!-- Node19&#45;&gt;Node18 -->
<g id="edge5" class="edge">
<title>Node19&#45;&gt;Node18</title>
<path fill="none" stroke="midnightblue" d="M308.76,-681.5C332.82,-681.5 359.46,-681.5 382.68,-681.5"/>
<polygon fill="midnightblue" stroke="midnightblue" points="308.62,-678 298.62,-681.5 308.62,-685 308.62,-678"/>
</g>
<!-- Node3 -->
<g id="node10" class="node">
<title>Node3</title>
<g id="a_node10"><a xlink:title=" ">
<polygon fill="white" stroke="#bfbfbf" points="182,-392.5 182,-422.5 291,-422.5 291,-392.5 182,-392.5"/>
<text text-anchor="start" x="190" y="-410.5" font-family="Helvetica,sans-Serif" font-size="10.00">std::enable_shared</text>
<text text-anchor="middle" x="236.5" y="-399.5" font-family="Helvetica,sans-Serif" font-size="10.00">_from_this</text>
</a>
</g>
</g>
<!-- Node3&#45;&gt;Node2 -->
<g id="edge6" class="edge">
<title>Node3&#45;&gt;Node2</title>
<path fill="none" stroke="midnightblue" d="M272.59,-428.54C287.41,-439.4 303.24,-454.05 312,-471.5 363.95,-575.03 283.33,-895.4 348,-991.5 360.74,-1010.44 383.4,-1022.03 403.51,-1028.96"/>
<polygon fill="midnightblue" stroke="midnightblue" points="274.24,-425.43 264.04,-422.6 270.25,-431.18 274.24,-425.43"/>
</g>
<!-- Node3&#45;&gt;Node4 -->
<g id="edge7" class="edge">
<title>Node3&#45;&gt;Node4</title>
<path fill="none" stroke="midnightblue" d="M269.16,-428.87C283.84,-440.11 300.54,-454.99 312,-471.5 338.45,-509.62 312.72,-539.36 348,-569.5 352.39,-573.25 357.31,-576.34 362.54,-578.88"/>
<polygon fill="midnightblue" stroke="midnightblue" points="270.92,-425.82 260.8,-422.68 266.75,-431.44 270.92,-425.82"/>
</g>
<!-- Node3&#45;&gt;Node18 -->
<g id="edge12" class="edge">
<title>Node3&#45;&gt;Node18</title>
<path fill="none" stroke="midnightblue" d="M270.16,-428.66C284.92,-439.77 301.4,-454.59 312,-471.5 345.21,-524.48 313.4,-555.42 348,-607.5 365,-633.09 393.84,-653.56 415.48,-666.43"/>
<polygon fill="midnightblue" stroke="midnightblue" points="271.87,-425.58 261.72,-422.55 267.77,-431.25 271.87,-425.58"/>
</g>
<!-- Node6 -->
<g id="node11" class="node">
<title>Node6</title>
<g id="a_node11"><a xlink:href="classvsomeip__v3_1_1client__endpoint__impl.html" target="_top" xlink:title=" ">
<polygon fill="white" stroke="black" points="368,-529.5 368,-559.5 522,-559.5 522,-529.5 368,-529.5"/>
<text text-anchor="start" x="376" y="-547.5" font-family="Helvetica,sans-Serif" font-size="10.00">vsomeip_v3::client</text>
<text text-anchor="middle" x="445" y="-536.5" font-family="Helvetica,sans-Serif" font-size="10.00">_endpoint_impl&lt; Protocol &gt;</text>
</a>
</g>
</g>
<!-- Node3&#45;&gt;Node6 -->
<g id="edge8" class="edge">
<title>Node3&#45;&gt;Node6</title>
<path fill="none" stroke="midnightblue" d="M265.73,-429.19C280.26,-440.98 297.86,-456.24 312,-471.5 330.37,-491.32 325.56,-505.44 348,-520.5 354.13,-524.62 360.92,-528.03 367.95,-530.85"/>
<polygon fill="midnightblue" stroke="midnightblue" points="267.57,-426.18 257.57,-422.68 263.2,-431.66 267.57,-426.18"/>
</g>
<!-- Node30 -->
<g id="node15" class="node">
<title>Node30</title>
<g id="a_node15"><a xlink:href="classvsomeip__v3_1_1endpoint__manager__base.html" target="_top" xlink:title=" ">
<polygon fill="white" stroke="black" points="382.5,-294.5 382.5,-324.5 507.5,-324.5 507.5,-294.5 382.5,-294.5"/>
<text text-anchor="start" x="390.5" y="-312.5" font-family="Helvetica,sans-Serif" font-size="10.00">vsomeip_v3::endpoint</text>
<text text-anchor="middle" x="445" y="-301.5" font-family="Helvetica,sans-Serif" font-size="10.00">_manager_base</text>
</a>
</g>
</g>
<!-- Node3&#45;&gt;Node30 -->
<g id="edge13" class="edge">
<title>Node3&#45;&gt;Node30</title>
<path fill="none" stroke="midnightblue" d="M263.86,-386.01C285.34,-369.48 317.07,-347.22 348,-333.5 358.76,-328.73 370.63,-324.79 382.25,-321.58"/>
<polygon fill="midnightblue" stroke="midnightblue" points="261.6,-383.34 255.88,-392.26 265.91,-388.85 261.6,-383.34"/>
</g>
<!-- Node33 -->
<g id="node17" class="node">
<title>Node33</title>
<g id="a_node17"><a xlink:href="classvsomeip__v3_1_1event.html" target="_top" xlink:title=" ">
<polygon fill="white" stroke="black" points="390,-442 390,-461 500,-461 500,-442 390,-442"/>
<text text-anchor="middle" x="445" y="-449" font-family="Helvetica,sans-Serif" font-size="10.00">vsomeip_v3::event</text>
</a>
</g>
</g>
<!-- Node3&#45;&gt;Node33 -->
<g id="edge15" class="edge">
<title>Node3&#45;&gt;Node33</title>
<path fill="none" stroke="midnightblue" d="M301.03,-422.18C316.39,-425.65 332.77,-429.27 348,-432.5 363.12,-435.71 379.63,-439.03 394.62,-441.99"/>
<polygon fill="midnightblue" stroke="midnightblue" points="301.64,-418.73 291.11,-419.94 300.09,-425.56 301.64,-418.73"/>
</g>
<!-- Node34 -->
<g id="node18" class="node">
<title>Node34</title>
<g id="a_node18"><a xlink:href="classvsomeip__v3_1_1netlink__connector.html" target="_top" xlink:title=" ">
<polygon fill="white" stroke="black" points="387,-392.5 387,-422.5 503,-422.5 503,-392.5 387,-392.5"/>
<text text-anchor="start" x="395" y="-410.5" font-family="Helvetica,sans-Serif" font-size="10.00">vsomeip_v3::netlink</text>
<text text-anchor="middle" x="445" y="-399.5" font-family="Helvetica,sans-Serif" font-size="10.00">_connector</text>
</a>
</g>
</g>
<!-- Node3&#45;&gt;Node34 -->
<g id="edge16" class="edge">
<title>Node3&#45;&gt;Node34</title>
<path fill="none" stroke="midnightblue" d="M301.46,-407.5C328.78,-407.5 360.42,-407.5 386.94,-407.5"/>
<polygon fill="midnightblue" stroke="midnightblue" points="301.22,-404 291.22,-407.5 301.22,-411 301.22,-404"/>
</g>
<!-- Node35 -->
<g id="node19" class="node">
<title>Node35</title>
<g id="a_node19"><a xlink:href="classvsomeip__v3_1_1routing__manager__base.html" target="_top" xlink:title=" ">
<polygon fill="white" stroke="black" points="387,-0.5 387,-30.5 503,-30.5 503,-0.5 387,-0.5"/>
<text text-anchor="start" x="395" y="-18.5" font-family="Helvetica,sans-Serif" font-size="10.00">vsomeip_v3::routing</text>
<text text-anchor="middle" x="445" y="-7.5" font-family="Helvetica,sans-Serif" font-size="10.00">_manager_base</text>
</a>
</g>
</g>
<!-- Node3&#45;&gt;Node35 -->
<g id="edge17" class="edge">
<title>Node3&#45;&gt;Node35</title>
<path fill="none" stroke="midnightblue" d="M265.42,-385.81C281.82,-371.42 301.37,-351.07 312,-328.5 367.13,-211.39 262.18,-136.39 348,-39.5 357.97,-28.25 372.34,-21.88 386.93,-18.38"/>
<polygon fill="midnightblue" stroke="midnightblue" points="263.03,-383.24 257.67,-392.38 267.56,-388.58 263.03,-383.24"/>
</g>
<!-- Node41 -->
<g id="node22" class="node">
<title>Node41</title>
<g id="a_node22"><a xlink:href="classvsomeip__v3_1_1routing__manager__stub.html" target="_top" xlink:title=" ">
<polygon fill="white" stroke="black" points="387,-49.5 387,-79.5 503,-79.5 503,-49.5 387,-49.5"/>
<text text-anchor="start" x="395" y="-67.5" font-family="Helvetica,sans-Serif" font-size="10.00">vsomeip_v3::routing</text>
<text text-anchor="middle" x="445" y="-56.5" font-family="Helvetica,sans-Serif" font-size="10.00">_manager_stub</text>
</a>
</g>
</g>
<!-- Node3&#45;&gt;Node41 -->
<g id="edge20" class="edge">
<title>Node3&#45;&gt;Node41</title>
<path fill="none" stroke="midnightblue" d="M265.22,-385.72C281.55,-371.29 301.09,-350.94 312,-328.5 359.16,-231.49 275.48,-168.34 348,-88.5 358.05,-77.44 372.36,-71.12 386.86,-67.6"/>
<polygon fill="midnightblue" stroke="midnightblue" points="262.84,-383.15 257.51,-392.3 267.39,-388.47 262.84,-383.15"/>
</g>
<!-- Node43 -->
<g id="node23" class="node">
<title>Node43</title>
<g id="a_node23"><a xlink:href="classvsomeip__v3_1_1sd_1_1service__discovery__impl.html" target="_top" xlink:title=" ">
<polygon fill="white" stroke="black" points="378,-98.5 378,-128.5 512,-128.5 512,-98.5 378,-98.5"/>
<text text-anchor="start" x="386" y="-116.5" font-family="Helvetica,sans-Serif" font-size="10.00">vsomeip_v3::sd::service</text>
<text text-anchor="middle" x="445" y="-105.5" font-family="Helvetica,sans-Serif" font-size="10.00">_discovery_impl</text>
</a>
</g>
</g>
<!-- Node3&#45;&gt;Node43 -->
<g id="edge21" class="edge">
<title>Node3&#45;&gt;Node43</title>
<path fill="none" stroke="midnightblue" d="M264.61,-385.85C280.89,-371.35 300.6,-350.87 312,-328.5 351.21,-251.53 288.74,-200.35 348,-137.5 356.01,-129 366.54,-123.32 377.69,-119.57"/>
<polygon fill="midnightblue" stroke="midnightblue" points="262.23,-383.29 256.94,-392.47 266.8,-388.59 262.23,-383.29"/>
</g>
<!-- Node13 -->
<g id="node24" class="node">
<title>Node13</title>
<g id="a_node24"><a xlink:href="classvsomeip__v3_1_1server__endpoint__impl.html" target="_top" xlink:title=" ">
<polygon fill="white" stroke="black" points="368,-480.5 368,-510.5 522,-510.5 522,-480.5 368,-480.5"/>
<text text-anchor="start" x="376" y="-498.5" font-family="Helvetica,sans-Serif" font-size="10.00">vsomeip_v3::server</text>
<text text-anchor="middle" x="445" y="-487.5" font-family="Helvetica,sans-Serif" font-size="10.00">_endpoint_impl&lt; Protocol &gt;</text>
</a>
</g>
</g>
<!-- Node3&#45;&gt;Node13 -->
<g id="edge22" class="edge">
<title>Node3&#45;&gt;Node13</title>
<path fill="none" stroke="midnightblue" d="M268.59,-428.18C290.14,-441.76 319.9,-459.07 348,-470.5 357.17,-474.23 367.07,-477.55 376.9,-480.45"/>
<polygon fill="midnightblue" stroke="midnightblue" points="270.2,-425.05 259.89,-422.62 266.43,-430.95 270.2,-425.05"/>
</g>
<!-- Node45 -->
<g id="node28" class="node">
<title>Node45</title>
<g id="a_node28"><a xlink:href="classvsomeip__v3_1_1tp_1_1tp__reassembler.html" target="_top" xlink:title=" ">
<polygon fill="white" stroke="black" points="391.5,-343.5 391.5,-373.5 498.5,-373.5 498.5,-343.5 391.5,-343.5"/>
<text text-anchor="start" x="399.5" y="-361.5" font-family="Helvetica,sans-Serif" font-size="10.00">vsomeip_v3::tp::tp</text>
<text text-anchor="middle" x="445" y="-350.5" font-family="Helvetica,sans-Serif" font-size="10.00">_reassembler</text>
</a>
</g>
</g>
<!-- Node3&#45;&gt;Node45 -->
<g id="edge26" class="edge">
<title>Node3&#45;&gt;Node45</title>
<path fill="none" stroke="midnightblue" d="M301.21,-392.38C330.09,-385.53 363.84,-377.52 391.27,-371.01"/>
<polygon fill="midnightblue" stroke="midnightblue" points="300.14,-389.04 291.22,-394.75 301.75,-395.85 300.14,-389.04"/>
</g>
<!-- Node17 -->
<g id="node29" class="node">
<title>Node17</title>
<g id="a_node29"><a xlink:href="classvsomeip__v3_1_1virtual__server__endpoint__impl.html" target="_top" xlink:title=" ">
<polygon fill="white" stroke="black" points="381,-147.5 381,-177.5 509,-177.5 509,-147.5 381,-147.5"/>
<text text-anchor="start" x="389" y="-165.5" font-family="Helvetica,sans-Serif" font-size="10.00">vsomeip_v3::virtual</text>
<text text-anchor="middle" x="445" y="-154.5" font-family="Helvetica,sans-Serif" font-size="10.00">_server_endpoint_impl</text>
</a>
</g>
</g>
<!-- Node3&#45;&gt;Node17 -->
<g id="edge27" class="edge">
<title>Node3&#45;&gt;Node17</title>
<path fill="none" stroke="midnightblue" d="M264.14,-385.6C280.23,-371 299.91,-350.51 312,-328.5 343.34,-271.43 301.89,-232.46 348,-186.5 356.88,-177.65 368.51,-171.89 380.58,-168.19"/>
<polygon fill="midnightblue" stroke="midnightblue" points="261.76,-383.03 256.57,-392.27 266.39,-388.28 261.76,-383.03"/>
</g>
<!-- Node7 -->
<g id="node12" class="node">
<title>Node7</title>
<g id="a_node12"><a xlink:href="classvsomeip__v3_1_1local__client__endpoint__impl.html" target="_top" xlink:title=" ">
<polygon fill="white" stroke="black" points="580,-578.5 580,-608.5 717,-608.5 717,-578.5 580,-578.5"/>
<text text-anchor="start" x="588" y="-596.5" font-family="Helvetica,sans-Serif" font-size="10.00">vsomeip_v3::local_client</text>
<text text-anchor="middle" x="648.5" y="-585.5" font-family="Helvetica,sans-Serif" font-size="10.00">_endpoint_impl</text>
</a>
</g>
</g>
<!-- Node6&#45;&gt;Node7 -->
<g id="edge9" class="edge">
<title>Node6&#45;&gt;Node7</title>
<path fill="none" stroke="midnightblue" d="M517.57,-561.9C539.86,-567.32 564.24,-573.25 585.79,-578.49"/>
<polygon fill="midnightblue" stroke="midnightblue" points="518.37,-558.5 507.83,-559.53 516.72,-565.3 518.37,-558.5"/>
</g>
<!-- Node8 -->
<g id="node13" class="node">
<title>Node8</title>
<g id="a_node13"><a xlink:href="classvsomeip__v3_1_1tcp__client__endpoint__impl.html" target="_top" xlink:title=" ">
<polygon fill="white" stroke="black" points="584,-529.5 584,-559.5 713,-559.5 713,-529.5 584,-529.5"/>
<text text-anchor="start" x="592" y="-547.5" font-family="Helvetica,sans-Serif" font-size="10.00">vsomeip_v3::tcp_client</text>
<text text-anchor="middle" x="648.5" y="-536.5" font-family="Helvetica,sans-Serif" font-size="10.00">_endpoint_impl</text>
</a>
</g>
</g>
<!-- Node6&#45;&gt;Node8 -->
<g id="edge10" class="edge">
<title>Node6&#45;&gt;Node8</title>
<path fill="none" stroke="midnightblue" d="M532.26,-544.5C549.52,-544.5 567.37,-544.5 583.71,-544.5"/>
<polygon fill="midnightblue" stroke="midnightblue" points="532.18,-541 522.18,-544.5 532.18,-548 532.18,-541"/>
</g>
<!-- Node9 -->
<g id="node14" class="node">
<title>Node9</title>
<g id="a_node14"><a xlink:href="classvsomeip__v3_1_1udp__client__endpoint__impl.html" target="_top" xlink:title=" ">
<polygon fill="white" stroke="black" points="582.5,-627.5 582.5,-657.5 714.5,-657.5 714.5,-627.5 582.5,-627.5"/>
<text text-anchor="start" x="590.5" y="-645.5" font-family="Helvetica,sans-Serif" font-size="10.00">vsomeip_v3::udp_client</text>
<text text-anchor="middle" x="648.5" y="-634.5" font-family="Helvetica,sans-Serif" font-size="10.00">_endpoint_impl</text>
</a>
</g>
</g>
<!-- Node6&#45;&gt;Node9 -->
<g id="edge11" class="edge">
<title>Node6&#45;&gt;Node9</title>
<path fill="none" stroke="midnightblue" d="M531.43,-563.28C535.1,-565.16 538.65,-567.23 542,-569.5 564.36,-584.67 556.24,-602.47 578,-618.5 582.63,-621.91 587.77,-624.86 593.11,-627.41"/>
<polygon fill="midnightblue" stroke="midnightblue" points="532.6,-559.97 522.06,-558.99 529.69,-566.34 532.6,-559.97"/>
</g>
<!-- Node31 -->
<g id="node16" class="node">
<title>Node31</title>
<g id="a_node16"><a xlink:href="classvsomeip__v3_1_1endpoint__manager__impl.html" target="_top" xlink:title=" ">
<polygon fill="white" stroke="black" points="586,-294.5 586,-324.5 711,-324.5 711,-294.5 586,-294.5"/>
<text text-anchor="start" x="594" y="-312.5" font-family="Helvetica,sans-Serif" font-size="10.00">vsomeip_v3::endpoint</text>
<text text-anchor="middle" x="648.5" y="-301.5" font-family="Helvetica,sans-Serif" font-size="10.00">_manager_impl</text>
</a>
</g>
</g>
<!-- Node30&#45;&gt;Node31 -->
<g id="edge14" class="edge">
<title>Node30&#45;&gt;Node31</title>
<path fill="none" stroke="midnightblue" d="M517.65,-309.5C539.98,-309.5 564.4,-309.5 585.98,-309.5"/>
<polygon fill="midnightblue" stroke="midnightblue" points="517.55,-306 507.55,-309.5 517.55,-313 517.55,-306"/>
</g>
<!-- Node36 -->
<g id="node20" class="node">
<title>Node36</title>
<g id="a_node20"><a xlink:href="classvsomeip__v3_1_1routing__manager__impl.html" target="_top" xlink:title=" ">
<polygon fill="white" stroke="black" points="590.5,-196.5 590.5,-226.5 706.5,-226.5 706.5,-196.5 590.5,-196.5"/>
<text text-anchor="start" x="598.5" y="-214.5" font-family="Helvetica,sans-Serif" font-size="10.00">vsomeip_v3::routing</text>
<text text-anchor="middle" x="648.5" y="-203.5" font-family="Helvetica,sans-Serif" font-size="10.00">_manager_impl</text>
</a>
</g>
</g>
<!-- Node35&#45;&gt;Node36 -->
<g id="edge18" class="edge">
<title>Node35&#45;&gt;Node36</title>
<path fill="none" stroke="midnightblue" d="M512.65,-24.98C523.1,-28.43 533.3,-33.12 542,-39.5 598.5,-80.93 631.11,-162.61 642.67,-196.36"/>
<polygon fill="midnightblue" stroke="midnightblue" points="513.6,-21.61 503.02,-22.14 511.62,-28.32 513.6,-21.61"/>
</g>
<!-- Node39 -->
<g id="node21" class="node">
<title>Node39</title>
<g id="a_node21"><a xlink:href="classvsomeip__v3_1_1routing__manager__proxy.html" target="_top" xlink:title=" ">
<polygon fill="white" stroke="black" points="590.5,-0.5 590.5,-30.5 706.5,-30.5 706.5,-0.5 590.5,-0.5"/>
<text text-anchor="start" x="598.5" y="-18.5" font-family="Helvetica,sans-Serif" font-size="10.00">vsomeip_v3::routing</text>
<text text-anchor="middle" x="648.5" y="-7.5" font-family="Helvetica,sans-Serif" font-size="10.00">_manager_proxy</text>
</a>
</g>
</g>
<!-- Node35&#45;&gt;Node39 -->
<g id="edge19" class="edge">
<title>Node35&#45;&gt;Node39</title>
<path fill="none" stroke="midnightblue" d="M513.31,-15.5C538.22,-15.5 566.21,-15.5 590.15,-15.5"/>
<polygon fill="midnightblue" stroke="midnightblue" points="513.2,-12 503.2,-15.5 513.2,-19 513.2,-12"/>
</g>
<!-- Node14 -->
<g id="node25" class="node">
<title>Node14</title>
<g id="a_node25"><a xlink:href="classvsomeip__v3_1_1local__server__endpoint__impl.html" target="_top" xlink:title=" ">
<polygon fill="white" stroke="black" points="578,-382.5 578,-412.5 719,-412.5 719,-382.5 578,-382.5"/>
<text text-anchor="start" x="586" y="-400.5" font-family="Helvetica,sans-Serif" font-size="10.00">vsomeip_v3::local_server</text>
<text text-anchor="middle" x="648.5" y="-389.5" font-family="Helvetica,sans-Serif" font-size="10.00">_endpoint_impl</text>
</a>
</g>
</g>
<!-- Node13&#45;&gt;Node14 -->
<g id="edge23" class="edge">
<title>Node13&#45;&gt;Node14</title>
<path fill="none" stroke="midnightblue" d="M531.4,-476.68C535.08,-474.81 538.64,-472.76 542,-470.5 564.14,-455.64 556.55,-438.35 578,-422.5 583.16,-418.69 588.95,-415.41 594.94,-412.61"/>
<polygon fill="midnightblue" stroke="midnightblue" points="529.66,-473.62 522.01,-480.95 532.56,-479.99 529.66,-473.62"/>
</g>
<!-- Node15 -->
<g id="node26" class="node">
<title>Node15</title>
<g id="a_node26"><a xlink:href="classvsomeip__v3_1_1tcp__server__endpoint__impl.html" target="_top" xlink:title=" ">
<polygon fill="white" stroke="black" points="582,-480.5 582,-510.5 715,-510.5 715,-480.5 582,-480.5"/>
<text text-anchor="start" x="590" y="-498.5" font-family="Helvetica,sans-Serif" font-size="10.00">vsomeip_v3::tcp_server</text>
<text text-anchor="middle" x="648.5" y="-487.5" font-family="Helvetica,sans-Serif" font-size="10.00">_endpoint_impl</text>
</a>
</g>
</g>
<!-- Node13&#45;&gt;Node15 -->
<g id="edge24" class="edge">
<title>Node13&#45;&gt;Node15</title>
<path fill="none" stroke="midnightblue" d="M532.39,-495.5C548.93,-495.5 566,-495.5 581.77,-495.5"/>
<polygon fill="midnightblue" stroke="midnightblue" points="532.18,-492 522.18,-495.5 532.18,-499 532.18,-492"/>
</g>
<!-- Node16 -->
<g id="node27" class="node">
<title>Node16</title>
<g id="a_node27"><a xlink:href="classvsomeip__v3_1_1udp__server__endpoint__impl.html" target="_top" xlink:title=" ">
<polygon fill="white" stroke="black" points="580.5,-431.5 580.5,-461.5 716.5,-461.5 716.5,-431.5 580.5,-431.5"/>
<text text-anchor="start" x="588.5" y="-449.5" font-family="Helvetica,sans-Serif" font-size="10.00">vsomeip_v3::udp_server</text>
<text text-anchor="middle" x="648.5" y="-438.5" font-family="Helvetica,sans-Serif" font-size="10.00">_endpoint_impl</text>
</a>
</g>
</g>
<!-- Node13&#45;&gt;Node16 -->
<g id="edge25" class="edge">
<title>Node13&#45;&gt;Node16</title>
<path fill="none" stroke="midnightblue" d="M517.57,-478.1C539.86,-472.68 564.24,-466.75 585.79,-461.51"/>
<polygon fill="midnightblue" stroke="midnightblue" points="516.72,-474.7 507.83,-480.47 518.37,-481.5 516.72,-474.7"/>
</g>
<!-- Node11 -->
<g id="node30" class="node">
<title>Node11</title>
<g id="a_node30"><a xlink:href="classvsomeip__v3_1_1endpoint.html" target="_top" xlink:title=" ">
<polygon fill="white" stroke="black" points="0,-486 0,-505 125,-505 125,-486 0,-486"/>
<text text-anchor="middle" x="62.5" y="-493" font-family="Helvetica,sans-Serif" font-size="10.00">vsomeip_v3::endpoint</text>
</a>
</g>
</g>
<!-- Node11&#45;&gt;Node17 -->
<g id="edge33" class="edge">
<title>Node11&#45;&gt;Node17</title>
<path fill="none" stroke="midnightblue" d="M68.41,-476.04C79.19,-436.71 108.25,-346.72 161,-290.5 220.5,-227.09 317.32,-192.78 380.85,-176.07"/>
<polygon fill="midnightblue" stroke="midnightblue" points="65.02,-475.16 65.85,-485.72 71.79,-476.95 65.02,-475.16"/>
</g>
<!-- Node10 -->
<g id="node31" class="node">
<title>Node10</title>
<g id="a_node31"><a xlink:href="classvsomeip__v3_1_1client__endpoint.html" target="_top" xlink:title=" ">
<polygon fill="white" stroke="black" points="182,-529.5 182,-559.5 291,-559.5 291,-529.5 182,-529.5"/>
<text text-anchor="start" x="190" y="-547.5" font-family="Helvetica,sans-Serif" font-size="10.00">vsomeip_v3::client</text>
<text text-anchor="middle" x="236.5" y="-536.5" font-family="Helvetica,sans-Serif" font-size="10.00">_endpoint</text>
</a>
</g>
</g>
<!-- Node11&#45;&gt;Node10 -->
<g id="edge28" class="edge">
<title>Node11&#45;&gt;Node10</title>
<path fill="none" stroke="midnightblue" d="M106.91,-507.87C129.94,-514.43 158.42,-522.54 182.72,-529.46"/>
<polygon fill="midnightblue" stroke="midnightblue" points="107.65,-504.44 97.07,-505.06 105.73,-511.17 107.65,-504.44"/>
</g>
<!-- Node12 -->
<g id="node32" class="node">
<title>Node12</title>
<g id="a_node32"><a xlink:href="classvsomeip__v3_1_1endpoint__impl.html" target="_top" xlink:title=" ">
<polygon fill="white" stroke="black" points="174,-480.5 174,-510.5 299,-510.5 299,-480.5 174,-480.5"/>
<text text-anchor="start" x="182" y="-498.5" font-family="Helvetica,sans-Serif" font-size="10.00">vsomeip_v3::endpoint</text>
<text text-anchor="middle" x="236.5" y="-487.5" font-family="Helvetica,sans-Serif" font-size="10.00">_impl&lt; Protocol &gt;</text>
</a>
</g>
</g>
<!-- Node11&#45;&gt;Node12 -->
<g id="edge30" class="edge">
<title>Node11&#45;&gt;Node12</title>
<path fill="none" stroke="midnightblue" d="M135.25,-495.5C148.04,-495.5 161.26,-495.5 173.74,-495.5"/>
<polygon fill="midnightblue" stroke="midnightblue" points="135.11,-492 125.11,-495.5 135.11,-499 135.11,-492"/>
</g>
<!-- Node10&#45;&gt;Node6 -->
<g id="edge29" class="edge">
<title>Node10&#45;&gt;Node6</title>
<path fill="none" stroke="midnightblue" d="M301.29,-544.5C322.27,-544.5 345.8,-544.5 367.62,-544.5"/>
<polygon fill="midnightblue" stroke="midnightblue" points="301.22,-541 291.22,-544.5 301.22,-548 301.22,-541"/>
</g>
<!-- Node12&#45;&gt;Node6 -->
<g id="edge31" class="edge">
<title>Node12&#45;&gt;Node6</title>
<path fill="none" stroke="midnightblue" d="M308.98,-512.46C332.23,-517.98 357.87,-524.06 380.49,-529.43"/>
<polygon fill="midnightblue" stroke="midnightblue" points="309.72,-509.04 299.18,-510.14 308.1,-515.85 309.72,-509.04"/>
</g>
<!-- Node12&#45;&gt;Node13 -->
<g id="edge32" class="edge">
<title>Node12&#45;&gt;Node13</title>
<path fill="none" stroke="midnightblue" d="M309.19,-495.5C328.08,-495.5 348.53,-495.5 367.65,-495.5"/>
<polygon fill="midnightblue" stroke="midnightblue" points="309.18,-492 299.18,-495.5 309.18,-499 309.18,-492"/>
</g>
<!-- Node32 -->
<g id="node33" class="node">
<title>Node32</title>
<g id="a_node33"><a xlink:href="classvsomeip__v3_1_1endpoint__host.html" target="_top" xlink:title=" ">
<polygon fill="white" stroke="black" points="161,-300 161,-319 312,-319 312,-300 161,-300"/>
<text text-anchor="middle" x="236.5" y="-307" font-family="Helvetica,sans-Serif" font-size="10.00">vsomeip_v3::endpoint_host</text>
</a>
</g>
</g>
<!-- Node32&#45;&gt;Node30 -->
<g id="edge34" class="edge">
<title>Node32&#45;&gt;Node30</title>
<path fill="none" stroke="midnightblue" d="M322.18,-309.5C342.37,-309.5 363.54,-309.5 382.46,-309.5"/>
<polygon fill="midnightblue" stroke="midnightblue" points="322.05,-306 312.05,-309.5 322.05,-313 322.05,-306"/>
</g>
<!-- Node21 -->
<g id="node34" class="node">
<title>Node21</title>
<g id="a_node34"><a xlink:href="classvsomeip__v3_1_1plugin.html" target="_top" xlink:title=" ">
<polygon fill="white" stroke="black" points="6.5,-831 6.5,-850 118.5,-850 118.5,-831 6.5,-831"/>
<text text-anchor="middle" x="62.5" y="-838" font-family="Helvetica,sans-Serif" font-size="10.00">vsomeip_v3::plugin</text>
</a>
</g>
</g>
<!-- Node22 -->
<g id="node35" class="node">
<title>Node22</title>
<g id="a_node35"><a xlink:href="classvsomeip__v3_1_1plugin__impl.html" target="_top" xlink:title=" ">
<polygon fill="white" stroke="black" points="177,-875 177,-916 296,-916 296,-875 177,-875"/>
<text text-anchor="start" x="185" y="-904" font-family="Helvetica,sans-Serif" font-size="10.00">vsomeip_v3::plugin</text>
<text text-anchor="start" x="185" y="-893" font-family="Helvetica,sans-Serif" font-size="10.00">_impl&lt; configuration</text>
<text text-anchor="middle" x="236.5" y="-882" font-family="Helvetica,sans-Serif" font-size="10.00">_plugin_impl &gt;</text>
</a>
</g>
</g>
<!-- Node21&#45;&gt;Node22 -->
<g id="edge35" class="edge">
<title>Node21&#45;&gt;Node22</title>
<path fill="none" stroke="midnightblue" d="M103.05,-853.15C124.87,-860.12 152.39,-868.92 176.68,-876.69"/>
<polygon fill="midnightblue" stroke="midnightblue" points="104.05,-849.79 93.46,-850.08 101.92,-856.46 104.05,-849.79"/>
</g>
<!-- Node20 -->
<g id="node36" class="node">
<title>Node20</title>
<g id="a_node36"><a xlink:href="classvsomeip__v3_1_1plugin__impl.html" target="_top" xlink:title=" ">
<polygon fill="white" stroke="black" points="177,-716 177,-757 296,-757 296,-716 177,-716"/>
<text text-anchor="start" x="185" y="-745" font-family="Helvetica,sans-Serif" font-size="10.00">vsomeip_v3::plugin</text>
<text text-anchor="start" x="185" y="-734" font-family="Helvetica,sans-Serif" font-size="10.00">_impl&lt; e2e_provider</text>
<text text-anchor="middle" x="236.5" y="-723" font-family="Helvetica,sans-Serif" font-size="10.00">_impl &gt;</text>
</a>
</g>
</g>
<!-- Node21&#45;&gt;Node20 -->
<g id="edge37" class="edge">
<title>Node21&#45;&gt;Node20</title>
<path fill="none" stroke="midnightblue" d="M82.42,-824.09C101.38,-808.19 131.85,-784.13 161,-767.5 167.45,-763.82 174.42,-760.34 181.42,-757.12"/>
<polygon fill="midnightblue" stroke="midnightblue" points="79.92,-821.61 74.56,-830.76 84.45,-826.95 79.92,-821.61"/>
</g>
<!-- Node25 -->
<g id="node37" class="node">
<title>Node25</title>
<g id="a_node37"><a xlink:href="classvsomeip__v3_1_1plugin__impl.html" target="_top" xlink:title=" ">
<polygon fill="white" stroke="black" points="171,-935.5 171,-965.5 302,-965.5 302,-935.5 171,-935.5"/>
<text text-anchor="start" x="179" y="-953.5" font-family="Helvetica,sans-Serif" font-size="10.00">vsomeip_v3::plugin</text>
<text text-anchor="middle" x="236.5" y="-942.5" font-family="Helvetica,sans-Serif" font-size="10.00">_impl&lt; runtime_impl &gt;</text>
</a>
</g>
</g>
<!-- Node21&#45;&gt;Node25 -->
<g id="edge39" class="edge">
<title>Node21&#45;&gt;Node25</title>
<path fill="none" stroke="midnightblue" d="M78.82,-857.37C96.84,-876.32 128.44,-906.84 161,-925.5 167.51,-929.23 174.66,-932.51 181.88,-935.37"/>
<polygon fill="midnightblue" stroke="midnightblue" points="81.35,-854.95 71.97,-850.03 76.23,-859.73 81.35,-854.95"/>
</g>
<!-- Node28 -->
<g id="node39" class="node">
<title>Node28</title>
<g id="a_node39"><a xlink:href="classvsomeip_1_1plugin__impl.html" target="_top" xlink:title=" ">
<polygon fill="white" stroke="black" points="175.5,-825.5 175.5,-855.5 297.5,-855.5 297.5,-825.5 175.5,-825.5"/>
<text text-anchor="start" x="183.5" y="-843.5" font-family="Helvetica,sans-Serif" font-size="10.00">vsomeip::plugin_impl</text>
<text text-anchor="middle" x="236.5" y="-832.5" font-family="Helvetica,sans-Serif" font-size="10.00">&lt; Plugin_ &gt;</text>
</a>
</g>
</g>
<!-- Node21&#45;&gt;Node28 -->
<g id="edge41" class="edge">
<title>Node21&#45;&gt;Node28</title>
<path fill="none" stroke="midnightblue" d="M129.23,-840.5C144.43,-840.5 160.53,-840.5 175.48,-840.5"/>
<polygon fill="midnightblue" stroke="midnightblue" points="128.87,-837 118.87,-840.5 128.87,-844 128.87,-837"/>
</g>
<!-- Node29 -->
<g id="node40" class="node">
<title>Node29</title>
<g id="a_node40"><a xlink:href="classvsomeip__v3_1_1plugin__impl.html" target="_top" xlink:title=" ">
<polygon fill="white" stroke="black" points="180.5,-617.5 180.5,-647.5 292.5,-647.5 292.5,-617.5 180.5,-617.5"/>
<text text-anchor="start" x="188.5" y="-635.5" font-family="Helvetica,sans-Serif" font-size="10.00">vsomeip_v3::plugin</text>
<text text-anchor="middle" x="236.5" y="-624.5" font-family="Helvetica,sans-Serif" font-size="10.00">_impl&lt; Plugin_ &gt;</text>
</a>
</g>
</g>
<!-- Node21&#45;&gt;Node29 -->
<g id="edge42" class="edge">
<title>Node21&#45;&gt;Node29</title>
<path fill="none" stroke="midnightblue" d="M68.67,-820.88C79.48,-783.63 107.96,-702.4 161,-657.5 166.73,-652.65 173.43,-648.73 180.43,-645.57"/>
<polygon fill="midnightblue" stroke="midnightblue" points="65.18,-820.37 65.88,-830.94 71.92,-822.24 65.18,-820.37"/>
</g>
<!-- Node22&#45;&gt;Node23 -->
<g id="edge36" class="edge">
<title>Node22&#45;&gt;Node23</title>
<path fill="none" stroke="midnightblue" d="M306.01,-878.25C331.28,-871.88 359.7,-864.73 384.15,-858.57"/>
<polygon fill="midnightblue" stroke="midnightblue" points="304.96,-874.9 296.12,-880.74 306.67,-881.69 304.96,-874.9"/>
</g>
<!-- Node20&#45;&gt;Node18 -->
<g id="edge38" class="edge">
<title>Node20&#45;&gt;Node18</title>
<path fill="none" stroke="midnightblue" d="M306.05,-718.24C332.43,-711.22 362.23,-703.28 387.37,-696.58"/>
<polygon fill="midnightblue" stroke="midnightblue" points="304.88,-714.93 296.12,-720.89 306.69,-721.69 304.88,-714.93"/>
</g>
<!-- Node26 -->
<g id="node38" class="node">
<title>Node26</title>
<g id="a_node38"><a xlink:href="classvsomeip__v3_1_1sd_1_1runtime__impl.html" target="_top" xlink:title=" ">
<polygon fill="white" stroke="black" points="363,-963 363,-982 527,-982 527,-963 363,-963"/>
<text text-anchor="middle" x="445" y="-970" font-family="Helvetica,sans-Serif" font-size="10.00">vsomeip_v3::sd::runtime_impl</text>
</a>
</g>
</g>
<!-- Node25&#45;&gt;Node26 -->
<g id="edge40" class="edge">
<title>Node25&#45;&gt;Node26</title>
<path fill="none" stroke="midnightblue" d="M312.32,-958.47C328.69,-960.22 346.11,-962.07 362.72,-963.84"/>
<polygon fill="midnightblue" stroke="midnightblue" points="312.59,-954.98 302.27,-957.4 311.84,-961.94 312.59,-954.98"/>
</g>
<!-- Node40 -->
<g id="node41" class="node">
<title>Node40</title>
<g id="a_node41"><a xlink:href="classvsomeip__v3_1_1routing__host.html" target="_top" xlink:title=" ">
<polygon fill="white" stroke="black" points="165,-53 165,-72 308,-72 308,-53 165,-53"/>
<text text-anchor="middle" x="236.5" y="-60" font-family="Helvetica,sans-Serif" font-size="10.00">vsomeip_v3::routing_host</text>
</a>
</g>
</g>
<!-- Node40&#45;&gt;Node35 -->
<g id="edge43" class="edge">
<title>Node40&#45;&gt;Node35</title>
<path fill="none" stroke="midnightblue" d="M289.42,-50.68C319.02,-43.95 356.16,-35.49 386.62,-28.56"/>
<polygon fill="midnightblue" stroke="midnightblue" points="288.26,-47.36 279.29,-52.99 289.82,-54.18 288.26,-47.36"/>
</g>
<!-- Node40&#45;&gt;Node41 -->
<g id="edge44" class="edge">
<title>Node40&#45;&gt;Node41</title>
<path fill="none" stroke="midnightblue" d="M318.34,-63.28C341.28,-63.51 365.77,-63.74 386.98,-63.95"/>
<polygon fill="midnightblue" stroke="midnightblue" points="318.31,-59.78 308.28,-63.19 318.24,-66.78 318.31,-59.78"/>
</g>
<!-- Node42 -->
<g id="node42" class="node">
<title>Node42</title>
<g id="a_node42"><a xlink:href="classvsomeip__v3_1_1routing__manager.html" target="_top" xlink:title=" ">
<polygon fill="white" stroke="black" points="178.5,-0.5 178.5,-30.5 294.5,-30.5 294.5,-0.5 178.5,-0.5"/>
<text text-anchor="start" x="186.5" y="-18.5" font-family="Helvetica,sans-Serif" font-size="10.00">vsomeip_v3::routing</text>
<text text-anchor="middle" x="236.5" y="-7.5" font-family="Helvetica,sans-Serif" font-size="10.00">_manager</text>
</a>
</g>
</g>
<!-- Node42&#45;&gt;Node35 -->
<g id="edge45" class="edge">
<title>Node42&#45;&gt;Node35</title>
<path fill="none" stroke="midnightblue" d="M305.09,-15.5C331.58,-15.5 361.63,-15.5 387,-15.5"/>
<polygon fill="midnightblue" stroke="midnightblue" points="304.75,-12 294.75,-15.5 304.75,-19 304.75,-12"/>
</g>
<!-- Node46 -->
<g id="node43" class="node">
<title>Node46</title>
<g id="a_node43"><a xlink:href="classvsomeip__v3_1_1routing__manager__host.html" target="_top" xlink:title=" ">
<polygon fill="white" stroke="black" points="178.5,-1023.5 178.5,-1053.5 294.5,-1053.5 294.5,-1023.5 178.5,-1023.5"/>
<text text-anchor="start" x="186.5" y="-1041.5" font-family="Helvetica,sans-Serif" font-size="10.00">vsomeip_v3::routing</text>
<text text-anchor="middle" x="236.5" y="-1030.5" font-family="Helvetica,sans-Serif" font-size="10.00">_manager_host</text>
</a>
</g>
</g>
<!-- Node46&#45;&gt;Node2 -->
<g id="edge46" class="edge">
<title>Node46&#45;&gt;Node2</title>
<path fill="none" stroke="midnightblue" d="M304.93,-1038.5C323.62,-1038.5 344.09,-1038.5 363.45,-1038.5"/>
<polygon fill="midnightblue" stroke="midnightblue" points="304.75,-1035 294.75,-1038.5 304.75,-1042 304.75,-1035"/>
</g>
<!-- Node37 -->
<g id="node44" class="node">
<title>Node37</title>
<g id="a_node44"><a xlink:href="classvsomeip__v3_1_1routing__manager__stub__host.html" target="_top" xlink:title=" ">
<polygon fill="white" stroke="black" points="386,-245.5 386,-275.5 504,-275.5 504,-245.5 386,-245.5"/>
<text text-anchor="start" x="394" y="-263.5" font-family="Helvetica,sans-Serif" font-size="10.00">vsomeip_v3::routing</text>
<text text-anchor="middle" x="445" y="-252.5" font-family="Helvetica,sans-Serif" font-size="10.00">_manager_stub_host</text>
</a>
</g>
</g>
<!-- Node37&#45;&gt;Node36 -->
<g id="edge47" class="edge">
<title>Node37&#45;&gt;Node36</title>
<path fill="none" stroke="midnightblue" d="M514.06,-243.95C538.81,-237.93 566.52,-231.19 590.25,-225.42"/>
<polygon fill="midnightblue" stroke="midnightblue" points="512.9,-240.63 504.01,-246.39 514.56,-247.43 512.9,-240.63"/>
</g>
<!-- Node27 -->
<g id="node45" class="node">
<title>Node27</title>
<g id="a_node45"><a xlink:href="classvsomeip__v3_1_1sd_1_1runtime.html" target="_top" xlink:title=" ">
<polygon fill="white" stroke="black" points="168,-985 168,-1004 305,-1004 305,-985 168,-985"/>
<text text-anchor="middle" x="236.5" y="-992" font-family="Helvetica,sans-Serif" font-size="10.00">vsomeip_v3::sd::runtime</text>
</a>
</g>
</g>
<!-- Node27&#45;&gt;Node26 -->
<g id="edge48" class="edge">
<title>Node27&#45;&gt;Node26</title>
<path fill="none" stroke="midnightblue" d="M315.22,-986.22C330.81,-984.56 347.22,-982.81 362.92,-981.14"/>
<polygon fill="midnightblue" stroke="midnightblue" points="314.69,-982.76 305.12,-987.3 315.43,-989.72 314.69,-982.76"/>
</g>
<!-- Node44 -->
<g id="node46" class="node">
<title>Node44</title>
<g id="a_node46"><a xlink:href="classvsomeip__v3_1_1sd_1_1service__discovery.html" target="_top" xlink:title=" ">
<polygon fill="white" stroke="black" points="169.5,-98.5 169.5,-128.5 303.5,-128.5 303.5,-98.5 169.5,-98.5"/>
<text text-anchor="start" x="177.5" y="-116.5" font-family="Helvetica,sans-Serif" font-size="10.00">vsomeip_v3::sd::service</text>
<text text-anchor="middle" x="236.5" y="-105.5" font-family="Helvetica,sans-Serif" font-size="10.00">_discovery</text>
</a>
</g>
</g>
<!-- Node44&#45;&gt;Node43 -->
<g id="edge49" class="edge">
<title>Node44&#45;&gt;Node43</title>
<path fill="none" stroke="midnightblue" d="M313.86,-113.5C334.86,-113.5 357.45,-113.5 377.83,-113.5"/>
<polygon fill="midnightblue" stroke="midnightblue" points="313.69,-110 303.69,-113.5 313.69,-117 313.69,-110"/>
</g>
<!-- Node38 -->
<g id="node47" class="node">
<title>Node38</title>
<g id="a_node47"><a xlink:href="classvsomeip__v3_1_1sd_1_1service__discovery__host.html" target="_top" xlink:title=" ">
<polygon fill="white" stroke="black" points="378,-196.5 378,-226.5 512,-226.5 512,-196.5 378,-196.5"/>
<text text-anchor="start" x="386" y="-214.5" font-family="Helvetica,sans-Serif" font-size="10.00">vsomeip_v3::sd::service</text>
<text text-anchor="middle" x="445" y="-203.5" font-family="Helvetica,sans-Serif" font-size="10.00">_discovery_host</text>
</a>
</g>
</g>
<!-- Node38&#45;&gt;Node36 -->
<g id="edge50" class="edge">
<title>Node38&#45;&gt;Node36</title>
<path fill="none" stroke="midnightblue" d="M522.47,-211.5C544.99,-211.5 569.24,-211.5 590.33,-211.5"/>
<polygon fill="midnightblue" stroke="midnightblue" points="522.26,-208 512.26,-211.5 522.26,-215 522.26,-208"/>
</g>
</g>
</svg>
