<?xml version="1.0" encoding="UTF-8" standalone="no"?>
<!DOCTYPE svg PUBLIC "-//W3C//DTD SVG 1.1//EN"
 "http://www.w3.org/Graphics/SVG/1.1/DTD/svg11.dtd">
<!-- Generated by graphviz version 2.43.0 (0)
 -->
<!-- Title: /home/kali/projects/vsomeip/interface/compat/vsomeip/runtime.hpp Pages: 1 -->
<svg width="520pt" height="173pt"
 viewBox="0.00 0.00 520.00 173.00" xmlns="http://www.w3.org/2000/svg" xmlns:xlink="http://www.w3.org/1999/xlink">
<g id="graph0" class="graph" transform="scale(1 1) rotate(0) translate(4 169)">
<title>/home/kali/projects/vsomeip/interface/compat/vsomeip/runtime.hpp</title>
<polygon fill="white" stroke="transparent" points="-4,4 -4,-169 516,-169 516,4 -4,4"/>
<!-- Node1 -->
<g id="node1" class="node">
<title>Node1</title>
<g id="a_node1"><a xlink:title=" ">
<polygon fill="#bfbfbf" stroke="black" points="88,-123.5 88,-164.5 236,-164.5 236,-123.5 88,-123.5"/>
<text text-anchor="start" x="96" y="-152.5" font-family="Helvetica,sans-Serif" font-size="10.00">/home/kali/projects</text>
<text text-anchor="start" x="96" y="-141.5" font-family="Helvetica,sans-Serif" font-size="10.00">/vsomeip/interface/compat</text>
<text text-anchor="middle" x="162" y="-130.5" font-family="Helvetica,sans-Serif" font-size="10.00">/vsomeip/runtime.hpp</text>
</a>
</g>
</g>
<!-- Node2 -->
<g id="node2" class="node">
<title>Node2</title>
<g id="a_node2"><a xlink:title=" ">
<polygon fill="white" stroke="#bfbfbf" points="0,-62 0,-81 58,-81 58,-62 0,-62"/>
<text text-anchor="middle" x="29" y="-69" font-family="Helvetica,sans-Serif" font-size="10.00">memory</text>
</a>
</g>
</g>
<!-- Node1&#45;&gt;Node2 -->
<g id="edge1" class="edge">
<title>Node1&#45;&gt;Node2</title>
<path fill="none" stroke="midnightblue" d="M124.95,-123.36C102.49,-111.46 74.42,-96.58 54.45,-85.99"/>
<polygon fill="midnightblue" stroke="midnightblue" points="55.84,-82.76 45.36,-81.17 52.56,-88.95 55.84,-82.76"/>
</g>
<!-- Node3 -->
<g id="node3" class="node">
<title>Node3</title>
<g id="a_node3"><a xlink:title=" ">
<polygon fill="white" stroke="#bfbfbf" points="76,-62 76,-81 120,-81 120,-62 76,-62"/>
<text text-anchor="middle" x="98" y="-69" font-family="Helvetica,sans-Serif" font-size="10.00">string</text>
</a>
</g>
</g>
<!-- Node1&#45;&gt;Node3 -->
<g id="edge2" class="edge">
<title>Node1&#45;&gt;Node3</title>
<path fill="none" stroke="midnightblue" d="M144.17,-123.36C134.25,-112.43 122.05,-98.99 112.68,-88.67"/>
<polygon fill="midnightblue" stroke="midnightblue" points="115.19,-86.23 105.87,-81.17 110,-90.93 115.19,-86.23"/>
</g>
<!-- Node4 -->
<g id="node4" class="node">
<title>Node4</title>
<g id="a_node4"><a xlink:title=" ">
<polygon fill="white" stroke="#bfbfbf" points="138.5,-62 138.5,-81 185.5,-81 185.5,-62 138.5,-62"/>
<text text-anchor="middle" x="162" y="-69" font-family="Helvetica,sans-Serif" font-size="10.00">vector</text>
</a>
</g>
</g>
<!-- Node1&#45;&gt;Node4 -->
<g id="edge3" class="edge">
<title>Node1&#45;&gt;Node4</title>
<path fill="none" stroke="midnightblue" d="M162,-123.36C162,-113.3 162,-101.1 162,-91.18"/>
<polygon fill="midnightblue" stroke="midnightblue" points="165.5,-91.17 162,-81.17 158.5,-91.17 165.5,-91.17"/>
</g>
<!-- Node5 -->
<g id="node5" class="node">
<title>Node5</title>
<g id="a_node5"><a xlink:href="compat_2vsomeip_2export_8hpp.html" target="_top" xlink:title=" ">
<polygon fill="white" stroke="black" points="204,-56.5 204,-86.5 320,-86.5 320,-56.5 204,-56.5"/>
<text text-anchor="start" x="212" y="-74.5" font-family="Helvetica,sans-Serif" font-size="10.00">../../compat/vsomeip</text>
<text text-anchor="middle" x="262" y="-63.5" font-family="Helvetica,sans-Serif" font-size="10.00">/export.hpp</text>
</a>
</g>
</g>
<!-- Node1&#45;&gt;Node5 -->
<g id="edge4" class="edge">
<title>Node1&#45;&gt;Node5</title>
<path fill="none" stroke="midnightblue" d="M189.86,-123.36C203.41,-113.8 219.69,-102.33 233.36,-92.69"/>
<polygon fill="midnightblue" stroke="midnightblue" points="235.74,-95.29 241.9,-86.67 231.71,-89.57 235.74,-95.29"/>
</g>
<!-- Node6 -->
<g id="node6" class="node">
<title>Node6</title>
<g id="a_node6"><a xlink:href="interface_2compat_2vsomeip_2primitive__types_8hpp.html" target="_top" xlink:title=" ">
<polygon fill="white" stroke="black" points="338.5,-56.5 338.5,-86.5 455.5,-86.5 455.5,-56.5 338.5,-56.5"/>
<text text-anchor="start" x="346.5" y="-74.5" font-family="Helvetica,sans-Serif" font-size="10.00">../../compat/vsomeip</text>
<text text-anchor="middle" x="397" y="-63.5" font-family="Helvetica,sans-Serif" font-size="10.00">/primitive_types.hpp</text>
</a>
</g>
</g>
<!-- Node1&#45;&gt;Node6 -->
<g id="edge5" class="edge">
<title>Node1&#45;&gt;Node6</title>
<path fill="none" stroke="midnightblue" d="M227.15,-123.46C262.63,-112.81 306.12,-99.76 340.21,-89.54"/>
<polygon fill="midnightblue" stroke="midnightblue" points="341.44,-92.82 350.01,-86.6 339.43,-86.12 341.44,-92.82"/>
</g>
<!-- Node7 -->
<g id="node7" class="node">
<title>Node7</title>
<g id="a_node7"><a xlink:title=" ">
<polygon fill="white" stroke="#bfbfbf" points="312,-0.5 312,-19.5 354,-19.5 354,-0.5 312,-0.5"/>
<text text-anchor="middle" x="333" y="-7.5" font-family="Helvetica,sans-Serif" font-size="10.00">array</text>
</a>
</g>
</g>
<!-- Node6&#45;&gt;Node7 -->
<g id="edge6" class="edge">
<title>Node6&#45;&gt;Node7</title>
<path fill="none" stroke="midnightblue" d="M381.83,-56.4C372.25,-47.49 359.84,-35.95 349.93,-26.74"/>
<polygon fill="midnightblue" stroke="midnightblue" points="352.02,-23.9 342.31,-19.66 347.25,-29.03 352.02,-23.9"/>
</g>
<!-- Node8 -->
<g id="node8" class="node">
<title>Node8</title>
<g id="a_node8"><a xlink:title=" ">
<polygon fill="white" stroke="#bfbfbf" points="372,-0.5 372,-19.5 422,-19.5 422,-0.5 372,-0.5"/>
<text text-anchor="middle" x="397" y="-7.5" font-family="Helvetica,sans-Serif" font-size="10.00">cstdint</text>
</a>
</g>
</g>
<!-- Node6&#45;&gt;Node8 -->
<g id="edge7" class="edge">
<title>Node6&#45;&gt;Node8</title>
<path fill="none" stroke="midnightblue" d="M397,-56.4C397,-48.47 397,-38.46 397,-29.86"/>
<polygon fill="midnightblue" stroke="midnightblue" points="400.5,-29.66 397,-19.66 393.5,-29.66 400.5,-29.66"/>
</g>
<!-- Node9 -->
<g id="node9" class="node">
<title>Node9</title>
<g id="a_node9"><a xlink:title=" ">
<polygon fill="white" stroke="#bfbfbf" points="440,-0.5 440,-19.5 512,-19.5 512,-0.5 440,-0.5"/>
<text text-anchor="middle" x="476" y="-7.5" font-family="Helvetica,sans-Serif" font-size="10.00">sys/types.h</text>
</a>
</g>
</g>
<!-- Node6&#45;&gt;Node9 -->
<g id="edge8" class="edge">
<title>Node6&#45;&gt;Node9</title>
<path fill="none" stroke="midnightblue" d="M415.72,-56.4C427.91,-47.22 443.79,-35.26 456.19,-25.92"/>
<polygon fill="midnightblue" stroke="midnightblue" points="458.62,-28.47 464.5,-19.66 454.41,-22.88 458.62,-28.47"/>
</g>
</g>
</svg>
