<?xml version="1.0" encoding="UTF-8" standalone="no"?>
<!DOCTYPE svg PUBLIC "-//W3C//DTD SVG 1.1//EN"
 "http://www.w3.org/Graphics/SVG/1.1/DTD/svg11.dtd">
<!-- Generated by graphviz version 2.43.0 (0)
 -->
<!-- Title: /home/kali/projects/vsomeip/interface/compat/vsomeip/runtime.hpp Pages: 1 -->
<svg width="624pt" height="228pt"
 viewBox="0.00 0.00 624.00 228.00" xmlns="http://www.w3.org/2000/svg" xmlns:xlink="http://www.w3.org/1999/xlink">
<g id="graph0" class="graph" transform="scale(1 1) rotate(0) translate(4 224)">
<title>/home/kali/projects/vsomeip/interface/compat/vsomeip/runtime.hpp</title>
<polygon fill="white" stroke="transparent" points="-4,4 -4,-224 620,-224 620,4 -4,4"/>
<!-- Node1 -->
<g id="node1" class="node">
<title>Node1</title>
<g id="a_node1"><a xlink:title=" ">
<polygon fill="#bfbfbf" stroke="black" points="202,-178.5 202,-219.5 350,-219.5 350,-178.5 202,-178.5"/>
<text text-anchor="start" x="210" y="-207.5" font-family="Helvetica,sans-Serif" font-size="10.00">/home/kali/projects</text>
<text text-anchor="start" x="210" y="-196.5" font-family="Helvetica,sans-Serif" font-size="10.00">/vsomeip/interface/compat</text>
<text text-anchor="middle" x="276" y="-185.5" font-family="Helvetica,sans-Serif" font-size="10.00">/vsomeip/runtime.hpp</text>
</a>
</g>
</g>
<!-- Node2 -->
<g id="node2" class="node">
<title>Node2</title>
<g id="a_node2"><a xlink:href="compat_2runtime_2include_2runtime__impl_8hpp.html" target="_top" xlink:title=" ">
<polygon fill="white" stroke="black" points="116.5,-89.5 116.5,-141.5 259.5,-141.5 259.5,-89.5 116.5,-89.5"/>
<text text-anchor="start" x="124.5" y="-129.5" font-family="Helvetica,sans-Serif" font-size="10.00">/home/kali/projects</text>
<text text-anchor="start" x="124.5" y="-118.5" font-family="Helvetica,sans-Serif" font-size="10.00">/vsomeip/implementation</text>
<text text-anchor="start" x="124.5" y="-107.5" font-family="Helvetica,sans-Serif" font-size="10.00">/compat/runtime/include</text>
<text text-anchor="middle" x="188" y="-96.5" font-family="Helvetica,sans-Serif" font-size="10.00">/runtime_impl.hpp</text>
</a>
</g>
</g>
<!-- Node1&#45;&gt;Node2 -->
<g id="edge1" class="edge">
<title>Node1&#45;&gt;Node2</title>
<path fill="none" stroke="midnightblue" d="M247.11,-171.24C236.81,-161.71 225.25,-151 215.11,-141.61"/>
<polygon fill="midnightblue" stroke="midnightblue" points="244.98,-174.04 254.7,-178.27 249.74,-168.91 244.98,-174.04"/>
</g>
<!-- Node3 -->
<g id="node3" class="node">
<title>Node3</title>
<g id="a_node3"><a xlink:href="compat_2runtime_2src_2runtime_8cpp.html" target="_top" xlink:title=" ">
<polygon fill="white" stroke="black" points="0,-6 0,-47 176,-47 176,-6 0,-6"/>
<text text-anchor="start" x="8" y="-35" font-family="Helvetica,sans-Serif" font-size="10.00">/home/kali/projects</text>
<text text-anchor="start" x="8" y="-24" font-family="Helvetica,sans-Serif" font-size="10.00">/vsomeip/implementation</text>
<text text-anchor="middle" x="88" y="-13" font-family="Helvetica,sans-Serif" font-size="10.00">/compat/runtime/src/runtime.cpp</text>
</a>
</g>
</g>
<!-- Node1&#45;&gt;Node3 -->
<g id="edge5" class="edge">
<title>Node1&#45;&gt;Node3</title>
<path fill="none" stroke="midnightblue" d="M191.89,-188.5C160.95,-180.78 128.3,-166.9 107,-142 84.21,-115.36 83.62,-72.04 85.58,-47.02"/>
<polygon fill="midnightblue" stroke="midnightblue" points="191.33,-191.96 201.86,-190.8 192.9,-185.14 191.33,-191.96"/>
</g>
<!-- Node5 -->
<g id="node5" class="node">
<title>Node5</title>
<g id="a_node5"><a xlink:href="compat_2runtime_2src_2application__impl_8cpp.html" target="_top" xlink:title=" ">
<polygon fill="white" stroke="black" points="278,-89.5 278,-141.5 450,-141.5 450,-89.5 278,-89.5"/>
<text text-anchor="start" x="286" y="-129.5" font-family="Helvetica,sans-Serif" font-size="10.00">/home/kali/projects</text>
<text text-anchor="start" x="286" y="-118.5" font-family="Helvetica,sans-Serif" font-size="10.00">/vsomeip/implementation</text>
<text text-anchor="start" x="286" y="-107.5" font-family="Helvetica,sans-Serif" font-size="10.00">/compat/runtime/src/application</text>
<text text-anchor="middle" x="364" y="-96.5" font-family="Helvetica,sans-Serif" font-size="10.00">_impl.cpp</text>
</a>
</g>
</g>
<!-- Node1&#45;&gt;Node5 -->
<g id="edge4" class="edge">
<title>Node1&#45;&gt;Node5</title>
<path fill="none" stroke="midnightblue" d="M304.89,-171.24C315.19,-161.71 326.75,-151 336.89,-141.61"/>
<polygon fill="midnightblue" stroke="midnightblue" points="302.26,-168.91 297.3,-178.27 307.02,-174.04 302.26,-168.91"/>
</g>
<!-- Node6 -->
<g id="node6" class="node">
<title>Node6</title>
<g id="a_node6"><a xlink:href="compat_2vsomeip_2vsomeip_8hpp.html" target="_top" xlink:title=" ">
<polygon fill="white" stroke="black" points="468,-95 468,-136 616,-136 616,-95 468,-95"/>
<text text-anchor="start" x="476" y="-124" font-family="Helvetica,sans-Serif" font-size="10.00">/home/kali/projects</text>
<text text-anchor="start" x="476" y="-113" font-family="Helvetica,sans-Serif" font-size="10.00">/vsomeip/interface/compat</text>
<text text-anchor="middle" x="542" y="-102" font-family="Helvetica,sans-Serif" font-size="10.00">/vsomeip/vsomeip.hpp</text>
</a>
</g>
</g>
<!-- Node1&#45;&gt;Node6 -->
<g id="edge6" class="edge">
<title>Node1&#45;&gt;Node6</title>
<path fill="none" stroke="midnightblue" d="M349.63,-175.49C383.02,-165.27 423.01,-153.04 459,-142 465.2,-140.1 471.65,-138.12 478.11,-136.14"/>
<polygon fill="midnightblue" stroke="midnightblue" points="348.49,-172.18 339.95,-178.45 350.53,-178.87 348.49,-172.18"/>
</g>
<!-- Node2&#45;&gt;Node3 -->
<g id="edge2" class="edge">
<title>Node2&#45;&gt;Node3</title>
<path fill="none" stroke="midnightblue" d="M151.24,-82.51C137.58,-70.64 122.51,-57.53 110.51,-47.08"/>
<polygon fill="midnightblue" stroke="midnightblue" points="149.23,-85.41 159.08,-89.34 153.83,-80.13 149.23,-85.41"/>
</g>
<!-- Node4 -->
<g id="node4" class="node">
<title>Node4</title>
<g id="a_node4"><a xlink:href="compat_2runtime_2src_2runtime__impl_8cpp.html" target="_top" xlink:title=" ">
<polygon fill="white" stroke="black" points="194,-0.5 194,-52.5 350,-52.5 350,-0.5 194,-0.5"/>
<text text-anchor="start" x="202" y="-40.5" font-family="Helvetica,sans-Serif" font-size="10.00">/home/kali/projects</text>
<text text-anchor="start" x="202" y="-29.5" font-family="Helvetica,sans-Serif" font-size="10.00">/vsomeip/implementation</text>
<text text-anchor="start" x="202" y="-18.5" font-family="Helvetica,sans-Serif" font-size="10.00">/compat/runtime/src/runtime</text>
<text text-anchor="middle" x="272" y="-7.5" font-family="Helvetica,sans-Serif" font-size="10.00">_impl.cpp</text>
</a>
</g>
</g>
<!-- Node2&#45;&gt;Node4 -->
<g id="edge3" class="edge">
<title>Node2&#45;&gt;Node4</title>
<path fill="none" stroke="midnightblue" d="M219.31,-82.08C228.71,-72.34 238.88,-61.8 247.76,-52.61"/>
<polygon fill="midnightblue" stroke="midnightblue" points="216.72,-79.71 212.3,-89.34 221.76,-84.57 216.72,-79.71"/>
</g>
</g>
</svg>
