<?xml version="1.0" encoding="UTF-8" standalone="no"?>
<!DOCTYPE svg PUBLIC "-//W3C//DTD SVG 1.1//EN"
 "http://www.w3.org/Graphics/SVG/1.1/DTD/svg11.dtd">
<!-- Generated by graphviz version 2.43.0 (0)
 -->
<!-- Title: /home/kali/projects/vsomeip/interface/vsomeip/primitive_types.hpp Pages: 1 -->
<svg width="270pt" height="106pt"
 viewBox="0.00 0.00 270.00 106.00" xmlns="http://www.w3.org/2000/svg" xmlns:xlink="http://www.w3.org/1999/xlink">
<g id="graph0" class="graph" transform="scale(1 1) rotate(0) translate(4 102)">
<title>/home/kali/projects/vsomeip/interface/vsomeip/primitive_types.hpp</title>
<polygon fill="white" stroke="transparent" points="-4,4 -4,-102 266,-102 266,4 -4,4"/>
<!-- Node1 -->
<g id="node1" class="node">
<title>Node1</title>
<g id="a_node1"><a xlink:title=" ">
<polygon fill="#bfbfbf" stroke="black" points="40.5,-56.5 40.5,-97.5 193.5,-97.5 193.5,-56.5 40.5,-56.5"/>
<text text-anchor="start" x="48.5" y="-85.5" font-family="Helvetica,sans-Serif" font-size="10.00">/home/kali/projects</text>
<text text-anchor="start" x="48.5" y="-74.5" font-family="Helvetica,sans-Serif" font-size="10.00">/vsomeip/interface/vsomeip</text>
<text text-anchor="middle" x="117" y="-63.5" font-family="Helvetica,sans-Serif" font-size="10.00">/primitive_types.hpp</text>
</a>
</g>
</g>
<!-- Node2 -->
<g id="node2" class="node">
<title>Node2</title>
<g id="a_node2"><a xlink:title=" ">
<polygon fill="white" stroke="#bfbfbf" points="0,-0.5 0,-19.5 42,-19.5 42,-0.5 0,-0.5"/>
<text text-anchor="middle" x="21" y="-7.5" font-family="Helvetica,sans-Serif" font-size="10.00">array</text>
</a>
</g>
</g>
<!-- Node1&#45;&gt;Node2 -->
<g id="edge1" class="edge">
<title>Node1&#45;&gt;Node2</title>
<path fill="none" stroke="midnightblue" d="M88.2,-56.5C73.48,-46.53 55.88,-34.61 42.38,-25.48"/>
<polygon fill="midnightblue" stroke="midnightblue" points="44.02,-22.36 33.78,-19.65 40.1,-28.16 44.02,-22.36"/>
</g>
<!-- Node3 -->
<g id="node3" class="node">
<title>Node3</title>
<g id="a_node3"><a xlink:title=" ">
<polygon fill="white" stroke="#bfbfbf" points="60,-0.5 60,-19.5 110,-19.5 110,-0.5 60,-0.5"/>
<text text-anchor="middle" x="85" y="-7.5" font-family="Helvetica,sans-Serif" font-size="10.00">cstdint</text>
</a>
</g>
</g>
<!-- Node1&#45;&gt;Node3 -->
<g id="edge2" class="edge">
<title>Node1&#45;&gt;Node3</title>
<path fill="none" stroke="midnightblue" d="M107.4,-56.5C103.06,-47.68 97.97,-37.34 93.74,-28.74"/>
<polygon fill="midnightblue" stroke="midnightblue" points="96.82,-27.08 89.26,-19.65 90.54,-30.17 96.82,-27.08"/>
</g>
<!-- Node4 -->
<g id="node4" class="node">
<title>Node4</title>
<g id="a_node4"><a xlink:title=" ">
<polygon fill="white" stroke="#bfbfbf" points="128,-0.5 128,-19.5 172,-19.5 172,-0.5 128,-0.5"/>
<text text-anchor="middle" x="150" y="-7.5" font-family="Helvetica,sans-Serif" font-size="10.00">string</text>
</a>
</g>
</g>
<!-- Node1&#45;&gt;Node4 -->
<g id="edge3" class="edge">
<title>Node1&#45;&gt;Node4</title>
<path fill="none" stroke="midnightblue" d="M126.9,-56.5C131.38,-47.68 136.63,-37.34 140.99,-28.74"/>
<polygon fill="midnightblue" stroke="midnightblue" points="144.2,-30.15 145.61,-19.65 137.96,-26.98 144.2,-30.15"/>
</g>
<!-- Node5 -->
<g id="node5" class="node">
<title>Node5</title>
<g id="a_node5"><a xlink:title=" ">
<polygon fill="white" stroke="#bfbfbf" points="190,-0.5 190,-19.5 262,-19.5 262,-0.5 190,-0.5"/>
<text text-anchor="middle" x="226" y="-7.5" font-family="Helvetica,sans-Serif" font-size="10.00">sys/types.h</text>
</a>
</g>
</g>
<!-- Node1&#45;&gt;Node5 -->
<g id="edge4" class="edge">
<title>Node1&#45;&gt;Node5</title>
<path fill="none" stroke="midnightblue" d="M149.7,-56.5C166.74,-46.34 187.17,-34.16 202.6,-24.95"/>
<polygon fill="midnightblue" stroke="midnightblue" points="204.69,-27.78 211.49,-19.65 201.11,-21.77 204.69,-27.78"/>
</g>
</g>
</svg>
