<?xml version="1.0" encoding="UTF-8" standalone="no"?>
<!DOCTYPE svg PUBLIC "-//W3C//DTD SVG 1.1//EN"
 "http://www.w3.org/Graphics/SVG/1.1/DTD/svg11.dtd">
<!-- Generated by graphviz version 2.43.0 (0)
 -->
<!-- Title: /home/kali/projects/vsomeip/interface/compat/vsomeip/constants.hpp Pages: 1 -->
<svg width="494pt" height="306pt"
 viewBox="0.00 0.00 494.00 306.00" xmlns="http://www.w3.org/2000/svg" xmlns:xlink="http://www.w3.org/1999/xlink">
<g id="graph0" class="graph" transform="scale(1 1) rotate(0) translate(4 302)">
<title>/home/kali/projects/vsomeip/interface/compat/vsomeip/constants.hpp</title>
<polygon fill="white" stroke="transparent" points="-4,4 -4,-302 490,-302 490,4 -4,4"/>
<!-- Node1 -->
<g id="node1" class="node">
<title>Node1</title>
<g id="a_node1"><a xlink:title=" ">
<polygon fill="#bfbfbf" stroke="black" points="236,-256.5 236,-297.5 384,-297.5 384,-256.5 236,-256.5"/>
<text text-anchor="start" x="244" y="-285.5" font-family="Helvetica,sans-Serif" font-size="10.00">/home/kali/projects</text>
<text text-anchor="start" x="244" y="-274.5" font-family="Helvetica,sans-Serif" font-size="10.00">/vsomeip/interface/compat</text>
<text text-anchor="middle" x="310" y="-263.5" font-family="Helvetica,sans-Serif" font-size="10.00">/vsomeip/constants.hpp</text>
</a>
</g>
</g>
<!-- Node2 -->
<g id="node2" class="node">
<title>Node2</title>
<g id="a_node2"><a xlink:href="compat_2vsomeip_2application_8hpp.html" target="_top" xlink:title=" ">
<polygon fill="white" stroke="black" points="134,-178.5 134,-219.5 282,-219.5 282,-178.5 134,-178.5"/>
<text text-anchor="start" x="142" y="-207.5" font-family="Helvetica,sans-Serif" font-size="10.00">/home/kali/projects</text>
<text text-anchor="start" x="142" y="-196.5" font-family="Helvetica,sans-Serif" font-size="10.00">/vsomeip/interface/compat</text>
<text text-anchor="middle" x="208" y="-185.5" font-family="Helvetica,sans-Serif" font-size="10.00">/vsomeip/application.hpp</text>
</a>
</g>
</g>
<!-- Node1&#45;&gt;Node2 -->
<g id="edge1" class="edge">
<title>Node1&#45;&gt;Node2</title>
<path fill="none" stroke="midnightblue" d="M275.58,-250.35C262.05,-240.27 246.78,-228.89 234.18,-219.51"/>
<polygon fill="midnightblue" stroke="midnightblue" points="273.62,-253.26 283.73,-256.43 277.8,-247.65 273.62,-253.26"/>
</g>
<!-- Node6 -->
<g id="node6" class="node">
<title>Node6</title>
<g id="a_node6"><a xlink:href="compat_2vsomeip_2vsomeip_8hpp.html" target="_top" xlink:title=" ">
<polygon fill="white" stroke="black" points="267,-95 267,-136 415,-136 415,-95 267,-95"/>
<text text-anchor="start" x="275" y="-124" font-family="Helvetica,sans-Serif" font-size="10.00">/home/kali/projects</text>
<text text-anchor="start" x="275" y="-113" font-family="Helvetica,sans-Serif" font-size="10.00">/vsomeip/interface/compat</text>
<text text-anchor="middle" x="341" y="-102" font-family="Helvetica,sans-Serif" font-size="10.00">/vsomeip/vsomeip.hpp</text>
</a>
</g>
</g>
<!-- Node1&#45;&gt;Node6 -->
<g id="edge8" class="edge">
<title>Node1&#45;&gt;Node6</title>
<path fill="none" stroke="midnightblue" d="M315.73,-246.41C319.49,-226.96 324.53,-200.97 329,-178 331.72,-164.01 334.8,-148.24 337.16,-136.16"/>
<polygon fill="midnightblue" stroke="midnightblue" points="312.24,-245.99 313.78,-256.48 319.12,-247.32 312.24,-245.99"/>
</g>
<!-- Node7 -->
<g id="node7" class="node">
<title>Node7</title>
<g id="a_node7"><a xlink:href="interface_2compat_2vsomeip_2trace_8hpp.html" target="_top" xlink:title=" ">
<polygon fill="white" stroke="black" points="338,-178.5 338,-219.5 486,-219.5 486,-178.5 338,-178.5"/>
<text text-anchor="start" x="346" y="-207.5" font-family="Helvetica,sans-Serif" font-size="10.00">/home/kali/projects</text>
<text text-anchor="start" x="346" y="-196.5" font-family="Helvetica,sans-Serif" font-size="10.00">/vsomeip/interface/compat</text>
<text text-anchor="middle" x="412" y="-185.5" font-family="Helvetica,sans-Serif" font-size="10.00">/vsomeip/trace.hpp</text>
</a>
</g>
</g>
<!-- Node1&#45;&gt;Node7 -->
<g id="edge6" class="edge">
<title>Node1&#45;&gt;Node7</title>
<path fill="none" stroke="midnightblue" d="M344.42,-250.35C357.95,-240.27 373.22,-228.89 385.82,-219.51"/>
<polygon fill="midnightblue" stroke="midnightblue" points="342.2,-247.65 336.27,-256.43 346.38,-253.26 342.2,-247.65"/>
</g>
<!-- Node3 -->
<g id="node3" class="node">
<title>Node3</title>
<g id="a_node3"><a xlink:href="compat_2runtime_2include_2application__impl_8hpp.html" target="_top" xlink:title=" ">
<polygon fill="white" stroke="black" points="105.5,-89.5 105.5,-141.5 248.5,-141.5 248.5,-89.5 105.5,-89.5"/>
<text text-anchor="start" x="113.5" y="-129.5" font-family="Helvetica,sans-Serif" font-size="10.00">/home/kali/projects</text>
<text text-anchor="start" x="113.5" y="-118.5" font-family="Helvetica,sans-Serif" font-size="10.00">/vsomeip/implementation</text>
<text text-anchor="start" x="113.5" y="-107.5" font-family="Helvetica,sans-Serif" font-size="10.00">/compat/runtime/include</text>
<text text-anchor="middle" x="177" y="-96.5" font-family="Helvetica,sans-Serif" font-size="10.00">/application_impl.hpp</text>
</a>
</g>
</g>
<!-- Node2&#45;&gt;Node3 -->
<g id="edge2" class="edge">
<title>Node2&#45;&gt;Node3</title>
<path fill="none" stroke="midnightblue" d="M196.85,-168.69C193.48,-159.83 189.81,-150.17 186.55,-141.61"/>
<polygon fill="midnightblue" stroke="midnightblue" points="193.67,-170.17 200.5,-178.27 200.21,-167.68 193.67,-170.17"/>
</g>
<!-- Node2&#45;&gt;Node6 -->
<g id="edge5" class="edge">
<title>Node2&#45;&gt;Node6</title>
<path fill="none" stroke="midnightblue" d="M248.49,-173.19C267.88,-161.3 290.78,-147.27 308.94,-136.14"/>
<polygon fill="midnightblue" stroke="midnightblue" points="246.55,-170.27 239.86,-178.48 250.21,-176.24 246.55,-170.27"/>
</g>
<!-- Node4 -->
<g id="node4" class="node">
<title>Node4</title>
<g id="a_node4"><a xlink:href="compat_2runtime_2src_2application__impl_8cpp.html" target="_top" xlink:title=" ">
<polygon fill="white" stroke="black" points="0,-0.5 0,-52.5 172,-52.5 172,-0.5 0,-0.5"/>
<text text-anchor="start" x="8" y="-40.5" font-family="Helvetica,sans-Serif" font-size="10.00">/home/kali/projects</text>
<text text-anchor="start" x="8" y="-29.5" font-family="Helvetica,sans-Serif" font-size="10.00">/vsomeip/implementation</text>
<text text-anchor="start" x="8" y="-18.5" font-family="Helvetica,sans-Serif" font-size="10.00">/compat/runtime/src/application</text>
<text text-anchor="middle" x="86" y="-7.5" font-family="Helvetica,sans-Serif" font-size="10.00">_impl.cpp</text>
</a>
</g>
</g>
<!-- Node3&#45;&gt;Node4 -->
<g id="edge3" class="edge">
<title>Node3&#45;&gt;Node4</title>
<path fill="none" stroke="midnightblue" d="M143.39,-82.36C133.11,-72.54 121.97,-61.89 112.26,-52.61"/>
<polygon fill="midnightblue" stroke="midnightblue" points="141.03,-84.96 150.68,-89.34 145.87,-79.9 141.03,-84.96"/>
</g>
<!-- Node5 -->
<g id="node5" class="node">
<title>Node5</title>
<g id="a_node5"><a xlink:href="compat_2runtime_2src_2runtime__impl_8cpp.html" target="_top" xlink:title=" ">
<polygon fill="white" stroke="black" points="190,-0.5 190,-52.5 346,-52.5 346,-0.5 190,-0.5"/>
<text text-anchor="start" x="198" y="-40.5" font-family="Helvetica,sans-Serif" font-size="10.00">/home/kali/projects</text>
<text text-anchor="start" x="198" y="-29.5" font-family="Helvetica,sans-Serif" font-size="10.00">/vsomeip/implementation</text>
<text text-anchor="start" x="198" y="-18.5" font-family="Helvetica,sans-Serif" font-size="10.00">/compat/runtime/src/runtime</text>
<text text-anchor="middle" x="268" y="-7.5" font-family="Helvetica,sans-Serif" font-size="10.00">_impl.cpp</text>
</a>
</g>
</g>
<!-- Node3&#45;&gt;Node5 -->
<g id="edge4" class="edge">
<title>Node3&#45;&gt;Node5</title>
<path fill="none" stroke="midnightblue" d="M210.61,-82.36C220.89,-72.54 232.03,-61.89 241.74,-52.61"/>
<polygon fill="midnightblue" stroke="midnightblue" points="208.13,-79.9 203.32,-89.34 212.97,-84.96 208.13,-79.9"/>
</g>
<!-- Node7&#45;&gt;Node6 -->
<g id="edge7" class="edge">
<title>Node7&#45;&gt;Node6</title>
<path fill="none" stroke="midnightblue" d="M388.23,-170.71C378.33,-159.36 367.07,-146.43 358.03,-136.05"/>
<polygon fill="midnightblue" stroke="midnightblue" points="385.61,-173.03 394.81,-178.27 390.88,-168.43 385.61,-173.03"/>
</g>
</g>
</svg>
