<?xml version="1.0" encoding="UTF-8" standalone="no"?>
<!DOCTYPE svg PUBLIC "-//W3C//DTD SVG 1.1//EN"
 "http://www.w3.org/Graphics/SVG/1.1/DTD/svg11.dtd">
<!-- Generated by graphviz version 2.43.0 (0)
 -->
<!-- Title: /home/kali/projects/vsomeip/implementation/configuration/include/internal_android.hpp Pages: 1 -->
<svg width="378pt" height="117pt"
 viewBox="0.00 0.00 377.50 117.00" xmlns="http://www.w3.org/2000/svg" xmlns:xlink="http://www.w3.org/1999/xlink">
<g id="graph0" class="graph" transform="scale(1 1) rotate(0) translate(4 113)">
<title>/home/kali/projects/vsomeip/implementation/configuration/include/internal_android.hpp</title>
<polygon fill="white" stroke="transparent" points="-4,4 -4,-113 373.5,-113 373.5,4 -4,4"/>
<!-- Node1 -->
<g id="node1" class="node">
<title>Node1</title>
<g id="a_node1"><a xlink:title=" ">
<polygon fill="#bfbfbf" stroke="black" points="77.5,-56.5 77.5,-108.5 220.5,-108.5 220.5,-56.5 77.5,-56.5"/>
<text text-anchor="start" x="85.5" y="-96.5" font-family="Helvetica,sans-Serif" font-size="10.00">/home/kali/projects</text>
<text text-anchor="start" x="85.5" y="-85.5" font-family="Helvetica,sans-Serif" font-size="10.00">/vsomeip/implementation</text>
<text text-anchor="start" x="85.5" y="-74.5" font-family="Helvetica,sans-Serif" font-size="10.00">/configuration/include</text>
<text text-anchor="middle" x="149" y="-63.5" font-family="Helvetica,sans-Serif" font-size="10.00">/internal_android.hpp</text>
</a>
</g>
</g>
<!-- Node2 -->
<g id="node2" class="node">
<title>Node2</title>
<g id="a_node2"><a xlink:title=" ">
<polygon fill="white" stroke="#bfbfbf" points="0,-0.5 0,-19.5 50,-19.5 50,-0.5 0,-0.5"/>
<text text-anchor="middle" x="25" y="-7.5" font-family="Helvetica,sans-Serif" font-size="10.00">cstdint</text>
</a>
</g>
</g>
<!-- Node1&#45;&gt;Node2 -->
<g id="edge1" class="edge">
<title>Node1&#45;&gt;Node2</title>
<path fill="none" stroke="midnightblue" d="M104.93,-56.45C86.14,-45.76 64.94,-33.71 49.1,-24.7"/>
<polygon fill="midnightblue" stroke="midnightblue" points="50.42,-21.43 40,-19.53 46.96,-27.51 50.42,-21.43"/>
</g>
<!-- Node3 -->
<g id="node3" class="node">
<title>Node3</title>
<g id="a_node3"><a xlink:title=" ">
<polygon fill="white" stroke="#bfbfbf" points="68,-0.5 68,-19.5 112,-19.5 112,-0.5 68,-0.5"/>
<text text-anchor="middle" x="90" y="-7.5" font-family="Helvetica,sans-Serif" font-size="10.00">limits</text>
</a>
</g>
</g>
<!-- Node1&#45;&gt;Node3 -->
<g id="edge2" class="edge">
<title>Node1&#45;&gt;Node3</title>
<path fill="none" stroke="midnightblue" d="M128.03,-56.45C119.98,-46.83 111.01,-36.1 103.8,-27.49"/>
<polygon fill="midnightblue" stroke="midnightblue" points="106.38,-25.12 97.28,-19.7 101.01,-29.61 106.38,-25.12"/>
</g>
<!-- Node4 -->
<g id="node4" class="node">
<title>Node4</title>
<g id="a_node4"><a xlink:title=" ">
<polygon fill="white" stroke="#bfbfbf" points="129.5,-0.5 129.5,-19.5 288.5,-19.5 288.5,-0.5 129.5,-0.5"/>
<text text-anchor="middle" x="209" y="-7.5" font-family="Helvetica,sans-Serif" font-size="10.00">vsomeip/primitive_types.hpp</text>
</a>
</g>
</g>
<!-- Node1&#45;&gt;Node4 -->
<g id="edge3" class="edge">
<title>Node1&#45;&gt;Node4</title>
<path fill="none" stroke="midnightblue" d="M170.32,-56.45C178.51,-46.83 187.64,-36.1 194.97,-27.49"/>
<polygon fill="midnightblue" stroke="midnightblue" points="197.78,-29.58 201.6,-19.7 192.45,-25.04 197.78,-29.58"/>
</g>
<!-- Node5 -->
<g id="node5" class="node">
<title>Node5</title>
<g id="a_node5"><a xlink:title=" ">
<polygon fill="white" stroke="#bfbfbf" points="306.5,-0.5 306.5,-19.5 369.5,-19.5 369.5,-0.5 306.5,-0.5"/>
<text text-anchor="middle" x="338" y="-7.5" font-family="Helvetica,sans-Serif" font-size="10.00">pthread.h</text>
</a>
</g>
</g>
<!-- Node1&#45;&gt;Node5 -->
<g id="edge4" class="edge">
<title>Node1&#45;&gt;Node5</title>
<path fill="none" stroke="midnightblue" d="M216.17,-56.45C246.57,-45.11 281.1,-32.23 305.61,-23.08"/>
<polygon fill="midnightblue" stroke="midnightblue" points="306.99,-26.3 315.14,-19.53 304.55,-19.74 306.99,-26.3"/>
</g>
</g>
</svg>
