<?xml version="1.0" encoding="UTF-8" standalone="no"?>
<!DOCTYPE svg PUBLIC "-//W3C//DTD SVG 1.1//EN"
 "http://www.w3.org/Graphics/SVG/1.1/DTD/svg11.dtd">
<!-- Generated by graphviz version 2.43.0 (0)
 -->
<!-- Title: /home/kali/projects/vsomeip/interface/compat/vsomeip/primitive_types.hpp Pages: 1 -->
<svg width="1014pt" height="473pt"
 viewBox="0.00 0.00 1013.67 473.00" xmlns="http://www.w3.org/2000/svg" xmlns:xlink="http://www.w3.org/1999/xlink">
<g id="graph0" class="graph" transform="scale(1 1) rotate(0) translate(4 469)">
<title>/home/kali/projects/vsomeip/interface/compat/vsomeip/primitive_types.hpp</title>
<polygon fill="white" stroke="transparent" points="-4,4 -4,-469 1009.67,-469 1009.67,4 -4,4"/>
<!-- Node1 -->
<g id="node1" class="node">
<title>Node1</title>
<g id="a_node1"><a xlink:title=" ">
<polygon fill="#bfbfbf" stroke="black" points="403.17,-423.5 403.17,-464.5 565.17,-464.5 565.17,-423.5 403.17,-423.5"/>
<text text-anchor="start" x="411.17" y="-452.5" font-family="Helvetica,sans-Serif" font-size="10.00">/home/kali/projects</text>
<text text-anchor="start" x="411.17" y="-441.5" font-family="Helvetica,sans-Serif" font-size="10.00">/vsomeip/interface/compat</text>
<text text-anchor="middle" x="484.17" y="-430.5" font-family="Helvetica,sans-Serif" font-size="10.00">/vsomeip/primitive_types.hpp</text>
</a>
</g>
</g>
<!-- Node2 -->
<g id="node2" class="node">
<title>Node2</title>
<g id="a_node2"><a xlink:href="compat_2vsomeip_2application_8hpp.html" target="_top" xlink:title=" ">
<polygon fill="white" stroke="black" points="17.17,-267.5 17.17,-308.5 165.17,-308.5 165.17,-267.5 17.17,-267.5"/>
<text text-anchor="start" x="25.17" y="-296.5" font-family="Helvetica,sans-Serif" font-size="10.00">/home/kali/projects</text>
<text text-anchor="start" x="25.17" y="-285.5" font-family="Helvetica,sans-Serif" font-size="10.00">/vsomeip/interface/compat</text>
<text text-anchor="middle" x="91.17" y="-274.5" font-family="Helvetica,sans-Serif" font-size="10.00">/vsomeip/application.hpp</text>
</a>
</g>
</g>
<!-- Node1&#45;&gt;Node2 -->
<g id="edge1" class="edge">
<title>Node1&#45;&gt;Node2</title>
<path fill="none" stroke="midnightblue" d="M393.11,-438.7C262.09,-431.57 33.26,-415.22 8.17,-387 -4.24,-373.05 -0.6,-361.48 8.17,-345 16.41,-329.5 31.06,-317.51 45.79,-308.68"/>
<polygon fill="midnightblue" stroke="midnightblue" points="392.97,-442.2 403.15,-439.24 393.35,-435.21 392.97,-442.2"/>
</g>
<!-- Node7 -->
<g id="node7" class="node">
<title>Node7</title>
<g id="a_node7"><a xlink:href="interface_2compat_2vsomeip_2constants_8hpp.html" target="_top" xlink:title=" ">
<polygon fill="white" stroke="black" points="359.17,-345.5 359.17,-386.5 507.17,-386.5 507.17,-345.5 359.17,-345.5"/>
<text text-anchor="start" x="367.17" y="-374.5" font-family="Helvetica,sans-Serif" font-size="10.00">/home/kali/projects</text>
<text text-anchor="start" x="367.17" y="-363.5" font-family="Helvetica,sans-Serif" font-size="10.00">/vsomeip/interface/compat</text>
<text text-anchor="middle" x="433.17" y="-352.5" font-family="Helvetica,sans-Serif" font-size="10.00">/vsomeip/constants.hpp</text>
</a>
</g>
</g>
<!-- Node1&#45;&gt;Node7 -->
<g id="edge6" class="edge">
<title>Node1&#45;&gt;Node7</title>
<path fill="none" stroke="midnightblue" d="M465.41,-415.05C459.04,-405.57 452.08,-395.18 446.25,-386.51"/>
<polygon fill="midnightblue" stroke="midnightblue" points="462.55,-417.07 471.03,-423.43 468.37,-413.17 462.55,-417.07"/>
</g>
<!-- Node8 -->
<g id="node8" class="node">
<title>Node8</title>
<g id="a_node8"><a xlink:href="interface_2compat_2vsomeip_2trace_8hpp.html" target="_top" xlink:title=" ">
<polygon fill="white" stroke="black" points="387.17,-267.5 387.17,-308.5 535.17,-308.5 535.17,-267.5 387.17,-267.5"/>
<text text-anchor="start" x="395.17" y="-296.5" font-family="Helvetica,sans-Serif" font-size="10.00">/home/kali/projects</text>
<text text-anchor="start" x="395.17" y="-285.5" font-family="Helvetica,sans-Serif" font-size="10.00">/vsomeip/interface/compat</text>
<text text-anchor="middle" x="461.17" y="-274.5" font-family="Helvetica,sans-Serif" font-size="10.00">/vsomeip/trace.hpp</text>
</a>
</g>
</g>
<!-- Node1&#45;&gt;Node8 -->
<g id="edge38" class="edge">
<title>Node1&#45;&gt;Node8</title>
<path fill="none" stroke="midnightblue" d="M504.07,-414.62C515.38,-394.84 525.57,-367.99 516.17,-345 510.34,-330.75 498.94,-318.17 488.02,-308.56"/>
<polygon fill="midnightblue" stroke="midnightblue" points="501.07,-412.81 498.86,-423.17 507.05,-416.45 501.07,-412.81"/>
</g>
<!-- Node9 -->
<g id="node9" class="node">
<title>Node9</title>
<g id="a_node9"><a xlink:href="compat_2vsomeip_2error_8hpp.html" target="_top" xlink:title=" ">
<polygon fill="white" stroke="black" points="639.17,-345.5 639.17,-386.5 787.17,-386.5 787.17,-345.5 639.17,-345.5"/>
<text text-anchor="start" x="647.17" y="-374.5" font-family="Helvetica,sans-Serif" font-size="10.00">/home/kali/projects</text>
<text text-anchor="start" x="647.17" y="-363.5" font-family="Helvetica,sans-Serif" font-size="10.00">/vsomeip/interface/compat</text>
<text text-anchor="middle" x="713.17" y="-352.5" font-family="Helvetica,sans-Serif" font-size="10.00">/vsomeip/error.hpp</text>
</a>
</g>
</g>
<!-- Node1&#45;&gt;Node9 -->
<g id="edge11" class="edge">
<title>Node1&#45;&gt;Node9</title>
<path fill="none" stroke="midnightblue" d="M552.97,-420.17C585.3,-409.44 623.44,-396.78 654.39,-386.51"/>
<polygon fill="midnightblue" stroke="midnightblue" points="551.53,-416.96 543.14,-423.43 553.73,-423.6 551.53,-416.96"/>
</g>
<!-- Node10 -->
<g id="node10" class="node">
<title>Node10</title>
<g id="a_node10"><a xlink:href="compat_2vsomeip_2handler_8hpp.html" target="_top" xlink:title=" ">
<polygon fill="white" stroke="black" points="17.17,-345.5 17.17,-386.5 165.17,-386.5 165.17,-345.5 17.17,-345.5"/>
<text text-anchor="start" x="25.17" y="-374.5" font-family="Helvetica,sans-Serif" font-size="10.00">/home/kali/projects</text>
<text text-anchor="start" x="25.17" y="-363.5" font-family="Helvetica,sans-Serif" font-size="10.00">/vsomeip/interface/compat</text>
<text text-anchor="middle" x="91.17" y="-352.5" font-family="Helvetica,sans-Serif" font-size="10.00">/vsomeip/handler.hpp</text>
</a>
</g>
</g>
<!-- Node1&#45;&gt;Node10 -->
<g id="edge12" class="edge">
<title>Node1&#45;&gt;Node10</title>
<path fill="none" stroke="midnightblue" d="M392.85,-427.93C330.96,-417.37 247.42,-402.43 174.17,-387 171.26,-386.39 168.31,-385.75 165.33,-385.1"/>
<polygon fill="midnightblue" stroke="midnightblue" points="392.53,-431.43 402.98,-429.65 393.71,-424.53 392.53,-431.43"/>
</g>
<!-- Node11 -->
<g id="node11" class="node">
<title>Node11</title>
<g id="a_node11"><a xlink:href="compat_2vsomeip_2message__base_8hpp.html" target="_top" xlink:title=" ">
<polygon fill="white" stroke="black" points="183.17,-345.5 183.17,-386.5 341.17,-386.5 341.17,-345.5 183.17,-345.5"/>
<text text-anchor="start" x="191.17" y="-374.5" font-family="Helvetica,sans-Serif" font-size="10.00">/home/kali/projects</text>
<text text-anchor="start" x="191.17" y="-363.5" font-family="Helvetica,sans-Serif" font-size="10.00">/vsomeip/interface/compat</text>
<text text-anchor="middle" x="262.17" y="-352.5" font-family="Helvetica,sans-Serif" font-size="10.00">/vsomeip/message_base.hpp</text>
</a>
</g>
</g>
<!-- Node1&#45;&gt;Node11 -->
<g id="edge14" class="edge">
<title>Node1&#45;&gt;Node11</title>
<path fill="none" stroke="midnightblue" d="M417.46,-420.17C386.12,-409.44 349.15,-396.78 319.14,-386.51"/>
<polygon fill="midnightblue" stroke="midnightblue" points="416.4,-423.5 426.99,-423.43 418.67,-416.88 416.4,-423.5"/>
</g>
<!-- Node17 -->
<g id="node17" class="node">
<title>Node17</title>
<g id="a_node17"><a xlink:href="compat_2vsomeip_2payload_8hpp.html" target="_top" xlink:title=" ">
<polygon fill="white" stroke="black" points="719.17,-267.5 719.17,-308.5 867.17,-308.5 867.17,-267.5 719.17,-267.5"/>
<text text-anchor="start" x="727.17" y="-296.5" font-family="Helvetica,sans-Serif" font-size="10.00">/home/kali/projects</text>
<text text-anchor="start" x="727.17" y="-285.5" font-family="Helvetica,sans-Serif" font-size="10.00">/vsomeip/interface/compat</text>
<text text-anchor="middle" x="793.17" y="-274.5" font-family="Helvetica,sans-Serif" font-size="10.00">/vsomeip/payload.hpp</text>
</a>
</g>
</g>
<!-- Node1&#45;&gt;Node17 -->
<g id="edge24" class="edge">
<title>Node1&#45;&gt;Node17</title>
<path fill="none" stroke="midnightblue" d="M523.38,-417.86C538.12,-408.3 554.98,-397.25 570.17,-387 597.14,-368.78 601.16,-359.77 630.17,-345 659.23,-330.21 693.1,-317.86 722.4,-308.55"/>
<polygon fill="midnightblue" stroke="midnightblue" points="521.47,-414.92 514.98,-423.29 525.28,-420.8 521.47,-414.92"/>
</g>
<!-- Node20 -->
<g id="node20" class="node">
<title>Node20</title>
<g id="a_node20"><a xlink:href="interface_2compat_2vsomeip_2runtime_8hpp.html" target="_top" xlink:title=" ">
<polygon fill="white" stroke="black" points="553.17,-267.5 553.17,-308.5 701.17,-308.5 701.17,-267.5 553.17,-267.5"/>
<text text-anchor="start" x="561.17" y="-296.5" font-family="Helvetica,sans-Serif" font-size="10.00">/home/kali/projects</text>
<text text-anchor="start" x="561.17" y="-285.5" font-family="Helvetica,sans-Serif" font-size="10.00">/vsomeip/interface/compat</text>
<text text-anchor="middle" x="627.17" y="-274.5" font-family="Helvetica,sans-Serif" font-size="10.00">/vsomeip/runtime.hpp</text>
</a>
</g>
</g>
<!-- Node1&#45;&gt;Node20 -->
<g id="edge31" class="edge">
<title>Node1&#45;&gt;Node20</title>
<path fill="none" stroke="midnightblue" d="M509.11,-416.14C537.55,-385.51 583.37,-336.17 608.75,-308.83"/>
<polygon fill="midnightblue" stroke="midnightblue" points="506.52,-413.79 502.28,-423.5 511.65,-418.55 506.52,-413.79"/>
</g>
<!-- Node3 -->
<g id="node3" class="node">
<title>Node3</title>
<g id="a_node3"><a xlink:href="compat_2runtime_2include_2application__impl_8hpp.html" target="_top" xlink:title=" ">
<polygon fill="white" stroke="black" points="20.67,-89.5 20.67,-141.5 163.67,-141.5 163.67,-89.5 20.67,-89.5"/>
<text text-anchor="start" x="28.67" y="-129.5" font-family="Helvetica,sans-Serif" font-size="10.00">/home/kali/projects</text>
<text text-anchor="start" x="28.67" y="-118.5" font-family="Helvetica,sans-Serif" font-size="10.00">/vsomeip/implementation</text>
<text text-anchor="start" x="28.67" y="-107.5" font-family="Helvetica,sans-Serif" font-size="10.00">/compat/runtime/include</text>
<text text-anchor="middle" x="92.17" y="-96.5" font-family="Helvetica,sans-Serif" font-size="10.00">/application_impl.hpp</text>
</a>
</g>
</g>
<!-- Node2&#45;&gt;Node3 -->
<g id="edge2" class="edge">
<title>Node2&#45;&gt;Node3</title>
<path fill="none" stroke="midnightblue" d="M91.34,-257.13C91.53,-224.36 91.84,-172.36 92.02,-141.61"/>
<polygon fill="midnightblue" stroke="midnightblue" points="87.84,-257.42 91.28,-267.44 94.84,-257.46 87.84,-257.42"/>
</g>
<!-- Node6 -->
<g id="node6" class="node">
<title>Node6</title>
<g id="a_node6"><a xlink:href="compat_2vsomeip_2vsomeip_8hpp.html" target="_top" xlink:title=" ">
<polygon fill="white" stroke="black" points="319.17,-184 319.17,-225 467.17,-225 467.17,-184 319.17,-184"/>
<text text-anchor="start" x="327.17" y="-213" font-family="Helvetica,sans-Serif" font-size="10.00">/home/kali/projects</text>
<text text-anchor="start" x="327.17" y="-202" font-family="Helvetica,sans-Serif" font-size="10.00">/vsomeip/interface/compat</text>
<text text-anchor="middle" x="393.17" y="-191" font-family="Helvetica,sans-Serif" font-size="10.00">/vsomeip/vsomeip.hpp</text>
</a>
</g>
</g>
<!-- Node2&#45;&gt;Node6 -->
<g id="edge5" class="edge">
<title>Node2&#45;&gt;Node6</title>
<path fill="none" stroke="midnightblue" d="M173.18,-264.87C219.33,-252.41 276.43,-237 320.9,-225"/>
<polygon fill="midnightblue" stroke="midnightblue" points="172.24,-261.49 163.5,-267.48 174.07,-268.25 172.24,-261.49"/>
</g>
<!-- Node4 -->
<g id="node4" class="node">
<title>Node4</title>
<g id="a_node4"><a xlink:href="compat_2runtime_2src_2application__impl_8cpp.html" target="_top" xlink:title=" ">
<polygon fill="white" stroke="black" points="292.17,-0.5 292.17,-52.5 464.17,-52.5 464.17,-0.5 292.17,-0.5"/>
<text text-anchor="start" x="300.17" y="-40.5" font-family="Helvetica,sans-Serif" font-size="10.00">/home/kali/projects</text>
<text text-anchor="start" x="300.17" y="-29.5" font-family="Helvetica,sans-Serif" font-size="10.00">/vsomeip/implementation</text>
<text text-anchor="start" x="300.17" y="-18.5" font-family="Helvetica,sans-Serif" font-size="10.00">/compat/runtime/src/application</text>
<text text-anchor="middle" x="378.17" y="-7.5" font-family="Helvetica,sans-Serif" font-size="10.00">_impl.cpp</text>
</a>
</g>
</g>
<!-- Node3&#45;&gt;Node4 -->
<g id="edge3" class="edge">
<title>Node3&#45;&gt;Node4</title>
<path fill="none" stroke="midnightblue" d="M173.41,-88.94C218.58,-75.08 259.22,-62.86 293.81,-52.53"/>
<polygon fill="midnightblue" stroke="midnightblue" points="172.23,-85.64 163.7,-91.92 174.29,-92.33 172.23,-85.64"/>
</g>
<!-- Node5 -->
<g id="node5" class="node">
<title>Node5</title>
<g id="a_node5"><a xlink:href="compat_2runtime_2src_2runtime__impl_8cpp.html" target="_top" xlink:title=" ">
<polygon fill="white" stroke="black" points="482.17,-0.5 482.17,-52.5 638.17,-52.5 638.17,-0.5 482.17,-0.5"/>
<text text-anchor="start" x="490.17" y="-40.5" font-family="Helvetica,sans-Serif" font-size="10.00">/home/kali/projects</text>
<text text-anchor="start" x="490.17" y="-29.5" font-family="Helvetica,sans-Serif" font-size="10.00">/vsomeip/implementation</text>
<text text-anchor="start" x="490.17" y="-18.5" font-family="Helvetica,sans-Serif" font-size="10.00">/compat/runtime/src/runtime</text>
<text text-anchor="middle" x="560.17" y="-7.5" font-family="Helvetica,sans-Serif" font-size="10.00">_impl.cpp</text>
</a>
</g>
</g>
<!-- Node3&#45;&gt;Node5 -->
<g id="edge4" class="edge">
<title>Node3&#45;&gt;Node5</title>
<path fill="none" stroke="midnightblue" d="M174.08,-88.99C306.31,-61.63 344.82,-79.32 473.17,-53 476.09,-52.4 479.07,-51.75 482.06,-51.05"/>
<polygon fill="midnightblue" stroke="midnightblue" points="173.03,-85.64 163.97,-91.14 174.48,-92.49 173.03,-85.64"/>
</g>
<!-- Node7&#45;&gt;Node2 -->
<g id="edge7" class="edge">
<title>Node7&#45;&gt;Node2</title>
<path fill="none" stroke="midnightblue" d="M349.11,-344.8C270.57,-327.52 249.05,-325.68 174.17,-309 171.27,-308.36 168.32,-307.69 165.35,-307.01"/>
<polygon fill="midnightblue" stroke="midnightblue" points="348.46,-348.24 358.98,-346.99 349.98,-341.41 348.46,-348.24"/>
</g>
<!-- Node7&#45;&gt;Node6 -->
<g id="edge10" class="edge">
<title>Node7&#45;&gt;Node6</title>
<path fill="none" stroke="midnightblue" d="M398.89,-338.47C390.51,-330.05 382.67,-320.02 378.17,-309 366.89,-281.44 376.22,-246.71 384.38,-225.32"/>
<polygon fill="midnightblue" stroke="midnightblue" points="396.62,-341.15 406.31,-345.44 401.42,-336.04 396.62,-341.15"/>
</g>
<!-- Node7&#45;&gt;Node8 -->
<g id="edge8" class="edge">
<title>Node7&#45;&gt;Node8</title>
<path fill="none" stroke="midnightblue" d="M443.89,-335.88C447.27,-326.72 450.91,-316.83 453.98,-308.51"/>
<polygon fill="midnightblue" stroke="midnightblue" points="440.55,-334.83 440.38,-345.43 447.12,-337.25 440.55,-334.83"/>
</g>
<!-- Node8&#45;&gt;Node6 -->
<g id="edge9" class="edge">
<title>Node8&#45;&gt;Node6</title>
<path fill="none" stroke="midnightblue" d="M438.12,-259.38C428.71,-248.11 418.05,-235.33 409.47,-225.05"/>
<polygon fill="midnightblue" stroke="midnightblue" points="435.61,-261.84 444.7,-267.27 440.99,-257.35 435.61,-261.84"/>
</g>
<!-- Node10&#45;&gt;Node2 -->
<g id="edge13" class="edge">
<title>Node10&#45;&gt;Node2</title>
<path fill="none" stroke="midnightblue" d="M91.17,-335.3C91.17,-326.3 91.17,-316.65 91.17,-308.51"/>
<polygon fill="midnightblue" stroke="midnightblue" points="87.67,-335.43 91.17,-345.43 94.67,-335.43 87.67,-335.43"/>
</g>
<!-- Node12 -->
<g id="node12" class="node">
<title>Node12</title>
<g id="a_node12"><a xlink:href="compat_2vsomeip_2message_8hpp.html" target="_top" xlink:title=" ">
<polygon fill="white" stroke="black" points="183.17,-267.5 183.17,-308.5 331.17,-308.5 331.17,-267.5 183.17,-267.5"/>
<text text-anchor="start" x="191.17" y="-296.5" font-family="Helvetica,sans-Serif" font-size="10.00">/home/kali/projects</text>
<text text-anchor="start" x="191.17" y="-285.5" font-family="Helvetica,sans-Serif" font-size="10.00">/vsomeip/interface/compat</text>
<text text-anchor="middle" x="257.17" y="-274.5" font-family="Helvetica,sans-Serif" font-size="10.00">/vsomeip/message.hpp</text>
</a>
</g>
</g>
<!-- Node11&#45;&gt;Node12 -->
<g id="edge15" class="edge">
<title>Node11&#45;&gt;Node12</title>
<path fill="none" stroke="midnightblue" d="M260.21,-335.3C259.62,-326.3 258.98,-316.65 258.45,-308.51"/>
<polygon fill="midnightblue" stroke="midnightblue" points="256.73,-335.68 260.88,-345.43 263.71,-335.22 256.73,-335.68"/>
</g>
<!-- Node12&#45;&gt;Node6 -->
<g id="edge23" class="edge">
<title>Node12&#45;&gt;Node6</title>
<path fill="none" stroke="midnightblue" d="M298.57,-262.19C318.4,-250.3 341.81,-236.27 360.38,-225.14"/>
<polygon fill="midnightblue" stroke="midnightblue" points="296.52,-259.34 289.74,-267.48 300.12,-265.34 296.52,-259.34"/>
</g>
<!-- Node13 -->
<g id="node13" class="node">
<title>Node13</title>
<g id="a_node13"><a xlink:href="compat_2message_2include_2message__base__impl_8hpp.html" target="_top" xlink:title=" ">
<polygon fill="white" stroke="black" points="119.67,-178.5 119.67,-230.5 262.67,-230.5 262.67,-178.5 119.67,-178.5"/>
<text text-anchor="start" x="127.67" y="-218.5" font-family="Helvetica,sans-Serif" font-size="10.00">/home/kali/projects</text>
<text text-anchor="start" x="127.67" y="-207.5" font-family="Helvetica,sans-Serif" font-size="10.00">/vsomeip/implementation</text>
<text text-anchor="start" x="127.67" y="-196.5" font-family="Helvetica,sans-Serif" font-size="10.00">/compat/message/include</text>
<text text-anchor="middle" x="191.17" y="-185.5" font-family="Helvetica,sans-Serif" font-size="10.00">/message_base_impl.hpp</text>
</a>
</g>
</g>
<!-- Node12&#45;&gt;Node13 -->
<g id="edge16" class="edge">
<title>Node12&#45;&gt;Node13</title>
<path fill="none" stroke="midnightblue" d="M234.81,-259.4C227.26,-250.08 218.88,-239.73 211.5,-230.61"/>
<polygon fill="midnightblue" stroke="midnightblue" points="232.17,-261.7 241.19,-267.27 237.61,-257.3 232.17,-261.7"/>
</g>
<!-- Node14 -->
<g id="node14" class="node">
<title>Node14</title>
<g id="a_node14"><a xlink:href="compat_2message_2include_2message__impl_8hpp.html" target="_top" xlink:title=" ">
<polygon fill="white" stroke="black" points="406.67,-89.5 406.67,-141.5 549.67,-141.5 549.67,-89.5 406.67,-89.5"/>
<text text-anchor="start" x="414.67" y="-129.5" font-family="Helvetica,sans-Serif" font-size="10.00">/home/kali/projects</text>
<text text-anchor="start" x="414.67" y="-118.5" font-family="Helvetica,sans-Serif" font-size="10.00">/vsomeip/implementation</text>
<text text-anchor="start" x="414.67" y="-107.5" font-family="Helvetica,sans-Serif" font-size="10.00">/compat/message/include</text>
<text text-anchor="middle" x="478.17" y="-96.5" font-family="Helvetica,sans-Serif" font-size="10.00">/message_impl.hpp</text>
</a>
</g>
</g>
<!-- Node12&#45;&gt;Node14 -->
<g id="edge22" class="edge">
<title>Node12&#45;&gt;Node14</title>
<path fill="none" stroke="midnightblue" d="M264.78,-257.54C272.48,-233.17 286.66,-199.23 310.17,-178 336.9,-153.85 373.9,-138.96 406.38,-129.89"/>
<polygon fill="midnightblue" stroke="midnightblue" points="261.36,-256.75 261.86,-267.33 268.07,-258.74 261.36,-256.75"/>
</g>
<!-- Node13&#45;&gt;Node14 -->
<g id="edge17" class="edge">
<title>Node13&#45;&gt;Node14</title>
<path fill="none" stroke="midnightblue" d="M272.53,-178.84C314.69,-166.05 365.72,-150.58 406.4,-138.25"/>
<polygon fill="midnightblue" stroke="midnightblue" points="271.4,-175.52 262.85,-181.77 273.43,-182.22 271.4,-175.52"/>
</g>
<!-- Node16 -->
<g id="node16" class="node">
<title>Node16</title>
<g id="a_node16"><a xlink:href="compat_2message_2src_2message__base__impl_8cpp.html" target="_top" xlink:title=" ">
<polygon fill="white" stroke="black" points="182.17,-89.5 182.17,-141.5 350.17,-141.5 350.17,-89.5 182.17,-89.5"/>
<text text-anchor="start" x="190.17" y="-129.5" font-family="Helvetica,sans-Serif" font-size="10.00">/home/kali/projects</text>
<text text-anchor="start" x="190.17" y="-118.5" font-family="Helvetica,sans-Serif" font-size="10.00">/vsomeip/implementation</text>
<text text-anchor="start" x="190.17" y="-107.5" font-family="Helvetica,sans-Serif" font-size="10.00">/compat/message/src/message</text>
<text text-anchor="middle" x="266.17" y="-96.5" font-family="Helvetica,sans-Serif" font-size="10.00">_base_impl.cpp</text>
</a>
</g>
</g>
<!-- Node13&#45;&gt;Node16 -->
<g id="edge21" class="edge">
<title>Node13&#45;&gt;Node16</title>
<path fill="none" stroke="midnightblue" d="M219.61,-170.5C227.87,-160.92 236.75,-150.62 244.52,-141.61"/>
<polygon fill="midnightblue" stroke="midnightblue" points="216.74,-168.48 212.86,-178.34 222.04,-173.05 216.74,-168.48"/>
</g>
<!-- Node14&#45;&gt;Node4 -->
<g id="edge19" class="edge">
<title>Node14&#45;&gt;Node4</title>
<path fill="none" stroke="midnightblue" d="M441.55,-82.65C430.18,-72.75 417.8,-61.98 407.02,-52.61"/>
<polygon fill="midnightblue" stroke="midnightblue" points="439.4,-85.41 449.24,-89.34 443.99,-80.13 439.4,-85.41"/>
</g>
<!-- Node14&#45;&gt;Node5 -->
<g id="edge20" class="edge">
<title>Node14&#45;&gt;Node5</title>
<path fill="none" stroke="midnightblue" d="M509,-81.79C518.1,-72.13 527.92,-61.71 536.5,-52.61"/>
<polygon fill="midnightblue" stroke="midnightblue" points="506.19,-79.66 501.88,-89.34 511.29,-84.46 506.19,-79.66"/>
</g>
<!-- Node15 -->
<g id="node15" class="node">
<title>Node15</title>
<g id="a_node15"><a xlink:href="compat_2message_2src_2message__impl_8cpp.html" target="_top" xlink:title=" ">
<polygon fill="white" stroke="black" points="656.17,-0.5 656.17,-52.5 824.17,-52.5 824.17,-0.5 656.17,-0.5"/>
<text text-anchor="start" x="664.17" y="-40.5" font-family="Helvetica,sans-Serif" font-size="10.00">/home/kali/projects</text>
<text text-anchor="start" x="664.17" y="-29.5" font-family="Helvetica,sans-Serif" font-size="10.00">/vsomeip/implementation</text>
<text text-anchor="start" x="664.17" y="-18.5" font-family="Helvetica,sans-Serif" font-size="10.00">/compat/message/src/message</text>
<text text-anchor="middle" x="740.17" y="-7.5" font-family="Helvetica,sans-Serif" font-size="10.00">_impl.cpp</text>
</a>
</g>
</g>
<!-- Node14&#45;&gt;Node15 -->
<g id="edge18" class="edge">
<title>Node14&#45;&gt;Node15</title>
<path fill="none" stroke="midnightblue" d="M559.52,-87.48C593.04,-76.35 631.64,-63.54 664.54,-52.61"/>
<polygon fill="midnightblue" stroke="midnightblue" points="558.15,-84.25 549.76,-90.73 560.35,-90.9 558.15,-84.25"/>
</g>
<!-- Node17&#45;&gt;Node6 -->
<g id="edge30" class="edge">
<title>Node17&#45;&gt;Node6</title>
<path fill="none" stroke="midnightblue" d="M709.19,-266.85C621.87,-248.56 598.01,-247.53 514.17,-231 499,-228.01 482.79,-224.68 467.33,-221.45"/>
<polygon fill="midnightblue" stroke="midnightblue" points="708.49,-270.28 719,-268.92 709.94,-263.43 708.49,-270.28"/>
</g>
<!-- Node18 -->
<g id="node18" class="node">
<title>Node18</title>
<g id="a_node18"><a xlink:href="compat_2message_2include_2payload__impl_8hpp.html" target="_top" xlink:title=" ">
<polygon fill="white" stroke="black" points="800.67,-89.5 800.67,-141.5 943.67,-141.5 943.67,-89.5 800.67,-89.5"/>
<text text-anchor="start" x="808.67" y="-129.5" font-family="Helvetica,sans-Serif" font-size="10.00">/home/kali/projects</text>
<text text-anchor="start" x="808.67" y="-118.5" font-family="Helvetica,sans-Serif" font-size="10.00">/vsomeip/implementation</text>
<text text-anchor="start" x="808.67" y="-107.5" font-family="Helvetica,sans-Serif" font-size="10.00">/compat/message/include</text>
<text text-anchor="middle" x="872.17" y="-96.5" font-family="Helvetica,sans-Serif" font-size="10.00">/payload_impl.hpp</text>
</a>
</g>
</g>
<!-- Node17&#45;&gt;Node18 -->
<g id="edge25" class="edge">
<title>Node17&#45;&gt;Node18</title>
<path fill="none" stroke="midnightblue" d="M806.61,-257.98C821.77,-225.27 846.16,-172.63 860.53,-141.61"/>
<polygon fill="midnightblue" stroke="midnightblue" points="803.26,-256.9 802.23,-267.44 809.61,-259.84 803.26,-256.9"/>
</g>
<!-- Node18&#45;&gt;Node4 -->
<g id="edge28" class="edge">
<title>Node18&#45;&gt;Node4</title>
<path fill="none" stroke="midnightblue" d="M790.53,-89.06C650.21,-60.38 609.77,-78.92 473.17,-53 470.23,-52.44 467.25,-51.84 464.25,-51.21"/>
<polygon fill="midnightblue" stroke="midnightblue" points="789.86,-92.49 800.37,-91.11 791.29,-85.64 789.86,-92.49"/>
</g>
<!-- Node18&#45;&gt;Node5 -->
<g id="edge29" class="edge">
<title>Node18&#45;&gt;Node5</title>
<path fill="none" stroke="midnightblue" d="M790.4,-88.85C725.99,-70.98 707.85,-69.47 647.17,-53 644.28,-52.22 641.34,-51.41 638.38,-50.59"/>
<polygon fill="midnightblue" stroke="midnightblue" points="789.67,-92.28 800.24,-91.61 791.56,-85.54 789.67,-92.28"/>
</g>
<!-- Node18&#45;&gt;Node15 -->
<g id="edge26" class="edge">
<title>Node18&#45;&gt;Node15</title>
<path fill="none" stroke="midnightblue" d="M825.57,-83.79C810.08,-73.58 793.03,-62.34 778.26,-52.61"/>
<polygon fill="midnightblue" stroke="midnightblue" points="823.71,-86.76 833.99,-89.34 827.56,-80.91 823.71,-86.76"/>
</g>
<!-- Node19 -->
<g id="node19" class="node">
<title>Node19</title>
<g id="a_node19"><a xlink:href="compat_2message_2src_2payload__impl_8cpp.html" target="_top" xlink:title=" ">
<polygon fill="white" stroke="black" points="842.67,-0.5 842.67,-52.5 1005.67,-52.5 1005.67,-0.5 842.67,-0.5"/>
<text text-anchor="start" x="850.67" y="-40.5" font-family="Helvetica,sans-Serif" font-size="10.00">/home/kali/projects</text>
<text text-anchor="start" x="850.67" y="-29.5" font-family="Helvetica,sans-Serif" font-size="10.00">/vsomeip/implementation</text>
<text text-anchor="start" x="850.67" y="-18.5" font-family="Helvetica,sans-Serif" font-size="10.00">/compat/message/src/payload</text>
<text text-anchor="middle" x="924.17" y="-7.5" font-family="Helvetica,sans-Serif" font-size="10.00">_impl.cpp</text>
</a>
</g>
</g>
<!-- Node18&#45;&gt;Node19 -->
<g id="edge27" class="edge">
<title>Node18&#45;&gt;Node19</title>
<path fill="none" stroke="midnightblue" d="M892.4,-80.64C897.98,-71.31 903.93,-61.35 909.16,-52.61"/>
<polygon fill="midnightblue" stroke="midnightblue" points="889.33,-78.96 887.21,-89.34 895.34,-82.55 889.33,-78.96"/>
</g>
<!-- Node20&#45;&gt;Node4 -->
<g id="edge35" class="edge">
<title>Node20&#45;&gt;Node4</title>
<path fill="none" stroke="midnightblue" d="M565.59,-263.19C547.89,-254.64 529.3,-243.86 514.17,-231 492.08,-212.23 498.55,-196.41 476.17,-178 446.36,-153.49 420.63,-172.63 397.17,-142 377.56,-116.41 375.04,-78.08 375.9,-52.93"/>
<polygon fill="midnightblue" stroke="midnightblue" points="564.2,-266.4 574.74,-267.46 567.16,-260.06 564.2,-266.4"/>
</g>
<!-- Node20&#45;&gt;Node6 -->
<g id="edge37" class="edge">
<title>Node20&#45;&gt;Node6</title>
<path fill="none" stroke="midnightblue" d="M561.37,-264.08C526.01,-251.77 482.89,-236.75 449.16,-225"/>
<polygon fill="midnightblue" stroke="midnightblue" points="560.52,-267.49 571.12,-267.48 562.82,-260.88 560.52,-267.49"/>
</g>
<!-- Node21 -->
<g id="node21" class="node">
<title>Node21</title>
<g id="a_node21"><a xlink:href="compat_2runtime_2include_2runtime__impl_8hpp.html" target="_top" xlink:title=" ">
<polygon fill="white" stroke="black" points="523.67,-178.5 523.67,-230.5 666.67,-230.5 666.67,-178.5 523.67,-178.5"/>
<text text-anchor="start" x="531.67" y="-218.5" font-family="Helvetica,sans-Serif" font-size="10.00">/home/kali/projects</text>
<text text-anchor="start" x="531.67" y="-207.5" font-family="Helvetica,sans-Serif" font-size="10.00">/vsomeip/implementation</text>
<text text-anchor="start" x="531.67" y="-196.5" font-family="Helvetica,sans-Serif" font-size="10.00">/compat/runtime/include</text>
<text text-anchor="middle" x="595.17" y="-185.5" font-family="Helvetica,sans-Serif" font-size="10.00">/runtime_impl.hpp</text>
</a>
</g>
</g>
<!-- Node20&#45;&gt;Node21 -->
<g id="edge32" class="edge">
<title>Node20&#45;&gt;Node21</title>
<path fill="none" stroke="midnightblue" d="M615.66,-257.69C612.18,-248.83 608.39,-239.17 605.02,-230.61"/>
<polygon fill="midnightblue" stroke="midnightblue" points="612.51,-259.24 619.42,-267.27 619.02,-256.68 612.51,-259.24"/>
</g>
<!-- Node22 -->
<g id="node22" class="node">
<title>Node22</title>
<g id="a_node22"><a xlink:href="compat_2runtime_2src_2runtime_8cpp.html" target="_top" xlink:title=" ">
<polygon fill="white" stroke="black" points="606.17,-95 606.17,-136 782.17,-136 782.17,-95 606.17,-95"/>
<text text-anchor="start" x="614.17" y="-124" font-family="Helvetica,sans-Serif" font-size="10.00">/home/kali/projects</text>
<text text-anchor="start" x="614.17" y="-113" font-family="Helvetica,sans-Serif" font-size="10.00">/vsomeip/implementation</text>
<text text-anchor="middle" x="694.17" y="-102" font-family="Helvetica,sans-Serif" font-size="10.00">/compat/runtime/src/runtime.cpp</text>
</a>
</g>
</g>
<!-- Node20&#45;&gt;Node22 -->
<g id="edge36" class="edge">
<title>Node20&#45;&gt;Node22</title>
<path fill="none" stroke="midnightblue" d="M655.5,-259.95C662.98,-251.37 670.32,-241.39 675.17,-231 689.65,-199.96 693.27,-159.65 694.08,-136.07"/>
<polygon fill="midnightblue" stroke="midnightblue" points="652.84,-257.67 648.65,-267.41 657.99,-262.41 652.84,-257.67"/>
</g>
<!-- Node21&#45;&gt;Node5 -->
<g id="edge34" class="edge">
<title>Node21&#45;&gt;Node5</title>
<path fill="none" stroke="midnightblue" d="M588.15,-168.25C581.35,-134.04 571.2,-82.97 565.17,-52.67"/>
<polygon fill="midnightblue" stroke="midnightblue" points="584.77,-169.16 590.15,-178.28 591.63,-167.79 584.77,-169.16"/>
</g>
<!-- Node21&#45;&gt;Node22 -->
<g id="edge33" class="edge">
<title>Node21&#45;&gt;Node22</title>
<path fill="none" stroke="midnightblue" d="M631.56,-171.51C645.08,-159.64 660,-146.53 671.88,-136.08"/>
<polygon fill="midnightblue" stroke="midnightblue" points="629,-169.11 623.8,-178.34 633.62,-174.36 629,-169.11"/>
</g>
</g>
</svg>
