<?xml version="1.0" encoding="UTF-8" standalone="no"?>
<!DOCTYPE svg PUBLIC "-//W3C//DTD SVG 1.1//EN"
 "http://www.w3.org/Graphics/SVG/1.1/DTD/svg11.dtd">
<!-- Generated by graphviz version 2.43.0 (0)
 -->
<!-- Title: /home/kali/projects/vsomeip/interface/compat/vsomeip/trace.hpp Pages: 1 -->
<svg width="410pt" height="240pt"
 viewBox="0.00 0.00 410.00 240.00" xmlns="http://www.w3.org/2000/svg" xmlns:xlink="http://www.w3.org/1999/xlink">
<g id="graph0" class="graph" transform="scale(1 1) rotate(0) translate(4 236)">
<title>/home/kali/projects/vsomeip/interface/compat/vsomeip/trace.hpp</title>
<polygon fill="white" stroke="transparent" points="-4,4 -4,-236 406,-236 406,4 -4,4"/>
<!-- Node1 -->
<g id="node1" class="node">
<title>Node1</title>
<g id="a_node1"><a xlink:title=" ">
<polygon fill="#bfbfbf" stroke="black" points="76,-190.5 76,-231.5 224,-231.5 224,-190.5 76,-190.5"/>
<text text-anchor="start" x="84" y="-219.5" font-family="Helvetica,sans-Serif" font-size="10.00">/home/kali/projects</text>
<text text-anchor="start" x="84" y="-208.5" font-family="Helvetica,sans-Serif" font-size="10.00">/vsomeip/interface/compat</text>
<text text-anchor="middle" x="150" y="-197.5" font-family="Helvetica,sans-Serif" font-size="10.00">/vsomeip/trace.hpp</text>
</a>
</g>
</g>
<!-- Node2 -->
<g id="node2" class="node">
<title>Node2</title>
<g id="a_node2"><a xlink:title=" ">
<polygon fill="white" stroke="#bfbfbf" points="0,-129 0,-148 58,-148 58,-129 0,-129"/>
<text text-anchor="middle" x="29" y="-136" font-family="Helvetica,sans-Serif" font-size="10.00">memory</text>
</a>
</g>
</g>
<!-- Node1&#45;&gt;Node2 -->
<g id="edge1" class="edge">
<title>Node1&#45;&gt;Node2</title>
<path fill="none" stroke="midnightblue" d="M116.29,-190.36C96.05,-178.57 70.79,-163.85 52.65,-153.28"/>
<polygon fill="midnightblue" stroke="midnightblue" points="54.29,-150.18 43.89,-148.17 50.76,-156.23 54.29,-150.18"/>
</g>
<!-- Node3 -->
<g id="node3" class="node">
<title>Node3</title>
<g id="a_node3"><a xlink:title=" ">
<polygon fill="white" stroke="#bfbfbf" points="76.5,-129 76.5,-148 123.5,-148 123.5,-129 76.5,-129"/>
<text text-anchor="middle" x="100" y="-136" font-family="Helvetica,sans-Serif" font-size="10.00">vector</text>
</a>
</g>
</g>
<!-- Node1&#45;&gt;Node3 -->
<g id="edge2" class="edge">
<title>Node1&#45;&gt;Node3</title>
<path fill="none" stroke="midnightblue" d="M136.07,-190.36C128.55,-179.76 119.35,-166.79 112.13,-156.6"/>
<polygon fill="midnightblue" stroke="midnightblue" points="114.79,-154.31 106.15,-148.17 109.08,-158.35 114.79,-154.31"/>
</g>
<!-- Node4 -->
<g id="node4" class="node">
<title>Node4</title>
<g id="a_node4"><a xlink:href="interface_2compat_2vsomeip_2constants_8hpp.html" target="_top" xlink:title=" ">
<polygon fill="white" stroke="black" points="142,-123.5 142,-153.5 258,-153.5 258,-123.5 142,-123.5"/>
<text text-anchor="start" x="150" y="-141.5" font-family="Helvetica,sans-Serif" font-size="10.00">../../compat/vsomeip</text>
<text text-anchor="middle" x="200" y="-130.5" font-family="Helvetica,sans-Serif" font-size="10.00">/constants.hpp</text>
</a>
</g>
</g>
<!-- Node1&#45;&gt;Node4 -->
<g id="edge3" class="edge">
<title>Node1&#45;&gt;Node4</title>
<path fill="none" stroke="midnightblue" d="M163.93,-190.36C170.15,-181.59 177.51,-171.21 183.96,-162.12"/>
<polygon fill="midnightblue" stroke="midnightblue" points="186.86,-164.07 189.79,-153.89 181.15,-160.02 186.86,-164.07"/>
</g>
<!-- Node8 -->
<g id="node8" class="node">
<title>Node8</title>
<g id="a_node8"><a xlink:href="interface_2compat_2vsomeip_2primitive__types_8hpp.html" target="_top" xlink:title=" ">
<polygon fill="white" stroke="black" points="270.5,-56.5 270.5,-86.5 387.5,-86.5 387.5,-56.5 270.5,-56.5"/>
<text text-anchor="start" x="278.5" y="-74.5" font-family="Helvetica,sans-Serif" font-size="10.00">../../compat/vsomeip</text>
<text text-anchor="middle" x="329" y="-63.5" font-family="Helvetica,sans-Serif" font-size="10.00">/primitive_types.hpp</text>
</a>
</g>
</g>
<!-- Node1&#45;&gt;Node8 -->
<g id="edge11" class="edge">
<title>Node1&#45;&gt;Node8</title>
<path fill="none" stroke="midnightblue" d="M204.37,-190.38C225.25,-181.27 248.49,-169.07 267,-154 287.31,-137.46 304.78,-112.97 315.95,-95.15"/>
<polygon fill="midnightblue" stroke="midnightblue" points="318.99,-96.88 321.19,-86.52 313.01,-93.25 318.99,-96.88"/>
</g>
<!-- Node5 -->
<g id="node5" class="node">
<title>Node5</title>
<g id="a_node5"><a xlink:title=" ">
<polygon fill="white" stroke="#bfbfbf" points="55,-62 55,-81 99,-81 99,-62 55,-62"/>
<text text-anchor="middle" x="77" y="-69" font-family="Helvetica,sans-Serif" font-size="10.00">string</text>
</a>
</g>
</g>
<!-- Node4&#45;&gt;Node5 -->
<g id="edge4" class="edge">
<title>Node4&#45;&gt;Node5</title>
<path fill="none" stroke="midnightblue" d="M173.31,-123.4C152.11,-112.19 122.68,-96.64 101.95,-85.69"/>
<polygon fill="midnightblue" stroke="midnightblue" points="103.57,-82.58 93.1,-81.01 100.3,-88.77 103.57,-82.58"/>
</g>
<!-- Node6 -->
<g id="node6" class="node">
<title>Node6</title>
<g id="a_node6"><a xlink:href="interface_2compat_2vsomeip_2enumeration__types_8hpp.html" target="_top" xlink:title=" ">
<polygon fill="white" stroke="black" points="117.5,-56.5 117.5,-86.5 252.5,-86.5 252.5,-56.5 117.5,-56.5"/>
<text text-anchor="start" x="125.5" y="-74.5" font-family="Helvetica,sans-Serif" font-size="10.00">../../compat/vsomeip</text>
<text text-anchor="middle" x="185" y="-63.5" font-family="Helvetica,sans-Serif" font-size="10.00">/enumeration_types.hpp</text>
</a>
</g>
</g>
<!-- Node4&#45;&gt;Node6 -->
<g id="edge5" class="edge">
<title>Node4&#45;&gt;Node6</title>
<path fill="none" stroke="midnightblue" d="M196.75,-123.4C194.94,-115.56 192.64,-105.6 190.55,-96.57"/>
<polygon fill="midnightblue" stroke="midnightblue" points="193.91,-95.53 188.25,-86.58 187.09,-97.11 193.91,-95.53"/>
</g>
<!-- Node4&#45;&gt;Node8 -->
<g id="edge7" class="edge">
<title>Node4&#45;&gt;Node8</title>
<path fill="none" stroke="midnightblue" d="M227.99,-123.4C246.75,-113.94 271.67,-101.39 292.05,-91.12"/>
<polygon fill="midnightblue" stroke="midnightblue" points="293.71,-94.2 301.06,-86.58 290.56,-87.95 293.71,-94.2"/>
</g>
<!-- Node7 -->
<g id="node7" class="node">
<title>Node7</title>
<g id="a_node7"><a xlink:title=" ">
<polygon fill="white" stroke="#bfbfbf" points="200,-0.5 200,-19.5 250,-19.5 250,-0.5 200,-0.5"/>
<text text-anchor="middle" x="225" y="-7.5" font-family="Helvetica,sans-Serif" font-size="10.00">cstdint</text>
</a>
</g>
</g>
<!-- Node6&#45;&gt;Node7 -->
<g id="edge6" class="edge">
<title>Node6&#45;&gt;Node7</title>
<path fill="none" stroke="midnightblue" d="M194.48,-56.4C200.17,-47.93 207.45,-37.1 213.48,-28.14"/>
<polygon fill="midnightblue" stroke="midnightblue" points="216.51,-29.91 219.18,-19.66 210.7,-26 216.51,-29.91"/>
</g>
<!-- Node8&#45;&gt;Node7 -->
<g id="edge9" class="edge">
<title>Node8&#45;&gt;Node7</title>
<path fill="none" stroke="midnightblue" d="M304.35,-56.4C287.68,-46.86 265.77,-34.32 249.19,-24.84"/>
<polygon fill="midnightblue" stroke="midnightblue" points="250.55,-21.59 240.13,-19.66 247.07,-27.66 250.55,-21.59"/>
</g>
<!-- Node9 -->
<g id="node9" class="node">
<title>Node9</title>
<g id="a_node9"><a xlink:title=" ">
<polygon fill="white" stroke="#bfbfbf" points="270,-0.5 270,-19.5 312,-19.5 312,-0.5 270,-0.5"/>
<text text-anchor="middle" x="291" y="-7.5" font-family="Helvetica,sans-Serif" font-size="10.00">array</text>
</a>
</g>
</g>
<!-- Node8&#45;&gt;Node9 -->
<g id="edge8" class="edge">
<title>Node8&#45;&gt;Node9</title>
<path fill="none" stroke="midnightblue" d="M319.99,-56.4C314.59,-47.93 307.67,-37.1 301.95,-28.14"/>
<polygon fill="midnightblue" stroke="midnightblue" points="304.86,-26.2 296.53,-19.66 298.96,-29.97 304.86,-26.2"/>
</g>
<!-- Node10 -->
<g id="node10" class="node">
<title>Node10</title>
<g id="a_node10"><a xlink:title=" ">
<polygon fill="white" stroke="#bfbfbf" points="330,-0.5 330,-19.5 402,-19.5 402,-0.5 330,-0.5"/>
<text text-anchor="middle" x="366" y="-7.5" font-family="Helvetica,sans-Serif" font-size="10.00">sys/types.h</text>
</a>
</g>
</g>
<!-- Node8&#45;&gt;Node10 -->
<g id="edge10" class="edge">
<title>Node8&#45;&gt;Node10</title>
<path fill="none" stroke="midnightblue" d="M337.77,-56.4C342.98,-48.02 349.63,-37.33 355.17,-28.42"/>
<polygon fill="midnightblue" stroke="midnightblue" points="358.31,-30 360.62,-19.66 352.36,-26.3 358.31,-30"/>
</g>
</g>
</svg>
