<?xml version="1.0" encoding="UTF-8" standalone="no"?>
<!DOCTYPE svg PUBLIC "-//W3C//DTD SVG 1.1//EN"
 "http://www.w3.org/Graphics/SVG/1.1/DTD/svg11.dtd">
<!-- Generated by graphviz version 2.43.0 (0)
 -->
<!-- Title: /home/kali/projects/vsomeip/interface/compat/vsomeip/enumeration_types.hpp Pages: 1 -->
<svg width="573pt" height="473pt"
 viewBox="0.00 0.00 573.00 473.00" xmlns="http://www.w3.org/2000/svg" xmlns:xlink="http://www.w3.org/1999/xlink">
<g id="graph0" class="graph" transform="scale(1 1) rotate(0) translate(4 469)">
<title>/home/kali/projects/vsomeip/interface/compat/vsomeip/enumeration_types.hpp</title>
<polygon fill="white" stroke="transparent" points="-4,4 -4,-469 569,-469 569,4 -4,4"/>
<!-- Node1 -->
<g id="node1" class="node">
<title>Node1</title>
<g id="a_node1"><a xlink:title=" ">
<polygon fill="#bfbfbf" stroke="black" points="86,-423.5 86,-464.5 266,-464.5 266,-423.5 86,-423.5"/>
<text text-anchor="start" x="94" y="-452.5" font-family="Helvetica,sans-Serif" font-size="10.00">/home/kali/projects</text>
<text text-anchor="start" x="94" y="-441.5" font-family="Helvetica,sans-Serif" font-size="10.00">/vsomeip/interface/compat</text>
<text text-anchor="middle" x="176" y="-430.5" font-family="Helvetica,sans-Serif" font-size="10.00">/vsomeip/enumeration_types.hpp</text>
</a>
</g>
</g>
<!-- Node2 -->
<g id="node2" class="node">
<title>Node2</title>
<g id="a_node2"><a xlink:href="compat_2vsomeip_2application_8hpp.html" target="_top" xlink:title=" ">
<polygon fill="white" stroke="black" points="0,-267.5 0,-308.5 148,-308.5 148,-267.5 0,-267.5"/>
<text text-anchor="start" x="8" y="-296.5" font-family="Helvetica,sans-Serif" font-size="10.00">/home/kali/projects</text>
<text text-anchor="start" x="8" y="-285.5" font-family="Helvetica,sans-Serif" font-size="10.00">/vsomeip/interface/compat</text>
<text text-anchor="middle" x="74" y="-274.5" font-family="Helvetica,sans-Serif" font-size="10.00">/vsomeip/application.hpp</text>
</a>
</g>
</g>
<!-- Node1&#45;&gt;Node2 -->
<g id="edge1" class="edge">
<title>Node1&#45;&gt;Node2</title>
<path fill="none" stroke="midnightblue" d="M125.42,-418.01C113.13,-409.71 101.18,-399.37 93,-387 77.32,-363.29 73.93,-329.74 73.52,-308.69"/>
<polygon fill="midnightblue" stroke="midnightblue" points="123.63,-421.02 133.94,-423.42 127.38,-415.11 123.63,-421.02"/>
</g>
<!-- Node7 -->
<g id="node7" class="node">
<title>Node7</title>
<g id="a_node7"><a xlink:href="interface_2compat_2vsomeip_2constants_8hpp.html" target="_top" xlink:title=" ">
<polygon fill="white" stroke="black" points="102,-345.5 102,-386.5 250,-386.5 250,-345.5 102,-345.5"/>
<text text-anchor="start" x="110" y="-374.5" font-family="Helvetica,sans-Serif" font-size="10.00">/home/kali/projects</text>
<text text-anchor="start" x="110" y="-363.5" font-family="Helvetica,sans-Serif" font-size="10.00">/vsomeip/interface/compat</text>
<text text-anchor="middle" x="176" y="-352.5" font-family="Helvetica,sans-Serif" font-size="10.00">/vsomeip/constants.hpp</text>
</a>
</g>
</g>
<!-- Node1&#45;&gt;Node7 -->
<g id="edge6" class="edge">
<title>Node1&#45;&gt;Node7</title>
<path fill="none" stroke="midnightblue" d="M176,-413.3C176,-404.3 176,-394.65 176,-386.51"/>
<polygon fill="midnightblue" stroke="midnightblue" points="172.5,-413.43 176,-423.43 179.5,-413.43 172.5,-413.43"/>
</g>
<!-- Node9 -->
<g id="node9" class="node">
<title>Node9</title>
<g id="a_node9"><a xlink:href="compat_2vsomeip_2message__base_8hpp.html" target="_top" xlink:title=" ">
<polygon fill="white" stroke="black" points="316,-345.5 316,-386.5 474,-386.5 474,-345.5 316,-345.5"/>
<text text-anchor="start" x="324" y="-374.5" font-family="Helvetica,sans-Serif" font-size="10.00">/home/kali/projects</text>
<text text-anchor="start" x="324" y="-363.5" font-family="Helvetica,sans-Serif" font-size="10.00">/vsomeip/interface/compat</text>
<text text-anchor="middle" x="395" y="-352.5" font-family="Helvetica,sans-Serif" font-size="10.00">/vsomeip/message_base.hpp</text>
</a>
</g>
</g>
<!-- Node1&#45;&gt;Node9 -->
<g id="edge11" class="edge">
<title>Node1&#45;&gt;Node9</title>
<path fill="none" stroke="midnightblue" d="M242.2,-420.03C273.03,-409.33 309.32,-396.73 338.79,-386.51"/>
<polygon fill="midnightblue" stroke="midnightblue" points="240.7,-416.84 232.4,-423.43 242.99,-423.46 240.7,-416.84"/>
</g>
<!-- Node3 -->
<g id="node3" class="node">
<title>Node3</title>
<g id="a_node3"><a xlink:href="compat_2runtime_2include_2application__impl_8hpp.html" target="_top" xlink:title=" ">
<polygon fill="white" stroke="black" points="24.5,-89.5 24.5,-141.5 167.5,-141.5 167.5,-89.5 24.5,-89.5"/>
<text text-anchor="start" x="32.5" y="-129.5" font-family="Helvetica,sans-Serif" font-size="10.00">/home/kali/projects</text>
<text text-anchor="start" x="32.5" y="-118.5" font-family="Helvetica,sans-Serif" font-size="10.00">/vsomeip/implementation</text>
<text text-anchor="start" x="32.5" y="-107.5" font-family="Helvetica,sans-Serif" font-size="10.00">/compat/runtime/include</text>
<text text-anchor="middle" x="96" y="-96.5" font-family="Helvetica,sans-Serif" font-size="10.00">/application_impl.hpp</text>
</a>
</g>
</g>
<!-- Node2&#45;&gt;Node3 -->
<g id="edge2" class="edge">
<title>Node2&#45;&gt;Node3</title>
<path fill="none" stroke="midnightblue" d="M77.85,-257.13C82.08,-224.36 88.79,-172.36 92.76,-141.61"/>
<polygon fill="midnightblue" stroke="midnightblue" points="74.33,-257.08 76.52,-267.44 81.27,-257.97 74.33,-257.08"/>
</g>
<!-- Node6 -->
<g id="node6" class="node">
<title>Node6</title>
<g id="a_node6"><a xlink:href="compat_2vsomeip_2vsomeip_8hpp.html" target="_top" xlink:title=" ">
<polygon fill="white" stroke="black" points="144,-184 144,-225 292,-225 292,-184 144,-184"/>
<text text-anchor="start" x="152" y="-213" font-family="Helvetica,sans-Serif" font-size="10.00">/home/kali/projects</text>
<text text-anchor="start" x="152" y="-202" font-family="Helvetica,sans-Serif" font-size="10.00">/vsomeip/interface/compat</text>
<text text-anchor="middle" x="218" y="-191" font-family="Helvetica,sans-Serif" font-size="10.00">/vsomeip/vsomeip.hpp</text>
</a>
</g>
</g>
<!-- Node2&#45;&gt;Node6 -->
<g id="edge5" class="edge">
<title>Node2&#45;&gt;Node6</title>
<path fill="none" stroke="midnightblue" d="M117.27,-262.51C138.39,-250.56 163.45,-236.37 183.29,-225.14"/>
<polygon fill="midnightblue" stroke="midnightblue" points="115.47,-259.51 108.49,-267.48 118.92,-265.6 115.47,-259.51"/>
</g>
<!-- Node4 -->
<g id="node4" class="node">
<title>Node4</title>
<g id="a_node4"><a xlink:href="compat_2runtime_2src_2application__impl_8cpp.html" target="_top" xlink:title=" ">
<polygon fill="white" stroke="black" points="192,-0.5 192,-52.5 364,-52.5 364,-0.5 192,-0.5"/>
<text text-anchor="start" x="200" y="-40.5" font-family="Helvetica,sans-Serif" font-size="10.00">/home/kali/projects</text>
<text text-anchor="start" x="200" y="-29.5" font-family="Helvetica,sans-Serif" font-size="10.00">/vsomeip/implementation</text>
<text text-anchor="start" x="200" y="-18.5" font-family="Helvetica,sans-Serif" font-size="10.00">/compat/runtime/src/application</text>
<text text-anchor="middle" x="278" y="-7.5" font-family="Helvetica,sans-Serif" font-size="10.00">_impl.cpp</text>
</a>
</g>
</g>
<!-- Node3&#45;&gt;Node4 -->
<g id="edge3" class="edge">
<title>Node3&#45;&gt;Node4</title>
<path fill="none" stroke="midnightblue" d="M157.89,-84.92C179.86,-74.41 204.36,-62.7 225.48,-52.61"/>
<polygon fill="midnightblue" stroke="midnightblue" points="156.15,-81.87 148.64,-89.34 159.17,-88.18 156.15,-81.87"/>
</g>
<!-- Node5 -->
<g id="node5" class="node">
<title>Node5</title>
<g id="a_node5"><a xlink:href="compat_2runtime_2src_2runtime__impl_8cpp.html" target="_top" xlink:title=" ">
<polygon fill="white" stroke="black" points="18,-0.5 18,-52.5 174,-52.5 174,-0.5 18,-0.5"/>
<text text-anchor="start" x="26" y="-40.5" font-family="Helvetica,sans-Serif" font-size="10.00">/home/kali/projects</text>
<text text-anchor="start" x="26" y="-29.5" font-family="Helvetica,sans-Serif" font-size="10.00">/vsomeip/implementation</text>
<text text-anchor="start" x="26" y="-18.5" font-family="Helvetica,sans-Serif" font-size="10.00">/compat/runtime/src/runtime</text>
<text text-anchor="middle" x="96" y="-7.5" font-family="Helvetica,sans-Serif" font-size="10.00">_impl.cpp</text>
</a>
</g>
</g>
<!-- Node3&#45;&gt;Node5 -->
<g id="edge4" class="edge">
<title>Node3&#45;&gt;Node5</title>
<path fill="none" stroke="midnightblue" d="M96,-79.19C96,-70.28 96,-60.9 96,-52.61"/>
<polygon fill="midnightblue" stroke="midnightblue" points="92.5,-79.34 96,-89.34 99.5,-79.34 92.5,-79.34"/>
</g>
<!-- Node7&#45;&gt;Node2 -->
<g id="edge7" class="edge">
<title>Node7&#45;&gt;Node2</title>
<path fill="none" stroke="midnightblue" d="M141.58,-339.35C128.05,-329.27 112.78,-317.89 100.18,-308.51"/>
<polygon fill="midnightblue" stroke="midnightblue" points="139.62,-342.26 149.73,-345.43 143.8,-336.65 139.62,-342.26"/>
</g>
<!-- Node7&#45;&gt;Node6 -->
<g id="edge10" class="edge">
<title>Node7&#45;&gt;Node6</title>
<path fill="none" stroke="midnightblue" d="M180.47,-335.11C183.72,-315.54 188.65,-289.52 195,-267 199.02,-252.74 204.89,-237.1 209.69,-225.16"/>
<polygon fill="midnightblue" stroke="midnightblue" points="176.97,-334.82 178.84,-345.25 183.88,-335.93 176.97,-334.82"/>
</g>
<!-- Node8 -->
<g id="node8" class="node">
<title>Node8</title>
<g id="a_node8"><a xlink:href="interface_2compat_2vsomeip_2trace_8hpp.html" target="_top" xlink:title=" ">
<polygon fill="white" stroke="black" points="204,-267.5 204,-308.5 352,-308.5 352,-267.5 204,-267.5"/>
<text text-anchor="start" x="212" y="-296.5" font-family="Helvetica,sans-Serif" font-size="10.00">/home/kali/projects</text>
<text text-anchor="start" x="212" y="-285.5" font-family="Helvetica,sans-Serif" font-size="10.00">/vsomeip/interface/compat</text>
<text text-anchor="middle" x="278" y="-274.5" font-family="Helvetica,sans-Serif" font-size="10.00">/vsomeip/trace.hpp</text>
</a>
</g>
</g>
<!-- Node7&#45;&gt;Node8 -->
<g id="edge8" class="edge">
<title>Node7&#45;&gt;Node8</title>
<path fill="none" stroke="midnightblue" d="M210.42,-339.35C223.95,-329.27 239.22,-317.89 251.82,-308.51"/>
<polygon fill="midnightblue" stroke="midnightblue" points="208.2,-336.65 202.27,-345.43 212.38,-342.26 208.2,-336.65"/>
</g>
<!-- Node8&#45;&gt;Node6 -->
<g id="edge9" class="edge">
<title>Node8&#45;&gt;Node6</title>
<path fill="none" stroke="midnightblue" d="M257.43,-259.05C249.18,-247.86 239.89,-235.23 232.39,-225.05"/>
<polygon fill="midnightblue" stroke="midnightblue" points="254.73,-261.29 263.48,-267.27 260.37,-257.14 254.73,-261.29"/>
</g>
<!-- Node10 -->
<g id="node10" class="node">
<title>Node10</title>
<g id="a_node10"><a xlink:href="compat_2vsomeip_2message_8hpp.html" target="_top" xlink:title=" ">
<polygon fill="white" stroke="black" points="370,-267.5 370,-308.5 518,-308.5 518,-267.5 370,-267.5"/>
<text text-anchor="start" x="378" y="-296.5" font-family="Helvetica,sans-Serif" font-size="10.00">/home/kali/projects</text>
<text text-anchor="start" x="378" y="-285.5" font-family="Helvetica,sans-Serif" font-size="10.00">/vsomeip/interface/compat</text>
<text text-anchor="middle" x="444" y="-274.5" font-family="Helvetica,sans-Serif" font-size="10.00">/vsomeip/message.hpp</text>
</a>
</g>
</g>
<!-- Node9&#45;&gt;Node10 -->
<g id="edge12" class="edge">
<title>Node9&#45;&gt;Node10</title>
<path fill="none" stroke="midnightblue" d="M413.21,-336.76C419.27,-327.35 425.89,-317.1 431.42,-308.51"/>
<polygon fill="midnightblue" stroke="midnightblue" points="410.1,-335.13 407.62,-345.43 415.98,-338.92 410.1,-335.13"/>
</g>
<!-- Node10&#45;&gt;Node6 -->
<g id="edge20" class="edge">
<title>Node10&#45;&gt;Node6</title>
<path fill="none" stroke="midnightblue" d="M380.45,-264.08C346.31,-251.77 304.66,-236.75 272.08,-225"/>
<polygon fill="midnightblue" stroke="midnightblue" points="379.27,-267.38 389.87,-267.48 381.65,-260.79 379.27,-267.38"/>
</g>
<!-- Node11 -->
<g id="node11" class="node">
<title>Node11</title>
<g id="a_node11"><a xlink:href="compat_2message_2include_2message__base__impl_8hpp.html" target="_top" xlink:title=" ">
<polygon fill="white" stroke="black" points="372.5,-178.5 372.5,-230.5 515.5,-230.5 515.5,-178.5 372.5,-178.5"/>
<text text-anchor="start" x="380.5" y="-218.5" font-family="Helvetica,sans-Serif" font-size="10.00">/home/kali/projects</text>
<text text-anchor="start" x="380.5" y="-207.5" font-family="Helvetica,sans-Serif" font-size="10.00">/vsomeip/implementation</text>
<text text-anchor="start" x="380.5" y="-196.5" font-family="Helvetica,sans-Serif" font-size="10.00">/compat/message/include</text>
<text text-anchor="middle" x="444" y="-185.5" font-family="Helvetica,sans-Serif" font-size="10.00">/message_base_impl.hpp</text>
</a>
</g>
</g>
<!-- Node10&#45;&gt;Node11 -->
<g id="edge13" class="edge">
<title>Node10&#45;&gt;Node11</title>
<path fill="none" stroke="midnightblue" d="M444,-257.12C444,-248.41 444,-238.99 444,-230.61"/>
<polygon fill="midnightblue" stroke="midnightblue" points="440.5,-257.27 444,-267.27 447.5,-257.27 440.5,-257.27"/>
</g>
<!-- Node12 -->
<g id="node12" class="node">
<title>Node12</title>
<g id="a_node12"><a xlink:href="compat_2message_2include_2message__impl_8hpp.html" target="_top" xlink:title=" ">
<polygon fill="white" stroke="black" points="235.5,-89.5 235.5,-141.5 378.5,-141.5 378.5,-89.5 235.5,-89.5"/>
<text text-anchor="start" x="243.5" y="-129.5" font-family="Helvetica,sans-Serif" font-size="10.00">/home/kali/projects</text>
<text text-anchor="start" x="243.5" y="-118.5" font-family="Helvetica,sans-Serif" font-size="10.00">/vsomeip/implementation</text>
<text text-anchor="start" x="243.5" y="-107.5" font-family="Helvetica,sans-Serif" font-size="10.00">/compat/message/include</text>
<text text-anchor="middle" x="307" y="-96.5" font-family="Helvetica,sans-Serif" font-size="10.00">/message_impl.hpp</text>
</a>
</g>
</g>
<!-- Node10&#45;&gt;Node12 -->
<g id="edge19" class="edge">
<title>Node10&#45;&gt;Node12</title>
<path fill="none" stroke="midnightblue" d="M398.73,-261.66C386.08,-253.09 373.05,-242.69 363,-231 340.06,-204.33 324.01,-166.62 315.14,-141.87"/>
<polygon fill="midnightblue" stroke="midnightblue" points="397.1,-264.78 407.39,-267.3 400.92,-258.91 397.1,-264.78"/>
</g>
<!-- Node11&#45;&gt;Node12 -->
<g id="edge14" class="edge">
<title>Node11&#45;&gt;Node12</title>
<path fill="none" stroke="midnightblue" d="M395.64,-172.79C379.56,-162.58 361.86,-151.34 346.54,-141.61"/>
<polygon fill="midnightblue" stroke="midnightblue" points="394.06,-175.93 404.37,-178.34 397.81,-170.02 394.06,-175.93"/>
</g>
<!-- Node14 -->
<g id="node14" class="node">
<title>Node14</title>
<g id="a_node14"><a xlink:href="compat_2message_2src_2message__base__impl_8cpp.html" target="_top" xlink:title=" ">
<polygon fill="white" stroke="black" points="397,-89.5 397,-141.5 565,-141.5 565,-89.5 397,-89.5"/>
<text text-anchor="start" x="405" y="-129.5" font-family="Helvetica,sans-Serif" font-size="10.00">/home/kali/projects</text>
<text text-anchor="start" x="405" y="-118.5" font-family="Helvetica,sans-Serif" font-size="10.00">/vsomeip/implementation</text>
<text text-anchor="start" x="405" y="-107.5" font-family="Helvetica,sans-Serif" font-size="10.00">/compat/message/src/message</text>
<text text-anchor="middle" x="481" y="-96.5" font-family="Helvetica,sans-Serif" font-size="10.00">_base_impl.cpp</text>
</a>
</g>
</g>
<!-- Node11&#45;&gt;Node14 -->
<g id="edge18" class="edge">
<title>Node11&#45;&gt;Node14</title>
<path fill="none" stroke="midnightblue" d="M458.65,-169.06C462.54,-159.9 466.68,-150.17 470.32,-141.61"/>
<polygon fill="midnightblue" stroke="midnightblue" points="455.39,-167.76 454.7,-178.34 461.84,-170.5 455.39,-167.76"/>
</g>
<!-- Node12&#45;&gt;Node4 -->
<g id="edge16" class="edge">
<title>Node12&#45;&gt;Node4</title>
<path fill="none" stroke="midnightblue" d="M295.42,-79.77C292.4,-70.69 289.19,-61.08 286.37,-52.61"/>
<polygon fill="midnightblue" stroke="midnightblue" points="292.13,-80.96 298.61,-89.34 298.77,-78.74 292.13,-80.96"/>
</g>
<!-- Node12&#45;&gt;Node5 -->
<g id="edge17" class="edge">
<title>Node12&#45;&gt;Node5</title>
<path fill="none" stroke="midnightblue" d="M236.85,-85.58C210.9,-74.88 181.72,-62.85 156.68,-52.52"/>
<polygon fill="midnightblue" stroke="midnightblue" points="235.67,-88.88 246.25,-89.45 238.34,-82.41 235.67,-88.88"/>
</g>
<!-- Node13 -->
<g id="node13" class="node">
<title>Node13</title>
<g id="a_node13"><a xlink:href="compat_2message_2src_2message__impl_8cpp.html" target="_top" xlink:title=" ">
<polygon fill="white" stroke="black" points="382,-0.5 382,-52.5 550,-52.5 550,-0.5 382,-0.5"/>
<text text-anchor="start" x="390" y="-40.5" font-family="Helvetica,sans-Serif" font-size="10.00">/home/kali/projects</text>
<text text-anchor="start" x="390" y="-29.5" font-family="Helvetica,sans-Serif" font-size="10.00">/vsomeip/implementation</text>
<text text-anchor="start" x="390" y="-18.5" font-family="Helvetica,sans-Serif" font-size="10.00">/compat/message/src/message</text>
<text text-anchor="middle" x="466" y="-7.5" font-family="Helvetica,sans-Serif" font-size="10.00">_impl.cpp</text>
</a>
</g>
</g>
<!-- Node12&#45;&gt;Node13 -->
<g id="edge15" class="edge">
<title>Node12&#45;&gt;Node13</title>
<path fill="none" stroke="midnightblue" d="M361.84,-84.49C380.83,-74.1 401.91,-62.57 420.11,-52.61"/>
<polygon fill="midnightblue" stroke="midnightblue" points="360.08,-81.47 352.99,-89.34 363.44,-87.61 360.08,-81.47"/>
</g>
</g>
</svg>
