<?xml version="1.0" encoding="UTF-8" standalone="no"?>
<!DOCTYPE svg PUBLIC "-//W3C//DTD SVG 1.1//EN"
 "http://www.w3.org/Graphics/SVG/1.1/DTD/svg11.dtd">
<!-- Generated by graphviz version 2.43.0 (0)
 -->
<!-- Title: /home/kali/projects/vsomeip/implementation/service_discovery/include/ip_option_impl.hpp Pages: 1 -->
<svg width="907pt" height="328pt"
 viewBox="0.00 0.00 907.20 328.00" xmlns="http://www.w3.org/2000/svg" xmlns:xlink="http://www.w3.org/1999/xlink">
<g id="graph0" class="graph" transform="scale(1 1) rotate(0) translate(4 324)">
<title>/home/kali/projects/vsomeip/implementation/service_discovery/include/ip_option_impl.hpp</title>
<polygon fill="white" stroke="transparent" points="-4,4 -4,-324 903.2,-324 903.2,4 -4,4"/>
<!-- Node1 -->
<g id="node1" class="node">
<title>Node1</title>
<g id="a_node1"><a xlink:title=" ">
<polygon fill="#bfbfbf" stroke="black" points="316.5,-267.5 316.5,-319.5 462.5,-319.5 462.5,-267.5 316.5,-267.5"/>
<text text-anchor="start" x="324.5" y="-307.5" font-family="Helvetica,sans-Serif" font-size="10.00">/home/kali/projects</text>
<text text-anchor="start" x="324.5" y="-296.5" font-family="Helvetica,sans-Serif" font-size="10.00">/vsomeip/implementation</text>
<text text-anchor="start" x="324.5" y="-285.5" font-family="Helvetica,sans-Serif" font-size="10.00">/service_discovery/include</text>
<text text-anchor="middle" x="389.5" y="-274.5" font-family="Helvetica,sans-Serif" font-size="10.00">/ip_option_impl.hpp</text>
</a>
</g>
</g>
<!-- Node2 -->
<g id="node2" class="node">
<title>Node2</title>
<g id="a_node2"><a xlink:href="ipv4__option__impl_8hpp.html" target="_top" xlink:title=" ">
<polygon fill="white" stroke="black" points="398.5,-178.5 398.5,-230.5 544.5,-230.5 544.5,-178.5 398.5,-178.5"/>
<text text-anchor="start" x="406.5" y="-218.5" font-family="Helvetica,sans-Serif" font-size="10.00">/home/kali/projects</text>
<text text-anchor="start" x="406.5" y="-207.5" font-family="Helvetica,sans-Serif" font-size="10.00">/vsomeip/implementation</text>
<text text-anchor="start" x="406.5" y="-196.5" font-family="Helvetica,sans-Serif" font-size="10.00">/service_discovery/include</text>
<text text-anchor="middle" x="471.5" y="-185.5" font-family="Helvetica,sans-Serif" font-size="10.00">/ipv4_option_impl.hpp</text>
</a>
</g>
</g>
<!-- Node1&#45;&gt;Node2 -->
<g id="edge1" class="edge">
<title>Node1&#45;&gt;Node2</title>
<path fill="none" stroke="midnightblue" d="M420.33,-259.79C429.44,-250.13 439.26,-239.71 447.84,-230.61"/>
<polygon fill="midnightblue" stroke="midnightblue" points="417.53,-257.66 413.22,-267.34 422.62,-262.46 417.53,-257.66"/>
</g>
<!-- Node3 -->
<g id="node3" class="node">
<title>Node3</title>
<g id="a_node3"><a xlink:href="service__discovery__impl_8hpp.html" target="_top" xlink:title=" ">
<polygon fill="white" stroke="black" points="24,-89.5 24,-141.5 179,-141.5 179,-89.5 24,-89.5"/>
<text text-anchor="start" x="32" y="-129.5" font-family="Helvetica,sans-Serif" font-size="10.00">/home/kali/projects</text>
<text text-anchor="start" x="32" y="-118.5" font-family="Helvetica,sans-Serif" font-size="10.00">/vsomeip/implementation</text>
<text text-anchor="start" x="32" y="-107.5" font-family="Helvetica,sans-Serif" font-size="10.00">/service_discovery/include</text>
<text text-anchor="middle" x="101.5" y="-96.5" font-family="Helvetica,sans-Serif" font-size="10.00">/service_discovery_impl.hpp</text>
</a>
</g>
</g>
<!-- Node1&#45;&gt;Node3 -->
<g id="edge15" class="edge">
<title>Node1&#45;&gt;Node3</title>
<path fill="none" stroke="midnightblue" d="M307.03,-268.59C280,-258.95 250.51,-246.41 225.5,-231 185.34,-206.25 146.65,-167.35 123.46,-141.88"/>
<polygon fill="midnightblue" stroke="midnightblue" points="305.88,-271.89 316.47,-271.87 308.18,-265.28 305.88,-271.89"/>
</g>
<!-- Node9 -->
<g id="node9" class="node">
<title>Node9</title>
<g id="a_node9"><a xlink:href="ipv6__option__impl_8hpp.html" target="_top" xlink:title=" ">
<polygon fill="white" stroke="black" points="234.5,-178.5 234.5,-230.5 380.5,-230.5 380.5,-178.5 234.5,-178.5"/>
<text text-anchor="start" x="242.5" y="-218.5" font-family="Helvetica,sans-Serif" font-size="10.00">/home/kali/projects</text>
<text text-anchor="start" x="242.5" y="-207.5" font-family="Helvetica,sans-Serif" font-size="10.00">/vsomeip/implementation</text>
<text text-anchor="start" x="242.5" y="-196.5" font-family="Helvetica,sans-Serif" font-size="10.00">/service_discovery/include</text>
<text text-anchor="middle" x="307.5" y="-185.5" font-family="Helvetica,sans-Serif" font-size="10.00">/ipv6_option_impl.hpp</text>
</a>
</g>
</g>
<!-- Node1&#45;&gt;Node9 -->
<g id="edge9" class="edge">
<title>Node1&#45;&gt;Node9</title>
<path fill="none" stroke="midnightblue" d="M358.67,-259.79C349.56,-250.13 339.74,-239.71 331.16,-230.61"/>
<polygon fill="midnightblue" stroke="midnightblue" points="356.38,-262.46 365.78,-267.34 361.47,-257.66 356.38,-262.46"/>
</g>
<!-- Node11 -->
<g id="node11" class="node">
<title>Node11</title>
<g id="a_node11"><a xlink:href="ip__option__impl_8cpp.html" target="_top" xlink:title=" ">
<polygon fill="white" stroke="black" points="563,-178.5 563,-230.5 706,-230.5 706,-178.5 563,-178.5"/>
<text text-anchor="start" x="571" y="-218.5" font-family="Helvetica,sans-Serif" font-size="10.00">/home/kali/projects</text>
<text text-anchor="start" x="571" y="-207.5" font-family="Helvetica,sans-Serif" font-size="10.00">/vsomeip/implementation</text>
<text text-anchor="start" x="571" y="-196.5" font-family="Helvetica,sans-Serif" font-size="10.00">/service_discovery/src</text>
<text text-anchor="middle" x="634.5" y="-185.5" font-family="Helvetica,sans-Serif" font-size="10.00">/ip_option_impl.cpp</text>
</a>
</g>
</g>
<!-- Node1&#45;&gt;Node11 -->
<g id="edge16" class="edge">
<title>Node1&#45;&gt;Node11</title>
<path fill="none" stroke="midnightblue" d="M469.76,-264C500.19,-253.19 534.58,-240.98 564.04,-230.52"/>
<polygon fill="midnightblue" stroke="midnightblue" points="468.29,-260.81 460.04,-267.45 470.63,-267.4 468.29,-260.81"/>
</g>
<!-- Node2&#45;&gt;Node3 -->
<g id="edge2" class="edge">
<title>Node2&#45;&gt;Node3</title>
<path fill="none" stroke="midnightblue" d="M388.42,-177.84C337.77,-165.14 245.92,-145.94 179.3,-132.28"/>
<polygon fill="midnightblue" stroke="midnightblue" points="387.72,-181.27 398.28,-180.37 389.46,-174.49 387.72,-181.27"/>
</g>
<!-- Node5 -->
<g id="node5" class="node">
<title>Node5</title>
<g id="a_node5"><a xlink:href="service__discovery__impl_8cpp.html" target="_top" xlink:title=" ">
<polygon fill="white" stroke="black" points="161,-0.5 161,-52.5 316,-52.5 316,-0.5 161,-0.5"/>
<text text-anchor="start" x="169" y="-40.5" font-family="Helvetica,sans-Serif" font-size="10.00">/home/kali/projects</text>
<text text-anchor="start" x="169" y="-29.5" font-family="Helvetica,sans-Serif" font-size="10.00">/vsomeip/implementation</text>
<text text-anchor="start" x="169" y="-18.5" font-family="Helvetica,sans-Serif" font-size="10.00">/service_discovery/src</text>
<text text-anchor="middle" x="238.5" y="-7.5" font-family="Helvetica,sans-Serif" font-size="10.00">/service_discovery_impl.cpp</text>
</a>
</g>
</g>
<!-- Node2&#45;&gt;Node5 -->
<g id="edge8" class="edge">
<title>Node2&#45;&gt;Node5</title>
<path fill="none" stroke="midnightblue" d="M554.2,-178.06C554.3,-178.04 554.4,-178.02 554.5,-178 700.3,-147.76 977.62,-199.22 877.5,-89 840.38,-48.14 477.98,-33.69 316.02,-29.24"/>
<polygon fill="midnightblue" stroke="midnightblue" points="553.61,-174.61 544.63,-180.22 555.15,-181.44 553.61,-174.61"/>
</g>
<!-- Node6 -->
<g id="node6" class="node">
<title>Node6</title>
<g id="a_node6"><a xlink:href="eventgroupentry__impl_8cpp.html" target="_top" xlink:title=" ">
<polygon fill="white" stroke="black" points="558.5,-89.5 558.5,-141.5 706.5,-141.5 706.5,-89.5 558.5,-89.5"/>
<text text-anchor="start" x="566.5" y="-129.5" font-family="Helvetica,sans-Serif" font-size="10.00">/home/kali/projects</text>
<text text-anchor="start" x="566.5" y="-118.5" font-family="Helvetica,sans-Serif" font-size="10.00">/vsomeip/implementation</text>
<text text-anchor="start" x="566.5" y="-107.5" font-family="Helvetica,sans-Serif" font-size="10.00">/service_discovery/src</text>
<text text-anchor="middle" x="632.5" y="-96.5" font-family="Helvetica,sans-Serif" font-size="10.00">/eventgroupentry_impl.cpp</text>
</a>
</g>
</g>
<!-- Node2&#45;&gt;Node6 -->
<g id="edge5" class="edge">
<title>Node2&#45;&gt;Node6</title>
<path fill="none" stroke="midnightblue" d="M527.03,-173.49C546.26,-163.1 567.61,-151.57 586.04,-141.61"/>
<polygon fill="midnightblue" stroke="midnightblue" points="525.2,-170.5 518.07,-178.34 528.53,-176.66 525.2,-170.5"/>
</g>
<!-- Node7 -->
<g id="node7" class="node">
<title>Node7</title>
<g id="a_node7"><a xlink:href="ipv4__option__impl_8cpp.html" target="_top" xlink:title=" ">
<polygon fill="white" stroke="black" points="725,-89.5 725,-141.5 868,-141.5 868,-89.5 725,-89.5"/>
<text text-anchor="start" x="733" y="-129.5" font-family="Helvetica,sans-Serif" font-size="10.00">/home/kali/projects</text>
<text text-anchor="start" x="733" y="-118.5" font-family="Helvetica,sans-Serif" font-size="10.00">/vsomeip/implementation</text>
<text text-anchor="start" x="733" y="-107.5" font-family="Helvetica,sans-Serif" font-size="10.00">/service_discovery/src</text>
<text text-anchor="middle" x="796.5" y="-96.5" font-family="Helvetica,sans-Serif" font-size="10.00">/ipv4_option_impl.cpp</text>
</a>
</g>
</g>
<!-- Node2&#45;&gt;Node7 -->
<g id="edge6" class="edge">
<title>Node2&#45;&gt;Node7</title>
<path fill="none" stroke="midnightblue" d="M554.2,-178.08C554.3,-178.05 554.4,-178.03 554.5,-178 625.38,-159.22 644.69,-161.03 715.5,-142 718.49,-141.2 721.53,-140.35 724.6,-139.48"/>
<polygon fill="midnightblue" stroke="midnightblue" points="553.46,-174.65 544.73,-180.66 555.3,-181.41 553.46,-174.65"/>
</g>
<!-- Node8 -->
<g id="node8" class="node">
<title>Node8</title>
<g id="a_node8"><a xlink:href="service__discovery_2src_2message__impl_8cpp.html" target="_top" xlink:title=" ">
<polygon fill="white" stroke="black" points="397,-89.5 397,-141.5 540,-141.5 540,-89.5 397,-89.5"/>
<text text-anchor="start" x="405" y="-129.5" font-family="Helvetica,sans-Serif" font-size="10.00">/home/kali/projects</text>
<text text-anchor="start" x="405" y="-118.5" font-family="Helvetica,sans-Serif" font-size="10.00">/vsomeip/implementation</text>
<text text-anchor="start" x="405" y="-107.5" font-family="Helvetica,sans-Serif" font-size="10.00">/service_discovery/src</text>
<text text-anchor="middle" x="468.5" y="-96.5" font-family="Helvetica,sans-Serif" font-size="10.00">/message_impl.cpp</text>
</a>
</g>
</g>
<!-- Node2&#45;&gt;Node8 -->
<g id="edge7" class="edge">
<title>Node2&#45;&gt;Node8</title>
<path fill="none" stroke="midnightblue" d="M470.28,-168.19C469.98,-159.28 469.65,-149.9 469.37,-141.61"/>
<polygon fill="midnightblue" stroke="midnightblue" points="466.79,-168.46 470.63,-178.34 473.79,-168.22 466.79,-168.46"/>
</g>
<!-- Node4 -->
<g id="node4" class="node">
<title>Node4</title>
<g id="a_node4"><a xlink:href="service__discovery_2src_2runtime__impl_8cpp.html" target="_top" xlink:title=" ">
<polygon fill="white" stroke="black" points="0,-0.5 0,-52.5 143,-52.5 143,-0.5 0,-0.5"/>
<text text-anchor="start" x="8" y="-40.5" font-family="Helvetica,sans-Serif" font-size="10.00">/home/kali/projects</text>
<text text-anchor="start" x="8" y="-29.5" font-family="Helvetica,sans-Serif" font-size="10.00">/vsomeip/implementation</text>
<text text-anchor="start" x="8" y="-18.5" font-family="Helvetica,sans-Serif" font-size="10.00">/service_discovery/src</text>
<text text-anchor="middle" x="71.5" y="-7.5" font-family="Helvetica,sans-Serif" font-size="10.00">/runtime_impl.cpp</text>
</a>
</g>
</g>
<!-- Node3&#45;&gt;Node4 -->
<g id="edge3" class="edge">
<title>Node3&#45;&gt;Node4</title>
<path fill="none" stroke="midnightblue" d="M89.52,-79.77C86.39,-70.69 83.08,-61.08 80.16,-52.61"/>
<polygon fill="midnightblue" stroke="midnightblue" points="86.25,-81.02 92.82,-89.34 92.87,-78.74 86.25,-81.02"/>
</g>
<!-- Node3&#45;&gt;Node5 -->
<g id="edge4" class="edge">
<title>Node3&#45;&gt;Node5</title>
<path fill="none" stroke="midnightblue" d="M149.86,-83.79C165.94,-73.58 183.64,-62.34 198.96,-52.61"/>
<polygon fill="midnightblue" stroke="midnightblue" points="147.69,-81.02 141.13,-89.34 151.44,-86.93 147.69,-81.02"/>
</g>
<!-- Node9&#45;&gt;Node3 -->
<g id="edge10" class="edge">
<title>Node9&#45;&gt;Node3</title>
<path fill="none" stroke="midnightblue" d="M238.68,-174.44C213.43,-163.77 185.08,-151.8 160.75,-141.52"/>
<polygon fill="midnightblue" stroke="midnightblue" points="237.62,-177.79 248.19,-178.45 240.34,-171.34 237.62,-177.79"/>
</g>
<!-- Node9&#45;&gt;Node5 -->
<g id="edge14" class="edge">
<title>Node9&#45;&gt;Node5</title>
<path fill="none" stroke="midnightblue" d="M252.12,-171.87C242.18,-163.51 233.18,-153.53 227.5,-142 213.56,-113.7 221.02,-76.71 228.77,-52.55"/>
<polygon fill="midnightblue" stroke="midnightblue" points="250.22,-174.83 260.26,-178.23 254.54,-169.31 250.22,-174.83"/>
</g>
<!-- Node9&#45;&gt;Node6 -->
<g id="edge11" class="edge">
<title>Node9&#45;&gt;Node6</title>
<path fill="none" stroke="midnightblue" d="M390.62,-177.79C461.65,-159.26 482.08,-159.91 549.5,-142 552.41,-141.23 555.38,-140.42 558.37,-139.58"/>
<polygon fill="midnightblue" stroke="midnightblue" points="389.5,-174.47 380.73,-180.41 391.3,-181.23 389.5,-174.47"/>
</g>
<!-- Node9&#45;&gt;Node8 -->
<g id="edge13" class="edge">
<title>Node9&#45;&gt;Node8</title>
<path fill="none" stroke="midnightblue" d="M363.03,-173.49C382.26,-163.1 403.61,-151.57 422.04,-141.61"/>
<polygon fill="midnightblue" stroke="midnightblue" points="361.2,-170.5 354.07,-178.34 364.53,-176.66 361.2,-170.5"/>
</g>
<!-- Node10 -->
<g id="node10" class="node">
<title>Node10</title>
<g id="a_node10"><a xlink:href="ipv6__option__impl_8cpp.html" target="_top" xlink:title=" ">
<polygon fill="white" stroke="black" points="236,-89.5 236,-141.5 379,-141.5 379,-89.5 236,-89.5"/>
<text text-anchor="start" x="244" y="-129.5" font-family="Helvetica,sans-Serif" font-size="10.00">/home/kali/projects</text>
<text text-anchor="start" x="244" y="-118.5" font-family="Helvetica,sans-Serif" font-size="10.00">/vsomeip/implementation</text>
<text text-anchor="start" x="244" y="-107.5" font-family="Helvetica,sans-Serif" font-size="10.00">/service_discovery/src</text>
<text text-anchor="middle" x="307.5" y="-96.5" font-family="Helvetica,sans-Serif" font-size="10.00">/ipv6_option_impl.cpp</text>
</a>
</g>
</g>
<!-- Node9&#45;&gt;Node10 -->
<g id="edge12" class="edge">
<title>Node9&#45;&gt;Node10</title>
<path fill="none" stroke="midnightblue" d="M307.5,-168.19C307.5,-159.28 307.5,-149.9 307.5,-141.61"/>
<polygon fill="midnightblue" stroke="midnightblue" points="304,-168.34 307.5,-178.34 311,-168.34 304,-168.34"/>
</g>
</g>
</svg>
