<?xml version="1.0" encoding="UTF-8" standalone="no"?>
<!DOCTYPE svg PUBLIC "-//W3C//DTD SVG 1.1//EN"
 "http://www.w3.org/Graphics/SVG/1.1/DTD/svg11.dtd">
<!-- Generated by graphviz version 2.43.0 (0)
 -->
<!-- Title: /home/kali/projects/vsomeip/implementation/service_discovery/src/ip_option_impl.cpp Pages: 1 -->
<svg width="1160pt" height="307pt"
 viewBox="0.00 0.00 1159.50 307.00" xmlns="http://www.w3.org/2000/svg" xmlns:xlink="http://www.w3.org/1999/xlink">
<g id="graph0" class="graph" transform="scale(1 1) rotate(0) translate(4 303)">
<title>/home/kali/projects/vsomeip/implementation/service_discovery/src/ip_option_impl.cpp</title>
<polygon fill="white" stroke="transparent" points="-4,4 -4,-303 1155.5,-303 1155.5,4 -4,4"/>
<!-- Node1 -->
<g id="node1" class="node">
<title>Node1</title>
<g id="a_node1"><a xlink:title=" ">
<polygon fill="#bfbfbf" stroke="black" points="408.5,-246.5 408.5,-298.5 551.5,-298.5 551.5,-246.5 408.5,-246.5"/>
<text text-anchor="start" x="416.5" y="-286.5" font-family="Helvetica,sans-Serif" font-size="10.00">/home/kali/projects</text>
<text text-anchor="start" x="416.5" y="-275.5" font-family="Helvetica,sans-Serif" font-size="10.00">/vsomeip/implementation</text>
<text text-anchor="start" x="416.5" y="-264.5" font-family="Helvetica,sans-Serif" font-size="10.00">/service_discovery/src</text>
<text text-anchor="middle" x="480" y="-253.5" font-family="Helvetica,sans-Serif" font-size="10.00">/ip_option_impl.cpp</text>
</a>
</g>
</g>
<!-- Node2 -->
<g id="node2" class="node">
<title>Node2</title>
<g id="a_node2"><a xlink:title=" ">
<polygon fill="white" stroke="#bfbfbf" points="67,-185 67,-204 197,-204 197,-185 67,-185"/>
<text text-anchor="middle" x="132" y="-192" font-family="Helvetica,sans-Serif" font-size="10.00">vsomeip/constants.hpp</text>
</a>
</g>
</g>
<!-- Node1&#45;&gt;Node2 -->
<g id="edge1" class="edge">
<title>Node1&#45;&gt;Node2</title>
<path fill="none" stroke="midnightblue" d="M408.32,-255.84C340.42,-241.02 240.28,-219.15 181.04,-206.21"/>
<polygon fill="midnightblue" stroke="midnightblue" points="181.7,-202.77 171.18,-204.06 180.21,-209.61 181.7,-202.77"/>
</g>
<!-- Node3 -->
<g id="node3" class="node">
<title>Node3</title>
<g id="a_node3"><a xlink:href="logger_8hpp.html" target="_top" xlink:title=" ">
<polygon fill="white" stroke="black" points="831.5,-185 831.5,-204 984.5,-204 984.5,-185 831.5,-185"/>
<text text-anchor="middle" x="908" y="-192" font-family="Helvetica,sans-Serif" font-size="10.00">vsomeip/internal/logger.hpp</text>
</a>
</g>
</g>
<!-- Node1&#45;&gt;Node3 -->
<g id="edge2" class="edge">
<title>Node1&#45;&gt;Node3</title>
<path fill="none" stroke="midnightblue" d="M551.64,-258.78C635.45,-243.9 772.57,-219.55 850.01,-205.8"/>
<polygon fill="midnightblue" stroke="midnightblue" points="850.84,-209.21 860.07,-204.01 849.61,-202.31 850.84,-209.21"/>
</g>
<!-- Node11 -->
<g id="node11" class="node">
<title>Node11</title>
<g id="a_node11"><a xlink:href="implementation_2service__discovery_2include_2constants_8hpp.html" target="_top" xlink:title=" ">
<polygon fill="white" stroke="black" points="343,-185 343,-204 475,-204 475,-185 343,-185"/>
<text text-anchor="middle" x="409" y="-192" font-family="Helvetica,sans-Serif" font-size="10.00">../include/constants.hpp</text>
</a>
</g>
</g>
<!-- Node1&#45;&gt;Node11 -->
<g id="edge10" class="edge">
<title>Node1&#45;&gt;Node11</title>
<path fill="none" stroke="midnightblue" d="M456.36,-246.19C445.77,-234.86 433.59,-221.82 424.23,-211.81"/>
<polygon fill="midnightblue" stroke="midnightblue" points="426.52,-209.13 417.14,-204.21 421.41,-213.91 426.52,-209.13"/>
</g>
<!-- Node14 -->
<g id="node14" class="node">
<title>Node14</title>
<g id="a_node14"><a xlink:href="ip__option__impl_8hpp.html" target="_top" xlink:title=" ">
<polygon fill="white" stroke="black" points="215.5,-179.5 215.5,-209.5 324.5,-209.5 324.5,-179.5 215.5,-179.5"/>
<text text-anchor="start" x="223.5" y="-197.5" font-family="Helvetica,sans-Serif" font-size="10.00">../include/ip_option</text>
<text text-anchor="middle" x="270" y="-186.5" font-family="Helvetica,sans-Serif" font-size="10.00">_impl.hpp</text>
</a>
</g>
</g>
<!-- Node1&#45;&gt;Node14 -->
<g id="edge13" class="edge">
<title>Node1&#45;&gt;Node14</title>
<path fill="none" stroke="midnightblue" d="M410.66,-246.4C380.54,-235.51 345.99,-223 318.67,-213.11"/>
<polygon fill="midnightblue" stroke="midnightblue" points="319.55,-209.71 308.95,-209.6 317.16,-216.29 319.55,-209.71"/>
</g>
<!-- Node19 -->
<g id="node19" class="node">
<title>Node19</title>
<g id="a_node19"><a xlink:href="message_2include_2deserializer_8hpp.html" target="_top" xlink:title=" ">
<polygon fill="white" stroke="black" points="493.5,-179.5 493.5,-209.5 610.5,-209.5 610.5,-179.5 493.5,-179.5"/>
<text text-anchor="start" x="501.5" y="-197.5" font-family="Helvetica,sans-Serif" font-size="10.00">../../message/include</text>
<text text-anchor="middle" x="552" y="-186.5" font-family="Helvetica,sans-Serif" font-size="10.00">/deserializer.hpp</text>
</a>
</g>
</g>
<!-- Node1&#45;&gt;Node19 -->
<g id="edge21" class="edge">
<title>Node1&#45;&gt;Node19</title>
<path fill="none" stroke="midnightblue" d="M503.97,-246.19C512.83,-236.84 522.79,-226.33 531.33,-217.32"/>
<polygon fill="midnightblue" stroke="midnightblue" points="534.07,-219.51 538.41,-209.85 528.99,-214.7 534.07,-219.51"/>
</g>
<!-- Node21 -->
<g id="node21" class="node">
<title>Node21</title>
<g id="a_node21"><a xlink:href="serializer_8hpp.html" target="_top" xlink:title=" ">
<polygon fill="white" stroke="black" points="628.5,-179.5 628.5,-209.5 745.5,-209.5 745.5,-179.5 628.5,-179.5"/>
<text text-anchor="start" x="636.5" y="-197.5" font-family="Helvetica,sans-Serif" font-size="10.00">../../message/include</text>
<text text-anchor="middle" x="687" y="-186.5" font-family="Helvetica,sans-Serif" font-size="10.00">/serializer.hpp</text>
</a>
</g>
</g>
<!-- Node1&#45;&gt;Node21 -->
<g id="edge25" class="edge">
<title>Node1&#45;&gt;Node21</title>
<path fill="none" stroke="midnightblue" d="M548.35,-246.4C578.03,-235.51 612.09,-223 639.03,-213.11"/>
<polygon fill="midnightblue" stroke="midnightblue" points="640.42,-216.33 648.6,-209.6 638.01,-209.76 640.42,-216.33"/>
</g>
<!-- Node4 -->
<g id="node4" class="node">
<title>Node4</title>
<g id="a_node4"><a xlink:title=" ">
<polygon fill="white" stroke="#bfbfbf" points="922,-118 922,-137 972,-137 972,-118 922,-118"/>
<text text-anchor="middle" x="947" y="-125" font-family="Helvetica,sans-Serif" font-size="10.00">chrono</text>
</a>
</g>
</g>
<!-- Node3&#45;&gt;Node4 -->
<g id="edge3" class="edge">
<title>Node3&#45;&gt;Node4</title>
<path fill="none" stroke="midnightblue" d="M913.26,-184.73C919.22,-174.79 929.1,-158.34 936.63,-145.79"/>
<polygon fill="midnightblue" stroke="midnightblue" points="939.68,-147.5 941.82,-137.13 933.68,-143.9 939.68,-147.5"/>
</g>
<!-- Node5 -->
<g id="node5" class="node">
<title>Node5</title>
<g id="a_node5"><a xlink:title=" ">
<polygon fill="white" stroke="#bfbfbf" points="385,-0.5 385,-19.5 435,-19.5 435,-0.5 385,-0.5"/>
<text text-anchor="middle" x="410" y="-7.5" font-family="Helvetica,sans-Serif" font-size="10.00">cstdint</text>
</a>
</g>
</g>
<!-- Node3&#45;&gt;Node5 -->
<g id="edge4" class="edge">
<title>Node3&#45;&gt;Node5</title>
<path fill="none" stroke="midnightblue" d="M926.03,-184.86C954.35,-170.16 1003.83,-139.22 981,-112 911.75,-29.43 558.97,-14.33 445.33,-11.6"/>
<polygon fill="midnightblue" stroke="midnightblue" points="445.17,-8.09 435.09,-11.37 445.01,-15.09 445.17,-8.09"/>
</g>
<!-- Node6 -->
<g id="node6" class="node">
<title>Node6</title>
<g id="a_node6"><a xlink:title=" ">
<polygon fill="white" stroke="#bfbfbf" points="1028,-118 1028,-137 1076,-137 1076,-118 1028,-118"/>
<text text-anchor="middle" x="1052" y="-125" font-family="Helvetica,sans-Serif" font-size="10.00">mutex</text>
</a>
</g>
</g>
<!-- Node3&#45;&gt;Node6 -->
<g id="edge5" class="edge">
<title>Node3&#45;&gt;Node6</title>
<path fill="none" stroke="midnightblue" d="M927.12,-184.87C951.76,-173.75 994.81,-154.32 1023.36,-141.43"/>
<polygon fill="midnightblue" stroke="midnightblue" points="1025.12,-144.47 1032.8,-137.17 1022.24,-138.09 1025.12,-144.47"/>
</g>
<!-- Node7 -->
<g id="node7" class="node">
<title>Node7</title>
<g id="a_node7"><a xlink:title=" ">
<polygon fill="white" stroke="#bfbfbf" points="1094.5,-118 1094.5,-137 1151.5,-137 1151.5,-118 1094.5,-118"/>
<text text-anchor="middle" x="1123" y="-125" font-family="Helvetica,sans-Serif" font-size="10.00">ostream</text>
</a>
</g>
</g>
<!-- Node3&#45;&gt;Node7 -->
<g id="edge6" class="edge">
<title>Node3&#45;&gt;Node7</title>
<path fill="none" stroke="midnightblue" d="M941.21,-184.95C976.98,-175.52 1035.43,-159.5 1085,-143 1087.26,-142.25 1089.59,-141.44 1091.92,-140.61"/>
<polygon fill="midnightblue" stroke="midnightblue" points="1093.24,-143.85 1101.41,-137.11 1090.82,-137.28 1093.24,-143.85"/>
</g>
<!-- Node8 -->
<g id="node8" class="node">
<title>Node8</title>
<g id="a_node8"><a xlink:title=" ">
<polygon fill="white" stroke="#bfbfbf" points="762,-118 762,-137 818,-137 818,-118 762,-118"/>
<text text-anchor="middle" x="790" y="-125" font-family="Helvetica,sans-Serif" font-size="10.00">sstream</text>
</a>
</g>
</g>
<!-- Node3&#45;&gt;Node8 -->
<g id="edge7" class="edge">
<title>Node3&#45;&gt;Node8</title>
<path fill="none" stroke="midnightblue" d="M892.09,-184.73C872.18,-173.77 837.89,-154.88 814.6,-142.05"/>
<polygon fill="midnightblue" stroke="midnightblue" points="816.11,-138.89 805.66,-137.13 812.73,-145.02 816.11,-138.89"/>
</g>
<!-- Node9 -->
<g id="node9" class="node">
<title>Node9</title>
<g id="a_node9"><a xlink:title=" ">
<polygon fill="white" stroke="#bfbfbf" points="836.5,-118 836.5,-137 903.5,-137 903.5,-118 836.5,-118"/>
<text text-anchor="middle" x="870" y="-125" font-family="Helvetica,sans-Serif" font-size="10.00">streambuf</text>
</a>
</g>
</g>
<!-- Node3&#45;&gt;Node9 -->
<g id="edge8" class="edge">
<title>Node3&#45;&gt;Node9</title>
<path fill="none" stroke="midnightblue" d="M902.88,-184.73C897.06,-174.79 887.44,-158.34 880.11,-145.79"/>
<polygon fill="midnightblue" stroke="midnightblue" points="883.11,-143.99 875.04,-137.13 877.07,-147.53 883.11,-143.99"/>
</g>
<!-- Node10 -->
<g id="node10" class="node">
<title>Node10</title>
<g id="a_node10"><a xlink:title=" ">
<polygon fill="white" stroke="#bfbfbf" points="630,-118 630,-137 744,-137 744,-118 630,-118"/>
<text text-anchor="middle" x="687" y="-125" font-family="Helvetica,sans-Serif" font-size="10.00">vsomeip/export.hpp</text>
</a>
</g>
</g>
<!-- Node3&#45;&gt;Node10 -->
<g id="edge9" class="edge">
<title>Node3&#45;&gt;Node10</title>
<path fill="none" stroke="midnightblue" d="M878.65,-184.87C839.33,-173.3 769.45,-152.75 725.81,-139.91"/>
<polygon fill="midnightblue" stroke="midnightblue" points="726.7,-136.53 716.12,-137.06 724.72,-143.24 726.7,-136.53"/>
</g>
<!-- Node12 -->
<g id="node12" class="node">
<title>Node12</title>
<g id="a_node12"><a xlink:title=" ">
<polygon fill="white" stroke="#bfbfbf" points="245,-112.5 245,-142.5 369,-142.5 369,-112.5 245,-112.5"/>
<text text-anchor="start" x="253" y="-130.5" font-family="Helvetica,sans-Serif" font-size="10.00">vsomeip/enumeration</text>
<text text-anchor="middle" x="307" y="-119.5" font-family="Helvetica,sans-Serif" font-size="10.00">_types.hpp</text>
</a>
</g>
</g>
<!-- Node11&#45;&gt;Node12 -->
<g id="edge11" class="edge">
<title>Node11&#45;&gt;Node12</title>
<path fill="none" stroke="midnightblue" d="M395.24,-184.73C380.53,-175.36 356.73,-160.19 337.55,-147.97"/>
<polygon fill="midnightblue" stroke="midnightblue" points="339.42,-145.01 329.11,-142.59 335.66,-150.91 339.42,-145.01"/>
</g>
<!-- Node13 -->
<g id="node13" class="node">
<title>Node13</title>
<g id="a_node13"><a xlink:title=" ">
<polygon fill="white" stroke="#bfbfbf" points="387.5,-118 387.5,-137 546.5,-137 546.5,-118 387.5,-118"/>
<text text-anchor="middle" x="467" y="-125" font-family="Helvetica,sans-Serif" font-size="10.00">vsomeip/primitive_types.hpp</text>
</a>
</g>
</g>
<!-- Node11&#45;&gt;Node13 -->
<g id="edge12" class="edge">
<title>Node11&#45;&gt;Node13</title>
<path fill="none" stroke="midnightblue" d="M416.82,-184.73C425.95,-174.5 441.24,-157.36 452.55,-144.69"/>
<polygon fill="midnightblue" stroke="midnightblue" points="455.26,-146.92 459.3,-137.13 450.03,-142.26 455.26,-146.92"/>
</g>
<!-- Node14&#45;&gt;Node13 -->
<g id="edge14" class="edge">
<title>Node14&#45;&gt;Node13</title>
<path fill="none" stroke="midnightblue" d="M312.75,-179.4C348.23,-167.69 398.11,-151.23 431.44,-140.23"/>
<polygon fill="midnightblue" stroke="midnightblue" points="432.82,-143.46 441.22,-137.01 430.62,-136.82 432.82,-143.46"/>
</g>
<!-- Node15 -->
<g id="node15" class="node">
<title>Node15</title>
<g id="a_node15"><a xlink:href="option__impl_8hpp.html" target="_top" xlink:title=" ">
<polygon fill="white" stroke="black" points="131.5,-118 131.5,-137 226.5,-137 226.5,-118 131.5,-118"/>
<text text-anchor="middle" x="179" y="-125" font-family="Helvetica,sans-Serif" font-size="10.00">option_impl.hpp</text>
</a>
</g>
</g>
<!-- Node14&#45;&gt;Node15 -->
<g id="edge15" class="edge">
<title>Node14&#45;&gt;Node15</title>
<path fill="none" stroke="midnightblue" d="M250.25,-179.4C235.14,-168.6 214.36,-153.76 199.14,-142.89"/>
<polygon fill="midnightblue" stroke="midnightblue" points="201.08,-139.97 190.91,-137.01 197.01,-145.67 201.08,-139.97"/>
</g>
<!-- Node15&#45;&gt;Node5 -->
<g id="edge16" class="edge">
<title>Node15&#45;&gt;Node5</title>
<path fill="none" stroke="midnightblue" d="M212.13,-117.96C219.95,-115.97 228.26,-113.89 236,-112 304.29,-95.33 338.62,-123.96 390,-76 402.67,-64.18 407.38,-44.55 409.1,-29.95"/>
<polygon fill="midnightblue" stroke="midnightblue" points="412.62,-29.81 409.93,-19.56 405.65,-29.25 412.62,-29.81"/>
</g>
<!-- Node16 -->
<g id="node16" class="node">
<title>Node16</title>
<g id="a_node16"><a xlink:title=" ">
<polygon fill="white" stroke="#bfbfbf" points="150,-56.5 150,-75.5 208,-75.5 208,-56.5 150,-56.5"/>
<text text-anchor="middle" x="179" y="-63.5" font-family="Helvetica,sans-Serif" font-size="10.00">memory</text>
</a>
</g>
</g>
<!-- Node15&#45;&gt;Node16 -->
<g id="edge17" class="edge">
<title>Node15&#45;&gt;Node16</title>
<path fill="none" stroke="midnightblue" d="M179,-117.98C179,-109.58 179,-96.48 179,-85.66"/>
<polygon fill="midnightblue" stroke="midnightblue" points="182.5,-85.51 179,-75.51 175.5,-85.51 182.5,-85.51"/>
</g>
<!-- Node17 -->
<g id="node17" class="node">
<title>Node17</title>
<g id="a_node17"><a xlink:href="implementation_2service__discovery_2include_2enumeration__types_8hpp.html" target="_top" xlink:title=" ">
<polygon fill="white" stroke="black" points="0,-56.5 0,-75.5 132,-75.5 132,-56.5 0,-56.5"/>
<text text-anchor="middle" x="66" y="-63.5" font-family="Helvetica,sans-Serif" font-size="10.00">enumeration_types.hpp</text>
</a>
</g>
</g>
<!-- Node15&#45;&gt;Node17 -->
<g id="edge18" class="edge">
<title>Node15&#45;&gt;Node17</title>
<path fill="none" stroke="midnightblue" d="M162.81,-117.98C144.1,-108.12 113.08,-91.79 91.2,-80.27"/>
<polygon fill="midnightblue" stroke="midnightblue" points="92.64,-77.07 82.16,-75.51 89.38,-83.27 92.64,-77.07"/>
</g>
<!-- Node18 -->
<g id="node18" class="node">
<title>Node18</title>
<g id="a_node18"><a xlink:href="message__element__impl_8hpp.html" target="_top" xlink:title=" ">
<polygon fill="white" stroke="black" points="226.5,-56.5 226.5,-75.5 381.5,-75.5 381.5,-56.5 226.5,-56.5"/>
<text text-anchor="middle" x="304" y="-63.5" font-family="Helvetica,sans-Serif" font-size="10.00">message_element_impl.hpp</text>
</a>
</g>
</g>
<!-- Node15&#45;&gt;Node18 -->
<g id="edge20" class="edge">
<title>Node15&#45;&gt;Node18</title>
<path fill="none" stroke="midnightblue" d="M196.91,-117.98C217.89,-107.99 252.85,-91.35 277.09,-79.81"/>
<polygon fill="midnightblue" stroke="midnightblue" points="278.6,-82.97 286.12,-75.51 275.59,-76.65 278.6,-82.97"/>
</g>
<!-- Node17&#45;&gt;Node5 -->
<g id="edge19" class="edge">
<title>Node17&#45;&gt;Node5</title>
<path fill="none" stroke="midnightblue" d="M120.51,-56.44C191.82,-45.25 314.74,-25.95 374.84,-16.52"/>
<polygon fill="midnightblue" stroke="midnightblue" points="375.63,-19.94 384.97,-14.93 374.55,-13.02 375.63,-19.94"/>
</g>
<!-- Node19&#45;&gt;Node10 -->
<g id="edge23" class="edge">
<title>Node19&#45;&gt;Node10</title>
<path fill="none" stroke="midnightblue" d="M581.29,-179.4C604.77,-168.09 637.44,-152.36 660.23,-141.39"/>
<polygon fill="midnightblue" stroke="midnightblue" points="661.84,-144.5 669.33,-137.01 658.8,-138.19 661.84,-144.5"/>
</g>
<!-- Node19&#45;&gt;Node13 -->
<g id="edge24" class="edge">
<title>Node19&#45;&gt;Node13</title>
<path fill="none" stroke="midnightblue" d="M533.56,-179.4C519.65,-168.76 500.61,-154.2 486.46,-143.38"/>
<polygon fill="midnightblue" stroke="midnightblue" points="488.44,-140.49 478.37,-137.19 484.19,-146.05 488.44,-140.49"/>
</g>
<!-- Node20 -->
<g id="node20" class="node">
<title>Node20</title>
<g id="a_node20"><a xlink:title=" ">
<polygon fill="white" stroke="#bfbfbf" points="564.5,-118 564.5,-137 611.5,-137 611.5,-118 564.5,-118"/>
<text text-anchor="middle" x="588" y="-125" font-family="Helvetica,sans-Serif" font-size="10.00">vector</text>
</a>
</g>
</g>
<!-- Node19&#45;&gt;Node20 -->
<g id="edge22" class="edge">
<title>Node19&#45;&gt;Node20</title>
<path fill="none" stroke="midnightblue" d="M559.81,-179.4C565.2,-169.66 572.41,-156.65 578.19,-146.21"/>
<polygon fill="midnightblue" stroke="midnightblue" points="581.4,-147.64 583.18,-137.19 575.28,-144.25 581.4,-147.64"/>
</g>
<!-- Node21&#45;&gt;Node10 -->
<g id="edge27" class="edge">
<title>Node21&#45;&gt;Node10</title>
<path fill="none" stroke="midnightblue" d="M687,-179.4C687,-170.06 687,-157.71 687,-147.52"/>
<polygon fill="midnightblue" stroke="midnightblue" points="690.5,-147.19 687,-137.19 683.5,-147.19 690.5,-147.19"/>
</g>
<!-- Node21&#45;&gt;Node13 -->
<g id="edge28" class="edge">
<title>Node21&#45;&gt;Node13</title>
<path fill="none" stroke="midnightblue" d="M639.53,-179.48C599.58,-167.67 543.16,-151 505.85,-139.98"/>
<polygon fill="midnightblue" stroke="midnightblue" points="506.45,-136.51 495.87,-137.03 504.46,-143.22 506.45,-136.51"/>
</g>
<!-- Node21&#45;&gt;Node20 -->
<g id="edge26" class="edge">
<title>Node21&#45;&gt;Node20</title>
<path fill="none" stroke="midnightblue" d="M665.52,-179.4C648.92,-168.5 626.04,-153.48 609.45,-142.58"/>
<polygon fill="midnightblue" stroke="midnightblue" points="611.24,-139.57 600.96,-137.01 607.4,-145.42 611.24,-139.57"/>
</g>
</g>
</svg>
