<?xml version="1.0" encoding="UTF-8" standalone="no"?>
<!DOCTYPE svg PUBLIC "-//W3C//DTD SVG 1.1//EN"
 "http://www.w3.org/Graphics/SVG/1.1/DTD/svg11.dtd">
<!-- Generated by graphviz version 2.43.0 (0)
 -->
<!-- Title: /home/kali/projects/vsomeip/implementation/service_discovery/src/ipv4_option_impl.cpp Pages: 1 -->
<svg width="952pt" height="363pt"
 viewBox="0.00 0.00 952.47 363.00" xmlns="http://www.w3.org/2000/svg" xmlns:xlink="http://www.w3.org/1999/xlink">
<g id="graph0" class="graph" transform="scale(1 1) rotate(0) translate(4 359)">
<title>/home/kali/projects/vsomeip/implementation/service_discovery/src/ipv4_option_impl.cpp</title>
<polygon fill="white" stroke="transparent" points="-4,4 -4,-359 948.47,-359 948.47,4 -4,4"/>
<!-- Node1 -->
<g id="node1" class="node">
<title>Node1</title>
<g id="a_node1"><a xlink:title=" ">
<polygon fill="#bfbfbf" stroke="black" points="468.97,-302.5 468.97,-354.5 611.97,-354.5 611.97,-302.5 468.97,-302.5"/>
<text text-anchor="start" x="476.97" y="-342.5" font-family="Helvetica,sans-Serif" font-size="10.00">/home/kali/projects</text>
<text text-anchor="start" x="476.97" y="-331.5" font-family="Helvetica,sans-Serif" font-size="10.00">/vsomeip/implementation</text>
<text text-anchor="start" x="476.97" y="-320.5" font-family="Helvetica,sans-Serif" font-size="10.00">/service_discovery/src</text>
<text text-anchor="middle" x="540.47" y="-309.5" font-family="Helvetica,sans-Serif" font-size="10.00">/ipv4_option_impl.cpp</text>
</a>
</g>
</g>
<!-- Node2 -->
<g id="node2" class="node">
<title>Node2</title>
<g id="a_node2"><a xlink:title=" ">
<polygon fill="white" stroke="#bfbfbf" points="115.47,-241 115.47,-260 245.47,-260 245.47,-241 115.47,-241"/>
<text text-anchor="middle" x="180.47" y="-248" font-family="Helvetica,sans-Serif" font-size="10.00">vsomeip/constants.hpp</text>
</a>
</g>
</g>
<!-- Node1&#45;&gt;Node2 -->
<g id="edge1" class="edge">
<title>Node1&#45;&gt;Node2</title>
<path fill="none" stroke="midnightblue" d="M468.92,-312.39C398.6,-297.55 293.09,-275.27 231.07,-262.18"/>
<polygon fill="midnightblue" stroke="midnightblue" points="231.63,-258.72 221.13,-260.08 230.19,-265.57 231.63,-258.72"/>
</g>
<!-- Node3 -->
<g id="node3" class="node">
<title>Node3</title>
<g id="a_node3"><a xlink:href="implementation_2service__discovery_2include_2constants_8hpp.html" target="_top" xlink:title=" ">
<polygon fill="white" stroke="black" points="403.47,-241 403.47,-260 535.47,-260 535.47,-241 403.47,-241"/>
<text text-anchor="middle" x="469.47" y="-248" font-family="Helvetica,sans-Serif" font-size="10.00">../include/constants.hpp</text>
</a>
</g>
</g>
<!-- Node1&#45;&gt;Node3 -->
<g id="edge2" class="edge">
<title>Node1&#45;&gt;Node3</title>
<path fill="none" stroke="midnightblue" d="M516.83,-302.19C506.24,-290.86 494.06,-277.82 484.71,-267.81"/>
<polygon fill="midnightblue" stroke="midnightblue" points="486.99,-265.13 477.61,-260.21 481.88,-269.91 486.99,-265.13"/>
</g>
<!-- Node6 -->
<g id="node6" class="node">
<title>Node6</title>
<g id="a_node6"><a xlink:href="implementation_2service__discovery_2include_2defines_8hpp.html" target="_top" xlink:title=" ">
<polygon fill="white" stroke="black" points="824.47,-241 824.47,-260 944.47,-260 944.47,-241 824.47,-241"/>
<text text-anchor="middle" x="884.47" y="-248" font-family="Helvetica,sans-Serif" font-size="10.00">../include/defines.hpp</text>
</a>
</g>
</g>
<!-- Node1&#45;&gt;Node6 -->
<g id="edge5" class="edge">
<title>Node1&#45;&gt;Node6</title>
<path fill="none" stroke="midnightblue" d="M612.17,-311.66C679.23,-296.85 777.55,-275.12 835.88,-262.24"/>
<polygon fill="midnightblue" stroke="midnightblue" points="836.93,-265.59 845.94,-260.01 835.42,-258.75 836.93,-265.59"/>
</g>
<!-- Node7 -->
<g id="node7" class="node">
<title>Node7</title>
<g id="a_node7"><a xlink:href="ipv4__option__impl_8hpp.html" target="_top" xlink:title=" ">
<polygon fill="white" stroke="black" points="263.97,-235.5 263.97,-265.5 384.97,-265.5 384.97,-235.5 263.97,-235.5"/>
<text text-anchor="start" x="271.97" y="-253.5" font-family="Helvetica,sans-Serif" font-size="10.00">../include/ipv4_option</text>
<text text-anchor="middle" x="324.47" y="-242.5" font-family="Helvetica,sans-Serif" font-size="10.00">_impl.hpp</text>
</a>
</g>
</g>
<!-- Node1&#45;&gt;Node7 -->
<g id="edge6" class="edge">
<title>Node1&#45;&gt;Node7</title>
<path fill="none" stroke="midnightblue" d="M469.15,-302.4C438.04,-291.46 402.33,-278.89 374.17,-268.98"/>
<polygon fill="midnightblue" stroke="midnightblue" points="375.13,-265.61 364.54,-265.6 372.81,-272.22 375.13,-265.61"/>
</g>
<!-- Node15 -->
<g id="node15" class="node">
<title>Node15</title>
<g id="a_node15"><a xlink:href="message_2include_2deserializer_8hpp.html" target="_top" xlink:title=" ">
<polygon fill="white" stroke="black" points="553.97,-235.5 553.97,-265.5 670.97,-265.5 670.97,-235.5 553.97,-235.5"/>
<text text-anchor="start" x="561.97" y="-253.5" font-family="Helvetica,sans-Serif" font-size="10.00">../../message/include</text>
<text text-anchor="middle" x="612.47" y="-242.5" font-family="Helvetica,sans-Serif" font-size="10.00">/deserializer.hpp</text>
</a>
</g>
</g>
<!-- Node1&#45;&gt;Node15 -->
<g id="edge17" class="edge">
<title>Node1&#45;&gt;Node15</title>
<path fill="none" stroke="midnightblue" d="M564.45,-302.19C573.31,-292.84 583.27,-282.33 591.81,-273.32"/>
<polygon fill="midnightblue" stroke="midnightblue" points="594.55,-275.51 598.88,-265.85 589.47,-270.7 594.55,-275.51"/>
</g>
<!-- Node18 -->
<g id="node18" class="node">
<title>Node18</title>
<g id="a_node18"><a xlink:href="serializer_8hpp.html" target="_top" xlink:title=" ">
<polygon fill="white" stroke="black" points="688.97,-235.5 688.97,-265.5 805.97,-265.5 805.97,-235.5 688.97,-235.5"/>
<text text-anchor="start" x="696.97" y="-253.5" font-family="Helvetica,sans-Serif" font-size="10.00">../../message/include</text>
<text text-anchor="middle" x="747.47" y="-242.5" font-family="Helvetica,sans-Serif" font-size="10.00">/serializer.hpp</text>
</a>
</g>
</g>
<!-- Node1&#45;&gt;Node18 -->
<g id="edge21" class="edge">
<title>Node1&#45;&gt;Node18</title>
<path fill="none" stroke="midnightblue" d="M608.83,-302.4C638.51,-291.51 672.57,-279 699.5,-269.11"/>
<polygon fill="midnightblue" stroke="midnightblue" points="700.9,-272.33 709.08,-265.6 698.48,-265.76 700.9,-272.33"/>
</g>
<!-- Node4 -->
<g id="node4" class="node">
<title>Node4</title>
<g id="a_node4"><a xlink:title=" ">
<polygon fill="white" stroke="#bfbfbf" points="444.47,-168.5 444.47,-198.5 568.47,-198.5 568.47,-168.5 444.47,-168.5"/>
<text text-anchor="start" x="452.47" y="-186.5" font-family="Helvetica,sans-Serif" font-size="10.00">vsomeip/enumeration</text>
<text text-anchor="middle" x="506.47" y="-175.5" font-family="Helvetica,sans-Serif" font-size="10.00">_types.hpp</text>
</a>
</g>
</g>
<!-- Node3&#45;&gt;Node4 -->
<g id="edge3" class="edge">
<title>Node3&#45;&gt;Node4</title>
<path fill="none" stroke="midnightblue" d="M474.46,-240.73C479.32,-232.2 486.91,-218.87 493.48,-207.33"/>
<polygon fill="midnightblue" stroke="midnightblue" points="496.55,-209.01 498.45,-198.59 490.47,-205.55 496.55,-209.01"/>
</g>
<!-- Node5 -->
<g id="node5" class="node">
<title>Node5</title>
<g id="a_node5"><a xlink:title=" ">
<polygon fill="white" stroke="#bfbfbf" points="336.97,-112.5 336.97,-131.5 495.97,-131.5 495.97,-112.5 336.97,-112.5"/>
<text text-anchor="middle" x="416.47" y="-119.5" font-family="Helvetica,sans-Serif" font-size="10.00">vsomeip/primitive_types.hpp</text>
</a>
</g>
</g>
<!-- Node3&#45;&gt;Node5 -->
<g id="edge4" class="edge">
<title>Node3&#45;&gt;Node5</title>
<path fill="none" stroke="midnightblue" d="M462.19,-240.76C454.49,-231.11 442.52,-214.84 435.47,-199 427.2,-180.4 422.1,-157.57 419.3,-141.82"/>
<polygon fill="midnightblue" stroke="midnightblue" points="422.72,-141.06 417.65,-131.76 415.82,-142.19 422.72,-141.06"/>
</g>
<!-- Node7&#45;&gt;Node5 -->
<g id="edge8" class="edge">
<title>Node7&#45;&gt;Node5</title>
<path fill="none" stroke="midnightblue" d="M334.67,-235.48C351.67,-212.1 385.75,-165.25 404.09,-140.02"/>
<polygon fill="midnightblue" stroke="midnightblue" points="407.03,-141.93 410.08,-131.79 401.37,-137.82 407.03,-141.93"/>
</g>
<!-- Node8 -->
<g id="node8" class="node">
<title>Node8</title>
<g id="a_node8"><a xlink:title=" ">
<polygon fill="white" stroke="#bfbfbf" points="208.97,-174 208.97,-193 349.97,-193 349.97,-174 208.97,-174"/>
<text text-anchor="middle" x="279.47" y="-181" font-family="Helvetica,sans-Serif" font-size="10.00">boost/asio/ip/address.hpp</text>
</a>
</g>
</g>
<!-- Node7&#45;&gt;Node8 -->
<g id="edge7" class="edge">
<title>Node7&#45;&gt;Node8</title>
<path fill="none" stroke="midnightblue" d="M314.71,-235.4C307.83,-225.46 298.59,-212.11 291.29,-201.57"/>
<polygon fill="midnightblue" stroke="midnightblue" points="294.06,-199.42 285.49,-193.19 288.31,-203.41 294.06,-199.42"/>
</g>
<!-- Node9 -->
<g id="node9" class="node">
<title>Node9</title>
<g id="a_node9"><a xlink:href="ip__option__impl_8hpp.html" target="_top" xlink:title=" ">
<polygon fill="white" stroke="black" points="80.47,-174 80.47,-193 190.47,-193 190.47,-174 80.47,-174"/>
<text text-anchor="middle" x="135.47" y="-181" font-family="Helvetica,sans-Serif" font-size="10.00">ip_option_impl.hpp</text>
</a>
</g>
</g>
<!-- Node7&#45;&gt;Node9 -->
<g id="edge9" class="edge">
<title>Node7&#45;&gt;Node9</title>
<path fill="none" stroke="midnightblue" d="M283.46,-235.4C249.57,-223.74 201.98,-207.37 170.01,-196.38"/>
<polygon fill="midnightblue" stroke="midnightblue" points="170.8,-192.95 160.21,-193.01 168.53,-199.57 170.8,-192.95"/>
</g>
<!-- Node9&#45;&gt;Node5 -->
<g id="edge10" class="edge">
<title>Node9&#45;&gt;Node5</title>
<path fill="none" stroke="midnightblue" d="M172.68,-173.95C181.46,-171.97 190.79,-169.88 199.47,-168 255.64,-155.82 320.13,-142.53 364.12,-133.58"/>
<polygon fill="midnightblue" stroke="midnightblue" points="364.91,-136.99 374.01,-131.57 363.52,-130.13 364.91,-136.99"/>
</g>
<!-- Node10 -->
<g id="node10" class="node">
<title>Node10</title>
<g id="a_node10"><a xlink:href="option__impl_8hpp.html" target="_top" xlink:title=" ">
<polygon fill="white" stroke="black" points="87.97,-112.5 87.97,-131.5 182.97,-131.5 182.97,-112.5 87.97,-112.5"/>
<text text-anchor="middle" x="135.47" y="-119.5" font-family="Helvetica,sans-Serif" font-size="10.00">option_impl.hpp</text>
</a>
</g>
</g>
<!-- Node9&#45;&gt;Node10 -->
<g id="edge11" class="edge">
<title>Node9&#45;&gt;Node10</title>
<path fill="none" stroke="midnightblue" d="M135.47,-173.98C135.47,-165.58 135.47,-152.48 135.47,-141.66"/>
<polygon fill="midnightblue" stroke="midnightblue" points="138.97,-141.51 135.47,-131.51 131.97,-141.51 138.97,-141.51"/>
</g>
<!-- Node11 -->
<g id="node11" class="node">
<title>Node11</title>
<g id="a_node11"><a xlink:title=" ">
<polygon fill="white" stroke="#bfbfbf" points="7.47,-0.5 7.47,-19.5 57.47,-19.5 57.47,-0.5 7.47,-0.5"/>
<text text-anchor="middle" x="32.47" y="-7.5" font-family="Helvetica,sans-Serif" font-size="10.00">cstdint</text>
</a>
</g>
</g>
<!-- Node10&#45;&gt;Node11 -->
<g id="edge12" class="edge">
<title>Node10&#45;&gt;Node11</title>
<path fill="none" stroke="midnightblue" d="M87.66,-118C58.47,-113.41 23.27,-102.32 4.47,-76 -6.29,-60.93 5.33,-41.07 16.7,-27.29"/>
<polygon fill="midnightblue" stroke="midnightblue" points="19.52,-29.39 23.55,-19.59 14.29,-24.74 19.52,-29.39"/>
</g>
<!-- Node12 -->
<g id="node12" class="node">
<title>Node12</title>
<g id="a_node12"><a xlink:title=" ">
<polygon fill="white" stroke="#bfbfbf" points="163.47,-56.5 163.47,-75.5 221.47,-75.5 221.47,-56.5 163.47,-56.5"/>
<text text-anchor="middle" x="192.47" y="-63.5" font-family="Helvetica,sans-Serif" font-size="10.00">memory</text>
</a>
</g>
</g>
<!-- Node10&#45;&gt;Node12 -->
<g id="edge13" class="edge">
<title>Node10&#45;&gt;Node12</title>
<path fill="none" stroke="midnightblue" d="M144.63,-112.32C152.98,-104.42 165.51,-92.55 175.65,-82.94"/>
<polygon fill="midnightblue" stroke="midnightblue" points="178.3,-85.25 183.15,-75.83 173.48,-80.17 178.3,-85.25"/>
</g>
<!-- Node13 -->
<g id="node13" class="node">
<title>Node13</title>
<g id="a_node13"><a xlink:href="implementation_2service__discovery_2include_2enumeration__types_8hpp.html" target="_top" xlink:title=" ">
<polygon fill="white" stroke="black" points="13.47,-56.5 13.47,-75.5 145.47,-75.5 145.47,-56.5 13.47,-56.5"/>
<text text-anchor="middle" x="79.47" y="-63.5" font-family="Helvetica,sans-Serif" font-size="10.00">enumeration_types.hpp</text>
</a>
</g>
</g>
<!-- Node10&#45;&gt;Node13 -->
<g id="edge14" class="edge">
<title>Node10&#45;&gt;Node13</title>
<path fill="none" stroke="midnightblue" d="M126.48,-112.32C118.28,-104.42 105.97,-92.55 96,-82.94"/>
<polygon fill="midnightblue" stroke="midnightblue" points="98.26,-80.26 88.64,-75.83 93.4,-85.29 98.26,-80.26"/>
</g>
<!-- Node14 -->
<g id="node14" class="node">
<title>Node14</title>
<g id="a_node14"><a xlink:href="message__element__impl_8hpp.html" target="_top" xlink:title=" ">
<polygon fill="white" stroke="black" points="239.97,-56.5 239.97,-75.5 394.97,-75.5 394.97,-56.5 239.97,-56.5"/>
<text text-anchor="middle" x="317.47" y="-63.5" font-family="Helvetica,sans-Serif" font-size="10.00">message_element_impl.hpp</text>
</a>
</g>
</g>
<!-- Node10&#45;&gt;Node14 -->
<g id="edge16" class="edge">
<title>Node10&#45;&gt;Node14</title>
<path fill="none" stroke="midnightblue" d="M164.31,-112.44C195.33,-103.24 244.8,-88.56 279.09,-78.39"/>
<polygon fill="midnightblue" stroke="midnightblue" points="280.18,-81.72 288.77,-75.52 278.19,-75.01 280.18,-81.72"/>
</g>
<!-- Node13&#45;&gt;Node11 -->
<g id="edge15" class="edge">
<title>Node13&#45;&gt;Node11</title>
<path fill="none" stroke="midnightblue" d="M71.71,-56.08C64.94,-48.3 54.93,-36.8 46.72,-27.37"/>
<polygon fill="midnightblue" stroke="midnightblue" points="49.3,-25 40.09,-19.75 44.02,-29.59 49.3,-25"/>
</g>
<!-- Node15&#45;&gt;Node5 -->
<g id="edge20" class="edge">
<title>Node15&#45;&gt;Node5</title>
<path fill="none" stroke="midnightblue" d="M610.21,-235.2C606.56,-216.95 597.64,-185.64 577.47,-168 557.61,-150.62 531.55,-139.91 506.2,-133.32"/>
<polygon fill="midnightblue" stroke="midnightblue" points="506.69,-129.84 496.15,-130.91 505.06,-136.65 506.69,-129.84"/>
</g>
<!-- Node16 -->
<g id="node16" class="node">
<title>Node16</title>
<g id="a_node16"><a xlink:title=" ">
<polygon fill="white" stroke="#bfbfbf" points="624.97,-174 624.97,-193 671.97,-193 671.97,-174 624.97,-174"/>
<text text-anchor="middle" x="648.47" y="-181" font-family="Helvetica,sans-Serif" font-size="10.00">vector</text>
</a>
</g>
</g>
<!-- Node15&#45;&gt;Node16 -->
<g id="edge18" class="edge">
<title>Node15&#45;&gt;Node16</title>
<path fill="none" stroke="midnightblue" d="M620.29,-235.4C625.68,-225.66 632.89,-212.65 638.66,-202.21"/>
<polygon fill="midnightblue" stroke="midnightblue" points="641.88,-203.64 643.66,-193.19 635.75,-200.25 641.88,-203.64"/>
</g>
<!-- Node17 -->
<g id="node17" class="node">
<title>Node17</title>
<g id="a_node17"><a xlink:title=" ">
<polygon fill="white" stroke="#bfbfbf" points="690.47,-174 690.47,-193 804.47,-193 804.47,-174 690.47,-174"/>
<text text-anchor="middle" x="747.47" y="-181" font-family="Helvetica,sans-Serif" font-size="10.00">vsomeip/export.hpp</text>
</a>
</g>
</g>
<!-- Node15&#45;&gt;Node17 -->
<g id="edge19" class="edge">
<title>Node15&#45;&gt;Node17</title>
<path fill="none" stroke="midnightblue" d="M641.77,-235.4C665.24,-224.09 697.92,-208.36 720.7,-197.39"/>
<polygon fill="midnightblue" stroke="midnightblue" points="722.31,-200.5 729.81,-193.01 719.28,-194.19 722.31,-200.5"/>
</g>
<!-- Node18&#45;&gt;Node5 -->
<g id="edge24" class="edge">
<title>Node18&#45;&gt;Node5</title>
<path fill="none" stroke="midnightblue" d="M772.73,-235.32C799.06,-218.78 833.85,-190.81 813.47,-168 793.37,-145.49 617.06,-132.78 506.26,-126.96"/>
<polygon fill="midnightblue" stroke="midnightblue" points="506.25,-123.45 496.09,-126.43 505.89,-130.44 506.25,-123.45"/>
</g>
<!-- Node18&#45;&gt;Node16 -->
<g id="edge22" class="edge">
<title>Node18&#45;&gt;Node16</title>
<path fill="none" stroke="midnightblue" d="M725.99,-235.4C709.39,-224.5 686.52,-209.48 669.92,-198.58"/>
<polygon fill="midnightblue" stroke="midnightblue" points="671.71,-195.57 661.43,-193.01 667.87,-201.42 671.71,-195.57"/>
</g>
<!-- Node18&#45;&gt;Node17 -->
<g id="edge23" class="edge">
<title>Node18&#45;&gt;Node17</title>
<path fill="none" stroke="midnightblue" d="M747.47,-235.4C747.47,-226.06 747.47,-213.71 747.47,-203.52"/>
<polygon fill="midnightblue" stroke="midnightblue" points="750.97,-203.19 747.47,-193.19 743.97,-203.19 750.97,-203.19"/>
</g>
</g>
</svg>
