<?xml version="1.0" encoding="UTF-8" standalone="no"?>
<!DOCTYPE svg PUBLIC "-//W3C//DTD SVG 1.1//EN"
 "http://www.w3.org/Graphics/SVG/1.1/DTD/svg11.dtd">
<!-- Generated by graphviz version 2.43.0 (0)
 -->
<!-- Title: /home/kali/projects/vsomeip/implementation/service_discovery/include/ipv4_option_impl.hpp Pages: 1 -->
<svg width="619pt" height="285pt"
 viewBox="0.00 0.00 619.00 285.00" xmlns="http://www.w3.org/2000/svg" xmlns:xlink="http://www.w3.org/1999/xlink">
<g id="graph0" class="graph" transform="scale(1 1) rotate(0) translate(4 281)">
<title>/home/kali/projects/vsomeip/implementation/service_discovery/include/ipv4_option_impl.hpp</title>
<polygon fill="white" stroke="transparent" points="-4,4 -4,-281 615,-281 615,4 -4,4"/>
<!-- Node1 -->
<g id="node1" class="node">
<title>Node1</title>
<g id="a_node1"><a xlink:title=" ">
<polygon fill="#bfbfbf" stroke="black" points="96.5,-224.5 96.5,-276.5 242.5,-276.5 242.5,-224.5 96.5,-224.5"/>
<text text-anchor="start" x="104.5" y="-264.5" font-family="Helvetica,sans-Serif" font-size="10.00">/home/kali/projects</text>
<text text-anchor="start" x="104.5" y="-253.5" font-family="Helvetica,sans-Serif" font-size="10.00">/vsomeip/implementation</text>
<text text-anchor="start" x="104.5" y="-242.5" font-family="Helvetica,sans-Serif" font-size="10.00">/service_discovery/include</text>
<text text-anchor="middle" x="169.5" y="-231.5" font-family="Helvetica,sans-Serif" font-size="10.00">/ipv4_option_impl.hpp</text>
</a>
</g>
</g>
<!-- Node2 -->
<g id="node2" class="node">
<title>Node2</title>
<g id="a_node2"><a xlink:title=" ">
<polygon fill="white" stroke="#bfbfbf" points="0,-168.5 0,-187.5 141,-187.5 141,-168.5 0,-168.5"/>
<text text-anchor="middle" x="70.5" y="-175.5" font-family="Helvetica,sans-Serif" font-size="10.00">boost/asio/ip/address.hpp</text>
</a>
</g>
</g>
<!-- Node1&#45;&gt;Node2 -->
<g id="edge1" class="edge">
<title>Node1&#45;&gt;Node2</title>
<path fill="none" stroke="midnightblue" d="M134.32,-224.45C119.83,-214.13 103.55,-202.53 91.06,-193.64"/>
<polygon fill="midnightblue" stroke="midnightblue" points="92.89,-190.65 82.71,-187.7 88.83,-196.35 92.89,-190.65"/>
</g>
<!-- Node3 -->
<g id="node3" class="node">
<title>Node3</title>
<g id="a_node3"><a xlink:title=" ">
<polygon fill="white" stroke="#bfbfbf" points="90,-112.5 90,-131.5 249,-131.5 249,-112.5 90,-112.5"/>
<text text-anchor="middle" x="169.5" y="-119.5" font-family="Helvetica,sans-Serif" font-size="10.00">vsomeip/primitive_types.hpp</text>
</a>
</g>
</g>
<!-- Node1&#45;&gt;Node3 -->
<g id="edge2" class="edge">
<title>Node1&#45;&gt;Node3</title>
<path fill="none" stroke="midnightblue" d="M169.5,-224.2C169.5,-199.88 169.5,-163.67 169.5,-141.8"/>
<polygon fill="midnightblue" stroke="midnightblue" points="173,-141.55 169.5,-131.55 166,-141.55 173,-141.55"/>
</g>
<!-- Node4 -->
<g id="node4" class="node">
<title>Node4</title>
<g id="a_node4"><a xlink:href="ip__option__impl_8hpp.html" target="_top" xlink:title=" ">
<polygon fill="white" stroke="black" points="197.5,-168.5 197.5,-187.5 307.5,-187.5 307.5,-168.5 197.5,-168.5"/>
<text text-anchor="middle" x="252.5" y="-175.5" font-family="Helvetica,sans-Serif" font-size="10.00">ip_option_impl.hpp</text>
</a>
</g>
</g>
<!-- Node1&#45;&gt;Node4 -->
<g id="edge3" class="edge">
<title>Node1&#45;&gt;Node4</title>
<path fill="none" stroke="midnightblue" d="M199,-224.45C210.79,-214.43 224,-203.21 234.34,-194.42"/>
<polygon fill="midnightblue" stroke="midnightblue" points="236.91,-196.84 242.26,-187.7 232.38,-191.5 236.91,-196.84"/>
</g>
<!-- Node4&#45;&gt;Node3 -->
<g id="edge4" class="edge">
<title>Node4&#45;&gt;Node3</title>
<path fill="none" stroke="midnightblue" d="M239.16,-168.32C226.34,-159.98 206.72,-147.21 191.56,-137.35"/>
<polygon fill="midnightblue" stroke="midnightblue" points="193.09,-134.17 182.8,-131.65 189.28,-140.04 193.09,-134.17"/>
</g>
<!-- Node5 -->
<g id="node5" class="node">
<title>Node5</title>
<g id="a_node5"><a xlink:href="option__impl_8hpp.html" target="_top" xlink:title=" ">
<polygon fill="white" stroke="black" points="267,-112.5 267,-131.5 362,-131.5 362,-112.5 267,-112.5"/>
<text text-anchor="middle" x="314.5" y="-119.5" font-family="Helvetica,sans-Serif" font-size="10.00">option_impl.hpp</text>
</a>
</g>
</g>
<!-- Node4&#45;&gt;Node5 -->
<g id="edge5" class="edge">
<title>Node4&#45;&gt;Node5</title>
<path fill="none" stroke="midnightblue" d="M262.46,-168.32C271.63,-160.34 285.44,-148.31 296.53,-138.65"/>
<polygon fill="midnightblue" stroke="midnightblue" points="299.12,-141.04 304.36,-131.83 294.52,-135.76 299.12,-141.04"/>
</g>
<!-- Node6 -->
<g id="node6" class="node">
<title>Node6</title>
<g id="a_node6"><a xlink:title=" ">
<polygon fill="white" stroke="#bfbfbf" points="261.5,-0.5 261.5,-19.5 311.5,-19.5 311.5,-0.5 261.5,-0.5"/>
<text text-anchor="middle" x="286.5" y="-7.5" font-family="Helvetica,sans-Serif" font-size="10.00">cstdint</text>
</a>
</g>
</g>
<!-- Node5&#45;&gt;Node6 -->
<g id="edge6" class="edge">
<title>Node5&#45;&gt;Node6</title>
<path fill="none" stroke="midnightblue" d="M274.35,-112.43C254.53,-105.95 232.36,-94.83 220.5,-76 207.47,-55.31 233.2,-36.27 256.24,-24.21"/>
<polygon fill="midnightblue" stroke="midnightblue" points="258.09,-27.21 265.51,-19.64 254.99,-20.93 258.09,-27.21"/>
</g>
<!-- Node7 -->
<g id="node7" class="node">
<title>Node7</title>
<g id="a_node7"><a xlink:title=" ">
<polygon fill="white" stroke="#bfbfbf" points="229.5,-56.5 229.5,-75.5 287.5,-75.5 287.5,-56.5 229.5,-56.5"/>
<text text-anchor="middle" x="258.5" y="-63.5" font-family="Helvetica,sans-Serif" font-size="10.00">memory</text>
</a>
</g>
</g>
<!-- Node5&#45;&gt;Node7 -->
<g id="edge7" class="edge">
<title>Node5&#45;&gt;Node7</title>
<path fill="none" stroke="midnightblue" d="M305.5,-112.32C297.31,-104.42 284.99,-92.55 275.03,-82.94"/>
<polygon fill="midnightblue" stroke="midnightblue" points="277.29,-80.26 267.66,-75.83 272.43,-85.29 277.29,-80.26"/>
</g>
<!-- Node8 -->
<g id="node8" class="node">
<title>Node8</title>
<g id="a_node8"><a xlink:href="implementation_2service__discovery_2include_2enumeration__types_8hpp.html" target="_top" xlink:title=" ">
<polygon fill="white" stroke="black" points="305.5,-56.5 305.5,-75.5 437.5,-75.5 437.5,-56.5 305.5,-56.5"/>
<text text-anchor="middle" x="371.5" y="-63.5" font-family="Helvetica,sans-Serif" font-size="10.00">enumeration_types.hpp</text>
</a>
</g>
</g>
<!-- Node5&#45;&gt;Node8 -->
<g id="edge8" class="edge">
<title>Node5&#45;&gt;Node8</title>
<path fill="none" stroke="midnightblue" d="M323.66,-112.32C332,-104.42 344.53,-92.55 354.68,-82.94"/>
<polygon fill="midnightblue" stroke="midnightblue" points="357.32,-85.25 362.18,-75.83 352.51,-80.17 357.32,-85.25"/>
</g>
<!-- Node9 -->
<g id="node9" class="node">
<title>Node9</title>
<g id="a_node9"><a xlink:href="message__element__impl_8hpp.html" target="_top" xlink:title=" ">
<polygon fill="white" stroke="black" points="456,-56.5 456,-75.5 611,-75.5 611,-56.5 456,-56.5"/>
<text text-anchor="middle" x="533.5" y="-63.5" font-family="Helvetica,sans-Serif" font-size="10.00">message_element_impl.hpp</text>
</a>
</g>
</g>
<!-- Node5&#45;&gt;Node9 -->
<g id="edge10" class="edge">
<title>Node5&#45;&gt;Node9</title>
<path fill="none" stroke="midnightblue" d="M349.2,-112.44C387.08,-103.1 447.85,-88.12 489.16,-77.93"/>
<polygon fill="midnightblue" stroke="midnightblue" points="490.09,-81.31 498.96,-75.52 488.41,-74.51 490.09,-81.31"/>
</g>
<!-- Node8&#45;&gt;Node6 -->
<g id="edge9" class="edge">
<title>Node8&#45;&gt;Node6</title>
<path fill="none" stroke="midnightblue" d="M357.84,-56.32C344.58,-47.9 324.23,-34.97 308.65,-25.07"/>
<polygon fill="midnightblue" stroke="midnightblue" points="310.44,-22.06 300.12,-19.65 306.69,-27.97 310.44,-22.06"/>
</g>
</g>
</svg>
