<?xml version="1.0" encoding="UTF-8" standalone="no"?>
<!DOCTYPE svg PUBLIC "-//W3C//DTD SVG 1.1//EN"
 "http://www.w3.org/Graphics/SVG/1.1/DTD/svg11.dtd">
<!-- Generated by graphviz version 2.43.0 (0)
 -->
<!-- Title: /home/kali/projects/vsomeip/implementation/service_discovery/src/load_balancing_option_impl.cpp Pages: 1 -->
<svg width="745pt" height="296pt"
 viewBox="0.00 0.00 744.50 296.00" xmlns="http://www.w3.org/2000/svg" xmlns:xlink="http://www.w3.org/1999/xlink">
<g id="graph0" class="graph" transform="scale(1 1) rotate(0) translate(4 292)">
<title>/home/kali/projects/vsomeip/implementation/service_discovery/src/load_balancing_option_impl.cpp</title>
<polygon fill="white" stroke="transparent" points="-4,4 -4,-292 740.5,-292 740.5,4 -4,4"/>
<!-- Node1 -->
<g id="node1" class="node">
<title>Node1</title>
<g id="a_node1"><a xlink:title=" ">
<polygon fill="#bfbfbf" stroke="black" points="329,-235.5 329,-287.5 505,-287.5 505,-235.5 329,-235.5"/>
<text text-anchor="start" x="337" y="-275.5" font-family="Helvetica,sans-Serif" font-size="10.00">/home/kali/projects</text>
<text text-anchor="start" x="337" y="-264.5" font-family="Helvetica,sans-Serif" font-size="10.00">/vsomeip/implementation</text>
<text text-anchor="start" x="337" y="-253.5" font-family="Helvetica,sans-Serif" font-size="10.00">/service_discovery/src</text>
<text text-anchor="middle" x="417" y="-242.5" font-family="Helvetica,sans-Serif" font-size="10.00">/load_balancing_option_impl.cpp</text>
</a>
</g>
</g>
<!-- Node2 -->
<g id="node2" class="node">
<title>Node2</title>
<g id="a_node2"><a xlink:href="load__balancing__option__impl_8hpp.html" target="_top" xlink:title=" ">
<polygon fill="white" stroke="black" points="203.5,-168.5 203.5,-198.5 340.5,-198.5 340.5,-168.5 203.5,-168.5"/>
<text text-anchor="start" x="211.5" y="-186.5" font-family="Helvetica,sans-Serif" font-size="10.00">../include/load_balancing</text>
<text text-anchor="middle" x="272" y="-175.5" font-family="Helvetica,sans-Serif" font-size="10.00">_option_impl.hpp</text>
</a>
</g>
</g>
<!-- Node1&#45;&gt;Node2 -->
<g id="edge1" class="edge">
<title>Node1&#45;&gt;Node2</title>
<path fill="none" stroke="midnightblue" d="M369.12,-235.4C349.22,-224.97 326.51,-213.07 308.06,-203.4"/>
<polygon fill="midnightblue" stroke="midnightblue" points="309.59,-200.25 299.1,-198.71 306.34,-206.45 309.59,-200.25"/>
</g>
<!-- Node9 -->
<g id="node9" class="node">
<title>Node9</title>
<g id="a_node9"><a xlink:href="message_2include_2deserializer_8hpp.html" target="_top" xlink:title=" ">
<polygon fill="white" stroke="black" points="493.5,-168.5 493.5,-198.5 610.5,-198.5 610.5,-168.5 493.5,-168.5"/>
<text text-anchor="start" x="501.5" y="-186.5" font-family="Helvetica,sans-Serif" font-size="10.00">../../message/include</text>
<text text-anchor="middle" x="552" y="-175.5" font-family="Helvetica,sans-Serif" font-size="10.00">/deserializer.hpp</text>
</a>
</g>
</g>
<!-- Node1&#45;&gt;Node9 -->
<g id="edge10" class="edge">
<title>Node1&#45;&gt;Node9</title>
<path fill="none" stroke="midnightblue" d="M461.58,-235.4C479.85,-225.12 500.67,-213.4 517.72,-203.8"/>
<polygon fill="midnightblue" stroke="midnightblue" points="519.77,-206.66 526.76,-198.71 516.33,-200.56 519.77,-206.66"/>
</g>
<!-- Node13 -->
<g id="node13" class="node">
<title>Node13</title>
<g id="a_node13"><a xlink:href="serializer_8hpp.html" target="_top" xlink:title=" ">
<polygon fill="white" stroke="black" points="358.5,-168.5 358.5,-198.5 475.5,-198.5 475.5,-168.5 358.5,-168.5"/>
<text text-anchor="start" x="366.5" y="-186.5" font-family="Helvetica,sans-Serif" font-size="10.00">../../message/include</text>
<text text-anchor="middle" x="417" y="-175.5" font-family="Helvetica,sans-Serif" font-size="10.00">/serializer.hpp</text>
</a>
</g>
</g>
<!-- Node1&#45;&gt;Node13 -->
<g id="edge14" class="edge">
<title>Node1&#45;&gt;Node13</title>
<path fill="none" stroke="midnightblue" d="M417,-235.19C417,-226.79 417,-217.44 417,-209.09"/>
<polygon fill="midnightblue" stroke="midnightblue" points="420.5,-208.85 417,-198.85 413.5,-208.85 420.5,-208.85"/>
</g>
<!-- Node3 -->
<g id="node3" class="node">
<title>Node3</title>
<g id="a_node3"><a xlink:href="implementation_2service__discovery_2include_2primitive__types_8hpp.html" target="_top" xlink:title=" ">
<polygon fill="white" stroke="black" points="0,-56.5 0,-75.5 114,-75.5 114,-56.5 0,-56.5"/>
<text text-anchor="middle" x="57" y="-63.5" font-family="Helvetica,sans-Serif" font-size="10.00">primitive_types.hpp</text>
</a>
</g>
</g>
<!-- Node2&#45;&gt;Node3 -->
<g id="edge2" class="edge">
<title>Node2&#45;&gt;Node3</title>
<path fill="none" stroke="midnightblue" d="M245.64,-168.34C203.8,-145.86 122.77,-102.33 81.88,-80.37"/>
<polygon fill="midnightblue" stroke="midnightblue" points="83.33,-77.17 72.86,-75.52 80.02,-83.34 83.33,-77.17"/>
</g>
<!-- Node5 -->
<g id="node5" class="node">
<title>Node5</title>
<g id="a_node5"><a xlink:href="option__impl_8hpp.html" target="_top" xlink:title=" ">
<polygon fill="white" stroke="black" points="238.5,-112.5 238.5,-131.5 333.5,-131.5 333.5,-112.5 238.5,-112.5"/>
<text text-anchor="middle" x="286" y="-119.5" font-family="Helvetica,sans-Serif" font-size="10.00">option_impl.hpp</text>
</a>
</g>
</g>
<!-- Node2&#45;&gt;Node5 -->
<g id="edge4" class="edge">
<title>Node2&#45;&gt;Node5</title>
<path fill="none" stroke="midnightblue" d="M275.32,-168.4C277.21,-160.38 279.59,-150.23 281.63,-141.57"/>
<polygon fill="midnightblue" stroke="midnightblue" points="285.08,-142.19 283.96,-131.66 278.27,-140.59 285.08,-142.19"/>
</g>
<!-- Node4 -->
<g id="node4" class="node">
<title>Node4</title>
<g id="a_node4"><a xlink:title=" ">
<polygon fill="white" stroke="#bfbfbf" points="367,-0.5 367,-19.5 417,-19.5 417,-0.5 367,-0.5"/>
<text text-anchor="middle" x="392" y="-7.5" font-family="Helvetica,sans-Serif" font-size="10.00">cstdint</text>
</a>
</g>
</g>
<!-- Node3&#45;&gt;Node4 -->
<g id="edge3" class="edge">
<title>Node3&#45;&gt;Node4</title>
<path fill="none" stroke="midnightblue" d="M110.08,-56.44C179.18,-45.31 298.03,-26.15 356.88,-16.66"/>
<polygon fill="midnightblue" stroke="midnightblue" points="357.49,-20.11 366.81,-15.06 356.38,-13.2 357.49,-20.11"/>
</g>
<!-- Node5&#45;&gt;Node4 -->
<g id="edge5" class="edge">
<title>Node5&#45;&gt;Node4</title>
<path fill="none" stroke="midnightblue" d="M314.9,-112.38C333.65,-105.39 357.24,-93.75 372,-76 382.96,-62.82 387.92,-43.68 390.16,-29.58"/>
<polygon fill="midnightblue" stroke="midnightblue" points="393.65,-29.93 391.44,-19.57 386.7,-29.05 393.65,-29.93"/>
</g>
<!-- Node6 -->
<g id="node6" class="node">
<title>Node6</title>
<g id="a_node6"><a xlink:title=" ">
<polygon fill="white" stroke="#bfbfbf" points="132,-56.5 132,-75.5 190,-75.5 190,-56.5 132,-56.5"/>
<text text-anchor="middle" x="161" y="-63.5" font-family="Helvetica,sans-Serif" font-size="10.00">memory</text>
</a>
</g>
</g>
<!-- Node5&#45;&gt;Node6 -->
<g id="edge6" class="edge">
<title>Node5&#45;&gt;Node6</title>
<path fill="none" stroke="midnightblue" d="M266.19,-112.44C245.71,-103.6 213.52,-89.69 190.14,-79.59"/>
<polygon fill="midnightblue" stroke="midnightblue" points="191.28,-76.27 180.71,-75.52 188.51,-82.7 191.28,-76.27"/>
</g>
<!-- Node7 -->
<g id="node7" class="node">
<title>Node7</title>
<g id="a_node7"><a xlink:href="implementation_2service__discovery_2include_2enumeration__types_8hpp.html" target="_top" xlink:title=" ">
<polygon fill="white" stroke="black" points="420,-56.5 420,-75.5 552,-75.5 552,-56.5 420,-56.5"/>
<text text-anchor="middle" x="486" y="-63.5" font-family="Helvetica,sans-Serif" font-size="10.00">enumeration_types.hpp</text>
</a>
</g>
</g>
<!-- Node5&#45;&gt;Node7 -->
<g id="edge7" class="edge">
<title>Node5&#45;&gt;Node7</title>
<path fill="none" stroke="midnightblue" d="M317.69,-112.44C352.07,-103.16 407.08,-88.31 444.79,-78.13"/>
<polygon fill="midnightblue" stroke="midnightblue" points="445.72,-81.5 454.46,-75.52 443.89,-74.74 445.72,-81.5"/>
</g>
<!-- Node8 -->
<g id="node8" class="node">
<title>Node8</title>
<g id="a_node8"><a xlink:href="message__element__impl_8hpp.html" target="_top" xlink:title=" ">
<polygon fill="white" stroke="black" points="208.5,-56.5 208.5,-75.5 363.5,-75.5 363.5,-56.5 208.5,-56.5"/>
<text text-anchor="middle" x="286" y="-63.5" font-family="Helvetica,sans-Serif" font-size="10.00">message_element_impl.hpp</text>
</a>
</g>
</g>
<!-- Node5&#45;&gt;Node8 -->
<g id="edge9" class="edge">
<title>Node5&#45;&gt;Node8</title>
<path fill="none" stroke="midnightblue" d="M286,-112.08C286,-105.01 286,-94.86 286,-85.99"/>
<polygon fill="midnightblue" stroke="midnightblue" points="289.5,-85.75 286,-75.75 282.5,-85.75 289.5,-85.75"/>
</g>
<!-- Node7&#45;&gt;Node4 -->
<g id="edge8" class="edge">
<title>Node7&#45;&gt;Node4</title>
<path fill="none" stroke="midnightblue" d="M470.9,-56.32C456.1,-47.82 433.31,-34.73 416.02,-24.8"/>
<polygon fill="midnightblue" stroke="midnightblue" points="417.48,-21.6 407.07,-19.65 413.99,-27.67 417.48,-21.6"/>
</g>
<!-- Node10 -->
<g id="node10" class="node">
<title>Node10</title>
<g id="a_node10"><a xlink:title=" ">
<polygon fill="white" stroke="#bfbfbf" points="379.5,-112.5 379.5,-131.5 426.5,-131.5 426.5,-112.5 379.5,-112.5"/>
<text text-anchor="middle" x="403" y="-119.5" font-family="Helvetica,sans-Serif" font-size="10.00">vector</text>
</a>
</g>
</g>
<!-- Node9&#45;&gt;Node10 -->
<g id="edge11" class="edge">
<title>Node9&#45;&gt;Node10</title>
<path fill="none" stroke="midnightblue" d="M516.69,-168.4C491.58,-158.37 458.16,-145.03 434.06,-135.4"/>
<polygon fill="midnightblue" stroke="midnightblue" points="435.27,-132.12 424.68,-131.66 432.67,-138.62 435.27,-132.12"/>
</g>
<!-- Node11 -->
<g id="node11" class="node">
<title>Node11</title>
<g id="a_node11"><a xlink:title=" ">
<polygon fill="white" stroke="#bfbfbf" points="445,-112.5 445,-131.5 559,-131.5 559,-112.5 445,-112.5"/>
<text text-anchor="middle" x="502" y="-119.5" font-family="Helvetica,sans-Serif" font-size="10.00">vsomeip/export.hpp</text>
</a>
</g>
</g>
<!-- Node9&#45;&gt;Node11 -->
<g id="edge12" class="edge">
<title>Node9&#45;&gt;Node11</title>
<path fill="none" stroke="midnightblue" d="M540.15,-168.4C532.89,-159.75 523.55,-148.64 515.93,-139.58"/>
<polygon fill="midnightblue" stroke="midnightblue" points="518.39,-137.06 509.28,-131.66 513.03,-141.57 518.39,-137.06"/>
</g>
<!-- Node12 -->
<g id="node12" class="node">
<title>Node12</title>
<g id="a_node12"><a xlink:title=" ">
<polygon fill="white" stroke="#bfbfbf" points="577.5,-112.5 577.5,-131.5 736.5,-131.5 736.5,-112.5 577.5,-112.5"/>
<text text-anchor="middle" x="657" y="-119.5" font-family="Helvetica,sans-Serif" font-size="10.00">vsomeip/primitive_types.hpp</text>
</a>
</g>
</g>
<!-- Node9&#45;&gt;Node12 -->
<g id="edge13" class="edge">
<title>Node9&#45;&gt;Node12</title>
<path fill="none" stroke="midnightblue" d="M576.88,-168.4C593.71,-158.86 615.84,-146.32 632.57,-136.84"/>
<polygon fill="midnightblue" stroke="midnightblue" points="634.75,-139.63 641.72,-131.66 631.3,-133.54 634.75,-139.63"/>
</g>
<!-- Node13&#45;&gt;Node10 -->
<g id="edge15" class="edge">
<title>Node13&#45;&gt;Node10</title>
<path fill="none" stroke="midnightblue" d="M413.68,-168.4C411.79,-160.38 409.41,-150.23 407.37,-141.57"/>
<polygon fill="midnightblue" stroke="midnightblue" points="410.73,-140.59 405.04,-131.66 403.92,-142.19 410.73,-140.59"/>
</g>
<!-- Node13&#45;&gt;Node11 -->
<g id="edge16" class="edge">
<title>Node13&#45;&gt;Node11</title>
<path fill="none" stroke="midnightblue" d="M437.14,-168.4C450.39,-159.13 467.68,-147.03 481.08,-137.65"/>
<polygon fill="midnightblue" stroke="midnightblue" points="483.45,-140.26 489.63,-131.66 479.43,-134.53 483.45,-140.26"/>
</g>
<!-- Node13&#45;&gt;Node12 -->
<g id="edge17" class="edge">
<title>Node13&#45;&gt;Node12</title>
<path fill="none" stroke="midnightblue" d="M473.57,-168.47C516.15,-157.92 573.68,-143.66 612.89,-133.94"/>
<polygon fill="midnightblue" stroke="midnightblue" points="613.82,-137.31 622.69,-131.51 612.14,-130.52 613.82,-137.31"/>
</g>
</g>
</svg>
