<?xml version="1.0" encoding="UTF-8" standalone="no"?>
<!DOCTYPE svg PUBLIC "-//W3C//DTD SVG 1.1//EN"
 "http://www.w3.org/Graphics/SVG/1.1/DTD/svg11.dtd">
<!-- Generated by graphviz version 2.43.0 (0)
 -->
<!-- Title: /home/kali/projects/vsomeip/implementation/endpoints/include/local_client_endpoint_impl.hpp Pages: 1 -->
<svg width="841pt" height="150pt"
 viewBox="0.00 0.00 840.50 150.00" xmlns="http://www.w3.org/2000/svg" xmlns:xlink="http://www.w3.org/1999/xlink">
<g id="graph0" class="graph" transform="scale(1 1) rotate(0) translate(4 146)">
<title>/home/kali/projects/vsomeip/implementation/endpoints/include/local_client_endpoint_impl.hpp</title>
<polygon fill="white" stroke="transparent" points="-4,4 -4,-146 836.5,-146 836.5,4 -4,4"/>
<!-- Node1 -->
<g id="node1" class="node">
<title>Node1</title>
<g id="a_node1"><a xlink:title=" ">
<polygon fill="#bfbfbf" stroke="black" points="329,-89.5 329,-141.5 474,-141.5 474,-89.5 329,-89.5"/>
<text text-anchor="start" x="337" y="-129.5" font-family="Helvetica,sans-Serif" font-size="10.00">/home/kali/projects</text>
<text text-anchor="start" x="337" y="-118.5" font-family="Helvetica,sans-Serif" font-size="10.00">/vsomeip/implementation</text>
<text text-anchor="start" x="337" y="-107.5" font-family="Helvetica,sans-Serif" font-size="10.00">/endpoints/include/local</text>
<text text-anchor="middle" x="401.5" y="-96.5" font-family="Helvetica,sans-Serif" font-size="10.00">_client_endpoint_impl.hpp</text>
</a>
</g>
</g>
<!-- Node2 -->
<g id="node2" class="node">
<title>Node2</title>
<g id="a_node2"><a xlink:href="endpoint__manager__base_8cpp.html" target="_top" xlink:title=" ">
<polygon fill="white" stroke="black" points="0,-0.5 0,-52.5 143,-52.5 143,-0.5 0,-0.5"/>
<text text-anchor="start" x="8" y="-40.5" font-family="Helvetica,sans-Serif" font-size="10.00">/home/kali/projects</text>
<text text-anchor="start" x="8" y="-29.5" font-family="Helvetica,sans-Serif" font-size="10.00">/vsomeip/implementation</text>
<text text-anchor="start" x="8" y="-18.5" font-family="Helvetica,sans-Serif" font-size="10.00">/endpoints/src/endpoint</text>
<text text-anchor="middle" x="71.5" y="-7.5" font-family="Helvetica,sans-Serif" font-size="10.00">_manager_base.cpp</text>
</a>
</g>
</g>
<!-- Node1&#45;&gt;Node2 -->
<g id="edge1" class="edge">
<title>Node1&#45;&gt;Node2</title>
<path fill="none" stroke="midnightblue" d="M319.06,-95.69C270.14,-84.17 207.04,-68.66 151.5,-53 148.83,-52.25 146.12,-51.47 143.39,-50.67"/>
<polygon fill="midnightblue" stroke="midnightblue" points="318.42,-99.14 328.96,-98.02 320.02,-92.33 318.42,-99.14"/>
</g>
<!-- Node3 -->
<g id="node3" class="node">
<title>Node3</title>
<g id="a_node3"><a xlink:href="local__client__endpoint__impl_8cpp.html" target="_top" xlink:title=" ">
<polygon fill="white" stroke="black" points="161,-0.5 161,-52.5 304,-52.5 304,-0.5 161,-0.5"/>
<text text-anchor="start" x="169" y="-40.5" font-family="Helvetica,sans-Serif" font-size="10.00">/home/kali/projects</text>
<text text-anchor="start" x="169" y="-29.5" font-family="Helvetica,sans-Serif" font-size="10.00">/vsomeip/implementation</text>
<text text-anchor="start" x="169" y="-18.5" font-family="Helvetica,sans-Serif" font-size="10.00">/endpoints/src/local_client</text>
<text text-anchor="middle" x="232.5" y="-7.5" font-family="Helvetica,sans-Serif" font-size="10.00">_endpoint_impl.cpp</text>
</a>
</g>
</g>
<!-- Node1&#45;&gt;Node3 -->
<g id="edge2" class="edge">
<title>Node1&#45;&gt;Node3</title>
<path fill="none" stroke="midnightblue" d="M343.49,-84.64C323.23,-74.2 300.7,-62.61 281.27,-52.61"/>
<polygon fill="midnightblue" stroke="midnightblue" points="342.13,-87.87 352.62,-89.34 345.33,-81.65 342.13,-87.87"/>
</g>
<!-- Node4 -->
<g id="node4" class="node">
<title>Node4</title>
<g id="a_node4"><a xlink:href="routing__manager__base_8cpp.html" target="_top" xlink:title=" ">
<polygon fill="white" stroke="black" points="322.5,-0.5 322.5,-52.5 480.5,-52.5 480.5,-0.5 322.5,-0.5"/>
<text text-anchor="start" x="330.5" y="-40.5" font-family="Helvetica,sans-Serif" font-size="10.00">/home/kali/projects</text>
<text text-anchor="start" x="330.5" y="-29.5" font-family="Helvetica,sans-Serif" font-size="10.00">/vsomeip/implementation</text>
<text text-anchor="start" x="330.5" y="-18.5" font-family="Helvetica,sans-Serif" font-size="10.00">/routing/src/routing_manager</text>
<text text-anchor="middle" x="401.5" y="-7.5" font-family="Helvetica,sans-Serif" font-size="10.00">_base.cpp</text>
</a>
</g>
</g>
<!-- Node1&#45;&gt;Node4 -->
<g id="edge3" class="edge">
<title>Node1&#45;&gt;Node4</title>
<path fill="none" stroke="midnightblue" d="M401.5,-79.19C401.5,-70.28 401.5,-60.9 401.5,-52.61"/>
<polygon fill="midnightblue" stroke="midnightblue" points="398,-79.34 401.5,-89.34 405,-79.34 398,-79.34"/>
</g>
<!-- Node5 -->
<g id="node5" class="node">
<title>Node5</title>
<g id="a_node5"><a xlink:href="routing__manager__impl_8cpp.html" target="_top" xlink:title=" ">
<polygon fill="white" stroke="black" points="498.5,-0.5 498.5,-52.5 656.5,-52.5 656.5,-0.5 498.5,-0.5"/>
<text text-anchor="start" x="506.5" y="-40.5" font-family="Helvetica,sans-Serif" font-size="10.00">/home/kali/projects</text>
<text text-anchor="start" x="506.5" y="-29.5" font-family="Helvetica,sans-Serif" font-size="10.00">/vsomeip/implementation</text>
<text text-anchor="start" x="506.5" y="-18.5" font-family="Helvetica,sans-Serif" font-size="10.00">/routing/src/routing_manager</text>
<text text-anchor="middle" x="577.5" y="-7.5" font-family="Helvetica,sans-Serif" font-size="10.00">_impl.cpp</text>
</a>
</g>
</g>
<!-- Node1&#45;&gt;Node5 -->
<g id="edge4" class="edge">
<title>Node1&#45;&gt;Node5</title>
<path fill="none" stroke="midnightblue" d="M461.63,-84.78C482.81,-74.31 506.38,-62.66 526.71,-52.61"/>
<polygon fill="midnightblue" stroke="midnightblue" points="459.82,-81.77 452.41,-89.34 462.92,-88.04 459.82,-81.77"/>
</g>
<!-- Node6 -->
<g id="node6" class="node">
<title>Node6</title>
<g id="a_node6"><a xlink:href="routing__manager__proxy_8cpp.html" target="_top" xlink:title=" ">
<polygon fill="white" stroke="black" points="674.5,-0.5 674.5,-52.5 832.5,-52.5 832.5,-0.5 674.5,-0.5"/>
<text text-anchor="start" x="682.5" y="-40.5" font-family="Helvetica,sans-Serif" font-size="10.00">/home/kali/projects</text>
<text text-anchor="start" x="682.5" y="-29.5" font-family="Helvetica,sans-Serif" font-size="10.00">/vsomeip/implementation</text>
<text text-anchor="start" x="682.5" y="-18.5" font-family="Helvetica,sans-Serif" font-size="10.00">/routing/src/routing_manager</text>
<text text-anchor="middle" x="753.5" y="-7.5" font-family="Helvetica,sans-Serif" font-size="10.00">_proxy.cpp</text>
</a>
</g>
</g>
<!-- Node1&#45;&gt;Node6 -->
<g id="edge5" class="edge">
<title>Node1&#45;&gt;Node6</title>
<path fill="none" stroke="midnightblue" d="M483.91,-96.49C536.12,-84.78 604.97,-68.81 665.5,-53 668.42,-52.24 671.4,-51.45 674.4,-50.64"/>
<polygon fill="midnightblue" stroke="midnightblue" points="483.02,-93.1 474.03,-98.7 484.55,-99.93 483.02,-93.1"/>
</g>
</g>
</svg>
