<?xml version="1.0" encoding="UTF-8" standalone="no"?>
<!DOCTYPE svg PUBLIC "-//W3C//DTD SVG 1.1//EN"
 "http://www.w3.org/Graphics/SVG/1.1/DTD/svg11.dtd">
<!-- Generated by graphviz version 2.43.0 (0)
 -->
<!-- Title: /home/kali/projects/vsomeip/implementation/logger/include/logger_impl.hpp Pages: 1 -->
<svg width="607pt" height="173pt"
 viewBox="0.00 0.00 607.00 173.00" xmlns="http://www.w3.org/2000/svg" xmlns:xlink="http://www.w3.org/1999/xlink">
<g id="graph0" class="graph" transform="scale(1 1) rotate(0) translate(4 169)">
<title>/home/kali/projects/vsomeip/implementation/logger/include/logger_impl.hpp</title>
<polygon fill="white" stroke="transparent" points="-4,4 -4,-169 603,-169 603,4 -4,4"/>
<!-- Node1 -->
<g id="node1" class="node">
<title>Node1</title>
<g id="a_node1"><a xlink:title=" ">
<polygon fill="#bfbfbf" stroke="black" points="14.5,-112.5 14.5,-164.5 157.5,-164.5 157.5,-112.5 14.5,-112.5"/>
<text text-anchor="start" x="22.5" y="-152.5" font-family="Helvetica,sans-Serif" font-size="10.00">/home/kali/projects</text>
<text text-anchor="start" x="22.5" y="-141.5" font-family="Helvetica,sans-Serif" font-size="10.00">/vsomeip/implementation</text>
<text text-anchor="start" x="22.5" y="-130.5" font-family="Helvetica,sans-Serif" font-size="10.00">/logger/include/logger</text>
<text text-anchor="middle" x="86" y="-119.5" font-family="Helvetica,sans-Serif" font-size="10.00">_impl.hpp</text>
</a>
</g>
</g>
<!-- Node2 -->
<g id="node2" class="node">
<title>Node2</title>
<g id="a_node2"><a xlink:title=" ">
<polygon fill="white" stroke="#bfbfbf" points="0,-56.5 0,-75.5 58,-75.5 58,-56.5 0,-56.5"/>
<text text-anchor="middle" x="29" y="-63.5" font-family="Helvetica,sans-Serif" font-size="10.00">memory</text>
</a>
</g>
</g>
<!-- Node1&#45;&gt;Node2 -->
<g id="edge1" class="edge">
<title>Node1&#45;&gt;Node2</title>
<path fill="none" stroke="midnightblue" d="M65.74,-112.45C57.97,-102.83 49.3,-92.1 42.33,-83.49"/>
<polygon fill="midnightblue" stroke="midnightblue" points="45.04,-81.27 36.03,-75.7 39.6,-85.67 45.04,-81.27"/>
</g>
<!-- Node3 -->
<g id="node3" class="node">
<title>Node3</title>
<g id="a_node3"><a xlink:title=" ">
<polygon fill="white" stroke="#bfbfbf" points="47,-0.5 47,-19.5 95,-19.5 95,-0.5 47,-0.5"/>
<text text-anchor="middle" x="71" y="-7.5" font-family="Helvetica,sans-Serif" font-size="10.00">mutex</text>
</a>
</g>
</g>
<!-- Node1&#45;&gt;Node3 -->
<g id="edge2" class="edge">
<title>Node1&#45;&gt;Node3</title>
<path fill="none" stroke="midnightblue" d="M83,-112.2C80.1,-87.77 75.78,-51.34 73.19,-29.5"/>
<polygon fill="midnightblue" stroke="midnightblue" points="76.67,-29.07 72.01,-19.55 69.72,-29.89 76.67,-29.07"/>
</g>
<!-- Node4 -->
<g id="node4" class="node">
<title>Node4</title>
<g id="a_node4"><a xlink:href="logger_8hpp.html" target="_top" xlink:title=" ">
<polygon fill="white" stroke="black" points="165.5,-56.5 165.5,-75.5 318.5,-75.5 318.5,-56.5 165.5,-56.5"/>
<text text-anchor="middle" x="242" y="-63.5" font-family="Helvetica,sans-Serif" font-size="10.00">vsomeip/internal/logger.hpp</text>
</a>
</g>
</g>
<!-- Node1&#45;&gt;Node4 -->
<g id="edge3" class="edge">
<title>Node1&#45;&gt;Node4</title>
<path fill="none" stroke="midnightblue" d="M141.44,-112.45C165.97,-101.36 193.77,-88.8 213.91,-79.7"/>
<polygon fill="midnightblue" stroke="midnightblue" points="215.46,-82.83 223.13,-75.53 212.58,-76.46 215.46,-82.83"/>
</g>
<!-- Node4&#45;&gt;Node3 -->
<g id="edge6" class="edge">
<title>Node4&#45;&gt;Node3</title>
<path fill="none" stroke="midnightblue" d="M214.9,-56.44C185.16,-47.05 137.36,-31.96 105.09,-21.77"/>
<polygon fill="midnightblue" stroke="midnightblue" points="105.79,-18.32 95.2,-18.64 103.69,-24.99 105.79,-18.32"/>
</g>
<!-- Node5 -->
<g id="node5" class="node">
<title>Node5</title>
<g id="a_node5"><a xlink:title=" ">
<polygon fill="white" stroke="#bfbfbf" points="113,-0.5 113,-19.5 163,-19.5 163,-0.5 113,-0.5"/>
<text text-anchor="middle" x="138" y="-7.5" font-family="Helvetica,sans-Serif" font-size="10.00">chrono</text>
</a>
</g>
</g>
<!-- Node4&#45;&gt;Node5 -->
<g id="edge4" class="edge">
<title>Node4&#45;&gt;Node5</title>
<path fill="none" stroke="midnightblue" d="M225.29,-56.32C208.69,-47.7 183,-34.36 163.78,-24.39"/>
<polygon fill="midnightblue" stroke="midnightblue" points="165.16,-21.16 154.67,-19.65 161.93,-27.37 165.16,-21.16"/>
</g>
<!-- Node6 -->
<g id="node6" class="node">
<title>Node6</title>
<g id="a_node6"><a xlink:title=" ">
<polygon fill="white" stroke="#bfbfbf" points="181,-0.5 181,-19.5 231,-19.5 231,-0.5 181,-0.5"/>
<text text-anchor="middle" x="206" y="-7.5" font-family="Helvetica,sans-Serif" font-size="10.00">cstdint</text>
</a>
</g>
</g>
<!-- Node4&#45;&gt;Node6 -->
<g id="edge5" class="edge">
<title>Node4&#45;&gt;Node6</title>
<path fill="none" stroke="midnightblue" d="M236.06,-56.08C231.02,-48.53 223.66,-37.49 217.49,-28.23"/>
<polygon fill="midnightblue" stroke="midnightblue" points="220.29,-26.13 211.83,-19.75 214.47,-30.01 220.29,-26.13"/>
</g>
<!-- Node7 -->
<g id="node7" class="node">
<title>Node7</title>
<g id="a_node7"><a xlink:title=" ">
<polygon fill="white" stroke="#bfbfbf" points="249.5,-0.5 249.5,-19.5 306.5,-19.5 306.5,-0.5 249.5,-0.5"/>
<text text-anchor="middle" x="278" y="-7.5" font-family="Helvetica,sans-Serif" font-size="10.00">ostream</text>
</a>
</g>
</g>
<!-- Node4&#45;&gt;Node7 -->
<g id="edge7" class="edge">
<title>Node4&#45;&gt;Node7</title>
<path fill="none" stroke="midnightblue" d="M247.94,-56.08C252.98,-48.53 260.34,-37.49 266.51,-28.23"/>
<polygon fill="midnightblue" stroke="midnightblue" points="269.53,-30.01 272.17,-19.75 263.71,-26.13 269.53,-30.01"/>
</g>
<!-- Node8 -->
<g id="node8" class="node">
<title>Node8</title>
<g id="a_node8"><a xlink:title=" ">
<polygon fill="white" stroke="#bfbfbf" points="325,-0.5 325,-19.5 381,-19.5 381,-0.5 325,-0.5"/>
<text text-anchor="middle" x="353" y="-7.5" font-family="Helvetica,sans-Serif" font-size="10.00">sstream</text>
</a>
</g>
</g>
<!-- Node4&#45;&gt;Node8 -->
<g id="edge8" class="edge">
<title>Node4&#45;&gt;Node8</title>
<path fill="none" stroke="midnightblue" d="M259.83,-56.32C277.72,-47.62 305.48,-34.12 326.05,-24.11"/>
<polygon fill="midnightblue" stroke="midnightblue" points="327.75,-27.18 335.21,-19.65 324.69,-20.88 327.75,-27.18"/>
</g>
<!-- Node9 -->
<g id="node9" class="node">
<title>Node9</title>
<g id="a_node9"><a xlink:title=" ">
<polygon fill="white" stroke="#bfbfbf" points="399.5,-0.5 399.5,-19.5 466.5,-19.5 466.5,-0.5 399.5,-0.5"/>
<text text-anchor="middle" x="433" y="-7.5" font-family="Helvetica,sans-Serif" font-size="10.00">streambuf</text>
</a>
</g>
</g>
<!-- Node4&#45;&gt;Node9 -->
<g id="edge9" class="edge">
<title>Node4&#45;&gt;Node9</title>
<path fill="none" stroke="midnightblue" d="M272.26,-56.44C304.96,-47.2 357.18,-32.44 393.18,-22.26"/>
<polygon fill="midnightblue" stroke="midnightblue" points="394.21,-25.61 402.88,-19.52 392.3,-18.87 394.21,-25.61"/>
</g>
<!-- Node10 -->
<g id="node10" class="node">
<title>Node10</title>
<g id="a_node10"><a xlink:title=" ">
<polygon fill="white" stroke="#bfbfbf" points="485,-0.5 485,-19.5 599,-19.5 599,-0.5 485,-0.5"/>
<text text-anchor="middle" x="542" y="-7.5" font-family="Helvetica,sans-Serif" font-size="10.00">vsomeip/export.hpp</text>
</a>
</g>
</g>
<!-- Node4&#45;&gt;Node10 -->
<g id="edge10" class="edge">
<title>Node4&#45;&gt;Node10</title>
<path fill="none" stroke="midnightblue" d="M289.54,-56.44C342.53,-46.9 428.2,-31.48 484.82,-21.29"/>
<polygon fill="midnightblue" stroke="midnightblue" points="485.46,-24.73 494.69,-19.52 484.22,-17.84 485.46,-24.73"/>
</g>
</g>
</svg>
