<?xml version="1.0" encoding="UTF-8" standalone="no"?>
<!DOCTYPE svg PUBLIC "-//W3C//DTD SVG 1.1//EN"
 "http://www.w3.org/Graphics/SVG/1.1/DTD/svg11.dtd">
<!-- Generated by graphviz version 2.43.0 (0)
 -->
<!-- Title: /home/kali/projects/vsomeip/implementation/message/include/message_header_impl.hpp Pages: 1 -->
<svg width="2543pt" height="417pt"
 viewBox="0.00 0.00 2542.50 417.00" xmlns="http://www.w3.org/2000/svg" xmlns:xlink="http://www.w3.org/1999/xlink">
<g id="graph0" class="graph" transform="scale(1 1) rotate(0) translate(4 413)">
<title>/home/kali/projects/vsomeip/implementation/message/include/message_header_impl.hpp</title>
<polygon fill="white" stroke="transparent" points="-4,4 -4,-413 2538.5,-413 2538.5,4 -4,4"/>
<!-- Node1 -->
<g id="node1" class="node">
<title>Node1</title>
<g id="a_node1"><a xlink:title=" ">
<polygon fill="#bfbfbf" stroke="black" points="1741,-356.5 1741,-408.5 1890,-408.5 1890,-356.5 1741,-356.5"/>
<text text-anchor="start" x="1749" y="-396.5" font-family="Helvetica,sans-Serif" font-size="10.00">/home/kali/projects</text>
<text text-anchor="start" x="1749" y="-385.5" font-family="Helvetica,sans-Serif" font-size="10.00">/vsomeip/implementation</text>
<text text-anchor="start" x="1749" y="-374.5" font-family="Helvetica,sans-Serif" font-size="10.00">/message/include/message</text>
<text text-anchor="middle" x="1815.5" y="-363.5" font-family="Helvetica,sans-Serif" font-size="10.00">_header_impl.hpp</text>
</a>
</g>
</g>
<!-- Node2 -->
<g id="node2" class="node">
<title>Node2</title>
<g id="a_node2"><a xlink:href="message_2include_2message__base__impl_8hpp.html" target="_top" xlink:title=" ">
<polygon fill="white" stroke="black" points="1690,-267.5 1690,-319.5 1839,-319.5 1839,-267.5 1690,-267.5"/>
<text text-anchor="start" x="1698" y="-307.5" font-family="Helvetica,sans-Serif" font-size="10.00">/home/kali/projects</text>
<text text-anchor="start" x="1698" y="-296.5" font-family="Helvetica,sans-Serif" font-size="10.00">/vsomeip/implementation</text>
<text text-anchor="start" x="1698" y="-285.5" font-family="Helvetica,sans-Serif" font-size="10.00">/message/include/message</text>
<text text-anchor="middle" x="1764.5" y="-274.5" font-family="Helvetica,sans-Serif" font-size="10.00">_base_impl.hpp</text>
</a>
</g>
</g>
<!-- Node1&#45;&gt;Node2 -->
<g id="edge1" class="edge">
<title>Node1&#45;&gt;Node2</title>
<path fill="none" stroke="midnightblue" d="M1795.65,-347.64C1790.18,-338.31 1784.34,-328.35 1779.22,-319.61"/>
<polygon fill="midnightblue" stroke="midnightblue" points="1792.67,-349.48 1800.75,-356.34 1798.71,-345.94 1792.67,-349.48"/>
</g>
<!-- Node12 -->
<g id="node12" class="node">
<title>Node12</title>
<g id="a_node12"><a xlink:href="message__header__impl_8cpp.html" target="_top" xlink:title=" ">
<polygon fill="white" stroke="black" points="1820,-178.5 1820,-230.5 1987,-230.5 1987,-178.5 1820,-178.5"/>
<text text-anchor="start" x="1828" y="-218.5" font-family="Helvetica,sans-Serif" font-size="10.00">/home/kali/projects</text>
<text text-anchor="start" x="1828" y="-207.5" font-family="Helvetica,sans-Serif" font-size="10.00">/vsomeip/implementation</text>
<text text-anchor="start" x="1828" y="-196.5" font-family="Helvetica,sans-Serif" font-size="10.00">/message/src/message_header</text>
<text text-anchor="middle" x="1903.5" y="-185.5" font-family="Helvetica,sans-Serif" font-size="10.00">_impl.cpp</text>
</a>
</g>
</g>
<!-- Node1&#45;&gt;Node12 -->
<g id="edge26" class="edge">
<title>Node1&#45;&gt;Node12</title>
<path fill="none" stroke="midnightblue" d="M1834.08,-347.53C1838.86,-338.61 1843.94,-328.98 1848.5,-320 1863.98,-289.53 1880.88,-253.98 1891.8,-230.67"/>
<polygon fill="midnightblue" stroke="midnightblue" points="1830.91,-346.04 1829.24,-356.5 1837.07,-349.36 1830.91,-346.04"/>
</g>
<!-- Node3 -->
<g id="node3" class="node">
<title>Node3</title>
<g id="a_node3"><a xlink:href="message_2include_2message__impl_8hpp.html" target="_top" xlink:title=" ">
<polygon fill="white" stroke="black" points="1653,-178.5 1653,-230.5 1802,-230.5 1802,-178.5 1653,-178.5"/>
<text text-anchor="start" x="1661" y="-218.5" font-family="Helvetica,sans-Serif" font-size="10.00">/home/kali/projects</text>
<text text-anchor="start" x="1661" y="-207.5" font-family="Helvetica,sans-Serif" font-size="10.00">/vsomeip/implementation</text>
<text text-anchor="start" x="1661" y="-196.5" font-family="Helvetica,sans-Serif" font-size="10.00">/message/include/message</text>
<text text-anchor="middle" x="1727.5" y="-185.5" font-family="Helvetica,sans-Serif" font-size="10.00">_impl.hpp</text>
</a>
</g>
</g>
<!-- Node2&#45;&gt;Node3 -->
<g id="edge2" class="edge">
<title>Node2&#45;&gt;Node3</title>
<path fill="none" stroke="midnightblue" d="M1749.85,-258.06C1745.96,-248.9 1741.82,-239.17 1738.18,-230.61"/>
<polygon fill="midnightblue" stroke="midnightblue" points="1746.66,-259.5 1753.8,-267.34 1753.11,-256.76 1746.66,-259.5"/>
</g>
<!-- Node2&#45;&gt;Node12 -->
<g id="edge11" class="edge">
<title>Node2&#45;&gt;Node12</title>
<path fill="none" stroke="midnightblue" d="M1813.57,-261.79C1829.88,-251.58 1847.84,-240.34 1863.39,-230.61"/>
<polygon fill="midnightblue" stroke="midnightblue" points="1811.32,-259.06 1804.7,-267.34 1815.04,-265 1811.32,-259.06"/>
</g>
<!-- Node13 -->
<g id="node13" class="node">
<title>Node13</title>
<g id="a_node13"><a xlink:href="service__discovery_2include_2message__impl_8hpp.html" target="_top" xlink:title=" ">
<polygon fill="white" stroke="black" points="493.5,-178.5 493.5,-230.5 639.5,-230.5 639.5,-178.5 493.5,-178.5"/>
<text text-anchor="start" x="501.5" y="-218.5" font-family="Helvetica,sans-Serif" font-size="10.00">/home/kali/projects</text>
<text text-anchor="start" x="501.5" y="-207.5" font-family="Helvetica,sans-Serif" font-size="10.00">/vsomeip/implementation</text>
<text text-anchor="start" x="501.5" y="-196.5" font-family="Helvetica,sans-Serif" font-size="10.00">/service_discovery/include</text>
<text text-anchor="middle" x="566.5" y="-185.5" font-family="Helvetica,sans-Serif" font-size="10.00">/message_impl.hpp</text>
</a>
</g>
</g>
<!-- Node2&#45;&gt;Node13 -->
<g id="edge12" class="edge">
<title>Node2&#45;&gt;Node13</title>
<path fill="none" stroke="midnightblue" d="M1679.49,-286.33C1455.07,-270.03 849.61,-226.06 639.5,-210.8"/>
<polygon fill="midnightblue" stroke="midnightblue" points="1679.33,-289.82 1689.56,-287.06 1679.84,-282.84 1679.33,-289.82"/>
</g>
<!-- Node4 -->
<g id="node4" class="node">
<title>Node4</title>
<g id="a_node4"><a xlink:href="compat_2message_2src_2message__base__impl_8cpp.html" target="_top" xlink:title=" ">
<polygon fill="white" stroke="black" points="1097.5,-89.5 1097.5,-141.5 1265.5,-141.5 1265.5,-89.5 1097.5,-89.5"/>
<text text-anchor="start" x="1105.5" y="-129.5" font-family="Helvetica,sans-Serif" font-size="10.00">/home/kali/projects</text>
<text text-anchor="start" x="1105.5" y="-118.5" font-family="Helvetica,sans-Serif" font-size="10.00">/vsomeip/implementation</text>
<text text-anchor="start" x="1105.5" y="-107.5" font-family="Helvetica,sans-Serif" font-size="10.00">/compat/message/src/message</text>
<text text-anchor="middle" x="1181.5" y="-96.5" font-family="Helvetica,sans-Serif" font-size="10.00">_base_impl.cpp</text>
</a>
</g>
</g>
<!-- Node3&#45;&gt;Node4 -->
<g id="edge3" class="edge">
<title>Node3&#45;&gt;Node4</title>
<path fill="none" stroke="midnightblue" d="M1642.81,-195.4C1551.38,-185.86 1401.74,-167.96 1274.5,-142 1271.55,-141.4 1268.55,-140.75 1265.53,-140.08"/>
<polygon fill="midnightblue" stroke="midnightblue" points="1642.53,-198.89 1652.84,-196.43 1643.25,-191.92 1642.53,-198.89"/>
</g>
<!-- Node5 -->
<g id="node5" class="node">
<title>Node5</title>
<g id="a_node5"><a xlink:href="compat_2message_2src_2message__impl_8cpp.html" target="_top" xlink:title=" ">
<polygon fill="white" stroke="black" points="1283.5,-89.5 1283.5,-141.5 1451.5,-141.5 1451.5,-89.5 1283.5,-89.5"/>
<text text-anchor="start" x="1291.5" y="-129.5" font-family="Helvetica,sans-Serif" font-size="10.00">/home/kali/projects</text>
<text text-anchor="start" x="1291.5" y="-118.5" font-family="Helvetica,sans-Serif" font-size="10.00">/vsomeip/implementation</text>
<text text-anchor="start" x="1291.5" y="-107.5" font-family="Helvetica,sans-Serif" font-size="10.00">/compat/message/src/message</text>
<text text-anchor="middle" x="1367.5" y="-96.5" font-family="Helvetica,sans-Serif" font-size="10.00">_impl.cpp</text>
</a>
</g>
</g>
<!-- Node3&#45;&gt;Node5 -->
<g id="edge4" class="edge">
<title>Node3&#45;&gt;Node5</title>
<path fill="none" stroke="midnightblue" d="M1642.88,-184.79C1590.51,-173 1521.96,-157.18 1461.5,-142 1458.22,-141.18 1454.88,-140.33 1451.51,-139.46"/>
<polygon fill="midnightblue" stroke="midnightblue" points="1642.27,-188.24 1652.79,-187.02 1643.8,-181.41 1642.27,-188.24"/>
</g>
<!-- Node6 -->
<g id="node6" class="node">
<title>Node6</title>
<g id="a_node6"><a xlink:href="message_2src_2deserializer_8cpp.html" target="_top" xlink:title=" ">
<polygon fill="white" stroke="black" points="1470,-95 1470,-136 1631,-136 1631,-95 1470,-95"/>
<text text-anchor="start" x="1478" y="-124" font-family="Helvetica,sans-Serif" font-size="10.00">/home/kali/projects</text>
<text text-anchor="start" x="1478" y="-113" font-family="Helvetica,sans-Serif" font-size="10.00">/vsomeip/implementation</text>
<text text-anchor="middle" x="1550.5" y="-102" font-family="Helvetica,sans-Serif" font-size="10.00">/message/src/deserializer.cpp</text>
</a>
</g>
</g>
<!-- Node3&#45;&gt;Node6 -->
<g id="edge5" class="edge">
<title>Node3&#45;&gt;Node6</title>
<path fill="none" stroke="midnightblue" d="M1667.13,-173.83C1641.78,-161.36 1612.98,-147.21 1590.34,-136.08"/>
<polygon fill="midnightblue" stroke="midnightblue" points="1665.79,-177.07 1676.3,-178.34 1668.87,-170.78 1665.79,-177.07"/>
</g>
<!-- Node7 -->
<g id="node7" class="node">
<title>Node7</title>
<g id="a_node7"><a xlink:href="message_2src_2message__base__impl_8cpp.html" target="_top" xlink:title=" ">
<polygon fill="white" stroke="black" points="1649,-89.5 1649,-141.5 1806,-141.5 1806,-89.5 1649,-89.5"/>
<text text-anchor="start" x="1657" y="-129.5" font-family="Helvetica,sans-Serif" font-size="10.00">/home/kali/projects</text>
<text text-anchor="start" x="1657" y="-118.5" font-family="Helvetica,sans-Serif" font-size="10.00">/vsomeip/implementation</text>
<text text-anchor="start" x="1657" y="-107.5" font-family="Helvetica,sans-Serif" font-size="10.00">/message/src/message_base</text>
<text text-anchor="middle" x="1727.5" y="-96.5" font-family="Helvetica,sans-Serif" font-size="10.00">_impl.cpp</text>
</a>
</g>
</g>
<!-- Node3&#45;&gt;Node7 -->
<g id="edge6" class="edge">
<title>Node3&#45;&gt;Node7</title>
<path fill="none" stroke="midnightblue" d="M1727.5,-168.19C1727.5,-159.28 1727.5,-149.9 1727.5,-141.61"/>
<polygon fill="midnightblue" stroke="midnightblue" points="1724,-168.34 1727.5,-178.34 1731,-168.34 1724,-168.34"/>
</g>
<!-- Node8 -->
<g id="node8" class="node">
<title>Node8</title>
<g id="a_node8"><a xlink:href="message_2src_2message__impl_8cpp.html" target="_top" xlink:title=" ">
<polygon fill="white" stroke="black" points="1824.5,-95 1824.5,-136 2000.5,-136 2000.5,-95 1824.5,-95"/>
<text text-anchor="start" x="1832.5" y="-124" font-family="Helvetica,sans-Serif" font-size="10.00">/home/kali/projects</text>
<text text-anchor="start" x="1832.5" y="-113" font-family="Helvetica,sans-Serif" font-size="10.00">/vsomeip/implementation</text>
<text text-anchor="middle" x="1912.5" y="-102" font-family="Helvetica,sans-Serif" font-size="10.00">/message/src/message_impl.cpp</text>
</a>
</g>
</g>
<!-- Node3&#45;&gt;Node8 -->
<g id="edge7" class="edge">
<title>Node3&#45;&gt;Node8</title>
<path fill="none" stroke="midnightblue" d="M1790.25,-173.99C1816.84,-161.49 1847.1,-147.26 1870.86,-136.08"/>
<polygon fill="midnightblue" stroke="midnightblue" points="1788.57,-170.91 1781.01,-178.34 1791.55,-177.25 1788.57,-170.91"/>
</g>
<!-- Node9 -->
<g id="node9" class="node">
<title>Node9</title>
<g id="a_node9"><a xlink:href="routing__manager__impl_8cpp.html" target="_top" xlink:title=" ">
<polygon fill="white" stroke="black" points="2018.5,-89.5 2018.5,-141.5 2176.5,-141.5 2176.5,-89.5 2018.5,-89.5"/>
<text text-anchor="start" x="2026.5" y="-129.5" font-family="Helvetica,sans-Serif" font-size="10.00">/home/kali/projects</text>
<text text-anchor="start" x="2026.5" y="-118.5" font-family="Helvetica,sans-Serif" font-size="10.00">/vsomeip/implementation</text>
<text text-anchor="start" x="2026.5" y="-107.5" font-family="Helvetica,sans-Serif" font-size="10.00">/routing/src/routing_manager</text>
<text text-anchor="middle" x="2097.5" y="-96.5" font-family="Helvetica,sans-Serif" font-size="10.00">_impl.cpp</text>
</a>
</g>
</g>
<!-- Node3&#45;&gt;Node9 -->
<g id="edge8" class="edge">
<title>Node3&#45;&gt;Node9</title>
<path fill="none" stroke="midnightblue" d="M1811.94,-178.02C1900.2,-157.33 1925.49,-161.75 2009.5,-142 2012.44,-141.31 2015.43,-140.58 2018.45,-139.82"/>
<polygon fill="midnightblue" stroke="midnightblue" points="1810.95,-174.66 1802.03,-180.39 1812.57,-181.47 1810.95,-174.66"/>
</g>
<!-- Node10 -->
<g id="node10" class="node">
<title>Node10</title>
<g id="a_node10"><a xlink:href="routing__manager__proxy_8cpp.html" target="_top" xlink:title=" ">
<polygon fill="white" stroke="black" points="2194.5,-89.5 2194.5,-141.5 2352.5,-141.5 2352.5,-89.5 2194.5,-89.5"/>
<text text-anchor="start" x="2202.5" y="-129.5" font-family="Helvetica,sans-Serif" font-size="10.00">/home/kali/projects</text>
<text text-anchor="start" x="2202.5" y="-118.5" font-family="Helvetica,sans-Serif" font-size="10.00">/vsomeip/implementation</text>
<text text-anchor="start" x="2202.5" y="-107.5" font-family="Helvetica,sans-Serif" font-size="10.00">/routing/src/routing_manager</text>
<text text-anchor="middle" x="2273.5" y="-96.5" font-family="Helvetica,sans-Serif" font-size="10.00">_proxy.cpp</text>
</a>
</g>
</g>
<!-- Node3&#45;&gt;Node10 -->
<g id="edge9" class="edge">
<title>Node3&#45;&gt;Node10</title>
<path fill="none" stroke="midnightblue" d="M1812.41,-178.01C1977.16,-146.65 2024.69,-172.76 2185.5,-142 2188.31,-141.46 2191.16,-140.87 2194.04,-140.24"/>
<polygon fill="midnightblue" stroke="midnightblue" points="1811.57,-174.61 1802.42,-179.95 1812.9,-181.48 1811.57,-174.61"/>
</g>
<!-- Node11 -->
<g id="node11" class="node">
<title>Node11</title>
<g id="a_node11"><a xlink:href="runtime_2src_2runtime__impl_8cpp.html" target="_top" xlink:title=" ">
<polygon fill="white" stroke="black" points="2370.5,-95 2370.5,-136 2534.5,-136 2534.5,-95 2370.5,-95"/>
<text text-anchor="start" x="2378.5" y="-124" font-family="Helvetica,sans-Serif" font-size="10.00">/home/kali/projects</text>
<text text-anchor="start" x="2378.5" y="-113" font-family="Helvetica,sans-Serif" font-size="10.00">/vsomeip/implementation</text>
<text text-anchor="middle" x="2452.5" y="-102" font-family="Helvetica,sans-Serif" font-size="10.00">/runtime/src/runtime_impl.cpp</text>
</a>
</g>
</g>
<!-- Node3&#45;&gt;Node11 -->
<g id="edge10" class="edge">
<title>Node3&#45;&gt;Node11</title>
<path fill="none" stroke="midnightblue" d="M1812.55,-178.01C2054.39,-135.46 2123.34,-182.71 2361.5,-142 2370.56,-140.45 2380.01,-138.36 2389.24,-136.04"/>
<polygon fill="midnightblue" stroke="midnightblue" points="1811.62,-174.62 1802.4,-179.83 1812.86,-181.51 1811.62,-174.62"/>
</g>
<!-- Node14 -->
<g id="node14" class="node">
<title>Node14</title>
<g id="a_node14"><a xlink:href="eventgroupentry__impl_8hpp.html" target="_top" xlink:title=" ">
<polygon fill="white" stroke="black" points="167,-89.5 167,-141.5 316,-141.5 316,-89.5 167,-89.5"/>
<text text-anchor="start" x="175" y="-129.5" font-family="Helvetica,sans-Serif" font-size="10.00">/home/kali/projects</text>
<text text-anchor="start" x="175" y="-118.5" font-family="Helvetica,sans-Serif" font-size="10.00">/vsomeip/implementation</text>
<text text-anchor="start" x="175" y="-107.5" font-family="Helvetica,sans-Serif" font-size="10.00">/service_discovery/include</text>
<text text-anchor="middle" x="241.5" y="-96.5" font-family="Helvetica,sans-Serif" font-size="10.00">/eventgroupentry_impl.hpp</text>
</a>
</g>
</g>
<!-- Node13&#45;&gt;Node14 -->
<g id="edge13" class="edge">
<title>Node13&#45;&gt;Node14</title>
<path fill="none" stroke="midnightblue" d="M483.38,-181.25C431.83,-167.45 366.17,-149.87 316.26,-136.51"/>
<polygon fill="midnightblue" stroke="midnightblue" points="482.59,-184.66 493.16,-183.87 484.4,-177.9 482.59,-184.66"/>
</g>
<!-- Node16 -->
<g id="node16" class="node">
<title>Node16</title>
<g id="a_node16"><a xlink:href="service__discovery_2src_2message__impl_8cpp.html" target="_top" xlink:title=" ">
<polygon fill="white" stroke="black" points="0,-0.5 0,-52.5 143,-52.5 143,-0.5 0,-0.5"/>
<text text-anchor="start" x="8" y="-40.5" font-family="Helvetica,sans-Serif" font-size="10.00">/home/kali/projects</text>
<text text-anchor="start" x="8" y="-29.5" font-family="Helvetica,sans-Serif" font-size="10.00">/vsomeip/implementation</text>
<text text-anchor="start" x="8" y="-18.5" font-family="Helvetica,sans-Serif" font-size="10.00">/service_discovery/src</text>
<text text-anchor="middle" x="71.5" y="-7.5" font-family="Helvetica,sans-Serif" font-size="10.00">/message_impl.cpp</text>
</a>
</g>
</g>
<!-- Node13&#45;&gt;Node16 -->
<g id="edge22" class="edge">
<title>Node13&#45;&gt;Node16</title>
<path fill="none" stroke="midnightblue" d="M483.07,-198.4C379.79,-190.81 210.99,-173.91 157.5,-142 122.27,-120.98 96.73,-79.49 83.02,-52.65"/>
<polygon fill="midnightblue" stroke="midnightblue" points="482.93,-201.89 493.16,-199.12 483.44,-194.91 482.93,-201.89"/>
</g>
<!-- Node17 -->
<g id="node17" class="node">
<title>Node17</title>
<g id="a_node17"><a xlink:href="service__discovery__impl_8cpp.html" target="_top" xlink:title=" ">
<polygon fill="white" stroke="black" points="328,-0.5 328,-52.5 483,-52.5 483,-0.5 328,-0.5"/>
<text text-anchor="start" x="336" y="-40.5" font-family="Helvetica,sans-Serif" font-size="10.00">/home/kali/projects</text>
<text text-anchor="start" x="336" y="-29.5" font-family="Helvetica,sans-Serif" font-size="10.00">/vsomeip/implementation</text>
<text text-anchor="start" x="336" y="-18.5" font-family="Helvetica,sans-Serif" font-size="10.00">/service_discovery/src</text>
<text text-anchor="middle" x="405.5" y="-7.5" font-family="Helvetica,sans-Serif" font-size="10.00">/service_discovery_impl.cpp</text>
</a>
</g>
</g>
<!-- Node13&#45;&gt;Node17 -->
<g id="edge25" class="edge">
<title>Node13&#45;&gt;Node17</title>
<path fill="none" stroke="midnightblue" d="M483.26,-198.93C443.27,-192.03 398.66,-176.42 373.5,-142 354.13,-115.5 371.17,-77.75 386.86,-52.95"/>
<polygon fill="midnightblue" stroke="midnightblue" points="482.9,-202.41 493.32,-200.5 483.98,-195.5 482.9,-202.41"/>
</g>
<!-- Node18 -->
<g id="node18" class="node">
<title>Node18</title>
<g id="a_node18"><a xlink:href="service__discovery__impl_8hpp.html" target="_top" xlink:title=" ">
<polygon fill="white" stroke="black" points="383,-89.5 383,-141.5 538,-141.5 538,-89.5 383,-89.5"/>
<text text-anchor="start" x="391" y="-129.5" font-family="Helvetica,sans-Serif" font-size="10.00">/home/kali/projects</text>
<text text-anchor="start" x="391" y="-118.5" font-family="Helvetica,sans-Serif" font-size="10.00">/vsomeip/implementation</text>
<text text-anchor="start" x="391" y="-107.5" font-family="Helvetica,sans-Serif" font-size="10.00">/service_discovery/include</text>
<text text-anchor="middle" x="460.5" y="-96.5" font-family="Helvetica,sans-Serif" font-size="10.00">/service_discovery_impl.hpp</text>
</a>
</g>
</g>
<!-- Node13&#45;&gt;Node18 -->
<g id="edge17" class="edge">
<title>Node13&#45;&gt;Node18</title>
<path fill="none" stroke="midnightblue" d="M528.04,-171.93C515.88,-161.96 502.62,-151.07 491.09,-141.61"/>
<polygon fill="midnightblue" stroke="midnightblue" points="525.89,-174.7 535.84,-178.34 530.33,-169.29 525.89,-174.7"/>
</g>
<!-- Node19 -->
<g id="node19" class="node">
<title>Node19</title>
<g id="a_node19"><a xlink:href="service__discovery_2src_2runtime__impl_8cpp.html" target="_top" xlink:title=" ">
<polygon fill="white" stroke="black" points="501,-0.5 501,-52.5 644,-52.5 644,-0.5 501,-0.5"/>
<text text-anchor="start" x="509" y="-40.5" font-family="Helvetica,sans-Serif" font-size="10.00">/home/kali/projects</text>
<text text-anchor="start" x="509" y="-29.5" font-family="Helvetica,sans-Serif" font-size="10.00">/vsomeip/implementation</text>
<text text-anchor="start" x="509" y="-18.5" font-family="Helvetica,sans-Serif" font-size="10.00">/service_discovery/src</text>
<text text-anchor="middle" x="572.5" y="-7.5" font-family="Helvetica,sans-Serif" font-size="10.00">/runtime_impl.cpp</text>
</a>
</g>
</g>
<!-- Node13&#45;&gt;Node19 -->
<g id="edge24" class="edge">
<title>Node13&#45;&gt;Node19</title>
<path fill="none" stroke="midnightblue" d="M567.7,-168.25C568.87,-134.04 570.61,-82.97 571.64,-52.67"/>
<polygon fill="midnightblue" stroke="midnightblue" points="564.2,-168.17 567.36,-178.28 571.2,-168.41 564.2,-168.17"/>
</g>
<!-- Node20 -->
<g id="node20" class="node">
<title>Node20</title>
<g id="a_node20"><a xlink:href="service__discovery_2src_2deserializer_8cpp.html" target="_top" xlink:title=" ">
<polygon fill="white" stroke="black" points="595,-89.5 595,-141.5 738,-141.5 738,-89.5 595,-89.5"/>
<text text-anchor="start" x="603" y="-129.5" font-family="Helvetica,sans-Serif" font-size="10.00">/home/kali/projects</text>
<text text-anchor="start" x="603" y="-118.5" font-family="Helvetica,sans-Serif" font-size="10.00">/vsomeip/implementation</text>
<text text-anchor="start" x="603" y="-107.5" font-family="Helvetica,sans-Serif" font-size="10.00">/service_discovery/src</text>
<text text-anchor="middle" x="666.5" y="-96.5" font-family="Helvetica,sans-Serif" font-size="10.00">/deserializer.cpp</text>
</a>
</g>
</g>
<!-- Node13&#45;&gt;Node20 -->
<g id="edge20" class="edge">
<title>Node13&#45;&gt;Node20</title>
<path fill="none" stroke="midnightblue" d="M603.11,-171.65C614.49,-161.75 626.87,-150.98 637.64,-141.61"/>
<polygon fill="midnightblue" stroke="midnightblue" points="600.67,-169.13 595.42,-178.34 605.27,-174.41 600.67,-169.13"/>
</g>
<!-- Node21 -->
<g id="node21" class="node">
<title>Node21</title>
<g id="a_node21"><a xlink:href="entry__impl_8cpp.html" target="_top" xlink:title=" ">
<polygon fill="white" stroke="black" points="756,-89.5 756,-141.5 899,-141.5 899,-89.5 756,-89.5"/>
<text text-anchor="start" x="764" y="-129.5" font-family="Helvetica,sans-Serif" font-size="10.00">/home/kali/projects</text>
<text text-anchor="start" x="764" y="-118.5" font-family="Helvetica,sans-Serif" font-size="10.00">/vsomeip/implementation</text>
<text text-anchor="start" x="764" y="-107.5" font-family="Helvetica,sans-Serif" font-size="10.00">/service_discovery/src</text>
<text text-anchor="middle" x="827.5" y="-96.5" font-family="Helvetica,sans-Serif" font-size="10.00">/entry_impl.cpp</text>
</a>
</g>
</g>
<!-- Node13&#45;&gt;Node21 -->
<g id="edge21" class="edge">
<title>Node13&#45;&gt;Node21</title>
<path fill="none" stroke="midnightblue" d="M649.08,-175.97C683.36,-164.55 722.77,-151.41 755.82,-140.39"/>
<polygon fill="midnightblue" stroke="midnightblue" points="647.93,-172.67 639.55,-179.15 650.14,-179.31 647.93,-172.67"/>
</g>
<!-- Node22 -->
<g id="node22" class="node">
<title>Node22</title>
<g id="a_node22"><a xlink:href="remote__subscription__ack_8cpp.html" target="_top" xlink:title=" ">
<polygon fill="white" stroke="black" points="917.5,-89.5 917.5,-141.5 1079.5,-141.5 1079.5,-89.5 917.5,-89.5"/>
<text text-anchor="start" x="925.5" y="-129.5" font-family="Helvetica,sans-Serif" font-size="10.00">/home/kali/projects</text>
<text text-anchor="start" x="925.5" y="-118.5" font-family="Helvetica,sans-Serif" font-size="10.00">/vsomeip/implementation</text>
<text text-anchor="start" x="925.5" y="-107.5" font-family="Helvetica,sans-Serif" font-size="10.00">/service_discovery/src</text>
<text text-anchor="middle" x="998.5" y="-96.5" font-family="Helvetica,sans-Serif" font-size="10.00">/remote_subscription_ack.cpp</text>
</a>
</g>
</g>
<!-- Node13&#45;&gt;Node22 -->
<g id="edge23" class="edge">
<title>Node13&#45;&gt;Node22</title>
<path fill="none" stroke="midnightblue" d="M649.67,-190.89C719.21,-179.78 820.82,-162.25 908.5,-142 911.35,-141.34 914.24,-140.65 917.16,-139.93"/>
<polygon fill="midnightblue" stroke="midnightblue" points="648.97,-187.46 639.64,-192.48 650.07,-194.37 648.97,-187.46"/>
</g>
<!-- Node15 -->
<g id="node15" class="node">
<title>Node15</title>
<g id="a_node15"><a xlink:href="eventgroupentry__impl_8cpp.html" target="_top" xlink:title=" ">
<polygon fill="white" stroke="black" points="161.5,-0.5 161.5,-52.5 309.5,-52.5 309.5,-0.5 161.5,-0.5"/>
<text text-anchor="start" x="169.5" y="-40.5" font-family="Helvetica,sans-Serif" font-size="10.00">/home/kali/projects</text>
<text text-anchor="start" x="169.5" y="-29.5" font-family="Helvetica,sans-Serif" font-size="10.00">/vsomeip/implementation</text>
<text text-anchor="start" x="169.5" y="-18.5" font-family="Helvetica,sans-Serif" font-size="10.00">/service_discovery/src</text>
<text text-anchor="middle" x="235.5" y="-7.5" font-family="Helvetica,sans-Serif" font-size="10.00">/eventgroupentry_impl.cpp</text>
</a>
</g>
</g>
<!-- Node14&#45;&gt;Node15 -->
<g id="edge14" class="edge">
<title>Node14&#45;&gt;Node15</title>
<path fill="none" stroke="midnightblue" d="M239.06,-79.19C238.45,-70.28 237.8,-60.9 237.23,-52.61"/>
<polygon fill="midnightblue" stroke="midnightblue" points="235.58,-79.6 239.76,-89.34 242.57,-79.12 235.58,-79.6"/>
</g>
<!-- Node14&#45;&gt;Node16 -->
<g id="edge15" class="edge">
<title>Node14&#45;&gt;Node16</title>
<path fill="none" stroke="midnightblue" d="M183.42,-84.78C162.97,-74.31 140.2,-62.66 120.56,-52.61"/>
<polygon fill="midnightblue" stroke="midnightblue" points="181.83,-87.9 192.33,-89.34 185.02,-81.66 181.83,-87.9"/>
</g>
<!-- Node14&#45;&gt;Node17 -->
<g id="edge16" class="edge">
<title>Node14&#45;&gt;Node17</title>
<path fill="none" stroke="midnightblue" d="M297.8,-84.64C317.46,-74.2 339.31,-62.61 358.17,-52.61"/>
<polygon fill="midnightblue" stroke="midnightblue" points="296.13,-81.56 288.94,-89.34 299.41,-87.74 296.13,-81.56"/>
</g>
<!-- Node18&#45;&gt;Node17 -->
<g id="edge19" class="edge">
<title>Node18&#45;&gt;Node17</title>
<path fill="none" stroke="midnightblue" d="M439.09,-80.64C433.19,-71.31 426.9,-61.35 421.37,-52.61"/>
<polygon fill="midnightblue" stroke="midnightblue" points="436.29,-82.75 444.59,-89.34 442.21,-79.01 436.29,-82.75"/>
</g>
<!-- Node18&#45;&gt;Node19 -->
<g id="edge18" class="edge">
<title>Node18&#45;&gt;Node19</title>
<path fill="none" stroke="midnightblue" d="M501.14,-82.93C513.98,-72.96 528,-62.07 540.18,-52.61"/>
<polygon fill="midnightblue" stroke="midnightblue" points="498.65,-80.44 492.9,-89.34 502.94,-85.97 498.65,-80.44"/>
</g>
</g>
</svg>
