<?xml version="1.0" encoding="UTF-8" standalone="no"?>
<!DOCTYPE svg PUBLIC "-//W3C//DTD SVG 1.1//EN"
 "http://www.w3.org/Graphics/SVG/1.1/DTD/svg11.dtd">
<!-- Generated by graphviz version 2.43.0 (0)
 -->
<!-- Title: /home/kali/projects/vsomeip/implementation/message/include/message_base_impl.hpp Pages: 1 -->
<svg width="709pt" height="184pt"
 viewBox="0.00 0.00 709.00 184.00" xmlns="http://www.w3.org/2000/svg" xmlns:xlink="http://www.w3.org/1999/xlink">
<g id="graph0" class="graph" transform="scale(1 1) rotate(0) translate(4 180)">
<title>/home/kali/projects/vsomeip/implementation/message/include/message_base_impl.hpp</title>
<polygon fill="white" stroke="transparent" points="-4,4 -4,-180 705,-180 705,4 -4,4"/>
<!-- Node1 -->
<g id="node1" class="node">
<title>Node1</title>
<g id="a_node1"><a xlink:title=" ">
<polygon fill="#bfbfbf" stroke="black" points="99,-123.5 99,-175.5 248,-175.5 248,-123.5 99,-123.5"/>
<text text-anchor="start" x="107" y="-163.5" font-family="Helvetica,sans-Serif" font-size="10.00">/home/kali/projects</text>
<text text-anchor="start" x="107" y="-152.5" font-family="Helvetica,sans-Serif" font-size="10.00">/vsomeip/implementation</text>
<text text-anchor="start" x="107" y="-141.5" font-family="Helvetica,sans-Serif" font-size="10.00">/message/include/message</text>
<text text-anchor="middle" x="173.5" y="-130.5" font-family="Helvetica,sans-Serif" font-size="10.00">_base_impl.hpp</text>
</a>
</g>
</g>
<!-- Node2 -->
<g id="node2" class="node">
<title>Node2</title>
<g id="a_node2"><a xlink:title=" ">
<polygon fill="white" stroke="#bfbfbf" points="0,-67.5 0,-86.5 99,-86.5 99,-67.5 0,-67.5"/>
<text text-anchor="middle" x="49.5" y="-74.5" font-family="Helvetica,sans-Serif" font-size="10.00">boost/thread.hpp</text>
</a>
</g>
</g>
<!-- Node1&#45;&gt;Node2 -->
<g id="edge1" class="edge">
<title>Node1&#45;&gt;Node2</title>
<path fill="none" stroke="midnightblue" d="M129.43,-123.45C110.64,-112.76 89.44,-100.71 73.6,-91.7"/>
<polygon fill="midnightblue" stroke="midnightblue" points="74.92,-88.43 64.5,-86.53 71.46,-94.51 74.92,-88.43"/>
</g>
<!-- Node3 -->
<g id="node3" class="node">
<title>Node3</title>
<g id="a_node3"><a xlink:title=" ">
<polygon fill="white" stroke="#bfbfbf" points="70.5,-6 70.5,-25 184.5,-25 184.5,-6 70.5,-6"/>
<text text-anchor="middle" x="127.5" y="-13" font-family="Helvetica,sans-Serif" font-size="10.00">vsomeip/export.hpp</text>
</a>
</g>
</g>
<!-- Node1&#45;&gt;Node3 -->
<g id="edge2" class="edge">
<title>Node1&#45;&gt;Node3</title>
<path fill="none" stroke="midnightblue" d="M161.46,-123.41C156.44,-112.39 150.8,-99.21 146.5,-87 140.46,-69.83 135.21,-49.74 131.78,-35.4"/>
<polygon fill="midnightblue" stroke="midnightblue" points="135.1,-34.26 129.42,-25.31 128.28,-35.84 135.1,-34.26"/>
</g>
<!-- Node4 -->
<g id="node4" class="node">
<title>Node4</title>
<g id="a_node4"><a xlink:title=" ">
<polygon fill="white" stroke="#bfbfbf" points="156,-67.5 156,-86.5 283,-86.5 283,-67.5 156,-67.5"/>
<text text-anchor="middle" x="219.5" y="-74.5" font-family="Helvetica,sans-Serif" font-size="10.00">vsomeip/message.hpp</text>
</a>
</g>
</g>
<!-- Node1&#45;&gt;Node4 -->
<g id="edge3" class="edge">
<title>Node1&#45;&gt;Node4</title>
<path fill="none" stroke="midnightblue" d="M189.85,-123.45C195.93,-114.13 202.68,-103.77 208.21,-95.3"/>
<polygon fill="midnightblue" stroke="midnightblue" points="211.29,-96.98 213.83,-86.7 205.43,-93.16 211.29,-96.98"/>
</g>
<!-- Node5 -->
<g id="node5" class="node">
<title>Node5</title>
<g id="a_node5"><a xlink:href="message__header__impl_8hpp.html" target="_top" xlink:title=" ">
<polygon fill="white" stroke="black" points="301.5,-67.5 301.5,-86.5 449.5,-86.5 449.5,-67.5 301.5,-67.5"/>
<text text-anchor="middle" x="375.5" y="-74.5" font-family="Helvetica,sans-Serif" font-size="10.00">message_header_impl.hpp</text>
</a>
</g>
</g>
<!-- Node1&#45;&gt;Node5 -->
<g id="edge4" class="edge">
<title>Node1&#45;&gt;Node5</title>
<path fill="none" stroke="midnightblue" d="M245.29,-123.45C278.07,-112.01 315.34,-99 341.58,-89.84"/>
<polygon fill="midnightblue" stroke="midnightblue" points="342.78,-93.13 351.07,-86.53 340.47,-86.52 342.78,-93.13"/>
</g>
<!-- Node5&#45;&gt;Node3 -->
<g id="edge5" class="edge">
<title>Node5&#45;&gt;Node3</title>
<path fill="none" stroke="midnightblue" d="M339.97,-67.48C295.95,-56.92 220.91,-38.91 172.8,-27.37"/>
<polygon fill="midnightblue" stroke="midnightblue" points="173.51,-23.94 162.97,-25.01 171.87,-30.75 173.51,-23.94"/>
</g>
<!-- Node6 -->
<g id="node6" class="node">
<title>Node6</title>
<g id="a_node6"><a xlink:title=" ">
<polygon fill="white" stroke="#bfbfbf" points="203,-6 203,-25 362,-25 362,-6 203,-6"/>
<text text-anchor="middle" x="282.5" y="-13" font-family="Helvetica,sans-Serif" font-size="10.00">vsomeip/primitive_types.hpp</text>
</a>
</g>
</g>
<!-- Node5&#45;&gt;Node6 -->
<g id="edge6" class="edge">
<title>Node5&#45;&gt;Node6</title>
<path fill="none" stroke="midnightblue" d="M362.18,-67.48C347.12,-57.84 322.38,-42.02 304.46,-30.55"/>
<polygon fill="midnightblue" stroke="midnightblue" points="306.11,-27.45 295.8,-25.01 302.34,-33.35 306.11,-27.45"/>
</g>
<!-- Node7 -->
<g id="node7" class="node">
<title>Node7</title>
<g id="a_node7"><a xlink:title=" ">
<polygon fill="white" stroke="#bfbfbf" points="379.5,-0.5 379.5,-30.5 503.5,-30.5 503.5,-0.5 379.5,-0.5"/>
<text text-anchor="start" x="387.5" y="-18.5" font-family="Helvetica,sans-Serif" font-size="10.00">vsomeip/enumeration</text>
<text text-anchor="middle" x="441.5" y="-7.5" font-family="Helvetica,sans-Serif" font-size="10.00">_types.hpp</text>
</a>
</g>
</g>
<!-- Node5&#45;&gt;Node7 -->
<g id="edge7" class="edge">
<title>Node5&#45;&gt;Node7</title>
<path fill="none" stroke="midnightblue" d="M384.96,-67.48C393.64,-59.64 406.88,-47.71 418.36,-37.37"/>
<polygon fill="midnightblue" stroke="midnightblue" points="420.86,-39.82 425.95,-30.52 416.17,-34.62 420.86,-39.82"/>
</g>
<!-- Node8 -->
<g id="node8" class="node">
<title>Node8</title>
<g id="a_node8"><a xlink:title=" ">
<polygon fill="white" stroke="#bfbfbf" points="522,-6 522,-25 701,-25 701,-6 522,-6"/>
<text text-anchor="middle" x="611.5" y="-13" font-family="Helvetica,sans-Serif" font-size="10.00">vsomeip/internal/serializable.hpp</text>
</a>
</g>
</g>
<!-- Node5&#45;&gt;Node8 -->
<g id="edge8" class="edge">
<title>Node5&#45;&gt;Node8</title>
<path fill="none" stroke="midnightblue" d="M409.31,-67.48C451.02,-56.96 522.01,-39.06 567.81,-27.51"/>
<polygon fill="midnightblue" stroke="midnightblue" points="568.91,-30.85 577.75,-25.01 567.2,-24.06 568.91,-30.85"/>
</g>
</g>
</svg>
