<?xml version="1.0" encoding="UTF-8" standalone="no"?>
<!DOCTYPE svg PUBLIC "-//W3C//DTD SVG 1.1//EN"
 "http://www.w3.org/Graphics/SVG/1.1/DTD/svg11.dtd">
<!-- Generated by graphviz version 2.43.0 (0)
 -->
<!-- Title: /home/kali/projects/vsomeip/implementation/message/include/message_base_impl.hpp Pages: 1 -->
<svg width="2402pt" height="328pt"
 viewBox="0.00 0.00 2402.00 328.00" xmlns="http://www.w3.org/2000/svg" xmlns:xlink="http://www.w3.org/1999/xlink">
<g id="graph0" class="graph" transform="scale(1 1) rotate(0) translate(4 324)">
<title>/home/kali/projects/vsomeip/implementation/message/include/message_base_impl.hpp</title>
<polygon fill="white" stroke="transparent" points="-4,4 -4,-324 2398,-324 2398,4 -4,4"/>
<!-- Node1 -->
<g id="node1" class="node">
<title>Node1</title>
<g id="a_node1"><a xlink:title=" ">
<polygon fill="#bfbfbf" stroke="black" points="1220.5,-267.5 1220.5,-319.5 1369.5,-319.5 1369.5,-267.5 1220.5,-267.5"/>
<text text-anchor="start" x="1228.5" y="-307.5" font-family="Helvetica,sans-Serif" font-size="10.00">/home/kali/projects</text>
<text text-anchor="start" x="1228.5" y="-296.5" font-family="Helvetica,sans-Serif" font-size="10.00">/vsomeip/implementation</text>
<text text-anchor="start" x="1228.5" y="-285.5" font-family="Helvetica,sans-Serif" font-size="10.00">/message/include/message</text>
<text text-anchor="middle" x="1295" y="-274.5" font-family="Helvetica,sans-Serif" font-size="10.00">_base_impl.hpp</text>
</a>
</g>
</g>
<!-- Node2 -->
<g id="node2" class="node">
<title>Node2</title>
<g id="a_node2"><a xlink:href="message_2include_2message__impl_8hpp.html" target="_top" xlink:title=" ">
<polygon fill="white" stroke="black" points="740.5,-178.5 740.5,-230.5 889.5,-230.5 889.5,-178.5 740.5,-178.5"/>
<text text-anchor="start" x="748.5" y="-218.5" font-family="Helvetica,sans-Serif" font-size="10.00">/home/kali/projects</text>
<text text-anchor="start" x="748.5" y="-207.5" font-family="Helvetica,sans-Serif" font-size="10.00">/vsomeip/implementation</text>
<text text-anchor="start" x="748.5" y="-196.5" font-family="Helvetica,sans-Serif" font-size="10.00">/message/include/message</text>
<text text-anchor="middle" x="815" y="-185.5" font-family="Helvetica,sans-Serif" font-size="10.00">_impl.hpp</text>
</a>
</g>
</g>
<!-- Node1&#45;&gt;Node2 -->
<g id="edge1" class="edge">
<title>Node1&#45;&gt;Node2</title>
<path fill="none" stroke="midnightblue" d="M1210.26,-277.14C1119.35,-260.66 976.35,-234.74 889.56,-219.01"/>
<polygon fill="midnightblue" stroke="midnightblue" points="1209.8,-280.61 1220.26,-278.95 1211.05,-273.73 1209.8,-280.61"/>
</g>
<!-- Node11 -->
<g id="node11" class="node">
<title>Node11</title>
<g id="a_node11"><a xlink:href="message__header__impl_8cpp.html" target="_top" xlink:title=" ">
<polygon fill="white" stroke="black" points="1211.5,-178.5 1211.5,-230.5 1378.5,-230.5 1378.5,-178.5 1211.5,-178.5"/>
<text text-anchor="start" x="1219.5" y="-218.5" font-family="Helvetica,sans-Serif" font-size="10.00">/home/kali/projects</text>
<text text-anchor="start" x="1219.5" y="-207.5" font-family="Helvetica,sans-Serif" font-size="10.00">/vsomeip/implementation</text>
<text text-anchor="start" x="1219.5" y="-196.5" font-family="Helvetica,sans-Serif" font-size="10.00">/message/src/message_header</text>
<text text-anchor="middle" x="1295" y="-185.5" font-family="Helvetica,sans-Serif" font-size="10.00">_impl.cpp</text>
</a>
</g>
</g>
<!-- Node1&#45;&gt;Node11 -->
<g id="edge10" class="edge">
<title>Node1&#45;&gt;Node11</title>
<path fill="none" stroke="midnightblue" d="M1295,-257.19C1295,-248.28 1295,-238.9 1295,-230.61"/>
<polygon fill="midnightblue" stroke="midnightblue" points="1291.5,-257.34 1295,-267.34 1298.5,-257.34 1291.5,-257.34"/>
</g>
<!-- Node12 -->
<g id="node12" class="node">
<title>Node12</title>
<g id="a_node12"><a xlink:href="service__discovery_2include_2message__impl_8hpp.html" target="_top" xlink:title=" ">
<polygon fill="white" stroke="black" points="1702,-178.5 1702,-230.5 1848,-230.5 1848,-178.5 1702,-178.5"/>
<text text-anchor="start" x="1710" y="-218.5" font-family="Helvetica,sans-Serif" font-size="10.00">/home/kali/projects</text>
<text text-anchor="start" x="1710" y="-207.5" font-family="Helvetica,sans-Serif" font-size="10.00">/vsomeip/implementation</text>
<text text-anchor="start" x="1710" y="-196.5" font-family="Helvetica,sans-Serif" font-size="10.00">/service_discovery/include</text>
<text text-anchor="middle" x="1775" y="-185.5" font-family="Helvetica,sans-Serif" font-size="10.00">/message_impl.hpp</text>
</a>
</g>
</g>
<!-- Node1&#45;&gt;Node12 -->
<g id="edge11" class="edge">
<title>Node1&#45;&gt;Node12</title>
<path fill="none" stroke="midnightblue" d="M1379.78,-277.13C1471.11,-260.58 1614.97,-234.51 1701.62,-218.8"/>
<polygon fill="midnightblue" stroke="midnightblue" points="1378.95,-273.73 1369.74,-278.95 1380.2,-280.61 1378.95,-273.73"/>
</g>
<!-- Node3 -->
<g id="node3" class="node">
<title>Node3</title>
<g id="a_node3"><a xlink:href="compat_2message_2src_2message__base__impl_8cpp.html" target="_top" xlink:title=" ">
<polygon fill="white" stroke="black" points="0,-89.5 0,-141.5 168,-141.5 168,-89.5 0,-89.5"/>
<text text-anchor="start" x="8" y="-129.5" font-family="Helvetica,sans-Serif" font-size="10.00">/home/kali/projects</text>
<text text-anchor="start" x="8" y="-118.5" font-family="Helvetica,sans-Serif" font-size="10.00">/vsomeip/implementation</text>
<text text-anchor="start" x="8" y="-107.5" font-family="Helvetica,sans-Serif" font-size="10.00">/compat/message/src/message</text>
<text text-anchor="middle" x="84" y="-96.5" font-family="Helvetica,sans-Serif" font-size="10.00">_base_impl.cpp</text>
</a>
</g>
</g>
<!-- Node2&#45;&gt;Node3 -->
<g id="edge2" class="edge">
<title>Node2&#45;&gt;Node3</title>
<path fill="none" stroke="midnightblue" d="M730.17,-199.95C607.32,-193.78 373.13,-178.07 177,-142 174.04,-141.45 171.03,-140.86 168,-140.23"/>
<polygon fill="midnightblue" stroke="midnightblue" points="730.1,-203.46 740.26,-200.45 730.45,-196.46 730.1,-203.46"/>
</g>
<!-- Node4 -->
<g id="node4" class="node">
<title>Node4</title>
<g id="a_node4"><a xlink:href="compat_2message_2src_2message__impl_8cpp.html" target="_top" xlink:title=" ">
<polygon fill="white" stroke="black" points="186,-89.5 186,-141.5 354,-141.5 354,-89.5 186,-89.5"/>
<text text-anchor="start" x="194" y="-129.5" font-family="Helvetica,sans-Serif" font-size="10.00">/home/kali/projects</text>
<text text-anchor="start" x="194" y="-118.5" font-family="Helvetica,sans-Serif" font-size="10.00">/vsomeip/implementation</text>
<text text-anchor="start" x="194" y="-107.5" font-family="Helvetica,sans-Serif" font-size="10.00">/compat/message/src/message</text>
<text text-anchor="middle" x="270" y="-96.5" font-family="Helvetica,sans-Serif" font-size="10.00">_impl.cpp</text>
</a>
</g>
</g>
<!-- Node2&#45;&gt;Node4 -->
<g id="edge3" class="edge">
<title>Node2&#45;&gt;Node4</title>
<path fill="none" stroke="midnightblue" d="M730.09,-195.34C638.83,-185.78 489.77,-167.89 363,-142 360.05,-141.4 357.05,-140.75 354.03,-140.08"/>
<polygon fill="midnightblue" stroke="midnightblue" points="729.8,-198.83 740.11,-196.38 730.52,-191.86 729.8,-198.83"/>
</g>
<!-- Node5 -->
<g id="node5" class="node">
<title>Node5</title>
<g id="a_node5"><a xlink:href="message_2src_2deserializer_8cpp.html" target="_top" xlink:title=" ">
<polygon fill="white" stroke="black" points="372.5,-95 372.5,-136 533.5,-136 533.5,-95 372.5,-95"/>
<text text-anchor="start" x="380.5" y="-124" font-family="Helvetica,sans-Serif" font-size="10.00">/home/kali/projects</text>
<text text-anchor="start" x="380.5" y="-113" font-family="Helvetica,sans-Serif" font-size="10.00">/vsomeip/implementation</text>
<text text-anchor="middle" x="453" y="-102" font-family="Helvetica,sans-Serif" font-size="10.00">/message/src/deserializer.cpp</text>
</a>
</g>
</g>
<!-- Node2&#45;&gt;Node5 -->
<g id="edge4" class="edge">
<title>Node2&#45;&gt;Node5</title>
<path fill="none" stroke="midnightblue" d="M730.39,-185.75C676.32,-174.09 604.81,-158.06 542,-142 534.84,-140.17 527.37,-138.17 519.95,-136.13"/>
<polygon fill="midnightblue" stroke="midnightblue" points="729.76,-189.2 740.28,-187.88 731.24,-182.35 729.76,-189.2"/>
</g>
<!-- Node6 -->
<g id="node6" class="node">
<title>Node6</title>
<g id="a_node6"><a xlink:href="message_2src_2message__base__impl_8cpp.html" target="_top" xlink:title=" ">
<polygon fill="white" stroke="black" points="551.5,-89.5 551.5,-141.5 708.5,-141.5 708.5,-89.5 551.5,-89.5"/>
<text text-anchor="start" x="559.5" y="-129.5" font-family="Helvetica,sans-Serif" font-size="10.00">/home/kali/projects</text>
<text text-anchor="start" x="559.5" y="-118.5" font-family="Helvetica,sans-Serif" font-size="10.00">/vsomeip/implementation</text>
<text text-anchor="start" x="559.5" y="-107.5" font-family="Helvetica,sans-Serif" font-size="10.00">/message/src/message_base</text>
<text text-anchor="middle" x="630" y="-96.5" font-family="Helvetica,sans-Serif" font-size="10.00">_impl.cpp</text>
</a>
</g>
</g>
<!-- Node2&#45;&gt;Node6 -->
<g id="edge5" class="edge">
<title>Node2&#45;&gt;Node6</title>
<path fill="none" stroke="midnightblue" d="M752.39,-174.06C729.98,-163.52 704.95,-151.75 683.39,-141.61"/>
<polygon fill="midnightblue" stroke="midnightblue" points="750.95,-177.25 761.49,-178.34 753.93,-170.91 750.95,-177.25"/>
</g>
<!-- Node7 -->
<g id="node7" class="node">
<title>Node7</title>
<g id="a_node7"><a xlink:href="message_2src_2message__impl_8cpp.html" target="_top" xlink:title=" ">
<polygon fill="white" stroke="black" points="727,-95 727,-136 903,-136 903,-95 727,-95"/>
<text text-anchor="start" x="735" y="-124" font-family="Helvetica,sans-Serif" font-size="10.00">/home/kali/projects</text>
<text text-anchor="start" x="735" y="-113" font-family="Helvetica,sans-Serif" font-size="10.00">/vsomeip/implementation</text>
<text text-anchor="middle" x="815" y="-102" font-family="Helvetica,sans-Serif" font-size="10.00">/message/src/message_impl.cpp</text>
</a>
</g>
</g>
<!-- Node2&#45;&gt;Node7 -->
<g id="edge6" class="edge">
<title>Node2&#45;&gt;Node7</title>
<path fill="none" stroke="midnightblue" d="M815,-168.16C815,-157.21 815,-145.55 815,-136.08"/>
<polygon fill="midnightblue" stroke="midnightblue" points="811.5,-168.34 815,-178.34 818.5,-168.34 811.5,-168.34"/>
</g>
<!-- Node8 -->
<g id="node8" class="node">
<title>Node8</title>
<g id="a_node8"><a xlink:href="routing__manager__impl_8cpp.html" target="_top" xlink:title=" ">
<polygon fill="white" stroke="black" points="921,-89.5 921,-141.5 1079,-141.5 1079,-89.5 921,-89.5"/>
<text text-anchor="start" x="929" y="-129.5" font-family="Helvetica,sans-Serif" font-size="10.00">/home/kali/projects</text>
<text text-anchor="start" x="929" y="-118.5" font-family="Helvetica,sans-Serif" font-size="10.00">/vsomeip/implementation</text>
<text text-anchor="start" x="929" y="-107.5" font-family="Helvetica,sans-Serif" font-size="10.00">/routing/src/routing_manager</text>
<text text-anchor="middle" x="1000" y="-96.5" font-family="Helvetica,sans-Serif" font-size="10.00">_impl.cpp</text>
</a>
</g>
</g>
<!-- Node2&#45;&gt;Node8 -->
<g id="edge7" class="edge">
<title>Node2&#45;&gt;Node8</title>
<path fill="none" stroke="midnightblue" d="M877.61,-174.06C900.02,-163.52 925.05,-151.75 946.61,-141.61"/>
<polygon fill="midnightblue" stroke="midnightblue" points="876.07,-170.91 868.51,-178.34 879.05,-177.25 876.07,-170.91"/>
</g>
<!-- Node9 -->
<g id="node9" class="node">
<title>Node9</title>
<g id="a_node9"><a xlink:href="routing__manager__proxy_8cpp.html" target="_top" xlink:title=" ">
<polygon fill="white" stroke="black" points="1097,-89.5 1097,-141.5 1255,-141.5 1255,-89.5 1097,-89.5"/>
<text text-anchor="start" x="1105" y="-129.5" font-family="Helvetica,sans-Serif" font-size="10.00">/home/kali/projects</text>
<text text-anchor="start" x="1105" y="-118.5" font-family="Helvetica,sans-Serif" font-size="10.00">/vsomeip/implementation</text>
<text text-anchor="start" x="1105" y="-107.5" font-family="Helvetica,sans-Serif" font-size="10.00">/routing/src/routing_manager</text>
<text text-anchor="middle" x="1176" y="-96.5" font-family="Helvetica,sans-Serif" font-size="10.00">_proxy.cpp</text>
</a>
</g>
</g>
<!-- Node2&#45;&gt;Node9 -->
<g id="edge8" class="edge">
<title>Node2&#45;&gt;Node9</title>
<path fill="none" stroke="midnightblue" d="M899.63,-185.82C953.7,-174.18 1025.21,-158.15 1088,-142 1090.93,-141.25 1093.9,-140.47 1096.91,-139.66"/>
<polygon fill="midnightblue" stroke="midnightblue" points="898.78,-182.42 889.74,-187.94 900.25,-189.26 898.78,-182.42"/>
</g>
<!-- Node10 -->
<g id="node10" class="node">
<title>Node10</title>
<g id="a_node10"><a xlink:href="runtime_2src_2runtime__impl_8cpp.html" target="_top" xlink:title=" ">
<polygon fill="white" stroke="black" points="1273,-95 1273,-136 1437,-136 1437,-95 1273,-95"/>
<text text-anchor="start" x="1281" y="-124" font-family="Helvetica,sans-Serif" font-size="10.00">/home/kali/projects</text>
<text text-anchor="start" x="1281" y="-113" font-family="Helvetica,sans-Serif" font-size="10.00">/vsomeip/implementation</text>
<text text-anchor="middle" x="1355" y="-102" font-family="Helvetica,sans-Serif" font-size="10.00">/runtime/src/runtime_impl.cpp</text>
</a>
</g>
</g>
<!-- Node2&#45;&gt;Node10 -->
<g id="edge9" class="edge">
<title>Node2&#45;&gt;Node10</title>
<path fill="none" stroke="midnightblue" d="M899.77,-195.39C990.49,-185.9 1138.33,-168.09 1264,-142 1272.19,-140.3 1280.73,-138.26 1289.16,-136.1"/>
<polygon fill="midnightblue" stroke="midnightblue" points="899.4,-191.91 889.82,-196.42 900.12,-198.87 899.4,-191.91"/>
</g>
<!-- Node13 -->
<g id="node13" class="node">
<title>Node13</title>
<g id="a_node13"><a xlink:href="eventgroupentry__impl_8hpp.html" target="_top" xlink:title=" ">
<polygon fill="white" stroke="black" points="1492.5,-89.5 1492.5,-141.5 1641.5,-141.5 1641.5,-89.5 1492.5,-89.5"/>
<text text-anchor="start" x="1500.5" y="-129.5" font-family="Helvetica,sans-Serif" font-size="10.00">/home/kali/projects</text>
<text text-anchor="start" x="1500.5" y="-118.5" font-family="Helvetica,sans-Serif" font-size="10.00">/vsomeip/implementation</text>
<text text-anchor="start" x="1500.5" y="-107.5" font-family="Helvetica,sans-Serif" font-size="10.00">/service_discovery/include</text>
<text text-anchor="middle" x="1567" y="-96.5" font-family="Helvetica,sans-Serif" font-size="10.00">/eventgroupentry_impl.hpp</text>
</a>
</g>
</g>
<!-- Node12&#45;&gt;Node13 -->
<g id="edge12" class="edge">
<title>Node12&#45;&gt;Node13</title>
<path fill="none" stroke="midnightblue" d="M1705.85,-174.58C1680.27,-163.88 1651.5,-151.85 1626.82,-141.52"/>
<polygon fill="midnightblue" stroke="midnightblue" points="1704.54,-177.82 1715.12,-178.45 1707.24,-171.36 1704.54,-177.82"/>
</g>
<!-- Node15 -->
<g id="node15" class="node">
<title>Node15</title>
<g id="a_node15"><a xlink:href="service__discovery_2src_2message__impl_8cpp.html" target="_top" xlink:title=" ">
<polygon fill="white" stroke="black" points="1319.5,-0.5 1319.5,-52.5 1462.5,-52.5 1462.5,-0.5 1319.5,-0.5"/>
<text text-anchor="start" x="1327.5" y="-40.5" font-family="Helvetica,sans-Serif" font-size="10.00">/home/kali/projects</text>
<text text-anchor="start" x="1327.5" y="-29.5" font-family="Helvetica,sans-Serif" font-size="10.00">/vsomeip/implementation</text>
<text text-anchor="start" x="1327.5" y="-18.5" font-family="Helvetica,sans-Serif" font-size="10.00">/service_discovery/src</text>
<text text-anchor="middle" x="1391" y="-7.5" font-family="Helvetica,sans-Serif" font-size="10.00">/message_impl.cpp</text>
</a>
</g>
</g>
<!-- Node12&#45;&gt;Node15 -->
<g id="edge21" class="edge">
<title>Node12&#45;&gt;Node15</title>
<path fill="none" stroke="midnightblue" d="M1691.63,-202.1C1629.54,-197.42 1545.11,-183.09 1483,-142 1459.04,-126.15 1463.83,-111.53 1446,-89 1436.22,-76.65 1424.69,-63.55 1414.72,-52.64"/>
<polygon fill="midnightblue" stroke="midnightblue" points="1691.57,-205.6 1701.79,-202.79 1692.05,-198.62 1691.57,-205.6"/>
</g>
<!-- Node16 -->
<g id="node16" class="node">
<title>Node16</title>
<g id="a_node16"><a xlink:href="service__discovery__impl_8cpp.html" target="_top" xlink:title=" ">
<polygon fill="white" stroke="black" points="1647.5,-0.5 1647.5,-52.5 1802.5,-52.5 1802.5,-0.5 1647.5,-0.5"/>
<text text-anchor="start" x="1655.5" y="-40.5" font-family="Helvetica,sans-Serif" font-size="10.00">/home/kali/projects</text>
<text text-anchor="start" x="1655.5" y="-29.5" font-family="Helvetica,sans-Serif" font-size="10.00">/vsomeip/implementation</text>
<text text-anchor="start" x="1655.5" y="-18.5" font-family="Helvetica,sans-Serif" font-size="10.00">/service_discovery/src</text>
<text text-anchor="middle" x="1725" y="-7.5" font-family="Helvetica,sans-Serif" font-size="10.00">/service_discovery_impl.cpp</text>
</a>
</g>
</g>
<!-- Node12&#45;&gt;Node16 -->
<g id="edge24" class="edge">
<title>Node12&#45;&gt;Node16</title>
<path fill="none" stroke="midnightblue" d="M1714.49,-172.37C1703.82,-164.01 1694.17,-153.91 1688,-142 1672.92,-112.87 1690.25,-76.41 1705.91,-52.56"/>
<polygon fill="midnightblue" stroke="midnightblue" points="1712.66,-175.36 1722.81,-178.42 1716.78,-169.7 1712.66,-175.36"/>
</g>
<!-- Node17 -->
<g id="node17" class="node">
<title>Node17</title>
<g id="a_node17"><a xlink:href="service__discovery__impl_8hpp.html" target="_top" xlink:title=" ">
<polygon fill="white" stroke="black" points="1697.5,-89.5 1697.5,-141.5 1852.5,-141.5 1852.5,-89.5 1697.5,-89.5"/>
<text text-anchor="start" x="1705.5" y="-129.5" font-family="Helvetica,sans-Serif" font-size="10.00">/home/kali/projects</text>
<text text-anchor="start" x="1705.5" y="-118.5" font-family="Helvetica,sans-Serif" font-size="10.00">/vsomeip/implementation</text>
<text text-anchor="start" x="1705.5" y="-107.5" font-family="Helvetica,sans-Serif" font-size="10.00">/service_discovery/include</text>
<text text-anchor="middle" x="1775" y="-96.5" font-family="Helvetica,sans-Serif" font-size="10.00">/service_discovery_impl.hpp</text>
</a>
</g>
</g>
<!-- Node12&#45;&gt;Node17 -->
<g id="edge16" class="edge">
<title>Node12&#45;&gt;Node17</title>
<path fill="none" stroke="midnightblue" d="M1775,-168.19C1775,-159.28 1775,-149.9 1775,-141.61"/>
<polygon fill="midnightblue" stroke="midnightblue" points="1771.5,-168.34 1775,-178.34 1778.5,-168.34 1771.5,-168.34"/>
</g>
<!-- Node18 -->
<g id="node18" class="node">
<title>Node18</title>
<g id="a_node18"><a xlink:href="service__discovery_2src_2runtime__impl_8cpp.html" target="_top" xlink:title=" ">
<polygon fill="white" stroke="black" points="1820.5,-0.5 1820.5,-52.5 1963.5,-52.5 1963.5,-0.5 1820.5,-0.5"/>
<text text-anchor="start" x="1828.5" y="-40.5" font-family="Helvetica,sans-Serif" font-size="10.00">/home/kali/projects</text>
<text text-anchor="start" x="1828.5" y="-29.5" font-family="Helvetica,sans-Serif" font-size="10.00">/vsomeip/implementation</text>
<text text-anchor="start" x="1828.5" y="-18.5" font-family="Helvetica,sans-Serif" font-size="10.00">/service_discovery/src</text>
<text text-anchor="middle" x="1892" y="-7.5" font-family="Helvetica,sans-Serif" font-size="10.00">/runtime_impl.cpp</text>
</a>
</g>
</g>
<!-- Node12&#45;&gt;Node18 -->
<g id="edge23" class="edge">
<title>Node12&#45;&gt;Node18</title>
<path fill="none" stroke="midnightblue" d="M1831.48,-172.33C1842.95,-163.79 1853.95,-153.62 1862,-142 1880.61,-115.14 1887.67,-77.48 1890.36,-52.79"/>
<polygon fill="midnightblue" stroke="midnightblue" points="1829.23,-169.63 1823.08,-178.26 1833.26,-175.35 1829.23,-169.63"/>
</g>
<!-- Node19 -->
<g id="node19" class="node">
<title>Node19</title>
<g id="a_node19"><a xlink:href="service__discovery_2src_2deserializer_8cpp.html" target="_top" xlink:title=" ">
<polygon fill="white" stroke="black" points="1909.5,-89.5 1909.5,-141.5 2052.5,-141.5 2052.5,-89.5 1909.5,-89.5"/>
<text text-anchor="start" x="1917.5" y="-129.5" font-family="Helvetica,sans-Serif" font-size="10.00">/home/kali/projects</text>
<text text-anchor="start" x="1917.5" y="-118.5" font-family="Helvetica,sans-Serif" font-size="10.00">/vsomeip/implementation</text>
<text text-anchor="start" x="1917.5" y="-107.5" font-family="Helvetica,sans-Serif" font-size="10.00">/service_discovery/src</text>
<text text-anchor="middle" x="1981" y="-96.5" font-family="Helvetica,sans-Serif" font-size="10.00">/deserializer.cpp</text>
</a>
</g>
</g>
<!-- Node12&#45;&gt;Node19 -->
<g id="edge19" class="edge">
<title>Node12&#45;&gt;Node19</title>
<path fill="none" stroke="midnightblue" d="M1843.82,-174.44C1869.07,-163.77 1897.42,-151.8 1921.75,-141.52"/>
<polygon fill="midnightblue" stroke="midnightblue" points="1842.16,-171.34 1834.31,-178.45 1844.88,-177.79 1842.16,-171.34"/>
</g>
<!-- Node20 -->
<g id="node20" class="node">
<title>Node20</title>
<g id="a_node20"><a xlink:href="entry__impl_8cpp.html" target="_top" xlink:title=" ">
<polygon fill="white" stroke="black" points="2070.5,-89.5 2070.5,-141.5 2213.5,-141.5 2213.5,-89.5 2070.5,-89.5"/>
<text text-anchor="start" x="2078.5" y="-129.5" font-family="Helvetica,sans-Serif" font-size="10.00">/home/kali/projects</text>
<text text-anchor="start" x="2078.5" y="-118.5" font-family="Helvetica,sans-Serif" font-size="10.00">/vsomeip/implementation</text>
<text text-anchor="start" x="2078.5" y="-107.5" font-family="Helvetica,sans-Serif" font-size="10.00">/service_discovery/src</text>
<text text-anchor="middle" x="2142" y="-96.5" font-family="Helvetica,sans-Serif" font-size="10.00">/entry_impl.cpp</text>
</a>
</g>
</g>
<!-- Node12&#45;&gt;Node20 -->
<g id="edge20" class="edge">
<title>Node12&#45;&gt;Node20</title>
<path fill="none" stroke="midnightblue" d="M1858.15,-187.91C1915.72,-176.57 1993.94,-160.09 2062,-142 2064.68,-141.29 2067.4,-140.54 2070.14,-139.77"/>
<polygon fill="midnightblue" stroke="midnightblue" points="1857.15,-184.54 1848.01,-189.9 1858.49,-191.41 1857.15,-184.54"/>
</g>
<!-- Node21 -->
<g id="node21" class="node">
<title>Node21</title>
<g id="a_node21"><a xlink:href="remote__subscription__ack_8cpp.html" target="_top" xlink:title=" ">
<polygon fill="white" stroke="black" points="2232,-89.5 2232,-141.5 2394,-141.5 2394,-89.5 2232,-89.5"/>
<text text-anchor="start" x="2240" y="-129.5" font-family="Helvetica,sans-Serif" font-size="10.00">/home/kali/projects</text>
<text text-anchor="start" x="2240" y="-118.5" font-family="Helvetica,sans-Serif" font-size="10.00">/vsomeip/implementation</text>
<text text-anchor="start" x="2240" y="-107.5" font-family="Helvetica,sans-Serif" font-size="10.00">/service_discovery/src</text>
<text text-anchor="middle" x="2313" y="-96.5" font-family="Helvetica,sans-Serif" font-size="10.00">/remote_subscription_ack.cpp</text>
</a>
</g>
</g>
<!-- Node12&#45;&gt;Node21 -->
<g id="edge22" class="edge">
<title>Node12&#45;&gt;Node21</title>
<path fill="none" stroke="midnightblue" d="M1858.28,-195.59C1948.68,-186.18 2097.03,-168.36 2223,-142 2225.86,-141.4 2228.77,-140.76 2231.69,-140.09"/>
<polygon fill="midnightblue" stroke="midnightblue" points="1857.67,-192.13 1848.09,-196.64 1858.39,-199.09 1857.67,-192.13"/>
</g>
<!-- Node14 -->
<g id="node14" class="node">
<title>Node14</title>
<g id="a_node14"><a xlink:href="eventgroupentry__impl_8cpp.html" target="_top" xlink:title=" ">
<polygon fill="white" stroke="black" points="1481,-0.5 1481,-52.5 1629,-52.5 1629,-0.5 1481,-0.5"/>
<text text-anchor="start" x="1489" y="-40.5" font-family="Helvetica,sans-Serif" font-size="10.00">/home/kali/projects</text>
<text text-anchor="start" x="1489" y="-29.5" font-family="Helvetica,sans-Serif" font-size="10.00">/vsomeip/implementation</text>
<text text-anchor="start" x="1489" y="-18.5" font-family="Helvetica,sans-Serif" font-size="10.00">/service_discovery/src</text>
<text text-anchor="middle" x="1555" y="-7.5" font-family="Helvetica,sans-Serif" font-size="10.00">/eventgroupentry_impl.cpp</text>
</a>
</g>
</g>
<!-- Node13&#45;&gt;Node14 -->
<g id="edge13" class="edge">
<title>Node13&#45;&gt;Node14</title>
<path fill="none" stroke="midnightblue" d="M1562.13,-79.19C1560.9,-70.28 1559.61,-60.9 1558.46,-52.61"/>
<polygon fill="midnightblue" stroke="midnightblue" points="1558.7,-79.91 1563.53,-89.34 1565.63,-78.95 1558.7,-79.91"/>
</g>
<!-- Node13&#45;&gt;Node15 -->
<g id="edge14" class="edge">
<title>Node13&#45;&gt;Node15</title>
<path fill="none" stroke="midnightblue" d="M1506.87,-84.78C1485.69,-74.31 1462.12,-62.66 1441.79,-52.61"/>
<polygon fill="midnightblue" stroke="midnightblue" points="1505.58,-88.04 1516.09,-89.34 1508.68,-81.77 1505.58,-88.04"/>
</g>
<!-- Node13&#45;&gt;Node16 -->
<g id="edge15" class="edge">
<title>Node13&#45;&gt;Node16</title>
<path fill="none" stroke="midnightblue" d="M1621.49,-84.49C1640.37,-74.1 1661.32,-62.57 1679.4,-52.61"/>
<polygon fill="midnightblue" stroke="midnightblue" points="1619.77,-81.45 1612.7,-89.34 1623.15,-87.58 1619.77,-81.45"/>
</g>
<!-- Node17&#45;&gt;Node16 -->
<g id="edge18" class="edge">
<title>Node17&#45;&gt;Node16</title>
<path fill="none" stroke="midnightblue" d="M1755.54,-80.64C1750.18,-71.31 1744.45,-61.35 1739.43,-52.61"/>
<polygon fill="midnightblue" stroke="midnightblue" points="1752.52,-82.41 1760.54,-89.34 1758.59,-78.92 1752.52,-82.41"/>
</g>
<!-- Node17&#45;&gt;Node18 -->
<g id="edge17" class="edge">
<title>Node17&#45;&gt;Node18</title>
<path fill="none" stroke="midnightblue" d="M1817.07,-83.22C1830.59,-73.16 1845.39,-62.16 1858.23,-52.61"/>
<polygon fill="midnightblue" stroke="midnightblue" points="1814.78,-80.56 1808.84,-89.34 1818.95,-86.18 1814.78,-80.56"/>
</g>
</g>
</svg>
