<?xml version="1.0" encoding="UTF-8" standalone="no"?>
<!DOCTYPE svg PUBLIC "-//W3C//DTD SVG 1.1//EN"
 "http://www.w3.org/Graphics/SVG/1.1/DTD/svg11.dtd">
<!-- Generated by graphviz version 2.43.0 (0)
 -->
<!-- Title: /home/kali/projects/vsomeip/implementation/logger/src/message.cpp Pages: 1 -->
<svg width="1888pt" height="374pt"
 viewBox="0.00 0.00 1888.07 374.00" xmlns="http://www.w3.org/2000/svg" xmlns:xlink="http://www.w3.org/1999/xlink">
<g id="graph0" class="graph" transform="scale(1 1) rotate(0) translate(4 370)">
<title>/home/kali/projects/vsomeip/implementation/logger/src/message.cpp</title>
<polygon fill="white" stroke="transparent" points="-4,4 -4,-370 1884.07,-370 1884.07,4 -4,4"/>
<!-- Node1 -->
<g id="node1" class="node">
<title>Node1</title>
<g id="a_node1"><a xlink:title=" ">
<polygon fill="#bfbfbf" stroke="black" points="887.5,-324.5 887.5,-365.5 1030.5,-365.5 1030.5,-324.5 887.5,-324.5"/>
<text text-anchor="start" x="895.5" y="-353.5" font-family="Helvetica,sans-Serif" font-size="10.00">/home/kali/projects</text>
<text text-anchor="start" x="895.5" y="-342.5" font-family="Helvetica,sans-Serif" font-size="10.00">/vsomeip/implementation</text>
<text text-anchor="middle" x="959" y="-331.5" font-family="Helvetica,sans-Serif" font-size="10.00">/logger/src/message.cpp</text>
</a>
</g>
</g>
<!-- Node2 -->
<g id="node2" class="node">
<title>Node2</title>
<g id="a_node2"><a xlink:title=" ">
<polygon fill="white" stroke="#bfbfbf" points="0,-62 0,-81 50,-81 50,-62 0,-62"/>
<text text-anchor="middle" x="25" y="-69" font-family="Helvetica,sans-Serif" font-size="10.00">chrono</text>
</a>
</g>
</g>
<!-- Node1&#45;&gt;Node2 -->
<g id="edge1" class="edge">
<title>Node1&#45;&gt;Node2</title>
<path fill="none" stroke="midnightblue" d="M887.26,-343.47C729.32,-341.5 356.26,-332.15 239,-288 146,-252.98 121.47,-232.08 60,-154 45.08,-135.04 35.31,-108.76 29.98,-91.22"/>
<polygon fill="midnightblue" stroke="midnightblue" points="33.21,-89.79 27.1,-81.12 26.47,-91.7 33.21,-89.79"/>
</g>
<!-- Node3 -->
<g id="node3" class="node">
<title>Node3</title>
<g id="a_node3"><a xlink:title=" ">
<polygon fill="white" stroke="#bfbfbf" points="993,-263 993,-282 1037,-282 1037,-263 993,-263"/>
<text text-anchor="middle" x="1015" y="-270" font-family="Helvetica,sans-Serif" font-size="10.00">ctime</text>
</a>
</g>
</g>
<!-- Node1&#45;&gt;Node3 -->
<g id="edge2" class="edge">
<title>Node1&#45;&gt;Node3</title>
<path fill="none" stroke="midnightblue" d="M974.6,-324.36C983.11,-313.65 993.54,-300.52 1001.66,-290.29"/>
<polygon fill="midnightblue" stroke="midnightblue" points="1004.63,-292.18 1008.11,-282.17 999.15,-287.83 1004.63,-292.18"/>
</g>
<!-- Node4 -->
<g id="node4" class="node">
<title>Node4</title>
<g id="a_node4"><a xlink:title=" ">
<polygon fill="white" stroke="#bfbfbf" points="1055.5,-263 1055.5,-282 1110.5,-282 1110.5,-263 1055.5,-263"/>
<text text-anchor="middle" x="1083" y="-270" font-family="Helvetica,sans-Serif" font-size="10.00">fstream</text>
</a>
</g>
</g>
<!-- Node1&#45;&gt;Node4 -->
<g id="edge3" class="edge">
<title>Node1&#45;&gt;Node4</title>
<path fill="none" stroke="midnightblue" d="M993.54,-324.36C1014.38,-312.51 1040.42,-297.71 1059.02,-287.14"/>
<polygon fill="midnightblue" stroke="midnightblue" points="1060.78,-290.16 1067.74,-282.17 1057.32,-284.07 1060.78,-290.16"/>
</g>
<!-- Node5 -->
<g id="node5" class="node">
<title>Node5</title>
<g id="a_node5"><a xlink:title=" ">
<polygon fill="white" stroke="#bfbfbf" points="1129,-263 1129,-282 1185,-282 1185,-263 1129,-263"/>
<text text-anchor="middle" x="1157" y="-270" font-family="Helvetica,sans-Serif" font-size="10.00">iomanip</text>
</a>
</g>
</g>
<!-- Node1&#45;&gt;Node5 -->
<g id="edge4" class="edge">
<title>Node1&#45;&gt;Node5</title>
<path fill="none" stroke="midnightblue" d="M1016.94,-324.45C1047.67,-313.93 1086,-300.57 1120,-288 1121.89,-287.3 1123.84,-286.57 1125.79,-285.83"/>
<polygon fill="midnightblue" stroke="midnightblue" points="1127.46,-288.94 1135.53,-282.08 1124.94,-282.41 1127.46,-288.94"/>
</g>
<!-- Node6 -->
<g id="node6" class="node">
<title>Node6</title>
<g id="a_node6"><a xlink:title=" ">
<polygon fill="white" stroke="#bfbfbf" points="1203,-263 1203,-282 1263,-282 1263,-263 1203,-263"/>
<text text-anchor="middle" x="1233" y="-270" font-family="Helvetica,sans-Serif" font-size="10.00">iostream</text>
</a>
</g>
</g>
<!-- Node1&#45;&gt;Node6 -->
<g id="edge5" class="edge">
<title>Node1&#45;&gt;Node6</title>
<path fill="none" stroke="midnightblue" d="M1030.56,-329.33C1077.44,-319.13 1139.82,-304.46 1194,-288 1196.57,-287.22 1199.21,-286.36 1201.86,-285.46"/>
<polygon fill="midnightblue" stroke="midnightblue" points="1203.05,-288.75 1211.3,-282.1 1200.7,-282.16 1203.05,-288.75"/>
</g>
<!-- Node7 -->
<g id="node7" class="node">
<title>Node7</title>
<g id="a_node7"><a xlink:href="logger_8hpp.html" target="_top" xlink:title=" ">
<polygon fill="white" stroke="black" points="108.5,-129 108.5,-148 261.5,-148 261.5,-129 108.5,-129"/>
<text text-anchor="middle" x="185" y="-136" font-family="Helvetica,sans-Serif" font-size="10.00">vsomeip/internal/logger.hpp</text>
</a>
</g>
</g>
<!-- Node1&#45;&gt;Node7 -->
<g id="edge6" class="edge">
<title>Node1&#45;&gt;Node7</title>
<path fill="none" stroke="midnightblue" d="M887.25,-344.02C712.89,-342.38 274.68,-327.52 186,-221 171.54,-203.63 174.74,-176.2 179.18,-158.03"/>
<polygon fill="midnightblue" stroke="midnightblue" points="182.58,-158.89 181.9,-148.32 175.84,-157.01 182.58,-158.89"/>
</g>
<!-- Node14 -->
<g id="node14" class="node">
<title>Node14</title>
<g id="a_node14"><a xlink:href="logger__impl_8hpp.html" target="_top" xlink:title=" ">
<polygon fill="white" stroke="black" points="194.5,-196 194.5,-215 337.5,-215 337.5,-196 194.5,-196"/>
<text text-anchor="middle" x="266" y="-203" font-family="Helvetica,sans-Serif" font-size="10.00">../include/logger_impl.hpp</text>
</a>
</g>
</g>
<!-- Node1&#45;&gt;Node14 -->
<g id="edge14" class="edge">
<title>Node1&#45;&gt;Node14</title>
<path fill="none" stroke="midnightblue" d="M887.45,-329.8C747.86,-302.11 442.11,-241.44 318.96,-217.01"/>
<polygon fill="midnightblue" stroke="midnightblue" points="319.5,-213.55 309.01,-215.03 318.14,-220.41 319.5,-213.55"/>
</g>
<!-- Node16 -->
<g id="node16" class="node">
<title>Node16</title>
<g id="a_node16"><a xlink:href="configuration_8hpp.html" target="_top" xlink:title=" ">
<polygon fill="white" stroke="black" points="831.5,-257.5 831.5,-287.5 974.5,-287.5 974.5,-257.5 831.5,-257.5"/>
<text text-anchor="start" x="839.5" y="-275.5" font-family="Helvetica,sans-Serif" font-size="10.00">../../configuration</text>
<text text-anchor="middle" x="903" y="-264.5" font-family="Helvetica,sans-Serif" font-size="10.00">/include/configuration.hpp</text>
</a>
</g>
</g>
<!-- Node1&#45;&gt;Node16 -->
<g id="edge18" class="edge">
<title>Node1&#45;&gt;Node16</title>
<path fill="none" stroke="midnightblue" d="M943.4,-324.36C936.36,-315.5 928.02,-305 920.74,-295.84"/>
<polygon fill="midnightblue" stroke="midnightblue" points="923.39,-293.54 914.43,-287.89 917.91,-297.9 923.39,-293.54"/>
</g>
<!-- Node7&#45;&gt;Node2 -->
<g id="edge7" class="edge">
<title>Node7&#45;&gt;Node2</title>
<path fill="none" stroke="midnightblue" d="M163.75,-128.87C136.06,-117.62 87.44,-97.87 55.73,-84.99"/>
<polygon fill="midnightblue" stroke="midnightblue" points="56.66,-81.58 46.08,-81.06 54.03,-88.07 56.66,-81.58"/>
</g>
<!-- Node8 -->
<g id="node8" class="node">
<title>Node8</title>
<g id="a_node8"><a xlink:title=" ">
<polygon fill="white" stroke="#bfbfbf" points="569,-0.5 569,-19.5 619,-19.5 619,-0.5 569,-0.5"/>
<text text-anchor="middle" x="594" y="-7.5" font-family="Helvetica,sans-Serif" font-size="10.00">cstdint</text>
</a>
</g>
</g>
<!-- Node7&#45;&gt;Node8 -->
<g id="edge8" class="edge">
<title>Node7&#45;&gt;Node8</title>
<path fill="none" stroke="midnightblue" d="M197.95,-128.84C212.52,-118.99 236.79,-102.3 257,-87 274.38,-73.84 275.07,-64.82 295,-56 384.02,-16.58 500.98,-10.66 558.68,-10.39"/>
<polygon fill="midnightblue" stroke="midnightblue" points="558.74,-13.89 568.74,-10.4 558.75,-6.89 558.74,-13.89"/>
</g>
<!-- Node9 -->
<g id="node9" class="node">
<title>Node9</title>
<g id="a_node9"><a xlink:title=" ">
<polygon fill="white" stroke="#bfbfbf" points="436,-62 436,-81 484,-81 484,-62 436,-62"/>
<text text-anchor="middle" x="460" y="-69" font-family="Helvetica,sans-Serif" font-size="10.00">mutex</text>
</a>
</g>
</g>
<!-- Node7&#45;&gt;Node9 -->
<g id="edge9" class="edge">
<title>Node7&#45;&gt;Node9</title>
<path fill="none" stroke="midnightblue" d="M231.61,-128.97C291.28,-117.85 391.23,-98.45 427,-87 428.92,-86.38 430.88,-85.69 432.84,-84.96"/>
<polygon fill="midnightblue" stroke="midnightblue" points="434.53,-88.05 442.45,-81.02 431.87,-81.57 434.53,-88.05"/>
</g>
<!-- Node10 -->
<g id="node10" class="node">
<title>Node10</title>
<g id="a_node10"><a xlink:title=" ">
<polygon fill="white" stroke="#bfbfbf" points="255.5,-0.5 255.5,-19.5 312.5,-19.5 312.5,-0.5 255.5,-0.5"/>
<text text-anchor="middle" x="284" y="-7.5" font-family="Helvetica,sans-Serif" font-size="10.00">ostream</text>
</a>
</g>
</g>
<!-- Node7&#45;&gt;Node10 -->
<g id="edge10" class="edge">
<title>Node7&#45;&gt;Node10</title>
<path fill="none" stroke="midnightblue" d="M154.78,-128.94C134.52,-121.44 109.36,-108.34 97,-87 90.1,-75.08 88.47,-66.82 97,-56 115.09,-33.04 195.87,-20.44 245.16,-14.77"/>
<polygon fill="midnightblue" stroke="midnightblue" points="245.61,-18.24 255.16,-13.66 244.84,-11.28 245.61,-18.24"/>
</g>
<!-- Node11 -->
<g id="node11" class="node">
<title>Node11</title>
<g id="a_node11"><a xlink:title=" ">
<polygon fill="white" stroke="#bfbfbf" points="106,-62 106,-81 162,-81 162,-62 106,-62"/>
<text text-anchor="middle" x="134" y="-69" font-family="Helvetica,sans-Serif" font-size="10.00">sstream</text>
</a>
</g>
</g>
<!-- Node7&#45;&gt;Node11 -->
<g id="edge11" class="edge">
<title>Node7&#45;&gt;Node11</title>
<path fill="none" stroke="midnightblue" d="M178.12,-128.73C170.17,-118.6 156.9,-101.69 146.99,-89.06"/>
<polygon fill="midnightblue" stroke="midnightblue" points="149.7,-86.83 140.77,-81.13 144.19,-91.16 149.7,-86.83"/>
</g>
<!-- Node12 -->
<g id="node12" class="node">
<title>Node12</title>
<g id="a_node12"><a xlink:title=" ">
<polygon fill="white" stroke="#bfbfbf" points="180.5,-62 180.5,-81 247.5,-81 247.5,-62 180.5,-62"/>
<text text-anchor="middle" x="214" y="-69" font-family="Helvetica,sans-Serif" font-size="10.00">streambuf</text>
</a>
</g>
</g>
<!-- Node7&#45;&gt;Node12 -->
<g id="edge12" class="edge">
<title>Node7&#45;&gt;Node12</title>
<path fill="none" stroke="midnightblue" d="M188.91,-128.73C193.26,-118.99 200.4,-102.98 205.96,-90.53"/>
<polygon fill="midnightblue" stroke="midnightblue" points="209.27,-91.69 210.15,-81.13 202.88,-88.83 209.27,-91.69"/>
</g>
<!-- Node13 -->
<g id="node13" class="node">
<title>Node13</title>
<g id="a_node13"><a xlink:title=" ">
<polygon fill="white" stroke="#bfbfbf" points="304,-62 304,-81 418,-81 418,-62 304,-62"/>
<text text-anchor="middle" x="361" y="-69" font-family="Helvetica,sans-Serif" font-size="10.00">vsomeip/export.hpp</text>
</a>
</g>
</g>
<!-- Node7&#45;&gt;Node13 -->
<g id="edge13" class="edge">
<title>Node7&#45;&gt;Node13</title>
<path fill="none" stroke="midnightblue" d="M208.37,-128.87C239.09,-117.52 293.24,-97.52 328.1,-84.65"/>
<polygon fill="midnightblue" stroke="midnightblue" points="329.64,-87.81 337.81,-81.06 327.22,-81.24 329.64,-87.81"/>
</g>
<!-- Node14&#45;&gt;Node7 -->
<g id="edge17" class="edge">
<title>Node14&#45;&gt;Node7</title>
<path fill="none" stroke="midnightblue" d="M255.08,-195.73C241.96,-185.21 219.74,-167.38 203.84,-154.62"/>
<polygon fill="midnightblue" stroke="midnightblue" points="205.74,-151.66 195.75,-148.13 201.36,-157.12 205.74,-151.66"/>
</g>
<!-- Node14&#45;&gt;Node9 -->
<g id="edge16" class="edge">
<title>Node14&#45;&gt;Node9</title>
<path fill="none" stroke="midnightblue" d="M268.14,-195.95C272.72,-179.38 285.08,-142.77 309,-123 351.26,-88.07 375.59,-106.06 427,-87 428.65,-86.39 430.34,-85.73 432.04,-85.05"/>
<polygon fill="midnightblue" stroke="midnightblue" points="433.79,-88.12 441.66,-81.02 431.08,-81.66 433.79,-88.12"/>
</g>
<!-- Node15 -->
<g id="node15" class="node">
<title>Node15</title>
<g id="a_node15"><a xlink:title=" ">
<polygon fill="white" stroke="#bfbfbf" points="318,-129 318,-148 376,-148 376,-129 318,-129"/>
<text text-anchor="middle" x="347" y="-136" font-family="Helvetica,sans-Serif" font-size="10.00">memory</text>
</a>
</g>
</g>
<!-- Node14&#45;&gt;Node15 -->
<g id="edge15" class="edge">
<title>Node14&#45;&gt;Node15</title>
<path fill="none" stroke="midnightblue" d="M276.92,-195.73C290.04,-185.21 312.26,-167.38 328.16,-154.62"/>
<polygon fill="midnightblue" stroke="midnightblue" points="330.64,-157.12 336.25,-148.13 326.26,-151.66 330.64,-157.12"/>
</g>
<!-- Node16&#45;&gt;Node2 -->
<g id="edge23" class="edge">
<title>Node16&#45;&gt;Node2</title>
<path fill="none" stroke="midnightblue" d="M831.22,-271.72C673.67,-271.35 302.37,-265.61 186,-221 117.17,-194.61 60.26,-123.03 36.69,-89.84"/>
<polygon fill="midnightblue" stroke="midnightblue" points="39.28,-87.43 30.7,-81.21 33.52,-91.42 39.28,-87.43"/>
</g>
<!-- Node16&#45;&gt;Node13 -->
<g id="edge26" class="edge">
<title>Node16&#45;&gt;Node13</title>
<path fill="none" stroke="midnightblue" d="M831.12,-268.61C730.05,-263.54 551.9,-250.62 495,-221 435.82,-190.2 389.99,-121.99 370.81,-89.87"/>
<polygon fill="midnightblue" stroke="midnightblue" points="373.78,-88.02 365.73,-81.14 367.74,-91.54 373.78,-88.02"/>
</g>
<!-- Node16&#45;&gt;Node15 -->
<g id="edge20" class="edge">
<title>Node16&#45;&gt;Node15</title>
<path fill="none" stroke="midnightblue" d="M831.34,-268.19C698.86,-261.54 425.82,-245.07 390,-221 368.25,-206.39 356.73,-177.12 351.25,-157.92"/>
<polygon fill="midnightblue" stroke="midnightblue" points="354.64,-157.02 348.75,-148.21 347.86,-158.77 354.64,-157.02"/>
</g>
<!-- Node17 -->
<g id="node17" class="node">
<title>Node17</title>
<g id="a_node17"><a xlink:title=" ">
<polygon fill="white" stroke="#bfbfbf" points="804,-129 804,-148 842,-148 842,-129 804,-129"/>
<text text-anchor="middle" x="823" y="-136" font-family="Helvetica,sans-Serif" font-size="10.00">map</text>
</a>
</g>
</g>
<!-- Node16&#45;&gt;Node17 -->
<g id="edge19" class="edge">
<title>Node16&#45;&gt;Node17</title>
<path fill="none" stroke="midnightblue" d="M842.01,-257.46C823.03,-249.92 804.17,-238.42 793,-221 779.83,-200.46 795.29,-173.33 808.45,-156.14"/>
<polygon fill="midnightblue" stroke="midnightblue" points="811.36,-158.11 814.96,-148.15 805.93,-153.69 811.36,-158.11"/>
</g>
<!-- Node18 -->
<g id="node18" class="node">
<title>Node18</title>
<g id="a_node18"><a xlink:title=" ">
<polygon fill="white" stroke="#bfbfbf" points="932,-196 932,-215 964,-215 964,-196 932,-196"/>
<text text-anchor="middle" x="948" y="-203" font-family="Helvetica,sans-Serif" font-size="10.00">set</text>
</a>
</g>
</g>
<!-- Node16&#45;&gt;Node18 -->
<g id="edge21" class="edge">
<title>Node16&#45;&gt;Node18</title>
<path fill="none" stroke="midnightblue" d="M912.76,-257.4C919.64,-247.46 928.89,-234.11 936.18,-223.57"/>
<polygon fill="midnightblue" stroke="midnightblue" points="939.17,-225.41 941.98,-215.19 933.41,-221.42 939.17,-225.41"/>
</g>
<!-- Node19 -->
<g id="node19" class="node">
<title>Node19</title>
<g id="a_node19"><a xlink:title=" ">
<polygon fill="white" stroke="#bfbfbf" points="1562,-129 1562,-148 1606,-148 1606,-129 1562,-129"/>
<text text-anchor="middle" x="1584" y="-136" font-family="Helvetica,sans-Serif" font-size="10.00">string</text>
</a>
</g>
</g>
<!-- Node16&#45;&gt;Node19 -->
<g id="edge22" class="edge">
<title>Node16&#45;&gt;Node19</title>
<path fill="none" stroke="midnightblue" d="M974.92,-258.19C977.99,-257.76 981.02,-257.36 984,-257 1046.67,-249.43 1499.8,-257.92 1551,-221 1571.18,-206.45 1579.04,-177.38 1582.09,-158.19"/>
<polygon fill="midnightblue" stroke="midnightblue" points="1585.57,-158.58 1583.38,-148.21 1578.63,-157.68 1585.57,-158.58"/>
</g>
<!-- Node20 -->
<g id="node20" class="node">
<title>Node20</title>
<g id="a_node20"><a xlink:title=" ">
<polygon fill="white" stroke="#bfbfbf" points="982.5,-196 982.5,-215 1123.5,-215 1123.5,-196 982.5,-196"/>
<text text-anchor="middle" x="1053" y="-203" font-family="Helvetica,sans-Serif" font-size="10.00">boost/asio/ip/address.hpp</text>
</a>
</g>
</g>
<!-- Node16&#45;&gt;Node20 -->
<g id="edge24" class="edge">
<title>Node16&#45;&gt;Node20</title>
<path fill="none" stroke="midnightblue" d="M935.55,-257.4C961.87,-245.99 998.59,-230.08 1023.93,-219.1"/>
<polygon fill="midnightblue" stroke="midnightblue" points="1025.58,-222.19 1033.37,-215.01 1022.8,-215.77 1025.58,-222.19"/>
</g>
<!-- Node21 -->
<g id="node21" class="node">
<title>Node21</title>
<g id="a_node21"><a xlink:title=" ">
<polygon fill="white" stroke="#bfbfbf" points="1332,-123.5 1332,-153.5 1430,-153.5 1430,-123.5 1332,-123.5"/>
<text text-anchor="start" x="1340" y="-141.5" font-family="Helvetica,sans-Serif" font-size="10.00">boost/icl/interval</text>
<text text-anchor="middle" x="1381" y="-130.5" font-family="Helvetica,sans-Serif" font-size="10.00">_set.hpp</text>
</a>
</g>
</g>
<!-- Node16&#45;&gt;Node21 -->
<g id="edge25" class="edge">
<title>Node16&#45;&gt;Node21</title>
<path fill="none" stroke="midnightblue" d="M974.94,-258.27C977.99,-257.82 981.03,-257.39 984,-257 1030.1,-250.9 1369.56,-255.27 1401,-221 1415.51,-205.18 1406.7,-180.58 1396.6,-162.54"/>
<polygon fill="midnightblue" stroke="midnightblue" points="1399.48,-160.54 1391.32,-153.79 1393.49,-164.16 1399.48,-160.54"/>
</g>
<!-- Node22 -->
<g id="node22" class="node">
<title>Node22</title>
<g id="a_node22"><a xlink:title=" ">
<polygon fill="white" stroke="#bfbfbf" points="1142,-196 1142,-215 1260,-215 1260,-196 1142,-196"/>
<text text-anchor="middle" x="1201" y="-203" font-family="Helvetica,sans-Serif" font-size="10.00">vsomeip/defines.hpp</text>
</a>
</g>
</g>
<!-- Node16&#45;&gt;Node22 -->
<g id="edge27" class="edge">
<title>Node16&#45;&gt;Node22</title>
<path fill="none" stroke="midnightblue" d="M967.29,-257.48C1022.68,-245.4 1101.45,-228.21 1151.89,-217.21"/>
<polygon fill="midnightblue" stroke="midnightblue" points="1152.88,-220.58 1161.9,-215.03 1151.38,-213.74 1152.88,-220.58"/>
</g>
<!-- Node23 -->
<g id="node23" class="node">
<title>Node23</title>
<g id="a_node23"><a xlink:title=" ">
<polygon fill="white" stroke="#bfbfbf" points="1278.5,-196 1278.5,-215 1391.5,-215 1391.5,-196 1278.5,-196"/>
<text text-anchor="middle" x="1335" y="-203" font-family="Helvetica,sans-Serif" font-size="10.00">vsomeip/plugin.hpp</text>
</a>
</g>
</g>
<!-- Node16&#45;&gt;Node23 -->
<g id="edge28" class="edge">
<title>Node16&#45;&gt;Node23</title>
<path fill="none" stroke="midnightblue" d="M974.52,-258.49C977.72,-257.97 980.89,-257.47 984,-257 1110.21,-237.74 1143.19,-242.72 1269,-221 1275.37,-219.9 1282.06,-218.6 1288.63,-217.24"/>
<polygon fill="midnightblue" stroke="midnightblue" points="1289.76,-220.58 1298.81,-215.07 1288.3,-213.73 1289.76,-220.58"/>
</g>
<!-- Node24 -->
<g id="node24" class="node">
<title>Node24</title>
<g id="a_node24"><a xlink:title=" ">
<polygon fill="white" stroke="#bfbfbf" points="1297.5,-62 1297.5,-81 1456.5,-81 1456.5,-62 1297.5,-62"/>
<text text-anchor="middle" x="1377" y="-69" font-family="Helvetica,sans-Serif" font-size="10.00">vsomeip/primitive_types.hpp</text>
</a>
</g>
</g>
<!-- Node16&#45;&gt;Node24 -->
<g id="edge29" class="edge">
<title>Node16&#45;&gt;Node24</title>
<path fill="none" stroke="midnightblue" d="M974.93,-258.26C977.99,-257.81 981.03,-257.39 984,-257 1079.96,-244.46 1342.44,-281.47 1418,-221 1452.78,-193.17 1458.12,-163.23 1439,-123 1431.59,-107.41 1416.76,-95.06 1403.46,-86.47"/>
<polygon fill="midnightblue" stroke="midnightblue" points="1404.98,-83.3 1394.61,-81.13 1401.36,-89.29 1404.98,-83.3"/>
</g>
<!-- Node25 -->
<g id="node25" class="node">
<title>Node25</title>
<g id="a_node25"><a xlink:href="implementation_2configuration_2include_2trace_8hpp.html" target="_top" xlink:title=" ">
<polygon fill="white" stroke="black" points="1603,-196 1603,-215 1665,-215 1665,-196 1603,-196"/>
<text text-anchor="middle" x="1634" y="-203" font-family="Helvetica,sans-Serif" font-size="10.00">trace.hpp</text>
</a>
</g>
</g>
<!-- Node16&#45;&gt;Node25 -->
<g id="edge30" class="edge">
<title>Node16&#45;&gt;Node25</title>
<path fill="none" stroke="midnightblue" d="M974.92,-258.17C977.99,-257.75 981.02,-257.35 984,-257 1250.6,-225.29 1322.83,-268.92 1587,-221 1591.47,-220.19 1596.11,-219.09 1600.66,-217.86"/>
<polygon fill="midnightblue" stroke="midnightblue" points="1601.76,-221.18 1610.36,-215 1599.78,-214.47 1601.76,-221.18"/>
</g>
<!-- Node28 -->
<g id="node28" class="node">
<title>Node28</title>
<g id="a_node28"><a xlink:href="config_8hpp.html" target="_top" xlink:title=" ">
<polygon fill="white" stroke="black" points="503.5,-190.5 503.5,-220.5 642.5,-220.5 642.5,-190.5 503.5,-190.5"/>
<text text-anchor="start" x="511.5" y="-208.5" font-family="Helvetica,sans-Serif" font-size="10.00">../../e2e_protection</text>
<text text-anchor="middle" x="573" y="-197.5" font-family="Helvetica,sans-Serif" font-size="10.00">/include/e2exf/config.hpp</text>
</a>
</g>
</g>
<!-- Node16&#45;&gt;Node28 -->
<g id="edge35" class="edge">
<title>Node16&#45;&gt;Node28</title>
<path fill="none" stroke="midnightblue" d="M831.8,-257.48C779.09,-247.09 707.26,-232.95 652.64,-222.19"/>
<polygon fill="midnightblue" stroke="midnightblue" points="653.14,-218.72 642.66,-220.22 651.79,-225.59 653.14,-218.72"/>
</g>
<!-- Node34 -->
<g id="node34" class="node">
<title>Node34</title>
<g id="a_node34"><a xlink:href="e2e_8hpp.html" target="_top" xlink:title=" ">
<polygon fill="white" stroke="black" points="1486,-196 1486,-215 1542,-215 1542,-196 1486,-196"/>
<text text-anchor="middle" x="1514" y="-203" font-family="Helvetica,sans-Serif" font-size="10.00">e2e.hpp</text>
</a>
</g>
</g>
<!-- Node16&#45;&gt;Node34 -->
<g id="edge53" class="edge">
<title>Node16&#45;&gt;Node34</title>
<path fill="none" stroke="midnightblue" d="M974.93,-258.23C977.99,-257.79 981.02,-257.38 984,-257 1199.77,-229.8 1258.99,-264.85 1472,-221 1475.51,-220.28 1479.12,-219.34 1482.69,-218.29"/>
<polygon fill="midnightblue" stroke="midnightblue" points="1484.06,-221.53 1492.5,-215.12 1481.91,-214.87 1484.06,-221.53"/>
</g>
<!-- Node35 -->
<g id="node35" class="node">
<title>Node35</title>
<g id="a_node35"><a xlink:href="debounce_8hpp.html" target="_top" xlink:title=" ">
<polygon fill="white" stroke="black" points="660.5,-196 660.5,-215 745.5,-215 745.5,-196 660.5,-196"/>
<text text-anchor="middle" x="703" y="-203" font-family="Helvetica,sans-Serif" font-size="10.00">debounce.hpp</text>
</a>
</g>
</g>
<!-- Node16&#45;&gt;Node35 -->
<g id="edge58" class="edge">
<title>Node16&#45;&gt;Node35</title>
<path fill="none" stroke="midnightblue" d="M859.6,-257.4C823.58,-245.69 772.94,-229.23 739.1,-218.23"/>
<polygon fill="midnightblue" stroke="midnightblue" points="739.77,-214.77 729.18,-215.01 737.6,-221.43 739.77,-214.77"/>
</g>
<!-- Node36 -->
<g id="node36" class="node">
<title>Node36</title>
<g id="a_node36"><a xlink:href="internal_8hpp.html" target="_top" xlink:title=" ">
<polygon fill="white" stroke="black" points="1787.5,-129 1787.5,-148 1862.5,-148 1862.5,-129 1787.5,-129"/>
<text text-anchor="middle" x="1825" y="-136" font-family="Helvetica,sans-Serif" font-size="10.00">internal.hpp</text>
</a>
</g>
</g>
<!-- Node16&#45;&gt;Node36 -->
<g id="edge60" class="edge">
<title>Node16&#45;&gt;Node36</title>
<path fill="none" stroke="midnightblue" d="M974.92,-258.14C977.98,-257.73 981.02,-257.34 984,-257 1136.53,-239.44 1526.17,-262.48 1674,-221 1724.51,-206.83 1776.98,-173.59 1804.81,-154.22"/>
<polygon fill="midnightblue" stroke="midnightblue" points="1807.13,-156.87 1813.27,-148.23 1803.08,-151.16 1807.13,-156.87"/>
</g>
<!-- Node39 -->
<g id="node39" class="node">
<title>Node39</title>
<g id="a_node39"><a xlink:href="policy_8hpp.html" target="_top" xlink:title=" ">
<polygon fill="white" stroke="black" points="802,-190.5 802,-220.5 914,-220.5 914,-190.5 802,-190.5"/>
<text text-anchor="start" x="810" y="-208.5" font-family="Helvetica,sans-Serif" font-size="10.00">../../security/include</text>
<text text-anchor="middle" x="858" y="-197.5" font-family="Helvetica,sans-Serif" font-size="10.00">/policy.hpp</text>
</a>
</g>
</g>
<!-- Node16&#45;&gt;Node39 -->
<g id="edge65" class="edge">
<title>Node16&#45;&gt;Node39</title>
<path fill="none" stroke="midnightblue" d="M893.24,-257.4C887.46,-249.05 880.01,-238.29 873.45,-228.81"/>
<polygon fill="midnightblue" stroke="midnightblue" points="876.32,-226.81 867.75,-220.58 870.56,-230.79 876.32,-226.81"/>
</g>
<!-- Node25&#45;&gt;Node19 -->
<g id="edge31" class="edge">
<title>Node25&#45;&gt;Node19</title>
<path fill="none" stroke="midnightblue" d="M1627.26,-195.73C1619.46,-185.6 1606.45,-168.69 1596.74,-156.06"/>
<polygon fill="midnightblue" stroke="midnightblue" points="1599.51,-153.92 1590.64,-148.13 1593.96,-158.19 1599.51,-153.92"/>
</g>
<!-- Node25&#45;&gt;Node24 -->
<g id="edge33" class="edge">
<title>Node25&#45;&gt;Node24</title>
<path fill="none" stroke="midnightblue" d="M1634.74,-195.95C1635.66,-179.36 1635.13,-142.73 1615,-123 1602.63,-110.87 1508.35,-93.55 1442.24,-82.67"/>
<polygon fill="midnightblue" stroke="midnightblue" points="1442.72,-79.2 1432.29,-81.04 1441.6,-86.11 1442.72,-79.2"/>
</g>
<!-- Node26 -->
<g id="node26" class="node">
<title>Node26</title>
<g id="a_node26"><a xlink:title=" ">
<polygon fill="white" stroke="#bfbfbf" points="1376.5,-0.5 1376.5,-19.5 1423.5,-19.5 1423.5,-0.5 1376.5,-0.5"/>
<text text-anchor="middle" x="1400" y="-7.5" font-family="Helvetica,sans-Serif" font-size="10.00">vector</text>
</a>
</g>
</g>
<!-- Node25&#45;&gt;Node26 -->
<g id="edge32" class="edge">
<title>Node25&#45;&gt;Node26</title>
<path fill="none" stroke="midnightblue" d="M1665.03,-202.62C1723.46,-198.36 1846.28,-185.75 1872,-154 1885.34,-137.53 1880.74,-72.38 1864,-56 1833.33,-26.01 1535.26,-14.83 1433.7,-11.87"/>
<polygon fill="midnightblue" stroke="midnightblue" points="1433.77,-8.37 1423.67,-11.59 1433.57,-15.37 1433.77,-8.37"/>
</g>
<!-- Node27 -->
<g id="node27" class="node">
<title>Node27</title>
<g id="a_node27"><a xlink:title=" ">
<polygon fill="white" stroke="#bfbfbf" points="1662.5,-129 1662.5,-148 1769.5,-148 1769.5,-129 1662.5,-129"/>
<text text-anchor="middle" x="1716" y="-136" font-family="Helvetica,sans-Serif" font-size="10.00">vsomeip/trace.hpp</text>
</a>
</g>
</g>
<!-- Node25&#45;&gt;Node27 -->
<g id="edge34" class="edge">
<title>Node25&#45;&gt;Node27</title>
<path fill="none" stroke="midnightblue" d="M1645.06,-195.73C1658.34,-185.21 1680.83,-167.38 1696.93,-154.62"/>
<polygon fill="midnightblue" stroke="midnightblue" points="1699.45,-157.08 1705.12,-148.13 1695.11,-151.6 1699.45,-157.08"/>
</g>
<!-- Node28&#45;&gt;Node15 -->
<g id="edge51" class="edge">
<title>Node28&#45;&gt;Node15</title>
<path fill="none" stroke="midnightblue" d="M524.24,-190.48C482.79,-178.55 424.06,-161.66 385.76,-150.65"/>
<polygon fill="midnightblue" stroke="midnightblue" points="386.58,-147.24 376.01,-147.84 384.65,-153.97 386.58,-147.24"/>
</g>
<!-- Node28&#45;&gt;Node17 -->
<g id="edge52" class="edge">
<title>Node28&#45;&gt;Node17</title>
<path fill="none" stroke="midnightblue" d="M642.81,-191.68C685.8,-182.95 741.74,-170.06 790,-154 791.87,-153.38 793.78,-152.69 795.69,-151.96"/>
<polygon fill="midnightblue" stroke="midnightblue" points="797.17,-155.14 805.08,-148.09 794.5,-148.66 797.17,-155.14"/>
</g>
<!-- Node28&#45;&gt;Node24 -->
<g id="edge36" class="edge">
<title>Node28&#45;&gt;Node24</title>
<path fill="none" stroke="midnightblue" d="M634.74,-190.46C679.46,-179.75 735.65,-165.01 757,-154 776.37,-144.01 774.8,-131.19 795,-123 881.82,-87.78 1146.45,-77.09 1287.02,-73.87"/>
<polygon fill="midnightblue" stroke="midnightblue" points="1287.42,-77.36 1297.34,-73.64 1287.27,-70.37 1287.42,-77.36"/>
</g>
<!-- Node29 -->
<g id="node29" class="node">
<title>Node29</title>
<g id="a_node29"><a xlink:href="profile__interface_2checker_8hpp.html" target="_top" xlink:title=" ">
<polygon fill="white" stroke="black" points="470,-123.5 470,-153.5 596,-153.5 596,-123.5 470,-123.5"/>
<text text-anchor="start" x="478" y="-141.5" font-family="Helvetica,sans-Serif" font-size="10.00">../e2e/profile/profile</text>
<text text-anchor="middle" x="533" y="-130.5" font-family="Helvetica,sans-Serif" font-size="10.00">_interface/checker.hpp</text>
</a>
</g>
</g>
<!-- Node28&#45;&gt;Node29 -->
<g id="edge37" class="edge">
<title>Node28&#45;&gt;Node29</title>
<path fill="none" stroke="midnightblue" d="M564.32,-190.4C559.24,-182.13 552.7,-171.51 546.91,-162.1"/>
<polygon fill="midnightblue" stroke="midnightblue" points="549.88,-160.26 541.66,-153.58 543.92,-163.93 549.88,-160.26"/>
</g>
<!-- Node33 -->
<g id="node33" class="node">
<title>Node33</title>
<g id="a_node33"><a xlink:href="profile__interface_2protector_8hpp.html" target="_top" xlink:title=" ">
<polygon fill="white" stroke="black" points="614.5,-123.5 614.5,-153.5 747.5,-153.5 747.5,-123.5 614.5,-123.5"/>
<text text-anchor="start" x="622.5" y="-141.5" font-family="Helvetica,sans-Serif" font-size="10.00">../e2e/profile/profile</text>
<text text-anchor="middle" x="681" y="-130.5" font-family="Helvetica,sans-Serif" font-size="10.00">_interface/protector.hpp</text>
</a>
</g>
</g>
<!-- Node28&#45;&gt;Node33 -->
<g id="edge47" class="edge">
<title>Node28&#45;&gt;Node33</title>
<path fill="none" stroke="midnightblue" d="M596.43,-190.4C611.72,-181.2 631.88,-169.07 648.68,-158.95"/>
<polygon fill="midnightblue" stroke="midnightblue" points="650.85,-161.73 657.61,-153.58 647.24,-155.73 650.85,-161.73"/>
</g>
<!-- Node29&#45;&gt;Node9 -->
<g id="edge38" class="edge">
<title>Node29&#45;&gt;Node9</title>
<path fill="none" stroke="midnightblue" d="M517.16,-123.4C505.44,-112.96 489.48,-98.75 477.41,-88"/>
<polygon fill="midnightblue" stroke="midnightblue" points="479.56,-85.23 469.76,-81.19 474.91,-90.46 479.56,-85.23"/>
</g>
<!-- Node29&#45;&gt;Node24 -->
<g id="edge39" class="edge">
<title>Node29&#45;&gt;Node24</title>
<path fill="none" stroke="midnightblue" d="M596.22,-124.42C599.52,-123.9 602.8,-123.42 606,-123 851.15,-90.77 1142.98,-78.77 1287.18,-74.58"/>
<polygon fill="midnightblue" stroke="midnightblue" points="1287.41,-78.07 1297.31,-74.29 1287.21,-71.08 1287.41,-78.07"/>
</g>
<!-- Node30 -->
<g id="node30" class="node">
<title>Node30</title>
<g id="a_node30"><a xlink:href="profile__interface_8hpp.html" target="_top" xlink:title=" ">
<polygon fill="white" stroke="black" points="502,-56.5 502,-86.5 622,-86.5 622,-56.5 502,-56.5"/>
<text text-anchor="start" x="510" y="-74.5" font-family="Helvetica,sans-Serif" font-size="10.00">../profile_interface</text>
<text text-anchor="middle" x="562" y="-63.5" font-family="Helvetica,sans-Serif" font-size="10.00">/profile_interface.hpp</text>
</a>
</g>
</g>
<!-- Node29&#45;&gt;Node30 -->
<g id="edge40" class="edge">
<title>Node29&#45;&gt;Node30</title>
<path fill="none" stroke="midnightblue" d="M539.29,-123.4C542.86,-115.39 547.43,-105.16 551.53,-95.98"/>
<polygon fill="midnightblue" stroke="midnightblue" points="554.84,-97.13 555.72,-86.58 548.45,-94.28 554.84,-97.13"/>
</g>
<!-- Node31 -->
<g id="node31" class="node">
<title>Node31</title>
<g id="a_node31"><a xlink:href="e2e__protection_2include_2buffer_2buffer_8hpp.html" target="_top" xlink:title=" ">
<polygon fill="white" stroke="black" points="640,-62 640,-81 764,-81 764,-62 640,-62"/>
<text text-anchor="middle" x="702" y="-69" font-family="Helvetica,sans-Serif" font-size="10.00">../../../buffer/buffer.hpp</text>
</a>
</g>
</g>
<!-- Node29&#45;&gt;Node31 -->
<g id="edge42" class="edge">
<title>Node29&#45;&gt;Node31</title>
<path fill="none" stroke="midnightblue" d="M569.67,-123.4C599.72,-111.84 641.79,-95.66 670.38,-84.66"/>
<polygon fill="midnightblue" stroke="midnightblue" points="671.8,-87.86 679.88,-81.01 669.29,-81.33 671.8,-87.86"/>
</g>
<!-- Node30&#45;&gt;Node8 -->
<g id="edge41" class="edge">
<title>Node30&#45;&gt;Node8</title>
<path fill="none" stroke="midnightblue" d="M569.58,-56.4C574.04,-48.11 579.72,-37.55 584.48,-28.71"/>
<polygon fill="midnightblue" stroke="midnightblue" points="587.69,-30.12 589.34,-19.66 581.52,-26.81 587.69,-30.12"/>
</g>
<!-- Node31&#45;&gt;Node8 -->
<g id="edge44" class="edge">
<title>Node31&#45;&gt;Node8</title>
<path fill="none" stroke="midnightblue" d="M686.53,-61.98C668.72,-52.17 639.26,-35.93 618.37,-24.42"/>
<polygon fill="midnightblue" stroke="midnightblue" points="619.89,-21.27 609.45,-19.51 616.51,-27.4 619.89,-21.27"/>
</g>
<!-- Node31&#45;&gt;Node10 -->
<g id="edge45" class="edge">
<title>Node31&#45;&gt;Node10</title>
<path fill="none" stroke="midnightblue" d="M662.66,-61.94C652.38,-59.85 641.3,-57.72 631,-56 519.75,-37.45 387.35,-22.14 322.99,-15.12"/>
<polygon fill="midnightblue" stroke="midnightblue" points="323.21,-11.63 312.89,-14.03 322.46,-18.59 323.21,-11.63"/>
</g>
<!-- Node31&#45;&gt;Node26 -->
<g id="edge46" class="edge">
<title>Node31&#45;&gt;Node26</title>
<path fill="none" stroke="midnightblue" d="M764.25,-65.19C907.34,-53 1255.82,-23.29 1366.01,-13.9"/>
<polygon fill="midnightblue" stroke="midnightblue" points="1366.54,-17.36 1376.21,-13.03 1365.95,-10.39 1366.54,-17.36"/>
</g>
<!-- Node32 -->
<g id="node32" class="node">
<title>Node32</title>
<g id="a_node32"><a xlink:title=" ">
<polygon fill="white" stroke="#bfbfbf" points="669.5,-0.5 669.5,-19.5 734.5,-19.5 734.5,-0.5 669.5,-0.5"/>
<text text-anchor="middle" x="702" y="-7.5" font-family="Helvetica,sans-Serif" font-size="10.00">stdexcept</text>
</a>
</g>
</g>
<!-- Node31&#45;&gt;Node32 -->
<g id="edge43" class="edge">
<title>Node31&#45;&gt;Node32</title>
<path fill="none" stroke="midnightblue" d="M702,-61.98C702,-53.58 702,-40.48 702,-29.66"/>
<polygon fill="midnightblue" stroke="midnightblue" points="705.5,-29.51 702,-19.51 698.5,-29.51 705.5,-29.51"/>
</g>
<!-- Node33&#45;&gt;Node24 -->
<g id="edge48" class="edge">
<title>Node33&#45;&gt;Node24</title>
<path fill="none" stroke="midnightblue" d="M747.67,-125.05C752.51,-124.3 757.33,-123.61 762,-123 947.8,-98.8 1166.79,-84.09 1286.89,-77.21"/>
<polygon fill="midnightblue" stroke="midnightblue" points="1287.35,-80.69 1297.13,-76.62 1286.95,-73.7 1287.35,-80.69"/>
</g>
<!-- Node33&#45;&gt;Node30 -->
<g id="edge50" class="edge">
<title>Node33&#45;&gt;Node30</title>
<path fill="none" stroke="midnightblue" d="M655.18,-123.4C638.03,-114.03 615.3,-101.62 596.59,-91.39"/>
<polygon fill="midnightblue" stroke="midnightblue" points="598.22,-88.3 587.77,-86.58 594.87,-94.44 598.22,-88.3"/>
</g>
<!-- Node33&#45;&gt;Node31 -->
<g id="edge49" class="edge">
<title>Node33&#45;&gt;Node31</title>
<path fill="none" stroke="midnightblue" d="M685.56,-123.4C688.64,-113.86 692.73,-101.18 696.07,-90.86"/>
<polygon fill="midnightblue" stroke="midnightblue" points="699.45,-91.79 699.19,-81.19 692.79,-89.63 699.45,-91.79"/>
</g>
<!-- Node34&#45;&gt;Node17 -->
<g id="edge54" class="edge">
<title>Node34&#45;&gt;Node17</title>
<path fill="none" stroke="midnightblue" d="M1485.73,-200.38C1462.9,-197.17 1429.94,-192.8 1401,-190 1157.17,-166.4 1086.99,-219.72 851,-154 849.33,-153.54 847.65,-152.96 845.98,-152.32"/>
<polygon fill="midnightblue" stroke="midnightblue" points="847.32,-149.09 836.78,-148.06 844.38,-155.44 847.32,-149.09"/>
</g>
<!-- Node34&#45;&gt;Node19 -->
<g id="edge55" class="edge">
<title>Node34&#45;&gt;Node19</title>
<path fill="none" stroke="midnightblue" d="M1523.44,-195.73C1534.67,-185.31 1553.62,-167.71 1567.34,-154.97"/>
<polygon fill="midnightblue" stroke="midnightblue" points="1569.76,-157.5 1574.71,-148.13 1565,-152.37 1569.76,-157.5"/>
</g>
<!-- Node34&#45;&gt;Node24 -->
<g id="edge57" class="edge">
<title>Node34&#45;&gt;Node24</title>
<path fill="none" stroke="midnightblue" d="M1511.46,-195.84C1506.36,-179.72 1493.47,-144.75 1472,-123 1455.16,-105.94 1431.33,-93.3 1411.75,-84.93"/>
<polygon fill="midnightblue" stroke="midnightblue" points="1412.83,-81.59 1402.25,-81.05 1410.19,-88.07 1412.83,-81.59"/>
</g>
<!-- Node34&#45;&gt;Node26 -->
<g id="edge56" class="edge">
<title>Node34&#45;&gt;Node26</title>
<path fill="none" stroke="midnightblue" d="M1513.41,-195.71C1511.34,-170.93 1502.34,-99.43 1466,-56 1455.15,-43.04 1439.68,-32.22 1426.44,-24.44"/>
<polygon fill="midnightblue" stroke="midnightblue" points="1428.15,-21.38 1417.71,-19.55 1424.72,-27.49 1428.15,-21.38"/>
</g>
<!-- Node35&#45;&gt;Node17 -->
<g id="edge59" class="edge">
<title>Node35&#45;&gt;Node17</title>
<path fill="none" stroke="midnightblue" d="M719.18,-195.73C739.43,-184.77 774.3,-165.88 797.99,-153.05"/>
<polygon fill="midnightblue" stroke="midnightblue" points="799.95,-155.97 807.07,-148.13 796.61,-149.81 799.95,-155.97"/>
</g>
<!-- Node36&#45;&gt;Node8 -->
<g id="edge61" class="edge">
<title>Node36&#45;&gt;Node8</title>
<path fill="none" stroke="midnightblue" d="M1799.34,-128.94C1792.74,-126.87 1785.64,-124.75 1779,-123 1641.45,-86.69 1607.1,-74.13 1466,-56 1110.78,-10.36 1017.71,-51.87 661,-20 650.68,-19.08 639.5,-17.72 629.29,-16.34"/>
<polygon fill="midnightblue" stroke="midnightblue" points="629.46,-12.83 619.08,-14.91 628.49,-19.76 629.46,-12.83"/>
</g>
<!-- Node36&#45;&gt;Node24 -->
<g id="edge63" class="edge">
<title>Node36&#45;&gt;Node24</title>
<path fill="none" stroke="midnightblue" d="M1800.88,-128.97C1793.89,-126.75 1786.2,-124.55 1779,-123 1647.29,-94.62 1611.58,-104.57 1478,-87 1467.24,-85.58 1455.85,-84.02 1444.74,-82.45"/>
<polygon fill="midnightblue" stroke="midnightblue" points="1445.04,-78.96 1434.65,-81.02 1444.06,-85.89 1445.04,-78.96"/>
</g>
<!-- Node37 -->
<g id="node37" class="node">
<title>Node37</title>
<g id="a_node37"><a xlink:title=" ">
<polygon fill="white" stroke="#bfbfbf" points="1811,-62 1811,-81 1855,-81 1855,-62 1811,-62"/>
<text text-anchor="middle" x="1833" y="-69" font-family="Helvetica,sans-Serif" font-size="10.00">limits</text>
</a>
</g>
</g>
<!-- Node36&#45;&gt;Node37 -->
<g id="edge62" class="edge">
<title>Node36&#45;&gt;Node37</title>
<path fill="none" stroke="midnightblue" d="M1826.08,-128.73C1827.25,-119.18 1829.17,-103.62 1830.69,-91.28"/>
<polygon fill="midnightblue" stroke="midnightblue" points="1834.19,-91.48 1831.94,-81.13 1827.24,-90.62 1834.19,-91.48"/>
</g>
<!-- Node38 -->
<g id="node38" class="node">
<title>Node38</title>
<g id="a_node38"><a xlink:title=" ">
<polygon fill="white" stroke="#bfbfbf" points="1729.5,-62 1729.5,-81 1792.5,-81 1792.5,-62 1729.5,-62"/>
<text text-anchor="middle" x="1761" y="-69" font-family="Helvetica,sans-Serif" font-size="10.00">pthread.h</text>
</a>
</g>
</g>
<!-- Node36&#45;&gt;Node38 -->
<g id="edge64" class="edge">
<title>Node36&#45;&gt;Node38</title>
<path fill="none" stroke="midnightblue" d="M1816.37,-128.73C1806.2,-118.4 1789.1,-101.04 1776.59,-88.33"/>
<polygon fill="midnightblue" stroke="midnightblue" points="1779,-85.8 1769.49,-81.13 1774.02,-90.71 1779,-85.8"/>
</g>
<!-- Node39&#45;&gt;Node7 -->
<g id="edge75" class="edge">
<title>Node39&#45;&gt;Node7</title>
<path fill="none" stroke="midnightblue" d="M801.95,-195.99C786.74,-193.85 770.26,-191.69 755,-190 557.34,-168.13 506.9,-173.55 309,-154 294.54,-152.57 279.15,-150.9 264.31,-149.2"/>
<polygon fill="midnightblue" stroke="midnightblue" points="264.48,-145.7 254.15,-148.03 263.68,-152.65 264.48,-145.7"/>
</g>
<!-- Node39&#45;&gt;Node9 -->
<g id="edge68" class="edge">
<title>Node39&#45;&gt;Node9</title>
<path fill="none" stroke="midnightblue" d="M801.9,-196.41C786.69,-194.27 770.22,-192 755,-190 689.74,-181.41 504.92,-203.02 461,-154 445.91,-137.16 449.27,-109.6 453.92,-91.26"/>
<polygon fill="midnightblue" stroke="midnightblue" points="457.34,-92.02 456.76,-81.44 450.62,-90.08 457.34,-92.02"/>
</g>
<!-- Node39&#45;&gt;Node17 -->
<g id="edge67" class="edge">
<title>Node39&#45;&gt;Node17</title>
<path fill="none" stroke="midnightblue" d="M850.41,-190.4C845.16,-180.66 838.16,-167.65 832.54,-157.21"/>
<polygon fill="midnightblue" stroke="midnightblue" points="835.5,-155.34 827.68,-148.19 829.34,-158.66 835.5,-155.34"/>
</g>
<!-- Node39&#45;&gt;Node21 -->
<g id="edge72" class="edge">
<title>Node39&#45;&gt;Node21</title>
<path fill="none" stroke="midnightblue" d="M914.29,-191.48C917.23,-190.94 920.14,-190.45 923,-190 1097.16,-162.75 1143.93,-181.83 1318,-154 1319.28,-153.8 1320.57,-153.58 1321.87,-153.36"/>
<polygon fill="midnightblue" stroke="midnightblue" points="1322.76,-156.75 1331.95,-151.47 1321.47,-149.87 1322.76,-156.75"/>
</g>
<!-- Node39&#45;&gt;Node24 -->
<g id="edge74" class="edge">
<title>Node39&#45;&gt;Node24</title>
<path fill="none" stroke="midnightblue" d="M914.29,-191.51C917.23,-190.97 920.15,-190.46 923,-190 1080.43,-164.59 1133.09,-216.05 1280,-154 1298.05,-146.38 1337.94,-109.91 1360.54,-88.42"/>
<polygon fill="midnightblue" stroke="midnightblue" points="1363.21,-90.71 1368.01,-81.26 1358.37,-85.65 1363.21,-90.71"/>
</g>
<!-- Node39&#45;&gt;Node26 -->
<g id="edge70" class="edge">
<title>Node39&#45;&gt;Node26</title>
<path fill="none" stroke="midnightblue" d="M914.3,-191.55C917.23,-191 920.15,-190.47 923,-190 994.46,-178.1 1188.82,-197.16 1247,-154 1285.06,-125.77 1255.16,-89.18 1289,-56 1310.18,-35.24 1342.21,-23.64 1366.43,-17.44"/>
<polygon fill="midnightblue" stroke="midnightblue" points="1367.36,-20.82 1376.28,-15.11 1365.74,-14.01 1367.36,-20.82"/>
</g>
<!-- Node40 -->
<g id="node40" class="node">
<title>Node40</title>
<g id="a_node40"><a xlink:title=" ">
<polygon fill="white" stroke="#bfbfbf" points="1008,-129 1008,-148 1058,-148 1058,-129 1008,-129"/>
<text text-anchor="middle" x="1033" y="-136" font-family="Helvetica,sans-Serif" font-size="10.00">cstring</text>
</a>
</g>
</g>
<!-- Node39&#45;&gt;Node40 -->
<g id="edge66" class="edge">
<title>Node39&#45;&gt;Node40</title>
<path fill="none" stroke="midnightblue" d="M899.27,-190.44C927.51,-180.65 965.71,-167.05 999,-154 1000.6,-153.37 1002.24,-152.72 1003.89,-152.05"/>
<polygon fill="midnightblue" stroke="midnightblue" points="1005.41,-155.2 1013.3,-148.13 1002.73,-148.74 1005.41,-155.2"/>
</g>
<!-- Node41 -->
<g id="node41" class="node">
<title>Node41</title>
<g id="a_node41"><a xlink:title=" ">
<polygon fill="white" stroke="#bfbfbf" points="1076.5,-129 1076.5,-148 1121.5,-148 1121.5,-129 1076.5,-129"/>
<text text-anchor="middle" x="1099" y="-136" font-family="Helvetica,sans-Serif" font-size="10.00">utility</text>
</a>
</g>
</g>
<!-- Node39&#45;&gt;Node41 -->
<g id="edge69" class="edge">
<title>Node39&#45;&gt;Node41</title>
<path fill="none" stroke="midnightblue" d="M914.23,-191.49C971.07,-178.24 1052.55,-158.97 1067,-154 1068.67,-153.43 1070.36,-152.8 1072.06,-152.14"/>
<polygon fill="midnightblue" stroke="midnightblue" points="1073.79,-155.2 1081.64,-148.08 1071.06,-148.76 1073.79,-155.2"/>
</g>
<!-- Node42 -->
<g id="node42" class="node">
<title>Node42</title>
<g id="a_node42"><a xlink:title=" ">
<polygon fill="white" stroke="#bfbfbf" points="1140,-123.5 1140,-153.5 1238,-153.5 1238,-123.5 1140,-123.5"/>
<text text-anchor="start" x="1148" y="-141.5" font-family="Helvetica,sans-Serif" font-size="10.00">boost/icl/interval</text>
<text text-anchor="middle" x="1189" y="-130.5" font-family="Helvetica,sans-Serif" font-size="10.00">_map.hpp</text>
</a>
</g>
</g>
<!-- Node39&#45;&gt;Node42 -->
<g id="edge71" class="edge">
<title>Node39&#45;&gt;Node42</title>
<path fill="none" stroke="midnightblue" d="M914.34,-191.76C917.26,-191.15 920.16,-190.56 923,-190 1011.89,-172.4 1037.48,-173.3 1129.65,-154.19"/>
<polygon fill="midnightblue" stroke="midnightblue" points="1130.63,-157.57 1139.7,-152.09 1129.19,-150.71 1130.63,-157.57"/>
</g>
<!-- Node43 -->
<g id="node43" class="node">
<title>Node43</title>
<g id="a_node43"><a xlink:title=" ">
<polygon fill="white" stroke="#bfbfbf" points="860,-129 860,-148 990,-148 990,-129 860,-129"/>
<text text-anchor="middle" x="925" y="-136" font-family="Helvetica,sans-Serif" font-size="10.00">vsomeip/constants.hpp</text>
</a>
</g>
</g>
<!-- Node39&#45;&gt;Node43 -->
<g id="edge73" class="edge">
<title>Node39&#45;&gt;Node43</title>
<path fill="none" stroke="midnightblue" d="M872.54,-190.4C883.19,-180.06 897.66,-166.02 908.7,-155.31"/>
<polygon fill="midnightblue" stroke="midnightblue" points="911.3,-157.67 916.04,-148.19 906.42,-152.65 911.3,-157.67"/>
</g>
</g>
</svg>
