<?xml version="1.0" encoding="UTF-8" standalone="no"?>
<!DOCTYPE svg PUBLIC "-//W3C//DTD SVG 1.1//EN"
 "http://www.w3.org/Graphics/SVG/1.1/DTD/svg11.dtd">
<!-- Generated by graphviz version 2.43.0 (0)
 -->
<!-- Title: /home/kali/projects/vsomeip/implementation/service_discovery/include/message_element_impl.hpp Pages: 1 -->
<svg width="2009pt" height="506pt"
 viewBox="0.00 0.00 2009.00 506.00" xmlns="http://www.w3.org/2000/svg" xmlns:xlink="http://www.w3.org/1999/xlink">
<g id="graph0" class="graph" transform="scale(1 1) rotate(0) translate(4 502)">
<title>/home/kali/projects/vsomeip/implementation/service_discovery/include/message_element_impl.hpp</title>
<polygon fill="white" stroke="transparent" points="-4,4 -4,-502 2005,-502 2005,4 -4,4"/>
<!-- Node1 -->
<g id="node1" class="node">
<title>Node1</title>
<g id="a_node1"><a xlink:title=" ">
<polygon fill="#bfbfbf" stroke="black" points="784.5,-445.5 784.5,-497.5 942.5,-497.5 942.5,-445.5 784.5,-445.5"/>
<text text-anchor="start" x="792.5" y="-485.5" font-family="Helvetica,sans-Serif" font-size="10.00">/home/kali/projects</text>
<text text-anchor="start" x="792.5" y="-474.5" font-family="Helvetica,sans-Serif" font-size="10.00">/vsomeip/implementation</text>
<text text-anchor="start" x="792.5" y="-463.5" font-family="Helvetica,sans-Serif" font-size="10.00">/service_discovery/include</text>
<text text-anchor="middle" x="863.5" y="-452.5" font-family="Helvetica,sans-Serif" font-size="10.00">/message_element_impl.hpp</text>
</a>
</g>
</g>
<!-- Node2 -->
<g id="node2" class="node">
<title>Node2</title>
<g id="a_node2"><a xlink:href="entry__impl_8hpp.html" target="_top" xlink:title=" ">
<polygon fill="white" stroke="black" points="220.5,-267.5 220.5,-319.5 366.5,-319.5 366.5,-267.5 220.5,-267.5"/>
<text text-anchor="start" x="228.5" y="-307.5" font-family="Helvetica,sans-Serif" font-size="10.00">/home/kali/projects</text>
<text text-anchor="start" x="228.5" y="-296.5" font-family="Helvetica,sans-Serif" font-size="10.00">/vsomeip/implementation</text>
<text text-anchor="start" x="228.5" y="-285.5" font-family="Helvetica,sans-Serif" font-size="10.00">/service_discovery/include</text>
<text text-anchor="middle" x="293.5" y="-274.5" font-family="Helvetica,sans-Serif" font-size="10.00">/entry_impl.hpp</text>
</a>
</g>
</g>
<!-- Node1&#45;&gt;Node2 -->
<g id="edge1" class="edge">
<title>Node1&#45;&gt;Node2</title>
<path fill="none" stroke="midnightblue" d="M774.63,-443.06C662.28,-408.37 471,-349.31 366.67,-317.09"/>
<polygon fill="midnightblue" stroke="midnightblue" points="773.66,-446.42 784.24,-446.03 775.72,-439.73 773.66,-446.42"/>
</g>
<!-- Node10 -->
<g id="node10" class="node">
<title>Node10</title>
<g id="a_node10"><a xlink:href="option__impl_8hpp.html" target="_top" xlink:title=" ">
<polygon fill="white" stroke="black" points="790.5,-356.5 790.5,-408.5 936.5,-408.5 936.5,-356.5 790.5,-356.5"/>
<text text-anchor="start" x="798.5" y="-396.5" font-family="Helvetica,sans-Serif" font-size="10.00">/home/kali/projects</text>
<text text-anchor="start" x="798.5" y="-385.5" font-family="Helvetica,sans-Serif" font-size="10.00">/vsomeip/implementation</text>
<text text-anchor="start" x="798.5" y="-374.5" font-family="Helvetica,sans-Serif" font-size="10.00">/service_discovery/include</text>
<text text-anchor="middle" x="863.5" y="-363.5" font-family="Helvetica,sans-Serif" font-size="10.00">/option_impl.hpp</text>
</a>
</g>
</g>
<!-- Node1&#45;&gt;Node10 -->
<g id="edge11" class="edge">
<title>Node1&#45;&gt;Node10</title>
<path fill="none" stroke="midnightblue" d="M863.5,-435.19C863.5,-426.28 863.5,-416.9 863.5,-408.61"/>
<polygon fill="midnightblue" stroke="midnightblue" points="860,-435.34 863.5,-445.34 867,-435.34 860,-435.34"/>
</g>
<!-- Node28 -->
<g id="node28" class="node">
<title>Node28</title>
<g id="a_node28"><a xlink:href="message__element__impl_8cpp.html" target="_top" xlink:title=" ">
<polygon fill="white" stroke="black" points="955,-356.5 955,-408.5 1112,-408.5 1112,-356.5 955,-356.5"/>
<text text-anchor="start" x="963" y="-396.5" font-family="Helvetica,sans-Serif" font-size="10.00">/home/kali/projects</text>
<text text-anchor="start" x="963" y="-385.5" font-family="Helvetica,sans-Serif" font-size="10.00">/vsomeip/implementation</text>
<text text-anchor="start" x="963" y="-374.5" font-family="Helvetica,sans-Serif" font-size="10.00">/service_discovery/src</text>
<text text-anchor="middle" x="1033.5" y="-363.5" font-family="Helvetica,sans-Serif" font-size="10.00">/message_element_impl.cpp</text>
</a>
</g>
</g>
<!-- Node1&#45;&gt;Node28 -->
<g id="edge44" class="edge">
<title>Node1&#45;&gt;Node28</title>
<path fill="none" stroke="midnightblue" d="M921.58,-440.78C942.03,-430.31 964.8,-418.66 984.44,-408.61"/>
<polygon fill="midnightblue" stroke="midnightblue" points="919.98,-437.66 912.67,-445.34 923.17,-443.9 919.98,-437.66"/>
</g>
<!-- Node3 -->
<g id="node3" class="node">
<title>Node3</title>
<g id="a_node3"><a xlink:href="eventgroupentry__impl_8hpp.html" target="_top" xlink:title=" ">
<polygon fill="white" stroke="black" points="326,-178.5 326,-230.5 475,-230.5 475,-178.5 326,-178.5"/>
<text text-anchor="start" x="334" y="-218.5" font-family="Helvetica,sans-Serif" font-size="10.00">/home/kali/projects</text>
<text text-anchor="start" x="334" y="-207.5" font-family="Helvetica,sans-Serif" font-size="10.00">/vsomeip/implementation</text>
<text text-anchor="start" x="334" y="-196.5" font-family="Helvetica,sans-Serif" font-size="10.00">/service_discovery/include</text>
<text text-anchor="middle" x="400.5" y="-185.5" font-family="Helvetica,sans-Serif" font-size="10.00">/eventgroupentry_impl.hpp</text>
</a>
</g>
</g>
<!-- Node2&#45;&gt;Node3 -->
<g id="edge2" class="edge">
<title>Node2&#45;&gt;Node3</title>
<path fill="none" stroke="midnightblue" d="M332.32,-260.93C344.59,-250.96 357.98,-240.07 369.62,-230.61"/>
<polygon fill="midnightblue" stroke="midnightblue" points="330,-258.31 324.45,-267.34 334.42,-263.74 330,-258.31"/>
</g>
<!-- Node7 -->
<g id="node7" class="node">
<title>Node7</title>
<g id="a_node7"><a xlink:href="serviceentry__impl_8hpp.html" target="_top" xlink:title=" ">
<polygon fill="white" stroke="black" points="161.5,-178.5 161.5,-230.5 307.5,-230.5 307.5,-178.5 161.5,-178.5"/>
<text text-anchor="start" x="169.5" y="-218.5" font-family="Helvetica,sans-Serif" font-size="10.00">/home/kali/projects</text>
<text text-anchor="start" x="169.5" y="-207.5" font-family="Helvetica,sans-Serif" font-size="10.00">/vsomeip/implementation</text>
<text text-anchor="start" x="169.5" y="-196.5" font-family="Helvetica,sans-Serif" font-size="10.00">/service_discovery/include</text>
<text text-anchor="middle" x="234.5" y="-185.5" font-family="Helvetica,sans-Serif" font-size="10.00">/serviceentry_impl.hpp</text>
</a>
</g>
</g>
<!-- Node2&#45;&gt;Node7 -->
<g id="edge6" class="edge">
<title>Node2&#45;&gt;Node7</title>
<path fill="none" stroke="midnightblue" d="M270.73,-258.93C264.35,-249.51 257.52,-239.44 251.53,-230.61"/>
<polygon fill="midnightblue" stroke="midnightblue" points="267.93,-261.02 276.43,-267.34 273.72,-257.1 267.93,-261.02"/>
</g>
<!-- Node9 -->
<g id="node9" class="node">
<title>Node9</title>
<g id="a_node9"><a xlink:href="entry__impl_8cpp.html" target="_top" xlink:title=" ">
<polygon fill="white" stroke="black" points="0,-178.5 0,-230.5 143,-230.5 143,-178.5 0,-178.5"/>
<text text-anchor="start" x="8" y="-218.5" font-family="Helvetica,sans-Serif" font-size="10.00">/home/kali/projects</text>
<text text-anchor="start" x="8" y="-207.5" font-family="Helvetica,sans-Serif" font-size="10.00">/vsomeip/implementation</text>
<text text-anchor="start" x="8" y="-196.5" font-family="Helvetica,sans-Serif" font-size="10.00">/service_discovery/src</text>
<text text-anchor="middle" x="71.5" y="-185.5" font-family="Helvetica,sans-Serif" font-size="10.00">/entry_impl.cpp</text>
</a>
</g>
</g>
<!-- Node2&#45;&gt;Node9 -->
<g id="edge10" class="edge">
<title>Node2&#45;&gt;Node9</title>
<path fill="none" stroke="midnightblue" d="M220.05,-263.72C192.66,-252.98 161.81,-240.89 135.35,-230.52"/>
<polygon fill="midnightblue" stroke="midnightblue" points="219,-267.06 229.59,-267.45 221.55,-260.55 219,-267.06"/>
</g>
<!-- Node4 -->
<g id="node4" class="node">
<title>Node4</title>
<g id="a_node4"><a xlink:href="eventgroupentry__impl_8cpp.html" target="_top" xlink:title=" ">
<polygon fill="white" stroke="black" points="1280.5,-89.5 1280.5,-141.5 1428.5,-141.5 1428.5,-89.5 1280.5,-89.5"/>
<text text-anchor="start" x="1288.5" y="-129.5" font-family="Helvetica,sans-Serif" font-size="10.00">/home/kali/projects</text>
<text text-anchor="start" x="1288.5" y="-118.5" font-family="Helvetica,sans-Serif" font-size="10.00">/vsomeip/implementation</text>
<text text-anchor="start" x="1288.5" y="-107.5" font-family="Helvetica,sans-Serif" font-size="10.00">/service_discovery/src</text>
<text text-anchor="middle" x="1354.5" y="-96.5" font-family="Helvetica,sans-Serif" font-size="10.00">/eventgroupentry_impl.cpp</text>
</a>
</g>
</g>
<!-- Node3&#45;&gt;Node4 -->
<g id="edge3" class="edge">
<title>Node3&#45;&gt;Node4</title>
<path fill="none" stroke="midnightblue" d="M485.18,-183.87C497.32,-181.58 509.69,-179.52 521.5,-178 852.05,-135.5 942.11,-198.84 1270.5,-142 1273.65,-141.45 1276.86,-140.83 1280.08,-140.13"/>
<polygon fill="midnightblue" stroke="midnightblue" points="484.2,-180.49 475.06,-185.84 485.54,-187.36 484.2,-180.49"/>
</g>
<!-- Node5 -->
<g id="node5" class="node">
<title>Node5</title>
<g id="a_node5"><a xlink:href="service__discovery_2src_2message__impl_8cpp.html" target="_top" xlink:title=" ">
<polygon fill="white" stroke="black" points="852,-89.5 852,-141.5 995,-141.5 995,-89.5 852,-89.5"/>
<text text-anchor="start" x="860" y="-129.5" font-family="Helvetica,sans-Serif" font-size="10.00">/home/kali/projects</text>
<text text-anchor="start" x="860" y="-118.5" font-family="Helvetica,sans-Serif" font-size="10.00">/vsomeip/implementation</text>
<text text-anchor="start" x="860" y="-107.5" font-family="Helvetica,sans-Serif" font-size="10.00">/service_discovery/src</text>
<text text-anchor="middle" x="923.5" y="-96.5" font-family="Helvetica,sans-Serif" font-size="10.00">/message_impl.cpp</text>
</a>
</g>
</g>
<!-- Node3&#45;&gt;Node5 -->
<g id="edge4" class="edge">
<title>Node3&#45;&gt;Node5</title>
<path fill="none" stroke="midnightblue" d="M485.22,-178.72C486.32,-178.47 487.41,-178.23 488.5,-178 523.22,-170.55 737.67,-141.39 851.95,-126.05"/>
<polygon fill="midnightblue" stroke="midnightblue" points="484.14,-175.38 475.21,-181.07 485.74,-182.19 484.14,-175.38"/>
</g>
<!-- Node6 -->
<g id="node6" class="node">
<title>Node6</title>
<g id="a_node6"><a xlink:href="service__discovery__impl_8cpp.html" target="_top" xlink:title=" ">
<polygon fill="white" stroke="black" points="1194,-0.5 1194,-52.5 1349,-52.5 1349,-0.5 1194,-0.5"/>
<text text-anchor="start" x="1202" y="-40.5" font-family="Helvetica,sans-Serif" font-size="10.00">/home/kali/projects</text>
<text text-anchor="start" x="1202" y="-29.5" font-family="Helvetica,sans-Serif" font-size="10.00">/vsomeip/implementation</text>
<text text-anchor="start" x="1202" y="-18.5" font-family="Helvetica,sans-Serif" font-size="10.00">/service_discovery/src</text>
<text text-anchor="middle" x="1271.5" y="-7.5" font-family="Helvetica,sans-Serif" font-size="10.00">/service_discovery_impl.cpp</text>
</a>
</g>
</g>
<!-- Node3&#45;&gt;Node6 -->
<g id="edge5" class="edge">
<title>Node3&#45;&gt;Node6</title>
<path fill="none" stroke="midnightblue" d="M485.1,-178.59C573.59,-153.25 716.83,-114.2 842.5,-89 964.41,-64.55 1107.69,-46.04 1193.95,-35.99"/>
<polygon fill="midnightblue" stroke="midnightblue" points="484.03,-175.26 475.38,-181.38 485.96,-181.99 484.03,-175.26"/>
</g>
<!-- Node7&#45;&gt;Node5 -->
<g id="edge7" class="edge">
<title>Node7&#45;&gt;Node5</title>
<path fill="none" stroke="midnightblue" d="M317.61,-177.95C515.07,-138.56 739.39,-124.23 851.78,-119.11"/>
<polygon fill="midnightblue" stroke="midnightblue" points="316.74,-174.55 307.63,-179.96 318.12,-181.41 316.74,-174.55"/>
</g>
<!-- Node7&#45;&gt;Node6 -->
<g id="edge8" class="edge">
<title>Node7&#45;&gt;Node6</title>
<path fill="none" stroke="midnightblue" d="M313.22,-175.15C390.43,-148.54 512.04,-109.8 620.5,-89 825.23,-49.73 1071.2,-35.16 1193.91,-30.05"/>
<polygon fill="midnightblue" stroke="midnightblue" points="311.86,-171.92 303.56,-178.5 314.15,-178.53 311.86,-171.92"/>
</g>
<!-- Node8 -->
<g id="node8" class="node">
<title>Node8</title>
<g id="a_node8"><a xlink:href="serviceentry__impl_8cpp.html" target="_top" xlink:title=" ">
<polygon fill="white" stroke="black" points="163,-89.5 163,-141.5 306,-141.5 306,-89.5 163,-89.5"/>
<text text-anchor="start" x="171" y="-129.5" font-family="Helvetica,sans-Serif" font-size="10.00">/home/kali/projects</text>
<text text-anchor="start" x="171" y="-118.5" font-family="Helvetica,sans-Serif" font-size="10.00">/vsomeip/implementation</text>
<text text-anchor="start" x="171" y="-107.5" font-family="Helvetica,sans-Serif" font-size="10.00">/service_discovery/src</text>
<text text-anchor="middle" x="234.5" y="-96.5" font-family="Helvetica,sans-Serif" font-size="10.00">/serviceentry_impl.cpp</text>
</a>
</g>
</g>
<!-- Node7&#45;&gt;Node8 -->
<g id="edge9" class="edge">
<title>Node7&#45;&gt;Node8</title>
<path fill="none" stroke="midnightblue" d="M234.5,-168.19C234.5,-159.28 234.5,-149.9 234.5,-141.61"/>
<polygon fill="midnightblue" stroke="midnightblue" points="231,-168.34 234.5,-178.34 238,-168.34 231,-168.34"/>
</g>
<!-- Node11 -->
<g id="node11" class="node">
<title>Node11</title>
<g id="a_node11"><a xlink:href="configuration__option__impl_8hpp.html" target="_top" xlink:title=" ">
<polygon fill="white" stroke="black" points="970,-267.5 970,-319.5 1137,-319.5 1137,-267.5 970,-267.5"/>
<text text-anchor="start" x="978" y="-307.5" font-family="Helvetica,sans-Serif" font-size="10.00">/home/kali/projects</text>
<text text-anchor="start" x="978" y="-296.5" font-family="Helvetica,sans-Serif" font-size="10.00">/vsomeip/implementation</text>
<text text-anchor="start" x="978" y="-285.5" font-family="Helvetica,sans-Serif" font-size="10.00">/service_discovery/include</text>
<text text-anchor="middle" x="1053.5" y="-274.5" font-family="Helvetica,sans-Serif" font-size="10.00">/configuration_option_impl.hpp</text>
</a>
</g>
</g>
<!-- Node10&#45;&gt;Node11 -->
<g id="edge12" class="edge">
<title>Node10&#45;&gt;Node11</title>
<path fill="none" stroke="midnightblue" d="M927.59,-352.15C950.73,-341.56 976.6,-329.71 998.86,-319.52"/>
<polygon fill="midnightblue" stroke="midnightblue" points="925.84,-349.11 918.2,-356.45 928.75,-355.47 925.84,-349.11"/>
</g>
<!-- Node13 -->
<g id="node13" class="node">
<title>Node13</title>
<g id="a_node13"><a xlink:href="ip__option__impl_8hpp.html" target="_top" xlink:title=" ">
<polygon fill="white" stroke="black" points="1483.5,-267.5 1483.5,-319.5 1629.5,-319.5 1629.5,-267.5 1483.5,-267.5"/>
<text text-anchor="start" x="1491.5" y="-307.5" font-family="Helvetica,sans-Serif" font-size="10.00">/home/kali/projects</text>
<text text-anchor="start" x="1491.5" y="-296.5" font-family="Helvetica,sans-Serif" font-size="10.00">/vsomeip/implementation</text>
<text text-anchor="start" x="1491.5" y="-285.5" font-family="Helvetica,sans-Serif" font-size="10.00">/service_discovery/include</text>
<text text-anchor="middle" x="1556.5" y="-274.5" font-family="Helvetica,sans-Serif" font-size="10.00">/ip_option_impl.hpp</text>
</a>
</g>
</g>
<!-- Node10&#45;&gt;Node13 -->
<g id="edge15" class="edge">
<title>Node10&#45;&gt;Node13</title>
<path fill="none" stroke="midnightblue" d="M946.77,-355.97C1063.94,-333.97 1348.39,-310.47 1483.37,-300.01"/>
<polygon fill="midnightblue" stroke="midnightblue" points="945.77,-352.6 936.63,-357.96 947.11,-359.47 945.77,-352.6"/>
</g>
<!-- Node21 -->
<g id="node21" class="node">
<title>Node21</title>
<g id="a_node21"><a xlink:href="load__balancing__option__impl_8hpp.html" target="_top" xlink:title=" ">
<polygon fill="white" stroke="black" points="775,-267.5 775,-319.5 952,-319.5 952,-267.5 775,-267.5"/>
<text text-anchor="start" x="783" y="-307.5" font-family="Helvetica,sans-Serif" font-size="10.00">/home/kali/projects</text>
<text text-anchor="start" x="783" y="-296.5" font-family="Helvetica,sans-Serif" font-size="10.00">/vsomeip/implementation</text>
<text text-anchor="start" x="783" y="-285.5" font-family="Helvetica,sans-Serif" font-size="10.00">/service_discovery/include</text>
<text text-anchor="middle" x="863.5" y="-274.5" font-family="Helvetica,sans-Serif" font-size="10.00">/load_balancing_option_impl.hpp</text>
</a>
</g>
</g>
<!-- Node10&#45;&gt;Node21 -->
<g id="edge32" class="edge">
<title>Node10&#45;&gt;Node21</title>
<path fill="none" stroke="midnightblue" d="M863.5,-346.19C863.5,-337.28 863.5,-327.9 863.5,-319.61"/>
<polygon fill="midnightblue" stroke="midnightblue" points="860,-346.34 863.5,-356.34 867,-346.34 860,-346.34"/>
</g>
<!-- Node23 -->
<g id="node23" class="node">
<title>Node23</title>
<g id="a_node23"><a xlink:href="protection__option__impl_8hpp.html" target="_top" xlink:title=" ">
<polygon fill="white" stroke="black" points="443,-267.5 443,-319.5 596,-319.5 596,-267.5 443,-267.5"/>
<text text-anchor="start" x="451" y="-307.5" font-family="Helvetica,sans-Serif" font-size="10.00">/home/kali/projects</text>
<text text-anchor="start" x="451" y="-296.5" font-family="Helvetica,sans-Serif" font-size="10.00">/vsomeip/implementation</text>
<text text-anchor="start" x="451" y="-285.5" font-family="Helvetica,sans-Serif" font-size="10.00">/service_discovery/include</text>
<text text-anchor="middle" x="519.5" y="-274.5" font-family="Helvetica,sans-Serif" font-size="10.00">/protection_option_impl.hpp</text>
</a>
</g>
</g>
<!-- Node10&#45;&gt;Node23 -->
<g id="edge35" class="edge">
<title>Node10&#45;&gt;Node23</title>
<path fill="none" stroke="midnightblue" d="M780.39,-363.06C729.44,-351.44 662.98,-335.7 604.5,-320 601.82,-319.28 599.1,-318.54 596.35,-317.77"/>
<polygon fill="midnightblue" stroke="midnightblue" points="779.84,-366.53 790.37,-365.33 781.39,-359.7 779.84,-366.53"/>
</g>
<!-- Node25 -->
<g id="node25" class="node">
<title>Node25</title>
<g id="a_node25"><a xlink:href="selective__option__impl_8hpp.html" target="_top" xlink:title=" ">
<polygon fill="white" stroke="black" points="1155.5,-178.5 1155.5,-230.5 1303.5,-230.5 1303.5,-178.5 1155.5,-178.5"/>
<text text-anchor="start" x="1163.5" y="-218.5" font-family="Helvetica,sans-Serif" font-size="10.00">/home/kali/projects</text>
<text text-anchor="start" x="1163.5" y="-207.5" font-family="Helvetica,sans-Serif" font-size="10.00">/vsomeip/implementation</text>
<text text-anchor="start" x="1163.5" y="-196.5" font-family="Helvetica,sans-Serif" font-size="10.00">/service_discovery/include</text>
<text text-anchor="middle" x="1229.5" y="-185.5" font-family="Helvetica,sans-Serif" font-size="10.00">/selective_option_impl.hpp</text>
</a>
</g>
</g>
<!-- Node10&#45;&gt;Node25 -->
<g id="edge38" class="edge">
<title>Node10&#45;&gt;Node25</title>
<path fill="none" stroke="midnightblue" d="M946.65,-355.95C1035.79,-336.79 1071.57,-366.14 1145.5,-320 1179.8,-298.59 1204.63,-257.62 1218.04,-230.94"/>
<polygon fill="midnightblue" stroke="midnightblue" points="945.65,-352.59 936.69,-358.25 947.22,-359.41 945.65,-352.59"/>
</g>
<!-- Node27 -->
<g id="node27" class="node">
<title>Node27</title>
<g id="a_node27"><a xlink:href="option__impl_8cpp.html" target="_top" xlink:title=" ">
<polygon fill="white" stroke="black" points="614,-267.5 614,-319.5 757,-319.5 757,-267.5 614,-267.5"/>
<text text-anchor="start" x="622" y="-307.5" font-family="Helvetica,sans-Serif" font-size="10.00">/home/kali/projects</text>
<text text-anchor="start" x="622" y="-296.5" font-family="Helvetica,sans-Serif" font-size="10.00">/vsomeip/implementation</text>
<text text-anchor="start" x="622" y="-285.5" font-family="Helvetica,sans-Serif" font-size="10.00">/service_discovery/src</text>
<text text-anchor="middle" x="685.5" y="-274.5" font-family="Helvetica,sans-Serif" font-size="10.00">/option_impl.cpp</text>
</a>
</g>
</g>
<!-- Node10&#45;&gt;Node27 -->
<g id="edge43" class="edge">
<title>Node10&#45;&gt;Node27</title>
<path fill="none" stroke="midnightblue" d="M802.97,-351.92C781.48,-341.41 757.52,-329.7 736.87,-319.61"/>
<polygon fill="midnightblue" stroke="midnightblue" points="801.49,-355.09 812.02,-356.34 804.57,-348.8 801.49,-355.09"/>
</g>
<!-- Node11&#45;&gt;Node5 -->
<g id="edge14" class="edge">
<title>Node11&#45;&gt;Node5</title>
<path fill="none" stroke="midnightblue" d="M993.99,-261.82C981.58,-253.21 969.54,-242.9 960.5,-231 940.41,-204.55 931,-166.79 926.76,-141.97"/>
<polygon fill="midnightblue" stroke="midnightblue" points="992.34,-264.92 1002.61,-267.5 996.19,-259.07 992.34,-264.92"/>
</g>
<!-- Node12 -->
<g id="node12" class="node">
<title>Node12</title>
<g id="a_node12"><a xlink:href="configuration__option__impl_8cpp.html" target="_top" xlink:title=" ">
<polygon fill="white" stroke="black" points="970,-178.5 970,-230.5 1137,-230.5 1137,-178.5 970,-178.5"/>
<text text-anchor="start" x="978" y="-218.5" font-family="Helvetica,sans-Serif" font-size="10.00">/home/kali/projects</text>
<text text-anchor="start" x="978" y="-207.5" font-family="Helvetica,sans-Serif" font-size="10.00">/vsomeip/implementation</text>
<text text-anchor="start" x="978" y="-196.5" font-family="Helvetica,sans-Serif" font-size="10.00">/service_discovery/src</text>
<text text-anchor="middle" x="1053.5" y="-185.5" font-family="Helvetica,sans-Serif" font-size="10.00">/configuration_option_impl.cpp</text>
</a>
</g>
</g>
<!-- Node11&#45;&gt;Node12 -->
<g id="edge13" class="edge">
<title>Node11&#45;&gt;Node12</title>
<path fill="none" stroke="midnightblue" d="M1053.5,-257.19C1053.5,-248.28 1053.5,-238.9 1053.5,-230.61"/>
<polygon fill="midnightblue" stroke="midnightblue" points="1050,-257.34 1053.5,-267.34 1057,-257.34 1050,-257.34"/>
</g>
<!-- Node14 -->
<g id="node14" class="node">
<title>Node14</title>
<g id="a_node14"><a xlink:href="ipv4__option__impl_8hpp.html" target="_top" xlink:title=" ">
<polygon fill="white" stroke="black" points="1647.5,-178.5 1647.5,-230.5 1793.5,-230.5 1793.5,-178.5 1647.5,-178.5"/>
<text text-anchor="start" x="1655.5" y="-218.5" font-family="Helvetica,sans-Serif" font-size="10.00">/home/kali/projects</text>
<text text-anchor="start" x="1655.5" y="-207.5" font-family="Helvetica,sans-Serif" font-size="10.00">/vsomeip/implementation</text>
<text text-anchor="start" x="1655.5" y="-196.5" font-family="Helvetica,sans-Serif" font-size="10.00">/service_discovery/include</text>
<text text-anchor="middle" x="1720.5" y="-185.5" font-family="Helvetica,sans-Serif" font-size="10.00">/ipv4_option_impl.hpp</text>
</a>
</g>
</g>
<!-- Node13&#45;&gt;Node14 -->
<g id="edge16" class="edge">
<title>Node13&#45;&gt;Node14</title>
<path fill="none" stroke="midnightblue" d="M1612.8,-262.64C1632.46,-252.2 1654.31,-240.61 1673.17,-230.61"/>
<polygon fill="midnightblue" stroke="midnightblue" points="1611.13,-259.56 1603.94,-267.34 1614.41,-265.74 1611.13,-259.56"/>
</g>
<!-- Node15 -->
<g id="node15" class="node">
<title>Node15</title>
<g id="a_node15"><a xlink:href="service__discovery__impl_8hpp.html" target="_top" xlink:title=" ">
<polygon fill="white" stroke="black" points="1685,-89.5 1685,-141.5 1840,-141.5 1840,-89.5 1685,-89.5"/>
<text text-anchor="start" x="1693" y="-129.5" font-family="Helvetica,sans-Serif" font-size="10.00">/home/kali/projects</text>
<text text-anchor="start" x="1693" y="-118.5" font-family="Helvetica,sans-Serif" font-size="10.00">/vsomeip/implementation</text>
<text text-anchor="start" x="1693" y="-107.5" font-family="Helvetica,sans-Serif" font-size="10.00">/service_discovery/include</text>
<text text-anchor="middle" x="1762.5" y="-96.5" font-family="Helvetica,sans-Serif" font-size="10.00">/service_discovery_impl.hpp</text>
</a>
</g>
</g>
<!-- Node13&#45;&gt;Node15 -->
<g id="edge30" class="edge">
<title>Node13&#45;&gt;Node15</title>
<path fill="none" stroke="midnightblue" d="M1639.8,-282.67C1703.03,-273.29 1782.41,-256.73 1802.5,-231 1823.23,-204.44 1802.43,-166.36 1783.9,-141.53"/>
<polygon fill="midnightblue" stroke="midnightblue" points="1639.2,-279.22 1629.8,-284.11 1640.2,-286.15 1639.2,-279.22"/>
</g>
<!-- Node18 -->
<g id="node18" class="node">
<title>Node18</title>
<g id="a_node18"><a xlink:href="ipv6__option__impl_8hpp.html" target="_top" xlink:title=" ">
<polygon fill="white" stroke="black" points="1483.5,-178.5 1483.5,-230.5 1629.5,-230.5 1629.5,-178.5 1483.5,-178.5"/>
<text text-anchor="start" x="1491.5" y="-218.5" font-family="Helvetica,sans-Serif" font-size="10.00">/home/kali/projects</text>
<text text-anchor="start" x="1491.5" y="-207.5" font-family="Helvetica,sans-Serif" font-size="10.00">/vsomeip/implementation</text>
<text text-anchor="start" x="1491.5" y="-196.5" font-family="Helvetica,sans-Serif" font-size="10.00">/service_discovery/include</text>
<text text-anchor="middle" x="1556.5" y="-185.5" font-family="Helvetica,sans-Serif" font-size="10.00">/ipv6_option_impl.hpp</text>
</a>
</g>
</g>
<!-- Node13&#45;&gt;Node18 -->
<g id="edge24" class="edge">
<title>Node13&#45;&gt;Node18</title>
<path fill="none" stroke="midnightblue" d="M1556.5,-257.19C1556.5,-248.28 1556.5,-238.9 1556.5,-230.61"/>
<polygon fill="midnightblue" stroke="midnightblue" points="1553,-257.34 1556.5,-267.34 1560,-257.34 1553,-257.34"/>
</g>
<!-- Node20 -->
<g id="node20" class="node">
<title>Node20</title>
<g id="a_node20"><a xlink:href="ip__option__impl_8cpp.html" target="_top" xlink:title=" ">
<polygon fill="white" stroke="black" points="1322,-178.5 1322,-230.5 1465,-230.5 1465,-178.5 1322,-178.5"/>
<text text-anchor="start" x="1330" y="-218.5" font-family="Helvetica,sans-Serif" font-size="10.00">/home/kali/projects</text>
<text text-anchor="start" x="1330" y="-207.5" font-family="Helvetica,sans-Serif" font-size="10.00">/vsomeip/implementation</text>
<text text-anchor="start" x="1330" y="-196.5" font-family="Helvetica,sans-Serif" font-size="10.00">/service_discovery/src</text>
<text text-anchor="middle" x="1393.5" y="-185.5" font-family="Helvetica,sans-Serif" font-size="10.00">/ip_option_impl.cpp</text>
</a>
</g>
</g>
<!-- Node13&#45;&gt;Node20 -->
<g id="edge31" class="edge">
<title>Node13&#45;&gt;Node20</title>
<path fill="none" stroke="midnightblue" d="M1500.28,-262.49C1480.81,-252.1 1459.2,-240.57 1440.54,-230.61"/>
<polygon fill="midnightblue" stroke="midnightblue" points="1498.88,-265.71 1509.35,-267.34 1502.18,-259.54 1498.88,-265.71"/>
</g>
<!-- Node14&#45;&gt;Node4 -->
<g id="edge20" class="edge">
<title>Node14&#45;&gt;Node4</title>
<path fill="none" stroke="midnightblue" d="M1637.54,-177.93C1598.42,-168.43 1498.94,-147.14 1428.67,-132.21"/>
<polygon fill="midnightblue" stroke="midnightblue" points="1636.72,-181.33 1647.27,-180.38 1638.43,-174.54 1636.72,-181.33"/>
</g>
<!-- Node14&#45;&gt;Node5 -->
<g id="edge22" class="edge">
<title>Node14&#45;&gt;Node5</title>
<path fill="none" stroke="midnightblue" d="M1637.56,-178.02C1403.33,-135.32 1338.43,-166.15 1105.5,-142 1069,-138.22 1028.57,-132.69 995.1,-127.74"/>
<polygon fill="midnightblue" stroke="midnightblue" points="1636.93,-181.46 1647.4,-179.84 1638.2,-174.58 1636.93,-181.46"/>
</g>
<!-- Node14&#45;&gt;Node6 -->
<g id="edge23" class="edge">
<title>Node14&#45;&gt;Node6</title>
<path fill="none" stroke="midnightblue" d="M1696.5,-170.08C1672.37,-136.52 1638.57,-89.66 1637.5,-89 1590.47,-59.84 1441.81,-42.13 1349.05,-33.62"/>
<polygon fill="midnightblue" stroke="midnightblue" points="1693.72,-172.21 1702.4,-178.29 1699.41,-168.13 1693.72,-172.21"/>
</g>
<!-- Node14&#45;&gt;Node15 -->
<g id="edge17" class="edge">
<title>Node14&#45;&gt;Node15</title>
<path fill="none" stroke="midnightblue" d="M1737.13,-169.06C1741.55,-159.9 1746.25,-150.17 1750.38,-141.61"/>
<polygon fill="midnightblue" stroke="midnightblue" points="1733.84,-167.81 1732.65,-178.34 1740.15,-170.85 1733.84,-167.81"/>
</g>
<!-- Node17 -->
<g id="node17" class="node">
<title>Node17</title>
<g id="a_node17"><a xlink:href="ipv4__option__impl_8cpp.html" target="_top" xlink:title=" ">
<polygon fill="white" stroke="black" points="1858,-89.5 1858,-141.5 2001,-141.5 2001,-89.5 1858,-89.5"/>
<text text-anchor="start" x="1866" y="-129.5" font-family="Helvetica,sans-Serif" font-size="10.00">/home/kali/projects</text>
<text text-anchor="start" x="1866" y="-118.5" font-family="Helvetica,sans-Serif" font-size="10.00">/vsomeip/implementation</text>
<text text-anchor="start" x="1866" y="-107.5" font-family="Helvetica,sans-Serif" font-size="10.00">/service_discovery/src</text>
<text text-anchor="middle" x="1929.5" y="-96.5" font-family="Helvetica,sans-Serif" font-size="10.00">/ipv4_option_impl.cpp</text>
</a>
</g>
</g>
<!-- Node14&#45;&gt;Node17 -->
<g id="edge21" class="edge">
<title>Node14&#45;&gt;Node17</title>
<path fill="none" stroke="midnightblue" d="M1789.98,-174.58C1815.69,-163.88 1844.59,-151.85 1869.39,-141.52"/>
<polygon fill="midnightblue" stroke="midnightblue" points="1788.56,-171.38 1780.67,-178.45 1791.25,-177.84 1788.56,-171.38"/>
</g>
<!-- Node15&#45;&gt;Node6 -->
<g id="edge19" class="edge">
<title>Node15&#45;&gt;Node6</title>
<path fill="none" stroke="midnightblue" d="M1674.94,-89.97C1673.45,-89.64 1671.97,-89.32 1670.5,-89 1559.83,-65.22 1430,-46.97 1349.23,-36.73"/>
<polygon fill="midnightblue" stroke="midnightblue" points="1674.33,-93.43 1684.86,-92.29 1675.92,-86.61 1674.33,-93.43"/>
</g>
<!-- Node16 -->
<g id="node16" class="node">
<title>Node16</title>
<g id="a_node16"><a xlink:href="service__discovery_2src_2runtime__impl_8cpp.html" target="_top" xlink:title=" ">
<polygon fill="white" stroke="black" points="1691,-0.5 1691,-52.5 1834,-52.5 1834,-0.5 1691,-0.5"/>
<text text-anchor="start" x="1699" y="-40.5" font-family="Helvetica,sans-Serif" font-size="10.00">/home/kali/projects</text>
<text text-anchor="start" x="1699" y="-29.5" font-family="Helvetica,sans-Serif" font-size="10.00">/vsomeip/implementation</text>
<text text-anchor="start" x="1699" y="-18.5" font-family="Helvetica,sans-Serif" font-size="10.00">/service_discovery/src</text>
<text text-anchor="middle" x="1762.5" y="-7.5" font-family="Helvetica,sans-Serif" font-size="10.00">/runtime_impl.cpp</text>
</a>
</g>
</g>
<!-- Node15&#45;&gt;Node16 -->
<g id="edge18" class="edge">
<title>Node15&#45;&gt;Node16</title>
<path fill="none" stroke="midnightblue" d="M1762.5,-79.19C1762.5,-70.28 1762.5,-60.9 1762.5,-52.61"/>
<polygon fill="midnightblue" stroke="midnightblue" points="1759,-79.34 1762.5,-89.34 1766,-79.34 1759,-79.34"/>
</g>
<!-- Node18&#45;&gt;Node4 -->
<g id="edge26" class="edge">
<title>Node18&#45;&gt;Node4</title>
<path fill="none" stroke="midnightblue" d="M1489.02,-174.44C1464.26,-163.77 1436.46,-151.8 1412.59,-141.52"/>
<polygon fill="midnightblue" stroke="midnightblue" points="1487.78,-177.71 1498.34,-178.45 1490.54,-171.28 1487.78,-177.71"/>
</g>
<!-- Node18&#45;&gt;Node5 -->
<g id="edge28" class="edge">
<title>Node18&#45;&gt;Node5</title>
<path fill="none" stroke="midnightblue" d="M1473.53,-177.98C1311.23,-145.98 1265.93,-161.06 1105.5,-142 1069.06,-137.67 1028.64,-132.09 995.16,-127.25"/>
<polygon fill="midnightblue" stroke="midnightblue" points="1472.88,-181.42 1483.37,-179.95 1474.26,-174.55 1472.88,-181.42"/>
</g>
<!-- Node18&#45;&gt;Node6 -->
<g id="edge29" class="edge">
<title>Node18&#45;&gt;Node6</title>
<path fill="none" stroke="midnightblue" d="M1511.18,-172.18C1499.33,-163.07 1486.96,-152.68 1476.5,-142 1456.04,-121.1 1460.86,-106.6 1437.5,-89 1411.6,-69.49 1378.86,-55.62 1349.31,-46.05"/>
<polygon fill="midnightblue" stroke="midnightblue" points="1509.17,-175.05 1519.27,-178.27 1513.38,-169.46 1509.17,-175.05"/>
</g>
<!-- Node18&#45;&gt;Node15 -->
<g id="edge25" class="edge">
<title>Node18&#45;&gt;Node15</title>
<path fill="none" stroke="midnightblue" d="M1625.32,-174.44C1650.57,-163.77 1678.92,-151.8 1703.25,-141.52"/>
<polygon fill="midnightblue" stroke="midnightblue" points="1623.66,-171.34 1615.81,-178.45 1626.38,-177.79 1623.66,-171.34"/>
</g>
<!-- Node19 -->
<g id="node19" class="node">
<title>Node19</title>
<g id="a_node19"><a xlink:href="ipv6__option__impl_8cpp.html" target="_top" xlink:title=" ">
<polygon fill="white" stroke="black" points="1485,-89.5 1485,-141.5 1628,-141.5 1628,-89.5 1485,-89.5"/>
<text text-anchor="start" x="1493" y="-129.5" font-family="Helvetica,sans-Serif" font-size="10.00">/home/kali/projects</text>
<text text-anchor="start" x="1493" y="-118.5" font-family="Helvetica,sans-Serif" font-size="10.00">/vsomeip/implementation</text>
<text text-anchor="start" x="1493" y="-107.5" font-family="Helvetica,sans-Serif" font-size="10.00">/service_discovery/src</text>
<text text-anchor="middle" x="1556.5" y="-96.5" font-family="Helvetica,sans-Serif" font-size="10.00">/ipv6_option_impl.cpp</text>
</a>
</g>
</g>
<!-- Node18&#45;&gt;Node19 -->
<g id="edge27" class="edge">
<title>Node18&#45;&gt;Node19</title>
<path fill="none" stroke="midnightblue" d="M1556.5,-168.19C1556.5,-159.28 1556.5,-149.9 1556.5,-141.61"/>
<polygon fill="midnightblue" stroke="midnightblue" points="1553,-168.34 1556.5,-178.34 1560,-168.34 1553,-168.34"/>
</g>
<!-- Node21&#45;&gt;Node5 -->
<g id="edge34" class="edge">
<title>Node21&#45;&gt;Node5</title>
<path fill="none" stroke="midnightblue" d="M876.05,-257.87C879.17,-249.12 882.49,-239.72 885.5,-231 896.08,-200.31 907.78,-164.81 915.36,-141.57"/>
<polygon fill="midnightblue" stroke="midnightblue" points="872.71,-256.82 872.62,-267.41 879.29,-259.18 872.71,-256.82"/>
</g>
<!-- Node22 -->
<g id="node22" class="node">
<title>Node22</title>
<g id="a_node22"><a xlink:href="load__balancing__option__impl_8cpp.html" target="_top" xlink:title=" ">
<polygon fill="white" stroke="black" points="700.5,-178.5 700.5,-230.5 876.5,-230.5 876.5,-178.5 700.5,-178.5"/>
<text text-anchor="start" x="708.5" y="-218.5" font-family="Helvetica,sans-Serif" font-size="10.00">/home/kali/projects</text>
<text text-anchor="start" x="708.5" y="-207.5" font-family="Helvetica,sans-Serif" font-size="10.00">/vsomeip/implementation</text>
<text text-anchor="start" x="708.5" y="-196.5" font-family="Helvetica,sans-Serif" font-size="10.00">/service_discovery/src</text>
<text text-anchor="middle" x="788.5" y="-185.5" font-family="Helvetica,sans-Serif" font-size="10.00">/load_balancing_option_impl.cpp</text>
</a>
</g>
</g>
<!-- Node21&#45;&gt;Node22 -->
<g id="edge33" class="edge">
<title>Node21&#45;&gt;Node22</title>
<path fill="none" stroke="midnightblue" d="M835.05,-259.5C826.8,-249.92 817.91,-239.62 810.14,-230.61"/>
<polygon fill="midnightblue" stroke="midnightblue" points="832.63,-262.05 841.81,-267.34 837.93,-257.48 832.63,-262.05"/>
</g>
<!-- Node23&#45;&gt;Node5 -->
<g id="edge36" class="edge">
<title>Node23&#45;&gt;Node5</title>
<path fill="none" stroke="midnightblue" d="M509.32,-257.45C504.35,-232.34 502.87,-199.32 521.5,-178 526.92,-171.8 737.8,-142 851.9,-126.27"/>
<polygon fill="midnightblue" stroke="midnightblue" points="505.94,-258.34 511.54,-267.33 512.77,-256.81 505.94,-258.34"/>
</g>
<!-- Node24 -->
<g id="node24" class="node">
<title>Node24</title>
<g id="a_node24"><a xlink:href="protection__option__impl_8cpp.html" target="_top" xlink:title=" ">
<polygon fill="white" stroke="black" points="530.5,-178.5 530.5,-230.5 682.5,-230.5 682.5,-178.5 530.5,-178.5"/>
<text text-anchor="start" x="538.5" y="-218.5" font-family="Helvetica,sans-Serif" font-size="10.00">/home/kali/projects</text>
<text text-anchor="start" x="538.5" y="-207.5" font-family="Helvetica,sans-Serif" font-size="10.00">/vsomeip/implementation</text>
<text text-anchor="start" x="538.5" y="-196.5" font-family="Helvetica,sans-Serif" font-size="10.00">/service_discovery/src</text>
<text text-anchor="middle" x="606.5" y="-185.5" font-family="Helvetica,sans-Serif" font-size="10.00">/protection_option_impl.cpp</text>
</a>
</g>
</g>
<!-- Node23&#45;&gt;Node24 -->
<g id="edge37" class="edge">
<title>Node23&#45;&gt;Node24</title>
<path fill="none" stroke="midnightblue" d="M551.92,-260.08C561.66,-250.34 572.2,-239.8 581.39,-230.61"/>
<polygon fill="midnightblue" stroke="midnightblue" points="549.26,-257.79 544.66,-267.34 554.21,-262.74 549.26,-257.79"/>
</g>
<!-- Node25&#45;&gt;Node4 -->
<g id="edge39" class="edge">
<title>Node25&#45;&gt;Node4</title>
<path fill="none" stroke="midnightblue" d="M1274.04,-172.5C1288.59,-162.37 1304.57,-151.25 1318.43,-141.61"/>
<polygon fill="midnightblue" stroke="midnightblue" points="1271.86,-169.75 1265.66,-178.34 1275.86,-175.5 1271.86,-169.75"/>
</g>
<!-- Node25&#45;&gt;Node5 -->
<g id="edge40" class="edge">
<title>Node25&#45;&gt;Node5</title>
<path fill="none" stroke="midnightblue" d="M1145.8,-178.09C1145.7,-178.06 1145.6,-178.03 1145.5,-178 1095.38,-163.45 1038.67,-147.75 995.11,-135.86"/>
<polygon fill="midnightblue" stroke="midnightblue" points="1144.74,-181.43 1155.33,-180.88 1146.71,-174.71 1144.74,-181.43"/>
</g>
<!-- Node25&#45;&gt;Node6 -->
<g id="edge42" class="edge">
<title>Node25&#45;&gt;Node6</title>
<path fill="none" stroke="midnightblue" d="M1146.3,-178.19C1130.11,-169.36 1115.17,-157.59 1105.5,-142 1093.08,-121.98 1092.04,-108.33 1105.5,-89 1125.6,-60.12 1160.93,-44.77 1193.84,-36.62"/>
<polygon fill="midnightblue" stroke="midnightblue" points="1144.9,-181.4 1155.41,-182.8 1148.07,-175.16 1144.9,-181.4"/>
</g>
<!-- Node26 -->
<g id="node26" class="node">
<title>Node26</title>
<g id="a_node26"><a xlink:href="selective__option__impl_8cpp.html" target="_top" xlink:title=" ">
<polygon fill="white" stroke="black" points="1115,-89.5 1115,-141.5 1262,-141.5 1262,-89.5 1115,-89.5"/>
<text text-anchor="start" x="1123" y="-129.5" font-family="Helvetica,sans-Serif" font-size="10.00">/home/kali/projects</text>
<text text-anchor="start" x="1123" y="-118.5" font-family="Helvetica,sans-Serif" font-size="10.00">/vsomeip/implementation</text>
<text text-anchor="start" x="1123" y="-107.5" font-family="Helvetica,sans-Serif" font-size="10.00">/service_discovery/src</text>
<text text-anchor="middle" x="1188.5" y="-96.5" font-family="Helvetica,sans-Serif" font-size="10.00">/selective_option_impl.cpp</text>
</a>
</g>
</g>
<!-- Node25&#45;&gt;Node26 -->
<g id="edge41" class="edge">
<title>Node25&#45;&gt;Node26</title>
<path fill="none" stroke="midnightblue" d="M1213.27,-169.06C1208.95,-159.9 1204.37,-150.17 1200.33,-141.61"/>
<polygon fill="midnightblue" stroke="midnightblue" points="1210.21,-170.78 1217.64,-178.34 1216.54,-167.8 1210.21,-170.78"/>
</g>
</g>
</svg>
