<?xml version="1.0" encoding="UTF-8" standalone="no"?>
<!DOCTYPE svg PUBLIC "-//W3C//DTD SVG 1.1//EN"
 "http://www.w3.org/Graphics/SVG/1.1/DTD/svg11.dtd">
<!-- Generated by graphviz version 2.43.0 (0)
 -->
<!-- Title: /home/kali/projects/vsomeip/implementation/message/include/message_impl.hpp Pages: 1 -->
<svg width="1445pt" height="150pt"
 viewBox="0.00 0.00 1445.00 150.00" xmlns="http://www.w3.org/2000/svg" xmlns:xlink="http://www.w3.org/1999/xlink">
<g id="graph0" class="graph" transform="scale(1 1) rotate(0) translate(4 146)">
<title>/home/kali/projects/vsomeip/implementation/message/include/message_impl.hpp</title>
<polygon fill="white" stroke="transparent" points="-4,4 -4,-146 1441,-146 1441,4 -4,4"/>
<!-- Node1 -->
<g id="node1" class="node">
<title>Node1</title>
<g id="a_node1"><a xlink:title=" ">
<polygon fill="#bfbfbf" stroke="black" points="647.5,-89.5 647.5,-141.5 796.5,-141.5 796.5,-89.5 647.5,-89.5"/>
<text text-anchor="start" x="655.5" y="-129.5" font-family="Helvetica,sans-Serif" font-size="10.00">/home/kali/projects</text>
<text text-anchor="start" x="655.5" y="-118.5" font-family="Helvetica,sans-Serif" font-size="10.00">/vsomeip/implementation</text>
<text text-anchor="start" x="655.5" y="-107.5" font-family="Helvetica,sans-Serif" font-size="10.00">/message/include/message</text>
<text text-anchor="middle" x="722" y="-96.5" font-family="Helvetica,sans-Serif" font-size="10.00">_impl.hpp</text>
</a>
</g>
</g>
<!-- Node2 -->
<g id="node2" class="node">
<title>Node2</title>
<g id="a_node2"><a xlink:href="compat_2message_2src_2message__base__impl_8cpp.html" target="_top" xlink:title=" ">
<polygon fill="white" stroke="black" points="0,-0.5 0,-52.5 168,-52.5 168,-0.5 0,-0.5"/>
<text text-anchor="start" x="8" y="-40.5" font-family="Helvetica,sans-Serif" font-size="10.00">/home/kali/projects</text>
<text text-anchor="start" x="8" y="-29.5" font-family="Helvetica,sans-Serif" font-size="10.00">/vsomeip/implementation</text>
<text text-anchor="start" x="8" y="-18.5" font-family="Helvetica,sans-Serif" font-size="10.00">/compat/message/src/message</text>
<text text-anchor="middle" x="84" y="-7.5" font-family="Helvetica,sans-Serif" font-size="10.00">_base_impl.cpp</text>
</a>
</g>
</g>
<!-- Node1&#45;&gt;Node2 -->
<g id="edge1" class="edge">
<title>Node1&#45;&gt;Node2</title>
<path fill="none" stroke="midnightblue" d="M637.24,-109.03C529.54,-101.15 338.24,-84.01 177,-53 174.04,-52.43 171.04,-51.82 168.01,-51.16"/>
<polygon fill="midnightblue" stroke="midnightblue" points="637.17,-112.54 647.4,-109.77 637.68,-105.55 637.17,-112.54"/>
</g>
<!-- Node3 -->
<g id="node3" class="node">
<title>Node3</title>
<g id="a_node3"><a xlink:href="compat_2message_2src_2message__impl_8cpp.html" target="_top" xlink:title=" ">
<polygon fill="white" stroke="black" points="186,-0.5 186,-52.5 354,-52.5 354,-0.5 186,-0.5"/>
<text text-anchor="start" x="194" y="-40.5" font-family="Helvetica,sans-Serif" font-size="10.00">/home/kali/projects</text>
<text text-anchor="start" x="194" y="-29.5" font-family="Helvetica,sans-Serif" font-size="10.00">/vsomeip/implementation</text>
<text text-anchor="start" x="194" y="-18.5" font-family="Helvetica,sans-Serif" font-size="10.00">/compat/message/src/message</text>
<text text-anchor="middle" x="270" y="-7.5" font-family="Helvetica,sans-Serif" font-size="10.00">_impl.cpp</text>
</a>
</g>
</g>
<!-- Node1&#45;&gt;Node3 -->
<g id="edge2" class="edge">
<title>Node1&#45;&gt;Node3</title>
<path fill="none" stroke="midnightblue" d="M637.26,-102.38C564.22,-91.36 456.15,-73.7 363,-53 360.06,-52.35 357.07,-51.66 354.06,-50.94"/>
<polygon fill="midnightblue" stroke="midnightblue" points="636.92,-105.87 647.33,-103.89 637.96,-98.95 636.92,-105.87"/>
</g>
<!-- Node4 -->
<g id="node4" class="node">
<title>Node4</title>
<g id="a_node4"><a xlink:href="message_2src_2deserializer_8cpp.html" target="_top" xlink:title=" ">
<polygon fill="white" stroke="black" points="372.5,-6 372.5,-47 533.5,-47 533.5,-6 372.5,-6"/>
<text text-anchor="start" x="380.5" y="-35" font-family="Helvetica,sans-Serif" font-size="10.00">/home/kali/projects</text>
<text text-anchor="start" x="380.5" y="-24" font-family="Helvetica,sans-Serif" font-size="10.00">/vsomeip/implementation</text>
<text text-anchor="middle" x="453" y="-13" font-family="Helvetica,sans-Serif" font-size="10.00">/message/src/deserializer.cpp</text>
</a>
</g>
</g>
<!-- Node1&#45;&gt;Node4 -->
<g id="edge3" class="edge">
<title>Node1&#45;&gt;Node4</title>
<path fill="none" stroke="midnightblue" d="M637.89,-87.3C597.64,-74.28 550.35,-58.98 513.67,-47.12"/>
<polygon fill="midnightblue" stroke="midnightblue" points="636.83,-90.63 647.43,-90.38 638.99,-83.97 636.83,-90.63"/>
</g>
<!-- Node5 -->
<g id="node5" class="node">
<title>Node5</title>
<g id="a_node5"><a xlink:href="message_2src_2message__base__impl_8cpp.html" target="_top" xlink:title=" ">
<polygon fill="white" stroke="black" points="551.5,-0.5 551.5,-52.5 708.5,-52.5 708.5,-0.5 551.5,-0.5"/>
<text text-anchor="start" x="559.5" y="-40.5" font-family="Helvetica,sans-Serif" font-size="10.00">/home/kali/projects</text>
<text text-anchor="start" x="559.5" y="-29.5" font-family="Helvetica,sans-Serif" font-size="10.00">/vsomeip/implementation</text>
<text text-anchor="start" x="559.5" y="-18.5" font-family="Helvetica,sans-Serif" font-size="10.00">/message/src/message_base</text>
<text text-anchor="middle" x="630" y="-7.5" font-family="Helvetica,sans-Serif" font-size="10.00">_impl.cpp</text>
</a>
</g>
</g>
<!-- Node1&#45;&gt;Node5 -->
<g id="edge4" class="edge">
<title>Node1&#45;&gt;Node5</title>
<path fill="none" stroke="midnightblue" d="M688.02,-82.36C677.63,-72.54 666.37,-61.89 656.55,-52.61"/>
<polygon fill="midnightblue" stroke="midnightblue" points="685.72,-85.01 695.39,-89.34 690.53,-79.92 685.72,-85.01"/>
</g>
<!-- Node6 -->
<g id="node6" class="node">
<title>Node6</title>
<g id="a_node6"><a xlink:href="message_2src_2message__impl_8cpp.html" target="_top" xlink:title=" ">
<polygon fill="white" stroke="black" points="727,-6 727,-47 903,-47 903,-6 727,-6"/>
<text text-anchor="start" x="735" y="-35" font-family="Helvetica,sans-Serif" font-size="10.00">/home/kali/projects</text>
<text text-anchor="start" x="735" y="-24" font-family="Helvetica,sans-Serif" font-size="10.00">/vsomeip/implementation</text>
<text text-anchor="middle" x="815" y="-13" font-family="Helvetica,sans-Serif" font-size="10.00">/message/src/message_impl.cpp</text>
</a>
</g>
</g>
<!-- Node1&#45;&gt;Node6 -->
<g id="edge5" class="edge">
<title>Node1&#45;&gt;Node6</title>
<path fill="none" stroke="midnightblue" d="M756.55,-82.18C769.15,-70.39 783.01,-57.43 794.07,-47.08"/>
<polygon fill="midnightblue" stroke="midnightblue" points="753.81,-79.95 748.9,-89.34 758.59,-85.06 753.81,-79.95"/>
</g>
<!-- Node7 -->
<g id="node7" class="node">
<title>Node7</title>
<g id="a_node7"><a xlink:href="routing__manager__impl_8cpp.html" target="_top" xlink:title=" ">
<polygon fill="white" stroke="black" points="921,-0.5 921,-52.5 1079,-52.5 1079,-0.5 921,-0.5"/>
<text text-anchor="start" x="929" y="-40.5" font-family="Helvetica,sans-Serif" font-size="10.00">/home/kali/projects</text>
<text text-anchor="start" x="929" y="-29.5" font-family="Helvetica,sans-Serif" font-size="10.00">/vsomeip/implementation</text>
<text text-anchor="start" x="929" y="-18.5" font-family="Helvetica,sans-Serif" font-size="10.00">/routing/src/routing_manager</text>
<text text-anchor="middle" x="1000" y="-7.5" font-family="Helvetica,sans-Serif" font-size="10.00">_impl.cpp</text>
</a>
</g>
</g>
<!-- Node1&#45;&gt;Node7 -->
<g id="edge6" class="edge">
<title>Node1&#45;&gt;Node7</title>
<path fill="none" stroke="midnightblue" d="M806.44,-88.07C842.73,-76.72 884.92,-63.52 920.62,-52.34"/>
<polygon fill="midnightblue" stroke="midnightblue" points="805.36,-84.74 796.86,-91.07 807.45,-91.42 805.36,-84.74"/>
</g>
<!-- Node8 -->
<g id="node8" class="node">
<title>Node8</title>
<g id="a_node8"><a xlink:href="routing__manager__proxy_8cpp.html" target="_top" xlink:title=" ">
<polygon fill="white" stroke="black" points="1097,-0.5 1097,-52.5 1255,-52.5 1255,-0.5 1097,-0.5"/>
<text text-anchor="start" x="1105" y="-40.5" font-family="Helvetica,sans-Serif" font-size="10.00">/home/kali/projects</text>
<text text-anchor="start" x="1105" y="-29.5" font-family="Helvetica,sans-Serif" font-size="10.00">/vsomeip/implementation</text>
<text text-anchor="start" x="1105" y="-18.5" font-family="Helvetica,sans-Serif" font-size="10.00">/routing/src/routing_manager</text>
<text text-anchor="middle" x="1176" y="-7.5" font-family="Helvetica,sans-Serif" font-size="10.00">_proxy.cpp</text>
</a>
</g>
</g>
<!-- Node1&#45;&gt;Node8 -->
<g id="edge7" class="edge">
<title>Node1&#45;&gt;Node8</title>
<path fill="none" stroke="midnightblue" d="M807.07,-103.05C881.6,-92.34 992.6,-74.76 1088,-53 1090.95,-52.33 1093.94,-51.62 1096.96,-50.87"/>
<polygon fill="midnightblue" stroke="midnightblue" points="806.2,-99.64 796.8,-104.52 807.19,-106.57 806.2,-99.64"/>
</g>
<!-- Node9 -->
<g id="node9" class="node">
<title>Node9</title>
<g id="a_node9"><a xlink:href="runtime_2src_2runtime__impl_8cpp.html" target="_top" xlink:title=" ">
<polygon fill="white" stroke="black" points="1273,-6 1273,-47 1437,-47 1437,-6 1273,-6"/>
<text text-anchor="start" x="1281" y="-35" font-family="Helvetica,sans-Serif" font-size="10.00">/home/kali/projects</text>
<text text-anchor="start" x="1281" y="-24" font-family="Helvetica,sans-Serif" font-size="10.00">/vsomeip/implementation</text>
<text text-anchor="middle" x="1355" y="-13" font-family="Helvetica,sans-Serif" font-size="10.00">/runtime/src/runtime_impl.cpp</text>
</a>
</g>
</g>
<!-- Node1&#45;&gt;Node9 -->
<g id="edge8" class="edge">
<title>Node1&#45;&gt;Node9</title>
<path fill="none" stroke="midnightblue" d="M806.77,-109.1C913.99,-101.31 1103.96,-84.29 1264,-53 1272.53,-51.33 1281.44,-49.26 1290.19,-47.03"/>
<polygon fill="midnightblue" stroke="midnightblue" points="806.38,-105.62 796.66,-109.83 806.88,-112.6 806.38,-105.62"/>
</g>
</g>
</svg>
