<?xml version="1.0" encoding="UTF-8" standalone="no"?>
<!DOCTYPE svg PUBLIC "-//W3C//DTD SVG 1.1//EN"
 "http://www.w3.org/Graphics/SVG/1.1/DTD/svg11.dtd">
<!-- Generated by graphviz version 2.43.0 (0)
 -->
<!-- Title: /home/kali/projects/vsomeip/implementation/message/src/message_impl.cpp Pages: 1 -->
<svg width="895pt" height="296pt"
 viewBox="0.00 0.00 894.50 296.00" xmlns="http://www.w3.org/2000/svg" xmlns:xlink="http://www.w3.org/1999/xlink">
<g id="graph0" class="graph" transform="scale(1 1) rotate(0) translate(4 292)">
<title>/home/kali/projects/vsomeip/implementation/message/src/message_impl.cpp</title>
<polygon fill="white" stroke="transparent" points="-4,4 -4,-292 890.5,-292 890.5,4 -4,4"/>
<!-- Node1 -->
<g id="node1" class="node">
<title>Node1</title>
<g id="a_node1"><a xlink:title=" ">
<polygon fill="#bfbfbf" stroke="black" points="315,-246.5 315,-287.5 491,-287.5 491,-246.5 315,-246.5"/>
<text text-anchor="start" x="323" y="-275.5" font-family="Helvetica,sans-Serif" font-size="10.00">/home/kali/projects</text>
<text text-anchor="start" x="323" y="-264.5" font-family="Helvetica,sans-Serif" font-size="10.00">/vsomeip/implementation</text>
<text text-anchor="middle" x="403" y="-253.5" font-family="Helvetica,sans-Serif" font-size="10.00">/message/src/message_impl.cpp</text>
</a>
</g>
</g>
<!-- Node2 -->
<g id="node2" class="node">
<title>Node2</title>
<g id="a_node2"><a xlink:title=" ">
<polygon fill="white" stroke="#bfbfbf" points="0,-185 0,-204 118,-204 118,-185 0,-185"/>
<text text-anchor="middle" x="59" y="-192" font-family="Helvetica,sans-Serif" font-size="10.00">vsomeip/defines.hpp</text>
</a>
</g>
</g>
<!-- Node1&#45;&gt;Node2 -->
<g id="edge1" class="edge">
<title>Node1&#45;&gt;Node2</title>
<path fill="none" stroke="midnightblue" d="M314.7,-248.32C260.51,-237.41 189.71,-223.05 127,-210 121.09,-208.77 114.9,-207.47 108.76,-206.17"/>
<polygon fill="midnightblue" stroke="midnightblue" points="109.05,-202.65 98.54,-204 107.59,-209.5 109.05,-202.65"/>
</g>
<!-- Node3 -->
<g id="node3" class="node">
<title>Node3</title>
<g id="a_node3"><a xlink:title=" ">
<polygon fill="white" stroke="#bfbfbf" points="136,-185 136,-204 258,-204 258,-185 136,-185"/>
<text text-anchor="middle" x="197" y="-192" font-family="Helvetica,sans-Serif" font-size="10.00">vsomeip/payload.hpp</text>
</a>
</g>
</g>
<!-- Node1&#45;&gt;Node3 -->
<g id="edge2" class="edge">
<title>Node1&#45;&gt;Node3</title>
<path fill="none" stroke="midnightblue" d="M345.89,-246.46C309.15,-233.88 262.6,-217.95 231.43,-207.28"/>
<polygon fill="midnightblue" stroke="midnightblue" points="232.47,-203.94 221.87,-204.01 230.2,-210.56 232.47,-203.94"/>
</g>
<!-- Node4 -->
<g id="node4" class="node">
<title>Node4</title>
<g id="a_node4"><a xlink:title=" ">
<polygon fill="white" stroke="#bfbfbf" points="276.5,-185 276.5,-204 397.5,-204 397.5,-185 276.5,-185"/>
<text text-anchor="middle" x="337" y="-192" font-family="Helvetica,sans-Serif" font-size="10.00">vsomeip/runtime.hpp</text>
</a>
</g>
</g>
<!-- Node1&#45;&gt;Node4 -->
<g id="edge3" class="edge">
<title>Node1&#45;&gt;Node4</title>
<path fill="none" stroke="midnightblue" d="M384.62,-246.36C374.38,-235.43 361.8,-221.99 352.14,-211.67"/>
<polygon fill="midnightblue" stroke="midnightblue" points="354.51,-209.08 345.12,-204.17 349.4,-213.87 354.51,-209.08"/>
</g>
<!-- Node5 -->
<g id="node5" class="node">
<title>Node5</title>
<g id="a_node5"><a xlink:href="message_2include_2message__impl_8hpp.html" target="_top" xlink:title=" ">
<polygon fill="white" stroke="black" points="416,-179.5 416,-209.5 524,-209.5 524,-179.5 416,-179.5"/>
<text text-anchor="start" x="424" y="-197.5" font-family="Helvetica,sans-Serif" font-size="10.00">../include/message</text>
<text text-anchor="middle" x="470" y="-186.5" font-family="Helvetica,sans-Serif" font-size="10.00">_impl.hpp</text>
</a>
</g>
</g>
<!-- Node1&#45;&gt;Node5 -->
<g id="edge4" class="edge">
<title>Node1&#45;&gt;Node5</title>
<path fill="none" stroke="midnightblue" d="M421.66,-246.36C430.25,-237.32 440.48,-226.57 449.3,-217.28"/>
<polygon fill="midnightblue" stroke="midnightblue" points="451.97,-219.55 456.32,-209.89 446.9,-214.73 451.97,-219.55"/>
</g>
<!-- Node15 -->
<g id="node15" class="node">
<title>Node15</title>
<g id="a_node15"><a xlink:href="internal_8hpp.html" target="_top" xlink:title=" ">
<polygon fill="white" stroke="black" points="634,-179.5 634,-209.5 750,-209.5 750,-179.5 634,-179.5"/>
<text text-anchor="start" x="642" y="-197.5" font-family="Helvetica,sans-Serif" font-size="10.00">../../configuration</text>
<text text-anchor="middle" x="692" y="-186.5" font-family="Helvetica,sans-Serif" font-size="10.00">/include/internal.hpp</text>
</a>
</g>
</g>
<!-- Node1&#45;&gt;Node15 -->
<g id="edge17" class="edge">
<title>Node1&#45;&gt;Node15</title>
<path fill="none" stroke="midnightblue" d="M483.12,-246.46C527.5,-235.63 582.07,-222.32 624.31,-212.01"/>
<polygon fill="midnightblue" stroke="midnightblue" points="625.33,-215.37 634.21,-209.6 623.67,-208.57 625.33,-215.37"/>
</g>
<!-- Node19 -->
<g id="node19" class="node">
<title>Node19</title>
<g id="a_node19"><a xlink:href="byteorder_8hpp.html" target="_top" xlink:title=" ">
<polygon fill="white" stroke="black" points="768.5,-179.5 768.5,-209.5 869.5,-209.5 869.5,-179.5 768.5,-179.5"/>
<text text-anchor="start" x="776.5" y="-197.5" font-family="Helvetica,sans-Serif" font-size="10.00">../../utility/include</text>
<text text-anchor="middle" x="819" y="-186.5" font-family="Helvetica,sans-Serif" font-size="10.00">/byteorder.hpp</text>
</a>
</g>
</g>
<!-- Node1&#45;&gt;Node19 -->
<g id="edge22" class="edge">
<title>Node1&#45;&gt;Node19</title>
<path fill="none" stroke="midnightblue" d="M491.13,-254.17C560.99,-244.31 661.26,-229.13 758.34,-210.03"/>
<polygon fill="midnightblue" stroke="midnightblue" points="759.2,-213.43 768.32,-208.05 757.83,-206.57 759.2,-213.43"/>
</g>
<!-- Node6 -->
<g id="node6" class="node">
<title>Node6</title>
<g id="a_node6"><a xlink:title=" ">
<polygon fill="white" stroke="#bfbfbf" points="36,-123.5 36,-142.5 94,-142.5 94,-123.5 36,-123.5"/>
<text text-anchor="middle" x="65" y="-130.5" font-family="Helvetica,sans-Serif" font-size="10.00">memory</text>
</a>
</g>
</g>
<!-- Node5&#45;&gt;Node6 -->
<g id="edge5" class="edge">
<title>Node5&#45;&gt;Node6</title>
<path fill="none" stroke="midnightblue" d="M415.96,-180.85C412.59,-180.19 409.26,-179.56 406,-179 274.55,-156.23 239.63,-164.69 108,-143 106.73,-142.79 105.44,-142.57 104.14,-142.34"/>
<polygon fill="midnightblue" stroke="midnightblue" points="104.56,-138.86 94.08,-140.44 103.26,-145.74 104.56,-138.86"/>
</g>
<!-- Node7 -->
<g id="node7" class="node">
<title>Node7</title>
<g id="a_node7"><a xlink:title=" ">
<polygon fill="white" stroke="#bfbfbf" points="68,-6 68,-25 182,-25 182,-6 68,-6"/>
<text text-anchor="middle" x="125" y="-13" font-family="Helvetica,sans-Serif" font-size="10.00">vsomeip/export.hpp</text>
</a>
</g>
</g>
<!-- Node5&#45;&gt;Node7 -->
<g id="edge6" class="edge">
<title>Node5&#45;&gt;Node7</title>
<path fill="none" stroke="midnightblue" d="M415.69,-180.98C335.94,-161.65 192.45,-123.02 154,-87 139.39,-73.31 131.92,-51.18 128.25,-35.37"/>
<polygon fill="midnightblue" stroke="midnightblue" points="131.61,-34.3 126.21,-25.18 124.74,-35.67 131.61,-34.3"/>
</g>
<!-- Node8 -->
<g id="node8" class="node">
<title>Node8</title>
<g id="a_node8"><a xlink:title=" ">
<polygon fill="white" stroke="#bfbfbf" points="547.5,-6 547.5,-25 706.5,-25 706.5,-6 547.5,-6"/>
<text text-anchor="middle" x="627" y="-13" font-family="Helvetica,sans-Serif" font-size="10.00">vsomeip/primitive_types.hpp</text>
</a>
</g>
</g>
<!-- Node5&#45;&gt;Node8 -->
<g id="edge7" class="edge">
<title>Node5&#45;&gt;Node8</title>
<path fill="none" stroke="midnightblue" d="M497.13,-179.43C528.25,-161.91 578.62,-129.09 607,-87 617.54,-71.36 622.58,-50.2 624.96,-35.15"/>
<polygon fill="midnightblue" stroke="midnightblue" points="628.45,-35.4 626.3,-25.03 621.51,-34.48 628.45,-35.4"/>
</g>
<!-- Node9 -->
<g id="node9" class="node">
<title>Node9</title>
<g id="a_node9"><a xlink:href="message_2include_2message__base__impl_8hpp.html" target="_top" xlink:title=" ">
<polygon fill="white" stroke="black" points="335.5,-123.5 335.5,-142.5 472.5,-142.5 472.5,-123.5 335.5,-123.5"/>
<text text-anchor="middle" x="404" y="-130.5" font-family="Helvetica,sans-Serif" font-size="10.00">message_base_impl.hpp</text>
</a>
</g>
</g>
<!-- Node5&#45;&gt;Node9 -->
<g id="edge8" class="edge">
<title>Node5&#45;&gt;Node9</title>
<path fill="none" stroke="midnightblue" d="M454.36,-179.4C444.37,-170.4 431.42,-158.72 421.15,-149.47"/>
<polygon fill="midnightblue" stroke="midnightblue" points="423.37,-146.75 413.6,-142.66 418.69,-151.95 423.37,-146.75"/>
</g>
<!-- Node9&#45;&gt;Node7 -->
<g id="edge10" class="edge">
<title>Node9&#45;&gt;Node7</title>
<path fill="none" stroke="midnightblue" d="M335.41,-130.74C288.29,-127.04 225.99,-116.29 179,-87 158.41,-74.17 142.73,-50.48 133.71,-34.12"/>
<polygon fill="midnightblue" stroke="midnightblue" points="136.7,-32.29 128.96,-25.05 130.49,-35.54 136.7,-32.29"/>
</g>
<!-- Node10 -->
<g id="node10" class="node">
<title>Node10</title>
<g id="a_node10"><a xlink:title=" ">
<polygon fill="white" stroke="#bfbfbf" points="354.5,-67.5 354.5,-86.5 453.5,-86.5 453.5,-67.5 354.5,-67.5"/>
<text text-anchor="middle" x="404" y="-74.5" font-family="Helvetica,sans-Serif" font-size="10.00">boost/thread.hpp</text>
</a>
</g>
</g>
<!-- Node9&#45;&gt;Node10 -->
<g id="edge9" class="edge">
<title>Node9&#45;&gt;Node10</title>
<path fill="none" stroke="midnightblue" d="M404,-123.08C404,-116.01 404,-105.86 404,-96.99"/>
<polygon fill="midnightblue" stroke="midnightblue" points="407.5,-96.75 404,-86.75 400.5,-96.75 407.5,-96.75"/>
</g>
<!-- Node11 -->
<g id="node11" class="node">
<title>Node11</title>
<g id="a_node11"><a xlink:title=" ">
<polygon fill="white" stroke="#bfbfbf" points="471.5,-67.5 471.5,-86.5 598.5,-86.5 598.5,-67.5 471.5,-67.5"/>
<text text-anchor="middle" x="535" y="-74.5" font-family="Helvetica,sans-Serif" font-size="10.00">vsomeip/message.hpp</text>
</a>
</g>
</g>
<!-- Node9&#45;&gt;Node11 -->
<g id="edge11" class="edge">
<title>Node9&#45;&gt;Node11</title>
<path fill="none" stroke="midnightblue" d="M424.76,-123.44C446.32,-114.56 480.26,-100.56 504.79,-90.45"/>
<polygon fill="midnightblue" stroke="midnightblue" points="506.43,-93.56 514.34,-86.52 503.76,-87.09 506.43,-93.56"/>
</g>
<!-- Node12 -->
<g id="node12" class="node">
<title>Node12</title>
<g id="a_node12"><a xlink:href="message__header__impl_8hpp.html" target="_top" xlink:title=" ">
<polygon fill="white" stroke="black" points="188,-67.5 188,-86.5 336,-86.5 336,-67.5 188,-67.5"/>
<text text-anchor="middle" x="262" y="-74.5" font-family="Helvetica,sans-Serif" font-size="10.00">message_header_impl.hpp</text>
</a>
</g>
</g>
<!-- Node9&#45;&gt;Node12 -->
<g id="edge12" class="edge">
<title>Node9&#45;&gt;Node12</title>
<path fill="none" stroke="midnightblue" d="M381.5,-123.44C357.92,-114.48 320.68,-100.31 294.04,-90.18"/>
<polygon fill="midnightblue" stroke="midnightblue" points="294.99,-86.8 284.4,-86.52 292.5,-93.34 294.99,-86.8"/>
</g>
<!-- Node12&#45;&gt;Node7 -->
<g id="edge13" class="edge">
<title>Node12&#45;&gt;Node7</title>
<path fill="none" stroke="midnightblue" d="M242.37,-67.48C219.18,-57.4 180.38,-40.55 153.79,-29"/>
<polygon fill="midnightblue" stroke="midnightblue" points="155.16,-25.78 144.59,-25.01 152.37,-32.2 155.16,-25.78"/>
</g>
<!-- Node12&#45;&gt;Node8 -->
<g id="edge14" class="edge">
<title>Node12&#45;&gt;Node8</title>
<path fill="none" stroke="midnightblue" d="M314.3,-67.48C380.43,-56.69 494.16,-38.15 564.72,-26.65"/>
<polygon fill="midnightblue" stroke="midnightblue" points="565.49,-30.07 574.8,-25.01 564.37,-23.16 565.49,-30.07"/>
</g>
<!-- Node13 -->
<g id="node13" class="node">
<title>Node13</title>
<g id="a_node13"><a xlink:title=" ">
<polygon fill="white" stroke="#bfbfbf" points="200,-0.5 200,-30.5 324,-30.5 324,-0.5 200,-0.5"/>
<text text-anchor="start" x="208" y="-18.5" font-family="Helvetica,sans-Serif" font-size="10.00">vsomeip/enumeration</text>
<text text-anchor="middle" x="262" y="-7.5" font-family="Helvetica,sans-Serif" font-size="10.00">_types.hpp</text>
</a>
</g>
</g>
<!-- Node12&#45;&gt;Node13 -->
<g id="edge15" class="edge">
<title>Node12&#45;&gt;Node13</title>
<path fill="none" stroke="midnightblue" d="M262,-67.48C262,-60.47 262,-50.19 262,-40.7"/>
<polygon fill="midnightblue" stroke="midnightblue" points="265.5,-40.52 262,-30.52 258.5,-40.52 265.5,-40.52"/>
</g>
<!-- Node14 -->
<g id="node14" class="node">
<title>Node14</title>
<g id="a_node14"><a xlink:title=" ">
<polygon fill="white" stroke="#bfbfbf" points="342.5,-6 342.5,-25 521.5,-25 521.5,-6 342.5,-6"/>
<text text-anchor="middle" x="432" y="-13" font-family="Helvetica,sans-Serif" font-size="10.00">vsomeip/internal/serializable.hpp</text>
</a>
</g>
</g>
<!-- Node12&#45;&gt;Node14 -->
<g id="edge16" class="edge">
<title>Node12&#45;&gt;Node14</title>
<path fill="none" stroke="midnightblue" d="M286.36,-67.48C315.64,-57.22 364.97,-39.96 398,-28.4"/>
<polygon fill="midnightblue" stroke="midnightblue" points="399.41,-31.62 407.69,-25.01 397.09,-25.01 399.41,-31.62"/>
</g>
<!-- Node15&#45;&gt;Node8 -->
<g id="edge20" class="edge">
<title>Node15&#45;&gt;Node8</title>
<path fill="none" stroke="midnightblue" d="M686.79,-179.31C675.11,-147.5 646.81,-70.45 633.78,-34.96"/>
<polygon fill="midnightblue" stroke="midnightblue" points="636.99,-33.55 630.26,-25.37 630.42,-35.97 636.99,-33.55"/>
</g>
<!-- Node16 -->
<g id="node16" class="node">
<title>Node16</title>
<g id="a_node16"><a xlink:title=" ">
<polygon fill="white" stroke="#bfbfbf" points="693,-123.5 693,-142.5 743,-142.5 743,-123.5 693,-123.5"/>
<text text-anchor="middle" x="718" y="-130.5" font-family="Helvetica,sans-Serif" font-size="10.00">cstdint</text>
</a>
</g>
</g>
<!-- Node15&#45;&gt;Node16 -->
<g id="edge18" class="edge">
<title>Node15&#45;&gt;Node16</title>
<path fill="none" stroke="midnightblue" d="M698.16,-179.4C701.74,-171.2 706.3,-160.78 710.14,-151.99"/>
<polygon fill="midnightblue" stroke="midnightblue" points="713.42,-153.22 714.22,-142.66 707.01,-150.42 713.42,-153.22"/>
</g>
<!-- Node17 -->
<g id="node17" class="node">
<title>Node17</title>
<g id="a_node17"><a xlink:title=" ">
<polygon fill="white" stroke="#bfbfbf" points="761,-123.5 761,-142.5 805,-142.5 805,-123.5 761,-123.5"/>
<text text-anchor="middle" x="783" y="-130.5" font-family="Helvetica,sans-Serif" font-size="10.00">limits</text>
</a>
</g>
</g>
<!-- Node15&#45;&gt;Node17 -->
<g id="edge19" class="edge">
<title>Node15&#45;&gt;Node17</title>
<path fill="none" stroke="midnightblue" d="M713.57,-179.4C727.88,-170.04 746.61,-157.79 761.01,-148.38"/>
<polygon fill="midnightblue" stroke="midnightblue" points="763.3,-151.06 769.76,-142.66 759.47,-145.2 763.3,-151.06"/>
</g>
<!-- Node18 -->
<g id="node18" class="node">
<title>Node18</title>
<g id="a_node18"><a xlink:title=" ">
<polygon fill="white" stroke="#bfbfbf" points="823.5,-123.5 823.5,-142.5 886.5,-142.5 886.5,-123.5 823.5,-123.5"/>
<text text-anchor="middle" x="855" y="-130.5" font-family="Helvetica,sans-Serif" font-size="10.00">pthread.h</text>
</a>
</g>
</g>
<!-- Node15&#45;&gt;Node18 -->
<g id="edge21" class="edge">
<title>Node15&#45;&gt;Node18</title>
<path fill="none" stroke="midnightblue" d="M730.63,-179.4C758.34,-169.28 795.31,-155.79 821.72,-146.15"/>
<polygon fill="midnightblue" stroke="midnightblue" points="823.09,-149.37 831.28,-142.66 820.69,-142.8 823.09,-149.37"/>
</g>
</g>
</svg>
