<?xml version="1.0" encoding="UTF-8" standalone="no"?>
<!DOCTYPE svg PUBLIC "-//W3C//DTD SVG 1.1//EN"
 "http://www.w3.org/Graphics/SVG/1.1/DTD/svg11.dtd">
<!-- Generated by graphviz version 2.43.0 (0)
 -->
<!-- Title: /home/kali/projects/vsomeip/implementation/message/include/deserializer.hpp Pages: 1 -->
<svg width="2955pt" height="317pt"
 viewBox="0.00 0.00 2955.00 317.00" xmlns="http://www.w3.org/2000/svg" xmlns:xlink="http://www.w3.org/1999/xlink">
<g id="graph0" class="graph" transform="scale(1 1) rotate(0) translate(4 313)">
<title>/home/kali/projects/vsomeip/implementation/message/include/deserializer.hpp</title>
<polygon fill="white" stroke="transparent" points="-4,4 -4,-313 2951,-313 2951,4 -4,4"/>
<!-- Node1 -->
<g id="node1" class="node">
<title>Node1</title>
<g id="a_node1"><a xlink:title=" ">
<polygon fill="#bfbfbf" stroke="black" points="1284.5,-267.5 1284.5,-308.5 1466.5,-308.5 1466.5,-267.5 1284.5,-267.5"/>
<text text-anchor="start" x="1292.5" y="-296.5" font-family="Helvetica,sans-Serif" font-size="10.00">/home/kali/projects</text>
<text text-anchor="start" x="1292.5" y="-285.5" font-family="Helvetica,sans-Serif" font-size="10.00">/vsomeip/implementation</text>
<text text-anchor="middle" x="1375.5" y="-274.5" font-family="Helvetica,sans-Serif" font-size="10.00">/message/include/deserializer.hpp</text>
</a>
</g>
</g>
<!-- Node2 -->
<g id="node2" class="node">
<title>Node2</title>
<g id="a_node2"><a xlink:href="message_2src_2deserializer_8cpp.html" target="_top" xlink:title=" ">
<polygon fill="white" stroke="black" points="0,-184 0,-225 161,-225 161,-184 0,-184"/>
<text text-anchor="start" x="8" y="-213" font-family="Helvetica,sans-Serif" font-size="10.00">/home/kali/projects</text>
<text text-anchor="start" x="8" y="-202" font-family="Helvetica,sans-Serif" font-size="10.00">/vsomeip/implementation</text>
<text text-anchor="middle" x="80.5" y="-191" font-family="Helvetica,sans-Serif" font-size="10.00">/message/src/deserializer.cpp</text>
</a>
</g>
</g>
<!-- Node1&#45;&gt;Node2 -->
<g id="edge1" class="edge">
<title>Node1&#45;&gt;Node2</title>
<path fill="none" stroke="midnightblue" d="M1274.09,-285.32C1023.65,-280.69 380.9,-265.71 169.5,-231 160.46,-229.52 151.03,-227.43 141.84,-225.08"/>
<polygon fill="midnightblue" stroke="midnightblue" points="1274.21,-288.83 1284.27,-285.51 1274.34,-281.83 1274.21,-288.83"/>
</g>
<!-- Node3 -->
<g id="node3" class="node">
<title>Node3</title>
<g id="a_node3"><a xlink:href="message__header__impl_8cpp.html" target="_top" xlink:title=" ">
<polygon fill="white" stroke="black" points="179,-178.5 179,-230.5 346,-230.5 346,-178.5 179,-178.5"/>
<text text-anchor="start" x="187" y="-218.5" font-family="Helvetica,sans-Serif" font-size="10.00">/home/kali/projects</text>
<text text-anchor="start" x="187" y="-207.5" font-family="Helvetica,sans-Serif" font-size="10.00">/vsomeip/implementation</text>
<text text-anchor="start" x="187" y="-196.5" font-family="Helvetica,sans-Serif" font-size="10.00">/message/src/message_header</text>
<text text-anchor="middle" x="262.5" y="-185.5" font-family="Helvetica,sans-Serif" font-size="10.00">_impl.cpp</text>
</a>
</g>
</g>
<!-- Node1&#45;&gt;Node3 -->
<g id="edge2" class="edge">
<title>Node1&#45;&gt;Node3</title>
<path fill="none" stroke="midnightblue" d="M1274.5,-284.19C1052.97,-277.58 530.27,-259.43 355.5,-231 352.44,-230.5 349.34,-229.94 346.22,-229.34"/>
<polygon fill="midnightblue" stroke="midnightblue" points="1274.4,-287.69 1284.5,-284.49 1274.6,-280.69 1274.4,-287.69"/>
</g>
<!-- Node4 -->
<g id="node4" class="node">
<title>Node4</title>
<g id="a_node4"><a xlink:href="message_2src_2payload__impl_8cpp.html" target="_top" xlink:title=" ">
<polygon fill="white" stroke="black" points="364.5,-184 364.5,-225 534.5,-225 534.5,-184 364.5,-184"/>
<text text-anchor="start" x="372.5" y="-213" font-family="Helvetica,sans-Serif" font-size="10.00">/home/kali/projects</text>
<text text-anchor="start" x="372.5" y="-202" font-family="Helvetica,sans-Serif" font-size="10.00">/vsomeip/implementation</text>
<text text-anchor="middle" x="449.5" y="-191" font-family="Helvetica,sans-Serif" font-size="10.00">/message/src/payload_impl.cpp</text>
</a>
</g>
</g>
<!-- Node1&#45;&gt;Node4 -->
<g id="edge3" class="edge">
<title>Node1&#45;&gt;Node4</title>
<path fill="none" stroke="midnightblue" d="M1274.19,-286.61C1116.77,-284.56 804.41,-274.73 543.5,-231 534.16,-229.43 524.41,-227.33 514.87,-225.01"/>
<polygon fill="midnightblue" stroke="midnightblue" points="1274.29,-290.11 1284.33,-286.73 1274.37,-283.11 1274.29,-290.11"/>
</g>
<!-- Node5 -->
<g id="node5" class="node">
<title>Node5</title>
<g id="a_node5"><a xlink:href="routing__manager__base_8hpp.html" target="_top" xlink:title=" ">
<polygon fill="white" stroke="black" points="553,-178.5 553,-230.5 696,-230.5 696,-178.5 553,-178.5"/>
<text text-anchor="start" x="561" y="-218.5" font-family="Helvetica,sans-Serif" font-size="10.00">/home/kali/projects</text>
<text text-anchor="start" x="561" y="-207.5" font-family="Helvetica,sans-Serif" font-size="10.00">/vsomeip/implementation</text>
<text text-anchor="start" x="561" y="-196.5" font-family="Helvetica,sans-Serif" font-size="10.00">/routing/include/routing</text>
<text text-anchor="middle" x="624.5" y="-185.5" font-family="Helvetica,sans-Serif" font-size="10.00">_manager_base.hpp</text>
</a>
</g>
</g>
<!-- Node1&#45;&gt;Node5 -->
<g id="edge4" class="edge">
<title>Node1&#45;&gt;Node5</title>
<path fill="none" stroke="midnightblue" d="M1274.33,-284.89C1143.22,-280.7 908.02,-268.2 710.5,-231 705.76,-230.11 700.9,-229.06 696.03,-227.9"/>
<polygon fill="midnightblue" stroke="midnightblue" points="1274.26,-288.39 1284.36,-285.2 1274.47,-281.39 1274.26,-288.39"/>
</g>
<!-- Node9 -->
<g id="node9" class="node">
<title>Node9</title>
<g id="a_node9"><a xlink:href="routing__manager__impl_8cpp.html" target="_top" xlink:title=" ">
<polygon fill="white" stroke="black" points="444.5,-0.5 444.5,-52.5 602.5,-52.5 602.5,-0.5 444.5,-0.5"/>
<text text-anchor="start" x="452.5" y="-40.5" font-family="Helvetica,sans-Serif" font-size="10.00">/home/kali/projects</text>
<text text-anchor="start" x="452.5" y="-29.5" font-family="Helvetica,sans-Serif" font-size="10.00">/vsomeip/implementation</text>
<text text-anchor="start" x="452.5" y="-18.5" font-family="Helvetica,sans-Serif" font-size="10.00">/routing/src/routing_manager</text>
<text text-anchor="middle" x="523.5" y="-7.5" font-family="Helvetica,sans-Serif" font-size="10.00">_impl.cpp</text>
</a>
</g>
</g>
<!-- Node1&#45;&gt;Node9 -->
<g id="edge15" class="edge">
<title>Node1&#45;&gt;Node9</title>
<path fill="none" stroke="midnightblue" d="M1274.18,-284.06C1107.15,-278.32 788.4,-263.25 748.5,-231 697.11,-189.47 750.58,-136.35 704.5,-89 696.76,-81.05 647.7,-64.62 602.61,-50.74"/>
<polygon fill="midnightblue" stroke="midnightblue" points="1274.11,-287.56 1284.22,-284.4 1274.35,-280.56 1274.11,-287.56"/>
</g>
<!-- Node12 -->
<g id="node12" class="node">
<title>Node12</title>
<g id="a_node12"><a xlink:href="routing__manager__proxy_8cpp.html" target="_top" xlink:title=" ">
<polygon fill="white" stroke="black" points="620.5,-0.5 620.5,-52.5 778.5,-52.5 778.5,-0.5 620.5,-0.5"/>
<text text-anchor="start" x="628.5" y="-40.5" font-family="Helvetica,sans-Serif" font-size="10.00">/home/kali/projects</text>
<text text-anchor="start" x="628.5" y="-29.5" font-family="Helvetica,sans-Serif" font-size="10.00">/vsomeip/implementation</text>
<text text-anchor="start" x="628.5" y="-18.5" font-family="Helvetica,sans-Serif" font-size="10.00">/routing/src/routing_manager</text>
<text text-anchor="middle" x="699.5" y="-7.5" font-family="Helvetica,sans-Serif" font-size="10.00">_proxy.cpp</text>
</a>
</g>
</g>
<!-- Node1&#45;&gt;Node12 -->
<g id="edge16" class="edge">
<title>Node1&#45;&gt;Node12</title>
<path fill="none" stroke="midnightblue" d="M1274.07,-283.53C1114.42,-277.18 818.72,-261.43 781.5,-231 730.45,-189.26 765.96,-148.95 738.5,-89 732.76,-76.47 724.84,-63.46 717.63,-52.65"/>
<polygon fill="midnightblue" stroke="midnightblue" points="1274.26,-287.04 1284.39,-283.94 1274.53,-280.05 1274.26,-287.04"/>
</g>
<!-- Node14 -->
<g id="node14" class="node">
<title>Node14</title>
<g id="a_node14"><a xlink:href="service__discovery_2include_2deserializer_8hpp.html" target="_top" xlink:title=" ">
<polygon fill="white" stroke="black" points="790.5,-178.5 790.5,-230.5 936.5,-230.5 936.5,-178.5 790.5,-178.5"/>
<text text-anchor="start" x="798.5" y="-218.5" font-family="Helvetica,sans-Serif" font-size="10.00">/home/kali/projects</text>
<text text-anchor="start" x="798.5" y="-207.5" font-family="Helvetica,sans-Serif" font-size="10.00">/vsomeip/implementation</text>
<text text-anchor="start" x="798.5" y="-196.5" font-family="Helvetica,sans-Serif" font-size="10.00">/service_discovery/include</text>
<text text-anchor="middle" x="863.5" y="-185.5" font-family="Helvetica,sans-Serif" font-size="10.00">/deserializer.hpp</text>
</a>
</g>
</g>
<!-- Node1&#45;&gt;Node14 -->
<g id="edge17" class="edge">
<title>Node1&#45;&gt;Node14</title>
<path fill="none" stroke="midnightblue" d="M1274.16,-278.62C1186.71,-270.24 1057.35,-255.08 946.5,-231 943.26,-230.3 939.96,-229.52 936.64,-228.7"/>
<polygon fill="midnightblue" stroke="midnightblue" points="1274.07,-282.13 1284.35,-279.59 1274.72,-275.16 1274.07,-282.13"/>
</g>
<!-- Node19 -->
<g id="node19" class="node">
<title>Node19</title>
<g id="a_node19"><a xlink:href="configuration__option__impl_8cpp.html" target="_top" xlink:title=" ">
<polygon fill="white" stroke="black" points="955,-178.5 955,-230.5 1122,-230.5 1122,-178.5 955,-178.5"/>
<text text-anchor="start" x="963" y="-218.5" font-family="Helvetica,sans-Serif" font-size="10.00">/home/kali/projects</text>
<text text-anchor="start" x="963" y="-207.5" font-family="Helvetica,sans-Serif" font-size="10.00">/vsomeip/implementation</text>
<text text-anchor="start" x="963" y="-196.5" font-family="Helvetica,sans-Serif" font-size="10.00">/service_discovery/src</text>
<text text-anchor="middle" x="1038.5" y="-185.5" font-family="Helvetica,sans-Serif" font-size="10.00">/configuration_option_impl.cpp</text>
</a>
</g>
</g>
<!-- Node1&#45;&gt;Node19 -->
<g id="edge23" class="edge">
<title>Node1&#45;&gt;Node19</title>
<path fill="none" stroke="midnightblue" d="M1276.41,-265.25C1231.99,-255.25 1179.01,-242.96 1131.5,-231 1128.42,-230.22 1125.28,-229.42 1122.11,-228.6"/>
<polygon fill="midnightblue" stroke="midnightblue" points="1275.81,-268.7 1286.34,-267.48 1277.35,-261.87 1275.81,-268.7"/>
</g>
<!-- Node20 -->
<g id="node20" class="node">
<title>Node20</title>
<g id="a_node20"><a xlink:href="entry__impl_8cpp.html" target="_top" xlink:title=" ">
<polygon fill="white" stroke="black" points="1140,-178.5 1140,-230.5 1283,-230.5 1283,-178.5 1140,-178.5"/>
<text text-anchor="start" x="1148" y="-218.5" font-family="Helvetica,sans-Serif" font-size="10.00">/home/kali/projects</text>
<text text-anchor="start" x="1148" y="-207.5" font-family="Helvetica,sans-Serif" font-size="10.00">/vsomeip/implementation</text>
<text text-anchor="start" x="1148" y="-196.5" font-family="Helvetica,sans-Serif" font-size="10.00">/service_discovery/src</text>
<text text-anchor="middle" x="1211.5" y="-185.5" font-family="Helvetica,sans-Serif" font-size="10.00">/entry_impl.cpp</text>
</a>
</g>
</g>
<!-- Node1&#45;&gt;Node20 -->
<g id="edge24" class="edge">
<title>Node1&#45;&gt;Node20</title>
<path fill="none" stroke="midnightblue" d="M1327.06,-262.93C1306.56,-252.74 1282.68,-240.87 1261.96,-230.58"/>
<polygon fill="midnightblue" stroke="midnightblue" points="1325.71,-266.16 1336.22,-267.48 1328.82,-259.89 1325.71,-266.16"/>
</g>
<!-- Node21 -->
<g id="node21" class="node">
<title>Node21</title>
<g id="a_node21"><a xlink:href="eventgroupentry__impl_8cpp.html" target="_top" xlink:title=" ">
<polygon fill="white" stroke="black" points="1301.5,-178.5 1301.5,-230.5 1449.5,-230.5 1449.5,-178.5 1301.5,-178.5"/>
<text text-anchor="start" x="1309.5" y="-218.5" font-family="Helvetica,sans-Serif" font-size="10.00">/home/kali/projects</text>
<text text-anchor="start" x="1309.5" y="-207.5" font-family="Helvetica,sans-Serif" font-size="10.00">/vsomeip/implementation</text>
<text text-anchor="start" x="1309.5" y="-196.5" font-family="Helvetica,sans-Serif" font-size="10.00">/service_discovery/src</text>
<text text-anchor="middle" x="1375.5" y="-185.5" font-family="Helvetica,sans-Serif" font-size="10.00">/eventgroupentry_impl.cpp</text>
</a>
</g>
</g>
<!-- Node1&#45;&gt;Node21 -->
<g id="edge25" class="edge">
<title>Node1&#45;&gt;Node21</title>
<path fill="none" stroke="midnightblue" d="M1375.5,-257.12C1375.5,-248.41 1375.5,-238.99 1375.5,-230.61"/>
<polygon fill="midnightblue" stroke="midnightblue" points="1372,-257.27 1375.5,-267.27 1379,-257.27 1372,-257.27"/>
</g>
<!-- Node22 -->
<g id="node22" class="node">
<title>Node22</title>
<g id="a_node22"><a xlink:href="ip__option__impl_8cpp.html" target="_top" xlink:title=" ">
<polygon fill="white" stroke="black" points="1468,-178.5 1468,-230.5 1611,-230.5 1611,-178.5 1468,-178.5"/>
<text text-anchor="start" x="1476" y="-218.5" font-family="Helvetica,sans-Serif" font-size="10.00">/home/kali/projects</text>
<text text-anchor="start" x="1476" y="-207.5" font-family="Helvetica,sans-Serif" font-size="10.00">/vsomeip/implementation</text>
<text text-anchor="start" x="1476" y="-196.5" font-family="Helvetica,sans-Serif" font-size="10.00">/service_discovery/src</text>
<text text-anchor="middle" x="1539.5" y="-185.5" font-family="Helvetica,sans-Serif" font-size="10.00">/ip_option_impl.cpp</text>
</a>
</g>
</g>
<!-- Node1&#45;&gt;Node22 -->
<g id="edge26" class="edge">
<title>Node1&#45;&gt;Node22</title>
<path fill="none" stroke="midnightblue" d="M1423.94,-262.93C1444.44,-252.74 1468.32,-240.87 1489.04,-230.58"/>
<polygon fill="midnightblue" stroke="midnightblue" points="1422.18,-259.89 1414.78,-267.48 1425.29,-266.16 1422.18,-259.89"/>
</g>
<!-- Node23 -->
<g id="node23" class="node">
<title>Node23</title>
<g id="a_node23"><a xlink:href="ipv4__option__impl_8cpp.html" target="_top" xlink:title=" ">
<polygon fill="white" stroke="black" points="1629,-178.5 1629,-230.5 1772,-230.5 1772,-178.5 1629,-178.5"/>
<text text-anchor="start" x="1637" y="-218.5" font-family="Helvetica,sans-Serif" font-size="10.00">/home/kali/projects</text>
<text text-anchor="start" x="1637" y="-207.5" font-family="Helvetica,sans-Serif" font-size="10.00">/vsomeip/implementation</text>
<text text-anchor="start" x="1637" y="-196.5" font-family="Helvetica,sans-Serif" font-size="10.00">/service_discovery/src</text>
<text text-anchor="middle" x="1700.5" y="-185.5" font-family="Helvetica,sans-Serif" font-size="10.00">/ipv4_option_impl.cpp</text>
</a>
</g>
</g>
<!-- Node1&#45;&gt;Node23 -->
<g id="edge27" class="edge">
<title>Node1&#45;&gt;Node23</title>
<path fill="none" stroke="midnightblue" d="M1476.62,-265.88C1520.98,-256.11 1573.54,-243.83 1620.5,-231 1623.17,-230.27 1625.89,-229.51 1628.63,-228.72"/>
<polygon fill="midnightblue" stroke="midnightblue" points="1475.72,-262.5 1466.71,-268.06 1477.22,-269.34 1475.72,-262.5"/>
</g>
<!-- Node24 -->
<g id="node24" class="node">
<title>Node24</title>
<g id="a_node24"><a xlink:href="ipv6__option__impl_8cpp.html" target="_top" xlink:title=" ">
<polygon fill="white" stroke="black" points="1790,-178.5 1790,-230.5 1933,-230.5 1933,-178.5 1790,-178.5"/>
<text text-anchor="start" x="1798" y="-218.5" font-family="Helvetica,sans-Serif" font-size="10.00">/home/kali/projects</text>
<text text-anchor="start" x="1798" y="-207.5" font-family="Helvetica,sans-Serif" font-size="10.00">/vsomeip/implementation</text>
<text text-anchor="start" x="1798" y="-196.5" font-family="Helvetica,sans-Serif" font-size="10.00">/service_discovery/src</text>
<text text-anchor="middle" x="1861.5" y="-185.5" font-family="Helvetica,sans-Serif" font-size="10.00">/ipv6_option_impl.cpp</text>
</a>
</g>
</g>
<!-- Node1&#45;&gt;Node24 -->
<g id="edge28" class="edge">
<title>Node1&#45;&gt;Node24</title>
<path fill="none" stroke="midnightblue" d="M1476.75,-277.91C1559.42,-269.32 1678.91,-254.24 1781.5,-231 1784.2,-230.39 1786.94,-229.73 1789.7,-229.03"/>
<polygon fill="midnightblue" stroke="midnightblue" points="1476.19,-274.44 1466.6,-278.95 1476.91,-281.41 1476.19,-274.44"/>
</g>
<!-- Node25 -->
<g id="node25" class="node">
<title>Node25</title>
<g id="a_node25"><a xlink:href="load__balancing__option__impl_8cpp.html" target="_top" xlink:title=" ">
<polygon fill="white" stroke="black" points="1951.5,-178.5 1951.5,-230.5 2127.5,-230.5 2127.5,-178.5 1951.5,-178.5"/>
<text text-anchor="start" x="1959.5" y="-218.5" font-family="Helvetica,sans-Serif" font-size="10.00">/home/kali/projects</text>
<text text-anchor="start" x="1959.5" y="-207.5" font-family="Helvetica,sans-Serif" font-size="10.00">/vsomeip/implementation</text>
<text text-anchor="start" x="1959.5" y="-196.5" font-family="Helvetica,sans-Serif" font-size="10.00">/service_discovery/src</text>
<text text-anchor="middle" x="2039.5" y="-185.5" font-family="Helvetica,sans-Serif" font-size="10.00">/load_balancing_option_impl.cpp</text>
</a>
</g>
</g>
<!-- Node1&#45;&gt;Node25 -->
<g id="edge29" class="edge">
<title>Node1&#45;&gt;Node25</title>
<path fill="none" stroke="midnightblue" d="M1477.06,-281.84C1591.04,-274.92 1781.13,-259.99 1942.5,-231 1945.41,-230.48 1948.37,-229.91 1951.34,-229.31"/>
<polygon fill="midnightblue" stroke="midnightblue" points="1476.72,-278.35 1466.95,-282.44 1477.14,-285.34 1476.72,-278.35"/>
</g>
<!-- Node26 -->
<g id="node26" class="node">
<title>Node26</title>
<g id="a_node26"><a xlink:href="service__discovery_2src_2message__impl_8cpp.html" target="_top" xlink:title=" ">
<polygon fill="white" stroke="black" points="2146,-178.5 2146,-230.5 2289,-230.5 2289,-178.5 2146,-178.5"/>
<text text-anchor="start" x="2154" y="-218.5" font-family="Helvetica,sans-Serif" font-size="10.00">/home/kali/projects</text>
<text text-anchor="start" x="2154" y="-207.5" font-family="Helvetica,sans-Serif" font-size="10.00">/vsomeip/implementation</text>
<text text-anchor="start" x="2154" y="-196.5" font-family="Helvetica,sans-Serif" font-size="10.00">/service_discovery/src</text>
<text text-anchor="middle" x="2217.5" y="-185.5" font-family="Helvetica,sans-Serif" font-size="10.00">/message_impl.cpp</text>
</a>
</g>
</g>
<!-- Node1&#45;&gt;Node26 -->
<g id="edge30" class="edge">
<title>Node1&#45;&gt;Node26</title>
<path fill="none" stroke="midnightblue" d="M1476.93,-286.96C1623.72,-285.23 1903.34,-275.65 2136.5,-231 2139.54,-230.42 2142.63,-229.76 2145.73,-229.04"/>
<polygon fill="midnightblue" stroke="midnightblue" points="1476.55,-283.46 1466.59,-287.07 1476.63,-290.46 1476.55,-283.46"/>
</g>
<!-- Node27 -->
<g id="node27" class="node">
<title>Node27</title>
<g id="a_node27"><a xlink:href="option__impl_8cpp.html" target="_top" xlink:title=" ">
<polygon fill="white" stroke="black" points="2307,-178.5 2307,-230.5 2450,-230.5 2450,-178.5 2307,-178.5"/>
<text text-anchor="start" x="2315" y="-218.5" font-family="Helvetica,sans-Serif" font-size="10.00">/home/kali/projects</text>
<text text-anchor="start" x="2315" y="-207.5" font-family="Helvetica,sans-Serif" font-size="10.00">/vsomeip/implementation</text>
<text text-anchor="start" x="2315" y="-196.5" font-family="Helvetica,sans-Serif" font-size="10.00">/service_discovery/src</text>
<text text-anchor="middle" x="2378.5" y="-185.5" font-family="Helvetica,sans-Serif" font-size="10.00">/option_impl.cpp</text>
</a>
</g>
</g>
<!-- Node1&#45;&gt;Node27 -->
<g id="edge31" class="edge">
<title>Node1&#45;&gt;Node27</title>
<path fill="none" stroke="midnightblue" d="M1476.98,-284.02C1682.93,-277.44 2143.5,-259.94 2298.5,-231 2301.22,-230.49 2303.98,-229.92 2306.76,-229.29"/>
<polygon fill="midnightblue" stroke="midnightblue" points="1476.66,-280.52 1466.78,-284.34 1476.88,-287.52 1476.66,-280.52"/>
</g>
<!-- Node28 -->
<g id="node28" class="node">
<title>Node28</title>
<g id="a_node28"><a xlink:href="protection__option__impl_8cpp.html" target="_top" xlink:title=" ">
<polygon fill="white" stroke="black" points="2468.5,-178.5 2468.5,-230.5 2620.5,-230.5 2620.5,-178.5 2468.5,-178.5"/>
<text text-anchor="start" x="2476.5" y="-218.5" font-family="Helvetica,sans-Serif" font-size="10.00">/home/kali/projects</text>
<text text-anchor="start" x="2476.5" y="-207.5" font-family="Helvetica,sans-Serif" font-size="10.00">/vsomeip/implementation</text>
<text text-anchor="start" x="2476.5" y="-196.5" font-family="Helvetica,sans-Serif" font-size="10.00">/service_discovery/src</text>
<text text-anchor="middle" x="2544.5" y="-185.5" font-family="Helvetica,sans-Serif" font-size="10.00">/protection_option_impl.cpp</text>
</a>
</g>
</g>
<!-- Node1&#45;&gt;Node28 -->
<g id="edge32" class="edge">
<title>Node1&#45;&gt;Node28</title>
<path fill="none" stroke="midnightblue" d="M1476.94,-284.86C1708.93,-279.47 2272.54,-263.39 2459.5,-231 2462.38,-230.5 2465.31,-229.93 2468.25,-229.31"/>
<polygon fill="midnightblue" stroke="midnightblue" points="1476.74,-281.37 1466.82,-285.1 1476.9,-288.37 1476.74,-281.37"/>
</g>
<!-- Node29 -->
<g id="node29" class="node">
<title>Node29</title>
<g id="a_node29"><a xlink:href="selective__option__impl_8cpp.html" target="_top" xlink:title=" ">
<polygon fill="white" stroke="black" points="2639,-178.5 2639,-230.5 2786,-230.5 2786,-178.5 2639,-178.5"/>
<text text-anchor="start" x="2647" y="-218.5" font-family="Helvetica,sans-Serif" font-size="10.00">/home/kali/projects</text>
<text text-anchor="start" x="2647" y="-207.5" font-family="Helvetica,sans-Serif" font-size="10.00">/vsomeip/implementation</text>
<text text-anchor="start" x="2647" y="-196.5" font-family="Helvetica,sans-Serif" font-size="10.00">/service_discovery/src</text>
<text text-anchor="middle" x="2712.5" y="-185.5" font-family="Helvetica,sans-Serif" font-size="10.00">/selective_option_impl.cpp</text>
</a>
</g>
</g>
<!-- Node1&#45;&gt;Node29 -->
<g id="edge33" class="edge">
<title>Node1&#45;&gt;Node29</title>
<path fill="none" stroke="midnightblue" d="M1476.87,-285.78C1734.37,-282.15 2408.86,-269.18 2629.5,-231 2632.62,-230.46 2635.79,-229.84 2638.97,-229.15"/>
<polygon fill="midnightblue" stroke="midnightblue" points="1476.72,-282.28 1466.77,-285.92 1476.82,-289.28 1476.72,-282.28"/>
</g>
<!-- Node30 -->
<g id="node30" class="node">
<title>Node30</title>
<g id="a_node30"><a xlink:href="serviceentry__impl_8cpp.html" target="_top" xlink:title=" ">
<polygon fill="white" stroke="black" points="2804,-178.5 2804,-230.5 2947,-230.5 2947,-178.5 2804,-178.5"/>
<text text-anchor="start" x="2812" y="-218.5" font-family="Helvetica,sans-Serif" font-size="10.00">/home/kali/projects</text>
<text text-anchor="start" x="2812" y="-207.5" font-family="Helvetica,sans-Serif" font-size="10.00">/vsomeip/implementation</text>
<text text-anchor="start" x="2812" y="-196.5" font-family="Helvetica,sans-Serif" font-size="10.00">/service_discovery/src</text>
<text text-anchor="middle" x="2875.5" y="-185.5" font-family="Helvetica,sans-Serif" font-size="10.00">/serviceentry_impl.cpp</text>
</a>
</g>
</g>
<!-- Node1&#45;&gt;Node30 -->
<g id="edge34" class="edge">
<title>Node1&#45;&gt;Node30</title>
<path fill="none" stroke="midnightblue" d="M1477.16,-286.53C1758.27,-284.69 2541.97,-275.56 2795.5,-231 2798.23,-230.52 2800.99,-229.97 2803.77,-229.37"/>
<polygon fill="midnightblue" stroke="midnightblue" points="1476.95,-283.04 1466.97,-286.6 1477,-290.04 1476.95,-283.04"/>
</g>
<!-- Node6 -->
<g id="node6" class="node">
<title>Node6</title>
<g id="a_node6"><a xlink:href="endpoint__manager__base_8cpp.html" target="_top" xlink:title=" ">
<polygon fill="white" stroke="black" points="392,-89.5 392,-141.5 535,-141.5 535,-89.5 392,-89.5"/>
<text text-anchor="start" x="400" y="-129.5" font-family="Helvetica,sans-Serif" font-size="10.00">/home/kali/projects</text>
<text text-anchor="start" x="400" y="-118.5" font-family="Helvetica,sans-Serif" font-size="10.00">/vsomeip/implementation</text>
<text text-anchor="start" x="400" y="-107.5" font-family="Helvetica,sans-Serif" font-size="10.00">/endpoints/src/endpoint</text>
<text text-anchor="middle" x="463.5" y="-96.5" font-family="Helvetica,sans-Serif" font-size="10.00">_manager_base.cpp</text>
</a>
</g>
</g>
<!-- Node5&#45;&gt;Node6 -->
<g id="edge5" class="edge">
<title>Node5&#45;&gt;Node6</title>
<path fill="none" stroke="midnightblue" d="M568.97,-173.49C549.74,-163.1 528.39,-151.57 509.96,-141.61"/>
<polygon fill="midnightblue" stroke="midnightblue" points="567.47,-176.66 577.93,-178.34 570.8,-170.5 567.47,-176.66"/>
</g>
<!-- Node7 -->
<g id="node7" class="node">
<title>Node7</title>
<g id="a_node7"><a xlink:href="endpoint__manager__impl_8cpp.html" target="_top" xlink:title=" ">
<polygon fill="white" stroke="black" points="122,-0.5 122,-52.5 265,-52.5 265,-0.5 122,-0.5"/>
<text text-anchor="start" x="130" y="-40.5" font-family="Helvetica,sans-Serif" font-size="10.00">/home/kali/projects</text>
<text text-anchor="start" x="130" y="-29.5" font-family="Helvetica,sans-Serif" font-size="10.00">/vsomeip/implementation</text>
<text text-anchor="start" x="130" y="-18.5" font-family="Helvetica,sans-Serif" font-size="10.00">/endpoints/src/endpoint</text>
<text text-anchor="middle" x="193.5" y="-7.5" font-family="Helvetica,sans-Serif" font-size="10.00">_manager_impl.cpp</text>
</a>
</g>
</g>
<!-- Node5&#45;&gt;Node7 -->
<g id="edge6" class="edge">
<title>Node5&#45;&gt;Node7</title>
<path fill="none" stroke="midnightblue" d="M542.85,-178.31C457.84,-165.07 273.46,-187.68 221.5,-142 196.29,-119.84 191.89,-79.08 191.98,-52.65"/>
<polygon fill="midnightblue" stroke="midnightblue" points="542.24,-181.75 552.7,-180.1 543.49,-174.87 542.24,-181.75"/>
</g>
<!-- Node8 -->
<g id="node8" class="node">
<title>Node8</title>
<g id="a_node8"><a xlink:href="routing__manager__impl_8hpp.html" target="_top" xlink:title=" ">
<polygon fill="white" stroke="black" points="231,-89.5 231,-141.5 374,-141.5 374,-89.5 231,-89.5"/>
<text text-anchor="start" x="239" y="-129.5" font-family="Helvetica,sans-Serif" font-size="10.00">/home/kali/projects</text>
<text text-anchor="start" x="239" y="-118.5" font-family="Helvetica,sans-Serif" font-size="10.00">/vsomeip/implementation</text>
<text text-anchor="start" x="239" y="-107.5" font-family="Helvetica,sans-Serif" font-size="10.00">/routing/include/routing</text>
<text text-anchor="middle" x="302.5" y="-96.5" font-family="Helvetica,sans-Serif" font-size="10.00">_manager_impl.hpp</text>
</a>
</g>
</g>
<!-- Node5&#45;&gt;Node8 -->
<g id="edge7" class="edge">
<title>Node5&#45;&gt;Node8</title>
<path fill="none" stroke="midnightblue" d="M542.63,-177.87C470.93,-159.12 450.24,-160.33 382.5,-142 379.83,-141.28 377.11,-140.52 374.37,-139.74"/>
<polygon fill="midnightblue" stroke="midnightblue" points="542.04,-181.33 552.6,-180.52 543.84,-174.57 542.04,-181.33"/>
</g>
<!-- Node11 -->
<g id="node11" class="node">
<title>Node11</title>
<g id="a_node11"><a xlink:href="routing__manager__proxy_8hpp.html" target="_top" xlink:title=" ">
<polygon fill="white" stroke="black" points="553,-89.5 553,-141.5 696,-141.5 696,-89.5 553,-89.5"/>
<text text-anchor="start" x="561" y="-129.5" font-family="Helvetica,sans-Serif" font-size="10.00">/home/kali/projects</text>
<text text-anchor="start" x="561" y="-118.5" font-family="Helvetica,sans-Serif" font-size="10.00">/vsomeip/implementation</text>
<text text-anchor="start" x="561" y="-107.5" font-family="Helvetica,sans-Serif" font-size="10.00">/routing/include/routing</text>
<text text-anchor="middle" x="624.5" y="-96.5" font-family="Helvetica,sans-Serif" font-size="10.00">_manager_proxy.hpp</text>
</a>
</g>
</g>
<!-- Node5&#45;&gt;Node11 -->
<g id="edge11" class="edge">
<title>Node5&#45;&gt;Node11</title>
<path fill="none" stroke="midnightblue" d="M624.5,-168.19C624.5,-159.28 624.5,-149.9 624.5,-141.61"/>
<polygon fill="midnightblue" stroke="midnightblue" points="621,-168.34 624.5,-178.34 628,-168.34 621,-168.34"/>
</g>
<!-- Node13 -->
<g id="node13" class="node">
<title>Node13</title>
<g id="a_node13"><a xlink:href="routing__manager__base_8cpp.html" target="_top" xlink:title=" ">
<polygon fill="white" stroke="black" points="16.5,-89.5 16.5,-141.5 174.5,-141.5 174.5,-89.5 16.5,-89.5"/>
<text text-anchor="start" x="24.5" y="-129.5" font-family="Helvetica,sans-Serif" font-size="10.00">/home/kali/projects</text>
<text text-anchor="start" x="24.5" y="-118.5" font-family="Helvetica,sans-Serif" font-size="10.00">/vsomeip/implementation</text>
<text text-anchor="start" x="24.5" y="-107.5" font-family="Helvetica,sans-Serif" font-size="10.00">/routing/src/routing_manager</text>
<text text-anchor="middle" x="95.5" y="-96.5" font-family="Helvetica,sans-Serif" font-size="10.00">_base.cpp</text>
</a>
</g>
</g>
<!-- Node5&#45;&gt;Node13 -->
<g id="edge14" class="edge">
<title>Node5&#45;&gt;Node13</title>
<path fill="none" stroke="midnightblue" d="M542.74,-178.04C386.33,-147.03 341.2,-170.47 188.5,-142 183.97,-141.16 179.35,-140.2 174.69,-139.16"/>
<polygon fill="midnightblue" stroke="midnightblue" points="542.22,-181.51 552.71,-180.06 543.61,-174.65 542.22,-181.51"/>
</g>
<!-- Node8&#45;&gt;Node7 -->
<g id="edge8" class="edge">
<title>Node8&#45;&gt;Node7</title>
<path fill="none" stroke="midnightblue" d="M262.95,-82.93C250.45,-72.96 236.81,-62.07 224.96,-52.61"/>
<polygon fill="midnightblue" stroke="midnightblue" points="260.97,-85.83 270.97,-89.34 265.34,-80.36 260.97,-85.83"/>
</g>
<!-- Node8&#45;&gt;Node9 -->
<g id="edge9" class="edge">
<title>Node8&#45;&gt;Node9</title>
<path fill="none" stroke="midnightblue" d="M375.62,-85.72C402.89,-74.98 433.6,-62.89 459.94,-52.52"/>
<polygon fill="midnightblue" stroke="midnightblue" points="374.15,-82.53 366.13,-89.45 376.71,-89.05 374.15,-82.53"/>
</g>
<!-- Node10 -->
<g id="node10" class="node">
<title>Node10</title>
<g id="a_node10"><a xlink:href="runtime_2src_2application__impl_8cpp.html" target="_top" xlink:title=" ">
<polygon fill="white" stroke="black" points="283,-0.5 283,-52.5 426,-52.5 426,-0.5 283,-0.5"/>
<text text-anchor="start" x="291" y="-40.5" font-family="Helvetica,sans-Serif" font-size="10.00">/home/kali/projects</text>
<text text-anchor="start" x="291" y="-29.5" font-family="Helvetica,sans-Serif" font-size="10.00">/vsomeip/implementation</text>
<text text-anchor="start" x="291" y="-18.5" font-family="Helvetica,sans-Serif" font-size="10.00">/runtime/src/application</text>
<text text-anchor="middle" x="354.5" y="-7.5" font-family="Helvetica,sans-Serif" font-size="10.00">_impl.cpp</text>
</a>
</g>
</g>
<!-- Node8&#45;&gt;Node10 -->
<g id="edge10" class="edge">
<title>Node8&#45;&gt;Node10</title>
<path fill="none" stroke="midnightblue" d="M322.74,-80.64C328.32,-71.31 334.27,-61.35 339.49,-52.61"/>
<polygon fill="midnightblue" stroke="midnightblue" points="319.67,-78.96 317.54,-89.34 325.68,-82.55 319.67,-78.96"/>
</g>
<!-- Node11&#45;&gt;Node10 -->
<g id="edge13" class="edge">
<title>Node11&#45;&gt;Node10</title>
<path fill="none" stroke="midnightblue" d="M543.03,-88.25C505.76,-76.24 461.99,-62.14 426.01,-50.54"/>
<polygon fill="midnightblue" stroke="midnightblue" points="542.26,-91.68 552.85,-91.41 544.41,-85.02 542.26,-91.68"/>
</g>
<!-- Node11&#45;&gt;Node12 -->
<g id="edge12" class="edge">
<title>Node11&#45;&gt;Node12</title>
<path fill="none" stroke="midnightblue" d="M652.95,-81.5C661.2,-71.92 670.09,-61.62 677.86,-52.61"/>
<polygon fill="midnightblue" stroke="midnightblue" points="650.07,-79.48 646.19,-89.34 655.37,-84.05 650.07,-79.48"/>
</g>
<!-- Node15 -->
<g id="node15" class="node">
<title>Node15</title>
<g id="a_node15"><a xlink:href="service__discovery__impl_8hpp.html" target="_top" xlink:title=" ">
<polygon fill="white" stroke="black" points="791,-89.5 791,-141.5 946,-141.5 946,-89.5 791,-89.5"/>
<text text-anchor="start" x="799" y="-129.5" font-family="Helvetica,sans-Serif" font-size="10.00">/home/kali/projects</text>
<text text-anchor="start" x="799" y="-118.5" font-family="Helvetica,sans-Serif" font-size="10.00">/vsomeip/implementation</text>
<text text-anchor="start" x="799" y="-107.5" font-family="Helvetica,sans-Serif" font-size="10.00">/service_discovery/include</text>
<text text-anchor="middle" x="868.5" y="-96.5" font-family="Helvetica,sans-Serif" font-size="10.00">/service_discovery_impl.hpp</text>
</a>
</g>
</g>
<!-- Node14&#45;&gt;Node15 -->
<g id="edge18" class="edge">
<title>Node14&#45;&gt;Node15</title>
<path fill="none" stroke="midnightblue" d="M865.53,-168.19C866.04,-159.28 866.58,-149.9 867.06,-141.61"/>
<polygon fill="midnightblue" stroke="midnightblue" points="862.03,-168.15 864.95,-178.34 869.01,-168.55 862.03,-168.15"/>
</g>
<!-- Node17 -->
<g id="node17" class="node">
<title>Node17</title>
<g id="a_node17"><a xlink:href="service__discovery__impl_8cpp.html" target="_top" xlink:title=" ">
<polygon fill="white" stroke="black" points="958,-0.5 958,-52.5 1113,-52.5 1113,-0.5 958,-0.5"/>
<text text-anchor="start" x="966" y="-40.5" font-family="Helvetica,sans-Serif" font-size="10.00">/home/kali/projects</text>
<text text-anchor="start" x="966" y="-29.5" font-family="Helvetica,sans-Serif" font-size="10.00">/vsomeip/implementation</text>
<text text-anchor="start" x="966" y="-18.5" font-family="Helvetica,sans-Serif" font-size="10.00">/service_discovery/src</text>
<text text-anchor="middle" x="1035.5" y="-7.5" font-family="Helvetica,sans-Serif" font-size="10.00">/service_discovery_impl.cpp</text>
</a>
</g>
</g>
<!-- Node14&#45;&gt;Node17 -->
<g id="edge22" class="edge">
<title>Node14&#45;&gt;Node17</title>
<path fill="none" stroke="midnightblue" d="M916.83,-172.71C930.21,-163.71 944.02,-153.25 955.5,-142 963.06,-134.6 997.48,-84.09 1018.64,-52.67"/>
<polygon fill="midnightblue" stroke="midnightblue" points="914.58,-170 908.13,-178.4 918.41,-175.86 914.58,-170"/>
</g>
<!-- Node18 -->
<g id="node18" class="node">
<title>Node18</title>
<g id="a_node18"><a xlink:href="service__discovery_2src_2deserializer_8cpp.html" target="_top" xlink:title=" ">
<polygon fill="white" stroke="black" points="1003,-89.5 1003,-141.5 1146,-141.5 1146,-89.5 1003,-89.5"/>
<text text-anchor="start" x="1011" y="-129.5" font-family="Helvetica,sans-Serif" font-size="10.00">/home/kali/projects</text>
<text text-anchor="start" x="1011" y="-118.5" font-family="Helvetica,sans-Serif" font-size="10.00">/vsomeip/implementation</text>
<text text-anchor="start" x="1011" y="-107.5" font-family="Helvetica,sans-Serif" font-size="10.00">/service_discovery/src</text>
<text text-anchor="middle" x="1074.5" y="-96.5" font-family="Helvetica,sans-Serif" font-size="10.00">/deserializer.cpp</text>
</a>
</g>
</g>
<!-- Node14&#45;&gt;Node18 -->
<g id="edge21" class="edge">
<title>Node14&#45;&gt;Node18</title>
<path fill="none" stroke="midnightblue" d="M933.65,-174.58C959.6,-163.88 988.78,-151.85 1013.82,-141.52"/>
<polygon fill="midnightblue" stroke="midnightblue" points="932.16,-171.41 924.25,-178.45 934.83,-177.88 932.16,-171.41"/>
</g>
<!-- Node16 -->
<g id="node16" class="node">
<title>Node16</title>
<g id="a_node16"><a xlink:href="service__discovery_2src_2runtime__impl_8cpp.html" target="_top" xlink:title=" ">
<polygon fill="white" stroke="black" points="797,-0.5 797,-52.5 940,-52.5 940,-0.5 797,-0.5"/>
<text text-anchor="start" x="805" y="-40.5" font-family="Helvetica,sans-Serif" font-size="10.00">/home/kali/projects</text>
<text text-anchor="start" x="805" y="-29.5" font-family="Helvetica,sans-Serif" font-size="10.00">/vsomeip/implementation</text>
<text text-anchor="start" x="805" y="-18.5" font-family="Helvetica,sans-Serif" font-size="10.00">/service_discovery/src</text>
<text text-anchor="middle" x="868.5" y="-7.5" font-family="Helvetica,sans-Serif" font-size="10.00">/runtime_impl.cpp</text>
</a>
</g>
</g>
<!-- Node15&#45;&gt;Node16 -->
<g id="edge19" class="edge">
<title>Node15&#45;&gt;Node16</title>
<path fill="none" stroke="midnightblue" d="M868.5,-79.19C868.5,-70.28 868.5,-60.9 868.5,-52.61"/>
<polygon fill="midnightblue" stroke="midnightblue" points="865,-79.34 868.5,-89.34 872,-79.34 865,-79.34"/>
</g>
<!-- Node15&#45;&gt;Node17 -->
<g id="edge20" class="edge">
<title>Node15&#45;&gt;Node17</title>
<path fill="none" stroke="midnightblue" d="M925.83,-84.64C945.85,-74.2 968.1,-62.61 987.31,-52.61"/>
<polygon fill="midnightblue" stroke="midnightblue" points="924.05,-81.61 916.8,-89.34 927.29,-87.82 924.05,-81.61"/>
</g>
</g>
</svg>
