<?xml version="1.0" encoding="UTF-8" standalone="no"?>
<!DOCTYPE svg PUBLIC "-//W3C//DTD SVG 1.1//EN"
 "http://www.w3.org/Graphics/SVG/1.1/DTD/svg11.dtd">
<!-- Generated by graphviz version 2.43.0 (0)
 -->
<!-- Title: /home/kali/projects/vsomeip/implementation/message/src/message_base_impl.cpp Pages: 1 -->
<svg width="675pt" height="307pt"
 viewBox="0.00 0.00 674.50 307.00" xmlns="http://www.w3.org/2000/svg" xmlns:xlink="http://www.w3.org/1999/xlink">
<g id="graph0" class="graph" transform="scale(1 1) rotate(0) translate(4 303)">
<title>/home/kali/projects/vsomeip/implementation/message/src/message_base_impl.cpp</title>
<polygon fill="white" stroke="transparent" points="-4,4 -4,-303 670.5,-303 670.5,4 -4,4"/>
<!-- Node1 -->
<g id="node1" class="node">
<title>Node1</title>
<g id="a_node1"><a xlink:title=" ">
<polygon fill="#bfbfbf" stroke="black" points="138.5,-246.5 138.5,-298.5 295.5,-298.5 295.5,-246.5 138.5,-246.5"/>
<text text-anchor="start" x="146.5" y="-286.5" font-family="Helvetica,sans-Serif" font-size="10.00">/home/kali/projects</text>
<text text-anchor="start" x="146.5" y="-275.5" font-family="Helvetica,sans-Serif" font-size="10.00">/vsomeip/implementation</text>
<text text-anchor="start" x="146.5" y="-264.5" font-family="Helvetica,sans-Serif" font-size="10.00">/message/src/message_base</text>
<text text-anchor="middle" x="217" y="-253.5" font-family="Helvetica,sans-Serif" font-size="10.00">_impl.cpp</text>
</a>
</g>
</g>
<!-- Node2 -->
<g id="node2" class="node">
<title>Node2</title>
<g id="a_node2"><a xlink:href="message_2include_2message__impl_8hpp.html" target="_top" xlink:title=" ">
<polygon fill="white" stroke="black" points="102,-179.5 102,-209.5 210,-209.5 210,-179.5 102,-179.5"/>
<text text-anchor="start" x="110" y="-197.5" font-family="Helvetica,sans-Serif" font-size="10.00">../include/message</text>
<text text-anchor="middle" x="156" y="-186.5" font-family="Helvetica,sans-Serif" font-size="10.00">_impl.hpp</text>
</a>
</g>
</g>
<!-- Node1&#45;&gt;Node2 -->
<g id="edge1" class="edge">
<title>Node1&#45;&gt;Node2</title>
<path fill="none" stroke="midnightblue" d="M196.69,-246.19C189.33,-237.03 181.09,-226.76 173.95,-217.86"/>
<polygon fill="midnightblue" stroke="midnightblue" points="176.5,-215.45 167.51,-209.85 171.04,-219.83 176.5,-215.45"/>
</g>
<!-- Node12 -->
<g id="node12" class="node">
<title>Node12</title>
<g id="a_node12"><a xlink:href="byteorder_8hpp.html" target="_top" xlink:title=" ">
<polygon fill="white" stroke="black" points="228.5,-179.5 228.5,-209.5 329.5,-209.5 329.5,-179.5 228.5,-179.5"/>
<text text-anchor="start" x="236.5" y="-197.5" font-family="Helvetica,sans-Serif" font-size="10.00">../../utility/include</text>
<text text-anchor="middle" x="279" y="-186.5" font-family="Helvetica,sans-Serif" font-size="10.00">/byteorder.hpp</text>
</a>
</g>
</g>
<!-- Node1&#45;&gt;Node12 -->
<g id="edge14" class="edge">
<title>Node1&#45;&gt;Node12</title>
<path fill="none" stroke="midnightblue" d="M237.65,-246.19C245.12,-237.03 253.5,-226.76 260.76,-217.86"/>
<polygon fill="midnightblue" stroke="midnightblue" points="263.69,-219.81 267.3,-209.85 258.26,-215.38 263.69,-219.81"/>
</g>
<!-- Node3 -->
<g id="node3" class="node">
<title>Node3</title>
<g id="a_node3"><a xlink:title=" ">
<polygon fill="white" stroke="#bfbfbf" points="0,-123.5 0,-142.5 58,-142.5 58,-123.5 0,-123.5"/>
<text text-anchor="middle" x="29" y="-130.5" font-family="Helvetica,sans-Serif" font-size="10.00">memory</text>
</a>
</g>
</g>
<!-- Node2&#45;&gt;Node3 -->
<g id="edge2" class="edge">
<title>Node2&#45;&gt;Node3</title>
<path fill="none" stroke="midnightblue" d="M125.9,-179.4C104.88,-169.55 77.03,-156.5 56.58,-146.92"/>
<polygon fill="midnightblue" stroke="midnightblue" points="58.02,-143.73 47.48,-142.66 55.05,-150.07 58.02,-143.73"/>
</g>
<!-- Node4 -->
<g id="node4" class="node">
<title>Node4</title>
<g id="a_node4"><a xlink:title=" ">
<polygon fill="white" stroke="#bfbfbf" points="32,-6 32,-25 146,-25 146,-6 32,-6"/>
<text text-anchor="middle" x="89" y="-13" font-family="Helvetica,sans-Serif" font-size="10.00">vsomeip/export.hpp</text>
</a>
</g>
</g>
<!-- Node2&#45;&gt;Node4 -->
<g id="edge3" class="edge">
<title>Node2&#45;&gt;Node4</title>
<path fill="none" stroke="midnightblue" d="M150.63,-179.31C138.59,-147.5 109.42,-70.45 95.99,-34.96"/>
<polygon fill="midnightblue" stroke="midnightblue" points="99.17,-33.49 92.36,-25.37 92.63,-35.97 99.17,-33.49"/>
</g>
<!-- Node5 -->
<g id="node5" class="node">
<title>Node5</title>
<g id="a_node5"><a xlink:title=" ">
<polygon fill="white" stroke="#bfbfbf" points="507.5,-6 507.5,-25 666.5,-25 666.5,-6 507.5,-6"/>
<text text-anchor="middle" x="587" y="-13" font-family="Helvetica,sans-Serif" font-size="10.00">vsomeip/primitive_types.hpp</text>
</a>
</g>
</g>
<!-- Node2&#45;&gt;Node5 -->
<g id="edge4" class="edge">
<title>Node2&#45;&gt;Node5</title>
<path fill="none" stroke="midnightblue" d="M210.11,-180.39C321.07,-153.4 564.6,-93.58 571,-87 584.24,-73.39 587.42,-51.24 587.8,-35.41"/>
<polygon fill="midnightblue" stroke="midnightblue" points="591.3,-35.16 587.69,-25.2 584.3,-35.24 591.3,-35.16"/>
</g>
<!-- Node6 -->
<g id="node6" class="node">
<title>Node6</title>
<g id="a_node6"><a xlink:href="message_2include_2message__base__impl_8hpp.html" target="_top" xlink:title=" ">
<polygon fill="white" stroke="black" points="157.5,-123.5 157.5,-142.5 294.5,-142.5 294.5,-123.5 157.5,-123.5"/>
<text text-anchor="middle" x="226" y="-130.5" font-family="Helvetica,sans-Serif" font-size="10.00">message_base_impl.hpp</text>
</a>
</g>
</g>
<!-- Node2&#45;&gt;Node6 -->
<g id="edge5" class="edge">
<title>Node2&#45;&gt;Node6</title>
<path fill="none" stroke="midnightblue" d="M172.59,-179.4C183.29,-170.31 197.19,-158.49 208.13,-149.19"/>
<polygon fill="midnightblue" stroke="midnightblue" points="210.46,-151.8 215.81,-142.66 205.93,-146.47 210.46,-151.8"/>
</g>
<!-- Node6&#45;&gt;Node4 -->
<g id="edge7" class="edge">
<title>Node6&#45;&gt;Node4</title>
<path fill="none" stroke="midnightblue" d="M204.71,-123.46C186.98,-115.67 161.69,-102.97 143,-87 124.94,-71.57 109.07,-49.19 99.28,-33.8"/>
<polygon fill="midnightblue" stroke="midnightblue" points="102.24,-31.93 94.01,-25.25 96.28,-35.6 102.24,-31.93"/>
</g>
<!-- Node7 -->
<g id="node7" class="node">
<title>Node7</title>
<g id="a_node7"><a xlink:title=" ">
<polygon fill="white" stroke="#bfbfbf" points="318.5,-67.5 318.5,-86.5 417.5,-86.5 417.5,-67.5 318.5,-67.5"/>
<text text-anchor="middle" x="368" y="-74.5" font-family="Helvetica,sans-Serif" font-size="10.00">boost/thread.hpp</text>
</a>
</g>
</g>
<!-- Node6&#45;&gt;Node7 -->
<g id="edge6" class="edge">
<title>Node6&#45;&gt;Node7</title>
<path fill="none" stroke="midnightblue" d="M248.5,-123.44C272.08,-114.48 309.32,-100.31 335.96,-90.18"/>
<polygon fill="midnightblue" stroke="midnightblue" points="337.5,-93.34 345.6,-86.52 335.01,-86.8 337.5,-93.34"/>
</g>
<!-- Node8 -->
<g id="node8" class="node">
<title>Node8</title>
<g id="a_node8"><a xlink:title=" ">
<polygon fill="white" stroke="#bfbfbf" points="435.5,-67.5 435.5,-86.5 562.5,-86.5 562.5,-67.5 435.5,-67.5"/>
<text text-anchor="middle" x="499" y="-74.5" font-family="Helvetica,sans-Serif" font-size="10.00">vsomeip/message.hpp</text>
</a>
</g>
</g>
<!-- Node6&#45;&gt;Node8 -->
<g id="edge8" class="edge">
<title>Node6&#45;&gt;Node8</title>
<path fill="none" stroke="midnightblue" d="M269.26,-123.44C317.18,-113.96 394.48,-98.67 446,-88.48"/>
<polygon fill="midnightblue" stroke="midnightblue" points="446.81,-91.89 455.94,-86.52 445.46,-85.02 446.81,-91.89"/>
</g>
<!-- Node9 -->
<g id="node9" class="node">
<title>Node9</title>
<g id="a_node9"><a xlink:href="message__header__impl_8hpp.html" target="_top" xlink:title=" ">
<polygon fill="white" stroke="black" points="152,-67.5 152,-86.5 300,-86.5 300,-67.5 152,-67.5"/>
<text text-anchor="middle" x="226" y="-74.5" font-family="Helvetica,sans-Serif" font-size="10.00">message_header_impl.hpp</text>
</a>
</g>
</g>
<!-- Node6&#45;&gt;Node9 -->
<g id="edge9" class="edge">
<title>Node6&#45;&gt;Node9</title>
<path fill="none" stroke="midnightblue" d="M226,-123.08C226,-116.01 226,-105.86 226,-96.99"/>
<polygon fill="midnightblue" stroke="midnightblue" points="229.5,-96.75 226,-86.75 222.5,-96.75 229.5,-96.75"/>
</g>
<!-- Node9&#45;&gt;Node4 -->
<g id="edge10" class="edge">
<title>Node9&#45;&gt;Node4</title>
<path fill="none" stroke="midnightblue" d="M206.37,-67.48C183.18,-57.4 144.38,-40.55 117.79,-29"/>
<polygon fill="midnightblue" stroke="midnightblue" points="119.16,-25.78 108.59,-25.01 116.37,-32.2 119.16,-25.78"/>
</g>
<!-- Node9&#45;&gt;Node5 -->
<g id="edge11" class="edge">
<title>Node9&#45;&gt;Node5</title>
<path fill="none" stroke="midnightblue" d="M277.72,-67.48C343.13,-56.69 455.62,-38.15 525.4,-26.65"/>
<polygon fill="midnightblue" stroke="midnightblue" points="526.08,-30.09 535.37,-25.01 524.94,-23.18 526.08,-30.09"/>
</g>
<!-- Node10 -->
<g id="node10" class="node">
<title>Node10</title>
<g id="a_node10"><a xlink:title=" ">
<polygon fill="white" stroke="#bfbfbf" points="164,-0.5 164,-30.5 288,-30.5 288,-0.5 164,-0.5"/>
<text text-anchor="start" x="172" y="-18.5" font-family="Helvetica,sans-Serif" font-size="10.00">vsomeip/enumeration</text>
<text text-anchor="middle" x="226" y="-7.5" font-family="Helvetica,sans-Serif" font-size="10.00">_types.hpp</text>
</a>
</g>
</g>
<!-- Node9&#45;&gt;Node10 -->
<g id="edge12" class="edge">
<title>Node9&#45;&gt;Node10</title>
<path fill="none" stroke="midnightblue" d="M226,-67.48C226,-60.47 226,-50.19 226,-40.7"/>
<polygon fill="midnightblue" stroke="midnightblue" points="229.5,-40.52 226,-30.52 222.5,-40.52 229.5,-40.52"/>
</g>
<!-- Node11 -->
<g id="node11" class="node">
<title>Node11</title>
<g id="a_node11"><a xlink:title=" ">
<polygon fill="white" stroke="#bfbfbf" points="306.5,-6 306.5,-25 485.5,-25 485.5,-6 306.5,-6"/>
<text text-anchor="middle" x="396" y="-13" font-family="Helvetica,sans-Serif" font-size="10.00">vsomeip/internal/serializable.hpp</text>
</a>
</g>
</g>
<!-- Node9&#45;&gt;Node11 -->
<g id="edge13" class="edge">
<title>Node9&#45;&gt;Node11</title>
<path fill="none" stroke="midnightblue" d="M250.36,-67.48C279.64,-57.22 328.97,-39.96 362,-28.4"/>
<polygon fill="midnightblue" stroke="midnightblue" points="363.41,-31.62 371.69,-25.01 361.09,-25.01 363.41,-31.62"/>
</g>
</g>
</svg>
