<?xml version="1.0" encoding="UTF-8" standalone="no"?>
<!DOCTYPE svg PUBLIC "-//W3C//DTD SVG 1.1//EN"
 "http://www.w3.org/Graphics/SVG/1.1/DTD/svg11.dtd">
<!-- Generated by graphviz version 2.43.0 (0)
 -->
<!-- Title: /home/kali/projects/vsomeip/implementation/message/src/message_header_impl.cpp Pages: 1 -->
<svg width="864pt" height="251pt"
 viewBox="0.00 0.00 864.00 251.00" xmlns="http://www.w3.org/2000/svg" xmlns:xlink="http://www.w3.org/1999/xlink">
<g id="graph0" class="graph" transform="scale(1 1) rotate(0) translate(4 247)">
<title>/home/kali/projects/vsomeip/implementation/message/src/message_header_impl.cpp</title>
<polygon fill="white" stroke="transparent" points="-4,4 -4,-247 860,-247 860,4 -4,4"/>
<!-- Node1 -->
<g id="node1" class="node">
<title>Node1</title>
<g id="a_node1"><a xlink:title=" ">
<polygon fill="#bfbfbf" stroke="black" points="364,-190.5 364,-242.5 531,-242.5 531,-190.5 364,-190.5"/>
<text text-anchor="start" x="372" y="-230.5" font-family="Helvetica,sans-Serif" font-size="10.00">/home/kali/projects</text>
<text text-anchor="start" x="372" y="-219.5" font-family="Helvetica,sans-Serif" font-size="10.00">/vsomeip/implementation</text>
<text text-anchor="start" x="372" y="-208.5" font-family="Helvetica,sans-Serif" font-size="10.00">/message/src/message_header</text>
<text text-anchor="middle" x="447.5" y="-197.5" font-family="Helvetica,sans-Serif" font-size="10.00">_impl.cpp</text>
</a>
</g>
</g>
<!-- Node2 -->
<g id="node2" class="node">
<title>Node2</title>
<g id="a_node2"><a xlink:title=" ">
<polygon fill="white" stroke="#bfbfbf" points="219.5,-129 219.5,-148 337.5,-148 337.5,-129 219.5,-129"/>
<text text-anchor="middle" x="278.5" y="-136" font-family="Helvetica,sans-Serif" font-size="10.00">vsomeip/defines.hpp</text>
</a>
</g>
</g>
<!-- Node1&#45;&gt;Node2 -->
<g id="edge1" class="edge">
<title>Node1&#45;&gt;Node2</title>
<path fill="none" stroke="midnightblue" d="M391.69,-190.4C363.26,-177.62 329.91,-162.62 306.8,-152.23"/>
<polygon fill="midnightblue" stroke="midnightblue" points="308.13,-148.99 297.57,-148.08 305.26,-155.37 308.13,-148.99"/>
</g>
<!-- Node3 -->
<g id="node3" class="node">
<title>Node3</title>
<g id="a_node3"><a xlink:href="message_2include_2message__base__impl_8hpp.html" target="_top" xlink:title=" ">
<polygon fill="white" stroke="black" points="393.5,-123.5 393.5,-153.5 501.5,-153.5 501.5,-123.5 393.5,-123.5"/>
<text text-anchor="start" x="401.5" y="-141.5" font-family="Helvetica,sans-Serif" font-size="10.00">../include/message</text>
<text text-anchor="middle" x="447.5" y="-130.5" font-family="Helvetica,sans-Serif" font-size="10.00">_base_impl.hpp</text>
</a>
</g>
</g>
<!-- Node1&#45;&gt;Node3 -->
<g id="edge2" class="edge">
<title>Node1&#45;&gt;Node3</title>
<path fill="none" stroke="midnightblue" d="M447.5,-190.19C447.5,-181.79 447.5,-172.44 447.5,-164.09"/>
<polygon fill="midnightblue" stroke="midnightblue" points="451,-163.85 447.5,-153.85 444,-163.85 451,-163.85"/>
</g>
<!-- Node7 -->
<g id="node7" class="node">
<title>Node7</title>
<g id="a_node7"><a xlink:href="message__header__impl_8hpp.html" target="_top" xlink:title=" ">
<polygon fill="white" stroke="black" points="100.5,-67.5 100.5,-86.5 248.5,-86.5 248.5,-67.5 100.5,-67.5"/>
<text text-anchor="middle" x="174.5" y="-74.5" font-family="Helvetica,sans-Serif" font-size="10.00">message_header_impl.hpp</text>
</a>
</g>
</g>
<!-- Node1&#45;&gt;Node7 -->
<g id="edge11" class="edge">
<title>Node1&#45;&gt;Node7</title>
<path fill="none" stroke="midnightblue" d="M421.06,-190.05C394.1,-164.31 355.06,-127.66 346.5,-123 315.56,-106.15 278.01,-95.38 245.91,-88.62"/>
<polygon fill="midnightblue" stroke="midnightblue" points="246.18,-85.1 235.69,-86.56 244.8,-91.96 246.18,-85.1"/>
</g>
<!-- Node11 -->
<g id="node11" class="node">
<title>Node11</title>
<g id="a_node11"><a xlink:href="serializer_8hpp.html" target="_top" xlink:title=" ">
<polygon fill="white" stroke="black" points="568,-67.5 568,-86.5 697,-86.5 697,-67.5 568,-67.5"/>
<text text-anchor="middle" x="632.5" y="-74.5" font-family="Helvetica,sans-Serif" font-size="10.00">../include/serializer.hpp</text>
</a>
</g>
</g>
<!-- Node1&#45;&gt;Node11 -->
<g id="edge12" class="edge">
<title>Node1&#45;&gt;Node11</title>
<path fill="none" stroke="midnightblue" d="M481.43,-190.28C519.79,-161.77 580.97,-116.3 612.41,-92.93"/>
<polygon fill="midnightblue" stroke="midnightblue" points="614.86,-95.47 620.8,-86.7 610.68,-89.86 614.86,-95.47"/>
</g>
<!-- Node13 -->
<g id="node13" class="node">
<title>Node13</title>
<g id="a_node13"><a xlink:href="message_2include_2deserializer_8hpp.html" target="_top" xlink:title=" ">
<polygon fill="white" stroke="black" points="715,-67.5 715,-86.5 856,-86.5 856,-67.5 715,-67.5"/>
<text text-anchor="middle" x="785.5" y="-74.5" font-family="Helvetica,sans-Serif" font-size="10.00">../include/deserializer.hpp</text>
</a>
</g>
</g>
<!-- Node1&#45;&gt;Node13 -->
<g id="edge16" class="edge">
<title>Node1&#45;&gt;Node13</title>
<path fill="none" stroke="midnightblue" d="M509.1,-190.44C581.7,-160.91 699.45,-113.01 754.84,-90.47"/>
<polygon fill="midnightblue" stroke="midnightblue" points="756.49,-93.58 764.43,-86.57 753.85,-87.1 756.49,-93.58"/>
</g>
<!-- Node4 -->
<g id="node4" class="node">
<title>Node4</title>
<g id="a_node4"><a xlink:title=" ">
<polygon fill="white" stroke="#bfbfbf" points="267,-67.5 267,-86.5 366,-86.5 366,-67.5 267,-67.5"/>
<text text-anchor="middle" x="316.5" y="-74.5" font-family="Helvetica,sans-Serif" font-size="10.00">boost/thread.hpp</text>
</a>
</g>
</g>
<!-- Node3&#45;&gt;Node4 -->
<g id="edge3" class="edge">
<title>Node3&#45;&gt;Node4</title>
<path fill="none" stroke="midnightblue" d="M416.45,-123.4C394.77,-113.55 366.04,-100.5 344.95,-90.92"/>
<polygon fill="midnightblue" stroke="midnightblue" points="346.11,-87.61 335.56,-86.66 343.22,-93.98 346.11,-87.61"/>
</g>
<!-- Node5 -->
<g id="node5" class="node">
<title>Node5</title>
<g id="a_node5"><a xlink:title=" ">
<polygon fill="white" stroke="#bfbfbf" points="452.5,-6 452.5,-25 566.5,-25 566.5,-6 452.5,-6"/>
<text text-anchor="middle" x="509.5" y="-13" font-family="Helvetica,sans-Serif" font-size="10.00">vsomeip/export.hpp</text>
</a>
</g>
</g>
<!-- Node3&#45;&gt;Node5 -->
<g id="edge4" class="edge">
<title>Node3&#45;&gt;Node5</title>
<path fill="none" stroke="midnightblue" d="M480.91,-123.34C495.89,-115.09 512.06,-103.11 520.5,-87 529.02,-70.75 524,-49.72 518.26,-34.87"/>
<polygon fill="midnightblue" stroke="midnightblue" points="521.31,-33.1 514.13,-25.3 514.88,-35.87 521.31,-33.1"/>
</g>
<!-- Node6 -->
<g id="node6" class="node">
<title>Node6</title>
<g id="a_node6"><a xlink:title=" ">
<polygon fill="white" stroke="#bfbfbf" points="384,-67.5 384,-86.5 511,-86.5 511,-67.5 384,-67.5"/>
<text text-anchor="middle" x="447.5" y="-74.5" font-family="Helvetica,sans-Serif" font-size="10.00">vsomeip/message.hpp</text>
</a>
</g>
</g>
<!-- Node3&#45;&gt;Node6 -->
<g id="edge5" class="edge">
<title>Node3&#45;&gt;Node6</title>
<path fill="none" stroke="midnightblue" d="M447.5,-123.4C447.5,-115.47 447.5,-105.46 447.5,-96.86"/>
<polygon fill="midnightblue" stroke="midnightblue" points="451,-96.66 447.5,-86.66 444,-96.66 451,-96.66"/>
</g>
<!-- Node3&#45;&gt;Node7 -->
<g id="edge6" class="edge">
<title>Node3&#45;&gt;Node7</title>
<path fill="none" stroke="midnightblue" d="M393.24,-125.67C343.73,-114.88 271.22,-99.08 223.46,-88.67"/>
<polygon fill="midnightblue" stroke="midnightblue" points="224.17,-85.24 213.66,-86.53 222.68,-92.08 224.17,-85.24"/>
</g>
<!-- Node7&#45;&gt;Node5 -->
<g id="edge7" class="edge">
<title>Node7&#45;&gt;Node5</title>
<path fill="none" stroke="midnightblue" d="M222.5,-67.48C282.95,-56.74 386.73,-38.31 451.54,-26.79"/>
<polygon fill="midnightblue" stroke="midnightblue" points="452.36,-30.2 461.59,-25.01 451.13,-23.31 452.36,-30.2"/>
</g>
<!-- Node8 -->
<g id="node8" class="node">
<title>Node8</title>
<g id="a_node8"><a xlink:title=" ">
<polygon fill="white" stroke="#bfbfbf" points="585,-6 585,-25 744,-25 744,-6 585,-6"/>
<text text-anchor="middle" x="664.5" y="-13" font-family="Helvetica,sans-Serif" font-size="10.00">vsomeip/primitive_types.hpp</text>
</a>
</g>
</g>
<!-- Node7&#45;&gt;Node8 -->
<g id="edge8" class="edge">
<title>Node7&#45;&gt;Node8</title>
<path fill="none" stroke="midnightblue" d="M248.61,-67.88C355.6,-56.14 544.01,-35.33 575.5,-31 584.94,-29.7 594.92,-28.2 604.65,-26.67"/>
<polygon fill="midnightblue" stroke="midnightblue" points="605.35,-30.1 614.67,-25.07 604.24,-23.19 605.35,-30.1"/>
</g>
<!-- Node9 -->
<g id="node9" class="node">
<title>Node9</title>
<g id="a_node9"><a xlink:title=" ">
<polygon fill="white" stroke="#bfbfbf" points="197.5,-0.5 197.5,-30.5 321.5,-30.5 321.5,-0.5 197.5,-0.5"/>
<text text-anchor="start" x="205.5" y="-18.5" font-family="Helvetica,sans-Serif" font-size="10.00">vsomeip/enumeration</text>
<text text-anchor="middle" x="259.5" y="-7.5" font-family="Helvetica,sans-Serif" font-size="10.00">_types.hpp</text>
</a>
</g>
</g>
<!-- Node7&#45;&gt;Node9 -->
<g id="edge9" class="edge">
<title>Node7&#45;&gt;Node9</title>
<path fill="none" stroke="midnightblue" d="M186.68,-67.48C198.19,-59.42 215.9,-47.02 230.97,-36.47"/>
<polygon fill="midnightblue" stroke="midnightblue" points="233.28,-39.12 239.47,-30.52 229.27,-33.39 233.28,-39.12"/>
</g>
<!-- Node10 -->
<g id="node10" class="node">
<title>Node10</title>
<g id="a_node10"><a xlink:title=" ">
<polygon fill="white" stroke="#bfbfbf" points="0,-6 0,-25 179,-25 179,-6 0,-6"/>
<text text-anchor="middle" x="89.5" y="-13" font-family="Helvetica,sans-Serif" font-size="10.00">vsomeip/internal/serializable.hpp</text>
</a>
</g>
</g>
<!-- Node7&#45;&gt;Node10 -->
<g id="edge10" class="edge">
<title>Node7&#45;&gt;Node10</title>
<path fill="none" stroke="midnightblue" d="M162.32,-67.48C148.69,-57.93 126.37,-42.31 110.03,-30.87"/>
<polygon fill="midnightblue" stroke="midnightblue" points="111.86,-27.88 101.66,-25.01 107.84,-33.61 111.86,-27.88"/>
</g>
<!-- Node11&#45;&gt;Node5 -->
<g id="edge14" class="edge">
<title>Node11&#45;&gt;Node5</title>
<path fill="none" stroke="midnightblue" d="M614.88,-67.48C594.33,-57.53 560.14,-40.99 536.29,-29.46"/>
<polygon fill="midnightblue" stroke="midnightblue" points="537.62,-26.21 527.09,-25.01 534.57,-32.51 537.62,-26.21"/>
</g>
<!-- Node11&#45;&gt;Node8 -->
<g id="edge15" class="edge">
<title>Node11&#45;&gt;Node8</title>
<path fill="none" stroke="midnightblue" d="M637.08,-67.48C641.74,-58.82 649.09,-45.15 655.01,-34.15"/>
<polygon fill="midnightblue" stroke="midnightblue" points="658.27,-35.47 659.92,-25.01 652.1,-32.16 658.27,-35.47"/>
</g>
<!-- Node12 -->
<g id="node12" class="node">
<title>Node12</title>
<g id="a_node12"><a xlink:title=" ">
<polygon fill="white" stroke="#bfbfbf" points="762,-6 762,-25 809,-25 809,-6 762,-6"/>
<text text-anchor="middle" x="785.5" y="-13" font-family="Helvetica,sans-Serif" font-size="10.00">vector</text>
</a>
</g>
</g>
<!-- Node11&#45;&gt;Node12 -->
<g id="edge13" class="edge">
<title>Node11&#45;&gt;Node12</title>
<path fill="none" stroke="midnightblue" d="M657.26,-67.36C681.85,-58.64 720.55,-44.57 753.5,-31 754.91,-30.42 756.35,-29.81 757.8,-29.19"/>
<polygon fill="midnightblue" stroke="midnightblue" points="759.58,-32.23 767.32,-25 756.76,-25.83 759.58,-32.23"/>
</g>
<!-- Node13&#45;&gt;Node5 -->
<g id="edge18" class="edge">
<title>Node13&#45;&gt;Node5</title>
<path fill="none" stroke="midnightblue" d="M745.82,-67.47C703.78,-58.43 635.46,-43.73 576.5,-31 570.76,-29.76 564.75,-28.46 558.78,-27.17"/>
<polygon fill="midnightblue" stroke="midnightblue" points="559.34,-23.71 548.82,-25.02 557.86,-30.55 559.34,-23.71"/>
</g>
<!-- Node13&#45;&gt;Node8 -->
<g id="edge19" class="edge">
<title>Node13&#45;&gt;Node8</title>
<path fill="none" stroke="midnightblue" d="M768.16,-67.48C747.95,-57.53 714.31,-40.99 690.86,-29.46"/>
<polygon fill="midnightblue" stroke="midnightblue" points="692.32,-26.28 681.8,-25.01 689.23,-32.56 692.32,-26.28"/>
</g>
<!-- Node13&#45;&gt;Node12 -->
<g id="edge17" class="edge">
<title>Node13&#45;&gt;Node12</title>
<path fill="none" stroke="midnightblue" d="M785.5,-67.48C785.5,-59.08 785.5,-45.98 785.5,-35.16"/>
<polygon fill="midnightblue" stroke="midnightblue" points="789,-35.01 785.5,-25.01 782,-35.01 789,-35.01"/>
</g>
</g>
</svg>
