<?xml version="1.0" encoding="UTF-8" standalone="no"?>
<!DOCTYPE svg PUBLIC "-//W3C//DTD SVG 1.1//EN"
 "http://www.w3.org/Graphics/SVG/1.1/DTD/svg11.dtd">
<!-- Generated by graphviz version 2.43.0 (0)
 -->
<!-- Title: /home/kali/projects/vsomeip/implementation/endpoints/src/netlink_connector.cpp Pages: 1 -->
<svg width="1609pt" height="251pt"
 viewBox="0.00 0.00 1608.50 251.00" xmlns="http://www.w3.org/2000/svg" xmlns:xlink="http://www.w3.org/1999/xlink">
<g id="graph0" class="graph" transform="scale(1 1) rotate(0) translate(4 247)">
<title>/home/kali/projects/vsomeip/implementation/endpoints/src/netlink_connector.cpp</title>
<polygon fill="white" stroke="transparent" points="-4,4 -4,-247 1604.5,-247 1604.5,4 -4,4"/>
<!-- Node1 -->
<g id="node1" class="node">
<title>Node1</title>
<g id="a_node1"><a xlink:title=" ">
<polygon fill="#bfbfbf" stroke="black" points="227.5,-190.5 227.5,-242.5 370.5,-242.5 370.5,-190.5 227.5,-190.5"/>
<text text-anchor="start" x="235.5" y="-230.5" font-family="Helvetica,sans-Serif" font-size="10.00">/home/kali/projects</text>
<text text-anchor="start" x="235.5" y="-219.5" font-family="Helvetica,sans-Serif" font-size="10.00">/vsomeip/implementation</text>
<text text-anchor="start" x="235.5" y="-208.5" font-family="Helvetica,sans-Serif" font-size="10.00">/endpoints/src/netlink</text>
<text text-anchor="middle" x="299" y="-197.5" font-family="Helvetica,sans-Serif" font-size="10.00">_connector.cpp</text>
</a>
</g>
</g>
<!-- Node2 -->
<g id="node2" class="node">
<title>Node2</title>
<g id="a_node2"><a xlink:title=" ">
<polygon fill="white" stroke="#bfbfbf" points="0,-129 0,-148 48,-148 48,-129 0,-129"/>
<text text-anchor="middle" x="24" y="-136" font-family="Helvetica,sans-Serif" font-size="10.00">thread</text>
</a>
</g>
</g>
<!-- Node1&#45;&gt;Node2 -->
<g id="edge1" class="edge">
<title>Node1&#45;&gt;Node2</title>
<path fill="none" stroke="midnightblue" d="M227.41,-200.57C178.75,-189.64 113.26,-173.36 57,-154 55.14,-153.36 53.23,-152.66 51.32,-151.92"/>
<polygon fill="midnightblue" stroke="midnightblue" points="52.52,-148.62 41.94,-148.02 49.84,-155.09 52.52,-148.62"/>
</g>
<!-- Node3 -->
<g id="node3" class="node">
<title>Node3</title>
<g id="a_node3"><a xlink:title=" ">
<polygon fill="white" stroke="#bfbfbf" points="66,-129 66,-148 182,-148 182,-129 66,-129"/>
<text text-anchor="middle" x="124" y="-136" font-family="Helvetica,sans-Serif" font-size="10.00">boost/asio/write.hpp</text>
</a>
</g>
</g>
<!-- Node1&#45;&gt;Node3 -->
<g id="edge2" class="edge">
<title>Node1&#45;&gt;Node3</title>
<path fill="none" stroke="midnightblue" d="M241.21,-190.4C211.64,-177.56 176.92,-162.48 152.99,-152.09"/>
<polygon fill="midnightblue" stroke="midnightblue" points="154.32,-148.85 143.75,-148.08 151.53,-155.27 154.32,-148.85"/>
</g>
<!-- Node4 -->
<g id="node4" class="node">
<title>Node4</title>
<g id="a_node4"><a xlink:title=" ">
<polygon fill="white" stroke="#bfbfbf" points="200.5,-129 200.5,-148 313.5,-148 313.5,-129 200.5,-129"/>
<text text-anchor="middle" x="257" y="-136" font-family="Helvetica,sans-Serif" font-size="10.00">boost/asio/read.hpp</text>
</a>
</g>
</g>
<!-- Node1&#45;&gt;Node4 -->
<g id="edge3" class="edge">
<title>Node1&#45;&gt;Node4</title>
<path fill="none" stroke="midnightblue" d="M285.01,-190.19C279,-179.31 272.12,-166.86 266.68,-157.02"/>
<polygon fill="midnightblue" stroke="midnightblue" points="269.71,-155.27 261.81,-148.21 263.59,-158.65 269.71,-155.27"/>
</g>
<!-- Node5 -->
<g id="node5" class="node">
<title>Node5</title>
<g id="a_node5"><a xlink:title=" ">
<polygon fill="white" stroke="#bfbfbf" points="238,-62 238,-81 294,-81 294,-62 238,-62"/>
<text text-anchor="middle" x="266" y="-69" font-family="Helvetica,sans-Serif" font-size="10.00">sstream</text>
</a>
</g>
</g>
<!-- Node1&#45;&gt;Node5 -->
<g id="edge4" class="edge">
<title>Node1&#45;&gt;Node5</title>
<path fill="none" stroke="midnightblue" d="M313.92,-190.38C323.2,-171.32 331.68,-144.77 322,-123 315.32,-107.98 301.73,-95.55 289.61,-86.78"/>
<polygon fill="midnightblue" stroke="midnightblue" points="291.4,-83.77 281.16,-81.05 287.47,-89.56 291.4,-83.77"/>
</g>
<!-- Node6 -->
<g id="node6" class="node">
<title>Node6</title>
<g id="a_node6"><a xlink:href="logger_8hpp.html" target="_top" xlink:title=" ">
<polygon fill="white" stroke="black" points="370.5,-129 370.5,-148 523.5,-148 523.5,-129 370.5,-129"/>
<text text-anchor="middle" x="447" y="-136" font-family="Helvetica,sans-Serif" font-size="10.00">vsomeip/internal/logger.hpp</text>
</a>
</g>
</g>
<!-- Node1&#45;&gt;Node6 -->
<g id="edge5" class="edge">
<title>Node1&#45;&gt;Node6</title>
<path fill="none" stroke="midnightblue" d="M347.87,-190.4C372.44,-177.79 401.2,-163.02 421.4,-152.65"/>
<polygon fill="midnightblue" stroke="midnightblue" points="423,-155.76 430.3,-148.08 419.8,-149.53 423,-155.76"/>
</g>
<!-- Node13 -->
<g id="node13" class="node">
<title>Node13</title>
<g id="a_node13"><a xlink:href="netlink__connector_8hpp.html" target="_top" xlink:title=" ">
<polygon fill="white" stroke="black" points="1060,-123.5 1060,-153.5 1158,-153.5 1158,-123.5 1060,-123.5"/>
<text text-anchor="start" x="1068" y="-141.5" font-family="Helvetica,sans-Serif" font-size="10.00">../include/netlink</text>
<text text-anchor="middle" x="1109" y="-130.5" font-family="Helvetica,sans-Serif" font-size="10.00">_connector.hpp</text>
</a>
</g>
</g>
<!-- Node1&#45;&gt;Node13 -->
<g id="edge13" class="edge">
<title>Node1&#45;&gt;Node13</title>
<path fill="none" stroke="midnightblue" d="M370.53,-208.79C528.34,-193.98 903.92,-158.74 1049.71,-145.06"/>
<polygon fill="midnightblue" stroke="midnightblue" points="1050.18,-148.53 1059.81,-144.12 1049.52,-141.57 1050.18,-148.53"/>
</g>
<!-- Node6&#45;&gt;Node5 -->
<g id="edge10" class="edge">
<title>Node6&#45;&gt;Node5</title>
<path fill="none" stroke="midnightblue" d="M422.96,-128.87C391.23,-117.47 335.21,-97.35 299.38,-84.49"/>
<polygon fill="midnightblue" stroke="midnightblue" points="300.44,-81.15 289.85,-81.06 298.08,-87.74 300.44,-81.15"/>
</g>
<!-- Node7 -->
<g id="node7" class="node">
<title>Node7</title>
<g id="a_node7"><a xlink:title=" ">
<polygon fill="white" stroke="#bfbfbf" points="372,-0.5 372,-19.5 422,-19.5 422,-0.5 372,-0.5"/>
<text text-anchor="middle" x="397" y="-7.5" font-family="Helvetica,sans-Serif" font-size="10.00">chrono</text>
</a>
</g>
</g>
<!-- Node6&#45;&gt;Node7 -->
<g id="edge6" class="edge">
<title>Node6&#45;&gt;Node7</title>
<path fill="none" stroke="midnightblue" d="M404.98,-128.96C381.84,-121.89 355.04,-109.24 341,-87 333.65,-75.35 335.05,-68.42 341,-56 347.25,-42.95 359.34,-32.49 370.68,-24.95"/>
<polygon fill="midnightblue" stroke="midnightblue" points="372.81,-27.75 379.5,-19.54 369.15,-21.79 372.81,-27.75"/>
</g>
<!-- Node8 -->
<g id="node8" class="node">
<title>Node8</title>
<g id="a_node8"><a xlink:title=" ">
<polygon fill="white" stroke="#bfbfbf" points="350,-62 350,-81 400,-81 400,-62 350,-62"/>
<text text-anchor="middle" x="375" y="-69" font-family="Helvetica,sans-Serif" font-size="10.00">cstdint</text>
</a>
</g>
</g>
<!-- Node6&#45;&gt;Node8 -->
<g id="edge7" class="edge">
<title>Node6&#45;&gt;Node8</title>
<path fill="none" stroke="midnightblue" d="M437.29,-128.73C425.74,-118.31 406.25,-100.71 392.14,-87.97"/>
<polygon fill="midnightblue" stroke="midnightblue" points="394.32,-85.23 384.56,-81.13 389.63,-90.43 394.32,-85.23"/>
</g>
<!-- Node9 -->
<g id="node9" class="node">
<title>Node9</title>
<g id="a_node9"><a xlink:title=" ">
<polygon fill="white" stroke="#bfbfbf" points="711,-62 711,-81 759,-81 759,-62 711,-62"/>
<text text-anchor="middle" x="735" y="-69" font-family="Helvetica,sans-Serif" font-size="10.00">mutex</text>
</a>
</g>
</g>
<!-- Node6&#45;&gt;Node9 -->
<g id="edge8" class="edge">
<title>Node6&#45;&gt;Node9</title>
<path fill="none" stroke="midnightblue" d="M509.79,-128.98C561.99,-120.97 637.85,-107.18 702,-87 703.93,-86.39 705.89,-85.71 707.85,-84.98"/>
<polygon fill="midnightblue" stroke="midnightblue" points="709.53,-88.08 717.46,-81.05 706.88,-81.6 709.53,-88.08"/>
</g>
<!-- Node10 -->
<g id="node10" class="node">
<title>Node10</title>
<g id="a_node10"><a xlink:title=" ">
<polygon fill="white" stroke="#bfbfbf" points="418.5,-62 418.5,-81 475.5,-81 475.5,-62 418.5,-62"/>
<text text-anchor="middle" x="447" y="-69" font-family="Helvetica,sans-Serif" font-size="10.00">ostream</text>
</a>
</g>
</g>
<!-- Node6&#45;&gt;Node10 -->
<g id="edge9" class="edge">
<title>Node6&#45;&gt;Node10</title>
<path fill="none" stroke="midnightblue" d="M447,-128.73C447,-119.18 447,-103.62 447,-91.28"/>
<polygon fill="midnightblue" stroke="midnightblue" points="450.5,-91.13 447,-81.13 443.5,-91.13 450.5,-91.13"/>
</g>
<!-- Node11 -->
<g id="node11" class="node">
<title>Node11</title>
<g id="a_node11"><a xlink:title=" ">
<polygon fill="white" stroke="#bfbfbf" points="493.5,-62 493.5,-81 560.5,-81 560.5,-62 493.5,-62"/>
<text text-anchor="middle" x="527" y="-69" font-family="Helvetica,sans-Serif" font-size="10.00">streambuf</text>
</a>
</g>
</g>
<!-- Node6&#45;&gt;Node11 -->
<g id="edge11" class="edge">
<title>Node6&#45;&gt;Node11</title>
<path fill="none" stroke="midnightblue" d="M457.79,-128.73C470.74,-118.21 492.69,-100.38 508.39,-87.62"/>
<polygon fill="midnightblue" stroke="midnightblue" points="510.83,-90.15 516.38,-81.13 506.41,-84.72 510.83,-90.15"/>
</g>
<!-- Node12 -->
<g id="node12" class="node">
<title>Node12</title>
<g id="a_node12"><a xlink:title=" ">
<polygon fill="white" stroke="#bfbfbf" points="579,-62 579,-81 693,-81 693,-62 579,-62"/>
<text text-anchor="middle" x="636" y="-69" font-family="Helvetica,sans-Serif" font-size="10.00">vsomeip/export.hpp</text>
</a>
</g>
</g>
<!-- Node6&#45;&gt;Node12 -->
<g id="edge12" class="edge">
<title>Node6&#45;&gt;Node12</title>
<path fill="none" stroke="midnightblue" d="M472.1,-128.87C505.37,-117.42 564.24,-97.18 601.62,-84.32"/>
<polygon fill="midnightblue" stroke="midnightblue" points="602.78,-87.63 611.1,-81.06 600.5,-81.01 602.78,-87.63"/>
</g>
<!-- Node13&#45;&gt;Node9 -->
<g id="edge18" class="edge">
<title>Node13&#45;&gt;Node9</title>
<path fill="none" stroke="midnightblue" d="M1059.85,-134.35C992.78,-129.13 869.36,-116.2 768,-87 765.85,-86.38 763.66,-85.65 761.48,-84.86"/>
<polygon fill="midnightblue" stroke="midnightblue" points="762.73,-81.59 752.15,-81.07 760.1,-88.07 762.73,-81.59"/>
</g>
<!-- Node14 -->
<g id="node14" class="node">
<title>Node14</title>
<g id="a_node14"><a xlink:title=" ">
<polygon fill="white" stroke="#bfbfbf" points="916.5,-62 916.5,-81 993.5,-81 993.5,-62 916.5,-62"/>
<text text-anchor="middle" x="955" y="-69" font-family="Helvetica,sans-Serif" font-size="10.00">sys/socket.h</text>
</a>
</g>
</g>
<!-- Node13&#45;&gt;Node14 -->
<g id="edge14" class="edge">
<title>Node13&#45;&gt;Node14</title>
<path fill="none" stroke="midnightblue" d="M1075.58,-123.4C1048.44,-111.94 1010.53,-95.94 984.5,-84.95"/>
<polygon fill="midnightblue" stroke="midnightblue" points="985.73,-81.67 975.16,-81.01 983.01,-88.12 985.73,-81.67"/>
</g>
<!-- Node15 -->
<g id="node15" class="node">
<title>Node15</title>
<g id="a_node15"><a xlink:title=" ">
<polygon fill="white" stroke="#bfbfbf" points="1012,-62 1012,-81 1098,-81 1098,-62 1012,-62"/>
<text text-anchor="middle" x="1055" y="-69" font-family="Helvetica,sans-Serif" font-size="10.00">linux/netlink.h</text>
</a>
</g>
</g>
<!-- Node13&#45;&gt;Node15 -->
<g id="edge15" class="edge">
<title>Node13&#45;&gt;Node15</title>
<path fill="none" stroke="midnightblue" d="M1097.28,-123.4C1088.86,-113.26 1077.49,-99.57 1068.66,-88.94"/>
<polygon fill="midnightblue" stroke="midnightblue" points="1071.31,-86.65 1062.22,-81.19 1065.92,-91.12 1071.31,-86.65"/>
</g>
<!-- Node16 -->
<g id="node16" class="node">
<title>Node16</title>
<g id="a_node16"><a xlink:title=" ">
<polygon fill="white" stroke="#bfbfbf" points="1116,-62 1116,-81 1210,-81 1210,-62 1116,-62"/>
<text text-anchor="middle" x="1163" y="-69" font-family="Helvetica,sans-Serif" font-size="10.00">linux/rtnetlink.h</text>
</a>
</g>
</g>
<!-- Node13&#45;&gt;Node16 -->
<g id="edge16" class="edge">
<title>Node13&#45;&gt;Node16</title>
<path fill="none" stroke="midnightblue" d="M1120.72,-123.4C1129.14,-113.26 1140.51,-99.57 1149.34,-88.94"/>
<polygon fill="midnightblue" stroke="midnightblue" points="1152.08,-91.12 1155.78,-81.19 1146.69,-86.65 1152.08,-91.12"/>
</g>
<!-- Node17 -->
<g id="node17" class="node">
<title>Node17</title>
<g id="a_node17"><a xlink:title=" ">
<polygon fill="white" stroke="#bfbfbf" points="1228,-62 1228,-81 1266,-81 1266,-62 1228,-62"/>
<text text-anchor="middle" x="1247" y="-69" font-family="Helvetica,sans-Serif" font-size="10.00">map</text>
</a>
</g>
</g>
<!-- Node13&#45;&gt;Node17 -->
<g id="edge17" class="edge">
<title>Node13&#45;&gt;Node17</title>
<path fill="none" stroke="midnightblue" d="M1140.96,-123.31C1163.01,-113.4 1192.94,-99.72 1219,-87 1219.84,-86.59 1220.69,-86.17 1221.55,-85.74"/>
<polygon fill="midnightblue" stroke="midnightblue" points="1223.44,-88.71 1230.78,-81.07 1220.28,-82.47 1223.44,-88.71"/>
</g>
<!-- Node18 -->
<g id="node18" class="node">
<title>Node18</title>
<g id="a_node18"><a xlink:title=" ">
<polygon fill="white" stroke="#bfbfbf" points="1206,-0.5 1206,-19.5 1346,-19.5 1346,-0.5 1206,-0.5"/>
<text text-anchor="middle" x="1276" y="-7.5" font-family="Helvetica,sans-Serif" font-size="10.00">boost/asio/io_service.hpp</text>
</a>
</g>
</g>
<!-- Node13&#45;&gt;Node18 -->
<g id="edge19" class="edge">
<title>Node13&#45;&gt;Node18</title>
<path fill="none" stroke="midnightblue" d="M1158.02,-137.18C1196.58,-134.03 1248.13,-122.76 1275,-87 1287.35,-70.56 1285.04,-45.96 1281.33,-29.24"/>
<polygon fill="midnightblue" stroke="midnightblue" points="1284.72,-28.36 1278.84,-19.55 1277.94,-30.11 1284.72,-28.36"/>
</g>
<!-- Node19 -->
<g id="node19" class="node">
<title>Node19</title>
<g id="a_node19"><a xlink:title=" ">
<polygon fill="white" stroke="#bfbfbf" points="1322.5,-56.5 1322.5,-86.5 1441.5,-86.5 1441.5,-56.5 1322.5,-56.5"/>
<text text-anchor="start" x="1330.5" y="-74.5" font-family="Helvetica,sans-Serif" font-size="10.00">boost/asio/basic_raw</text>
<text text-anchor="middle" x="1382" y="-63.5" font-family="Helvetica,sans-Serif" font-size="10.00">_socket.hpp</text>
</a>
</g>
</g>
<!-- Node13&#45;&gt;Node19 -->
<g id="edge20" class="edge">
<title>Node13&#45;&gt;Node19</title>
<path fill="none" stroke="midnightblue" d="M1158.12,-125.8C1201.35,-115.51 1264.75,-100.42 1313.06,-88.91"/>
<polygon fill="midnightblue" stroke="midnightblue" points="1313.9,-92.31 1322.81,-86.59 1312.28,-85.5 1313.9,-92.31"/>
</g>
<!-- Node20 -->
<g id="node20" class="node">
<title>Node20</title>
<g id="a_node20"><a xlink:title=" ">
<polygon fill="white" stroke="#bfbfbf" points="1459.5,-62 1459.5,-81 1600.5,-81 1600.5,-62 1459.5,-62"/>
<text text-anchor="middle" x="1530" y="-69" font-family="Helvetica,sans-Serif" font-size="10.00">boost/asio/ip/address.hpp</text>
</a>
</g>
</g>
<!-- Node13&#45;&gt;Node20 -->
<g id="edge21" class="edge">
<title>Node13&#45;&gt;Node20</title>
<path fill="none" stroke="midnightblue" d="M1158.07,-130.8C1224.57,-121.6 1346.93,-104.23 1451,-87 1458.74,-85.72 1466.89,-84.3 1474.9,-82.87"/>
<polygon fill="midnightblue" stroke="midnightblue" points="1475.71,-86.28 1484.93,-81.05 1474.47,-79.39 1475.71,-86.28"/>
</g>
<!-- Node21 -->
<g id="node21" class="node">
<title>Node21</title>
<g id="a_node21"><a xlink:href="endpoints_2include_2buffer_8hpp.html" target="_top" xlink:title=" ">
<polygon fill="white" stroke="black" points="777.5,-56.5 777.5,-86.5 898.5,-86.5 898.5,-56.5 777.5,-56.5"/>
<text text-anchor="start" x="785.5" y="-74.5" font-family="Helvetica,sans-Serif" font-size="10.00">../../endpoints/include</text>
<text text-anchor="middle" x="838" y="-63.5" font-family="Helvetica,sans-Serif" font-size="10.00">/buffer.hpp</text>
</a>
</g>
</g>
<!-- Node13&#45;&gt;Node21 -->
<g id="edge22" class="edge">
<title>Node13&#45;&gt;Node21</title>
<path fill="none" stroke="midnightblue" d="M1059.92,-125.73C1017.06,-115.45 954.4,-100.42 906.58,-88.95"/>
<polygon fill="midnightblue" stroke="midnightblue" points="907.15,-85.49 896.61,-86.56 905.52,-92.29 907.15,-85.49"/>
</g>
<!-- Node21&#45;&gt;Node7 -->
<g id="edge24" class="edge">
<title>Node21&#45;&gt;Node7</title>
<path fill="none" stroke="midnightblue" d="M777.35,-57.61C774.19,-57.04 771.06,-56.5 768,-56 703.66,-45.45 511.69,-23.73 432.13,-14.88"/>
<polygon fill="midnightblue" stroke="midnightblue" points="432.44,-11.39 422.12,-13.77 431.67,-18.35 432.44,-11.39"/>
</g>
<!-- Node21&#45;&gt;Node18 -->
<g id="edge27" class="edge">
<title>Node21&#45;&gt;Node18</title>
<path fill="none" stroke="midnightblue" d="M898.65,-57.62C901.81,-57.05 904.94,-56.5 908,-56 1006.57,-39.79 1120.88,-26.7 1195.61,-18.9"/>
<polygon fill="midnightblue" stroke="midnightblue" points="1196.31,-22.34 1205.89,-17.83 1195.58,-15.38 1196.31,-22.34"/>
</g>
<!-- Node22 -->
<g id="node22" class="node">
<title>Node22</title>
<g id="a_node22"><a xlink:title=" ">
<polygon fill="white" stroke="#bfbfbf" points="1110,-0.5 1110,-19.5 1152,-19.5 1152,-0.5 1110,-0.5"/>
<text text-anchor="middle" x="1131" y="-7.5" font-family="Helvetica,sans-Serif" font-size="10.00">array</text>
</a>
</g>
</g>
<!-- Node21&#45;&gt;Node22 -->
<g id="edge23" class="edge">
<title>Node21&#45;&gt;Node22</title>
<path fill="none" stroke="midnightblue" d="M898.69,-57.85C901.84,-57.22 904.96,-56.6 908,-56 990.94,-39.72 1015.13,-40.92 1100.05,-20.29"/>
<polygon fill="midnightblue" stroke="midnightblue" points="1100.98,-23.66 1109.86,-17.88 1099.31,-16.87 1100.98,-23.66"/>
</g>
<!-- Node23 -->
<g id="node23" class="node">
<title>Node23</title>
<g id="a_node23"><a xlink:title=" ">
<polygon fill="white" stroke="#bfbfbf" points="497,-0.5 497,-19.5 555,-19.5 555,-0.5 497,-0.5"/>
<text text-anchor="middle" x="526" y="-7.5" font-family="Helvetica,sans-Serif" font-size="10.00">memory</text>
</a>
</g>
</g>
<!-- Node21&#45;&gt;Node23 -->
<g id="edge25" class="edge">
<title>Node21&#45;&gt;Node23</title>
<path fill="none" stroke="midnightblue" d="M777.32,-57.82C774.17,-57.19 771.05,-56.58 768,-56 680.67,-39.25 655.84,-38.64 564.92,-20.09"/>
<polygon fill="midnightblue" stroke="midnightblue" points="565.51,-16.64 555.01,-18.05 564.1,-23.5 565.51,-16.64"/>
</g>
<!-- Node24 -->
<g id="node24" class="node">
<title>Node24</title>
<g id="a_node24"><a xlink:title=" ">
<polygon fill="white" stroke="#bfbfbf" points="573,-0.5 573,-19.5 605,-19.5 605,-0.5 573,-0.5"/>
<text text-anchor="middle" x="589" y="-7.5" font-family="Helvetica,sans-Serif" font-size="10.00">set</text>
</a>
</g>
</g>
<!-- Node21&#45;&gt;Node24 -->
<g id="edge26" class="edge">
<title>Node21&#45;&gt;Node24</title>
<path fill="none" stroke="midnightblue" d="M777.42,-57.73C726.31,-46.8 656.17,-31.42 614.89,-19.94"/>
<polygon fill="midnightblue" stroke="midnightblue" points="615.62,-16.51 605.04,-17.11 613.68,-23.23 615.62,-16.51"/>
</g>
<!-- Node25 -->
<g id="node25" class="node">
<title>Node25</title>
<g id="a_node25"><a xlink:title=" ">
<polygon fill="white" stroke="#bfbfbf" points="623.5,-0.5 623.5,-19.5 778.5,-19.5 778.5,-0.5 623.5,-0.5"/>
<text text-anchor="middle" x="701" y="-7.5" font-family="Helvetica,sans-Serif" font-size="10.00">boost/asio/steady_timer.hpp</text>
</a>
</g>
</g>
<!-- Node21&#45;&gt;Node25 -->
<g id="edge28" class="edge">
<title>Node21&#45;&gt;Node25</title>
<path fill="none" stroke="midnightblue" d="M805.53,-56.4C782.65,-46.46 752.27,-33.26 730.16,-23.66"/>
<polygon fill="midnightblue" stroke="midnightblue" points="731.5,-20.43 720.93,-19.66 728.71,-26.85 731.5,-20.43"/>
</g>
<!-- Node26 -->
<g id="node26" class="node">
<title>Node26</title>
<g id="a_node26"><a xlink:title=" ">
<polygon fill="white" stroke="#bfbfbf" points="797,-0.5 797,-19.5 915,-19.5 915,-0.5 797,-0.5"/>
<text text-anchor="middle" x="856" y="-7.5" font-family="Helvetica,sans-Serif" font-size="10.00">vsomeip/defines.hpp</text>
</a>
</g>
</g>
<!-- Node21&#45;&gt;Node26 -->
<g id="edge29" class="edge">
<title>Node21&#45;&gt;Node26</title>
<path fill="none" stroke="midnightblue" d="M842.27,-56.4C844.72,-48.29 847.83,-38.01 850.47,-29.28"/>
<polygon fill="midnightblue" stroke="midnightblue" points="853.84,-30.24 853.38,-19.66 847.14,-28.22 853.84,-30.24"/>
</g>
<!-- Node27 -->
<g id="node27" class="node">
<title>Node27</title>
<g id="a_node27"><a xlink:title=" ">
<polygon fill="white" stroke="#bfbfbf" points="933.5,-0.5 933.5,-19.5 1092.5,-19.5 1092.5,-0.5 933.5,-0.5"/>
<text text-anchor="middle" x="1013" y="-7.5" font-family="Helvetica,sans-Serif" font-size="10.00">vsomeip/primitive_types.hpp</text>
</a>
</g>
</g>
<!-- Node21&#45;&gt;Node27 -->
<g id="edge30" class="edge">
<title>Node21&#45;&gt;Node27</title>
<path fill="none" stroke="midnightblue" d="M879.47,-56.4C909.58,-46.16 949.85,-32.47 978.27,-22.81"/>
<polygon fill="midnightblue" stroke="midnightblue" points="979.45,-26.1 987.79,-19.57 977.2,-19.48 979.45,-26.1"/>
</g>
</g>
</svg>
