<?xml version="1.0" encoding="UTF-8" standalone="no"?>
<!DOCTYPE svg PUBLIC "-//W3C//DTD SVG 1.1//EN"
 "http://www.w3.org/Graphics/SVG/1.1/DTD/svg11.dtd">
<!-- Generated by graphviz version 2.43.0 (0)
 -->
<!-- Title: /home/kali/projects/vsomeip/implementation/service_discovery/include/option_impl.hpp Pages: 1 -->
<svg width="1397pt" height="417pt"
 viewBox="0.00 0.00 1396.50 417.00" xmlns="http://www.w3.org/2000/svg" xmlns:xlink="http://www.w3.org/1999/xlink">
<g id="graph0" class="graph" transform="scale(1 1) rotate(0) translate(4 413)">
<title>/home/kali/projects/vsomeip/implementation/service_discovery/include/option_impl.hpp</title>
<polygon fill="white" stroke="transparent" points="-4,4 -4,-413 1392.5,-413 1392.5,4 -4,4"/>
<!-- Node1 -->
<g id="node1" class="node">
<title>Node1</title>
<g id="a_node1"><a xlink:title=" ">
<polygon fill="#bfbfbf" stroke="black" points="931.5,-356.5 931.5,-408.5 1077.5,-408.5 1077.5,-356.5 931.5,-356.5"/>
<text text-anchor="start" x="939.5" y="-396.5" font-family="Helvetica,sans-Serif" font-size="10.00">/home/kali/projects</text>
<text text-anchor="start" x="939.5" y="-385.5" font-family="Helvetica,sans-Serif" font-size="10.00">/vsomeip/implementation</text>
<text text-anchor="start" x="939.5" y="-374.5" font-family="Helvetica,sans-Serif" font-size="10.00">/service_discovery/include</text>
<text text-anchor="middle" x="1004.5" y="-363.5" font-family="Helvetica,sans-Serif" font-size="10.00">/option_impl.hpp</text>
</a>
</g>
</g>
<!-- Node2 -->
<g id="node2" class="node">
<title>Node2</title>
<g id="a_node2"><a xlink:href="configuration__option__impl_8hpp.html" target="_top" xlink:title=" ">
<polygon fill="white" stroke="black" points="652,-267.5 652,-319.5 819,-319.5 819,-267.5 652,-267.5"/>
<text text-anchor="start" x="660" y="-307.5" font-family="Helvetica,sans-Serif" font-size="10.00">/home/kali/projects</text>
<text text-anchor="start" x="660" y="-296.5" font-family="Helvetica,sans-Serif" font-size="10.00">/vsomeip/implementation</text>
<text text-anchor="start" x="660" y="-285.5" font-family="Helvetica,sans-Serif" font-size="10.00">/service_discovery/include</text>
<text text-anchor="middle" x="735.5" y="-274.5" font-family="Helvetica,sans-Serif" font-size="10.00">/configuration_option_impl.hpp</text>
</a>
</g>
</g>
<!-- Node1&#45;&gt;Node2 -->
<g id="edge1" class="edge">
<title>Node1&#45;&gt;Node2</title>
<path fill="none" stroke="midnightblue" d="M921.72,-354.73C887.04,-343.51 846.95,-330.55 812.87,-319.52"/>
<polygon fill="midnightblue" stroke="midnightblue" points="920.76,-358.09 931.35,-357.84 922.91,-351.43 920.76,-358.09"/>
</g>
<!-- Node5 -->
<g id="node5" class="node">
<title>Node5</title>
<g id="a_node5"><a xlink:href="ip__option__impl_8hpp.html" target="_top" xlink:title=" ">
<polygon fill="white" stroke="black" points="249.5,-267.5 249.5,-319.5 395.5,-319.5 395.5,-267.5 249.5,-267.5"/>
<text text-anchor="start" x="257.5" y="-307.5" font-family="Helvetica,sans-Serif" font-size="10.00">/home/kali/projects</text>
<text text-anchor="start" x="257.5" y="-296.5" font-family="Helvetica,sans-Serif" font-size="10.00">/vsomeip/implementation</text>
<text text-anchor="start" x="257.5" y="-285.5" font-family="Helvetica,sans-Serif" font-size="10.00">/service_discovery/include</text>
<text text-anchor="middle" x="322.5" y="-274.5" font-family="Helvetica,sans-Serif" font-size="10.00">/ip_option_impl.hpp</text>
</a>
</g>
</g>
<!-- Node1&#45;&gt;Node5 -->
<g id="edge4" class="edge">
<title>Node1&#45;&gt;Node5</title>
<path fill="none" stroke="midnightblue" d="M920.93,-370.84C786.24,-353.66 523.37,-320.12 395.65,-303.83"/>
<polygon fill="midnightblue" stroke="midnightblue" points="920.83,-374.35 931.19,-372.15 921.71,-367.41 920.83,-374.35"/>
</g>
<!-- Node15 -->
<g id="node15" class="node">
<title>Node15</title>
<g id="a_node15"><a xlink:href="load__balancing__option__impl_8hpp.html" target="_top" xlink:title=" ">
<polygon fill="white" stroke="black" points="1008,-267.5 1008,-319.5 1185,-319.5 1185,-267.5 1008,-267.5"/>
<text text-anchor="start" x="1016" y="-307.5" font-family="Helvetica,sans-Serif" font-size="10.00">/home/kali/projects</text>
<text text-anchor="start" x="1016" y="-296.5" font-family="Helvetica,sans-Serif" font-size="10.00">/vsomeip/implementation</text>
<text text-anchor="start" x="1016" y="-285.5" font-family="Helvetica,sans-Serif" font-size="10.00">/service_discovery/include</text>
<text text-anchor="middle" x="1096.5" y="-274.5" font-family="Helvetica,sans-Serif" font-size="10.00">/load_balancing_option_impl.hpp</text>
</a>
</g>
</g>
<!-- Node1&#45;&gt;Node15 -->
<g id="edge21" class="edge">
<title>Node1&#45;&gt;Node15</title>
<path fill="none" stroke="midnightblue" d="M1038.48,-349.36C1048.87,-339.54 1060.13,-328.89 1069.95,-319.61"/>
<polygon fill="midnightblue" stroke="midnightblue" points="1035.97,-346.92 1031.11,-356.34 1040.78,-352.01 1035.97,-346.92"/>
</g>
<!-- Node17 -->
<g id="node17" class="node">
<title>Node17</title>
<g id="a_node17"><a xlink:href="protection__option__impl_8hpp.html" target="_top" xlink:title=" ">
<polygon fill="white" stroke="black" points="837,-267.5 837,-319.5 990,-319.5 990,-267.5 837,-267.5"/>
<text text-anchor="start" x="845" y="-307.5" font-family="Helvetica,sans-Serif" font-size="10.00">/home/kali/projects</text>
<text text-anchor="start" x="845" y="-296.5" font-family="Helvetica,sans-Serif" font-size="10.00">/vsomeip/implementation</text>
<text text-anchor="start" x="845" y="-285.5" font-family="Helvetica,sans-Serif" font-size="10.00">/service_discovery/include</text>
<text text-anchor="middle" x="913.5" y="-274.5" font-family="Helvetica,sans-Serif" font-size="10.00">/protection_option_impl.hpp</text>
</a>
</g>
</g>
<!-- Node1&#45;&gt;Node17 -->
<g id="edge24" class="edge">
<title>Node1&#45;&gt;Node17</title>
<path fill="none" stroke="midnightblue" d="M970.89,-349.36C960.61,-339.54 949.47,-328.89 939.76,-319.61"/>
<polygon fill="midnightblue" stroke="midnightblue" points="968.53,-351.96 978.18,-356.34 973.37,-346.9 968.53,-351.96"/>
</g>
<!-- Node19 -->
<g id="node19" class="node">
<title>Node19</title>
<g id="a_node19"><a xlink:href="selective__option__impl_8hpp.html" target="_top" xlink:title=" ">
<polygon fill="white" stroke="black" points="1240.5,-178.5 1240.5,-230.5 1388.5,-230.5 1388.5,-178.5 1240.5,-178.5"/>
<text text-anchor="start" x="1248.5" y="-218.5" font-family="Helvetica,sans-Serif" font-size="10.00">/home/kali/projects</text>
<text text-anchor="start" x="1248.5" y="-207.5" font-family="Helvetica,sans-Serif" font-size="10.00">/vsomeip/implementation</text>
<text text-anchor="start" x="1248.5" y="-196.5" font-family="Helvetica,sans-Serif" font-size="10.00">/service_discovery/include</text>
<text text-anchor="middle" x="1314.5" y="-185.5" font-family="Helvetica,sans-Serif" font-size="10.00">/selective_option_impl.hpp</text>
</a>
</g>
</g>
<!-- Node1&#45;&gt;Node19 -->
<g id="edge27" class="edge">
<title>Node1&#45;&gt;Node19</title>
<path fill="none" stroke="midnightblue" d="M1087.48,-366.75C1122.88,-357.53 1163.15,-342.9 1194.5,-320 1217.9,-302.9 1212.23,-287.71 1232.5,-267 1245.57,-253.65 1261.71,-240.9 1276.21,-230.51"/>
<polygon fill="midnightblue" stroke="midnightblue" points="1086.49,-363.39 1077.64,-369.21 1088.19,-370.18 1086.49,-363.39"/>
</g>
<!-- Node21 -->
<g id="node21" class="node">
<title>Node21</title>
<g id="a_node21"><a xlink:href="option__impl_8cpp.html" target="_top" xlink:title=" ">
<polygon fill="white" stroke="black" points="1241,-267.5 1241,-319.5 1384,-319.5 1384,-267.5 1241,-267.5"/>
<text text-anchor="start" x="1249" y="-307.5" font-family="Helvetica,sans-Serif" font-size="10.00">/home/kali/projects</text>
<text text-anchor="start" x="1249" y="-296.5" font-family="Helvetica,sans-Serif" font-size="10.00">/vsomeip/implementation</text>
<text text-anchor="start" x="1249" y="-285.5" font-family="Helvetica,sans-Serif" font-size="10.00">/service_discovery/src</text>
<text text-anchor="middle" x="1312.5" y="-274.5" font-family="Helvetica,sans-Serif" font-size="10.00">/option_impl.cpp</text>
</a>
</g>
</g>
<!-- Node1&#45;&gt;Node21 -->
<g id="edge32" class="edge">
<title>Node1&#45;&gt;Node21</title>
<path fill="none" stroke="midnightblue" d="M1087.43,-358.91C1129.2,-347.43 1180.59,-333.17 1226.5,-320 1231.14,-318.67 1235.92,-317.29 1240.73,-315.89"/>
<polygon fill="midnightblue" stroke="midnightblue" points="1086.3,-355.59 1077.58,-361.61 1088.15,-362.34 1086.3,-355.59"/>
</g>
<!-- Node3 -->
<g id="node3" class="node">
<title>Node3</title>
<g id="a_node3"><a xlink:href="configuration__option__impl_8cpp.html" target="_top" xlink:title=" ">
<polygon fill="white" stroke="black" points="578,-178.5 578,-230.5 745,-230.5 745,-178.5 578,-178.5"/>
<text text-anchor="start" x="586" y="-218.5" font-family="Helvetica,sans-Serif" font-size="10.00">/home/kali/projects</text>
<text text-anchor="start" x="586" y="-207.5" font-family="Helvetica,sans-Serif" font-size="10.00">/vsomeip/implementation</text>
<text text-anchor="start" x="586" y="-196.5" font-family="Helvetica,sans-Serif" font-size="10.00">/service_discovery/src</text>
<text text-anchor="middle" x="661.5" y="-185.5" font-family="Helvetica,sans-Serif" font-size="10.00">/configuration_option_impl.cpp</text>
</a>
</g>
</g>
<!-- Node2&#45;&gt;Node3 -->
<g id="edge2" class="edge">
<title>Node2&#45;&gt;Node3</title>
<path fill="none" stroke="midnightblue" d="M707.43,-259.5C699.28,-249.92 690.52,-239.62 682.86,-230.61"/>
<polygon fill="midnightblue" stroke="midnightblue" points="704.95,-261.99 714.1,-267.34 710.28,-257.45 704.95,-261.99"/>
</g>
<!-- Node4 -->
<g id="node4" class="node">
<title>Node4</title>
<g id="a_node4"><a xlink:href="service__discovery_2src_2message__impl_8cpp.html" target="_top" xlink:title=" ">
<polygon fill="white" stroke="black" points="739,-89.5 739,-141.5 882,-141.5 882,-89.5 739,-89.5"/>
<text text-anchor="start" x="747" y="-129.5" font-family="Helvetica,sans-Serif" font-size="10.00">/home/kali/projects</text>
<text text-anchor="start" x="747" y="-118.5" font-family="Helvetica,sans-Serif" font-size="10.00">/vsomeip/implementation</text>
<text text-anchor="start" x="747" y="-107.5" font-family="Helvetica,sans-Serif" font-size="10.00">/service_discovery/src</text>
<text text-anchor="middle" x="810.5" y="-96.5" font-family="Helvetica,sans-Serif" font-size="10.00">/message_impl.cpp</text>
</a>
</g>
</g>
<!-- Node2&#45;&gt;Node4 -->
<g id="edge3" class="edge">
<title>Node2&#45;&gt;Node4</title>
<path fill="none" stroke="midnightblue" d="M750.33,-257.69C764.91,-223.48 786.81,-172.1 799.77,-141.67"/>
<polygon fill="midnightblue" stroke="midnightblue" points="746.95,-256.71 746.25,-267.28 753.39,-259.46 746.95,-256.71"/>
</g>
<!-- Node6 -->
<g id="node6" class="node">
<title>Node6</title>
<g id="a_node6"><a xlink:href="ipv4__option__impl_8hpp.html" target="_top" xlink:title=" ">
<polygon fill="white" stroke="black" points="249.5,-178.5 249.5,-230.5 395.5,-230.5 395.5,-178.5 249.5,-178.5"/>
<text text-anchor="start" x="257.5" y="-218.5" font-family="Helvetica,sans-Serif" font-size="10.00">/home/kali/projects</text>
<text text-anchor="start" x="257.5" y="-207.5" font-family="Helvetica,sans-Serif" font-size="10.00">/vsomeip/implementation</text>
<text text-anchor="start" x="257.5" y="-196.5" font-family="Helvetica,sans-Serif" font-size="10.00">/service_discovery/include</text>
<text text-anchor="middle" x="322.5" y="-185.5" font-family="Helvetica,sans-Serif" font-size="10.00">/ipv4_option_impl.hpp</text>
</a>
</g>
</g>
<!-- Node5&#45;&gt;Node6 -->
<g id="edge5" class="edge">
<title>Node5&#45;&gt;Node6</title>
<path fill="none" stroke="midnightblue" d="M322.5,-257.19C322.5,-248.28 322.5,-238.9 322.5,-230.61"/>
<polygon fill="midnightblue" stroke="midnightblue" points="319,-257.34 322.5,-267.34 326,-257.34 319,-257.34"/>
</g>
<!-- Node7 -->
<g id="node7" class="node">
<title>Node7</title>
<g id="a_node7"><a xlink:href="service__discovery__impl_8hpp.html" target="_top" xlink:title=" ">
<polygon fill="white" stroke="black" points="0,-89.5 0,-141.5 155,-141.5 155,-89.5 0,-89.5"/>
<text text-anchor="start" x="8" y="-129.5" font-family="Helvetica,sans-Serif" font-size="10.00">/home/kali/projects</text>
<text text-anchor="start" x="8" y="-118.5" font-family="Helvetica,sans-Serif" font-size="10.00">/vsomeip/implementation</text>
<text text-anchor="start" x="8" y="-107.5" font-family="Helvetica,sans-Serif" font-size="10.00">/service_discovery/include</text>
<text text-anchor="middle" x="77.5" y="-96.5" font-family="Helvetica,sans-Serif" font-size="10.00">/service_discovery_impl.hpp</text>
</a>
</g>
</g>
<!-- Node5&#45;&gt;Node7 -->
<g id="edge19" class="edge">
<title>Node5&#45;&gt;Node7</title>
<path fill="none" stroke="midnightblue" d="M239.33,-282.44C176.74,-272.96 98.46,-256.39 78.5,-231 58.72,-205.84 63.42,-167.04 69.64,-141.71"/>
<polygon fill="midnightblue" stroke="midnightblue" points="238.82,-285.9 249.23,-283.9 239.84,-278.97 238.82,-285.9"/>
</g>
<!-- Node12 -->
<g id="node12" class="node">
<title>Node12</title>
<g id="a_node12"><a xlink:href="ipv6__option__impl_8hpp.html" target="_top" xlink:title=" ">
<polygon fill="white" stroke="black" points="413.5,-178.5 413.5,-230.5 559.5,-230.5 559.5,-178.5 413.5,-178.5"/>
<text text-anchor="start" x="421.5" y="-218.5" font-family="Helvetica,sans-Serif" font-size="10.00">/home/kali/projects</text>
<text text-anchor="start" x="421.5" y="-207.5" font-family="Helvetica,sans-Serif" font-size="10.00">/vsomeip/implementation</text>
<text text-anchor="start" x="421.5" y="-196.5" font-family="Helvetica,sans-Serif" font-size="10.00">/service_discovery/include</text>
<text text-anchor="middle" x="486.5" y="-185.5" font-family="Helvetica,sans-Serif" font-size="10.00">/ipv6_option_impl.hpp</text>
</a>
</g>
</g>
<!-- Node5&#45;&gt;Node12 -->
<g id="edge13" class="edge">
<title>Node5&#45;&gt;Node12</title>
<path fill="none" stroke="midnightblue" d="M378.8,-262.64C398.46,-252.2 420.31,-240.61 439.17,-230.61"/>
<polygon fill="midnightblue" stroke="midnightblue" points="377.13,-259.56 369.94,-267.34 380.41,-265.74 377.13,-259.56"/>
</g>
<!-- Node14 -->
<g id="node14" class="node">
<title>Node14</title>
<g id="a_node14"><a xlink:href="ip__option__impl_8cpp.html" target="_top" xlink:title=" ">
<polygon fill="white" stroke="black" points="88,-178.5 88,-230.5 231,-230.5 231,-178.5 88,-178.5"/>
<text text-anchor="start" x="96" y="-218.5" font-family="Helvetica,sans-Serif" font-size="10.00">/home/kali/projects</text>
<text text-anchor="start" x="96" y="-207.5" font-family="Helvetica,sans-Serif" font-size="10.00">/vsomeip/implementation</text>
<text text-anchor="start" x="96" y="-196.5" font-family="Helvetica,sans-Serif" font-size="10.00">/service_discovery/src</text>
<text text-anchor="middle" x="159.5" y="-185.5" font-family="Helvetica,sans-Serif" font-size="10.00">/ip_option_impl.cpp</text>
</a>
</g>
</g>
<!-- Node5&#45;&gt;Node14 -->
<g id="edge20" class="edge">
<title>Node5&#45;&gt;Node14</title>
<path fill="none" stroke="midnightblue" d="M266.28,-262.49C246.81,-252.1 225.2,-240.57 206.54,-230.61"/>
<polygon fill="midnightblue" stroke="midnightblue" points="264.88,-265.71 275.35,-267.34 268.18,-259.54 264.88,-265.71"/>
</g>
<!-- Node6&#45;&gt;Node4 -->
<g id="edge11" class="edge">
<title>Node6&#45;&gt;Node4</title>
<path fill="none" stroke="midnightblue" d="M405.67,-177.91C531.52,-151.48 567.38,-162.79 690.5,-142 706.25,-139.34 723.07,-136.05 738.99,-132.73"/>
<polygon fill="midnightblue" stroke="midnightblue" points="404.69,-174.54 395.65,-180.05 406.16,-181.38 404.69,-174.54"/>
</g>
<!-- Node6&#45;&gt;Node7 -->
<g id="edge6" class="edge">
<title>Node6&#45;&gt;Node7</title>
<path fill="none" stroke="midnightblue" d="M242.24,-175C211.81,-164.19 177.42,-151.98 147.96,-141.52"/>
<polygon fill="midnightblue" stroke="midnightblue" points="241.37,-178.4 251.96,-178.45 243.71,-171.81 241.37,-178.4"/>
</g>
<!-- Node9 -->
<g id="node9" class="node">
<title>Node9</title>
<g id="a_node9"><a xlink:href="service__discovery__impl_8cpp.html" target="_top" xlink:title=" ">
<polygon fill="white" stroke="black" points="450,-0.5 450,-52.5 605,-52.5 605,-0.5 450,-0.5"/>
<text text-anchor="start" x="458" y="-40.5" font-family="Helvetica,sans-Serif" font-size="10.00">/home/kali/projects</text>
<text text-anchor="start" x="458" y="-29.5" font-family="Helvetica,sans-Serif" font-size="10.00">/vsomeip/implementation</text>
<text text-anchor="start" x="458" y="-18.5" font-family="Helvetica,sans-Serif" font-size="10.00">/service_discovery/src</text>
<text text-anchor="middle" x="527.5" y="-7.5" font-family="Helvetica,sans-Serif" font-size="10.00">/service_discovery_impl.cpp</text>
</a>
</g>
</g>
<!-- Node6&#45;&gt;Node9 -->
<g id="edge12" class="edge">
<title>Node6&#45;&gt;Node9</title>
<path fill="none" stroke="midnightblue" d="M327.09,-168.51C332.09,-143.43 342.4,-110.42 363.5,-89 386.65,-65.5 419.64,-50.87 449.97,-41.82"/>
<polygon fill="midnightblue" stroke="midnightblue" points="323.64,-167.92 325.31,-178.38 330.53,-169.16 323.64,-167.92"/>
</g>
<!-- Node10 -->
<g id="node10" class="node">
<title>Node10</title>
<g id="a_node10"><a xlink:href="eventgroupentry__impl_8cpp.html" target="_top" xlink:title=" ">
<polygon fill="white" stroke="black" points="372.5,-89.5 372.5,-141.5 520.5,-141.5 520.5,-89.5 372.5,-89.5"/>
<text text-anchor="start" x="380.5" y="-129.5" font-family="Helvetica,sans-Serif" font-size="10.00">/home/kali/projects</text>
<text text-anchor="start" x="380.5" y="-118.5" font-family="Helvetica,sans-Serif" font-size="10.00">/vsomeip/implementation</text>
<text text-anchor="start" x="380.5" y="-107.5" font-family="Helvetica,sans-Serif" font-size="10.00">/service_discovery/src</text>
<text text-anchor="middle" x="446.5" y="-96.5" font-family="Helvetica,sans-Serif" font-size="10.00">/eventgroupentry_impl.cpp</text>
</a>
</g>
</g>
<!-- Node6&#45;&gt;Node10 -->
<g id="edge9" class="edge">
<title>Node6&#45;&gt;Node10</title>
<path fill="none" stroke="midnightblue" d="M366.68,-172.5C381.12,-162.37 396.97,-151.25 410.71,-141.61"/>
<polygon fill="midnightblue" stroke="midnightblue" points="364.54,-169.73 358.37,-178.34 368.56,-175.46 364.54,-169.73"/>
</g>
<!-- Node11 -->
<g id="node11" class="node">
<title>Node11</title>
<g id="a_node11"><a xlink:href="ipv4__option__impl_8cpp.html" target="_top" xlink:title=" ">
<polygon fill="white" stroke="black" points="173,-89.5 173,-141.5 316,-141.5 316,-89.5 173,-89.5"/>
<text text-anchor="start" x="181" y="-129.5" font-family="Helvetica,sans-Serif" font-size="10.00">/home/kali/projects</text>
<text text-anchor="start" x="181" y="-118.5" font-family="Helvetica,sans-Serif" font-size="10.00">/vsomeip/implementation</text>
<text text-anchor="start" x="181" y="-107.5" font-family="Helvetica,sans-Serif" font-size="10.00">/service_discovery/src</text>
<text text-anchor="middle" x="244.5" y="-96.5" font-family="Helvetica,sans-Serif" font-size="10.00">/ipv4_option_impl.cpp</text>
</a>
</g>
</g>
<!-- Node6&#45;&gt;Node11 -->
<g id="edge10" class="edge">
<title>Node6&#45;&gt;Node11</title>
<path fill="none" stroke="midnightblue" d="M293.17,-170.79C284.51,-161.13 275.17,-150.71 267.01,-141.61"/>
<polygon fill="midnightblue" stroke="midnightblue" points="290.66,-173.23 299.94,-178.34 295.87,-168.55 290.66,-173.23"/>
</g>
<!-- Node8 -->
<g id="node8" class="node">
<title>Node8</title>
<g id="a_node8"><a xlink:href="service__discovery_2src_2runtime__impl_8cpp.html" target="_top" xlink:title=" ">
<polygon fill="white" stroke="black" points="6,-0.5 6,-52.5 149,-52.5 149,-0.5 6,-0.5"/>
<text text-anchor="start" x="14" y="-40.5" font-family="Helvetica,sans-Serif" font-size="10.00">/home/kali/projects</text>
<text text-anchor="start" x="14" y="-29.5" font-family="Helvetica,sans-Serif" font-size="10.00">/vsomeip/implementation</text>
<text text-anchor="start" x="14" y="-18.5" font-family="Helvetica,sans-Serif" font-size="10.00">/service_discovery/src</text>
<text text-anchor="middle" x="77.5" y="-7.5" font-family="Helvetica,sans-Serif" font-size="10.00">/runtime_impl.cpp</text>
</a>
</g>
</g>
<!-- Node7&#45;&gt;Node8 -->
<g id="edge7" class="edge">
<title>Node7&#45;&gt;Node8</title>
<path fill="none" stroke="midnightblue" d="M77.5,-79.19C77.5,-70.28 77.5,-60.9 77.5,-52.61"/>
<polygon fill="midnightblue" stroke="midnightblue" points="74,-79.34 77.5,-89.34 81,-79.34 74,-79.34"/>
</g>
<!-- Node7&#45;&gt;Node9 -->
<g id="edge8" class="edge">
<title>Node7&#45;&gt;Node9</title>
<path fill="none" stroke="midnightblue" d="M165.18,-88.71C268.48,-65.2 378.17,-48.02 449.92,-37.83"/>
<polygon fill="midnightblue" stroke="midnightblue" points="164.16,-85.35 155.2,-91 165.73,-92.17 164.16,-85.35"/>
</g>
<!-- Node12&#45;&gt;Node4 -->
<g id="edge17" class="edge">
<title>Node12&#45;&gt;Node4</title>
<path fill="none" stroke="midnightblue" d="M569.4,-177.84C638.87,-159.45 658.65,-159.34 724.5,-142 729.17,-140.77 733.97,-139.46 738.8,-138.12"/>
<polygon fill="midnightblue" stroke="midnightblue" points="568.49,-174.46 559.74,-180.43 570.3,-181.22 568.49,-174.46"/>
</g>
<!-- Node12&#45;&gt;Node7 -->
<g id="edge14" class="edge">
<title>Node12&#45;&gt;Node7</title>
<path fill="none" stroke="midnightblue" d="M403.49,-177.92C297.12,-154.5 266.13,-164.76 163.5,-142 160.76,-141.39 157.99,-140.75 155.19,-140.07"/>
<polygon fill="midnightblue" stroke="midnightblue" points="402.81,-181.36 413.33,-180.14 404.35,-174.53 402.81,-181.36"/>
</g>
<!-- Node12&#45;&gt;Node9 -->
<g id="edge18" class="edge">
<title>Node12&#45;&gt;Node9</title>
<path fill="none" stroke="midnightblue" d="M569.5,-177.99C626.19,-164.12 658.44,-184.89 690.5,-142 704.6,-123.13 703.9,-108.37 690.5,-89 671.06,-60.89 637.02,-45.61 605.06,-37.32"/>
<polygon fill="midnightblue" stroke="midnightblue" points="568.52,-174.63 559.8,-180.65 570.37,-181.38 568.52,-174.63"/>
</g>
<!-- Node12&#45;&gt;Node10 -->
<g id="edge15" class="edge">
<title>Node12&#45;&gt;Node10</title>
<path fill="none" stroke="midnightblue" d="M470.67,-169.06C466.45,-159.9 461.98,-150.17 458.04,-141.61"/>
<polygon fill="midnightblue" stroke="midnightblue" points="467.57,-170.71 474.93,-178.34 473.93,-167.79 467.57,-170.71"/>
</g>
<!-- Node13 -->
<g id="node13" class="node">
<title>Node13</title>
<g id="a_node13"><a xlink:href="ipv6__option__impl_8cpp.html" target="_top" xlink:title=" ">
<polygon fill="white" stroke="black" points="539,-89.5 539,-141.5 682,-141.5 682,-89.5 539,-89.5"/>
<text text-anchor="start" x="547" y="-129.5" font-family="Helvetica,sans-Serif" font-size="10.00">/home/kali/projects</text>
<text text-anchor="start" x="547" y="-118.5" font-family="Helvetica,sans-Serif" font-size="10.00">/vsomeip/implementation</text>
<text text-anchor="start" x="547" y="-107.5" font-family="Helvetica,sans-Serif" font-size="10.00">/service_discovery/src</text>
<text text-anchor="middle" x="610.5" y="-96.5" font-family="Helvetica,sans-Serif" font-size="10.00">/ipv6_option_impl.cpp</text>
</a>
</g>
</g>
<!-- Node12&#45;&gt;Node13 -->
<g id="edge16" class="edge">
<title>Node12&#45;&gt;Node13</title>
<path fill="none" stroke="midnightblue" d="M530.68,-172.5C545.12,-162.37 560.97,-151.25 574.71,-141.61"/>
<polygon fill="midnightblue" stroke="midnightblue" points="528.54,-169.73 522.37,-178.34 532.56,-175.46 528.54,-169.73"/>
</g>
<!-- Node15&#45;&gt;Node4 -->
<g id="edge23" class="edge">
<title>Node15&#45;&gt;Node4</title>
<path fill="none" stroke="midnightblue" d="M1165.05,-261.65C1176.47,-253.37 1186.77,-243.23 1193.5,-231 1204.85,-210.36 1208.78,-195.93 1193.5,-178 1154.3,-132 981.77,-120.27 882.16,-117.37"/>
<polygon fill="midnightblue" stroke="midnightblue" points="1162.92,-258.87 1156.58,-267.35 1166.83,-264.68 1162.92,-258.87"/>
</g>
<!-- Node16 -->
<g id="node16" class="node">
<title>Node16</title>
<g id="a_node16"><a xlink:href="load__balancing__option__impl_8cpp.html" target="_top" xlink:title=" ">
<polygon fill="white" stroke="black" points="1008.5,-178.5 1008.5,-230.5 1184.5,-230.5 1184.5,-178.5 1008.5,-178.5"/>
<text text-anchor="start" x="1016.5" y="-218.5" font-family="Helvetica,sans-Serif" font-size="10.00">/home/kali/projects</text>
<text text-anchor="start" x="1016.5" y="-207.5" font-family="Helvetica,sans-Serif" font-size="10.00">/vsomeip/implementation</text>
<text text-anchor="start" x="1016.5" y="-196.5" font-family="Helvetica,sans-Serif" font-size="10.00">/service_discovery/src</text>
<text text-anchor="middle" x="1096.5" y="-185.5" font-family="Helvetica,sans-Serif" font-size="10.00">/load_balancing_option_impl.cpp</text>
</a>
</g>
</g>
<!-- Node15&#45;&gt;Node16 -->
<g id="edge22" class="edge">
<title>Node15&#45;&gt;Node16</title>
<path fill="none" stroke="midnightblue" d="M1096.5,-257.19C1096.5,-248.28 1096.5,-238.9 1096.5,-230.61"/>
<polygon fill="midnightblue" stroke="midnightblue" points="1093,-257.34 1096.5,-267.34 1100,-257.34 1093,-257.34"/>
</g>
<!-- Node17&#45;&gt;Node4 -->
<g id="edge25" class="edge">
<title>Node17&#45;&gt;Node4</title>
<path fill="none" stroke="midnightblue" d="M858.18,-261.54C847.15,-252.99 836.74,-242.77 829.5,-231 812.71,-203.71 809.45,-166.15 809.38,-141.61"/>
<polygon fill="midnightblue" stroke="midnightblue" points="856.16,-264.4 866.3,-267.47 860.29,-258.75 856.16,-264.4"/>
</g>
<!-- Node18 -->
<g id="node18" class="node">
<title>Node18</title>
<g id="a_node18"><a xlink:href="protection__option__impl_8cpp.html" target="_top" xlink:title=" ">
<polygon fill="white" stroke="black" points="838.5,-178.5 838.5,-230.5 990.5,-230.5 990.5,-178.5 838.5,-178.5"/>
<text text-anchor="start" x="846.5" y="-218.5" font-family="Helvetica,sans-Serif" font-size="10.00">/home/kali/projects</text>
<text text-anchor="start" x="846.5" y="-207.5" font-family="Helvetica,sans-Serif" font-size="10.00">/vsomeip/implementation</text>
<text text-anchor="start" x="846.5" y="-196.5" font-family="Helvetica,sans-Serif" font-size="10.00">/service_discovery/src</text>
<text text-anchor="middle" x="914.5" y="-185.5" font-family="Helvetica,sans-Serif" font-size="10.00">/protection_option_impl.cpp</text>
</a>
</g>
</g>
<!-- Node17&#45;&gt;Node18 -->
<g id="edge26" class="edge">
<title>Node17&#45;&gt;Node18</title>
<path fill="none" stroke="midnightblue" d="M913.91,-257.19C914.01,-248.28 914.12,-238.9 914.21,-230.61"/>
<polygon fill="midnightblue" stroke="midnightblue" points="910.4,-257.3 913.79,-267.34 917.4,-257.38 910.4,-257.3"/>
</g>
<!-- Node19&#45;&gt;Node4 -->
<g id="edge29" class="edge">
<title>Node19&#45;&gt;Node4</title>
<path fill="none" stroke="midnightblue" d="M1230.33,-178.85C1229.04,-178.56 1227.77,-178.28 1226.5,-178 1106.83,-151.94 965.37,-133.63 882.06,-124.1"/>
<polygon fill="midnightblue" stroke="midnightblue" points="1229.72,-182.31 1240.26,-181.22 1231.35,-175.5 1229.72,-182.31"/>
</g>
<!-- Node19&#45;&gt;Node9 -->
<g id="edge31" class="edge">
<title>Node19&#45;&gt;Node9</title>
<path fill="none" stroke="midnightblue" d="M1319.04,-168.28C1320.21,-142.47 1316.89,-108.65 1295.5,-89 1245.42,-42.99 790.21,-31.27 605.17,-28.39"/>
<polygon fill="midnightblue" stroke="midnightblue" points="1315.53,-168.21 1318.33,-178.43 1322.52,-168.7 1315.53,-168.21"/>
</g>
<!-- Node19&#45;&gt;Node10 -->
<g id="edge28" class="edge">
<title>Node19&#45;&gt;Node10</title>
<path fill="none" stroke="midnightblue" d="M1230.44,-184.05C1218.1,-181.7 1205.51,-179.58 1193.5,-178 900.49,-139.41 820.47,-193.78 529.5,-142 526.68,-141.5 523.82,-140.93 520.95,-140.31"/>
<polygon fill="midnightblue" stroke="midnightblue" points="1229.77,-187.49 1240.26,-185.98 1231.12,-180.62 1229.77,-187.49"/>
</g>
<!-- Node20 -->
<g id="node20" class="node">
<title>Node20</title>
<g id="a_node20"><a xlink:href="selective__option__impl_8cpp.html" target="_top" xlink:title=" ">
<polygon fill="white" stroke="black" points="1139,-89.5 1139,-141.5 1286,-141.5 1286,-89.5 1139,-89.5"/>
<text text-anchor="start" x="1147" y="-129.5" font-family="Helvetica,sans-Serif" font-size="10.00">/home/kali/projects</text>
<text text-anchor="start" x="1147" y="-118.5" font-family="Helvetica,sans-Serif" font-size="10.00">/vsomeip/implementation</text>
<text text-anchor="start" x="1147" y="-107.5" font-family="Helvetica,sans-Serif" font-size="10.00">/service_discovery/src</text>
<text text-anchor="middle" x="1212.5" y="-96.5" font-family="Helvetica,sans-Serif" font-size="10.00">/selective_option_impl.cpp</text>
</a>
</g>
</g>
<!-- Node19&#45;&gt;Node20 -->
<g id="edge30" class="edge">
<title>Node19&#45;&gt;Node20</title>
<path fill="none" stroke="midnightblue" d="M1277.16,-171.65C1265.55,-161.75 1252.92,-150.98 1241.94,-141.61"/>
<polygon fill="midnightblue" stroke="midnightblue" points="1275.12,-174.51 1285,-178.34 1279.66,-169.18 1275.12,-174.51"/>
</g>
</g>
</svg>
