<?xml version="1.0" encoding="UTF-8" standalone="no"?>
<!DOCTYPE svg PUBLIC "-//W3C//DTD SVG 1.1//EN"
 "http://www.w3.org/Graphics/SVG/1.1/DTD/svg11.dtd">
<!-- Generated by graphviz version 2.43.0 (0)
 -->
<!-- Title: /home/kali/projects/vsomeip/implementation/service_discovery/include/option_impl.hpp Pages: 1 -->
<svg width="402pt" height="173pt"
 viewBox="0.00 0.00 401.57 173.00" xmlns="http://www.w3.org/2000/svg" xmlns:xlink="http://www.w3.org/1999/xlink">
<g id="graph0" class="graph" transform="scale(1 1) rotate(0) translate(4 169)">
<title>/home/kali/projects/vsomeip/implementation/service_discovery/include/option_impl.hpp</title>
<polygon fill="white" stroke="transparent" points="-4,4 -4,-169 397.57,-169 397.57,4 -4,4"/>
<!-- Node1 -->
<g id="node1" class="node">
<title>Node1</title>
<g id="a_node1"><a xlink:title=" ">
<polygon fill="#bfbfbf" stroke="black" points="24.07,-112.5 24.07,-164.5 170.07,-164.5 170.07,-112.5 24.07,-112.5"/>
<text text-anchor="start" x="32.07" y="-152.5" font-family="Helvetica,sans-Serif" font-size="10.00">/home/kali/projects</text>
<text text-anchor="start" x="32.07" y="-141.5" font-family="Helvetica,sans-Serif" font-size="10.00">/vsomeip/implementation</text>
<text text-anchor="start" x="32.07" y="-130.5" font-family="Helvetica,sans-Serif" font-size="10.00">/service_discovery/include</text>
<text text-anchor="middle" x="97.07" y="-119.5" font-family="Helvetica,sans-Serif" font-size="10.00">/option_impl.hpp</text>
</a>
</g>
</g>
<!-- Node2 -->
<g id="node2" class="node">
<title>Node2</title>
<g id="a_node2"><a xlink:title=" ">
<polygon fill="white" stroke="#bfbfbf" points="44.07,-0.5 44.07,-19.5 94.07,-19.5 94.07,-0.5 44.07,-0.5"/>
<text text-anchor="middle" x="69.07" y="-7.5" font-family="Helvetica,sans-Serif" font-size="10.00">cstdint</text>
</a>
</g>
</g>
<!-- Node1&#45;&gt;Node2 -->
<g id="edge1" class="edge">
<title>Node1&#45;&gt;Node2</title>
<path fill="none" stroke="midnightblue" d="M39.3,-112.31C24.89,-103.08 11.23,-91.1 3.07,-76 -8.49,-54.61 16.61,-35.82 39.12,-24.01"/>
<polygon fill="midnightblue" stroke="midnightblue" points="40.75,-27.11 48.17,-19.54 37.65,-20.83 40.75,-27.11"/>
</g>
<!-- Node3 -->
<g id="node3" class="node">
<title>Node3</title>
<g id="a_node3"><a xlink:title=" ">
<polygon fill="white" stroke="#bfbfbf" points="12.07,-56.5 12.07,-75.5 70.07,-75.5 70.07,-56.5 12.07,-56.5"/>
<text text-anchor="middle" x="41.07" y="-63.5" font-family="Helvetica,sans-Serif" font-size="10.00">memory</text>
</a>
</g>
</g>
<!-- Node1&#45;&gt;Node3 -->
<g id="edge2" class="edge">
<title>Node1&#45;&gt;Node3</title>
<path fill="none" stroke="midnightblue" d="M77.17,-112.45C69.61,-102.93 61.19,-92.33 54.38,-83.76"/>
<polygon fill="midnightblue" stroke="midnightblue" points="56.94,-81.35 47.98,-75.7 51.46,-85.7 56.94,-81.35"/>
</g>
<!-- Node4 -->
<g id="node4" class="node">
<title>Node4</title>
<g id="a_node4"><a xlink:href="implementation_2service__discovery_2include_2enumeration__types_8hpp.html" target="_top" xlink:title=" ">
<polygon fill="white" stroke="black" points="88.07,-56.5 88.07,-75.5 220.07,-75.5 220.07,-56.5 88.07,-56.5"/>
<text text-anchor="middle" x="154.07" y="-63.5" font-family="Helvetica,sans-Serif" font-size="10.00">enumeration_types.hpp</text>
</a>
</g>
</g>
<!-- Node1&#45;&gt;Node4 -->
<g id="edge3" class="edge">
<title>Node1&#45;&gt;Node4</title>
<path fill="none" stroke="midnightblue" d="M117.33,-112.45C125.1,-102.83 133.77,-92.1 140.74,-83.49"/>
<polygon fill="midnightblue" stroke="midnightblue" points="143.47,-85.67 147.04,-75.7 138.03,-81.27 143.47,-85.67"/>
</g>
<!-- Node5 -->
<g id="node5" class="node">
<title>Node5</title>
<g id="a_node5"><a xlink:href="message__element__impl_8hpp.html" target="_top" xlink:title=" ">
<polygon fill="white" stroke="black" points="238.57,-56.5 238.57,-75.5 393.57,-75.5 393.57,-56.5 238.57,-56.5"/>
<text text-anchor="middle" x="316.07" y="-63.5" font-family="Helvetica,sans-Serif" font-size="10.00">message_element_impl.hpp</text>
</a>
</g>
</g>
<!-- Node1&#45;&gt;Node5 -->
<g id="edge5" class="edge">
<title>Node1&#45;&gt;Node5</title>
<path fill="none" stroke="midnightblue" d="M170.3,-113.93C207.17,-102.06 250.22,-88.2 279.93,-78.64"/>
<polygon fill="midnightblue" stroke="midnightblue" points="281.02,-81.96 289.46,-75.57 278.87,-75.3 281.02,-81.96"/>
</g>
<!-- Node4&#45;&gt;Node2 -->
<g id="edge4" class="edge">
<title>Node4&#45;&gt;Node2</title>
<path fill="none" stroke="midnightblue" d="M140.41,-56.32C127.15,-47.9 106.8,-34.97 91.22,-25.07"/>
<polygon fill="midnightblue" stroke="midnightblue" points="93.01,-22.06 82.69,-19.65 89.26,-27.97 93.01,-22.06"/>
</g>
</g>
</svg>
