<?xml version="1.0" encoding="UTF-8" standalone="no"?>
<!DOCTYPE svg PUBLIC "-//W3C//DTD SVG 1.1//EN"
 "http://www.w3.org/Graphics/SVG/1.1/DTD/svg11.dtd">
<!-- Generated by graphviz version 2.43.0 (0)
 -->
<!-- Title: /home/kali/projects/vsomeip/implementation/service_discovery/src/option_impl.cpp Pages: 1 -->
<svg width="945pt" height="251pt"
 viewBox="0.00 0.00 944.50 251.00" xmlns="http://www.w3.org/2000/svg" xmlns:xlink="http://www.w3.org/1999/xlink">
<g id="graph0" class="graph" transform="scale(1 1) rotate(0) translate(4 247)">
<title>/home/kali/projects/vsomeip/implementation/service_discovery/src/option_impl.cpp</title>
<polygon fill="white" stroke="transparent" points="-4,4 -4,-247 940.5,-247 940.5,4 -4,4"/>
<!-- Node1 -->
<g id="node1" class="node">
<title>Node1</title>
<g id="a_node1"><a xlink:title=" ">
<polygon fill="#bfbfbf" stroke="black" points="302.5,-190.5 302.5,-242.5 445.5,-242.5 445.5,-190.5 302.5,-190.5"/>
<text text-anchor="start" x="310.5" y="-230.5" font-family="Helvetica,sans-Serif" font-size="10.00">/home/kali/projects</text>
<text text-anchor="start" x="310.5" y="-219.5" font-family="Helvetica,sans-Serif" font-size="10.00">/vsomeip/implementation</text>
<text text-anchor="start" x="310.5" y="-208.5" font-family="Helvetica,sans-Serif" font-size="10.00">/service_discovery/src</text>
<text text-anchor="middle" x="374" y="-197.5" font-family="Helvetica,sans-Serif" font-size="10.00">/option_impl.cpp</text>
</a>
</g>
</g>
<!-- Node2 -->
<g id="node2" class="node">
<title>Node2</title>
<g id="a_node2"><a xlink:href="implementation_2service__discovery_2include_2constants_8hpp.html" target="_top" xlink:title=" ">
<polygon fill="white" stroke="black" points="98,-129 98,-148 230,-148 230,-129 98,-129"/>
<text text-anchor="middle" x="164" y="-136" font-family="Helvetica,sans-Serif" font-size="10.00">../include/constants.hpp</text>
</a>
</g>
</g>
<!-- Node1&#45;&gt;Node2 -->
<g id="edge1" class="edge">
<title>Node1&#45;&gt;Node2</title>
<path fill="none" stroke="midnightblue" d="M304.66,-190.4C268.53,-177.33 226.02,-161.95 197.27,-151.54"/>
<polygon fill="midnightblue" stroke="midnightblue" points="198.3,-148.19 187.7,-148.08 195.91,-154.77 198.3,-148.19"/>
</g>
<!-- Node5 -->
<g id="node5" class="node">
<title>Node5</title>
<g id="a_node5"><a xlink:href="option__impl_8hpp.html" target="_top" xlink:title=" ">
<polygon fill="white" stroke="black" points="549.5,-129 549.5,-148 692.5,-148 692.5,-129 549.5,-129"/>
<text text-anchor="middle" x="621" y="-136" font-family="Helvetica,sans-Serif" font-size="10.00">../include/option_impl.hpp</text>
</a>
</g>
</g>
<!-- Node1&#45;&gt;Node5 -->
<g id="edge4" class="edge">
<title>Node1&#45;&gt;Node5</title>
<path fill="none" stroke="midnightblue" d="M445.77,-193.42C490.82,-179.55 547.08,-162.25 583.5,-151.04"/>
<polygon fill="midnightblue" stroke="midnightblue" points="584.7,-154.33 593.23,-148.05 582.64,-147.64 584.7,-154.33"/>
</g>
<!-- Node10 -->
<g id="node10" class="node">
<title>Node10</title>
<g id="a_node10"><a xlink:href="message_2include_2deserializer_8hpp.html" target="_top" xlink:title=" ">
<polygon fill="white" stroke="black" points="248.5,-123.5 248.5,-153.5 365.5,-153.5 365.5,-123.5 248.5,-123.5"/>
<text text-anchor="start" x="256.5" y="-141.5" font-family="Helvetica,sans-Serif" font-size="10.00">../../message/include</text>
<text text-anchor="middle" x="307" y="-130.5" font-family="Helvetica,sans-Serif" font-size="10.00">/deserializer.hpp</text>
</a>
</g>
</g>
<!-- Node1&#45;&gt;Node10 -->
<g id="edge10" class="edge">
<title>Node1&#45;&gt;Node10</title>
<path fill="none" stroke="midnightblue" d="M351.69,-190.19C343.53,-180.94 334.37,-170.54 326.47,-161.59"/>
<polygon fill="midnightblue" stroke="midnightblue" points="328.88,-159.03 319.65,-153.85 323.63,-163.66 328.88,-159.03"/>
</g>
<!-- Node13 -->
<g id="node13" class="node">
<title>Node13</title>
<g id="a_node13"><a xlink:href="serializer_8hpp.html" target="_top" xlink:title=" ">
<polygon fill="white" stroke="black" points="383.5,-123.5 383.5,-153.5 500.5,-153.5 500.5,-123.5 383.5,-123.5"/>
<text text-anchor="start" x="391.5" y="-141.5" font-family="Helvetica,sans-Serif" font-size="10.00">../../message/include</text>
<text text-anchor="middle" x="442" y="-130.5" font-family="Helvetica,sans-Serif" font-size="10.00">/serializer.hpp</text>
</a>
</g>
</g>
<!-- Node1&#45;&gt;Node13 -->
<g id="edge14" class="edge">
<title>Node1&#45;&gt;Node13</title>
<path fill="none" stroke="midnightblue" d="M396.64,-190.19C405.01,-180.84 414.41,-170.33 422.48,-161.32"/>
<polygon fill="midnightblue" stroke="midnightblue" points="425.11,-163.63 429.16,-153.85 419.89,-158.96 425.11,-163.63"/>
</g>
<!-- Node3 -->
<g id="node3" class="node">
<title>Node3</title>
<g id="a_node3"><a xlink:title=" ">
<polygon fill="white" stroke="#bfbfbf" points="0,-56.5 0,-86.5 124,-86.5 124,-56.5 0,-56.5"/>
<text text-anchor="start" x="8" y="-74.5" font-family="Helvetica,sans-Serif" font-size="10.00">vsomeip/enumeration</text>
<text text-anchor="middle" x="62" y="-63.5" font-family="Helvetica,sans-Serif" font-size="10.00">_types.hpp</text>
</a>
</g>
</g>
<!-- Node2&#45;&gt;Node3 -->
<g id="edge2" class="edge">
<title>Node2&#45;&gt;Node3</title>
<path fill="none" stroke="midnightblue" d="M150.24,-128.73C135.53,-119.36 111.73,-104.19 92.55,-91.97"/>
<polygon fill="midnightblue" stroke="midnightblue" points="94.42,-89.01 84.11,-86.59 90.66,-94.91 94.42,-89.01"/>
</g>
<!-- Node4 -->
<g id="node4" class="node">
<title>Node4</title>
<g id="a_node4"><a xlink:title=" ">
<polygon fill="white" stroke="#bfbfbf" points="142.5,-62 142.5,-81 301.5,-81 301.5,-62 142.5,-62"/>
<text text-anchor="middle" x="222" y="-69" font-family="Helvetica,sans-Serif" font-size="10.00">vsomeip/primitive_types.hpp</text>
</a>
</g>
</g>
<!-- Node2&#45;&gt;Node4 -->
<g id="edge3" class="edge">
<title>Node2&#45;&gt;Node4</title>
<path fill="none" stroke="midnightblue" d="M171.82,-128.73C180.95,-118.5 196.24,-101.36 207.55,-88.69"/>
<polygon fill="midnightblue" stroke="midnightblue" points="210.26,-90.92 214.3,-81.13 205.03,-86.26 210.26,-90.92"/>
</g>
<!-- Node6 -->
<g id="node6" class="node">
<title>Node6</title>
<g id="a_node6"><a xlink:title=" ">
<polygon fill="white" stroke="#bfbfbf" points="549,-0.5 549,-19.5 599,-19.5 599,-0.5 549,-0.5"/>
<text text-anchor="middle" x="574" y="-7.5" font-family="Helvetica,sans-Serif" font-size="10.00">cstdint</text>
</a>
</g>
</g>
<!-- Node5&#45;&gt;Node6 -->
<g id="edge5" class="edge">
<title>Node5&#45;&gt;Node6</title>
<path fill="none" stroke="midnightblue" d="M597.68,-128.91C579.96,-121 556.84,-107.37 546,-87 535.73,-67.7 548.26,-43.81 559.69,-28.02"/>
<polygon fill="midnightblue" stroke="midnightblue" points="562.74,-29.8 566.11,-19.76 557.21,-25.51 562.74,-29.8"/>
</g>
<!-- Node7 -->
<g id="node7" class="node">
<title>Node7</title>
<g id="a_node7"><a xlink:title=" ">
<polygon fill="white" stroke="#bfbfbf" points="705,-62 705,-81 763,-81 763,-62 705,-62"/>
<text text-anchor="middle" x="734" y="-69" font-family="Helvetica,sans-Serif" font-size="10.00">memory</text>
</a>
</g>
</g>
<!-- Node5&#45;&gt;Node7 -->
<g id="edge6" class="edge">
<title>Node5&#45;&gt;Node7</title>
<path fill="none" stroke="midnightblue" d="M636.24,-128.73C655.22,-117.82 687.85,-99.05 710.15,-86.22"/>
<polygon fill="midnightblue" stroke="midnightblue" points="712.08,-89.15 719,-81.13 708.59,-83.08 712.08,-89.15"/>
</g>
<!-- Node8 -->
<g id="node8" class="node">
<title>Node8</title>
<g id="a_node8"><a xlink:href="implementation_2service__discovery_2include_2enumeration__types_8hpp.html" target="_top" xlink:title=" ">
<polygon fill="white" stroke="black" points="555,-62 555,-81 687,-81 687,-62 555,-62"/>
<text text-anchor="middle" x="621" y="-69" font-family="Helvetica,sans-Serif" font-size="10.00">enumeration_types.hpp</text>
</a>
</g>
</g>
<!-- Node5&#45;&gt;Node8 -->
<g id="edge7" class="edge">
<title>Node5&#45;&gt;Node8</title>
<path fill="none" stroke="midnightblue" d="M621,-128.73C621,-119.18 621,-103.62 621,-91.28"/>
<polygon fill="midnightblue" stroke="midnightblue" points="624.5,-91.13 621,-81.13 617.5,-91.13 624.5,-91.13"/>
</g>
<!-- Node9 -->
<g id="node9" class="node">
<title>Node9</title>
<g id="a_node9"><a xlink:href="message__element__impl_8hpp.html" target="_top" xlink:title=" ">
<polygon fill="white" stroke="black" points="781.5,-62 781.5,-81 936.5,-81 936.5,-62 781.5,-62"/>
<text text-anchor="middle" x="859" y="-69" font-family="Helvetica,sans-Serif" font-size="10.00">message_element_impl.hpp</text>
</a>
</g>
</g>
<!-- Node5&#45;&gt;Node9 -->
<g id="edge9" class="edge">
<title>Node5&#45;&gt;Node9</title>
<path fill="none" stroke="midnightblue" d="M652.6,-128.87C695.13,-117.25 770.85,-96.58 817.8,-83.75"/>
<polygon fill="midnightblue" stroke="midnightblue" points="818.92,-87.07 827.64,-81.06 817.07,-80.32 818.92,-87.07"/>
</g>
<!-- Node8&#45;&gt;Node6 -->
<g id="edge8" class="edge">
<title>Node8&#45;&gt;Node6</title>
<path fill="none" stroke="midnightblue" d="M614.27,-61.98C607.22,-53.05 595.97,-38.81 587.15,-27.64"/>
<polygon fill="midnightblue" stroke="midnightblue" points="589.67,-25.19 580.72,-19.51 584.17,-29.53 589.67,-25.19"/>
</g>
<!-- Node10&#45;&gt;Node4 -->
<g id="edge13" class="edge">
<title>Node10&#45;&gt;Node4</title>
<path fill="none" stroke="midnightblue" d="M288.56,-123.4C274.65,-112.76 255.61,-98.2 241.46,-87.38"/>
<polygon fill="midnightblue" stroke="midnightblue" points="243.44,-84.49 233.37,-81.19 239.19,-90.05 243.44,-84.49"/>
</g>
<!-- Node11 -->
<g id="node11" class="node">
<title>Node11</title>
<g id="a_node11"><a xlink:title=" ">
<polygon fill="white" stroke="#bfbfbf" points="319.5,-62 319.5,-81 366.5,-81 366.5,-62 319.5,-62"/>
<text text-anchor="middle" x="343" y="-69" font-family="Helvetica,sans-Serif" font-size="10.00">vector</text>
</a>
</g>
</g>
<!-- Node10&#45;&gt;Node11 -->
<g id="edge11" class="edge">
<title>Node10&#45;&gt;Node11</title>
<path fill="none" stroke="midnightblue" d="M314.81,-123.4C320.2,-113.66 327.41,-100.65 333.19,-90.21"/>
<polygon fill="midnightblue" stroke="midnightblue" points="336.4,-91.64 338.18,-81.19 330.28,-88.25 336.4,-91.64"/>
</g>
<!-- Node12 -->
<g id="node12" class="node">
<title>Node12</title>
<g id="a_node12"><a xlink:title=" ">
<polygon fill="white" stroke="#bfbfbf" points="385,-62 385,-81 499,-81 499,-62 385,-62"/>
<text text-anchor="middle" x="442" y="-69" font-family="Helvetica,sans-Serif" font-size="10.00">vsomeip/export.hpp</text>
</a>
</g>
</g>
<!-- Node10&#45;&gt;Node12 -->
<g id="edge12" class="edge">
<title>Node10&#45;&gt;Node12</title>
<path fill="none" stroke="midnightblue" d="M336.29,-123.4C359.77,-112.09 392.44,-96.36 415.23,-85.39"/>
<polygon fill="midnightblue" stroke="midnightblue" points="416.84,-88.5 424.33,-81.01 413.8,-82.19 416.84,-88.5"/>
</g>
<!-- Node13&#45;&gt;Node4 -->
<g id="edge17" class="edge">
<title>Node13&#45;&gt;Node4</title>
<path fill="none" stroke="midnightblue" d="M394.53,-123.48C354.58,-111.67 298.16,-95 260.85,-83.98"/>
<polygon fill="midnightblue" stroke="midnightblue" points="261.45,-80.51 250.87,-81.03 259.46,-87.22 261.45,-80.51"/>
</g>
<!-- Node13&#45;&gt;Node11 -->
<g id="edge15" class="edge">
<title>Node13&#45;&gt;Node11</title>
<path fill="none" stroke="midnightblue" d="M420.52,-123.4C403.92,-112.5 381.04,-97.48 364.45,-86.58"/>
<polygon fill="midnightblue" stroke="midnightblue" points="366.24,-83.57 355.96,-81.01 362.4,-89.42 366.24,-83.57"/>
</g>
<!-- Node13&#45;&gt;Node12 -->
<g id="edge16" class="edge">
<title>Node13&#45;&gt;Node12</title>
<path fill="none" stroke="midnightblue" d="M442,-123.4C442,-114.06 442,-101.71 442,-91.52"/>
<polygon fill="midnightblue" stroke="midnightblue" points="445.5,-91.19 442,-81.19 438.5,-91.19 445.5,-91.19"/>
</g>
</g>
</svg>
