<?xml version="1.0" encoding="UTF-8" standalone="no"?>
<!DOCTYPE svg PUBLIC "-//W3C//DTD SVG 1.1//EN"
 "http://www.w3.org/Graphics/SVG/1.1/DTD/svg11.dtd">
<!-- Generated by graphviz version 2.43.0 (0)
 -->
<!-- Title: /home/kali/projects/vsomeip/implementation/plugin/src/plugin_manager.cpp Pages: 1 -->
<svg width="692pt" height="229pt"
 viewBox="0.00 0.00 692.00 229.00" xmlns="http://www.w3.org/2000/svg" xmlns:xlink="http://www.w3.org/1999/xlink">
<g id="graph0" class="graph" transform="scale(1 1) rotate(0) translate(4 225)">
<title>/home/kali/projects/vsomeip/implementation/plugin/src/plugin_manager.cpp</title>
<polygon fill="white" stroke="transparent" points="-4,4 -4,-225 688,-225 688,4 -4,4"/>
<!-- Node1 -->
<g id="node1" class="node">
<title>Node1</title>
<g id="a_node1"><a xlink:title=" ">
<polygon fill="#bfbfbf" stroke="black" points="280,-179.5 280,-220.5 448,-220.5 448,-179.5 280,-179.5"/>
<text text-anchor="start" x="288" y="-208.5" font-family="Helvetica,sans-Serif" font-size="10.00">/home/kali/projects</text>
<text text-anchor="start" x="288" y="-197.5" font-family="Helvetica,sans-Serif" font-size="10.00">/vsomeip/implementation</text>
<text text-anchor="middle" x="364" y="-186.5" font-family="Helvetica,sans-Serif" font-size="10.00">/plugin/src/plugin_manager.cpp</text>
</a>
</g>
</g>
<!-- Node2 -->
<g id="node2" class="node">
<title>Node2</title>
<g id="a_node2"><a xlink:href="plugin__manager__impl_8hpp.html" target="_top" xlink:title=" ">
<polygon fill="white" stroke="black" points="292.5,-112.5 292.5,-142.5 435.5,-142.5 435.5,-112.5 292.5,-112.5"/>
<text text-anchor="start" x="300.5" y="-130.5" font-family="Helvetica,sans-Serif" font-size="10.00">../include/plugin_manager</text>
<text text-anchor="middle" x="364" y="-119.5" font-family="Helvetica,sans-Serif" font-size="10.00">_impl.hpp</text>
</a>
</g>
</g>
<!-- Node1&#45;&gt;Node2 -->
<g id="edge1" class="edge">
<title>Node1&#45;&gt;Node2</title>
<path fill="none" stroke="midnightblue" d="M364,-179.36C364,-171.23 364,-161.7 364,-153.11"/>
<polygon fill="midnightblue" stroke="midnightblue" points="367.5,-152.89 364,-142.89 360.5,-152.89 367.5,-152.89"/>
</g>
<!-- Node3 -->
<g id="node3" class="node">
<title>Node3</title>
<g id="a_node3"><a xlink:href="plugin__manager_8hpp.html" target="_top" xlink:title=" ">
<polygon fill="white" stroke="black" points="56.5,-56.5 56.5,-75.5 219.5,-75.5 219.5,-56.5 56.5,-56.5"/>
<text text-anchor="middle" x="138" y="-63.5" font-family="Helvetica,sans-Serif" font-size="10.00">../include/plugin_manager.hpp</text>
</a>
</g>
</g>
<!-- Node2&#45;&gt;Node3 -->
<g id="edge2" class="edge">
<title>Node2&#45;&gt;Node3</title>
<path fill="none" stroke="midnightblue" d="M310.73,-112.47C270.89,-101.99 217.14,-87.84 180.25,-78.12"/>
<polygon fill="midnightblue" stroke="midnightblue" points="180.87,-74.67 170.31,-75.51 179.09,-81.44 180.87,-74.67"/>
</g>
<!-- Node6 -->
<g id="node6" class="node">
<title>Node6</title>
<g id="a_node6"><a xlink:title=" ">
<polygon fill="white" stroke="#bfbfbf" points="138,-0.5 138,-19.5 252,-19.5 252,-0.5 138,-0.5"/>
<text text-anchor="middle" x="195" y="-7.5" font-family="Helvetica,sans-Serif" font-size="10.00">vsomeip/export.hpp</text>
</a>
</g>
</g>
<!-- Node2&#45;&gt;Node6 -->
<g id="edge12" class="edge">
<title>Node2&#45;&gt;Node6</title>
<path fill="none" stroke="midnightblue" d="M343.28,-112.34C310.89,-90.2 248.62,-47.64 216.04,-25.38"/>
<polygon fill="midnightblue" stroke="midnightblue" points="217.92,-22.42 207.69,-19.67 213.97,-28.2 217.92,-22.42"/>
</g>
<!-- Node7 -->
<g id="node7" class="node">
<title>Node7</title>
<g id="a_node7"><a xlink:title=" ">
<polygon fill="white" stroke="#bfbfbf" points="270.5,-0.5 270.5,-19.5 383.5,-19.5 383.5,-0.5 270.5,-0.5"/>
<text text-anchor="middle" x="327" y="-7.5" font-family="Helvetica,sans-Serif" font-size="10.00">vsomeip/plugin.hpp</text>
</a>
</g>
</g>
<!-- Node2&#45;&gt;Node7 -->
<g id="edge13" class="edge">
<title>Node2&#45;&gt;Node7</title>
<path fill="none" stroke="midnightblue" d="M339,-112.39C326.28,-103.71 312.05,-91.31 305,-76 297.78,-60.33 305.78,-41.58 314.08,-28.26"/>
<polygon fill="midnightblue" stroke="midnightblue" points="317.22,-29.87 319.96,-19.63 311.43,-25.92 317.22,-29.87"/>
</g>
<!-- Node8 -->
<g id="node8" class="node">
<title>Node8</title>
<g id="a_node8"><a xlink:title=" ">
<polygon fill="white" stroke="#bfbfbf" points="314,-56.5 314,-75.5 352,-75.5 352,-56.5 314,-56.5"/>
<text text-anchor="middle" x="333" y="-63.5" font-family="Helvetica,sans-Serif" font-size="10.00">map</text>
</a>
</g>
</g>
<!-- Node2&#45;&gt;Node8 -->
<g id="edge7" class="edge">
<title>Node2&#45;&gt;Node8</title>
<path fill="none" stroke="midnightblue" d="M356.65,-112.4C352.33,-104.11 346.83,-93.55 342.23,-84.71"/>
<polygon fill="midnightblue" stroke="midnightblue" points="345.24,-82.91 337.51,-75.66 339.03,-86.14 345.24,-82.91"/>
</g>
<!-- Node9 -->
<g id="node9" class="node">
<title>Node9</title>
<g id="a_node9"><a xlink:title=" ">
<polygon fill="white" stroke="#bfbfbf" points="370,-56.5 370,-75.5 420,-75.5 420,-56.5 370,-56.5"/>
<text text-anchor="middle" x="395" y="-63.5" font-family="Helvetica,sans-Serif" font-size="10.00">chrono</text>
</a>
</g>
</g>
<!-- Node2&#45;&gt;Node9 -->
<g id="edge8" class="edge">
<title>Node2&#45;&gt;Node9</title>
<path fill="none" stroke="midnightblue" d="M371.35,-112.4C375.67,-104.11 381.17,-93.55 385.77,-84.71"/>
<polygon fill="midnightblue" stroke="midnightblue" points="388.97,-86.14 390.49,-75.66 382.76,-82.91 388.97,-86.14"/>
</g>
<!-- Node10 -->
<g id="node10" class="node">
<title>Node10</title>
<g id="a_node10"><a xlink:title=" ">
<polygon fill="white" stroke="#bfbfbf" points="438,-56.5 438,-75.5 486,-75.5 486,-56.5 438,-56.5"/>
<text text-anchor="middle" x="462" y="-63.5" font-family="Helvetica,sans-Serif" font-size="10.00">mutex</text>
</a>
</g>
</g>
<!-- Node2&#45;&gt;Node10 -->
<g id="edge9" class="edge">
<title>Node2&#45;&gt;Node10</title>
<path fill="none" stroke="midnightblue" d="M387.22,-112.4C402.79,-102.95 423.2,-90.56 438.76,-81.11"/>
<polygon fill="midnightblue" stroke="midnightblue" points="441.01,-83.84 447.74,-75.66 437.38,-77.86 441.01,-83.84"/>
</g>
<!-- Node11 -->
<g id="node11" class="node">
<title>Node11</title>
<g id="a_node11"><a xlink:title=" ">
<polygon fill="white" stroke="#bfbfbf" points="504,-56.5 504,-75.5 536,-75.5 536,-56.5 504,-56.5"/>
<text text-anchor="middle" x="520" y="-63.5" font-family="Helvetica,sans-Serif" font-size="10.00">set</text>
</a>
</g>
</g>
<!-- Node2&#45;&gt;Node11 -->
<g id="edge10" class="edge">
<title>Node2&#45;&gt;Node11</title>
<path fill="none" stroke="midnightblue" d="M400.97,-112.4C429.64,-101.47 468.64,-86.59 494.06,-76.89"/>
<polygon fill="midnightblue" stroke="midnightblue" points="495.64,-80.04 503.74,-73.2 493.14,-73.5 495.64,-80.04"/>
</g>
<!-- Node12 -->
<g id="node12" class="node">
<title>Node12</title>
<g id="a_node12"><a xlink:title=" ">
<polygon fill="white" stroke="#bfbfbf" points="554,-56.5 554,-75.5 684,-75.5 684,-56.5 554,-56.5"/>
<text text-anchor="middle" x="619" y="-63.5" font-family="Helvetica,sans-Serif" font-size="10.00">vsomeip/constants.hpp</text>
</a>
</g>
</g>
<!-- Node2&#45;&gt;Node12 -->
<g id="edge11" class="edge">
<title>Node2&#45;&gt;Node12</title>
<path fill="none" stroke="midnightblue" d="M424.11,-112.47C469.54,-101.87 531,-87.53 572.66,-77.81"/>
<polygon fill="midnightblue" stroke="midnightblue" points="573.6,-81.19 582.54,-75.51 572.01,-74.37 573.6,-81.19"/>
</g>
<!-- Node4 -->
<g id="node4" class="node">
<title>Node4</title>
<g id="a_node4"><a xlink:title=" ">
<polygon fill="white" stroke="#bfbfbf" points="0,-0.5 0,-19.5 58,-19.5 58,-0.5 0,-0.5"/>
<text text-anchor="middle" x="29" y="-7.5" font-family="Helvetica,sans-Serif" font-size="10.00">memory</text>
</a>
</g>
</g>
<!-- Node3&#45;&gt;Node4 -->
<g id="edge3" class="edge">
<title>Node3&#45;&gt;Node4</title>
<path fill="none" stroke="midnightblue" d="M120.49,-56.32C102.93,-47.62 75.67,-34.12 55.47,-24.11"/>
<polygon fill="midnightblue" stroke="midnightblue" points="56.98,-20.96 46.47,-19.65 53.88,-27.23 56.98,-20.96"/>
</g>
<!-- Node5 -->
<g id="node5" class="node">
<title>Node5</title>
<g id="a_node5"><a xlink:title=" ">
<polygon fill="white" stroke="#bfbfbf" points="76,-0.5 76,-19.5 120,-19.5 120,-0.5 76,-0.5"/>
<text text-anchor="middle" x="98" y="-7.5" font-family="Helvetica,sans-Serif" font-size="10.00">string</text>
</a>
</g>
</g>
<!-- Node3&#45;&gt;Node5 -->
<g id="edge4" class="edge">
<title>Node3&#45;&gt;Node5</title>
<path fill="none" stroke="midnightblue" d="M131.39,-56.08C125.74,-48.46 117.46,-37.26 110.55,-27.94"/>
<polygon fill="midnightblue" stroke="midnightblue" points="113.25,-25.7 104.48,-19.75 107.62,-29.87 113.25,-25.7"/>
</g>
<!-- Node3&#45;&gt;Node6 -->
<g id="edge5" class="edge">
<title>Node3&#45;&gt;Node6</title>
<path fill="none" stroke="midnightblue" d="M147.16,-56.32C155.5,-48.42 168.03,-36.55 178.18,-26.94"/>
<polygon fill="midnightblue" stroke="midnightblue" points="180.82,-29.25 185.68,-19.83 176.01,-24.17 180.82,-29.25"/>
</g>
<!-- Node3&#45;&gt;Node7 -->
<g id="edge6" class="edge">
<title>Node3&#45;&gt;Node7</title>
<path fill="none" stroke="midnightblue" d="M167.95,-56.44C200.16,-47.24 251.53,-32.56 287.14,-22.39"/>
<polygon fill="midnightblue" stroke="midnightblue" points="288.54,-25.63 297.19,-19.52 286.62,-18.9 288.54,-25.63"/>
</g>
</g>
</svg>
