<?xml version="1.0" encoding="UTF-8" standalone="no"?>
<!DOCTYPE svg PUBLIC "-//W3C//DTD SVG 1.1//EN"
 "http://www.w3.org/Graphics/SVG/1.1/DTD/svg11.dtd">
<!-- Generated by graphviz version 2.43.0 (0)
 -->
<!-- Title: /home/kali/projects/vsomeip/implementation/plugin/src/plugin_manager_impl.cpp Pages: 1 -->
<svg width="1891pt" height="251pt"
 viewBox="0.00 0.00 1891.00 251.00" xmlns="http://www.w3.org/2000/svg" xmlns:xlink="http://www.w3.org/1999/xlink">
<g id="graph0" class="graph" transform="scale(1 1) rotate(0) translate(4 247)">
<title>/home/kali/projects/vsomeip/implementation/plugin/src/plugin_manager_impl.cpp</title>
<polygon fill="white" stroke="transparent" points="-4,4 -4,-247 1887,-247 1887,4 -4,4"/>
<!-- Node1 -->
<g id="node1" class="node">
<title>Node1</title>
<g id="a_node1"><a xlink:title=" ">
<polygon fill="#bfbfbf" stroke="black" points="453.5,-190.5 453.5,-242.5 602.5,-242.5 602.5,-190.5 453.5,-190.5"/>
<text text-anchor="start" x="461.5" y="-230.5" font-family="Helvetica,sans-Serif" font-size="10.00">/home/kali/projects</text>
<text text-anchor="start" x="461.5" y="-219.5" font-family="Helvetica,sans-Serif" font-size="10.00">/vsomeip/implementation</text>
<text text-anchor="start" x="461.5" y="-208.5" font-family="Helvetica,sans-Serif" font-size="10.00">/plugin/src/plugin_manager</text>
<text text-anchor="middle" x="528" y="-197.5" font-family="Helvetica,sans-Serif" font-size="10.00">_impl.cpp</text>
</a>
</g>
</g>
<!-- Node2 -->
<g id="node2" class="node">
<title>Node2</title>
<g id="a_node2"><a xlink:title=" ">
<polygon fill="white" stroke="#bfbfbf" points="0,-62 0,-81 56,-81 56,-62 0,-62"/>
<text text-anchor="middle" x="28" y="-69" font-family="Helvetica,sans-Serif" font-size="10.00">sstream</text>
</a>
</g>
</g>
<!-- Node1&#45;&gt;Node2 -->
<g id="edge1" class="edge">
<title>Node1&#45;&gt;Node2</title>
<path fill="none" stroke="midnightblue" d="M453.18,-215.39C334.87,-213.69 111.94,-203.74 53,-154 34.65,-138.51 29.52,-109.92 28.22,-91.05"/>
<polygon fill="midnightblue" stroke="midnightblue" points="31.71,-90.86 27.83,-81.01 24.72,-91.14 31.71,-90.86"/>
</g>
<!-- Node3 -->
<g id="node3" class="node">
<title>Node3</title>
<g id="a_node3"><a xlink:title=" ">
<polygon fill="white" stroke="#bfbfbf" points="1317.5,-62 1317.5,-81 1364.5,-81 1364.5,-62 1317.5,-62"/>
<text text-anchor="middle" x="1341" y="-69" font-family="Helvetica,sans-Serif" font-size="10.00">vector</text>
</a>
</g>
</g>
<!-- Node1&#45;&gt;Node3 -->
<g id="edge2" class="edge">
<title>Node1&#45;&gt;Node3</title>
<path fill="none" stroke="midnightblue" d="M602.66,-210.86C707.72,-203.46 904.82,-186.4 1070,-154 1177.83,-132.85 1204.56,-124.08 1308,-87 1309.66,-86.4 1311.36,-85.76 1313.06,-85.1"/>
<polygon fill="midnightblue" stroke="midnightblue" points="1314.8,-88.16 1322.68,-81.09 1312.11,-81.7 1314.8,-88.16"/>
</g>
<!-- Node4 -->
<g id="node4" class="node">
<title>Node4</title>
<g id="a_node4"><a xlink:title=" ">
<polygon fill="white" stroke="#bfbfbf" points="233.5,-129 233.5,-148 286.5,-148 286.5,-129 233.5,-129"/>
<text text-anchor="middle" x="260" y="-136" font-family="Helvetica,sans-Serif" font-size="10.00">stdlib.h</text>
</a>
</g>
</g>
<!-- Node1&#45;&gt;Node4 -->
<g id="edge3" class="edge">
<title>Node1&#45;&gt;Node4</title>
<path fill="none" stroke="midnightblue" d="M453.39,-198.21C407.56,-186.98 347.9,-171.26 296,-154 293.87,-153.29 291.68,-152.52 289.49,-151.72"/>
<polygon fill="midnightblue" stroke="midnightblue" points="290.61,-148.4 280.02,-148.07 288.1,-154.93 290.61,-148.4"/>
</g>
<!-- Node5 -->
<g id="node5" class="node">
<title>Node5</title>
<g id="a_node5"><a xlink:title=" ">
<polygon fill="white" stroke="#bfbfbf" points="305,-129 305,-148 365,-148 365,-129 305,-129"/>
<text text-anchor="middle" x="335" y="-136" font-family="Helvetica,sans-Serif" font-size="10.00">iostream</text>
</a>
</g>
</g>
<!-- Node1&#45;&gt;Node5 -->
<g id="edge4" class="edge">
<title>Node1&#45;&gt;Node5</title>
<path fill="none" stroke="midnightblue" d="M464.27,-190.4C431.36,-177.45 392.69,-162.22 366.27,-151.81"/>
<polygon fill="midnightblue" stroke="midnightblue" points="367.37,-148.49 356.78,-148.08 364.81,-155 367.37,-148.49"/>
</g>
<!-- Node6 -->
<g id="node6" class="node">
<title>Node6</title>
<g id="a_node6"><a xlink:title=" ">
<polygon fill="white" stroke="#bfbfbf" points="383,-129 383,-148 433,-148 433,-129 383,-129"/>
<text text-anchor="middle" x="408" y="-136" font-family="Helvetica,sans-Serif" font-size="10.00">dlfcn.h</text>
</a>
</g>
</g>
<!-- Node1&#45;&gt;Node6 -->
<g id="edge5" class="edge">
<title>Node1&#45;&gt;Node6</title>
<path fill="none" stroke="midnightblue" d="M488.37,-190.4C469.09,-178.19 446.61,-163.95 430.34,-153.65"/>
<polygon fill="midnightblue" stroke="midnightblue" points="431.86,-150.47 421.54,-148.08 428.12,-156.39 431.86,-150.47"/>
</g>
<!-- Node7 -->
<g id="node7" class="node">
<title>Node7</title>
<g id="a_node7"><a xlink:title=" ">
<polygon fill="white" stroke="#bfbfbf" points="451,-123.5 451,-153.5 605,-153.5 605,-123.5 451,-123.5"/>
<text text-anchor="start" x="459" y="-141.5" font-family="Helvetica,sans-Serif" font-size="10.00">vsomeip/plugins/application</text>
<text text-anchor="middle" x="528" y="-130.5" font-family="Helvetica,sans-Serif" font-size="10.00">_plugin.hpp</text>
</a>
</g>
</g>
<!-- Node1&#45;&gt;Node7 -->
<g id="edge6" class="edge">
<title>Node1&#45;&gt;Node7</title>
<path fill="none" stroke="midnightblue" d="M528,-190.19C528,-181.79 528,-172.44 528,-164.09"/>
<polygon fill="midnightblue" stroke="midnightblue" points="531.5,-163.85 528,-153.85 524.5,-163.85 531.5,-163.85"/>
</g>
<!-- Node8 -->
<g id="node8" class="node">
<title>Node8</title>
<g id="a_node8"><a xlink:title=" ">
<polygon fill="white" stroke="#bfbfbf" points="623,-123.5 623,-153.5 765,-153.5 765,-123.5 623,-123.5"/>
<text text-anchor="start" x="631" y="-141.5" font-family="Helvetica,sans-Serif" font-size="10.00">vsomeip/plugins/pre</text>
<text text-anchor="middle" x="694" y="-130.5" font-family="Helvetica,sans-Serif" font-size="10.00">_configuration_plugin.hpp</text>
</a>
</g>
</g>
<!-- Node1&#45;&gt;Node8 -->
<g id="edge7" class="edge">
<title>Node1&#45;&gt;Node8</title>
<path fill="none" stroke="midnightblue" d="M582.81,-190.4C606.01,-179.78 632.55,-167.64 653.87,-157.87"/>
<polygon fill="midnightblue" stroke="midnightblue" points="655.33,-161.05 662.97,-153.71 652.42,-154.69 655.33,-161.05"/>
</g>
<!-- Node9 -->
<g id="node9" class="node">
<title>Node9</title>
<g id="a_node9"><a xlink:href="logger_8hpp.html" target="_top" xlink:title=" ">
<polygon fill="white" stroke="black" points="62.5,-129 62.5,-148 215.5,-148 215.5,-129 62.5,-129"/>
<text text-anchor="middle" x="139" y="-136" font-family="Helvetica,sans-Serif" font-size="10.00">vsomeip/internal/logger.hpp</text>
</a>
</g>
</g>
<!-- Node1&#45;&gt;Node9 -->
<g id="edge8" class="edge">
<title>Node1&#45;&gt;Node9</title>
<path fill="none" stroke="midnightblue" d="M453.46,-200.94C377.18,-186.03 260.52,-163.24 192.81,-150.01"/>
<polygon fill="midnightblue" stroke="midnightblue" points="193.26,-146.54 182.78,-148.05 191.92,-153.41 193.26,-146.54"/>
</g>
<!-- Node16 -->
<g id="node16" class="node">
<title>Node16</title>
<g id="a_node16"><a xlink:href="plugin__manager__impl_8hpp.html" target="_top" xlink:title=" ">
<polygon fill="white" stroke="black" points="783.5,-123.5 783.5,-153.5 926.5,-153.5 926.5,-123.5 783.5,-123.5"/>
<text text-anchor="start" x="791.5" y="-141.5" font-family="Helvetica,sans-Serif" font-size="10.00">../include/plugin_manager</text>
<text text-anchor="middle" x="855" y="-130.5" font-family="Helvetica,sans-Serif" font-size="10.00">_impl.hpp</text>
</a>
</g>
</g>
<!-- Node1&#45;&gt;Node16 -->
<g id="edge16" class="edge">
<title>Node1&#45;&gt;Node16</title>
<path fill="none" stroke="midnightblue" d="M602.61,-198.16C657.35,-185.44 731.2,-168.27 784.86,-155.8"/>
<polygon fill="midnightblue" stroke="midnightblue" points="785.69,-159.2 794.64,-153.53 784.11,-152.38 785.69,-159.2"/>
</g>
<!-- Node24 -->
<g id="node24" class="node">
<title>Node24</title>
<g id="a_node24"><a xlink:href="internal_8hpp.html" target="_top" xlink:title=" ">
<polygon fill="white" stroke="black" points="945,-123.5 945,-153.5 1061,-153.5 1061,-123.5 945,-123.5"/>
<text text-anchor="start" x="953" y="-141.5" font-family="Helvetica,sans-Serif" font-size="10.00">../../configuration</text>
<text text-anchor="middle" x="1003" y="-130.5" font-family="Helvetica,sans-Serif" font-size="10.00">/include/internal.hpp</text>
</a>
</g>
</g>
<!-- Node1&#45;&gt;Node24 -->
<g id="edge29" class="edge">
<title>Node1&#45;&gt;Node24</title>
<path fill="none" stroke="midnightblue" d="M602.86,-205.56C682.53,-194.68 812.45,-176.03 934.88,-153.95"/>
<polygon fill="midnightblue" stroke="midnightblue" points="935.59,-157.38 944.81,-152.15 934.34,-150.49 935.59,-157.38"/>
</g>
<!-- Node28 -->
<g id="node28" class="node">
<title>Node28</title>
<g id="a_node28"><a xlink:href="utility_8hpp.html" target="_top" xlink:title=" ">
<polygon fill="white" stroke="black" points="1394.5,-123.5 1394.5,-153.5 1495.5,-153.5 1495.5,-123.5 1394.5,-123.5"/>
<text text-anchor="start" x="1402.5" y="-141.5" font-family="Helvetica,sans-Serif" font-size="10.00">../../utility/include</text>
<text text-anchor="middle" x="1445" y="-130.5" font-family="Helvetica,sans-Serif" font-size="10.00">/utility.hpp</text>
</a>
</g>
</g>
<!-- Node1&#45;&gt;Node28 -->
<g id="edge34" class="edge">
<title>Node1&#45;&gt;Node28</title>
<path fill="none" stroke="midnightblue" d="M602.65,-209.31C779.63,-194.65 1221.94,-157.99 1384.14,-144.54"/>
<polygon fill="midnightblue" stroke="midnightblue" points="1384.73,-148.01 1394.41,-143.69 1384.15,-141.03 1384.73,-148.01"/>
</g>
<!-- Node9&#45;&gt;Node2 -->
<g id="edge13" class="edge">
<title>Node9&#45;&gt;Node2</title>
<path fill="none" stroke="midnightblue" d="M124.03,-128.73C105.39,-117.82 73.34,-99.05 51.43,-86.22"/>
<polygon fill="midnightblue" stroke="midnightblue" points="53.13,-83.16 42.73,-81.13 49.59,-89.2 53.13,-83.16"/>
</g>
<!-- Node10 -->
<g id="node10" class="node">
<title>Node10</title>
<g id="a_node10"><a xlink:title=" ">
<polygon fill="white" stroke="#bfbfbf" points="311,-62 311,-81 361,-81 361,-62 311,-62"/>
<text text-anchor="middle" x="336" y="-69" font-family="Helvetica,sans-Serif" font-size="10.00">chrono</text>
</a>
</g>
</g>
<!-- Node9&#45;&gt;Node10 -->
<g id="edge9" class="edge">
<title>Node9&#45;&gt;Node10</title>
<path fill="none" stroke="midnightblue" d="M167.1,-128.95C198.8,-119.21 251.82,-102.61 297,-87 299.25,-86.22 301.56,-85.41 303.89,-84.57"/>
<polygon fill="midnightblue" stroke="midnightblue" points="305.18,-87.83 313.38,-81.11 302.79,-81.25 305.18,-87.83"/>
</g>
<!-- Node11 -->
<g id="node11" class="node">
<title>Node11</title>
<g id="a_node11"><a xlink:title=" ">
<polygon fill="white" stroke="#bfbfbf" points="823,-62 823,-81 873,-81 873,-62 823,-62"/>
<text text-anchor="middle" x="848" y="-69" font-family="Helvetica,sans-Serif" font-size="10.00">cstdint</text>
</a>
</g>
</g>
<!-- Node9&#45;&gt;Node11 -->
<g id="edge10" class="edge">
<title>Node9&#45;&gt;Node11</title>
<path fill="none" stroke="midnightblue" d="M183.43,-128.99C196.46,-126.75 210.76,-124.53 224,-123 484.98,-92.87 558.33,-147.41 814,-87 816.51,-86.41 819.08,-85.64 821.61,-84.77"/>
<polygon fill="midnightblue" stroke="midnightblue" points="823.06,-87.96 831.09,-81.06 820.5,-81.45 823.06,-87.96"/>
</g>
<!-- Node12 -->
<g id="node12" class="node">
<title>Node12</title>
<g id="a_node12"><a xlink:title=" ">
<polygon fill="white" stroke="#bfbfbf" points="665,-0.5 665,-19.5 713,-19.5 713,-0.5 665,-0.5"/>
<text text-anchor="middle" x="689" y="-7.5" font-family="Helvetica,sans-Serif" font-size="10.00">mutex</text>
</a>
</g>
</g>
<!-- Node9&#45;&gt;Node12 -->
<g id="edge11" class="edge">
<title>Node9&#45;&gt;Node12</title>
<path fill="none" stroke="midnightblue" d="M166.16,-128.95C192,-120.24 231.5,-105.42 263,-87 282.11,-75.82 281.49,-64.35 302,-56 448.06,3.46 499.85,-48.26 655,-20 655.1,-19.98 655.2,-19.96 655.3,-19.94"/>
<polygon fill="midnightblue" stroke="midnightblue" points="655.92,-23.39 664.96,-17.86 654.45,-16.55 655.92,-23.39"/>
</g>
<!-- Node13 -->
<g id="node13" class="node">
<title>Node13</title>
<g id="a_node13"><a xlink:title=" ">
<polygon fill="white" stroke="#bfbfbf" points="112.5,-62 112.5,-81 169.5,-81 169.5,-62 112.5,-62"/>
<text text-anchor="middle" x="141" y="-69" font-family="Helvetica,sans-Serif" font-size="10.00">ostream</text>
</a>
</g>
</g>
<!-- Node9&#45;&gt;Node13 -->
<g id="edge12" class="edge">
<title>Node9&#45;&gt;Node13</title>
<path fill="none" stroke="midnightblue" d="M139.27,-128.73C139.56,-119.18 140.04,-103.62 140.42,-91.28"/>
<polygon fill="midnightblue" stroke="midnightblue" points="143.93,-91.23 140.73,-81.13 136.93,-91.01 143.93,-91.23"/>
</g>
<!-- Node14 -->
<g id="node14" class="node">
<title>Node14</title>
<g id="a_node14"><a xlink:title=" ">
<polygon fill="white" stroke="#bfbfbf" points="187.5,-62 187.5,-81 254.5,-81 254.5,-62 187.5,-62"/>
<text text-anchor="middle" x="221" y="-69" font-family="Helvetica,sans-Serif" font-size="10.00">streambuf</text>
</a>
</g>
</g>
<!-- Node9&#45;&gt;Node14 -->
<g id="edge14" class="edge">
<title>Node9&#45;&gt;Node14</title>
<path fill="none" stroke="midnightblue" d="M150.06,-128.73C163.34,-118.21 185.83,-100.38 201.93,-87.62"/>
<polygon fill="midnightblue" stroke="midnightblue" points="204.45,-90.08 210.12,-81.13 200.11,-84.6 204.45,-90.08"/>
</g>
<!-- Node15 -->
<g id="node15" class="node">
<title>Node15</title>
<g id="a_node15"><a xlink:title=" ">
<polygon fill="white" stroke="#bfbfbf" points="332,-0.5 332,-19.5 446,-19.5 446,-0.5 332,-0.5"/>
<text text-anchor="middle" x="389" y="-7.5" font-family="Helvetica,sans-Serif" font-size="10.00">vsomeip/export.hpp</text>
</a>
</g>
</g>
<!-- Node9&#45;&gt;Node15 -->
<g id="edge15" class="edge">
<title>Node9&#45;&gt;Node15</title>
<path fill="none" stroke="midnightblue" d="M129.76,-129C113.6,-113.13 83.7,-78.57 103,-56 130.53,-23.8 245.81,-14.49 321.34,-11.89"/>
<polygon fill="midnightblue" stroke="midnightblue" points="321.84,-15.38 331.73,-11.57 321.62,-8.38 321.84,-15.38"/>
</g>
<!-- Node16&#45;&gt;Node10 -->
<g id="edge23" class="edge">
<title>Node16&#45;&gt;Node10</title>
<path fill="none" stroke="midnightblue" d="M783.5,-124.35C780.29,-123.87 777.11,-123.42 774,-123 597.53,-99.29 548.65,-126.37 375,-87 371.93,-86.3 368.77,-85.42 365.65,-84.44"/>
<polygon fill="midnightblue" stroke="midnightblue" points="366.53,-81.04 355.93,-81.07 364.23,-87.66 366.53,-81.04"/>
</g>
<!-- Node16&#45;&gt;Node12 -->
<g id="edge24" class="edge">
<title>Node16&#45;&gt;Node12</title>
<path fill="none" stroke="midnightblue" d="M786.81,-123.5C735.84,-112.34 673.67,-96.98 666,-87 652.68,-69.66 664.7,-44.63 675.77,-28.09"/>
<polygon fill="midnightblue" stroke="midnightblue" points="678.67,-30.05 681.65,-19.89 672.98,-25.97 678.67,-30.05"/>
</g>
<!-- Node16&#45;&gt;Node15 -->
<g id="edge27" class="edge">
<title>Node16&#45;&gt;Node15</title>
<path fill="none" stroke="midnightblue" d="M783.5,-124.38C780.29,-123.9 777.11,-123.43 774,-123 693.05,-111.79 469.87,-140.39 408,-87 391.78,-73.01 388.33,-47.46 388.07,-29.88"/>
<polygon fill="midnightblue" stroke="midnightblue" points="391.57,-29.74 388.26,-19.68 384.58,-29.61 391.57,-29.74"/>
</g>
<!-- Node17 -->
<g id="node17" class="node">
<title>Node17</title>
<g id="a_node17"><a xlink:href="plugin__manager_8hpp.html" target="_top" xlink:title=" ">
<polygon fill="white" stroke="black" points="417.5,-62 417.5,-81 580.5,-81 580.5,-62 417.5,-62"/>
<text text-anchor="middle" x="499" y="-69" font-family="Helvetica,sans-Serif" font-size="10.00">../include/plugin_manager.hpp</text>
</a>
</g>
</g>
<!-- Node16&#45;&gt;Node17 -->
<g id="edge17" class="edge">
<title>Node16&#45;&gt;Node17</title>
<path fill="none" stroke="midnightblue" d="M783.39,-124.42C716.26,-112.17 617.25,-94.09 555.52,-82.82"/>
<polygon fill="midnightblue" stroke="midnightblue" points="556.04,-79.36 545.57,-81 554.78,-86.24 556.04,-79.36"/>
</g>
<!-- Node20 -->
<g id="node20" class="node">
<title>Node20</title>
<g id="a_node20"><a xlink:title=" ">
<polygon fill="white" stroke="#bfbfbf" points="533.5,-0.5 533.5,-19.5 646.5,-19.5 646.5,-0.5 533.5,-0.5"/>
<text text-anchor="middle" x="590" y="-7.5" font-family="Helvetica,sans-Serif" font-size="10.00">vsomeip/plugin.hpp</text>
</a>
</g>
</g>
<!-- Node16&#45;&gt;Node20 -->
<g id="edge28" class="edge">
<title>Node16&#45;&gt;Node20</title>
<path fill="none" stroke="midnightblue" d="M783.44,-123.88C735.82,-113.95 678.26,-100 657,-87 632.69,-72.13 612.32,-45.65 600.63,-28.2"/>
<polygon fill="midnightblue" stroke="midnightblue" points="603.43,-26.08 595.07,-19.57 597.55,-29.87 603.43,-26.08"/>
</g>
<!-- Node21 -->
<g id="node21" class="node">
<title>Node21</title>
<g id="a_node21"><a xlink:title=" ">
<polygon fill="white" stroke="#bfbfbf" points="1149,-62 1149,-81 1187,-81 1187,-62 1149,-62"/>
<text text-anchor="middle" x="1168" y="-69" font-family="Helvetica,sans-Serif" font-size="10.00">map</text>
</a>
</g>
</g>
<!-- Node16&#45;&gt;Node21 -->
<g id="edge22" class="edge">
<title>Node16&#45;&gt;Node21</title>
<path fill="none" stroke="midnightblue" d="M926.55,-124.68C929.74,-124.11 932.91,-123.55 936,-123 1027.08,-106.85 1053.59,-117.27 1141,-87 1142.24,-86.57 1143.5,-86.09 1144.75,-85.56"/>
<polygon fill="midnightblue" stroke="midnightblue" points="1146.61,-88.56 1154.09,-81.06 1143.57,-82.25 1146.61,-88.56"/>
</g>
<!-- Node22 -->
<g id="node22" class="node">
<title>Node22</title>
<g id="a_node22"><a xlink:title=" ">
<polygon fill="white" stroke="#bfbfbf" points="1205,-62 1205,-81 1237,-81 1237,-62 1205,-62"/>
<text text-anchor="middle" x="1221" y="-69" font-family="Helvetica,sans-Serif" font-size="10.00">set</text>
</a>
</g>
</g>
<!-- Node16&#45;&gt;Node22 -->
<g id="edge25" class="edge">
<title>Node16&#45;&gt;Node22</title>
<path fill="none" stroke="midnightblue" d="M926.53,-124.54C929.73,-124.01 932.9,-123.49 936,-123 1051.22,-104.72 1085.7,-124.98 1196,-87 1197.07,-86.63 1198.14,-86.22 1199.21,-85.77"/>
<polygon fill="midnightblue" stroke="midnightblue" points="1201.17,-88.7 1208.48,-81.03 1197.99,-82.46 1201.17,-88.7"/>
</g>
<!-- Node23 -->
<g id="node23" class="node">
<title>Node23</title>
<g id="a_node23"><a xlink:title=" ">
<polygon fill="white" stroke="#bfbfbf" points="675,-62 675,-81 805,-81 805,-62 675,-62"/>
<text text-anchor="middle" x="740" y="-69" font-family="Helvetica,sans-Serif" font-size="10.00">vsomeip/constants.hpp</text>
</a>
</g>
</g>
<!-- Node16&#45;&gt;Node23 -->
<g id="edge26" class="edge">
<title>Node16&#45;&gt;Node23</title>
<path fill="none" stroke="midnightblue" d="M830.05,-123.4C810.4,-112.29 783.21,-96.92 763.85,-85.98"/>
<polygon fill="midnightblue" stroke="midnightblue" points="765.48,-82.88 755.05,-81.01 762.03,-88.97 765.48,-82.88"/>
</g>
<!-- Node17&#45;&gt;Node15 -->
<g id="edge20" class="edge">
<title>Node17&#45;&gt;Node15</title>
<path fill="none" stroke="midnightblue" d="M483.24,-61.98C465.02,-52.12 434.83,-35.79 413.53,-24.27"/>
<polygon fill="midnightblue" stroke="midnightblue" points="415.19,-21.19 404.73,-19.51 411.86,-27.35 415.19,-21.19"/>
</g>
<!-- Node18 -->
<g id="node18" class="node">
<title>Node18</title>
<g id="a_node18"><a xlink:title=" ">
<polygon fill="white" stroke="#bfbfbf" points="1549,-0.5 1549,-19.5 1607,-19.5 1607,-0.5 1549,-0.5"/>
<text text-anchor="middle" x="1578" y="-7.5" font-family="Helvetica,sans-Serif" font-size="10.00">memory</text>
</a>
</g>
</g>
<!-- Node17&#45;&gt;Node18 -->
<g id="edge18" class="edge">
<title>Node17&#45;&gt;Node18</title>
<path fill="none" stroke="midnightblue" d="M580.92,-62.77C607.99,-60.38 638.27,-57.89 666,-56 1003.33,-33.04 1411.61,-17.1 1538.47,-12.42"/>
<polygon fill="midnightblue" stroke="midnightblue" points="1538.97,-15.91 1548.84,-12.04 1538.72,-8.91 1538.97,-15.91"/>
</g>
<!-- Node19 -->
<g id="node19" class="node">
<title>Node19</title>
<g id="a_node19"><a xlink:title=" ">
<polygon fill="white" stroke="#bfbfbf" points="471,-0.5 471,-19.5 515,-19.5 515,-0.5 471,-0.5"/>
<text text-anchor="middle" x="493" y="-7.5" font-family="Helvetica,sans-Serif" font-size="10.00">string</text>
</a>
</g>
</g>
<!-- Node17&#45;&gt;Node19 -->
<g id="edge19" class="edge">
<title>Node17&#45;&gt;Node19</title>
<path fill="none" stroke="midnightblue" d="M498.14,-61.98C497.29,-53.58 495.97,-40.48 494.88,-29.66"/>
<polygon fill="midnightblue" stroke="midnightblue" points="498.34,-29.11 493.86,-19.51 491.38,-29.81 498.34,-29.11"/>
</g>
<!-- Node17&#45;&gt;Node20 -->
<g id="edge21" class="edge">
<title>Node17&#45;&gt;Node20</title>
<path fill="none" stroke="midnightblue" d="M512.04,-61.98C526.77,-52.34 550.97,-36.52 568.51,-25.05"/>
<polygon fill="midnightblue" stroke="midnightblue" points="570.53,-27.91 576.99,-19.51 566.7,-22.05 570.53,-27.91"/>
</g>
<!-- Node24&#45;&gt;Node11 -->
<g id="edge30" class="edge">
<title>Node24&#45;&gt;Node11</title>
<path fill="none" stroke="midnightblue" d="M969.07,-123.42C944.8,-113.33 911.36,-99.39 882,-87 880.6,-86.41 879.16,-85.8 877.71,-85.19"/>
<polygon fill="midnightblue" stroke="midnightblue" points="878.7,-81.8 868.12,-81.11 875.96,-88.25 878.7,-81.8"/>
</g>
<!-- Node25 -->
<g id="node25" class="node">
<title>Node25</title>
<g id="a_node25"><a xlink:title=" ">
<polygon fill="white" stroke="#bfbfbf" points="1255,-62 1255,-81 1299,-81 1299,-62 1255,-62"/>
<text text-anchor="middle" x="1277" y="-69" font-family="Helvetica,sans-Serif" font-size="10.00">limits</text>
</a>
</g>
</g>
<!-- Node24&#45;&gt;Node25 -->
<g id="edge31" class="edge">
<title>Node24&#45;&gt;Node25</title>
<path fill="none" stroke="midnightblue" d="M1061.44,-129.27C1111.3,-121.33 1184.47,-107.47 1246,-87 1247.67,-86.45 1249.36,-85.83 1251.06,-85.16"/>
<polygon fill="midnightblue" stroke="midnightblue" points="1252.77,-88.24 1260.56,-81.06 1249.99,-81.81 1252.77,-88.24"/>
</g>
<!-- Node26 -->
<g id="node26" class="node">
<title>Node26</title>
<g id="a_node26"><a xlink:title=" ">
<polygon fill="white" stroke="#bfbfbf" points="972.5,-62 972.5,-81 1131.5,-81 1131.5,-62 972.5,-62"/>
<text text-anchor="middle" x="1052" y="-69" font-family="Helvetica,sans-Serif" font-size="10.00">vsomeip/primitive_types.hpp</text>
</a>
</g>
</g>
<!-- Node24&#45;&gt;Node26 -->
<g id="edge32" class="edge">
<title>Node24&#45;&gt;Node26</title>
<path fill="none" stroke="midnightblue" d="M1013.63,-123.4C1021.2,-113.36 1031.39,-99.84 1039.37,-89.25"/>
<polygon fill="midnightblue" stroke="midnightblue" points="1042.22,-91.29 1045.45,-81.19 1036.63,-87.07 1042.22,-91.29"/>
</g>
<!-- Node27 -->
<g id="node27" class="node">
<title>Node27</title>
<g id="a_node27"><a xlink:title=" ">
<polygon fill="white" stroke="#bfbfbf" points="891.5,-62 891.5,-81 954.5,-81 954.5,-62 891.5,-62"/>
<text text-anchor="middle" x="923" y="-69" font-family="Helvetica,sans-Serif" font-size="10.00">pthread.h</text>
</a>
</g>
</g>
<!-- Node24&#45;&gt;Node27 -->
<g id="edge33" class="edge">
<title>Node24&#45;&gt;Node27</title>
<path fill="none" stroke="midnightblue" d="M985.64,-123.4C972.67,-112.86 954.97,-98.48 941.69,-87.69"/>
<polygon fill="midnightblue" stroke="midnightblue" points="943.67,-84.78 933.7,-81.19 939.26,-90.22 943.67,-84.78"/>
</g>
<!-- Node28&#45;&gt;Node3 -->
<g id="edge38" class="edge">
<title>Node28&#45;&gt;Node3</title>
<path fill="none" stroke="midnightblue" d="M1422.43,-123.4C1404.99,-112.5 1380.97,-97.48 1363.53,-86.58"/>
<polygon fill="midnightblue" stroke="midnightblue" points="1364.95,-83.34 1354.61,-81.01 1361.24,-89.28 1364.95,-83.34"/>
</g>
<!-- Node28&#45;&gt;Node18 -->
<g id="edge37" class="edge">
<title>Node28&#45;&gt;Node18</title>
<path fill="none" stroke="midnightblue" d="M1495.65,-131.41C1547.36,-124.02 1622.45,-109.68 1640,-87 1648.43,-76.1 1646.26,-68.27 1640,-56 1633,-42.27 1619.63,-31.75 1607.1,-24.35"/>
<polygon fill="midnightblue" stroke="midnightblue" points="1608.68,-21.22 1598.22,-19.51 1605.33,-27.37 1608.68,-21.22"/>
</g>
<!-- Node28&#45;&gt;Node21 -->
<g id="edge35" class="edge">
<title>Node28&#45;&gt;Node21</title>
<path fill="none" stroke="midnightblue" d="M1394.29,-131.42C1343.18,-124.33 1262.56,-110.47 1196,-87 1194.75,-86.56 1193.49,-86.07 1192.23,-85.55"/>
<polygon fill="midnightblue" stroke="midnightblue" points="1193.31,-82.2 1182.77,-81.12 1190.34,-88.53 1193.31,-82.2"/>
</g>
<!-- Node28&#45;&gt;Node22 -->
<g id="edge36" class="edge">
<title>Node28&#45;&gt;Node22</title>
<path fill="none" stroke="midnightblue" d="M1394.3,-128.67C1353.33,-120.59 1294.69,-106.84 1246,-87 1245.13,-86.64 1244.25,-86.26 1243.36,-85.86"/>
<polygon fill="midnightblue" stroke="midnightblue" points="1244.63,-82.57 1234.15,-81.04 1241.38,-88.77 1244.63,-82.57"/>
</g>
<!-- Node29 -->
<g id="node29" class="node">
<title>Node29</title>
<g id="a_node29"><a xlink:title=" ">
<polygon fill="white" stroke="#bfbfbf" points="1833,-62 1833,-81 1883,-81 1883,-62 1833,-62"/>
<text text-anchor="middle" x="1858" y="-69" font-family="Helvetica,sans-Serif" font-size="10.00">atomic</text>
</a>
</g>
</g>
<!-- Node28&#45;&gt;Node29 -->
<g id="edge39" class="edge">
<title>Node28&#45;&gt;Node29</title>
<path fill="none" stroke="midnightblue" d="M1495.52,-135.11C1568.99,-130.67 1709.09,-118.53 1824,-87 1826.3,-86.37 1828.64,-85.62 1830.98,-84.79"/>
<polygon fill="midnightblue" stroke="midnightblue" points="1832.31,-88.03 1840.33,-81.11 1829.74,-81.52 1832.31,-88.03"/>
</g>
<!-- Node30 -->
<g id="node30" class="node">
<title>Node30</title>
<g id="a_node30"><a xlink:title=" ">
<polygon fill="white" stroke="#bfbfbf" points="1383,-56.5 1383,-86.5 1507,-86.5 1507,-56.5 1383,-56.5"/>
<text text-anchor="start" x="1391" y="-74.5" font-family="Helvetica,sans-Serif" font-size="10.00">vsomeip/enumeration</text>
<text text-anchor="middle" x="1445" y="-63.5" font-family="Helvetica,sans-Serif" font-size="10.00">_types.hpp</text>
</a>
</g>
</g>
<!-- Node28&#45;&gt;Node30 -->
<g id="edge40" class="edge">
<title>Node28&#45;&gt;Node30</title>
<path fill="none" stroke="midnightblue" d="M1445,-123.4C1445,-115.64 1445,-105.81 1445,-96.86"/>
<polygon fill="midnightblue" stroke="midnightblue" points="1448.5,-96.58 1445,-86.58 1441.5,-96.58 1448.5,-96.58"/>
</g>
<!-- Node31 -->
<g id="node31" class="node">
<title>Node31</title>
<g id="a_node31"><a xlink:title=" ">
<polygon fill="white" stroke="#bfbfbf" points="1687.5,-62 1687.5,-81 1814.5,-81 1814.5,-62 1687.5,-62"/>
<text text-anchor="middle" x="1751" y="-69" font-family="Helvetica,sans-Serif" font-size="10.00">vsomeip/message.hpp</text>
</a>
</g>
</g>
<!-- Node28&#45;&gt;Node31 -->
<g id="edge41" class="edge">
<title>Node28&#45;&gt;Node31</title>
<path fill="none" stroke="midnightblue" d="M1495.53,-126.77C1552.38,-114.69 1644.16,-95.2 1700.85,-83.15"/>
<polygon fill="midnightblue" stroke="midnightblue" points="1701.61,-86.57 1710.67,-81.07 1700.16,-79.72 1701.61,-86.57"/>
</g>
<!-- Node32 -->
<g id="node32" class="node">
<title>Node32</title>
<g id="a_node32"><a xlink:href="criticalsection_8hpp.html" target="_top" xlink:title=" ">
<polygon fill="white" stroke="black" points="1525,-62 1525,-81 1631,-81 1631,-62 1525,-62"/>
<text text-anchor="middle" x="1578" y="-69" font-family="Helvetica,sans-Serif" font-size="10.00">criticalsection.hpp</text>
</a>
</g>
</g>
<!-- Node28&#45;&gt;Node32 -->
<g id="edge42" class="edge">
<title>Node28&#45;&gt;Node32</title>
<path fill="none" stroke="midnightblue" d="M1473.86,-123.4C1496.89,-112.14 1528.89,-96.5 1551.32,-85.54"/>
<polygon fill="midnightblue" stroke="midnightblue" points="1553.15,-88.54 1560.59,-81.01 1550.07,-82.25 1553.15,-88.54"/>
</g>
<!-- Node32&#45;&gt;Node12 -->
<g id="edge44" class="edge">
<title>Node32&#45;&gt;Node12</title>
<path fill="none" stroke="midnightblue" d="M1546.34,-61.97C1536.67,-59.67 1525.96,-57.42 1516,-56 1210.91,-12.37 836.98,-10.25 723.34,-10.72"/>
<polygon fill="midnightblue" stroke="midnightblue" points="723.15,-7.22 713.17,-10.77 723.19,-14.22 723.15,-7.22"/>
</g>
<!-- Node32&#45;&gt;Node18 -->
<g id="edge43" class="edge">
<title>Node32&#45;&gt;Node18</title>
<path fill="none" stroke="midnightblue" d="M1578,-61.98C1578,-53.58 1578,-40.48 1578,-29.66"/>
<polygon fill="midnightblue" stroke="midnightblue" points="1581.5,-29.51 1578,-19.51 1574.5,-29.51 1581.5,-29.51"/>
</g>
</g>
</svg>
