<?xml version="1.0" encoding="UTF-8" standalone="no"?>
<!DOCTYPE svg PUBLIC "-//W3C//DTD SVG 1.1//EN"
 "http://www.w3.org/Graphics/SVG/1.1/DTD/svg11.dtd">
<!-- Generated by graphviz version 2.43.0 (0)
 -->
<!-- Title: /home/kali/projects/vsomeip/implementation/plugin/include/plugin_manager_impl.hpp Pages: 1 -->
<svg width="692pt" height="173pt"
 viewBox="0.00 0.00 692.00 173.00" xmlns="http://www.w3.org/2000/svg" xmlns:xlink="http://www.w3.org/1999/xlink">
<g id="graph0" class="graph" transform="scale(1 1) rotate(0) translate(4 169)">
<title>/home/kali/projects/vsomeip/implementation/plugin/include/plugin_manager_impl.hpp</title>
<polygon fill="white" stroke="transparent" points="-4,4 -4,-169 688,-169 688,4 -4,4"/>
<!-- Node1 -->
<g id="node1" class="node">
<title>Node1</title>
<g id="a_node1"><a xlink:title=" ">
<polygon fill="#bfbfbf" stroke="black" points="292.5,-112.5 292.5,-164.5 435.5,-164.5 435.5,-112.5 292.5,-112.5"/>
<text text-anchor="start" x="300.5" y="-152.5" font-family="Helvetica,sans-Serif" font-size="10.00">/home/kali/projects</text>
<text text-anchor="start" x="300.5" y="-141.5" font-family="Helvetica,sans-Serif" font-size="10.00">/vsomeip/implementation</text>
<text text-anchor="start" x="300.5" y="-130.5" font-family="Helvetica,sans-Serif" font-size="10.00">/plugin/include/plugin</text>
<text text-anchor="middle" x="364" y="-119.5" font-family="Helvetica,sans-Serif" font-size="10.00">_manager_impl.hpp</text>
</a>
</g>
</g>
<!-- Node2 -->
<g id="node2" class="node">
<title>Node2</title>
<g id="a_node2"><a xlink:href="plugin__manager_8hpp.html" target="_top" xlink:title=" ">
<polygon fill="white" stroke="black" points="56.5,-56.5 56.5,-75.5 219.5,-75.5 219.5,-56.5 56.5,-56.5"/>
<text text-anchor="middle" x="138" y="-63.5" font-family="Helvetica,sans-Serif" font-size="10.00">../include/plugin_manager.hpp</text>
</a>
</g>
</g>
<!-- Node1&#45;&gt;Node2 -->
<g id="edge1" class="edge">
<title>Node1&#45;&gt;Node2</title>
<path fill="none" stroke="midnightblue" d="M292.49,-115.19C253.52,-103.04 206.9,-88.49 175.13,-78.58"/>
<polygon fill="midnightblue" stroke="midnightblue" points="175.96,-75.18 165.37,-75.54 173.88,-81.86 175.96,-75.18"/>
</g>
<!-- Node5 -->
<g id="node5" class="node">
<title>Node5</title>
<g id="a_node5"><a xlink:title=" ">
<polygon fill="white" stroke="#bfbfbf" points="138,-0.5 138,-19.5 252,-19.5 252,-0.5 138,-0.5"/>
<text text-anchor="middle" x="195" y="-7.5" font-family="Helvetica,sans-Serif" font-size="10.00">vsomeip/export.hpp</text>
</a>
</g>
</g>
<!-- Node1&#45;&gt;Node5 -->
<g id="edge11" class="edge">
<title>Node1&#45;&gt;Node5</title>
<path fill="none" stroke="midnightblue" d="M330.21,-112.2C295.61,-86.31 243.03,-46.95 214.71,-25.75"/>
<polygon fill="midnightblue" stroke="midnightblue" points="216.53,-22.74 206.42,-19.55 212.33,-28.34 216.53,-22.74"/>
</g>
<!-- Node6 -->
<g id="node6" class="node">
<title>Node6</title>
<g id="a_node6"><a xlink:title=" ">
<polygon fill="white" stroke="#bfbfbf" points="270.5,-0.5 270.5,-19.5 383.5,-19.5 383.5,-0.5 270.5,-0.5"/>
<text text-anchor="middle" x="327" y="-7.5" font-family="Helvetica,sans-Serif" font-size="10.00">vsomeip/plugin.hpp</text>
</a>
</g>
</g>
<!-- Node1&#45;&gt;Node6 -->
<g id="edge12" class="edge">
<title>Node1&#45;&gt;Node6</title>
<path fill="none" stroke="midnightblue" d="M331.44,-112.41C320.93,-102.36 310.58,-89.86 305,-76 298.56,-59.99 306.45,-41.29 314.52,-28.07"/>
<polygon fill="midnightblue" stroke="midnightblue" points="317.58,-29.78 320.22,-19.52 311.76,-25.9 317.58,-29.78"/>
</g>
<!-- Node7 -->
<g id="node7" class="node">
<title>Node7</title>
<g id="a_node7"><a xlink:title=" ">
<polygon fill="white" stroke="#bfbfbf" points="314,-56.5 314,-75.5 352,-75.5 352,-56.5 314,-56.5"/>
<text text-anchor="middle" x="333" y="-63.5" font-family="Helvetica,sans-Serif" font-size="10.00">map</text>
</a>
</g>
</g>
<!-- Node1&#45;&gt;Node7 -->
<g id="edge6" class="edge">
<title>Node1&#45;&gt;Node7</title>
<path fill="none" stroke="midnightblue" d="M352.98,-112.45C348.97,-103.33 344.53,-93.22 340.85,-84.85"/>
<polygon fill="midnightblue" stroke="midnightblue" points="344.05,-83.44 336.82,-75.7 337.64,-86.26 344.05,-83.44"/>
</g>
<!-- Node8 -->
<g id="node8" class="node">
<title>Node8</title>
<g id="a_node8"><a xlink:title=" ">
<polygon fill="white" stroke="#bfbfbf" points="370,-56.5 370,-75.5 420,-75.5 420,-56.5 370,-56.5"/>
<text text-anchor="middle" x="395" y="-63.5" font-family="Helvetica,sans-Serif" font-size="10.00">chrono</text>
</a>
</g>
</g>
<!-- Node1&#45;&gt;Node8 -->
<g id="edge7" class="edge">
<title>Node1&#45;&gt;Node8</title>
<path fill="none" stroke="midnightblue" d="M375.02,-112.45C379.03,-103.33 383.47,-93.22 387.15,-84.85"/>
<polygon fill="midnightblue" stroke="midnightblue" points="390.36,-86.26 391.18,-75.7 383.95,-83.44 390.36,-86.26"/>
</g>
<!-- Node9 -->
<g id="node9" class="node">
<title>Node9</title>
<g id="a_node9"><a xlink:title=" ">
<polygon fill="white" stroke="#bfbfbf" points="438,-56.5 438,-75.5 486,-75.5 486,-56.5 438,-56.5"/>
<text text-anchor="middle" x="462" y="-63.5" font-family="Helvetica,sans-Serif" font-size="10.00">mutex</text>
</a>
</g>
</g>
<!-- Node1&#45;&gt;Node9 -->
<g id="edge8" class="edge">
<title>Node1&#45;&gt;Node9</title>
<path fill="none" stroke="midnightblue" d="M398.83,-112.45C413.17,-102.13 429.29,-90.53 441.65,-81.64"/>
<polygon fill="midnightblue" stroke="midnightblue" points="443.84,-84.38 449.91,-75.7 439.75,-78.69 443.84,-84.38"/>
</g>
<!-- Node10 -->
<g id="node10" class="node">
<title>Node10</title>
<g id="a_node10"><a xlink:title=" ">
<polygon fill="white" stroke="#bfbfbf" points="504,-56.5 504,-75.5 536,-75.5 536,-56.5 504,-56.5"/>
<text text-anchor="middle" x="520" y="-63.5" font-family="Helvetica,sans-Serif" font-size="10.00">set</text>
</a>
</g>
</g>
<!-- Node1&#45;&gt;Node10 -->
<g id="edge9" class="edge">
<title>Node1&#45;&gt;Node10</title>
<path fill="none" stroke="midnightblue" d="M419.44,-112.45C445.03,-100.88 474.16,-87.72 494.46,-78.54"/>
<polygon fill="midnightblue" stroke="midnightblue" points="495.99,-81.69 503.66,-74.38 493.11,-75.31 495.99,-81.69"/>
</g>
<!-- Node11 -->
<g id="node11" class="node">
<title>Node11</title>
<g id="a_node11"><a xlink:title=" ">
<polygon fill="white" stroke="#bfbfbf" points="554,-56.5 554,-75.5 684,-75.5 684,-56.5 554,-56.5"/>
<text text-anchor="middle" x="619" y="-63.5" font-family="Helvetica,sans-Serif" font-size="10.00">vsomeip/constants.hpp</text>
</a>
</g>
</g>
<!-- Node1&#45;&gt;Node11 -->
<g id="edge10" class="edge">
<title>Node1&#45;&gt;Node11</title>
<path fill="none" stroke="midnightblue" d="M435.71,-117.67C481.82,-104.93 540.06,-88.82 578.36,-78.23"/>
<polygon fill="midnightblue" stroke="midnightblue" points="579.43,-81.57 588.13,-75.53 577.56,-74.83 579.43,-81.57"/>
</g>
<!-- Node3 -->
<g id="node3" class="node">
<title>Node3</title>
<g id="a_node3"><a xlink:title=" ">
<polygon fill="white" stroke="#bfbfbf" points="0,-0.5 0,-19.5 58,-19.5 58,-0.5 0,-0.5"/>
<text text-anchor="middle" x="29" y="-7.5" font-family="Helvetica,sans-Serif" font-size="10.00">memory</text>
</a>
</g>
</g>
<!-- Node2&#45;&gt;Node3 -->
<g id="edge2" class="edge">
<title>Node2&#45;&gt;Node3</title>
<path fill="none" stroke="midnightblue" d="M120.49,-56.32C102.93,-47.62 75.67,-34.12 55.47,-24.11"/>
<polygon fill="midnightblue" stroke="midnightblue" points="56.98,-20.96 46.47,-19.65 53.88,-27.23 56.98,-20.96"/>
</g>
<!-- Node4 -->
<g id="node4" class="node">
<title>Node4</title>
<g id="a_node4"><a xlink:title=" ">
<polygon fill="white" stroke="#bfbfbf" points="76,-0.5 76,-19.5 120,-19.5 120,-0.5 76,-0.5"/>
<text text-anchor="middle" x="98" y="-7.5" font-family="Helvetica,sans-Serif" font-size="10.00">string</text>
</a>
</g>
</g>
<!-- Node2&#45;&gt;Node4 -->
<g id="edge3" class="edge">
<title>Node2&#45;&gt;Node4</title>
<path fill="none" stroke="midnightblue" d="M131.39,-56.08C125.74,-48.46 117.46,-37.26 110.55,-27.94"/>
<polygon fill="midnightblue" stroke="midnightblue" points="113.25,-25.7 104.48,-19.75 107.62,-29.87 113.25,-25.7"/>
</g>
<!-- Node2&#45;&gt;Node5 -->
<g id="edge4" class="edge">
<title>Node2&#45;&gt;Node5</title>
<path fill="none" stroke="midnightblue" d="M147.16,-56.32C155.5,-48.42 168.03,-36.55 178.18,-26.94"/>
<polygon fill="midnightblue" stroke="midnightblue" points="180.82,-29.25 185.68,-19.83 176.01,-24.17 180.82,-29.25"/>
</g>
<!-- Node2&#45;&gt;Node6 -->
<g id="edge5" class="edge">
<title>Node2&#45;&gt;Node6</title>
<path fill="none" stroke="midnightblue" d="M167.95,-56.44C200.16,-47.24 251.53,-32.56 287.14,-22.39"/>
<polygon fill="midnightblue" stroke="midnightblue" points="288.54,-25.63 297.19,-19.52 286.62,-18.9 288.54,-25.63"/>
</g>
</g>
</svg>
