<?xml version="1.0" encoding="UTF-8" standalone="no"?>
<!DOCTYPE svg PUBLIC "-//W3C//DTD SVG 1.1//EN"
 "http://www.w3.org/Graphics/SVG/1.1/DTD/svg11.dtd">
<!-- Generated by graphviz version 2.43.0 (0)
 -->
<!-- Title: /home/kali/projects/vsomeip/implementation/security/include/policy.hpp Pages: 1 -->
<svg width="1216pt" height="173pt"
 viewBox="0.00 0.00 1216.00 173.00" xmlns="http://www.w3.org/2000/svg" xmlns:xlink="http://www.w3.org/1999/xlink">
<g id="graph0" class="graph" transform="scale(1 1) rotate(0) translate(4 169)">
<title>/home/kali/projects/vsomeip/implementation/security/include/policy.hpp</title>
<polygon fill="white" stroke="transparent" points="-4,4 -4,-169 1212,-169 1212,4 -4,4"/>
<!-- Node1 -->
<g id="node1" class="node">
<title>Node1</title>
<g id="a_node1"><a xlink:title=" ">
<polygon fill="#bfbfbf" stroke="black" points="219.5,-123.5 219.5,-164.5 368.5,-164.5 368.5,-123.5 219.5,-123.5"/>
<text text-anchor="start" x="227.5" y="-152.5" font-family="Helvetica,sans-Serif" font-size="10.00">/home/kali/projects</text>
<text text-anchor="start" x="227.5" y="-141.5" font-family="Helvetica,sans-Serif" font-size="10.00">/vsomeip/implementation</text>
<text text-anchor="middle" x="294" y="-130.5" font-family="Helvetica,sans-Serif" font-size="10.00">/security/include/policy.hpp</text>
</a>
</g>
</g>
<!-- Node2 -->
<g id="node2" class="node">
<title>Node2</title>
<g id="a_node2"><a xlink:title=" ">
<polygon fill="white" stroke="#bfbfbf" points="0,-62 0,-81 50,-81 50,-62 0,-62"/>
<text text-anchor="middle" x="25" y="-69" font-family="Helvetica,sans-Serif" font-size="10.00">cstring</text>
</a>
</g>
</g>
<!-- Node1&#45;&gt;Node2 -->
<g id="edge1" class="edge">
<title>Node1&#45;&gt;Node2</title>
<path fill="none" stroke="midnightblue" d="M219.28,-128.57C172.64,-118.74 111.68,-104.37 59,-87 57.08,-86.37 55.12,-85.67 53.15,-84.93"/>
<polygon fill="midnightblue" stroke="midnightblue" points="54.07,-81.53 43.49,-81.05 51.46,-88.03 54.07,-81.53"/>
</g>
<!-- Node3 -->
<g id="node3" class="node">
<title>Node3</title>
<g id="a_node3"><a xlink:title=" ">
<polygon fill="white" stroke="#bfbfbf" points="68,-62 68,-81 106,-81 106,-62 68,-62"/>
<text text-anchor="middle" x="87" y="-69" font-family="Helvetica,sans-Serif" font-size="10.00">map</text>
</a>
</g>
</g>
<!-- Node1&#45;&gt;Node3 -->
<g id="edge2" class="edge">
<title>Node1&#45;&gt;Node3</title>
<path fill="none" stroke="midnightblue" d="M227.76,-123.44C195.05,-113.33 155.16,-100.34 120,-87 118.39,-86.39 116.75,-85.74 115.09,-85.07"/>
<polygon fill="midnightblue" stroke="midnightblue" points="116.28,-81.78 105.71,-81.12 113.56,-88.23 116.28,-81.78"/>
</g>
<!-- Node4 -->
<g id="node4" class="node">
<title>Node4</title>
<g id="a_node4"><a xlink:title=" ">
<polygon fill="white" stroke="#bfbfbf" points="402,-0.5 402,-19.5 450,-19.5 450,-0.5 402,-0.5"/>
<text text-anchor="middle" x="426" y="-7.5" font-family="Helvetica,sans-Serif" font-size="10.00">mutex</text>
</a>
</g>
</g>
<!-- Node1&#45;&gt;Node4 -->
<g id="edge3" class="edge">
<title>Node1&#45;&gt;Node4</title>
<path fill="none" stroke="midnightblue" d="M219.3,-125.13C172.84,-110.5 126.57,-87.14 153,-56 183.18,-20.44 324.66,-12.94 391.22,-11.38"/>
<polygon fill="midnightblue" stroke="midnightblue" points="391.68,-14.88 401.61,-11.18 391.54,-7.88 391.68,-14.88"/>
</g>
<!-- Node5 -->
<g id="node5" class="node">
<title>Node5</title>
<g id="a_node5"><a xlink:title=" ">
<polygon fill="white" stroke="#bfbfbf" points="162.5,-62 162.5,-81 207.5,-81 207.5,-62 162.5,-62"/>
<text text-anchor="middle" x="185" y="-69" font-family="Helvetica,sans-Serif" font-size="10.00">utility</text>
</a>
</g>
</g>
<!-- Node1&#45;&gt;Node5 -->
<g id="edge4" class="edge">
<title>Node1&#45;&gt;Node5</title>
<path fill="none" stroke="midnightblue" d="M263.64,-123.36C245.73,-111.78 223.47,-97.39 207.21,-86.87"/>
<polygon fill="midnightblue" stroke="midnightblue" points="208.71,-83.67 198.41,-81.17 204.91,-89.54 208.71,-83.67"/>
</g>
<!-- Node6 -->
<g id="node6" class="node">
<title>Node6</title>
<g id="a_node6"><a xlink:title=" ">
<polygon fill="white" stroke="#bfbfbf" points="225.5,-62 225.5,-81 272.5,-81 272.5,-62 225.5,-62"/>
<text text-anchor="middle" x="249" y="-69" font-family="Helvetica,sans-Serif" font-size="10.00">vector</text>
</a>
</g>
</g>
<!-- Node1&#45;&gt;Node6 -->
<g id="edge5" class="edge">
<title>Node1&#45;&gt;Node6</title>
<path fill="none" stroke="midnightblue" d="M281.46,-123.36C274.76,-112.86 266.59,-100.05 260.11,-89.91"/>
<polygon fill="midnightblue" stroke="midnightblue" points="262.87,-87.72 254.54,-81.17 256.97,-91.49 262.87,-87.72"/>
</g>
<!-- Node7 -->
<g id="node7" class="node">
<title>Node7</title>
<g id="a_node7"><a xlink:title=" ">
<polygon fill="white" stroke="#bfbfbf" points="291,-56.5 291,-86.5 389,-86.5 389,-56.5 291,-56.5"/>
<text text-anchor="start" x="299" y="-74.5" font-family="Helvetica,sans-Serif" font-size="10.00">boost/icl/interval</text>
<text text-anchor="middle" x="340" y="-63.5" font-family="Helvetica,sans-Serif" font-size="10.00">_map.hpp</text>
</a>
</g>
</g>
<!-- Node1&#45;&gt;Node7 -->
<g id="edge6" class="edge">
<title>Node1&#45;&gt;Node7</title>
<path fill="none" stroke="midnightblue" d="M306.81,-123.36C312.48,-114.68 319.17,-104.42 325.06,-95.4"/>
<polygon fill="midnightblue" stroke="midnightblue" points="328.08,-97.18 330.61,-86.89 322.21,-93.35 328.08,-97.18"/>
</g>
<!-- Node8 -->
<g id="node8" class="node">
<title>Node8</title>
<g id="a_node8"><a xlink:title=" ">
<polygon fill="white" stroke="#bfbfbf" points="407,-56.5 407,-86.5 505,-86.5 505,-56.5 407,-56.5"/>
<text text-anchor="start" x="415" y="-74.5" font-family="Helvetica,sans-Serif" font-size="10.00">boost/icl/interval</text>
<text text-anchor="middle" x="456" y="-63.5" font-family="Helvetica,sans-Serif" font-size="10.00">_set.hpp</text>
</a>
</g>
</g>
<!-- Node1&#45;&gt;Node8 -->
<g id="edge7" class="edge">
<title>Node1&#45;&gt;Node8</title>
<path fill="none" stroke="midnightblue" d="M339.13,-123.36C362.74,-113.08 391.46,-100.59 414.51,-90.55"/>
<polygon fill="midnightblue" stroke="midnightblue" points="415.92,-93.76 423.69,-86.56 413.13,-87.34 415.92,-93.76"/>
</g>
<!-- Node9 -->
<g id="node9" class="node">
<title>Node9</title>
<g id="a_node9"><a xlink:title=" ">
<polygon fill="white" stroke="#bfbfbf" points="523,-62 523,-81 653,-81 653,-62 523,-62"/>
<text text-anchor="middle" x="588" y="-69" font-family="Helvetica,sans-Serif" font-size="10.00">vsomeip/constants.hpp</text>
</a>
</g>
</g>
<!-- Node1&#45;&gt;Node9 -->
<g id="edge8" class="edge">
<title>Node1&#45;&gt;Node9</title>
<path fill="none" stroke="midnightblue" d="M368.57,-125.12C423.41,-111.97 496.17,-94.52 542.55,-83.4"/>
<polygon fill="midnightblue" stroke="midnightblue" points="543.41,-86.79 552.32,-81.06 541.78,-79.98 543.41,-86.79"/>
</g>
<!-- Node10 -->
<g id="node10" class="node">
<title>Node10</title>
<g id="a_node10"><a xlink:title=" ">
<polygon fill="white" stroke="#bfbfbf" points="671.5,-62 671.5,-81 830.5,-81 830.5,-62 671.5,-62"/>
<text text-anchor="middle" x="751" y="-69" font-family="Helvetica,sans-Serif" font-size="10.00">vsomeip/primitive_types.hpp</text>
</a>
</g>
</g>
<!-- Node1&#45;&gt;Node10 -->
<g id="edge9" class="edge">
<title>Node1&#45;&gt;Node10</title>
<path fill="none" stroke="midnightblue" d="M368.75,-131.86C443.12,-120.72 560.5,-102.99 662,-87 670.76,-85.62 680.01,-84.14 689.09,-82.67"/>
<polygon fill="midnightblue" stroke="midnightblue" points="689.94,-86.08 699.25,-81.03 688.82,-79.17 689.94,-86.08"/>
</g>
<!-- Node11 -->
<g id="node11" class="node">
<title>Node11</title>
<g id="a_node11"><a xlink:href="logger_8hpp.html" target="_top" xlink:title=" ">
<polygon fill="white" stroke="black" points="848.5,-62 848.5,-81 1001.5,-81 1001.5,-62 848.5,-62"/>
<text text-anchor="middle" x="925" y="-69" font-family="Helvetica,sans-Serif" font-size="10.00">vsomeip/internal/logger.hpp</text>
</a>
</g>
</g>
<!-- Node1&#45;&gt;Node11 -->
<g id="edge10" class="edge">
<title>Node1&#45;&gt;Node11</title>
<path fill="none" stroke="midnightblue" d="M368.67,-136.87C473.83,-127.88 671.46,-109.71 839,-87 848.35,-85.73 858.25,-84.22 867.88,-82.66"/>
<polygon fill="midnightblue" stroke="midnightblue" points="868.47,-86.11 877.77,-81.03 867.33,-79.2 868.47,-86.11"/>
</g>
<!-- Node11&#45;&gt;Node4 -->
<g id="edge13" class="edge">
<title>Node11&#45;&gt;Node4</title>
<path fill="none" stroke="midnightblue" d="M877.31,-61.95C864.86,-59.86 851.45,-57.73 839,-56 699.02,-36.59 531.37,-20.53 460.41,-14.06"/>
<polygon fill="midnightblue" stroke="midnightblue" points="460.54,-10.56 450.27,-13.14 459.91,-17.53 460.54,-10.56"/>
</g>
<!-- Node12 -->
<g id="node12" class="node">
<title>Node12</title>
<g id="a_node12"><a xlink:title=" ">
<polygon fill="white" stroke="#bfbfbf" points="722,-0.5 722,-19.5 772,-19.5 772,-0.5 722,-0.5"/>
<text text-anchor="middle" x="747" y="-7.5" font-family="Helvetica,sans-Serif" font-size="10.00">chrono</text>
</a>
</g>
</g>
<!-- Node11&#45;&gt;Node12 -->
<g id="edge11" class="edge">
<title>Node11&#45;&gt;Node12</title>
<path fill="none" stroke="midnightblue" d="M899.5,-61.98C868.61,-51.65 816.44,-34.21 781.86,-22.65"/>
<polygon fill="midnightblue" stroke="midnightblue" points="782.76,-19.26 772.17,-19.41 780.54,-25.9 782.76,-19.26"/>
</g>
<!-- Node13 -->
<g id="node13" class="node">
<title>Node13</title>
<g id="a_node13"><a xlink:title=" ">
<polygon fill="white" stroke="#bfbfbf" points="790,-0.5 790,-19.5 840,-19.5 840,-0.5 790,-0.5"/>
<text text-anchor="middle" x="815" y="-7.5" font-family="Helvetica,sans-Serif" font-size="10.00">cstdint</text>
</a>
</g>
</g>
<!-- Node11&#45;&gt;Node13 -->
<g id="edge12" class="edge">
<title>Node11&#45;&gt;Node13</title>
<path fill="none" stroke="midnightblue" d="M909.24,-61.98C891.02,-52.12 860.83,-35.79 839.53,-24.27"/>
<polygon fill="midnightblue" stroke="midnightblue" points="841.19,-21.19 830.73,-19.51 837.86,-27.35 841.19,-21.19"/>
</g>
<!-- Node14 -->
<g id="node14" class="node">
<title>Node14</title>
<g id="a_node14"><a xlink:title=" ">
<polygon fill="white" stroke="#bfbfbf" points="858.5,-0.5 858.5,-19.5 915.5,-19.5 915.5,-0.5 858.5,-0.5"/>
<text text-anchor="middle" x="887" y="-7.5" font-family="Helvetica,sans-Serif" font-size="10.00">ostream</text>
</a>
</g>
</g>
<!-- Node11&#45;&gt;Node14 -->
<g id="edge14" class="edge">
<title>Node11&#45;&gt;Node14</title>
<path fill="none" stroke="midnightblue" d="M919.56,-61.98C913.91,-53.14 904.94,-39.09 897.84,-27.98"/>
<polygon fill="midnightblue" stroke="midnightblue" points="900.77,-26.05 892.43,-19.51 894.87,-29.82 900.77,-26.05"/>
</g>
<!-- Node15 -->
<g id="node15" class="node">
<title>Node15</title>
<g id="a_node15"><a xlink:title=" ">
<polygon fill="white" stroke="#bfbfbf" points="934,-0.5 934,-19.5 990,-19.5 990,-0.5 934,-0.5"/>
<text text-anchor="middle" x="962" y="-7.5" font-family="Helvetica,sans-Serif" font-size="10.00">sstream</text>
</a>
</g>
</g>
<!-- Node11&#45;&gt;Node15 -->
<g id="edge15" class="edge">
<title>Node11&#45;&gt;Node15</title>
<path fill="none" stroke="midnightblue" d="M930.3,-61.98C935.74,-53.23 944.36,-39.37 951.24,-28.31"/>
<polygon fill="midnightblue" stroke="midnightblue" points="954.4,-29.85 956.71,-19.51 948.46,-26.15 954.4,-29.85"/>
</g>
<!-- Node16 -->
<g id="node16" class="node">
<title>Node16</title>
<g id="a_node16"><a xlink:title=" ">
<polygon fill="white" stroke="#bfbfbf" points="1008.5,-0.5 1008.5,-19.5 1075.5,-19.5 1075.5,-0.5 1008.5,-0.5"/>
<text text-anchor="middle" x="1042" y="-7.5" font-family="Helvetica,sans-Serif" font-size="10.00">streambuf</text>
</a>
</g>
</g>
<!-- Node11&#45;&gt;Node16 -->
<g id="edge16" class="edge">
<title>Node11&#45;&gt;Node16</title>
<path fill="none" stroke="midnightblue" d="M941.76,-61.98C961.22,-52.08 993.55,-35.64 1016.21,-24.12"/>
<polygon fill="midnightblue" stroke="midnightblue" points="1017.94,-27.16 1025.27,-19.51 1014.77,-20.92 1017.94,-27.16"/>
</g>
<!-- Node17 -->
<g id="node17" class="node">
<title>Node17</title>
<g id="a_node17"><a xlink:title=" ">
<polygon fill="white" stroke="#bfbfbf" points="1094,-0.5 1094,-19.5 1208,-19.5 1208,-0.5 1094,-0.5"/>
<text text-anchor="middle" x="1151" y="-7.5" font-family="Helvetica,sans-Serif" font-size="10.00">vsomeip/export.hpp</text>
</a>
</g>
</g>
<!-- Node11&#45;&gt;Node17 -->
<g id="edge17" class="edge">
<title>Node11&#45;&gt;Node17</title>
<path fill="none" stroke="midnightblue" d="M957.38,-61.98C997.24,-51.48 1065.02,-33.64 1108.89,-22.09"/>
<polygon fill="midnightblue" stroke="midnightblue" points="1109.9,-25.44 1118.68,-19.51 1108.12,-18.67 1109.9,-25.44"/>
</g>
</g>
</svg>
