<?xml version="1.0" encoding="UTF-8" standalone="no"?>
<!DOCTYPE svg PUBLIC "-//W3C//DTD SVG 1.1//EN"
 "http://www.w3.org/Graphics/SVG/1.1/DTD/svg11.dtd">
<!-- Generated by graphviz version 2.43.0 (0)
 -->
<!-- Title: /home/kali/projects/vsomeip/implementation/security/src/policy_manager_impl.cpp Pages: 1 -->
<svg width="1729pt" height="329pt"
 viewBox="0.00 0.00 1729.28 329.00" xmlns="http://www.w3.org/2000/svg" xmlns:xlink="http://www.w3.org/1999/xlink">
<g id="graph0" class="graph" transform="scale(1 1) rotate(0) translate(4 325)">
<title>/home/kali/projects/vsomeip/implementation/security/src/policy_manager_impl.cpp</title>
<polygon fill="white" stroke="transparent" points="-4,4 -4,-325 1725.28,-325 1725.28,4 -4,4"/>
<!-- Node1 -->
<g id="node1" class="node">
<title>Node1</title>
<g id="a_node1"><a xlink:title=" ">
<polygon fill="#bfbfbf" stroke="black" points="672.28,-268.5 672.28,-320.5 829.28,-320.5 829.28,-268.5 672.28,-268.5"/>
<text text-anchor="start" x="680.28" y="-308.5" font-family="Helvetica,sans-Serif" font-size="10.00">/home/kali/projects</text>
<text text-anchor="start" x="680.28" y="-297.5" font-family="Helvetica,sans-Serif" font-size="10.00">/vsomeip/implementation</text>
<text text-anchor="start" x="680.28" y="-286.5" font-family="Helvetica,sans-Serif" font-size="10.00">/security/src/policy_manager</text>
<text text-anchor="middle" x="750.78" y="-275.5" font-family="Helvetica,sans-Serif" font-size="10.00">_impl.cpp</text>
</a>
</g>
</g>
<!-- Node2 -->
<g id="node2" class="node">
<title>Node2</title>
<g id="a_node2"><a xlink:href="policy_8hpp.html" target="_top" xlink:title=" ">
<polygon fill="white" stroke="black" points="806.28,-134.5 806.28,-153.5 919.28,-153.5 919.28,-134.5 806.28,-134.5"/>
<text text-anchor="middle" x="862.78" y="-141.5" font-family="Helvetica,sans-Serif" font-size="10.00">../include/policy.hpp</text>
</a>
</g>
</g>
<!-- Node1&#45;&gt;Node2 -->
<g id="edge1" class="edge">
<title>Node1&#45;&gt;Node2</title>
<path fill="none" stroke="midnightblue" d="M778.75,-268.21C789.7,-257.59 801.97,-244.75 811.78,-232 828.99,-209.62 844.76,-180.92 854.07,-162.74"/>
<polygon fill="midnightblue" stroke="midnightblue" points="857.29,-164.11 858.65,-153.6 851.04,-160.96 857.29,-164.11"/>
</g>
<!-- Node19 -->
<g id="node19" class="node">
<title>Node19</title>
<g id="a_node19"><a xlink:href="policy__manager__impl_8hpp.html" target="_top" xlink:title=" ">
<polygon fill="white" stroke="black" points="270.78,-201.5 270.78,-231.5 412.78,-231.5 412.78,-201.5 270.78,-201.5"/>
<text text-anchor="start" x="278.78" y="-219.5" font-family="Helvetica,sans-Serif" font-size="10.00">../include/policy_manager</text>
<text text-anchor="middle" x="341.78" y="-208.5" font-family="Helvetica,sans-Serif" font-size="10.00">_impl.hpp</text>
</a>
</g>
</g>
<!-- Node1&#45;&gt;Node19 -->
<g id="edge19" class="edge">
<title>Node1&#45;&gt;Node19</title>
<path fill="none" stroke="midnightblue" d="M671.92,-278.85C600.31,-265.54 495.14,-246 422.85,-232.56"/>
<polygon fill="midnightblue" stroke="midnightblue" points="423.35,-229.1 412.88,-230.71 422.07,-235.98 423.35,-229.1"/>
</g>
<!-- Node25 -->
<g id="node25" class="node">
<title>Node25</title>
<g id="a_node25"><a xlink:href="security__impl_8hpp.html" target="_top" xlink:title=" ">
<polygon fill="white" stroke="black" points="699.28,-201.5 699.28,-231.5 802.28,-231.5 802.28,-201.5 699.28,-201.5"/>
<text text-anchor="start" x="707.28" y="-219.5" font-family="Helvetica,sans-Serif" font-size="10.00">../include/security</text>
<text text-anchor="middle" x="750.78" y="-208.5" font-family="Helvetica,sans-Serif" font-size="10.00">_impl.hpp</text>
</a>
</g>
</g>
<!-- Node1&#45;&gt;Node25 -->
<g id="edge30" class="edge">
<title>Node1&#45;&gt;Node25</title>
<path fill="none" stroke="midnightblue" d="M750.78,-268.19C750.78,-259.79 750.78,-250.44 750.78,-242.09"/>
<polygon fill="midnightblue" stroke="midnightblue" points="754.28,-241.85 750.78,-231.85 747.28,-241.85 754.28,-241.85"/>
</g>
<!-- Node3 -->
<g id="node3" class="node">
<title>Node3</title>
<g id="a_node3"><a xlink:title=" ">
<polygon fill="white" stroke="#bfbfbf" points="875.78,-62 875.78,-81 925.78,-81 925.78,-62 875.78,-62"/>
<text text-anchor="middle" x="900.78" y="-69" font-family="Helvetica,sans-Serif" font-size="10.00">cstring</text>
</a>
</g>
</g>
<!-- Node2&#45;&gt;Node3 -->
<g id="edge2" class="edge">
<title>Node2&#45;&gt;Node3</title>
<path fill="none" stroke="midnightblue" d="M867.44,-134.36C873.31,-123.47 883.54,-104.48 891.13,-90.41"/>
<polygon fill="midnightblue" stroke="midnightblue" points="894.42,-91.68 896.08,-81.22 888.26,-88.36 894.42,-91.68"/>
</g>
<!-- Node4 -->
<g id="node4" class="node">
<title>Node4</title>
<g id="a_node4"><a xlink:title=" ">
<polygon fill="white" stroke="#bfbfbf" points="781.78,-62 781.78,-81 819.78,-81 819.78,-62 781.78,-62"/>
<text text-anchor="middle" x="800.78" y="-69" font-family="Helvetica,sans-Serif" font-size="10.00">map</text>
</a>
</g>
</g>
<!-- Node2&#45;&gt;Node4 -->
<g id="edge3" class="edge">
<title>Node2&#45;&gt;Node4</title>
<path fill="none" stroke="midnightblue" d="M855.18,-134.36C845.23,-123.04 827.6,-103 815.11,-88.79"/>
<polygon fill="midnightblue" stroke="midnightblue" points="817.68,-86.41 808.44,-81.22 812.42,-91.04 817.68,-86.41"/>
</g>
<!-- Node5 -->
<g id="node5" class="node">
<title>Node5</title>
<g id="a_node5"><a xlink:title=" ">
<polygon fill="white" stroke="#bfbfbf" points="1021.78,-0.5 1021.78,-19.5 1069.78,-19.5 1069.78,-0.5 1021.78,-0.5"/>
<text text-anchor="middle" x="1045.78" y="-7.5" font-family="Helvetica,sans-Serif" font-size="10.00">mutex</text>
</a>
</g>
</g>
<!-- Node2&#45;&gt;Node5 -->
<g id="edge4" class="edge">
<title>Node2&#45;&gt;Node5</title>
<path fill="none" stroke="midnightblue" d="M860.17,-134.42C855.57,-117.36 848.12,-78.83 866.78,-56 884.88,-33.86 964.76,-20.71 1011.47,-14.79"/>
<polygon fill="midnightblue" stroke="midnightblue" points="1011.96,-18.25 1021.46,-13.57 1011.11,-11.31 1011.96,-18.25"/>
</g>
<!-- Node6 -->
<g id="node6" class="node">
<title>Node6</title>
<g id="a_node6"><a xlink:title=" ">
<polygon fill="white" stroke="#bfbfbf" points="944.28,-62 944.28,-81 989.28,-81 989.28,-62 944.28,-62"/>
<text text-anchor="middle" x="966.78" y="-69" font-family="Helvetica,sans-Serif" font-size="10.00">utility</text>
</a>
</g>
</g>
<!-- Node2&#45;&gt;Node6 -->
<g id="edge5" class="edge">
<title>Node2&#45;&gt;Node6</title>
<path fill="none" stroke="midnightblue" d="M875.53,-134.36C893,-122.52 924.58,-101.1 945.62,-86.84"/>
<polygon fill="midnightblue" stroke="midnightblue" points="947.61,-89.72 953.92,-81.22 943.68,-83.93 947.61,-89.72"/>
</g>
<!-- Node7 -->
<g id="node7" class="node">
<title>Node7</title>
<g id="a_node7"><a xlink:title=" ">
<polygon fill="white" stroke="#bfbfbf" points="716.28,-62 716.28,-81 763.28,-81 763.28,-62 716.28,-62"/>
<text text-anchor="middle" x="739.78" y="-69" font-family="Helvetica,sans-Serif" font-size="10.00">vector</text>
</a>
</g>
</g>
<!-- Node2&#45;&gt;Node7 -->
<g id="edge6" class="edge">
<title>Node2&#45;&gt;Node7</title>
<path fill="none" stroke="midnightblue" d="M847.7,-134.36C826.76,-122.36 788.68,-100.53 763.81,-86.27"/>
<polygon fill="midnightblue" stroke="midnightblue" points="765.4,-83.15 754.98,-81.22 761.92,-89.22 765.4,-83.15"/>
</g>
<!-- Node8 -->
<g id="node8" class="node">
<title>Node8</title>
<g id="a_node8"><a xlink:title=" ">
<polygon fill="white" stroke="#bfbfbf" points="1007.78,-56.5 1007.78,-86.5 1105.78,-86.5 1105.78,-56.5 1007.78,-56.5"/>
<text text-anchor="start" x="1015.78" y="-74.5" font-family="Helvetica,sans-Serif" font-size="10.00">boost/icl/interval</text>
<text text-anchor="middle" x="1056.78" y="-63.5" font-family="Helvetica,sans-Serif" font-size="10.00">_map.hpp</text>
</a>
</g>
</g>
<!-- Node2&#45;&gt;Node8 -->
<g id="edge7" class="edge">
<title>Node2&#45;&gt;Node8</title>
<path fill="none" stroke="midnightblue" d="M886.18,-134.5C916.37,-123.52 969.65,-104.16 1008.65,-89.99"/>
<polygon fill="midnightblue" stroke="midnightblue" points="1010.03,-93.21 1018.24,-86.51 1007.64,-86.63 1010.03,-93.21"/>
</g>
<!-- Node9 -->
<g id="node9" class="node">
<title>Node9</title>
<g id="a_node9"><a xlink:title=" ">
<polygon fill="white" stroke="#bfbfbf" points="1123.78,-56.5 1123.78,-86.5 1221.78,-86.5 1221.78,-56.5 1123.78,-56.5"/>
<text text-anchor="start" x="1131.78" y="-74.5" font-family="Helvetica,sans-Serif" font-size="10.00">boost/icl/interval</text>
<text text-anchor="middle" x="1172.78" y="-63.5" font-family="Helvetica,sans-Serif" font-size="10.00">_set.hpp</text>
</a>
</g>
</g>
<!-- Node2&#45;&gt;Node9 -->
<g id="edge8" class="edge">
<title>Node2&#45;&gt;Node9</title>
<path fill="none" stroke="midnightblue" d="M902.57,-134.5C950.36,-124.21 1033.18,-106.14 1113.92,-87.17"/>
<polygon fill="midnightblue" stroke="midnightblue" points="1114.82,-90.55 1123.75,-84.85 1113.22,-83.74 1114.82,-90.55"/>
</g>
<!-- Node10 -->
<g id="node10" class="node">
<title>Node10</title>
<g id="a_node10"><a xlink:title=" ">
<polygon fill="white" stroke="#bfbfbf" points="1239.78,-62 1239.78,-81 1369.78,-81 1369.78,-62 1239.78,-62"/>
<text text-anchor="middle" x="1304.78" y="-69" font-family="Helvetica,sans-Serif" font-size="10.00">vsomeip/constants.hpp</text>
</a>
</g>
</g>
<!-- Node2&#45;&gt;Node10 -->
<g id="edge9" class="edge">
<title>Node2&#45;&gt;Node10</title>
<path fill="none" stroke="midnightblue" d="M919.32,-135.16C991.67,-124.95 1120.79,-106.14 1230.78,-87 1237.96,-85.75 1245.52,-84.36 1252.95,-82.94"/>
<polygon fill="midnightblue" stroke="midnightblue" points="1253.8,-86.35 1262.96,-81.02 1252.48,-79.47 1253.8,-86.35"/>
</g>
<!-- Node11 -->
<g id="node11" class="node">
<title>Node11</title>
<g id="a_node11"><a xlink:title=" ">
<polygon fill="white" stroke="#bfbfbf" points="294.28,-62 294.28,-81 453.28,-81 453.28,-62 294.28,-62"/>
<text text-anchor="middle" x="373.78" y="-69" font-family="Helvetica,sans-Serif" font-size="10.00">vsomeip/primitive_types.hpp</text>
</a>
</g>
</g>
<!-- Node2&#45;&gt;Node11 -->
<g id="edge10" class="edge">
<title>Node2&#45;&gt;Node11</title>
<path fill="none" stroke="midnightblue" d="M806.08,-135.47C728.51,-125.07 584.97,-105.51 462.78,-87 453.8,-85.64 444.32,-84.15 435.02,-82.66"/>
<polygon fill="midnightblue" stroke="midnightblue" points="435.48,-79.19 425.05,-81.05 434.36,-86.1 435.48,-79.19"/>
</g>
<!-- Node12 -->
<g id="node12" class="node">
<title>Node12</title>
<g id="a_node12"><a xlink:href="logger_8hpp.html" target="_top" xlink:title=" ">
<polygon fill="white" stroke="black" points="1426.28,-62 1426.28,-81 1579.28,-81 1579.28,-62 1426.28,-62"/>
<text text-anchor="middle" x="1502.78" y="-69" font-family="Helvetica,sans-Serif" font-size="10.00">vsomeip/internal/logger.hpp</text>
</a>
</g>
</g>
<!-- Node2&#45;&gt;Node12 -->
<g id="edge11" class="edge">
<title>Node2&#45;&gt;Node12</title>
<path fill="none" stroke="midnightblue" d="M919.3,-137.02C1014.25,-126.94 1211.78,-105.83 1378.78,-87 1392.3,-85.48 1406.64,-83.83 1420.59,-82.21"/>
<polygon fill="midnightblue" stroke="midnightblue" points="1421.14,-85.67 1430.66,-81.04 1420.33,-78.72 1421.14,-85.67"/>
</g>
<!-- Node12&#45;&gt;Node5 -->
<g id="edge14" class="edge">
<title>Node12&#45;&gt;Node5</title>
<path fill="none" stroke="midnightblue" d="M1451.33,-61.97C1438.43,-59.93 1424.61,-57.81 1411.78,-56 1289.88,-38.8 1144.6,-22.05 1079.85,-14.78"/>
<polygon fill="midnightblue" stroke="midnightblue" points="1080.13,-11.29 1069.8,-13.65 1079.35,-18.24 1080.13,-11.29"/>
</g>
<!-- Node13 -->
<g id="node13" class="node">
<title>Node13</title>
<g id="a_node13"><a xlink:title=" ">
<polygon fill="white" stroke="#bfbfbf" points="1527.78,-0.5 1527.78,-19.5 1577.78,-19.5 1577.78,-0.5 1527.78,-0.5"/>
<text text-anchor="middle" x="1552.78" y="-7.5" font-family="Helvetica,sans-Serif" font-size="10.00">chrono</text>
</a>
</g>
</g>
<!-- Node12&#45;&gt;Node13 -->
<g id="edge12" class="edge">
<title>Node12&#45;&gt;Node13</title>
<path fill="none" stroke="midnightblue" d="M1509.94,-61.98C1517.52,-52.96 1529.65,-38.52 1539.07,-27.31"/>
<polygon fill="midnightblue" stroke="midnightblue" points="1541.87,-29.42 1545.63,-19.51 1536.52,-24.91 1541.87,-29.42"/>
</g>
<!-- Node14 -->
<g id="node14" class="node">
<title>Node14</title>
<g id="a_node14"><a xlink:title=" ">
<polygon fill="white" stroke="#bfbfbf" points="1595.78,-0.5 1595.78,-19.5 1645.78,-19.5 1645.78,-0.5 1595.78,-0.5"/>
<text text-anchor="middle" x="1620.78" y="-7.5" font-family="Helvetica,sans-Serif" font-size="10.00">cstdint</text>
</a>
</g>
</g>
<!-- Node12&#45;&gt;Node14 -->
<g id="edge13" class="edge">
<title>Node12&#45;&gt;Node14</title>
<path fill="none" stroke="midnightblue" d="M1519.69,-61.98C1539.31,-52.08 1571.91,-35.64 1594.77,-24.12"/>
<polygon fill="midnightblue" stroke="midnightblue" points="1596.55,-27.14 1603.9,-19.51 1593.4,-20.89 1596.55,-27.14"/>
</g>
<!-- Node15 -->
<g id="node15" class="node">
<title>Node15</title>
<g id="a_node15"><a xlink:title=" ">
<polygon fill="white" stroke="#bfbfbf" points="1664.28,-0.5 1664.28,-19.5 1721.28,-19.5 1721.28,-0.5 1664.28,-0.5"/>
<text text-anchor="middle" x="1692.78" y="-7.5" font-family="Helvetica,sans-Serif" font-size="10.00">ostream</text>
</a>
</g>
</g>
<!-- Node12&#45;&gt;Node15 -->
<g id="edge15" class="edge">
<title>Node12&#45;&gt;Node15</title>
<path fill="none" stroke="midnightblue" d="M1530,-61.98C1563.02,-51.64 1618.82,-34.16 1655.73,-22.6"/>
<polygon fill="midnightblue" stroke="midnightblue" points="1657.11,-25.84 1665.61,-19.51 1655.02,-19.16 1657.11,-25.84"/>
</g>
<!-- Node16 -->
<g id="node16" class="node">
<title>Node16</title>
<g id="a_node16"><a xlink:title=" ">
<polygon fill="white" stroke="#bfbfbf" points="1235.78,-0.5 1235.78,-19.5 1291.78,-19.5 1291.78,-0.5 1235.78,-0.5"/>
<text text-anchor="middle" x="1263.78" y="-7.5" font-family="Helvetica,sans-Serif" font-size="10.00">sstream</text>
</a>
</g>
</g>
<!-- Node12&#45;&gt;Node16 -->
<g id="edge16" class="edge">
<title>Node12&#45;&gt;Node16</title>
<path fill="none" stroke="midnightblue" d="M1468.54,-61.98C1424.38,-50.98 1347.81,-31.92 1301.86,-20.48"/>
<polygon fill="midnightblue" stroke="midnightblue" points="1302.54,-17.04 1291.99,-18.02 1300.84,-23.83 1302.54,-17.04"/>
</g>
<!-- Node17 -->
<g id="node17" class="node">
<title>Node17</title>
<g id="a_node17"><a xlink:title=" ">
<polygon fill="white" stroke="#bfbfbf" points="1310.28,-0.5 1310.28,-19.5 1377.28,-19.5 1377.28,-0.5 1310.28,-0.5"/>
<text text-anchor="middle" x="1343.78" y="-7.5" font-family="Helvetica,sans-Serif" font-size="10.00">streambuf</text>
</a>
</g>
</g>
<!-- Node12&#45;&gt;Node17 -->
<g id="edge17" class="edge">
<title>Node12&#45;&gt;Node17</title>
<path fill="none" stroke="midnightblue" d="M1480,-61.98C1452.72,-51.77 1406.87,-34.61 1375.98,-23.05"/>
<polygon fill="midnightblue" stroke="midnightblue" points="1377.11,-19.74 1366.52,-19.51 1374.66,-26.29 1377.11,-19.74"/>
</g>
<!-- Node18 -->
<g id="node18" class="node">
<title>Node18</title>
<g id="a_node18"><a xlink:title=" ">
<polygon fill="white" stroke="#bfbfbf" points="1395.78,-0.5 1395.78,-19.5 1509.78,-19.5 1509.78,-0.5 1395.78,-0.5"/>
<text text-anchor="middle" x="1452.78" y="-7.5" font-family="Helvetica,sans-Serif" font-size="10.00">vsomeip/export.hpp</text>
</a>
</g>
</g>
<!-- Node12&#45;&gt;Node18 -->
<g id="edge18" class="edge">
<title>Node12&#45;&gt;Node18</title>
<path fill="none" stroke="midnightblue" d="M1495.62,-61.98C1488.04,-52.96 1475.91,-38.52 1466.49,-27.31"/>
<polygon fill="midnightblue" stroke="midnightblue" points="1469.04,-24.91 1459.93,-19.51 1463.68,-29.42 1469.04,-24.91"/>
</g>
<!-- Node19&#45;&gt;Node2 -->
<g id="edge26" class="edge">
<title>Node19&#45;&gt;Node2</title>
<path fill="none" stroke="midnightblue" d="M412.86,-205.88C513.84,-192.22 697.51,-167.36 796.05,-154.03"/>
<polygon fill="midnightblue" stroke="midnightblue" points="796.75,-157.47 806.19,-152.66 795.81,-150.53 796.75,-157.47"/>
</g>
<!-- Node19&#45;&gt;Node5 -->
<g id="edge21" class="edge">
<title>Node19&#45;&gt;Node5</title>
<path fill="none" stroke="midnightblue" d="M270.61,-210.76C195.75,-204.47 84.24,-190.99 50.78,-165 10.6,-133.79 -19.41,-92.75 15.78,-56 50.97,-19.23 836.96,-12.28 1011.6,-11.18"/>
<polygon fill="midnightblue" stroke="midnightblue" points="1011.78,-14.68 1021.76,-11.12 1011.74,-7.68 1011.78,-14.68"/>
</g>
<!-- Node19&#45;&gt;Node11 -->
<g id="edge22" class="edge">
<title>Node19&#45;&gt;Node11</title>
<path fill="none" stroke="midnightblue" d="M376.47,-201.34C391.74,-193.15 408.15,-181.21 416.78,-165 425.55,-148.52 423.23,-140.52 416.78,-123 411.81,-109.49 401.44,-97.14 392.13,-88.03"/>
<polygon fill="midnightblue" stroke="midnightblue" points="394.43,-85.38 384.7,-81.18 389.68,-90.53 394.43,-85.38"/>
</g>
<!-- Node20 -->
<g id="node20" class="node">
<title>Node20</title>
<g id="a_node20"><a xlink:title=" ">
<polygon fill="white" stroke="#bfbfbf" points="218.78,-62 218.78,-81 276.78,-81 276.78,-62 218.78,-62"/>
<text text-anchor="middle" x="247.78" y="-69" font-family="Helvetica,sans-Serif" font-size="10.00">memory</text>
</a>
</g>
</g>
<!-- Node19&#45;&gt;Node20 -->
<g id="edge20" class="edge">
<title>Node19&#45;&gt;Node20</title>
<path fill="none" stroke="midnightblue" d="M310.03,-201.34C294.69,-192.92 277.35,-180.78 266.78,-165 251.9,-142.8 248.27,-111.37 247.59,-91.46"/>
<polygon fill="midnightblue" stroke="midnightblue" points="251.09,-91.19 247.47,-81.23 244.09,-91.27 251.09,-91.19"/>
</g>
<!-- Node21 -->
<g id="node21" class="node">
<title>Node21</title>
<g id="a_node21"><a xlink:href="policy__manager_8hpp.html" target="_top" xlink:title=" ">
<polygon fill="white" stroke="black" points="276.28,-129 276.28,-159 407.28,-159 407.28,-129 276.28,-129"/>
<text text-anchor="start" x="284.28" y="-147" font-family="Helvetica,sans-Serif" font-size="10.00">vsomeip/internal/policy</text>
<text text-anchor="middle" x="341.78" y="-136" font-family="Helvetica,sans-Serif" font-size="10.00">_manager.hpp</text>
</a>
</g>
</g>
<!-- Node19&#45;&gt;Node21 -->
<g id="edge23" class="edge">
<title>Node19&#45;&gt;Node21</title>
<path fill="none" stroke="midnightblue" d="M341.78,-201.23C341.78,-192.16 341.78,-180.16 341.78,-169.58"/>
<polygon fill="midnightblue" stroke="midnightblue" points="345.28,-169.25 341.78,-159.25 338.28,-169.25 345.28,-169.25"/>
</g>
<!-- Node22 -->
<g id="node22" class="node">
<title>Node22</title>
<g id="a_node22"><a xlink:href="configuration__element_8hpp.html" target="_top" xlink:title=" ">
<polygon fill="white" stroke="black" points="59.78,-123.5 59.78,-164.5 181.78,-164.5 181.78,-123.5 59.78,-123.5"/>
<text text-anchor="start" x="67.78" y="-152.5" font-family="Helvetica,sans-Serif" font-size="10.00">../../configuration</text>
<text text-anchor="start" x="67.78" y="-141.5" font-family="Helvetica,sans-Serif" font-size="10.00">/include/configuration</text>
<text text-anchor="middle" x="120.78" y="-130.5" font-family="Helvetica,sans-Serif" font-size="10.00">_element.hpp</text>
</a>
</g>
</g>
<!-- Node19&#45;&gt;Node22 -->
<g id="edge27" class="edge">
<title>Node19&#45;&gt;Node22</title>
<path fill="none" stroke="midnightblue" d="M297.85,-201.49C267.59,-191.83 226.71,-178.79 191.85,-167.67"/>
<polygon fill="midnightblue" stroke="midnightblue" points="192.79,-164.3 182.19,-164.59 190.66,-170.97 192.79,-164.3"/>
</g>
<!-- Node21&#45;&gt;Node11 -->
<g id="edge25" class="edge">
<title>Node21&#45;&gt;Node11</title>
<path fill="none" stroke="midnightblue" d="M348.25,-128.73C353.23,-117.78 360.13,-102.57 365.5,-90.74"/>
<polygon fill="midnightblue" stroke="midnightblue" points="368.8,-91.95 369.74,-81.39 362.42,-89.05 368.8,-91.95"/>
</g>
<!-- Node21&#45;&gt;Node20 -->
<g id="edge24" class="edge">
<title>Node21&#45;&gt;Node20</title>
<path fill="none" stroke="midnightblue" d="M322.76,-128.73C306.73,-116.72 283.89,-99.58 267.63,-87.39"/>
<polygon fill="midnightblue" stroke="midnightblue" points="269.47,-84.39 259.37,-81.19 265.27,-89.99 269.47,-84.39"/>
</g>
<!-- Node23 -->
<g id="node23" class="node">
<title>Node23</title>
<g id="a_node23"><a xlink:title=" ">
<polygon fill="white" stroke="#bfbfbf" points="24.78,-62 24.78,-81 68.78,-81 68.78,-62 24.78,-62"/>
<text text-anchor="middle" x="46.78" y="-69" font-family="Helvetica,sans-Serif" font-size="10.00">string</text>
</a>
</g>
</g>
<!-- Node22&#45;&gt;Node23 -->
<g id="edge28" class="edge">
<title>Node22&#45;&gt;Node23</title>
<path fill="none" stroke="midnightblue" d="M100.17,-123.36C88.58,-112.32 74.31,-98.72 63.43,-88.37"/>
<polygon fill="midnightblue" stroke="midnightblue" points="65.54,-85.54 55.88,-81.17 60.71,-90.61 65.54,-85.54"/>
</g>
<!-- Node24 -->
<g id="node24" class="node">
<title>Node24</title>
<g id="a_node24"><a xlink:title=" ">
<polygon fill="white" stroke="#bfbfbf" points="87.28,-56.5 87.28,-86.5 200.28,-86.5 200.28,-56.5 87.28,-56.5"/>
<text text-anchor="start" x="95.28" y="-74.5" font-family="Helvetica,sans-Serif" font-size="10.00">boost/property_tree</text>
<text text-anchor="middle" x="143.78" y="-63.5" font-family="Helvetica,sans-Serif" font-size="10.00">/ptree.hpp</text>
</a>
</g>
</g>
<!-- Node22&#45;&gt;Node24 -->
<g id="edge29" class="edge">
<title>Node22&#45;&gt;Node24</title>
<path fill="none" stroke="midnightblue" d="M127.19,-123.36C129.9,-115.05 133.09,-105.28 135.94,-96.53"/>
<polygon fill="midnightblue" stroke="midnightblue" points="139.31,-97.48 139.08,-86.89 132.65,-95.31 139.31,-97.48"/>
</g>
<!-- Node25&#45;&gt;Node2 -->
<g id="edge35" class="edge">
<title>Node25&#45;&gt;Node2</title>
<path fill="none" stroke="midnightblue" d="M773.17,-201.4C792.79,-189.05 821.14,-171.21 840.68,-158.91"/>
<polygon fill="midnightblue" stroke="midnightblue" points="842.62,-161.82 849.22,-153.53 838.89,-155.9 842.62,-161.82"/>
</g>
<!-- Node25&#45;&gt;Node4 -->
<g id="edge31" class="edge">
<title>Node25&#45;&gt;Node4</title>
<path fill="none" stroke="midnightblue" d="M755.76,-201.27C764.87,-175.21 784.22,-119.86 794.33,-90.95"/>
<polygon fill="midnightblue" stroke="midnightblue" points="797.71,-91.88 797.71,-81.28 791.1,-89.57 797.71,-91.88"/>
</g>
<!-- Node25&#45;&gt;Node5 -->
<g id="edge32" class="edge">
<title>Node25&#45;&gt;Node5</title>
<path fill="none" stroke="midnightblue" d="M802.49,-213.02C939.41,-205.25 1305.86,-176.34 1378.78,-87 1387.49,-76.33 1387.85,-66.37 1378.78,-56 1359.28,-33.69 1161.07,-18.45 1080.03,-13.11"/>
<polygon fill="midnightblue" stroke="midnightblue" points="1080.05,-9.61 1069.85,-12.45 1079.6,-16.59 1080.05,-9.61"/>
</g>
<!-- Node25&#45;&gt;Node7 -->
<g id="edge33" class="edge">
<title>Node25&#45;&gt;Node7</title>
<path fill="none" stroke="midnightblue" d="M749.68,-201.27C747.69,-175.32 743.46,-120.35 741.23,-91.34"/>
<polygon fill="midnightblue" stroke="midnightblue" points="744.71,-90.99 740.45,-81.28 737.73,-91.52 744.71,-90.99"/>
</g>
<!-- Node25&#45;&gt;Node24 -->
<g id="edge34" class="edge">
<title>Node25&#45;&gt;Node24</title>
<path fill="none" stroke="midnightblue" d="M699.08,-213.59C590.96,-209.03 344.53,-195.55 266.78,-165 226.29,-149.09 187.56,-116.01 164.72,-94.03"/>
<polygon fill="midnightblue" stroke="midnightblue" points="166.91,-91.27 157.32,-86.76 162,-96.27 166.91,-91.27"/>
</g>
<!-- Node26 -->
<g id="node26" class="node">
<title>Node26</title>
<g id="a_node26"><a xlink:href="security_8hpp.html" target="_top" xlink:title=" ">
<polygon fill="white" stroke="black" points="471.78,-134.5 471.78,-153.5 593.78,-153.5 593.78,-134.5 471.78,-134.5"/>
<text text-anchor="middle" x="532.78" y="-141.5" font-family="Helvetica,sans-Serif" font-size="10.00">../include/security.hpp</text>
</a>
</g>
</g>
<!-- Node25&#45;&gt;Node26 -->
<g id="edge36" class="edge">
<title>Node25&#45;&gt;Node26</title>
<path fill="none" stroke="midnightblue" d="M707.45,-201.49C666.87,-188.36 606.93,-168.98 568.88,-156.67"/>
<polygon fill="midnightblue" stroke="midnightblue" points="569.82,-153.3 559.23,-153.55 567.67,-159.96 569.82,-153.3"/>
</g>
<!-- Node26&#45;&gt;Node11 -->
<g id="edge40" class="edge">
<title>Node26&#45;&gt;Node11</title>
<path fill="none" stroke="midnightblue" d="M513.6,-134.5C485.9,-122.22 434.52,-99.43 402.35,-85.17"/>
<polygon fill="midnightblue" stroke="midnightblue" points="403.59,-81.89 393.03,-81.03 400.75,-88.29 403.59,-81.89"/>
</g>
<!-- Node26&#45;&gt;Node20 -->
<g id="edge37" class="edge">
<title>Node26&#45;&gt;Node20</title>
<path fill="none" stroke="midnightblue" d="M485.83,-134.41C435.76,-124.78 354.38,-107.75 285.78,-87 283.21,-86.22 280.56,-85.35 277.92,-84.44"/>
<polygon fill="midnightblue" stroke="midnightblue" points="279.1,-81.15 268.5,-81.02 276.7,-87.72 279.1,-81.15"/>
</g>
<!-- Node27 -->
<g id="node27" class="node">
<title>Node27</title>
<g id="a_node27"><a xlink:title=" ">
<polygon fill="white" stroke="#bfbfbf" points="611.78,-62 611.78,-81 697.78,-81 697.78,-62 611.78,-62"/>
<text text-anchor="middle" x="654.78" y="-69" font-family="Helvetica,sans-Serif" font-size="10.00">unordered_set</text>
</a>
</g>
</g>
<!-- Node26&#45;&gt;Node27 -->
<g id="edge38" class="edge">
<title>Node26&#45;&gt;Node27</title>
<path fill="none" stroke="midnightblue" d="M547.74,-134.36C568.5,-122.36 606.28,-100.53 630.95,-86.27"/>
<polygon fill="midnightblue" stroke="midnightblue" points="632.79,-89.25 639.7,-81.22 629.29,-83.19 632.79,-89.25"/>
</g>
<!-- Node28 -->
<g id="node28" class="node">
<title>Node28</title>
<g id="a_node28"><a xlink:title=" ">
<polygon fill="white" stroke="#bfbfbf" points="471.78,-62 471.78,-81 593.78,-81 593.78,-62 471.78,-62"/>
<text text-anchor="middle" x="532.78" y="-69" font-family="Helvetica,sans-Serif" font-size="10.00">vsomeip/payload.hpp</text>
</a>
</g>
</g>
<!-- Node26&#45;&gt;Node28 -->
<g id="edge39" class="edge">
<title>Node26&#45;&gt;Node28</title>
<path fill="none" stroke="midnightblue" d="M532.78,-134.36C532.78,-123.68 532.78,-105.22 532.78,-91.23"/>
<polygon fill="midnightblue" stroke="midnightblue" points="536.28,-91.22 532.78,-81.22 529.28,-91.22 536.28,-91.22"/>
</g>
</g>
</svg>
