<?xml version="1.0" encoding="UTF-8" standalone="no"?>
<!DOCTYPE svg PUBLIC "-//W3C//DTD SVG 1.1//EN"
 "http://www.w3.org/Graphics/SVG/1.1/DTD/svg11.dtd">
<!-- Generated by graphviz version 2.43.0 (0)
 -->
<!-- Title: /home/kali/projects/vsomeip/interface/vsomeip/internal/policy_manager.hpp Pages: 1 -->
<svg width="421pt" height="228pt"
 viewBox="0.00 0.00 420.50 228.00" xmlns="http://www.w3.org/2000/svg" xmlns:xlink="http://www.w3.org/1999/xlink">
<g id="graph0" class="graph" transform="scale(1 1) rotate(0) translate(4 224)">
<title>/home/kali/projects/vsomeip/interface/vsomeip/internal/policy_manager.hpp</title>
<polygon fill="white" stroke="transparent" points="-4,4 -4,-224 416.5,-224 416.5,4 -4,4"/>
<!-- Node1 -->
<g id="node1" class="node">
<title>Node1</title>
<g id="a_node1"><a xlink:title=" ">
<polygon fill="#bfbfbf" stroke="black" points="181,-178.5 181,-219.5 339,-219.5 339,-178.5 181,-178.5"/>
<text text-anchor="start" x="189" y="-207.5" font-family="Helvetica,sans-Serif" font-size="10.00">/home/kali/projects</text>
<text text-anchor="start" x="189" y="-196.5" font-family="Helvetica,sans-Serif" font-size="10.00">/vsomeip/interface/vsomeip</text>
<text text-anchor="middle" x="260" y="-185.5" font-family="Helvetica,sans-Serif" font-size="10.00">/internal/policy_manager.hpp</text>
</a>
</g>
</g>
<!-- Node2 -->
<g id="node2" class="node">
<title>Node2</title>
<g id="a_node2"><a xlink:href="policy__manager__impl_8hpp.html" target="_top" xlink:title=" ">
<polygon fill="white" stroke="black" points="108.5,-89.5 108.5,-141.5 251.5,-141.5 251.5,-89.5 108.5,-89.5"/>
<text text-anchor="start" x="116.5" y="-129.5" font-family="Helvetica,sans-Serif" font-size="10.00">/home/kali/projects</text>
<text text-anchor="start" x="116.5" y="-118.5" font-family="Helvetica,sans-Serif" font-size="10.00">/vsomeip/implementation</text>
<text text-anchor="start" x="116.5" y="-107.5" font-family="Helvetica,sans-Serif" font-size="10.00">/security/include/policy</text>
<text text-anchor="middle" x="180" y="-96.5" font-family="Helvetica,sans-Serif" font-size="10.00">_manager_impl.hpp</text>
</a>
</g>
</g>
<!-- Node1&#45;&gt;Node2 -->
<g id="edge1" class="edge">
<title>Node1&#45;&gt;Node2</title>
<path fill="none" stroke="midnightblue" d="M233.46,-170.96C224.17,-161.5 213.78,-150.91 204.65,-141.61"/>
<polygon fill="midnightblue" stroke="midnightblue" points="231.13,-173.59 240.63,-178.27 236.13,-168.68 231.13,-173.59"/>
</g>
<!-- Node5 -->
<g id="node5" class="node">
<title>Node5</title>
<g id="a_node5"><a xlink:href="security__impl_8cpp.html" target="_top" xlink:title=" ">
<polygon fill="white" stroke="black" points="269.5,-89.5 269.5,-141.5 412.5,-141.5 412.5,-89.5 269.5,-89.5"/>
<text text-anchor="start" x="277.5" y="-129.5" font-family="Helvetica,sans-Serif" font-size="10.00">/home/kali/projects</text>
<text text-anchor="start" x="277.5" y="-118.5" font-family="Helvetica,sans-Serif" font-size="10.00">/vsomeip/implementation</text>
<text text-anchor="start" x="277.5" y="-107.5" font-family="Helvetica,sans-Serif" font-size="10.00">/security/src/security</text>
<text text-anchor="middle" x="341" y="-96.5" font-family="Helvetica,sans-Serif" font-size="10.00">_impl.cpp</text>
</a>
</g>
</g>
<!-- Node1&#45;&gt;Node5 -->
<g id="edge4" class="edge">
<title>Node1&#45;&gt;Node5</title>
<path fill="none" stroke="midnightblue" d="M286.87,-170.96C296.28,-161.5 306.8,-150.91 316.05,-141.61"/>
<polygon fill="midnightblue" stroke="midnightblue" points="284.17,-168.71 279.61,-178.27 289.14,-173.65 284.17,-168.71"/>
</g>
<!-- Node3 -->
<g id="node3" class="node">
<title>Node3</title>
<g id="a_node3"><a xlink:href="policy__manager_8cpp.html" target="_top" xlink:title=" ">
<polygon fill="white" stroke="black" points="0,-6 0,-47 176,-47 176,-6 0,-6"/>
<text text-anchor="start" x="8" y="-35" font-family="Helvetica,sans-Serif" font-size="10.00">/home/kali/projects</text>
<text text-anchor="start" x="8" y="-24" font-family="Helvetica,sans-Serif" font-size="10.00">/vsomeip/implementation</text>
<text text-anchor="middle" x="88" y="-13" font-family="Helvetica,sans-Serif" font-size="10.00">/security/src/policy_manager.cpp</text>
</a>
</g>
</g>
<!-- Node2&#45;&gt;Node3 -->
<g id="edge2" class="edge">
<title>Node2&#45;&gt;Node3</title>
<path fill="none" stroke="midnightblue" d="M145.82,-82.18C133.36,-70.39 119.65,-57.43 108.71,-47.08"/>
<polygon fill="midnightblue" stroke="midnightblue" points="143.72,-85.01 153.39,-89.34 148.53,-79.92 143.72,-85.01"/>
</g>
<!-- Node4 -->
<g id="node4" class="node">
<title>Node4</title>
<g id="a_node4"><a xlink:href="policy__manager__impl_8cpp.html" target="_top" xlink:title=" ">
<polygon fill="white" stroke="black" points="194.5,-0.5 194.5,-52.5 351.5,-52.5 351.5,-0.5 194.5,-0.5"/>
<text text-anchor="start" x="202.5" y="-40.5" font-family="Helvetica,sans-Serif" font-size="10.00">/home/kali/projects</text>
<text text-anchor="start" x="202.5" y="-29.5" font-family="Helvetica,sans-Serif" font-size="10.00">/vsomeip/implementation</text>
<text text-anchor="start" x="202.5" y="-18.5" font-family="Helvetica,sans-Serif" font-size="10.00">/security/src/policy_manager</text>
<text text-anchor="middle" x="273" y="-7.5" font-family="Helvetica,sans-Serif" font-size="10.00">_impl.cpp</text>
</a>
</g>
</g>
<!-- Node2&#45;&gt;Node4 -->
<g id="edge3" class="edge">
<title>Node2&#45;&gt;Node4</title>
<path fill="none" stroke="midnightblue" d="M214.35,-82.36C224.85,-72.54 236.24,-61.89 246.16,-52.61"/>
<polygon fill="midnightblue" stroke="midnightblue" points="211.81,-79.95 206.9,-89.34 216.59,-85.06 211.81,-79.95"/>
</g>
</g>
</svg>
