<?xml version="1.0" encoding="UTF-8" standalone="no"?>
<!DOCTYPE svg PUBLIC "-//W3C//DTD SVG 1.1//EN"
 "http://www.w3.org/Graphics/SVG/1.1/DTD/svg11.dtd">
<!-- Generated by graphviz version 2.43.0 (0)
 -->
<!-- Title: /home/kali/projects/vsomeip/implementation/security/src/policy_manager.cpp Pages: 1 -->
<svg width="1317pt" height="318pt"
 viewBox="0.00 0.00 1316.50 318.00" xmlns="http://www.w3.org/2000/svg" xmlns:xlink="http://www.w3.org/1999/xlink">
<g id="graph0" class="graph" transform="scale(1 1) rotate(0) translate(4 314)">
<title>/home/kali/projects/vsomeip/implementation/security/src/policy_manager.cpp</title>
<polygon fill="white" stroke="transparent" points="-4,4 -4,-314 1312.5,-314 1312.5,4 -4,4"/>
<!-- Node1 -->
<g id="node1" class="node">
<title>Node1</title>
<g id="a_node1"><a xlink:title=" ">
<polygon fill="#bfbfbf" stroke="black" points="155,-268.5 155,-309.5 331,-309.5 331,-268.5 155,-268.5"/>
<text text-anchor="start" x="163" y="-297.5" font-family="Helvetica,sans-Serif" font-size="10.00">/home/kali/projects</text>
<text text-anchor="start" x="163" y="-286.5" font-family="Helvetica,sans-Serif" font-size="10.00">/vsomeip/implementation</text>
<text text-anchor="middle" x="243" y="-275.5" font-family="Helvetica,sans-Serif" font-size="10.00">/security/src/policy_manager.cpp</text>
</a>
</g>
</g>
<!-- Node2 -->
<g id="node2" class="node">
<title>Node2</title>
<g id="a_node2"><a xlink:href="policy__manager__impl_8hpp.html" target="_top" xlink:title=" ">
<polygon fill="white" stroke="black" points="172,-201.5 172,-231.5 314,-231.5 314,-201.5 172,-201.5"/>
<text text-anchor="start" x="180" y="-219.5" font-family="Helvetica,sans-Serif" font-size="10.00">../include/policy_manager</text>
<text text-anchor="middle" x="243" y="-208.5" font-family="Helvetica,sans-Serif" font-size="10.00">_impl.hpp</text>
</a>
</g>
</g>
<!-- Node1&#45;&gt;Node2 -->
<g id="edge1" class="edge">
<title>Node1&#45;&gt;Node2</title>
<path fill="none" stroke="midnightblue" d="M243,-268.36C243,-260.23 243,-250.7 243,-242.11"/>
<polygon fill="midnightblue" stroke="midnightblue" points="246.5,-241.89 243,-231.89 239.5,-241.89 246.5,-241.89"/>
</g>
<!-- Node3 -->
<g id="node3" class="node">
<title>Node3</title>
<g id="a_node3"><a xlink:title=" ">
<polygon fill="white" stroke="#bfbfbf" points="0,-62 0,-81 58,-81 58,-62 0,-62"/>
<text text-anchor="middle" x="29" y="-69" font-family="Helvetica,sans-Serif" font-size="10.00">memory</text>
</a>
</g>
</g>
<!-- Node2&#45;&gt;Node3 -->
<g id="edge2" class="edge">
<title>Node2&#45;&gt;Node3</title>
<path fill="none" stroke="midnightblue" d="M171.61,-213C132.4,-207.94 85.65,-195.29 55,-165 35.18,-145.41 30.16,-111.99 29.06,-91.14"/>
<polygon fill="midnightblue" stroke="midnightblue" points="32.55,-90.92 28.78,-81.02 25.56,-91.11 32.55,-90.92"/>
</g>
<!-- Node4 -->
<g id="node4" class="node">
<title>Node4</title>
<g id="a_node4"><a xlink:title=" ">
<polygon fill="white" stroke="#bfbfbf" points="547,-0.5 547,-19.5 595,-19.5 595,-0.5 547,-0.5"/>
<text text-anchor="middle" x="571" y="-7.5" font-family="Helvetica,sans-Serif" font-size="10.00">mutex</text>
</a>
</g>
</g>
<!-- Node2&#45;&gt;Node4 -->
<g id="edge3" class="edge">
<title>Node2&#45;&gt;Node4</title>
<path fill="none" stroke="midnightblue" d="M241.65,-201.49C239.5,-170.25 239.17,-94.62 281,-56 317.6,-22.21 467.48,-13.79 536.24,-11.69"/>
<polygon fill="midnightblue" stroke="midnightblue" points="536.65,-15.18 546.55,-11.41 536.45,-8.18 536.65,-15.18"/>
</g>
<!-- Node5 -->
<g id="node5" class="node">
<title>Node5</title>
<g id="a_node5"><a xlink:title=" ">
<polygon fill="white" stroke="#bfbfbf" points="75.5,-62 75.5,-81 234.5,-81 234.5,-62 75.5,-62"/>
<text text-anchor="middle" x="155" y="-69" font-family="Helvetica,sans-Serif" font-size="10.00">vsomeip/primitive_types.hpp</text>
</a>
</g>
</g>
<!-- Node2&#45;&gt;Node5 -->
<g id="edge4" class="edge">
<title>Node2&#45;&gt;Node5</title>
<path fill="none" stroke="midnightblue" d="M238.81,-201.22C232.88,-182.32 220.83,-148.43 204,-123 195.38,-109.98 183.15,-97.37 173.07,-88.01"/>
<polygon fill="midnightblue" stroke="midnightblue" points="175.33,-85.33 165.55,-81.25 170.65,-90.54 175.33,-85.33"/>
</g>
<!-- Node6 -->
<g id="node6" class="node">
<title>Node6</title>
<g id="a_node6"><a xlink:href="policy__manager_8hpp.html" target="_top" xlink:title=" ">
<polygon fill="white" stroke="black" points="64.5,-129 64.5,-159 195.5,-159 195.5,-129 64.5,-129"/>
<text text-anchor="start" x="72.5" y="-147" font-family="Helvetica,sans-Serif" font-size="10.00">vsomeip/internal/policy</text>
<text text-anchor="middle" x="130" y="-136" font-family="Helvetica,sans-Serif" font-size="10.00">_manager.hpp</text>
</a>
</g>
</g>
<!-- Node2&#45;&gt;Node6 -->
<g id="edge5" class="edge">
<title>Node2&#45;&gt;Node6</title>
<path fill="none" stroke="midnightblue" d="M220.4,-201.4C203.39,-190.79 179.87,-176.11 161.08,-164.39"/>
<polygon fill="midnightblue" stroke="midnightblue" points="162.89,-161.4 152.56,-159.07 159.19,-167.34 162.89,-161.4"/>
</g>
<!-- Node7 -->
<g id="node7" class="node">
<title>Node7</title>
<g id="a_node7"><a xlink:href="policy_8hpp.html" target="_top" xlink:title=" ">
<polygon fill="white" stroke="black" points="623.5,-134.5 623.5,-153.5 736.5,-153.5 736.5,-134.5 623.5,-134.5"/>
<text text-anchor="middle" x="680" y="-141.5" font-family="Helvetica,sans-Serif" font-size="10.00">../include/policy.hpp</text>
</a>
</g>
</g>
<!-- Node2&#45;&gt;Node7 -->
<g id="edge8" class="edge">
<title>Node2&#45;&gt;Node7</title>
<path fill="none" stroke="midnightblue" d="M314.18,-204.02C398.26,-190.45 536.81,-168.1 617.1,-155.15"/>
<polygon fill="midnightblue" stroke="midnightblue" points="617.76,-158.59 627.07,-153.54 616.64,-151.68 617.76,-158.59"/>
</g>
<!-- Node22 -->
<g id="node22" class="node">
<title>Node22</title>
<g id="a_node22"><a xlink:href="configuration__element_8hpp.html" target="_top" xlink:title=" ">
<polygon fill="white" stroke="black" points="1094,-123.5 1094,-164.5 1216,-164.5 1216,-123.5 1094,-123.5"/>
<text text-anchor="start" x="1102" y="-152.5" font-family="Helvetica,sans-Serif" font-size="10.00">../../configuration</text>
<text text-anchor="start" x="1102" y="-141.5" font-family="Helvetica,sans-Serif" font-size="10.00">/include/configuration</text>
<text text-anchor="middle" x="1155" y="-130.5" font-family="Helvetica,sans-Serif" font-size="10.00">_element.hpp</text>
</a>
</g>
</g>
<!-- Node2&#45;&gt;Node22 -->
<g id="edge26" class="edge">
<title>Node2&#45;&gt;Node22</title>
<path fill="none" stroke="midnightblue" d="M314.18,-210C484.37,-196.84 913.27,-163.69 1083.64,-150.52"/>
<polygon fill="midnightblue" stroke="midnightblue" points="1084.05,-154 1093.75,-149.73 1083.51,-147.02 1084.05,-154"/>
</g>
<!-- Node6&#45;&gt;Node3 -->
<g id="edge6" class="edge">
<title>Node6&#45;&gt;Node3</title>
<path fill="none" stroke="midnightblue" d="M109.56,-128.73C92.18,-116.6 67.34,-99.26 49.85,-87.05"/>
<polygon fill="midnightblue" stroke="midnightblue" points="51.65,-84.04 41.45,-81.19 47.65,-89.78 51.65,-84.04"/>
</g>
<!-- Node6&#45;&gt;Node5 -->
<g id="edge7" class="edge">
<title>Node6&#45;&gt;Node5</title>
<path fill="none" stroke="midnightblue" d="M135.06,-128.73C138.9,-117.89 144.23,-102.88 148.41,-91.1"/>
<polygon fill="midnightblue" stroke="midnightblue" points="151.8,-91.99 151.85,-81.39 145.21,-89.65 151.8,-91.99"/>
</g>
<!-- Node7&#45;&gt;Node4 -->
<g id="edge11" class="edge">
<title>Node7&#45;&gt;Node4</title>
<path fill="none" stroke="midnightblue" d="M680.44,-134.33C680.83,-117.43 679.41,-79.67 661,-56 653.21,-45.99 625.29,-32.85 602.58,-23.36"/>
<polygon fill="midnightblue" stroke="midnightblue" points="603.83,-20.08 593.25,-19.53 601.18,-26.56 603.83,-20.08"/>
</g>
<!-- Node7&#45;&gt;Node5 -->
<g id="edge17" class="edge">
<title>Node7&#45;&gt;Node5</title>
<path fill="none" stroke="midnightblue" d="M623.32,-135.39C527.64,-122.54 334.19,-96.56 228.32,-82.35"/>
<polygon fill="midnightblue" stroke="midnightblue" points="228.73,-78.87 218.36,-81.01 227.8,-85.81 228.73,-78.87"/>
</g>
<!-- Node8 -->
<g id="node8" class="node">
<title>Node8</title>
<g id="a_node8"><a xlink:title=" ">
<polygon fill="white" stroke="#bfbfbf" points="880,-62 880,-81 930,-81 930,-62 880,-62"/>
<text text-anchor="middle" x="905" y="-69" font-family="Helvetica,sans-Serif" font-size="10.00">cstring</text>
</a>
</g>
</g>
<!-- Node7&#45;&gt;Node8 -->
<g id="edge9" class="edge">
<title>Node7&#45;&gt;Node8</title>
<path fill="none" stroke="midnightblue" d="M712.95,-134.43C751.11,-124.24 815.69,-106.19 870,-87 871.86,-86.34 873.77,-85.64 875.68,-84.91"/>
<polygon fill="midnightblue" stroke="midnightblue" points="877.15,-88.09 885.15,-81.15 874.57,-81.59 877.15,-88.09"/>
</g>
<!-- Node9 -->
<g id="node9" class="node">
<title>Node9</title>
<g id="a_node9"><a xlink:title=" ">
<polygon fill="white" stroke="#bfbfbf" points="948,-62 948,-81 986,-81 986,-62 948,-62"/>
<text text-anchor="middle" x="967" y="-69" font-family="Helvetica,sans-Serif" font-size="10.00">map</text>
</a>
</g>
</g>
<!-- Node7&#45;&gt;Node9 -->
<g id="edge10" class="edge">
<title>Node7&#45;&gt;Node9</title>
<path fill="none" stroke="midnightblue" d="M736.52,-135.2C789.81,-126.83 871.36,-111.34 939,-87 940.25,-86.55 941.51,-86.06 942.77,-85.53"/>
<polygon fill="midnightblue" stroke="midnightblue" points="944.66,-88.51 952.22,-81.08 941.68,-82.18 944.66,-88.51"/>
</g>
<!-- Node10 -->
<g id="node10" class="node">
<title>Node10</title>
<g id="a_node10"><a xlink:title=" ">
<polygon fill="white" stroke="#bfbfbf" points="1004.5,-62 1004.5,-81 1049.5,-81 1049.5,-62 1004.5,-62"/>
<text text-anchor="middle" x="1027" y="-69" font-family="Helvetica,sans-Serif" font-size="10.00">utility</text>
</a>
</g>
</g>
<!-- Node7&#45;&gt;Node10 -->
<g id="edge12" class="edge">
<title>Node7&#45;&gt;Node10</title>
<path fill="none" stroke="midnightblue" d="M736.77,-137.23C800.63,-129.75 906.93,-114.31 995,-87 996.88,-86.42 998.79,-85.75 1000.7,-85.03"/>
<polygon fill="midnightblue" stroke="midnightblue" points="1002.16,-88.22 1010.04,-81.13 999.46,-81.76 1002.16,-88.22"/>
</g>
<!-- Node11 -->
<g id="node11" class="node">
<title>Node11</title>
<g id="a_node11"><a xlink:title=" ">
<polygon fill="white" stroke="#bfbfbf" points="1067.5,-62 1067.5,-81 1114.5,-81 1114.5,-62 1067.5,-62"/>
<text text-anchor="middle" x="1091" y="-69" font-family="Helvetica,sans-Serif" font-size="10.00">vector</text>
</a>
</g>
</g>
<!-- Node7&#45;&gt;Node11 -->
<g id="edge13" class="edge">
<title>Node7&#45;&gt;Node11</title>
<path fill="none" stroke="midnightblue" d="M736.72,-139.33C811.54,-133.43 946.76,-119.05 1058,-87 1060.15,-86.38 1062.34,-85.65 1064.52,-84.86"/>
<polygon fill="midnightblue" stroke="midnightblue" points="1065.9,-88.07 1073.85,-81.07 1063.27,-81.59 1065.9,-88.07"/>
</g>
<!-- Node12 -->
<g id="node12" class="node">
<title>Node12</title>
<g id="a_node12"><a xlink:title=" ">
<polygon fill="white" stroke="#bfbfbf" points="290,-56.5 290,-86.5 388,-86.5 388,-56.5 290,-56.5"/>
<text text-anchor="start" x="298" y="-74.5" font-family="Helvetica,sans-Serif" font-size="10.00">boost/icl/interval</text>
<text text-anchor="middle" x="339" y="-63.5" font-family="Helvetica,sans-Serif" font-size="10.00">_map.hpp</text>
</a>
</g>
</g>
<!-- Node7&#45;&gt;Node12 -->
<g id="edge14" class="edge">
<title>Node7&#45;&gt;Node12</title>
<path fill="none" stroke="midnightblue" d="M633.28,-134.49C579.08,-124.46 486.82,-106.87 397.98,-87.16"/>
<polygon fill="midnightblue" stroke="midnightblue" points="398.53,-83.7 388.01,-84.93 397,-90.53 398.53,-83.7"/>
</g>
<!-- Node13 -->
<g id="node13" class="node">
<title>Node13</title>
<g id="a_node13"><a xlink:title=" ">
<polygon fill="white" stroke="#bfbfbf" points="406,-56.5 406,-86.5 504,-86.5 504,-56.5 406,-56.5"/>
<text text-anchor="start" x="414" y="-74.5" font-family="Helvetica,sans-Serif" font-size="10.00">boost/icl/interval</text>
<text text-anchor="middle" x="455" y="-63.5" font-family="Helvetica,sans-Serif" font-size="10.00">_set.hpp</text>
</a>
</g>
</g>
<!-- Node7&#45;&gt;Node13 -->
<g id="edge15" class="edge">
<title>Node7&#45;&gt;Node13</title>
<path fill="none" stroke="midnightblue" d="M652.86,-134.5C617.47,-123.41 554.74,-103.75 509.39,-89.54"/>
<polygon fill="midnightblue" stroke="midnightblue" points="510.29,-86.16 499.7,-86.51 508.2,-92.84 510.29,-86.16"/>
</g>
<!-- Node14 -->
<g id="node14" class="node">
<title>Node14</title>
<g id="a_node14"><a xlink:title=" ">
<polygon fill="white" stroke="#bfbfbf" points="522,-62 522,-81 652,-81 652,-62 522,-62"/>
<text text-anchor="middle" x="587" y="-69" font-family="Helvetica,sans-Serif" font-size="10.00">vsomeip/constants.hpp</text>
</a>
</g>
</g>
<!-- Node7&#45;&gt;Node14 -->
<g id="edge16" class="edge">
<title>Node7&#45;&gt;Node14</title>
<path fill="none" stroke="midnightblue" d="M668.6,-134.36C653.19,-122.67 625.49,-101.67 606.68,-87.42"/>
<polygon fill="midnightblue" stroke="midnightblue" points="608.58,-84.47 598.5,-81.22 604.35,-90.05 608.58,-84.47"/>
</g>
<!-- Node15 -->
<g id="node15" class="node">
<title>Node15</title>
<g id="a_node15"><a xlink:href="logger_8hpp.html" target="_top" xlink:title=" ">
<polygon fill="white" stroke="black" points="708.5,-62 708.5,-81 861.5,-81 861.5,-62 708.5,-62"/>
<text text-anchor="middle" x="785" y="-69" font-family="Helvetica,sans-Serif" font-size="10.00">vsomeip/internal/logger.hpp</text>
</a>
</g>
</g>
<!-- Node7&#45;&gt;Node15 -->
<g id="edge18" class="edge">
<title>Node7&#45;&gt;Node15</title>
<path fill="none" stroke="midnightblue" d="M692.88,-134.36C710.51,-122.52 742.4,-101.1 763.64,-86.84"/>
<polygon fill="midnightblue" stroke="midnightblue" points="765.67,-89.7 772.02,-81.22 761.77,-83.88 765.67,-89.7"/>
</g>
<!-- Node15&#45;&gt;Node4 -->
<g id="edge21" class="edge">
<title>Node15&#45;&gt;Node4</title>
<path fill="none" stroke="midnightblue" d="M754.34,-61.98C714.81,-50.98 646.28,-31.93 605.14,-20.49"/>
<polygon fill="midnightblue" stroke="midnightblue" points="605.87,-17.06 595.3,-17.76 604,-23.81 605.87,-17.06"/>
</g>
<!-- Node16 -->
<g id="node16" class="node">
<title>Node16</title>
<g id="a_node16"><a xlink:title=" ">
<polygon fill="white" stroke="#bfbfbf" points="1049,-0.5 1049,-19.5 1099,-19.5 1099,-0.5 1049,-0.5"/>
<text text-anchor="middle" x="1074" y="-7.5" font-family="Helvetica,sans-Serif" font-size="10.00">chrono</text>
</a>
</g>
</g>
<!-- Node15&#45;&gt;Node16 -->
<g id="edge19" class="edge">
<title>Node15&#45;&gt;Node16</title>
<path fill="none" stroke="midnightblue" d="M832.66,-61.99C881.92,-52.99 961.26,-37.92 1038.85,-20.16"/>
<polygon fill="midnightblue" stroke="midnightblue" points="1039.84,-23.52 1048.79,-17.86 1038.26,-16.7 1039.84,-23.52"/>
</g>
<!-- Node17 -->
<g id="node17" class="node">
<title>Node17</title>
<g id="a_node17"><a xlink:title=" ">
<polygon fill="white" stroke="#bfbfbf" points="613,-0.5 613,-19.5 663,-19.5 663,-0.5 613,-0.5"/>
<text text-anchor="middle" x="638" y="-7.5" font-family="Helvetica,sans-Serif" font-size="10.00">cstdint</text>
</a>
</g>
</g>
<!-- Node15&#45;&gt;Node17 -->
<g id="edge20" class="edge">
<title>Node15&#45;&gt;Node17</title>
<path fill="none" stroke="midnightblue" d="M763.94,-61.98C738.94,-51.86 697.06,-34.9 668.51,-23.35"/>
<polygon fill="midnightblue" stroke="midnightblue" points="669.61,-20.02 659.02,-19.51 666.98,-26.51 669.61,-20.02"/>
</g>
<!-- Node18 -->
<g id="node18" class="node">
<title>Node18</title>
<g id="a_node18"><a xlink:title=" ">
<polygon fill="white" stroke="#bfbfbf" points="681.5,-0.5 681.5,-19.5 738.5,-19.5 738.5,-0.5 681.5,-0.5"/>
<text text-anchor="middle" x="710" y="-7.5" font-family="Helvetica,sans-Serif" font-size="10.00">ostream</text>
</a>
</g>
</g>
<!-- Node15&#45;&gt;Node18 -->
<g id="edge22" class="edge">
<title>Node15&#45;&gt;Node18</title>
<path fill="none" stroke="midnightblue" d="M774.25,-61.98C762.45,-52.61 743.26,-37.38 728.92,-26.01"/>
<polygon fill="midnightblue" stroke="midnightblue" points="730.74,-22.98 720.73,-19.51 726.38,-28.47 730.74,-22.98"/>
</g>
<!-- Node19 -->
<g id="node19" class="node">
<title>Node19</title>
<g id="a_node19"><a xlink:title=" ">
<polygon fill="white" stroke="#bfbfbf" points="757,-0.5 757,-19.5 813,-19.5 813,-0.5 757,-0.5"/>
<text text-anchor="middle" x="785" y="-7.5" font-family="Helvetica,sans-Serif" font-size="10.00">sstream</text>
</a>
</g>
</g>
<!-- Node15&#45;&gt;Node19 -->
<g id="edge23" class="edge">
<title>Node15&#45;&gt;Node19</title>
<path fill="none" stroke="midnightblue" d="M785,-61.98C785,-53.58 785,-40.48 785,-29.66"/>
<polygon fill="midnightblue" stroke="midnightblue" points="788.5,-29.51 785,-19.51 781.5,-29.51 788.5,-29.51"/>
</g>
<!-- Node20 -->
<g id="node20" class="node">
<title>Node20</title>
<g id="a_node20"><a xlink:title=" ">
<polygon fill="white" stroke="#bfbfbf" points="831.5,-0.5 831.5,-19.5 898.5,-19.5 898.5,-0.5 831.5,-0.5"/>
<text text-anchor="middle" x="865" y="-7.5" font-family="Helvetica,sans-Serif" font-size="10.00">streambuf</text>
</a>
</g>
</g>
<!-- Node15&#45;&gt;Node20 -->
<g id="edge24" class="edge">
<title>Node15&#45;&gt;Node20</title>
<path fill="none" stroke="midnightblue" d="M796.46,-61.98C809.17,-52.52 829.91,-37.1 845.25,-25.69"/>
<polygon fill="midnightblue" stroke="midnightblue" points="847.62,-28.29 853.56,-19.51 843.45,-22.67 847.62,-28.29"/>
</g>
<!-- Node21 -->
<g id="node21" class="node">
<title>Node21</title>
<g id="a_node21"><a xlink:title=" ">
<polygon fill="white" stroke="#bfbfbf" points="917,-0.5 917,-19.5 1031,-19.5 1031,-0.5 917,-0.5"/>
<text text-anchor="middle" x="974" y="-7.5" font-family="Helvetica,sans-Serif" font-size="10.00">vsomeip/export.hpp</text>
</a>
</g>
</g>
<!-- Node15&#45;&gt;Node21 -->
<g id="edge25" class="edge">
<title>Node15&#45;&gt;Node21</title>
<path fill="none" stroke="midnightblue" d="M812.08,-61.98C844.92,-51.64 900.43,-34.16 937.15,-22.6"/>
<polygon fill="midnightblue" stroke="midnightblue" points="938.48,-25.85 946.97,-19.51 936.38,-19.17 938.48,-25.85"/>
</g>
<!-- Node23 -->
<g id="node23" class="node">
<title>Node23</title>
<g id="a_node23"><a xlink:title=" ">
<polygon fill="white" stroke="#bfbfbf" points="1133,-62 1133,-81 1177,-81 1177,-62 1133,-62"/>
<text text-anchor="middle" x="1155" y="-69" font-family="Helvetica,sans-Serif" font-size="10.00">string</text>
</a>
</g>
</g>
<!-- Node22&#45;&gt;Node23 -->
<g id="edge27" class="edge">
<title>Node22&#45;&gt;Node23</title>
<path fill="none" stroke="midnightblue" d="M1155,-123.36C1155,-113.3 1155,-101.1 1155,-91.18"/>
<polygon fill="midnightblue" stroke="midnightblue" points="1158.5,-91.17 1155,-81.17 1151.5,-91.17 1158.5,-91.17"/>
</g>
<!-- Node24 -->
<g id="node24" class="node">
<title>Node24</title>
<g id="a_node24"><a xlink:title=" ">
<polygon fill="white" stroke="#bfbfbf" points="1195.5,-56.5 1195.5,-86.5 1308.5,-86.5 1308.5,-56.5 1195.5,-56.5"/>
<text text-anchor="start" x="1203.5" y="-74.5" font-family="Helvetica,sans-Serif" font-size="10.00">boost/property_tree</text>
<text text-anchor="middle" x="1252" y="-63.5" font-family="Helvetica,sans-Serif" font-size="10.00">/ptree.hpp</text>
</a>
</g>
</g>
<!-- Node22&#45;&gt;Node24 -->
<g id="edge28" class="edge">
<title>Node22&#45;&gt;Node24</title>
<path fill="none" stroke="midnightblue" d="M1182.02,-123.36C1195.17,-113.8 1210.96,-102.33 1224.22,-92.69"/>
<polygon fill="midnightblue" stroke="midnightblue" points="1226.47,-95.38 1232.5,-86.67 1222.36,-89.72 1226.47,-95.38"/>
</g>
</g>
</svg>
