<?xml version="1.0" encoding="UTF-8" standalone="no"?>
<!DOCTYPE svg PUBLIC "-//W3C//DTD SVG 1.1//EN"
 "http://www.w3.org/Graphics/SVG/1.1/DTD/svg11.dtd">
<!-- Generated by graphviz version 2.43.0 (0)
 -->
<!-- Title: /home/kali/projects/vsomeip/implementation/security/src/policy.cpp Pages: 1 -->
<svg width="1114pt" height="240pt"
 viewBox="0.00 0.00 1113.92 240.00" xmlns="http://www.w3.org/2000/svg" xmlns:xlink="http://www.w3.org/1999/xlink">
<g id="graph0" class="graph" transform="scale(1 1) rotate(0) translate(4 236)">
<title>/home/kali/projects/vsomeip/implementation/security/src/policy.cpp</title>
<polygon fill="white" stroke="transparent" points="-4,4 -4,-236 1109.92,-236 1109.92,4 -4,4"/>
<!-- Node1 -->
<g id="node1" class="node">
<title>Node1</title>
<g id="a_node1"><a xlink:title=" ">
<polygon fill="#bfbfbf" stroke="black" points="393.5,-190.5 393.5,-231.5 536.5,-231.5 536.5,-190.5 393.5,-190.5"/>
<text text-anchor="start" x="401.5" y="-219.5" font-family="Helvetica,sans-Serif" font-size="10.00">/home/kali/projects</text>
<text text-anchor="start" x="401.5" y="-208.5" font-family="Helvetica,sans-Serif" font-size="10.00">/vsomeip/implementation</text>
<text text-anchor="middle" x="465" y="-197.5" font-family="Helvetica,sans-Serif" font-size="10.00">/security/src/policy.cpp</text>
</a>
</g>
</g>
<!-- Node2 -->
<g id="node2" class="node">
<title>Node2</title>
<g id="a_node2"><a xlink:title=" ">
<polygon fill="white" stroke="#bfbfbf" points="339,-129 339,-148 395,-148 395,-129 339,-129"/>
<text text-anchor="middle" x="367" y="-136" font-family="Helvetica,sans-Serif" font-size="10.00">iomanip</text>
</a>
</g>
</g>
<!-- Node1&#45;&gt;Node2 -->
<g id="edge1" class="edge">
<title>Node1&#45;&gt;Node2</title>
<path fill="none" stroke="midnightblue" d="M437.7,-190.36C421.76,-178.89 401.97,-164.65 387.38,-154.16"/>
<polygon fill="midnightblue" stroke="midnightblue" points="389.22,-151.17 379.06,-148.17 385.13,-156.85 389.22,-151.17"/>
</g>
<!-- Node3 -->
<g id="node3" class="node">
<title>Node3</title>
<g id="a_node3"><a xlink:href="logger_8hpp.html" target="_top" xlink:title=" ">
<polygon fill="white" stroke="black" points="125.5,-62 125.5,-81 278.5,-81 278.5,-62 125.5,-62"/>
<text text-anchor="middle" x="202" y="-69" font-family="Helvetica,sans-Serif" font-size="10.00">vsomeip/internal/logger.hpp</text>
</a>
</g>
</g>
<!-- Node1&#45;&gt;Node3 -->
<g id="edge2" class="edge">
<title>Node1&#45;&gt;Node3</title>
<path fill="none" stroke="midnightblue" d="M456.33,-190.27C446.51,-170.27 428.63,-139.93 404,-123 381.24,-107.36 313.67,-92.39 262.91,-82.87"/>
<polygon fill="midnightblue" stroke="midnightblue" points="263.46,-79.42 252.99,-81.04 262.19,-86.3 263.46,-79.42"/>
</g>
<!-- Node11 -->
<g id="node11" class="node">
<title>Node11</title>
<g id="a_node11"><a xlink:href="policy_8hpp.html" target="_top" xlink:title=" ">
<polygon fill="white" stroke="black" points="451.5,-129 451.5,-148 564.5,-148 564.5,-129 451.5,-129"/>
<text text-anchor="middle" x="508" y="-136" font-family="Helvetica,sans-Serif" font-size="10.00">../include/policy.hpp</text>
</a>
</g>
</g>
<!-- Node1&#45;&gt;Node11 -->
<g id="edge10" class="edge">
<title>Node1&#45;&gt;Node11</title>
<path fill="none" stroke="midnightblue" d="M476.98,-190.36C483.38,-179.86 491.2,-167.05 497.38,-156.91"/>
<polygon fill="midnightblue" stroke="midnightblue" points="500.49,-158.53 502.71,-148.17 494.51,-154.89 500.49,-158.53"/>
</g>
<!-- Node20 -->
<g id="node20" class="node">
<title>Node20</title>
<g id="a_node20"><a xlink:href="byteorder_8hpp.html" target="_top" xlink:title=" ">
<polygon fill="white" stroke="black" points="582.5,-123.5 582.5,-153.5 683.5,-153.5 683.5,-123.5 582.5,-123.5"/>
<text text-anchor="start" x="590.5" y="-141.5" font-family="Helvetica,sans-Serif" font-size="10.00">../../utility/include</text>
<text text-anchor="middle" x="633" y="-130.5" font-family="Helvetica,sans-Serif" font-size="10.00">/byteorder.hpp</text>
</a>
</g>
</g>
<!-- Node1&#45;&gt;Node20 -->
<g id="edge21" class="edge">
<title>Node1&#45;&gt;Node20</title>
<path fill="none" stroke="midnightblue" d="M511.8,-190.36C536.29,-180.08 566.07,-167.59 589.98,-157.55"/>
<polygon fill="midnightblue" stroke="midnightblue" points="591.63,-160.66 599.5,-153.56 588.92,-154.2 591.63,-160.66"/>
</g>
<!-- Node4 -->
<g id="node4" class="node">
<title>Node4</title>
<g id="a_node4"><a xlink:title=" ">
<polygon fill="white" stroke="#bfbfbf" points="0,-0.5 0,-19.5 50,-19.5 50,-0.5 0,-0.5"/>
<text text-anchor="middle" x="25" y="-7.5" font-family="Helvetica,sans-Serif" font-size="10.00">chrono</text>
</a>
</g>
</g>
<!-- Node3&#45;&gt;Node4 -->
<g id="edge3" class="edge">
<title>Node3&#45;&gt;Node4</title>
<path fill="none" stroke="midnightblue" d="M176.64,-61.98C145.93,-51.65 94.05,-34.21 59.66,-22.65"/>
<polygon fill="midnightblue" stroke="midnightblue" points="60.62,-19.28 50.03,-19.41 58.39,-25.92 60.62,-19.28"/>
</g>
<!-- Node5 -->
<g id="node5" class="node">
<title>Node5</title>
<g id="a_node5"><a xlink:title=" ">
<polygon fill="white" stroke="#bfbfbf" points="68,-0.5 68,-19.5 118,-19.5 118,-0.5 68,-0.5"/>
<text text-anchor="middle" x="93" y="-7.5" font-family="Helvetica,sans-Serif" font-size="10.00">cstdint</text>
</a>
</g>
</g>
<!-- Node3&#45;&gt;Node5 -->
<g id="edge4" class="edge">
<title>Node3&#45;&gt;Node5</title>
<path fill="none" stroke="midnightblue" d="M186.38,-61.98C168.41,-52.17 138.68,-35.93 117.59,-24.42"/>
<polygon fill="midnightblue" stroke="midnightblue" points="119.04,-21.23 108.59,-19.51 115.69,-27.37 119.04,-21.23"/>
</g>
<!-- Node6 -->
<g id="node6" class="node">
<title>Node6</title>
<g id="a_node6"><a xlink:title=" ">
<polygon fill="white" stroke="#bfbfbf" points="780,-0.5 780,-19.5 828,-19.5 828,-0.5 780,-0.5"/>
<text text-anchor="middle" x="804" y="-7.5" font-family="Helvetica,sans-Serif" font-size="10.00">mutex</text>
</a>
</g>
</g>
<!-- Node3&#45;&gt;Node6 -->
<g id="edge5" class="edge">
<title>Node3&#45;&gt;Node6</title>
<path fill="none" stroke="midnightblue" d="M248.32,-61.99C261.14,-59.83 275.08,-57.65 288,-56 468.73,-32.92 686.62,-18.19 769.62,-13.04"/>
<polygon fill="midnightblue" stroke="midnightblue" points="769.98,-16.53 779.75,-12.42 769.55,-9.54 769.98,-16.53"/>
</g>
<!-- Node7 -->
<g id="node7" class="node">
<title>Node7</title>
<g id="a_node7"><a xlink:title=" ">
<polygon fill="white" stroke="#bfbfbf" points="136.5,-0.5 136.5,-19.5 193.5,-19.5 193.5,-0.5 136.5,-0.5"/>
<text text-anchor="middle" x="165" y="-7.5" font-family="Helvetica,sans-Serif" font-size="10.00">ostream</text>
</a>
</g>
</g>
<!-- Node3&#45;&gt;Node7 -->
<g id="edge6" class="edge">
<title>Node3&#45;&gt;Node7</title>
<path fill="none" stroke="midnightblue" d="M196.7,-61.98C191.26,-53.23 182.64,-39.37 175.76,-28.31"/>
<polygon fill="midnightblue" stroke="midnightblue" points="178.54,-26.15 170.29,-19.51 172.6,-29.85 178.54,-26.15"/>
</g>
<!-- Node8 -->
<g id="node8" class="node">
<title>Node8</title>
<g id="a_node8"><a xlink:title=" ">
<polygon fill="white" stroke="#bfbfbf" points="212,-0.5 212,-19.5 268,-19.5 268,-0.5 212,-0.5"/>
<text text-anchor="middle" x="240" y="-7.5" font-family="Helvetica,sans-Serif" font-size="10.00">sstream</text>
</a>
</g>
</g>
<!-- Node3&#45;&gt;Node8 -->
<g id="edge7" class="edge">
<title>Node3&#45;&gt;Node8</title>
<path fill="none" stroke="midnightblue" d="M207.44,-61.98C213.09,-53.14 222.06,-39.09 229.16,-27.98"/>
<polygon fill="midnightblue" stroke="midnightblue" points="232.13,-29.82 234.57,-19.51 226.23,-26.05 232.13,-29.82"/>
</g>
<!-- Node9 -->
<g id="node9" class="node">
<title>Node9</title>
<g id="a_node9"><a xlink:title=" ">
<polygon fill="white" stroke="#bfbfbf" points="286.5,-0.5 286.5,-19.5 353.5,-19.5 353.5,-0.5 286.5,-0.5"/>
<text text-anchor="middle" x="320" y="-7.5" font-family="Helvetica,sans-Serif" font-size="10.00">streambuf</text>
</a>
</g>
</g>
<!-- Node3&#45;&gt;Node9 -->
<g id="edge8" class="edge">
<title>Node3&#45;&gt;Node9</title>
<path fill="none" stroke="midnightblue" d="M218.91,-61.98C238.53,-52.08 271.13,-35.64 293.99,-24.12"/>
<polygon fill="midnightblue" stroke="midnightblue" points="295.77,-27.14 303.12,-19.51 292.62,-20.89 295.77,-27.14"/>
</g>
<!-- Node10 -->
<g id="node10" class="node">
<title>Node10</title>
<g id="a_node10"><a xlink:title=" ">
<polygon fill="white" stroke="#bfbfbf" points="372,-0.5 372,-19.5 486,-19.5 486,-0.5 372,-0.5"/>
<text text-anchor="middle" x="429" y="-7.5" font-family="Helvetica,sans-Serif" font-size="10.00">vsomeip/export.hpp</text>
</a>
</g>
</g>
<!-- Node3&#45;&gt;Node10 -->
<g id="edge9" class="edge">
<title>Node3&#45;&gt;Node10</title>
<path fill="none" stroke="midnightblue" d="M234.52,-61.98C274.56,-51.48 342.64,-33.64 386.7,-22.09"/>
<polygon fill="midnightblue" stroke="midnightblue" points="387.75,-25.43 396.54,-19.51 385.98,-18.66 387.75,-25.43"/>
</g>
<!-- Node11&#45;&gt;Node3 -->
<g id="edge20" class="edge">
<title>Node11&#45;&gt;Node3</title>
<path fill="none" stroke="midnightblue" d="M467.68,-128.94C412.3,-117.17 312.71,-96.02 252.46,-83.22"/>
<polygon fill="midnightblue" stroke="midnightblue" points="252.92,-79.74 242.41,-81.08 251.46,-86.58 252.92,-79.74"/>
</g>
<!-- Node11&#45;&gt;Node6 -->
<g id="edge13" class="edge">
<title>Node11&#45;&gt;Node6</title>
<path fill="none" stroke="midnightblue" d="M542.42,-128.93C552.54,-126.69 563.66,-124.48 574,-123 631.88,-114.7 1059.09,-129.74 1099,-87 1108.4,-76.93 1107.98,-66.45 1099,-56 1065.77,-17.31 909.15,-11.52 838.6,-10.9"/>
<polygon fill="midnightblue" stroke="midnightblue" points="838.47,-7.4 828.45,-10.84 838.43,-14.4 838.47,-7.4"/>
</g>
<!-- Node12 -->
<g id="node12" class="node">
<title>Node12</title>
<g id="a_node12"><a xlink:title=" ">
<polygon fill="white" stroke="#bfbfbf" points="297,-62 297,-81 347,-81 347,-62 297,-62"/>
<text text-anchor="middle" x="322" y="-69" font-family="Helvetica,sans-Serif" font-size="10.00">cstring</text>
</a>
</g>
</g>
<!-- Node11&#45;&gt;Node12 -->
<g id="edge11" class="edge">
<title>Node11&#45;&gt;Node12</title>
<path fill="none" stroke="midnightblue" d="M480.02,-128.97C449.34,-119.43 398.78,-103.2 356,-87 354.35,-86.38 352.66,-85.72 350.96,-85.04"/>
<polygon fill="midnightblue" stroke="midnightblue" points="351.89,-81.64 341.31,-81.06 349.22,-88.11 351.89,-81.64"/>
</g>
<!-- Node13 -->
<g id="node13" class="node">
<title>Node13</title>
<g id="a_node13"><a xlink:title=" ">
<polygon fill="white" stroke="#bfbfbf" points="365,-62 365,-81 403,-81 403,-62 365,-62"/>
<text text-anchor="middle" x="384" y="-69" font-family="Helvetica,sans-Serif" font-size="10.00">map</text>
</a>
</g>
</g>
<!-- Node11&#45;&gt;Node13 -->
<g id="edge12" class="edge">
<title>Node11&#45;&gt;Node13</title>
<path fill="none" stroke="midnightblue" d="M491.53,-128.87C470.6,-117.89 434.22,-98.82 409.64,-85.94"/>
<polygon fill="midnightblue" stroke="midnightblue" points="411.02,-82.71 400.53,-81.17 407.77,-88.91 411.02,-82.71"/>
</g>
<!-- Node14 -->
<g id="node14" class="node">
<title>Node14</title>
<g id="a_node14"><a xlink:title=" ">
<polygon fill="white" stroke="#bfbfbf" points="421.5,-62 421.5,-81 466.5,-81 466.5,-62 421.5,-62"/>
<text text-anchor="middle" x="444" y="-69" font-family="Helvetica,sans-Serif" font-size="10.00">utility</text>
</a>
</g>
</g>
<!-- Node11&#45;&gt;Node14 -->
<g id="edge14" class="edge">
<title>Node11&#45;&gt;Node14</title>
<path fill="none" stroke="midnightblue" d="M499.37,-128.73C489.2,-118.4 472.1,-101.04 459.59,-88.33"/>
<polygon fill="midnightblue" stroke="midnightblue" points="462,-85.8 452.49,-81.13 457.02,-90.71 462,-85.8"/>
</g>
<!-- Node15 -->
<g id="node15" class="node">
<title>Node15</title>
<g id="a_node15"><a xlink:title=" ">
<polygon fill="white" stroke="#bfbfbf" points="484.5,-62 484.5,-81 531.5,-81 531.5,-62 484.5,-62"/>
<text text-anchor="middle" x="508" y="-69" font-family="Helvetica,sans-Serif" font-size="10.00">vector</text>
</a>
</g>
</g>
<!-- Node11&#45;&gt;Node15 -->
<g id="edge15" class="edge">
<title>Node11&#45;&gt;Node15</title>
<path fill="none" stroke="midnightblue" d="M508,-128.73C508,-119.18 508,-103.62 508,-91.28"/>
<polygon fill="midnightblue" stroke="midnightblue" points="511.5,-91.13 508,-81.13 504.5,-91.13 511.5,-91.13"/>
</g>
<!-- Node16 -->
<g id="node16" class="node">
<title>Node16</title>
<g id="a_node16"><a xlink:title=" ">
<polygon fill="white" stroke="#bfbfbf" points="550,-56.5 550,-86.5 648,-86.5 648,-56.5 550,-56.5"/>
<text text-anchor="start" x="558" y="-74.5" font-family="Helvetica,sans-Serif" font-size="10.00">boost/icl/interval</text>
<text text-anchor="middle" x="599" y="-63.5" font-family="Helvetica,sans-Serif" font-size="10.00">_map.hpp</text>
</a>
</g>
</g>
<!-- Node11&#45;&gt;Node16 -->
<g id="edge16" class="edge">
<title>Node11&#45;&gt;Node16</title>
<path fill="none" stroke="midnightblue" d="M520.27,-128.73C533.16,-119.53 553.87,-104.73 570.82,-92.63"/>
<polygon fill="midnightblue" stroke="midnightblue" points="573.17,-95.25 579.28,-86.59 569.1,-89.55 573.17,-95.25"/>
</g>
<!-- Node17 -->
<g id="node17" class="node">
<title>Node17</title>
<g id="a_node17"><a xlink:title=" ">
<polygon fill="white" stroke="#bfbfbf" points="666,-56.5 666,-86.5 764,-86.5 764,-56.5 666,-56.5"/>
<text text-anchor="start" x="674" y="-74.5" font-family="Helvetica,sans-Serif" font-size="10.00">boost/icl/interval</text>
<text text-anchor="middle" x="715" y="-63.5" font-family="Helvetica,sans-Serif" font-size="10.00">_set.hpp</text>
</a>
</g>
</g>
<!-- Node11&#45;&gt;Node17 -->
<g id="edge17" class="edge">
<title>Node11&#45;&gt;Node17</title>
<path fill="none" stroke="midnightblue" d="M535.49,-128.87C567.29,-118.88 620.43,-102.2 660.66,-89.56"/>
<polygon fill="midnightblue" stroke="midnightblue" points="661.83,-92.86 670.33,-86.53 659.74,-86.18 661.83,-92.86"/>
</g>
<!-- Node18 -->
<g id="node18" class="node">
<title>Node18</title>
<g id="a_node18"><a xlink:title=" ">
<polygon fill="white" stroke="#bfbfbf" points="782,-62 782,-81 912,-81 912,-62 782,-62"/>
<text text-anchor="middle" x="847" y="-69" font-family="Helvetica,sans-Serif" font-size="10.00">vsomeip/constants.hpp</text>
</a>
</g>
</g>
<!-- Node11&#45;&gt;Node18 -->
<g id="edge18" class="edge">
<title>Node11&#45;&gt;Node18</title>
<path fill="none" stroke="midnightblue" d="M545.64,-128.98C554.9,-126.95 564.8,-124.84 574,-123 662.13,-105.35 684.67,-103.64 773,-87 779.74,-85.73 786.83,-84.37 793.83,-83.02"/>
<polygon fill="midnightblue" stroke="midnightblue" points="794.83,-86.39 803.98,-81.04 793.49,-79.51 794.83,-86.39"/>
</g>
<!-- Node19 -->
<g id="node19" class="node">
<title>Node19</title>
<g id="a_node19"><a xlink:title=" ">
<polygon fill="white" stroke="#bfbfbf" points="930.5,-62 930.5,-81 1089.5,-81 1089.5,-62 930.5,-62"/>
<text text-anchor="middle" x="1010" y="-69" font-family="Helvetica,sans-Serif" font-size="10.00">vsomeip/primitive_types.hpp</text>
</a>
</g>
</g>
<!-- Node11&#45;&gt;Node19 -->
<g id="edge19" class="edge">
<title>Node11&#45;&gt;Node19</title>
<path fill="none" stroke="midnightblue" d="M543.48,-128.93C553.32,-126.77 564.04,-124.61 574,-123 727.07,-98.33 767.31,-107.47 921,-87 930.56,-85.73 940.67,-84.23 950.52,-82.68"/>
<polygon fill="midnightblue" stroke="midnightblue" points="951.32,-86.1 960.65,-81.06 950.22,-79.19 951.32,-86.1"/>
</g>
</g>
</svg>
