<?xml version="1.0" encoding="UTF-8" standalone="no"?>
<!DOCTYPE svg PUBLIC "-//W3C//DTD SVG 1.1//EN"
 "http://www.w3.org/Graphics/SVG/1.1/DTD/svg11.dtd">
<!-- Generated by graphviz version 2.43.0 (0)
 -->
<!-- Title: /home/kali/projects/vsomeip/implementation/e2e_protection/src/e2e/profile/profile01/checker.cpp Pages: 1 -->
<svg width="1256pt" height="340pt"
 viewBox="0.00 0.00 1256.00 340.00" xmlns="http://www.w3.org/2000/svg" xmlns:xlink="http://www.w3.org/1999/xlink">
<g id="graph0" class="graph" transform="scale(1 1) rotate(0) translate(4 336)">
<title>/home/kali/projects/vsomeip/implementation/e2e_protection/src/e2e/profile/profile01/checker.cpp</title>
<polygon fill="white" stroke="transparent" points="-4,4 -4,-336 1252,-336 1252,4 -4,4"/>
<!-- Node1 -->
<g id="node1" class="node">
<title>Node1</title>
<g id="a_node1"><a xlink:title=" ">
<polygon fill="#bfbfbf" stroke="black" points="922,-279.5 922,-331.5 1078,-331.5 1078,-279.5 922,-279.5"/>
<text text-anchor="start" x="930" y="-319.5" font-family="Helvetica,sans-Serif" font-size="10.00">/home/kali/projects</text>
<text text-anchor="start" x="930" y="-308.5" font-family="Helvetica,sans-Serif" font-size="10.00">/vsomeip/implementation</text>
<text text-anchor="start" x="930" y="-297.5" font-family="Helvetica,sans-Serif" font-size="10.00">/e2e_protection/src/e2e</text>
<text text-anchor="middle" x="1000" y="-286.5" font-family="Helvetica,sans-Serif" font-size="10.00">/profile/profile01/checker.cpp</text>
</a>
</g>
</g>
<!-- Node2 -->
<g id="node2" class="node">
<title>Node2</title>
<g id="a_node2"><a xlink:href="profile01_2checker_8hpp.html" target="_top" xlink:title=" ">
<polygon fill="white" stroke="black" points="416.5,-190.5 416.5,-242.5 533.5,-242.5 533.5,-190.5 416.5,-190.5"/>
<text text-anchor="start" x="424.5" y="-230.5" font-family="Helvetica,sans-Serif" font-size="10.00">../../../../../e2e</text>
<text text-anchor="start" x="424.5" y="-219.5" font-family="Helvetica,sans-Serif" font-size="10.00">_protection/include</text>
<text text-anchor="start" x="424.5" y="-208.5" font-family="Helvetica,sans-Serif" font-size="10.00">/e2e/profile/profile01</text>
<text text-anchor="middle" x="475" y="-197.5" font-family="Helvetica,sans-Serif" font-size="10.00">/checker.hpp</text>
</a>
</g>
</g>
<!-- Node1&#45;&gt;Node2 -->
<g id="edge1" class="edge">
<title>Node1&#45;&gt;Node2</title>
<path fill="none" stroke="midnightblue" d="M921.97,-291.57C819.48,-274.59 641.13,-245.03 543.58,-228.86"/>
<polygon fill="midnightblue" stroke="midnightblue" points="543.97,-225.38 533.53,-227.2 542.82,-232.29 543.97,-225.38"/>
</g>
<!-- Node14 -->
<g id="node14" class="node">
<title>Node14</title>
<g id="a_node14"><a xlink:href="logger_8hpp.html" target="_top" xlink:title=" ">
<polygon fill="white" stroke="black" points="760.5,-129 760.5,-148 913.5,-148 913.5,-129 760.5,-129"/>
<text text-anchor="middle" x="837" y="-136" font-family="Helvetica,sans-Serif" font-size="10.00">vsomeip/internal/logger.hpp</text>
</a>
</g>
</g>
<!-- Node1&#45;&gt;Node14 -->
<g id="edge16" class="edge">
<title>Node1&#45;&gt;Node14</title>
<path fill="none" stroke="midnightblue" d="M968.67,-279.4C955.71,-268.6 940.76,-255.58 928,-243 898.63,-214.05 867.55,-177.16 850.38,-156.15"/>
<polygon fill="midnightblue" stroke="midnightblue" points="852.94,-153.75 843.92,-148.19 847.51,-158.16 852.94,-153.75"/>
</g>
<!-- Node16 -->
<g id="node16" class="node">
<title>Node16</title>
<g id="a_node16"><a xlink:title=" ">
<polygon fill="white" stroke="#bfbfbf" points="1059,-62 1059,-81 1115,-81 1115,-62 1059,-62"/>
<text text-anchor="middle" x="1087" y="-69" font-family="Helvetica,sans-Serif" font-size="10.00">sstream</text>
</a>
</g>
</g>
<!-- Node1&#45;&gt;Node16 -->
<g id="edge25" class="edge">
<title>Node1&#45;&gt;Node16</title>
<path fill="none" stroke="midnightblue" d="M979.58,-279.45C972.2,-268.87 964.77,-255.99 961,-243 954.43,-220.38 951.61,-211.6 961,-190 981.64,-142.52 1031.98,-105.53 1062.41,-86.55"/>
<polygon fill="midnightblue" stroke="midnightblue" points="1064.42,-89.42 1071.16,-81.25 1060.8,-83.44 1064.42,-89.42"/>
</g>
<!-- Node19 -->
<g id="node19" class="node">
<title>Node19</title>
<g id="a_node19"><a xlink:title=" ">
<polygon fill="white" stroke="#bfbfbf" points="970,-207 970,-226 1030,-226 1030,-207 970,-207"/>
<text text-anchor="middle" x="1000" y="-214" font-family="Helvetica,sans-Serif" font-size="10.00">iostream</text>
</a>
</g>
</g>
<!-- Node1&#45;&gt;Node19 -->
<g id="edge24" class="edge">
<title>Node1&#45;&gt;Node19</title>
<path fill="none" stroke="midnightblue" d="M1000,-279.34C1000,-265.66 1000,-249.02 1000,-236.45"/>
<polygon fill="midnightblue" stroke="midnightblue" points="1003.5,-236.25 1000,-226.25 996.5,-236.25 1003.5,-236.25"/>
</g>
<!-- Node20 -->
<g id="node20" class="node">
<title>Node20</title>
<g id="a_node20"><a xlink:title=" ">
<polygon fill="white" stroke="#bfbfbf" points="1048,-207 1048,-226 1092,-226 1092,-207 1048,-207"/>
<text text-anchor="middle" x="1070" y="-214" font-family="Helvetica,sans-Serif" font-size="10.00">string</text>
</a>
</g>
</g>
<!-- Node1&#45;&gt;Node20 -->
<g id="edge26" class="edge">
<title>Node1&#45;&gt;Node20</title>
<path fill="none" stroke="midnightblue" d="M1020.25,-279.34C1031.93,-264.82 1046.29,-246.97 1056.57,-234.19"/>
<polygon fill="midnightblue" stroke="midnightblue" points="1059.42,-236.23 1062.96,-226.25 1053.97,-231.84 1059.42,-236.23"/>
</g>
<!-- Node21 -->
<g id="node21" class="node">
<title>Node21</title>
<g id="a_node21"><a xlink:title=" ">
<polygon fill="white" stroke="#bfbfbf" points="1110,-207 1110,-226 1166,-226 1166,-207 1110,-207"/>
<text text-anchor="middle" x="1138" y="-214" font-family="Helvetica,sans-Serif" font-size="10.00">iomanip</text>
</a>
</g>
</g>
<!-- Node1&#45;&gt;Node21 -->
<g id="edge27" class="edge">
<title>Node1&#45;&gt;Node21</title>
<path fill="none" stroke="midnightblue" d="M1042.59,-279.29C1060.74,-268.37 1082.05,-255.28 1101,-243 1106.37,-239.52 1112.09,-235.65 1117.4,-232"/>
<polygon fill="midnightblue" stroke="midnightblue" points="1119.57,-234.76 1125.78,-226.18 1115.57,-229.01 1119.57,-234.76"/>
</g>
<!-- Node22 -->
<g id="node22" class="node">
<title>Node22</title>
<g id="a_node22"><a xlink:title=" ">
<polygon fill="white" stroke="#bfbfbf" points="1184,-207 1184,-226 1248,-226 1248,-207 1184,-207"/>
<text text-anchor="middle" x="1216" y="-214" font-family="Helvetica,sans-Serif" font-size="10.00">algorithm</text>
</a>
</g>
</g>
<!-- Node1&#45;&gt;Node22 -->
<g id="edge28" class="edge">
<title>Node1&#45;&gt;Node22</title>
<path fill="none" stroke="midnightblue" d="M1078.13,-281.1C1108.93,-270.84 1144.22,-257.76 1175,-243 1181.8,-239.74 1188.89,-235.61 1195.23,-231.64"/>
<polygon fill="midnightblue" stroke="midnightblue" points="1197.36,-234.43 1203.84,-226.04 1193.55,-228.56 1197.36,-234.43"/>
</g>
<!-- Node3 -->
<g id="node3" class="node">
<title>Node3</title>
<g id="a_node3"><a xlink:href="profile__01_8hpp.html" target="_top" xlink:title=" ">
<polygon fill="white" stroke="black" points="140,-123.5 140,-153.5 242,-153.5 242,-123.5 140,-123.5"/>
<text text-anchor="start" x="148" y="-141.5" font-family="Helvetica,sans-Serif" font-size="10.00">../profile01/profile</text>
<text text-anchor="middle" x="191" y="-130.5" font-family="Helvetica,sans-Serif" font-size="10.00">_01.hpp</text>
</a>
</g>
</g>
<!-- Node2&#45;&gt;Node3 -->
<g id="edge2" class="edge">
<title>Node2&#45;&gt;Node3</title>
<path fill="none" stroke="midnightblue" d="M416.5,-199.84C368.5,-187 300.75,-168.87 252.06,-155.84"/>
<polygon fill="midnightblue" stroke="midnightblue" points="252.84,-152.43 242.28,-153.22 251.03,-159.19 252.84,-152.43"/>
</g>
<!-- Node10 -->
<g id="node10" class="node">
<title>Node10</title>
<g id="a_node10"><a xlink:href="profile__interface_2checker_8hpp.html" target="_top" xlink:title=" ">
<polygon fill="white" stroke="black" points="422.5,-123.5 422.5,-153.5 527.5,-153.5 527.5,-123.5 422.5,-123.5"/>
<text text-anchor="start" x="430.5" y="-141.5" font-family="Helvetica,sans-Serif" font-size="10.00">../profile_interface</text>
<text text-anchor="middle" x="475" y="-130.5" font-family="Helvetica,sans-Serif" font-size="10.00">/checker.hpp</text>
</a>
</g>
</g>
<!-- Node2&#45;&gt;Node10 -->
<g id="edge10" class="edge">
<title>Node2&#45;&gt;Node10</title>
<path fill="none" stroke="midnightblue" d="M475,-190.19C475,-181.79 475,-172.44 475,-164.09"/>
<polygon fill="midnightblue" stroke="midnightblue" points="478.5,-163.85 475,-153.85 471.5,-163.85 478.5,-163.85"/>
</g>
<!-- Node4 -->
<g id="node4" class="node">
<title>Node4</title>
<g id="a_node4"><a xlink:title=" ">
<polygon fill="white" stroke="#bfbfbf" points="444,-0.5 444,-19.5 494,-19.5 494,-0.5 444,-0.5"/>
<text text-anchor="middle" x="469" y="-7.5" font-family="Helvetica,sans-Serif" font-size="10.00">cstdint</text>
</a>
</g>
</g>
<!-- Node3&#45;&gt;Node4 -->
<g id="edge3" class="edge">
<title>Node3&#45;&gt;Node4</title>
<path fill="none" stroke="midnightblue" d="M179.28,-123.49C165.99,-105.83 148.21,-75.45 165,-56 182.39,-35.84 357.49,-19.76 433.78,-13.65"/>
<polygon fill="midnightblue" stroke="midnightblue" points="434.17,-17.13 443.86,-12.86 433.62,-10.16 434.17,-17.13"/>
</g>
<!-- Node5 -->
<g id="node5" class="node">
<title>Node5</title>
<g id="a_node5"><a xlink:title=" ">
<polygon fill="white" stroke="#bfbfbf" points="0,-62 0,-81 118,-81 118,-62 0,-62"/>
<text text-anchor="middle" x="59" y="-69" font-family="Helvetica,sans-Serif" font-size="10.00">vsomeip/defines.hpp</text>
</a>
</g>
</g>
<!-- Node3&#45;&gt;Node5 -->
<g id="edge4" class="edge">
<title>Node3&#45;&gt;Node5</title>
<path fill="none" stroke="midnightblue" d="M162.36,-123.4C139.5,-112.14 107.74,-96.5 85.48,-85.54"/>
<polygon fill="midnightblue" stroke="midnightblue" points="86.79,-82.28 76.28,-81.01 83.7,-88.56 86.79,-82.28"/>
</g>
<!-- Node6 -->
<g id="node6" class="node">
<title>Node6</title>
<g id="a_node6"><a xlink:href="e2e__protection_2include_2buffer_2buffer_8hpp.html" target="_top" xlink:title=" ">
<polygon fill="white" stroke="black" points="174,-62 174,-81 298,-81 298,-62 174,-62"/>
<text text-anchor="middle" x="236" y="-69" font-family="Helvetica,sans-Serif" font-size="10.00">../../../buffer/buffer.hpp</text>
</a>
</g>
</g>
<!-- Node3&#45;&gt;Node6 -->
<g id="edge5" class="edge">
<title>Node3&#45;&gt;Node6</title>
<path fill="none" stroke="midnightblue" d="M200.76,-123.4C207.64,-113.46 216.89,-100.11 224.18,-89.57"/>
<polygon fill="midnightblue" stroke="midnightblue" points="227.17,-91.41 229.98,-81.19 221.41,-87.42 227.17,-91.41"/>
</g>
<!-- Node6&#45;&gt;Node4 -->
<g id="edge7" class="edge">
<title>Node6&#45;&gt;Node4</title>
<path fill="none" stroke="midnightblue" d="M269.38,-61.98C313.16,-50.8 389.61,-31.27 434.12,-19.91"/>
<polygon fill="midnightblue" stroke="midnightblue" points="435.08,-23.27 443.91,-17.41 433.35,-16.49 435.08,-23.27"/>
</g>
<!-- Node7 -->
<g id="node7" class="node">
<title>Node7</title>
<g id="a_node7"><a xlink:title=" ">
<polygon fill="white" stroke="#bfbfbf" points="240.5,-0.5 240.5,-19.5 305.5,-19.5 305.5,-0.5 240.5,-0.5"/>
<text text-anchor="middle" x="273" y="-7.5" font-family="Helvetica,sans-Serif" font-size="10.00">stdexcept</text>
</a>
</g>
</g>
<!-- Node6&#45;&gt;Node7 -->
<g id="edge6" class="edge">
<title>Node6&#45;&gt;Node7</title>
<path fill="none" stroke="midnightblue" d="M241.3,-61.98C246.74,-53.23 255.36,-39.37 262.24,-28.31"/>
<polygon fill="midnightblue" stroke="midnightblue" points="265.4,-29.85 267.71,-19.51 259.46,-26.15 265.4,-29.85"/>
</g>
<!-- Node8 -->
<g id="node8" class="node">
<title>Node8</title>
<g id="a_node8"><a xlink:title=" ">
<polygon fill="white" stroke="#bfbfbf" points="775.5,-0.5 775.5,-19.5 832.5,-19.5 832.5,-0.5 775.5,-0.5"/>
<text text-anchor="middle" x="804" y="-7.5" font-family="Helvetica,sans-Serif" font-size="10.00">ostream</text>
</a>
</g>
</g>
<!-- Node6&#45;&gt;Node8 -->
<g id="edge8" class="edge">
<title>Node6&#45;&gt;Node8</title>
<path fill="none" stroke="midnightblue" d="M273.82,-61.97C284.5,-59.78 296.17,-57.59 307,-56 476.75,-31.06 681.28,-17.78 765.2,-13.04"/>
<polygon fill="midnightblue" stroke="midnightblue" points="765.5,-16.53 775.29,-12.48 765.12,-9.54 765.5,-16.53"/>
</g>
<!-- Node9 -->
<g id="node9" class="node">
<title>Node9</title>
<g id="a_node9"><a xlink:title=" ">
<polygon fill="white" stroke="#bfbfbf" points="175.5,-0.5 175.5,-19.5 222.5,-19.5 222.5,-0.5 175.5,-0.5"/>
<text text-anchor="middle" x="199" y="-7.5" font-family="Helvetica,sans-Serif" font-size="10.00">vector</text>
</a>
</g>
</g>
<!-- Node6&#45;&gt;Node9 -->
<g id="edge9" class="edge">
<title>Node6&#45;&gt;Node9</title>
<path fill="none" stroke="midnightblue" d="M230.7,-61.98C225.26,-53.23 216.64,-39.37 209.76,-28.31"/>
<polygon fill="midnightblue" stroke="midnightblue" points="212.54,-26.15 204.29,-19.51 206.6,-29.85 212.54,-26.15"/>
</g>
<!-- Node10&#45;&gt;Node6 -->
<g id="edge15" class="edge">
<title>Node10&#45;&gt;Node6</title>
<path fill="none" stroke="midnightblue" d="M423.43,-123.48C379.66,-111.57 317.68,-94.72 277.17,-83.7"/>
<polygon fill="midnightblue" stroke="midnightblue" points="277.93,-80.28 267.36,-81.03 276.09,-87.03 277.93,-80.28"/>
</g>
<!-- Node11 -->
<g id="node11" class="node">
<title>Node11</title>
<g id="a_node11"><a xlink:title=" ">
<polygon fill="white" stroke="#bfbfbf" points="631,-62 631,-81 679,-81 679,-62 631,-62"/>
<text text-anchor="middle" x="655" y="-69" font-family="Helvetica,sans-Serif" font-size="10.00">mutex</text>
</a>
</g>
</g>
<!-- Node10&#45;&gt;Node11 -->
<g id="edge11" class="edge">
<title>Node10&#45;&gt;Node11</title>
<path fill="none" stroke="midnightblue" d="M519.09,-123.42C548.47,-113.77 587.82,-100.35 622,-87 623.6,-86.37 625.24,-85.71 626.89,-85.04"/>
<polygon fill="midnightblue" stroke="midnightblue" points="628.43,-88.19 636.27,-81.05 625.69,-81.74 628.43,-88.19"/>
</g>
<!-- Node12 -->
<g id="node12" class="node">
<title>Node12</title>
<g id="a_node12"><a xlink:title=" ">
<polygon fill="white" stroke="#bfbfbf" points="316.5,-62 316.5,-81 475.5,-81 475.5,-62 316.5,-62"/>
<text text-anchor="middle" x="396" y="-69" font-family="Helvetica,sans-Serif" font-size="10.00">vsomeip/primitive_types.hpp</text>
</a>
</g>
</g>
<!-- Node10&#45;&gt;Node12 -->
<g id="edge12" class="edge">
<title>Node10&#45;&gt;Node12</title>
<path fill="none" stroke="midnightblue" d="M457.86,-123.4C445.05,-112.86 427.57,-98.48 414.46,-87.69"/>
<polygon fill="midnightblue" stroke="midnightblue" points="416.51,-84.85 406.57,-81.19 412.07,-90.25 416.51,-84.85"/>
</g>
<!-- Node13 -->
<g id="node13" class="node">
<title>Node13</title>
<g id="a_node13"><a xlink:href="profile__interface_8hpp.html" target="_top" xlink:title=" ">
<polygon fill="white" stroke="black" points="493,-56.5 493,-86.5 613,-86.5 613,-56.5 493,-56.5"/>
<text text-anchor="start" x="501" y="-74.5" font-family="Helvetica,sans-Serif" font-size="10.00">../profile_interface</text>
<text text-anchor="middle" x="553" y="-63.5" font-family="Helvetica,sans-Serif" font-size="10.00">/profile_interface.hpp</text>
</a>
</g>
</g>
<!-- Node10&#45;&gt;Node13 -->
<g id="edge13" class="edge">
<title>Node10&#45;&gt;Node13</title>
<path fill="none" stroke="midnightblue" d="M491.92,-123.4C502.55,-114.54 516.45,-102.96 528.3,-93.09"/>
<polygon fill="midnightblue" stroke="midnightblue" points="530.67,-95.67 536.11,-86.58 526.19,-90.29 530.67,-95.67"/>
</g>
<!-- Node13&#45;&gt;Node4 -->
<g id="edge14" class="edge">
<title>Node13&#45;&gt;Node4</title>
<path fill="none" stroke="midnightblue" d="M533.09,-56.4C520.01,-47.13 502.92,-35.03 489.68,-25.65"/>
<polygon fill="midnightblue" stroke="midnightblue" points="491.41,-22.58 481.22,-19.66 487.36,-28.29 491.41,-22.58"/>
</g>
<!-- Node14&#45;&gt;Node4 -->
<g id="edge18" class="edge">
<title>Node14&#45;&gt;Node4</title>
<path fill="none" stroke="midnightblue" d="M813.59,-128.89C790.49,-119.94 754.6,-104.76 726,-87 707.48,-75.5 707.69,-65.35 688,-56 627.47,-27.24 548.97,-16.81 504.27,-13.06"/>
<polygon fill="midnightblue" stroke="midnightblue" points="504.44,-9.56 494.2,-12.28 503.9,-16.54 504.44,-9.56"/>
</g>
<!-- Node14&#45;&gt;Node8 -->
<g id="edge20" class="edge">
<title>Node14&#45;&gt;Node8</title>
<path fill="none" stroke="midnightblue" d="M892.13,-128.94C937.79,-120.59 997.46,-106.33 1012,-87 1020.28,-75.99 1020.65,-66.72 1012,-56 991.18,-30.19 897.26,-18.45 843.01,-13.74"/>
<polygon fill="midnightblue" stroke="midnightblue" points="842.98,-10.22 832.73,-12.89 842.41,-17.2 842.98,-10.22"/>
</g>
<!-- Node14&#45;&gt;Node11 -->
<g id="edge19" class="edge">
<title>Node14&#45;&gt;Node11</title>
<path fill="none" stroke="midnightblue" d="M811.95,-128.95C783.17,-119.07 734.55,-102.21 693,-87 690.9,-86.23 688.74,-85.43 686.56,-84.62"/>
<polygon fill="midnightblue" stroke="midnightblue" points="687.66,-81.29 677.07,-81.04 685.19,-87.84 687.66,-81.29"/>
</g>
<!-- Node15 -->
<g id="node15" class="node">
<title>Node15</title>
<g id="a_node15"><a xlink:title=" ">
<polygon fill="white" stroke="#bfbfbf" points="735,-62 735,-81 785,-81 785,-62 735,-62"/>
<text text-anchor="middle" x="760" y="-69" font-family="Helvetica,sans-Serif" font-size="10.00">chrono</text>
</a>
</g>
</g>
<!-- Node14&#45;&gt;Node15 -->
<g id="edge17" class="edge">
<title>Node14&#45;&gt;Node15</title>
<path fill="none" stroke="midnightblue" d="M826.62,-128.73C814.15,-118.21 793.03,-100.38 777.91,-87.62"/>
<polygon fill="midnightblue" stroke="midnightblue" points="780.12,-84.9 770.22,-81.13 775.6,-90.25 780.12,-84.9"/>
</g>
<!-- Node14&#45;&gt;Node16 -->
<g id="edge21" class="edge">
<title>Node14&#45;&gt;Node16</title>
<path fill="none" stroke="midnightblue" d="M877.17,-128.93C919.28,-119.67 987.23,-103.94 1045,-87 1047.94,-86.14 1050.98,-85.19 1054.01,-84.21"/>
<polygon fill="midnightblue" stroke="midnightblue" points="1055.2,-87.51 1063.58,-81.02 1052.99,-80.87 1055.2,-87.51"/>
</g>
<!-- Node17 -->
<g id="node17" class="node">
<title>Node17</title>
<g id="a_node17"><a xlink:title=" ">
<polygon fill="white" stroke="#bfbfbf" points="803.5,-62 803.5,-81 870.5,-81 870.5,-62 803.5,-62"/>
<text text-anchor="middle" x="837" y="-69" font-family="Helvetica,sans-Serif" font-size="10.00">streambuf</text>
</a>
</g>
</g>
<!-- Node14&#45;&gt;Node17 -->
<g id="edge22" class="edge">
<title>Node14&#45;&gt;Node17</title>
<path fill="none" stroke="midnightblue" d="M837,-128.73C837,-119.18 837,-103.62 837,-91.28"/>
<polygon fill="midnightblue" stroke="midnightblue" points="840.5,-91.13 837,-81.13 833.5,-91.13 840.5,-91.13"/>
</g>
<!-- Node18 -->
<g id="node18" class="node">
<title>Node18</title>
<g id="a_node18"><a xlink:title=" ">
<polygon fill="white" stroke="#bfbfbf" points="889,-62 889,-81 1003,-81 1003,-62 889,-62"/>
<text text-anchor="middle" x="946" y="-69" font-family="Helvetica,sans-Serif" font-size="10.00">vsomeip/export.hpp</text>
</a>
</g>
</g>
<!-- Node14&#45;&gt;Node18 -->
<g id="edge23" class="edge">
<title>Node14&#45;&gt;Node18</title>
<path fill="none" stroke="midnightblue" d="M851.7,-128.73C869.92,-117.87 901.2,-99.22 922.7,-86.39"/>
<polygon fill="midnightblue" stroke="midnightblue" points="924.74,-89.26 931.53,-81.13 921.15,-83.24 924.74,-89.26"/>
</g>
</g>
</svg>
