<?xml version="1.0" encoding="UTF-8" standalone="no"?>
<!DOCTYPE svg PUBLIC "-//W3C//DTD SVG 1.1//EN"
 "http://www.w3.org/Graphics/SVG/1.1/DTD/svg11.dtd">
<!-- Generated by graphviz version 2.43.0 (0)
 -->
<!-- Title: /home/kali/projects/vsomeip/implementation/e2e_protection/include/e2e/profile/profile_interface/checker.hpp Pages: 1 -->
<svg width="559pt" height="195pt"
 viewBox="0.00 0.00 558.50 195.00" xmlns="http://www.w3.org/2000/svg" xmlns:xlink="http://www.w3.org/1999/xlink">
<g id="graph0" class="graph" transform="scale(1 1) rotate(0) translate(4 191)">
<title>/home/kali/projects/vsomeip/implementation/e2e_protection/include/e2e/profile/profile_interface/checker.hpp</title>
<polygon fill="white" stroke="transparent" points="-4,4 -4,-191 554.5,-191 554.5,4 -4,4"/>
<!-- Node1 -->
<g id="node1" class="node">
<title>Node1</title>
<g id="a_node1"><a xlink:title=" ">
<polygon fill="#bfbfbf" stroke="black" points="146,-123.5 146,-186.5 300,-186.5 300,-123.5 146,-123.5"/>
<text text-anchor="start" x="154" y="-174.5" font-family="Helvetica,sans-Serif" font-size="10.00">/home/kali/projects</text>
<text text-anchor="start" x="154" y="-163.5" font-family="Helvetica,sans-Serif" font-size="10.00">/vsomeip/implementation</text>
<text text-anchor="start" x="154" y="-152.5" font-family="Helvetica,sans-Serif" font-size="10.00">/e2e_protection/include</text>
<text text-anchor="start" x="154" y="-141.5" font-family="Helvetica,sans-Serif" font-size="10.00">/e2e/profile/profile_interface</text>
<text text-anchor="middle" x="223" y="-130.5" font-family="Helvetica,sans-Serif" font-size="10.00">/checker.hpp</text>
</a>
</g>
</g>
<!-- Node2 -->
<g id="node2" class="node">
<title>Node2</title>
<g id="a_node2"><a xlink:title=" ">
<polygon fill="white" stroke="#bfbfbf" points="0,-62 0,-81 48,-81 48,-62 0,-62"/>
<text text-anchor="middle" x="24" y="-69" font-family="Helvetica,sans-Serif" font-size="10.00">mutex</text>
</a>
</g>
</g>
<!-- Node1&#45;&gt;Node2 -->
<g id="edge1" class="edge">
<title>Node1&#45;&gt;Node2</title>
<path fill="none" stroke="midnightblue" d="M145.8,-123.85C117.45,-112.56 85.16,-99.45 56,-87 54.63,-86.42 53.24,-85.81 51.83,-85.2"/>
<polygon fill="midnightblue" stroke="midnightblue" points="53.11,-81.94 42.55,-81.07 50.27,-88.33 53.11,-81.94"/>
</g>
<!-- Node3 -->
<g id="node3" class="node">
<title>Node3</title>
<g id="a_node3"><a xlink:title=" ">
<polygon fill="white" stroke="#bfbfbf" points="65.5,-62 65.5,-81 224.5,-81 224.5,-62 65.5,-62"/>
<text text-anchor="middle" x="145" y="-69" font-family="Helvetica,sans-Serif" font-size="10.00">vsomeip/primitive_types.hpp</text>
</a>
</g>
</g>
<!-- Node1&#45;&gt;Node3 -->
<g id="edge2" class="edge">
<title>Node1&#45;&gt;Node3</title>
<path fill="none" stroke="midnightblue" d="M193.51,-123.19C182.32,-111.5 170.02,-98.64 160.6,-88.8"/>
<polygon fill="midnightblue" stroke="midnightblue" points="162.9,-86.15 153.46,-81.34 157.85,-90.99 162.9,-86.15"/>
</g>
<!-- Node4 -->
<g id="node4" class="node">
<title>Node4</title>
<g id="a_node4"><a xlink:href="profile__interface_8hpp.html" target="_top" xlink:title=" ">
<polygon fill="white" stroke="black" points="242,-56.5 242,-86.5 362,-86.5 362,-56.5 242,-56.5"/>
<text text-anchor="start" x="250" y="-74.5" font-family="Helvetica,sans-Serif" font-size="10.00">../profile_interface</text>
<text text-anchor="middle" x="302" y="-63.5" font-family="Helvetica,sans-Serif" font-size="10.00">/profile_interface.hpp</text>
</a>
</g>
</g>
<!-- Node1&#45;&gt;Node4 -->
<g id="edge3" class="edge">
<title>Node1&#45;&gt;Node4</title>
<path fill="none" stroke="midnightblue" d="M252.87,-123.19C262.33,-113.43 272.58,-102.85 281.25,-93.9"/>
<polygon fill="midnightblue" stroke="midnightblue" points="283.97,-96.13 288.41,-86.52 278.94,-91.26 283.97,-96.13"/>
</g>
<!-- Node6 -->
<g id="node6" class="node">
<title>Node6</title>
<g id="a_node6"><a xlink:href="e2e__protection_2include_2buffer_2buffer_8hpp.html" target="_top" xlink:title=" ">
<polygon fill="white" stroke="black" points="380,-62 380,-81 504,-81 504,-62 380,-62"/>
<text text-anchor="middle" x="442" y="-69" font-family="Helvetica,sans-Serif" font-size="10.00">../../../buffer/buffer.hpp</text>
</a>
</g>
</g>
<!-- Node1&#45;&gt;Node6 -->
<g id="edge5" class="edge">
<title>Node1&#45;&gt;Node6</title>
<path fill="none" stroke="midnightblue" d="M300.21,-125.27C337.67,-111.33 380.65,-95.33 409.39,-84.64"/>
<polygon fill="midnightblue" stroke="midnightblue" points="410.77,-87.86 418.92,-81.09 408.33,-81.3 410.77,-87.86"/>
</g>
<!-- Node5 -->
<g id="node5" class="node">
<title>Node5</title>
<g id="a_node5"><a xlink:title=" ">
<polygon fill="white" stroke="#bfbfbf" points="277,-0.5 277,-19.5 327,-19.5 327,-0.5 277,-0.5"/>
<text text-anchor="middle" x="302" y="-7.5" font-family="Helvetica,sans-Serif" font-size="10.00">cstdint</text>
</a>
</g>
</g>
<!-- Node4&#45;&gt;Node5 -->
<g id="edge4" class="edge">
<title>Node4&#45;&gt;Node5</title>
<path fill="none" stroke="midnightblue" d="M302,-56.4C302,-48.47 302,-38.46 302,-29.86"/>
<polygon fill="midnightblue" stroke="midnightblue" points="305.5,-29.66 302,-19.66 298.5,-29.66 305.5,-29.66"/>
</g>
<!-- Node6&#45;&gt;Node5 -->
<g id="edge7" class="edge">
<title>Node6&#45;&gt;Node5</title>
<path fill="none" stroke="midnightblue" d="M421.94,-61.98C398.24,-51.9 358.59,-35.05 331.42,-23.5"/>
<polygon fill="midnightblue" stroke="midnightblue" points="332.59,-20.2 322.02,-19.51 329.86,-26.64 332.59,-20.2"/>
</g>
<!-- Node7 -->
<g id="node7" class="node">
<title>Node7</title>
<g id="a_node7"><a xlink:title=" ">
<polygon fill="white" stroke="#bfbfbf" points="345.5,-0.5 345.5,-19.5 410.5,-19.5 410.5,-0.5 345.5,-0.5"/>
<text text-anchor="middle" x="378" y="-7.5" font-family="Helvetica,sans-Serif" font-size="10.00">stdexcept</text>
</a>
</g>
</g>
<!-- Node6&#45;&gt;Node7 -->
<g id="edge6" class="edge">
<title>Node6&#45;&gt;Node7</title>
<path fill="none" stroke="midnightblue" d="M432.83,-61.98C422.85,-52.7 406.69,-37.67 394.49,-26.33"/>
<polygon fill="midnightblue" stroke="midnightblue" points="396.86,-23.75 387.15,-19.51 392.09,-28.88 396.86,-23.75"/>
</g>
<!-- Node8 -->
<g id="node8" class="node">
<title>Node8</title>
<g id="a_node8"><a xlink:title=" ">
<polygon fill="white" stroke="#bfbfbf" points="428.5,-0.5 428.5,-19.5 485.5,-19.5 485.5,-0.5 428.5,-0.5"/>
<text text-anchor="middle" x="457" y="-7.5" font-family="Helvetica,sans-Serif" font-size="10.00">ostream</text>
</a>
</g>
</g>
<!-- Node6&#45;&gt;Node8 -->
<g id="edge8" class="edge">
<title>Node6&#45;&gt;Node8</title>
<path fill="none" stroke="midnightblue" d="M444.15,-61.98C446.29,-53.49 449.64,-40.2 452.38,-29.32"/>
<polygon fill="midnightblue" stroke="midnightblue" points="455.8,-30.06 454.85,-19.51 449.02,-28.35 455.8,-30.06"/>
</g>
<!-- Node9 -->
<g id="node9" class="node">
<title>Node9</title>
<g id="a_node9"><a xlink:title=" ">
<polygon fill="white" stroke="#bfbfbf" points="503.5,-0.5 503.5,-19.5 550.5,-19.5 550.5,-0.5 503.5,-0.5"/>
<text text-anchor="middle" x="527" y="-7.5" font-family="Helvetica,sans-Serif" font-size="10.00">vector</text>
</a>
</g>
</g>
<!-- Node6&#45;&gt;Node9 -->
<g id="edge9" class="edge">
<title>Node6&#45;&gt;Node9</title>
<path fill="none" stroke="midnightblue" d="M454.18,-61.98C467.81,-52.43 490.13,-36.81 506.47,-25.37"/>
<polygon fill="midnightblue" stroke="midnightblue" points="508.66,-28.11 514.84,-19.51 504.64,-22.38 508.66,-28.11"/>
</g>
</g>
</svg>
