<?xml version="1.0" encoding="UTF-8" standalone="no"?>
<!DOCTYPE svg PUBLIC "-//W3C//DTD SVG 1.1//EN"
 "http://www.w3.org/Graphics/SVG/1.1/DTD/svg11.dtd">
<!-- Generated by graphviz version 2.43.0 (0)
 -->
<!-- Title: /home/kali/projects/vsomeip/implementation/e2e_protection/src/e2e/profile/profile04/profile_04.cpp Pages: 1 -->
<svg width="658pt" height="262pt"
 viewBox="0.00 0.00 657.50 262.00" xmlns="http://www.w3.org/2000/svg" xmlns:xlink="http://www.w3.org/1999/xlink">
<g id="graph0" class="graph" transform="scale(1 1) rotate(0) translate(4 258)">
<title>/home/kali/projects/vsomeip/implementation/e2e_protection/src/e2e/profile/profile04/profile_04.cpp</title>
<polygon fill="white" stroke="transparent" points="-4,4 -4,-258 653.5,-258 653.5,4 -4,4"/>
<!-- Node1 -->
<g id="node1" class="node">
<title>Node1</title>
<g id="a_node1"><a xlink:title=" ">
<polygon fill="#bfbfbf" stroke="black" points="130.5,-201.5 130.5,-253.5 297.5,-253.5 297.5,-201.5 130.5,-201.5"/>
<text text-anchor="start" x="138.5" y="-241.5" font-family="Helvetica,sans-Serif" font-size="10.00">/home/kali/projects</text>
<text text-anchor="start" x="138.5" y="-230.5" font-family="Helvetica,sans-Serif" font-size="10.00">/vsomeip/implementation</text>
<text text-anchor="start" x="138.5" y="-219.5" font-family="Helvetica,sans-Serif" font-size="10.00">/e2e_protection/src/e2e</text>
<text text-anchor="middle" x="214" y="-208.5" font-family="Helvetica,sans-Serif" font-size="10.00">/profile/profile04/profile_04.cpp</text>
</a>
</g>
</g>
<!-- Node2 -->
<g id="node2" class="node">
<title>Node2</title>
<g id="a_node2"><a xlink:title=" ">
<polygon fill="white" stroke="#bfbfbf" points="0,-129 0,-148 56,-148 56,-129 0,-129"/>
<text text-anchor="middle" x="28" y="-136" font-family="Helvetica,sans-Serif" font-size="10.00">iomanip</text>
</a>
</g>
</g>
<!-- Node1&#45;&gt;Node2 -->
<g id="edge1" class="edge">
<title>Node1&#45;&gt;Node2</title>
<path fill="none" stroke="midnightblue" d="M144.72,-201.45C119.12,-191.27 90.21,-178.69 65,-165 59.2,-161.85 53.2,-158 47.76,-154.26"/>
<polygon fill="midnightblue" stroke="midnightblue" points="49.44,-151.16 39.26,-148.19 45.37,-156.85 49.44,-151.16"/>
</g>
<!-- Node3 -->
<g id="node3" class="node">
<title>Node3</title>
<g id="a_node3"><a xlink:title=" ">
<polygon fill="white" stroke="#bfbfbf" points="74,-129 74,-148 134,-148 134,-129 74,-129"/>
<text text-anchor="middle" x="104" y="-136" font-family="Helvetica,sans-Serif" font-size="10.00">iostream</text>
</a>
</g>
</g>
<!-- Node1&#45;&gt;Node3 -->
<g id="edge2" class="edge">
<title>Node1&#45;&gt;Node3</title>
<path fill="none" stroke="midnightblue" d="M182.18,-201.34C163.02,-186.18 139.25,-167.38 122.99,-154.52"/>
<polygon fill="midnightblue" stroke="midnightblue" points="124.81,-151.5 114.8,-148.04 120.47,-156.99 124.81,-151.5"/>
</g>
<!-- Node4 -->
<g id="node4" class="node">
<title>Node4</title>
<g id="a_node4"><a xlink:title=" ">
<polygon fill="white" stroke="#bfbfbf" points="152,-129 152,-148 208,-148 208,-129 152,-129"/>
<text text-anchor="middle" x="180" y="-136" font-family="Helvetica,sans-Serif" font-size="10.00">sstream</text>
</a>
</g>
</g>
<!-- Node1&#45;&gt;Node4 -->
<g id="edge3" class="edge">
<title>Node1&#45;&gt;Node4</title>
<path fill="none" stroke="midnightblue" d="M204.17,-201.34C198.71,-187.38 192.05,-170.34 187.11,-157.68"/>
<polygon fill="midnightblue" stroke="midnightblue" points="190.32,-156.29 183.42,-148.25 183.8,-158.84 190.32,-156.29"/>
</g>
<!-- Node5 -->
<g id="node5" class="node">
<title>Node5</title>
<g id="a_node5"><a xlink:title=" ">
<polygon fill="white" stroke="#bfbfbf" points="226,-129 226,-148 270,-148 270,-129 226,-129"/>
<text text-anchor="middle" x="248" y="-136" font-family="Helvetica,sans-Serif" font-size="10.00">string</text>
</a>
</g>
</g>
<!-- Node1&#45;&gt;Node5 -->
<g id="edge4" class="edge">
<title>Node1&#45;&gt;Node5</title>
<path fill="none" stroke="midnightblue" d="M223.83,-201.34C229.29,-187.38 235.95,-170.34 240.89,-157.68"/>
<polygon fill="midnightblue" stroke="midnightblue" points="244.2,-158.84 244.58,-148.25 237.68,-156.29 244.2,-158.84"/>
</g>
<!-- Node6 -->
<g id="node6" class="node">
<title>Node6</title>
<g id="a_node6"><a xlink:href="profile__04_8hpp.html" target="_top" xlink:title=" ">
<polygon fill="white" stroke="black" points="288.5,-112.5 288.5,-164.5 405.5,-164.5 405.5,-112.5 288.5,-112.5"/>
<text text-anchor="start" x="296.5" y="-152.5" font-family="Helvetica,sans-Serif" font-size="10.00">../../../../../e2e</text>
<text text-anchor="start" x="296.5" y="-141.5" font-family="Helvetica,sans-Serif" font-size="10.00">_protection/include</text>
<text text-anchor="start" x="296.5" y="-130.5" font-family="Helvetica,sans-Serif" font-size="10.00">/e2e/profile/profile04</text>
<text text-anchor="middle" x="347" y="-119.5" font-family="Helvetica,sans-Serif" font-size="10.00">/profile_04.hpp</text>
</a>
</g>
</g>
<!-- Node1&#45;&gt;Node6 -->
<g id="edge5" class="edge">
<title>Node1&#45;&gt;Node6</title>
<path fill="none" stroke="midnightblue" d="M252.47,-201.34C267.36,-191.6 284.54,-180.36 300.14,-170.15"/>
<polygon fill="midnightblue" stroke="midnightblue" points="302.16,-173.01 308.62,-164.61 298.33,-167.15 302.16,-173.01"/>
</g>
<!-- Node13 -->
<g id="node13" class="node">
<title>Node13</title>
<g id="a_node13"><a xlink:href="crc_8hpp.html" target="_top" xlink:title=" ">
<polygon fill="white" stroke="black" points="424,-118 424,-159 534,-159 534,-118 424,-118"/>
<text text-anchor="start" x="432" y="-147" font-family="Helvetica,sans-Serif" font-size="10.00">../../../../../e2e</text>
<text text-anchor="start" x="432" y="-136" font-family="Helvetica,sans-Serif" font-size="10.00">_protection/include</text>
<text text-anchor="middle" x="479" y="-125" font-family="Helvetica,sans-Serif" font-size="10.00">/crc/crc.hpp</text>
</a>
</g>
</g>
<!-- Node1&#45;&gt;Node13 -->
<g id="edge13" class="edge">
<title>Node1&#45;&gt;Node13</title>
<path fill="none" stroke="midnightblue" d="M297.66,-202.31C333.66,-191.51 376.1,-178.24 414,-165 416.22,-164.22 418.48,-163.42 420.75,-162.59"/>
<polygon fill="midnightblue" stroke="midnightblue" points="422,-165.86 430.17,-159.11 419.58,-159.3 422,-165.86"/>
</g>
<!-- Node7 -->
<g id="node7" class="node">
<title>Node7</title>
<g id="a_node7"><a xlink:title=" ">
<polygon fill="white" stroke="#bfbfbf" points="376,-0.5 376,-19.5 426,-19.5 426,-0.5 376,-0.5"/>
<text text-anchor="middle" x="401" y="-7.5" font-family="Helvetica,sans-Serif" font-size="10.00">cstdint</text>
</a>
</g>
</g>
<!-- Node6&#45;&gt;Node7 -->
<g id="edge6" class="edge">
<title>Node6&#45;&gt;Node7</title>
<path fill="none" stroke="midnightblue" d="M304.32,-112.35C283.33,-96.68 265.2,-75.8 279,-56 298.43,-28.12 337.19,-17.47 365.83,-13.43"/>
<polygon fill="midnightblue" stroke="midnightblue" points="366.36,-16.89 375.87,-12.21 365.52,-9.94 366.36,-16.89"/>
</g>
<!-- Node8 -->
<g id="node8" class="node">
<title>Node8</title>
<g id="a_node8"><a xlink:title=" ">
<polygon fill="white" stroke="#bfbfbf" points="288,-56.5 288,-75.5 406,-75.5 406,-56.5 288,-56.5"/>
<text text-anchor="middle" x="347" y="-63.5" font-family="Helvetica,sans-Serif" font-size="10.00">vsomeip/defines.hpp</text>
</a>
</g>
</g>
<!-- Node6&#45;&gt;Node8 -->
<g id="edge7" class="edge">
<title>Node6&#45;&gt;Node8</title>
<path fill="none" stroke="midnightblue" d="M347,-112.45C347,-103.73 347,-94.1 347,-85.96"/>
<polygon fill="midnightblue" stroke="midnightblue" points="350.5,-85.7 347,-75.7 343.5,-85.7 350.5,-85.7"/>
</g>
<!-- Node9 -->
<g id="node9" class="node">
<title>Node9</title>
<g id="a_node9"><a xlink:href="e2e__protection_2include_2buffer_2buffer_8hpp.html" target="_top" xlink:title=" ">
<polygon fill="white" stroke="black" points="462,-56.5 462,-75.5 586,-75.5 586,-56.5 462,-56.5"/>
<text text-anchor="middle" x="524" y="-63.5" font-family="Helvetica,sans-Serif" font-size="10.00">../../../buffer/buffer.hpp</text>
</a>
</g>
</g>
<!-- Node6&#45;&gt;Node9 -->
<g id="edge8" class="edge">
<title>Node6&#45;&gt;Node9</title>
<path fill="none" stroke="midnightblue" d="M405.94,-114.02C435.11,-102.41 469.11,-88.86 493.12,-79.3"/>
<polygon fill="midnightblue" stroke="midnightblue" points="494.44,-82.54 502.43,-75.59 491.85,-76.04 494.44,-82.54"/>
</g>
<!-- Node9&#45;&gt;Node7 -->
<g id="edge10" class="edge">
<title>Node9&#45;&gt;Node7</title>
<path fill="none" stroke="midnightblue" d="M504.51,-56.44C484.36,-47.6 452.68,-33.69 429.67,-23.59"/>
<polygon fill="midnightblue" stroke="midnightblue" points="430.96,-20.33 420.4,-19.52 428.15,-26.74 430.96,-20.33"/>
</g>
<!-- Node10 -->
<g id="node10" class="node">
<title>Node10</title>
<g id="a_node10"><a xlink:title=" ">
<polygon fill="white" stroke="#bfbfbf" points="444.5,-0.5 444.5,-19.5 509.5,-19.5 509.5,-0.5 444.5,-0.5"/>
<text text-anchor="middle" x="477" y="-7.5" font-family="Helvetica,sans-Serif" font-size="10.00">stdexcept</text>
</a>
</g>
</g>
<!-- Node9&#45;&gt;Node10 -->
<g id="edge9" class="edge">
<title>Node9&#45;&gt;Node10</title>
<path fill="none" stroke="midnightblue" d="M516.24,-56.08C509.46,-48.3 499.46,-36.8 491.24,-27.37"/>
<polygon fill="midnightblue" stroke="midnightblue" points="493.82,-25 484.62,-19.75 488.54,-29.59 493.82,-25"/>
</g>
<!-- Node11 -->
<g id="node11" class="node">
<title>Node11</title>
<g id="a_node11"><a xlink:title=" ">
<polygon fill="white" stroke="#bfbfbf" points="527.5,-0.5 527.5,-19.5 584.5,-19.5 584.5,-0.5 527.5,-0.5"/>
<text text-anchor="middle" x="556" y="-7.5" font-family="Helvetica,sans-Serif" font-size="10.00">ostream</text>
</a>
</g>
</g>
<!-- Node9&#45;&gt;Node11 -->
<g id="edge11" class="edge">
<title>Node9&#45;&gt;Node11</title>
<path fill="none" stroke="midnightblue" d="M529.28,-56.08C533.71,-48.61 540.16,-37.72 545.62,-28.52"/>
<polygon fill="midnightblue" stroke="midnightblue" points="548.73,-30.14 550.81,-19.75 542.71,-26.57 548.73,-30.14"/>
</g>
<!-- Node12 -->
<g id="node12" class="node">
<title>Node12</title>
<g id="a_node12"><a xlink:title=" ">
<polygon fill="white" stroke="#bfbfbf" points="602.5,-0.5 602.5,-19.5 649.5,-19.5 649.5,-0.5 602.5,-0.5"/>
<text text-anchor="middle" x="626" y="-7.5" font-family="Helvetica,sans-Serif" font-size="10.00">vector</text>
</a>
</g>
</g>
<!-- Node9&#45;&gt;Node12 -->
<g id="edge12" class="edge">
<title>Node9&#45;&gt;Node12</title>
<path fill="none" stroke="midnightblue" d="M540.39,-56.32C556.67,-47.7 581.87,-34.36 600.72,-24.39"/>
<polygon fill="midnightblue" stroke="midnightblue" points="602.45,-27.43 609.65,-19.65 599.18,-21.24 602.45,-27.43"/>
</g>
<!-- Node13&#45;&gt;Node7 -->
<g id="edge14" class="edge">
<title>Node13&#45;&gt;Node7</title>
<path fill="none" stroke="midnightblue" d="M466.81,-117.73C451.67,-93.18 426.09,-51.69 411.68,-28.33"/>
<polygon fill="midnightblue" stroke="midnightblue" points="414.65,-26.47 406.42,-19.79 408.69,-30.14 414.65,-26.47"/>
</g>
<!-- Node13&#45;&gt;Node9 -->
<g id="edge15" class="edge">
<title>Node13&#45;&gt;Node9</title>
<path fill="none" stroke="midnightblue" d="M491.54,-117.86C498.24,-107.36 506.41,-94.55 512.89,-84.41"/>
<polygon fill="midnightblue" stroke="midnightblue" points="516.03,-85.99 518.46,-75.67 510.13,-82.22 516.03,-85.99"/>
</g>
</g>
</svg>
