<?xml version="1.0" encoding="UTF-8" standalone="no"?>
<!DOCTYPE svg PUBLIC "-//W3C//DTD SVG 1.1//EN"
 "http://www.w3.org/Graphics/SVG/1.1/DTD/svg11.dtd">
<!-- Generated by graphviz version 2.43.0 (0)
 -->
<!-- Title: /home/kali/projects/vsomeip/implementation/e2e_protection/include/e2e/profile/profile_custom/profile_custom.hpp Pages: 1 -->
<svg width="317pt" height="184pt"
 viewBox="0.00 0.00 316.50 184.00" xmlns="http://www.w3.org/2000/svg" xmlns:xlink="http://www.w3.org/1999/xlink">
<g id="graph0" class="graph" transform="scale(1 1) rotate(0) translate(4 180)">
<title>/home/kali/projects/vsomeip/implementation/e2e_protection/include/e2e/profile/profile_custom/profile_custom.hpp</title>
<polygon fill="white" stroke="transparent" points="-4,4 -4,-180 312.5,-180 312.5,4 -4,4"/>
<!-- Node1 -->
<g id="node1" class="node">
<title>Node1</title>
<g id="a_node1"><a xlink:title=" ">
<polygon fill="#bfbfbf" stroke="black" points="3,-112.5 3,-175.5 149,-175.5 149,-112.5 3,-112.5"/>
<text text-anchor="start" x="11" y="-163.5" font-family="Helvetica,sans-Serif" font-size="10.00">/home/kali/projects</text>
<text text-anchor="start" x="11" y="-152.5" font-family="Helvetica,sans-Serif" font-size="10.00">/vsomeip/implementation</text>
<text text-anchor="start" x="11" y="-141.5" font-family="Helvetica,sans-Serif" font-size="10.00">/e2e_protection/include</text>
<text text-anchor="start" x="11" y="-130.5" font-family="Helvetica,sans-Serif" font-size="10.00">/e2e/profile/profile_custom</text>
<text text-anchor="middle" x="76" y="-119.5" font-family="Helvetica,sans-Serif" font-size="10.00">/profile_custom.hpp</text>
</a>
</g>
</g>
<!-- Node2 -->
<g id="node2" class="node">
<title>Node2</title>
<g id="a_node2"><a xlink:title=" ">
<polygon fill="white" stroke="#bfbfbf" points="0,-0.5 0,-19.5 50,-19.5 50,-0.5 0,-0.5"/>
<text text-anchor="middle" x="25" y="-7.5" font-family="Helvetica,sans-Serif" font-size="10.00">cstdint</text>
</a>
</g>
</g>
<!-- Node1&#45;&gt;Node2 -->
<g id="edge1" class="edge">
<title>Node1&#45;&gt;Node2</title>
<path fill="none" stroke="midnightblue" d="M34.57,-112.38C23.87,-102.13 13.76,-89.76 8,-76 1.54,-60.57 7.66,-42.02 14.28,-28.7"/>
<polygon fill="midnightblue" stroke="midnightblue" points="17.5,-30.11 19.25,-19.66 11.37,-26.74 17.5,-30.11"/>
</g>
<!-- Node3 -->
<g id="node3" class="node">
<title>Node3</title>
<g id="a_node3"><a xlink:title=" ">
<polygon fill="white" stroke="#bfbfbf" points="17,-56.5 17,-75.5 135,-75.5 135,-56.5 17,-56.5"/>
<text text-anchor="middle" x="76" y="-63.5" font-family="Helvetica,sans-Serif" font-size="10.00">vsomeip/defines.hpp</text>
</a>
</g>
</g>
<!-- Node1&#45;&gt;Node3 -->
<g id="edge2" class="edge">
<title>Node1&#45;&gt;Node3</title>
<path fill="none" stroke="midnightblue" d="M76,-112.09C76,-103.15 76,-93.67 76,-85.72"/>
<polygon fill="midnightblue" stroke="midnightblue" points="79.5,-85.72 76,-75.72 72.5,-85.72 79.5,-85.72"/>
</g>
<!-- Node4 -->
<g id="node4" class="node">
<title>Node4</title>
<g id="a_node4"><a xlink:href="e2e__protection_2include_2buffer_2buffer_8hpp.html" target="_top" xlink:title=" ">
<polygon fill="white" stroke="black" points="153,-56.5 153,-75.5 277,-75.5 277,-56.5 153,-56.5"/>
<text text-anchor="middle" x="215" y="-63.5" font-family="Helvetica,sans-Serif" font-size="10.00">../../../buffer/buffer.hpp</text>
</a>
</g>
</g>
<!-- Node1&#45;&gt;Node4 -->
<g id="edge3" class="edge">
<title>Node1&#45;&gt;Node4</title>
<path fill="none" stroke="midnightblue" d="M132.14,-112.31C152.42,-101.22 174.28,-89.27 190.45,-80.42"/>
<polygon fill="midnightblue" stroke="midnightblue" points="192.16,-83.48 199.26,-75.61 188.81,-77.33 192.16,-83.48"/>
</g>
<!-- Node4&#45;&gt;Node2 -->
<g id="edge5" class="edge">
<title>Node4&#45;&gt;Node2</title>
<path fill="none" stroke="midnightblue" d="M184.89,-56.44C150.99,-46.81 95.96,-31.17 60.12,-20.98"/>
<polygon fill="midnightblue" stroke="midnightblue" points="60.69,-17.5 50.11,-18.14 58.77,-24.24 60.69,-17.5"/>
</g>
<!-- Node5 -->
<g id="node5" class="node">
<title>Node5</title>
<g id="a_node5"><a xlink:title=" ">
<polygon fill="white" stroke="#bfbfbf" points="103.5,-0.5 103.5,-19.5 168.5,-19.5 168.5,-0.5 103.5,-0.5"/>
<text text-anchor="middle" x="136" y="-7.5" font-family="Helvetica,sans-Serif" font-size="10.00">stdexcept</text>
</a>
</g>
</g>
<!-- Node4&#45;&gt;Node5 -->
<g id="edge4" class="edge">
<title>Node4&#45;&gt;Node5</title>
<path fill="none" stroke="midnightblue" d="M202.31,-56.32C190.1,-47.98 171.42,-35.21 157,-25.35"/>
<polygon fill="midnightblue" stroke="midnightblue" points="158.89,-22.41 148.66,-19.65 154.94,-28.19 158.89,-22.41"/>
</g>
<!-- Node6 -->
<g id="node6" class="node">
<title>Node6</title>
<g id="a_node6"><a xlink:title=" ">
<polygon fill="white" stroke="#bfbfbf" points="186.5,-0.5 186.5,-19.5 243.5,-19.5 243.5,-0.5 186.5,-0.5"/>
<text text-anchor="middle" x="215" y="-7.5" font-family="Helvetica,sans-Serif" font-size="10.00">ostream</text>
</a>
</g>
</g>
<!-- Node4&#45;&gt;Node6 -->
<g id="edge6" class="edge">
<title>Node4&#45;&gt;Node6</title>
<path fill="none" stroke="midnightblue" d="M215,-56.08C215,-49.01 215,-38.86 215,-29.99"/>
<polygon fill="midnightblue" stroke="midnightblue" points="218.5,-29.75 215,-19.75 211.5,-29.75 218.5,-29.75"/>
</g>
<!-- Node7 -->
<g id="node7" class="node">
<title>Node7</title>
<g id="a_node7"><a xlink:title=" ">
<polygon fill="white" stroke="#bfbfbf" points="261.5,-0.5 261.5,-19.5 308.5,-19.5 308.5,-0.5 261.5,-0.5"/>
<text text-anchor="middle" x="285" y="-7.5" font-family="Helvetica,sans-Serif" font-size="10.00">vector</text>
</a>
</g>
</g>
<!-- Node4&#45;&gt;Node7 -->
<g id="edge7" class="edge">
<title>Node4&#45;&gt;Node7</title>
<path fill="none" stroke="midnightblue" d="M226.25,-56.32C236.8,-48.18 252.8,-35.84 265.44,-26.09"/>
<polygon fill="midnightblue" stroke="midnightblue" points="267.77,-28.71 273.55,-19.83 263.49,-23.17 267.77,-28.71"/>
</g>
</g>
</svg>
