<?xml version="1.0" encoding="UTF-8" standalone="no"?>
<!DOCTYPE svg PUBLIC "-//W3C//DTD SVG 1.1//EN"
 "http://www.w3.org/Graphics/SVG/1.1/DTD/svg11.dtd">
<!-- Generated by graphviz version 2.43.0 (0)
 -->
<!-- Title: /home/kali/projects/vsomeip/implementation/e2e_protection/src/e2e/profile/profile01/protector.cpp Pages: 1 -->
<svg width="1055pt" height="340pt"
 viewBox="0.00 0.00 1054.50 340.00" xmlns="http://www.w3.org/2000/svg" xmlns:xlink="http://www.w3.org/1999/xlink">
<g id="graph0" class="graph" transform="scale(1 1) rotate(0) translate(4 336)">
<title>/home/kali/projects/vsomeip/implementation/e2e_protection/src/e2e/profile/profile01/protector.cpp</title>
<polygon fill="white" stroke="transparent" points="-4,4 -4,-336 1050.5,-336 1050.5,4 -4,4"/>
<!-- Node1 -->
<g id="node1" class="node">
<title>Node1</title>
<g id="a_node1"><a xlink:title=" ">
<polygon fill="#bfbfbf" stroke="black" points="770,-279.5 770,-331.5 933,-331.5 933,-279.5 770,-279.5"/>
<text text-anchor="start" x="778" y="-319.5" font-family="Helvetica,sans-Serif" font-size="10.00">/home/kali/projects</text>
<text text-anchor="start" x="778" y="-308.5" font-family="Helvetica,sans-Serif" font-size="10.00">/vsomeip/implementation</text>
<text text-anchor="start" x="778" y="-297.5" font-family="Helvetica,sans-Serif" font-size="10.00">/e2e_protection/src/e2e</text>
<text text-anchor="middle" x="851.5" y="-286.5" font-family="Helvetica,sans-Serif" font-size="10.00">/profile/profile01/protector.cpp</text>
</a>
</g>
</g>
<!-- Node2 -->
<g id="node2" class="node">
<title>Node2</title>
<g id="a_node2"><a xlink:href="profile01_2protector_8hpp.html" target="_top" xlink:title=" ">
<polygon fill="white" stroke="black" points="360,-190.5 360,-242.5 477,-242.5 477,-190.5 360,-190.5"/>
<text text-anchor="start" x="368" y="-230.5" font-family="Helvetica,sans-Serif" font-size="10.00">../../../../../e2e</text>
<text text-anchor="start" x="368" y="-219.5" font-family="Helvetica,sans-Serif" font-size="10.00">_protection/include</text>
<text text-anchor="start" x="368" y="-208.5" font-family="Helvetica,sans-Serif" font-size="10.00">/e2e/profile/profile01</text>
<text text-anchor="middle" x="418.5" y="-197.5" font-family="Helvetica,sans-Serif" font-size="10.00">/protector.hpp</text>
</a>
</g>
</g>
<!-- Node1&#45;&gt;Node2 -->
<g id="edge1" class="edge">
<title>Node1&#45;&gt;Node2</title>
<path fill="none" stroke="midnightblue" d="M769.8,-288.08C688.18,-271.68 564.1,-246.75 487.33,-231.33"/>
<polygon fill="midnightblue" stroke="midnightblue" points="487.78,-227.85 477.29,-229.31 486.4,-234.71 487.78,-227.85"/>
</g>
<!-- Node14 -->
<g id="node14" class="node">
<title>Node14</title>
<g id="a_node14"><a xlink:href="logger_8hpp.html" target="_top" xlink:title=" ">
<polygon fill="white" stroke="black" points="641,-207 641,-226 794,-226 794,-207 641,-207"/>
<text text-anchor="middle" x="717.5" y="-214" font-family="Helvetica,sans-Serif" font-size="10.00">vsomeip/internal/logger.hpp</text>
</a>
</g>
</g>
<!-- Node1&#45;&gt;Node14 -->
<g id="edge16" class="edge">
<title>Node1&#45;&gt;Node14</title>
<path fill="none" stroke="midnightblue" d="M812.74,-279.34C788.85,-263.83 759.1,-244.51 739.27,-231.63"/>
<polygon fill="midnightblue" stroke="midnightblue" points="740.95,-228.55 730.66,-226.04 737.14,-234.42 740.95,-228.55"/>
</g>
<!-- Node16 -->
<g id="node16" class="node">
<title>Node16</title>
<g id="a_node16"><a xlink:title=" ">
<polygon fill="white" stroke="#bfbfbf" points="868.5,-129 868.5,-148 924.5,-148 924.5,-129 868.5,-129"/>
<text text-anchor="middle" x="896.5" y="-136" font-family="Helvetica,sans-Serif" font-size="10.00">sstream</text>
</a>
</g>
</g>
<!-- Node1&#45;&gt;Node16 -->
<g id="edge25" class="edge">
<title>Node1&#45;&gt;Node16</title>
<path fill="none" stroke="midnightblue" d="M842.52,-279.24C835.51,-255.25 828.9,-218.68 841.5,-190 848.05,-175.1 861.4,-162.67 873.31,-153.87"/>
<polygon fill="midnightblue" stroke="midnightblue" points="875.38,-156.69 881.6,-148.12 871.39,-150.94 875.38,-156.69"/>
</g>
<!-- Node19 -->
<g id="node19" class="node">
<title>Node19</title>
<g id="a_node19"><a xlink:title=" ">
<polygon fill="white" stroke="#bfbfbf" points="850.5,-207 850.5,-226 910.5,-226 910.5,-207 850.5,-207"/>
<text text-anchor="middle" x="880.5" y="-214" font-family="Helvetica,sans-Serif" font-size="10.00">iostream</text>
</a>
</g>
</g>
<!-- Node1&#45;&gt;Node19 -->
<g id="edge24" class="edge">
<title>Node1&#45;&gt;Node19</title>
<path fill="none" stroke="midnightblue" d="M859.89,-279.34C864.49,-265.52 870.11,-248.68 874.31,-236.06"/>
<polygon fill="midnightblue" stroke="midnightblue" points="877.74,-236.84 877.58,-226.25 871.1,-234.63 877.74,-236.84"/>
</g>
<!-- Node20 -->
<g id="node20" class="node">
<title>Node20</title>
<g id="a_node20"><a xlink:title=" ">
<polygon fill="white" stroke="#bfbfbf" points="928.5,-207 928.5,-226 972.5,-226 972.5,-207 928.5,-207"/>
<text text-anchor="middle" x="950.5" y="-214" font-family="Helvetica,sans-Serif" font-size="10.00">string</text>
</a>
</g>
</g>
<!-- Node1&#45;&gt;Node20 -->
<g id="edge26" class="edge">
<title>Node1&#45;&gt;Node20</title>
<path fill="none" stroke="midnightblue" d="M880.13,-279.34C897.13,-264.4 918.14,-245.94 932.76,-233.09"/>
<polygon fill="midnightblue" stroke="midnightblue" points="935.34,-235.48 940.55,-226.25 930.72,-230.22 935.34,-235.48"/>
</g>
<!-- Node21 -->
<g id="node21" class="node">
<title>Node21</title>
<g id="a_node21"><a xlink:title=" ">
<polygon fill="white" stroke="#bfbfbf" points="990.5,-207 990.5,-226 1046.5,-226 1046.5,-207 990.5,-207"/>
<text text-anchor="middle" x="1018.5" y="-214" font-family="Helvetica,sans-Serif" font-size="10.00">iomanip</text>
</a>
</g>
</g>
<!-- Node1&#45;&gt;Node21 -->
<g id="edge27" class="edge">
<title>Node1&#45;&gt;Node21</title>
<path fill="none" stroke="midnightblue" d="M909.8,-279.36C932.59,-268.91 958.68,-256.15 981.5,-243 987.22,-239.71 993.19,-235.81 998.64,-232.06"/>
<polygon fill="midnightblue" stroke="midnightblue" points="1001.01,-234.67 1007.15,-226.03 996.96,-228.96 1001.01,-234.67"/>
</g>
<!-- Node3 -->
<g id="node3" class="node">
<title>Node3</title>
<g id="a_node3"><a xlink:title=" ">
<polygon fill="white" stroke="#bfbfbf" points="440.5,-129 440.5,-148 488.5,-148 488.5,-129 440.5,-129"/>
<text text-anchor="middle" x="464.5" y="-136" font-family="Helvetica,sans-Serif" font-size="10.00">mutex</text>
</a>
</g>
</g>
<!-- Node2&#45;&gt;Node3 -->
<g id="edge2" class="edge">
<title>Node2&#45;&gt;Node3</title>
<path fill="none" stroke="midnightblue" d="M433.82,-190.19C440.4,-179.31 447.94,-166.86 453.89,-157.02"/>
<polygon fill="midnightblue" stroke="midnightblue" points="457.05,-158.58 459.23,-148.21 451.06,-154.95 457.05,-158.58"/>
</g>
<!-- Node4 -->
<g id="node4" class="node">
<title>Node4</title>
<g id="a_node4"><a xlink:href="profile__01_8hpp.html" target="_top" xlink:title=" ">
<polygon fill="white" stroke="black" points="320.5,-123.5 320.5,-153.5 422.5,-153.5 422.5,-123.5 320.5,-123.5"/>
<text text-anchor="start" x="328.5" y="-141.5" font-family="Helvetica,sans-Serif" font-size="10.00">../profile01/profile</text>
<text text-anchor="middle" x="371.5" y="-130.5" font-family="Helvetica,sans-Serif" font-size="10.00">_01.hpp</text>
</a>
</g>
</g>
<!-- Node2&#45;&gt;Node4 -->
<g id="edge3" class="edge">
<title>Node2&#45;&gt;Node4</title>
<path fill="none" stroke="midnightblue" d="M402.85,-190.19C397.3,-181.22 391.09,-171.18 385.67,-162.42"/>
<polygon fill="midnightblue" stroke="midnightblue" points="388.61,-160.51 380.37,-153.85 382.65,-164.19 388.61,-160.51"/>
</g>
<!-- Node11 -->
<g id="node11" class="node">
<title>Node11</title>
<g id="a_node11"><a xlink:href="profile__interface_2protector_8hpp.html" target="_top" xlink:title=" ">
<polygon fill="white" stroke="black" points="193,-123.5 193,-153.5 298,-153.5 298,-123.5 193,-123.5"/>
<text text-anchor="start" x="201" y="-141.5" font-family="Helvetica,sans-Serif" font-size="10.00">../profile_interface</text>
<text text-anchor="middle" x="245.5" y="-130.5" font-family="Helvetica,sans-Serif" font-size="10.00">/protector.hpp</text>
</a>
</g>
</g>
<!-- Node2&#45;&gt;Node11 -->
<g id="edge11" class="edge">
<title>Node2&#45;&gt;Node11</title>
<path fill="none" stroke="midnightblue" d="M361.37,-190.4C337.09,-179.74 309.3,-167.53 287.02,-157.74"/>
<polygon fill="midnightblue" stroke="midnightblue" points="288.4,-154.52 277.84,-153.71 285.59,-160.93 288.4,-154.52"/>
</g>
<!-- Node5 -->
<g id="node5" class="node">
<title>Node5</title>
<g id="a_node5"><a xlink:title=" ">
<polygon fill="white" stroke="#bfbfbf" points="437.5,-0.5 437.5,-19.5 487.5,-19.5 487.5,-0.5 437.5,-0.5"/>
<text text-anchor="middle" x="462.5" y="-7.5" font-family="Helvetica,sans-Serif" font-size="10.00">cstdint</text>
</a>
</g>
</g>
<!-- Node4&#45;&gt;Node5 -->
<g id="edge4" class="edge">
<title>Node4&#45;&gt;Node5</title>
<path fill="none" stroke="midnightblue" d="M403.72,-123.47C419.28,-115.09 436.84,-102.93 447.5,-87 458.81,-70.09 461.99,-46.62 462.7,-30.26"/>
<polygon fill="midnightblue" stroke="midnightblue" points="466.21,-29.84 462.86,-19.79 459.21,-29.73 466.21,-29.84"/>
</g>
<!-- Node6 -->
<g id="node6" class="node">
<title>Node6</title>
<g id="a_node6"><a xlink:title=" ">
<polygon fill="white" stroke="#bfbfbf" points="494.5,-62 494.5,-81 612.5,-81 612.5,-62 494.5,-62"/>
<text text-anchor="middle" x="553.5" y="-69" font-family="Helvetica,sans-Serif" font-size="10.00">vsomeip/defines.hpp</text>
</a>
</g>
</g>
<!-- Node4&#45;&gt;Node6 -->
<g id="edge5" class="edge">
<title>Node4&#45;&gt;Node6</title>
<path fill="none" stroke="midnightblue" d="M410.99,-123.4C443.63,-111.74 489.46,-95.37 520.25,-84.38"/>
<polygon fill="midnightblue" stroke="midnightblue" points="521.44,-87.67 529.68,-81.01 519.09,-81.07 521.44,-87.67"/>
</g>
<!-- Node7 -->
<g id="node7" class="node">
<title>Node7</title>
<g id="a_node7"><a xlink:href="e2e__protection_2include_2buffer_2buffer_8hpp.html" target="_top" xlink:title=" ">
<polygon fill="white" stroke="black" points="314.5,-62 314.5,-81 438.5,-81 438.5,-62 314.5,-62"/>
<text text-anchor="middle" x="376.5" y="-69" font-family="Helvetica,sans-Serif" font-size="10.00">../../../buffer/buffer.hpp</text>
</a>
</g>
</g>
<!-- Node4&#45;&gt;Node7 -->
<g id="edge6" class="edge">
<title>Node4&#45;&gt;Node7</title>
<path fill="none" stroke="midnightblue" d="M372.58,-123.4C373.31,-113.96 374.27,-101.45 375.06,-91.19"/>
<polygon fill="midnightblue" stroke="midnightblue" points="378.55,-91.43 375.83,-81.19 371.57,-90.9 378.55,-91.43"/>
</g>
<!-- Node7&#45;&gt;Node5 -->
<g id="edge8" class="edge">
<title>Node7&#45;&gt;Node5</title>
<path fill="none" stroke="midnightblue" d="M388.82,-61.98C402.62,-52.43 425.2,-36.81 441.73,-25.37"/>
<polygon fill="midnightblue" stroke="midnightblue" points="443.97,-28.08 450.2,-19.51 439.99,-22.32 443.97,-28.08"/>
</g>
<!-- Node8 -->
<g id="node8" class="node">
<title>Node8</title>
<g id="a_node8"><a xlink:title=" ">
<polygon fill="white" stroke="#bfbfbf" points="347,-0.5 347,-19.5 412,-19.5 412,-0.5 347,-0.5"/>
<text text-anchor="middle" x="379.5" y="-7.5" font-family="Helvetica,sans-Serif" font-size="10.00">stdexcept</text>
</a>
</g>
</g>
<!-- Node7&#45;&gt;Node8 -->
<g id="edge7" class="edge">
<title>Node7&#45;&gt;Node8</title>
<path fill="none" stroke="midnightblue" d="M376.93,-61.98C377.35,-53.58 378.01,-40.48 378.56,-29.66"/>
<polygon fill="midnightblue" stroke="midnightblue" points="382.06,-29.67 379.07,-19.51 375.07,-29.32 382.06,-29.67"/>
</g>
<!-- Node9 -->
<g id="node9" class="node">
<title>Node9</title>
<g id="a_node9"><a xlink:title=" ">
<polygon fill="white" stroke="#bfbfbf" points="660,-0.5 660,-19.5 717,-19.5 717,-0.5 660,-0.5"/>
<text text-anchor="middle" x="688.5" y="-7.5" font-family="Helvetica,sans-Serif" font-size="10.00">ostream</text>
</a>
</g>
</g>
<!-- Node7&#45;&gt;Node9 -->
<g id="edge9" class="edge">
<title>Node7&#45;&gt;Node9</title>
<path fill="none" stroke="midnightblue" d="M421.2,-61.98C482.56,-50.27 591.84,-29.43 649.85,-18.37"/>
<polygon fill="midnightblue" stroke="midnightblue" points="650.55,-21.8 659.72,-16.49 649.24,-14.92 650.55,-21.8"/>
</g>
<!-- Node10 -->
<g id="node10" class="node">
<title>Node10</title>
<g id="a_node10"><a xlink:title=" ">
<polygon fill="white" stroke="#bfbfbf" points="282,-0.5 282,-19.5 329,-19.5 329,-0.5 282,-0.5"/>
<text text-anchor="middle" x="305.5" y="-7.5" font-family="Helvetica,sans-Serif" font-size="10.00">vector</text>
</a>
</g>
</g>
<!-- Node7&#45;&gt;Node10 -->
<g id="edge10" class="edge">
<title>Node7&#45;&gt;Node10</title>
<path fill="none" stroke="midnightblue" d="M366.33,-61.98C355.15,-52.61 336.98,-37.38 323.41,-26.01"/>
<polygon fill="midnightblue" stroke="midnightblue" points="325.57,-23.25 315.65,-19.51 321.07,-28.61 325.57,-23.25"/>
</g>
<!-- Node11&#45;&gt;Node7 -->
<g id="edge13" class="edge">
<title>Node11&#45;&gt;Node7</title>
<path fill="none" stroke="midnightblue" d="M273.93,-123.4C296.61,-112.14 328.13,-96.5 350.22,-85.54"/>
<polygon fill="midnightblue" stroke="midnightblue" points="351.95,-88.59 359.36,-81.01 348.84,-82.32 351.95,-88.59"/>
</g>
<!-- Node12 -->
<g id="node12" class="node">
<title>Node12</title>
<g id="a_node12"><a xlink:title=" ">
<polygon fill="white" stroke="#bfbfbf" points="0,-62 0,-81 159,-81 159,-62 0,-62"/>
<text text-anchor="middle" x="79.5" y="-69" font-family="Helvetica,sans-Serif" font-size="10.00">vsomeip/primitive_types.hpp</text>
</a>
</g>
</g>
<!-- Node11&#45;&gt;Node12 -->
<g id="edge12" class="edge">
<title>Node11&#45;&gt;Node12</title>
<path fill="none" stroke="midnightblue" d="M209.48,-123.4C179.97,-111.84 138.64,-95.66 110.56,-84.66"/>
<polygon fill="midnightblue" stroke="midnightblue" points="111.81,-81.39 101.23,-81.01 109.26,-87.91 111.81,-81.39"/>
</g>
<!-- Node13 -->
<g id="node13" class="node">
<title>Node13</title>
<g id="a_node13"><a xlink:href="profile__interface_8hpp.html" target="_top" xlink:title=" ">
<polygon fill="white" stroke="black" points="176.5,-56.5 176.5,-86.5 296.5,-86.5 296.5,-56.5 176.5,-56.5"/>
<text text-anchor="start" x="184.5" y="-74.5" font-family="Helvetica,sans-Serif" font-size="10.00">../profile_interface</text>
<text text-anchor="middle" x="236.5" y="-63.5" font-family="Helvetica,sans-Serif" font-size="10.00">/profile_interface.hpp</text>
</a>
</g>
</g>
<!-- Node11&#45;&gt;Node13 -->
<g id="edge14" class="edge">
<title>Node11&#45;&gt;Node13</title>
<path fill="none" stroke="midnightblue" d="M243.55,-123.4C242.46,-115.56 241.08,-105.6 239.83,-96.57"/>
<polygon fill="midnightblue" stroke="midnightblue" points="243.29,-96 238.45,-86.58 236.35,-96.96 243.29,-96"/>
</g>
<!-- Node13&#45;&gt;Node5 -->
<g id="edge15" class="edge">
<title>Node13&#45;&gt;Node5</title>
<path fill="none" stroke="midnightblue" d="M289.77,-56.47C332.36,-45.26 390.82,-29.87 427.63,-20.18"/>
<polygon fill="midnightblue" stroke="midnightblue" points="428.62,-23.54 437.4,-17.61 426.84,-16.77 428.62,-23.54"/>
</g>
<!-- Node14&#45;&gt;Node3 -->
<g id="edge19" class="edge">
<title>Node14&#45;&gt;Node3</title>
<path fill="none" stroke="midnightblue" d="M680.8,-206.93C636.72,-196.25 560.8,-176.63 497.5,-154 495.84,-153.41 494.14,-152.77 492.44,-152.1"/>
<polygon fill="midnightblue" stroke="midnightblue" points="493.39,-148.71 482.81,-148.1 490.7,-155.17 493.39,-148.71"/>
</g>
<!-- Node14&#45;&gt;Node5 -->
<g id="edge18" class="edge">
<title>Node14&#45;&gt;Node5</title>
<path fill="none" stroke="midnightblue" d="M731.76,-206.95C756.9,-190.78 804.55,-154.49 783.5,-123 719.66,-27.52 567.41,-12.48 498.03,-10.76"/>
<polygon fill="midnightblue" stroke="midnightblue" points="497.69,-7.25 487.64,-10.59 497.58,-14.25 497.69,-7.25"/>
</g>
<!-- Node14&#45;&gt;Node9 -->
<g id="edge20" class="edge">
<title>Node14&#45;&gt;Node9</title>
<path fill="none" stroke="midnightblue" d="M744.91,-206.96C768.61,-197.96 801.36,-181.23 816.5,-154 837.67,-115.93 841.68,-91.54 816.5,-56 796.4,-27.63 756.93,-17.02 727.11,-13.11"/>
<polygon fill="midnightblue" stroke="midnightblue" points="727.33,-9.62 717.01,-11.99 726.56,-16.57 727.33,-9.62"/>
</g>
<!-- Node15 -->
<g id="node15" class="node">
<title>Node15</title>
<g id="a_node15"><a xlink:title=" ">
<polygon fill="white" stroke="#bfbfbf" points="506.5,-129 506.5,-148 556.5,-148 556.5,-129 506.5,-129"/>
<text text-anchor="middle" x="531.5" y="-136" font-family="Helvetica,sans-Serif" font-size="10.00">chrono</text>
</a>
</g>
</g>
<!-- Node14&#45;&gt;Node15 -->
<g id="edge17" class="edge">
<title>Node14&#45;&gt;Node15</title>
<path fill="none" stroke="midnightblue" d="M695.8,-206.87C666.26,-195.08 611.77,-173.22 565.5,-154 564.09,-153.42 562.65,-152.81 561.2,-152.2"/>
<polygon fill="midnightblue" stroke="midnightblue" points="562.18,-148.82 551.61,-148.15 559.46,-155.27 562.18,-148.82"/>
</g>
<!-- Node14&#45;&gt;Node16 -->
<g id="edge21" class="edge">
<title>Node14&#45;&gt;Node16</title>
<path fill="none" stroke="midnightblue" d="M737.69,-206.93C769.19,-193.55 830.23,-167.64 866.78,-152.12"/>
<polygon fill="midnightblue" stroke="midnightblue" points="868.55,-155.17 876.39,-148.04 865.82,-148.73 868.55,-155.17"/>
</g>
<!-- Node17 -->
<g id="node17" class="node">
<title>Node17</title>
<g id="a_node17"><a xlink:title=" ">
<polygon fill="white" stroke="#bfbfbf" points="575,-129 575,-148 642,-148 642,-129 575,-129"/>
<text text-anchor="middle" x="608.5" y="-136" font-family="Helvetica,sans-Serif" font-size="10.00">streambuf</text>
</a>
</g>
</g>
<!-- Node14&#45;&gt;Node17 -->
<g id="edge22" class="edge">
<title>Node14&#45;&gt;Node17</title>
<path fill="none" stroke="midnightblue" d="M705,-206.78C686.52,-193.9 651.69,-169.62 629.32,-154.02"/>
<polygon fill="midnightblue" stroke="midnightblue" points="631.06,-150.96 620.86,-148.12 627.06,-156.71 631.06,-150.96"/>
</g>
<!-- Node18 -->
<g id="node18" class="node">
<title>Node18</title>
<g id="a_node18"><a xlink:title=" ">
<polygon fill="white" stroke="#bfbfbf" points="660.5,-129 660.5,-148 774.5,-148 774.5,-129 660.5,-129"/>
<text text-anchor="middle" x="717.5" y="-136" font-family="Helvetica,sans-Serif" font-size="10.00">vsomeip/export.hpp</text>
</a>
</g>
</g>
<!-- Node14&#45;&gt;Node18 -->
<g id="edge23" class="edge">
<title>Node14&#45;&gt;Node18</title>
<path fill="none" stroke="midnightblue" d="M717.5,-206.78C717.5,-194.99 717.5,-173.63 717.5,-158.14"/>
<polygon fill="midnightblue" stroke="midnightblue" points="721,-158.12 717.5,-148.12 714,-158.12 721,-158.12"/>
</g>
</g>
</svg>
