<?xml version="1.0" encoding="UTF-8" standalone="no"?>
<!DOCTYPE svg PUBLIC "-//W3C//DTD SVG 1.1//EN"
 "http://www.w3.org/Graphics/SVG/1.1/DTD/svg11.dtd">
<!-- Generated by graphviz version 2.43.0 (0)
 -->
<!-- Title: /home/kali/projects/vsomeip/implementation/e2e_protection/include/e2e/profile/profile01/profile_01.hpp Pages: 1 -->
<svg width="335pt" height="173pt"
 viewBox="0.00 0.00 335.00 173.00" xmlns="http://www.w3.org/2000/svg" xmlns:xlink="http://www.w3.org/1999/xlink">
<g id="graph0" class="graph" transform="scale(1 1) rotate(0) translate(4 169)">
<title>/home/kali/projects/vsomeip/implementation/e2e_protection/include/e2e/profile/profile01/profile_01.hpp</title>
<polygon fill="white" stroke="transparent" points="-4,4 -4,-169 331,-169 331,4 -4,4"/>
<!-- Node1 -->
<g id="node1" class="node">
<title>Node1</title>
<g id="a_node1"><a xlink:title=" ">
<polygon fill="#bfbfbf" stroke="black" points="0,-112.5 0,-164.5 189,-164.5 189,-112.5 0,-112.5"/>
<text text-anchor="start" x="8" y="-152.5" font-family="Helvetica,sans-Serif" font-size="10.00">/home/kali/projects</text>
<text text-anchor="start" x="8" y="-141.5" font-family="Helvetica,sans-Serif" font-size="10.00">/vsomeip/implementation</text>
<text text-anchor="start" x="8" y="-130.5" font-family="Helvetica,sans-Serif" font-size="10.00">/e2e_protection/include</text>
<text text-anchor="middle" x="94.5" y="-119.5" font-family="Helvetica,sans-Serif" font-size="10.00">/e2e/profile/profile01/profile_01.hpp</text>
</a>
</g>
</g>
<!-- Node2 -->
<g id="node2" class="node">
<title>Node2</title>
<g id="a_node2"><a xlink:title=" ">
<polygon fill="white" stroke="#bfbfbf" points="18.5,-0.5 18.5,-19.5 68.5,-19.5 68.5,-0.5 18.5,-0.5"/>
<text text-anchor="middle" x="43.5" y="-7.5" font-family="Helvetica,sans-Serif" font-size="10.00">cstdint</text>
</a>
</g>
</g>
<!-- Node1&#45;&gt;Node2 -->
<g id="edge1" class="edge">
<title>Node1&#45;&gt;Node2</title>
<path fill="none" stroke="midnightblue" d="M56,-112.43C44.28,-102.61 32.83,-90.26 26.5,-76 19.71,-60.71 25.87,-42.15 32.59,-28.78"/>
<polygon fill="midnightblue" stroke="midnightblue" points="35.84,-30.15 37.64,-19.71 29.72,-26.75 35.84,-30.15"/>
</g>
<!-- Node3 -->
<g id="node3" class="node">
<title>Node3</title>
<g id="a_node3"><a xlink:title=" ">
<polygon fill="white" stroke="#bfbfbf" points="35.5,-56.5 35.5,-75.5 153.5,-75.5 153.5,-56.5 35.5,-56.5"/>
<text text-anchor="middle" x="94.5" y="-63.5" font-family="Helvetica,sans-Serif" font-size="10.00">vsomeip/defines.hpp</text>
</a>
</g>
</g>
<!-- Node1&#45;&gt;Node3 -->
<g id="edge2" class="edge">
<title>Node1&#45;&gt;Node3</title>
<path fill="none" stroke="midnightblue" d="M94.5,-112.45C94.5,-103.73 94.5,-94.1 94.5,-85.96"/>
<polygon fill="midnightblue" stroke="midnightblue" points="98,-85.7 94.5,-75.7 91,-85.7 98,-85.7"/>
</g>
<!-- Node4 -->
<g id="node4" class="node">
<title>Node4</title>
<g id="a_node4"><a xlink:href="e2e__protection_2include_2buffer_2buffer_8hpp.html" target="_top" xlink:title=" ">
<polygon fill="white" stroke="black" points="171.5,-56.5 171.5,-75.5 295.5,-75.5 295.5,-56.5 171.5,-56.5"/>
<text text-anchor="middle" x="233.5" y="-63.5" font-family="Helvetica,sans-Serif" font-size="10.00">../../../buffer/buffer.hpp</text>
</a>
</g>
</g>
<!-- Node1&#45;&gt;Node4 -->
<g id="edge3" class="edge">
<title>Node1&#45;&gt;Node4</title>
<path fill="none" stroke="midnightblue" d="M143.9,-112.45C165.36,-101.56 189.62,-89.25 207.48,-80.2"/>
<polygon fill="midnightblue" stroke="midnightblue" points="209.35,-83.17 216.69,-75.53 206.19,-76.93 209.35,-83.17"/>
</g>
<!-- Node4&#45;&gt;Node2 -->
<g id="edge5" class="edge">
<title>Node4&#45;&gt;Node2</title>
<path fill="none" stroke="midnightblue" d="M203.39,-56.44C169.49,-46.81 114.46,-31.17 78.62,-20.98"/>
<polygon fill="midnightblue" stroke="midnightblue" points="79.19,-17.5 68.61,-18.14 77.27,-24.24 79.19,-17.5"/>
</g>
<!-- Node5 -->
<g id="node5" class="node">
<title>Node5</title>
<g id="a_node5"><a xlink:title=" ">
<polygon fill="white" stroke="#bfbfbf" points="122,-0.5 122,-19.5 187,-19.5 187,-0.5 122,-0.5"/>
<text text-anchor="middle" x="154.5" y="-7.5" font-family="Helvetica,sans-Serif" font-size="10.00">stdexcept</text>
</a>
</g>
</g>
<!-- Node4&#45;&gt;Node5 -->
<g id="edge4" class="edge">
<title>Node4&#45;&gt;Node5</title>
<path fill="none" stroke="midnightblue" d="M220.81,-56.32C208.6,-47.98 189.92,-35.21 175.5,-25.35"/>
<polygon fill="midnightblue" stroke="midnightblue" points="177.39,-22.41 167.16,-19.65 173.44,-28.19 177.39,-22.41"/>
</g>
<!-- Node6 -->
<g id="node6" class="node">
<title>Node6</title>
<g id="a_node6"><a xlink:title=" ">
<polygon fill="white" stroke="#bfbfbf" points="205,-0.5 205,-19.5 262,-19.5 262,-0.5 205,-0.5"/>
<text text-anchor="middle" x="233.5" y="-7.5" font-family="Helvetica,sans-Serif" font-size="10.00">ostream</text>
</a>
</g>
</g>
<!-- Node4&#45;&gt;Node6 -->
<g id="edge6" class="edge">
<title>Node4&#45;&gt;Node6</title>
<path fill="none" stroke="midnightblue" d="M233.5,-56.08C233.5,-49.01 233.5,-38.86 233.5,-29.99"/>
<polygon fill="midnightblue" stroke="midnightblue" points="237,-29.75 233.5,-19.75 230,-29.75 237,-29.75"/>
</g>
<!-- Node7 -->
<g id="node7" class="node">
<title>Node7</title>
<g id="a_node7"><a xlink:title=" ">
<polygon fill="white" stroke="#bfbfbf" points="280,-0.5 280,-19.5 327,-19.5 327,-0.5 280,-0.5"/>
<text text-anchor="middle" x="303.5" y="-7.5" font-family="Helvetica,sans-Serif" font-size="10.00">vector</text>
</a>
</g>
</g>
<!-- Node4&#45;&gt;Node7 -->
<g id="edge7" class="edge">
<title>Node4&#45;&gt;Node7</title>
<path fill="none" stroke="midnightblue" d="M244.75,-56.32C255.3,-48.18 271.3,-35.84 283.94,-26.09"/>
<polygon fill="midnightblue" stroke="midnightblue" points="286.27,-28.71 292.05,-19.83 281.99,-23.17 286.27,-28.71"/>
</g>
</g>
</svg>
