<?xml version="1.0" encoding="UTF-8" standalone="no"?>
<!DOCTYPE svg PUBLIC "-//W3C//DTD SVG 1.1//EN"
 "http://www.w3.org/Graphics/SVG/1.1/DTD/svg11.dtd">
<!-- Generated by graphviz version 2.43.0 (0)
 -->
<!-- Title: /home/kali/projects/vsomeip/implementation/e2e_protection/src/e2e/profile/profile01/profile_01.cpp Pages: 1 -->
<svg width="556pt" height="262pt"
 viewBox="0.00 0.00 555.91 262.00" xmlns="http://www.w3.org/2000/svg" xmlns:xlink="http://www.w3.org/1999/xlink">
<g id="graph0" class="graph" transform="scale(1 1) rotate(0) translate(4 258)">
<title>/home/kali/projects/vsomeip/implementation/e2e_protection/src/e2e/profile/profile01/profile_01.cpp</title>
<polygon fill="white" stroke="transparent" points="-4,4 -4,-258 551.91,-258 551.91,4 -4,4"/>
<!-- Node1 -->
<g id="node1" class="node">
<title>Node1</title>
<g id="a_node1"><a xlink:title=" ">
<polygon fill="#bfbfbf" stroke="black" points="262.41,-201.5 262.41,-253.5 429.41,-253.5 429.41,-201.5 262.41,-201.5"/>
<text text-anchor="start" x="270.41" y="-241.5" font-family="Helvetica,sans-Serif" font-size="10.00">/home/kali/projects</text>
<text text-anchor="start" x="270.41" y="-230.5" font-family="Helvetica,sans-Serif" font-size="10.00">/vsomeip/implementation</text>
<text text-anchor="start" x="270.41" y="-219.5" font-family="Helvetica,sans-Serif" font-size="10.00">/e2e_protection/src/e2e</text>
<text text-anchor="middle" x="345.91" y="-208.5" font-family="Helvetica,sans-Serif" font-size="10.00">/profile/profile01/profile_01.cpp</text>
</a>
</g>
</g>
<!-- Node2 -->
<g id="node2" class="node">
<title>Node2</title>
<g id="a_node2"><a xlink:href="profile__01_8hpp.html" target="_top" xlink:title=" ">
<polygon fill="white" stroke="black" points="14.41,-112.5 14.41,-164.5 131.41,-164.5 131.41,-112.5 14.41,-112.5"/>
<text text-anchor="start" x="22.41" y="-152.5" font-family="Helvetica,sans-Serif" font-size="10.00">../../../../../e2e</text>
<text text-anchor="start" x="22.41" y="-141.5" font-family="Helvetica,sans-Serif" font-size="10.00">_protection/include</text>
<text text-anchor="start" x="22.41" y="-130.5" font-family="Helvetica,sans-Serif" font-size="10.00">/e2e/profile/profile01</text>
<text text-anchor="middle" x="72.91" y="-119.5" font-family="Helvetica,sans-Serif" font-size="10.00">/profile_01.hpp</text>
</a>
</g>
</g>
<!-- Node1&#45;&gt;Node2 -->
<g id="edge1" class="edge">
<title>Node1&#45;&gt;Node2</title>
<path fill="none" stroke="midnightblue" d="M262.22,-202.78C224.9,-191.85 180.52,-178.35 140.91,-165 140.81,-164.97 140.71,-164.93 140.61,-164.9"/>
<polygon fill="midnightblue" stroke="midnightblue" points="142.02,-161.68 131.42,-161.73 139.73,-168.3 142.02,-161.68"/>
</g>
<!-- Node9 -->
<g id="node9" class="node">
<title>Node9</title>
<g id="a_node9"><a xlink:href="crc_8hpp.html" target="_top" xlink:title=" ">
<polygon fill="white" stroke="black" points="149.91,-118 149.91,-159 259.91,-159 259.91,-118 149.91,-118"/>
<text text-anchor="start" x="157.91" y="-147" font-family="Helvetica,sans-Serif" font-size="10.00">../../../../../e2e</text>
<text text-anchor="start" x="157.91" y="-136" font-family="Helvetica,sans-Serif" font-size="10.00">_protection/include</text>
<text text-anchor="middle" x="204.91" y="-125" font-family="Helvetica,sans-Serif" font-size="10.00">/crc/crc.hpp</text>
</a>
</g>
</g>
<!-- Node1&#45;&gt;Node9 -->
<g id="edge9" class="edge">
<title>Node1&#45;&gt;Node9</title>
<path fill="none" stroke="midnightblue" d="M305.12,-201.34C286.31,-189.73 264.03,-175.98 245.27,-164.4"/>
<polygon fill="midnightblue" stroke="midnightblue" points="246.99,-161.35 236.64,-159.08 243.31,-167.31 246.99,-161.35"/>
</g>
<!-- Node10 -->
<g id="node10" class="node">
<title>Node10</title>
<g id="a_node10"><a xlink:title=" ">
<polygon fill="white" stroke="#bfbfbf" points="277.91,-129 277.91,-148 337.91,-148 337.91,-129 277.91,-129"/>
<text text-anchor="middle" x="307.91" y="-136" font-family="Helvetica,sans-Serif" font-size="10.00">iostream</text>
</a>
</g>
</g>
<!-- Node1&#45;&gt;Node10 -->
<g id="edge12" class="edge">
<title>Node1&#45;&gt;Node10</title>
<path fill="none" stroke="midnightblue" d="M334.91,-201.34C328.82,-187.38 321.38,-170.34 315.85,-157.68"/>
<polygon fill="midnightblue" stroke="midnightblue" points="318.94,-156.01 311.73,-148.25 312.52,-158.81 318.94,-156.01"/>
</g>
<!-- Node11 -->
<g id="node11" class="node">
<title>Node11</title>
<g id="a_node11"><a xlink:title=" ">
<polygon fill="white" stroke="#bfbfbf" points="355.91,-129 355.91,-148 411.91,-148 411.91,-129 355.91,-129"/>
<text text-anchor="middle" x="383.91" y="-136" font-family="Helvetica,sans-Serif" font-size="10.00">sstream</text>
</a>
</g>
</g>
<!-- Node1&#45;&gt;Node11 -->
<g id="edge13" class="edge">
<title>Node1&#45;&gt;Node11</title>
<path fill="none" stroke="midnightblue" d="M356.9,-201.34C362.99,-187.38 370.44,-170.34 375.96,-157.68"/>
<polygon fill="midnightblue" stroke="midnightblue" points="379.29,-158.81 380.09,-148.25 372.87,-156.01 379.29,-158.81"/>
</g>
<!-- Node12 -->
<g id="node12" class="node">
<title>Node12</title>
<g id="a_node12"><a xlink:title=" ">
<polygon fill="white" stroke="#bfbfbf" points="429.91,-129 429.91,-148 473.91,-148 473.91,-129 429.91,-129"/>
<text text-anchor="middle" x="451.91" y="-136" font-family="Helvetica,sans-Serif" font-size="10.00">string</text>
</a>
</g>
</g>
<!-- Node1&#45;&gt;Node12 -->
<g id="edge14" class="edge">
<title>Node1&#45;&gt;Node12</title>
<path fill="none" stroke="midnightblue" d="M376.57,-201.38C390.15,-190.24 406.33,-176.97 420.91,-165 425,-161.64 429.39,-158.03 433.55,-154.61"/>
<polygon fill="midnightblue" stroke="midnightblue" points="436.08,-157.06 441.58,-148 431.63,-151.65 436.08,-157.06"/>
</g>
<!-- Node13 -->
<g id="node13" class="node">
<title>Node13</title>
<g id="a_node13"><a xlink:title=" ">
<polygon fill="white" stroke="#bfbfbf" points="491.91,-129 491.91,-148 547.91,-148 547.91,-129 491.91,-129"/>
<text text-anchor="middle" x="519.91" y="-136" font-family="Helvetica,sans-Serif" font-size="10.00">iomanip</text>
</a>
</g>
</g>
<!-- Node1&#45;&gt;Node13 -->
<g id="edge15" class="edge">
<title>Node1&#45;&gt;Node13</title>
<path fill="none" stroke="midnightblue" d="M408.11,-201.42C431.98,-191.07 459.16,-178.36 482.91,-165 488.65,-161.76 494.64,-157.88 500.08,-154.14"/>
<polygon fill="midnightblue" stroke="midnightblue" points="502.46,-156.74 508.59,-148.1 498.41,-151.03 502.46,-156.74"/>
</g>
<!-- Node3 -->
<g id="node3" class="node">
<title>Node3</title>
<g id="a_node3"><a xlink:title=" ">
<polygon fill="white" stroke="#bfbfbf" points="101.91,-0.5 101.91,-19.5 151.91,-19.5 151.91,-0.5 101.91,-0.5"/>
<text text-anchor="middle" x="126.91" y="-7.5" font-family="Helvetica,sans-Serif" font-size="10.00">cstdint</text>
</a>
</g>
</g>
<!-- Node2&#45;&gt;Node3 -->
<g id="edge2" class="edge">
<title>Node2&#45;&gt;Node3</title>
<path fill="none" stroke="midnightblue" d="M30.23,-112.35C9.23,-96.68 -8.9,-75.8 4.91,-56 24.34,-28.12 63.09,-17.47 91.73,-13.43"/>
<polygon fill="midnightblue" stroke="midnightblue" points="92.26,-16.89 101.77,-12.21 91.42,-9.94 92.26,-16.89"/>
</g>
<!-- Node4 -->
<g id="node4" class="node">
<title>Node4</title>
<g id="a_node4"><a xlink:title=" ">
<polygon fill="white" stroke="#bfbfbf" points="13.91,-56.5 13.91,-75.5 131.91,-75.5 131.91,-56.5 13.91,-56.5"/>
<text text-anchor="middle" x="72.91" y="-63.5" font-family="Helvetica,sans-Serif" font-size="10.00">vsomeip/defines.hpp</text>
</a>
</g>
</g>
<!-- Node2&#45;&gt;Node4 -->
<g id="edge3" class="edge">
<title>Node2&#45;&gt;Node4</title>
<path fill="none" stroke="midnightblue" d="M72.91,-112.45C72.91,-103.73 72.91,-94.1 72.91,-85.96"/>
<polygon fill="midnightblue" stroke="midnightblue" points="76.41,-85.7 72.91,-75.7 69.41,-85.7 76.41,-85.7"/>
</g>
<!-- Node5 -->
<g id="node5" class="node">
<title>Node5</title>
<g id="a_node5"><a xlink:href="e2e__protection_2include_2buffer_2buffer_8hpp.html" target="_top" xlink:title=" ">
<polygon fill="white" stroke="black" points="187.91,-56.5 187.91,-75.5 311.91,-75.5 311.91,-56.5 187.91,-56.5"/>
<text text-anchor="middle" x="249.91" y="-63.5" font-family="Helvetica,sans-Serif" font-size="10.00">../../../buffer/buffer.hpp</text>
</a>
</g>
</g>
<!-- Node2&#45;&gt;Node5 -->
<g id="edge4" class="edge">
<title>Node2&#45;&gt;Node5</title>
<path fill="none" stroke="midnightblue" d="M131.84,-114.02C161.01,-102.41 195.02,-88.86 219.02,-79.3"/>
<polygon fill="midnightblue" stroke="midnightblue" points="220.34,-82.54 228.34,-75.59 217.75,-76.04 220.34,-82.54"/>
</g>
<!-- Node5&#45;&gt;Node3 -->
<g id="edge6" class="edge">
<title>Node5&#45;&gt;Node3</title>
<path fill="none" stroke="midnightblue" d="M230.42,-56.44C210.26,-47.6 178.58,-33.69 155.58,-23.59"/>
<polygon fill="midnightblue" stroke="midnightblue" points="156.87,-20.33 146.3,-19.52 154.05,-26.74 156.87,-20.33"/>
</g>
<!-- Node6 -->
<g id="node6" class="node">
<title>Node6</title>
<g id="a_node6"><a xlink:title=" ">
<polygon fill="white" stroke="#bfbfbf" points="170.41,-0.5 170.41,-19.5 235.41,-19.5 235.41,-0.5 170.41,-0.5"/>
<text text-anchor="middle" x="202.91" y="-7.5" font-family="Helvetica,sans-Serif" font-size="10.00">stdexcept</text>
</a>
</g>
</g>
<!-- Node5&#45;&gt;Node6 -->
<g id="edge5" class="edge">
<title>Node5&#45;&gt;Node6</title>
<path fill="none" stroke="midnightblue" d="M242.14,-56.08C235.37,-48.3 225.36,-36.8 217.15,-27.37"/>
<polygon fill="midnightblue" stroke="midnightblue" points="219.73,-25 210.52,-19.75 214.45,-29.59 219.73,-25"/>
</g>
<!-- Node7 -->
<g id="node7" class="node">
<title>Node7</title>
<g id="a_node7"><a xlink:title=" ">
<polygon fill="white" stroke="#bfbfbf" points="253.41,-0.5 253.41,-19.5 310.41,-19.5 310.41,-0.5 253.41,-0.5"/>
<text text-anchor="middle" x="281.91" y="-7.5" font-family="Helvetica,sans-Serif" font-size="10.00">ostream</text>
</a>
</g>
</g>
<!-- Node5&#45;&gt;Node7 -->
<g id="edge7" class="edge">
<title>Node5&#45;&gt;Node7</title>
<path fill="none" stroke="midnightblue" d="M255.19,-56.08C259.62,-48.61 266.07,-37.72 271.52,-28.52"/>
<polygon fill="midnightblue" stroke="midnightblue" points="274.63,-30.14 276.72,-19.75 268.61,-26.57 274.63,-30.14"/>
</g>
<!-- Node8 -->
<g id="node8" class="node">
<title>Node8</title>
<g id="a_node8"><a xlink:title=" ">
<polygon fill="white" stroke="#bfbfbf" points="328.41,-0.5 328.41,-19.5 375.41,-19.5 375.41,-0.5 328.41,-0.5"/>
<text text-anchor="middle" x="351.91" y="-7.5" font-family="Helvetica,sans-Serif" font-size="10.00">vector</text>
</a>
</g>
</g>
<!-- Node5&#45;&gt;Node8 -->
<g id="edge8" class="edge">
<title>Node5&#45;&gt;Node8</title>
<path fill="none" stroke="midnightblue" d="M266.29,-56.32C282.58,-47.7 307.77,-34.36 326.62,-24.39"/>
<polygon fill="midnightblue" stroke="midnightblue" points="328.36,-27.43 335.56,-19.65 325.08,-21.24 328.36,-27.43"/>
</g>
<!-- Node9&#45;&gt;Node3 -->
<g id="edge10" class="edge">
<title>Node9&#45;&gt;Node3</title>
<path fill="none" stroke="midnightblue" d="M192.72,-117.73C177.58,-93.18 151.99,-51.69 137.59,-28.33"/>
<polygon fill="midnightblue" stroke="midnightblue" points="140.56,-26.47 132.33,-19.79 134.6,-30.14 140.56,-26.47"/>
</g>
<!-- Node9&#45;&gt;Node5 -->
<g id="edge11" class="edge">
<title>Node9&#45;&gt;Node5</title>
<path fill="none" stroke="midnightblue" d="M217.44,-117.86C224.14,-107.36 232.32,-94.55 238.79,-84.41"/>
<polygon fill="midnightblue" stroke="midnightblue" points="241.94,-85.99 244.37,-75.67 236.04,-82.22 241.94,-85.99"/>
</g>
</g>
</svg>
