<?xml version="1.0" encoding="UTF-8" standalone="no"?>
<!DOCTYPE svg PUBLIC "-//W3C//DTD SVG 1.1//EN"
 "http://www.w3.org/Graphics/SVG/1.1/DTD/svg11.dtd">
<!-- Generated by graphviz version 2.43.0 (0)
 -->
<!-- Title: /home/kali/projects/vsomeip/implementation/e2e_protection/include/e2e/profile/profile04/protector.hpp Pages: 1 -->
<svg width="622pt" height="251pt"
 viewBox="0.00 0.00 621.50 251.00" xmlns="http://www.w3.org/2000/svg" xmlns:xlink="http://www.w3.org/1999/xlink">
<g id="graph0" class="graph" transform="scale(1 1) rotate(0) translate(4 247)">
<title>/home/kali/projects/vsomeip/implementation/e2e_protection/include/e2e/profile/profile04/protector.hpp</title>
<polygon fill="white" stroke="transparent" points="-4,4 -4,-247 617.5,-247 617.5,4 -4,4"/>
<!-- Node1 -->
<g id="node1" class="node">
<title>Node1</title>
<g id="a_node1"><a xlink:title=" ">
<polygon fill="#bfbfbf" stroke="black" points="79.5,-190.5 79.5,-242.5 264.5,-242.5 264.5,-190.5 79.5,-190.5"/>
<text text-anchor="start" x="87.5" y="-230.5" font-family="Helvetica,sans-Serif" font-size="10.00">/home/kali/projects</text>
<text text-anchor="start" x="87.5" y="-219.5" font-family="Helvetica,sans-Serif" font-size="10.00">/vsomeip/implementation</text>
<text text-anchor="start" x="87.5" y="-208.5" font-family="Helvetica,sans-Serif" font-size="10.00">/e2e_protection/include</text>
<text text-anchor="middle" x="172" y="-197.5" font-family="Helvetica,sans-Serif" font-size="10.00">/e2e/profile/profile04/protector.hpp</text>
</a>
</g>
</g>
<!-- Node2 -->
<g id="node2" class="node">
<title>Node2</title>
<g id="a_node2"><a xlink:title=" ">
<polygon fill="white" stroke="#bfbfbf" points="55,-129 55,-148 103,-148 103,-129 55,-129"/>
<text text-anchor="middle" x="79" y="-136" font-family="Helvetica,sans-Serif" font-size="10.00">mutex</text>
</a>
</g>
</g>
<!-- Node1&#45;&gt;Node2 -->
<g id="edge1" class="edge">
<title>Node1&#45;&gt;Node2</title>
<path fill="none" stroke="midnightblue" d="M141.29,-190.4C126.85,-178.6 110.1,-164.91 97.61,-154.7"/>
<polygon fill="midnightblue" stroke="midnightblue" points="99.68,-151.88 89.72,-148.26 95.25,-157.3 99.68,-151.88"/>
</g>
<!-- Node3 -->
<g id="node3" class="node">
<title>Node3</title>
<g id="a_node3"><a xlink:href="profile__04_8hpp.html" target="_top" xlink:title=" ">
<polygon fill="white" stroke="black" points="121,-123.5 121,-153.5 223,-153.5 223,-123.5 121,-123.5"/>
<text text-anchor="start" x="129" y="-141.5" font-family="Helvetica,sans-Serif" font-size="10.00">../profile04/profile</text>
<text text-anchor="middle" x="172" y="-130.5" font-family="Helvetica,sans-Serif" font-size="10.00">_04.hpp</text>
</a>
</g>
</g>
<!-- Node1&#45;&gt;Node3 -->
<g id="edge2" class="edge">
<title>Node1&#45;&gt;Node3</title>
<path fill="none" stroke="midnightblue" d="M172,-190.19C172,-181.79 172,-172.44 172,-164.09"/>
<polygon fill="midnightblue" stroke="midnightblue" points="175.5,-163.85 172,-153.85 168.5,-163.85 175.5,-163.85"/>
</g>
<!-- Node10 -->
<g id="node10" class="node">
<title>Node10</title>
<g id="a_node10"><a xlink:href="profile__interface_2protector_8hpp.html" target="_top" xlink:title=" ">
<polygon fill="white" stroke="black" points="294.5,-123.5 294.5,-153.5 399.5,-153.5 399.5,-123.5 294.5,-123.5"/>
<text text-anchor="start" x="302.5" y="-141.5" font-family="Helvetica,sans-Serif" font-size="10.00">../profile_interface</text>
<text text-anchor="middle" x="347" y="-130.5" font-family="Helvetica,sans-Serif" font-size="10.00">/protector.hpp</text>
</a>
</g>
</g>
<!-- Node1&#45;&gt;Node10 -->
<g id="edge10" class="edge">
<title>Node1&#45;&gt;Node10</title>
<path fill="none" stroke="midnightblue" d="M229.79,-190.4C254.44,-179.7 282.66,-167.44 305.24,-157.64"/>
<polygon fill="midnightblue" stroke="midnightblue" points="306.76,-160.79 314.54,-153.6 303.97,-154.37 306.76,-160.79"/>
</g>
<!-- Node4 -->
<g id="node4" class="node">
<title>Node4</title>
<g id="a_node4"><a xlink:title=" ">
<polygon fill="white" stroke="#bfbfbf" points="201,-0.5 201,-19.5 251,-19.5 251,-0.5 201,-0.5"/>
<text text-anchor="middle" x="226" y="-7.5" font-family="Helvetica,sans-Serif" font-size="10.00">cstdint</text>
</a>
</g>
</g>
<!-- Node3&#45;&gt;Node4 -->
<g id="edge3" class="edge">
<title>Node3&#45;&gt;Node4</title>
<path fill="none" stroke="midnightblue" d="M166.48,-123.38C160.78,-106.42 154.12,-77.55 165,-56 171.81,-42.52 184.77,-32.08 197,-24.67"/>
<polygon fill="midnightblue" stroke="midnightblue" points="199.07,-27.52 206.09,-19.59 195.66,-21.41 199.07,-27.52"/>
</g>
<!-- Node5 -->
<g id="node5" class="node">
<title>Node5</title>
<g id="a_node5"><a xlink:title=" ">
<polygon fill="white" stroke="#bfbfbf" points="0,-62 0,-81 118,-81 118,-62 0,-62"/>
<text text-anchor="middle" x="59" y="-69" font-family="Helvetica,sans-Serif" font-size="10.00">vsomeip/defines.hpp</text>
</a>
</g>
</g>
<!-- Node3&#45;&gt;Node5 -->
<g id="edge4" class="edge">
<title>Node3&#45;&gt;Node5</title>
<path fill="none" stroke="midnightblue" d="M147.48,-123.4C128.27,-112.34 101.7,-97.06 82.7,-86.13"/>
<polygon fill="midnightblue" stroke="midnightblue" points="84.2,-82.96 73.79,-81.01 80.71,-89.03 84.2,-82.96"/>
</g>
<!-- Node6 -->
<g id="node6" class="node">
<title>Node6</title>
<g id="a_node6"><a xlink:href="e2e__protection_2include_2buffer_2buffer_8hpp.html" target="_top" xlink:title=" ">
<polygon fill="white" stroke="black" points="312,-62 312,-81 436,-81 436,-62 312,-62"/>
<text text-anchor="middle" x="374" y="-69" font-family="Helvetica,sans-Serif" font-size="10.00">../../../buffer/buffer.hpp</text>
</a>
</g>
</g>
<!-- Node3&#45;&gt;Node6 -->
<g id="edge5" class="edge">
<title>Node3&#45;&gt;Node6</title>
<path fill="none" stroke="midnightblue" d="M215.83,-123.4C252.37,-111.64 303.8,-95.09 337.98,-84.09"/>
<polygon fill="midnightblue" stroke="midnightblue" points="339.12,-87.4 347.56,-81.01 336.97,-80.74 339.12,-87.4"/>
</g>
<!-- Node6&#45;&gt;Node4 -->
<g id="edge7" class="edge">
<title>Node6&#45;&gt;Node4</title>
<path fill="none" stroke="midnightblue" d="M352.8,-61.98C327.63,-51.86 285.46,-34.9 256.72,-23.35"/>
<polygon fill="midnightblue" stroke="midnightblue" points="257.75,-19.99 247.17,-19.51 255.14,-26.49 257.75,-19.99"/>
</g>
<!-- Node7 -->
<g id="node7" class="node">
<title>Node7</title>
<g id="a_node7"><a xlink:title=" ">
<polygon fill="white" stroke="#bfbfbf" points="269.5,-0.5 269.5,-19.5 334.5,-19.5 334.5,-0.5 269.5,-0.5"/>
<text text-anchor="middle" x="302" y="-7.5" font-family="Helvetica,sans-Serif" font-size="10.00">stdexcept</text>
</a>
</g>
</g>
<!-- Node6&#45;&gt;Node7 -->
<g id="edge6" class="edge">
<title>Node6&#45;&gt;Node7</title>
<path fill="none" stroke="midnightblue" d="M363.68,-61.98C352.35,-52.61 333.93,-37.38 320.16,-26.01"/>
<polygon fill="midnightblue" stroke="midnightblue" points="322.23,-23.18 312.3,-19.51 317.78,-28.58 322.23,-23.18"/>
</g>
<!-- Node8 -->
<g id="node8" class="node">
<title>Node8</title>
<g id="a_node8"><a xlink:title=" ">
<polygon fill="white" stroke="#bfbfbf" points="352.5,-0.5 352.5,-19.5 409.5,-19.5 409.5,-0.5 352.5,-0.5"/>
<text text-anchor="middle" x="381" y="-7.5" font-family="Helvetica,sans-Serif" font-size="10.00">ostream</text>
</a>
</g>
</g>
<!-- Node6&#45;&gt;Node8 -->
<g id="edge8" class="edge">
<title>Node6&#45;&gt;Node8</title>
<path fill="none" stroke="midnightblue" d="M375,-61.98C375.99,-53.58 377.53,-40.48 378.8,-29.66"/>
<polygon fill="midnightblue" stroke="midnightblue" points="382.31,-29.85 380,-19.51 375.35,-29.03 382.31,-29.85"/>
</g>
<!-- Node9 -->
<g id="node9" class="node">
<title>Node9</title>
<g id="a_node9"><a xlink:title=" ">
<polygon fill="white" stroke="#bfbfbf" points="427.5,-0.5 427.5,-19.5 474.5,-19.5 474.5,-0.5 427.5,-0.5"/>
<text text-anchor="middle" x="451" y="-7.5" font-family="Helvetica,sans-Serif" font-size="10.00">vector</text>
</a>
</g>
</g>
<!-- Node6&#45;&gt;Node9 -->
<g id="edge9" class="edge">
<title>Node6&#45;&gt;Node9</title>
<path fill="none" stroke="midnightblue" d="M385.03,-61.98C397.27,-52.52 417.23,-37.1 431.99,-25.69"/>
<polygon fill="midnightblue" stroke="midnightblue" points="434.22,-28.39 439.99,-19.51 429.94,-22.85 434.22,-28.39"/>
</g>
<!-- Node10&#45;&gt;Node6 -->
<g id="edge12" class="edge">
<title>Node10&#45;&gt;Node6</title>
<path fill="none" stroke="midnightblue" d="M352.86,-123.4C356.86,-113.76 362.2,-100.91 366.51,-90.54"/>
<polygon fill="midnightblue" stroke="midnightblue" points="369.78,-91.77 370.39,-81.19 363.32,-89.09 369.78,-91.77"/>
</g>
<!-- Node11 -->
<g id="node11" class="node">
<title>Node11</title>
<g id="a_node11"><a xlink:title=" ">
<polygon fill="white" stroke="#bfbfbf" points="454.5,-62 454.5,-81 613.5,-81 613.5,-62 454.5,-62"/>
<text text-anchor="middle" x="534" y="-69" font-family="Helvetica,sans-Serif" font-size="10.00">vsomeip/primitive_types.hpp</text>
</a>
</g>
</g>
<!-- Node10&#45;&gt;Node11 -->
<g id="edge11" class="edge">
<title>Node10&#45;&gt;Node11</title>
<path fill="none" stroke="midnightblue" d="M387.58,-123.4C421.11,-111.74 468.2,-95.37 499.83,-84.38"/>
<polygon fill="midnightblue" stroke="midnightblue" points="501.23,-87.6 509.53,-81.01 498.93,-80.98 501.23,-87.6"/>
</g>
<!-- Node12 -->
<g id="node12" class="node">
<title>Node12</title>
<g id="a_node12"><a xlink:href="profile__interface_8hpp.html" target="_top" xlink:title=" ">
<polygon fill="white" stroke="black" points="174,-56.5 174,-86.5 294,-86.5 294,-56.5 174,-56.5"/>
<text text-anchor="start" x="182" y="-74.5" font-family="Helvetica,sans-Serif" font-size="10.00">../profile_interface</text>
<text text-anchor="middle" x="234" y="-63.5" font-family="Helvetica,sans-Serif" font-size="10.00">/profile_interface.hpp</text>
</a>
</g>
</g>
<!-- Node10&#45;&gt;Node12 -->
<g id="edge13" class="edge">
<title>Node10&#45;&gt;Node12</title>
<path fill="none" stroke="midnightblue" d="M322.48,-123.4C306.34,-114.11 285.01,-101.84 267.33,-91.67"/>
<polygon fill="midnightblue" stroke="midnightblue" points="268.88,-88.53 258.47,-86.58 265.39,-94.6 268.88,-88.53"/>
</g>
<!-- Node12&#45;&gt;Node4 -->
<g id="edge14" class="edge">
<title>Node12&#45;&gt;Node4</title>
<path fill="none" stroke="midnightblue" d="M232.1,-56.4C231.03,-48.38 229.66,-38.23 228.5,-29.57"/>
<polygon fill="midnightblue" stroke="midnightblue" points="231.97,-29.1 227.16,-19.66 225.03,-30.04 231.97,-29.1"/>
</g>
</g>
</svg>
