<?xml version="1.0" encoding="UTF-8" standalone="no"?>
<!DOCTYPE svg PUBLIC "-//W3C//DTD SVG 1.1//EN"
 "http://www.w3.org/Graphics/SVG/1.1/DTD/svg11.dtd">
<!-- Generated by graphviz version 2.43.0 (0)
 -->
<!-- Title: /home/kali/projects/vsomeip/implementation/e2e_protection/src/e2e/profile/profile_custom/protector.cpp Pages: 1 -->
<svg width="622pt" height="351pt"
 viewBox="0.00 0.00 621.50 351.00" xmlns="http://www.w3.org/2000/svg" xmlns:xlink="http://www.w3.org/1999/xlink">
<g id="graph0" class="graph" transform="scale(1 1) rotate(0) translate(4 347)">
<title>/home/kali/projects/vsomeip/implementation/e2e_protection/src/e2e/profile/profile_custom/protector.cpp</title>
<polygon fill="white" stroke="transparent" points="-4,4 -4,-347 617.5,-347 617.5,4 -4,4"/>
<!-- Node1 -->
<g id="node1" class="node">
<title>Node1</title>
<g id="a_node1"><a xlink:title=" ">
<polygon fill="#bfbfbf" stroke="black" points="284.5,-279.5 284.5,-342.5 427.5,-342.5 427.5,-279.5 284.5,-279.5"/>
<text text-anchor="start" x="292.5" y="-330.5" font-family="Helvetica,sans-Serif" font-size="10.00">/home/kali/projects</text>
<text text-anchor="start" x="292.5" y="-319.5" font-family="Helvetica,sans-Serif" font-size="10.00">/vsomeip/implementation</text>
<text text-anchor="start" x="292.5" y="-308.5" font-family="Helvetica,sans-Serif" font-size="10.00">/e2e_protection/src/e2e</text>
<text text-anchor="start" x="292.5" y="-297.5" font-family="Helvetica,sans-Serif" font-size="10.00">/profile/profile_custom</text>
<text text-anchor="middle" x="356" y="-286.5" font-family="Helvetica,sans-Serif" font-size="10.00">/protector.cpp</text>
</a>
</g>
</g>
<!-- Node2 -->
<g id="node2" class="node">
<title>Node2</title>
<g id="a_node2"><a xlink:href="profile__custom_2protector_8hpp.html" target="_top" xlink:title=" ">
<polygon fill="white" stroke="black" points="106.5,-190.5 106.5,-242.5 231.5,-242.5 231.5,-190.5 106.5,-190.5"/>
<text text-anchor="start" x="114.5" y="-230.5" font-family="Helvetica,sans-Serif" font-size="10.00">../../../../../e2e</text>
<text text-anchor="start" x="114.5" y="-219.5" font-family="Helvetica,sans-Serif" font-size="10.00">_protection/include</text>
<text text-anchor="start" x="114.5" y="-208.5" font-family="Helvetica,sans-Serif" font-size="10.00">/e2e/profile/profile</text>
<text text-anchor="middle" x="169" y="-197.5" font-family="Helvetica,sans-Serif" font-size="10.00">_custom/protector.hpp</text>
</a>
</g>
</g>
<!-- Node1&#45;&gt;Node2 -->
<g id="edge1" class="edge">
<title>Node1&#45;&gt;Node2</title>
<path fill="none" stroke="midnightblue" d="M294.25,-279.46C273.21,-269.05 249.75,-257.44 228.86,-247.11"/>
<polygon fill="midnightblue" stroke="midnightblue" points="230.29,-243.91 219.77,-242.62 227.19,-250.19 230.29,-243.91"/>
</g>
<!-- Node14 -->
<g id="node14" class="node">
<title>Node14</title>
<g id="a_node14"><a xlink:title=" ">
<polygon fill="white" stroke="#bfbfbf" points="250,-207 250,-226 310,-226 310,-207 250,-207"/>
<text text-anchor="middle" x="280" y="-214" font-family="Helvetica,sans-Serif" font-size="10.00">iostream</text>
</a>
</g>
</g>
<!-- Node1&#45;&gt;Node14 -->
<g id="edge16" class="edge">
<title>Node1&#45;&gt;Node14</title>
<path fill="none" stroke="midnightblue" d="M330.9,-279.46C318.4,-264.23 303.78,-246.44 293.42,-233.83"/>
<polygon fill="midnightblue" stroke="midnightblue" points="296.06,-231.54 287.01,-226.03 290.65,-235.98 296.06,-231.54"/>
</g>
<!-- Node15 -->
<g id="node15" class="node">
<title>Node15</title>
<g id="a_node15"><a xlink:title=" ">
<polygon fill="white" stroke="#bfbfbf" points="328,-207 328,-226 384,-226 384,-207 328,-207"/>
<text text-anchor="middle" x="356" y="-214" font-family="Helvetica,sans-Serif" font-size="10.00">sstream</text>
</a>
</g>
</g>
<!-- Node1&#45;&gt;Node15 -->
<g id="edge17" class="edge">
<title>Node1&#45;&gt;Node15</title>
<path fill="none" stroke="midnightblue" d="M356,-279.46C356,-265.11 356,-248.48 356,-236.07"/>
<polygon fill="midnightblue" stroke="midnightblue" points="359.5,-236.03 356,-226.03 352.5,-236.03 359.5,-236.03"/>
</g>
<!-- Node16 -->
<g id="node16" class="node">
<title>Node16</title>
<g id="a_node16"><a xlink:title=" ">
<polygon fill="white" stroke="#bfbfbf" points="402,-207 402,-226 446,-226 446,-207 402,-207"/>
<text text-anchor="middle" x="424" y="-214" font-family="Helvetica,sans-Serif" font-size="10.00">string</text>
</a>
</g>
</g>
<!-- Node1&#45;&gt;Node16 -->
<g id="edge18" class="edge">
<title>Node1&#45;&gt;Node16</title>
<path fill="none" stroke="midnightblue" d="M378.45,-279.46C389.54,-264.38 402.48,-246.78 411.72,-234.2"/>
<polygon fill="midnightblue" stroke="midnightblue" points="414.62,-236.16 417.73,-226.03 408.98,-232.02 414.62,-236.16"/>
</g>
<!-- Node17 -->
<g id="node17" class="node">
<title>Node17</title>
<g id="a_node17"><a xlink:title=" ">
<polygon fill="white" stroke="#bfbfbf" points="464,-207 464,-226 520,-226 520,-207 464,-207"/>
<text text-anchor="middle" x="492" y="-214" font-family="Helvetica,sans-Serif" font-size="10.00">iomanip</text>
</a>
</g>
</g>
<!-- Node1&#45;&gt;Node17 -->
<g id="edge19" class="edge">
<title>Node1&#45;&gt;Node17</title>
<path fill="none" stroke="midnightblue" d="M401.4,-279.39C418.25,-268 437.52,-254.94 455,-243 460.28,-239.39 465.98,-235.48 471.28,-231.83"/>
<polygon fill="midnightblue" stroke="midnightblue" points="473.44,-234.59 479.68,-226.03 469.47,-228.82 473.44,-234.59"/>
</g>
<!-- Node3 -->
<g id="node3" class="node">
<title>Node3</title>
<g id="a_node3"><a xlink:title=" ">
<polygon fill="white" stroke="#bfbfbf" points="37,-129 37,-148 85,-148 85,-129 37,-129"/>
<text text-anchor="middle" x="61" y="-136" font-family="Helvetica,sans-Serif" font-size="10.00">mutex</text>
</a>
</g>
</g>
<!-- Node2&#45;&gt;Node3 -->
<g id="edge2" class="edge">
<title>Node2&#45;&gt;Node3</title>
<path fill="none" stroke="midnightblue" d="M133.34,-190.4C116.14,-178.3 96.13,-164.22 81.52,-153.94"/>
<polygon fill="midnightblue" stroke="midnightblue" points="83.38,-150.97 73.19,-148.08 79.35,-156.7 83.38,-150.97"/>
</g>
<!-- Node4 -->
<g id="node4" class="node">
<title>Node4</title>
<g id="a_node4"><a xlink:href="profile__custom_8hpp.html" target="_top" xlink:title=" ">
<polygon fill="white" stroke="black" points="103.5,-123.5 103.5,-153.5 234.5,-153.5 234.5,-123.5 103.5,-123.5"/>
<text text-anchor="start" x="111.5" y="-141.5" font-family="Helvetica,sans-Serif" font-size="10.00">../profile_custom/profile</text>
<text text-anchor="middle" x="169" y="-130.5" font-family="Helvetica,sans-Serif" font-size="10.00">_custom.hpp</text>
</a>
</g>
</g>
<!-- Node2&#45;&gt;Node4 -->
<g id="edge3" class="edge">
<title>Node2&#45;&gt;Node4</title>
<path fill="none" stroke="midnightblue" d="M169,-190.19C169,-181.79 169,-172.44 169,-164.09"/>
<polygon fill="midnightblue" stroke="midnightblue" points="172.5,-163.85 169,-153.85 165.5,-163.85 172.5,-163.85"/>
</g>
<!-- Node11 -->
<g id="node11" class="node">
<title>Node11</title>
<g id="a_node11"><a xlink:href="profile__interface_2protector_8hpp.html" target="_top" xlink:title=" ">
<polygon fill="white" stroke="black" points="298.5,-123.5 298.5,-153.5 403.5,-153.5 403.5,-123.5 298.5,-123.5"/>
<text text-anchor="start" x="306.5" y="-141.5" font-family="Helvetica,sans-Serif" font-size="10.00">../profile_interface</text>
<text text-anchor="middle" x="351" y="-130.5" font-family="Helvetica,sans-Serif" font-size="10.00">/protector.hpp</text>
</a>
</g>
</g>
<!-- Node2&#45;&gt;Node11 -->
<g id="edge11" class="edge">
<title>Node2&#45;&gt;Node11</title>
<path fill="none" stroke="midnightblue" d="M229.1,-190.4C254.85,-179.65 284.35,-167.33 307.88,-157.51"/>
<polygon fill="midnightblue" stroke="midnightblue" points="309.36,-160.68 317.24,-153.6 306.66,-154.22 309.36,-160.68"/>
</g>
<!-- Node5 -->
<g id="node5" class="node">
<title>Node5</title>
<g id="a_node5"><a xlink:title=" ">
<polygon fill="white" stroke="#bfbfbf" points="201,-0.5 201,-19.5 251,-19.5 251,-0.5 201,-0.5"/>
<text text-anchor="middle" x="226" y="-7.5" font-family="Helvetica,sans-Serif" font-size="10.00">cstdint</text>
</a>
</g>
</g>
<!-- Node4&#45;&gt;Node5 -->
<g id="edge4" class="edge">
<title>Node4&#45;&gt;Node5</title>
<path fill="none" stroke="midnightblue" d="M164.27,-123.37C159.47,-106.38 154.14,-77.5 165,-56 171.81,-42.52 184.77,-32.08 197,-24.67"/>
<polygon fill="midnightblue" stroke="midnightblue" points="199.07,-27.52 206.09,-19.59 195.66,-21.41 199.07,-27.52"/>
</g>
<!-- Node6 -->
<g id="node6" class="node">
<title>Node6</title>
<g id="a_node6"><a xlink:title=" ">
<polygon fill="white" stroke="#bfbfbf" points="0,-62 0,-81 118,-81 118,-62 0,-62"/>
<text text-anchor="middle" x="59" y="-69" font-family="Helvetica,sans-Serif" font-size="10.00">vsomeip/defines.hpp</text>
</a>
</g>
</g>
<!-- Node4&#45;&gt;Node6 -->
<g id="edge5" class="edge">
<title>Node4&#45;&gt;Node6</title>
<path fill="none" stroke="midnightblue" d="M145.13,-123.4C126.43,-112.34 100.56,-97.06 82.07,-86.13"/>
<polygon fill="midnightblue" stroke="midnightblue" points="83.79,-83.08 73.4,-81.01 80.23,-89.11 83.79,-83.08"/>
</g>
<!-- Node7 -->
<g id="node7" class="node">
<title>Node7</title>
<g id="a_node7"><a xlink:href="e2e__protection_2include_2buffer_2buffer_8hpp.html" target="_top" xlink:title=" ">
<polygon fill="white" stroke="black" points="312,-62 312,-81 436,-81 436,-62 312,-62"/>
<text text-anchor="middle" x="374" y="-69" font-family="Helvetica,sans-Serif" font-size="10.00">../../../buffer/buffer.hpp</text>
</a>
</g>
</g>
<!-- Node4&#45;&gt;Node7 -->
<g id="edge6" class="edge">
<title>Node4&#45;&gt;Node7</title>
<path fill="none" stroke="midnightblue" d="M213.23,-123.48C250.3,-111.72 302.59,-95.14 337.35,-84.12"/>
<polygon fill="midnightblue" stroke="midnightblue" points="338.63,-87.39 347.1,-81.03 336.51,-80.71 338.63,-87.39"/>
</g>
<!-- Node7&#45;&gt;Node5 -->
<g id="edge8" class="edge">
<title>Node7&#45;&gt;Node5</title>
<path fill="none" stroke="midnightblue" d="M352.8,-61.98C327.63,-51.86 285.46,-34.9 256.72,-23.35"/>
<polygon fill="midnightblue" stroke="midnightblue" points="257.75,-19.99 247.17,-19.51 255.14,-26.49 257.75,-19.99"/>
</g>
<!-- Node8 -->
<g id="node8" class="node">
<title>Node8</title>
<g id="a_node8"><a xlink:title=" ">
<polygon fill="white" stroke="#bfbfbf" points="269.5,-0.5 269.5,-19.5 334.5,-19.5 334.5,-0.5 269.5,-0.5"/>
<text text-anchor="middle" x="302" y="-7.5" font-family="Helvetica,sans-Serif" font-size="10.00">stdexcept</text>
</a>
</g>
</g>
<!-- Node7&#45;&gt;Node8 -->
<g id="edge7" class="edge">
<title>Node7&#45;&gt;Node8</title>
<path fill="none" stroke="midnightblue" d="M363.68,-61.98C352.35,-52.61 333.93,-37.38 320.16,-26.01"/>
<polygon fill="midnightblue" stroke="midnightblue" points="322.23,-23.18 312.3,-19.51 317.78,-28.58 322.23,-23.18"/>
</g>
<!-- Node9 -->
<g id="node9" class="node">
<title>Node9</title>
<g id="a_node9"><a xlink:title=" ">
<polygon fill="white" stroke="#bfbfbf" points="352.5,-0.5 352.5,-19.5 409.5,-19.5 409.5,-0.5 352.5,-0.5"/>
<text text-anchor="middle" x="381" y="-7.5" font-family="Helvetica,sans-Serif" font-size="10.00">ostream</text>
</a>
</g>
</g>
<!-- Node7&#45;&gt;Node9 -->
<g id="edge9" class="edge">
<title>Node7&#45;&gt;Node9</title>
<path fill="none" stroke="midnightblue" d="M375,-61.98C375.99,-53.58 377.53,-40.48 378.8,-29.66"/>
<polygon fill="midnightblue" stroke="midnightblue" points="382.31,-29.85 380,-19.51 375.35,-29.03 382.31,-29.85"/>
</g>
<!-- Node10 -->
<g id="node10" class="node">
<title>Node10</title>
<g id="a_node10"><a xlink:title=" ">
<polygon fill="white" stroke="#bfbfbf" points="427.5,-0.5 427.5,-19.5 474.5,-19.5 474.5,-0.5 427.5,-0.5"/>
<text text-anchor="middle" x="451" y="-7.5" font-family="Helvetica,sans-Serif" font-size="10.00">vector</text>
</a>
</g>
</g>
<!-- Node7&#45;&gt;Node10 -->
<g id="edge10" class="edge">
<title>Node7&#45;&gt;Node10</title>
<path fill="none" stroke="midnightblue" d="M385.03,-61.98C397.27,-52.52 417.23,-37.1 431.99,-25.69"/>
<polygon fill="midnightblue" stroke="midnightblue" points="434.22,-28.39 439.99,-19.51 429.94,-22.85 434.22,-28.39"/>
</g>
<!-- Node11&#45;&gt;Node7 -->
<g id="edge13" class="edge">
<title>Node11&#45;&gt;Node7</title>
<path fill="none" stroke="midnightblue" d="M355.99,-123.4C359.36,-113.86 363.85,-101.18 367.5,-90.86"/>
<polygon fill="midnightblue" stroke="midnightblue" points="370.89,-91.79 370.92,-81.19 364.29,-89.45 370.89,-91.79"/>
</g>
<!-- Node12 -->
<g id="node12" class="node">
<title>Node12</title>
<g id="a_node12"><a xlink:title=" ">
<polygon fill="white" stroke="#bfbfbf" points="454.5,-62 454.5,-81 613.5,-81 613.5,-62 454.5,-62"/>
<text text-anchor="middle" x="534" y="-69" font-family="Helvetica,sans-Serif" font-size="10.00">vsomeip/primitive_types.hpp</text>
</a>
</g>
</g>
<!-- Node11&#45;&gt;Node12 -->
<g id="edge12" class="edge">
<title>Node11&#45;&gt;Node12</title>
<path fill="none" stroke="midnightblue" d="M390.71,-123.4C423.53,-111.74 469.6,-95.37 500.56,-84.38"/>
<polygon fill="midnightblue" stroke="midnightblue" points="501.8,-87.65 510.05,-81.01 499.45,-81.06 501.8,-87.65"/>
</g>
<!-- Node13 -->
<g id="node13" class="node">
<title>Node13</title>
<g id="a_node13"><a xlink:href="profile__interface_8hpp.html" target="_top" xlink:title=" ">
<polygon fill="white" stroke="black" points="174,-56.5 174,-86.5 294,-86.5 294,-56.5 174,-56.5"/>
<text text-anchor="start" x="182" y="-74.5" font-family="Helvetica,sans-Serif" font-size="10.00">../profile_interface</text>
<text text-anchor="middle" x="234" y="-63.5" font-family="Helvetica,sans-Serif" font-size="10.00">/profile_interface.hpp</text>
</a>
</g>
</g>
<!-- Node11&#45;&gt;Node13 -->
<g id="edge14" class="edge">
<title>Node11&#45;&gt;Node13</title>
<path fill="none" stroke="midnightblue" d="M325.61,-123.4C308.82,-114.07 286.61,-101.73 268.26,-91.53"/>
<polygon fill="midnightblue" stroke="midnightblue" points="269.78,-88.37 259.34,-86.58 266.38,-94.49 269.78,-88.37"/>
</g>
<!-- Node13&#45;&gt;Node5 -->
<g id="edge15" class="edge">
<title>Node13&#45;&gt;Node5</title>
<path fill="none" stroke="midnightblue" d="M232.1,-56.4C231.03,-48.38 229.66,-38.23 228.5,-29.57"/>
<polygon fill="midnightblue" stroke="midnightblue" points="231.97,-29.1 227.16,-19.66 225.03,-30.04 231.97,-29.1"/>
</g>
</g>
</svg>
