<?xml version="1.0" encoding="UTF-8" standalone="no"?>
<!DOCTYPE svg PUBLIC "-//W3C//DTD SVG 1.1//EN"
 "http://www.w3.org/Graphics/SVG/1.1/DTD/svg11.dtd">
<!-- Generated by graphviz version 2.43.0 (0)
 -->
<!-- Title: /home/kali/projects/vsomeip/implementation/e2e_protection/include/e2e/profile/profile_custom/protector.hpp Pages: 1 -->
<svg width="334pt" height="172pt"
 viewBox="0.00 0.00 333.50 172.00" xmlns="http://www.w3.org/2000/svg" xmlns:xlink="http://www.w3.org/1999/xlink">
<g id="graph0" class="graph" transform="scale(1 1) rotate(0) translate(4 168)">
<title>/home/kali/projects/vsomeip/implementation/e2e_protection/include/e2e/profile/profile_custom/protector.hpp</title>
<polygon fill="white" stroke="transparent" points="-4,4 -4,-168 329.5,-168 329.5,4 -4,4"/>
<!-- Node1 -->
<g id="node1" class="node">
<title>Node1</title>
<g id="a_node1"><a xlink:title=" ">
<polygon fill="#bfbfbf" stroke="black" points="95,-100.5 95,-163.5 241,-163.5 241,-100.5 95,-100.5"/>
<text text-anchor="start" x="103" y="-151.5" font-family="Helvetica,sans-Serif" font-size="10.00">/home/kali/projects</text>
<text text-anchor="start" x="103" y="-140.5" font-family="Helvetica,sans-Serif" font-size="10.00">/vsomeip/implementation</text>
<text text-anchor="start" x="103" y="-129.5" font-family="Helvetica,sans-Serif" font-size="10.00">/e2e_protection/include</text>
<text text-anchor="start" x="103" y="-118.5" font-family="Helvetica,sans-Serif" font-size="10.00">/e2e/profile/profile_custom</text>
<text text-anchor="middle" x="168" y="-107.5" font-family="Helvetica,sans-Serif" font-size="10.00">/protector.hpp</text>
</a>
</g>
</g>
<!-- Node2 -->
<g id="node2" class="node">
<title>Node2</title>
<g id="a_node2"><a xlink:href="e2e__provider__impl_8cpp.html" target="_top" xlink:title=" ">
<polygon fill="white" stroke="black" points="0,-6 0,-58 164,-58 164,-6 0,-6"/>
<text text-anchor="start" x="8" y="-46" font-family="Helvetica,sans-Serif" font-size="10.00">/home/kali/projects</text>
<text text-anchor="start" x="8" y="-35" font-family="Helvetica,sans-Serif" font-size="10.00">/vsomeip/implementation</text>
<text text-anchor="start" x="8" y="-24" font-family="Helvetica,sans-Serif" font-size="10.00">/e2e_protection/src/e2e</text>
<text text-anchor="middle" x="82" y="-13" font-family="Helvetica,sans-Serif" font-size="10.00">/profile/e2e_provider_impl.cpp</text>
</a>
</g>
</g>
<!-- Node1&#45;&gt;Node2 -->
<g id="edge1" class="edge">
<title>Node1&#45;&gt;Node2</title>
<path fill="none" stroke="midnightblue" d="M134.15,-92.42C124,-80.87 113.15,-68.5 103.99,-58.05"/>
<polygon fill="midnightblue" stroke="midnightblue" points="131.8,-95.05 141.03,-100.26 137.06,-90.44 131.8,-95.05"/>
</g>
<!-- Node3 -->
<g id="node3" class="node">
<title>Node3</title>
<g id="a_node3"><a xlink:href="profile__custom_2protector_8cpp.html" target="_top" xlink:title=" ">
<polygon fill="white" stroke="black" points="182.5,-0.5 182.5,-63.5 325.5,-63.5 325.5,-0.5 182.5,-0.5"/>
<text text-anchor="start" x="190.5" y="-51.5" font-family="Helvetica,sans-Serif" font-size="10.00">/home/kali/projects</text>
<text text-anchor="start" x="190.5" y="-40.5" font-family="Helvetica,sans-Serif" font-size="10.00">/vsomeip/implementation</text>
<text text-anchor="start" x="190.5" y="-29.5" font-family="Helvetica,sans-Serif" font-size="10.00">/e2e_protection/src/e2e</text>
<text text-anchor="start" x="190.5" y="-18.5" font-family="Helvetica,sans-Serif" font-size="10.00">/profile/profile_custom</text>
<text text-anchor="middle" x="254" y="-7.5" font-family="Helvetica,sans-Serif" font-size="10.00">/protector.cpp</text>
</a>
</g>
</g>
<!-- Node1&#45;&gt;Node3 -->
<g id="edge2" class="edge">
<title>Node1&#45;&gt;Node3</title>
<path fill="none" stroke="midnightblue" d="M201.62,-92.69C210.08,-83.05 219.04,-72.83 227.12,-63.63"/>
<polygon fill="midnightblue" stroke="midnightblue" points="198.94,-90.44 194.97,-100.26 204.2,-95.05 198.94,-90.44"/>
</g>
</g>
</svg>
