<?xml version="1.0" encoding="UTF-8" standalone="no"?>
<!DOCTYPE svg PUBLIC "-//W3C//DTD SVG 1.1//EN"
 "http://www.w3.org/Graphics/SVG/1.1/DTD/svg11.dtd">
<!-- Generated by graphviz version 2.43.0 (0)
 -->
<!-- Title: /home/kali/projects/vsomeip/implementation/e2e_protection/include/e2e/profile/profile_interface/protector.hpp Pages: 1 -->
<svg width="493pt" height="195pt"
 viewBox="0.00 0.00 493.00 195.00" xmlns="http://www.w3.org/2000/svg" xmlns:xlink="http://www.w3.org/1999/xlink">
<g id="graph0" class="graph" transform="scale(1 1) rotate(0) translate(4 191)">
<title>/home/kali/projects/vsomeip/implementation/e2e_protection/include/e2e/profile/profile_interface/protector.hpp</title>
<polygon fill="white" stroke="transparent" points="-4,4 -4,-191 489,-191 489,4 -4,4"/>
<!-- Node1 -->
<g id="node1" class="node">
<title>Node1</title>
<g id="a_node1"><a xlink:title=" ">
<polygon fill="#bfbfbf" stroke="black" points="159.5,-123.5 159.5,-186.5 313.5,-186.5 313.5,-123.5 159.5,-123.5"/>
<text text-anchor="start" x="167.5" y="-174.5" font-family="Helvetica,sans-Serif" font-size="10.00">/home/kali/projects</text>
<text text-anchor="start" x="167.5" y="-163.5" font-family="Helvetica,sans-Serif" font-size="10.00">/vsomeip/implementation</text>
<text text-anchor="start" x="167.5" y="-152.5" font-family="Helvetica,sans-Serif" font-size="10.00">/e2e_protection/include</text>
<text text-anchor="start" x="167.5" y="-141.5" font-family="Helvetica,sans-Serif" font-size="10.00">/e2e/profile/profile_interface</text>
<text text-anchor="middle" x="236.5" y="-130.5" font-family="Helvetica,sans-Serif" font-size="10.00">/protector.hpp</text>
</a>
</g>
</g>
<!-- Node2 -->
<g id="node2" class="node">
<title>Node2</title>
<g id="a_node2"><a xlink:title=" ">
<polygon fill="white" stroke="#bfbfbf" points="0,-62 0,-81 159,-81 159,-62 0,-62"/>
<text text-anchor="middle" x="79.5" y="-69" font-family="Helvetica,sans-Serif" font-size="10.00">vsomeip/primitive_types.hpp</text>
</a>
</g>
</g>
<!-- Node1&#45;&gt;Node2 -->
<g id="edge1" class="edge">
<title>Node1&#45;&gt;Node2</title>
<path fill="none" stroke="midnightblue" d="M177.59,-123.42C152.47,-110.38 124.48,-95.85 104.86,-85.66"/>
<polygon fill="midnightblue" stroke="midnightblue" points="106.43,-82.54 95.94,-81.03 103.2,-88.75 106.43,-82.54"/>
</g>
<!-- Node3 -->
<g id="node3" class="node">
<title>Node3</title>
<g id="a_node3"><a xlink:href="e2e__protection_2include_2buffer_2buffer_8hpp.html" target="_top" xlink:title=" ">
<polygon fill="white" stroke="black" points="314.5,-62 314.5,-81 438.5,-81 438.5,-62 314.5,-62"/>
<text text-anchor="middle" x="376.5" y="-69" font-family="Helvetica,sans-Serif" font-size="10.00">../../../buffer/buffer.hpp</text>
</a>
</g>
</g>
<!-- Node1&#45;&gt;Node3 -->
<g id="edge2" class="edge">
<title>Node1&#45;&gt;Node3</title>
<path fill="none" stroke="midnightblue" d="M289.03,-123.42C311.03,-110.62 335.48,-96.38 352.93,-86.22"/>
<polygon fill="midnightblue" stroke="midnightblue" points="354.96,-89.09 361.84,-81.03 351.44,-83.04 354.96,-89.09"/>
</g>
<!-- Node8 -->
<g id="node8" class="node">
<title>Node8</title>
<g id="a_node8"><a xlink:href="profile__interface_8hpp.html" target="_top" xlink:title=" ">
<polygon fill="white" stroke="black" points="176.5,-56.5 176.5,-86.5 296.5,-86.5 296.5,-56.5 176.5,-56.5"/>
<text text-anchor="start" x="184.5" y="-74.5" font-family="Helvetica,sans-Serif" font-size="10.00">../profile_interface</text>
<text text-anchor="middle" x="236.5" y="-63.5" font-family="Helvetica,sans-Serif" font-size="10.00">/profile_interface.hpp</text>
</a>
</g>
</g>
<!-- Node1&#45;&gt;Node8 -->
<g id="edge7" class="edge">
<title>Node1&#45;&gt;Node8</title>
<path fill="none" stroke="midnightblue" d="M236.5,-123.19C236.5,-114.41 236.5,-104.98 236.5,-96.66"/>
<polygon fill="midnightblue" stroke="midnightblue" points="240,-96.52 236.5,-86.52 233,-96.52 240,-96.52"/>
</g>
<!-- Node4 -->
<g id="node4" class="node">
<title>Node4</title>
<g id="a_node4"><a xlink:title=" ">
<polygon fill="white" stroke="#bfbfbf" points="280,-0.5 280,-19.5 345,-19.5 345,-0.5 280,-0.5"/>
<text text-anchor="middle" x="312.5" y="-7.5" font-family="Helvetica,sans-Serif" font-size="10.00">stdexcept</text>
</a>
</g>
</g>
<!-- Node3&#45;&gt;Node4 -->
<g id="edge3" class="edge">
<title>Node3&#45;&gt;Node4</title>
<path fill="none" stroke="midnightblue" d="M367.33,-61.98C357.35,-52.7 341.19,-37.67 328.99,-26.33"/>
<polygon fill="midnightblue" stroke="midnightblue" points="331.36,-23.75 321.65,-19.51 326.59,-28.88 331.36,-23.75"/>
</g>
<!-- Node5 -->
<g id="node5" class="node">
<title>Node5</title>
<g id="a_node5"><a xlink:title=" ">
<polygon fill="white" stroke="#bfbfbf" points="211.5,-0.5 211.5,-19.5 261.5,-19.5 261.5,-0.5 211.5,-0.5"/>
<text text-anchor="middle" x="236.5" y="-7.5" font-family="Helvetica,sans-Serif" font-size="10.00">cstdint</text>
</a>
</g>
</g>
<!-- Node3&#45;&gt;Node5 -->
<g id="edge4" class="edge">
<title>Node3&#45;&gt;Node5</title>
<path fill="none" stroke="midnightblue" d="M356.44,-61.98C332.74,-51.9 293.09,-35.05 265.92,-23.5"/>
<polygon fill="midnightblue" stroke="midnightblue" points="267.09,-20.2 256.52,-19.51 264.36,-26.64 267.09,-20.2"/>
</g>
<!-- Node6 -->
<g id="node6" class="node">
<title>Node6</title>
<g id="a_node6"><a xlink:title=" ">
<polygon fill="white" stroke="#bfbfbf" points="363,-0.5 363,-19.5 420,-19.5 420,-0.5 363,-0.5"/>
<text text-anchor="middle" x="391.5" y="-7.5" font-family="Helvetica,sans-Serif" font-size="10.00">ostream</text>
</a>
</g>
</g>
<!-- Node3&#45;&gt;Node6 -->
<g id="edge5" class="edge">
<title>Node3&#45;&gt;Node6</title>
<path fill="none" stroke="midnightblue" d="M378.65,-61.98C380.79,-53.49 384.14,-40.2 386.88,-29.32"/>
<polygon fill="midnightblue" stroke="midnightblue" points="390.3,-30.06 389.35,-19.51 383.52,-28.35 390.3,-30.06"/>
</g>
<!-- Node7 -->
<g id="node7" class="node">
<title>Node7</title>
<g id="a_node7"><a xlink:title=" ">
<polygon fill="white" stroke="#bfbfbf" points="438,-0.5 438,-19.5 485,-19.5 485,-0.5 438,-0.5"/>
<text text-anchor="middle" x="461.5" y="-7.5" font-family="Helvetica,sans-Serif" font-size="10.00">vector</text>
</a>
</g>
</g>
<!-- Node3&#45;&gt;Node7 -->
<g id="edge6" class="edge">
<title>Node3&#45;&gt;Node7</title>
<path fill="none" stroke="midnightblue" d="M388.68,-61.98C402.31,-52.43 424.63,-36.81 440.97,-25.37"/>
<polygon fill="midnightblue" stroke="midnightblue" points="443.16,-28.11 449.34,-19.51 439.14,-22.38 443.16,-28.11"/>
</g>
<!-- Node8&#45;&gt;Node5 -->
<g id="edge8" class="edge">
<title>Node8&#45;&gt;Node5</title>
<path fill="none" stroke="midnightblue" d="M236.5,-56.4C236.5,-48.47 236.5,-38.46 236.5,-29.86"/>
<polygon fill="midnightblue" stroke="midnightblue" points="240,-29.66 236.5,-19.66 233,-29.66 240,-29.66"/>
</g>
</g>
</svg>
