<?xml version="1.0" encoding="UTF-8" standalone="no"?>
<!DOCTYPE svg PUBLIC "-//W3C//DTD SVG 1.1//EN"
 "http://www.w3.org/Graphics/SVG/1.1/DTD/svg11.dtd">
<!-- Generated by graphviz version 2.43.0 (0)
 -->
<!-- Title: /home/kali/projects/vsomeip/implementation/e2e_protection/include/e2e/profile/profile01/profile_01.hpp Pages: 1 -->
<svg width="662pt" height="239pt"
 viewBox="0.00 0.00 661.50 239.00" xmlns="http://www.w3.org/2000/svg" xmlns:xlink="http://www.w3.org/1999/xlink">
<g id="graph0" class="graph" transform="scale(1 1) rotate(0) translate(4 235)">
<title>/home/kali/projects/vsomeip/implementation/e2e_protection/include/e2e/profile/profile01/profile_01.hpp</title>
<polygon fill="white" stroke="transparent" points="-4,4 -4,-235 657.5,-235 657.5,4 -4,4"/>
<!-- Node1 -->
<g id="node1" class="node">
<title>Node1</title>
<g id="a_node1"><a xlink:title=" ">
<polygon fill="#bfbfbf" stroke="black" points="221.5,-178.5 221.5,-230.5 410.5,-230.5 410.5,-178.5 221.5,-178.5"/>
<text text-anchor="start" x="229.5" y="-218.5" font-family="Helvetica,sans-Serif" font-size="10.00">/home/kali/projects</text>
<text text-anchor="start" x="229.5" y="-207.5" font-family="Helvetica,sans-Serif" font-size="10.00">/vsomeip/implementation</text>
<text text-anchor="start" x="229.5" y="-196.5" font-family="Helvetica,sans-Serif" font-size="10.00">/e2e_protection/include</text>
<text text-anchor="middle" x="316" y="-185.5" font-family="Helvetica,sans-Serif" font-size="10.00">/e2e/profile/profile01/profile_01.hpp</text>
</a>
</g>
</g>
<!-- Node2 -->
<g id="node2" class="node">
<title>Node2</title>
<g id="a_node2"><a xlink:href="profile01_2checker_8hpp.html" target="_top" xlink:title=" ">
<polygon fill="white" stroke="black" points="50,-89.5 50,-141.5 228,-141.5 228,-89.5 50,-89.5"/>
<text text-anchor="start" x="58" y="-129.5" font-family="Helvetica,sans-Serif" font-size="10.00">/home/kali/projects</text>
<text text-anchor="start" x="58" y="-118.5" font-family="Helvetica,sans-Serif" font-size="10.00">/vsomeip/implementation</text>
<text text-anchor="start" x="58" y="-107.5" font-family="Helvetica,sans-Serif" font-size="10.00">/e2e_protection/include</text>
<text text-anchor="middle" x="139" y="-96.5" font-family="Helvetica,sans-Serif" font-size="10.00">/e2e/profile/profile01/checker.hpp</text>
</a>
</g>
</g>
<!-- Node1&#45;&gt;Node2 -->
<g id="edge1" class="edge">
<title>Node1&#45;&gt;Node2</title>
<path fill="none" stroke="midnightblue" d="M255.81,-173.92C234.45,-163.41 210.62,-151.7 190.08,-141.61"/>
<polygon fill="midnightblue" stroke="midnightblue" points="254.29,-177.07 264.8,-178.34 257.37,-170.78 254.29,-177.07"/>
</g>
<!-- Node3 -->
<g id="node3" class="node">
<title>Node3</title>
<g id="a_node3"><a xlink:href="e2e__provider__impl_8cpp.html" target="_top" xlink:title=" ">
<polygon fill="white" stroke="black" points="174,-0.5 174,-52.5 338,-52.5 338,-0.5 174,-0.5"/>
<text text-anchor="start" x="182" y="-40.5" font-family="Helvetica,sans-Serif" font-size="10.00">/home/kali/projects</text>
<text text-anchor="start" x="182" y="-29.5" font-family="Helvetica,sans-Serif" font-size="10.00">/vsomeip/implementation</text>
<text text-anchor="start" x="182" y="-18.5" font-family="Helvetica,sans-Serif" font-size="10.00">/e2e_protection/src/e2e</text>
<text text-anchor="middle" x="256" y="-7.5" font-family="Helvetica,sans-Serif" font-size="10.00">/profile/e2e_provider_impl.cpp</text>
</a>
</g>
</g>
<!-- Node1&#45;&gt;Node3 -->
<g id="edge7" class="edge">
<title>Node1&#45;&gt;Node3</title>
<path fill="none" stroke="midnightblue" d="M289.91,-169.88C284.22,-161.19 278.78,-151.58 275,-142 263.45,-112.76 258.92,-76.64 257.15,-52.88"/>
<polygon fill="midnightblue" stroke="midnightblue" points="287.09,-171.96 295.63,-178.23 292.86,-168 287.09,-171.96"/>
</g>
<!-- Node5 -->
<g id="node5" class="node">
<title>Node5</title>
<g id="a_node5"><a xlink:href="profile01_2protector_8hpp.html" target="_top" xlink:title=" ">
<polygon fill="white" stroke="black" points="283.5,-89.5 283.5,-141.5 468.5,-141.5 468.5,-89.5 283.5,-89.5"/>
<text text-anchor="start" x="291.5" y="-129.5" font-family="Helvetica,sans-Serif" font-size="10.00">/home/kali/projects</text>
<text text-anchor="start" x="291.5" y="-118.5" font-family="Helvetica,sans-Serif" font-size="10.00">/vsomeip/implementation</text>
<text text-anchor="start" x="291.5" y="-107.5" font-family="Helvetica,sans-Serif" font-size="10.00">/e2e_protection/include</text>
<text text-anchor="middle" x="376" y="-96.5" font-family="Helvetica,sans-Serif" font-size="10.00">/e2e/profile/profile01/protector.hpp</text>
</a>
</g>
</g>
<!-- Node1&#45;&gt;Node5 -->
<g id="edge4" class="edge">
<title>Node1&#45;&gt;Node5</title>
<path fill="none" stroke="midnightblue" d="M339.15,-169.93C345.65,-160.51 352.59,-150.44 358.68,-141.61"/>
<polygon fill="midnightblue" stroke="midnightblue" points="336.15,-168.12 333.35,-178.34 341.91,-172.09 336.15,-168.12"/>
</g>
<!-- Node7 -->
<g id="node7" class="node">
<title>Node7</title>
<g id="a_node7"><a xlink:href="profile__01_8cpp.html" target="_top" xlink:title=" ">
<polygon fill="white" stroke="black" points="486.5,-89.5 486.5,-141.5 653.5,-141.5 653.5,-89.5 486.5,-89.5"/>
<text text-anchor="start" x="494.5" y="-129.5" font-family="Helvetica,sans-Serif" font-size="10.00">/home/kali/projects</text>
<text text-anchor="start" x="494.5" y="-118.5" font-family="Helvetica,sans-Serif" font-size="10.00">/vsomeip/implementation</text>
<text text-anchor="start" x="494.5" y="-107.5" font-family="Helvetica,sans-Serif" font-size="10.00">/e2e_protection/src/e2e</text>
<text text-anchor="middle" x="570" y="-96.5" font-family="Helvetica,sans-Serif" font-size="10.00">/profile/profile01/profile_01.cpp</text>
</a>
</g>
</g>
<!-- Node1&#45;&gt;Node7 -->
<g id="edge8" class="edge">
<title>Node1&#45;&gt;Node7</title>
<path fill="none" stroke="midnightblue" d="M398.8,-175.14C430.45,-164.3 466.28,-152.03 496.95,-141.52"/>
<polygon fill="midnightblue" stroke="midnightblue" points="397.45,-171.9 389.13,-178.45 399.72,-178.52 397.45,-171.9"/>
</g>
<!-- Node2&#45;&gt;Node3 -->
<g id="edge2" class="edge">
<title>Node2&#45;&gt;Node3</title>
<path fill="none" stroke="midnightblue" d="M181.07,-83.22C194.59,-73.16 209.39,-62.16 222.23,-52.61"/>
<polygon fill="midnightblue" stroke="midnightblue" points="178.78,-80.56 172.84,-89.34 182.95,-86.18 178.78,-80.56"/>
</g>
<!-- Node4 -->
<g id="node4" class="node">
<title>Node4</title>
<g id="a_node4"><a xlink:href="profile01_2checker_8cpp.html" target="_top" xlink:title=" ">
<polygon fill="white" stroke="black" points="0,-0.5 0,-52.5 156,-52.5 156,-0.5 0,-0.5"/>
<text text-anchor="start" x="8" y="-40.5" font-family="Helvetica,sans-Serif" font-size="10.00">/home/kali/projects</text>
<text text-anchor="start" x="8" y="-29.5" font-family="Helvetica,sans-Serif" font-size="10.00">/vsomeip/implementation</text>
<text text-anchor="start" x="8" y="-18.5" font-family="Helvetica,sans-Serif" font-size="10.00">/e2e_protection/src/e2e</text>
<text text-anchor="middle" x="78" y="-7.5" font-family="Helvetica,sans-Serif" font-size="10.00">/profile/profile01/checker.cpp</text>
</a>
</g>
</g>
<!-- Node2&#45;&gt;Node4 -->
<g id="edge3" class="edge">
<title>Node2&#45;&gt;Node4</title>
<path fill="none" stroke="midnightblue" d="M115.46,-80.93C108.86,-71.51 101.8,-61.44 95.6,-52.61"/>
<polygon fill="midnightblue" stroke="midnightblue" points="112.75,-83.16 121.36,-89.34 118.48,-79.14 112.75,-83.16"/>
</g>
<!-- Node5&#45;&gt;Node3 -->
<g id="edge5" class="edge">
<title>Node5&#45;&gt;Node3</title>
<path fill="none" stroke="midnightblue" d="M332.85,-83.22C318.98,-73.16 303.81,-62.16 290.63,-52.61"/>
<polygon fill="midnightblue" stroke="midnightblue" points="331.14,-86.3 341.29,-89.34 335.25,-80.63 331.14,-86.3"/>
</g>
<!-- Node6 -->
<g id="node6" class="node">
<title>Node6</title>
<g id="a_node6"><a xlink:href="profile01_2protector_8cpp.html" target="_top" xlink:title=" ">
<polygon fill="white" stroke="black" points="356.5,-0.5 356.5,-52.5 519.5,-52.5 519.5,-0.5 356.5,-0.5"/>
<text text-anchor="start" x="364.5" y="-40.5" font-family="Helvetica,sans-Serif" font-size="10.00">/home/kali/projects</text>
<text text-anchor="start" x="364.5" y="-29.5" font-family="Helvetica,sans-Serif" font-size="10.00">/vsomeip/implementation</text>
<text text-anchor="start" x="364.5" y="-18.5" font-family="Helvetica,sans-Serif" font-size="10.00">/e2e_protection/src/e2e</text>
<text text-anchor="middle" x="438" y="-7.5" font-family="Helvetica,sans-Serif" font-size="10.00">/profile/profile01/protector.cpp</text>
</a>
</g>
</g>
<!-- Node5&#45;&gt;Node6 -->
<g id="edge6" class="edge">
<title>Node5&#45;&gt;Node6</title>
<path fill="none" stroke="midnightblue" d="M399.93,-80.93C406.64,-71.51 413.81,-61.44 420.11,-52.61"/>
<polygon fill="midnightblue" stroke="midnightblue" points="396.89,-79.16 393.93,-89.34 402.59,-83.22 396.89,-79.16"/>
</g>
</g>
</svg>
