<?xml version="1.0" encoding="UTF-8" standalone="no"?>
<!DOCTYPE svg PUBLIC "-//W3C//DTD SVG 1.1//EN"
 "http://www.w3.org/Graphics/SVG/1.1/DTD/svg11.dtd">
<!-- Generated by graphviz version 2.43.0 (0)
 -->
<!-- Title: /home/kali/projects/vsomeip/implementation/e2e_protection/include/e2e/profile/profile04/checker.hpp Pages: 1 -->
<svg width="665pt" height="251pt"
 viewBox="0.00 0.00 665.15 251.00" xmlns="http://www.w3.org/2000/svg" xmlns:xlink="http://www.w3.org/1999/xlink">
<g id="graph0" class="graph" transform="scale(1 1) rotate(0) translate(4 247)">
<title>/home/kali/projects/vsomeip/implementation/e2e_protection/include/e2e/profile/profile04/checker.hpp</title>
<polygon fill="white" stroke="transparent" points="-4,4 -4,-247 661.15,-247 661.15,4 -4,4"/>
<!-- Node1 -->
<g id="node1" class="node">
<title>Node1</title>
<g id="a_node1"><a xlink:title=" ">
<polygon fill="#bfbfbf" stroke="black" points="125.65,-190.5 125.65,-242.5 303.65,-242.5 303.65,-190.5 125.65,-190.5"/>
<text text-anchor="start" x="133.65" y="-230.5" font-family="Helvetica,sans-Serif" font-size="10.00">/home/kali/projects</text>
<text text-anchor="start" x="133.65" y="-219.5" font-family="Helvetica,sans-Serif" font-size="10.00">/vsomeip/implementation</text>
<text text-anchor="start" x="133.65" y="-208.5" font-family="Helvetica,sans-Serif" font-size="10.00">/e2e_protection/include</text>
<text text-anchor="middle" x="214.65" y="-197.5" font-family="Helvetica,sans-Serif" font-size="10.00">/e2e/profile/profile04/checker.hpp</text>
</a>
</g>
</g>
<!-- Node2 -->
<g id="node2" class="node">
<title>Node2</title>
<g id="a_node2"><a xlink:href="profile__04_8hpp.html" target="_top" xlink:title=" ">
<polygon fill="white" stroke="black" points="102.65,-123.5 102.65,-153.5 204.65,-153.5 204.65,-123.5 102.65,-123.5"/>
<text text-anchor="start" x="110.65" y="-141.5" font-family="Helvetica,sans-Serif" font-size="10.00">../profile04/profile</text>
<text text-anchor="middle" x="153.65" y="-130.5" font-family="Helvetica,sans-Serif" font-size="10.00">_04.hpp</text>
</a>
</g>
</g>
<!-- Node1&#45;&gt;Node2 -->
<g id="edge1" class="edge">
<title>Node1&#45;&gt;Node2</title>
<path fill="none" stroke="midnightblue" d="M194.33,-190.19C186.98,-181.03 178.73,-170.76 171.6,-161.86"/>
<polygon fill="midnightblue" stroke="midnightblue" points="174.15,-159.45 165.16,-153.85 168.69,-163.83 174.15,-159.45"/>
</g>
<!-- Node9 -->
<g id="node9" class="node">
<title>Node9</title>
<g id="a_node9"><a xlink:href="profile__interface_2checker_8hpp.html" target="_top" xlink:title=" ">
<polygon fill="white" stroke="black" points="300.15,-123.5 300.15,-153.5 405.15,-153.5 405.15,-123.5 300.15,-123.5"/>
<text text-anchor="start" x="308.15" y="-141.5" font-family="Helvetica,sans-Serif" font-size="10.00">../profile_interface</text>
<text text-anchor="middle" x="352.65" y="-130.5" font-family="Helvetica,sans-Serif" font-size="10.00">/checker.hpp</text>
</a>
</g>
</g>
<!-- Node1&#45;&gt;Node9 -->
<g id="edge9" class="edge">
<title>Node1&#45;&gt;Node9</title>
<path fill="none" stroke="midnightblue" d="M260.21,-190.4C279.07,-180.02 300.57,-168.18 318.09,-158.53"/>
<polygon fill="midnightblue" stroke="midnightblue" points="319.78,-161.6 326.85,-153.71 316.4,-155.46 319.78,-161.6"/>
</g>
<!-- Node3 -->
<g id="node3" class="node">
<title>Node3</title>
<g id="a_node3"><a xlink:title=" ">
<polygon fill="white" stroke="#bfbfbf" points="179.65,-0.5 179.65,-19.5 229.65,-19.5 229.65,-0.5 179.65,-0.5"/>
<text text-anchor="middle" x="204.65" y="-7.5" font-family="Helvetica,sans-Serif" font-size="10.00">cstdint</text>
</a>
</g>
</g>
<!-- Node2&#45;&gt;Node3 -->
<g id="edge2" class="edge">
<title>Node2&#45;&gt;Node3</title>
<path fill="none" stroke="midnightblue" d="M102.5,-128.64C49.19,-117.18 -22.67,-94.02 7.65,-56 27.49,-31.11 118.22,-18.89 169.34,-13.89"/>
<polygon fill="midnightblue" stroke="midnightblue" points="169.68,-17.37 179.31,-12.96 169.03,-10.41 169.68,-17.37"/>
</g>
<!-- Node4 -->
<g id="node4" class="node">
<title>Node4</title>
<g id="a_node4"><a xlink:title=" ">
<polygon fill="white" stroke="#bfbfbf" points="16.65,-62 16.65,-81 134.65,-81 134.65,-62 16.65,-62"/>
<text text-anchor="middle" x="75.65" y="-69" font-family="Helvetica,sans-Serif" font-size="10.00">vsomeip/defines.hpp</text>
</a>
</g>
</g>
<!-- Node2&#45;&gt;Node4 -->
<g id="edge3" class="edge">
<title>Node2&#45;&gt;Node4</title>
<path fill="none" stroke="midnightblue" d="M136.72,-123.4C124.08,-112.86 106.82,-98.48 93.87,-87.69"/>
<polygon fill="midnightblue" stroke="midnightblue" points="96,-84.91 86.08,-81.19 91.52,-90.29 96,-84.91"/>
</g>
<!-- Node5 -->
<g id="node5" class="node">
<title>Node5</title>
<g id="a_node5"><a xlink:href="e2e__protection_2include_2buffer_2buffer_8hpp.html" target="_top" xlink:title=" ">
<polygon fill="white" stroke="black" points="290.65,-62 290.65,-81 414.65,-81 414.65,-62 290.65,-62"/>
<text text-anchor="middle" x="352.65" y="-69" font-family="Helvetica,sans-Serif" font-size="10.00">../../../buffer/buffer.hpp</text>
</a>
</g>
</g>
<!-- Node2&#45;&gt;Node5 -->
<g id="edge4" class="edge">
<title>Node2&#45;&gt;Node5</title>
<path fill="none" stroke="midnightblue" d="M196.83,-123.4C232.67,-111.69 283.05,-95.23 316.72,-84.23"/>
<polygon fill="midnightblue" stroke="midnightblue" points="318.18,-87.44 326.6,-81.01 316.01,-80.78 318.18,-87.44"/>
</g>
<!-- Node5&#45;&gt;Node3 -->
<g id="edge6" class="edge">
<title>Node5&#45;&gt;Node3</title>
<path fill="none" stroke="midnightblue" d="M331.44,-61.98C306.27,-51.86 264.11,-34.9 235.37,-23.35"/>
<polygon fill="midnightblue" stroke="midnightblue" points="236.4,-19.99 225.81,-19.51 233.78,-26.49 236.4,-19.99"/>
</g>
<!-- Node6 -->
<g id="node6" class="node">
<title>Node6</title>
<g id="a_node6"><a xlink:title=" ">
<polygon fill="white" stroke="#bfbfbf" points="248.15,-0.5 248.15,-19.5 313.15,-19.5 313.15,-0.5 248.15,-0.5"/>
<text text-anchor="middle" x="280.65" y="-7.5" font-family="Helvetica,sans-Serif" font-size="10.00">stdexcept</text>
</a>
</g>
</g>
<!-- Node5&#45;&gt;Node6 -->
<g id="edge5" class="edge">
<title>Node5&#45;&gt;Node6</title>
<path fill="none" stroke="midnightblue" d="M342.33,-61.98C331,-52.61 312.57,-37.38 298.81,-26.01"/>
<polygon fill="midnightblue" stroke="midnightblue" points="300.88,-23.18 290.94,-19.51 296.42,-28.58 300.88,-23.18"/>
</g>
<!-- Node7 -->
<g id="node7" class="node">
<title>Node7</title>
<g id="a_node7"><a xlink:title=" ">
<polygon fill="white" stroke="#bfbfbf" points="331.15,-0.5 331.15,-19.5 388.15,-19.5 388.15,-0.5 331.15,-0.5"/>
<text text-anchor="middle" x="359.65" y="-7.5" font-family="Helvetica,sans-Serif" font-size="10.00">ostream</text>
</a>
</g>
</g>
<!-- Node5&#45;&gt;Node7 -->
<g id="edge7" class="edge">
<title>Node5&#45;&gt;Node7</title>
<path fill="none" stroke="midnightblue" d="M353.65,-61.98C354.64,-53.58 356.18,-40.48 357.45,-29.66"/>
<polygon fill="midnightblue" stroke="midnightblue" points="360.95,-29.85 358.64,-19.51 354,-29.03 360.95,-29.85"/>
</g>
<!-- Node8 -->
<g id="node8" class="node">
<title>Node8</title>
<g id="a_node8"><a xlink:title=" ">
<polygon fill="white" stroke="#bfbfbf" points="406.15,-0.5 406.15,-19.5 453.15,-19.5 453.15,-0.5 406.15,-0.5"/>
<text text-anchor="middle" x="429.65" y="-7.5" font-family="Helvetica,sans-Serif" font-size="10.00">vector</text>
</a>
</g>
</g>
<!-- Node5&#45;&gt;Node8 -->
<g id="edge8" class="edge">
<title>Node5&#45;&gt;Node8</title>
<path fill="none" stroke="midnightblue" d="M363.68,-61.98C375.91,-52.52 395.87,-37.1 410.64,-25.69"/>
<polygon fill="midnightblue" stroke="midnightblue" points="412.86,-28.39 418.63,-19.51 408.58,-22.85 412.86,-28.39"/>
</g>
<!-- Node9&#45;&gt;Node5 -->
<g id="edge14" class="edge">
<title>Node9&#45;&gt;Node5</title>
<path fill="none" stroke="midnightblue" d="M352.65,-123.4C352.65,-114.06 352.65,-101.71 352.65,-91.52"/>
<polygon fill="midnightblue" stroke="midnightblue" points="356.15,-91.19 352.65,-81.19 349.15,-91.19 356.15,-91.19"/>
</g>
<!-- Node10 -->
<g id="node10" class="node">
<title>Node10</title>
<g id="a_node10"><a xlink:title=" ">
<polygon fill="white" stroke="#bfbfbf" points="432.65,-62 432.65,-81 480.65,-81 480.65,-62 432.65,-62"/>
<text text-anchor="middle" x="456.65" y="-69" font-family="Helvetica,sans-Serif" font-size="10.00">mutex</text>
</a>
</g>
</g>
<!-- Node9&#45;&gt;Node10 -->
<g id="edge10" class="edge">
<title>Node9&#45;&gt;Node10</title>
<path fill="none" stroke="midnightblue" d="M375.21,-123.4C392.65,-112.5 416.68,-97.48 434.11,-86.58"/>
<polygon fill="midnightblue" stroke="midnightblue" points="436.41,-89.28 443.03,-81.01 432.7,-83.34 436.41,-89.28"/>
</g>
<!-- Node11 -->
<g id="node11" class="node">
<title>Node11</title>
<g id="a_node11"><a xlink:title=" ">
<polygon fill="white" stroke="#bfbfbf" points="498.15,-62 498.15,-81 657.15,-81 657.15,-62 498.15,-62"/>
<text text-anchor="middle" x="577.65" y="-69" font-family="Helvetica,sans-Serif" font-size="10.00">vsomeip/primitive_types.hpp</text>
</a>
</g>
</g>
<!-- Node9&#45;&gt;Node11 -->
<g id="edge11" class="edge">
<title>Node9&#45;&gt;Node11</title>
<path fill="none" stroke="midnightblue" d="M401.19,-123.48C442.22,-111.62 500.25,-94.86 538.4,-83.84"/>
<polygon fill="midnightblue" stroke="midnightblue" points="539.49,-87.17 548.12,-81.03 537.55,-80.44 539.49,-87.17"/>
</g>
<!-- Node12 -->
<g id="node12" class="node">
<title>Node12</title>
<g id="a_node12"><a xlink:href="profile__interface_8hpp.html" target="_top" xlink:title=" ">
<polygon fill="white" stroke="black" points="152.65,-56.5 152.65,-86.5 272.65,-86.5 272.65,-56.5 152.65,-56.5"/>
<text text-anchor="start" x="160.65" y="-74.5" font-family="Helvetica,sans-Serif" font-size="10.00">../profile_interface</text>
<text text-anchor="middle" x="212.65" y="-63.5" font-family="Helvetica,sans-Serif" font-size="10.00">/profile_interface.hpp</text>
</a>
</g>
</g>
<!-- Node9&#45;&gt;Node12 -->
<g id="edge12" class="edge">
<title>Node9&#45;&gt;Node12</title>
<path fill="none" stroke="midnightblue" d="M322.27,-123.4C301.72,-113.86 274.38,-101.16 252.15,-90.84"/>
<polygon fill="midnightblue" stroke="midnightblue" points="253.51,-87.61 242.96,-86.58 250.56,-93.96 253.51,-87.61"/>
</g>
<!-- Node12&#45;&gt;Node3 -->
<g id="edge13" class="edge">
<title>Node12&#45;&gt;Node3</title>
<path fill="none" stroke="midnightblue" d="M210.75,-56.4C209.67,-48.38 208.31,-38.23 207.14,-29.57"/>
<polygon fill="midnightblue" stroke="midnightblue" points="210.61,-29.1 205.81,-19.66 203.67,-30.04 210.61,-29.1"/>
</g>
</g>
</svg>
