<?xml version="1.0" encoding="UTF-8" standalone="no"?>
<!DOCTYPE svg PUBLIC "-//W3C//DTD SVG 1.1//EN"
 "http://www.w3.org/Graphics/SVG/1.1/DTD/svg11.dtd">
<!-- Generated by graphviz version 2.43.0 (0)
 -->
<!-- Title: /home/kali/projects/vsomeip/implementation/e2e_protection/src/e2e/profile/profile04/protector.cpp Pages: 1 -->
<svg width="933pt" height="340pt"
 viewBox="0.00 0.00 932.50 340.00" xmlns="http://www.w3.org/2000/svg" xmlns:xlink="http://www.w3.org/1999/xlink">
<g id="graph0" class="graph" transform="scale(1 1) rotate(0) translate(4 336)">
<title>/home/kali/projects/vsomeip/implementation/e2e_protection/src/e2e/profile/profile04/protector.cpp</title>
<polygon fill="white" stroke="transparent" points="-4,4 -4,-336 928.5,-336 928.5,4 -4,4"/>
<!-- Node1 -->
<g id="node1" class="node">
<title>Node1</title>
<g id="a_node1"><a xlink:title=" ">
<polygon fill="#bfbfbf" stroke="black" points="457,-279.5 457,-331.5 620,-331.5 620,-279.5 457,-279.5"/>
<text text-anchor="start" x="465" y="-319.5" font-family="Helvetica,sans-Serif" font-size="10.00">/home/kali/projects</text>
<text text-anchor="start" x="465" y="-308.5" font-family="Helvetica,sans-Serif" font-size="10.00">/vsomeip/implementation</text>
<text text-anchor="start" x="465" y="-297.5" font-family="Helvetica,sans-Serif" font-size="10.00">/e2e_protection/src/e2e</text>
<text text-anchor="middle" x="538.5" y="-286.5" font-family="Helvetica,sans-Serif" font-size="10.00">/profile/profile04/protector.cpp</text>
</a>
</g>
</g>
<!-- Node2 -->
<g id="node2" class="node">
<title>Node2</title>
<g id="a_node2"><a xlink:title=" ">
<polygon fill="white" stroke="#bfbfbf" points="329.5,-207 329.5,-226 385.5,-226 385.5,-207 329.5,-207"/>
<text text-anchor="middle" x="357.5" y="-214" font-family="Helvetica,sans-Serif" font-size="10.00">iomanip</text>
</a>
</g>
</g>
<!-- Node1&#45;&gt;Node2 -->
<g id="edge1" class="edge">
<title>Node1&#45;&gt;Node2</title>
<path fill="none" stroke="midnightblue" d="M473.23,-279.42C448.41,-269.11 420.18,-256.44 395.5,-243 389.46,-239.71 383.15,-235.73 377.45,-231.89"/>
<polygon fill="midnightblue" stroke="midnightblue" points="379.34,-228.94 369.13,-226.12 375.35,-234.7 379.34,-228.94"/>
</g>
<!-- Node3 -->
<g id="node3" class="node">
<title>Node3</title>
<g id="a_node3"><a xlink:href="profile04_2protector_8hpp.html" target="_top" xlink:title=" ">
<polygon fill="white" stroke="black" points="404,-190.5 404,-242.5 521,-242.5 521,-190.5 404,-190.5"/>
<text text-anchor="start" x="412" y="-230.5" font-family="Helvetica,sans-Serif" font-size="10.00">../../../../../e2e</text>
<text text-anchor="start" x="412" y="-219.5" font-family="Helvetica,sans-Serif" font-size="10.00">_protection/include</text>
<text text-anchor="start" x="412" y="-208.5" font-family="Helvetica,sans-Serif" font-size="10.00">/e2e/profile/profile04</text>
<text text-anchor="middle" x="462.5" y="-197.5" font-family="Helvetica,sans-Serif" font-size="10.00">/protector.hpp</text>
</a>
</g>
</g>
<!-- Node1&#45;&gt;Node3 -->
<g id="edge2" class="edge">
<title>Node1&#45;&gt;Node3</title>
<path fill="none" stroke="midnightblue" d="M516.52,-279.34C508.56,-270.23 499.46,-259.81 491.02,-250.15"/>
<polygon fill="midnightblue" stroke="midnightblue" points="493.65,-247.84 484.43,-242.61 488.38,-252.44 493.65,-247.84"/>
</g>
<!-- Node15 -->
<g id="node15" class="node">
<title>Node15</title>
<g id="a_node15"><a xlink:href="logger_8hpp.html" target="_top" xlink:title=" ">
<polygon fill="white" stroke="black" points="539,-207 539,-226 692,-226 692,-207 539,-207"/>
<text text-anchor="middle" x="615.5" y="-214" font-family="Helvetica,sans-Serif" font-size="10.00">vsomeip/internal/logger.hpp</text>
</a>
</g>
</g>
<!-- Node1&#45;&gt;Node15 -->
<g id="edge17" class="edge">
<title>Node1&#45;&gt;Node15</title>
<path fill="none" stroke="midnightblue" d="M560.77,-279.34C573.74,-264.68 589.72,-246.63 601.06,-233.82"/>
<polygon fill="midnightblue" stroke="midnightblue" points="603.75,-236.06 607.76,-226.25 598.51,-231.42 603.75,-236.06"/>
</g>
<!-- Node20 -->
<g id="node20" class="node">
<title>Node20</title>
<g id="a_node20"><a xlink:title=" ">
<polygon fill="white" stroke="#bfbfbf" points="710,-201.5 710,-231.5 811,-231.5 811,-201.5 710,-201.5"/>
<text text-anchor="start" x="718" y="-219.5" font-family="Helvetica,sans-Serif" font-size="10.00">../../utility/include</text>
<text text-anchor="middle" x="760.5" y="-208.5" font-family="Helvetica,sans-Serif" font-size="10.00">/byteorder.hpp</text>
</a>
</g>
</g>
<!-- Node1&#45;&gt;Node20 -->
<g id="edge25" class="edge">
<title>Node1&#45;&gt;Node20</title>
<path fill="none" stroke="midnightblue" d="M606.98,-279.48C636.22,-268.58 670.66,-255.48 701.5,-243 707.34,-240.64 713.47,-238.08 719.48,-235.52"/>
<polygon fill="midnightblue" stroke="midnightblue" points="720.96,-238.7 728.77,-231.54 718.2,-232.26 720.96,-238.7"/>
</g>
<!-- Node4 -->
<g id="node4" class="node">
<title>Node4</title>
<g id="a_node4"><a xlink:title=" ">
<polygon fill="white" stroke="#bfbfbf" points="440.5,-129 440.5,-148 488.5,-148 488.5,-129 440.5,-129"/>
<text text-anchor="middle" x="464.5" y="-136" font-family="Helvetica,sans-Serif" font-size="10.00">mutex</text>
</a>
</g>
</g>
<!-- Node3&#45;&gt;Node4 -->
<g id="edge3" class="edge">
<title>Node3&#45;&gt;Node4</title>
<path fill="none" stroke="midnightblue" d="M463.17,-190.19C463.44,-179.76 463.75,-167.9 464.01,-158.27"/>
<polygon fill="midnightblue" stroke="midnightblue" points="467.51,-158.3 464.27,-148.21 460.51,-158.11 467.51,-158.3"/>
</g>
<!-- Node5 -->
<g id="node5" class="node">
<title>Node5</title>
<g id="a_node5"><a xlink:href="profile__04_8hpp.html" target="_top" xlink:title=" ">
<polygon fill="white" stroke="black" points="320.5,-123.5 320.5,-153.5 422.5,-153.5 422.5,-123.5 320.5,-123.5"/>
<text text-anchor="start" x="328.5" y="-141.5" font-family="Helvetica,sans-Serif" font-size="10.00">../profile04/profile</text>
<text text-anchor="middle" x="371.5" y="-130.5" font-family="Helvetica,sans-Serif" font-size="10.00">_04.hpp</text>
</a>
</g>
</g>
<!-- Node3&#45;&gt;Node5 -->
<g id="edge4" class="edge">
<title>Node3&#45;&gt;Node5</title>
<path fill="none" stroke="midnightblue" d="M432.45,-190.4C420.7,-180.59 407.4,-169.48 396.22,-160.14"/>
<polygon fill="midnightblue" stroke="midnightblue" points="398.43,-157.43 388.51,-153.71 393.94,-162.8 398.43,-157.43"/>
</g>
<!-- Node12 -->
<g id="node12" class="node">
<title>Node12</title>
<g id="a_node12"><a xlink:href="profile__interface_2protector_8hpp.html" target="_top" xlink:title=" ">
<polygon fill="white" stroke="black" points="193,-123.5 193,-153.5 298,-153.5 298,-123.5 193,-123.5"/>
<text text-anchor="start" x="201" y="-141.5" font-family="Helvetica,sans-Serif" font-size="10.00">../profile_interface</text>
<text text-anchor="middle" x="245.5" y="-130.5" font-family="Helvetica,sans-Serif" font-size="10.00">/protector.hpp</text>
</a>
</g>
</g>
<!-- Node3&#45;&gt;Node12 -->
<g id="edge12" class="edge">
<title>Node3&#45;&gt;Node12</title>
<path fill="none" stroke="midnightblue" d="M403.94,-193.4C400.75,-192.24 397.59,-191.1 394.5,-190 362.51,-178.59 326.45,-166.35 297.81,-156.78"/>
<polygon fill="midnightblue" stroke="midnightblue" points="298.61,-153.35 288.01,-153.51 296.39,-159.99 298.61,-153.35"/>
</g>
<!-- Node6 -->
<g id="node6" class="node">
<title>Node6</title>
<g id="a_node6"><a xlink:title=" ">
<polygon fill="white" stroke="#bfbfbf" points="437.5,-0.5 437.5,-19.5 487.5,-19.5 487.5,-0.5 437.5,-0.5"/>
<text text-anchor="middle" x="462.5" y="-7.5" font-family="Helvetica,sans-Serif" font-size="10.00">cstdint</text>
</a>
</g>
</g>
<!-- Node5&#45;&gt;Node6 -->
<g id="edge5" class="edge">
<title>Node5&#45;&gt;Node6</title>
<path fill="none" stroke="midnightblue" d="M403.72,-123.47C419.28,-115.09 436.84,-102.93 447.5,-87 458.81,-70.09 461.99,-46.62 462.7,-30.26"/>
<polygon fill="midnightblue" stroke="midnightblue" points="466.21,-29.84 462.86,-19.79 459.21,-29.73 466.21,-29.84"/>
</g>
<!-- Node7 -->
<g id="node7" class="node">
<title>Node7</title>
<g id="a_node7"><a xlink:title=" ">
<polygon fill="white" stroke="#bfbfbf" points="494.5,-62 494.5,-81 612.5,-81 612.5,-62 494.5,-62"/>
<text text-anchor="middle" x="553.5" y="-69" font-family="Helvetica,sans-Serif" font-size="10.00">vsomeip/defines.hpp</text>
</a>
</g>
</g>
<!-- Node5&#45;&gt;Node7 -->
<g id="edge6" class="edge">
<title>Node5&#45;&gt;Node7</title>
<path fill="none" stroke="midnightblue" d="M410.99,-123.4C443.63,-111.74 489.46,-95.37 520.25,-84.38"/>
<polygon fill="midnightblue" stroke="midnightblue" points="521.44,-87.67 529.68,-81.01 519.09,-81.07 521.44,-87.67"/>
</g>
<!-- Node8 -->
<g id="node8" class="node">
<title>Node8</title>
<g id="a_node8"><a xlink:href="e2e__protection_2include_2buffer_2buffer_8hpp.html" target="_top" xlink:title=" ">
<polygon fill="white" stroke="black" points="314.5,-62 314.5,-81 438.5,-81 438.5,-62 314.5,-62"/>
<text text-anchor="middle" x="376.5" y="-69" font-family="Helvetica,sans-Serif" font-size="10.00">../../../buffer/buffer.hpp</text>
</a>
</g>
</g>
<!-- Node5&#45;&gt;Node8 -->
<g id="edge7" class="edge">
<title>Node5&#45;&gt;Node8</title>
<path fill="none" stroke="midnightblue" d="M372.58,-123.4C373.31,-113.96 374.27,-101.45 375.06,-91.19"/>
<polygon fill="midnightblue" stroke="midnightblue" points="378.55,-91.43 375.83,-81.19 371.57,-90.9 378.55,-91.43"/>
</g>
<!-- Node8&#45;&gt;Node6 -->
<g id="edge9" class="edge">
<title>Node8&#45;&gt;Node6</title>
<path fill="none" stroke="midnightblue" d="M388.82,-61.98C402.62,-52.43 425.2,-36.81 441.73,-25.37"/>
<polygon fill="midnightblue" stroke="midnightblue" points="443.97,-28.08 450.2,-19.51 439.99,-22.32 443.97,-28.08"/>
</g>
<!-- Node9 -->
<g id="node9" class="node">
<title>Node9</title>
<g id="a_node9"><a xlink:title=" ">
<polygon fill="white" stroke="#bfbfbf" points="347,-0.5 347,-19.5 412,-19.5 412,-0.5 347,-0.5"/>
<text text-anchor="middle" x="379.5" y="-7.5" font-family="Helvetica,sans-Serif" font-size="10.00">stdexcept</text>
</a>
</g>
</g>
<!-- Node8&#45;&gt;Node9 -->
<g id="edge8" class="edge">
<title>Node8&#45;&gt;Node9</title>
<path fill="none" stroke="midnightblue" d="M376.93,-61.98C377.35,-53.58 378.01,-40.48 378.56,-29.66"/>
<polygon fill="midnightblue" stroke="midnightblue" points="382.06,-29.67 379.07,-19.51 375.07,-29.32 382.06,-29.67"/>
</g>
<!-- Node10 -->
<g id="node10" class="node">
<title>Node10</title>
<g id="a_node10"><a xlink:title=" ">
<polygon fill="white" stroke="#bfbfbf" points="663,-0.5 663,-19.5 720,-19.5 720,-0.5 663,-0.5"/>
<text text-anchor="middle" x="691.5" y="-7.5" font-family="Helvetica,sans-Serif" font-size="10.00">ostream</text>
</a>
</g>
</g>
<!-- Node8&#45;&gt;Node10 -->
<g id="edge10" class="edge">
<title>Node8&#45;&gt;Node10</title>
<path fill="none" stroke="midnightblue" d="M421.63,-61.98C483.74,-50.24 594.49,-29.32 652.93,-18.29"/>
<polygon fill="midnightblue" stroke="midnightblue" points="653.69,-21.7 662.87,-16.41 652.39,-14.82 653.69,-21.7"/>
</g>
<!-- Node11 -->
<g id="node11" class="node">
<title>Node11</title>
<g id="a_node11"><a xlink:title=" ">
<polygon fill="white" stroke="#bfbfbf" points="282,-0.5 282,-19.5 329,-19.5 329,-0.5 282,-0.5"/>
<text text-anchor="middle" x="305.5" y="-7.5" font-family="Helvetica,sans-Serif" font-size="10.00">vector</text>
</a>
</g>
</g>
<!-- Node8&#45;&gt;Node11 -->
<g id="edge11" class="edge">
<title>Node8&#45;&gt;Node11</title>
<path fill="none" stroke="midnightblue" d="M366.33,-61.98C355.15,-52.61 336.98,-37.38 323.41,-26.01"/>
<polygon fill="midnightblue" stroke="midnightblue" points="325.57,-23.25 315.65,-19.51 321.07,-28.61 325.57,-23.25"/>
</g>
<!-- Node12&#45;&gt;Node8 -->
<g id="edge14" class="edge">
<title>Node12&#45;&gt;Node8</title>
<path fill="none" stroke="midnightblue" d="M273.93,-123.4C296.61,-112.14 328.13,-96.5 350.22,-85.54"/>
<polygon fill="midnightblue" stroke="midnightblue" points="351.95,-88.59 359.36,-81.01 348.84,-82.32 351.95,-88.59"/>
</g>
<!-- Node13 -->
<g id="node13" class="node">
<title>Node13</title>
<g id="a_node13"><a xlink:title=" ">
<polygon fill="white" stroke="#bfbfbf" points="0,-62 0,-81 159,-81 159,-62 0,-62"/>
<text text-anchor="middle" x="79.5" y="-69" font-family="Helvetica,sans-Serif" font-size="10.00">vsomeip/primitive_types.hpp</text>
</a>
</g>
</g>
<!-- Node12&#45;&gt;Node13 -->
<g id="edge13" class="edge">
<title>Node12&#45;&gt;Node13</title>
<path fill="none" stroke="midnightblue" d="M209.48,-123.4C179.97,-111.84 138.64,-95.66 110.56,-84.66"/>
<polygon fill="midnightblue" stroke="midnightblue" points="111.81,-81.39 101.23,-81.01 109.26,-87.91 111.81,-81.39"/>
</g>
<!-- Node14 -->
<g id="node14" class="node">
<title>Node14</title>
<g id="a_node14"><a xlink:href="profile__interface_8hpp.html" target="_top" xlink:title=" ">
<polygon fill="white" stroke="black" points="176.5,-56.5 176.5,-86.5 296.5,-86.5 296.5,-56.5 176.5,-56.5"/>
<text text-anchor="start" x="184.5" y="-74.5" font-family="Helvetica,sans-Serif" font-size="10.00">../profile_interface</text>
<text text-anchor="middle" x="236.5" y="-63.5" font-family="Helvetica,sans-Serif" font-size="10.00">/profile_interface.hpp</text>
</a>
</g>
</g>
<!-- Node12&#45;&gt;Node14 -->
<g id="edge15" class="edge">
<title>Node12&#45;&gt;Node14</title>
<path fill="none" stroke="midnightblue" d="M243.55,-123.4C242.46,-115.56 241.08,-105.6 239.83,-96.57"/>
<polygon fill="midnightblue" stroke="midnightblue" points="243.29,-96 238.45,-86.58 236.35,-96.96 243.29,-96"/>
</g>
<!-- Node14&#45;&gt;Node6 -->
<g id="edge16" class="edge">
<title>Node14&#45;&gt;Node6</title>
<path fill="none" stroke="midnightblue" d="M289.77,-56.47C332.36,-45.26 390.82,-29.87 427.63,-20.18"/>
<polygon fill="midnightblue" stroke="midnightblue" points="428.62,-23.54 437.4,-17.61 426.84,-16.77 428.62,-23.54"/>
</g>
<!-- Node15&#45;&gt;Node4 -->
<g id="edge20" class="edge">
<title>Node15&#45;&gt;Node4</title>
<path fill="none" stroke="midnightblue" d="M598.47,-206.93C572.3,-193.76 521.99,-168.43 491.02,-152.85"/>
<polygon fill="midnightblue" stroke="midnightblue" points="492.2,-149.53 481.7,-148.16 489.06,-155.78 492.2,-149.53"/>
</g>
<!-- Node15&#45;&gt;Node6 -->
<g id="edge19" class="edge">
<title>Node15&#45;&gt;Node6</title>
<path fill="none" stroke="midnightblue" d="M645.48,-206.95C692.94,-193.12 780.9,-166.16 789.5,-154 797.46,-142.75 797.23,-134.4 789.5,-123 723.69,-25.9 567.74,-11.79 497.67,-10.54"/>
<polygon fill="midnightblue" stroke="midnightblue" points="497.61,-7.04 487.58,-10.44 497.54,-14.04 497.61,-7.04"/>
</g>
<!-- Node15&#45;&gt;Node10 -->
<g id="edge21" class="edge">
<title>Node15&#45;&gt;Node10</title>
<path fill="none" stroke="midnightblue" d="M644.27,-206.97C701.12,-190.1 822.41,-154.12 822.5,-154 848.55,-119.09 847.81,-91.45 822.5,-56 801.75,-26.94 761,-16.45 730.43,-12.77"/>
<polygon fill="midnightblue" stroke="midnightblue" points="730.39,-9.24 720.09,-11.73 729.69,-16.21 730.39,-9.24"/>
</g>
<!-- Node16 -->
<g id="node16" class="node">
<title>Node16</title>
<g id="a_node16"><a xlink:title=" ">
<polygon fill="white" stroke="#bfbfbf" points="874.5,-129 874.5,-148 924.5,-148 924.5,-129 874.5,-129"/>
<text text-anchor="middle" x="899.5" y="-136" font-family="Helvetica,sans-Serif" font-size="10.00">chrono</text>
</a>
</g>
</g>
<!-- Node15&#45;&gt;Node16 -->
<g id="edge18" class="edge">
<title>Node15&#45;&gt;Node16</title>
<path fill="none" stroke="midnightblue" d="M642.87,-206.89C659.7,-201.71 681.76,-195.16 701.5,-190 771.6,-171.69 791.06,-174.67 860.5,-154 863.07,-153.23 865.72,-152.39 868.37,-151.49"/>
<polygon fill="midnightblue" stroke="midnightblue" points="869.55,-154.79 877.81,-148.15 867.21,-148.19 869.55,-154.79"/>
</g>
<!-- Node17 -->
<g id="node17" class="node">
<title>Node17</title>
<g id="a_node17"><a xlink:title=" ">
<polygon fill="white" stroke="#bfbfbf" points="506.5,-129 506.5,-148 562.5,-148 562.5,-129 506.5,-129"/>
<text text-anchor="middle" x="534.5" y="-136" font-family="Helvetica,sans-Serif" font-size="10.00">sstream</text>
</a>
</g>
</g>
<!-- Node15&#45;&gt;Node17 -->
<g id="edge22" class="edge">
<title>Node15&#45;&gt;Node17</title>
<path fill="none" stroke="midnightblue" d="M606.21,-206.78C592.78,-194.18 567.74,-170.69 551.09,-155.07"/>
<polygon fill="midnightblue" stroke="midnightblue" points="553.37,-152.41 543.68,-148.12 548.58,-157.51 553.37,-152.41"/>
</g>
<!-- Node18 -->
<g id="node18" class="node">
<title>Node18</title>
<g id="a_node18"><a xlink:title=" ">
<polygon fill="white" stroke="#bfbfbf" points="581,-129 581,-148 648,-148 648,-129 581,-129"/>
<text text-anchor="middle" x="614.5" y="-136" font-family="Helvetica,sans-Serif" font-size="10.00">streambuf</text>
</a>
</g>
</g>
<!-- Node15&#45;&gt;Node18 -->
<g id="edge23" class="edge">
<title>Node15&#45;&gt;Node18</title>
<path fill="none" stroke="midnightblue" d="M615.39,-206.78C615.23,-194.99 614.95,-173.63 614.75,-158.14"/>
<polygon fill="midnightblue" stroke="midnightblue" points="618.24,-158.07 614.61,-148.12 611.25,-158.16 618.24,-158.07"/>
</g>
<!-- Node19 -->
<g id="node19" class="node">
<title>Node19</title>
<g id="a_node19"><a xlink:title=" ">
<polygon fill="white" stroke="#bfbfbf" points="666.5,-129 666.5,-148 780.5,-148 780.5,-129 666.5,-129"/>
<text text-anchor="middle" x="723.5" y="-136" font-family="Helvetica,sans-Serif" font-size="10.00">vsomeip/export.hpp</text>
</a>
</g>
</g>
<!-- Node15&#45;&gt;Node19 -->
<g id="edge24" class="edge">
<title>Node15&#45;&gt;Node19</title>
<path fill="none" stroke="midnightblue" d="M627.89,-206.78C646.2,-193.9 680.7,-169.62 702.87,-154.02"/>
<polygon fill="midnightblue" stroke="midnightblue" points="705.09,-156.73 711.26,-148.12 701.06,-151.01 705.09,-156.73"/>
</g>
</g>
</svg>
