<?xml version="1.0" encoding="UTF-8" standalone="no"?>
<!DOCTYPE svg PUBLIC "-//W3C//DTD SVG 1.1//EN"
 "http://www.w3.org/Graphics/SVG/1.1/DTD/svg11.dtd">
<!-- Generated by graphviz version 2.43.0 (0)
 -->
<!-- Title: /home/kali/projects/vsomeip/implementation/e2e_protection/src/e2e/profile/profile_custom/profile_custom.cpp Pages: 1 -->
<svg width="578pt" height="273pt"
 viewBox="0.00 0.00 578.00 273.00" xmlns="http://www.w3.org/2000/svg" xmlns:xlink="http://www.w3.org/1999/xlink">
<g id="graph0" class="graph" transform="scale(1 1) rotate(0) translate(4 269)">
<title>/home/kali/projects/vsomeip/implementation/e2e_protection/src/e2e/profile/profile_custom/profile_custom.cpp</title>
<polygon fill="white" stroke="transparent" points="-4,4 -4,-269 574,-269 574,4 -4,4"/>
<!-- Node1 -->
<g id="node1" class="node">
<title>Node1</title>
<g id="a_node1"><a xlink:title=" ">
<polygon fill="#bfbfbf" stroke="black" points="296.5,-201.5 296.5,-264.5 439.5,-264.5 439.5,-201.5 296.5,-201.5"/>
<text text-anchor="start" x="304.5" y="-252.5" font-family="Helvetica,sans-Serif" font-size="10.00">/home/kali/projects</text>
<text text-anchor="start" x="304.5" y="-241.5" font-family="Helvetica,sans-Serif" font-size="10.00">/vsomeip/implementation</text>
<text text-anchor="start" x="304.5" y="-230.5" font-family="Helvetica,sans-Serif" font-size="10.00">/e2e_protection/src/e2e</text>
<text text-anchor="start" x="304.5" y="-219.5" font-family="Helvetica,sans-Serif" font-size="10.00">/profile/profile_custom</text>
<text text-anchor="middle" x="368" y="-208.5" font-family="Helvetica,sans-Serif" font-size="10.00">/profile_custom.cpp</text>
</a>
</g>
</g>
<!-- Node2 -->
<g id="node2" class="node">
<title>Node2</title>
<g id="a_node2"><a xlink:href="profile__custom_8hpp.html" target="_top" xlink:title=" ">
<polygon fill="white" stroke="black" points="0,-112.5 0,-164.5 154,-164.5 154,-112.5 0,-112.5"/>
<text text-anchor="start" x="8" y="-152.5" font-family="Helvetica,sans-Serif" font-size="10.00">../../../../../e2e</text>
<text text-anchor="start" x="8" y="-141.5" font-family="Helvetica,sans-Serif" font-size="10.00">_protection/include</text>
<text text-anchor="start" x="8" y="-130.5" font-family="Helvetica,sans-Serif" font-size="10.00">/e2e/profile/profile</text>
<text text-anchor="middle" x="77" y="-119.5" font-family="Helvetica,sans-Serif" font-size="10.00">_custom/profile_custom.hpp</text>
</a>
</g>
</g>
<!-- Node1&#45;&gt;Node2 -->
<g id="edge1" class="edge">
<title>Node1&#45;&gt;Node2</title>
<path fill="none" stroke="midnightblue" d="M296.44,-209.25C256.39,-196.52 206.17,-180.56 163.88,-167.12"/>
<polygon fill="midnightblue" stroke="midnightblue" points="164.74,-163.72 154.15,-164.02 162.62,-170.39 164.74,-163.72"/>
</g>
<!-- Node9 -->
<g id="node9" class="node">
<title>Node9</title>
<g id="a_node9"><a xlink:href="crc_8hpp.html" target="_top" xlink:title=" ">
<polygon fill="white" stroke="black" points="172,-118 172,-159 282,-159 282,-118 172,-118"/>
<text text-anchor="start" x="180" y="-147" font-family="Helvetica,sans-Serif" font-size="10.00">../../../../../e2e</text>
<text text-anchor="start" x="180" y="-136" font-family="Helvetica,sans-Serif" font-size="10.00">_protection/include</text>
<text text-anchor="middle" x="227" y="-125" font-family="Helvetica,sans-Serif" font-size="10.00">/crc/crc.hpp</text>
</a>
</g>
</g>
<!-- Node1&#45;&gt;Node9 -->
<g id="edge9" class="edge">
<title>Node1&#45;&gt;Node9</title>
<path fill="none" stroke="midnightblue" d="M321.44,-201.46C303.41,-189.63 283,-176.24 265.79,-164.94"/>
<polygon fill="midnightblue" stroke="midnightblue" points="267.38,-161.81 257.1,-159.25 263.54,-167.66 267.38,-161.81"/>
</g>
<!-- Node10 -->
<g id="node10" class="node">
<title>Node10</title>
<g id="a_node10"><a xlink:title=" ">
<polygon fill="white" stroke="#bfbfbf" points="300,-129 300,-148 360,-148 360,-129 300,-129"/>
<text text-anchor="middle" x="330" y="-136" font-family="Helvetica,sans-Serif" font-size="10.00">iostream</text>
</a>
</g>
</g>
<!-- Node1&#45;&gt;Node10 -->
<g id="edge12" class="edge">
<title>Node1&#45;&gt;Node10</title>
<path fill="none" stroke="midnightblue" d="M355.45,-201.46C349.44,-186.82 342.45,-169.8 337.32,-157.31"/>
<polygon fill="midnightblue" stroke="midnightblue" points="340.54,-155.95 333.51,-148.03 334.07,-158.61 340.54,-155.95"/>
</g>
<!-- Node11 -->
<g id="node11" class="node">
<title>Node11</title>
<g id="a_node11"><a xlink:title=" ">
<polygon fill="white" stroke="#bfbfbf" points="378,-129 378,-148 434,-148 434,-129 378,-129"/>
<text text-anchor="middle" x="406" y="-136" font-family="Helvetica,sans-Serif" font-size="10.00">sstream</text>
</a>
</g>
</g>
<!-- Node1&#45;&gt;Node11 -->
<g id="edge13" class="edge">
<title>Node1&#45;&gt;Node11</title>
<path fill="none" stroke="midnightblue" d="M380.55,-201.46C386.56,-186.82 393.55,-169.8 398.68,-157.31"/>
<polygon fill="midnightblue" stroke="midnightblue" points="401.93,-158.61 402.49,-148.03 395.46,-155.95 401.93,-158.61"/>
</g>
<!-- Node12 -->
<g id="node12" class="node">
<title>Node12</title>
<g id="a_node12"><a xlink:title=" ">
<polygon fill="white" stroke="#bfbfbf" points="452,-129 452,-148 496,-148 496,-129 452,-129"/>
<text text-anchor="middle" x="474" y="-136" font-family="Helvetica,sans-Serif" font-size="10.00">string</text>
</a>
</g>
</g>
<!-- Node1&#45;&gt;Node12 -->
<g id="edge14" class="edge">
<title>Node1&#45;&gt;Node12</title>
<path fill="none" stroke="midnightblue" d="M403,-201.46C420.95,-185.8 442.02,-167.41 456.52,-154.76"/>
<polygon fill="midnightblue" stroke="midnightblue" points="458.99,-157.24 464.22,-148.03 454.39,-151.97 458.99,-157.24"/>
</g>
<!-- Node13 -->
<g id="node13" class="node">
<title>Node13</title>
<g id="a_node13"><a xlink:title=" ">
<polygon fill="white" stroke="#bfbfbf" points="514,-129 514,-148 570,-148 570,-129 514,-129"/>
<text text-anchor="middle" x="542" y="-136" font-family="Helvetica,sans-Serif" font-size="10.00">iomanip</text>
</a>
</g>
</g>
<!-- Node1&#45;&gt;Node13 -->
<g id="edge15" class="edge">
<title>Node1&#45;&gt;Node13</title>
<path fill="none" stroke="midnightblue" d="M435.59,-201.4C458.05,-190.59 482.94,-177.9 505,-165 510.61,-161.72 516.48,-157.88 521.86,-154.18"/>
<polygon fill="midnightblue" stroke="midnightblue" points="524.14,-156.85 530.3,-148.23 520.11,-151.13 524.14,-156.85"/>
</g>
<!-- Node3 -->
<g id="node3" class="node">
<title>Node3</title>
<g id="a_node3"><a xlink:title=" ">
<polygon fill="white" stroke="#bfbfbf" points="106,-0.5 106,-19.5 156,-19.5 156,-0.5 106,-0.5"/>
<text text-anchor="middle" x="131" y="-7.5" font-family="Helvetica,sans-Serif" font-size="10.00">cstdint</text>
</a>
</g>
</g>
<!-- Node2&#45;&gt;Node3 -->
<g id="edge2" class="edge">
<title>Node2&#45;&gt;Node3</title>
<path fill="none" stroke="midnightblue" d="M34.32,-112.35C13.33,-96.68 -4.8,-75.8 9,-56 28.43,-28.12 67.19,-17.47 95.83,-13.43"/>
<polygon fill="midnightblue" stroke="midnightblue" points="96.36,-16.89 105.87,-12.21 95.52,-9.94 96.36,-16.89"/>
</g>
<!-- Node4 -->
<g id="node4" class="node">
<title>Node4</title>
<g id="a_node4"><a xlink:title=" ">
<polygon fill="white" stroke="#bfbfbf" points="18,-56.5 18,-75.5 136,-75.5 136,-56.5 18,-56.5"/>
<text text-anchor="middle" x="77" y="-63.5" font-family="Helvetica,sans-Serif" font-size="10.00">vsomeip/defines.hpp</text>
</a>
</g>
</g>
<!-- Node2&#45;&gt;Node4 -->
<g id="edge3" class="edge">
<title>Node2&#45;&gt;Node4</title>
<path fill="none" stroke="midnightblue" d="M77,-112.45C77,-103.73 77,-94.1 77,-85.96"/>
<polygon fill="midnightblue" stroke="midnightblue" points="80.5,-85.7 77,-75.7 73.5,-85.7 80.5,-85.7"/>
</g>
<!-- Node5 -->
<g id="node5" class="node">
<title>Node5</title>
<g id="a_node5"><a xlink:href="e2e__protection_2include_2buffer_2buffer_8hpp.html" target="_top" xlink:title=" ">
<polygon fill="white" stroke="black" points="192,-56.5 192,-75.5 316,-75.5 316,-56.5 192,-56.5"/>
<text text-anchor="middle" x="254" y="-63.5" font-family="Helvetica,sans-Serif" font-size="10.00">../../../buffer/buffer.hpp</text>
</a>
</g>
</g>
<!-- Node2&#45;&gt;Node5 -->
<g id="edge4" class="edge">
<title>Node2&#45;&gt;Node5</title>
<path fill="none" stroke="midnightblue" d="M139.9,-112.45C168.12,-101.21 200.14,-88.45 223.06,-79.33"/>
<polygon fill="midnightblue" stroke="midnightblue" points="224.6,-82.48 232.59,-75.53 222.01,-75.98 224.6,-82.48"/>
</g>
<!-- Node5&#45;&gt;Node3 -->
<g id="edge6" class="edge">
<title>Node5&#45;&gt;Node3</title>
<path fill="none" stroke="midnightblue" d="M234.51,-56.44C214.36,-47.6 182.68,-33.69 159.67,-23.59"/>
<polygon fill="midnightblue" stroke="midnightblue" points="160.96,-20.33 150.4,-19.52 158.15,-26.74 160.96,-20.33"/>
</g>
<!-- Node6 -->
<g id="node6" class="node">
<title>Node6</title>
<g id="a_node6"><a xlink:title=" ">
<polygon fill="white" stroke="#bfbfbf" points="174.5,-0.5 174.5,-19.5 239.5,-19.5 239.5,-0.5 174.5,-0.5"/>
<text text-anchor="middle" x="207" y="-7.5" font-family="Helvetica,sans-Serif" font-size="10.00">stdexcept</text>
</a>
</g>
</g>
<!-- Node5&#45;&gt;Node6 -->
<g id="edge5" class="edge">
<title>Node5&#45;&gt;Node6</title>
<path fill="none" stroke="midnightblue" d="M246.24,-56.08C239.46,-48.3 229.46,-36.8 221.24,-27.37"/>
<polygon fill="midnightblue" stroke="midnightblue" points="223.82,-25 214.62,-19.75 218.54,-29.59 223.82,-25"/>
</g>
<!-- Node7 -->
<g id="node7" class="node">
<title>Node7</title>
<g id="a_node7"><a xlink:title=" ">
<polygon fill="white" stroke="#bfbfbf" points="257.5,-0.5 257.5,-19.5 314.5,-19.5 314.5,-0.5 257.5,-0.5"/>
<text text-anchor="middle" x="286" y="-7.5" font-family="Helvetica,sans-Serif" font-size="10.00">ostream</text>
</a>
</g>
</g>
<!-- Node5&#45;&gt;Node7 -->
<g id="edge7" class="edge">
<title>Node5&#45;&gt;Node7</title>
<path fill="none" stroke="midnightblue" d="M259.28,-56.08C263.71,-48.61 270.16,-37.72 275.62,-28.52"/>
<polygon fill="midnightblue" stroke="midnightblue" points="278.73,-30.14 280.81,-19.75 272.71,-26.57 278.73,-30.14"/>
</g>
<!-- Node8 -->
<g id="node8" class="node">
<title>Node8</title>
<g id="a_node8"><a xlink:title=" ">
<polygon fill="white" stroke="#bfbfbf" points="332.5,-0.5 332.5,-19.5 379.5,-19.5 379.5,-0.5 332.5,-0.5"/>
<text text-anchor="middle" x="356" y="-7.5" font-family="Helvetica,sans-Serif" font-size="10.00">vector</text>
</a>
</g>
</g>
<!-- Node5&#45;&gt;Node8 -->
<g id="edge8" class="edge">
<title>Node5&#45;&gt;Node8</title>
<path fill="none" stroke="midnightblue" d="M270.39,-56.32C286.67,-47.7 311.87,-34.36 330.72,-24.39"/>
<polygon fill="midnightblue" stroke="midnightblue" points="332.45,-27.43 339.65,-19.65 329.18,-21.24 332.45,-27.43"/>
</g>
<!-- Node9&#45;&gt;Node3 -->
<g id="edge10" class="edge">
<title>Node9&#45;&gt;Node3</title>
<path fill="none" stroke="midnightblue" d="M212,-117.73C193.29,-93.07 161.6,-51.32 143.91,-28.02"/>
<polygon fill="midnightblue" stroke="midnightblue" points="146.51,-25.64 137.67,-19.79 140.93,-29.88 146.51,-25.64"/>
</g>
<!-- Node9&#45;&gt;Node5 -->
<g id="edge11" class="edge">
<title>Node9&#45;&gt;Node5</title>
<path fill="none" stroke="midnightblue" d="M234.52,-117.86C238.46,-107.58 243.25,-95.08 247.09,-85.04"/>
<polygon fill="midnightblue" stroke="midnightblue" points="250.37,-86.26 250.68,-75.67 243.83,-83.76 250.37,-86.26"/>
</g>
</g>
</svg>
