<?xml version="1.0" encoding="UTF-8" standalone="no"?>
<!DOCTYPE svg PUBLIC "-//W3C//DTD SVG 1.1//EN"
 "http://www.w3.org/Graphics/SVG/1.1/DTD/svg11.dtd">
<!-- Generated by graphviz version 2.43.0 (0)
 -->
<!-- Title: /home/kali/projects/vsomeip/implementation/e2e_protection/src/e2e/profile/profile_custom/checker.cpp Pages: 1 -->
<svg width="1256pt" height="351pt"
 viewBox="0.00 0.00 1256.00 351.00" xmlns="http://www.w3.org/2000/svg" xmlns:xlink="http://www.w3.org/1999/xlink">
<g id="graph0" class="graph" transform="scale(1 1) rotate(0) translate(4 347)">
<title>/home/kali/projects/vsomeip/implementation/e2e_protection/src/e2e/profile/profile_custom/checker.cpp</title>
<polygon fill="white" stroke="transparent" points="-4,4 -4,-347 1252,-347 1252,4 -4,4"/>
<!-- Node1 -->
<g id="node1" class="node">
<title>Node1</title>
<g id="a_node1"><a xlink:title=" ">
<polygon fill="#bfbfbf" stroke="black" points="928.5,-279.5 928.5,-342.5 1071.5,-342.5 1071.5,-279.5 928.5,-279.5"/>
<text text-anchor="start" x="936.5" y="-330.5" font-family="Helvetica,sans-Serif" font-size="10.00">/home/kali/projects</text>
<text text-anchor="start" x="936.5" y="-319.5" font-family="Helvetica,sans-Serif" font-size="10.00">/vsomeip/implementation</text>
<text text-anchor="start" x="936.5" y="-308.5" font-family="Helvetica,sans-Serif" font-size="10.00">/e2e_protection/src/e2e</text>
<text text-anchor="start" x="936.5" y="-297.5" font-family="Helvetica,sans-Serif" font-size="10.00">/profile/profile_custom</text>
<text text-anchor="middle" x="1000" y="-286.5" font-family="Helvetica,sans-Serif" font-size="10.00">/checker.cpp</text>
</a>
</g>
</g>
<!-- Node2 -->
<g id="node2" class="node">
<title>Node2</title>
<g id="a_node2"><a xlink:href="profile__custom_2checker_8hpp.html" target="_top" xlink:title=" ">
<polygon fill="white" stroke="black" points="515.5,-190.5 515.5,-242.5 634.5,-242.5 634.5,-190.5 515.5,-190.5"/>
<text text-anchor="start" x="523.5" y="-230.5" font-family="Helvetica,sans-Serif" font-size="10.00">../../../../../e2e</text>
<text text-anchor="start" x="523.5" y="-219.5" font-family="Helvetica,sans-Serif" font-size="10.00">_protection/include</text>
<text text-anchor="start" x="523.5" y="-208.5" font-family="Helvetica,sans-Serif" font-size="10.00">/e2e/profile/profile</text>
<text text-anchor="middle" x="575" y="-197.5" font-family="Helvetica,sans-Serif" font-size="10.00">_custom/checker.hpp</text>
</a>
</g>
</g>
<!-- Node1&#45;&gt;Node2 -->
<g id="edge1" class="edge">
<title>Node1&#45;&gt;Node2</title>
<path fill="none" stroke="midnightblue" d="M928.39,-294.41C849.37,-277.22 723.06,-249.72 644.79,-232.69"/>
<polygon fill="midnightblue" stroke="midnightblue" points="645.06,-229.17 634.54,-230.46 643.57,-236.01 645.06,-229.17"/>
</g>
<!-- Node14 -->
<g id="node14" class="node">
<title>Node14</title>
<g id="a_node14"><a xlink:href="logger_8hpp.html" target="_top" xlink:title=" ">
<polygon fill="white" stroke="black" points="760.5,-129 760.5,-148 913.5,-148 913.5,-129 760.5,-129"/>
<text text-anchor="middle" x="837" y="-136" font-family="Helvetica,sans-Serif" font-size="10.00">vsomeip/internal/logger.hpp</text>
</a>
</g>
</g>
<!-- Node1&#45;&gt;Node14 -->
<g id="edge17" class="edge">
<title>Node1&#45;&gt;Node14</title>
<path fill="none" stroke="midnightblue" d="M965.64,-279.32C953.49,-268.14 939.9,-255.24 928,-243 899.25,-213.43 867.96,-176.75 850.58,-155.95"/>
<polygon fill="midnightblue" stroke="midnightblue" points="853.12,-153.53 844.04,-148.07 847.74,-158 853.12,-153.53"/>
</g>
<!-- Node16 -->
<g id="node16" class="node">
<title>Node16</title>
<g id="a_node16"><a xlink:title=" ">
<polygon fill="white" stroke="#bfbfbf" points="1059,-62 1059,-81 1115,-81 1115,-62 1059,-62"/>
<text text-anchor="middle" x="1087" y="-69" font-family="Helvetica,sans-Serif" font-size="10.00">sstream</text>
</a>
</g>
</g>
<!-- Node1&#45;&gt;Node16 -->
<g id="edge26" class="edge">
<title>Node1&#45;&gt;Node16</title>
<path fill="none" stroke="midnightblue" d="M977.83,-279.32C962.93,-254.71 948.16,-219.53 961,-190 981.64,-142.52 1031.98,-105.53 1062.41,-86.55"/>
<polygon fill="midnightblue" stroke="midnightblue" points="1064.42,-89.42 1071.16,-81.25 1060.8,-83.44 1064.42,-89.42"/>
</g>
<!-- Node19 -->
<g id="node19" class="node">
<title>Node19</title>
<g id="a_node19"><a xlink:title=" ">
<polygon fill="white" stroke="#bfbfbf" points="970,-207 970,-226 1030,-226 1030,-207 970,-207"/>
<text text-anchor="middle" x="1000" y="-214" font-family="Helvetica,sans-Serif" font-size="10.00">iostream</text>
</a>
</g>
</g>
<!-- Node1&#45;&gt;Node19 -->
<g id="edge25" class="edge">
<title>Node1&#45;&gt;Node19</title>
<path fill="none" stroke="midnightblue" d="M1000,-279.46C1000,-265.11 1000,-248.48 1000,-236.07"/>
<polygon fill="midnightblue" stroke="midnightblue" points="1003.5,-236.03 1000,-226.03 996.5,-236.03 1003.5,-236.03"/>
</g>
<!-- Node20 -->
<g id="node20" class="node">
<title>Node20</title>
<g id="a_node20"><a xlink:title=" ">
<polygon fill="white" stroke="#bfbfbf" points="1048,-207 1048,-226 1092,-226 1092,-207 1048,-207"/>
<text text-anchor="middle" x="1070" y="-214" font-family="Helvetica,sans-Serif" font-size="10.00">string</text>
</a>
</g>
</g>
<!-- Node1&#45;&gt;Node20 -->
<g id="edge27" class="edge">
<title>Node1&#45;&gt;Node20</title>
<path fill="none" stroke="midnightblue" d="M1023.11,-279.46C1034.52,-264.38 1047.84,-246.78 1057.36,-234.2"/>
<polygon fill="midnightblue" stroke="midnightblue" points="1060.3,-236.12 1063.54,-226.03 1054.72,-231.89 1060.3,-236.12"/>
</g>
<!-- Node21 -->
<g id="node21" class="node">
<title>Node21</title>
<g id="a_node21"><a xlink:title=" ">
<polygon fill="white" stroke="#bfbfbf" points="1110,-207 1110,-226 1166,-226 1166,-207 1110,-207"/>
<text text-anchor="middle" x="1138" y="-214" font-family="Helvetica,sans-Serif" font-size="10.00">iomanip</text>
</a>
</g>
</g>
<!-- Node1&#45;&gt;Node21 -->
<g id="edge28" class="edge">
<title>Node1&#45;&gt;Node21</title>
<path fill="none" stroke="midnightblue" d="M1046.37,-279.49C1063.57,-268.1 1083.22,-255.02 1101,-243 1106.3,-239.42 1112,-235.51 1117.3,-231.86"/>
<polygon fill="midnightblue" stroke="midnightblue" points="1119.47,-234.62 1125.7,-226.05 1115.49,-228.86 1119.47,-234.62"/>
</g>
<!-- Node22 -->
<g id="node22" class="node">
<title>Node22</title>
<g id="a_node22"><a xlink:title=" ">
<polygon fill="white" stroke="#bfbfbf" points="1184,-207 1184,-226 1248,-226 1248,-207 1184,-207"/>
<text text-anchor="middle" x="1216" y="-214" font-family="Helvetica,sans-Serif" font-size="10.00">algorithm</text>
</a>
</g>
</g>
<!-- Node1&#45;&gt;Node22 -->
<g id="edge29" class="edge">
<title>Node1&#45;&gt;Node22</title>
<path fill="none" stroke="midnightblue" d="M1071.56,-286.1C1103.79,-274.46 1141.93,-259.43 1175,-243 1181.66,-239.69 1188.62,-235.62 1194.88,-231.7"/>
<polygon fill="midnightblue" stroke="midnightblue" points="1196.93,-234.55 1203.44,-226.19 1193.13,-228.67 1196.93,-234.55"/>
</g>
<!-- Node3 -->
<g id="node3" class="node">
<title>Node3</title>
<g id="a_node3"><a xlink:href="profile__custom_8hpp.html" target="_top" xlink:title=" ">
<polygon fill="white" stroke="black" points="125.5,-123.5 125.5,-153.5 256.5,-153.5 256.5,-123.5 125.5,-123.5"/>
<text text-anchor="start" x="133.5" y="-141.5" font-family="Helvetica,sans-Serif" font-size="10.00">../profile_custom/profile</text>
<text text-anchor="middle" x="191" y="-130.5" font-family="Helvetica,sans-Serif" font-size="10.00">_custom.hpp</text>
</a>
</g>
</g>
<!-- Node2&#45;&gt;Node3 -->
<g id="edge2" class="edge">
<title>Node2&#45;&gt;Node3</title>
<path fill="none" stroke="midnightblue" d="M515.42,-203.71C448.42,-190.45 339.48,-168.89 266.55,-154.45"/>
<polygon fill="midnightblue" stroke="midnightblue" points="267,-150.97 256.51,-152.47 265.64,-157.84 267,-150.97"/>
</g>
<!-- Node10 -->
<g id="node10" class="node">
<title>Node10</title>
<g id="a_node10"><a xlink:href="profile__interface_2checker_8hpp.html" target="_top" xlink:title=" ">
<polygon fill="white" stroke="black" points="481.5,-123.5 481.5,-153.5 586.5,-153.5 586.5,-123.5 481.5,-123.5"/>
<text text-anchor="start" x="489.5" y="-141.5" font-family="Helvetica,sans-Serif" font-size="10.00">../profile_interface</text>
<text text-anchor="middle" x="534" y="-130.5" font-family="Helvetica,sans-Serif" font-size="10.00">/checker.hpp</text>
</a>
</g>
</g>
<!-- Node2&#45;&gt;Node10 -->
<g id="edge10" class="edge">
<title>Node2&#45;&gt;Node10</title>
<path fill="none" stroke="midnightblue" d="M561.35,-190.19C556.56,-181.31 551.2,-171.39 546.51,-162.69"/>
<polygon fill="midnightblue" stroke="midnightblue" points="549.57,-160.98 541.74,-153.85 543.41,-164.31 549.57,-160.98"/>
</g>
<!-- Node11 -->
<g id="node11" class="node">
<title>Node11</title>
<g id="a_node11"><a xlink:title=" ">
<polygon fill="white" stroke="#bfbfbf" points="631,-62 631,-81 679,-81 679,-62 631,-62"/>
<text text-anchor="middle" x="655" y="-69" font-family="Helvetica,sans-Serif" font-size="10.00">mutex</text>
</a>
</g>
</g>
<!-- Node2&#45;&gt;Node11 -->
<g id="edge16" class="edge">
<title>Node2&#45;&gt;Node11</title>
<path fill="none" stroke="midnightblue" d="M589.12,-190.26C605.27,-161.38 631.3,-114.86 645.32,-89.8"/>
<polygon fill="midnightblue" stroke="midnightblue" points="648.39,-91.49 650.21,-81.05 642.28,-88.07 648.39,-91.49"/>
</g>
<!-- Node4 -->
<g id="node4" class="node">
<title>Node4</title>
<g id="a_node4"><a xlink:title=" ">
<polygon fill="white" stroke="#bfbfbf" points="335,-0.5 335,-19.5 385,-19.5 385,-0.5 335,-0.5"/>
<text text-anchor="middle" x="360" y="-7.5" font-family="Helvetica,sans-Serif" font-size="10.00">cstdint</text>
</a>
</g>
</g>
<!-- Node3&#45;&gt;Node4 -->
<g id="edge3" class="edge">
<title>Node3&#45;&gt;Node4</title>
<path fill="none" stroke="midnightblue" d="M179.3,-123.39C166.3,-105.91 149.1,-75.99 165,-56 174.94,-43.51 271.07,-25.77 324.55,-16.75"/>
<polygon fill="midnightblue" stroke="midnightblue" points="325.35,-20.16 334.63,-15.06 324.19,-13.26 325.35,-20.16"/>
</g>
<!-- Node5 -->
<g id="node5" class="node">
<title>Node5</title>
<g id="a_node5"><a xlink:title=" ">
<polygon fill="white" stroke="#bfbfbf" points="0,-62 0,-81 118,-81 118,-62 0,-62"/>
<text text-anchor="middle" x="59" y="-69" font-family="Helvetica,sans-Serif" font-size="10.00">vsomeip/defines.hpp</text>
</a>
</g>
</g>
<!-- Node3&#45;&gt;Node5 -->
<g id="edge4" class="edge">
<title>Node3&#45;&gt;Node5</title>
<path fill="none" stroke="midnightblue" d="M162.36,-123.4C139.5,-112.14 107.74,-96.5 85.48,-85.54"/>
<polygon fill="midnightblue" stroke="midnightblue" points="86.79,-82.28 76.28,-81.01 83.7,-88.56 86.79,-82.28"/>
</g>
<!-- Node6 -->
<g id="node6" class="node">
<title>Node6</title>
<g id="a_node6"><a xlink:href="e2e__protection_2include_2buffer_2buffer_8hpp.html" target="_top" xlink:title=" ">
<polygon fill="white" stroke="black" points="174,-62 174,-81 298,-81 298,-62 174,-62"/>
<text text-anchor="middle" x="236" y="-69" font-family="Helvetica,sans-Serif" font-size="10.00">../../../buffer/buffer.hpp</text>
</a>
</g>
</g>
<!-- Node3&#45;&gt;Node6 -->
<g id="edge5" class="edge">
<title>Node3&#45;&gt;Node6</title>
<path fill="none" stroke="midnightblue" d="M200.76,-123.4C207.64,-113.46 216.89,-100.11 224.18,-89.57"/>
<polygon fill="midnightblue" stroke="midnightblue" points="227.17,-91.41 229.98,-81.19 221.41,-87.42 227.17,-91.41"/>
</g>
<!-- Node6&#45;&gt;Node4 -->
<g id="edge7" class="edge">
<title>Node6&#45;&gt;Node4</title>
<path fill="none" stroke="midnightblue" d="M253.77,-61.98C274.48,-52.03 308.95,-35.49 332.99,-23.96"/>
<polygon fill="midnightblue" stroke="midnightblue" points="334.77,-26.99 342.27,-19.51 331.74,-20.68 334.77,-26.99"/>
</g>
<!-- Node7 -->
<g id="node7" class="node">
<title>Node7</title>
<g id="a_node7"><a xlink:title=" ">
<polygon fill="white" stroke="#bfbfbf" points="219.5,-0.5 219.5,-19.5 284.5,-19.5 284.5,-0.5 219.5,-0.5"/>
<text text-anchor="middle" x="252" y="-7.5" font-family="Helvetica,sans-Serif" font-size="10.00">stdexcept</text>
</a>
</g>
</g>
<!-- Node6&#45;&gt;Node7 -->
<g id="edge6" class="edge">
<title>Node6&#45;&gt;Node7</title>
<path fill="none" stroke="midnightblue" d="M238.29,-61.98C240.57,-53.49 244.15,-40.2 247.07,-29.32"/>
<polygon fill="midnightblue" stroke="midnightblue" points="250.49,-30.07 249.71,-19.51 243.74,-28.26 250.49,-30.07"/>
</g>
<!-- Node8 -->
<g id="node8" class="node">
<title>Node8</title>
<g id="a_node8"><a xlink:title=" ">
<polygon fill="white" stroke="#bfbfbf" points="710.5,-0.5 710.5,-19.5 767.5,-19.5 767.5,-0.5 710.5,-0.5"/>
<text text-anchor="middle" x="739" y="-7.5" font-family="Helvetica,sans-Serif" font-size="10.00">ostream</text>
</a>
</g>
</g>
<!-- Node6&#45;&gt;Node8 -->
<g id="edge8" class="edge">
<title>Node6&#45;&gt;Node8</title>
<path fill="none" stroke="midnightblue" d="M274.2,-61.99C284.78,-59.82 296.31,-57.64 307,-56 451.32,-33.8 624.48,-19.44 700.28,-13.76"/>
<polygon fill="midnightblue" stroke="midnightblue" points="700.6,-17.24 710.32,-13.01 700.08,-10.26 700.6,-17.24"/>
</g>
<!-- Node9 -->
<g id="node9" class="node">
<title>Node9</title>
<g id="a_node9"><a xlink:title=" ">
<polygon fill="white" stroke="#bfbfbf" points="154.5,-0.5 154.5,-19.5 201.5,-19.5 201.5,-0.5 154.5,-0.5"/>
<text text-anchor="middle" x="178" y="-7.5" font-family="Helvetica,sans-Serif" font-size="10.00">vector</text>
</a>
</g>
</g>
<!-- Node6&#45;&gt;Node9 -->
<g id="edge9" class="edge">
<title>Node6&#45;&gt;Node9</title>
<path fill="none" stroke="midnightblue" d="M227.69,-61.98C218.82,-52.87 204.55,-38.24 193.58,-26.98"/>
<polygon fill="midnightblue" stroke="midnightblue" points="195.78,-24.23 186.29,-19.51 190.77,-29.11 195.78,-24.23"/>
</g>
<!-- Node10&#45;&gt;Node6 -->
<g id="edge15" class="edge">
<title>Node10&#45;&gt;Node6</title>
<path fill="none" stroke="midnightblue" d="M481.41,-126.03C426,-113.94 339.41,-95.06 285.28,-83.25"/>
<polygon fill="midnightblue" stroke="midnightblue" points="285.75,-79.77 275.24,-81.06 284.26,-86.61 285.75,-79.77"/>
</g>
<!-- Node10&#45;&gt;Node11 -->
<g id="edge11" class="edge">
<title>Node10&#45;&gt;Node11</title>
<path fill="none" stroke="midnightblue" d="M560.26,-123.4C581.02,-112.24 609.8,-96.78 630.18,-85.83"/>
<polygon fill="midnightblue" stroke="midnightblue" points="632.01,-88.82 639.16,-81.01 628.7,-82.66 632.01,-88.82"/>
</g>
<!-- Node12 -->
<g id="node12" class="node">
<title>Node12</title>
<g id="a_node12"><a xlink:title=" ">
<polygon fill="white" stroke="#bfbfbf" points="454.5,-62 454.5,-81 613.5,-81 613.5,-62 454.5,-62"/>
<text text-anchor="middle" x="534" y="-69" font-family="Helvetica,sans-Serif" font-size="10.00">vsomeip/primitive_types.hpp</text>
</a>
</g>
</g>
<!-- Node10&#45;&gt;Node12 -->
<g id="edge12" class="edge">
<title>Node10&#45;&gt;Node12</title>
<path fill="none" stroke="midnightblue" d="M534,-123.4C534,-114.06 534,-101.71 534,-91.52"/>
<polygon fill="midnightblue" stroke="midnightblue" points="537.5,-91.19 534,-81.19 530.5,-91.19 537.5,-91.19"/>
</g>
<!-- Node13 -->
<g id="node13" class="node">
<title>Node13</title>
<g id="a_node13"><a xlink:href="profile__interface_8hpp.html" target="_top" xlink:title=" ">
<polygon fill="white" stroke="black" points="316,-56.5 316,-86.5 436,-86.5 436,-56.5 316,-56.5"/>
<text text-anchor="start" x="324" y="-74.5" font-family="Helvetica,sans-Serif" font-size="10.00">../profile_interface</text>
<text text-anchor="middle" x="376" y="-63.5" font-family="Helvetica,sans-Serif" font-size="10.00">/profile_interface.hpp</text>
</a>
</g>
</g>
<!-- Node10&#45;&gt;Node13 -->
<g id="edge13" class="edge">
<title>Node10&#45;&gt;Node13</title>
<path fill="none" stroke="midnightblue" d="M499.72,-123.4C476.22,-113.73 444.85,-100.82 419.57,-90.43"/>
<polygon fill="midnightblue" stroke="midnightblue" points="420.8,-87.14 410.22,-86.58 418.13,-93.62 420.8,-87.14"/>
</g>
<!-- Node13&#45;&gt;Node4 -->
<g id="edge14" class="edge">
<title>Node13&#45;&gt;Node4</title>
<path fill="none" stroke="midnightblue" d="M372.21,-56.4C370.05,-48.38 367.32,-38.23 364.99,-29.57"/>
<polygon fill="midnightblue" stroke="midnightblue" points="368.3,-28.41 362.33,-19.66 361.55,-30.22 368.3,-28.41"/>
</g>
<!-- Node14&#45;&gt;Node4 -->
<g id="edge19" class="edge">
<title>Node14&#45;&gt;Node4</title>
<path fill="none" stroke="midnightblue" d="M813.59,-128.89C790.49,-119.94 754.6,-104.76 726,-87 707.48,-75.5 707.99,-64.69 688,-56 636.01,-33.38 469.33,-18.9 395.63,-13.45"/>
<polygon fill="midnightblue" stroke="midnightblue" points="395.68,-9.94 385.45,-12.71 395.17,-16.92 395.68,-9.94"/>
</g>
<!-- Node14&#45;&gt;Node8 -->
<g id="edge21" class="edge">
<title>Node14&#45;&gt;Node8</title>
<path fill="none" stroke="midnightblue" d="M892.13,-128.94C937.79,-120.59 997.46,-106.33 1012,-87 1020.28,-75.99 1020.91,-66.5 1012,-56 982.42,-21.15 845.94,-13.25 777.85,-11.48"/>
<polygon fill="midnightblue" stroke="midnightblue" points="777.61,-7.98 767.54,-11.25 777.45,-14.98 777.61,-7.98"/>
</g>
<!-- Node14&#45;&gt;Node11 -->
<g id="edge20" class="edge">
<title>Node14&#45;&gt;Node11</title>
<path fill="none" stroke="midnightblue" d="M811.95,-128.95C783.17,-119.07 734.55,-102.21 693,-87 690.9,-86.23 688.74,-85.43 686.56,-84.62"/>
<polygon fill="midnightblue" stroke="midnightblue" points="687.66,-81.29 677.07,-81.04 685.19,-87.84 687.66,-81.29"/>
</g>
<!-- Node15 -->
<g id="node15" class="node">
<title>Node15</title>
<g id="a_node15"><a xlink:title=" ">
<polygon fill="white" stroke="#bfbfbf" points="735,-62 735,-81 785,-81 785,-62 735,-62"/>
<text text-anchor="middle" x="760" y="-69" font-family="Helvetica,sans-Serif" font-size="10.00">chrono</text>
</a>
</g>
</g>
<!-- Node14&#45;&gt;Node15 -->
<g id="edge18" class="edge">
<title>Node14&#45;&gt;Node15</title>
<path fill="none" stroke="midnightblue" d="M826.62,-128.73C814.15,-118.21 793.03,-100.38 777.91,-87.62"/>
<polygon fill="midnightblue" stroke="midnightblue" points="780.12,-84.9 770.22,-81.13 775.6,-90.25 780.12,-84.9"/>
</g>
<!-- Node14&#45;&gt;Node16 -->
<g id="edge22" class="edge">
<title>Node14&#45;&gt;Node16</title>
<path fill="none" stroke="midnightblue" d="M877.17,-128.93C919.28,-119.67 987.23,-103.94 1045,-87 1047.94,-86.14 1050.98,-85.19 1054.01,-84.21"/>
<polygon fill="midnightblue" stroke="midnightblue" points="1055.2,-87.51 1063.58,-81.02 1052.99,-80.87 1055.2,-87.51"/>
</g>
<!-- Node17 -->
<g id="node17" class="node">
<title>Node17</title>
<g id="a_node17"><a xlink:title=" ">
<polygon fill="white" stroke="#bfbfbf" points="803.5,-62 803.5,-81 870.5,-81 870.5,-62 803.5,-62"/>
<text text-anchor="middle" x="837" y="-69" font-family="Helvetica,sans-Serif" font-size="10.00">streambuf</text>
</a>
</g>
</g>
<!-- Node14&#45;&gt;Node17 -->
<g id="edge23" class="edge">
<title>Node14&#45;&gt;Node17</title>
<path fill="none" stroke="midnightblue" d="M837,-128.73C837,-119.18 837,-103.62 837,-91.28"/>
<polygon fill="midnightblue" stroke="midnightblue" points="840.5,-91.13 837,-81.13 833.5,-91.13 840.5,-91.13"/>
</g>
<!-- Node18 -->
<g id="node18" class="node">
<title>Node18</title>
<g id="a_node18"><a xlink:title=" ">
<polygon fill="white" stroke="#bfbfbf" points="889,-62 889,-81 1003,-81 1003,-62 889,-62"/>
<text text-anchor="middle" x="946" y="-69" font-family="Helvetica,sans-Serif" font-size="10.00">vsomeip/export.hpp</text>
</a>
</g>
</g>
<!-- Node14&#45;&gt;Node18 -->
<g id="edge24" class="edge">
<title>Node14&#45;&gt;Node18</title>
<path fill="none" stroke="midnightblue" d="M851.7,-128.73C869.92,-117.87 901.2,-99.22 922.7,-86.39"/>
<polygon fill="midnightblue" stroke="midnightblue" points="924.74,-89.26 931.53,-81.13 921.15,-83.24 924.74,-89.26"/>
</g>
</g>
</svg>
