<?xml version="1.0" encoding="UTF-8" standalone="no"?>
<!DOCTYPE svg PUBLIC "-//W3C//DTD SVG 1.1//EN"
 "http://www.w3.org/Graphics/SVG/1.1/DTD/svg11.dtd">
<!-- Generated by graphviz version 2.43.0 (0)
 -->
<!-- Title: /home/kali/projects/vsomeip/implementation/service_discovery/include/protection_option_impl.hpp Pages: 1 -->
<svg width="510pt" height="240pt"
 viewBox="0.00 0.00 509.50 240.00" xmlns="http://www.w3.org/2000/svg" xmlns:xlink="http://www.w3.org/1999/xlink">
<g id="graph0" class="graph" transform="scale(1 1) rotate(0) translate(4 236)">
<title>/home/kali/projects/vsomeip/implementation/service_discovery/include/protection_option_impl.hpp</title>
<polygon fill="white" stroke="transparent" points="-4,4 -4,-236 505.5,-236 505.5,4 -4,4"/>
<!-- Node1 -->
<g id="node1" class="node">
<title>Node1</title>
<g id="a_node1"><a xlink:title=" ">
<polygon fill="#bfbfbf" stroke="black" points="49.5,-179.5 49.5,-231.5 202.5,-231.5 202.5,-179.5 49.5,-179.5"/>
<text text-anchor="start" x="57.5" y="-219.5" font-family="Helvetica,sans-Serif" font-size="10.00">/home/kali/projects</text>
<text text-anchor="start" x="57.5" y="-208.5" font-family="Helvetica,sans-Serif" font-size="10.00">/vsomeip/implementation</text>
<text text-anchor="start" x="57.5" y="-197.5" font-family="Helvetica,sans-Serif" font-size="10.00">/service_discovery/include</text>
<text text-anchor="middle" x="126" y="-186.5" font-family="Helvetica,sans-Serif" font-size="10.00">/protection_option_impl.hpp</text>
</a>
</g>
</g>
<!-- Node2 -->
<g id="node2" class="node">
<title>Node2</title>
<g id="a_node2"><a xlink:href="implementation_2service__discovery_2include_2primitive__types_8hpp.html" target="_top" xlink:title=" ">
<polygon fill="white" stroke="black" points="0,-112.5 0,-142.5 108,-142.5 108,-112.5 0,-112.5"/>
<text text-anchor="start" x="8" y="-130.5" font-family="Helvetica,sans-Serif" font-size="10.00">../include/primitive</text>
<text text-anchor="middle" x="54" y="-119.5" font-family="Helvetica,sans-Serif" font-size="10.00">_types.hpp</text>
</a>
</g>
</g>
<!-- Node1&#45;&gt;Node2 -->
<g id="edge1" class="edge">
<title>Node1&#45;&gt;Node2</title>
<path fill="none" stroke="midnightblue" d="M102.03,-179.19C93.17,-169.84 83.21,-159.33 74.67,-150.32"/>
<polygon fill="midnightblue" stroke="midnightblue" points="77.01,-147.7 67.59,-142.85 71.93,-152.51 77.01,-147.7"/>
</g>
<!-- Node4 -->
<g id="node4" class="node">
<title>Node4</title>
<g id="a_node4"><a xlink:href="option__impl_8hpp.html" target="_top" xlink:title=" ">
<polygon fill="white" stroke="black" points="126.5,-118 126.5,-137 269.5,-137 269.5,-118 126.5,-118"/>
<text text-anchor="middle" x="198" y="-125" font-family="Helvetica,sans-Serif" font-size="10.00">../include/option_impl.hpp</text>
</a>
</g>
</g>
<!-- Node1&#45;&gt;Node4 -->
<g id="edge3" class="edge">
<title>Node1&#45;&gt;Node4</title>
<path fill="none" stroke="midnightblue" d="M149.97,-179.19C160.82,-167.74 173.31,-154.56 182.84,-144.51"/>
<polygon fill="midnightblue" stroke="midnightblue" points="185.41,-146.88 189.75,-137.21 180.33,-142.06 185.41,-146.88"/>
</g>
<!-- Node3 -->
<g id="node3" class="node">
<title>Node3</title>
<g id="a_node3"><a xlink:title=" ">
<polygon fill="white" stroke="#bfbfbf" points="67,-0.5 67,-19.5 117,-19.5 117,-0.5 67,-0.5"/>
<text text-anchor="middle" x="92" y="-7.5" font-family="Helvetica,sans-Serif" font-size="10.00">cstdint</text>
</a>
</g>
</g>
<!-- Node2&#45;&gt;Node3 -->
<g id="edge2" class="edge">
<title>Node2&#45;&gt;Node3</title>
<path fill="none" stroke="midnightblue" d="M58.66,-112.34C65.54,-91.43 78.41,-52.31 85.99,-29.27"/>
<polygon fill="midnightblue" stroke="midnightblue" points="89.35,-30.26 89.15,-19.67 82.7,-28.07 89.35,-30.26"/>
</g>
<!-- Node4&#45;&gt;Node3 -->
<g id="edge4" class="edge">
<title>Node4&#45;&gt;Node3</title>
<path fill="none" stroke="midnightblue" d="M173.12,-117.98C153.53,-110.05 126.94,-96.35 111,-76 100.59,-62.71 95.88,-43.88 93.75,-29.9"/>
<polygon fill="midnightblue" stroke="midnightblue" points="97.22,-29.44 92.54,-19.93 90.27,-30.28 97.22,-29.44"/>
</g>
<!-- Node5 -->
<g id="node5" class="node">
<title>Node5</title>
<g id="a_node5"><a xlink:title=" ">
<polygon fill="white" stroke="#bfbfbf" points="120,-56.5 120,-75.5 178,-75.5 178,-56.5 120,-56.5"/>
<text text-anchor="middle" x="149" y="-63.5" font-family="Helvetica,sans-Serif" font-size="10.00">memory</text>
</a>
</g>
</g>
<!-- Node4&#45;&gt;Node5 -->
<g id="edge5" class="edge">
<title>Node4&#45;&gt;Node5</title>
<path fill="none" stroke="midnightblue" d="M190.98,-117.98C183.56,-108.96 171.67,-94.52 162.43,-83.31"/>
<polygon fill="midnightblue" stroke="midnightblue" points="165.07,-81 156.01,-75.51 159.66,-85.45 165.07,-81"/>
</g>
<!-- Node6 -->
<g id="node6" class="node">
<title>Node6</title>
<g id="a_node6"><a xlink:href="implementation_2service__discovery_2include_2enumeration__types_8hpp.html" target="_top" xlink:title=" ">
<polygon fill="white" stroke="black" points="196,-56.5 196,-75.5 328,-75.5 328,-56.5 196,-56.5"/>
<text text-anchor="middle" x="262" y="-63.5" font-family="Helvetica,sans-Serif" font-size="10.00">enumeration_types.hpp</text>
</a>
</g>
</g>
<!-- Node4&#45;&gt;Node6 -->
<g id="edge6" class="edge">
<title>Node4&#45;&gt;Node6</title>
<path fill="none" stroke="midnightblue" d="M207.17,-117.98C217.15,-108.7 233.31,-93.67 245.51,-82.33"/>
<polygon fill="midnightblue" stroke="midnightblue" points="247.91,-84.88 252.85,-75.51 243.14,-79.75 247.91,-84.88"/>
</g>
<!-- Node7 -->
<g id="node7" class="node">
<title>Node7</title>
<g id="a_node7"><a xlink:href="message__element__impl_8hpp.html" target="_top" xlink:title=" ">
<polygon fill="white" stroke="black" points="346.5,-56.5 346.5,-75.5 501.5,-75.5 501.5,-56.5 346.5,-56.5"/>
<text text-anchor="middle" x="424" y="-63.5" font-family="Helvetica,sans-Serif" font-size="10.00">message_element_impl.hpp</text>
</a>
</g>
</g>
<!-- Node4&#45;&gt;Node7 -->
<g id="edge8" class="edge">
<title>Node4&#45;&gt;Node7</title>
<path fill="none" stroke="midnightblue" d="M230.38,-117.98C270.24,-107.48 338.02,-89.64 381.89,-78.09"/>
<polygon fill="midnightblue" stroke="midnightblue" points="382.9,-81.44 391.68,-75.51 381.12,-74.67 382.9,-81.44"/>
</g>
<!-- Node6&#45;&gt;Node3 -->
<g id="edge7" class="edge">
<title>Node6&#45;&gt;Node3</title>
<path fill="none" stroke="midnightblue" d="M235.06,-56.44C205.83,-47.16 159.05,-32.3 127,-22.12"/>
<polygon fill="midnightblue" stroke="midnightblue" points="127.74,-18.68 117.15,-18.99 125.62,-25.35 127.74,-18.68"/>
</g>
</g>
</svg>
