<?xml version="1.0" encoding="UTF-8" standalone="no"?>
<!DOCTYPE svg PUBLIC "-//W3C//DTD SVG 1.1//EN"
 "http://www.w3.org/Graphics/SVG/1.1/DTD/svg11.dtd">
<!-- Generated by graphviz version 2.43.0 (0)
 -->
<!-- Title: /home/kali/projects/vsomeip/implementation/service_discovery/src/protection_option_impl.cpp Pages: 1 -->
<svg width="745pt" height="307pt"
 viewBox="0.00 0.00 744.50 307.00" xmlns="http://www.w3.org/2000/svg" xmlns:xlink="http://www.w3.org/1999/xlink">
<g id="graph0" class="graph" transform="scale(1 1) rotate(0) translate(4 303)">
<title>/home/kali/projects/vsomeip/implementation/service_discovery/src/protection_option_impl.cpp</title>
<polygon fill="white" stroke="transparent" points="-4,4 -4,-303 740.5,-303 740.5,4 -4,4"/>
<!-- Node1 -->
<g id="node1" class="node">
<title>Node1</title>
<g id="a_node1"><a xlink:title=" ">
<polygon fill="#bfbfbf" stroke="black" points="332,-246.5 332,-298.5 484,-298.5 484,-246.5 332,-246.5"/>
<text text-anchor="start" x="340" y="-286.5" font-family="Helvetica,sans-Serif" font-size="10.00">/home/kali/projects</text>
<text text-anchor="start" x="340" y="-275.5" font-family="Helvetica,sans-Serif" font-size="10.00">/vsomeip/implementation</text>
<text text-anchor="start" x="340" y="-264.5" font-family="Helvetica,sans-Serif" font-size="10.00">/service_discovery/src</text>
<text text-anchor="middle" x="408" y="-253.5" font-family="Helvetica,sans-Serif" font-size="10.00">/protection_option_impl.cpp</text>
</a>
</g>
</g>
<!-- Node2 -->
<g id="node2" class="node">
<title>Node2</title>
<g id="a_node2"><a xlink:href="protection__option__impl_8hpp.html" target="_top" xlink:title=" ">
<polygon fill="white" stroke="black" points="218.5,-179.5 218.5,-209.5 331.5,-209.5 331.5,-179.5 218.5,-179.5"/>
<text text-anchor="start" x="226.5" y="-197.5" font-family="Helvetica,sans-Serif" font-size="10.00">../include/protection</text>
<text text-anchor="middle" x="275" y="-186.5" font-family="Helvetica,sans-Serif" font-size="10.00">_option_impl.hpp</text>
</a>
</g>
</g>
<!-- Node1&#45;&gt;Node2 -->
<g id="edge1" class="edge">
<title>Node1&#45;&gt;Node2</title>
<path fill="none" stroke="midnightblue" d="M364.08,-246.4C346.08,-236.12 325.57,-224.4 308.77,-214.8"/>
<polygon fill="midnightblue" stroke="midnightblue" points="310.28,-211.63 299.86,-209.71 306.81,-217.71 310.28,-211.63"/>
</g>
<!-- Node9 -->
<g id="node9" class="node">
<title>Node9</title>
<g id="a_node9"><a xlink:href="message_2include_2deserializer_8hpp.html" target="_top" xlink:title=" ">
<polygon fill="white" stroke="black" points="484.5,-179.5 484.5,-209.5 601.5,-209.5 601.5,-179.5 484.5,-179.5"/>
<text text-anchor="start" x="492.5" y="-197.5" font-family="Helvetica,sans-Serif" font-size="10.00">../../message/include</text>
<text text-anchor="middle" x="543" y="-186.5" font-family="Helvetica,sans-Serif" font-size="10.00">/deserializer.hpp</text>
</a>
</g>
</g>
<!-- Node1&#45;&gt;Node9 -->
<g id="edge10" class="edge">
<title>Node1&#45;&gt;Node9</title>
<path fill="none" stroke="midnightblue" d="M452.58,-246.4C470.85,-236.12 491.67,-224.4 508.72,-214.8"/>
<polygon fill="midnightblue" stroke="midnightblue" points="510.77,-217.66 517.76,-209.71 507.33,-211.56 510.77,-217.66"/>
</g>
<!-- Node13 -->
<g id="node13" class="node">
<title>Node13</title>
<g id="a_node13"><a xlink:href="serializer_8hpp.html" target="_top" xlink:title=" ">
<polygon fill="white" stroke="black" points="349.5,-179.5 349.5,-209.5 466.5,-209.5 466.5,-179.5 349.5,-179.5"/>
<text text-anchor="start" x="357.5" y="-197.5" font-family="Helvetica,sans-Serif" font-size="10.00">../../message/include</text>
<text text-anchor="middle" x="408" y="-186.5" font-family="Helvetica,sans-Serif" font-size="10.00">/serializer.hpp</text>
</a>
</g>
</g>
<!-- Node1&#45;&gt;Node13 -->
<g id="edge14" class="edge">
<title>Node1&#45;&gt;Node13</title>
<path fill="none" stroke="midnightblue" d="M408,-246.19C408,-237.79 408,-228.44 408,-220.09"/>
<polygon fill="midnightblue" stroke="midnightblue" points="411.5,-219.85 408,-209.85 404.5,-219.85 411.5,-219.85"/>
</g>
<!-- Node3 -->
<g id="node3" class="node">
<title>Node3</title>
<g id="a_node3"><a xlink:href="implementation_2service__discovery_2include_2primitive__types_8hpp.html" target="_top" xlink:title=" ">
<polygon fill="white" stroke="black" points="0,-56.5 0,-86.5 108,-86.5 108,-56.5 0,-56.5"/>
<text text-anchor="start" x="8" y="-74.5" font-family="Helvetica,sans-Serif" font-size="10.00">../include/primitive</text>
<text text-anchor="middle" x="54" y="-63.5" font-family="Helvetica,sans-Serif" font-size="10.00">_types.hpp</text>
</a>
</g>
</g>
<!-- Node2&#45;&gt;Node3 -->
<g id="edge2" class="edge">
<title>Node2&#45;&gt;Node3</title>
<path fill="none" stroke="midnightblue" d="M249.22,-179.38C209.46,-157.62 133.14,-115.83 88.61,-91.45"/>
<polygon fill="midnightblue" stroke="midnightblue" points="90.07,-88.26 79.62,-86.53 86.71,-94.4 90.07,-88.26"/>
</g>
<!-- Node5 -->
<g id="node5" class="node">
<title>Node5</title>
<g id="a_node5"><a xlink:href="option__impl_8hpp.html" target="_top" xlink:title=" ">
<polygon fill="white" stroke="black" points="208.5,-123.5 208.5,-142.5 351.5,-142.5 351.5,-123.5 208.5,-123.5"/>
<text text-anchor="middle" x="280" y="-130.5" font-family="Helvetica,sans-Serif" font-size="10.00">../include/option_impl.hpp</text>
</a>
</g>
</g>
<!-- Node2&#45;&gt;Node5 -->
<g id="edge4" class="edge">
<title>Node2&#45;&gt;Node5</title>
<path fill="none" stroke="midnightblue" d="M276.18,-179.4C276.85,-171.47 277.69,-161.46 278.42,-152.86"/>
<polygon fill="midnightblue" stroke="midnightblue" points="281.92,-152.92 279.27,-142.66 274.95,-152.33 281.92,-152.92"/>
</g>
<!-- Node4 -->
<g id="node4" class="node">
<title>Node4</title>
<g id="a_node4"><a xlink:title=" ">
<polygon fill="white" stroke="#bfbfbf" points="361,-0.5 361,-19.5 411,-19.5 411,-0.5 361,-0.5"/>
<text text-anchor="middle" x="386" y="-7.5" font-family="Helvetica,sans-Serif" font-size="10.00">cstdint</text>
</a>
</g>
</g>
<!-- Node3&#45;&gt;Node4 -->
<g id="edge3" class="edge">
<title>Node3&#45;&gt;Node4</title>
<path fill="none" stroke="midnightblue" d="M108.25,-57.79C111.21,-57.17 114.14,-56.57 117,-56 200.42,-39.44 299.21,-23.96 350.73,-16.2"/>
<polygon fill="midnightblue" stroke="midnightblue" points="351.32,-19.66 360.69,-14.71 350.28,-12.73 351.32,-19.66"/>
</g>
<!-- Node5&#45;&gt;Node4 -->
<g id="edge5" class="edge">
<title>Node5&#45;&gt;Node4</title>
<path fill="none" stroke="midnightblue" d="M309.56,-123.42C328.34,-116.5 351.71,-104.92 366,-87 379.13,-70.53 383.7,-46.29 385.25,-29.63"/>
<polygon fill="midnightblue" stroke="midnightblue" points="388.76,-29.72 385.92,-19.51 381.77,-29.26 388.76,-29.72"/>
</g>
<!-- Node6 -->
<g id="node6" class="node">
<title>Node6</title>
<g id="a_node6"><a xlink:title=" ">
<polygon fill="white" stroke="#bfbfbf" points="126,-62 126,-81 184,-81 184,-62 126,-62"/>
<text text-anchor="middle" x="155" y="-69" font-family="Helvetica,sans-Serif" font-size="10.00">memory</text>
</a>
</g>
</g>
<!-- Node5&#45;&gt;Node6 -->
<g id="edge6" class="edge">
<title>Node5&#45;&gt;Node6</title>
<path fill="none" stroke="midnightblue" d="M262.09,-123.48C241.11,-113.49 206.15,-96.85 181.91,-85.31"/>
<polygon fill="midnightblue" stroke="midnightblue" points="183.41,-82.15 172.88,-81.01 180.4,-88.47 183.41,-82.15"/>
</g>
<!-- Node7 -->
<g id="node7" class="node">
<title>Node7</title>
<g id="a_node7"><a xlink:href="implementation_2service__discovery_2include_2enumeration__types_8hpp.html" target="_top" xlink:title=" ">
<polygon fill="white" stroke="black" points="414,-62 414,-81 546,-81 546,-62 414,-62"/>
<text text-anchor="middle" x="480" y="-69" font-family="Helvetica,sans-Serif" font-size="10.00">enumeration_types.hpp</text>
</a>
</g>
</g>
<!-- Node5&#45;&gt;Node7 -->
<g id="edge7" class="edge">
<title>Node5&#45;&gt;Node7</title>
<path fill="none" stroke="midnightblue" d="M308.66,-123.48C343.56,-113.09 402.65,-95.51 441.5,-83.95"/>
<polygon fill="midnightblue" stroke="midnightblue" points="442.81,-87.22 451.4,-81.01 440.82,-80.51 442.81,-87.22"/>
</g>
<!-- Node8 -->
<g id="node8" class="node">
<title>Node8</title>
<g id="a_node8"><a xlink:href="message__element__impl_8hpp.html" target="_top" xlink:title=" ">
<polygon fill="white" stroke="black" points="202.5,-62 202.5,-81 357.5,-81 357.5,-62 202.5,-62"/>
<text text-anchor="middle" x="280" y="-69" font-family="Helvetica,sans-Serif" font-size="10.00">message_element_impl.hpp</text>
</a>
</g>
</g>
<!-- Node5&#45;&gt;Node8 -->
<g id="edge9" class="edge">
<title>Node5&#45;&gt;Node8</title>
<path fill="none" stroke="midnightblue" d="M280,-123.48C280,-115.08 280,-101.98 280,-91.16"/>
<polygon fill="midnightblue" stroke="midnightblue" points="283.5,-91.01 280,-81.01 276.5,-91.01 283.5,-91.01"/>
</g>
<!-- Node7&#45;&gt;Node4 -->
<g id="edge8" class="edge">
<title>Node7&#45;&gt;Node4</title>
<path fill="none" stroke="midnightblue" d="M466.53,-61.98C451.32,-52.34 426.31,-36.52 408.2,-25.05"/>
<polygon fill="midnightblue" stroke="midnightblue" points="409.76,-21.9 399.44,-19.51 406.02,-27.81 409.76,-21.9"/>
</g>
<!-- Node10 -->
<g id="node10" class="node">
<title>Node10</title>
<g id="a_node10"><a xlink:title=" ">
<polygon fill="white" stroke="#bfbfbf" points="379.5,-123.5 379.5,-142.5 426.5,-142.5 426.5,-123.5 379.5,-123.5"/>
<text text-anchor="middle" x="403" y="-130.5" font-family="Helvetica,sans-Serif" font-size="10.00">vector</text>
</a>
</g>
</g>
<!-- Node9&#45;&gt;Node10 -->
<g id="edge11" class="edge">
<title>Node9&#45;&gt;Node10</title>
<path fill="none" stroke="midnightblue" d="M509.82,-179.4C486.44,-169.46 455.39,-156.26 432.79,-146.66"/>
<polygon fill="midnightblue" stroke="midnightblue" points="433.94,-143.35 423.37,-142.66 431.21,-149.79 433.94,-143.35"/>
</g>
<!-- Node11 -->
<g id="node11" class="node">
<title>Node11</title>
<g id="a_node11"><a xlink:title=" ">
<polygon fill="white" stroke="#bfbfbf" points="445,-123.5 445,-142.5 559,-142.5 559,-123.5 445,-123.5"/>
<text text-anchor="middle" x="502" y="-130.5" font-family="Helvetica,sans-Serif" font-size="10.00">vsomeip/export.hpp</text>
</a>
</g>
</g>
<!-- Node9&#45;&gt;Node11 -->
<g id="edge12" class="edge">
<title>Node9&#45;&gt;Node11</title>
<path fill="none" stroke="midnightblue" d="M533.28,-179.4C527.45,-170.93 519.98,-160.1 513.81,-151.14"/>
<polygon fill="midnightblue" stroke="midnightblue" points="516.52,-148.91 507.97,-142.66 510.76,-152.88 516.52,-148.91"/>
</g>
<!-- Node12 -->
<g id="node12" class="node">
<title>Node12</title>
<g id="a_node12"><a xlink:title=" ">
<polygon fill="white" stroke="#bfbfbf" points="577.5,-123.5 577.5,-142.5 736.5,-142.5 736.5,-123.5 577.5,-123.5"/>
<text text-anchor="middle" x="657" y="-130.5" font-family="Helvetica,sans-Serif" font-size="10.00">vsomeip/primitive_types.hpp</text>
</a>
</g>
</g>
<!-- Node9&#45;&gt;Node12 -->
<g id="edge13" class="edge">
<title>Node9&#45;&gt;Node12</title>
<path fill="none" stroke="midnightblue" d="M570.02,-179.4C588.63,-169.68 613.21,-156.86 631.49,-147.31"/>
<polygon fill="midnightblue" stroke="midnightblue" points="633.17,-150.39 640.41,-142.66 629.93,-144.18 633.17,-150.39"/>
</g>
<!-- Node13&#45;&gt;Node10 -->
<g id="edge15" class="edge">
<title>Node13&#45;&gt;Node10</title>
<path fill="none" stroke="midnightblue" d="M406.82,-179.4C406.15,-171.47 405.31,-161.46 404.58,-152.86"/>
<polygon fill="midnightblue" stroke="midnightblue" points="408.05,-152.33 403.73,-142.66 401.08,-152.92 408.05,-152.33"/>
</g>
<!-- Node13&#45;&gt;Node11 -->
<g id="edge16" class="edge">
<title>Node13&#45;&gt;Node11</title>
<path fill="none" stroke="midnightblue" d="M430.28,-179.4C445.2,-169.95 464.78,-157.56 479.71,-148.11"/>
<polygon fill="midnightblue" stroke="midnightblue" points="481.74,-150.96 488.32,-142.66 478,-145.05 481.74,-150.96"/>
</g>
<!-- Node13&#45;&gt;Node12 -->
<g id="edge17" class="edge">
<title>Node13&#45;&gt;Node12</title>
<path fill="none" stroke="midnightblue" d="M466.69,-179.47C510.96,-168.9 570.81,-154.59 611.49,-144.87"/>
<polygon fill="midnightblue" stroke="midnightblue" points="612.49,-148.23 621.4,-142.51 610.86,-141.43 612.49,-148.23"/>
</g>
</g>
</svg>
