<?xml version="1.0" encoding="UTF-8" standalone="no"?>
<!DOCTYPE svg PUBLIC "-//W3C//DTD SVG 1.1//EN"
 "http://www.w3.org/Graphics/SVG/1.1/DTD/svg11.dtd">
<!-- Generated by graphviz version 2.43.0 (0)
 -->
<!-- Title: /home/kali/projects/vsomeip/implementation/routing/src/remote_subscription.cpp Pages: 1 -->
<svg width="1244pt" height="229pt"
 viewBox="0.00 0.00 1244.00 229.00" xmlns="http://www.w3.org/2000/svg" xmlns:xlink="http://www.w3.org/1999/xlink">
<g id="graph0" class="graph" transform="scale(1 1) rotate(0) translate(4 225)">
<title>/home/kali/projects/vsomeip/implementation/routing/src/remote_subscription.cpp</title>
<polygon fill="white" stroke="transparent" points="-4,4 -4,-225 1240,-225 1240,4 -4,4"/>
<!-- Node1 -->
<g id="node1" class="node">
<title>Node1</title>
<g id="a_node1"><a xlink:title=" ">
<polygon fill="#bfbfbf" stroke="black" points="567,-179.5 567,-220.5 761,-220.5 761,-179.5 567,-179.5"/>
<text text-anchor="start" x="575" y="-208.5" font-family="Helvetica,sans-Serif" font-size="10.00">/home/kali/projects</text>
<text text-anchor="start" x="575" y="-197.5" font-family="Helvetica,sans-Serif" font-size="10.00">/vsomeip/implementation</text>
<text text-anchor="middle" x="664" y="-186.5" font-family="Helvetica,sans-Serif" font-size="10.00">/routing/src/remote_subscription.cpp</text>
</a>
</g>
</g>
<!-- Node2 -->
<g id="node2" class="node">
<title>Node2</title>
<g id="a_node2"><a xlink:href="remote__subscription_8hpp.html" target="_top" xlink:title=" ">
<polygon fill="white" stroke="black" points="511.5,-123.5 511.5,-142.5 696.5,-142.5 696.5,-123.5 511.5,-123.5"/>
<text text-anchor="middle" x="604" y="-130.5" font-family="Helvetica,sans-Serif" font-size="10.00">../include/remote_subscription.hpp</text>
</a>
</g>
</g>
<!-- Node1&#45;&gt;Node2 -->
<g id="edge1" class="edge">
<title>Node1&#45;&gt;Node2</title>
<path fill="none" stroke="midnightblue" d="M646,-179.5C637.33,-170.11 627.06,-158.98 618.85,-150.08"/>
<polygon fill="midnightblue" stroke="midnightblue" points="621.34,-147.63 611.99,-142.65 616.2,-152.37 621.34,-147.63"/>
</g>
<!-- Node14 -->
<g id="node14" class="node">
<title>Node14</title>
<g id="a_node14"><a xlink:href="logger_8hpp.html" target="_top" xlink:title=" ">
<polygon fill="white" stroke="black" points="877.5,-62 877.5,-81 1030.5,-81 1030.5,-62 877.5,-62"/>
<text text-anchor="middle" x="954" y="-69" font-family="Helvetica,sans-Serif" font-size="10.00">vsomeip/internal/logger.hpp</text>
</a>
</g>
</g>
<!-- Node1&#45;&gt;Node14 -->
<g id="edge22" class="edge">
<title>Node1&#45;&gt;Node14</title>
<path fill="none" stroke="midnightblue" d="M708.99,-179.37C769.25,-153.09 874.43,-107.21 925.1,-85.11"/>
<polygon fill="midnightblue" stroke="midnightblue" points="926.71,-88.22 934.47,-81.02 923.91,-81.81 926.71,-88.22"/>
</g>
<!-- Node3 -->
<g id="node3" class="node">
<title>Node3</title>
<g id="a_node3"><a xlink:title=" ">
<polygon fill="white" stroke="#bfbfbf" points="616,-0.5 616,-19.5 666,-19.5 666,-0.5 616,-0.5"/>
<text text-anchor="middle" x="641" y="-7.5" font-family="Helvetica,sans-Serif" font-size="10.00">atomic</text>
</a>
</g>
</g>
<!-- Node2&#45;&gt;Node3 -->
<g id="edge2" class="edge">
<title>Node2&#45;&gt;Node3</title>
<path fill="none" stroke="midnightblue" d="M609.94,-123.47C615.74,-114.72 624.34,-100.52 629,-87 635.51,-68.1 638.51,-45.32 639.88,-29.66"/>
<polygon fill="midnightblue" stroke="midnightblue" points="643.37,-29.9 640.61,-19.67 636.39,-29.39 643.37,-29.9"/>
</g>
<!-- Node4 -->
<g id="node4" class="node">
<title>Node4</title>
<g id="a_node4"><a xlink:title=" ">
<polygon fill="white" stroke="#bfbfbf" points="148,-0.5 148,-19.5 186,-19.5 186,-0.5 148,-0.5"/>
<text text-anchor="middle" x="167" y="-7.5" font-family="Helvetica,sans-Serif" font-size="10.00">map</text>
</a>
</g>
</g>
<!-- Node2&#45;&gt;Node4 -->
<g id="edge3" class="edge">
<title>Node2&#45;&gt;Node4</title>
<path fill="none" stroke="midnightblue" d="M511.44,-125.35C426.15,-118.22 306.44,-105.39 263,-87 230.41,-73.2 199.6,-45.2 182.05,-27.31"/>
<polygon fill="midnightblue" stroke="midnightblue" points="184.39,-24.7 174.95,-19.89 179.33,-29.54 184.39,-24.7"/>
</g>
<!-- Node5 -->
<g id="node5" class="node">
<title>Node5</title>
<g id="a_node5"><a xlink:title=" ">
<polygon fill="white" stroke="#bfbfbf" points="684,-0.5 684,-19.5 732,-19.5 732,-0.5 684,-0.5"/>
<text text-anchor="middle" x="708" y="-7.5" font-family="Helvetica,sans-Serif" font-size="10.00">mutex</text>
</a>
</g>
</g>
<!-- Node2&#45;&gt;Node5 -->
<g id="edge4" class="edge">
<title>Node2&#45;&gt;Node5</title>
<path fill="none" stroke="midnightblue" d="M612.8,-123.25C621.66,-114.33 635.61,-100 647,-87 664.34,-67.21 683.12,-43.43 695.19,-27.8"/>
<polygon fill="midnightblue" stroke="midnightblue" points="698.15,-29.69 701.46,-19.63 692.6,-25.43 698.15,-29.69"/>
</g>
<!-- Node6 -->
<g id="node6" class="node">
<title>Node6</title>
<g id="a_node6"><a xlink:title=" ">
<polygon fill="white" stroke="#bfbfbf" points="588,-62 588,-81 620,-81 620,-62 588,-62"/>
<text text-anchor="middle" x="604" y="-69" font-family="Helvetica,sans-Serif" font-size="10.00">set</text>
</a>
</g>
</g>
<!-- Node2&#45;&gt;Node6 -->
<g id="edge5" class="edge">
<title>Node2&#45;&gt;Node6</title>
<path fill="none" stroke="midnightblue" d="M604,-123.48C604,-115.08 604,-101.98 604,-91.16"/>
<polygon fill="midnightblue" stroke="midnightblue" points="607.5,-91.01 604,-81.01 600.5,-91.01 607.5,-91.01"/>
</g>
<!-- Node7 -->
<g id="node7" class="node">
<title>Node7</title>
<g id="a_node7"><a xlink:title=" ">
<polygon fill="white" stroke="#bfbfbf" points="203.5,-0.5 203.5,-19.5 362.5,-19.5 362.5,-0.5 203.5,-0.5"/>
<text text-anchor="middle" x="283" y="-7.5" font-family="Helvetica,sans-Serif" font-size="10.00">vsomeip/primitive_types.hpp</text>
</a>
</g>
</g>
<!-- Node2&#45;&gt;Node7 -->
<g id="edge6" class="edge">
<title>Node2&#45;&gt;Node7</title>
<path fill="none" stroke="midnightblue" d="M558.35,-123.5C522.05,-116.01 470.35,-103.68 427,-87 382.16,-69.75 333.39,-41.9 305.67,-25.14"/>
<polygon fill="midnightblue" stroke="midnightblue" points="307.14,-21.93 296.78,-19.7 303.49,-27.91 307.14,-21.93"/>
</g>
<!-- Node8 -->
<g id="node8" class="node">
<title>Node8</title>
<g id="a_node8"><a xlink:href="endpoint__definition_8hpp.html" target="_top" xlink:title=" ">
<polygon fill="white" stroke="black" points="436,-56.5 436,-86.5 570,-86.5 570,-56.5 436,-56.5"/>
<text text-anchor="start" x="444" y="-74.5" font-family="Helvetica,sans-Serif" font-size="10.00">../../endpoints/include</text>
<text text-anchor="middle" x="503" y="-63.5" font-family="Helvetica,sans-Serif" font-size="10.00">/endpoint_definition.hpp</text>
</a>
</g>
</g>
<!-- Node2&#45;&gt;Node8 -->
<g id="edge7" class="edge">
<title>Node2&#45;&gt;Node8</title>
<path fill="none" stroke="midnightblue" d="M589.53,-123.48C575.59,-115.27 554.02,-102.56 535.9,-91.88"/>
<polygon fill="midnightblue" stroke="midnightblue" points="537.2,-88.58 526.8,-86.52 533.64,-94.61 537.2,-88.58"/>
</g>
<!-- Node11 -->
<g id="node11" class="node">
<title>Node11</title>
<g id="a_node11"><a xlink:title=" ">
<polygon fill="white" stroke="#bfbfbf" points="750,-0.5 750,-19.5 864,-19.5 864,-0.5 750,-0.5"/>
<text text-anchor="middle" x="807" y="-7.5" font-family="Helvetica,sans-Serif" font-size="10.00">vsomeip/export.hpp</text>
</a>
</g>
</g>
<!-- Node2&#45;&gt;Node11 -->
<g id="edge21" class="edge">
<title>Node2&#45;&gt;Node11</title>
<path fill="none" stroke="midnightblue" d="M618.27,-123.49C652.84,-102.89 741.31,-50.15 783.69,-24.89"/>
<polygon fill="midnightblue" stroke="midnightblue" points="785.67,-27.79 792.47,-19.66 782.09,-21.77 785.67,-27.79"/>
</g>
<!-- Node12 -->
<g id="node12" class="node">
<title>Node12</title>
<g id="a_node12"><a xlink:href="types_8hpp.html" target="_top" xlink:title=" ">
<polygon fill="white" stroke="black" points="272.5,-62 272.5,-81 337.5,-81 337.5,-62 272.5,-62"/>
<text text-anchor="middle" x="305" y="-69" font-family="Helvetica,sans-Serif" font-size="10.00">types.hpp</text>
</a>
</g>
</g>
<!-- Node2&#45;&gt;Node12 -->
<g id="edge15" class="edge">
<title>Node2&#45;&gt;Node12</title>
<path fill="none" stroke="midnightblue" d="M561.16,-123.48C504.31,-112.16 404.51,-92.3 347.72,-81"/>
<polygon fill="midnightblue" stroke="midnightblue" points="348.13,-77.51 337.63,-78.99 346.76,-84.38 348.13,-77.51"/>
</g>
<!-- Node8&#45;&gt;Node3 -->
<g id="edge10" class="edge">
<title>Node8&#45;&gt;Node3</title>
<path fill="none" stroke="midnightblue" d="M535.7,-56.4C558.75,-46.46 589.36,-33.26 611.63,-23.66"/>
<polygon fill="midnightblue" stroke="midnightblue" points="613.12,-26.83 620.92,-19.66 610.35,-20.4 613.12,-26.83"/>
</g>
<!-- Node8&#45;&gt;Node4 -->
<g id="edge8" class="edge">
<title>Node8&#45;&gt;Node4</title>
<path fill="none" stroke="midnightblue" d="M435.77,-62.66C375.03,-54.87 283.13,-41.3 195.86,-20.18"/>
<polygon fill="midnightblue" stroke="midnightblue" points="196.61,-16.76 186.06,-17.77 194.94,-23.56 196.61,-16.76"/>
</g>
<!-- Node8&#45;&gt;Node5 -->
<g id="edge11" class="edge">
<title>Node8&#45;&gt;Node5</title>
<path fill="none" stroke="midnightblue" d="M551.32,-56.47C589.08,-45.51 640.61,-30.56 674.09,-20.84"/>
<polygon fill="midnightblue" stroke="midnightblue" points="675.24,-24.15 683.87,-18 673.29,-17.43 675.24,-24.15"/>
</g>
<!-- Node8&#45;&gt;Node7 -->
<g id="edge13" class="edge">
<title>Node8&#45;&gt;Node7</title>
<path fill="none" stroke="midnightblue" d="M451.14,-56.47C412.36,-45.99 360.04,-31.84 324.12,-22.12"/>
<polygon fill="midnightblue" stroke="midnightblue" points="325.02,-18.74 314.45,-19.51 323.19,-25.5 325.02,-18.74"/>
</g>
<!-- Node9 -->
<g id="node9" class="node">
<title>Node9</title>
<g id="a_node9"><a xlink:title=" ">
<polygon fill="white" stroke="#bfbfbf" points="380,-0.5 380,-19.5 438,-19.5 438,-0.5 380,-0.5"/>
<text text-anchor="middle" x="409" y="-7.5" font-family="Helvetica,sans-Serif" font-size="10.00">memory</text>
</a>
</g>
</g>
<!-- Node8&#45;&gt;Node9 -->
<g id="edge9" class="edge">
<title>Node8&#45;&gt;Node9</title>
<path fill="none" stroke="midnightblue" d="M480.72,-56.4C465.8,-46.95 446.22,-34.56 431.29,-25.11"/>
<polygon fill="midnightblue" stroke="midnightblue" points="433,-22.05 422.68,-19.66 429.26,-27.96 433,-22.05"/>
</g>
<!-- Node10 -->
<g id="node10" class="node">
<title>Node10</title>
<g id="a_node10"><a xlink:title=" ">
<polygon fill="white" stroke="#bfbfbf" points="456.5,-0.5 456.5,-19.5 597.5,-19.5 597.5,-0.5 456.5,-0.5"/>
<text text-anchor="middle" x="527" y="-7.5" font-family="Helvetica,sans-Serif" font-size="10.00">boost/asio/ip/address.hpp</text>
</a>
</g>
</g>
<!-- Node8&#45;&gt;Node10 -->
<g id="edge12" class="edge">
<title>Node8&#45;&gt;Node10</title>
<path fill="none" stroke="midnightblue" d="M508.69,-56.4C512,-48.2 516.2,-37.78 519.74,-28.99"/>
<polygon fill="midnightblue" stroke="midnightblue" points="523.01,-30.24 523.51,-19.66 516.52,-27.62 523.01,-30.24"/>
</g>
<!-- Node8&#45;&gt;Node11 -->
<g id="edge14" class="edge">
<title>Node8&#45;&gt;Node11</title>
<path fill="none" stroke="midnightblue" d="M570.09,-57.37C625.33,-46.56 702.61,-31.43 753.69,-21.43"/>
<polygon fill="midnightblue" stroke="midnightblue" points="754.4,-24.86 763.54,-19.51 753.05,-17.99 754.4,-24.86"/>
</g>
<!-- Node12&#45;&gt;Node4 -->
<g id="edge16" class="edge">
<title>Node12&#45;&gt;Node4</title>
<path fill="none" stroke="midnightblue" d="M285.23,-61.98C261.73,-51.84 222.34,-34.86 195.54,-23.31"/>
<polygon fill="midnightblue" stroke="midnightblue" points="196.86,-20.06 186.29,-19.32 194.09,-26.49 196.86,-20.06"/>
</g>
<!-- Node12&#45;&gt;Node7 -->
<g id="edge19" class="edge">
<title>Node12&#45;&gt;Node7</title>
<path fill="none" stroke="midnightblue" d="M301.85,-61.98C298.68,-53.4 293.7,-39.93 289.65,-28.98"/>
<polygon fill="midnightblue" stroke="midnightblue" points="292.9,-27.67 286.15,-19.51 286.33,-30.1 292.9,-27.67"/>
</g>
<!-- Node12&#45;&gt;Node9 -->
<g id="edge17" class="edge">
<title>Node12&#45;&gt;Node9</title>
<path fill="none" stroke="midnightblue" d="M319.9,-61.98C336.97,-52.21 365.16,-36.08 385.26,-24.58"/>
<polygon fill="midnightblue" stroke="midnightblue" points="387.19,-27.51 394.13,-19.51 383.71,-21.44 387.19,-27.51"/>
</g>
<!-- Node12&#45;&gt;Node10 -->
<g id="edge18" class="edge">
<title>Node12&#45;&gt;Node10</title>
<path fill="none" stroke="midnightblue" d="M336.81,-61.98C375.88,-51.5 442.26,-33.71 485.36,-22.16"/>
<polygon fill="midnightblue" stroke="midnightblue" points="486.5,-25.48 495.25,-19.51 484.69,-18.72 486.5,-25.48"/>
</g>
<!-- Node13 -->
<g id="node13" class="node">
<title>Node13</title>
<g id="a_node13"><a xlink:title=" ">
<polygon fill="white" stroke="#bfbfbf" points="0,-0.5 0,-19.5 130,-19.5 130,-0.5 0,-0.5"/>
<text text-anchor="middle" x="65" y="-7.5" font-family="Helvetica,sans-Serif" font-size="10.00">vsomeip/constants.hpp</text>
</a>
</g>
</g>
<!-- Node12&#45;&gt;Node13 -->
<g id="edge20" class="edge">
<title>Node12&#45;&gt;Node13</title>
<path fill="none" stroke="midnightblue" d="M272.38,-62.41C230.23,-51.96 156.67,-33.73 109.44,-22.02"/>
<polygon fill="midnightblue" stroke="midnightblue" points="110.04,-18.56 99.49,-19.55 108.35,-25.35 110.04,-18.56"/>
</g>
<!-- Node14&#45;&gt;Node5 -->
<g id="edge25" class="edge">
<title>Node14&#45;&gt;Node5</title>
<path fill="none" stroke="midnightblue" d="M916.2,-61.94C875.54,-52.64 808.76,-37.12 741.98,-20.19"/>
<polygon fill="midnightblue" stroke="midnightblue" points="742.68,-16.76 732.13,-17.68 740.95,-23.54 742.68,-16.76"/>
</g>
<!-- Node14&#45;&gt;Node11 -->
<g id="edge29" class="edge">
<title>Node14&#45;&gt;Node11</title>
<path fill="none" stroke="midnightblue" d="M932.94,-61.98C907.94,-51.86 866.06,-34.9 837.51,-23.35"/>
<polygon fill="midnightblue" stroke="midnightblue" points="838.61,-20.02 828.02,-19.51 835.98,-26.51 838.61,-20.02"/>
</g>
<!-- Node15 -->
<g id="node15" class="node">
<title>Node15</title>
<g id="a_node15"><a xlink:title=" ">
<polygon fill="white" stroke="#bfbfbf" points="968,-0.5 968,-19.5 1018,-19.5 1018,-0.5 968,-0.5"/>
<text text-anchor="middle" x="993" y="-7.5" font-family="Helvetica,sans-Serif" font-size="10.00">chrono</text>
</a>
</g>
</g>
<!-- Node14&#45;&gt;Node15 -->
<g id="edge23" class="edge">
<title>Node14&#45;&gt;Node15</title>
<path fill="none" stroke="midnightblue" d="M959.59,-61.98C965.38,-53.14 974.59,-39.09 981.87,-27.98"/>
<polygon fill="midnightblue" stroke="midnightblue" points="984.87,-29.79 987.42,-19.51 979.01,-25.95 984.87,-29.79"/>
</g>
<!-- Node16 -->
<g id="node16" class="node">
<title>Node16</title>
<g id="a_node16"><a xlink:title=" ">
<polygon fill="white" stroke="#bfbfbf" points="1036,-0.5 1036,-19.5 1086,-19.5 1086,-0.5 1036,-0.5"/>
<text text-anchor="middle" x="1061" y="-7.5" font-family="Helvetica,sans-Serif" font-size="10.00">cstdint</text>
</a>
</g>
</g>
<!-- Node14&#45;&gt;Node16 -->
<g id="edge24" class="edge">
<title>Node14&#45;&gt;Node16</title>
<path fill="none" stroke="midnightblue" d="M969.33,-61.98C986.97,-52.17 1016.16,-35.93 1036.86,-24.42"/>
<polygon fill="midnightblue" stroke="midnightblue" points="1038.66,-27.43 1045.7,-19.51 1035.26,-21.31 1038.66,-27.43"/>
</g>
<!-- Node17 -->
<g id="node17" class="node">
<title>Node17</title>
<g id="a_node17"><a xlink:title=" ">
<polygon fill="white" stroke="#bfbfbf" points="1104.5,-0.5 1104.5,-19.5 1161.5,-19.5 1161.5,-0.5 1104.5,-0.5"/>
<text text-anchor="middle" x="1133" y="-7.5" font-family="Helvetica,sans-Serif" font-size="10.00">ostream</text>
</a>
</g>
</g>
<!-- Node14&#45;&gt;Node17 -->
<g id="edge26" class="edge">
<title>Node14&#45;&gt;Node17</title>
<path fill="none" stroke="midnightblue" d="M979.65,-61.98C1010.62,-51.68 1062.87,-34.31 1097.65,-22.75"/>
<polygon fill="midnightblue" stroke="midnightblue" points="1099.02,-25.98 1107.4,-19.51 1096.81,-19.34 1099.02,-25.98"/>
</g>
<!-- Node18 -->
<g id="node18" class="node">
<title>Node18</title>
<g id="a_node18"><a xlink:title=" ">
<polygon fill="white" stroke="#bfbfbf" points="1180,-0.5 1180,-19.5 1236,-19.5 1236,-0.5 1180,-0.5"/>
<text text-anchor="middle" x="1208" y="-7.5" font-family="Helvetica,sans-Serif" font-size="10.00">sstream</text>
</a>
</g>
</g>
<!-- Node14&#45;&gt;Node18 -->
<g id="edge27" class="edge">
<title>Node14&#45;&gt;Node18</title>
<path fill="none" stroke="midnightblue" d="M991.27,-61.94C1032.5,-52.46 1101.15,-36.58 1169.63,-20.31"/>
<polygon fill="midnightblue" stroke="midnightblue" points="1170.81,-23.63 1179.73,-17.91 1169.19,-16.82 1170.81,-23.63"/>
</g>
<!-- Node19 -->
<g id="node19" class="node">
<title>Node19</title>
<g id="a_node19"><a xlink:title=" ">
<polygon fill="white" stroke="#bfbfbf" points="882.5,-0.5 882.5,-19.5 949.5,-19.5 949.5,-0.5 882.5,-0.5"/>
<text text-anchor="middle" x="916" y="-7.5" font-family="Helvetica,sans-Serif" font-size="10.00">streambuf</text>
</a>
</g>
</g>
<!-- Node14&#45;&gt;Node19 -->
<g id="edge28" class="edge">
<title>Node14&#45;&gt;Node19</title>
<path fill="none" stroke="midnightblue" d="M948.56,-61.98C942.91,-53.14 933.94,-39.09 926.84,-27.98"/>
<polygon fill="midnightblue" stroke="midnightblue" points="929.77,-26.05 921.43,-19.51 923.87,-29.82 929.77,-26.05"/>
</g>
</g>
</svg>
