<?xml version="1.0" encoding="UTF-8" standalone="no"?>
<!DOCTYPE svg PUBLIC "-//W3C//DTD SVG 1.1//EN"
 "http://www.w3.org/Graphics/SVG/1.1/DTD/svg11.dtd">
<!-- Generated by graphviz version 2.43.0 (0)
 -->
<!-- Title: /home/kali/projects/vsomeip/implementation/routing/include/remote_subscription.hpp Pages: 1 -->
<svg width="872pt" height="184pt"
 viewBox="0.00 0.00 872.00 184.00" xmlns="http://www.w3.org/2000/svg" xmlns:xlink="http://www.w3.org/1999/xlink">
<g id="graph0" class="graph" transform="scale(1 1) rotate(0) translate(4 180)">
<title>/home/kali/projects/vsomeip/implementation/routing/include/remote_subscription.hpp</title>
<polygon fill="white" stroke="transparent" points="-4,4 -4,-180 868,-180 868,4 -4,4"/>
<!-- Node1 -->
<g id="node1" class="node">
<title>Node1</title>
<g id="a_node1"><a xlink:title=" ">
<polygon fill="#bfbfbf" stroke="black" points="436.5,-123.5 436.5,-175.5 579.5,-175.5 579.5,-123.5 436.5,-123.5"/>
<text text-anchor="start" x="444.5" y="-163.5" font-family="Helvetica,sans-Serif" font-size="10.00">/home/kali/projects</text>
<text text-anchor="start" x="444.5" y="-152.5" font-family="Helvetica,sans-Serif" font-size="10.00">/vsomeip/implementation</text>
<text text-anchor="start" x="444.5" y="-141.5" font-family="Helvetica,sans-Serif" font-size="10.00">/routing/include/remote</text>
<text text-anchor="middle" x="508" y="-130.5" font-family="Helvetica,sans-Serif" font-size="10.00">_subscription.hpp</text>
</a>
</g>
</g>
<!-- Node2 -->
<g id="node2" class="node">
<title>Node2</title>
<g id="a_node2"><a xlink:title=" ">
<polygon fill="white" stroke="#bfbfbf" points="0,-0.5 0,-19.5 50,-19.5 50,-0.5 0,-0.5"/>
<text text-anchor="middle" x="25" y="-7.5" font-family="Helvetica,sans-Serif" font-size="10.00">atomic</text>
</a>
</g>
</g>
<!-- Node1&#45;&gt;Node2 -->
<g id="edge1" class="edge">
<title>Node1&#45;&gt;Node2</title>
<path fill="none" stroke="midnightblue" d="M436.37,-137.68C375.19,-127.51 285.26,-110.36 209,-87 151.46,-69.37 87.07,-40.56 51.76,-23.94"/>
<polygon fill="midnightblue" stroke="midnightblue" points="53.14,-20.72 42.61,-19.59 50.14,-27.04 53.14,-20.72"/>
</g>
<!-- Node3 -->
<g id="node3" class="node">
<title>Node3</title>
<g id="a_node3"><a xlink:title=" ">
<polygon fill="white" stroke="#bfbfbf" points="68,-0.5 68,-19.5 106,-19.5 106,-0.5 68,-0.5"/>
<text text-anchor="middle" x="87" y="-7.5" font-family="Helvetica,sans-Serif" font-size="10.00">map</text>
</a>
</g>
</g>
<!-- Node1&#45;&gt;Node3 -->
<g id="edge2" class="edge">
<title>Node1&#45;&gt;Node3</title>
<path fill="none" stroke="midnightblue" d="M436.34,-128.21C396.36,-116.64 345.73,-101.58 301,-87 234.13,-65.21 156.55,-36.89 115.65,-21.71"/>
<polygon fill="midnightblue" stroke="midnightblue" points="116.66,-18.36 106.07,-18.15 114.22,-24.92 116.66,-18.36"/>
</g>
<!-- Node4 -->
<g id="node4" class="node">
<title>Node4</title>
<g id="a_node4"><a xlink:title=" ">
<polygon fill="white" stroke="#bfbfbf" points="684,-0.5 684,-19.5 732,-19.5 732,-0.5 684,-0.5"/>
<text text-anchor="middle" x="708" y="-7.5" font-family="Helvetica,sans-Serif" font-size="10.00">mutex</text>
</a>
</g>
</g>
<!-- Node1&#45;&gt;Node4 -->
<g id="edge3" class="edge">
<title>Node1&#45;&gt;Node4</title>
<path fill="none" stroke="midnightblue" d="M534.17,-123.43C555.63,-103.65 587.35,-76.14 618,-56 637.09,-43.45 660.17,-31.98 678.17,-23.76"/>
<polygon fill="midnightblue" stroke="midnightblue" points="679.9,-26.82 687.59,-19.54 677.04,-20.43 679.9,-26.82"/>
</g>
<!-- Node5 -->
<g id="node5" class="node">
<title>Node5</title>
<g id="a_node5"><a xlink:title=" ">
<polygon fill="white" stroke="#bfbfbf" points="660,-62 660,-81 692,-81 692,-62 660,-62"/>
<text text-anchor="middle" x="676" y="-69" font-family="Helvetica,sans-Serif" font-size="10.00">set</text>
</a>
</g>
</g>
<!-- Node1&#45;&gt;Node5 -->
<g id="edge4" class="edge">
<title>Node1&#45;&gt;Node5</title>
<path fill="none" stroke="midnightblue" d="M565.25,-123.46C590.14,-112.45 619.59,-99.26 646,-87 647.55,-86.28 649.14,-85.53 650.75,-84.77"/>
<polygon fill="midnightblue" stroke="midnightblue" points="652.34,-87.89 659.85,-80.42 649.32,-81.58 652.34,-87.89"/>
</g>
<!-- Node6 -->
<g id="node6" class="node">
<title>Node6</title>
<g id="a_node6"><a xlink:title=" ">
<polygon fill="white" stroke="#bfbfbf" points="507.5,-0.5 507.5,-19.5 666.5,-19.5 666.5,-0.5 507.5,-0.5"/>
<text text-anchor="middle" x="587" y="-7.5" font-family="Helvetica,sans-Serif" font-size="10.00">vsomeip/primitive_types.hpp</text>
</a>
</g>
</g>
<!-- Node1&#45;&gt;Node6 -->
<g id="edge5" class="edge">
<title>Node1&#45;&gt;Node6</title>
<path fill="none" stroke="midnightblue" d="M522.49,-123.28C538.31,-95.75 563.21,-52.4 576.99,-28.42"/>
<polygon fill="midnightblue" stroke="midnightblue" points="580.05,-30.11 582,-19.7 573.99,-26.63 580.05,-30.11"/>
</g>
<!-- Node7 -->
<g id="node7" class="node">
<title>Node7</title>
<g id="a_node7"><a xlink:href="endpoint__definition_8hpp.html" target="_top" xlink:title=" ">
<polygon fill="white" stroke="black" points="394,-56.5 394,-86.5 528,-86.5 528,-56.5 394,-56.5"/>
<text text-anchor="start" x="402" y="-74.5" font-family="Helvetica,sans-Serif" font-size="10.00">../../endpoints/include</text>
<text text-anchor="middle" x="461" y="-63.5" font-family="Helvetica,sans-Serif" font-size="10.00">/endpoint_definition.hpp</text>
</a>
</g>
</g>
<!-- Node1&#45;&gt;Node7 -->
<g id="edge6" class="edge">
<title>Node1&#45;&gt;Node7</title>
<path fill="none" stroke="midnightblue" d="M492.35,-123.19C486.8,-114.22 480.59,-104.18 475.17,-95.42"/>
<polygon fill="midnightblue" stroke="midnightblue" points="478.11,-93.51 469.87,-86.85 472.15,-97.19 478.11,-93.51"/>
</g>
<!-- Node10 -->
<g id="node10" class="node">
<title>Node10</title>
<g id="a_node10"><a xlink:title=" ">
<polygon fill="white" stroke="#bfbfbf" points="750,-0.5 750,-19.5 864,-19.5 864,-0.5 750,-0.5"/>
<text text-anchor="middle" x="807" y="-7.5" font-family="Helvetica,sans-Serif" font-size="10.00">vsomeip/export.hpp</text>
</a>
</g>
</g>
<!-- Node1&#45;&gt;Node10 -->
<g id="edge20" class="edge">
<title>Node1&#45;&gt;Node10</title>
<path fill="none" stroke="midnightblue" d="M552.59,-123.46C570.99,-112.72 592.33,-99.74 611,-87 629.58,-74.32 630.95,-66.19 651,-56 682.27,-40.11 720,-29.04 750.52,-21.85"/>
<polygon fill="midnightblue" stroke="midnightblue" points="751.6,-25.19 760.57,-19.56 750.05,-18.37 751.6,-25.19"/>
</g>
<!-- Node11 -->
<g id="node11" class="node">
<title>Node11</title>
<g id="a_node11"><a xlink:href="types_8hpp.html" target="_top" xlink:title=" ">
<polygon fill="white" stroke="black" points="310.5,-62 310.5,-81 375.5,-81 375.5,-62 310.5,-62"/>
<text text-anchor="middle" x="343" y="-69" font-family="Helvetica,sans-Serif" font-size="10.00">types.hpp</text>
</a>
</g>
</g>
<!-- Node1&#45;&gt;Node11 -->
<g id="edge14" class="edge">
<title>Node1&#45;&gt;Node11</title>
<path fill="none" stroke="midnightblue" d="M453.52,-123.4C425.88,-110.67 393.48,-95.75 370.94,-85.37"/>
<polygon fill="midnightblue" stroke="midnightblue" points="372.17,-82.08 361.62,-81.08 369.24,-88.44 372.17,-82.08"/>
</g>
<!-- Node7&#45;&gt;Node2 -->
<g id="edge9" class="edge">
<title>Node7&#45;&gt;Node2</title>
<path fill="none" stroke="midnightblue" d="M393.86,-57.55C390.53,-57 387.23,-56.48 384,-56 243.49,-35.02 203.64,-46.14 60.21,-19.97"/>
<polygon fill="midnightblue" stroke="midnightblue" points="60.63,-16.49 50.16,-18.1 59.35,-23.37 60.63,-16.49"/>
</g>
<!-- Node7&#45;&gt;Node3 -->
<g id="edge7" class="edge">
<title>Node7&#45;&gt;Node3</title>
<path fill="none" stroke="midnightblue" d="M393.85,-57.64C390.52,-57.07 387.22,-56.52 384,-56 268.05,-37.34 234.42,-46.07 115.97,-19.86"/>
<polygon fill="midnightblue" stroke="midnightblue" points="116.68,-16.43 106.16,-17.65 115.14,-23.26 116.68,-16.43"/>
</g>
<!-- Node7&#45;&gt;Node4 -->
<g id="edge10" class="edge">
<title>Node7&#45;&gt;Node4</title>
<path fill="none" stroke="midnightblue" d="M522.94,-56.48C563.41,-47.18 617.63,-34.46 674.06,-20.18"/>
<polygon fill="midnightblue" stroke="midnightblue" points="675.05,-23.54 683.87,-17.68 673.32,-16.75 675.05,-23.54"/>
</g>
<!-- Node7&#45;&gt;Node6 -->
<g id="edge12" class="edge">
<title>Node7&#45;&gt;Node6</title>
<path fill="none" stroke="midnightblue" d="M490.86,-56.4C511.62,-46.59 539.1,-33.62 559.36,-24.05"/>
<polygon fill="midnightblue" stroke="midnightblue" points="561.12,-27.09 568.67,-19.66 558.13,-20.76 561.12,-27.09"/>
</g>
<!-- Node8 -->
<g id="node8" class="node">
<title>Node8</title>
<g id="a_node8"><a xlink:title=" ">
<polygon fill="white" stroke="#bfbfbf" points="432,-0.5 432,-19.5 490,-19.5 490,-0.5 432,-0.5"/>
<text text-anchor="middle" x="461" y="-7.5" font-family="Helvetica,sans-Serif" font-size="10.00">memory</text>
</a>
</g>
</g>
<!-- Node7&#45;&gt;Node8 -->
<g id="edge8" class="edge">
<title>Node7&#45;&gt;Node8</title>
<path fill="none" stroke="midnightblue" d="M461,-56.4C461,-48.47 461,-38.46 461,-29.86"/>
<polygon fill="midnightblue" stroke="midnightblue" points="464.5,-29.66 461,-19.66 457.5,-29.66 464.5,-29.66"/>
</g>
<!-- Node9 -->
<g id="node9" class="node">
<title>Node9</title>
<g id="a_node9"><a xlink:title=" ">
<polygon fill="white" stroke="#bfbfbf" points="272.5,-0.5 272.5,-19.5 413.5,-19.5 413.5,-0.5 272.5,-0.5"/>
<text text-anchor="middle" x="343" y="-7.5" font-family="Helvetica,sans-Serif" font-size="10.00">boost/asio/ip/address.hpp</text>
</a>
</g>
</g>
<!-- Node7&#45;&gt;Node9 -->
<g id="edge11" class="edge">
<title>Node7&#45;&gt;Node9</title>
<path fill="none" stroke="midnightblue" d="M433.04,-56.4C413.68,-46.64 388.09,-33.74 369.14,-24.18"/>
<polygon fill="midnightblue" stroke="midnightblue" points="370.67,-21.04 360.17,-19.66 367.52,-27.29 370.67,-21.04"/>
</g>
<!-- Node7&#45;&gt;Node10 -->
<g id="edge13" class="edge">
<title>Node7&#45;&gt;Node10</title>
<path fill="none" stroke="midnightblue" d="M528.12,-58.96C591.79,-48.01 686.54,-31.72 747.55,-21.22"/>
<polygon fill="midnightblue" stroke="midnightblue" points="748.15,-24.67 757.41,-19.53 746.96,-17.77 748.15,-24.67"/>
</g>
<!-- Node11&#45;&gt;Node3 -->
<g id="edge15" class="edge">
<title>Node11&#45;&gt;Node3</title>
<path fill="none" stroke="midnightblue" d="M310.3,-64.25C267.72,-55.9 190.85,-40.09 116.24,-20.14"/>
<polygon fill="midnightblue" stroke="midnightblue" points="116.78,-16.66 106.21,-17.43 114.95,-23.42 116.78,-16.66"/>
</g>
<!-- Node11&#45;&gt;Node6 -->
<g id="edge18" class="edge">
<title>Node11&#45;&gt;Node6</title>
<path fill="none" stroke="midnightblue" d="M366.4,-61.9C372.42,-59.83 378.91,-57.72 385,-56 434.08,-42.11 490.85,-29.79 531.68,-21.56"/>
<polygon fill="midnightblue" stroke="midnightblue" points="532.58,-24.95 541.71,-19.56 531.21,-18.09 532.58,-24.95"/>
</g>
<!-- Node11&#45;&gt;Node8 -->
<g id="edge16" class="edge">
<title>Node11&#45;&gt;Node8</title>
<path fill="none" stroke="midnightblue" d="M359.91,-61.98C379.53,-52.08 412.13,-35.64 434.99,-24.12"/>
<polygon fill="midnightblue" stroke="midnightblue" points="436.77,-27.14 444.12,-19.51 433.62,-20.89 436.77,-27.14"/>
</g>
<!-- Node11&#45;&gt;Node9 -->
<g id="edge17" class="edge">
<title>Node11&#45;&gt;Node9</title>
<path fill="none" stroke="midnightblue" d="M343,-61.98C343,-53.58 343,-40.48 343,-29.66"/>
<polygon fill="midnightblue" stroke="midnightblue" points="346.5,-29.51 343,-19.51 339.5,-29.51 346.5,-29.51"/>
</g>
<!-- Node12 -->
<g id="node12" class="node">
<title>Node12</title>
<g id="a_node12"><a xlink:title=" ">
<polygon fill="white" stroke="#bfbfbf" points="124,-0.5 124,-19.5 254,-19.5 254,-0.5 124,-0.5"/>
<text text-anchor="middle" x="189" y="-7.5" font-family="Helvetica,sans-Serif" font-size="10.00">vsomeip/constants.hpp</text>
</a>
</g>
</g>
<!-- Node11&#45;&gt;Node12 -->
<g id="edge19" class="edge">
<title>Node11&#45;&gt;Node12</title>
<path fill="none" stroke="midnightblue" d="M320.94,-61.98C294.63,-51.81 250.49,-34.76 220.58,-23.2"/>
<polygon fill="midnightblue" stroke="midnightblue" points="221.61,-19.85 211.02,-19.51 219.09,-26.38 221.61,-19.85"/>
</g>
</g>
</svg>
