<?xml version="1.0" encoding="UTF-8" standalone="no"?>
<!DOCTYPE svg PUBLIC "-//W3C//DTD SVG 1.1//EN"
 "http://www.w3.org/Graphics/SVG/1.1/DTD/svg11.dtd">
<!-- Generated by graphviz version 2.43.0 (0)
 -->
<!-- Title: /home/kali/projects/vsomeip/implementation/service_discovery/src/remote_subscription_ack.cpp Pages: 1 -->
<svg width="1265pt" height="318pt"
 viewBox="0.00 0.00 1264.58 318.00" xmlns="http://www.w3.org/2000/svg" xmlns:xlink="http://www.w3.org/1999/xlink">
<g id="graph0" class="graph" transform="scale(1 1) rotate(0) translate(4 314)">
<title>/home/kali/projects/vsomeip/implementation/service_discovery/src/remote_subscription_ack.cpp</title>
<polygon fill="white" stroke="transparent" points="-4,4 -4,-314 1260.58,-314 1260.58,4 -4,4"/>
<!-- Node1 -->
<g id="node1" class="node">
<title>Node1</title>
<g id="a_node1"><a xlink:title=" ">
<polygon fill="#bfbfbf" stroke="black" points="595.5,-257.5 595.5,-309.5 757.5,-309.5 757.5,-257.5 595.5,-257.5"/>
<text text-anchor="start" x="603.5" y="-297.5" font-family="Helvetica,sans-Serif" font-size="10.00">/home/kali/projects</text>
<text text-anchor="start" x="603.5" y="-286.5" font-family="Helvetica,sans-Serif" font-size="10.00">/vsomeip/implementation</text>
<text text-anchor="start" x="603.5" y="-275.5" font-family="Helvetica,sans-Serif" font-size="10.00">/service_discovery/src</text>
<text text-anchor="middle" x="676.5" y="-264.5" font-family="Helvetica,sans-Serif" font-size="10.00">/remote_subscription_ack.cpp</text>
</a>
</g>
</g>
<!-- Node2 -->
<g id="node2" class="node">
<title>Node2</title>
<g id="a_node2"><a xlink:href="service__discovery_2include_2message__impl_8hpp.html" target="_top" xlink:title=" ">
<polygon fill="white" stroke="black" points="468.5,-190.5 468.5,-220.5 576.5,-220.5 576.5,-190.5 468.5,-190.5"/>
<text text-anchor="start" x="476.5" y="-208.5" font-family="Helvetica,sans-Serif" font-size="10.00">../include/message</text>
<text text-anchor="middle" x="522.5" y="-197.5" font-family="Helvetica,sans-Serif" font-size="10.00">_impl.hpp</text>
</a>
</g>
</g>
<!-- Node1&#45;&gt;Node2 -->
<g id="edge1" class="edge">
<title>Node1&#45;&gt;Node2</title>
<path fill="none" stroke="midnightblue" d="M625.65,-257.4C604.32,-246.88 579.95,-234.85 560.26,-225.14"/>
<polygon fill="midnightblue" stroke="midnightblue" points="561.8,-221.99 551.29,-220.71 558.71,-228.27 561.8,-221.99"/>
</g>
<!-- Node20 -->
<g id="node20" class="node">
<title>Node20</title>
<g id="a_node20"><a xlink:href="remote__subscription__ack_8hpp.html" target="_top" xlink:title=" ">
<polygon fill="white" stroke="black" points="594.5,-190.5 594.5,-220.5 758.5,-220.5 758.5,-190.5 594.5,-190.5"/>
<text text-anchor="start" x="602.5" y="-208.5" font-family="Helvetica,sans-Serif" font-size="10.00">../include/remote_subscription</text>
<text text-anchor="middle" x="676.5" y="-197.5" font-family="Helvetica,sans-Serif" font-size="10.00">_ack.hpp</text>
</a>
</g>
</g>
<!-- Node1&#45;&gt;Node20 -->
<g id="edge26" class="edge">
<title>Node1&#45;&gt;Node20</title>
<path fill="none" stroke="midnightblue" d="M676.5,-257.19C676.5,-248.79 676.5,-239.44 676.5,-231.09"/>
<polygon fill="midnightblue" stroke="midnightblue" points="680,-230.85 676.5,-220.85 673,-230.85 680,-230.85"/>
</g>
<!-- Node22 -->
<g id="node22" class="node">
<title>Node22</title>
<g id="a_node22"><a xlink:href="remote__subscription_8hpp.html" target="_top" xlink:title=" ">
<polygon fill="white" stroke="black" points="826.5,-190.5 826.5,-220.5 966.5,-220.5 966.5,-190.5 826.5,-190.5"/>
<text text-anchor="start" x="834.5" y="-208.5" font-family="Helvetica,sans-Serif" font-size="10.00">../../routing/include</text>
<text text-anchor="middle" x="896.5" y="-197.5" font-family="Helvetica,sans-Serif" font-size="10.00">/remote_subscription.hpp</text>
</a>
</g>
</g>
<!-- Node1&#45;&gt;Node22 -->
<g id="edge30" class="edge">
<title>Node1&#45;&gt;Node22</title>
<path fill="none" stroke="midnightblue" d="M749.15,-257.4C780.83,-246.46 817.21,-233.89 845.89,-223.98"/>
<polygon fill="midnightblue" stroke="midnightblue" points="847.38,-227.17 855.69,-220.6 845.1,-220.55 847.38,-227.17"/>
</g>
<!-- Node3 -->
<g id="node3" class="node">
<title>Node3</title>
<g id="a_node3"><a xlink:title=" ">
<polygon fill="white" stroke="#bfbfbf" points="601.5,-67.5 601.5,-86.5 651.5,-86.5 651.5,-67.5 601.5,-67.5"/>
<text text-anchor="middle" x="626.5" y="-74.5" font-family="Helvetica,sans-Serif" font-size="10.00">atomic</text>
</a>
</g>
</g>
<!-- Node2&#45;&gt;Node3 -->
<g id="edge2" class="edge">
<title>Node2&#45;&gt;Node3</title>
<path fill="none" stroke="midnightblue" d="M532.87,-190.39C545.09,-173.92 566.18,-146.01 585.5,-123 593.74,-113.19 603.37,-102.57 611.23,-94.12"/>
<polygon fill="midnightblue" stroke="midnightblue" points="613.83,-96.46 618.11,-86.77 608.72,-91.68 613.83,-96.46"/>
</g>
<!-- Node4 -->
<g id="node4" class="node">
<title>Node4</title>
<g id="a_node4"><a xlink:title=" ">
<polygon fill="white" stroke="#bfbfbf" points="669.5,-67.5 669.5,-86.5 727.5,-86.5 727.5,-67.5 669.5,-67.5"/>
<text text-anchor="middle" x="698.5" y="-74.5" font-family="Helvetica,sans-Serif" font-size="10.00">memory</text>
</a>
</g>
</g>
<!-- Node2&#45;&gt;Node4 -->
<g id="edge3" class="edge">
<title>Node2&#45;&gt;Node4</title>
<path fill="none" stroke="midnightblue" d="M542.01,-190.48C575.53,-166.39 643.75,-117.35 677.96,-92.76"/>
<polygon fill="midnightblue" stroke="midnightblue" points="680.2,-95.47 686.27,-86.79 676.11,-89.78 680.2,-95.47"/>
</g>
<!-- Node5 -->
<g id="node5" class="node">
<title>Node5</title>
<g id="a_node5"><a xlink:title=" ">
<polygon fill="white" stroke="#bfbfbf" points="535.5,-67.5 535.5,-86.5 583.5,-86.5 583.5,-67.5 535.5,-67.5"/>
<text text-anchor="middle" x="559.5" y="-74.5" font-family="Helvetica,sans-Serif" font-size="10.00">mutex</text>
</a>
</g>
</g>
<!-- Node2&#45;&gt;Node5 -->
<g id="edge4" class="edge">
<title>Node2&#45;&gt;Node5</title>
<path fill="none" stroke="midnightblue" d="M526.6,-190.48C533.29,-167.62 546.54,-122.3 554.03,-96.71"/>
<polygon fill="midnightblue" stroke="midnightblue" points="557.48,-97.37 556.93,-86.79 550.76,-95.4 557.48,-97.37"/>
</g>
<!-- Node6 -->
<g id="node6" class="node">
<title>Node6</title>
<g id="a_node6"><a xlink:title=" ">
<polygon fill="white" stroke="#bfbfbf" points="284,-129 284,-148 331,-148 331,-129 284,-129"/>
<text text-anchor="middle" x="307.5" y="-136" font-family="Helvetica,sans-Serif" font-size="10.00">vector</text>
</a>
</g>
</g>
<!-- Node2&#45;&gt;Node6 -->
<g id="edge5" class="edge">
<title>Node2&#45;&gt;Node6</title>
<path fill="none" stroke="midnightblue" d="M468.69,-190.45C433.42,-180.92 386.43,-167.62 345.5,-154 343.24,-153.25 340.91,-152.44 338.58,-151.61"/>
<polygon fill="midnightblue" stroke="midnightblue" points="339.68,-148.28 329.09,-148.11 337.26,-154.85 339.68,-148.28"/>
</g>
<!-- Node7 -->
<g id="node7" class="node">
<title>Node7</title>
<g id="a_node7"><a xlink:title=" ">
<polygon fill="white" stroke="#bfbfbf" points="322,-67.5 322,-86.5 449,-86.5 449,-67.5 322,-67.5"/>
<text text-anchor="middle" x="385.5" y="-74.5" font-family="Helvetica,sans-Serif" font-size="10.00">vsomeip/message.hpp</text>
</a>
</g>
</g>
<!-- Node2&#45;&gt;Node7 -->
<g id="edge6" class="edge">
<title>Node2&#45;&gt;Node7</title>
<path fill="none" stroke="midnightblue" d="M468.47,-200.57C436.67,-195.16 398.8,-182.64 378.5,-154 366.68,-137.33 371.64,-113.16 377.46,-96.58"/>
<polygon fill="midnightblue" stroke="midnightblue" points="380.85,-97.52 381.23,-86.94 374.33,-94.97 380.85,-97.52"/>
</g>
<!-- Node8 -->
<g id="node8" class="node">
<title>Node8</title>
<g id="a_node8"><a xlink:href="implementation_2service__discovery_2include_2primitive__types_8hpp.html" target="_top" xlink:title=" ">
<polygon fill="white" stroke="black" points="387.5,-123.5 387.5,-153.5 495.5,-153.5 495.5,-123.5 387.5,-123.5"/>
<text text-anchor="start" x="395.5" y="-141.5" font-family="Helvetica,sans-Serif" font-size="10.00">../include/primitive</text>
<text text-anchor="middle" x="441.5" y="-130.5" font-family="Helvetica,sans-Serif" font-size="10.00">_types.hpp</text>
</a>
</g>
</g>
<!-- Node2&#45;&gt;Node8 -->
<g id="edge7" class="edge">
<title>Node2&#45;&gt;Node8</title>
<path fill="none" stroke="midnightblue" d="M504.92,-190.4C493.89,-181.54 479.46,-169.96 467.15,-160.09"/>
<polygon fill="midnightblue" stroke="midnightblue" points="469.03,-157.11 459.04,-153.58 464.65,-162.56 469.03,-157.11"/>
</g>
<!-- Node10 -->
<g id="node10" class="node">
<title>Node10</title>
<g id="a_node10"><a xlink:href="message_2include_2message__base__impl_8hpp.html" target="_top" xlink:title=" ">
<polygon fill="white" stroke="black" points="125.5,-123.5 125.5,-153.5 265.5,-153.5 265.5,-123.5 125.5,-123.5"/>
<text text-anchor="start" x="133.5" y="-141.5" font-family="Helvetica,sans-Serif" font-size="10.00">../../message/include</text>
<text text-anchor="middle" x="195.5" y="-130.5" font-family="Helvetica,sans-Serif" font-size="10.00">/message_base_impl.hpp</text>
</a>
</g>
</g>
<!-- Node2&#45;&gt;Node10 -->
<g id="edge9" class="edge">
<title>Node2&#45;&gt;Node10</title>
<path fill="none" stroke="midnightblue" d="M468.14,-193.69C415.69,-183.27 335.67,-167.36 275.86,-155.47"/>
<polygon fill="midnightblue" stroke="midnightblue" points="276.19,-151.97 265.7,-153.45 274.82,-158.84 276.19,-151.97"/>
</g>
<!-- Node17 -->
<g id="node17" class="node">
<title>Node17</title>
<g id="a_node17"><a xlink:href="endpoint__definition_8hpp.html" target="_top" xlink:title=" ">
<polygon fill="white" stroke="black" points="829.5,-123.5 829.5,-153.5 963.5,-153.5 963.5,-123.5 829.5,-123.5"/>
<text text-anchor="start" x="837.5" y="-141.5" font-family="Helvetica,sans-Serif" font-size="10.00">../../endpoints/include</text>
<text text-anchor="middle" x="896.5" y="-130.5" font-family="Helvetica,sans-Serif" font-size="10.00">/endpoint_definition.hpp</text>
</a>
</g>
</g>
<!-- Node2&#45;&gt;Node17 -->
<g id="edge18" class="edge">
<title>Node2&#45;&gt;Node17</title>
<path fill="none" stroke="midnightblue" d="M576.75,-191.78C579.7,-191.16 582.64,-190.56 585.5,-190 664.7,-174.47 755.9,-160.07 818.97,-150.65"/>
<polygon fill="midnightblue" stroke="midnightblue" points="819.86,-154.06 829.24,-149.13 818.83,-147.14 819.86,-154.06"/>
</g>
<!-- Node9 -->
<g id="node9" class="node">
<title>Node9</title>
<g id="a_node9"><a xlink:title=" ">
<polygon fill="white" stroke="#bfbfbf" points="467.5,-67.5 467.5,-86.5 517.5,-86.5 517.5,-67.5 467.5,-67.5"/>
<text text-anchor="middle" x="492.5" y="-74.5" font-family="Helvetica,sans-Serif" font-size="10.00">cstdint</text>
</a>
</g>
</g>
<!-- Node8&#45;&gt;Node9 -->
<g id="edge8" class="edge">
<title>Node8&#45;&gt;Node9</title>
<path fill="none" stroke="midnightblue" d="M453.59,-123.4C461.07,-114.66 470.72,-103.41 478.53,-94.3"/>
<polygon fill="midnightblue" stroke="midnightblue" points="481.23,-96.53 485.08,-86.66 475.91,-91.97 481.23,-96.53"/>
</g>
<!-- Node10&#45;&gt;Node7 -->
<g id="edge12" class="edge">
<title>Node10&#45;&gt;Node7</title>
<path fill="none" stroke="midnightblue" d="M240.53,-123.4C273.36,-113.12 317.32,-99.35 348.2,-89.68"/>
<polygon fill="midnightblue" stroke="midnightblue" points="349.63,-92.9 358.13,-86.57 347.54,-86.22 349.63,-92.9"/>
</g>
<!-- Node11 -->
<g id="node11" class="node">
<title>Node11</title>
<g id="a_node11"><a xlink:title=" ">
<polygon fill="white" stroke="#bfbfbf" points="0,-67.5 0,-86.5 99,-86.5 99,-67.5 0,-67.5"/>
<text text-anchor="middle" x="49.5" y="-74.5" font-family="Helvetica,sans-Serif" font-size="10.00">boost/thread.hpp</text>
</a>
</g>
</g>
<!-- Node10&#45;&gt;Node11 -->
<g id="edge10" class="edge">
<title>Node10&#45;&gt;Node11</title>
<path fill="none" stroke="midnightblue" d="M160.9,-123.4C136.4,-113.42 103.84,-100.15 80.25,-90.53"/>
<polygon fill="midnightblue" stroke="midnightblue" points="81.33,-87.19 70.74,-86.66 78.68,-93.67 81.33,-87.19"/>
</g>
<!-- Node12 -->
<g id="node12" class="node">
<title>Node12</title>
<g id="a_node12"><a xlink:title=" ">
<polygon fill="white" stroke="#bfbfbf" points="562.5,-6 562.5,-25 676.5,-25 676.5,-6 562.5,-6"/>
<text text-anchor="middle" x="619.5" y="-13" font-family="Helvetica,sans-Serif" font-size="10.00">vsomeip/export.hpp</text>
</a>
</g>
</g>
<!-- Node10&#45;&gt;Node12 -->
<g id="edge11" class="edge">
<title>Node10&#45;&gt;Node12</title>
<path fill="none" stroke="midnightblue" d="M217.92,-123.36C249.01,-103.86 302.51,-70.68 312.5,-67 391.73,-37.84 488.65,-25.46 552.13,-20.24"/>
<polygon fill="midnightblue" stroke="midnightblue" points="552.71,-23.71 562.41,-19.44 552.17,-16.73 552.71,-23.71"/>
</g>
<!-- Node13 -->
<g id="node13" class="node">
<title>Node13</title>
<g id="a_node13"><a xlink:href="message__header__impl_8hpp.html" target="_top" xlink:title=" ">
<polygon fill="white" stroke="black" points="117.5,-67.5 117.5,-86.5 265.5,-86.5 265.5,-67.5 117.5,-67.5"/>
<text text-anchor="middle" x="191.5" y="-74.5" font-family="Helvetica,sans-Serif" font-size="10.00">message_header_impl.hpp</text>
</a>
</g>
</g>
<!-- Node10&#45;&gt;Node13 -->
<g id="edge13" class="edge">
<title>Node10&#45;&gt;Node13</title>
<path fill="none" stroke="midnightblue" d="M194.55,-123.4C194.02,-115.47 193.35,-105.46 192.77,-96.86"/>
<polygon fill="midnightblue" stroke="midnightblue" points="196.24,-96.4 192.08,-86.66 189.26,-96.87 196.24,-96.4"/>
</g>
<!-- Node13&#45;&gt;Node12 -->
<g id="edge14" class="edge">
<title>Node13&#45;&gt;Node12</title>
<path fill="none" stroke="midnightblue" d="M252.82,-67.48C332.26,-56.43 470.26,-37.25 552.42,-25.83"/>
<polygon fill="midnightblue" stroke="midnightblue" points="552.97,-29.28 562.4,-24.44 552.01,-22.35 552.97,-29.28"/>
</g>
<!-- Node14 -->
<g id="node14" class="node">
<title>Node14</title>
<g id="a_node14"><a xlink:title=" ">
<polygon fill="white" stroke="#bfbfbf" points="850,-6 850,-25 1009,-25 1009,-6 850,-6"/>
<text text-anchor="middle" x="929.5" y="-13" font-family="Helvetica,sans-Serif" font-size="10.00">vsomeip/primitive_types.hpp</text>
</a>
</g>
</g>
<!-- Node13&#45;&gt;Node14 -->
<g id="edge15" class="edge">
<title>Node13&#45;&gt;Node14</title>
<path fill="none" stroke="midnightblue" d="M265.64,-70.02C402,-59.03 692.08,-35.64 839.48,-23.76"/>
<polygon fill="midnightblue" stroke="midnightblue" points="840.16,-27.21 849.84,-22.92 839.6,-20.24 840.16,-27.21"/>
</g>
<!-- Node15 -->
<g id="node15" class="node">
<title>Node15</title>
<g id="a_node15"><a xlink:title=" ">
<polygon fill="white" stroke="#bfbfbf" points="206.5,-0.5 206.5,-30.5 330.5,-30.5 330.5,-0.5 206.5,-0.5"/>
<text text-anchor="start" x="214.5" y="-18.5" font-family="Helvetica,sans-Serif" font-size="10.00">vsomeip/enumeration</text>
<text text-anchor="middle" x="268.5" y="-7.5" font-family="Helvetica,sans-Serif" font-size="10.00">_types.hpp</text>
</a>
</g>
</g>
<!-- Node13&#45;&gt;Node15 -->
<g id="edge16" class="edge">
<title>Node13&#45;&gt;Node15</title>
<path fill="none" stroke="midnightblue" d="M202.53,-67.48C212.86,-59.49 228.7,-47.25 242.27,-36.77"/>
<polygon fill="midnightblue" stroke="midnightblue" points="244.58,-39.41 250.35,-30.52 240.3,-33.87 244.58,-39.41"/>
</g>
<!-- Node16 -->
<g id="node16" class="node">
<title>Node16</title>
<g id="a_node16"><a xlink:title=" ">
<polygon fill="white" stroke="#bfbfbf" points="9,-6 9,-25 188,-25 188,-6 9,-6"/>
<text text-anchor="middle" x="98.5" y="-13" font-family="Helvetica,sans-Serif" font-size="10.00">vsomeip/internal/serializable.hpp</text>
</a>
</g>
</g>
<!-- Node13&#45;&gt;Node16 -->
<g id="edge17" class="edge">
<title>Node13&#45;&gt;Node16</title>
<path fill="none" stroke="midnightblue" d="M178.18,-67.48C163.12,-57.84 138.38,-42.02 120.46,-30.55"/>
<polygon fill="midnightblue" stroke="midnightblue" points="122.11,-27.45 111.8,-25.01 118.34,-33.35 122.11,-27.45"/>
</g>
<!-- Node17&#45;&gt;Node3 -->
<g id="edge21" class="edge">
<title>Node17&#45;&gt;Node3</title>
<path fill="none" stroke="midnightblue" d="M829.42,-124.04C784.49,-114.82 723.78,-101.96 661.69,-87.2"/>
<polygon fill="midnightblue" stroke="midnightblue" points="662.26,-83.74 651.72,-84.82 660.63,-90.55 662.26,-83.74"/>
</g>
<!-- Node17&#45;&gt;Node4 -->
<g id="edge20" class="edge">
<title>Node17&#45;&gt;Node4</title>
<path fill="none" stroke="midnightblue" d="M849.83,-123.47C815.37,-113.12 769.04,-99.2 736.76,-89.5"/>
<polygon fill="midnightblue" stroke="midnightblue" points="737.39,-86.03 726.81,-86.51 735.38,-92.74 737.39,-86.03"/>
</g>
<!-- Node17&#45;&gt;Node5 -->
<g id="edge22" class="edge">
<title>Node17&#45;&gt;Node5</title>
<path fill="none" stroke="midnightblue" d="M829.41,-128.36C769.86,-119.78 680.32,-105.79 593.59,-87.06"/>
<polygon fill="midnightblue" stroke="midnightblue" points="594.1,-83.58 583.58,-84.87 592.6,-90.42 594.1,-83.58"/>
</g>
<!-- Node17&#45;&gt;Node12 -->
<g id="edge25" class="edge">
<title>Node17&#45;&gt;Node12</title>
<path fill="none" stroke="midnightblue" d="M864.66,-123.38C832.39,-109.1 781.02,-86.42 736.5,-67 706.69,-54 672.54,-39.28 648.86,-29.1"/>
<polygon fill="midnightblue" stroke="midnightblue" points="649.96,-25.76 639.39,-25.03 647.2,-32.2 649.96,-25.76"/>
</g>
<!-- Node17&#45;&gt;Node14 -->
<g id="edge24" class="edge">
<title>Node17&#45;&gt;Node14</title>
<path fill="none" stroke="midnightblue" d="M857.6,-123.45C829.12,-110.85 797.96,-90.72 813.5,-67 826.29,-47.48 848.44,-35.47 869.98,-28.09"/>
<polygon fill="midnightblue" stroke="midnightblue" points="871.3,-31.34 879.8,-25.02 869.21,-24.66 871.3,-31.34"/>
</g>
<!-- Node18 -->
<g id="node18" class="node">
<title>Node18</title>
<g id="a_node18"><a xlink:title=" ">
<polygon fill="white" stroke="#bfbfbf" points="1019.5,-67.5 1019.5,-86.5 1057.5,-86.5 1057.5,-67.5 1019.5,-67.5"/>
<text text-anchor="middle" x="1038.5" y="-74.5" font-family="Helvetica,sans-Serif" font-size="10.00">map</text>
</a>
</g>
</g>
<!-- Node17&#45;&gt;Node18 -->
<g id="edge19" class="edge">
<title>Node17&#45;&gt;Node18</title>
<path fill="none" stroke="midnightblue" d="M930.15,-123.4C954.55,-113.18 987.18,-99.51 1010.23,-89.85"/>
<polygon fill="midnightblue" stroke="midnightblue" points="1011.6,-93.07 1019.47,-85.97 1008.9,-86.61 1011.6,-93.07"/>
</g>
<!-- Node19 -->
<g id="node19" class="node">
<title>Node19</title>
<g id="a_node19"><a xlink:title=" ">
<polygon fill="white" stroke="#bfbfbf" points="822,-67.5 822,-86.5 963,-86.5 963,-67.5 822,-67.5"/>
<text text-anchor="middle" x="892.5" y="-74.5" font-family="Helvetica,sans-Serif" font-size="10.00">boost/asio/ip/address.hpp</text>
</a>
</g>
</g>
<!-- Node17&#45;&gt;Node19 -->
<g id="edge23" class="edge">
<title>Node17&#45;&gt;Node19</title>
<path fill="none" stroke="midnightblue" d="M895.55,-123.4C895.02,-115.47 894.35,-105.46 893.77,-96.86"/>
<polygon fill="midnightblue" stroke="midnightblue" points="897.24,-96.4 893.08,-86.66 890.26,-96.87 897.24,-96.4"/>
</g>
<!-- Node20&#45;&gt;Node4 -->
<g id="edge27" class="edge">
<title>Node20&#45;&gt;Node4</title>
<path fill="none" stroke="midnightblue" d="M678.94,-190.48C682.91,-167.62 690.8,-122.3 695.25,-96.71"/>
<polygon fill="midnightblue" stroke="midnightblue" points="698.71,-97.24 696.97,-86.79 691.81,-96.04 698.71,-97.24"/>
</g>
<!-- Node20&#45;&gt;Node5 -->
<g id="edge28" class="edge">
<title>Node20&#45;&gt;Node5</title>
<path fill="none" stroke="midnightblue" d="M663.53,-190.48C641.72,-166.9 597.82,-119.43 574.63,-94.36"/>
<polygon fill="midnightblue" stroke="midnightblue" points="576.99,-91.75 567.63,-86.79 571.85,-96.51 576.99,-91.75"/>
</g>
<!-- Node21 -->
<g id="node21" class="node">
<title>Node21</title>
<g id="a_node21"><a xlink:title=" ">
<polygon fill="white" stroke="#bfbfbf" points="703.5,-129 703.5,-148 735.5,-148 735.5,-129 703.5,-129"/>
<text text-anchor="middle" x="719.5" y="-136" font-family="Helvetica,sans-Serif" font-size="10.00">set</text>
</a>
</g>
</g>
<!-- Node20&#45;&gt;Node21 -->
<g id="edge29" class="edge">
<title>Node20&#45;&gt;Node21</title>
<path fill="none" stroke="midnightblue" d="M685.83,-190.4C692.4,-180.46 701.24,-167.11 708.21,-156.57"/>
<polygon fill="midnightblue" stroke="midnightblue" points="711.15,-158.47 713.75,-148.19 705.31,-154.6 711.15,-158.47"/>
</g>
<!-- Node22&#45;&gt;Node3 -->
<g id="edge31" class="edge">
<title>Node22&#45;&gt;Node3</title>
<path fill="none" stroke="midnightblue" d="M874.73,-190.35C859.45,-180.35 838.6,-166.53 820.5,-154 801.13,-140.59 798.64,-133.4 777.5,-123 766.96,-117.81 702.54,-99.32 661.32,-87.71"/>
<polygon fill="midnightblue" stroke="midnightblue" points="662.21,-84.33 651.64,-84.99 660.32,-91.07 662.21,-84.33"/>
</g>
<!-- Node22&#45;&gt;Node5 -->
<g id="edge33" class="edge">
<title>Node22&#45;&gt;Node5</title>
<path fill="none" stroke="midnightblue" d="M853.37,-190.4C829.92,-181.72 801,-169.32 777.5,-154 760.64,-143.01 762.22,-132.53 744.5,-123 686.1,-91.6 661.97,-102.97 593.58,-87.11"/>
<polygon fill="midnightblue" stroke="midnightblue" points="594.17,-83.65 583.63,-84.68 592.51,-90.45 594.17,-83.65"/>
</g>
<!-- Node22&#45;&gt;Node12 -->
<g id="edge43" class="edge">
<title>Node22&#45;&gt;Node12</title>
<path fill="none" stroke="midnightblue" d="M931.64,-190.45C947.11,-182.29 963.74,-170.34 972.5,-154 990.77,-119.92 997.83,-96.21 972.5,-67 954.06,-45.74 783.76,-29.21 686.6,-21.41"/>
<polygon fill="midnightblue" stroke="midnightblue" points="686.82,-17.91 676.57,-20.61 686.27,-24.89 686.82,-17.91"/>
</g>
<!-- Node22&#45;&gt;Node14 -->
<g id="edge35" class="edge">
<title>Node22&#45;&gt;Node14</title>
<path fill="none" stroke="midnightblue" d="M966.87,-192.05C1061.49,-173.62 1221.49,-135.92 1252.5,-87 1257.26,-79.49 1258.28,-73.75 1252.5,-67 1222.98,-32.5 1104.19,-21.4 1019.25,-17.93"/>
<polygon fill="midnightblue" stroke="midnightblue" points="1019.19,-14.42 1009.07,-17.54 1018.93,-21.42 1019.19,-14.42"/>
</g>
<!-- Node22&#45;&gt;Node17 -->
<g id="edge36" class="edge">
<title>Node22&#45;&gt;Node17</title>
<path fill="none" stroke="midnightblue" d="M896.5,-190.4C896.5,-182.64 896.5,-172.81 896.5,-163.86"/>
<polygon fill="midnightblue" stroke="midnightblue" points="900,-163.58 896.5,-153.58 893,-163.58 900,-163.58"/>
</g>
<!-- Node22&#45;&gt;Node18 -->
<g id="edge32" class="edge">
<title>Node22&#45;&gt;Node18</title>
<path fill="none" stroke="midnightblue" d="M966.73,-195.75C1017.08,-187.86 1078.69,-174.34 1094.5,-154 1102.95,-143.12 1100.45,-135.42 1094.5,-123 1088.25,-109.95 1076.16,-99.49 1064.82,-91.95"/>
<polygon fill="midnightblue" stroke="midnightblue" points="1066.35,-88.79 1056,-86.54 1062.69,-94.75 1066.35,-88.79"/>
</g>
<!-- Node22&#45;&gt;Node21 -->
<g id="edge34" class="edge">
<title>Node22&#45;&gt;Node21</title>
<path fill="none" stroke="midnightblue" d="M850.95,-190.4C821.65,-180.96 782.94,-167.77 749.5,-154 747.92,-153.35 746.3,-152.65 744.68,-151.94"/>
<polygon fill="midnightblue" stroke="midnightblue" points="746.08,-148.73 735.53,-147.68 743.13,-155.07 746.08,-148.73"/>
</g>
<!-- Node23 -->
<g id="node23" class="node">
<title>Node23</title>
<g id="a_node23"><a xlink:href="types_8hpp.html" target="_top" xlink:title=" ">
<polygon fill="white" stroke="black" points="1020,-129 1020,-148 1085,-148 1085,-129 1020,-129"/>
<text text-anchor="middle" x="1052.5" y="-136" font-family="Helvetica,sans-Serif" font-size="10.00">types.hpp</text>
</a>
</g>
</g>
<!-- Node22&#45;&gt;Node23 -->
<g id="edge37" class="edge">
<title>Node22&#45;&gt;Node23</title>
<path fill="none" stroke="midnightblue" d="M930.35,-190.4C957.84,-178.94 996.25,-162.94 1022.61,-151.95"/>
<polygon fill="midnightblue" stroke="midnightblue" points="1024.2,-155.08 1032.08,-148.01 1021.51,-148.62 1024.2,-155.08"/>
</g>
<!-- Node23&#45;&gt;Node4 -->
<g id="edge39" class="edge">
<title>Node23&#45;&gt;Node4</title>
<path fill="none" stroke="midnightblue" d="M1019.83,-131.45C1005.34,-128.8 988.08,-125.69 972.5,-123 889,-108.58 790.98,-92.74 737.75,-84.24"/>
<polygon fill="midnightblue" stroke="midnightblue" points="738.15,-80.76 727.72,-82.64 737.05,-87.67 738.15,-80.76"/>
</g>
<!-- Node23&#45;&gt;Node14 -->
<g id="edge41" class="edge">
<title>Node23&#45;&gt;Node14</title>
<path fill="none" stroke="midnightblue" d="M1058.05,-128.84C1066.37,-114.63 1079.77,-86.04 1066.5,-67 1052.74,-47.26 1030.34,-35.21 1007.61,-27.87"/>
<polygon fill="midnightblue" stroke="midnightblue" points="1008.45,-24.47 997.87,-25.01 1006.47,-31.19 1008.45,-24.47"/>
</g>
<!-- Node23&#45;&gt;Node18 -->
<g id="edge38" class="edge">
<title>Node23&#45;&gt;Node18</title>
<path fill="none" stroke="midnightblue" d="M1050.49,-128.98C1048.5,-120.49 1045.37,-107.2 1042.81,-96.32"/>
<polygon fill="midnightblue" stroke="midnightblue" points="1046.2,-95.44 1040.5,-86.51 1039.39,-97.04 1046.2,-95.44"/>
</g>
<!-- Node23&#45;&gt;Node19 -->
<g id="edge40" class="edge">
<title>Node23&#45;&gt;Node19</title>
<path fill="none" stroke="midnightblue" d="M1029.58,-128.98C1002.13,-118.77 955.98,-101.61 924.9,-90.05"/>
<polygon fill="midnightblue" stroke="midnightblue" points="925.97,-86.71 915.38,-86.51 923.53,-93.28 925.97,-86.71"/>
</g>
<!-- Node24 -->
<g id="node24" class="node">
<title>Node24</title>
<g id="a_node24"><a xlink:title=" ">
<polygon fill="white" stroke="#bfbfbf" points="1113.5,-67.5 1113.5,-86.5 1243.5,-86.5 1243.5,-67.5 1113.5,-67.5"/>
<text text-anchor="middle" x="1178.5" y="-74.5" font-family="Helvetica,sans-Serif" font-size="10.00">vsomeip/constants.hpp</text>
</a>
</g>
</g>
<!-- Node23&#45;&gt;Node24 -->
<g id="edge42" class="edge">
<title>Node23&#45;&gt;Node24</title>
<path fill="none" stroke="midnightblue" d="M1070.55,-128.98C1091.7,-118.99 1126.94,-102.35 1151.38,-90.81"/>
<polygon fill="midnightblue" stroke="midnightblue" points="1152.93,-93.94 1160.48,-86.51 1149.94,-87.61 1152.93,-93.94"/>
</g>
</g>
</svg>
