<?xml version="1.0" encoding="UTF-8" standalone="no"?>
<!DOCTYPE svg PUBLIC "-//W3C//DTD SVG 1.1//EN"
 "http://www.w3.org/Graphics/SVG/1.1/DTD/svg11.dtd">
<!-- Generated by graphviz version 2.43.0 (0)
 -->
<!-- Title: /home/kali/projects/vsomeip/implementation/service_discovery/src/request.cpp Pages: 1 -->
<svg width="243pt" height="173pt"
 viewBox="0.00 0.00 242.50 173.00" xmlns="http://www.w3.org/2000/svg" xmlns:xlink="http://www.w3.org/1999/xlink">
<g id="graph0" class="graph" transform="scale(1 1) rotate(0) translate(4 169)">
<title>/home/kali/projects/vsomeip/implementation/service_discovery/src/request.cpp</title>
<polygon fill="white" stroke="transparent" points="-4,4 -4,-169 238.5,-169 238.5,4 -4,4"/>
<!-- Node1 -->
<g id="node1" class="node">
<title>Node1</title>
<g id="a_node1"><a xlink:title=" ">
<polygon fill="#bfbfbf" stroke="black" points="20.5,-112.5 20.5,-164.5 163.5,-164.5 163.5,-112.5 20.5,-112.5"/>
<text text-anchor="start" x="28.5" y="-152.5" font-family="Helvetica,sans-Serif" font-size="10.00">/home/kali/projects</text>
<text text-anchor="start" x="28.5" y="-141.5" font-family="Helvetica,sans-Serif" font-size="10.00">/vsomeip/implementation</text>
<text text-anchor="start" x="28.5" y="-130.5" font-family="Helvetica,sans-Serif" font-size="10.00">/service_discovery/src</text>
<text text-anchor="middle" x="92" y="-119.5" font-family="Helvetica,sans-Serif" font-size="10.00">/request.cpp</text>
</a>
</g>
</g>
<!-- Node2 -->
<g id="node2" class="node">
<title>Node2</title>
<g id="a_node2"><a xlink:href="request_8hpp.html" target="_top" xlink:title=" ">
<polygon fill="white" stroke="black" points="31,-56.5 31,-75.5 153,-75.5 153,-56.5 31,-56.5"/>
<text text-anchor="middle" x="92" y="-63.5" font-family="Helvetica,sans-Serif" font-size="10.00">../include/request.hpp</text>
</a>
</g>
</g>
<!-- Node1&#45;&gt;Node2 -->
<g id="edge1" class="edge">
<title>Node1&#45;&gt;Node2</title>
<path fill="none" stroke="midnightblue" d="M92,-112.45C92,-103.73 92,-94.1 92,-85.96"/>
<polygon fill="midnightblue" stroke="midnightblue" points="95.5,-85.7 92,-75.7 88.5,-85.7 95.5,-85.7"/>
</g>
<!-- Node3 -->
<g id="node3" class="node">
<title>Node3</title>
<g id="a_node3"><a xlink:title=" ">
<polygon fill="white" stroke="#bfbfbf" points="0,-0.5 0,-19.5 58,-19.5 58,-0.5 0,-0.5"/>
<text text-anchor="middle" x="29" y="-7.5" font-family="Helvetica,sans-Serif" font-size="10.00">memory</text>
</a>
</g>
</g>
<!-- Node2&#45;&gt;Node3 -->
<g id="edge2" class="edge">
<title>Node2&#45;&gt;Node3</title>
<path fill="none" stroke="midnightblue" d="M81.88,-56.32C72.47,-48.26 58.26,-36.08 46.93,-26.37"/>
<polygon fill="midnightblue" stroke="midnightblue" points="49.18,-23.68 39.31,-19.83 44.62,-29 49.18,-23.68"/>
</g>
<!-- Node4 -->
<g id="node4" class="node">
<title>Node4</title>
<g id="a_node4"><a xlink:title=" ">
<polygon fill="white" stroke="#bfbfbf" points="75.5,-0.5 75.5,-19.5 234.5,-19.5 234.5,-0.5 75.5,-0.5"/>
<text text-anchor="middle" x="155" y="-7.5" font-family="Helvetica,sans-Serif" font-size="10.00">vsomeip/primitive_types.hpp</text>
</a>
</g>
</g>
<!-- Node2&#45;&gt;Node4 -->
<g id="edge3" class="edge">
<title>Node2&#45;&gt;Node4</title>
<path fill="none" stroke="midnightblue" d="M102.12,-56.32C111.53,-48.26 125.74,-36.08 137.07,-26.37"/>
<polygon fill="midnightblue" stroke="midnightblue" points="139.38,-29 144.69,-19.83 134.82,-23.68 139.38,-29"/>
</g>
</g>
</svg>
