<?xml version="1.0" encoding="UTF-8" standalone="no"?>
<!DOCTYPE svg PUBLIC "-//W3C//DTD SVG 1.1//EN"
 "http://www.w3.org/Graphics/SVG/1.1/DTD/svg11.dtd">
<!-- Generated by graphviz version 2.43.0 (0)
 -->
<!-- Title: /home/kali/projects/vsomeip/implementation/routing/include/event.hpp Pages: 1 -->
<svg width="1379pt" height="173pt"
 viewBox="0.00 0.00 1378.50 173.00" xmlns="http://www.w3.org/2000/svg" xmlns:xlink="http://www.w3.org/1999/xlink">
<g id="graph0" class="graph" transform="scale(1 1) rotate(0) translate(4 169)">
<title>/home/kali/projects/vsomeip/implementation/routing/include/event.hpp</title>
<polygon fill="white" stroke="transparent" points="-4,4 -4,-169 1374.5,-169 1374.5,4 -4,4"/>
<!-- Node1 -->
<g id="node1" class="node">
<title>Node1</title>
<g id="a_node1"><a xlink:title=" ">
<polygon fill="#bfbfbf" stroke="black" points="364,-123.5 364,-164.5 508,-164.5 508,-123.5 364,-123.5"/>
<text text-anchor="start" x="372" y="-152.5" font-family="Helvetica,sans-Serif" font-size="10.00">/home/kali/projects</text>
<text text-anchor="start" x="372" y="-141.5" font-family="Helvetica,sans-Serif" font-size="10.00">/vsomeip/implementation</text>
<text text-anchor="middle" x="436" y="-130.5" font-family="Helvetica,sans-Serif" font-size="10.00">/routing/include/event.hpp</text>
</a>
</g>
</g>
<!-- Node2 -->
<g id="node2" class="node">
<title>Node2</title>
<g id="a_node2"><a xlink:title=" ">
<polygon fill="white" stroke="#bfbfbf" points="0,-62 0,-81 32,-81 32,-62 0,-62"/>
<text text-anchor="middle" x="16" y="-69" font-family="Helvetica,sans-Serif" font-size="10.00">list</text>
</a>
</g>
</g>
<!-- Node1&#45;&gt;Node2 -->
<g id="edge1" class="edge">
<title>Node1&#45;&gt;Node2</title>
<path fill="none" stroke="midnightblue" d="M363.79,-141.03C283.08,-136.95 149.49,-124.55 41,-87 39.93,-86.63 38.86,-86.21 37.79,-85.76"/>
<polygon fill="midnightblue" stroke="midnightblue" points="39.02,-82.46 28.52,-81.02 35.83,-88.69 39.02,-82.46"/>
</g>
<!-- Node3 -->
<g id="node3" class="node">
<title>Node3</title>
<g id="a_node3"><a xlink:title=" ">
<polygon fill="white" stroke="#bfbfbf" points="50,-62 50,-81 88,-81 88,-62 50,-62"/>
<text text-anchor="middle" x="69" y="-69" font-family="Helvetica,sans-Serif" font-size="10.00">map</text>
</a>
</g>
</g>
<!-- Node1&#45;&gt;Node3 -->
<g id="edge2" class="edge">
<title>Node1&#45;&gt;Node3</title>
<path fill="none" stroke="midnightblue" d="M363.99,-137.7C294.27,-131.04 186.3,-116.67 97,-87 95.57,-86.53 94.13,-85.99 92.69,-85.4"/>
<polygon fill="midnightblue" stroke="midnightblue" points="93.98,-82.14 83.44,-81.08 91.02,-88.48 93.98,-82.14"/>
</g>
<!-- Node4 -->
<g id="node4" class="node">
<title>Node4</title>
<g id="a_node4"><a xlink:title=" ">
<polygon fill="white" stroke="#bfbfbf" points="106,-62 106,-81 164,-81 164,-62 106,-62"/>
<text text-anchor="middle" x="135" y="-69" font-family="Helvetica,sans-Serif" font-size="10.00">memory</text>
</a>
</g>
</g>
<!-- Node1&#45;&gt;Node4 -->
<g id="edge3" class="edge">
<title>Node1&#45;&gt;Node4</title>
<path fill="none" stroke="midnightblue" d="M363.81,-130.75C310.54,-120.95 236.58,-105.78 173,-87 170.42,-86.24 167.77,-85.38 165.13,-84.48"/>
<polygon fill="midnightblue" stroke="midnightblue" points="166.3,-81.18 155.71,-81.07 163.92,-87.76 166.3,-81.18"/>
</g>
<!-- Node5 -->
<g id="node5" class="node">
<title>Node5</title>
<g id="a_node5"><a xlink:title=" ">
<polygon fill="white" stroke="#bfbfbf" points="182,-62 182,-81 230,-81 230,-62 182,-62"/>
<text text-anchor="middle" x="206" y="-69" font-family="Helvetica,sans-Serif" font-size="10.00">mutex</text>
</a>
</g>
</g>
<!-- Node1&#45;&gt;Node5 -->
<g id="edge4" class="edge">
<title>Node1&#45;&gt;Node5</title>
<path fill="none" stroke="midnightblue" d="M363.66,-124.98C326.09,-114.99 279.65,-101.63 239,-87 237.34,-86.4 235.65,-85.76 233.94,-85.09"/>
<polygon fill="midnightblue" stroke="midnightblue" points="234.9,-81.7 224.32,-81.08 232.2,-88.16 234.9,-81.7"/>
</g>
<!-- Node6 -->
<g id="node6" class="node">
<title>Node6</title>
<g id="a_node6"><a xlink:title=" ">
<polygon fill="white" stroke="#bfbfbf" points="248,-62 248,-81 280,-81 280,-62 248,-62"/>
<text text-anchor="middle" x="264" y="-69" font-family="Helvetica,sans-Serif" font-size="10.00">set</text>
</a>
</g>
</g>
<!-- Node1&#45;&gt;Node6 -->
<g id="edge5" class="edge">
<title>Node1&#45;&gt;Node6</title>
<path fill="none" stroke="midnightblue" d="M378.21,-123.43C350.74,-113.52 317.72,-100.69 289,-87 288.3,-86.67 287.6,-86.32 286.89,-85.97"/>
<polygon fill="midnightblue" stroke="midnightblue" points="288.26,-82.73 277.8,-81.04 284.92,-88.88 288.26,-82.73"/>
</g>
<!-- Node7 -->
<g id="node7" class="node">
<title>Node7</title>
<g id="a_node7"><a xlink:title=" ">
<polygon fill="white" stroke="#bfbfbf" points="298,-62 298,-81 348,-81 348,-62 298,-62"/>
<text text-anchor="middle" x="323" y="-69" font-family="Helvetica,sans-Serif" font-size="10.00">atomic</text>
</a>
</g>
</g>
<!-- Node1&#45;&gt;Node7 -->
<g id="edge6" class="edge">
<title>Node1&#45;&gt;Node7</title>
<path fill="none" stroke="midnightblue" d="M404.52,-123.36C385.79,-111.67 362.46,-97.12 345.56,-86.57"/>
<polygon fill="midnightblue" stroke="midnightblue" points="347.24,-83.5 336.9,-81.17 343.53,-89.44 347.24,-83.5"/>
</g>
<!-- Node8 -->
<g id="node8" class="node">
<title>Node8</title>
<g id="a_node8"><a xlink:title=" ">
<polygon fill="white" stroke="#bfbfbf" points="366,-62 366,-81 506,-81 506,-62 366,-62"/>
<text text-anchor="middle" x="436" y="-69" font-family="Helvetica,sans-Serif" font-size="10.00">boost/asio/io_service.hpp</text>
</a>
</g>
</g>
<!-- Node1&#45;&gt;Node8 -->
<g id="edge7" class="edge">
<title>Node1&#45;&gt;Node8</title>
<path fill="none" stroke="midnightblue" d="M436,-123.36C436,-113.3 436,-101.1 436,-91.18"/>
<polygon fill="midnightblue" stroke="midnightblue" points="439.5,-91.17 436,-81.17 432.5,-91.17 439.5,-91.17"/>
</g>
<!-- Node9 -->
<g id="node9" class="node">
<title>Node9</title>
<g id="a_node9"><a xlink:title=" ">
<polygon fill="white" stroke="#bfbfbf" points="524.5,-62 524.5,-81 665.5,-81 665.5,-62 524.5,-62"/>
<text text-anchor="middle" x="595" y="-69" font-family="Helvetica,sans-Serif" font-size="10.00">boost/asio/ip/address.hpp</text>
</a>
</g>
</g>
<!-- Node1&#45;&gt;Node9 -->
<g id="edge8" class="edge">
<title>Node1&#45;&gt;Node9</title>
<path fill="none" stroke="midnightblue" d="M480.29,-123.36C507.75,-111.19 542.23,-95.9 566.18,-85.28"/>
<polygon fill="midnightblue" stroke="midnightblue" points="567.72,-88.43 575.44,-81.17 564.88,-82.03 567.72,-88.43"/>
</g>
<!-- Node10 -->
<g id="node10" class="node">
<title>Node10</title>
<g id="a_node10"><a xlink:title=" ">
<polygon fill="white" stroke="#bfbfbf" points="683.5,-62 683.5,-81 838.5,-81 838.5,-62 683.5,-62"/>
<text text-anchor="middle" x="761" y="-69" font-family="Helvetica,sans-Serif" font-size="10.00">boost/asio/steady_timer.hpp</text>
</a>
</g>
</g>
<!-- Node1&#45;&gt;Node10 -->
<g id="edge9" class="edge">
<title>Node1&#45;&gt;Node10</title>
<path fill="none" stroke="midnightblue" d="M508.13,-127.35C569.97,-113.94 657.41,-94.97 711.59,-83.22"/>
<polygon fill="midnightblue" stroke="midnightblue" points="712.6,-86.58 721.64,-81.04 711.12,-79.74 712.6,-86.58"/>
</g>
<!-- Node11 -->
<g id="node11" class="node">
<title>Node11</title>
<g id="a_node11"><a xlink:title=" ">
<polygon fill="white" stroke="#bfbfbf" points="894.5,-0.5 894.5,-19.5 1053.5,-19.5 1053.5,-0.5 894.5,-0.5"/>
<text text-anchor="middle" x="974" y="-7.5" font-family="Helvetica,sans-Serif" font-size="10.00">vsomeip/primitive_types.hpp</text>
</a>
</g>
</g>
<!-- Node1&#45;&gt;Node11 -->
<g id="edge10" class="edge">
<title>Node1&#45;&gt;Node11</title>
<path fill="none" stroke="midnightblue" d="M508.25,-137.79C609.41,-129.7 787.56,-112.38 847,-87 867.36,-78.31 867.38,-67.99 886,-56 904.99,-43.77 927.71,-32.22 945.32,-23.88"/>
<polygon fill="midnightblue" stroke="midnightblue" points="946.92,-27 954.51,-19.6 943.97,-20.65 946.92,-27"/>
</g>
<!-- Node12 -->
<g id="node12" class="node">
<title>Node12</title>
<g id="a_node12"><a xlink:title=" ">
<polygon fill="white" stroke="#bfbfbf" points="895.5,-62 895.5,-81 1050.5,-81 1050.5,-62 895.5,-62"/>
<text text-anchor="middle" x="973" y="-69" font-family="Helvetica,sans-Serif" font-size="10.00">vsomeip/function_types.hpp</text>
</a>
</g>
</g>
<!-- Node1&#45;&gt;Node12 -->
<g id="edge11" class="edge">
<title>Node1&#45;&gt;Node12</title>
<path fill="none" stroke="midnightblue" d="M508.16,-134.62C596.26,-124.23 749.74,-105.6 881,-87 890.51,-85.65 900.55,-84.15 910.37,-82.64"/>
<polygon fill="midnightblue" stroke="midnightblue" points="911.16,-86.06 920.5,-81.06 910.08,-79.14 911.16,-86.06"/>
</g>
<!-- Node13 -->
<g id="node13" class="node">
<title>Node13</title>
<g id="a_node13"><a xlink:title=" ">
<polygon fill="white" stroke="#bfbfbf" points="1069,-62 1069,-81 1191,-81 1191,-62 1069,-62"/>
<text text-anchor="middle" x="1130" y="-69" font-family="Helvetica,sans-Serif" font-size="10.00">vsomeip/payload.hpp</text>
</a>
</g>
</g>
<!-- Node1&#45;&gt;Node13 -->
<g id="edge12" class="edge">
<title>Node1&#45;&gt;Node13</title>
<path fill="none" stroke="midnightblue" d="M508.26,-139.14C624.67,-132.32 860.76,-116.06 1059,-87 1066.53,-85.9 1074.47,-84.5 1082.19,-83.02"/>
<polygon fill="midnightblue" stroke="midnightblue" points="1083.06,-86.42 1092.19,-81.04 1081.7,-79.55 1083.06,-86.42"/>
</g>
<!-- Node14 -->
<g id="node14" class="node">
<title>Node14</title>
<g id="a_node14"><a xlink:href="internal_8hpp.html" target="_top" xlink:title=" ">
<polygon fill="white" stroke="black" points="1209,-56.5 1209,-86.5 1325,-86.5 1325,-56.5 1209,-56.5"/>
<text text-anchor="start" x="1217" y="-74.5" font-family="Helvetica,sans-Serif" font-size="10.00">../../configuration</text>
<text text-anchor="middle" x="1267" y="-63.5" font-family="Helvetica,sans-Serif" font-size="10.00">/include/internal.hpp</text>
</a>
</g>
</g>
<!-- Node1&#45;&gt;Node14 -->
<g id="edge13" class="edge">
<title>Node1&#45;&gt;Node14</title>
<path fill="none" stroke="midnightblue" d="M508.25,-141.07C642.55,-136.75 939.76,-123.74 1199,-87"/>
<polygon fill="midnightblue" stroke="midnightblue" points="1199.58,-90.46 1208.99,-85.58 1198.59,-83.53 1199.58,-90.46"/>
</g>
<!-- Node14&#45;&gt;Node11 -->
<g id="edge16" class="edge">
<title>Node14&#45;&gt;Node11</title>
<path fill="none" stroke="midnightblue" d="M1208.91,-57.87C1205.9,-57.23 1202.91,-56.61 1200,-56 1141.37,-43.82 1074.04,-30.5 1028.23,-21.54"/>
<polygon fill="midnightblue" stroke="midnightblue" points="1028.7,-18.06 1018.22,-19.58 1027.36,-24.93 1028.7,-18.06"/>
</g>
<!-- Node15 -->
<g id="node15" class="node">
<title>Node15</title>
<g id="a_node15"><a xlink:title=" ">
<polygon fill="white" stroke="#bfbfbf" points="1177,-0.5 1177,-19.5 1227,-19.5 1227,-0.5 1177,-0.5"/>
<text text-anchor="middle" x="1202" y="-7.5" font-family="Helvetica,sans-Serif" font-size="10.00">cstdint</text>
</a>
</g>
</g>
<!-- Node14&#45;&gt;Node15 -->
<g id="edge14" class="edge">
<title>Node14&#45;&gt;Node15</title>
<path fill="none" stroke="midnightblue" d="M1251.6,-56.4C1241.76,-47.4 1229.01,-35.72 1218.89,-26.47"/>
<polygon fill="midnightblue" stroke="midnightblue" points="1221.2,-23.83 1211.46,-19.66 1216.47,-28.99 1221.2,-23.83"/>
</g>
<!-- Node16 -->
<g id="node16" class="node">
<title>Node16</title>
<g id="a_node16"><a xlink:title=" ">
<polygon fill="white" stroke="#bfbfbf" points="1245,-0.5 1245,-19.5 1289,-19.5 1289,-0.5 1245,-0.5"/>
<text text-anchor="middle" x="1267" y="-7.5" font-family="Helvetica,sans-Serif" font-size="10.00">limits</text>
</a>
</g>
</g>
<!-- Node14&#45;&gt;Node16 -->
<g id="edge15" class="edge">
<title>Node14&#45;&gt;Node16</title>
<path fill="none" stroke="midnightblue" d="M1267,-56.4C1267,-48.47 1267,-38.46 1267,-29.86"/>
<polygon fill="midnightblue" stroke="midnightblue" points="1270.5,-29.66 1267,-19.66 1263.5,-29.66 1270.5,-29.66"/>
</g>
<!-- Node17 -->
<g id="node17" class="node">
<title>Node17</title>
<g id="a_node17"><a xlink:title=" ">
<polygon fill="white" stroke="#bfbfbf" points="1307.5,-0.5 1307.5,-19.5 1370.5,-19.5 1370.5,-0.5 1307.5,-0.5"/>
<text text-anchor="middle" x="1339" y="-7.5" font-family="Helvetica,sans-Serif" font-size="10.00">pthread.h</text>
</a>
</g>
</g>
<!-- Node14&#45;&gt;Node17 -->
<g id="edge17" class="edge">
<title>Node14&#45;&gt;Node17</title>
<path fill="none" stroke="midnightblue" d="M1284.06,-56.4C1295.06,-47.31 1309.37,-35.49 1320.62,-26.19"/>
<polygon fill="midnightblue" stroke="midnightblue" points="1323.04,-28.73 1328.52,-19.66 1318.59,-23.33 1323.04,-28.73"/>
</g>
</g>
</svg>
