<?xml version="1.0" encoding="UTF-8" standalone="no"?>
<!DOCTYPE svg PUBLIC "-//W3C//DTD SVG 1.1//EN"
 "http://www.w3.org/Graphics/SVG/1.1/DTD/svg11.dtd">
<!-- Generated by graphviz version 2.43.0 (0)
 -->
<!-- Title: /home/kali/projects/vsomeip/implementation/routing/include/event.hpp Pages: 1 -->
<svg width="1297pt" height="317pt"
 viewBox="0.00 0.00 1297.00 317.00" xmlns="http://www.w3.org/2000/svg" xmlns:xlink="http://www.w3.org/1999/xlink">
<g id="graph0" class="graph" transform="scale(1 1) rotate(0) translate(4 313)">
<title>/home/kali/projects/vsomeip/implementation/routing/include/event.hpp</title>
<polygon fill="white" stroke="transparent" points="-4,4 -4,-313 1293,-313 1293,4 -4,4"/>
<!-- Node1 -->
<g id="node1" class="node">
<title>Node1</title>
<g id="a_node1"><a xlink:title=" ">
<polygon fill="#bfbfbf" stroke="black" points="685.5,-267.5 685.5,-308.5 829.5,-308.5 829.5,-267.5 685.5,-267.5"/>
<text text-anchor="start" x="693.5" y="-296.5" font-family="Helvetica,sans-Serif" font-size="10.00">/home/kali/projects</text>
<text text-anchor="start" x="693.5" y="-285.5" font-family="Helvetica,sans-Serif" font-size="10.00">/vsomeip/implementation</text>
<text text-anchor="middle" x="757.5" y="-274.5" font-family="Helvetica,sans-Serif" font-size="10.00">/routing/include/event.hpp</text>
</a>
</g>
</g>
<!-- Node2 -->
<g id="node2" class="node">
<title>Node2</title>
<g id="a_node2"><a xlink:href="configuration__impl_8cpp.html" target="_top" xlink:title=" ">
<polygon fill="white" stroke="black" points="187,-178.5 187,-230.5 354,-230.5 354,-178.5 187,-178.5"/>
<text text-anchor="start" x="195" y="-218.5" font-family="Helvetica,sans-Serif" font-size="10.00">/home/kali/projects</text>
<text text-anchor="start" x="195" y="-207.5" font-family="Helvetica,sans-Serif" font-size="10.00">/vsomeip/implementation</text>
<text text-anchor="start" x="195" y="-196.5" font-family="Helvetica,sans-Serif" font-size="10.00">/configuration/src/configuration</text>
<text text-anchor="middle" x="270.5" y="-185.5" font-family="Helvetica,sans-Serif" font-size="10.00">_impl.cpp</text>
</a>
</g>
</g>
<!-- Node1&#45;&gt;Node2 -->
<g id="edge1" class="edge">
<title>Node1&#45;&gt;Node2</title>
<path fill="none" stroke="midnightblue" d="M675.25,-278.48C594.97,-269.44 469.62,-253.34 362.5,-231 359.74,-230.42 356.94,-229.81 354.12,-229.17"/>
<polygon fill="midnightblue" stroke="midnightblue" points="674.97,-281.98 685.3,-279.61 675.75,-275.02 674.97,-281.98"/>
</g>
<!-- Node3 -->
<g id="node3" class="node">
<title>Node3</title>
<g id="a_node3"><a xlink:href="routing__manager__base_8hpp.html" target="_top" xlink:title=" ">
<polygon fill="white" stroke="black" points="372,-178.5 372,-230.5 515,-230.5 515,-178.5 372,-178.5"/>
<text text-anchor="start" x="380" y="-218.5" font-family="Helvetica,sans-Serif" font-size="10.00">/home/kali/projects</text>
<text text-anchor="start" x="380" y="-207.5" font-family="Helvetica,sans-Serif" font-size="10.00">/vsomeip/implementation</text>
<text text-anchor="start" x="380" y="-196.5" font-family="Helvetica,sans-Serif" font-size="10.00">/routing/include/routing</text>
<text text-anchor="middle" x="443.5" y="-185.5" font-family="Helvetica,sans-Serif" font-size="10.00">_manager_base.hpp</text>
</a>
</g>
</g>
<!-- Node1&#45;&gt;Node3 -->
<g id="edge2" class="edge">
<title>Node1&#45;&gt;Node3</title>
<path fill="none" stroke="midnightblue" d="M675.7,-265.77C625.94,-252.85 563,-236.52 515.2,-224.11"/>
<polygon fill="midnightblue" stroke="midnightblue" points="674.9,-269.18 685.46,-268.3 676.66,-262.4 674.9,-269.18"/>
</g>
<!-- Node7 -->
<g id="node7" class="node">
<title>Node7</title>
<g id="a_node7"><a xlink:href="routing__manager__impl_8cpp.html" target="_top" xlink:title=" ">
<polygon fill="white" stroke="black" points="457.5,-0.5 457.5,-52.5 615.5,-52.5 615.5,-0.5 457.5,-0.5"/>
<text text-anchor="start" x="465.5" y="-40.5" font-family="Helvetica,sans-Serif" font-size="10.00">/home/kali/projects</text>
<text text-anchor="start" x="465.5" y="-29.5" font-family="Helvetica,sans-Serif" font-size="10.00">/vsomeip/implementation</text>
<text text-anchor="start" x="465.5" y="-18.5" font-family="Helvetica,sans-Serif" font-size="10.00">/routing/src/routing_manager</text>
<text text-anchor="middle" x="536.5" y="-7.5" font-family="Helvetica,sans-Serif" font-size="10.00">_impl.cpp</text>
</a>
</g>
</g>
<!-- Node1&#45;&gt;Node7 -->
<g id="edge15" class="edge">
<title>Node1&#45;&gt;Node7</title>
<path fill="none" stroke="midnightblue" d="M750.56,-257.49C738.08,-205.43 712.09,-101.53 700.5,-89 688.11,-75.6 651.31,-61.25 615.69,-49.79"/>
<polygon fill="midnightblue" stroke="midnightblue" points="747.21,-258.55 752.93,-267.47 754.02,-256.93 747.21,-258.55"/>
</g>
<!-- Node10 -->
<g id="node10" class="node">
<title>Node10</title>
<g id="a_node10"><a xlink:href="routing__manager__proxy_8cpp.html" target="_top" xlink:title=" ">
<polygon fill="white" stroke="black" points="655.5,-0.5 655.5,-52.5 813.5,-52.5 813.5,-0.5 655.5,-0.5"/>
<text text-anchor="start" x="663.5" y="-40.5" font-family="Helvetica,sans-Serif" font-size="10.00">/home/kali/projects</text>
<text text-anchor="start" x="663.5" y="-29.5" font-family="Helvetica,sans-Serif" font-size="10.00">/vsomeip/implementation</text>
<text text-anchor="start" x="663.5" y="-18.5" font-family="Helvetica,sans-Serif" font-size="10.00">/routing/src/routing_manager</text>
<text text-anchor="middle" x="734.5" y="-7.5" font-family="Helvetica,sans-Serif" font-size="10.00">_proxy.cpp</text>
</a>
</g>
</g>
<!-- Node1&#45;&gt;Node10 -->
<g id="edge16" class="edge">
<title>Node1&#45;&gt;Node10</title>
<path fill="none" stroke="midnightblue" d="M754.87,-257.38C750.32,-205.97 741.03,-101.13 736.75,-52.86"/>
<polygon fill="midnightblue" stroke="midnightblue" points="751.4,-257.84 755.77,-267.5 758.37,-257.23 751.4,-257.84"/>
</g>
<!-- Node12 -->
<g id="node12" class="node">
<title>Node12</title>
<g id="a_node12"><a xlink:href="event_8cpp.html" target="_top" xlink:title=" ">
<polygon fill="white" stroke="black" points="786,-184 786,-225 929,-225 929,-184 786,-184"/>
<text text-anchor="start" x="794" y="-213" font-family="Helvetica,sans-Serif" font-size="10.00">/home/kali/projects</text>
<text text-anchor="start" x="794" y="-202" font-family="Helvetica,sans-Serif" font-size="10.00">/vsomeip/implementation</text>
<text text-anchor="middle" x="857.5" y="-191" font-family="Helvetica,sans-Serif" font-size="10.00">/routing/src/event.cpp</text>
</a>
</g>
</g>
<!-- Node1&#45;&gt;Node12 -->
<g id="edge13" class="edge">
<title>Node1&#45;&gt;Node12</title>
<path fill="none" stroke="midnightblue" d="M789.53,-260.89C803.76,-249.3 820.23,-235.87 833.4,-225.14"/>
<polygon fill="midnightblue" stroke="midnightblue" points="786.99,-258.45 781.45,-267.48 791.42,-263.87 786.99,-258.45"/>
</g>
<!-- Node13 -->
<g id="node13" class="node">
<title>Node13</title>
<g id="a_node13"><a xlink:href="eventgroupinfo_8cpp.html" target="_top" xlink:title=" ">
<polygon fill="white" stroke="black" points="947,-184 947,-225 1116,-225 1116,-184 947,-184"/>
<text text-anchor="start" x="955" y="-213" font-family="Helvetica,sans-Serif" font-size="10.00">/home/kali/projects</text>
<text text-anchor="start" x="955" y="-202" font-family="Helvetica,sans-Serif" font-size="10.00">/vsomeip/implementation</text>
<text text-anchor="middle" x="1031.5" y="-191" font-family="Helvetica,sans-Serif" font-size="10.00">/routing/src/eventgroupinfo.cpp</text>
</a>
</g>
</g>
<!-- Node1&#45;&gt;Node13 -->
<g id="edge14" class="edge">
<title>Node1&#45;&gt;Node13</title>
<path fill="none" stroke="midnightblue" d="M832.96,-264.55C874.65,-252.16 925.93,-236.9 965.93,-225"/>
<polygon fill="midnightblue" stroke="midnightblue" points="831.72,-261.27 823.13,-267.48 833.71,-267.98 831.72,-261.27"/>
</g>
<!-- Node14 -->
<g id="node14" class="node">
<title>Node14</title>
<g id="a_node14"><a xlink:href="service__discovery__impl_8cpp.html" target="_top" xlink:title=" ">
<polygon fill="white" stroke="black" points="1134,-178.5 1134,-230.5 1289,-230.5 1289,-178.5 1134,-178.5"/>
<text text-anchor="start" x="1142" y="-218.5" font-family="Helvetica,sans-Serif" font-size="10.00">/home/kali/projects</text>
<text text-anchor="start" x="1142" y="-207.5" font-family="Helvetica,sans-Serif" font-size="10.00">/vsomeip/implementation</text>
<text text-anchor="start" x="1142" y="-196.5" font-family="Helvetica,sans-Serif" font-size="10.00">/service_discovery/src</text>
<text text-anchor="middle" x="1211.5" y="-185.5" font-family="Helvetica,sans-Serif" font-size="10.00">/service_discovery_impl.cpp</text>
</a>
</g>
</g>
<!-- Node1&#45;&gt;Node14 -->
<g id="edge17" class="edge">
<title>Node1&#45;&gt;Node14</title>
<path fill="none" stroke="midnightblue" d="M840.05,-277.61C914.81,-268.34 1027.74,-252.46 1124.5,-231 1127.57,-230.32 1130.7,-229.59 1133.85,-228.82"/>
<polygon fill="midnightblue" stroke="midnightblue" points="839.26,-274.18 829.76,-278.87 840.11,-281.13 839.26,-274.18"/>
</g>
<!-- Node4 -->
<g id="node4" class="node">
<title>Node4</title>
<g id="a_node4"><a xlink:href="endpoint__manager__base_8cpp.html" target="_top" xlink:title=" ">
<polygon fill="white" stroke="black" points="211,-89.5 211,-141.5 354,-141.5 354,-89.5 211,-89.5"/>
<text text-anchor="start" x="219" y="-129.5" font-family="Helvetica,sans-Serif" font-size="10.00">/home/kali/projects</text>
<text text-anchor="start" x="219" y="-118.5" font-family="Helvetica,sans-Serif" font-size="10.00">/vsomeip/implementation</text>
<text text-anchor="start" x="219" y="-107.5" font-family="Helvetica,sans-Serif" font-size="10.00">/endpoints/src/endpoint</text>
<text text-anchor="middle" x="282.5" y="-96.5" font-family="Helvetica,sans-Serif" font-size="10.00">_manager_base.cpp</text>
</a>
</g>
</g>
<!-- Node3&#45;&gt;Node4 -->
<g id="edge3" class="edge">
<title>Node3&#45;&gt;Node4</title>
<path fill="none" stroke="midnightblue" d="M387.97,-173.49C368.74,-163.1 347.39,-151.57 328.96,-141.61"/>
<polygon fill="midnightblue" stroke="midnightblue" points="386.47,-176.66 396.93,-178.34 389.8,-170.5 386.47,-176.66"/>
</g>
<!-- Node5 -->
<g id="node5" class="node">
<title>Node5</title>
<g id="a_node5"><a xlink:href="endpoint__manager__impl_8cpp.html" target="_top" xlink:title=" ">
<polygon fill="white" stroke="black" points="0,-0.5 0,-52.5 143,-52.5 143,-0.5 0,-0.5"/>
<text text-anchor="start" x="8" y="-40.5" font-family="Helvetica,sans-Serif" font-size="10.00">/home/kali/projects</text>
<text text-anchor="start" x="8" y="-29.5" font-family="Helvetica,sans-Serif" font-size="10.00">/vsomeip/implementation</text>
<text text-anchor="start" x="8" y="-18.5" font-family="Helvetica,sans-Serif" font-size="10.00">/endpoints/src/endpoint</text>
<text text-anchor="middle" x="71.5" y="-7.5" font-family="Helvetica,sans-Serif" font-size="10.00">_manager_impl.cpp</text>
</a>
</g>
</g>
<!-- Node3&#45;&gt;Node5 -->
<g id="edge4" class="edge">
<title>Node3&#45;&gt;Node5</title>
<path fill="none" stroke="midnightblue" d="M361.82,-178.33C276.39,-165.53 86.63,-193.57 40.5,-142 18.4,-117.29 36.36,-78.37 52.73,-52.89"/>
<polygon fill="midnightblue" stroke="midnightblue" points="361.24,-181.78 371.7,-180.1 362.48,-174.89 361.24,-181.78"/>
</g>
<!-- Node6 -->
<g id="node6" class="node">
<title>Node6</title>
<g id="a_node6"><a xlink:href="routing__manager__impl_8hpp.html" target="_top" xlink:title=" ">
<polygon fill="white" stroke="black" points="50,-89.5 50,-141.5 193,-141.5 193,-89.5 50,-89.5"/>
<text text-anchor="start" x="58" y="-129.5" font-family="Helvetica,sans-Serif" font-size="10.00">/home/kali/projects</text>
<text text-anchor="start" x="58" y="-118.5" font-family="Helvetica,sans-Serif" font-size="10.00">/vsomeip/implementation</text>
<text text-anchor="start" x="58" y="-107.5" font-family="Helvetica,sans-Serif" font-size="10.00">/routing/include/routing</text>
<text text-anchor="middle" x="121.5" y="-96.5" font-family="Helvetica,sans-Serif" font-size="10.00">_manager_impl.hpp</text>
</a>
</g>
</g>
<!-- Node3&#45;&gt;Node6 -->
<g id="edge5" class="edge">
<title>Node3&#45;&gt;Node6</title>
<path fill="none" stroke="midnightblue" d="M361.63,-177.87C289.93,-159.12 269.24,-160.33 201.5,-142 198.83,-141.28 196.11,-140.52 193.37,-139.74"/>
<polygon fill="midnightblue" stroke="midnightblue" points="361.04,-181.33 371.6,-180.52 362.84,-174.57 361.04,-181.33"/>
</g>
<!-- Node9 -->
<g id="node9" class="node">
<title>Node9</title>
<g id="a_node9"><a xlink:href="routing__manager__proxy_8hpp.html" target="_top" xlink:title=" ">
<polygon fill="white" stroke="black" points="372,-89.5 372,-141.5 515,-141.5 515,-89.5 372,-89.5"/>
<text text-anchor="start" x="380" y="-129.5" font-family="Helvetica,sans-Serif" font-size="10.00">/home/kali/projects</text>
<text text-anchor="start" x="380" y="-118.5" font-family="Helvetica,sans-Serif" font-size="10.00">/vsomeip/implementation</text>
<text text-anchor="start" x="380" y="-107.5" font-family="Helvetica,sans-Serif" font-size="10.00">/routing/include/routing</text>
<text text-anchor="middle" x="443.5" y="-96.5" font-family="Helvetica,sans-Serif" font-size="10.00">_manager_proxy.hpp</text>
</a>
</g>
</g>
<!-- Node3&#45;&gt;Node9 -->
<g id="edge9" class="edge">
<title>Node3&#45;&gt;Node9</title>
<path fill="none" stroke="midnightblue" d="M443.5,-168.19C443.5,-159.28 443.5,-149.9 443.5,-141.61"/>
<polygon fill="midnightblue" stroke="midnightblue" points="440,-168.34 443.5,-178.34 447,-168.34 440,-168.34"/>
</g>
<!-- Node11 -->
<g id="node11" class="node">
<title>Node11</title>
<g id="a_node11"><a xlink:href="routing__manager__base_8cpp.html" target="_top" xlink:title=" ">
<polygon fill="white" stroke="black" points="533.5,-89.5 533.5,-141.5 691.5,-141.5 691.5,-89.5 533.5,-89.5"/>
<text text-anchor="start" x="541.5" y="-129.5" font-family="Helvetica,sans-Serif" font-size="10.00">/home/kali/projects</text>
<text text-anchor="start" x="541.5" y="-118.5" font-family="Helvetica,sans-Serif" font-size="10.00">/vsomeip/implementation</text>
<text text-anchor="start" x="541.5" y="-107.5" font-family="Helvetica,sans-Serif" font-size="10.00">/routing/src/routing_manager</text>
<text text-anchor="middle" x="612.5" y="-96.5" font-family="Helvetica,sans-Serif" font-size="10.00">_base.cpp</text>
</a>
</g>
</g>
<!-- Node3&#45;&gt;Node11 -->
<g id="edge12" class="edge">
<title>Node3&#45;&gt;Node11</title>
<path fill="none" stroke="midnightblue" d="M501.51,-173.64C521.77,-163.2 544.3,-151.61 563.73,-141.61"/>
<polygon fill="midnightblue" stroke="midnightblue" points="499.67,-170.65 492.38,-178.34 502.87,-176.87 499.67,-170.65"/>
</g>
<!-- Node6&#45;&gt;Node5 -->
<g id="edge6" class="edge">
<title>Node6&#45;&gt;Node5</title>
<path fill="none" stroke="midnightblue" d="M102.04,-80.64C96.68,-71.31 90.95,-61.35 85.93,-52.61"/>
<polygon fill="midnightblue" stroke="midnightblue" points="99.02,-82.41 107.04,-89.34 105.09,-78.92 99.02,-82.41"/>
</g>
<!-- Node6&#45;&gt;Node7 -->
<g id="edge7" class="edge">
<title>Node6&#45;&gt;Node7</title>
<path fill="none" stroke="midnightblue" d="M203.22,-88.68C291.34,-67.31 316.39,-68.9 402.5,-53 420.2,-49.73 439.2,-46.16 457.17,-42.74"/>
<polygon fill="midnightblue" stroke="midnightblue" points="202.21,-85.33 193.33,-91.11 203.88,-92.13 202.21,-85.33"/>
</g>
<!-- Node8 -->
<g id="node8" class="node">
<title>Node8</title>
<g id="a_node8"><a xlink:href="runtime_2src_2application__impl_8cpp.html" target="_top" xlink:title=" ">
<polygon fill="white" stroke="black" points="251,-0.5 251,-52.5 394,-52.5 394,-0.5 251,-0.5"/>
<text text-anchor="start" x="259" y="-40.5" font-family="Helvetica,sans-Serif" font-size="10.00">/home/kali/projects</text>
<text text-anchor="start" x="259" y="-29.5" font-family="Helvetica,sans-Serif" font-size="10.00">/vsomeip/implementation</text>
<text text-anchor="start" x="259" y="-18.5" font-family="Helvetica,sans-Serif" font-size="10.00">/runtime/src/application</text>
<text text-anchor="middle" x="322.5" y="-7.5" font-family="Helvetica,sans-Serif" font-size="10.00">_impl.cpp</text>
</a>
</g>
</g>
<!-- Node6&#45;&gt;Node8 -->
<g id="edge8" class="edge">
<title>Node6&#45;&gt;Node8</title>
<path fill="none" stroke="midnightblue" d="M188.65,-85.44C213.29,-74.77 240.94,-62.8 264.69,-52.52"/>
<polygon fill="midnightblue" stroke="midnightblue" points="187.15,-82.27 179.37,-89.45 189.94,-88.69 187.15,-82.27"/>
</g>
<!-- Node9&#45;&gt;Node8 -->
<g id="edge11" class="edge">
<title>Node9&#45;&gt;Node8</title>
<path fill="none" stroke="midnightblue" d="M399.99,-83.22C386.01,-73.16 370.71,-62.16 357.42,-52.61"/>
<polygon fill="midnightblue" stroke="midnightblue" points="398.34,-86.34 408.5,-89.34 402.43,-80.66 398.34,-86.34"/>
</g>
<!-- Node9&#45;&gt;Node10 -->
<g id="edge10" class="edge">
<title>Node9&#45;&gt;Node10</title>
<path fill="none" stroke="midnightblue" d="M524.83,-88.92C573.56,-74.16 618.23,-61.05 655.11,-50.34"/>
<polygon fill="midnightblue" stroke="midnightblue" points="523.58,-85.64 515.03,-91.9 525.61,-92.34 523.58,-85.64"/>
</g>
</g>
</svg>
