<?xml version="1.0" encoding="UTF-8" standalone="no"?>
<!DOCTYPE svg PUBLIC "-//W3C//DTD SVG 1.1//EN"
 "http://www.w3.org/Graphics/SVG/1.1/DTD/svg11.dtd">
<!-- Generated by graphviz version 2.43.0 (0)
 -->
<!-- Title: /home/kali/projects/vsomeip/implementation/routing/include/routing_manager_stub_host.hpp Pages: 1 -->
<svg width="732pt" height="173pt"
 viewBox="0.00 0.00 732.00 173.00" xmlns="http://www.w3.org/2000/svg" xmlns:xlink="http://www.w3.org/1999/xlink">
<g id="graph0" class="graph" transform="scale(1 1) rotate(0) translate(4 169)">
<title>/home/kali/projects/vsomeip/implementation/routing/include/routing_manager_stub_host.hpp</title>
<polygon fill="white" stroke="transparent" points="-4,4 -4,-169 728,-169 728,4 -4,4"/>
<!-- Node1 -->
<g id="node1" class="node">
<title>Node1</title>
<g id="a_node1"><a xlink:title=" ">
<polygon fill="#bfbfbf" stroke="black" points="146.5,-112.5 146.5,-164.5 289.5,-164.5 289.5,-112.5 146.5,-112.5"/>
<text text-anchor="start" x="154.5" y="-152.5" font-family="Helvetica,sans-Serif" font-size="10.00">/home/kali/projects</text>
<text text-anchor="start" x="154.5" y="-141.5" font-family="Helvetica,sans-Serif" font-size="10.00">/vsomeip/implementation</text>
<text text-anchor="start" x="154.5" y="-130.5" font-family="Helvetica,sans-Serif" font-size="10.00">/routing/include/routing</text>
<text text-anchor="middle" x="218" y="-119.5" font-family="Helvetica,sans-Serif" font-size="10.00">_manager_stub_host.hpp</text>
</a>
</g>
</g>
<!-- Node2 -->
<g id="node2" class="node">
<title>Node2</title>
<g id="a_node2"><a xlink:title=" ">
<polygon fill="white" stroke="#bfbfbf" points="0,-56.5 0,-75.5 140,-75.5 140,-56.5 0,-56.5"/>
<text text-anchor="middle" x="70" y="-63.5" font-family="Helvetica,sans-Serif" font-size="10.00">boost/asio/io_service.hpp</text>
</a>
</g>
</g>
<!-- Node1&#45;&gt;Node2 -->
<g id="edge1" class="edge">
<title>Node1&#45;&gt;Node2</title>
<path fill="none" stroke="midnightblue" d="M165.4,-112.45C142.34,-101.46 116.24,-89.03 97.17,-79.94"/>
<polygon fill="midnightblue" stroke="midnightblue" points="98.43,-76.67 87.9,-75.53 95.42,-82.99 98.43,-76.67"/>
</g>
<!-- Node3 -->
<g id="node3" class="node">
<title>Node3</title>
<g id="a_node3"><a xlink:title=" ">
<polygon fill="white" stroke="#bfbfbf" points="158.5,-56.5 158.5,-75.5 277.5,-75.5 277.5,-56.5 158.5,-56.5"/>
<text text-anchor="middle" x="218" y="-63.5" font-family="Helvetica,sans-Serif" font-size="10.00">vsomeip/handler.hpp</text>
</a>
</g>
</g>
<!-- Node1&#45;&gt;Node3 -->
<g id="edge2" class="edge">
<title>Node1&#45;&gt;Node3</title>
<path fill="none" stroke="midnightblue" d="M218,-112.45C218,-103.73 218,-94.1 218,-85.96"/>
<polygon fill="midnightblue" stroke="midnightblue" points="221.5,-85.7 218,-75.7 214.5,-85.7 221.5,-85.7"/>
</g>
<!-- Node4 -->
<g id="node4" class="node">
<title>Node4</title>
<g id="a_node4"><a xlink:href="types_8hpp.html" target="_top" xlink:title=" ">
<polygon fill="white" stroke="black" points="295.5,-56.5 295.5,-75.5 360.5,-75.5 360.5,-56.5 295.5,-56.5"/>
<text text-anchor="middle" x="328" y="-63.5" font-family="Helvetica,sans-Serif" font-size="10.00">types.hpp</text>
</a>
</g>
</g>
<!-- Node1&#45;&gt;Node4 -->
<g id="edge3" class="edge">
<title>Node1&#45;&gt;Node4</title>
<path fill="none" stroke="midnightblue" d="M257.09,-112.45C273.61,-101.86 292.21,-89.94 306.22,-80.96"/>
<polygon fill="midnightblue" stroke="midnightblue" points="308.16,-83.87 314.7,-75.53 304.39,-77.98 308.16,-83.87"/>
</g>
<!-- Node5 -->
<g id="node5" class="node">
<title>Node5</title>
<g id="a_node5"><a xlink:title=" ">
<polygon fill="white" stroke="#bfbfbf" points="125,-0.5 125,-19.5 163,-19.5 163,-0.5 125,-0.5"/>
<text text-anchor="middle" x="144" y="-7.5" font-family="Helvetica,sans-Serif" font-size="10.00">map</text>
</a>
</g>
</g>
<!-- Node4&#45;&gt;Node5 -->
<g id="edge4" class="edge">
<title>Node4&#45;&gt;Node5</title>
<path fill="none" stroke="midnightblue" d="M297.43,-56.48C267.89,-48.17 221.65,-35.01 173.01,-20.25"/>
<polygon fill="midnightblue" stroke="midnightblue" points="173.84,-16.84 163.26,-17.27 171.8,-23.54 173.84,-16.84"/>
</g>
<!-- Node6 -->
<g id="node6" class="node">
<title>Node6</title>
<g id="a_node6"><a xlink:title=" ">
<polygon fill="white" stroke="#bfbfbf" points="181,-0.5 181,-19.5 239,-19.5 239,-0.5 181,-0.5"/>
<text text-anchor="middle" x="210" y="-7.5" font-family="Helvetica,sans-Serif" font-size="10.00">memory</text>
</a>
</g>
</g>
<!-- Node4&#45;&gt;Node6 -->
<g id="edge5" class="edge">
<title>Node4&#45;&gt;Node6</title>
<path fill="none" stroke="midnightblue" d="M309.3,-56.44C290.06,-47.64 259.85,-33.81 237.8,-23.72"/>
<polygon fill="midnightblue" stroke="midnightblue" points="239.16,-20.5 228.61,-19.52 236.25,-26.86 239.16,-20.5"/>
</g>
<!-- Node7 -->
<g id="node7" class="node">
<title>Node7</title>
<g id="a_node7"><a xlink:title=" ">
<polygon fill="white" stroke="#bfbfbf" points="257.5,-0.5 257.5,-19.5 398.5,-19.5 398.5,-0.5 257.5,-0.5"/>
<text text-anchor="middle" x="328" y="-7.5" font-family="Helvetica,sans-Serif" font-size="10.00">boost/asio/ip/address.hpp</text>
</a>
</g>
</g>
<!-- Node4&#45;&gt;Node7 -->
<g id="edge6" class="edge">
<title>Node4&#45;&gt;Node7</title>
<path fill="none" stroke="midnightblue" d="M328,-56.08C328,-49.01 328,-38.86 328,-29.99"/>
<polygon fill="midnightblue" stroke="midnightblue" points="331.5,-29.75 328,-19.75 324.5,-29.75 331.5,-29.75"/>
</g>
<!-- Node8 -->
<g id="node8" class="node">
<title>Node8</title>
<g id="a_node8"><a xlink:title=" ">
<polygon fill="white" stroke="#bfbfbf" points="416.5,-0.5 416.5,-19.5 575.5,-19.5 575.5,-0.5 416.5,-0.5"/>
<text text-anchor="middle" x="496" y="-7.5" font-family="Helvetica,sans-Serif" font-size="10.00">vsomeip/primitive_types.hpp</text>
</a>
</g>
</g>
<!-- Node4&#45;&gt;Node8 -->
<g id="edge7" class="edge">
<title>Node4&#45;&gt;Node8</title>
<path fill="none" stroke="midnightblue" d="M354.62,-56.44C383.01,-47.32 428.14,-32.81 459.75,-22.65"/>
<polygon fill="midnightblue" stroke="midnightblue" points="461.06,-25.91 469.5,-19.52 458.91,-19.24 461.06,-25.91"/>
</g>
<!-- Node9 -->
<g id="node9" class="node">
<title>Node9</title>
<g id="a_node9"><a xlink:title=" ">
<polygon fill="white" stroke="#bfbfbf" points="594,-0.5 594,-19.5 724,-19.5 724,-0.5 594,-0.5"/>
<text text-anchor="middle" x="659" y="-7.5" font-family="Helvetica,sans-Serif" font-size="10.00">vsomeip/constants.hpp</text>
</a>
</g>
</g>
<!-- Node4&#45;&gt;Node9 -->
<g id="edge8" class="edge">
<title>Node4&#45;&gt;Node9</title>
<path fill="none" stroke="midnightblue" d="M360.64,-59.67C415.36,-50.75 526.48,-32.62 596.59,-21.18"/>
<polygon fill="midnightblue" stroke="midnightblue" points="597.31,-24.61 606.62,-19.55 596.19,-17.7 597.31,-24.61"/>
</g>
</g>
</svg>
