<?xml version="1.0" encoding="UTF-8" standalone="no"?>
<!DOCTYPE svg PUBLIC "-//W3C//DTD SVG 1.1//EN"
 "http://www.w3.org/Graphics/SVG/1.1/DTD/svg11.dtd">
<!-- Generated by graphviz version 2.43.0 (0)
 -->
<!-- Title: /home/kali/projects/vsomeip/implementation/routing/include/routing_manager_stub.hpp Pages: 1 -->
<svg width="1404pt" height="251pt"
 viewBox="0.00 0.00 1404.00 251.00" xmlns="http://www.w3.org/2000/svg" xmlns:xlink="http://www.w3.org/1999/xlink">
<g id="graph0" class="graph" transform="scale(1 1) rotate(0) translate(4 247)">
<title>/home/kali/projects/vsomeip/implementation/routing/include/routing_manager_stub.hpp</title>
<polygon fill="white" stroke="transparent" points="-4,4 -4,-247 1400,-247 1400,4 -4,4"/>
<!-- Node1 -->
<g id="node1" class="node">
<title>Node1</title>
<g id="a_node1"><a xlink:title=" ">
<polygon fill="#bfbfbf" stroke="black" points="544,-190.5 544,-242.5 687,-242.5 687,-190.5 544,-190.5"/>
<text text-anchor="start" x="552" y="-230.5" font-family="Helvetica,sans-Serif" font-size="10.00">/home/kali/projects</text>
<text text-anchor="start" x="552" y="-219.5" font-family="Helvetica,sans-Serif" font-size="10.00">/vsomeip/implementation</text>
<text text-anchor="start" x="552" y="-208.5" font-family="Helvetica,sans-Serif" font-size="10.00">/routing/include/routing</text>
<text text-anchor="middle" x="615.5" y="-197.5" font-family="Helvetica,sans-Serif" font-size="10.00">_manager_stub.hpp</text>
</a>
</g>
</g>
<!-- Node2 -->
<g id="node2" class="node">
<title>Node2</title>
<g id="a_node2"><a xlink:title=" ">
<polygon fill="white" stroke="#bfbfbf" points="0,-129 0,-148 107,-148 107,-129 0,-129"/>
<text text-anchor="middle" x="53.5" y="-136" font-family="Helvetica,sans-Serif" font-size="10.00">condition_variable</text>
</a>
</g>
</g>
<!-- Node1&#45;&gt;Node2 -->
<g id="edge1" class="edge">
<title>Node1&#45;&gt;Node2</title>
<path fill="none" stroke="midnightblue" d="M543.68,-209.01C446.41,-199.68 267.58,-180.62 116.5,-154 110.33,-152.91 103.86,-151.61 97.52,-150.24"/>
<polygon fill="midnightblue" stroke="midnightblue" points="98.22,-146.81 87.7,-148.05 96.7,-153.64 98.22,-146.81"/>
</g>
<!-- Node3 -->
<g id="node3" class="node">
<title>Node3</title>
<g id="a_node3"><a xlink:title=" ">
<polygon fill="white" stroke="#bfbfbf" points="125.5,-129 125.5,-148 157.5,-148 157.5,-129 125.5,-129"/>
<text text-anchor="middle" x="141.5" y="-136" font-family="Helvetica,sans-Serif" font-size="10.00">list</text>
</a>
</g>
</g>
<!-- Node1&#45;&gt;Node3 -->
<g id="edge2" class="edge">
<title>Node1&#45;&gt;Node3</title>
<path fill="none" stroke="midnightblue" d="M543.67,-212.44C454.64,-207.08 299.05,-192.61 171.5,-154 169.83,-153.49 168.13,-152.9 166.44,-152.26"/>
<polygon fill="midnightblue" stroke="midnightblue" points="167.57,-148.93 157.01,-148.13 164.77,-155.35 167.57,-148.93"/>
</g>
<!-- Node4 -->
<g id="node4" class="node">
<title>Node4</title>
<g id="a_node4"><a xlink:title=" ">
<polygon fill="white" stroke="#bfbfbf" points="32.5,-62 32.5,-81 70.5,-81 70.5,-62 32.5,-62"/>
<text text-anchor="middle" x="51.5" y="-69" font-family="Helvetica,sans-Serif" font-size="10.00">map</text>
</a>
</g>
</g>
<!-- Node1&#45;&gt;Node4 -->
<g id="edge3" class="edge">
<title>Node1&#45;&gt;Node4</title>
<path fill="none" stroke="midnightblue" d="M544,-216.11C459.41,-214.32 316.01,-203.32 204.5,-154 184.57,-145.18 185.21,-134.17 166.5,-123 130.57,-101.55 117.45,-104.64 79.5,-87 78.51,-86.54 77.5,-86.06 76.48,-85.57"/>
<polygon fill="midnightblue" stroke="midnightblue" points="77.88,-82.36 67.37,-81.02 74.75,-88.62 77.88,-82.36"/>
</g>
<!-- Node5 -->
<g id="node5" class="node">
<title>Node5</title>
<g id="a_node5"><a xlink:title=" ">
<polygon fill="white" stroke="#bfbfbf" points="274.5,-62 274.5,-81 332.5,-81 332.5,-62 274.5,-62"/>
<text text-anchor="middle" x="303.5" y="-69" font-family="Helvetica,sans-Serif" font-size="10.00">memory</text>
</a>
</g>
</g>
<!-- Node1&#45;&gt;Node5 -->
<g id="edge4" class="edge">
<title>Node1&#45;&gt;Node5</title>
<path fill="none" stroke="midnightblue" d="M543.96,-208.72C468.85,-200.17 357.43,-182.97 326.5,-154 309.26,-137.85 304.6,-109.88 303.52,-91.27"/>
<polygon fill="midnightblue" stroke="midnightblue" points="307.01,-90.99 303.23,-81.09 300.02,-91.19 307.01,-90.99"/>
</g>
<!-- Node6 -->
<g id="node6" class="node">
<title>Node6</title>
<g id="a_node6"><a xlink:title=" ">
<polygon fill="white" stroke="#bfbfbf" points="591.5,-129 591.5,-148 639.5,-148 639.5,-129 591.5,-129"/>
<text text-anchor="middle" x="615.5" y="-136" font-family="Helvetica,sans-Serif" font-size="10.00">mutex</text>
</a>
</g>
</g>
<!-- Node1&#45;&gt;Node6 -->
<g id="edge5" class="edge">
<title>Node1&#45;&gt;Node6</title>
<path fill="none" stroke="midnightblue" d="M615.5,-190.19C615.5,-179.76 615.5,-167.9 615.5,-158.27"/>
<polygon fill="midnightblue" stroke="midnightblue" points="619,-158.21 615.5,-148.21 612,-158.21 619,-158.21"/>
</g>
<!-- Node7 -->
<g id="node7" class="node">
<title>Node7</title>
<g id="a_node7"><a xlink:title=" ">
<polygon fill="white" stroke="#bfbfbf" points="657.5,-129 657.5,-148 689.5,-148 689.5,-129 657.5,-129"/>
<text text-anchor="middle" x="673.5" y="-136" font-family="Helvetica,sans-Serif" font-size="10.00">set</text>
</a>
</g>
</g>
<!-- Node1&#45;&gt;Node7 -->
<g id="edge6" class="edge">
<title>Node1&#45;&gt;Node7</title>
<path fill="none" stroke="midnightblue" d="M634.81,-190.19C643.29,-179.08 653.02,-166.34 660.59,-156.41"/>
<polygon fill="midnightblue" stroke="midnightblue" points="663.57,-158.28 666.85,-148.21 658,-154.04 663.57,-158.28"/>
</g>
<!-- Node8 -->
<g id="node8" class="node">
<title>Node8</title>
<g id="a_node8"><a xlink:title=" ">
<polygon fill="white" stroke="#bfbfbf" points="707.5,-129 707.5,-148 755.5,-148 755.5,-129 707.5,-129"/>
<text text-anchor="middle" x="731.5" y="-136" font-family="Helvetica,sans-Serif" font-size="10.00">thread</text>
</a>
</g>
</g>
<!-- Node1&#45;&gt;Node8 -->
<g id="edge7" class="edge">
<title>Node1&#45;&gt;Node8</title>
<path fill="none" stroke="midnightblue" d="M653.8,-190.4C672.45,-178.19 694.18,-163.95 709.91,-153.65"/>
<polygon fill="midnightblue" stroke="midnightblue" points="711.96,-156.49 718.41,-148.08 708.12,-150.63 711.96,-156.49"/>
</g>
<!-- Node9 -->
<g id="node9" class="node">
<title>Node9</title>
<g id="a_node9"><a xlink:title=" ">
<polygon fill="white" stroke="#bfbfbf" points="773.5,-129 773.5,-148 823.5,-148 823.5,-129 773.5,-129"/>
<text text-anchor="middle" x="798.5" y="-136" font-family="Helvetica,sans-Serif" font-size="10.00">atomic</text>
</a>
</g>
</g>
<!-- Node1&#45;&gt;Node9 -->
<g id="edge8" class="edge">
<title>Node1&#45;&gt;Node9</title>
<path fill="none" stroke="midnightblue" d="M676.82,-190.38C703.75,-179.3 735.73,-166.07 764.5,-154 765.91,-153.41 767.34,-152.81 768.79,-152.19"/>
<polygon fill="midnightblue" stroke="midnightblue" points="770.54,-155.25 778.38,-148.13 767.81,-148.81 770.54,-155.25"/>
</g>
<!-- Node10 -->
<g id="node10" class="node">
<title>Node10</title>
<g id="a_node10"><a xlink:title=" ">
<polygon fill="white" stroke="#bfbfbf" points="841.5,-129 841.5,-148 927.5,-148 927.5,-129 841.5,-129"/>
<text text-anchor="middle" x="884.5" y="-136" font-family="Helvetica,sans-Serif" font-size="10.00">unordered_set</text>
</a>
</g>
</g>
<!-- Node1&#45;&gt;Node10 -->
<g id="edge9" class="edge">
<title>Node1&#45;&gt;Node10</title>
<path fill="none" stroke="midnightblue" d="M687.23,-195.23C737.56,-181.02 802.99,-162.53 844.39,-150.83"/>
<polygon fill="midnightblue" stroke="midnightblue" points="845.44,-154.17 854.11,-148.09 843.54,-147.44 845.44,-154.17"/>
</g>
<!-- Node11 -->
<g id="node11" class="node">
<title>Node11</title>
<g id="a_node11"><a xlink:title=" ">
<polygon fill="white" stroke="#bfbfbf" points="945.5,-129 945.5,-148 1085.5,-148 1085.5,-129 945.5,-129"/>
<text text-anchor="middle" x="1015.5" y="-136" font-family="Helvetica,sans-Serif" font-size="10.00">boost/asio/io_service.hpp</text>
</a>
</g>
</g>
<!-- Node1&#45;&gt;Node11 -->
<g id="edge10" class="edge">
<title>Node1&#45;&gt;Node11</title>
<path fill="none" stroke="midnightblue" d="M687.01,-201.91C765.4,-187.02 889.46,-163.45 960.57,-149.94"/>
<polygon fill="midnightblue" stroke="midnightblue" points="961.49,-153.32 970.66,-148.02 960.19,-146.45 961.49,-153.32"/>
</g>
<!-- Node12 -->
<g id="node12" class="node">
<title>Node12</title>
<g id="a_node12"><a xlink:title=" ">
<polygon fill="white" stroke="#bfbfbf" points="1104,-129 1104,-148 1259,-148 1259,-129 1104,-129"/>
<text text-anchor="middle" x="1181.5" y="-136" font-family="Helvetica,sans-Serif" font-size="10.00">boost/asio/steady_timer.hpp</text>
</a>
</g>
</g>
<!-- Node1&#45;&gt;Node12 -->
<g id="edge11" class="edge">
<title>Node1&#45;&gt;Node12</title>
<path fill="none" stroke="midnightblue" d="M687.03,-207.16C780.76,-196.05 950.18,-175.28 1094.5,-154 1103.51,-152.67 1113.03,-151.18 1122.34,-149.67"/>
<polygon fill="midnightblue" stroke="midnightblue" points="1123.02,-153.1 1132.32,-148.03 1121.88,-146.19 1123.02,-153.1"/>
</g>
<!-- Node13 -->
<g id="node13" class="node">
<title>Node13</title>
<g id="a_node13"><a xlink:title=" ">
<polygon fill="white" stroke="#bfbfbf" points="1277,-129 1277,-148 1396,-148 1396,-129 1277,-129"/>
<text text-anchor="middle" x="1336.5" y="-136" font-family="Helvetica,sans-Serif" font-size="10.00">vsomeip/handler.hpp</text>
</a>
</g>
</g>
<!-- Node1&#45;&gt;Node13 -->
<g id="edge12" class="edge">
<title>Node1&#45;&gt;Node13</title>
<path fill="none" stroke="midnightblue" d="M687.34,-211.47C807.95,-204.1 1058.58,-186.15 1268.5,-154 1275.64,-152.91 1283.15,-151.53 1290.48,-150.07"/>
<polygon fill="midnightblue" stroke="midnightblue" points="1291.21,-153.49 1300.29,-148.04 1289.79,-146.64 1291.21,-153.49"/>
</g>
<!-- Node14 -->
<g id="node14" class="node">
<title>Node14</title>
<g id="a_node14"><a xlink:href="endpoint__host_8hpp.html" target="_top" xlink:title=" ">
<polygon fill="white" stroke="black" points="452,-123.5 452,-153.5 573,-153.5 573,-123.5 452,-123.5"/>
<text text-anchor="start" x="460" y="-141.5" font-family="Helvetica,sans-Serif" font-size="10.00">../../endpoints/include</text>
<text text-anchor="middle" x="512.5" y="-130.5" font-family="Helvetica,sans-Serif" font-size="10.00">/endpoint_host.hpp</text>
</a>
</g>
</g>
<!-- Node1&#45;&gt;Node14 -->
<g id="edge13" class="edge">
<title>Node1&#45;&gt;Node14</title>
<path fill="none" stroke="midnightblue" d="M581.49,-190.4C568.06,-180.5 552.84,-169.26 540.11,-159.87"/>
<polygon fill="midnightblue" stroke="midnightblue" points="541.88,-156.83 531.75,-153.71 537.72,-162.46 541.88,-156.83"/>
</g>
<!-- Node21 -->
<g id="node21" class="node">
<title>Node21</title>
<g id="a_node21"><a xlink:href="routing__host_8hpp.html" target="_top" xlink:title=" ">
<polygon fill="white" stroke="black" points="335.5,-123.5 335.5,-153.5 433.5,-153.5 433.5,-123.5 335.5,-123.5"/>
<text text-anchor="start" x="343.5" y="-141.5" font-family="Helvetica,sans-Serif" font-size="10.00">../include/routing</text>
<text text-anchor="middle" x="384.5" y="-130.5" font-family="Helvetica,sans-Serif" font-size="10.00">_host.hpp</text>
</a>
</g>
</g>
<!-- Node1&#45;&gt;Node21 -->
<g id="edge22" class="edge">
<title>Node1&#45;&gt;Node21</title>
<path fill="none" stroke="midnightblue" d="M543.99,-191.97C509.29,-180.56 468.35,-167.09 436.65,-156.66"/>
<polygon fill="midnightblue" stroke="midnightblue" points="437.71,-153.32 427.12,-153.52 435.52,-159.97 437.71,-153.32"/>
</g>
<!-- Node22 -->
<g id="node22" class="node">
<title>Node22</title>
<g id="a_node22"><a xlink:href="types_8hpp.html" target="_top" xlink:title=" ">
<polygon fill="white" stroke="black" points="214,-129 214,-148 279,-148 279,-129 214,-129"/>
<text text-anchor="middle" x="246.5" y="-136" font-family="Helvetica,sans-Serif" font-size="10.00">types.hpp</text>
</a>
</g>
</g>
<!-- Node1&#45;&gt;Node22 -->
<g id="edge27" class="edge">
<title>Node1&#45;&gt;Node22</title>
<path fill="none" stroke="midnightblue" d="M543.71,-204.13C478.12,-193.19 378.69,-175.21 293.5,-154 289.89,-153.1 286.15,-152.09 282.42,-151.03"/>
<polygon fill="midnightblue" stroke="midnightblue" points="283.29,-147.63 272.71,-148.15 281.3,-154.34 283.29,-147.63"/>
</g>
<!-- Node14&#45;&gt;Node5 -->
<g id="edge14" class="edge">
<title>Node14&#45;&gt;Node5</title>
<path fill="none" stroke="midnightblue" d="M461.3,-123.5C427.15,-113.89 381.38,-100.48 341.5,-87 339.24,-86.24 336.92,-85.42 334.59,-84.59"/>
<polygon fill="midnightblue" stroke="midnightblue" points="335.69,-81.26 325.1,-81.07 333.26,-87.83 335.69,-81.26"/>
</g>
<!-- Node15 -->
<g id="node15" class="node">
<title>Node15</title>
<g id="a_node15"><a xlink:title=" ">
<polygon fill="white" stroke="#bfbfbf" points="351,-62 351,-81 492,-81 492,-62 351,-62"/>
<text text-anchor="middle" x="421.5" y="-69" font-family="Helvetica,sans-Serif" font-size="10.00">boost/asio/ip/address.hpp</text>
</a>
</g>
</g>
<!-- Node14&#45;&gt;Node15 -->
<g id="edge15" class="edge">
<title>Node14&#45;&gt;Node15</title>
<path fill="none" stroke="midnightblue" d="M492.75,-123.4C477.64,-112.6 456.86,-97.76 441.64,-86.89"/>
<polygon fill="midnightblue" stroke="midnightblue" points="443.58,-83.97 433.41,-81.01 439.51,-89.67 443.58,-83.97"/>
</g>
<!-- Node16 -->
<g id="node16" class="node">
<title>Node16</title>
<g id="a_node16"><a xlink:title=" ">
<polygon fill="white" stroke="#bfbfbf" points="441,-0.5 441,-19.5 600,-19.5 600,-0.5 441,-0.5"/>
<text text-anchor="middle" x="520.5" y="-7.5" font-family="Helvetica,sans-Serif" font-size="10.00">vsomeip/primitive_types.hpp</text>
</a>
</g>
</g>
<!-- Node14&#45;&gt;Node16 -->
<g id="edge16" class="edge">
<title>Node14&#45;&gt;Node16</title>
<path fill="none" stroke="midnightblue" d="M520.5,-123.44C525.63,-113.59 531.81,-99.92 534.5,-87 538.59,-67.36 533.13,-44.74 527.88,-29.32"/>
<polygon fill="midnightblue" stroke="midnightblue" points="531.15,-28.08 524.39,-19.92 524.59,-30.51 531.15,-28.08"/>
</g>
<!-- Node17 -->
<g id="node17" class="node">
<title>Node17</title>
<g id="a_node17"><a xlink:href="internal_8hpp.html" target="_top" xlink:title=" ">
<polygon fill="white" stroke="black" points="586.5,-56.5 586.5,-86.5 702.5,-86.5 702.5,-56.5 586.5,-56.5"/>
<text text-anchor="start" x="594.5" y="-74.5" font-family="Helvetica,sans-Serif" font-size="10.00">../../configuration</text>
<text text-anchor="middle" x="644.5" y="-63.5" font-family="Helvetica,sans-Serif" font-size="10.00">/include/internal.hpp</text>
</a>
</g>
</g>
<!-- Node14&#45;&gt;Node17 -->
<g id="edge17" class="edge">
<title>Node14&#45;&gt;Node17</title>
<path fill="none" stroke="midnightblue" d="M541.14,-123.4C560.34,-113.94 585.83,-101.39 606.69,-91.12"/>
<polygon fill="midnightblue" stroke="midnightblue" points="608.49,-94.13 615.91,-86.58 605.4,-87.85 608.49,-94.13"/>
</g>
<!-- Node17&#45;&gt;Node16 -->
<g id="edge20" class="edge">
<title>Node17&#45;&gt;Node16</title>
<path fill="none" stroke="midnightblue" d="M615.11,-56.4C594.68,-46.59 567.64,-33.62 547.7,-24.05"/>
<polygon fill="midnightblue" stroke="midnightblue" points="549.07,-20.83 538.54,-19.66 546.04,-27.14 549.07,-20.83"/>
</g>
<!-- Node18 -->
<g id="node18" class="node">
<title>Node18</title>
<g id="a_node18"><a xlink:title=" ">
<polygon fill="white" stroke="#bfbfbf" points="617.5,-0.5 617.5,-19.5 667.5,-19.5 667.5,-0.5 617.5,-0.5"/>
<text text-anchor="middle" x="642.5" y="-7.5" font-family="Helvetica,sans-Serif" font-size="10.00">cstdint</text>
</a>
</g>
</g>
<!-- Node17&#45;&gt;Node18 -->
<g id="edge18" class="edge">
<title>Node17&#45;&gt;Node18</title>
<path fill="none" stroke="midnightblue" d="M644.03,-56.4C643.76,-48.47 643.42,-38.46 643.13,-29.86"/>
<polygon fill="midnightblue" stroke="midnightblue" points="646.63,-29.53 642.79,-19.66 639.63,-29.77 646.63,-29.53"/>
</g>
<!-- Node19 -->
<g id="node19" class="node">
<title>Node19</title>
<g id="a_node19"><a xlink:title=" ">
<polygon fill="white" stroke="#bfbfbf" points="685.5,-0.5 685.5,-19.5 729.5,-19.5 729.5,-0.5 685.5,-0.5"/>
<text text-anchor="middle" x="707.5" y="-7.5" font-family="Helvetica,sans-Serif" font-size="10.00">limits</text>
</a>
</g>
</g>
<!-- Node17&#45;&gt;Node19 -->
<g id="edge19" class="edge">
<title>Node17&#45;&gt;Node19</title>
<path fill="none" stroke="midnightblue" d="M659.43,-56.4C668.87,-47.49 681.08,-35.95 690.83,-26.74"/>
<polygon fill="midnightblue" stroke="midnightblue" points="693.47,-29.07 698.33,-19.66 688.66,-23.98 693.47,-29.07"/>
</g>
<!-- Node20 -->
<g id="node20" class="node">
<title>Node20</title>
<g id="a_node20"><a xlink:title=" ">
<polygon fill="white" stroke="#bfbfbf" points="748,-0.5 748,-19.5 811,-19.5 811,-0.5 748,-0.5"/>
<text text-anchor="middle" x="779.5" y="-7.5" font-family="Helvetica,sans-Serif" font-size="10.00">pthread.h</text>
</a>
</g>
</g>
<!-- Node17&#45;&gt;Node20 -->
<g id="edge21" class="edge">
<title>Node17&#45;&gt;Node20</title>
<path fill="none" stroke="midnightblue" d="M676.49,-56.4C698.94,-46.51 728.71,-33.38 750.48,-23.79"/>
<polygon fill="midnightblue" stroke="midnightblue" points="752.12,-26.89 759.86,-19.66 749.29,-20.49 752.12,-26.89"/>
</g>
<!-- Node21&#45;&gt;Node5 -->
<g id="edge23" class="edge">
<title>Node21&#45;&gt;Node5</title>
<path fill="none" stroke="midnightblue" d="M366.92,-123.4C353.79,-112.86 335.87,-98.48 322.43,-87.69"/>
<polygon fill="midnightblue" stroke="midnightblue" points="324.32,-84.72 314.33,-81.19 319.94,-90.18 324.32,-84.72"/>
</g>
<!-- Node21&#45;&gt;Node15 -->
<g id="edge24" class="edge">
<title>Node21&#45;&gt;Node15</title>
<path fill="none" stroke="midnightblue" d="M392.53,-123.4C398.13,-113.56 405.63,-100.38 411.6,-89.89"/>
<polygon fill="midnightblue" stroke="midnightblue" points="414.65,-91.62 416.55,-81.19 408.56,-88.15 414.65,-91.62"/>
</g>
<!-- Node21&#45;&gt;Node16 -->
<g id="edge25" class="edge">
<title>Node21&#45;&gt;Node16</title>
<path fill="none" stroke="midnightblue" d="M426.98,-123.42C455.77,-113.08 490.35,-98.84 500.5,-87 514.21,-71.01 518.66,-46.67 520.03,-29.86"/>
<polygon fill="midnightblue" stroke="midnightblue" points="523.54,-29.79 520.56,-19.63 516.55,-29.43 523.54,-29.79"/>
</g>
<!-- Node21&#45;&gt;Node17 -->
<g id="edge26" class="edge">
<title>Node21&#45;&gt;Node17</title>
<path fill="none" stroke="midnightblue" d="M433.71,-125.2C474.63,-114.97 533.25,-100.31 578.29,-89.05"/>
<polygon fill="midnightblue" stroke="midnightblue" points="579.41,-92.38 588.26,-86.56 577.71,-85.59 579.41,-92.38"/>
</g>
<!-- Node22&#45;&gt;Node4 -->
<g id="edge28" class="edge">
<title>Node22&#45;&gt;Node4</title>
<path fill="none" stroke="midnightblue" d="M218.68,-128.88C212.37,-126.93 205.71,-124.89 199.5,-123 146.23,-106.79 131.11,-107.89 79.5,-87 78.3,-86.51 77.09,-86 75.87,-85.45"/>
<polygon fill="midnightblue" stroke="midnightblue" points="77.19,-82.21 66.66,-81 74.14,-88.51 77.19,-82.21"/>
</g>
<!-- Node22&#45;&gt;Node5 -->
<g id="edge29" class="edge">
<title>Node22&#45;&gt;Node5</title>
<path fill="none" stroke="midnightblue" d="M254.19,-128.73C263.16,-118.5 278.19,-101.36 289.3,-88.69"/>
<polygon fill="midnightblue" stroke="midnightblue" points="291.97,-90.95 295.93,-81.13 286.71,-86.34 291.97,-90.95"/>
</g>
<!-- Node22&#45;&gt;Node15 -->
<g id="edge30" class="edge">
<title>Node22&#45;&gt;Node15</title>
<path fill="none" stroke="midnightblue" d="M269.74,-128.87C300.29,-117.52 354.13,-97.52 388.78,-84.65"/>
<polygon fill="midnightblue" stroke="midnightblue" points="390.29,-87.83 398.44,-81.06 387.85,-81.26 390.29,-87.83"/>
</g>
<!-- Node22&#45;&gt;Node16 -->
<g id="edge31" class="edge">
<title>Node22&#45;&gt;Node16</title>
<path fill="none" stroke="midnightblue" d="M245.7,-128.88C244.68,-112.19 245.04,-75.38 265.5,-56 289.05,-33.7 367.05,-22.24 430.65,-16.49"/>
<polygon fill="midnightblue" stroke="midnightblue" points="431.06,-19.97 440.72,-15.61 430.46,-12.99 431.06,-19.97"/>
</g>
<!-- Node23 -->
<g id="node23" class="node">
<title>Node23</title>
<g id="a_node23"><a xlink:title=" ">
<polygon fill="white" stroke="#bfbfbf" points="88.5,-62 88.5,-81 218.5,-81 218.5,-62 88.5,-62"/>
<text text-anchor="middle" x="153.5" y="-69" font-family="Helvetica,sans-Serif" font-size="10.00">vsomeip/constants.hpp</text>
</a>
</g>
</g>
<!-- Node22&#45;&gt;Node23 -->
<g id="edge32" class="edge">
<title>Node22&#45;&gt;Node23</title>
<path fill="none" stroke="midnightblue" d="M233.96,-128.73C218.62,-118.01 192.44,-99.72 174.12,-86.91"/>
<polygon fill="midnightblue" stroke="midnightblue" points="176.05,-83.99 165.84,-81.13 172.04,-89.72 176.05,-83.99"/>
</g>
</g>
</svg>
