<?xml version="1.0" encoding="UTF-8" standalone="no"?>
<!DOCTYPE svg PUBLIC "-//W3C//DTD SVG 1.1//EN"
 "http://www.w3.org/Graphics/SVG/1.1/DTD/svg11.dtd">
<!-- Generated by graphviz version 2.43.0 (0)
 -->
<!-- Title: /home/kali/projects/vsomeip/implementation/routing/include/routing_host.hpp Pages: 1 -->
<svg width="527pt" height="184pt"
 viewBox="0.00 0.00 526.50 184.00" xmlns="http://www.w3.org/2000/svg" xmlns:xlink="http://www.w3.org/1999/xlink">
<g id="graph0" class="graph" transform="scale(1 1) rotate(0) translate(4 180)">
<title>/home/kali/projects/vsomeip/implementation/routing/include/routing_host.hpp</title>
<polygon fill="white" stroke="transparent" points="-4,4 -4,-180 522.5,-180 522.5,4 -4,4"/>
<!-- Node1 -->
<g id="node1" class="node">
<title>Node1</title>
<g id="a_node1"><a xlink:title=" ">
<polygon fill="#bfbfbf" stroke="black" points="124.5,-123.5 124.5,-175.5 267.5,-175.5 267.5,-123.5 124.5,-123.5"/>
<text text-anchor="start" x="132.5" y="-163.5" font-family="Helvetica,sans-Serif" font-size="10.00">/home/kali/projects</text>
<text text-anchor="start" x="132.5" y="-152.5" font-family="Helvetica,sans-Serif" font-size="10.00">/vsomeip/implementation</text>
<text text-anchor="start" x="132.5" y="-141.5" font-family="Helvetica,sans-Serif" font-size="10.00">/routing/include/routing</text>
<text text-anchor="middle" x="196" y="-130.5" font-family="Helvetica,sans-Serif" font-size="10.00">_host.hpp</text>
</a>
</g>
</g>
<!-- Node2 -->
<g id="node2" class="node">
<title>Node2</title>
<g id="a_node2"><a xlink:title=" ">
<polygon fill="white" stroke="#bfbfbf" points="0,-62 0,-81 58,-81 58,-62 0,-62"/>
<text text-anchor="middle" x="29" y="-69" font-family="Helvetica,sans-Serif" font-size="10.00">memory</text>
</a>
</g>
</g>
<!-- Node1&#45;&gt;Node2 -->
<g id="edge1" class="edge">
<title>Node1&#45;&gt;Node2</title>
<path fill="none" stroke="midnightblue" d="M140.86,-123.4C112.76,-110.62 79.8,-95.62 56.97,-85.23"/>
<polygon fill="midnightblue" stroke="midnightblue" points="58.4,-82.03 47.85,-81.08 55.5,-88.41 58.4,-82.03"/>
</g>
<!-- Node3 -->
<g id="node3" class="node">
<title>Node3</title>
<g id="a_node3"><a xlink:title=" ">
<polygon fill="white" stroke="#bfbfbf" points="76.5,-62 76.5,-81 217.5,-81 217.5,-62 76.5,-62"/>
<text text-anchor="middle" x="147" y="-69" font-family="Helvetica,sans-Serif" font-size="10.00">boost/asio/ip/address.hpp</text>
</a>
</g>
</g>
<!-- Node1&#45;&gt;Node3 -->
<g id="edge2" class="edge">
<title>Node1&#45;&gt;Node3</title>
<path fill="none" stroke="midnightblue" d="M179.68,-123.19C172.59,-112.2 164.47,-99.6 158.1,-89.72"/>
<polygon fill="midnightblue" stroke="midnightblue" points="160.98,-87.72 152.61,-81.21 155.09,-91.51 160.98,-87.72"/>
</g>
<!-- Node4 -->
<g id="node4" class="node">
<title>Node4</title>
<g id="a_node4"><a xlink:title=" ">
<polygon fill="white" stroke="#bfbfbf" points="148.5,-0.5 148.5,-19.5 307.5,-19.5 307.5,-0.5 148.5,-0.5"/>
<text text-anchor="middle" x="228" y="-7.5" font-family="Helvetica,sans-Serif" font-size="10.00">vsomeip/primitive_types.hpp</text>
</a>
</g>
</g>
<!-- Node1&#45;&gt;Node4 -->
<g id="edge3" class="edge">
<title>Node1&#45;&gt;Node4</title>
<path fill="none" stroke="midnightblue" d="M211.27,-123.4C217.03,-112.59 222.92,-99.58 226,-87 230.65,-68 230.59,-45.52 229.71,-29.97"/>
<polygon fill="midnightblue" stroke="midnightblue" points="233.17,-29.31 228.94,-19.59 226.19,-29.82 233.17,-29.31"/>
</g>
<!-- Node5 -->
<g id="node5" class="node">
<title>Node5</title>
<g id="a_node5"><a xlink:href="internal_8hpp.html" target="_top" xlink:title=" ">
<polygon fill="white" stroke="black" points="292,-56.5 292,-86.5 408,-86.5 408,-56.5 292,-56.5"/>
<text text-anchor="start" x="300" y="-74.5" font-family="Helvetica,sans-Serif" font-size="10.00">../../configuration</text>
<text text-anchor="middle" x="350" y="-63.5" font-family="Helvetica,sans-Serif" font-size="10.00">/include/internal.hpp</text>
</a>
</g>
</g>
<!-- Node1&#45;&gt;Node5 -->
<g id="edge4" class="edge">
<title>Node1&#45;&gt;Node5</title>
<path fill="none" stroke="midnightblue" d="M246.85,-123.4C268.18,-112.88 292.55,-100.85 312.24,-91.14"/>
<polygon fill="midnightblue" stroke="midnightblue" points="313.79,-94.27 321.21,-86.71 310.7,-87.99 313.79,-94.27"/>
</g>
<!-- Node5&#45;&gt;Node4 -->
<g id="edge7" class="edge">
<title>Node5&#45;&gt;Node4</title>
<path fill="none" stroke="midnightblue" d="M321.09,-56.4C300.98,-46.59 274.38,-33.62 254.76,-24.05"/>
<polygon fill="midnightblue" stroke="midnightblue" points="256.27,-20.9 245.75,-19.66 253.21,-27.19 256.27,-20.9"/>
</g>
<!-- Node6 -->
<g id="node6" class="node">
<title>Node6</title>
<g id="a_node6"><a xlink:title=" ">
<polygon fill="white" stroke="#bfbfbf" points="325,-0.5 325,-19.5 375,-19.5 375,-0.5 325,-0.5"/>
<text text-anchor="middle" x="350" y="-7.5" font-family="Helvetica,sans-Serif" font-size="10.00">cstdint</text>
</a>
</g>
</g>
<!-- Node5&#45;&gt;Node6 -->
<g id="edge5" class="edge">
<title>Node5&#45;&gt;Node6</title>
<path fill="none" stroke="midnightblue" d="M350,-56.4C350,-48.47 350,-38.46 350,-29.86"/>
<polygon fill="midnightblue" stroke="midnightblue" points="353.5,-29.66 350,-19.66 346.5,-29.66 353.5,-29.66"/>
</g>
<!-- Node7 -->
<g id="node7" class="node">
<title>Node7</title>
<g id="a_node7"><a xlink:title=" ">
<polygon fill="white" stroke="#bfbfbf" points="393,-0.5 393,-19.5 437,-19.5 437,-0.5 393,-0.5"/>
<text text-anchor="middle" x="415" y="-7.5" font-family="Helvetica,sans-Serif" font-size="10.00">limits</text>
</a>
</g>
</g>
<!-- Node5&#45;&gt;Node7 -->
<g id="edge6" class="edge">
<title>Node5&#45;&gt;Node7</title>
<path fill="none" stroke="midnightblue" d="M365.4,-56.4C375.24,-47.4 387.99,-35.72 398.11,-26.47"/>
<polygon fill="midnightblue" stroke="midnightblue" points="400.53,-28.99 405.54,-19.66 395.8,-23.83 400.53,-28.99"/>
</g>
<!-- Node8 -->
<g id="node8" class="node">
<title>Node8</title>
<g id="a_node8"><a xlink:title=" ">
<polygon fill="white" stroke="#bfbfbf" points="455.5,-0.5 455.5,-19.5 518.5,-19.5 518.5,-0.5 455.5,-0.5"/>
<text text-anchor="middle" x="487" y="-7.5" font-family="Helvetica,sans-Serif" font-size="10.00">pthread.h</text>
</a>
</g>
</g>
<!-- Node5&#45;&gt;Node8 -->
<g id="edge8" class="edge">
<title>Node5&#45;&gt;Node8</title>
<path fill="none" stroke="midnightblue" d="M382.47,-56.4C405.35,-46.46 435.73,-33.26 457.84,-23.66"/>
<polygon fill="midnightblue" stroke="midnightblue" points="459.29,-26.85 467.07,-19.66 456.5,-20.43 459.29,-26.85"/>
</g>
</g>
</svg>
