<?xml version="1.0" encoding="UTF-8" standalone="no"?>
<!DOCTYPE svg PUBLIC "-//W3C//DTD SVG 1.1//EN"
 "http://www.w3.org/Graphics/SVG/1.1/DTD/svg11.dtd">
<!-- Generated by graphviz version 2.43.0 (0)
 -->
<!-- Title: /home/kali/projects/vsomeip/implementation/routing/include/routing_manager_host.hpp Pages: 1 -->
<svg width="348pt" height="117pt"
 viewBox="0.00 0.00 347.50 117.00" xmlns="http://www.w3.org/2000/svg" xmlns:xlink="http://www.w3.org/1999/xlink">
<g id="graph0" class="graph" transform="scale(1 1) rotate(0) translate(4 113)">
<title>/home/kali/projects/vsomeip/implementation/routing/include/routing_manager_host.hpp</title>
<polygon fill="white" stroke="transparent" points="-4,4 -4,-113 343.5,-113 343.5,4 -4,4"/>
<!-- Node1 -->
<g id="node1" class="node">
<title>Node1</title>
<g id="a_node1"><a xlink:title=" ">
<polygon fill="#bfbfbf" stroke="black" points="74.5,-56.5 74.5,-108.5 217.5,-108.5 217.5,-56.5 74.5,-56.5"/>
<text text-anchor="start" x="82.5" y="-96.5" font-family="Helvetica,sans-Serif" font-size="10.00">/home/kali/projects</text>
<text text-anchor="start" x="82.5" y="-85.5" font-family="Helvetica,sans-Serif" font-size="10.00">/vsomeip/implementation</text>
<text text-anchor="start" x="82.5" y="-74.5" font-family="Helvetica,sans-Serif" font-size="10.00">/routing/include/routing</text>
<text text-anchor="middle" x="146" y="-63.5" font-family="Helvetica,sans-Serif" font-size="10.00">_manager_host.hpp</text>
</a>
</g>
</g>
<!-- Node2 -->
<g id="node2" class="node">
<title>Node2</title>
<g id="a_node2"><a xlink:title=" ">
<polygon fill="white" stroke="#bfbfbf" points="0,-0.5 0,-19.5 58,-19.5 58,-0.5 0,-0.5"/>
<text text-anchor="middle" x="29" y="-7.5" font-family="Helvetica,sans-Serif" font-size="10.00">memory</text>
</a>
</g>
</g>
<!-- Node1&#45;&gt;Node2 -->
<g id="edge1" class="edge">
<title>Node1&#45;&gt;Node2</title>
<path fill="none" stroke="midnightblue" d="M104.42,-56.45C86.69,-45.76 66.69,-33.71 51.74,-24.7"/>
<polygon fill="midnightblue" stroke="midnightblue" points="53.52,-21.69 43.15,-19.53 49.91,-27.69 53.52,-21.69"/>
</g>
<!-- Node3 -->
<g id="node3" class="node">
<title>Node3</title>
<g id="a_node3"><a xlink:title=" ">
<polygon fill="white" stroke="#bfbfbf" points="76,-0.5 76,-19.5 216,-19.5 216,-0.5 76,-0.5"/>
<text text-anchor="middle" x="146" y="-7.5" font-family="Helvetica,sans-Serif" font-size="10.00">boost/asio/io_service.hpp</text>
</a>
</g>
</g>
<!-- Node1&#45;&gt;Node3 -->
<g id="edge2" class="edge">
<title>Node1&#45;&gt;Node3</title>
<path fill="none" stroke="midnightblue" d="M146,-56.45C146,-47.73 146,-38.1 146,-29.96"/>
<polygon fill="midnightblue" stroke="midnightblue" points="149.5,-29.7 146,-19.7 142.5,-29.7 149.5,-29.7"/>
</g>
<!-- Node4 -->
<g id="node4" class="node">
<title>Node4</title>
<g id="a_node4"><a xlink:title=" ">
<polygon fill="white" stroke="#bfbfbf" points="234.5,-0.5 234.5,-19.5 339.5,-19.5 339.5,-0.5 234.5,-0.5"/>
<text text-anchor="middle" x="287" y="-7.5" font-family="Helvetica,sans-Serif" font-size="10.00">vsomeip/error.hpp</text>
</a>
</g>
</g>
<!-- Node1&#45;&gt;Node4 -->
<g id="edge3" class="edge">
<title>Node1&#45;&gt;Node4</title>
<path fill="none" stroke="midnightblue" d="M196.11,-56.45C217.88,-45.56 242.49,-33.25 260.61,-24.2"/>
<polygon fill="midnightblue" stroke="midnightblue" points="262.57,-27.13 269.95,-19.53 259.44,-20.87 262.57,-27.13"/>
</g>
</g>
</svg>
