<?xml version="1.0" encoding="UTF-8" standalone="no"?>
<!DOCTYPE svg PUBLIC "-//W3C//DTD SVG 1.1//EN"
 "http://www.w3.org/Graphics/SVG/1.1/DTD/svg11.dtd">
<!-- Generated by graphviz version 2.43.0 (0)
 -->
<!-- Title: /home/kali/projects/vsomeip/implementation/routing/include/routing_manager_host.hpp Pages: 1 -->
<svg width="998pt" height="328pt"
 viewBox="0.00 0.00 998.00 328.00" xmlns="http://www.w3.org/2000/svg" xmlns:xlink="http://www.w3.org/1999/xlink">
<g id="graph0" class="graph" transform="scale(1 1) rotate(0) translate(4 324)">
<title>/home/kali/projects/vsomeip/implementation/routing/include/routing_manager_host.hpp</title>
<polygon fill="white" stroke="transparent" points="-4,4 -4,-324 994,-324 994,4 -4,4"/>
<!-- Node1 -->
<g id="node1" class="node">
<title>Node1</title>
<g id="a_node1"><a xlink:title=" ">
<polygon fill="#bfbfbf" stroke="black" points="576.5,-267.5 576.5,-319.5 719.5,-319.5 719.5,-267.5 576.5,-267.5"/>
<text text-anchor="start" x="584.5" y="-307.5" font-family="Helvetica,sans-Serif" font-size="10.00">/home/kali/projects</text>
<text text-anchor="start" x="584.5" y="-296.5" font-family="Helvetica,sans-Serif" font-size="10.00">/vsomeip/implementation</text>
<text text-anchor="start" x="584.5" y="-285.5" font-family="Helvetica,sans-Serif" font-size="10.00">/routing/include/routing</text>
<text text-anchor="middle" x="648" y="-274.5" font-family="Helvetica,sans-Serif" font-size="10.00">_manager_host.hpp</text>
</a>
</g>
</g>
<!-- Node2 -->
<g id="node2" class="node">
<title>Node2</title>
<g id="a_node2"><a xlink:href="routing__manager__base_8hpp.html" target="_top" xlink:title=" ">
<polygon fill="white" stroke="black" points="326.5,-178.5 326.5,-230.5 469.5,-230.5 469.5,-178.5 326.5,-178.5"/>
<text text-anchor="start" x="334.5" y="-218.5" font-family="Helvetica,sans-Serif" font-size="10.00">/home/kali/projects</text>
<text text-anchor="start" x="334.5" y="-207.5" font-family="Helvetica,sans-Serif" font-size="10.00">/vsomeip/implementation</text>
<text text-anchor="start" x="334.5" y="-196.5" font-family="Helvetica,sans-Serif" font-size="10.00">/routing/include/routing</text>
<text text-anchor="middle" x="398" y="-185.5" font-family="Helvetica,sans-Serif" font-size="10.00">_manager_base.hpp</text>
</a>
</g>
</g>
<!-- Node1&#45;&gt;Node2 -->
<g id="edge1" class="edge">
<title>Node1&#45;&gt;Node2</title>
<path fill="none" stroke="midnightblue" d="M566.79,-264.24C535.49,-253.35 499.99,-240.99 469.65,-230.43"/>
<polygon fill="midnightblue" stroke="midnightblue" points="565.77,-267.59 576.36,-267.57 568.07,-260.98 565.77,-267.59"/>
</g>
<!-- Node6 -->
<g id="node6" class="node">
<title>Node6</title>
<g id="a_node6"><a xlink:href="routing__manager__impl_8cpp.html" target="_top" xlink:title=" ">
<polygon fill="white" stroke="black" points="438,-0.5 438,-52.5 596,-52.5 596,-0.5 438,-0.5"/>
<text text-anchor="start" x="446" y="-40.5" font-family="Helvetica,sans-Serif" font-size="10.00">/home/kali/projects</text>
<text text-anchor="start" x="446" y="-29.5" font-family="Helvetica,sans-Serif" font-size="10.00">/vsomeip/implementation</text>
<text text-anchor="start" x="446" y="-18.5" font-family="Helvetica,sans-Serif" font-size="10.00">/routing/src/routing_manager</text>
<text text-anchor="middle" x="517" y="-7.5" font-family="Helvetica,sans-Serif" font-size="10.00">_impl.cpp</text>
</a>
</g>
</g>
<!-- Node1&#45;&gt;Node6 -->
<g id="edge12" class="edge">
<title>Node1&#45;&gt;Node6</title>
<path fill="none" stroke="midnightblue" d="M628.61,-258.4C611.67,-228.16 586.76,-182.62 567,-142 552.29,-111.77 537.07,-76.17 527.34,-52.79"/>
<polygon fill="midnightblue" stroke="midnightblue" points="625.64,-260.27 633.6,-267.27 631.75,-256.83 625.64,-260.27"/>
</g>
<!-- Node9 -->
<g id="node9" class="node">
<title>Node9</title>
<g id="a_node9"><a xlink:href="routing__manager__proxy_8cpp.html" target="_top" xlink:title=" ">
<polygon fill="white" stroke="black" points="832,-0.5 832,-52.5 990,-52.5 990,-0.5 832,-0.5"/>
<text text-anchor="start" x="840" y="-40.5" font-family="Helvetica,sans-Serif" font-size="10.00">/home/kali/projects</text>
<text text-anchor="start" x="840" y="-29.5" font-family="Helvetica,sans-Serif" font-size="10.00">/vsomeip/implementation</text>
<text text-anchor="start" x="840" y="-18.5" font-family="Helvetica,sans-Serif" font-size="10.00">/routing/src/routing_manager</text>
<text text-anchor="middle" x="911" y="-7.5" font-family="Helvetica,sans-Serif" font-size="10.00">_proxy.cpp</text>
</a>
</g>
</g>
<!-- Node1&#45;&gt;Node9 -->
<g id="edge13" class="edge">
<title>Node1&#45;&gt;Node9</title>
<path fill="none" stroke="midnightblue" d="M729.49,-279.47C803.97,-262.51 908.49,-224.58 949,-142 959.37,-120.85 955.44,-111.66 949,-89 945.33,-76.08 938.09,-63.22 930.9,-52.62"/>
<polygon fill="midnightblue" stroke="midnightblue" points="728.66,-276.07 719.65,-281.63 730.17,-282.91 728.66,-276.07"/>
</g>
<!-- Node11 -->
<g id="node11" class="node">
<title>Node11</title>
<g id="a_node11"><a xlink:href="runtime_2include_2application__impl_8hpp.html" target="_top" xlink:title=" ">
<polygon fill="white" stroke="black" points="671.5,-178.5 671.5,-230.5 824.5,-230.5 824.5,-178.5 671.5,-178.5"/>
<text text-anchor="start" x="679.5" y="-218.5" font-family="Helvetica,sans-Serif" font-size="10.00">/home/kali/projects</text>
<text text-anchor="start" x="679.5" y="-207.5" font-family="Helvetica,sans-Serif" font-size="10.00">/vsomeip/implementation</text>
<text text-anchor="start" x="679.5" y="-196.5" font-family="Helvetica,sans-Serif" font-size="10.00">/runtime/include/application</text>
<text text-anchor="middle" x="748" y="-185.5" font-family="Helvetica,sans-Serif" font-size="10.00">_impl.hpp</text>
</a>
</g>
</g>
<!-- Node1&#45;&gt;Node11 -->
<g id="edge14" class="edge">
<title>Node1&#45;&gt;Node11</title>
<path fill="none" stroke="midnightblue" d="M684.61,-260.65C695.99,-250.75 708.37,-239.98 719.14,-230.61"/>
<polygon fill="midnightblue" stroke="midnightblue" points="682.17,-258.13 676.92,-267.34 686.77,-263.41 682.17,-258.13"/>
</g>
<!-- Node3 -->
<g id="node3" class="node">
<title>Node3</title>
<g id="a_node3"><a xlink:href="endpoint__manager__base_8cpp.html" target="_top" xlink:title=" ">
<polygon fill="white" stroke="black" points="176.5,-89.5 176.5,-141.5 319.5,-141.5 319.5,-89.5 176.5,-89.5"/>
<text text-anchor="start" x="184.5" y="-129.5" font-family="Helvetica,sans-Serif" font-size="10.00">/home/kali/projects</text>
<text text-anchor="start" x="184.5" y="-118.5" font-family="Helvetica,sans-Serif" font-size="10.00">/vsomeip/implementation</text>
<text text-anchor="start" x="184.5" y="-107.5" font-family="Helvetica,sans-Serif" font-size="10.00">/endpoints/src/endpoint</text>
<text text-anchor="middle" x="248" y="-96.5" font-family="Helvetica,sans-Serif" font-size="10.00">_manager_base.cpp</text>
</a>
</g>
</g>
<!-- Node2&#45;&gt;Node3 -->
<g id="edge2" class="edge">
<title>Node2&#45;&gt;Node3</title>
<path fill="none" stroke="midnightblue" d="M345.54,-173.07C327.81,-162.79 308.23,-151.43 291.29,-141.61"/>
<polygon fill="midnightblue" stroke="midnightblue" points="344.21,-176.35 354.61,-178.34 347.72,-170.29 344.21,-176.35"/>
</g>
<!-- Node4 -->
<g id="node4" class="node">
<title>Node4</title>
<g id="a_node4"><a xlink:href="endpoint__manager__impl_8cpp.html" target="_top" xlink:title=" ">
<polygon fill="white" stroke="black" points="276.5,-0.5 276.5,-52.5 419.5,-52.5 419.5,-0.5 276.5,-0.5"/>
<text text-anchor="start" x="284.5" y="-40.5" font-family="Helvetica,sans-Serif" font-size="10.00">/home/kali/projects</text>
<text text-anchor="start" x="284.5" y="-29.5" font-family="Helvetica,sans-Serif" font-size="10.00">/vsomeip/implementation</text>
<text text-anchor="start" x="284.5" y="-18.5" font-family="Helvetica,sans-Serif" font-size="10.00">/endpoints/src/endpoint</text>
<text text-anchor="middle" x="348" y="-7.5" font-family="Helvetica,sans-Serif" font-size="10.00">_manager_impl.cpp</text>
</a>
</g>
</g>
<!-- Node2&#45;&gt;Node4 -->
<g id="edge3" class="edge">
<title>Node2&#45;&gt;Node4</title>
<path fill="none" stroke="midnightblue" d="M378.41,-169.17C374.12,-160.52 369.97,-151.1 367,-142 357.24,-112.12 352.32,-76.14 349.97,-52.59"/>
<polygon fill="midnightblue" stroke="midnightblue" points="375.38,-170.93 383.08,-178.21 381.6,-167.72 375.38,-170.93"/>
</g>
<!-- Node5 -->
<g id="node5" class="node">
<title>Node5</title>
<g id="a_node5"><a xlink:href="routing__manager__impl_8hpp.html" target="_top" xlink:title=" ">
<polygon fill="white" stroke="black" points="376.5,-89.5 376.5,-141.5 519.5,-141.5 519.5,-89.5 376.5,-89.5"/>
<text text-anchor="start" x="384.5" y="-129.5" font-family="Helvetica,sans-Serif" font-size="10.00">/home/kali/projects</text>
<text text-anchor="start" x="384.5" y="-118.5" font-family="Helvetica,sans-Serif" font-size="10.00">/vsomeip/implementation</text>
<text text-anchor="start" x="384.5" y="-107.5" font-family="Helvetica,sans-Serif" font-size="10.00">/routing/include/routing</text>
<text text-anchor="middle" x="448" y="-96.5" font-family="Helvetica,sans-Serif" font-size="10.00">_manager_impl.hpp</text>
</a>
</g>
</g>
<!-- Node2&#45;&gt;Node5 -->
<g id="edge4" class="edge">
<title>Node2&#45;&gt;Node5</title>
<path fill="none" stroke="midnightblue" d="M417.46,-169.64C422.82,-160.31 428.55,-150.35 433.57,-141.61"/>
<polygon fill="midnightblue" stroke="midnightblue" points="414.41,-167.92 412.46,-178.34 420.48,-171.41 414.41,-167.92"/>
</g>
<!-- Node8 -->
<g id="node8" class="node">
<title>Node8</title>
<g id="a_node8"><a xlink:href="routing__manager__proxy_8hpp.html" target="_top" xlink:title=" ">
<polygon fill="white" stroke="black" points="576.5,-89.5 576.5,-141.5 719.5,-141.5 719.5,-89.5 576.5,-89.5"/>
<text text-anchor="start" x="584.5" y="-129.5" font-family="Helvetica,sans-Serif" font-size="10.00">/home/kali/projects</text>
<text text-anchor="start" x="584.5" y="-118.5" font-family="Helvetica,sans-Serif" font-size="10.00">/vsomeip/implementation</text>
<text text-anchor="start" x="584.5" y="-107.5" font-family="Helvetica,sans-Serif" font-size="10.00">/routing/include/routing</text>
<text text-anchor="middle" x="648" y="-96.5" font-family="Helvetica,sans-Serif" font-size="10.00">_manager_proxy.hpp</text>
</a>
</g>
</g>
<!-- Node2&#45;&gt;Node8 -->
<g id="edge8" class="edge">
<title>Node2&#45;&gt;Node8</title>
<path fill="none" stroke="midnightblue" d="M479.21,-175.24C510.51,-164.35 546.01,-151.99 576.35,-141.43"/>
<polygon fill="midnightblue" stroke="midnightblue" points="477.93,-171.98 469.64,-178.57 480.23,-178.59 477.93,-171.98"/>
</g>
<!-- Node10 -->
<g id="node10" class="node">
<title>Node10</title>
<g id="a_node10"><a xlink:href="routing__manager__base_8cpp.html" target="_top" xlink:title=" ">
<polygon fill="white" stroke="black" points="0,-89.5 0,-141.5 158,-141.5 158,-89.5 0,-89.5"/>
<text text-anchor="start" x="8" y="-129.5" font-family="Helvetica,sans-Serif" font-size="10.00">/home/kali/projects</text>
<text text-anchor="start" x="8" y="-118.5" font-family="Helvetica,sans-Serif" font-size="10.00">/vsomeip/implementation</text>
<text text-anchor="start" x="8" y="-107.5" font-family="Helvetica,sans-Serif" font-size="10.00">/routing/src/routing_manager</text>
<text text-anchor="middle" x="79" y="-96.5" font-family="Helvetica,sans-Serif" font-size="10.00">_base.cpp</text>
</a>
</g>
</g>
<!-- Node2&#45;&gt;Node10 -->
<g id="edge11" class="edge">
<title>Node2&#45;&gt;Node10</title>
<path fill="none" stroke="midnightblue" d="M316.51,-182.27C272.22,-170.61 216.53,-155.77 167,-142 164.09,-141.19 161.12,-140.36 158.13,-139.52"/>
<polygon fill="midnightblue" stroke="midnightblue" points="315.79,-185.7 326.35,-184.86 317.57,-178.93 315.79,-185.7"/>
</g>
<!-- Node5&#45;&gt;Node4 -->
<g id="edge5" class="edge">
<title>Node5&#45;&gt;Node4</title>
<path fill="none" stroke="midnightblue" d="M411.39,-82.65C400.01,-72.75 387.63,-61.98 376.86,-52.61"/>
<polygon fill="midnightblue" stroke="midnightblue" points="409.23,-85.41 419.08,-89.34 413.83,-80.13 409.23,-85.41"/>
</g>
<!-- Node5&#45;&gt;Node6 -->
<g id="edge6" class="edge">
<title>Node5&#45;&gt;Node6</title>
<path fill="none" stroke="midnightblue" d="M474.4,-81.22C481.93,-71.72 490.01,-61.53 497.09,-52.61"/>
<polygon fill="midnightblue" stroke="midnightblue" points="471.43,-79.33 467.96,-89.34 476.91,-83.68 471.43,-79.33"/>
</g>
<!-- Node7 -->
<g id="node7" class="node">
<title>Node7</title>
<g id="a_node7"><a xlink:href="runtime_2src_2application__impl_8cpp.html" target="_top" xlink:title=" ">
<polygon fill="white" stroke="black" points="614.5,-0.5 614.5,-52.5 757.5,-52.5 757.5,-0.5 614.5,-0.5"/>
<text text-anchor="start" x="622.5" y="-40.5" font-family="Helvetica,sans-Serif" font-size="10.00">/home/kali/projects</text>
<text text-anchor="start" x="622.5" y="-29.5" font-family="Helvetica,sans-Serif" font-size="10.00">/vsomeip/implementation</text>
<text text-anchor="start" x="622.5" y="-18.5" font-family="Helvetica,sans-Serif" font-size="10.00">/runtime/src/application</text>
<text text-anchor="middle" x="686" y="-7.5" font-family="Helvetica,sans-Serif" font-size="10.00">_impl.cpp</text>
</a>
</g>
</g>
<!-- Node5&#45;&gt;Node7 -->
<g id="edge7" class="edge">
<title>Node5&#45;&gt;Node7</title>
<path fill="none" stroke="midnightblue" d="M525.97,-86C555.53,-75.19 588.94,-62.98 617.55,-52.52"/>
<polygon fill="midnightblue" stroke="midnightblue" points="524.71,-82.73 516.52,-89.45 527.11,-89.31 524.71,-82.73"/>
</g>
<!-- Node8&#45;&gt;Node7 -->
<g id="edge10" class="edge">
<title>Node8&#45;&gt;Node7</title>
<path fill="none" stroke="midnightblue" d="M663.04,-80.06C667.05,-70.9 671.29,-61.17 675.03,-52.61"/>
<polygon fill="midnightblue" stroke="midnightblue" points="659.79,-78.77 658.99,-89.34 666.2,-81.57 659.79,-78.77"/>
</g>
<!-- Node8&#45;&gt;Node9 -->
<g id="edge9" class="edge">
<title>Node8&#45;&gt;Node9</title>
<path fill="none" stroke="midnightblue" d="M729.37,-87.58C763.17,-76.4 802.18,-63.5 835.36,-52.52"/>
<polygon fill="midnightblue" stroke="midnightblue" points="727.91,-84.38 719.52,-90.84 730.11,-91.02 727.91,-84.38"/>
</g>
<!-- Node11&#45;&gt;Node7 -->
<g id="edge15" class="edge">
<title>Node11&#45;&gt;Node7</title>
<path fill="none" stroke="midnightblue" d="M745.71,-168C743.28,-144.83 738.28,-114.29 728,-89 722.79,-76.18 714.6,-63.34 706.83,-52.72"/>
<polygon fill="midnightblue" stroke="midnightblue" points="742.24,-168.46 746.65,-178.09 749.21,-167.8 742.24,-168.46"/>
</g>
<!-- Node12 -->
<g id="node12" class="node">
<title>Node12</title>
<g id="a_node12"><a xlink:href="runtime_2src_2runtime__impl_8cpp.html" target="_top" xlink:title=" ">
<polygon fill="white" stroke="black" points="776,-95 776,-136 940,-136 940,-95 776,-95"/>
<text text-anchor="start" x="784" y="-124" font-family="Helvetica,sans-Serif" font-size="10.00">/home/kali/projects</text>
<text text-anchor="start" x="784" y="-113" font-family="Helvetica,sans-Serif" font-size="10.00">/vsomeip/implementation</text>
<text text-anchor="middle" x="858" y="-102" font-family="Helvetica,sans-Serif" font-size="10.00">/runtime/src/runtime_impl.cpp</text>
</a>
</g>
</g>
<!-- Node11&#45;&gt;Node12 -->
<g id="edge16" class="edge">
<title>Node11&#45;&gt;Node12</title>
<path fill="none" stroke="midnightblue" d="M788.02,-171.85C803.15,-159.88 819.91,-146.62 833.24,-136.08"/>
<polygon fill="midnightblue" stroke="midnightblue" points="785.49,-169.39 779.82,-178.34 789.83,-174.88 785.49,-169.39"/>
</g>
</g>
</svg>
