<?xml version="1.0" encoding="UTF-8" standalone="no"?>
<!DOCTYPE svg PUBLIC "-//W3C//DTD SVG 1.1//EN"
 "http://www.w3.org/Graphics/SVG/1.1/DTD/svg11.dtd">
<!-- Generated by graphviz version 2.43.0 (0)
 -->
<!-- Title: /home/kali/projects/vsomeip/implementation/runtime/src/runtime.cpp Pages: 1 -->
<svg width="603pt" height="251pt"
 viewBox="0.00 0.00 602.50 251.00" xmlns="http://www.w3.org/2000/svg" xmlns:xlink="http://www.w3.org/1999/xlink">
<g id="graph0" class="graph" transform="scale(1 1) rotate(0) translate(4 247)">
<title>/home/kali/projects/vsomeip/implementation/runtime/src/runtime.cpp</title>
<polygon fill="white" stroke="transparent" points="-4,4 -4,-247 598.5,-247 598.5,4 -4,4"/>
<!-- Node1 -->
<g id="node1" class="node">
<title>Node1</title>
<g id="a_node1"><a xlink:title=" ">
<polygon fill="#bfbfbf" stroke="black" points="193,-201.5 193,-242.5 336,-242.5 336,-201.5 193,-201.5"/>
<text text-anchor="start" x="201" y="-230.5" font-family="Helvetica,sans-Serif" font-size="10.00">/home/kali/projects</text>
<text text-anchor="start" x="201" y="-219.5" font-family="Helvetica,sans-Serif" font-size="10.00">/vsomeip/implementation</text>
<text text-anchor="middle" x="264.5" y="-208.5" font-family="Helvetica,sans-Serif" font-size="10.00">/runtime/src/runtime.cpp</text>
</a>
</g>
</g>
<!-- Node2 -->
<g id="node2" class="node">
<title>Node2</title>
<g id="a_node2"><a xlink:title=" ">
<polygon fill="white" stroke="#bfbfbf" points="0,-62 0,-81 121,-81 121,-62 0,-62"/>
<text text-anchor="middle" x="60.5" y="-69" font-family="Helvetica,sans-Serif" font-size="10.00">vsomeip/runtime.hpp</text>
</a>
</g>
</g>
<!-- Node1&#45;&gt;Node2 -->
<g id="edge1" class="edge">
<title>Node1&#45;&gt;Node2</title>
<path fill="none" stroke="midnightblue" d="M192.77,-213.27C132.49,-205.12 53.11,-189.93 33.5,-165 15.92,-142.65 33.59,-109.2 47.45,-89.25"/>
<polygon fill="midnightblue" stroke="midnightblue" points="50.32,-91.25 53.41,-81.11 44.67,-87.11 50.32,-91.25"/>
</g>
<!-- Node3 -->
<g id="node3" class="node">
<title>Node3</title>
<g id="a_node3"><a xlink:title=" ">
<polygon fill="white" stroke="#bfbfbf" points="43,-134.5 43,-153.5 156,-153.5 156,-134.5 43,-134.5"/>
<text text-anchor="middle" x="99.5" y="-141.5" font-family="Helvetica,sans-Serif" font-size="10.00">vsomeip/plugin.hpp</text>
</a>
</g>
</g>
<!-- Node1&#45;&gt;Node3 -->
<g id="edge2" class="edge">
<title>Node1&#45;&gt;Node3</title>
<path fill="none" stroke="midnightblue" d="M222.01,-201.43C192.21,-187.7 153.21,-169.74 127.31,-157.81"/>
<polygon fill="midnightblue" stroke="midnightblue" points="128.61,-154.56 118.07,-153.55 125.69,-160.91 128.61,-154.56"/>
</g>
<!-- Node4 -->
<g id="node4" class="node">
<title>Node4</title>
<g id="a_node4"><a xlink:href="runtime_2include_2runtime__impl_8hpp.html" target="_top" xlink:title=" ">
<polygon fill="white" stroke="black" points="174.5,-129 174.5,-159 276.5,-159 276.5,-129 174.5,-129"/>
<text text-anchor="start" x="182.5" y="-147" font-family="Helvetica,sans-Serif" font-size="10.00">../include/runtime</text>
<text text-anchor="middle" x="225.5" y="-136" font-family="Helvetica,sans-Serif" font-size="10.00">_impl.hpp</text>
</a>
</g>
</g>
<!-- Node1&#45;&gt;Node4 -->
<g id="edge3" class="edge">
<title>Node1&#45;&gt;Node4</title>
<path fill="none" stroke="midnightblue" d="M254.46,-201.43C249.27,-191.33 242.91,-178.93 237.47,-168.33"/>
<polygon fill="midnightblue" stroke="midnightblue" points="240.48,-166.52 232.8,-159.23 234.25,-169.72 240.48,-166.52"/>
</g>
<!-- Node7 -->
<g id="node7" class="node">
<title>Node7</title>
<g id="a_node7"><a xlink:href="endpoint_8hpp.html" target="_top" xlink:title=" ">
<polygon fill="white" stroke="black" points="309,-56.5 309,-86.5 430,-86.5 430,-56.5 309,-56.5"/>
<text text-anchor="start" x="317" y="-74.5" font-family="Helvetica,sans-Serif" font-size="10.00">../../endpoints/include</text>
<text text-anchor="middle" x="369.5" y="-63.5" font-family="Helvetica,sans-Serif" font-size="10.00">/endpoint.hpp</text>
</a>
</g>
</g>
<!-- Node1&#45;&gt;Node7 -->
<g id="edge7" class="edge">
<title>Node1&#45;&gt;Node7</title>
<path fill="none" stroke="midnightblue" d="M274.75,-201.5C285.76,-181.19 304.28,-148.8 323.5,-123 330.88,-113.1 339.86,-102.9 347.93,-94.28"/>
<polygon fill="midnightblue" stroke="midnightblue" points="350.64,-96.51 355.01,-86.86 345.57,-91.68 350.64,-96.51"/>
</g>
<!-- Node12 -->
<g id="node12" class="node">
<title>Node12</title>
<g id="a_node12"><a xlink:href="client__endpoint_8hpp.html" target="_top" xlink:title=" ">
<polygon fill="white" stroke="black" points="333,-129 333,-159 454,-159 454,-129 333,-129"/>
<text text-anchor="start" x="341" y="-147" font-family="Helvetica,sans-Serif" font-size="10.00">../../endpoints/include</text>
<text text-anchor="middle" x="393.5" y="-136" font-family="Helvetica,sans-Serif" font-size="10.00">/client_endpoint.hpp</text>
</a>
</g>
</g>
<!-- Node1&#45;&gt;Node12 -->
<g id="edge12" class="edge">
<title>Node1&#45;&gt;Node12</title>
<path fill="none" stroke="midnightblue" d="M297.72,-201.43C317.05,-190.04 341.34,-175.73 360.61,-164.38"/>
<polygon fill="midnightblue" stroke="midnightblue" points="362.52,-167.32 369.35,-159.23 358.96,-161.29 362.52,-167.32"/>
</g>
<!-- Node13 -->
<g id="node13" class="node">
<title>Node13</title>
<g id="a_node13"><a xlink:href="configuration__plugin_8hpp.html" target="_top" xlink:title=" ">
<polygon fill="white" stroke="black" points="472.5,-123.5 472.5,-164.5 594.5,-164.5 594.5,-123.5 472.5,-123.5"/>
<text text-anchor="start" x="480.5" y="-152.5" font-family="Helvetica,sans-Serif" font-size="10.00">../../configuration</text>
<text text-anchor="start" x="480.5" y="-141.5" font-family="Helvetica,sans-Serif" font-size="10.00">/include/configuration</text>
<text text-anchor="middle" x="533.5" y="-130.5" font-family="Helvetica,sans-Serif" font-size="10.00">_plugin.hpp</text>
</a>
</g>
</g>
<!-- Node1&#45;&gt;Node13 -->
<g id="edge14" class="edge">
<title>Node1&#45;&gt;Node13</title>
<path fill="none" stroke="midnightblue" d="M333.77,-201.43C373.32,-190.25 422.8,-176.28 462.61,-165.03"/>
<polygon fill="midnightblue" stroke="midnightblue" points="463.58,-168.39 472.25,-162.3 461.68,-161.66 463.58,-168.39"/>
</g>
<!-- Node4&#45;&gt;Node2 -->
<g id="edge4" class="edge">
<title>Node4&#45;&gt;Node2</title>
<path fill="none" stroke="midnightblue" d="M192.51,-128.9C162.56,-116.11 118.8,-97.41 89.99,-85.1"/>
<polygon fill="midnightblue" stroke="midnightblue" points="91.04,-81.74 80.47,-81.03 88.29,-88.18 91.04,-81.74"/>
</g>
<!-- Node5 -->
<g id="node5" class="node">
<title>Node5</title>
<g id="a_node5"><a xlink:title=" ">
<polygon fill="white" stroke="#bfbfbf" points="165.5,-62 165.5,-81 203.5,-81 203.5,-62 165.5,-62"/>
<text text-anchor="middle" x="184.5" y="-69" font-family="Helvetica,sans-Serif" font-size="10.00">map</text>
</a>
</g>
</g>
<!-- Node4&#45;&gt;Node5 -->
<g id="edge5" class="edge">
<title>Node4&#45;&gt;Node5</title>
<path fill="none" stroke="midnightblue" d="M217.2,-128.73C210.77,-117.67 201.81,-102.27 194.9,-90.38"/>
<polygon fill="midnightblue" stroke="midnightblue" points="197.72,-88.28 189.67,-81.39 191.67,-91.8 197.72,-88.28"/>
</g>
<!-- Node6 -->
<g id="node6" class="node">
<title>Node6</title>
<g id="a_node6"><a xlink:title=" ">
<polygon fill="white" stroke="#bfbfbf" points="221.5,-62 221.5,-81 269.5,-81 269.5,-62 221.5,-62"/>
<text text-anchor="middle" x="245.5" y="-69" font-family="Helvetica,sans-Serif" font-size="10.00">mutex</text>
</a>
</g>
</g>
<!-- Node4&#45;&gt;Node6 -->
<g id="edge6" class="edge">
<title>Node4&#45;&gt;Node6</title>
<path fill="none" stroke="midnightblue" d="M229.55,-128.73C232.62,-117.89 236.88,-102.88 240.22,-91.1"/>
<polygon fill="midnightblue" stroke="midnightblue" points="243.61,-91.97 242.98,-81.39 236.88,-90.06 243.61,-91.97"/>
</g>
<!-- Node8 -->
<g id="node8" class="node">
<title>Node8</title>
<g id="a_node8"><a xlink:title=" ">
<polygon fill="white" stroke="#bfbfbf" points="50,-0.5 50,-19.5 191,-19.5 191,-0.5 50,-0.5"/>
<text text-anchor="middle" x="120.5" y="-7.5" font-family="Helvetica,sans-Serif" font-size="10.00">boost/asio/ip/address.hpp</text>
</a>
</g>
</g>
<!-- Node7&#45;&gt;Node8 -->
<g id="edge8" class="edge">
<title>Node7&#45;&gt;Node8</title>
<path fill="none" stroke="midnightblue" d="M310.81,-56.47C266.54,-45.9 206.69,-31.59 166.01,-21.87"/>
<polygon fill="midnightblue" stroke="midnightblue" points="166.64,-18.43 156.1,-19.51 165.01,-25.23 166.64,-18.43"/>
</g>
<!-- Node9 -->
<g id="node9" class="node">
<title>Node9</title>
<g id="a_node9"><a xlink:title=" ">
<polygon fill="white" stroke="#bfbfbf" points="209,-0.5 209,-19.5 368,-19.5 368,-0.5 209,-0.5"/>
<text text-anchor="middle" x="288.5" y="-7.5" font-family="Helvetica,sans-Serif" font-size="10.00">vsomeip/primitive_types.hpp</text>
</a>
</g>
</g>
<!-- Node7&#45;&gt;Node9 -->
<g id="edge9" class="edge">
<title>Node7&#45;&gt;Node9</title>
<path fill="none" stroke="midnightblue" d="M350.3,-56.4C337.68,-47.13 321.21,-35.03 308.44,-25.65"/>
<polygon fill="midnightblue" stroke="midnightblue" points="310.42,-22.76 300.29,-19.66 306.27,-28.4 310.42,-22.76"/>
</g>
<!-- Node10 -->
<g id="node10" class="node">
<title>Node10</title>
<g id="a_node10"><a xlink:title=" ">
<polygon fill="white" stroke="#bfbfbf" points="386.5,-0.5 386.5,-19.5 516.5,-19.5 516.5,-0.5 386.5,-0.5"/>
<text text-anchor="middle" x="451.5" y="-7.5" font-family="Helvetica,sans-Serif" font-size="10.00">vsomeip/constants.hpp</text>
</a>
</g>
</g>
<!-- Node7&#45;&gt;Node10 -->
<g id="edge10" class="edge">
<title>Node7&#45;&gt;Node10</title>
<path fill="none" stroke="midnightblue" d="M388.93,-56.4C401.71,-47.13 418.39,-35.03 431.31,-25.65"/>
<polygon fill="midnightblue" stroke="midnightblue" points="433.53,-28.36 439.57,-19.66 429.42,-22.7 433.53,-28.36"/>
</g>
<!-- Node11 -->
<g id="node11" class="node">
<title>Node11</title>
<g id="a_node11"><a xlink:title=" ">
<polygon fill="white" stroke="#bfbfbf" points="535,-0.5 535,-19.5 582,-19.5 582,-0.5 535,-0.5"/>
<text text-anchor="middle" x="558.5" y="-7.5" font-family="Helvetica,sans-Serif" font-size="10.00">vector</text>
</a>
</g>
</g>
<!-- Node7&#45;&gt;Node11 -->
<g id="edge11" class="edge">
<title>Node7&#45;&gt;Node11</title>
<path fill="none" stroke="midnightblue" d="M414.29,-56.4C448.22,-45.72 494.11,-31.27 524.93,-21.57"/>
<polygon fill="midnightblue" stroke="midnightblue" points="526.28,-24.81 534.76,-18.47 524.17,-18.14 526.28,-24.81"/>
</g>
<!-- Node12&#45;&gt;Node7 -->
<g id="edge13" class="edge">
<title>Node12&#45;&gt;Node7</title>
<path fill="none" stroke="midnightblue" d="M388.64,-128.73C385.49,-119.46 381.3,-107.15 377.64,-96.41"/>
<polygon fill="midnightblue" stroke="midnightblue" points="380.89,-95.08 374.35,-86.75 374.26,-97.34 380.89,-95.08"/>
</g>
<!-- Node14 -->
<g id="node14" class="node">
<title>Node14</title>
<g id="a_node14"><a xlink:title=" ">
<polygon fill="white" stroke="#bfbfbf" points="465.5,-62 465.5,-81 509.5,-81 509.5,-62 465.5,-62"/>
<text text-anchor="middle" x="487.5" y="-69" font-family="Helvetica,sans-Serif" font-size="10.00">string</text>
</a>
</g>
</g>
<!-- Node13&#45;&gt;Node14 -->
<g id="edge15" class="edge">
<title>Node13&#45;&gt;Node14</title>
<path fill="none" stroke="midnightblue" d="M520.69,-123.36C513.77,-112.76 505.3,-99.79 498.66,-89.6"/>
<polygon fill="midnightblue" stroke="midnightblue" points="501.55,-87.64 493.16,-81.17 495.69,-91.46 501.55,-87.64"/>
</g>
<!-- Node15 -->
<g id="node15" class="node">
<title>Node15</title>
<g id="a_node15"><a xlink:title=" ">
<polygon fill="white" stroke="#bfbfbf" points="527.5,-62 527.5,-81 585.5,-81 585.5,-62 527.5,-62"/>
<text text-anchor="middle" x="556.5" y="-69" font-family="Helvetica,sans-Serif" font-size="10.00">memory</text>
</a>
</g>
</g>
<!-- Node13&#45;&gt;Node15 -->
<g id="edge16" class="edge">
<title>Node13&#45;&gt;Node15</title>
<path fill="none" stroke="midnightblue" d="M539.91,-123.36C543.23,-113.19 547.25,-100.84 550.51,-90.86"/>
<polygon fill="midnightblue" stroke="midnightblue" points="553.9,-91.77 553.67,-81.17 547.24,-89.59 553.9,-91.77"/>
</g>
</g>
</svg>
