<?xml version="1.0" encoding="UTF-8" standalone="no"?>
<!DOCTYPE svg PUBLIC "-//W3C//DTD SVG 1.1//EN"
 "http://www.w3.org/Graphics/SVG/1.1/DTD/svg11.dtd">
<!-- Generated by graphviz version 2.43.0 (0)
 -->
<!-- Title: /home/kali/projects/vsomeip/implementation/runtime/src/runtime_impl.cpp Pages: 1 -->
<svg width="2184pt" height="307pt"
 viewBox="0.00 0.00 2183.50 307.00" xmlns="http://www.w3.org/2000/svg" xmlns:xlink="http://www.w3.org/1999/xlink">
<g id="graph0" class="graph" transform="scale(1 1) rotate(0) translate(4 303)">
<title>/home/kali/projects/vsomeip/implementation/runtime/src/runtime_impl.cpp</title>
<polygon fill="white" stroke="transparent" points="-4,4 -4,-303 2179.5,-303 2179.5,4 -4,4"/>
<!-- Node1 -->
<g id="node1" class="node">
<title>Node1</title>
<g id="a_node1"><a xlink:title=" ">
<polygon fill="#bfbfbf" stroke="black" points="794.5,-257.5 794.5,-298.5 958.5,-298.5 958.5,-257.5 794.5,-257.5"/>
<text text-anchor="start" x="802.5" y="-286.5" font-family="Helvetica,sans-Serif" font-size="10.00">/home/kali/projects</text>
<text text-anchor="start" x="802.5" y="-275.5" font-family="Helvetica,sans-Serif" font-size="10.00">/vsomeip/implementation</text>
<text text-anchor="middle" x="876.5" y="-264.5" font-family="Helvetica,sans-Serif" font-size="10.00">/runtime/src/runtime_impl.cpp</text>
</a>
</g>
</g>
<!-- Node2 -->
<g id="node2" class="node">
<title>Node2</title>
<g id="a_node2"><a xlink:title=" ">
<polygon fill="white" stroke="#bfbfbf" points="32.5,-196 32.5,-215 150.5,-215 150.5,-196 32.5,-196"/>
<text text-anchor="middle" x="91.5" y="-203" font-family="Helvetica,sans-Serif" font-size="10.00">vsomeip/defines.hpp</text>
</a>
</g>
</g>
<!-- Node1&#45;&gt;Node2 -->
<g id="edge1" class="edge">
<title>Node1&#45;&gt;Node2</title>
<path fill="none" stroke="midnightblue" d="M794.39,-274.12C660.74,-268.63 388.1,-254.15 159.5,-221 152.27,-219.95 144.66,-218.59 137.26,-217.12"/>
<polygon fill="midnightblue" stroke="midnightblue" points="137.84,-213.67 127.34,-215.07 136.42,-220.52 137.84,-213.67"/>
</g>
<!-- Node3 -->
<g id="node3" class="node">
<title>Node3</title>
<g id="a_node3"><a xlink:href="runtime_2include_2application__impl_8hpp.html" target="_top" xlink:title=" ">
<polygon fill="white" stroke="black" points="817.5,-190.5 817.5,-220.5 935.5,-220.5 935.5,-190.5 817.5,-190.5"/>
<text text-anchor="start" x="825.5" y="-208.5" font-family="Helvetica,sans-Serif" font-size="10.00">../include/application</text>
<text text-anchor="middle" x="876.5" y="-197.5" font-family="Helvetica,sans-Serif" font-size="10.00">_impl.hpp</text>
</a>
</g>
</g>
<!-- Node1&#45;&gt;Node3 -->
<g id="edge2" class="edge">
<title>Node1&#45;&gt;Node3</title>
<path fill="none" stroke="midnightblue" d="M876.5,-257.36C876.5,-249.23 876.5,-239.7 876.5,-231.11"/>
<polygon fill="midnightblue" stroke="midnightblue" points="880,-230.89 876.5,-220.89 873,-230.89 880,-230.89"/>
</g>
<!-- Node26 -->
<g id="node26" class="node">
<title>Node26</title>
<g id="a_node26"><a xlink:href="runtime_2include_2runtime__impl_8hpp.html" target="_top" xlink:title=" ">
<polygon fill="white" stroke="black" points="168.5,-190.5 168.5,-220.5 270.5,-220.5 270.5,-190.5 168.5,-190.5"/>
<text text-anchor="start" x="176.5" y="-208.5" font-family="Helvetica,sans-Serif" font-size="10.00">../include/runtime</text>
<text text-anchor="middle" x="219.5" y="-197.5" font-family="Helvetica,sans-Serif" font-size="10.00">_impl.hpp</text>
</a>
</g>
</g>
<!-- Node1&#45;&gt;Node26 -->
<g id="edge25" class="edge">
<title>Node1&#45;&gt;Node26</title>
<path fill="none" stroke="midnightblue" d="M794.29,-268.18C660.63,-253.84 399.24,-225.79 280.63,-213.06"/>
<polygon fill="midnightblue" stroke="midnightblue" points="280.95,-209.57 270.63,-211.99 280.2,-216.53 280.95,-209.57"/>
</g>
<!-- Node28 -->
<g id="node28" class="node">
<title>Node28</title>
<g id="a_node28"><a xlink:href="message_2include_2message__impl_8hpp.html" target="_top" xlink:title=" ">
<polygon fill="white" stroke="black" points="1582,-190.5 1582,-220.5 1699,-220.5 1699,-190.5 1582,-190.5"/>
<text text-anchor="start" x="1590" y="-208.5" font-family="Helvetica,sans-Serif" font-size="10.00">../../message/include</text>
<text text-anchor="middle" x="1640.5" y="-197.5" font-family="Helvetica,sans-Serif" font-size="10.00">/message_impl.hpp</text>
</a>
</g>
</g>
<!-- Node1&#45;&gt;Node28 -->
<g id="edge29" class="edge">
<title>Node1&#45;&gt;Node28</title>
<path fill="none" stroke="midnightblue" d="M958.62,-269.42C1110.05,-255.45 1430.64,-225.87 1571.57,-212.86"/>
<polygon fill="midnightblue" stroke="midnightblue" points="1572.18,-216.32 1581.81,-211.92 1571.53,-209.35 1572.18,-216.32"/>
</g>
<!-- Node35 -->
<g id="node35" class="node">
<title>Node35</title>
<g id="a_node35"><a xlink:href="message_2include_2payload__impl_8hpp.html" target="_top" xlink:title=" ">
<polygon fill="white" stroke="black" points="1967,-190.5 1967,-220.5 2084,-220.5 2084,-190.5 1967,-190.5"/>
<text text-anchor="start" x="1975" y="-208.5" font-family="Helvetica,sans-Serif" font-size="10.00">../../message/include</text>
<text text-anchor="middle" x="2025.5" y="-197.5" font-family="Helvetica,sans-Serif" font-size="10.00">/payload_impl.hpp</text>
</a>
</g>
</g>
<!-- Node1&#45;&gt;Node35 -->
<g id="edge42" class="edge">
<title>Node1&#45;&gt;Node35</title>
<path fill="none" stroke="midnightblue" d="M958.67,-271.96C1174.87,-258.69 1756.65,-223 1956.77,-210.72"/>
<polygon fill="midnightblue" stroke="midnightblue" points="1957.09,-214.2 1966.86,-210.1 1956.67,-207.22 1957.09,-214.2"/>
</g>
<!-- Node4 -->
<g id="node4" class="node">
<title>Node4</title>
<g id="a_node4"><a xlink:title=" ">
<polygon fill="white" stroke="#bfbfbf" points="659.5,-129 659.5,-148 709.5,-148 709.5,-129 659.5,-129"/>
<text text-anchor="middle" x="684.5" y="-136" font-family="Helvetica,sans-Serif" font-size="10.00">atomic</text>
</a>
</g>
</g>
<!-- Node3&#45;&gt;Node4 -->
<g id="edge3" class="edge">
<title>Node3&#45;&gt;Node4</title>
<path fill="none" stroke="midnightblue" d="M828.39,-190.41C796.88,-180.86 754.94,-167.56 718.5,-154 716.85,-153.38 715.16,-152.73 713.45,-152.06"/>
<polygon fill="midnightblue" stroke="midnightblue" points="714.37,-148.66 703.79,-148.1 711.71,-155.13 714.37,-148.66"/>
</g>
<!-- Node5 -->
<g id="node5" class="node">
<title>Node5</title>
<g id="a_node5"><a xlink:title=" ">
<polygon fill="white" stroke="#bfbfbf" points="728,-129 728,-148 835,-148 835,-129 728,-129"/>
<text text-anchor="middle" x="781.5" y="-136" font-family="Helvetica,sans-Serif" font-size="10.00">condition_variable</text>
</a>
</g>
</g>
<!-- Node3&#45;&gt;Node5 -->
<g id="edge4" class="edge">
<title>Node3&#45;&gt;Node5</title>
<path fill="none" stroke="midnightblue" d="M855.89,-190.4C840.1,-179.6 818.41,-164.76 802.53,-153.89"/>
<polygon fill="midnightblue" stroke="midnightblue" points="804.16,-150.77 793.93,-148.01 800.21,-156.54 804.16,-150.77"/>
</g>
<!-- Node6 -->
<g id="node6" class="node">
<title>Node6</title>
<g id="a_node6"><a xlink:title=" ">
<polygon fill="white" stroke="#bfbfbf" points="853,-129 853,-148 900,-148 900,-129 853,-129"/>
<text text-anchor="middle" x="876.5" y="-136" font-family="Helvetica,sans-Serif" font-size="10.00">deque</text>
</a>
</g>
</g>
<!-- Node3&#45;&gt;Node6 -->
<g id="edge5" class="edge">
<title>Node3&#45;&gt;Node6</title>
<path fill="none" stroke="midnightblue" d="M876.5,-190.4C876.5,-181.06 876.5,-168.71 876.5,-158.52"/>
<polygon fill="midnightblue" stroke="midnightblue" points="880,-158.19 876.5,-148.19 873,-158.19 880,-158.19"/>
</g>
<!-- Node7 -->
<g id="node7" class="node">
<title>Node7</title>
<g id="a_node7"><a xlink:title=" ">
<polygon fill="white" stroke="#bfbfbf" points="139.5,-129 139.5,-148 177.5,-148 177.5,-129 139.5,-129"/>
<text text-anchor="middle" x="158.5" y="-136" font-family="Helvetica,sans-Serif" font-size="10.00">map</text>
</a>
</g>
</g>
<!-- Node3&#45;&gt;Node7 -->
<g id="edge6" class="edge">
<title>Node3&#45;&gt;Node7</title>
<path fill="none" stroke="midnightblue" d="M817.25,-203.22C672.55,-199.6 304.4,-187.32 186.5,-154 184.83,-153.53 183.15,-152.95 181.48,-152.31"/>
<polygon fill="midnightblue" stroke="midnightblue" points="182.83,-149.07 172.28,-148.04 179.88,-155.42 182.83,-149.07"/>
</g>
<!-- Node8 -->
<g id="node8" class="node">
<title>Node8</title>
<g id="a_node8"><a xlink:title=" ">
<polygon fill="white" stroke="#bfbfbf" points="195.5,-129 195.5,-148 243.5,-148 243.5,-129 195.5,-129"/>
<text text-anchor="middle" x="219.5" y="-136" font-family="Helvetica,sans-Serif" font-size="10.00">mutex</text>
</a>
</g>
</g>
<!-- Node3&#45;&gt;Node8 -->
<g id="edge7" class="edge">
<title>Node3&#45;&gt;Node8</title>
<path fill="none" stroke="midnightblue" d="M817.13,-202.21C682.68,-196.62 358.41,-180.75 252.5,-154 250.2,-153.42 247.85,-152.69 245.52,-151.87"/>
<polygon fill="midnightblue" stroke="midnightblue" points="246.83,-148.62 236.24,-148.14 244.22,-155.12 246.83,-148.62"/>
</g>
<!-- Node9 -->
<g id="node9" class="node">
<title>Node9</title>
<g id="a_node9"><a xlink:title=" ">
<polygon fill="white" stroke="#bfbfbf" points="918.5,-129 918.5,-148 950.5,-148 950.5,-129 918.5,-129"/>
<text text-anchor="middle" x="934.5" y="-136" font-family="Helvetica,sans-Serif" font-size="10.00">set</text>
</a>
</g>
</g>
<!-- Node3&#45;&gt;Node9 -->
<g id="edge8" class="edge">
<title>Node3&#45;&gt;Node9</title>
<path fill="none" stroke="midnightblue" d="M889.09,-190.4C898.13,-180.26 910.35,-166.57 919.83,-155.94"/>
<polygon fill="midnightblue" stroke="midnightblue" points="922.7,-157.99 926.74,-148.19 917.47,-153.33 922.7,-157.99"/>
</g>
<!-- Node10 -->
<g id="node10" class="node">
<title>Node10</title>
<g id="a_node10"><a xlink:title=" ">
<polygon fill="white" stroke="#bfbfbf" points="1102.5,-129 1102.5,-148 1146.5,-148 1146.5,-129 1102.5,-129"/>
<text text-anchor="middle" x="1124.5" y="-136" font-family="Helvetica,sans-Serif" font-size="10.00">string</text>
</a>
</g>
</g>
<!-- Node3&#45;&gt;Node10 -->
<g id="edge9" class="edge">
<title>Node3&#45;&gt;Node10</title>
<path fill="none" stroke="midnightblue" d="M935.92,-194.15C980.07,-185.63 1041.41,-172.02 1093.5,-154 1095.12,-153.44 1096.77,-152.82 1098.42,-152.16"/>
<polygon fill="midnightblue" stroke="midnightblue" points="1099.93,-155.32 1107.71,-148.13 1097.14,-148.9 1099.93,-155.32"/>
</g>
<!-- Node11 -->
<g id="node11" class="node">
<title>Node11</title>
<g id="a_node11"><a xlink:title=" ">
<polygon fill="white" stroke="#bfbfbf" points="1488.5,-129 1488.5,-148 1536.5,-148 1536.5,-129 1488.5,-129"/>
<text text-anchor="middle" x="1512.5" y="-136" font-family="Helvetica,sans-Serif" font-size="10.00">thread</text>
</a>
</g>
</g>
<!-- Node3&#45;&gt;Node11 -->
<g id="edge10" class="edge">
<title>Node3&#45;&gt;Node11</title>
<path fill="none" stroke="midnightblue" d="M935.7,-201.94C1066.54,-195.88 1376.71,-179.28 1478.5,-154 1480.86,-153.41 1483.28,-152.68 1485.67,-151.86"/>
<polygon fill="midnightblue" stroke="midnightblue" points="1487.18,-155.03 1495.22,-148.13 1484.63,-148.51 1487.18,-155.03"/>
</g>
<!-- Node12 -->
<g id="node12" class="node">
<title>Node12</title>
<g id="a_node12"><a xlink:title=" ">
<polygon fill="white" stroke="#bfbfbf" points="262,-129 262,-148 309,-148 309,-129 262,-129"/>
<text text-anchor="middle" x="285.5" y="-136" font-family="Helvetica,sans-Serif" font-size="10.00">vector</text>
</a>
</g>
</g>
<!-- Node3&#45;&gt;Node12 -->
<g id="edge11" class="edge">
<title>Node3&#45;&gt;Node12</title>
<path fill="none" stroke="midnightblue" d="M817.2,-205.36C714.09,-205.49 495.82,-199.68 318.5,-154 316.2,-153.41 313.85,-152.67 311.53,-151.85"/>
<polygon fill="midnightblue" stroke="midnightblue" points="312.84,-148.6 302.25,-148.11 310.22,-155.09 312.84,-148.6"/>
</g>
<!-- Node13 -->
<g id="node13" class="node">
<title>Node13</title>
<g id="a_node13"><a xlink:title=" ">
<polygon fill="white" stroke="#bfbfbf" points="327.5,-129 327.5,-148 467.5,-148 467.5,-129 327.5,-129"/>
<text text-anchor="middle" x="397.5" y="-136" font-family="Helvetica,sans-Serif" font-size="10.00">boost/asio/signal_set.hpp</text>
</a>
</g>
</g>
<!-- Node3&#45;&gt;Node13 -->
<g id="edge12" class="edge">
<title>Node3&#45;&gt;Node13</title>
<path fill="none" stroke="midnightblue" d="M817.39,-198.08C739.21,-189.36 597.21,-172.68 476.5,-154 468.47,-152.76 460,-151.33 451.7,-149.86"/>
<polygon fill="midnightblue" stroke="midnightblue" points="452.18,-146.39 441.72,-148.07 450.94,-153.28 452.18,-146.39"/>
</g>
<!-- Node14 -->
<g id="node14" class="node">
<title>Node14</title>
<g id="a_node14"><a xlink:title=" ">
<polygon fill="white" stroke="#bfbfbf" points="486,-129 486,-148 641,-148 641,-129 486,-129"/>
<text text-anchor="middle" x="563.5" y="-136" font-family="Helvetica,sans-Serif" font-size="10.00">boost/asio/steady_timer.hpp</text>
</a>
</g>
</g>
<!-- Node3&#45;&gt;Node14 -->
<g id="edge13" class="edge">
<title>Node3&#45;&gt;Node14</title>
<path fill="none" stroke="midnightblue" d="M817.26,-192.2C758.7,-180.04 670.03,-161.62 614.51,-150.09"/>
<polygon fill="midnightblue" stroke="midnightblue" points="615.04,-146.63 604.54,-148.02 613.62,-153.48 615.04,-146.63"/>
</g>
<!-- Node15 -->
<g id="node15" class="node">
<title>Node15</title>
<g id="a_node15"><a xlink:title=" ">
<polygon fill="white" stroke="#bfbfbf" points="1892.5,-6 1892.5,-25 2006.5,-25 2006.5,-6 1892.5,-6"/>
<text text-anchor="middle" x="1949.5" y="-13" font-family="Helvetica,sans-Serif" font-size="10.00">vsomeip/export.hpp</text>
</a>
</g>
</g>
<!-- Node3&#45;&gt;Node15 -->
<g id="edge14" class="edge">
<title>Node3&#45;&gt;Node15</title>
<path fill="none" stroke="midnightblue" d="M935.57,-204.09C1077.49,-202.45 1434.13,-194.32 1545.5,-154 1608.12,-131.33 1606.12,-92.83 1667.5,-67 1705.3,-51.09 1811.4,-34.73 1882.13,-25.09"/>
<polygon fill="midnightblue" stroke="midnightblue" points="1882.86,-28.53 1892.3,-23.72 1881.92,-21.59 1882.86,-28.53"/>
</g>
<!-- Node16 -->
<g id="node16" class="node">
<title>Node16</title>
<g id="a_node16"><a xlink:title=" ">
<polygon fill="white" stroke="#bfbfbf" points="1333,-129 1333,-148 1470,-148 1470,-129 1333,-129"/>
<text text-anchor="middle" x="1401.5" y="-136" font-family="Helvetica,sans-Serif" font-size="10.00">vsomeip/application.hpp</text>
</a>
</g>
</g>
<!-- Node3&#45;&gt;Node16 -->
<g id="edge15" class="edge">
<title>Node3&#45;&gt;Node16</title>
<path fill="none" stroke="midnightblue" d="M935.61,-199.18C1021.33,-191.15 1185.04,-174.66 1323.5,-154 1331.64,-152.79 1340.22,-151.35 1348.6,-149.86"/>
<polygon fill="midnightblue" stroke="midnightblue" points="1349.47,-153.26 1358.68,-148.03 1348.21,-146.37 1349.47,-153.26"/>
</g>
<!-- Node17 -->
<g id="node17" class="node">
<title>Node17</title>
<g id="a_node17"><a xlink:href="internal_8hpp.html" target="_top" xlink:title=" ">
<polygon fill="white" stroke="black" points="968.5,-123.5 968.5,-153.5 1084.5,-153.5 1084.5,-123.5 968.5,-123.5"/>
<text text-anchor="start" x="976.5" y="-141.5" font-family="Helvetica,sans-Serif" font-size="10.00">../../configuration</text>
<text text-anchor="middle" x="1026.5" y="-130.5" font-family="Helvetica,sans-Serif" font-size="10.00">/include/internal.hpp</text>
</a>
</g>
</g>
<!-- Node3&#45;&gt;Node17 -->
<g id="edge16" class="edge">
<title>Node3&#45;&gt;Node17</title>
<path fill="none" stroke="midnightblue" d="M909.05,-190.4C931.26,-180.77 960.88,-167.94 984.81,-157.56"/>
<polygon fill="midnightblue" stroke="midnightblue" points="986.23,-160.76 994.02,-153.58 983.45,-154.34 986.23,-160.76"/>
</g>
<!-- Node22 -->
<g id="node22" class="node">
<title>Node22</title>
<g id="a_node22"><a xlink:href="routing__manager__host_8hpp.html" target="_top" xlink:title=" ">
<polygon fill="white" stroke="black" points="1164.5,-123.5 1164.5,-153.5 1314.5,-153.5 1314.5,-123.5 1164.5,-123.5"/>
<text text-anchor="start" x="1172.5" y="-141.5" font-family="Helvetica,sans-Serif" font-size="10.00">../../routing/include</text>
<text text-anchor="middle" x="1239.5" y="-130.5" font-family="Helvetica,sans-Serif" font-size="10.00">/routing_manager_host.hpp</text>
</a>
</g>
</g>
<!-- Node3&#45;&gt;Node22 -->
<g id="edge21" class="edge">
<title>Node3&#45;&gt;Node22</title>
<path fill="none" stroke="midnightblue" d="M935.63,-193.91C994.96,-183.29 1086.95,-166.82 1154.18,-154.78"/>
<polygon fill="midnightblue" stroke="midnightblue" points="1155.11,-158.17 1164.34,-152.96 1153.87,-151.28 1155.11,-158.17"/>
</g>
<!-- Node18 -->
<g id="node18" class="node">
<title>Node18</title>
<g id="a_node18"><a xlink:title=" ">
<polygon fill="white" stroke="#bfbfbf" points="864.5,-67.5 864.5,-86.5 914.5,-86.5 914.5,-67.5 864.5,-67.5"/>
<text text-anchor="middle" x="889.5" y="-74.5" font-family="Helvetica,sans-Serif" font-size="10.00">cstdint</text>
</a>
</g>
</g>
<!-- Node17&#45;&gt;Node18 -->
<g id="edge17" class="edge">
<title>Node17&#45;&gt;Node18</title>
<path fill="none" stroke="midnightblue" d="M994.03,-123.4C971.15,-113.46 940.77,-100.26 918.66,-90.66"/>
<polygon fill="midnightblue" stroke="midnightblue" points="920,-87.43 909.43,-86.66 917.21,-93.85 920,-87.43"/>
</g>
<!-- Node19 -->
<g id="node19" class="node">
<title>Node19</title>
<g id="a_node19"><a xlink:title=" ">
<polygon fill="white" stroke="#bfbfbf" points="932.5,-67.5 932.5,-86.5 976.5,-86.5 976.5,-67.5 932.5,-67.5"/>
<text text-anchor="middle" x="954.5" y="-74.5" font-family="Helvetica,sans-Serif" font-size="10.00">limits</text>
</a>
</g>
</g>
<!-- Node17&#45;&gt;Node19 -->
<g id="edge18" class="edge">
<title>Node17&#45;&gt;Node19</title>
<path fill="none" stroke="midnightblue" d="M1009.44,-123.4C998.44,-114.31 984.13,-102.49 972.88,-93.19"/>
<polygon fill="midnightblue" stroke="midnightblue" points="974.91,-90.33 964.98,-86.66 970.46,-95.73 974.91,-90.33"/>
</g>
<!-- Node20 -->
<g id="node20" class="node">
<title>Node20</title>
<g id="a_node20"><a xlink:title=" ">
<polygon fill="white" stroke="#bfbfbf" points="1308,-6 1308,-25 1467,-25 1467,-6 1308,-6"/>
<text text-anchor="middle" x="1387.5" y="-13" font-family="Helvetica,sans-Serif" font-size="10.00">vsomeip/primitive_types.hpp</text>
</a>
</g>
</g>
<!-- Node17&#45;&gt;Node20 -->
<g id="edge19" class="edge">
<title>Node17&#45;&gt;Node20</title>
<path fill="none" stroke="midnightblue" d="M968.25,-123.93C921.51,-112.46 862.54,-96.42 855.5,-87 850.18,-79.88 849.52,-73.58 855.5,-67 884.61,-35 1153.72,-22.82 1297.65,-18.57"/>
<polygon fill="midnightblue" stroke="midnightblue" points="1297.9,-22.06 1307.79,-18.28 1297.69,-15.07 1297.9,-22.06"/>
</g>
<!-- Node21 -->
<g id="node21" class="node">
<title>Node21</title>
<g id="a_node21"><a xlink:title=" ">
<polygon fill="white" stroke="#bfbfbf" points="995,-67.5 995,-86.5 1058,-86.5 1058,-67.5 995,-67.5"/>
<text text-anchor="middle" x="1026.5" y="-74.5" font-family="Helvetica,sans-Serif" font-size="10.00">pthread.h</text>
</a>
</g>
</g>
<!-- Node17&#45;&gt;Node21 -->
<g id="edge20" class="edge">
<title>Node17&#45;&gt;Node21</title>
<path fill="none" stroke="midnightblue" d="M1026.5,-123.4C1026.5,-115.47 1026.5,-105.46 1026.5,-96.86"/>
<polygon fill="midnightblue" stroke="midnightblue" points="1030,-96.66 1026.5,-86.66 1023,-96.66 1030,-96.66"/>
</g>
<!-- Node23 -->
<g id="node23" class="node">
<title>Node23</title>
<g id="a_node23"><a xlink:title=" ">
<polygon fill="white" stroke="#bfbfbf" points="1358.5,-67.5 1358.5,-86.5 1416.5,-86.5 1416.5,-67.5 1358.5,-67.5"/>
<text text-anchor="middle" x="1387.5" y="-74.5" font-family="Helvetica,sans-Serif" font-size="10.00">memory</text>
</a>
</g>
</g>
<!-- Node22&#45;&gt;Node23 -->
<g id="edge22" class="edge">
<title>Node22&#45;&gt;Node23</title>
<path fill="none" stroke="midnightblue" d="M1274.57,-123.4C1299.52,-113.37 1332.71,-100.03 1356.64,-90.4"/>
<polygon fill="midnightblue" stroke="midnightblue" points="1357.99,-93.64 1365.96,-86.66 1355.38,-87.14 1357.99,-93.64"/>
</g>
<!-- Node24 -->
<g id="node24" class="node">
<title>Node24</title>
<g id="a_node24"><a xlink:title=" ">
<polygon fill="white" stroke="#bfbfbf" points="1076.5,-67.5 1076.5,-86.5 1216.5,-86.5 1216.5,-67.5 1076.5,-67.5"/>
<text text-anchor="middle" x="1146.5" y="-74.5" font-family="Helvetica,sans-Serif" font-size="10.00">boost/asio/io_service.hpp</text>
</a>
</g>
</g>
<!-- Node22&#45;&gt;Node24 -->
<g id="edge23" class="edge">
<title>Node22&#45;&gt;Node24</title>
<path fill="none" stroke="midnightblue" d="M1217.46,-123.4C1202.69,-113.95 1183.32,-101.56 1168.55,-92.11"/>
<polygon fill="midnightblue" stroke="midnightblue" points="1170.34,-89.1 1160.03,-86.66 1166.57,-95 1170.34,-89.1"/>
</g>
<!-- Node25 -->
<g id="node25" class="node">
<title>Node25</title>
<g id="a_node25"><a xlink:title=" ">
<polygon fill="white" stroke="#bfbfbf" points="1235,-67.5 1235,-86.5 1340,-86.5 1340,-67.5 1235,-67.5"/>
<text text-anchor="middle" x="1287.5" y="-74.5" font-family="Helvetica,sans-Serif" font-size="10.00">vsomeip/error.hpp</text>
</a>
</g>
</g>
<!-- Node22&#45;&gt;Node25 -->
<g id="edge24" class="edge">
<title>Node22&#45;&gt;Node25</title>
<path fill="none" stroke="midnightblue" d="M1250.88,-123.4C1257.85,-114.75 1266.81,-103.64 1274.13,-94.58"/>
<polygon fill="midnightblue" stroke="midnightblue" points="1276.96,-96.64 1280.52,-86.66 1271.51,-92.24 1276.96,-96.64"/>
</g>
<!-- Node26&#45;&gt;Node7 -->
<g id="edge27" class="edge">
<title>Node26&#45;&gt;Node7</title>
<path fill="none" stroke="midnightblue" d="M206.26,-190.4C196.66,-180.16 183.65,-166.3 173.63,-155.62"/>
<polygon fill="midnightblue" stroke="midnightblue" points="176.05,-153.09 166.66,-148.19 170.95,-157.88 176.05,-153.09"/>
</g>
<!-- Node26&#45;&gt;Node8 -->
<g id="edge28" class="edge">
<title>Node26&#45;&gt;Node8</title>
<path fill="none" stroke="midnightblue" d="M219.5,-190.4C219.5,-181.06 219.5,-168.71 219.5,-158.52"/>
<polygon fill="midnightblue" stroke="midnightblue" points="223,-158.19 219.5,-148.19 216,-158.19 223,-158.19"/>
</g>
<!-- Node27 -->
<g id="node27" class="node">
<title>Node27</title>
<g id="a_node27"><a xlink:title=" ">
<polygon fill="white" stroke="#bfbfbf" points="0,-129 0,-148 121,-148 121,-129 0,-129"/>
<text text-anchor="middle" x="60.5" y="-136" font-family="Helvetica,sans-Serif" font-size="10.00">vsomeip/runtime.hpp</text>
</a>
</g>
</g>
<!-- Node26&#45;&gt;Node27 -->
<g id="edge26" class="edge">
<title>Node26&#45;&gt;Node27</title>
<path fill="none" stroke="midnightblue" d="M185,-190.4C156.85,-178.89 117.49,-162.8 90.61,-151.81"/>
<polygon fill="midnightblue" stroke="midnightblue" points="91.89,-148.55 81.31,-148.01 89.24,-155.03 91.89,-148.55"/>
</g>
<!-- Node28&#45;&gt;Node15 -->
<g id="edge31" class="edge">
<title>Node28&#45;&gt;Node15</title>
<path fill="none" stroke="midnightblue" d="M1699.06,-202.33C1773.28,-195.98 1897.9,-172.39 1950.5,-87 1960.11,-71.4 1958.14,-49.94 1954.85,-34.81"/>
<polygon fill="midnightblue" stroke="midnightblue" points="1958.23,-33.9 1952.36,-25.08 1951.45,-35.64 1958.23,-33.9"/>
</g>
<!-- Node28&#45;&gt;Node20 -->
<g id="edge32" class="edge">
<title>Node28&#45;&gt;Node20</title>
<path fill="none" stroke="midnightblue" d="M1633.83,-190.21C1624.6,-171.97 1606.23,-140.66 1581.5,-123 1536.88,-91.13 1511.03,-114.34 1463.5,-87 1438.75,-72.77 1415.5,-49.1 1401.38,-33.16"/>
<polygon fill="midnightblue" stroke="midnightblue" points="1403.71,-30.5 1394.53,-25.21 1398.41,-35.07 1403.71,-30.5"/>
</g>
<!-- Node28&#45;&gt;Node23 -->
<g id="edge30" class="edge">
<title>Node28&#45;&gt;Node23</title>
<path fill="none" stroke="midnightblue" d="M1627.75,-190.28C1610.72,-172.12 1578.8,-140.9 1545.5,-123 1524.99,-111.97 1466.36,-96.71 1426.59,-87.09"/>
<polygon fill="midnightblue" stroke="midnightblue" points="1427.21,-83.64 1416.67,-84.72 1425.58,-90.45 1427.21,-83.64"/>
</g>
<!-- Node29 -->
<g id="node29" class="node">
<title>Node29</title>
<g id="a_node29"><a xlink:href="message_2include_2message__base__impl_8hpp.html" target="_top" xlink:title=" ">
<polygon fill="white" stroke="black" points="1672,-129 1672,-148 1809,-148 1809,-129 1672,-129"/>
<text text-anchor="middle" x="1740.5" y="-136" font-family="Helvetica,sans-Serif" font-size="10.00">message_base_impl.hpp</text>
</a>
</g>
</g>
<!-- Node28&#45;&gt;Node29 -->
<g id="edge33" class="edge">
<title>Node28&#45;&gt;Node29</title>
<path fill="none" stroke="midnightblue" d="M1662.2,-190.4C1678.97,-179.5 1702.07,-164.48 1718.83,-153.58"/>
<polygon fill="midnightblue" stroke="midnightblue" points="1720.94,-156.39 1727.41,-148.01 1717.12,-150.52 1720.94,-156.39"/>
</g>
<!-- Node29&#45;&gt;Node15 -->
<g id="edge35" class="edge">
<title>Node29&#45;&gt;Node15</title>
<path fill="none" stroke="midnightblue" d="M1809,-135.47C1849.05,-130.71 1897.8,-118.22 1929.5,-87 1943.21,-73.5 1947.7,-51.33 1949.08,-35.46"/>
<polygon fill="midnightblue" stroke="midnightblue" points="1952.59,-35.4 1949.62,-25.23 1945.6,-35.03 1952.59,-35.4"/>
</g>
<!-- Node30 -->
<g id="node30" class="node">
<title>Node30</title>
<g id="a_node30"><a xlink:title=" ">
<polygon fill="white" stroke="#bfbfbf" points="1822,-67.5 1822,-86.5 1921,-86.5 1921,-67.5 1822,-67.5"/>
<text text-anchor="middle" x="1871.5" y="-74.5" font-family="Helvetica,sans-Serif" font-size="10.00">boost/thread.hpp</text>
</a>
</g>
</g>
<!-- Node29&#45;&gt;Node30 -->
<g id="edge34" class="edge">
<title>Node29&#45;&gt;Node30</title>
<path fill="none" stroke="midnightblue" d="M1759.27,-128.98C1781.35,-118.95 1818.22,-102.2 1843.64,-90.65"/>
<polygon fill="midnightblue" stroke="midnightblue" points="1845.11,-93.83 1852.77,-86.51 1842.21,-87.46 1845.11,-93.83"/>
</g>
<!-- Node31 -->
<g id="node31" class="node">
<title>Node31</title>
<g id="a_node31"><a xlink:title=" ">
<polygon fill="white" stroke="#bfbfbf" points="1677,-67.5 1677,-86.5 1804,-86.5 1804,-67.5 1677,-67.5"/>
<text text-anchor="middle" x="1740.5" y="-74.5" font-family="Helvetica,sans-Serif" font-size="10.00">vsomeip/message.hpp</text>
</a>
</g>
</g>
<!-- Node29&#45;&gt;Node31 -->
<g id="edge36" class="edge">
<title>Node29&#45;&gt;Node31</title>
<path fill="none" stroke="midnightblue" d="M1740.5,-128.98C1740.5,-120.58 1740.5,-107.48 1740.5,-96.66"/>
<polygon fill="midnightblue" stroke="midnightblue" points="1744,-96.51 1740.5,-86.51 1737,-96.51 1744,-96.51"/>
</g>
<!-- Node32 -->
<g id="node32" class="node">
<title>Node32</title>
<g id="a_node32"><a xlink:href="message__header__impl_8hpp.html" target="_top" xlink:title=" ">
<polygon fill="white" stroke="black" points="1472.5,-67.5 1472.5,-86.5 1620.5,-86.5 1620.5,-67.5 1472.5,-67.5"/>
<text text-anchor="middle" x="1546.5" y="-74.5" font-family="Helvetica,sans-Serif" font-size="10.00">message_header_impl.hpp</text>
</a>
</g>
</g>
<!-- Node29&#45;&gt;Node32 -->
<g id="edge37" class="edge">
<title>Node29&#45;&gt;Node32</title>
<path fill="none" stroke="midnightblue" d="M1712.7,-128.98C1678.85,-118.59 1621.53,-101.01 1583.85,-89.45"/>
<polygon fill="midnightblue" stroke="midnightblue" points="1584.83,-86.1 1574.24,-86.51 1582.78,-92.79 1584.83,-86.1"/>
</g>
<!-- Node32&#45;&gt;Node15 -->
<g id="edge38" class="edge">
<title>Node32&#45;&gt;Node15</title>
<path fill="none" stroke="midnightblue" d="M1604.24,-67.48C1677.66,-56.63 1804.22,-37.95 1882.02,-26.46"/>
<polygon fill="midnightblue" stroke="midnightblue" points="1882.81,-29.88 1892.19,-24.96 1881.79,-22.96 1882.81,-29.88"/>
</g>
<!-- Node32&#45;&gt;Node20 -->
<g id="edge39" class="edge">
<title>Node32&#45;&gt;Node20</title>
<path fill="none" stroke="midnightblue" d="M1523.72,-67.48C1496.45,-57.27 1450.59,-40.11 1419.7,-28.55"/>
<polygon fill="midnightblue" stroke="midnightblue" points="1420.83,-25.24 1410.24,-25.01 1418.38,-31.79 1420.83,-25.24"/>
</g>
<!-- Node33 -->
<g id="node33" class="node">
<title>Node33</title>
<g id="a_node33"><a xlink:title=" ">
<polygon fill="white" stroke="#bfbfbf" points="1484.5,-0.5 1484.5,-30.5 1608.5,-30.5 1608.5,-0.5 1484.5,-0.5"/>
<text text-anchor="start" x="1492.5" y="-18.5" font-family="Helvetica,sans-Serif" font-size="10.00">vsomeip/enumeration</text>
<text text-anchor="middle" x="1546.5" y="-7.5" font-family="Helvetica,sans-Serif" font-size="10.00">_types.hpp</text>
</a>
</g>
</g>
<!-- Node32&#45;&gt;Node33 -->
<g id="edge40" class="edge">
<title>Node32&#45;&gt;Node33</title>
<path fill="none" stroke="midnightblue" d="M1546.5,-67.48C1546.5,-60.47 1546.5,-50.19 1546.5,-40.7"/>
<polygon fill="midnightblue" stroke="midnightblue" points="1550,-40.52 1546.5,-30.52 1543,-40.52 1550,-40.52"/>
</g>
<!-- Node34 -->
<g id="node34" class="node">
<title>Node34</title>
<g id="a_node34"><a xlink:title=" ">
<polygon fill="white" stroke="#bfbfbf" points="1627,-6 1627,-25 1806,-25 1806,-6 1627,-6"/>
<text text-anchor="middle" x="1716.5" y="-13" font-family="Helvetica,sans-Serif" font-size="10.00">vsomeip/internal/serializable.hpp</text>
</a>
</g>
</g>
<!-- Node32&#45;&gt;Node34 -->
<g id="edge41" class="edge">
<title>Node32&#45;&gt;Node34</title>
<path fill="none" stroke="midnightblue" d="M1570.86,-67.48C1600.14,-57.22 1649.47,-39.96 1682.5,-28.4"/>
<polygon fill="midnightblue" stroke="midnightblue" points="1683.91,-31.62 1692.19,-25.01 1681.59,-25.01 1683.91,-31.62"/>
</g>
<!-- Node35&#45;&gt;Node15 -->
<g id="edge43" class="edge">
<title>Node35&#45;&gt;Node15</title>
<path fill="none" stroke="midnightblue" d="M2025.83,-190.32C2025.85,-164.32 2023.14,-107.92 2001.5,-67 1994.09,-52.99 1981.39,-40.55 1970.4,-31.52"/>
<polygon fill="midnightblue" stroke="midnightblue" points="1972.48,-28.7 1962.44,-25.31 1968.17,-34.22 1972.48,-28.7"/>
</g>
<!-- Node36 -->
<g id="node36" class="node">
<title>Node36</title>
<g id="a_node36"><a xlink:title=" ">
<polygon fill="white" stroke="#bfbfbf" points="2053.5,-129 2053.5,-148 2175.5,-148 2175.5,-129 2053.5,-129"/>
<text text-anchor="middle" x="2114.5" y="-136" font-family="Helvetica,sans-Serif" font-size="10.00">vsomeip/payload.hpp</text>
</a>
</g>
</g>
<!-- Node35&#45;&gt;Node36 -->
<g id="edge44" class="edge">
<title>Node35&#45;&gt;Node36</title>
<path fill="none" stroke="midnightblue" d="M2044.81,-190.4C2059.46,-179.7 2079.54,-165.03 2094.38,-154.19"/>
<polygon fill="midnightblue" stroke="midnightblue" points="2096.84,-156.73 2102.85,-148.01 2092.71,-151.08 2096.84,-156.73"/>
</g>
</g>
</svg>
