<?xml version="1.0" encoding="UTF-8" standalone="no"?>
<!DOCTYPE svg PUBLIC "-//W3C//DTD SVG 1.1//EN"
 "http://www.w3.org/Graphics/SVG/1.1/DTD/svg11.dtd">
<!-- Generated by graphviz version 2.43.0 (0)
 -->
<!-- Title: /home/kali/projects/vsomeip/implementation/security/include/security.hpp Pages: 1 -->
<svg width="1758pt" height="228pt"
 viewBox="0.00 0.00 1758.00 228.00" xmlns="http://www.w3.org/2000/svg" xmlns:xlink="http://www.w3.org/1999/xlink">
<g id="graph0" class="graph" transform="scale(1 1) rotate(0) translate(4 224)">
<title>/home/kali/projects/vsomeip/implementation/security/include/security.hpp</title>
<polygon fill="white" stroke="transparent" points="-4,4 -4,-224 1754,-224 1754,4 -4,4"/>
<!-- Node1 -->
<g id="node1" class="node">
<title>Node1</title>
<g id="a_node1"><a xlink:title=" ">
<polygon fill="#bfbfbf" stroke="black" points="672.5,-178.5 672.5,-219.5 830.5,-219.5 830.5,-178.5 672.5,-178.5"/>
<text text-anchor="start" x="680.5" y="-207.5" font-family="Helvetica,sans-Serif" font-size="10.00">/home/kali/projects</text>
<text text-anchor="start" x="680.5" y="-196.5" font-family="Helvetica,sans-Serif" font-size="10.00">/vsomeip/implementation</text>
<text text-anchor="middle" x="751.5" y="-185.5" font-family="Helvetica,sans-Serif" font-size="10.00">/security/include/security.hpp</text>
</a>
</g>
</g>
<!-- Node2 -->
<g id="node2" class="node">
<title>Node2</title>
<g id="a_node2"><a xlink:href="configuration__impl_8cpp.html" target="_top" xlink:title=" ">
<polygon fill="white" stroke="black" points="0,-89.5 0,-141.5 167,-141.5 167,-89.5 0,-89.5"/>
<text text-anchor="start" x="8" y="-129.5" font-family="Helvetica,sans-Serif" font-size="10.00">/home/kali/projects</text>
<text text-anchor="start" x="8" y="-118.5" font-family="Helvetica,sans-Serif" font-size="10.00">/vsomeip/implementation</text>
<text text-anchor="start" x="8" y="-107.5" font-family="Helvetica,sans-Serif" font-size="10.00">/configuration/src/configuration</text>
<text text-anchor="middle" x="83.5" y="-96.5" font-family="Helvetica,sans-Serif" font-size="10.00">_impl.cpp</text>
</a>
</g>
</g>
<!-- Node1&#45;&gt;Node2 -->
<g id="edge1" class="edge">
<title>Node1&#45;&gt;Node2</title>
<path fill="none" stroke="midnightblue" d="M662.11,-194.12C548.29,-188.08 345.94,-173.66 175.5,-142 172.73,-141.49 169.92,-140.93 167.09,-140.33"/>
<polygon fill="midnightblue" stroke="midnightblue" points="662,-197.62 672.17,-194.64 662.36,-190.63 662,-197.62"/>
</g>
<!-- Node3 -->
<g id="node3" class="node">
<title>Node3</title>
<g id="a_node3"><a xlink:href="endpoint__manager__impl_8cpp.html" target="_top" xlink:title=" ">
<polygon fill="white" stroke="black" points="185,-89.5 185,-141.5 328,-141.5 328,-89.5 185,-89.5"/>
<text text-anchor="start" x="193" y="-129.5" font-family="Helvetica,sans-Serif" font-size="10.00">/home/kali/projects</text>
<text text-anchor="start" x="193" y="-118.5" font-family="Helvetica,sans-Serif" font-size="10.00">/vsomeip/implementation</text>
<text text-anchor="start" x="193" y="-107.5" font-family="Helvetica,sans-Serif" font-size="10.00">/endpoints/src/endpoint</text>
<text text-anchor="middle" x="256.5" y="-96.5" font-family="Helvetica,sans-Serif" font-size="10.00">_manager_impl.cpp</text>
</a>
</g>
</g>
<!-- Node1&#45;&gt;Node3 -->
<g id="edge2" class="edge">
<title>Node1&#45;&gt;Node3</title>
<path fill="none" stroke="midnightblue" d="M662.29,-190.5C577.7,-182.33 447.43,-166.96 336.5,-142 333.8,-141.39 331.06,-140.73 328.3,-140.04"/>
<polygon fill="midnightblue" stroke="midnightblue" points="662.09,-194 672.37,-191.46 662.75,-187.03 662.09,-194"/>
</g>
<!-- Node4 -->
<g id="node4" class="node">
<title>Node4</title>
<g id="a_node4"><a xlink:href="local__client__endpoint__impl_8cpp.html" target="_top" xlink:title=" ">
<polygon fill="white" stroke="black" points="346,-89.5 346,-141.5 489,-141.5 489,-89.5 346,-89.5"/>
<text text-anchor="start" x="354" y="-129.5" font-family="Helvetica,sans-Serif" font-size="10.00">/home/kali/projects</text>
<text text-anchor="start" x="354" y="-118.5" font-family="Helvetica,sans-Serif" font-size="10.00">/vsomeip/implementation</text>
<text text-anchor="start" x="354" y="-107.5" font-family="Helvetica,sans-Serif" font-size="10.00">/endpoints/src/local_client</text>
<text text-anchor="middle" x="417.5" y="-96.5" font-family="Helvetica,sans-Serif" font-size="10.00">_endpoint_impl.cpp</text>
</a>
</g>
</g>
<!-- Node1&#45;&gt;Node4 -->
<g id="edge3" class="edge">
<title>Node1&#45;&gt;Node4</title>
<path fill="none" stroke="midnightblue" d="M662.46,-180.45C613.51,-170.28 551.86,-156.62 497.5,-142 494.83,-141.28 492.11,-140.53 489.37,-139.75"/>
<polygon fill="midnightblue" stroke="midnightblue" points="661.89,-183.91 672.39,-182.5 663.3,-177.05 661.89,-183.91"/>
</g>
<!-- Node5 -->
<g id="node5" class="node">
<title>Node5</title>
<g id="a_node5"><a xlink:href="local__server__endpoint__impl_8cpp.html" target="_top" xlink:title=" ">
<polygon fill="white" stroke="black" points="507,-89.5 507,-141.5 654,-141.5 654,-89.5 507,-89.5"/>
<text text-anchor="start" x="515" y="-129.5" font-family="Helvetica,sans-Serif" font-size="10.00">/home/kali/projects</text>
<text text-anchor="start" x="515" y="-118.5" font-family="Helvetica,sans-Serif" font-size="10.00">/vsomeip/implementation</text>
<text text-anchor="start" x="515" y="-107.5" font-family="Helvetica,sans-Serif" font-size="10.00">/endpoints/src/local_server</text>
<text text-anchor="middle" x="580.5" y="-96.5" font-family="Helvetica,sans-Serif" font-size="10.00">_endpoint_impl.cpp</text>
</a>
</g>
</g>
<!-- Node1&#45;&gt;Node5 -->
<g id="edge4" class="edge">
<title>Node1&#45;&gt;Node5</title>
<path fill="none" stroke="midnightblue" d="M701.28,-174.07C679.84,-163.85 654.81,-151.92 633.11,-141.58"/>
<polygon fill="midnightblue" stroke="midnightblue" points="700.01,-177.34 710.54,-178.48 703.02,-171.02 700.01,-177.34"/>
</g>
<!-- Node6 -->
<g id="node6" class="node">
<title>Node6</title>
<g id="a_node6"><a xlink:href="routing__manager__base_8cpp.html" target="_top" xlink:title=" ">
<polygon fill="white" stroke="black" points="672.5,-89.5 672.5,-141.5 830.5,-141.5 830.5,-89.5 672.5,-89.5"/>
<text text-anchor="start" x="680.5" y="-129.5" font-family="Helvetica,sans-Serif" font-size="10.00">/home/kali/projects</text>
<text text-anchor="start" x="680.5" y="-118.5" font-family="Helvetica,sans-Serif" font-size="10.00">/vsomeip/implementation</text>
<text text-anchor="start" x="680.5" y="-107.5" font-family="Helvetica,sans-Serif" font-size="10.00">/routing/src/routing_manager</text>
<text text-anchor="middle" x="751.5" y="-96.5" font-family="Helvetica,sans-Serif" font-size="10.00">_base.cpp</text>
</a>
</g>
</g>
<!-- Node1&#45;&gt;Node6 -->
<g id="edge5" class="edge">
<title>Node1&#45;&gt;Node6</title>
<path fill="none" stroke="midnightblue" d="M751.5,-168.12C751.5,-159.41 751.5,-149.99 751.5,-141.61"/>
<polygon fill="midnightblue" stroke="midnightblue" points="748,-168.27 751.5,-178.27 755,-168.27 748,-168.27"/>
</g>
<!-- Node7 -->
<g id="node7" class="node">
<title>Node7</title>
<g id="a_node7"><a xlink:href="routing__manager__impl_8cpp.html" target="_top" xlink:title=" ">
<polygon fill="white" stroke="black" points="848.5,-89.5 848.5,-141.5 1006.5,-141.5 1006.5,-89.5 848.5,-89.5"/>
<text text-anchor="start" x="856.5" y="-129.5" font-family="Helvetica,sans-Serif" font-size="10.00">/home/kali/projects</text>
<text text-anchor="start" x="856.5" y="-118.5" font-family="Helvetica,sans-Serif" font-size="10.00">/vsomeip/implementation</text>
<text text-anchor="start" x="856.5" y="-107.5" font-family="Helvetica,sans-Serif" font-size="10.00">/routing/src/routing_manager</text>
<text text-anchor="middle" x="927.5" y="-96.5" font-family="Helvetica,sans-Serif" font-size="10.00">_impl.cpp</text>
</a>
</g>
</g>
<!-- Node1&#45;&gt;Node7 -->
<g id="edge6" class="edge">
<title>Node1&#45;&gt;Node7</title>
<path fill="none" stroke="midnightblue" d="M802.89,-174.2C825.02,-163.95 850.92,-151.96 873.35,-141.58"/>
<polygon fill="midnightblue" stroke="midnightblue" points="801.26,-171.1 793.66,-178.48 804.2,-177.45 801.26,-171.1"/>
</g>
<!-- Node8 -->
<g id="node8" class="node">
<title>Node8</title>
<g id="a_node8"><a xlink:href="routing__manager__stub_8cpp.html" target="_top" xlink:title=" ">
<polygon fill="white" stroke="black" points="1024.5,-89.5 1024.5,-141.5 1182.5,-141.5 1182.5,-89.5 1024.5,-89.5"/>
<text text-anchor="start" x="1032.5" y="-129.5" font-family="Helvetica,sans-Serif" font-size="10.00">/home/kali/projects</text>
<text text-anchor="start" x="1032.5" y="-118.5" font-family="Helvetica,sans-Serif" font-size="10.00">/vsomeip/implementation</text>
<text text-anchor="start" x="1032.5" y="-107.5" font-family="Helvetica,sans-Serif" font-size="10.00">/routing/src/routing_manager</text>
<text text-anchor="middle" x="1103.5" y="-96.5" font-family="Helvetica,sans-Serif" font-size="10.00">_stub.cpp</text>
</a>
</g>
</g>
<!-- Node1&#45;&gt;Node8 -->
<g id="edge7" class="edge">
<title>Node1&#45;&gt;Node8</title>
<path fill="none" stroke="midnightblue" d="M840.76,-180.75C892.08,-170.42 957.66,-156.49 1015.5,-142 1018.43,-141.27 1021.41,-140.5 1024.42,-139.71"/>
<polygon fill="midnightblue" stroke="midnightblue" points="839.81,-177.38 830.69,-182.77 841.18,-184.24 839.81,-177.38"/>
</g>
<!-- Node9 -->
<g id="node9" class="node">
<title>Node9</title>
<g id="a_node9"><a xlink:href="runtime_2src_2application__impl_8cpp.html" target="_top" xlink:title=" ">
<polygon fill="white" stroke="black" points="1201,-89.5 1201,-141.5 1344,-141.5 1344,-89.5 1201,-89.5"/>
<text text-anchor="start" x="1209" y="-129.5" font-family="Helvetica,sans-Serif" font-size="10.00">/home/kali/projects</text>
<text text-anchor="start" x="1209" y="-118.5" font-family="Helvetica,sans-Serif" font-size="10.00">/vsomeip/implementation</text>
<text text-anchor="start" x="1209" y="-107.5" font-family="Helvetica,sans-Serif" font-size="10.00">/runtime/src/application</text>
<text text-anchor="middle" x="1272.5" y="-96.5" font-family="Helvetica,sans-Serif" font-size="10.00">_impl.cpp</text>
</a>
</g>
</g>
<!-- Node1&#45;&gt;Node9 -->
<g id="edge8" class="edge">
<title>Node1&#45;&gt;Node9</title>
<path fill="none" stroke="midnightblue" d="M840.62,-191.35C930.07,-183.58 1071.45,-168.32 1191.5,-142 1194.52,-141.34 1197.6,-140.61 1200.69,-139.84"/>
<polygon fill="midnightblue" stroke="midnightblue" points="840.18,-187.88 830.51,-192.22 840.77,-194.85 840.18,-187.88"/>
</g>
<!-- Node10 -->
<g id="node10" class="node">
<title>Node10</title>
<g id="a_node10"><a xlink:href="security__impl_8hpp.html" target="_top" xlink:title=" ">
<polygon fill="white" stroke="black" points="1362,-89.5 1362,-141.5 1505,-141.5 1505,-89.5 1362,-89.5"/>
<text text-anchor="start" x="1370" y="-129.5" font-family="Helvetica,sans-Serif" font-size="10.00">/home/kali/projects</text>
<text text-anchor="start" x="1370" y="-118.5" font-family="Helvetica,sans-Serif" font-size="10.00">/vsomeip/implementation</text>
<text text-anchor="start" x="1370" y="-107.5" font-family="Helvetica,sans-Serif" font-size="10.00">/security/include/security</text>
<text text-anchor="middle" x="1433.5" y="-96.5" font-family="Helvetica,sans-Serif" font-size="10.00">_impl.hpp</text>
</a>
</g>
</g>
<!-- Node1&#45;&gt;Node10 -->
<g id="edge9" class="edge">
<title>Node1&#45;&gt;Node10</title>
<path fill="none" stroke="midnightblue" d="M840.79,-195.7C959.11,-191.29 1173.85,-178.54 1353.5,-142 1356.21,-141.45 1358.97,-140.84 1361.74,-140.18"/>
<polygon fill="midnightblue" stroke="midnightblue" points="840.57,-192.21 830.7,-196.06 840.82,-199.2 840.57,-192.21"/>
</g>
<!-- Node11 -->
<g id="node11" class="node">
<title>Node11</title>
<g id="a_node11"><a xlink:href="routing__manager__proxy_8cpp.html" target="_top" xlink:title=" ">
<polygon fill="white" stroke="black" points="1094.5,-0.5 1094.5,-52.5 1252.5,-52.5 1252.5,-0.5 1094.5,-0.5"/>
<text text-anchor="start" x="1102.5" y="-40.5" font-family="Helvetica,sans-Serif" font-size="10.00">/home/kali/projects</text>
<text text-anchor="start" x="1102.5" y="-29.5" font-family="Helvetica,sans-Serif" font-size="10.00">/vsomeip/implementation</text>
<text text-anchor="start" x="1102.5" y="-18.5" font-family="Helvetica,sans-Serif" font-size="10.00">/routing/src/routing_manager</text>
<text text-anchor="middle" x="1173.5" y="-7.5" font-family="Helvetica,sans-Serif" font-size="10.00">_proxy.cpp</text>
</a>
</g>
</g>
<!-- Node10&#45;&gt;Node11 -->
<g id="edge10" class="edge">
<title>Node10&#45;&gt;Node11</title>
<path fill="none" stroke="midnightblue" d="M1352.12,-87.27C1319.04,-76.2 1281.05,-63.49 1248.63,-52.64"/>
<polygon fill="midnightblue" stroke="midnightblue" points="1351.17,-90.64 1361.77,-90.5 1353.39,-84 1351.17,-90.64"/>
</g>
<!-- Node12 -->
<g id="node12" class="node">
<title>Node12</title>
<g id="a_node12"><a xlink:href="policy__manager__impl_8cpp.html" target="_top" xlink:title=" ">
<polygon fill="white" stroke="black" points="1271,-0.5 1271,-52.5 1428,-52.5 1428,-0.5 1271,-0.5"/>
<text text-anchor="start" x="1279" y="-40.5" font-family="Helvetica,sans-Serif" font-size="10.00">/home/kali/projects</text>
<text text-anchor="start" x="1279" y="-29.5" font-family="Helvetica,sans-Serif" font-size="10.00">/vsomeip/implementation</text>
<text text-anchor="start" x="1279" y="-18.5" font-family="Helvetica,sans-Serif" font-size="10.00">/security/src/policy_manager</text>
<text text-anchor="middle" x="1349.5" y="-7.5" font-family="Helvetica,sans-Serif" font-size="10.00">_impl.cpp</text>
</a>
</g>
</g>
<!-- Node10&#45;&gt;Node12 -->
<g id="edge11" class="edge">
<title>Node10&#45;&gt;Node12</title>
<path fill="none" stroke="midnightblue" d="M1402.19,-82.08C1392.79,-72.34 1382.62,-61.8 1373.74,-52.61"/>
<polygon fill="midnightblue" stroke="midnightblue" points="1399.74,-84.57 1409.2,-89.34 1404.78,-79.71 1399.74,-84.57"/>
</g>
<!-- Node13 -->
<g id="node13" class="node">
<title>Node13</title>
<g id="a_node13"><a xlink:href="security_8cpp.html" target="_top" xlink:title=" ">
<polygon fill="white" stroke="black" points="1446,-6 1446,-47 1589,-47 1589,-6 1446,-6"/>
<text text-anchor="start" x="1454" y="-35" font-family="Helvetica,sans-Serif" font-size="10.00">/home/kali/projects</text>
<text text-anchor="start" x="1454" y="-24" font-family="Helvetica,sans-Serif" font-size="10.00">/vsomeip/implementation</text>
<text text-anchor="middle" x="1517.5" y="-13" font-family="Helvetica,sans-Serif" font-size="10.00">/security/src/security.cpp</text>
</a>
</g>
</g>
<!-- Node10&#45;&gt;Node13 -->
<g id="edge12" class="edge">
<title>Node10&#45;&gt;Node13</title>
<path fill="none" stroke="midnightblue" d="M1465.03,-81.85C1476.32,-70.15 1488.7,-57.33 1498.59,-47.08"/>
<polygon fill="midnightblue" stroke="midnightblue" points="1462.22,-79.71 1457.8,-89.34 1467.26,-84.57 1462.22,-79.71"/>
</g>
<!-- Node14 -->
<g id="node14" class="node">
<title>Node14</title>
<g id="a_node14"><a xlink:href="security__impl_8cpp.html" target="_top" xlink:title=" ">
<polygon fill="white" stroke="black" points="1607,-0.5 1607,-52.5 1750,-52.5 1750,-0.5 1607,-0.5"/>
<text text-anchor="start" x="1615" y="-40.5" font-family="Helvetica,sans-Serif" font-size="10.00">/home/kali/projects</text>
<text text-anchor="start" x="1615" y="-29.5" font-family="Helvetica,sans-Serif" font-size="10.00">/vsomeip/implementation</text>
<text text-anchor="start" x="1615" y="-18.5" font-family="Helvetica,sans-Serif" font-size="10.00">/security/src/security</text>
<text text-anchor="middle" x="1678.5" y="-7.5" font-family="Helvetica,sans-Serif" font-size="10.00">_impl.cpp</text>
</a>
</g>
</g>
<!-- Node10&#45;&gt;Node14 -->
<g id="edge13" class="edge">
<title>Node10&#45;&gt;Node14</title>
<path fill="none" stroke="midnightblue" d="M1513.76,-86C1544.19,-75.19 1578.58,-62.98 1608.04,-52.52"/>
<polygon fill="midnightblue" stroke="midnightblue" points="1512.29,-82.81 1504.04,-89.45 1514.63,-89.4 1512.29,-82.81"/>
</g>
</g>
</svg>
