<?xml version="1.0" encoding="UTF-8" standalone="no"?>
<!DOCTYPE svg PUBLIC "-//W3C//DTD SVG 1.1//EN"
 "http://www.w3.org/Graphics/SVG/1.1/DTD/svg11.dtd">
<!-- Generated by graphviz version 2.43.0 (0)
 -->
<!-- Title: /home/kali/projects/vsomeip/implementation/security/src/security_impl.cpp Pages: 1 -->
<svg width="1566pt" height="329pt"
 viewBox="0.00 0.00 1566.28 329.00" xmlns="http://www.w3.org/2000/svg" xmlns:xlink="http://www.w3.org/1999/xlink">
<g id="graph0" class="graph" transform="scale(1 1) rotate(0) translate(4 325)">
<title>/home/kali/projects/vsomeip/implementation/security/src/security_impl.cpp</title>
<polygon fill="white" stroke="transparent" points="-4,4 -4,-325 1562.28,-325 1562.28,4 -4,4"/>
<!-- Node1 -->
<g id="node1" class="node">
<title>Node1</title>
<g id="a_node1"><a xlink:title=" ">
<polygon fill="#bfbfbf" stroke="black" points="1116.28,-268.5 1116.28,-320.5 1259.28,-320.5 1259.28,-268.5 1116.28,-268.5"/>
<text text-anchor="start" x="1124.28" y="-308.5" font-family="Helvetica,sans-Serif" font-size="10.00">/home/kali/projects</text>
<text text-anchor="start" x="1124.28" y="-297.5" font-family="Helvetica,sans-Serif" font-size="10.00">/vsomeip/implementation</text>
<text text-anchor="start" x="1124.28" y="-286.5" font-family="Helvetica,sans-Serif" font-size="10.00">/security/src/security</text>
<text text-anchor="middle" x="1187.78" y="-275.5" font-family="Helvetica,sans-Serif" font-size="10.00">_impl.cpp</text>
</a>
</g>
</g>
<!-- Node2 -->
<g id="node2" class="node">
<title>Node2</title>
<g id="a_node2"><a xlink:title=" ">
<polygon fill="white" stroke="#bfbfbf" points="124.78,-0.5 124.78,-19.5 180.78,-19.5 180.78,-0.5 124.78,-0.5"/>
<text text-anchor="middle" x="152.78" y="-7.5" font-family="Helvetica,sans-Serif" font-size="10.00">sstream</text>
</a>
</g>
</g>
<!-- Node1&#45;&gt;Node2 -->
<g id="edge1" class="edge">
<title>Node1&#45;&gt;Node2</title>
<path fill="none" stroke="midnightblue" d="M1116.08,-292.47C882.57,-287.47 150.78,-258.18 7.78,-87 -25.28,-47.43 61.32,-25.78 114.6,-16.52"/>
<polygon fill="midnightblue" stroke="midnightblue" points="115.47,-19.92 124.76,-14.83 114.33,-13.02 115.47,-19.92"/>
</g>
<!-- Node3 -->
<g id="node3" class="node">
<title>Node3</title>
<g id="a_node3"><a xlink:title=" ">
<polygon fill="white" stroke="#bfbfbf" points="1298.78,-201.5 1298.78,-220.5 1362.78,-220.5 1362.78,-201.5 1298.78,-201.5"/>
<text text-anchor="middle" x="1330.78" y="-208.5" font-family="Helvetica,sans-Serif" font-size="10.00">algorithm</text>
</a>
</g>
</g>
<!-- Node1&#45;&gt;Node3 -->
<g id="edge2" class="edge">
<title>Node1&#45;&gt;Node3</title>
<path fill="none" stroke="midnightblue" d="M1231.85,-268.38C1256.5,-254.33 1286.28,-237.36 1306.69,-225.73"/>
<polygon fill="midnightblue" stroke="midnightblue" points="1308.66,-228.63 1315.62,-220.64 1305.2,-222.55 1308.66,-228.63"/>
</g>
<!-- Node4 -->
<g id="node4" class="node">
<title>Node4</title>
<g id="a_node4"><a xlink:href="policy__manager_8hpp.html" target="_top" xlink:title=" ">
<polygon fill="white" stroke="black" points="1233.28,-123.5 1233.28,-153.5 1364.28,-153.5 1364.28,-123.5 1233.28,-123.5"/>
<text text-anchor="start" x="1241.28" y="-141.5" font-family="Helvetica,sans-Serif" font-size="10.00">vsomeip/internal/policy</text>
<text text-anchor="middle" x="1298.78" y="-130.5" font-family="Helvetica,sans-Serif" font-size="10.00">_manager.hpp</text>
</a>
</g>
</g>
<!-- Node1&#45;&gt;Node4 -->
<g id="edge3" class="edge">
<title>Node1&#45;&gt;Node4</title>
<path fill="none" stroke="midnightblue" d="M1203.51,-268.32C1217.05,-247.04 1237.41,-215.97 1256.78,-190 1263.91,-180.44 1272.22,-170.26 1279.56,-161.57"/>
<polygon fill="midnightblue" stroke="midnightblue" points="1282.4,-163.64 1286.23,-153.76 1277.08,-159.09 1282.4,-163.64"/>
</g>
<!-- Node7 -->
<g id="node7" class="node">
<title>Node7</title>
<g id="a_node7"><a xlink:href="security__impl_8hpp.html" target="_top" xlink:title=" ">
<polygon fill="white" stroke="black" points="819.28,-196 819.28,-226 922.28,-226 922.28,-196 819.28,-196"/>
<text text-anchor="start" x="827.28" y="-214" font-family="Helvetica,sans-Serif" font-size="10.00">../include/security</text>
<text text-anchor="middle" x="870.78" y="-203" font-family="Helvetica,sans-Serif" font-size="10.00">_impl.hpp</text>
</a>
</g>
</g>
<!-- Node1&#45;&gt;Node7 -->
<g id="edge6" class="edge">
<title>Node1&#45;&gt;Node7</title>
<path fill="none" stroke="midnightblue" d="M1116.24,-275.11C1060.83,-260.86 984.88,-241.34 932.2,-227.79"/>
<polygon fill="midnightblue" stroke="midnightblue" points="932.87,-224.35 922.32,-225.25 931.13,-231.13 932.87,-224.35"/>
</g>
<!-- Node27 -->
<g id="node27" class="node">
<title>Node27</title>
<g id="a_node27"><a xlink:href="configuration__element_8hpp.html" target="_top" xlink:title=" ">
<polygon fill="white" stroke="black" points="1082.78,-190.5 1082.78,-231.5 1204.78,-231.5 1204.78,-190.5 1082.78,-190.5"/>
<text text-anchor="start" x="1090.78" y="-219.5" font-family="Helvetica,sans-Serif" font-size="10.00">../../configuration</text>
<text text-anchor="start" x="1090.78" y="-208.5" font-family="Helvetica,sans-Serif" font-size="10.00">/include/configuration</text>
<text text-anchor="middle" x="1143.78" y="-197.5" font-family="Helvetica,sans-Serif" font-size="10.00">_element.hpp</text>
</a>
</g>
</g>
<!-- Node1&#45;&gt;Node27 -->
<g id="edge34" class="edge">
<title>Node1&#45;&gt;Node27</title>
<path fill="none" stroke="midnightblue" d="M1174.1,-268.16C1169.38,-259.42 1164.06,-249.57 1159.21,-240.59"/>
<polygon fill="midnightblue" stroke="midnightblue" points="1162.2,-238.77 1154.37,-231.63 1156.04,-242.09 1162.2,-238.77"/>
</g>
<!-- Node29 -->
<g id="node29" class="node">
<title>Node29</title>
<g id="a_node29"><a xlink:href="internal_8hpp.html" target="_top" xlink:title=" ">
<polygon fill="white" stroke="black" points="1382.78,-123.5 1382.78,-153.5 1498.78,-153.5 1498.78,-123.5 1382.78,-123.5"/>
<text text-anchor="start" x="1390.78" y="-141.5" font-family="Helvetica,sans-Serif" font-size="10.00">../../configuration</text>
<text text-anchor="middle" x="1440.78" y="-130.5" font-family="Helvetica,sans-Serif" font-size="10.00">/include/internal.hpp</text>
</a>
</g>
</g>
<!-- Node1&#45;&gt;Node29 -->
<g id="edge37" class="edge">
<title>Node1&#45;&gt;Node29</title>
<path fill="none" stroke="midnightblue" d="M1217.49,-268.42C1229.75,-257.62 1243.85,-244.6 1255.78,-232 1272.29,-214.56 1270.04,-203.69 1289.78,-190 1304.72,-179.63 1344.22,-166.57 1379.07,-156.33"/>
<polygon fill="midnightblue" stroke="midnightblue" points="1380.12,-159.67 1388.75,-153.53 1378.17,-152.95 1380.12,-159.67"/>
</g>
<!-- Node5 -->
<g id="node5" class="node">
<title>Node5</title>
<g id="a_node5"><a xlink:title=" ">
<polygon fill="white" stroke="#bfbfbf" points="1142.78,-62 1142.78,-81 1200.78,-81 1200.78,-62 1142.78,-62"/>
<text text-anchor="middle" x="1171.78" y="-69" font-family="Helvetica,sans-Serif" font-size="10.00">memory</text>
</a>
</g>
</g>
<!-- Node4&#45;&gt;Node5 -->
<g id="edge4" class="edge">
<title>Node4&#45;&gt;Node5</title>
<path fill="none" stroke="midnightblue" d="M1271.22,-123.4C1249.33,-112.19 1218.95,-96.64 1197.54,-85.69"/>
<polygon fill="midnightblue" stroke="midnightblue" points="1198.9,-82.45 1188.4,-81.01 1195.71,-88.68 1198.9,-82.45"/>
</g>
<!-- Node6 -->
<g id="node6" class="node">
<title>Node6</title>
<g id="a_node6"><a xlink:title=" ">
<polygon fill="white" stroke="#bfbfbf" points="1218.28,-62 1218.28,-81 1377.28,-81 1377.28,-62 1218.28,-62"/>
<text text-anchor="middle" x="1297.78" y="-69" font-family="Helvetica,sans-Serif" font-size="10.00">vsomeip/primitive_types.hpp</text>
</a>
</g>
</g>
<!-- Node4&#45;&gt;Node6 -->
<g id="edge5" class="edge">
<title>Node4&#45;&gt;Node6</title>
<path fill="none" stroke="midnightblue" d="M1298.56,-123.4C1298.42,-114.06 1298.23,-101.71 1298.07,-91.52"/>
<polygon fill="midnightblue" stroke="midnightblue" points="1301.56,-91.14 1297.91,-81.19 1294.57,-91.25 1301.56,-91.14"/>
</g>
<!-- Node8 -->
<g id="node8" class="node">
<title>Node8</title>
<g id="a_node8"><a xlink:title=" ">
<polygon fill="white" stroke="#bfbfbf" points="738.78,-62 738.78,-81 776.78,-81 776.78,-62 738.78,-62"/>
<text text-anchor="middle" x="757.78" y="-69" font-family="Helvetica,sans-Serif" font-size="10.00">map</text>
</a>
</g>
</g>
<!-- Node7&#45;&gt;Node8 -->
<g id="edge7" class="edge">
<title>Node7&#45;&gt;Node8</title>
<path fill="none" stroke="midnightblue" d="M859.11,-195.8C838.04,-170.17 793.77,-116.3 771.37,-89.05"/>
<polygon fill="midnightblue" stroke="midnightblue" points="773.98,-86.7 764.93,-81.2 768.57,-91.15 773.98,-86.7"/>
</g>
<!-- Node9 -->
<g id="node9" class="node">
<title>Node9</title>
<g id="a_node9"><a xlink:title=" ">
<polygon fill="white" stroke="#bfbfbf" points="724.78,-0.5 724.78,-19.5 772.78,-19.5 772.78,-0.5 724.78,-0.5"/>
<text text-anchor="middle" x="748.78" y="-7.5" font-family="Helvetica,sans-Serif" font-size="10.00">mutex</text>
</a>
</g>
</g>
<!-- Node7&#45;&gt;Node9 -->
<g id="edge8" class="edge">
<title>Node7&#45;&gt;Node9</title>
<path fill="none" stroke="midnightblue" d="M873.21,-195.56C877.34,-166.11 882.43,-98.31 850.78,-56 834.59,-34.36 805.72,-22.94 782.82,-17.03"/>
<polygon fill="midnightblue" stroke="midnightblue" points="783.31,-13.55 772.78,-14.68 781.72,-20.37 783.31,-13.55"/>
</g>
<!-- Node10 -->
<g id="node10" class="node">
<title>Node10</title>
<g id="a_node10"><a xlink:title=" ">
<polygon fill="white" stroke="#bfbfbf" points="795.28,-62 795.28,-81 842.28,-81 842.28,-62 795.28,-62"/>
<text text-anchor="middle" x="818.78" y="-69" font-family="Helvetica,sans-Serif" font-size="10.00">vector</text>
</a>
</g>
</g>
<!-- Node7&#45;&gt;Node10 -->
<g id="edge9" class="edge">
<title>Node7&#45;&gt;Node10</title>
<path fill="none" stroke="midnightblue" d="M865.41,-195.8C855.92,-170.73 836.22,-118.62 825.72,-90.85"/>
<polygon fill="midnightblue" stroke="midnightblue" points="828.88,-89.32 822.07,-81.2 822.33,-91.79 828.88,-89.32"/>
</g>
<!-- Node11 -->
<g id="node11" class="node">
<title>Node11</title>
<g id="a_node11"><a xlink:title=" ">
<polygon fill="white" stroke="#bfbfbf" points="1039.28,-123.5 1039.28,-153.5 1152.28,-153.5 1152.28,-123.5 1039.28,-123.5"/>
<text text-anchor="start" x="1047.28" y="-141.5" font-family="Helvetica,sans-Serif" font-size="10.00">boost/property_tree</text>
<text text-anchor="middle" x="1095.78" y="-130.5" font-family="Helvetica,sans-Serif" font-size="10.00">/ptree.hpp</text>
</a>
</g>
</g>
<!-- Node7&#45;&gt;Node11 -->
<g id="edge10" class="edge">
<title>Node7&#45;&gt;Node11</title>
<path fill="none" stroke="midnightblue" d="M915.5,-195.99C951.5,-184.71 1002.26,-168.8 1040.75,-156.74"/>
<polygon fill="midnightblue" stroke="midnightblue" points="1042.26,-159.94 1050.76,-153.61 1040.17,-153.26 1042.26,-159.94"/>
</g>
<!-- Node12 -->
<g id="node12" class="node">
<title>Node12</title>
<g id="a_node12"><a xlink:href="policy_8hpp.html" target="_top" xlink:title=" ">
<polygon fill="white" stroke="black" points="549.28,-129 549.28,-148 662.28,-148 662.28,-129 549.28,-129"/>
<text text-anchor="middle" x="605.78" y="-136" font-family="Helvetica,sans-Serif" font-size="10.00">../include/policy.hpp</text>
</a>
</g>
</g>
<!-- Node7&#45;&gt;Node12 -->
<g id="edge11" class="edge">
<title>Node7&#45;&gt;Node12</title>
<path fill="none" stroke="midnightblue" d="M819.05,-196.24C768.96,-182.91 693.95,-162.96 647.53,-150.61"/>
<polygon fill="midnightblue" stroke="midnightblue" points="648.36,-147.21 637.8,-148.02 646.56,-153.97 648.36,-147.21"/>
</g>
<!-- Node24 -->
<g id="node24" class="node">
<title>Node24</title>
<g id="a_node24"><a xlink:href="security_8hpp.html" target="_top" xlink:title=" ">
<polygon fill="white" stroke="black" points="898.78,-129 898.78,-148 1020.78,-148 1020.78,-129 898.78,-129"/>
<text text-anchor="middle" x="959.78" y="-136" font-family="Helvetica,sans-Serif" font-size="10.00">../include/security.hpp</text>
</a>
</g>
</g>
<!-- Node7&#45;&gt;Node24 -->
<g id="edge29" class="edge">
<title>Node7&#45;&gt;Node24</title>
<path fill="none" stroke="midnightblue" d="M888.79,-195.73C903.73,-183.89 924.95,-167.09 940.29,-154.94"/>
<polygon fill="midnightblue" stroke="midnightblue" points="942.88,-157.35 948.55,-148.39 938.54,-151.86 942.88,-157.35"/>
</g>
<!-- Node12&#45;&gt;Node6 -->
<g id="edge20" class="edge">
<title>Node12&#45;&gt;Node6</title>
<path fill="none" stroke="midnightblue" d="M662.56,-134.27C769.78,-127.84 1009.28,-111.86 1209.78,-87 1219.69,-85.77 1230.19,-84.24 1240.36,-82.64"/>
<polygon fill="midnightblue" stroke="midnightblue" points="1241.07,-86.07 1250.38,-81.02 1239.95,-79.16 1241.07,-86.07"/>
</g>
<!-- Node12&#45;&gt;Node8 -->
<g id="edge13" class="edge">
<title>Node12&#45;&gt;Node8</title>
<path fill="none" stroke="midnightblue" d="M626.02,-129C649.73,-119.03 690.16,-101.95 724.78,-87 726.18,-86.4 727.61,-85.77 729.06,-85.15"/>
<polygon fill="midnightblue" stroke="midnightblue" points="730.84,-88.19 738.6,-80.98 728.04,-81.77 730.84,-88.19"/>
</g>
<!-- Node12&#45;&gt;Node9 -->
<g id="edge14" class="edge">
<title>Node12&#45;&gt;Node9</title>
<path fill="none" stroke="midnightblue" d="M624.7,-128.89C642.89,-120.04 670.52,-105.04 690.78,-87 710.26,-69.65 727.68,-44.96 738.23,-28.48"/>
<polygon fill="midnightblue" stroke="midnightblue" points="741.29,-30.18 743.61,-19.85 735.35,-26.48 741.29,-30.18"/>
</g>
<!-- Node12&#45;&gt;Node10 -->
<g id="edge16" class="edge">
<title>Node12&#45;&gt;Node10</title>
<path fill="none" stroke="midnightblue" d="M641.76,-128.99C678.43,-119.95 736.73,-104.56 785.78,-87 787.44,-86.41 789.13,-85.77 790.83,-85.1"/>
<polygon fill="midnightblue" stroke="midnightblue" points="792.57,-88.17 800.46,-81.09 789.88,-81.7 792.57,-88.17"/>
</g>
<!-- Node13 -->
<g id="node13" class="node">
<title>Node13</title>
<g id="a_node13"><a xlink:title=" ">
<polygon fill="white" stroke="#bfbfbf" points="16.78,-62 16.78,-81 66.78,-81 66.78,-62 16.78,-62"/>
<text text-anchor="middle" x="41.78" y="-69" font-family="Helvetica,sans-Serif" font-size="10.00">cstring</text>
</a>
</g>
</g>
<!-- Node12&#45;&gt;Node13 -->
<g id="edge12" class="edge">
<title>Node12&#45;&gt;Node13</title>
<path fill="none" stroke="midnightblue" d="M549.11,-137.77C451.08,-136.99 244.19,-129.83 75.78,-87 73.42,-86.4 71.01,-85.66 68.62,-84.83"/>
<polygon fill="midnightblue" stroke="midnightblue" points="69.65,-81.48 59.06,-81.09 67.1,-88 69.65,-81.48"/>
</g>
<!-- Node14 -->
<g id="node14" class="node">
<title>Node14</title>
<g id="a_node14"><a xlink:title=" ">
<polygon fill="white" stroke="#bfbfbf" points="85.28,-62 85.28,-81 130.28,-81 130.28,-62 85.28,-62"/>
<text text-anchor="middle" x="107.78" y="-69" font-family="Helvetica,sans-Serif" font-size="10.00">utility</text>
</a>
</g>
</g>
<!-- Node12&#45;&gt;Node14 -->
<g id="edge15" class="edge">
<title>Node12&#45;&gt;Node14</title>
<path fill="none" stroke="midnightblue" d="M549.12,-137.1C460.31,-135.21 283.63,-126.3 139.78,-87 137.63,-86.41 135.44,-85.7 133.26,-84.9"/>
<polygon fill="midnightblue" stroke="midnightblue" points="134.59,-81.66 124.01,-81.06 131.91,-88.13 134.59,-81.66"/>
</g>
<!-- Node15 -->
<g id="node15" class="node">
<title>Node15</title>
<g id="a_node15"><a xlink:title=" ">
<polygon fill="white" stroke="#bfbfbf" points="148.78,-56.5 148.78,-86.5 246.78,-86.5 246.78,-56.5 148.78,-56.5"/>
<text text-anchor="start" x="156.78" y="-74.5" font-family="Helvetica,sans-Serif" font-size="10.00">boost/icl/interval</text>
<text text-anchor="middle" x="197.78" y="-63.5" font-family="Helvetica,sans-Serif" font-size="10.00">_map.hpp</text>
</a>
</g>
</g>
<!-- Node12&#45;&gt;Node15 -->
<g id="edge17" class="edge">
<title>Node12&#45;&gt;Node15</title>
<path fill="none" stroke="midnightblue" d="M549.1,-131.12C481.67,-123.13 365.54,-108.11 256.88,-87.1"/>
<polygon fill="midnightblue" stroke="midnightblue" points="257.55,-83.67 247.06,-85.18 256.2,-90.54 257.55,-83.67"/>
</g>
<!-- Node16 -->
<g id="node16" class="node">
<title>Node16</title>
<g id="a_node16"><a xlink:title=" ">
<polygon fill="white" stroke="#bfbfbf" points="264.78,-56.5 264.78,-86.5 362.78,-86.5 362.78,-56.5 264.78,-56.5"/>
<text text-anchor="start" x="272.78" y="-74.5" font-family="Helvetica,sans-Serif" font-size="10.00">boost/icl/interval</text>
<text text-anchor="middle" x="313.78" y="-63.5" font-family="Helvetica,sans-Serif" font-size="10.00">_set.hpp</text>
</a>
</g>
</g>
<!-- Node12&#45;&gt;Node16 -->
<g id="edge18" class="edge">
<title>Node12&#45;&gt;Node16</title>
<path fill="none" stroke="midnightblue" d="M564.26,-128.96C519.43,-119.65 445.65,-104.06 372.63,-87.16"/>
<polygon fill="midnightblue" stroke="midnightblue" points="373.33,-83.73 362.8,-84.87 371.75,-90.55 373.33,-83.73"/>
</g>
<!-- Node17 -->
<g id="node17" class="node">
<title>Node17</title>
<g id="a_node17"><a xlink:title=" ">
<polygon fill="white" stroke="#bfbfbf" points="380.78,-62 380.78,-81 510.78,-81 510.78,-62 380.78,-62"/>
<text text-anchor="middle" x="445.78" y="-69" font-family="Helvetica,sans-Serif" font-size="10.00">vsomeip/constants.hpp</text>
</a>
</g>
</g>
<!-- Node12&#45;&gt;Node17 -->
<g id="edge19" class="edge">
<title>Node12&#45;&gt;Node17</title>
<path fill="none" stroke="midnightblue" d="M584.53,-128.87C556.84,-117.62 508.22,-97.87 476.51,-84.99"/>
<polygon fill="midnightblue" stroke="midnightblue" points="477.44,-81.58 466.86,-81.06 474.8,-88.07 477.44,-81.58"/>
</g>
<!-- Node18 -->
<g id="node18" class="node">
<title>Node18</title>
<g id="a_node18"><a xlink:href="logger_8hpp.html" target="_top" xlink:title=" ">
<polygon fill="white" stroke="black" points="529.28,-62 529.28,-81 682.28,-81 682.28,-62 529.28,-62"/>
<text text-anchor="middle" x="605.78" y="-69" font-family="Helvetica,sans-Serif" font-size="10.00">vsomeip/internal/logger.hpp</text>
</a>
</g>
</g>
<!-- Node12&#45;&gt;Node18 -->
<g id="edge21" class="edge">
<title>Node12&#45;&gt;Node18</title>
<path fill="none" stroke="midnightblue" d="M605.78,-128.73C605.78,-119.18 605.78,-103.62 605.78,-91.28"/>
<polygon fill="midnightblue" stroke="midnightblue" points="609.28,-91.13 605.78,-81.13 602.28,-91.13 609.28,-91.13"/>
</g>
<!-- Node18&#45;&gt;Node2 -->
<g id="edge26" class="edge">
<title>Node18&#45;&gt;Node2</title>
<path fill="none" stroke="midnightblue" d="M557.62,-61.99C545.3,-59.92 532.06,-57.79 519.78,-56 400.09,-38.58 257.77,-22.43 190.98,-15.11"/>
<polygon fill="midnightblue" stroke="midnightblue" points="191.24,-11.62 180.92,-14.01 190.48,-18.58 191.24,-11.62"/>
</g>
<!-- Node18&#45;&gt;Node9 -->
<g id="edge24" class="edge">
<title>Node18&#45;&gt;Node9</title>
<path fill="none" stroke="midnightblue" d="M626.27,-61.98C650.58,-51.86 691.33,-34.9 719.09,-23.35"/>
<polygon fill="midnightblue" stroke="midnightblue" points="720.44,-26.58 728.33,-19.51 717.75,-20.12 720.44,-26.58"/>
</g>
<!-- Node19 -->
<g id="node19" class="node">
<title>Node19</title>
<g id="a_node19"><a xlink:title=" ">
<polygon fill="white" stroke="#bfbfbf" points="580.78,-0.5 580.78,-19.5 630.78,-19.5 630.78,-0.5 580.78,-0.5"/>
<text text-anchor="middle" x="605.78" y="-7.5" font-family="Helvetica,sans-Serif" font-size="10.00">chrono</text>
</a>
</g>
</g>
<!-- Node18&#45;&gt;Node19 -->
<g id="edge22" class="edge">
<title>Node18&#45;&gt;Node19</title>
<path fill="none" stroke="midnightblue" d="M605.78,-61.98C605.78,-53.58 605.78,-40.48 605.78,-29.66"/>
<polygon fill="midnightblue" stroke="midnightblue" points="609.28,-29.51 605.78,-19.51 602.28,-29.51 609.28,-29.51"/>
</g>
<!-- Node20 -->
<g id="node20" class="node">
<title>Node20</title>
<g id="a_node20"><a xlink:title=" ">
<polygon fill="white" stroke="#bfbfbf" points="1084.78,-0.5 1084.78,-19.5 1134.78,-19.5 1134.78,-0.5 1084.78,-0.5"/>
<text text-anchor="middle" x="1109.78" y="-7.5" font-family="Helvetica,sans-Serif" font-size="10.00">cstdint</text>
</a>
</g>
</g>
<!-- Node18&#45;&gt;Node20 -->
<g id="edge23" class="edge">
<title>Node18&#45;&gt;Node20</title>
<path fill="none" stroke="midnightblue" d="M677.99,-61.98C787.77,-49.02 992.53,-24.84 1074.51,-15.16"/>
<polygon fill="midnightblue" stroke="midnightblue" points="1075.04,-18.62 1084.57,-13.98 1074.22,-11.67 1075.04,-18.62"/>
</g>
<!-- Node21 -->
<g id="node21" class="node">
<title>Node21</title>
<g id="a_node21"><a xlink:title=" ">
<polygon fill="white" stroke="#bfbfbf" points="649.28,-0.5 649.28,-19.5 706.28,-19.5 706.28,-0.5 649.28,-0.5"/>
<text text-anchor="middle" x="677.78" y="-7.5" font-family="Helvetica,sans-Serif" font-size="10.00">ostream</text>
</a>
</g>
</g>
<!-- Node18&#45;&gt;Node21 -->
<g id="edge25" class="edge">
<title>Node18&#45;&gt;Node21</title>
<path fill="none" stroke="midnightblue" d="M616.09,-61.98C627.43,-52.61 645.85,-37.38 659.62,-26.01"/>
<polygon fill="midnightblue" stroke="midnightblue" points="662,-28.58 667.48,-19.51 657.54,-23.18 662,-28.58"/>
</g>
<!-- Node22 -->
<g id="node22" class="node">
<title>Node22</title>
<g id="a_node22"><a xlink:title=" ">
<polygon fill="white" stroke="#bfbfbf" points="363.28,-0.5 363.28,-19.5 430.28,-19.5 430.28,-0.5 363.28,-0.5"/>
<text text-anchor="middle" x="396.78" y="-7.5" font-family="Helvetica,sans-Serif" font-size="10.00">streambuf</text>
</a>
</g>
</g>
<!-- Node18&#45;&gt;Node22 -->
<g id="edge27" class="edge">
<title>Node18&#45;&gt;Node22</title>
<path fill="none" stroke="midnightblue" d="M575.83,-61.98C539.21,-51.55 477.08,-33.86 436.49,-22.31"/>
<polygon fill="midnightblue" stroke="midnightblue" points="437.24,-18.88 426.67,-19.51 435.33,-25.61 437.24,-18.88"/>
</g>
<!-- Node23 -->
<g id="node23" class="node">
<title>Node23</title>
<g id="a_node23"><a xlink:title=" ">
<polygon fill="white" stroke="#bfbfbf" points="448.78,-0.5 448.78,-19.5 562.78,-19.5 562.78,-0.5 448.78,-0.5"/>
<text text-anchor="middle" x="505.78" y="-7.5" font-family="Helvetica,sans-Serif" font-size="10.00">vsomeip/export.hpp</text>
</a>
</g>
</g>
<!-- Node18&#45;&gt;Node23 -->
<g id="edge28" class="edge">
<title>Node18&#45;&gt;Node23</title>
<path fill="none" stroke="midnightblue" d="M591.45,-61.98C575.11,-52.25 548.17,-36.23 528.86,-24.74"/>
<polygon fill="midnightblue" stroke="midnightblue" points="530.46,-21.61 520.08,-19.51 526.88,-27.63 530.46,-21.61"/>
</g>
<!-- Node24&#45;&gt;Node5 -->
<g id="edge30" class="edge">
<title>Node24&#45;&gt;Node5</title>
<path fill="none" stroke="midnightblue" d="M992.09,-128.98C1027.21,-119.51 1084.87,-103.4 1133.78,-87 1136.04,-86.24 1138.36,-85.43 1140.69,-84.6"/>
<polygon fill="midnightblue" stroke="midnightblue" points="1142.02,-87.84 1150.19,-81.09 1139.59,-81.27 1142.02,-87.84"/>
</g>
<!-- Node24&#45;&gt;Node6 -->
<g id="edge33" class="edge">
<title>Node24&#45;&gt;Node6</title>
<path fill="none" stroke="midnightblue" d="M1000.47,-128.94C1010.07,-126.96 1020.28,-124.88 1029.78,-123 1102.65,-108.59 1186.86,-92.87 1241.14,-82.87"/>
<polygon fill="midnightblue" stroke="midnightblue" points="1242.05,-86.26 1251.25,-81 1240.78,-79.37 1242.05,-86.26"/>
</g>
<!-- Node25 -->
<g id="node25" class="node">
<title>Node25</title>
<g id="a_node25"><a xlink:title=" ">
<polygon fill="white" stroke="#bfbfbf" points="1038.78,-62 1038.78,-81 1124.78,-81 1124.78,-62 1038.78,-62"/>
<text text-anchor="middle" x="1081.78" y="-69" font-family="Helvetica,sans-Serif" font-size="10.00">unordered_set</text>
</a>
</g>
</g>
<!-- Node24&#45;&gt;Node25 -->
<g id="edge31" class="edge">
<title>Node24&#45;&gt;Node25</title>
<path fill="none" stroke="midnightblue" d="M975.98,-128.87C996.58,-117.89 1032.37,-98.82 1056.55,-85.94"/>
<polygon fill="midnightblue" stroke="midnightblue" points="1058.33,-88.96 1065.51,-81.17 1055.04,-82.78 1058.33,-88.96"/>
</g>
<!-- Node26 -->
<g id="node26" class="node">
<title>Node26</title>
<g id="a_node26"><a xlink:title=" ">
<polygon fill="white" stroke="#bfbfbf" points="898.78,-62 898.78,-81 1020.78,-81 1020.78,-62 898.78,-62"/>
<text text-anchor="middle" x="959.78" y="-69" font-family="Helvetica,sans-Serif" font-size="10.00">vsomeip/payload.hpp</text>
</a>
</g>
</g>
<!-- Node24&#45;&gt;Node26 -->
<g id="edge32" class="edge">
<title>Node24&#45;&gt;Node26</title>
<path fill="none" stroke="midnightblue" d="M959.78,-128.73C959.78,-119.18 959.78,-103.62 959.78,-91.28"/>
<polygon fill="midnightblue" stroke="midnightblue" points="963.28,-91.13 959.78,-81.13 956.28,-91.13 963.28,-91.13"/>
</g>
<!-- Node27&#45;&gt;Node11 -->
<g id="edge36" class="edge">
<title>Node27&#45;&gt;Node11</title>
<path fill="none" stroke="midnightblue" d="M1130.41,-190.36C1124.5,-181.68 1117.51,-171.42 1111.37,-162.4"/>
<polygon fill="midnightblue" stroke="midnightblue" points="1114.1,-160.19 1105.58,-153.89 1108.31,-164.13 1114.1,-160.19"/>
</g>
<!-- Node28 -->
<g id="node28" class="node">
<title>Node28</title>
<g id="a_node28"><a xlink:title=" ">
<polygon fill="white" stroke="#bfbfbf" points="1170.78,-129 1170.78,-148 1214.78,-148 1214.78,-129 1170.78,-129"/>
<text text-anchor="middle" x="1192.78" y="-136" font-family="Helvetica,sans-Serif" font-size="10.00">string</text>
</a>
</g>
</g>
<!-- Node27&#45;&gt;Node28 -->
<g id="edge35" class="edge">
<title>Node27&#45;&gt;Node28</title>
<path fill="none" stroke="midnightblue" d="M1157.43,-190.36C1164.8,-179.76 1173.81,-166.79 1180.89,-156.6"/>
<polygon fill="midnightblue" stroke="midnightblue" points="1183.92,-158.38 1186.75,-148.17 1178.17,-154.39 1183.92,-158.38"/>
</g>
<!-- Node29&#45;&gt;Node6 -->
<g id="edge40" class="edge">
<title>Node29&#45;&gt;Node6</title>
<path fill="none" stroke="midnightblue" d="M1409.75,-123.4C1384.77,-112.04 1349.96,-96.22 1325.81,-85.24"/>
<polygon fill="midnightblue" stroke="midnightblue" points="1327.04,-81.96 1316.49,-81.01 1324.15,-88.33 1327.04,-81.96"/>
</g>
<!-- Node29&#45;&gt;Node20 -->
<g id="edge38" class="edge">
<title>Node29&#45;&gt;Node20</title>
<path fill="none" stroke="midnightblue" d="M1435.61,-123.34C1427.99,-104.65 1411.87,-72.2 1386.78,-56 1347.42,-30.59 1210.9,-17.96 1145.39,-13.25"/>
<polygon fill="midnightblue" stroke="midnightblue" points="1145.36,-9.74 1135.14,-12.54 1144.87,-16.72 1145.36,-9.74"/>
</g>
<!-- Node30 -->
<g id="node30" class="node">
<title>Node30</title>
<g id="a_node30"><a xlink:title=" ">
<polygon fill="white" stroke="#bfbfbf" points="1432.78,-62 1432.78,-81 1476.78,-81 1476.78,-62 1432.78,-62"/>
<text text-anchor="middle" x="1454.78" y="-69" font-family="Helvetica,sans-Serif" font-size="10.00">limits</text>
</a>
</g>
</g>
<!-- Node29&#45;&gt;Node30 -->
<g id="edge39" class="edge">
<title>Node29&#45;&gt;Node30</title>
<path fill="none" stroke="midnightblue" d="M1443.82,-123.4C1445.85,-113.96 1448.54,-101.45 1450.75,-91.19"/>
<polygon fill="midnightblue" stroke="midnightblue" points="1454.22,-91.71 1452.9,-81.19 1447.38,-90.23 1454.22,-91.71"/>
</g>
<!-- Node31 -->
<g id="node31" class="node">
<title>Node31</title>
<g id="a_node31"><a xlink:title=" ">
<polygon fill="white" stroke="#bfbfbf" points="1495.28,-62 1495.28,-81 1558.28,-81 1558.28,-62 1495.28,-62"/>
<text text-anchor="middle" x="1526.78" y="-69" font-family="Helvetica,sans-Serif" font-size="10.00">pthread.h</text>
</a>
</g>
</g>
<!-- Node29&#45;&gt;Node31 -->
<g id="edge41" class="edge">
<title>Node29&#45;&gt;Node31</title>
<path fill="none" stroke="midnightblue" d="M1459.44,-123.4C1473.51,-112.76 1492.77,-98.2 1507.09,-87.38"/>
<polygon fill="midnightblue" stroke="midnightblue" points="1509.41,-90.02 1515.27,-81.19 1505.19,-84.43 1509.41,-90.02"/>
</g>
</g>
</svg>
