<?xml version="1.0" encoding="UTF-8" standalone="no"?>
<!DOCTYPE svg PUBLIC "-//W3C//DTD SVG 1.1//EN"
 "http://www.w3.org/Graphics/SVG/1.1/DTD/svg11.dtd">
<!-- Generated by graphviz version 2.43.0 (0)
 -->
<!-- Title: /home/kali/projects/vsomeip/implementation/security/include/security_impl.hpp Pages: 1 -->
<svg width="1377pt" height="251pt"
 viewBox="0.00 0.00 1377.00 251.00" xmlns="http://www.w3.org/2000/svg" xmlns:xlink="http://www.w3.org/1999/xlink">
<g id="graph0" class="graph" transform="scale(1 1) rotate(0) translate(4 247)">
<title>/home/kali/projects/vsomeip/implementation/security/include/security_impl.hpp</title>
<polygon fill="white" stroke="transparent" points="-4,4 -4,-247 1373,-247 1373,4 -4,4"/>
<!-- Node1 -->
<g id="node1" class="node">
<title>Node1</title>
<g id="a_node1"><a xlink:title=" ">
<polygon fill="#bfbfbf" stroke="black" points="261.5,-190.5 261.5,-242.5 404.5,-242.5 404.5,-190.5 261.5,-190.5"/>
<text text-anchor="start" x="269.5" y="-230.5" font-family="Helvetica,sans-Serif" font-size="10.00">/home/kali/projects</text>
<text text-anchor="start" x="269.5" y="-219.5" font-family="Helvetica,sans-Serif" font-size="10.00">/vsomeip/implementation</text>
<text text-anchor="start" x="269.5" y="-208.5" font-family="Helvetica,sans-Serif" font-size="10.00">/security/include/security</text>
<text text-anchor="middle" x="333" y="-197.5" font-family="Helvetica,sans-Serif" font-size="10.00">_impl.hpp</text>
</a>
</g>
</g>
<!-- Node2 -->
<g id="node2" class="node">
<title>Node2</title>
<g id="a_node2"><a xlink:title=" ">
<polygon fill="white" stroke="#bfbfbf" points="46,-62 46,-81 84,-81 84,-62 46,-62"/>
<text text-anchor="middle" x="65" y="-69" font-family="Helvetica,sans-Serif" font-size="10.00">map</text>
</a>
</g>
</g>
<!-- Node1&#45;&gt;Node2 -->
<g id="edge1" class="edge">
<title>Node1&#45;&gt;Node2</title>
<path fill="none" stroke="midnightblue" d="M275.84,-190.44C252.38,-179.75 225.12,-166.8 201,-154 159.68,-132.07 113.28,-103.33 86.76,-86.5"/>
<polygon fill="midnightblue" stroke="midnightblue" points="88.56,-83.5 78.25,-81.07 84.79,-89.4 88.56,-83.5"/>
</g>
<!-- Node3 -->
<g id="node3" class="node">
<title>Node3</title>
<g id="a_node3"><a xlink:title=" ">
<polygon fill="white" stroke="#bfbfbf" points="0,-0.5 0,-19.5 48,-19.5 48,-0.5 0,-0.5"/>
<text text-anchor="middle" x="24" y="-7.5" font-family="Helvetica,sans-Serif" font-size="10.00">mutex</text>
</a>
</g>
</g>
<!-- Node1&#45;&gt;Node3 -->
<g id="edge2" class="edge">
<title>Node1&#45;&gt;Node3</title>
<path fill="none" stroke="midnightblue" d="M261.38,-206.44C191.02,-193.34 87.13,-161.81 37,-87 25.62,-70.01 23.19,-46.24 23.08,-29.83"/>
<polygon fill="midnightblue" stroke="midnightblue" points="26.58,-29.89 23.3,-19.81 19.58,-29.74 26.58,-29.89"/>
</g>
<!-- Node4 -->
<g id="node4" class="node">
<title>Node4</title>
<g id="a_node4"><a xlink:title=" ">
<polygon fill="white" stroke="#bfbfbf" points="102.5,-62 102.5,-81 149.5,-81 149.5,-62 102.5,-62"/>
<text text-anchor="middle" x="126" y="-69" font-family="Helvetica,sans-Serif" font-size="10.00">vector</text>
</a>
</g>
</g>
<!-- Node1&#45;&gt;Node4 -->
<g id="edge3" class="edge">
<title>Node1&#45;&gt;Node4</title>
<path fill="none" stroke="midnightblue" d="M296.47,-190.26C253,-160.23 181.91,-111.12 146.87,-86.92"/>
<polygon fill="midnightblue" stroke="midnightblue" points="148.6,-83.86 138.38,-81.05 144.62,-89.62 148.6,-83.86"/>
</g>
<!-- Node5 -->
<g id="node5" class="node">
<title>Node5</title>
<g id="a_node5"><a xlink:title=" ">
<polygon fill="white" stroke="#bfbfbf" points="1112.5,-123.5 1112.5,-153.5 1225.5,-153.5 1225.5,-123.5 1112.5,-123.5"/>
<text text-anchor="start" x="1120.5" y="-141.5" font-family="Helvetica,sans-Serif" font-size="10.00">boost/property_tree</text>
<text text-anchor="middle" x="1169" y="-130.5" font-family="Helvetica,sans-Serif" font-size="10.00">/ptree.hpp</text>
</a>
</g>
</g>
<!-- Node1&#45;&gt;Node5 -->
<g id="edge4" class="edge">
<title>Node1&#45;&gt;Node5</title>
<path fill="none" stroke="midnightblue" d="M404.76,-213.04C539.61,-207.71 840.08,-192.43 1102.12,-153.99"/>
<polygon fill="midnightblue" stroke="midnightblue" points="1102.83,-157.42 1112.21,-152.49 1101.8,-150.5 1102.83,-157.42"/>
</g>
<!-- Node6 -->
<g id="node6" class="node">
<title>Node6</title>
<g id="a_node6"><a xlink:href="policy_8hpp.html" target="_top" xlink:title=" ">
<polygon fill="white" stroke="black" points="346.5,-129 346.5,-148 459.5,-148 459.5,-129 346.5,-129"/>
<text text-anchor="middle" x="403" y="-136" font-family="Helvetica,sans-Serif" font-size="10.00">../include/policy.hpp</text>
</a>
</g>
</g>
<!-- Node1&#45;&gt;Node6 -->
<g id="edge5" class="edge">
<title>Node1&#45;&gt;Node6</title>
<path fill="none" stroke="midnightblue" d="M356.31,-190.19C366.75,-178.86 378.76,-165.82 387.98,-155.81"/>
<polygon fill="midnightblue" stroke="midnightblue" points="390.78,-157.94 394.98,-148.21 385.63,-153.19 390.78,-157.94"/>
</g>
<!-- Node20 -->
<g id="node20" class="node">
<title>Node20</title>
<g id="a_node20"><a xlink:href="security_8hpp.html" target="_top" xlink:title=" ">
<polygon fill="white" stroke="black" points="972,-129 972,-148 1094,-148 1094,-129 972,-129"/>
<text text-anchor="middle" x="1033" y="-136" font-family="Helvetica,sans-Serif" font-size="10.00">../include/security.hpp</text>
</a>
</g>
</g>
<!-- Node1&#45;&gt;Node20 -->
<g id="edge23" class="edge">
<title>Node1&#45;&gt;Node20</title>
<path fill="none" stroke="midnightblue" d="M404.62,-207.72C538.94,-193.14 827.17,-161.85 961.43,-147.27"/>
<polygon fill="midnightblue" stroke="midnightblue" points="962.05,-150.72 971.61,-146.17 961.29,-143.77 962.05,-150.72"/>
</g>
<!-- Node6&#45;&gt;Node2 -->
<g id="edge7" class="edge">
<title>Node6&#45;&gt;Node2</title>
<path fill="none" stroke="midnightblue" d="M346.29,-133.66C283.14,-128.16 178.67,-115.36 93,-87 91.57,-86.53 90.13,-85.99 88.68,-85.4"/>
<polygon fill="midnightblue" stroke="midnightblue" points="89.98,-82.15 79.44,-81.08 87.02,-88.49 89.98,-82.15"/>
</g>
<!-- Node6&#45;&gt;Node3 -->
<g id="edge8" class="edge">
<title>Node6&#45;&gt;Node3</title>
<path fill="none" stroke="midnightblue" d="M346.1,-130.3C303.42,-123.32 244.44,-110.27 197,-87 177.12,-77.25 177.45,-66.57 158,-56 140.56,-46.52 91.66,-31.05 58.01,-20.95"/>
<polygon fill="midnightblue" stroke="midnightblue" points="58.7,-17.5 48.12,-18 56.7,-24.21 58.7,-17.5"/>
</g>
<!-- Node6&#45;&gt;Node4 -->
<g id="edge10" class="edge">
<title>Node6&#45;&gt;Node4</title>
<path fill="none" stroke="midnightblue" d="M351.14,-128.96C302.33,-120.35 227.46,-105.69 164,-87 161.42,-86.24 158.77,-85.39 156.12,-84.48"/>
<polygon fill="midnightblue" stroke="midnightblue" points="157.3,-81.19 146.71,-81.07 154.92,-87.77 157.3,-81.19"/>
</g>
<!-- Node7 -->
<g id="node7" class="node">
<title>Node7</title>
<g id="a_node7"><a xlink:title=" ">
<polygon fill="white" stroke="#bfbfbf" points="378,-62 378,-81 428,-81 428,-62 378,-62"/>
<text text-anchor="middle" x="403" y="-69" font-family="Helvetica,sans-Serif" font-size="10.00">cstring</text>
</a>
</g>
</g>
<!-- Node6&#45;&gt;Node7 -->
<g id="edge6" class="edge">
<title>Node6&#45;&gt;Node7</title>
<path fill="none" stroke="midnightblue" d="M403,-128.73C403,-119.18 403,-103.62 403,-91.28"/>
<polygon fill="midnightblue" stroke="midnightblue" points="406.5,-91.13 403,-81.13 399.5,-91.13 406.5,-91.13"/>
</g>
<!-- Node8 -->
<g id="node8" class="node">
<title>Node8</title>
<g id="a_node8"><a xlink:title=" ">
<polygon fill="white" stroke="#bfbfbf" points="446.5,-62 446.5,-81 491.5,-81 491.5,-62 446.5,-62"/>
<text text-anchor="middle" x="469" y="-69" font-family="Helvetica,sans-Serif" font-size="10.00">utility</text>
</a>
</g>
</g>
<!-- Node6&#45;&gt;Node8 -->
<g id="edge9" class="edge">
<title>Node6&#45;&gt;Node8</title>
<path fill="none" stroke="midnightblue" d="M411.9,-128.73C422.39,-118.4 440.02,-101.04 452.92,-88.33"/>
<polygon fill="midnightblue" stroke="midnightblue" points="455.57,-90.64 460.24,-81.13 450.66,-85.65 455.57,-90.64"/>
</g>
<!-- Node9 -->
<g id="node9" class="node">
<title>Node9</title>
<g id="a_node9"><a xlink:title=" ">
<polygon fill="white" stroke="#bfbfbf" points="510,-56.5 510,-86.5 608,-86.5 608,-56.5 510,-56.5"/>
<text text-anchor="start" x="518" y="-74.5" font-family="Helvetica,sans-Serif" font-size="10.00">boost/icl/interval</text>
<text text-anchor="middle" x="559" y="-63.5" font-family="Helvetica,sans-Serif" font-size="10.00">_map.hpp</text>
</a>
</g>
</g>
<!-- Node6&#45;&gt;Node9 -->
<g id="edge11" class="edge">
<title>Node6&#45;&gt;Node9</title>
<path fill="none" stroke="midnightblue" d="M423.72,-128.87C447.12,-119.12 485.87,-102.97 515.92,-90.45"/>
<polygon fill="midnightblue" stroke="midnightblue" points="517.45,-93.61 525.33,-86.53 514.76,-87.14 517.45,-93.61"/>
</g>
<!-- Node10 -->
<g id="node10" class="node">
<title>Node10</title>
<g id="a_node10"><a xlink:title=" ">
<polygon fill="white" stroke="#bfbfbf" points="626,-56.5 626,-86.5 724,-86.5 724,-56.5 626,-56.5"/>
<text text-anchor="start" x="634" y="-74.5" font-family="Helvetica,sans-Serif" font-size="10.00">boost/icl/interval</text>
<text text-anchor="middle" x="675" y="-63.5" font-family="Helvetica,sans-Serif" font-size="10.00">_set.hpp</text>
</a>
</g>
</g>
<!-- Node6&#45;&gt;Node10 -->
<g id="edge12" class="edge">
<title>Node6&#45;&gt;Node10</title>
<path fill="none" stroke="midnightblue" d="M439.77,-128.98C480.43,-119.52 548.14,-103.67 615.96,-87.24"/>
<polygon fill="midnightblue" stroke="midnightblue" points="617.07,-90.57 625.96,-84.81 615.42,-83.77 617.07,-90.57"/>
</g>
<!-- Node11 -->
<g id="node11" class="node">
<title>Node11</title>
<g id="a_node11"><a xlink:title=" ">
<polygon fill="white" stroke="#bfbfbf" points="742,-62 742,-81 872,-81 872,-62 742,-62"/>
<text text-anchor="middle" x="807" y="-69" font-family="Helvetica,sans-Serif" font-size="10.00">vsomeip/constants.hpp</text>
</a>
</g>
</g>
<!-- Node6&#45;&gt;Node11 -->
<g id="edge13" class="edge">
<title>Node6&#45;&gt;Node11</title>
<path fill="none" stroke="midnightblue" d="M459.76,-129.55C525.6,-120.15 637.36,-103.68 733,-87 740.18,-85.75 747.74,-84.35 755.17,-82.94"/>
<polygon fill="midnightblue" stroke="midnightblue" points="756.03,-86.34 765.18,-81.01 754.7,-79.47 756.03,-86.34"/>
</g>
<!-- Node12 -->
<g id="node12" class="node">
<title>Node12</title>
<g id="a_node12"><a xlink:title=" ">
<polygon fill="white" stroke="#bfbfbf" points="890.5,-62 890.5,-81 1049.5,-81 1049.5,-62 890.5,-62"/>
<text text-anchor="middle" x="970" y="-69" font-family="Helvetica,sans-Serif" font-size="10.00">vsomeip/primitive_types.hpp</text>
</a>
</g>
</g>
<!-- Node6&#45;&gt;Node12 -->
<g id="edge14" class="edge">
<title>Node6&#45;&gt;Node12</title>
<path fill="none" stroke="midnightblue" d="M459.78,-132.54C549.44,-124.48 729.23,-107.36 881,-87 890.56,-85.72 900.67,-84.21 910.51,-82.67"/>
<polygon fill="midnightblue" stroke="midnightblue" points="911.32,-86.08 920.64,-81.05 910.22,-79.17 911.32,-86.08"/>
</g>
<!-- Node13 -->
<g id="node13" class="node">
<title>Node13</title>
<g id="a_node13"><a xlink:href="logger_8hpp.html" target="_top" xlink:title=" ">
<polygon fill="white" stroke="black" points="206.5,-62 206.5,-81 359.5,-81 359.5,-62 206.5,-62"/>
<text text-anchor="middle" x="283" y="-69" font-family="Helvetica,sans-Serif" font-size="10.00">vsomeip/internal/logger.hpp</text>
</a>
</g>
</g>
<!-- Node6&#45;&gt;Node13 -->
<g id="edge15" class="edge">
<title>Node6&#45;&gt;Node13</title>
<path fill="none" stroke="midnightblue" d="M386.82,-128.73C366.57,-117.77 331.7,-98.88 308.01,-86.05"/>
<polygon fill="midnightblue" stroke="midnightblue" points="309.39,-82.81 298.93,-81.13 306.05,-88.97 309.39,-82.81"/>
</g>
<!-- Node13&#45;&gt;Node3 -->
<g id="edge18" class="edge">
<title>Node13&#45;&gt;Node3</title>
<path fill="none" stroke="midnightblue" d="M242.04,-61.95C198.7,-52.76 128.09,-37.42 58,-20.16"/>
<polygon fill="midnightblue" stroke="midnightblue" points="58.66,-16.72 48.12,-17.72 56.98,-23.52 58.66,-16.72"/>
</g>
<!-- Node14 -->
<g id="node14" class="node">
<title>Node14</title>
<g id="a_node14"><a xlink:title=" ">
<polygon fill="white" stroke="#bfbfbf" points="358,-0.5 358,-19.5 408,-19.5 408,-0.5 358,-0.5"/>
<text text-anchor="middle" x="383" y="-7.5" font-family="Helvetica,sans-Serif" font-size="10.00">chrono</text>
</a>
</g>
</g>
<!-- Node13&#45;&gt;Node14 -->
<g id="edge16" class="edge">
<title>Node13&#45;&gt;Node14</title>
<path fill="none" stroke="midnightblue" d="M297.33,-61.98C313.66,-52.25 340.6,-36.23 359.91,-24.74"/>
<polygon fill="midnightblue" stroke="midnightblue" points="361.89,-27.63 368.7,-19.51 358.32,-21.61 361.89,-27.63"/>
</g>
<!-- Node15 -->
<g id="node15" class="node">
<title>Node15</title>
<g id="a_node15"><a xlink:title=" ">
<polygon fill="white" stroke="#bfbfbf" points="426,-0.5 426,-19.5 476,-19.5 476,-0.5 426,-0.5"/>
<text text-anchor="middle" x="451" y="-7.5" font-family="Helvetica,sans-Serif" font-size="10.00">cstdint</text>
</a>
</g>
</g>
<!-- Node13&#45;&gt;Node15 -->
<g id="edge17" class="edge">
<title>Node13&#45;&gt;Node15</title>
<path fill="none" stroke="midnightblue" d="M307.07,-61.98C336.01,-51.72 384.76,-34.46 417.4,-22.9"/>
<polygon fill="midnightblue" stroke="midnightblue" points="418.72,-26.15 426.97,-19.51 416.38,-19.55 418.72,-26.15"/>
</g>
<!-- Node16 -->
<g id="node16" class="node">
<title>Node16</title>
<g id="a_node16"><a xlink:title=" ">
<polygon fill="white" stroke="#bfbfbf" points="494.5,-0.5 494.5,-19.5 551.5,-19.5 551.5,-0.5 494.5,-0.5"/>
<text text-anchor="middle" x="523" y="-7.5" font-family="Helvetica,sans-Serif" font-size="10.00">ostream</text>
</a>
</g>
</g>
<!-- Node13&#45;&gt;Node16 -->
<g id="edge19" class="edge">
<title>Node13&#45;&gt;Node16</title>
<path fill="none" stroke="midnightblue" d="M317.39,-61.98C361.61,-51.01 438.2,-32.02 484.38,-20.57"/>
<polygon fill="midnightblue" stroke="midnightblue" points="485.45,-23.92 494.31,-18.11 483.76,-17.12 485.45,-23.92"/>
</g>
<!-- Node17 -->
<g id="node17" class="node">
<title>Node17</title>
<g id="a_node17"><a xlink:title=" ">
<polygon fill="white" stroke="#bfbfbf" points="66,-0.5 66,-19.5 122,-19.5 122,-0.5 66,-0.5"/>
<text text-anchor="middle" x="94" y="-7.5" font-family="Helvetica,sans-Serif" font-size="10.00">sstream</text>
</a>
</g>
</g>
<!-- Node13&#45;&gt;Node17 -->
<g id="edge20" class="edge">
<title>Node13&#45;&gt;Node17</title>
<path fill="none" stroke="midnightblue" d="M255.92,-61.98C223.08,-51.64 167.57,-34.16 130.85,-22.6"/>
<polygon fill="midnightblue" stroke="midnightblue" points="131.62,-19.17 121.03,-19.51 129.52,-25.85 131.62,-19.17"/>
</g>
<!-- Node18 -->
<g id="node18" class="node">
<title>Node18</title>
<g id="a_node18"><a xlink:title=" ">
<polygon fill="white" stroke="#bfbfbf" points="140.5,-0.5 140.5,-19.5 207.5,-19.5 207.5,-0.5 140.5,-0.5"/>
<text text-anchor="middle" x="174" y="-7.5" font-family="Helvetica,sans-Serif" font-size="10.00">streambuf</text>
</a>
</g>
</g>
<!-- Node13&#45;&gt;Node18 -->
<g id="edge21" class="edge">
<title>Node13&#45;&gt;Node18</title>
<path fill="none" stroke="midnightblue" d="M267.38,-61.98C249.41,-52.17 219.68,-35.93 198.59,-24.42"/>
<polygon fill="midnightblue" stroke="midnightblue" points="200.04,-21.23 189.59,-19.51 196.69,-27.37 200.04,-21.23"/>
</g>
<!-- Node19 -->
<g id="node19" class="node">
<title>Node19</title>
<g id="a_node19"><a xlink:title=" ">
<polygon fill="white" stroke="#bfbfbf" points="226,-0.5 226,-19.5 340,-19.5 340,-0.5 226,-0.5"/>
<text text-anchor="middle" x="283" y="-7.5" font-family="Helvetica,sans-Serif" font-size="10.00">vsomeip/export.hpp</text>
</a>
</g>
</g>
<!-- Node13&#45;&gt;Node19 -->
<g id="edge22" class="edge">
<title>Node13&#45;&gt;Node19</title>
<path fill="none" stroke="midnightblue" d="M283,-61.98C283,-53.58 283,-40.48 283,-29.66"/>
<polygon fill="midnightblue" stroke="midnightblue" points="286.5,-29.51 283,-19.51 279.5,-29.51 286.5,-29.51"/>
</g>
<!-- Node20&#45;&gt;Node12 -->
<g id="edge27" class="edge">
<title>Node20&#45;&gt;Node12</title>
<path fill="none" stroke="midnightblue" d="M1024.5,-128.73C1014.49,-118.4 997.66,-101.04 985.34,-88.33"/>
<polygon fill="midnightblue" stroke="midnightblue" points="987.83,-85.87 978.36,-81.13 982.81,-90.74 987.83,-85.87"/>
</g>
<!-- Node21 -->
<g id="node21" class="node">
<title>Node21</title>
<g id="a_node21"><a xlink:title=" ">
<polygon fill="white" stroke="#bfbfbf" points="1067,-62 1067,-81 1125,-81 1125,-62 1067,-62"/>
<text text-anchor="middle" x="1096" y="-69" font-family="Helvetica,sans-Serif" font-size="10.00">memory</text>
</a>
</g>
</g>
<!-- Node20&#45;&gt;Node21 -->
<g id="edge24" class="edge">
<title>Node20&#45;&gt;Node21</title>
<path fill="none" stroke="midnightblue" d="M1041.5,-128.73C1051.51,-118.4 1068.34,-101.04 1080.66,-88.33"/>
<polygon fill="midnightblue" stroke="midnightblue" points="1083.19,-90.74 1087.64,-81.13 1078.17,-85.87 1083.19,-90.74"/>
</g>
<!-- Node22 -->
<g id="node22" class="node">
<title>Node22</title>
<g id="a_node22"><a xlink:title=" ">
<polygon fill="white" stroke="#bfbfbf" points="1143,-62 1143,-81 1229,-81 1229,-62 1143,-62"/>
<text text-anchor="middle" x="1186" y="-69" font-family="Helvetica,sans-Serif" font-size="10.00">unordered_set</text>
</a>
</g>
</g>
<!-- Node20&#45;&gt;Node22 -->
<g id="edge25" class="edge">
<title>Node20&#45;&gt;Node22</title>
<path fill="none" stroke="midnightblue" d="M1053.32,-128.87C1079.72,-117.65 1126.03,-97.98 1156.36,-85.09"/>
<polygon fill="midnightblue" stroke="midnightblue" points="1157.76,-88.3 1165.6,-81.17 1155.03,-81.86 1157.76,-88.3"/>
</g>
<!-- Node23 -->
<g id="node23" class="node">
<title>Node23</title>
<g id="a_node23"><a xlink:title=" ">
<polygon fill="white" stroke="#bfbfbf" points="1247,-62 1247,-81 1369,-81 1369,-62 1247,-62"/>
<text text-anchor="middle" x="1308" y="-69" font-family="Helvetica,sans-Serif" font-size="10.00">vsomeip/payload.hpp</text>
</a>
</g>
</g>
<!-- Node20&#45;&gt;Node23 -->
<g id="edge26" class="edge">
<title>Node20&#45;&gt;Node23</title>
<path fill="none" stroke="midnightblue" d="M1069.23,-128.94C1118.7,-117.24 1207.39,-96.28 1261.65,-83.46"/>
<polygon fill="midnightblue" stroke="midnightblue" points="1262.76,-86.79 1271.69,-81.08 1261.15,-79.98 1262.76,-86.79"/>
</g>
</g>
</svg>
