<?xml version="1.0" encoding="UTF-8" standalone="no"?>
<!DOCTYPE svg PUBLIC "-//W3C//DTD SVG 1.1//EN"
 "http://www.w3.org/Graphics/SVG/1.1/DTD/svg11.dtd">
<!-- Generated by graphviz version 2.43.0 (0)
 -->
<!-- Title: /home/kali/projects/vsomeip/implementation/service_discovery/src/selective_option_impl.cpp Pages: 1 -->
<svg width="616pt" height="296pt"
 viewBox="0.00 0.00 615.97 296.00" xmlns="http://www.w3.org/2000/svg" xmlns:xlink="http://www.w3.org/1999/xlink">
<g id="graph0" class="graph" transform="scale(1 1) rotate(0) translate(4 292)">
<title>/home/kali/projects/vsomeip/implementation/service_discovery/src/selective_option_impl.cpp</title>
<polygon fill="white" stroke="transparent" points="-4,4 -4,-292 611.97,-292 611.97,4 -4,4"/>
<!-- Node1 -->
<g id="node1" class="node">
<title>Node1</title>
<g id="a_node1"><a xlink:title=" ">
<polygon fill="#bfbfbf" stroke="black" points="210.97,-235.5 210.97,-287.5 357.97,-287.5 357.97,-235.5 210.97,-235.5"/>
<text text-anchor="start" x="218.97" y="-275.5" font-family="Helvetica,sans-Serif" font-size="10.00">/home/kali/projects</text>
<text text-anchor="start" x="218.97" y="-264.5" font-family="Helvetica,sans-Serif" font-size="10.00">/vsomeip/implementation</text>
<text text-anchor="start" x="218.97" y="-253.5" font-family="Helvetica,sans-Serif" font-size="10.00">/service_discovery/src</text>
<text text-anchor="middle" x="284.47" y="-242.5" font-family="Helvetica,sans-Serif" font-size="10.00">/selective_option_impl.cpp</text>
</a>
</g>
</g>
<!-- Node2 -->
<g id="node2" class="node">
<title>Node2</title>
<g id="a_node2"><a xlink:title=" ">
<polygon fill="white" stroke="#bfbfbf" points="97.47,-174 97.47,-193 147.47,-193 147.47,-174 97.47,-174"/>
<text text-anchor="middle" x="122.47" y="-181" font-family="Helvetica,sans-Serif" font-size="10.00">cstring</text>
</a>
</g>
</g>
<!-- Node1&#45;&gt;Node2 -->
<g id="edge1" class="edge">
<title>Node1&#45;&gt;Node2</title>
<path fill="none" stroke="midnightblue" d="M230.98,-235.4C203.85,-222.67 172.04,-207.75 149.9,-197.37"/>
<polygon fill="midnightblue" stroke="midnightblue" points="151.3,-194.16 140.76,-193.08 148.33,-200.49 151.3,-194.16"/>
</g>
<!-- Node3 -->
<g id="node3" class="node">
<title>Node3</title>
<g id="a_node3"><a xlink:href="selective__option__impl_8hpp.html" target="_top" xlink:title=" ">
<polygon fill="white" stroke="black" points="165.47,-168.5 165.47,-198.5 273.47,-198.5 273.47,-168.5 165.47,-168.5"/>
<text text-anchor="start" x="173.47" y="-186.5" font-family="Helvetica,sans-Serif" font-size="10.00">../include/selective</text>
<text text-anchor="middle" x="219.47" y="-175.5" font-family="Helvetica,sans-Serif" font-size="10.00">_option_impl.hpp</text>
</a>
</g>
</g>
<!-- Node1&#45;&gt;Node3 -->
<g id="edge2" class="edge">
<title>Node1&#45;&gt;Node3</title>
<path fill="none" stroke="midnightblue" d="M262.83,-235.19C254.91,-225.94 246.03,-215.54 238.37,-206.59"/>
<polygon fill="midnightblue" stroke="midnightblue" points="240.9,-204.17 231.74,-198.85 235.58,-208.72 240.9,-204.17"/>
</g>
<!-- Node11 -->
<g id="node11" class="node">
<title>Node11</title>
<g id="a_node11"><a xlink:href="message_2include_2deserializer_8hpp.html" target="_top" xlink:title=" ">
<polygon fill="white" stroke="black" points="291.97,-168.5 291.97,-198.5 408.97,-198.5 408.97,-168.5 291.97,-168.5"/>
<text text-anchor="start" x="299.97" y="-186.5" font-family="Helvetica,sans-Serif" font-size="10.00">../../message/include</text>
<text text-anchor="middle" x="350.47" y="-175.5" font-family="Helvetica,sans-Serif" font-size="10.00">/deserializer.hpp</text>
</a>
</g>
</g>
<!-- Node1&#45;&gt;Node11 -->
<g id="edge11" class="edge">
<title>Node1&#45;&gt;Node11</title>
<path fill="none" stroke="midnightblue" d="M306.45,-235.19C314.49,-225.94 323.51,-215.54 331.29,-206.59"/>
<polygon fill="midnightblue" stroke="midnightblue" points="334.1,-208.69 338.02,-198.85 328.82,-204.1 334.1,-208.69"/>
</g>
<!-- Node14 -->
<g id="node14" class="node">
<title>Node14</title>
<g id="a_node14"><a xlink:href="serializer_8hpp.html" target="_top" xlink:title=" ">
<polygon fill="white" stroke="black" points="426.97,-168.5 426.97,-198.5 543.97,-198.5 543.97,-168.5 426.97,-168.5"/>
<text text-anchor="start" x="434.97" y="-186.5" font-family="Helvetica,sans-Serif" font-size="10.00">../../message/include</text>
<text text-anchor="middle" x="485.47" y="-175.5" font-family="Helvetica,sans-Serif" font-size="10.00">/serializer.hpp</text>
</a>
</g>
</g>
<!-- Node1&#45;&gt;Node14 -->
<g id="edge15" class="edge">
<title>Node1&#45;&gt;Node14</title>
<path fill="none" stroke="midnightblue" d="M350.85,-235.4C379.54,-224.55 412.45,-212.11 438.55,-202.24"/>
<polygon fill="midnightblue" stroke="midnightblue" points="440.08,-205.41 448.19,-198.6 437.6,-198.86 440.08,-205.41"/>
</g>
<!-- Node4 -->
<g id="node4" class="node">
<title>Node4</title>
<g id="a_node4"><a xlink:title=" ">
<polygon fill="white" stroke="#bfbfbf" points="201.47,-112.5 201.47,-131.5 233.47,-131.5 233.47,-112.5 201.47,-112.5"/>
<text text-anchor="middle" x="217.47" y="-119.5" font-family="Helvetica,sans-Serif" font-size="10.00">set</text>
</a>
</g>
</g>
<!-- Node3&#45;&gt;Node4 -->
<g id="edge3" class="edge">
<title>Node3&#45;&gt;Node4</title>
<path fill="none" stroke="midnightblue" d="M219,-168.4C218.73,-160.47 218.4,-150.46 218.11,-141.86"/>
<polygon fill="midnightblue" stroke="midnightblue" points="221.6,-141.53 217.77,-131.66 214.6,-141.77 221.6,-141.53"/>
</g>
<!-- Node5 -->
<g id="node5" class="node">
<title>Node5</title>
<g id="a_node5"><a xlink:title=" ">
<polygon fill="white" stroke="#bfbfbf" points="250.97,-112.5 250.97,-131.5 409.97,-131.5 409.97,-112.5 250.97,-112.5"/>
<text text-anchor="middle" x="330.47" y="-119.5" font-family="Helvetica,sans-Serif" font-size="10.00">vsomeip/primitive_types.hpp</text>
</a>
</g>
</g>
<!-- Node3&#45;&gt;Node5 -->
<g id="edge4" class="edge">
<title>Node3&#45;&gt;Node5</title>
<path fill="none" stroke="midnightblue" d="M245.78,-168.4C263.74,-158.77 287.4,-146.09 305.15,-136.58"/>
<polygon fill="midnightblue" stroke="midnightblue" points="307.16,-139.47 314.32,-131.66 303.86,-133.3 307.16,-139.47"/>
</g>
<!-- Node6 -->
<g id="node6" class="node">
<title>Node6</title>
<g id="a_node6"><a xlink:href="option__impl_8hpp.html" target="_top" xlink:title=" ">
<polygon fill="white" stroke="black" points="87.97,-112.5 87.97,-131.5 182.97,-131.5 182.97,-112.5 87.97,-112.5"/>
<text text-anchor="middle" x="135.47" y="-119.5" font-family="Helvetica,sans-Serif" font-size="10.00">option_impl.hpp</text>
</a>
</g>
</g>
<!-- Node3&#45;&gt;Node6 -->
<g id="edge5" class="edge">
<title>Node3&#45;&gt;Node6</title>
<path fill="none" stroke="midnightblue" d="M199.57,-168.4C186.48,-159.13 169.39,-147.03 156.15,-137.65"/>
<polygon fill="midnightblue" stroke="midnightblue" points="157.88,-134.58 147.7,-131.66 153.83,-140.29 157.88,-134.58"/>
</g>
<!-- Node7 -->
<g id="node7" class="node">
<title>Node7</title>
<g id="a_node7"><a xlink:title=" ">
<polygon fill="white" stroke="#bfbfbf" points="7.47,-0.5 7.47,-19.5 57.47,-19.5 57.47,-0.5 7.47,-0.5"/>
<text text-anchor="middle" x="32.47" y="-7.5" font-family="Helvetica,sans-Serif" font-size="10.00">cstdint</text>
</a>
</g>
</g>
<!-- Node6&#45;&gt;Node7 -->
<g id="edge6" class="edge">
<title>Node6&#45;&gt;Node7</title>
<path fill="none" stroke="midnightblue" d="M87.66,-118C58.47,-113.41 23.27,-102.32 4.47,-76 -6.29,-60.93 5.33,-41.07 16.7,-27.29"/>
<polygon fill="midnightblue" stroke="midnightblue" points="19.52,-29.39 23.55,-19.59 14.29,-24.74 19.52,-29.39"/>
</g>
<!-- Node8 -->
<g id="node8" class="node">
<title>Node8</title>
<g id="a_node8"><a xlink:title=" ">
<polygon fill="white" stroke="#bfbfbf" points="163.47,-56.5 163.47,-75.5 221.47,-75.5 221.47,-56.5 163.47,-56.5"/>
<text text-anchor="middle" x="192.47" y="-63.5" font-family="Helvetica,sans-Serif" font-size="10.00">memory</text>
</a>
</g>
</g>
<!-- Node6&#45;&gt;Node8 -->
<g id="edge7" class="edge">
<title>Node6&#45;&gt;Node8</title>
<path fill="none" stroke="midnightblue" d="M144.63,-112.32C152.98,-104.42 165.51,-92.55 175.65,-82.94"/>
<polygon fill="midnightblue" stroke="midnightblue" points="178.3,-85.25 183.15,-75.83 173.48,-80.17 178.3,-85.25"/>
</g>
<!-- Node9 -->
<g id="node9" class="node">
<title>Node9</title>
<g id="a_node9"><a xlink:href="implementation_2service__discovery_2include_2enumeration__types_8hpp.html" target="_top" xlink:title=" ">
<polygon fill="white" stroke="black" points="13.47,-56.5 13.47,-75.5 145.47,-75.5 145.47,-56.5 13.47,-56.5"/>
<text text-anchor="middle" x="79.47" y="-63.5" font-family="Helvetica,sans-Serif" font-size="10.00">enumeration_types.hpp</text>
</a>
</g>
</g>
<!-- Node6&#45;&gt;Node9 -->
<g id="edge8" class="edge">
<title>Node6&#45;&gt;Node9</title>
<path fill="none" stroke="midnightblue" d="M126.48,-112.32C118.28,-104.42 105.97,-92.55 96,-82.94"/>
<polygon fill="midnightblue" stroke="midnightblue" points="98.26,-80.26 88.64,-75.83 93.4,-85.29 98.26,-80.26"/>
</g>
<!-- Node10 -->
<g id="node10" class="node">
<title>Node10</title>
<g id="a_node10"><a xlink:href="message__element__impl_8hpp.html" target="_top" xlink:title=" ">
<polygon fill="white" stroke="black" points="239.97,-56.5 239.97,-75.5 394.97,-75.5 394.97,-56.5 239.97,-56.5"/>
<text text-anchor="middle" x="317.47" y="-63.5" font-family="Helvetica,sans-Serif" font-size="10.00">message_element_impl.hpp</text>
</a>
</g>
</g>
<!-- Node6&#45;&gt;Node10 -->
<g id="edge10" class="edge">
<title>Node6&#45;&gt;Node10</title>
<path fill="none" stroke="midnightblue" d="M164.31,-112.44C195.33,-103.24 244.8,-88.56 279.09,-78.39"/>
<polygon fill="midnightblue" stroke="midnightblue" points="280.18,-81.72 288.77,-75.52 278.19,-75.01 280.18,-81.72"/>
</g>
<!-- Node9&#45;&gt;Node7 -->
<g id="edge9" class="edge">
<title>Node9&#45;&gt;Node7</title>
<path fill="none" stroke="midnightblue" d="M71.71,-56.08C64.94,-48.3 54.93,-36.8 46.72,-27.37"/>
<polygon fill="midnightblue" stroke="midnightblue" points="49.3,-25 40.09,-19.75 44.02,-29.59 49.3,-25"/>
</g>
<!-- Node11&#45;&gt;Node5 -->
<g id="edge14" class="edge">
<title>Node11&#45;&gt;Node5</title>
<path fill="none" stroke="midnightblue" d="M345.73,-168.4C343.01,-160.29 339.55,-150.01 336.62,-141.28"/>
<polygon fill="midnightblue" stroke="midnightblue" points="339.89,-140.02 333.38,-131.66 333.25,-142.25 339.89,-140.02"/>
</g>
<!-- Node12 -->
<g id="node12" class="node">
<title>Node12</title>
<g id="a_node12"><a xlink:title=" ">
<polygon fill="white" stroke="#bfbfbf" points="560.97,-112.5 560.97,-131.5 607.97,-131.5 607.97,-112.5 560.97,-112.5"/>
<text text-anchor="middle" x="584.47" y="-119.5" font-family="Helvetica,sans-Serif" font-size="10.00">vector</text>
</a>
</g>
</g>
<!-- Node11&#45;&gt;Node12 -->
<g id="edge12" class="edge">
<title>Node11&#45;&gt;Node12</title>
<path fill="none" stroke="midnightblue" d="M407.73,-168.44C445.71,-159.04 496.9,-146.22 550.93,-132.1"/>
<polygon fill="midnightblue" stroke="midnightblue" points="551.91,-135.47 560.7,-129.55 550.14,-128.69 551.91,-135.47"/>
</g>
<!-- Node13 -->
<g id="node13" class="node">
<title>Node13</title>
<g id="a_node13"><a xlink:title=" ">
<polygon fill="white" stroke="#bfbfbf" points="428.47,-112.5 428.47,-131.5 542.47,-131.5 542.47,-112.5 428.47,-112.5"/>
<text text-anchor="middle" x="485.47" y="-119.5" font-family="Helvetica,sans-Serif" font-size="10.00">vsomeip/export.hpp</text>
</a>
</g>
</g>
<!-- Node11&#45;&gt;Node13 -->
<g id="edge13" class="edge">
<title>Node11&#45;&gt;Node13</title>
<path fill="none" stroke="midnightblue" d="M382.47,-168.4C404.92,-158.51 434.69,-145.38 456.45,-135.79"/>
<polygon fill="midnightblue" stroke="midnightblue" points="458.09,-138.89 465.83,-131.66 455.27,-132.49 458.09,-138.89"/>
</g>
<!-- Node14&#45;&gt;Node5 -->
<g id="edge18" class="edge">
<title>Node14&#45;&gt;Node5</title>
<path fill="none" stroke="midnightblue" d="M448.74,-168.4C422.5,-158.33 387.55,-144.91 362.46,-135.28"/>
<polygon fill="midnightblue" stroke="midnightblue" points="363.62,-131.97 353.03,-131.66 361.11,-138.51 363.62,-131.97"/>
</g>
<!-- Node14&#45;&gt;Node12 -->
<g id="edge16" class="edge">
<title>Node14&#45;&gt;Node12</title>
<path fill="none" stroke="midnightblue" d="M508.94,-168.4C524.8,-158.86 545.66,-146.32 561.44,-136.84"/>
<polygon fill="midnightblue" stroke="midnightblue" points="563.3,-139.81 570.07,-131.66 559.69,-133.81 563.3,-139.81"/>
</g>
<!-- Node14&#45;&gt;Node13 -->
<g id="edge17" class="edge">
<title>Node14&#45;&gt;Node13</title>
<path fill="none" stroke="midnightblue" d="M485.47,-168.4C485.47,-160.47 485.47,-150.46 485.47,-141.86"/>
<polygon fill="midnightblue" stroke="midnightblue" points="488.97,-141.66 485.47,-131.66 481.97,-141.66 488.97,-141.66"/>
</g>
</g>
</svg>
