<?xml version="1.0" encoding="UTF-8" standalone="no"?>
<!DOCTYPE svg PUBLIC "-//W3C//DTD SVG 1.1//EN"
 "http://www.w3.org/Graphics/SVG/1.1/DTD/svg11.dtd">
<!-- Generated by graphviz version 2.43.0 (0)
 -->
<!-- Title: /home/kali/projects/vsomeip/implementation/message/src/serializer.cpp Pages: 1 -->
<svg width="897pt" height="173pt"
 viewBox="0.00 0.00 897.00 173.00" xmlns="http://www.w3.org/2000/svg" xmlns:xlink="http://www.w3.org/1999/xlink">
<g id="graph0" class="graph" transform="scale(1 1) rotate(0) translate(4 169)">
<title>/home/kali/projects/vsomeip/implementation/message/src/serializer.cpp</title>
<polygon fill="white" stroke="transparent" points="-4,4 -4,-169 893,-169 893,4 -4,4"/>
<!-- Node1 -->
<g id="node1" class="node">
<title>Node1</title>
<g id="a_node1"><a xlink:title=" ">
<polygon fill="#bfbfbf" stroke="black" points="253,-123.5 253,-164.5 402,-164.5 402,-123.5 253,-123.5"/>
<text text-anchor="start" x="261" y="-152.5" font-family="Helvetica,sans-Serif" font-size="10.00">/home/kali/projects</text>
<text text-anchor="start" x="261" y="-141.5" font-family="Helvetica,sans-Serif" font-size="10.00">/vsomeip/implementation</text>
<text text-anchor="middle" x="327.5" y="-130.5" font-family="Helvetica,sans-Serif" font-size="10.00">/message/src/serializer.cpp</text>
</a>
</g>
</g>
<!-- Node2 -->
<g id="node2" class="node">
<title>Node2</title>
<g id="a_node2"><a xlink:title=" ">
<polygon fill="white" stroke="#bfbfbf" points="0,-62 0,-81 179,-81 179,-62 0,-62"/>
<text text-anchor="middle" x="89.5" y="-69" font-family="Helvetica,sans-Serif" font-size="10.00">vsomeip/internal/serializable.hpp</text>
</a>
</g>
</g>
<!-- Node1&#45;&gt;Node2 -->
<g id="edge1" class="edge">
<title>Node1&#45;&gt;Node2</title>
<path fill="none" stroke="midnightblue" d="M261.52,-123.46C218.51,-110.72 163.9,-94.54 127.88,-83.87"/>
<polygon fill="midnightblue" stroke="midnightblue" points="128.82,-80.5 118.24,-81.01 126.83,-87.21 128.82,-80.5"/>
</g>
<!-- Node3 -->
<g id="node3" class="node">
<title>Node3</title>
<g id="a_node3"><a xlink:href="serializer_8hpp.html" target="_top" xlink:title=" ">
<polygon fill="white" stroke="black" points="197,-62 197,-81 326,-81 326,-62 197,-62"/>
<text text-anchor="middle" x="261.5" y="-69" font-family="Helvetica,sans-Serif" font-size="10.00">../include/serializer.hpp</text>
</a>
</g>
</g>
<!-- Node1&#45;&gt;Node3 -->
<g id="edge2" class="edge">
<title>Node1&#45;&gt;Node3</title>
<path fill="none" stroke="midnightblue" d="M309.12,-123.36C298.88,-112.43 286.3,-98.99 276.64,-88.67"/>
<polygon fill="midnightblue" stroke="midnightblue" points="279.01,-86.08 269.62,-81.17 273.9,-90.87 279.01,-86.08"/>
</g>
<!-- Node7 -->
<g id="node7" class="node">
<title>Node7</title>
<g id="a_node7"><a xlink:href="byteorder_8hpp.html" target="_top" xlink:title=" ">
<polygon fill="white" stroke="black" points="344,-56.5 344,-86.5 445,-86.5 445,-56.5 344,-56.5"/>
<text text-anchor="start" x="352" y="-74.5" font-family="Helvetica,sans-Serif" font-size="10.00">../../utility/include</text>
<text text-anchor="middle" x="394.5" y="-63.5" font-family="Helvetica,sans-Serif" font-size="10.00">/byteorder.hpp</text>
</a>
</g>
</g>
<!-- Node1&#45;&gt;Node7 -->
<g id="edge6" class="edge">
<title>Node1&#45;&gt;Node7</title>
<path fill="none" stroke="midnightblue" d="M346.16,-123.36C354.75,-114.32 364.98,-103.57 373.8,-94.28"/>
<polygon fill="midnightblue" stroke="midnightblue" points="376.47,-96.55 380.82,-86.89 371.4,-91.73 376.47,-96.55"/>
</g>
<!-- Node8 -->
<g id="node8" class="node">
<title>Node8</title>
<g id="a_node8"><a xlink:href="logger_8hpp.html" target="_top" xlink:title=" ">
<polygon fill="white" stroke="black" points="519,-62 519,-81 672,-81 672,-62 519,-62"/>
<text text-anchor="middle" x="595.5" y="-69" font-family="Helvetica,sans-Serif" font-size="10.00">vsomeip/internal/logger.hpp</text>
</a>
</g>
</g>
<!-- Node1&#45;&gt;Node8 -->
<g id="edge7" class="edge">
<title>Node1&#45;&gt;Node8</title>
<path fill="none" stroke="midnightblue" d="M401.8,-123.46C450.64,-110.61 512.78,-94.26 553.32,-83.6"/>
<polygon fill="midnightblue" stroke="midnightblue" points="554.36,-86.94 563.14,-81.01 552.58,-80.17 554.36,-86.94"/>
</g>
<!-- Node4 -->
<g id="node4" class="node">
<title>Node4</title>
<g id="a_node4"><a xlink:title=" ">
<polygon fill="white" stroke="#bfbfbf" points="95,-0.5 95,-19.5 142,-19.5 142,-0.5 95,-0.5"/>
<text text-anchor="middle" x="118.5" y="-7.5" font-family="Helvetica,sans-Serif" font-size="10.00">vector</text>
</a>
</g>
</g>
<!-- Node3&#45;&gt;Node4 -->
<g id="edge3" class="edge">
<title>Node3&#45;&gt;Node4</title>
<path fill="none" stroke="midnightblue" d="M241.01,-61.98C216.69,-51.86 175.95,-34.9 148.18,-23.35"/>
<polygon fill="midnightblue" stroke="midnightblue" points="149.53,-20.12 138.95,-19.51 146.84,-26.58 149.53,-20.12"/>
</g>
<!-- Node5 -->
<g id="node5" class="node">
<title>Node5</title>
<g id="a_node5"><a xlink:title=" ">
<polygon fill="white" stroke="#bfbfbf" points="337.5,-0.5 337.5,-19.5 451.5,-19.5 451.5,-0.5 337.5,-0.5"/>
<text text-anchor="middle" x="394.5" y="-7.5" font-family="Helvetica,sans-Serif" font-size="10.00">vsomeip/export.hpp</text>
</a>
</g>
</g>
<!-- Node3&#45;&gt;Node5 -->
<g id="edge4" class="edge">
<title>Node3&#45;&gt;Node5</title>
<path fill="none" stroke="midnightblue" d="M280.56,-61.98C302.97,-51.95 340.41,-35.2 366.21,-23.65"/>
<polygon fill="midnightblue" stroke="midnightblue" points="367.78,-26.79 375.48,-19.51 364.92,-20.4 367.78,-26.79"/>
</g>
<!-- Node6 -->
<g id="node6" class="node">
<title>Node6</title>
<g id="a_node6"><a xlink:title=" ">
<polygon fill="white" stroke="#bfbfbf" points="160,-0.5 160,-19.5 319,-19.5 319,-0.5 160,-0.5"/>
<text text-anchor="middle" x="239.5" y="-7.5" font-family="Helvetica,sans-Serif" font-size="10.00">vsomeip/primitive_types.hpp</text>
</a>
</g>
</g>
<!-- Node3&#45;&gt;Node6 -->
<g id="edge5" class="edge">
<title>Node3&#45;&gt;Node6</title>
<path fill="none" stroke="midnightblue" d="M258.35,-61.98C255.18,-53.4 250.2,-39.93 246.15,-28.98"/>
<polygon fill="midnightblue" stroke="midnightblue" points="249.4,-27.67 242.65,-19.51 242.83,-30.1 249.4,-27.67"/>
</g>
<!-- Node8&#45;&gt;Node5 -->
<g id="edge14" class="edge">
<title>Node8&#45;&gt;Node5</title>
<path fill="none" stroke="midnightblue" d="M566.7,-61.98C531.63,-51.59 472.24,-34.01 433.19,-22.45"/>
<polygon fill="midnightblue" stroke="midnightblue" points="433.83,-18.99 423.24,-19.51 431.84,-25.7 433.83,-18.99"/>
</g>
<!-- Node9 -->
<g id="node9" class="node">
<title>Node9</title>
<g id="a_node9"><a xlink:title=" ">
<polygon fill="white" stroke="#bfbfbf" points="469.5,-0.5 469.5,-19.5 519.5,-19.5 519.5,-0.5 469.5,-0.5"/>
<text text-anchor="middle" x="494.5" y="-7.5" font-family="Helvetica,sans-Serif" font-size="10.00">chrono</text>
</a>
</g>
</g>
<!-- Node8&#45;&gt;Node9 -->
<g id="edge8" class="edge">
<title>Node8&#45;&gt;Node9</title>
<path fill="none" stroke="midnightblue" d="M581.03,-61.98C564.53,-52.25 537.32,-36.23 517.82,-24.74"/>
<polygon fill="midnightblue" stroke="midnightblue" points="519.34,-21.57 508.94,-19.51 515.78,-27.6 519.34,-21.57"/>
</g>
<!-- Node10 -->
<g id="node10" class="node">
<title>Node10</title>
<g id="a_node10"><a xlink:title=" ">
<polygon fill="white" stroke="#bfbfbf" points="537.5,-0.5 537.5,-19.5 587.5,-19.5 587.5,-0.5 537.5,-0.5"/>
<text text-anchor="middle" x="562.5" y="-7.5" font-family="Helvetica,sans-Serif" font-size="10.00">cstdint</text>
</a>
</g>
</g>
<!-- Node8&#45;&gt;Node10 -->
<g id="edge9" class="edge">
<title>Node8&#45;&gt;Node10</title>
<path fill="none" stroke="midnightblue" d="M590.77,-61.98C585.92,-53.23 578.23,-39.37 572.1,-28.31"/>
<polygon fill="midnightblue" stroke="midnightblue" points="575.13,-26.56 567.22,-19.51 569.01,-29.95 575.13,-26.56"/>
</g>
<!-- Node11 -->
<g id="node11" class="node">
<title>Node11</title>
<g id="a_node11"><a xlink:title=" ">
<polygon fill="white" stroke="#bfbfbf" points="605.5,-0.5 605.5,-19.5 653.5,-19.5 653.5,-0.5 605.5,-0.5"/>
<text text-anchor="middle" x="629.5" y="-7.5" font-family="Helvetica,sans-Serif" font-size="10.00">mutex</text>
</a>
</g>
</g>
<!-- Node8&#45;&gt;Node11 -->
<g id="edge10" class="edge">
<title>Node8&#45;&gt;Node11</title>
<path fill="none" stroke="midnightblue" d="M600.37,-61.98C605.37,-53.23 613.29,-39.37 619.61,-28.31"/>
<polygon fill="midnightblue" stroke="midnightblue" points="622.72,-29.93 624.64,-19.51 616.64,-26.46 622.72,-29.93"/>
</g>
<!-- Node12 -->
<g id="node12" class="node">
<title>Node12</title>
<g id="a_node12"><a xlink:title=" ">
<polygon fill="white" stroke="#bfbfbf" points="672,-0.5 672,-19.5 729,-19.5 729,-0.5 672,-0.5"/>
<text text-anchor="middle" x="700.5" y="-7.5" font-family="Helvetica,sans-Serif" font-size="10.00">ostream</text>
</a>
</g>
</g>
<!-- Node8&#45;&gt;Node12 -->
<g id="edge11" class="edge">
<title>Node8&#45;&gt;Node12</title>
<path fill="none" stroke="midnightblue" d="M610.54,-61.98C627.78,-52.21 656.24,-36.08 676.53,-24.58"/>
<polygon fill="midnightblue" stroke="midnightblue" points="678.51,-27.48 685.48,-19.51 675.06,-21.39 678.51,-27.48"/>
</g>
<!-- Node13 -->
<g id="node13" class="node">
<title>Node13</title>
<g id="a_node13"><a xlink:title=" ">
<polygon fill="white" stroke="#bfbfbf" points="747.5,-0.5 747.5,-19.5 803.5,-19.5 803.5,-0.5 747.5,-0.5"/>
<text text-anchor="middle" x="775.5" y="-7.5" font-family="Helvetica,sans-Serif" font-size="10.00">sstream</text>
</a>
</g>
</g>
<!-- Node8&#45;&gt;Node13 -->
<g id="edge12" class="edge">
<title>Node8&#45;&gt;Node13</title>
<path fill="none" stroke="midnightblue" d="M621.29,-61.98C652.43,-51.68 704.98,-34.31 739.95,-22.75"/>
<polygon fill="midnightblue" stroke="midnightblue" points="741.36,-25.97 749.76,-19.51 739.16,-19.32 741.36,-25.97"/>
</g>
<!-- Node14 -->
<g id="node14" class="node">
<title>Node14</title>
<g id="a_node14"><a xlink:title=" ">
<polygon fill="white" stroke="#bfbfbf" points="822,-0.5 822,-19.5 889,-19.5 889,-0.5 822,-0.5"/>
<text text-anchor="middle" x="855.5" y="-7.5" font-family="Helvetica,sans-Serif" font-size="10.00">streambuf</text>
</a>
</g>
</g>
<!-- Node8&#45;&gt;Node14 -->
<g id="edge13" class="edge">
<title>Node8&#45;&gt;Node14</title>
<path fill="none" stroke="midnightblue" d="M632.75,-61.98C680.04,-51.15 761.5,-32.51 811.71,-21.02"/>
<polygon fill="midnightblue" stroke="midnightblue" points="812.66,-24.39 821.63,-18.75 811.1,-17.57 812.66,-24.39"/>
</g>
</g>
</svg>
