<?xml version="1.0" encoding="UTF-8" standalone="no"?>
<!DOCTYPE svg PUBLIC "-//W3C//DTD SVG 1.1//EN"
 "http://www.w3.org/Graphics/SVG/1.1/DTD/svg11.dtd">
<!-- Generated by graphviz version 2.43.0 (0)
 -->
<!-- Title: /home/kali/projects/vsomeip/implementation/service_discovery/include/service_discovery.hpp Pages: 1 -->
<svg width="1591pt" height="251pt"
 viewBox="0.00 0.00 1590.95 251.00" xmlns="http://www.w3.org/2000/svg" xmlns:xlink="http://www.w3.org/1999/xlink">
<g id="graph0" class="graph" transform="scale(1 1) rotate(0) translate(4 247)">
<title>/home/kali/projects/vsomeip/implementation/service_discovery/include/service_discovery.hpp</title>
<polygon fill="white" stroke="transparent" points="-4,4 -4,-247 1586.95,-247 1586.95,4 -4,4"/>
<!-- Node1 -->
<g id="node1" class="node">
<title>Node1</title>
<g id="a_node1"><a xlink:title=" ">
<polygon fill="#bfbfbf" stroke="black" points="742.45,-190.5 742.45,-242.5 888.45,-242.5 888.45,-190.5 742.45,-190.5"/>
<text text-anchor="start" x="750.45" y="-230.5" font-family="Helvetica,sans-Serif" font-size="10.00">/home/kali/projects</text>
<text text-anchor="start" x="750.45" y="-219.5" font-family="Helvetica,sans-Serif" font-size="10.00">/vsomeip/implementation</text>
<text text-anchor="start" x="750.45" y="-208.5" font-family="Helvetica,sans-Serif" font-size="10.00">/service_discovery/include</text>
<text text-anchor="middle" x="815.45" y="-197.5" font-family="Helvetica,sans-Serif" font-size="10.00">/service_discovery.hpp</text>
</a>
</g>
</g>
<!-- Node2 -->
<g id="node2" class="node">
<title>Node2</title>
<g id="a_node2"><a xlink:title=" ">
<polygon fill="white" stroke="#bfbfbf" points="155.45,-62 155.45,-81 295.45,-81 295.45,-62 155.45,-62"/>
<text text-anchor="middle" x="225.45" y="-69" font-family="Helvetica,sans-Serif" font-size="10.00">boost/asio/io_service.hpp</text>
</a>
</g>
</g>
<!-- Node1&#45;&gt;Node2 -->
<g id="edge1" class="edge">
<title>Node1&#45;&gt;Node2</title>
<path fill="none" stroke="midnightblue" d="M742.21,-197.75C618.54,-167.78 371.89,-107.99 270.53,-83.43"/>
<polygon fill="midnightblue" stroke="midnightblue" points="271.15,-79.98 260.61,-81.02 269.51,-86.78 271.15,-79.98"/>
</g>
<!-- Node3 -->
<g id="node3" class="node">
<title>Node3</title>
<g id="a_node3"><a xlink:title=" ">
<polygon fill="white" stroke="#bfbfbf" points="133.95,-0.5 133.95,-19.5 274.95,-19.5 274.95,-0.5 133.95,-0.5"/>
<text text-anchor="middle" x="204.45" y="-7.5" font-family="Helvetica,sans-Serif" font-size="10.00">boost/asio/ip/address.hpp</text>
</a>
</g>
</g>
<!-- Node1&#45;&gt;Node3 -->
<g id="edge2" class="edge">
<title>Node1&#45;&gt;Node3</title>
<path fill="none" stroke="midnightblue" d="M742.41,-215.8C560.87,-214.79 97.29,-200.88 6.45,-87 -2.15,-76.23 -2.15,-66.77 6.45,-56 21.31,-37.38 75.65,-25.88 123.65,-19.17"/>
<polygon fill="midnightblue" stroke="midnightblue" points="124.34,-22.61 133.78,-17.81 123.41,-15.67 124.34,-22.61"/>
</g>
<!-- Node4 -->
<g id="node4" class="node">
<title>Node4</title>
<g id="a_node4"><a xlink:title=" ">
<polygon fill="white" stroke="#bfbfbf" points="889.95,-0.5 889.95,-19.5 1048.95,-19.5 1048.95,-0.5 889.95,-0.5"/>
<text text-anchor="middle" x="969.45" y="-7.5" font-family="Helvetica,sans-Serif" font-size="10.00">vsomeip/primitive_types.hpp</text>
</a>
</g>
</g>
<!-- Node1&#45;&gt;Node4 -->
<g id="edge3" class="edge">
<title>Node1&#45;&gt;Node4</title>
<path fill="none" stroke="midnightblue" d="M888.83,-205.83C1006.37,-188.67 1228.34,-148.75 1274.45,-87 1282.69,-75.96 1283.45,-66.43 1274.45,-56 1247.07,-24.29 1139.11,-14.53 1059.37,-11.74"/>
<polygon fill="midnightblue" stroke="midnightblue" points="1059.41,-8.24 1049.3,-11.42 1059.18,-15.23 1059.41,-8.24"/>
</g>
<!-- Node5 -->
<g id="node5" class="node">
<title>Node5</title>
<g id="a_node5"><a xlink:title=" ">
<polygon fill="white" stroke="#bfbfbf" points="1321.45,-123.5 1321.45,-153.5 1445.45,-153.5 1445.45,-123.5 1321.45,-123.5"/>
<text text-anchor="start" x="1329.45" y="-141.5" font-family="Helvetica,sans-Serif" font-size="10.00">vsomeip/enumeration</text>
<text text-anchor="middle" x="1383.45" y="-130.5" font-family="Helvetica,sans-Serif" font-size="10.00">_types.hpp</text>
</a>
</g>
</g>
<!-- Node1&#45;&gt;Node5 -->
<g id="edge4" class="edge">
<title>Node1&#45;&gt;Node5</title>
<path fill="none" stroke="midnightblue" d="M888.59,-207.84C984.87,-197.42 1159.28,-177.37 1307.45,-154 1308.71,-153.8 1309.99,-153.59 1311.28,-153.38"/>
<polygon fill="midnightblue" stroke="midnightblue" points="1312.01,-156.81 1321.29,-151.7 1310.85,-149.91 1312.01,-156.81"/>
</g>
<!-- Node6 -->
<g id="node6" class="node">
<title>Node6</title>
<g id="a_node6"><a xlink:title=" ">
<polygon fill="white" stroke="#bfbfbf" points="1463.95,-129 1463.95,-148 1582.95,-148 1582.95,-129 1463.95,-129"/>
<text text-anchor="middle" x="1523.45" y="-136" font-family="Helvetica,sans-Serif" font-size="10.00">vsomeip/handler.hpp</text>
</a>
</g>
</g>
<!-- Node1&#45;&gt;Node6 -->
<g id="edge5" class="edge">
<title>Node1&#45;&gt;Node6</title>
<path fill="none" stroke="midnightblue" d="M888.6,-211.11C1007.68,-203.38 1250.63,-185.13 1454.45,-154 1461.68,-152.89 1469.31,-151.51 1476.74,-150.05"/>
<polygon fill="midnightblue" stroke="midnightblue" points="1477.6,-153.44 1486.7,-148.01 1476.2,-146.59 1477.6,-153.44"/>
</g>
<!-- Node7 -->
<g id="node7" class="node">
<title>Node7</title>
<g id="a_node7"><a xlink:href="serviceinfo_8hpp.html" target="_top" xlink:title=" ">
<polygon fill="white" stroke="black" points="931.95,-123.5 931.95,-153.5 1038.95,-153.5 1038.95,-123.5 931.95,-123.5"/>
<text text-anchor="start" x="939.95" y="-141.5" font-family="Helvetica,sans-Serif" font-size="10.00">../../routing/include</text>
<text text-anchor="middle" x="985.45" y="-130.5" font-family="Helvetica,sans-Serif" font-size="10.00">/serviceinfo.hpp</text>
</a>
</g>
</g>
<!-- Node1&#45;&gt;Node7 -->
<g id="edge6" class="edge">
<title>Node1&#45;&gt;Node7</title>
<path fill="none" stroke="midnightblue" d="M871.58,-190.4C895.34,-179.78 922.51,-167.64 944.35,-157.87"/>
<polygon fill="midnightblue" stroke="midnightblue" points="945.97,-160.98 953.67,-153.71 943.11,-154.59 945.97,-160.98"/>
</g>
<!-- Node14 -->
<g id="node14" class="node">
<title>Node14</title>
<g id="a_node14"><a xlink:href="endpoint_8hpp.html" target="_top" xlink:title=" ">
<polygon fill="white" stroke="black" points="15.95,-56.5 15.95,-86.5 136.95,-86.5 136.95,-56.5 15.95,-56.5"/>
<text text-anchor="start" x="23.95" y="-74.5" font-family="Helvetica,sans-Serif" font-size="10.00">../../endpoints/include</text>
<text text-anchor="middle" x="76.45" y="-63.5" font-family="Helvetica,sans-Serif" font-size="10.00">/endpoint.hpp</text>
</a>
</g>
</g>
<!-- Node1&#45;&gt;Node14 -->
<g id="edge14" class="edge">
<title>Node1&#45;&gt;Node14</title>
<path fill="none" stroke="midnightblue" d="M742.43,-204.47C667.85,-192.94 548.79,-173.79 446.45,-154 341.13,-133.64 219.84,-106.15 145.67,-88.87"/>
<polygon fill="midnightblue" stroke="midnightblue" points="146.06,-85.37 135.53,-86.5 144.47,-92.18 146.06,-85.37"/>
</g>
<!-- Node17 -->
<g id="node17" class="node">
<title>Node17</title>
<g id="a_node17"><a xlink:href="service__discovery__host_8hpp.html" target="_top" xlink:title=" ">
<polygon fill="white" stroke="black" points="613.45,-123.5 613.45,-153.5 729.45,-153.5 729.45,-123.5 613.45,-123.5"/>
<text text-anchor="start" x="621.45" y="-141.5" font-family="Helvetica,sans-Serif" font-size="10.00">../include/service</text>
<text text-anchor="middle" x="671.45" y="-130.5" font-family="Helvetica,sans-Serif" font-size="10.00">_discovery_host.hpp</text>
</a>
</g>
</g>
<!-- Node1&#45;&gt;Node17 -->
<g id="edge19" class="edge">
<title>Node1&#45;&gt;Node17</title>
<path fill="none" stroke="midnightblue" d="M767.9,-190.4C748.13,-179.97 725.58,-168.07 707.26,-158.4"/>
<polygon fill="midnightblue" stroke="midnightblue" points="708.84,-155.28 698.36,-153.71 705.57,-161.47 708.84,-155.28"/>
</g>
<!-- Node7&#45;&gt;Node4 -->
<g id="edge13" class="edge">
<title>Node7&#45;&gt;Node4</title>
<path fill="none" stroke="midnightblue" d="M989.34,-123.45C993.27,-107.05 998.03,-79.2 992.45,-56 990.14,-46.42 985.43,-36.58 980.87,-28.56"/>
<polygon fill="midnightblue" stroke="midnightblue" points="983.74,-26.54 975.55,-19.81 977.75,-30.17 983.74,-26.54"/>
</g>
<!-- Node8 -->
<g id="node8" class="node">
<title>Node8</title>
<g id="a_node8"><a xlink:title=" ">
<polygon fill="white" stroke="#bfbfbf" points="772.45,-0.5 772.45,-19.5 830.45,-19.5 830.45,-0.5 772.45,-0.5"/>
<text text-anchor="middle" x="801.45" y="-7.5" font-family="Helvetica,sans-Serif" font-size="10.00">memory</text>
</a>
</g>
</g>
<!-- Node7&#45;&gt;Node8 -->
<g id="edge7" class="edge">
<title>Node7&#45;&gt;Node8</title>
<path fill="none" stroke="midnightblue" d="M969.15,-123.47C943.8,-101.69 896.91,-61.64 888.45,-56 869.94,-43.66 847.64,-32.19 830.25,-23.91"/>
<polygon fill="midnightblue" stroke="midnightblue" points="831.69,-20.72 821.15,-19.66 828.72,-27.06 831.69,-20.72"/>
</g>
<!-- Node9 -->
<g id="node9" class="node">
<title>Node9</title>
<g id="a_node9"><a xlink:title=" ">
<polygon fill="white" stroke="#bfbfbf" points="1171.45,-62 1171.45,-81 1203.45,-81 1203.45,-62 1171.45,-62"/>
<text text-anchor="middle" x="1187.45" y="-69" font-family="Helvetica,sans-Serif" font-size="10.00">set</text>
</a>
</g>
</g>
<!-- Node7&#45;&gt;Node9 -->
<g id="edge8" class="edge">
<title>Node7&#45;&gt;Node9</title>
<path fill="none" stroke="midnightblue" d="M1039.29,-125.82C1074.99,-117.18 1122.45,-103.99 1162.45,-87 1163.29,-86.64 1164.15,-86.26 1165.01,-85.85"/>
<polygon fill="midnightblue" stroke="midnightblue" points="1166.79,-88.87 1174.01,-81.11 1163.53,-82.68 1166.79,-88.87"/>
</g>
<!-- Node10 -->
<g id="node10" class="node">
<title>Node10</title>
<g id="a_node10"><a xlink:title=" ">
<polygon fill="white" stroke="#bfbfbf" points="1221.45,-62 1221.45,-81 1265.45,-81 1265.45,-62 1221.45,-62"/>
<text text-anchor="middle" x="1243.45" y="-69" font-family="Helvetica,sans-Serif" font-size="10.00">string</text>
</a>
</g>
</g>
<!-- Node7&#45;&gt;Node10 -->
<g id="edge9" class="edge">
<title>Node7&#45;&gt;Node10</title>
<path fill="none" stroke="midnightblue" d="M1039.1,-128.98C1085.67,-120.78 1154.55,-106.72 1212.45,-87 1214.11,-86.43 1215.8,-85.81 1217.49,-85.14"/>
<polygon fill="midnightblue" stroke="midnightblue" points="1219.21,-88.21 1226.99,-81.01 1216.42,-81.78 1219.21,-88.21"/>
</g>
<!-- Node11 -->
<g id="node11" class="node">
<title>Node11</title>
<g id="a_node11"><a xlink:title=" ">
<polygon fill="white" stroke="#bfbfbf" points="829.45,-62 829.45,-81 879.45,-81 879.45,-62 829.45,-62"/>
<text text-anchor="middle" x="854.45" y="-69" font-family="Helvetica,sans-Serif" font-size="10.00">chrono</text>
</a>
</g>
</g>
<!-- Node7&#45;&gt;Node11 -->
<g id="edge10" class="edge">
<title>Node7&#45;&gt;Node11</title>
<path fill="none" stroke="midnightblue" d="M957.02,-123.4C934.34,-112.14 902.82,-96.5 880.72,-85.54"/>
<polygon fill="midnightblue" stroke="midnightblue" points="882.1,-82.32 871.59,-81.01 878.99,-88.59 882.1,-82.32"/>
</g>
<!-- Node12 -->
<g id="node12" class="node">
<title>Node12</title>
<g id="a_node12"><a xlink:title=" ">
<polygon fill="white" stroke="#bfbfbf" points="935.45,-62 935.45,-81 983.45,-81 983.45,-62 935.45,-62"/>
<text text-anchor="middle" x="959.45" y="-69" font-family="Helvetica,sans-Serif" font-size="10.00">mutex</text>
</a>
</g>
</g>
<!-- Node7&#45;&gt;Node12 -->
<g id="edge11" class="edge">
<title>Node7&#45;&gt;Node12</title>
<path fill="none" stroke="midnightblue" d="M979.8,-123.4C975.95,-113.76 970.81,-100.91 966.66,-90.54"/>
<polygon fill="midnightblue" stroke="midnightblue" points="969.89,-89.18 962.92,-81.19 963.39,-91.78 969.89,-89.18"/>
</g>
<!-- Node13 -->
<g id="node13" class="node">
<title>Node13</title>
<g id="a_node13"><a xlink:title=" ">
<polygon fill="white" stroke="#bfbfbf" points="1039.45,-62 1039.45,-81 1153.45,-81 1153.45,-62 1039.45,-62"/>
<text text-anchor="middle" x="1096.45" y="-69" font-family="Helvetica,sans-Serif" font-size="10.00">vsomeip/export.hpp</text>
</a>
</g>
</g>
<!-- Node7&#45;&gt;Node13 -->
<g id="edge12" class="edge">
<title>Node7&#45;&gt;Node13</title>
<path fill="none" stroke="midnightblue" d="M1009.53,-123.4C1028.4,-112.34 1054.5,-97.06 1073.17,-86.13"/>
<polygon fill="midnightblue" stroke="midnightblue" points="1075.06,-89.08 1081.92,-81.01 1071.52,-83.04 1075.06,-89.08"/>
</g>
<!-- Node14&#45;&gt;Node3 -->
<g id="edge15" class="edge">
<title>Node14&#45;&gt;Node3</title>
<path fill="none" stroke="midnightblue" d="M106.78,-56.4C127.97,-46.55 156.04,-33.5 176.65,-23.92"/>
<polygon fill="midnightblue" stroke="midnightblue" points="178.23,-27.05 185.82,-19.66 175.28,-20.7 178.23,-27.05"/>
</g>
<!-- Node14&#45;&gt;Node4 -->
<g id="edge16" class="edge">
<title>Node14&#45;&gt;Node4</title>
<path fill="none" stroke="midnightblue" d="M137.06,-57.36C140.22,-56.85 143.37,-56.4 146.45,-56 452.33,-16.61 531.59,-38.65 839.45,-20 852.4,-19.22 866.08,-18.33 879.51,-17.43"/>
<polygon fill="midnightblue" stroke="midnightblue" points="879.97,-20.91 889.71,-16.74 879.5,-13.92 879.97,-20.91"/>
</g>
<!-- Node15 -->
<g id="node15" class="node">
<title>Node15</title>
<g id="a_node15"><a xlink:title=" ">
<polygon fill="white" stroke="#bfbfbf" points="309.45,-0.5 309.45,-19.5 439.45,-19.5 439.45,-0.5 309.45,-0.5"/>
<text text-anchor="middle" x="374.45" y="-7.5" font-family="Helvetica,sans-Serif" font-size="10.00">vsomeip/constants.hpp</text>
</a>
</g>
</g>
<!-- Node14&#45;&gt;Node15 -->
<g id="edge17" class="edge">
<title>Node14&#45;&gt;Node15</title>
<path fill="none" stroke="midnightblue" d="M137.14,-57.89C140.29,-57.25 143.4,-56.62 146.45,-56 206.01,-43.95 274.4,-30.51 320.62,-21.48"/>
<polygon fill="midnightblue" stroke="midnightblue" points="321.57,-24.86 330.71,-19.51 320.23,-17.99 321.57,-24.86"/>
</g>
<!-- Node16 -->
<g id="node16" class="node">
<title>Node16</title>
<g id="a_node16"><a xlink:title=" ">
<polygon fill="white" stroke="#bfbfbf" points="52.95,-0.5 52.95,-19.5 99.95,-19.5 99.95,-0.5 52.95,-0.5"/>
<text text-anchor="middle" x="76.45" y="-7.5" font-family="Helvetica,sans-Serif" font-size="10.00">vector</text>
</a>
</g>
</g>
<!-- Node14&#45;&gt;Node16 -->
<g id="edge18" class="edge">
<title>Node14&#45;&gt;Node16</title>
<path fill="none" stroke="midnightblue" d="M76.45,-56.4C76.45,-48.47 76.45,-38.46 76.45,-29.86"/>
<polygon fill="midnightblue" stroke="midnightblue" points="79.95,-29.66 76.45,-19.66 72.95,-29.66 79.95,-29.66"/>
</g>
<!-- Node17&#45;&gt;Node2 -->
<g id="edge24" class="edge">
<title>Node17&#45;&gt;Node2</title>
<path fill="none" stroke="midnightblue" d="M613.37,-129.99C541.79,-120.59 416.5,-103.7 309.45,-87 301.04,-85.69 292.17,-84.23 283.47,-82.77"/>
<polygon fill="midnightblue" stroke="midnightblue" points="283.82,-79.28 273.38,-81.05 282.65,-86.18 283.82,-79.28"/>
</g>
<!-- Node17&#45;&gt;Node3 -->
<g id="edge23" class="edge">
<title>Node17&#45;&gt;Node3</title>
<path fill="none" stroke="midnightblue" d="M613.3,-137.69C545.46,-135.89 431.29,-126.49 342.45,-87 322.53,-78.15 322.99,-67.46 304.45,-56 283.15,-42.84 257.35,-31.33 237.29,-23.24"/>
<polygon fill="midnightblue" stroke="midnightblue" points="238.54,-19.97 227.95,-19.56 235.97,-26.48 238.54,-19.97"/>
</g>
<!-- Node17&#45;&gt;Node8 -->
<g id="edge21" class="edge">
<title>Node17&#45;&gt;Node8</title>
<path fill="none" stroke="midnightblue" d="M706.17,-123.42C724.02,-114.88 745.16,-102.62 760.45,-87 776.62,-70.48 788.18,-46.28 794.83,-29.65"/>
<polygon fill="midnightblue" stroke="midnightblue" points="798.22,-30.57 798.48,-19.97 791.67,-28.1 798.22,-30.57"/>
</g>
<!-- Node17&#45;&gt;Node11 -->
<g id="edge22" class="edge">
<title>Node17&#45;&gt;Node11</title>
<path fill="none" stroke="midnightblue" d="M712.17,-123.44C741.05,-113.42 780.69,-99.56 815.45,-87 817.68,-86.19 819.99,-85.35 822.31,-84.5"/>
<polygon fill="midnightblue" stroke="midnightblue" points="823.62,-87.75 831.79,-81.01 821.19,-81.18 823.62,-87.75"/>
</g>
<!-- Node18 -->
<g id="node18" class="node">
<title>Node18</title>
<g id="a_node18"><a xlink:title=" ">
<polygon fill="white" stroke="#bfbfbf" points="587.45,-0.5 587.45,-19.5 625.45,-19.5 625.45,-0.5 587.45,-0.5"/>
<text text-anchor="middle" x="606.45" y="-7.5" font-family="Helvetica,sans-Serif" font-size="10.00">map</text>
</a>
</g>
</g>
<!-- Node17&#45;&gt;Node18 -->
<g id="edge20" class="edge">
<title>Node17&#45;&gt;Node18</title>
<path fill="none" stroke="midnightblue" d="M704.85,-123.34C719.83,-115.09 736,-103.11 744.45,-87 750.84,-74.8 752.54,-67.15 744.45,-56 719.71,-21.92 668.47,-13.16 635.86,-11.18"/>
<polygon fill="midnightblue" stroke="midnightblue" points="635.72,-7.67 625.58,-10.74 635.42,-14.67 635.72,-7.67"/>
</g>
<!-- Node19 -->
<g id="node19" class="node">
<title>Node19</title>
<g id="a_node19"><a xlink:href="implementation_2routing_2include_2function__types_8hpp.html" target="_top" xlink:title=" ">
<polygon fill="white" stroke="black" points="476.95,-56.5 476.95,-86.5 589.95,-86.5 589.95,-56.5 476.95,-56.5"/>
<text text-anchor="start" x="484.95" y="-74.5" font-family="Helvetica,sans-Serif" font-size="10.00">../../routing/include</text>
<text text-anchor="middle" x="533.45" y="-63.5" font-family="Helvetica,sans-Serif" font-size="10.00">/function_types.hpp</text>
</a>
</g>
</g>
<!-- Node17&#45;&gt;Node19 -->
<g id="edge25" class="edge">
<title>Node17&#45;&gt;Node19</title>
<path fill="none" stroke="midnightblue" d="M641.5,-123.4C621.25,-113.86 594.3,-101.16 572.38,-90.84"/>
<polygon fill="midnightblue" stroke="midnightblue" points="573.87,-87.67 563.33,-86.58 570.89,-94 573.87,-87.67"/>
</g>
<!-- Node20 -->
<g id="node20" class="node">
<title>Node20</title>
<g id="a_node20"><a xlink:href="types_8hpp.html" target="_top" xlink:title=" ">
<polygon fill="white" stroke="black" points="351.95,-56.5 351.95,-86.5 458.95,-86.5 458.95,-56.5 351.95,-56.5"/>
<text text-anchor="start" x="359.95" y="-74.5" font-family="Helvetica,sans-Serif" font-size="10.00">../../routing/include</text>
<text text-anchor="middle" x="405.45" y="-63.5" font-family="Helvetica,sans-Serif" font-size="10.00">/types.hpp</text>
</a>
</g>
</g>
<!-- Node17&#45;&gt;Node20 -->
<g id="edge26" class="edge">
<title>Node17&#45;&gt;Node20</title>
<path fill="none" stroke="midnightblue" d="M614.06,-123.48C571.32,-113.03 512.98,-98.78 468.86,-88"/>
<polygon fill="midnightblue" stroke="midnightblue" points="469.65,-84.59 459.11,-85.61 467.99,-91.39 469.65,-84.59"/>
</g>
<!-- Node21 -->
<g id="node21" class="node">
<title>Node21</title>
<g id="a_node21"><a xlink:title=" ">
<polygon fill="white" stroke="#bfbfbf" points="607.95,-62 607.95,-81 734.95,-81 734.95,-62 607.95,-62"/>
<text text-anchor="middle" x="671.45" y="-69" font-family="Helvetica,sans-Serif" font-size="10.00">vsomeip/message.hpp</text>
</a>
</g>
</g>
<!-- Node17&#45;&gt;Node21 -->
<g id="edge32" class="edge">
<title>Node17&#45;&gt;Node21</title>
<path fill="none" stroke="midnightblue" d="M671.45,-123.4C671.45,-114.06 671.45,-101.71 671.45,-91.52"/>
<polygon fill="midnightblue" stroke="midnightblue" points="674.95,-91.19 671.45,-81.19 667.95,-91.19 674.95,-91.19"/>
</g>
<!-- Node20&#45;&gt;Node3 -->
<g id="edge29" class="edge">
<title>Node20&#45;&gt;Node3</title>
<path fill="none" stroke="midnightblue" d="M358.07,-56.47C322.94,-46.08 275.65,-32.08 242.86,-22.37"/>
<polygon fill="midnightblue" stroke="midnightblue" points="243.76,-18.99 233.18,-19.51 241.78,-25.7 243.76,-18.99"/>
</g>
<!-- Node20&#45;&gt;Node4 -->
<g id="edge30" class="edge">
<title>Node20&#45;&gt;Node4</title>
<path fill="none" stroke="midnightblue" d="M459.12,-57.46C461.93,-56.93 464.72,-56.44 467.45,-56 544.33,-43.63 756.99,-26.7 879.44,-17.54"/>
<polygon fill="midnightblue" stroke="midnightblue" points="879.84,-21.02 889.55,-16.79 879.32,-14.04 879.84,-21.02"/>
</g>
<!-- Node20&#45;&gt;Node8 -->
<g id="edge28" class="edge">
<title>Node20&#45;&gt;Node8</title>
<path fill="none" stroke="midnightblue" d="M459.15,-57.61C461.95,-57.04 464.73,-56.5 467.45,-56 573.25,-36.55 699.36,-21.82 762.03,-15.07"/>
<polygon fill="midnightblue" stroke="midnightblue" points="762.69,-18.52 772.26,-13.98 761.94,-11.56 762.69,-18.52"/>
</g>
<!-- Node20&#45;&gt;Node15 -->
<g id="edge31" class="edge">
<title>Node20&#45;&gt;Node15</title>
<path fill="none" stroke="midnightblue" d="M398.1,-56.4C393.78,-48.11 388.28,-37.55 383.67,-28.71"/>
<polygon fill="midnightblue" stroke="midnightblue" points="386.68,-26.91 378.96,-19.66 380.47,-30.14 386.68,-26.91"/>
</g>
<!-- Node20&#45;&gt;Node18 -->
<g id="edge27" class="edge">
<title>Node20&#45;&gt;Node18</title>
<path fill="none" stroke="midnightblue" d="M452.83,-56.47C491.37,-45.07 544.53,-29.33 577.14,-19.67"/>
<polygon fill="midnightblue" stroke="midnightblue" points="578.37,-22.96 586.96,-16.77 576.38,-16.25 578.37,-22.96"/>
</g>
</g>
</svg>
