<?xml version="1.0" encoding="UTF-8" standalone="no"?>
<!DOCTYPE svg PUBLIC "-//W3C//DTD SVG 1.1//EN"
 "http://www.w3.org/Graphics/SVG/1.1/DTD/svg11.dtd">
<!-- Generated by graphviz version 2.43.0 (0)
 -->
<!-- Title: /home/kali/projects/vsomeip/implementation/service_discovery/include/serviceentry_impl.hpp Pages: 1 -->
<svg width="830pt" height="229pt"
 viewBox="0.00 0.00 829.50 229.00" xmlns="http://www.w3.org/2000/svg" xmlns:xlink="http://www.w3.org/1999/xlink">
<g id="graph0" class="graph" transform="scale(1 1) rotate(0) translate(4 225)">
<title>/home/kali/projects/vsomeip/implementation/service_discovery/include/serviceentry_impl.hpp</title>
<polygon fill="white" stroke="transparent" points="-4,4 -4,-225 825.5,-225 825.5,4 -4,4"/>
<!-- Node1 -->
<g id="node1" class="node">
<title>Node1</title>
<g id="a_node1"><a xlink:title=" ">
<polygon fill="#bfbfbf" stroke="black" points="241,-168.5 241,-220.5 387,-220.5 387,-168.5 241,-168.5"/>
<text text-anchor="start" x="249" y="-208.5" font-family="Helvetica,sans-Serif" font-size="10.00">/home/kali/projects</text>
<text text-anchor="start" x="249" y="-197.5" font-family="Helvetica,sans-Serif" font-size="10.00">/vsomeip/implementation</text>
<text text-anchor="start" x="249" y="-186.5" font-family="Helvetica,sans-Serif" font-size="10.00">/service_discovery/include</text>
<text text-anchor="middle" x="314" y="-175.5" font-family="Helvetica,sans-Serif" font-size="10.00">/serviceentry_impl.hpp</text>
</a>
</g>
</g>
<!-- Node2 -->
<g id="node2" class="node">
<title>Node2</title>
<g id="a_node2"><a xlink:href="entry__impl_8hpp.html" target="_top" xlink:title=" ">
<polygon fill="white" stroke="black" points="269,-112.5 269,-131.5 359,-131.5 359,-112.5 269,-112.5"/>
<text text-anchor="middle" x="314" y="-119.5" font-family="Helvetica,sans-Serif" font-size="10.00">entry_impl.hpp</text>
</a>
</g>
</g>
<!-- Node1&#45;&gt;Node2 -->
<g id="edge1" class="edge">
<title>Node1&#45;&gt;Node2</title>
<path fill="none" stroke="midnightblue" d="M314,-168.45C314,-159.73 314,-150.1 314,-141.96"/>
<polygon fill="midnightblue" stroke="midnightblue" points="317.5,-141.7 314,-131.7 310.5,-141.7 317.5,-141.7"/>
</g>
<!-- Node3 -->
<g id="node3" class="node">
<title>Node3</title>
<g id="a_node3"><a xlink:title=" ">
<polygon fill="white" stroke="#bfbfbf" points="0,-56.5 0,-75.5 58,-75.5 58,-56.5 0,-56.5"/>
<text text-anchor="middle" x="29" y="-63.5" font-family="Helvetica,sans-Serif" font-size="10.00">memory</text>
</a>
</g>
</g>
<!-- Node2&#45;&gt;Node3 -->
<g id="edge2" class="edge">
<title>Node2&#45;&gt;Node3</title>
<path fill="none" stroke="midnightblue" d="M268.99,-113.4C221.6,-105.27 144.58,-91.64 68.16,-75.95"/>
<polygon fill="midnightblue" stroke="midnightblue" points="68.86,-72.52 58.36,-73.93 67.44,-79.38 68.86,-72.52"/>
</g>
<!-- Node4 -->
<g id="node4" class="node">
<title>Node4</title>
<g id="a_node4"><a xlink:title=" ">
<polygon fill="white" stroke="#bfbfbf" points="76.5,-56.5 76.5,-75.5 123.5,-75.5 123.5,-56.5 76.5,-56.5"/>
<text text-anchor="middle" x="100" y="-63.5" font-family="Helvetica,sans-Serif" font-size="10.00">vector</text>
</a>
</g>
</g>
<!-- Node2&#45;&gt;Node4 -->
<g id="edge3" class="edge">
<title>Node2&#45;&gt;Node4</title>
<path fill="none" stroke="midnightblue" d="M278.56,-112.44C244.03,-104.04 189.79,-90.71 133.55,-76.1"/>
<polygon fill="midnightblue" stroke="midnightblue" points="134.34,-72.69 123.78,-73.55 132.57,-79.46 134.34,-72.69"/>
</g>
<!-- Node5 -->
<g id="node5" class="node">
<title>Node5</title>
<g id="a_node5"><a xlink:title=" ">
<polygon fill="white" stroke="#bfbfbf" points="141.5,-56.5 141.5,-75.5 300.5,-75.5 300.5,-56.5 141.5,-56.5"/>
<text text-anchor="middle" x="221" y="-63.5" font-family="Helvetica,sans-Serif" font-size="10.00">vsomeip/primitive_types.hpp</text>
</a>
</g>
</g>
<!-- Node2&#45;&gt;Node5 -->
<g id="edge4" class="edge">
<title>Node2&#45;&gt;Node5</title>
<path fill="none" stroke="midnightblue" d="M299.06,-112.32C284.41,-103.82 261.87,-90.73 244.76,-80.8"/>
<polygon fill="midnightblue" stroke="midnightblue" points="246.31,-77.65 235.9,-75.65 242.8,-83.7 246.31,-77.65"/>
</g>
<!-- Node6 -->
<g id="node6" class="node">
<title>Node6</title>
<g id="a_node6"><a xlink:title=" ">
<polygon fill="white" stroke="#bfbfbf" points="318.5,-56.5 318.5,-75.5 497.5,-75.5 497.5,-56.5 318.5,-56.5"/>
<text text-anchor="middle" x="408" y="-63.5" font-family="Helvetica,sans-Serif" font-size="10.00">vsomeip/internal/serializable.hpp</text>
</a>
</g>
</g>
<!-- Node2&#45;&gt;Node6 -->
<g id="edge5" class="edge">
<title>Node2&#45;&gt;Node6</title>
<path fill="none" stroke="midnightblue" d="M329.1,-112.32C343.9,-103.82 366.69,-90.73 383.98,-80.8"/>
<polygon fill="midnightblue" stroke="midnightblue" points="386.01,-83.67 392.93,-75.65 382.52,-77.6 386.01,-83.67"/>
</g>
<!-- Node7 -->
<g id="node7" class="node">
<title>Node7</title>
<g id="a_node7"><a xlink:href="implementation_2service__discovery_2include_2enumeration__types_8hpp.html" target="_top" xlink:title=" ">
<polygon fill="white" stroke="black" points="516,-56.5 516,-75.5 648,-75.5 648,-56.5 516,-56.5"/>
<text text-anchor="middle" x="582" y="-63.5" font-family="Helvetica,sans-Serif" font-size="10.00">enumeration_types.hpp</text>
</a>
</g>
</g>
<!-- Node2&#45;&gt;Node7 -->
<g id="edge6" class="edge">
<title>Node2&#45;&gt;Node7</title>
<path fill="none" stroke="midnightblue" d="M356.47,-112.44C403.41,-102.98 479.08,-87.74 529.65,-77.55"/>
<polygon fill="midnightblue" stroke="midnightblue" points="530.62,-80.92 539.73,-75.52 529.24,-74.06 530.62,-80.92"/>
</g>
<!-- Node9 -->
<g id="node9" class="node">
<title>Node9</title>
<g id="a_node9"><a xlink:href="message__element__impl_8hpp.html" target="_top" xlink:title=" ">
<polygon fill="white" stroke="black" points="666.5,-56.5 666.5,-75.5 821.5,-75.5 821.5,-56.5 666.5,-56.5"/>
<text text-anchor="middle" x="744" y="-63.5" font-family="Helvetica,sans-Serif" font-size="10.00">message_element_impl.hpp</text>
</a>
</g>
</g>
<!-- Node2&#45;&gt;Node9 -->
<g id="edge8" class="edge">
<title>Node2&#45;&gt;Node9</title>
<path fill="none" stroke="midnightblue" d="M359.2,-115.32C432.08,-106.17 576.42,-88.05 666.11,-76.78"/>
<polygon fill="midnightblue" stroke="midnightblue" points="666.75,-80.23 676.23,-75.51 665.88,-73.28 666.75,-80.23"/>
</g>
<!-- Node8 -->
<g id="node8" class="node">
<title>Node8</title>
<g id="a_node8"><a xlink:title=" ">
<polygon fill="white" stroke="#bfbfbf" points="557,-0.5 557,-19.5 607,-19.5 607,-0.5 557,-0.5"/>
<text text-anchor="middle" x="582" y="-7.5" font-family="Helvetica,sans-Serif" font-size="10.00">cstdint</text>
</a>
</g>
</g>
<!-- Node7&#45;&gt;Node8 -->
<g id="edge7" class="edge">
<title>Node7&#45;&gt;Node8</title>
<path fill="none" stroke="midnightblue" d="M582,-56.08C582,-49.01 582,-38.86 582,-29.99"/>
<polygon fill="midnightblue" stroke="midnightblue" points="585.5,-29.75 582,-19.75 578.5,-29.75 585.5,-29.75"/>
</g>
</g>
</svg>
