<?xml version="1.0" encoding="UTF-8" standalone="no"?>
<!DOCTYPE svg PUBLIC "-//W3C//DTD SVG 1.1//EN"
 "http://www.w3.org/Graphics/SVG/1.1/DTD/svg11.dtd">
<!-- Generated by graphviz version 2.43.0 (0)
 -->
<!-- Title: /home/kali/projects/vsomeip/implementation/service_discovery/include/runtime_impl.hpp Pages: 1 -->
<svg width="154pt" height="150pt"
 viewBox="0.00 0.00 154.00 150.00" xmlns="http://www.w3.org/2000/svg" xmlns:xlink="http://www.w3.org/1999/xlink">
<g id="graph0" class="graph" transform="scale(1 1) rotate(0) translate(4 146)">
<title>/home/kali/projects/vsomeip/implementation/service_discovery/include/runtime_impl.hpp</title>
<polygon fill="white" stroke="transparent" points="-4,4 -4,-146 150,-146 150,4 -4,4"/>
<!-- Node1 -->
<g id="node1" class="node">
<title>Node1</title>
<g id="a_node1"><a xlink:title=" ">
<polygon fill="#bfbfbf" stroke="black" points="0,-89.5 0,-141.5 146,-141.5 146,-89.5 0,-89.5"/>
<text text-anchor="start" x="8" y="-129.5" font-family="Helvetica,sans-Serif" font-size="10.00">/home/kali/projects</text>
<text text-anchor="start" x="8" y="-118.5" font-family="Helvetica,sans-Serif" font-size="10.00">/vsomeip/implementation</text>
<text text-anchor="start" x="8" y="-107.5" font-family="Helvetica,sans-Serif" font-size="10.00">/service_discovery/include</text>
<text text-anchor="middle" x="73" y="-96.5" font-family="Helvetica,sans-Serif" font-size="10.00">/runtime_impl.hpp</text>
</a>
</g>
</g>
<!-- Node2 -->
<g id="node2" class="node">
<title>Node2</title>
<g id="a_node2"><a xlink:href="service__discovery_2src_2runtime__impl_8cpp.html" target="_top" xlink:title=" ">
<polygon fill="white" stroke="black" points="1.5,-0.5 1.5,-52.5 144.5,-52.5 144.5,-0.5 1.5,-0.5"/>
<text text-anchor="start" x="9.5" y="-40.5" font-family="Helvetica,sans-Serif" font-size="10.00">/home/kali/projects</text>
<text text-anchor="start" x="9.5" y="-29.5" font-family="Helvetica,sans-Serif" font-size="10.00">/vsomeip/implementation</text>
<text text-anchor="start" x="9.5" y="-18.5" font-family="Helvetica,sans-Serif" font-size="10.00">/service_discovery/src</text>
<text text-anchor="middle" x="73" y="-7.5" font-family="Helvetica,sans-Serif" font-size="10.00">/runtime_impl.cpp</text>
</a>
</g>
</g>
<!-- Node1&#45;&gt;Node2 -->
<g id="edge1" class="edge">
<title>Node1&#45;&gt;Node2</title>
<path fill="none" stroke="midnightblue" d="M73,-79.19C73,-70.28 73,-60.9 73,-52.61"/>
<polygon fill="midnightblue" stroke="midnightblue" points="69.5,-79.34 73,-89.34 76.5,-79.34 69.5,-79.34"/>
</g>
</g>
</svg>
