<?xml version="1.0" encoding="UTF-8" standalone="no"?>
<!DOCTYPE svg PUBLIC "-//W3C//DTD SVG 1.1//EN"
 "http://www.w3.org/Graphics/SVG/1.1/DTD/svg11.dtd">
<!-- Generated by graphviz version 2.43.0 (0)
 -->
<!-- Title: /home/kali/projects/vsomeip/implementation/service_discovery/src/serviceentry_impl.cpp Pages: 1 -->
<svg width="962pt" height="307pt"
 viewBox="0.00 0.00 962.00 307.00" xmlns="http://www.w3.org/2000/svg" xmlns:xlink="http://www.w3.org/1999/xlink">
<g id="graph0" class="graph" transform="scale(1 1) rotate(0) translate(4 303)">
<title>/home/kali/projects/vsomeip/implementation/service_discovery/src/serviceentry_impl.cpp</title>
<polygon fill="white" stroke="transparent" points="-4,4 -4,-303 958,-303 958,4 -4,4"/>
<!-- Node1 -->
<g id="node1" class="node">
<title>Node1</title>
<g id="a_node1"><a xlink:title=" ">
<polygon fill="#bfbfbf" stroke="black" points="261.5,-246.5 261.5,-298.5 404.5,-298.5 404.5,-246.5 261.5,-246.5"/>
<text text-anchor="start" x="269.5" y="-286.5" font-family="Helvetica,sans-Serif" font-size="10.00">/home/kali/projects</text>
<text text-anchor="start" x="269.5" y="-275.5" font-family="Helvetica,sans-Serif" font-size="10.00">/vsomeip/implementation</text>
<text text-anchor="start" x="269.5" y="-264.5" font-family="Helvetica,sans-Serif" font-size="10.00">/service_discovery/src</text>
<text text-anchor="middle" x="333" y="-253.5" font-family="Helvetica,sans-Serif" font-size="10.00">/serviceentry_impl.cpp</text>
</a>
</g>
</g>
<!-- Node2 -->
<g id="node2" class="node">
<title>Node2</title>
<g id="a_node2"><a xlink:href="serviceentry__impl_8hpp.html" target="_top" xlink:title=" ">
<polygon fill="white" stroke="black" points="381.5,-179.5 381.5,-209.5 506.5,-209.5 506.5,-179.5 381.5,-179.5"/>
<text text-anchor="start" x="389.5" y="-197.5" font-family="Helvetica,sans-Serif" font-size="10.00">../include/serviceentry</text>
<text text-anchor="middle" x="444" y="-186.5" font-family="Helvetica,sans-Serif" font-size="10.00">_impl.hpp</text>
</a>
</g>
</g>
<!-- Node1&#45;&gt;Node2 -->
<g id="edge1" class="edge">
<title>Node1&#45;&gt;Node2</title>
<path fill="none" stroke="midnightblue" d="M369.65,-246.4C384.26,-236.4 400.85,-225.05 414.64,-215.6"/>
<polygon fill="midnightblue" stroke="midnightblue" points="416.98,-218.24 423.25,-209.71 413.02,-212.47 416.98,-218.24"/>
</g>
<!-- Node11 -->
<g id="node11" class="node">
<title>Node11</title>
<g id="a_node11"><a xlink:href="message_2include_2deserializer_8hpp.html" target="_top" xlink:title=" ">
<polygon fill="white" stroke="black" points="274.5,-112.5 274.5,-142.5 391.5,-142.5 391.5,-112.5 274.5,-112.5"/>
<text text-anchor="start" x="282.5" y="-130.5" font-family="Helvetica,sans-Serif" font-size="10.00">../../message/include</text>
<text text-anchor="middle" x="333" y="-119.5" font-family="Helvetica,sans-Serif" font-size="10.00">/deserializer.hpp</text>
</a>
</g>
</g>
<!-- Node1&#45;&gt;Node11 -->
<g id="edge10" class="edge">
<title>Node1&#45;&gt;Node11</title>
<path fill="none" stroke="midnightblue" d="M333,-246.26C333,-219.88 333,-178.78 333,-152.77"/>
<polygon fill="midnightblue" stroke="midnightblue" points="336.5,-152.63 333,-142.63 329.5,-152.63 336.5,-152.63"/>
</g>
<!-- Node13 -->
<g id="node13" class="node">
<title>Node13</title>
<g id="a_node13"><a xlink:href="serializer_8hpp.html" target="_top" xlink:title=" ">
<polygon fill="white" stroke="black" points="139.5,-112.5 139.5,-142.5 256.5,-142.5 256.5,-112.5 139.5,-112.5"/>
<text text-anchor="start" x="147.5" y="-130.5" font-family="Helvetica,sans-Serif" font-size="10.00">../../message/include</text>
<text text-anchor="middle" x="198" y="-119.5" font-family="Helvetica,sans-Serif" font-size="10.00">/serializer.hpp</text>
</a>
</g>
</g>
<!-- Node1&#45;&gt;Node13 -->
<g id="edge14" class="edge">
<title>Node1&#45;&gt;Node13</title>
<path fill="none" stroke="midnightblue" d="M309.18,-246.26C283.38,-218.94 242.68,-175.83 218.34,-150.04"/>
<polygon fill="midnightblue" stroke="midnightblue" points="220.75,-147.5 211.34,-142.63 215.66,-152.31 220.75,-147.5"/>
</g>
<!-- Node3 -->
<g id="node3" class="node">
<title>Node3</title>
<g id="a_node3"><a xlink:href="entry__impl_8hpp.html" target="_top" xlink:title=" ">
<polygon fill="white" stroke="black" points="419,-118 419,-137 509,-137 509,-118 419,-118"/>
<text text-anchor="middle" x="464" y="-125" font-family="Helvetica,sans-Serif" font-size="10.00">entry_impl.hpp</text>
</a>
</g>
</g>
<!-- Node2&#45;&gt;Node3 -->
<g id="edge2" class="edge">
<title>Node2&#45;&gt;Node3</title>
<path fill="none" stroke="midnightblue" d="M448.34,-179.4C451.27,-169.86 455.17,-157.18 458.35,-146.86"/>
<polygon fill="midnightblue" stroke="midnightblue" points="461.73,-147.78 461.32,-137.19 455.04,-145.72 461.73,-147.78"/>
</g>
<!-- Node4 -->
<g id="node4" class="node">
<title>Node4</title>
<g id="a_node4"><a xlink:title=" ">
<polygon fill="white" stroke="#bfbfbf" points="896,-56.5 896,-75.5 954,-75.5 954,-56.5 896,-56.5"/>
<text text-anchor="middle" x="925" y="-63.5" font-family="Helvetica,sans-Serif" font-size="10.00">memory</text>
</a>
</g>
</g>
<!-- Node3&#45;&gt;Node4 -->
<g id="edge3" class="edge">
<title>Node3&#45;&gt;Node4</title>
<path fill="none" stroke="midnightblue" d="M509.01,-122.82C584.76,-116.26 742.65,-101.01 885.36,-76.12"/>
<polygon fill="midnightblue" stroke="midnightblue" points="886.37,-79.49 895.61,-74.31 885.15,-72.6 886.37,-79.49"/>
</g>
<!-- Node5 -->
<g id="node5" class="node">
<title>Node5</title>
<g id="a_node5"><a xlink:title=" ">
<polygon fill="white" stroke="#bfbfbf" points="309.5,-56.5 309.5,-75.5 356.5,-75.5 356.5,-56.5 309.5,-56.5"/>
<text text-anchor="middle" x="333" y="-63.5" font-family="Helvetica,sans-Serif" font-size="10.00">vector</text>
</a>
</g>
</g>
<!-- Node3&#45;&gt;Node5 -->
<g id="edge4" class="edge">
<title>Node3&#45;&gt;Node5</title>
<path fill="none" stroke="midnightblue" d="M445.23,-117.98C423.15,-107.95 386.28,-91.2 360.86,-79.65"/>
<polygon fill="midnightblue" stroke="midnightblue" points="362.29,-76.46 351.73,-75.51 359.39,-82.83 362.29,-76.46"/>
</g>
<!-- Node6 -->
<g id="node6" class="node">
<title>Node6</title>
<g id="a_node6"><a xlink:title=" ">
<polygon fill="white" stroke="#bfbfbf" points="132.5,-56.5 132.5,-75.5 291.5,-75.5 291.5,-56.5 132.5,-56.5"/>
<text text-anchor="middle" x="212" y="-63.5" font-family="Helvetica,sans-Serif" font-size="10.00">vsomeip/primitive_types.hpp</text>
</a>
</g>
</g>
<!-- Node3&#45;&gt;Node6 -->
<g id="edge5" class="edge">
<title>Node3&#45;&gt;Node6</title>
<path fill="none" stroke="midnightblue" d="M427.89,-117.98C383.17,-107.42 306.92,-89.41 258.03,-77.87"/>
<polygon fill="midnightblue" stroke="midnightblue" points="258.58,-74.4 248.04,-75.51 256.97,-81.21 258.58,-74.4"/>
</g>
<!-- Node7 -->
<g id="node7" class="node">
<title>Node7</title>
<g id="a_node7"><a xlink:title=" ">
<polygon fill="white" stroke="#bfbfbf" points="374.5,-56.5 374.5,-75.5 553.5,-75.5 553.5,-56.5 374.5,-56.5"/>
<text text-anchor="middle" x="464" y="-63.5" font-family="Helvetica,sans-Serif" font-size="10.00">vsomeip/internal/serializable.hpp</text>
</a>
</g>
</g>
<!-- Node3&#45;&gt;Node7 -->
<g id="edge6" class="edge">
<title>Node3&#45;&gt;Node7</title>
<path fill="none" stroke="midnightblue" d="M464,-117.98C464,-109.58 464,-96.48 464,-85.66"/>
<polygon fill="midnightblue" stroke="midnightblue" points="467.5,-85.51 464,-75.51 460.5,-85.51 467.5,-85.51"/>
</g>
<!-- Node8 -->
<g id="node8" class="node">
<title>Node8</title>
<g id="a_node8"><a xlink:href="implementation_2service__discovery_2include_2enumeration__types_8hpp.html" target="_top" xlink:title=" ">
<polygon fill="white" stroke="black" points="572,-56.5 572,-75.5 704,-75.5 704,-56.5 572,-56.5"/>
<text text-anchor="middle" x="638" y="-63.5" font-family="Helvetica,sans-Serif" font-size="10.00">enumeration_types.hpp</text>
</a>
</g>
</g>
<!-- Node3&#45;&gt;Node8 -->
<g id="edge7" class="edge">
<title>Node3&#45;&gt;Node8</title>
<path fill="none" stroke="midnightblue" d="M488.93,-117.98C519.04,-107.68 569.83,-90.31 603.64,-78.75"/>
<polygon fill="midnightblue" stroke="midnightblue" points="604.79,-82.06 613.12,-75.51 602.52,-75.43 604.79,-82.06"/>
</g>
<!-- Node10 -->
<g id="node10" class="node">
<title>Node10</title>
<g id="a_node10"><a xlink:href="message__element__impl_8hpp.html" target="_top" xlink:title=" ">
<polygon fill="white" stroke="black" points="722.5,-56.5 722.5,-75.5 877.5,-75.5 877.5,-56.5 722.5,-56.5"/>
<text text-anchor="middle" x="800" y="-63.5" font-family="Helvetica,sans-Serif" font-size="10.00">message_element_impl.hpp</text>
</a>
</g>
</g>
<!-- Node3&#45;&gt;Node10 -->
<g id="edge9" class="edge">
<title>Node3&#45;&gt;Node10</title>
<path fill="none" stroke="midnightblue" d="M509.31,-118.48C569.42,-107.83 675.6,-89.03 741.64,-77.33"/>
<polygon fill="midnightblue" stroke="midnightblue" points="742.64,-80.71 751.88,-75.52 741.42,-73.82 742.64,-80.71"/>
</g>
<!-- Node9 -->
<g id="node9" class="node">
<title>Node9</title>
<g id="a_node9"><a xlink:title=" ">
<polygon fill="white" stroke="#bfbfbf" points="613,-0.5 613,-19.5 663,-19.5 663,-0.5 613,-0.5"/>
<text text-anchor="middle" x="638" y="-7.5" font-family="Helvetica,sans-Serif" font-size="10.00">cstdint</text>
</a>
</g>
</g>
<!-- Node8&#45;&gt;Node9 -->
<g id="edge8" class="edge">
<title>Node8&#45;&gt;Node9</title>
<path fill="none" stroke="midnightblue" d="M638,-56.08C638,-49.01 638,-38.86 638,-29.99"/>
<polygon fill="midnightblue" stroke="midnightblue" points="641.5,-29.75 638,-19.75 634.5,-29.75 641.5,-29.75"/>
</g>
<!-- Node11&#45;&gt;Node5 -->
<g id="edge11" class="edge">
<title>Node11&#45;&gt;Node5</title>
<path fill="none" stroke="midnightblue" d="M333,-112.4C333,-104.47 333,-94.46 333,-85.86"/>
<polygon fill="midnightblue" stroke="midnightblue" points="336.5,-85.66 333,-75.66 329.5,-85.66 336.5,-85.66"/>
</g>
<!-- Node11&#45;&gt;Node6 -->
<g id="edge13" class="edge">
<title>Node11&#45;&gt;Node6</title>
<path fill="none" stroke="midnightblue" d="M304.32,-112.4C284.48,-102.64 258.24,-89.74 238.81,-80.18"/>
<polygon fill="midnightblue" stroke="midnightblue" points="240.12,-76.93 229.61,-75.66 237.04,-83.21 240.12,-76.93"/>
</g>
<!-- Node12 -->
<g id="node12" class="node">
<title>Node12</title>
<g id="a_node12"><a xlink:title=" ">
<polygon fill="white" stroke="#bfbfbf" points="0,-56.5 0,-75.5 114,-75.5 114,-56.5 0,-56.5"/>
<text text-anchor="middle" x="57" y="-63.5" font-family="Helvetica,sans-Serif" font-size="10.00">vsomeip/export.hpp</text>
</a>
</g>
</g>
<!-- Node11&#45;&gt;Node12 -->
<g id="edge12" class="edge">
<title>Node11&#45;&gt;Node12</title>
<path fill="none" stroke="midnightblue" d="M274.17,-113.77C271.41,-113.17 268.68,-112.58 266,-112 211.42,-100.22 148.81,-86.74 106.46,-77.63"/>
<polygon fill="midnightblue" stroke="midnightblue" points="107.19,-74.21 96.68,-75.53 105.72,-81.06 107.19,-74.21"/>
</g>
<!-- Node13&#45;&gt;Node5 -->
<g id="edge15" class="edge">
<title>Node13&#45;&gt;Node5</title>
<path fill="none" stroke="midnightblue" d="M229.99,-112.4C252.44,-102.51 282.21,-89.38 303.98,-79.79"/>
<polygon fill="midnightblue" stroke="midnightblue" points="305.62,-82.89 313.36,-75.66 302.79,-76.49 305.62,-82.89"/>
</g>
<!-- Node13&#45;&gt;Node6 -->
<g id="edge17" class="edge">
<title>Node13&#45;&gt;Node6</title>
<path fill="none" stroke="midnightblue" d="M201.32,-112.4C203.21,-104.38 205.59,-94.23 207.63,-85.57"/>
<polygon fill="midnightblue" stroke="midnightblue" points="211.08,-86.19 209.96,-75.66 204.27,-84.59 211.08,-86.19"/>
</g>
<!-- Node13&#45;&gt;Node12 -->
<g id="edge16" class="edge">
<title>Node13&#45;&gt;Node12</title>
<path fill="none" stroke="midnightblue" d="M164.58,-112.4C141.03,-102.46 109.76,-89.26 87.01,-79.66"/>
<polygon fill="midnightblue" stroke="midnightblue" points="88.09,-76.32 77.52,-75.66 85.37,-82.77 88.09,-76.32"/>
</g>
</g>
</svg>
