<?xml version="1.0" encoding="UTF-8" standalone="no"?>
<!DOCTYPE svg PUBLIC "-//W3C//DTD SVG 1.1//EN"
 "http://www.w3.org/Graphics/SVG/1.1/DTD/svg11.dtd">
<!-- Generated by graphviz version 2.43.0 (0)
 -->
<!-- Title: /home/kali/projects/vsomeip/implementation/service_discovery/include/deserializer.hpp Pages: 1 -->
<svg width="418pt" height="239pt"
 viewBox="0.00 0.00 418.00 239.00" xmlns="http://www.w3.org/2000/svg" xmlns:xlink="http://www.w3.org/1999/xlink">
<g id="graph0" class="graph" transform="scale(1 1) rotate(0) translate(4 235)">
<title>/home/kali/projects/vsomeip/implementation/service_discovery/include/deserializer.hpp</title>
<polygon fill="white" stroke="transparent" points="-4,4 -4,-235 414,-235 414,4 -4,4"/>
<!-- Node1 -->
<g id="node1" class="node">
<title>Node1</title>
<g id="a_node1"><a xlink:title=" ">
<polygon fill="#bfbfbf" stroke="black" points="165.5,-178.5 165.5,-230.5 311.5,-230.5 311.5,-178.5 165.5,-178.5"/>
<text text-anchor="start" x="173.5" y="-218.5" font-family="Helvetica,sans-Serif" font-size="10.00">/home/kali/projects</text>
<text text-anchor="start" x="173.5" y="-207.5" font-family="Helvetica,sans-Serif" font-size="10.00">/vsomeip/implementation</text>
<text text-anchor="start" x="173.5" y="-196.5" font-family="Helvetica,sans-Serif" font-size="10.00">/service_discovery/include</text>
<text text-anchor="middle" x="238.5" y="-185.5" font-family="Helvetica,sans-Serif" font-size="10.00">/deserializer.hpp</text>
</a>
</g>
</g>
<!-- Node2 -->
<g id="node2" class="node">
<title>Node2</title>
<g id="a_node2"><a xlink:href="service__discovery__impl_8hpp.html" target="_top" xlink:title=" ">
<polygon fill="white" stroke="black" points="55,-89.5 55,-141.5 210,-141.5 210,-89.5 55,-89.5"/>
<text text-anchor="start" x="63" y="-129.5" font-family="Helvetica,sans-Serif" font-size="10.00">/home/kali/projects</text>
<text text-anchor="start" x="63" y="-118.5" font-family="Helvetica,sans-Serif" font-size="10.00">/vsomeip/implementation</text>
<text text-anchor="start" x="63" y="-107.5" font-family="Helvetica,sans-Serif" font-size="10.00">/service_discovery/include</text>
<text text-anchor="middle" x="132.5" y="-96.5" font-family="Helvetica,sans-Serif" font-size="10.00">/service_discovery_impl.hpp</text>
</a>
</g>
</g>
<!-- Node1&#45;&gt;Node2 -->
<g id="edge1" class="edge">
<title>Node1&#45;&gt;Node2</title>
<path fill="none" stroke="midnightblue" d="M200.04,-171.93C187.88,-161.96 174.62,-151.07 163.09,-141.61"/>
<polygon fill="midnightblue" stroke="midnightblue" points="197.89,-174.7 207.84,-178.34 202.33,-169.29 197.89,-174.7"/>
</g>
<!-- Node4 -->
<g id="node4" class="node">
<title>Node4</title>
<g id="a_node4"><a xlink:href="service__discovery__impl_8cpp.html" target="_top" xlink:title=" ">
<polygon fill="white" stroke="black" points="161,-0.5 161,-52.5 316,-52.5 316,-0.5 161,-0.5"/>
<text text-anchor="start" x="169" y="-40.5" font-family="Helvetica,sans-Serif" font-size="10.00">/home/kali/projects</text>
<text text-anchor="start" x="169" y="-29.5" font-family="Helvetica,sans-Serif" font-size="10.00">/vsomeip/implementation</text>
<text text-anchor="start" x="169" y="-18.5" font-family="Helvetica,sans-Serif" font-size="10.00">/service_discovery/src</text>
<text text-anchor="middle" x="238.5" y="-7.5" font-family="Helvetica,sans-Serif" font-size="10.00">/service_discovery_impl.cpp</text>
</a>
</g>
</g>
<!-- Node1&#45;&gt;Node4 -->
<g id="edge5" class="edge">
<title>Node1&#45;&gt;Node4</title>
<path fill="none" stroke="midnightblue" d="M238.5,-168.25C238.5,-134.04 238.5,-82.97 238.5,-52.67"/>
<polygon fill="midnightblue" stroke="midnightblue" points="235,-168.28 238.5,-178.28 242,-168.28 235,-168.28"/>
</g>
<!-- Node5 -->
<g id="node5" class="node">
<title>Node5</title>
<g id="a_node5"><a xlink:href="service__discovery_2src_2deserializer_8cpp.html" target="_top" xlink:title=" ">
<polygon fill="white" stroke="black" points="267,-89.5 267,-141.5 410,-141.5 410,-89.5 267,-89.5"/>
<text text-anchor="start" x="275" y="-129.5" font-family="Helvetica,sans-Serif" font-size="10.00">/home/kali/projects</text>
<text text-anchor="start" x="275" y="-118.5" font-family="Helvetica,sans-Serif" font-size="10.00">/vsomeip/implementation</text>
<text text-anchor="start" x="275" y="-107.5" font-family="Helvetica,sans-Serif" font-size="10.00">/service_discovery/src</text>
<text text-anchor="middle" x="338.5" y="-96.5" font-family="Helvetica,sans-Serif" font-size="10.00">/deserializer.cpp</text>
</a>
</g>
</g>
<!-- Node1&#45;&gt;Node5 -->
<g id="edge4" class="edge">
<title>Node1&#45;&gt;Node5</title>
<path fill="none" stroke="midnightblue" d="M275.11,-171.65C286.49,-161.75 298.87,-150.98 309.64,-141.61"/>
<polygon fill="midnightblue" stroke="midnightblue" points="272.67,-169.13 267.42,-178.34 277.27,-174.41 272.67,-169.13"/>
</g>
<!-- Node3 -->
<g id="node3" class="node">
<title>Node3</title>
<g id="a_node3"><a xlink:href="service__discovery_2src_2runtime__impl_8cpp.html" target="_top" xlink:title=" ">
<polygon fill="white" stroke="black" points="0,-0.5 0,-52.5 143,-52.5 143,-0.5 0,-0.5"/>
<text text-anchor="start" x="8" y="-40.5" font-family="Helvetica,sans-Serif" font-size="10.00">/home/kali/projects</text>
<text text-anchor="start" x="8" y="-29.5" font-family="Helvetica,sans-Serif" font-size="10.00">/vsomeip/implementation</text>
<text text-anchor="start" x="8" y="-18.5" font-family="Helvetica,sans-Serif" font-size="10.00">/service_discovery/src</text>
<text text-anchor="middle" x="71.5" y="-7.5" font-family="Helvetica,sans-Serif" font-size="10.00">/runtime_impl.cpp</text>
</a>
</g>
</g>
<!-- Node2&#45;&gt;Node3 -->
<g id="edge2" class="edge">
<title>Node2&#45;&gt;Node3</title>
<path fill="none" stroke="midnightblue" d="M108.96,-80.93C102.36,-71.51 95.3,-61.44 89.1,-52.61"/>
<polygon fill="midnightblue" stroke="midnightblue" points="106.25,-83.16 114.86,-89.34 111.98,-79.14 106.25,-83.16"/>
</g>
<!-- Node2&#45;&gt;Node4 -->
<g id="edge3" class="edge">
<title>Node2&#45;&gt;Node4</title>
<path fill="none" stroke="midnightblue" d="M170.96,-82.93C183.12,-72.96 196.38,-62.07 207.91,-52.61"/>
<polygon fill="midnightblue" stroke="midnightblue" points="168.67,-80.29 163.16,-89.34 173.11,-85.7 168.67,-80.29"/>
</g>
</g>
</svg>
