<?xml version="1.0" encoding="UTF-8" standalone="no"?>
<!DOCTYPE svg PUBLIC "-//W3C//DTD SVG 1.1//EN"
 "http://www.w3.org/Graphics/SVG/1.1/DTD/svg11.dtd">
<!-- Generated by graphviz version 2.43.0 (0)
 -->
<!-- Title: /home/kali/projects/vsomeip/implementation/service_discovery/include/service_discovery_host.hpp Pages: 1 -->
<svg width="768pt" height="328pt"
 viewBox="0.00 0.00 768.00 328.00" xmlns="http://www.w3.org/2000/svg" xmlns:xlink="http://www.w3.org/1999/xlink">
<g id="graph0" class="graph" transform="scale(1 1) rotate(0) translate(4 324)">
<title>/home/kali/projects/vsomeip/implementation/service_discovery/include/service_discovery_host.hpp</title>
<polygon fill="white" stroke="transparent" points="-4,4 -4,-324 764,-324 764,4 -4,4"/>
<!-- Node1 -->
<g id="node1" class="node">
<title>Node1</title>
<g id="a_node1"><a xlink:title=" ">
<polygon fill="#bfbfbf" stroke="black" points="407,-267.5 407,-319.5 562,-319.5 562,-267.5 407,-267.5"/>
<text text-anchor="start" x="415" y="-307.5" font-family="Helvetica,sans-Serif" font-size="10.00">/home/kali/projects</text>
<text text-anchor="start" x="415" y="-296.5" font-family="Helvetica,sans-Serif" font-size="10.00">/vsomeip/implementation</text>
<text text-anchor="start" x="415" y="-285.5" font-family="Helvetica,sans-Serif" font-size="10.00">/service_discovery/include</text>
<text text-anchor="middle" x="484.5" y="-274.5" font-family="Helvetica,sans-Serif" font-size="10.00">/service_discovery_host.hpp</text>
</a>
</g>
</g>
<!-- Node2 -->
<g id="node2" class="node">
<title>Node2</title>
<g id="a_node2"><a xlink:href="routing__manager__impl_8hpp.html" target="_top" xlink:title=" ">
<polygon fill="white" stroke="black" points="247,-178.5 247,-230.5 390,-230.5 390,-178.5 247,-178.5"/>
<text text-anchor="start" x="255" y="-218.5" font-family="Helvetica,sans-Serif" font-size="10.00">/home/kali/projects</text>
<text text-anchor="start" x="255" y="-207.5" font-family="Helvetica,sans-Serif" font-size="10.00">/vsomeip/implementation</text>
<text text-anchor="start" x="255" y="-196.5" font-family="Helvetica,sans-Serif" font-size="10.00">/routing/include/routing</text>
<text text-anchor="middle" x="318.5" y="-185.5" font-family="Helvetica,sans-Serif" font-size="10.00">_manager_impl.hpp</text>
</a>
</g>
</g>
<!-- Node1&#45;&gt;Node2 -->
<g id="edge1" class="edge">
<title>Node1&#45;&gt;Node2</title>
<path fill="none" stroke="midnightblue" d="M427.52,-262.64C407.62,-252.2 385.49,-240.61 366.41,-230.61"/>
<polygon fill="midnightblue" stroke="midnightblue" points="426,-265.79 436.49,-267.34 429.25,-259.59 426,-265.79"/>
</g>
<!-- Node6 -->
<g id="node6" class="node">
<title>Node6</title>
<g id="a_node6"><a xlink:href="service__discovery_8hpp.html" target="_top" xlink:title=" ">
<polygon fill="white" stroke="black" points="411.5,-178.5 411.5,-230.5 557.5,-230.5 557.5,-178.5 411.5,-178.5"/>
<text text-anchor="start" x="419.5" y="-218.5" font-family="Helvetica,sans-Serif" font-size="10.00">/home/kali/projects</text>
<text text-anchor="start" x="419.5" y="-207.5" font-family="Helvetica,sans-Serif" font-size="10.00">/vsomeip/implementation</text>
<text text-anchor="start" x="419.5" y="-196.5" font-family="Helvetica,sans-Serif" font-size="10.00">/service_discovery/include</text>
<text text-anchor="middle" x="484.5" y="-185.5" font-family="Helvetica,sans-Serif" font-size="10.00">/service_discovery.hpp</text>
</a>
</g>
</g>
<!-- Node1&#45;&gt;Node6 -->
<g id="edge5" class="edge">
<title>Node1&#45;&gt;Node6</title>
<path fill="none" stroke="midnightblue" d="M484.5,-257.19C484.5,-248.28 484.5,-238.9 484.5,-230.61"/>
<polygon fill="midnightblue" stroke="midnightblue" points="481,-257.34 484.5,-267.34 488,-257.34 481,-257.34"/>
</g>
<!-- Node9 -->
<g id="node9" class="node">
<title>Node9</title>
<g id="a_node9"><a xlink:href="service__discovery__impl_8cpp.html" target="_top" xlink:title=" ">
<polygon fill="white" stroke="black" points="605,-0.5 605,-52.5 760,-52.5 760,-0.5 605,-0.5"/>
<text text-anchor="start" x="613" y="-40.5" font-family="Helvetica,sans-Serif" font-size="10.00">/home/kali/projects</text>
<text text-anchor="start" x="613" y="-29.5" font-family="Helvetica,sans-Serif" font-size="10.00">/vsomeip/implementation</text>
<text text-anchor="start" x="613" y="-18.5" font-family="Helvetica,sans-Serif" font-size="10.00">/service_discovery/src</text>
<text text-anchor="middle" x="682.5" y="-7.5" font-family="Helvetica,sans-Serif" font-size="10.00">/service_discovery_impl.cpp</text>
</a>
</g>
</g>
<!-- Node1&#45;&gt;Node9 -->
<g id="edge10" class="edge">
<title>Node1&#45;&gt;Node9</title>
<path fill="none" stroke="midnightblue" d="M538.73,-262.08C579.92,-235.88 634.16,-194.11 662.5,-142 677.73,-113.99 681.78,-76.94 682.65,-52.68"/>
<polygon fill="midnightblue" stroke="midnightblue" points="536.79,-259.17 530.15,-267.43 540.49,-265.1 536.79,-259.17"/>
</g>
<!-- Node3 -->
<g id="node3" class="node">
<title>Node3</title>
<g id="a_node3"><a xlink:href="endpoint__manager__impl_8cpp.html" target="_top" xlink:title=" ">
<polygon fill="white" stroke="black" points="0,-89.5 0,-141.5 143,-141.5 143,-89.5 0,-89.5"/>
<text text-anchor="start" x="8" y="-129.5" font-family="Helvetica,sans-Serif" font-size="10.00">/home/kali/projects</text>
<text text-anchor="start" x="8" y="-118.5" font-family="Helvetica,sans-Serif" font-size="10.00">/vsomeip/implementation</text>
<text text-anchor="start" x="8" y="-107.5" font-family="Helvetica,sans-Serif" font-size="10.00">/endpoints/src/endpoint</text>
<text text-anchor="middle" x="71.5" y="-96.5" font-family="Helvetica,sans-Serif" font-size="10.00">_manager_impl.cpp</text>
</a>
</g>
</g>
<!-- Node2&#45;&gt;Node3 -->
<g id="edge2" class="edge">
<title>Node2&#45;&gt;Node3</title>
<path fill="none" stroke="midnightblue" d="M237.58,-175C206.9,-164.19 172.24,-151.98 142.54,-141.52"/>
<polygon fill="midnightblue" stroke="midnightblue" points="236.79,-178.43 247.39,-178.45 239.12,-171.83 236.79,-178.43"/>
</g>
<!-- Node4 -->
<g id="node4" class="node">
<title>Node4</title>
<g id="a_node4"><a xlink:href="routing__manager__impl_8cpp.html" target="_top" xlink:title=" ">
<polygon fill="white" stroke="black" points="322.5,-89.5 322.5,-141.5 480.5,-141.5 480.5,-89.5 322.5,-89.5"/>
<text text-anchor="start" x="330.5" y="-129.5" font-family="Helvetica,sans-Serif" font-size="10.00">/home/kali/projects</text>
<text text-anchor="start" x="330.5" y="-118.5" font-family="Helvetica,sans-Serif" font-size="10.00">/vsomeip/implementation</text>
<text text-anchor="start" x="330.5" y="-107.5" font-family="Helvetica,sans-Serif" font-size="10.00">/routing/src/routing_manager</text>
<text text-anchor="middle" x="401.5" y="-96.5" font-family="Helvetica,sans-Serif" font-size="10.00">_impl.cpp</text>
</a>
</g>
</g>
<!-- Node2&#45;&gt;Node4 -->
<g id="edge3" class="edge">
<title>Node2&#45;&gt;Node4</title>
<path fill="none" stroke="midnightblue" d="M349.43,-171.08C358.73,-161.34 368.78,-150.8 377.55,-141.61"/>
<polygon fill="midnightblue" stroke="midnightblue" points="346.88,-168.68 342.51,-178.34 351.94,-173.52 346.88,-168.68"/>
</g>
<!-- Node5 -->
<g id="node5" class="node">
<title>Node5</title>
<g id="a_node5"><a xlink:href="runtime_2src_2application__impl_8cpp.html" target="_top" xlink:title=" ">
<polygon fill="white" stroke="black" points="161,-89.5 161,-141.5 304,-141.5 304,-89.5 161,-89.5"/>
<text text-anchor="start" x="169" y="-129.5" font-family="Helvetica,sans-Serif" font-size="10.00">/home/kali/projects</text>
<text text-anchor="start" x="169" y="-118.5" font-family="Helvetica,sans-Serif" font-size="10.00">/vsomeip/implementation</text>
<text text-anchor="start" x="169" y="-107.5" font-family="Helvetica,sans-Serif" font-size="10.00">/runtime/src/application</text>
<text text-anchor="middle" x="232.5" y="-96.5" font-family="Helvetica,sans-Serif" font-size="10.00">_impl.cpp</text>
</a>
</g>
</g>
<!-- Node2&#45;&gt;Node5 -->
<g id="edge4" class="edge">
<title>Node2&#45;&gt;Node5</title>
<path fill="none" stroke="midnightblue" d="M286.45,-171.08C276.82,-161.34 266.41,-150.8 257.32,-141.61"/>
<polygon fill="midnightblue" stroke="midnightblue" points="284.11,-173.68 293.63,-178.34 289.08,-168.76 284.11,-173.68"/>
</g>
<!-- Node6&#45;&gt;Node4 -->
<g id="edge6" class="edge">
<title>Node6&#45;&gt;Node4</title>
<path fill="none" stroke="midnightblue" d="M453.57,-171.08C444.27,-161.34 434.22,-150.8 425.45,-141.61"/>
<polygon fill="midnightblue" stroke="midnightblue" points="451.06,-173.52 460.49,-178.34 456.12,-168.68 451.06,-173.52"/>
</g>
<!-- Node7 -->
<g id="node7" class="node">
<title>Node7</title>
<g id="a_node7"><a xlink:href="service__discovery__impl_8hpp.html" target="_top" xlink:title=" ">
<polygon fill="white" stroke="black" points="499,-89.5 499,-141.5 654,-141.5 654,-89.5 499,-89.5"/>
<text text-anchor="start" x="507" y="-129.5" font-family="Helvetica,sans-Serif" font-size="10.00">/home/kali/projects</text>
<text text-anchor="start" x="507" y="-118.5" font-family="Helvetica,sans-Serif" font-size="10.00">/vsomeip/implementation</text>
<text text-anchor="start" x="507" y="-107.5" font-family="Helvetica,sans-Serif" font-size="10.00">/service_discovery/include</text>
<text text-anchor="middle" x="576.5" y="-96.5" font-family="Helvetica,sans-Serif" font-size="10.00">/service_discovery_impl.hpp</text>
</a>
</g>
</g>
<!-- Node6&#45;&gt;Node7 -->
<g id="edge7" class="edge">
<title>Node6&#45;&gt;Node7</title>
<path fill="none" stroke="midnightblue" d="M518.48,-171.36C528.87,-161.54 540.13,-150.89 549.95,-141.61"/>
<polygon fill="midnightblue" stroke="midnightblue" points="515.97,-168.92 511.11,-178.34 520.78,-174.01 515.97,-168.92"/>
</g>
<!-- Node8 -->
<g id="node8" class="node">
<title>Node8</title>
<g id="a_node8"><a xlink:href="service__discovery_2src_2runtime__impl_8cpp.html" target="_top" xlink:title=" ">
<polygon fill="white" stroke="black" points="444,-0.5 444,-52.5 587,-52.5 587,-0.5 444,-0.5"/>
<text text-anchor="start" x="452" y="-40.5" font-family="Helvetica,sans-Serif" font-size="10.00">/home/kali/projects</text>
<text text-anchor="start" x="452" y="-29.5" font-family="Helvetica,sans-Serif" font-size="10.00">/vsomeip/implementation</text>
<text text-anchor="start" x="452" y="-18.5" font-family="Helvetica,sans-Serif" font-size="10.00">/service_discovery/src</text>
<text text-anchor="middle" x="515.5" y="-7.5" font-family="Helvetica,sans-Serif" font-size="10.00">/runtime_impl.cpp</text>
</a>
</g>
</g>
<!-- Node7&#45;&gt;Node8 -->
<g id="edge8" class="edge">
<title>Node7&#45;&gt;Node8</title>
<path fill="none" stroke="midnightblue" d="M552.96,-80.93C546.36,-71.51 539.3,-61.44 533.1,-52.61"/>
<polygon fill="midnightblue" stroke="midnightblue" points="550.25,-83.16 558.86,-89.34 555.98,-79.14 550.25,-83.16"/>
</g>
<!-- Node7&#45;&gt;Node9 -->
<g id="edge9" class="edge">
<title>Node7&#45;&gt;Node9</title>
<path fill="none" stroke="midnightblue" d="M614.96,-82.93C627.12,-72.96 640.38,-62.07 651.91,-52.61"/>
<polygon fill="midnightblue" stroke="midnightblue" points="612.67,-80.29 607.16,-89.34 617.11,-85.7 612.67,-80.29"/>
</g>
</g>
</svg>
