<?xml version="1.0" encoding="UTF-8" standalone="no"?>
<!DOCTYPE svg PUBLIC "-//W3C//DTD SVG 1.1//EN"
 "http://www.w3.org/Graphics/SVG/1.1/DTD/svg11.dtd">
<!-- Generated by graphviz version 2.43.0 (0)
 -->
<!-- Title: /home/kali/projects/vsomeip/implementation/routing/include/serviceinfo.hpp Pages: 1 -->
<svg width="622pt" height="106pt"
 viewBox="0.00 0.00 621.50 106.00" xmlns="http://www.w3.org/2000/svg" xmlns:xlink="http://www.w3.org/1999/xlink">
<g id="graph0" class="graph" transform="scale(1 1) rotate(0) translate(4 102)">
<title>/home/kali/projects/vsomeip/implementation/routing/include/serviceinfo.hpp</title>
<polygon fill="white" stroke="transparent" points="-4,4 -4,-102 617.5,-102 617.5,4 -4,4"/>
<!-- Node1 -->
<g id="node1" class="node">
<title>Node1</title>
<g id="a_node1"><a xlink:title=" ">
<polygon fill="#bfbfbf" stroke="black" points="128,-56.5 128,-97.5 298,-97.5 298,-56.5 128,-56.5"/>
<text text-anchor="start" x="136" y="-85.5" font-family="Helvetica,sans-Serif" font-size="10.00">/home/kali/projects</text>
<text text-anchor="start" x="136" y="-74.5" font-family="Helvetica,sans-Serif" font-size="10.00">/vsomeip/implementation</text>
<text text-anchor="middle" x="213" y="-63.5" font-family="Helvetica,sans-Serif" font-size="10.00">/routing/include/serviceinfo.hpp</text>
</a>
</g>
</g>
<!-- Node2 -->
<g id="node2" class="node">
<title>Node2</title>
<g id="a_node2"><a xlink:title=" ">
<polygon fill="white" stroke="#bfbfbf" points="0,-0.5 0,-19.5 58,-19.5 58,-0.5 0,-0.5"/>
<text text-anchor="middle" x="29" y="-7.5" font-family="Helvetica,sans-Serif" font-size="10.00">memory</text>
</a>
</g>
</g>
<!-- Node1&#45;&gt;Node2 -->
<g id="edge1" class="edge">
<title>Node1&#45;&gt;Node2</title>
<path fill="none" stroke="midnightblue" d="M157.79,-56.5C127.01,-45.62 89.64,-32.42 63.1,-23.05"/>
<polygon fill="midnightblue" stroke="midnightblue" points="64.09,-19.68 53.49,-19.65 61.76,-26.28 64.09,-19.68"/>
</g>
<!-- Node3 -->
<g id="node3" class="node">
<title>Node3</title>
<g id="a_node3"><a xlink:title=" ">
<polygon fill="white" stroke="#bfbfbf" points="76,-0.5 76,-19.5 108,-19.5 108,-0.5 76,-0.5"/>
<text text-anchor="middle" x="92" y="-7.5" font-family="Helvetica,sans-Serif" font-size="10.00">set</text>
</a>
</g>
</g>
<!-- Node1&#45;&gt;Node3 -->
<g id="edge2" class="edge">
<title>Node1&#45;&gt;Node3</title>
<path fill="none" stroke="midnightblue" d="M176.7,-56.5C157.43,-46.15 134.25,-33.69 117.01,-24.43"/>
<polygon fill="midnightblue" stroke="midnightblue" points="118.57,-21.3 108.11,-19.65 115.26,-27.47 118.57,-21.3"/>
</g>
<!-- Node4 -->
<g id="node4" class="node">
<title>Node4</title>
<g id="a_node4"><a xlink:title=" ">
<polygon fill="white" stroke="#bfbfbf" points="126,-0.5 126,-19.5 170,-19.5 170,-0.5 126,-0.5"/>
<text text-anchor="middle" x="148" y="-7.5" font-family="Helvetica,sans-Serif" font-size="10.00">string</text>
</a>
</g>
</g>
<!-- Node1&#45;&gt;Node4 -->
<g id="edge3" class="edge">
<title>Node1&#45;&gt;Node4</title>
<path fill="none" stroke="midnightblue" d="M193.5,-56.5C184.01,-47.01 172.76,-35.76 163.81,-26.81"/>
<polygon fill="midnightblue" stroke="midnightblue" points="166.2,-24.25 156.65,-19.65 161.25,-29.2 166.2,-24.25"/>
</g>
<!-- Node5 -->
<g id="node5" class="node">
<title>Node5</title>
<g id="a_node5"><a xlink:title=" ">
<polygon fill="white" stroke="#bfbfbf" points="188,-0.5 188,-19.5 238,-19.5 238,-0.5 188,-0.5"/>
<text text-anchor="middle" x="213" y="-7.5" font-family="Helvetica,sans-Serif" font-size="10.00">chrono</text>
</a>
</g>
</g>
<!-- Node1&#45;&gt;Node5 -->
<g id="edge4" class="edge">
<title>Node1&#45;&gt;Node5</title>
<path fill="none" stroke="midnightblue" d="M213,-56.5C213,-48.07 213,-38.24 213,-29.87"/>
<polygon fill="midnightblue" stroke="midnightblue" points="216.5,-29.65 213,-19.65 209.5,-29.65 216.5,-29.65"/>
</g>
<!-- Node6 -->
<g id="node6" class="node">
<title>Node6</title>
<g id="a_node6"><a xlink:title=" ">
<polygon fill="white" stroke="#bfbfbf" points="256,-0.5 256,-19.5 304,-19.5 304,-0.5 256,-0.5"/>
<text text-anchor="middle" x="280" y="-7.5" font-family="Helvetica,sans-Serif" font-size="10.00">mutex</text>
</a>
</g>
</g>
<!-- Node1&#45;&gt;Node6 -->
<g id="edge5" class="edge">
<title>Node1&#45;&gt;Node6</title>
<path fill="none" stroke="midnightblue" d="M233.1,-56.5C242.88,-47.01 254.48,-35.76 263.7,-26.81"/>
<polygon fill="midnightblue" stroke="midnightblue" points="266.34,-29.13 271.08,-19.65 261.47,-24.1 266.34,-29.13"/>
</g>
<!-- Node7 -->
<g id="node7" class="node">
<title>Node7</title>
<g id="a_node7"><a xlink:title=" ">
<polygon fill="white" stroke="#bfbfbf" points="322,-0.5 322,-19.5 436,-19.5 436,-0.5 322,-0.5"/>
<text text-anchor="middle" x="379" y="-7.5" font-family="Helvetica,sans-Serif" font-size="10.00">vsomeip/export.hpp</text>
</a>
</g>
</g>
<!-- Node1&#45;&gt;Node7 -->
<g id="edge6" class="edge">
<title>Node1&#45;&gt;Node7</title>
<path fill="none" stroke="midnightblue" d="M262.81,-56.5C290.21,-45.77 323.4,-32.77 347.28,-23.42"/>
<polygon fill="midnightblue" stroke="midnightblue" points="348.87,-26.56 356.9,-19.65 346.32,-20.04 348.87,-26.56"/>
</g>
<!-- Node8 -->
<g id="node8" class="node">
<title>Node8</title>
<g id="a_node8"><a xlink:title=" ">
<polygon fill="white" stroke="#bfbfbf" points="454.5,-0.5 454.5,-19.5 613.5,-19.5 613.5,-0.5 454.5,-0.5"/>
<text text-anchor="middle" x="534" y="-7.5" font-family="Helvetica,sans-Serif" font-size="10.00">vsomeip/primitive_types.hpp</text>
</a>
</g>
</g>
<!-- Node1&#45;&gt;Node8 -->
<g id="edge7" class="edge">
<title>Node1&#45;&gt;Node8</title>
<path fill="none" stroke="midnightblue" d="M298.18,-58.75C356.56,-46.93 432.15,-31.62 481.8,-21.57"/>
<polygon fill="midnightblue" stroke="midnightblue" points="482.58,-24.98 491.68,-19.57 481.19,-18.12 482.58,-24.98"/>
</g>
</g>
</svg>
