<?xml version="1.0" encoding="UTF-8" standalone="no"?>
<!DOCTYPE svg PUBLIC "-//W3C//DTD SVG 1.1//EN"
 "http://www.w3.org/Graphics/SVG/1.1/DTD/svg11.dtd">
<!-- Generated by graphviz version 2.43.0 (0)
 -->
<!-- Title: /home/kali/projects/vsomeip/implementation/service_discovery/include/message_impl.hpp Pages: 1 -->
<svg width="1027pt" height="251pt"
 viewBox="0.00 0.00 1027.00 251.00" xmlns="http://www.w3.org/2000/svg" xmlns:xlink="http://www.w3.org/1999/xlink">
<g id="graph0" class="graph" transform="scale(1 1) rotate(0) translate(4 247)">
<title>/home/kali/projects/vsomeip/implementation/service_discovery/include/message_impl.hpp</title>
<polygon fill="white" stroke="transparent" points="-4,4 -4,-247 1023,-247 1023,4 -4,4"/>
<!-- Node1 -->
<g id="node1" class="node">
<title>Node1</title>
<g id="a_node1"><a xlink:title=" ">
<polygon fill="#bfbfbf" stroke="black" points="314,-190.5 314,-242.5 460,-242.5 460,-190.5 314,-190.5"/>
<text text-anchor="start" x="322" y="-230.5" font-family="Helvetica,sans-Serif" font-size="10.00">/home/kali/projects</text>
<text text-anchor="start" x="322" y="-219.5" font-family="Helvetica,sans-Serif" font-size="10.00">/vsomeip/implementation</text>
<text text-anchor="start" x="322" y="-208.5" font-family="Helvetica,sans-Serif" font-size="10.00">/service_discovery/include</text>
<text text-anchor="middle" x="387" y="-197.5" font-family="Helvetica,sans-Serif" font-size="10.00">/message_impl.hpp</text>
</a>
</g>
</g>
<!-- Node2 -->
<g id="node2" class="node">
<title>Node2</title>
<g id="a_node2"><a xlink:title=" ">
<polygon fill="white" stroke="#bfbfbf" points="0,-67.5 0,-86.5 50,-86.5 50,-67.5 0,-67.5"/>
<text text-anchor="middle" x="25" y="-74.5" font-family="Helvetica,sans-Serif" font-size="10.00">atomic</text>
</a>
</g>
</g>
<!-- Node1&#45;&gt;Node2 -->
<g id="edge1" class="edge">
<title>Node1&#45;&gt;Node2</title>
<path fill="none" stroke="midnightblue" d="M313.77,-203.33C264.47,-193.61 198.72,-177.66 144,-154 106.06,-137.6 66.47,-109.83 43.87,-92.79"/>
<polygon fill="midnightblue" stroke="midnightblue" points="45.88,-89.91 35.81,-86.62 41.62,-95.47 45.88,-89.91"/>
</g>
<!-- Node3 -->
<g id="node3" class="node">
<title>Node3</title>
<g id="a_node3"><a xlink:title=" ">
<polygon fill="white" stroke="#bfbfbf" points="68,-67.5 68,-86.5 126,-86.5 126,-67.5 68,-67.5"/>
<text text-anchor="middle" x="97" y="-74.5" font-family="Helvetica,sans-Serif" font-size="10.00">memory</text>
</a>
</g>
</g>
<!-- Node1&#45;&gt;Node3 -->
<g id="edge2" class="edge">
<title>Node1&#45;&gt;Node3</title>
<path fill="none" stroke="midnightblue" d="M313.59,-199.22C275.91,-189.19 230.05,-174.3 192,-154 161.13,-137.53 130.44,-110.56 112.62,-93.57"/>
<polygon fill="midnightblue" stroke="midnightblue" points="114.99,-90.99 105.38,-86.54 110.11,-96.02 114.99,-90.99"/>
</g>
<!-- Node4 -->
<g id="node4" class="node">
<title>Node4</title>
<g id="a_node4"><a xlink:title=" ">
<polygon fill="white" stroke="#bfbfbf" points="144,-67.5 144,-86.5 192,-86.5 192,-67.5 144,-67.5"/>
<text text-anchor="middle" x="168" y="-74.5" font-family="Helvetica,sans-Serif" font-size="10.00">mutex</text>
</a>
</g>
</g>
<!-- Node1&#45;&gt;Node4 -->
<g id="edge3" class="edge">
<title>Node1&#45;&gt;Node4</title>
<path fill="none" stroke="midnightblue" d="M313.89,-197.78C284.04,-188.14 250.4,-174 224,-154 203.25,-138.28 186.69,-112.81 177.11,-95.74"/>
<polygon fill="midnightblue" stroke="midnightblue" points="180.12,-93.95 172.3,-86.8 173.96,-97.26 180.12,-93.95"/>
</g>
<!-- Node5 -->
<g id="node5" class="node">
<title>Node5</title>
<g id="a_node5"><a xlink:title=" ">
<polygon fill="white" stroke="#bfbfbf" points="689.5,-129 689.5,-148 736.5,-148 736.5,-129 689.5,-129"/>
<text text-anchor="middle" x="713" y="-136" font-family="Helvetica,sans-Serif" font-size="10.00">vector</text>
</a>
</g>
</g>
<!-- Node1&#45;&gt;Node5 -->
<g id="edge4" class="edge">
<title>Node1&#45;&gt;Node5</title>
<path fill="none" stroke="midnightblue" d="M460.27,-203.08C518.95,-192.37 603.05,-175.27 675,-154 677.58,-153.24 680.23,-152.38 682.87,-151.48"/>
<polygon fill="midnightblue" stroke="midnightblue" points="684.08,-154.76 692.29,-148.06 681.7,-148.18 684.08,-154.76"/>
</g>
<!-- Node6 -->
<g id="node6" class="node">
<title>Node6</title>
<g id="a_node6"><a xlink:title=" ">
<polygon fill="white" stroke="#bfbfbf" points="823.5,-67.5 823.5,-86.5 950.5,-86.5 950.5,-67.5 823.5,-67.5"/>
<text text-anchor="middle" x="887" y="-74.5" font-family="Helvetica,sans-Serif" font-size="10.00">vsomeip/message.hpp</text>
</a>
</g>
</g>
<!-- Node1&#45;&gt;Node6 -->
<g id="edge5" class="edge">
<title>Node1&#45;&gt;Node6</title>
<path fill="none" stroke="midnightblue" d="M460.04,-206.74C512.71,-198.35 584.37,-182.58 642,-154 661.53,-144.31 660.37,-132.46 680,-123 705.16,-110.87 773.32,-97.3 824.61,-88.26"/>
<polygon fill="midnightblue" stroke="midnightblue" points="825.37,-91.68 834.62,-86.51 824.17,-84.78 825.37,-91.68"/>
</g>
<!-- Node7 -->
<g id="node7" class="node">
<title>Node7</title>
<g id="a_node7"><a xlink:href="implementation_2service__discovery_2include_2primitive__types_8hpp.html" target="_top" xlink:title=" ">
<polygon fill="white" stroke="black" points="873,-123.5 873,-153.5 981,-153.5 981,-123.5 873,-123.5"/>
<text text-anchor="start" x="881" y="-141.5" font-family="Helvetica,sans-Serif" font-size="10.00">../include/primitive</text>
<text text-anchor="middle" x="927" y="-130.5" font-family="Helvetica,sans-Serif" font-size="10.00">_types.hpp</text>
</a>
</g>
</g>
<!-- Node1&#45;&gt;Node7 -->
<g id="edge6" class="edge">
<title>Node1&#45;&gt;Node7</title>
<path fill="none" stroke="midnightblue" d="M460.11,-205.21C566.38,-190.25 761.83,-162.75 862.83,-148.53"/>
<polygon fill="midnightblue" stroke="midnightblue" points="863.48,-151.98 872.89,-147.12 862.5,-145.04 863.48,-151.98"/>
</g>
<!-- Node9 -->
<g id="node9" class="node">
<title>Node9</title>
<g id="a_node9"><a xlink:href="message_2include_2message__base__impl_8hpp.html" target="_top" xlink:title=" ">
<polygon fill="white" stroke="black" points="493,-123.5 493,-153.5 633,-153.5 633,-123.5 493,-123.5"/>
<text text-anchor="start" x="501" y="-141.5" font-family="Helvetica,sans-Serif" font-size="10.00">../../message/include</text>
<text text-anchor="middle" x="563" y="-130.5" font-family="Helvetica,sans-Serif" font-size="10.00">/message_base_impl.hpp</text>
</a>
</g>
</g>
<!-- Node1&#45;&gt;Node9 -->
<g id="edge8" class="edge">
<title>Node1&#45;&gt;Node9</title>
<path fill="none" stroke="midnightblue" d="M445.12,-190.4C469.91,-179.7 498.3,-167.44 521,-157.64"/>
<polygon fill="midnightblue" stroke="midnightblue" points="522.56,-160.77 530.35,-153.6 519.79,-154.35 522.56,-160.77"/>
</g>
<!-- Node16 -->
<g id="node16" class="node">
<title>Node16</title>
<g id="a_node16"><a xlink:href="endpoint__definition_8hpp.html" target="_top" xlink:title=" ">
<polygon fill="white" stroke="black" points="233,-123.5 233,-153.5 367,-153.5 367,-123.5 233,-123.5"/>
<text text-anchor="start" x="241" y="-141.5" font-family="Helvetica,sans-Serif" font-size="10.00">../../endpoints/include</text>
<text text-anchor="middle" x="300" y="-130.5" font-family="Helvetica,sans-Serif" font-size="10.00">/endpoint_definition.hpp</text>
</a>
</g>
</g>
<!-- Node1&#45;&gt;Node16 -->
<g id="edge17" class="edge">
<title>Node1&#45;&gt;Node16</title>
<path fill="none" stroke="midnightblue" d="M358.03,-190.19C347,-180.56 334.56,-169.69 324.04,-160.5"/>
<polygon fill="midnightblue" stroke="midnightblue" points="326.26,-157.79 316.42,-153.85 321.65,-163.06 326.26,-157.79"/>
</g>
<!-- Node8 -->
<g id="node8" class="node">
<title>Node8</title>
<g id="a_node8"><a xlink:title=" ">
<polygon fill="white" stroke="#bfbfbf" points="969,-67.5 969,-86.5 1019,-86.5 1019,-67.5 969,-67.5"/>
<text text-anchor="middle" x="994" y="-74.5" font-family="Helvetica,sans-Serif" font-size="10.00">cstdint</text>
</a>
</g>
</g>
<!-- Node7&#45;&gt;Node8 -->
<g id="edge7" class="edge">
<title>Node7&#45;&gt;Node8</title>
<path fill="none" stroke="midnightblue" d="M942.88,-123.4C953.02,-114.4 966.16,-102.72 976.59,-93.47"/>
<polygon fill="midnightblue" stroke="midnightblue" points="979.1,-95.92 984.25,-86.66 974.45,-90.68 979.1,-95.92"/>
</g>
<!-- Node9&#45;&gt;Node6 -->
<g id="edge11" class="edge">
<title>Node9&#45;&gt;Node6</title>
<path fill="none" stroke="midnightblue" d="M633.3,-124.59C692.35,-113.75 775.63,-98.45 830.44,-88.39"/>
<polygon fill="midnightblue" stroke="midnightblue" points="831.12,-91.82 840.33,-86.57 829.86,-84.93 831.12,-91.82"/>
</g>
<!-- Node10 -->
<g id="node10" class="node">
<title>Node10</title>
<g id="a_node10"><a xlink:title=" ">
<polygon fill="white" stroke="#bfbfbf" points="706.5,-67.5 706.5,-86.5 805.5,-86.5 805.5,-67.5 706.5,-67.5"/>
<text text-anchor="middle" x="756" y="-74.5" font-family="Helvetica,sans-Serif" font-size="10.00">boost/thread.hpp</text>
</a>
</g>
</g>
<!-- Node9&#45;&gt;Node10 -->
<g id="edge9" class="edge">
<title>Node9&#45;&gt;Node10</title>
<path fill="none" stroke="midnightblue" d="M608.74,-123.4C642.23,-113.07 687.13,-99.23 718.52,-89.56"/>
<polygon fill="midnightblue" stroke="midnightblue" points="719.67,-92.86 728.2,-86.57 717.61,-86.17 719.67,-92.86"/>
</g>
<!-- Node11 -->
<g id="node11" class="node">
<title>Node11</title>
<g id="a_node11"><a xlink:title=" ">
<polygon fill="white" stroke="#bfbfbf" points="379,-6 379,-25 493,-25 493,-6 379,-6"/>
<text text-anchor="middle" x="436" y="-13" font-family="Helvetica,sans-Serif" font-size="10.00">vsomeip/export.hpp</text>
</a>
</g>
</g>
<!-- Node9&#45;&gt;Node11 -->
<g id="edge10" class="edge">
<title>Node9&#45;&gt;Node11</title>
<path fill="none" stroke="midnightblue" d="M547.93,-123.14C523.97,-100.31 477.34,-55.88 452.5,-32.22"/>
<polygon fill="midnightblue" stroke="midnightblue" points="454.63,-29.42 444.98,-25.05 449.8,-34.48 454.63,-29.42"/>
</g>
<!-- Node12 -->
<g id="node12" class="node">
<title>Node12</title>
<g id="a_node12"><a xlink:href="message__header__impl_8hpp.html" target="_top" xlink:title=" ">
<polygon fill="white" stroke="black" points="540,-67.5 540,-86.5 688,-86.5 688,-67.5 540,-67.5"/>
<text text-anchor="middle" x="614" y="-74.5" font-family="Helvetica,sans-Serif" font-size="10.00">message_header_impl.hpp</text>
</a>
</g>
</g>
<!-- Node9&#45;&gt;Node12 -->
<g id="edge12" class="edge">
<title>Node9&#45;&gt;Node12</title>
<path fill="none" stroke="midnightblue" d="M575.09,-123.4C582.57,-114.66 592.22,-103.41 600.03,-94.3"/>
<polygon fill="midnightblue" stroke="midnightblue" points="602.73,-96.53 606.58,-86.66 597.41,-91.97 602.73,-96.53"/>
</g>
<!-- Node12&#45;&gt;Node11 -->
<g id="edge13" class="edge">
<title>Node12&#45;&gt;Node11</title>
<path fill="none" stroke="midnightblue" d="M588.5,-67.48C557.7,-57.18 505.73,-39.81 471.15,-28.25"/>
<polygon fill="midnightblue" stroke="midnightblue" points="472.05,-24.86 461.46,-25.01 469.83,-31.5 472.05,-24.86"/>
</g>
<!-- Node13 -->
<g id="node13" class="node">
<title>Node13</title>
<g id="a_node13"><a xlink:title=" ">
<polygon fill="white" stroke="#bfbfbf" points="511.5,-6 511.5,-25 670.5,-25 670.5,-6 511.5,-6"/>
<text text-anchor="middle" x="591" y="-13" font-family="Helvetica,sans-Serif" font-size="10.00">vsomeip/primitive_types.hpp</text>
</a>
</g>
</g>
<!-- Node12&#45;&gt;Node13 -->
<g id="edge14" class="edge">
<title>Node12&#45;&gt;Node13</title>
<path fill="none" stroke="midnightblue" d="M610.7,-67.48C607.39,-58.9 602.18,-45.43 597.95,-34.48"/>
<polygon fill="midnightblue" stroke="midnightblue" points="601.16,-33.07 594.29,-25.01 594.63,-35.6 601.16,-33.07"/>
</g>
<!-- Node14 -->
<g id="node14" class="node">
<title>Node14</title>
<g id="a_node14"><a xlink:title=" ">
<polygon fill="white" stroke="#bfbfbf" points="688,-0.5 688,-30.5 812,-30.5 812,-0.5 688,-0.5"/>
<text text-anchor="start" x="696" y="-18.5" font-family="Helvetica,sans-Serif" font-size="10.00">vsomeip/enumeration</text>
<text text-anchor="middle" x="750" y="-7.5" font-family="Helvetica,sans-Serif" font-size="10.00">_types.hpp</text>
</a>
</g>
</g>
<!-- Node12&#45;&gt;Node14 -->
<g id="edge15" class="edge">
<title>Node12&#45;&gt;Node14</title>
<path fill="none" stroke="midnightblue" d="M633.49,-67.48C653.02,-58.93 683.71,-45.5 708.69,-34.57"/>
<polygon fill="midnightblue" stroke="midnightblue" points="710.19,-37.74 717.95,-30.52 707.38,-31.32 710.19,-37.74"/>
</g>
<!-- Node15 -->
<g id="node15" class="node">
<title>Node15</title>
<g id="a_node15"><a xlink:title=" ">
<polygon fill="white" stroke="#bfbfbf" points="830.5,-6 830.5,-25 1009.5,-25 1009.5,-6 830.5,-6"/>
<text text-anchor="middle" x="920" y="-13" font-family="Helvetica,sans-Serif" font-size="10.00">vsomeip/internal/serializable.hpp</text>
</a>
</g>
</g>
<!-- Node12&#45;&gt;Node15 -->
<g id="edge16" class="edge">
<title>Node12&#45;&gt;Node15</title>
<path fill="none" stroke="midnightblue" d="M657.84,-67.48C712.83,-56.78 807.07,-38.46 866.32,-26.94"/>
<polygon fill="midnightblue" stroke="midnightblue" points="867.09,-30.35 876.24,-25.01 865.75,-23.48 867.09,-30.35"/>
</g>
<!-- Node16&#45;&gt;Node2 -->
<g id="edge20" class="edge">
<title>Node16&#45;&gt;Node2</title>
<path fill="none" stroke="midnightblue" d="M232.79,-124.39C186.69,-115.18 123.93,-102.19 60.06,-87.16"/>
<polygon fill="midnightblue" stroke="midnightblue" points="60.75,-83.73 50.21,-84.83 59.14,-90.54 60.75,-83.73"/>
</g>
<!-- Node16&#45;&gt;Node3 -->
<g id="edge19" class="edge">
<title>Node16&#45;&gt;Node3</title>
<path fill="none" stroke="midnightblue" d="M252.15,-123.47C216.67,-113.08 168.91,-99.08 135.8,-89.37"/>
<polygon fill="midnightblue" stroke="midnightblue" points="136.6,-85.96 126.02,-86.51 134.63,-92.68 136.6,-85.96"/>
</g>
<!-- Node16&#45;&gt;Node4 -->
<g id="edge21" class="edge">
<title>Node16&#45;&gt;Node4</title>
<path fill="none" stroke="midnightblue" d="M268.72,-123.4C246.77,-113.51 217.66,-100.38 196.38,-90.79"/>
<polygon fill="midnightblue" stroke="midnightblue" points="197.76,-87.58 187.21,-86.66 194.89,-93.96 197.76,-87.58"/>
</g>
<!-- Node16&#45;&gt;Node11 -->
<g id="edge24" class="edge">
<title>Node16&#45;&gt;Node11</title>
<path fill="none" stroke="midnightblue" d="M358.22,-123.42C379,-115.76 400.97,-104.2 416,-87 428.53,-72.66 433.25,-50.99 435,-35.46"/>
<polygon fill="midnightblue" stroke="midnightblue" points="438.49,-35.69 435.82,-25.43 431.52,-35.11 438.49,-35.69"/>
</g>
<!-- Node16&#45;&gt;Node13 -->
<g id="edge23" class="edge">
<title>Node16&#45;&gt;Node13</title>
<path fill="none" stroke="midnightblue" d="M340.16,-123.44C367.4,-113.69 404.1,-100.16 436,-87 481.37,-68.28 533.09,-44.19 563.84,-29.57"/>
<polygon fill="midnightblue" stroke="midnightblue" points="565.53,-32.64 573.05,-25.17 562.52,-26.32 565.53,-32.64"/>
</g>
<!-- Node17 -->
<g id="node17" class="node">
<title>Node17</title>
<g id="a_node17"><a xlink:title=" ">
<polygon fill="white" stroke="#bfbfbf" points="210,-67.5 210,-86.5 248,-86.5 248,-67.5 210,-67.5"/>
<text text-anchor="middle" x="229" y="-74.5" font-family="Helvetica,sans-Serif" font-size="10.00">map</text>
</a>
</g>
</g>
<!-- Node16&#45;&gt;Node17 -->
<g id="edge18" class="edge">
<title>Node16&#45;&gt;Node17</title>
<path fill="none" stroke="midnightblue" d="M283.17,-123.4C272.33,-114.31 258.22,-102.49 247.13,-93.19"/>
<polygon fill="midnightblue" stroke="midnightblue" points="249.24,-90.4 239.33,-86.66 244.75,-95.76 249.24,-90.4"/>
</g>
<!-- Node18 -->
<g id="node18" class="node">
<title>Node18</title>
<g id="a_node18"><a xlink:title=" ">
<polygon fill="white" stroke="#bfbfbf" points="266.5,-67.5 266.5,-86.5 407.5,-86.5 407.5,-67.5 266.5,-67.5"/>
<text text-anchor="middle" x="337" y="-74.5" font-family="Helvetica,sans-Serif" font-size="10.00">boost/asio/ip/address.hpp</text>
</a>
</g>
</g>
<!-- Node16&#45;&gt;Node18 -->
<g id="edge22" class="edge">
<title>Node16&#45;&gt;Node18</title>
<path fill="none" stroke="midnightblue" d="M308.77,-123.4C313.98,-115.02 320.63,-104.33 326.17,-95.42"/>
<polygon fill="midnightblue" stroke="midnightblue" points="329.31,-97 331.62,-86.66 323.36,-93.3 329.31,-97"/>
</g>
</g>
</svg>
