<?xml version="1.0" encoding="UTF-8" standalone="no"?>
<!DOCTYPE svg PUBLIC "-//W3C//DTD SVG 1.1//EN"
 "http://www.w3.org/Graphics/SVG/1.1/DTD/svg11.dtd">
<!-- Generated by graphviz version 2.43.0 (0)
 -->
<!-- Title: /home/kali/projects/vsomeip/implementation/routing/include/serviceinfo.hpp Pages: 1 -->
<svg width="1143pt" height="317pt"
 viewBox="0.00 0.00 1143.00 317.00" xmlns="http://www.w3.org/2000/svg" xmlns:xlink="http://www.w3.org/1999/xlink">
<g id="graph0" class="graph" transform="scale(1 1) rotate(0) translate(4 313)">
<title>/home/kali/projects/vsomeip/implementation/routing/include/serviceinfo.hpp</title>
<polygon fill="white" stroke="transparent" points="-4,4 -4,-313 1139,-313 1139,4 -4,4"/>
<!-- Node1 -->
<g id="node1" class="node">
<title>Node1</title>
<g id="a_node1"><a xlink:title=" ">
<polygon fill="#bfbfbf" stroke="black" points="745.5,-267.5 745.5,-308.5 915.5,-308.5 915.5,-267.5 745.5,-267.5"/>
<text text-anchor="start" x="753.5" y="-296.5" font-family="Helvetica,sans-Serif" font-size="10.00">/home/kali/projects</text>
<text text-anchor="start" x="753.5" y="-285.5" font-family="Helvetica,sans-Serif" font-size="10.00">/vsomeip/implementation</text>
<text text-anchor="middle" x="830.5" y="-274.5" font-family="Helvetica,sans-Serif" font-size="10.00">/routing/include/serviceinfo.hpp</text>
</a>
</g>
</g>
<!-- Node2 -->
<g id="node2" class="node">
<title>Node2</title>
<g id="a_node2"><a xlink:href="routing__manager__base_8hpp.html" target="_top" xlink:title=" ">
<polygon fill="white" stroke="black" points="384,-178.5 384,-230.5 527,-230.5 527,-178.5 384,-178.5"/>
<text text-anchor="start" x="392" y="-218.5" font-family="Helvetica,sans-Serif" font-size="10.00">/home/kali/projects</text>
<text text-anchor="start" x="392" y="-207.5" font-family="Helvetica,sans-Serif" font-size="10.00">/vsomeip/implementation</text>
<text text-anchor="start" x="392" y="-196.5" font-family="Helvetica,sans-Serif" font-size="10.00">/routing/include/routing</text>
<text text-anchor="middle" x="455.5" y="-185.5" font-family="Helvetica,sans-Serif" font-size="10.00">_manager_base.hpp</text>
</a>
</g>
</g>
<!-- Node1&#45;&gt;Node2 -->
<g id="edge1" class="edge">
<title>Node1&#45;&gt;Node2</title>
<path fill="none" stroke="midnightblue" d="M735.58,-266.37C670.75,-252.28 586.2,-233.91 527.02,-221.04"/>
<polygon fill="midnightblue" stroke="midnightblue" points="734.89,-269.8 745.41,-268.51 736.38,-262.96 734.89,-269.8"/>
</g>
<!-- Node6 -->
<g id="node6" class="node">
<title>Node6</title>
<g id="a_node6"><a xlink:href="routing__manager__impl_8cpp.html" target="_top" xlink:title=" ">
<polygon fill="white" stroke="black" points="604.5,-0.5 604.5,-52.5 762.5,-52.5 762.5,-0.5 604.5,-0.5"/>
<text text-anchor="start" x="612.5" y="-40.5" font-family="Helvetica,sans-Serif" font-size="10.00">/home/kali/projects</text>
<text text-anchor="start" x="612.5" y="-29.5" font-family="Helvetica,sans-Serif" font-size="10.00">/vsomeip/implementation</text>
<text text-anchor="start" x="612.5" y="-18.5" font-family="Helvetica,sans-Serif" font-size="10.00">/routing/src/routing_manager</text>
<text text-anchor="middle" x="683.5" y="-7.5" font-family="Helvetica,sans-Serif" font-size="10.00">_impl.cpp</text>
</a>
</g>
</g>
<!-- Node1&#45;&gt;Node6 -->
<g id="edge12" class="edge">
<title>Node1&#45;&gt;Node6</title>
<path fill="none" stroke="midnightblue" d="M782.51,-261.95C770.02,-253.52 757.54,-243.13 748.5,-231 707.39,-175.83 691.73,-93.77 686.22,-52.75"/>
<polygon fill="midnightblue" stroke="midnightblue" points="780.81,-265.02 791.12,-267.46 784.59,-259.12 780.81,-265.02"/>
</g>
<!-- Node11 -->
<g id="node11" class="node">
<title>Node11</title>
<g id="a_node11"><a xlink:href="serviceinfo_8cpp.html" target="_top" xlink:title=" ">
<polygon fill="white" stroke="black" points="986,-184 986,-225 1135,-225 1135,-184 986,-184"/>
<text text-anchor="start" x="994" y="-213" font-family="Helvetica,sans-Serif" font-size="10.00">/home/kali/projects</text>
<text text-anchor="start" x="994" y="-202" font-family="Helvetica,sans-Serif" font-size="10.00">/vsomeip/implementation</text>
<text text-anchor="middle" x="1060.5" y="-191" font-family="Helvetica,sans-Serif" font-size="10.00">/routing/src/serviceinfo.cpp</text>
</a>
</g>
</g>
<!-- Node1&#45;&gt;Node11 -->
<g id="edge13" class="edge">
<title>Node1&#45;&gt;Node11</title>
<path fill="none" stroke="midnightblue" d="M895.17,-264.08C929.92,-251.77 972.31,-236.75 1005.46,-225"/>
<polygon fill="midnightblue" stroke="midnightblue" points="893.85,-260.84 885.59,-267.48 896.19,-267.44 893.85,-260.84"/>
</g>
<!-- Node12 -->
<g id="node12" class="node">
<title>Node12</title>
<g id="a_node12"><a xlink:href="service__discovery_8hpp.html" target="_top" xlink:title=" ">
<polygon fill="white" stroke="black" points="757.5,-178.5 757.5,-230.5 903.5,-230.5 903.5,-178.5 757.5,-178.5"/>
<text text-anchor="start" x="765.5" y="-218.5" font-family="Helvetica,sans-Serif" font-size="10.00">/home/kali/projects</text>
<text text-anchor="start" x="765.5" y="-207.5" font-family="Helvetica,sans-Serif" font-size="10.00">/vsomeip/implementation</text>
<text text-anchor="start" x="765.5" y="-196.5" font-family="Helvetica,sans-Serif" font-size="10.00">/service_discovery/include</text>
<text text-anchor="middle" x="830.5" y="-185.5" font-family="Helvetica,sans-Serif" font-size="10.00">/service_discovery.hpp</text>
</a>
</g>
</g>
<!-- Node1&#45;&gt;Node12 -->
<g id="edge14" class="edge">
<title>Node1&#45;&gt;Node12</title>
<path fill="none" stroke="midnightblue" d="M830.5,-257.12C830.5,-248.41 830.5,-238.99 830.5,-230.61"/>
<polygon fill="midnightblue" stroke="midnightblue" points="827,-257.27 830.5,-267.27 834,-257.27 827,-257.27"/>
</g>
<!-- Node15 -->
<g id="node15" class="node">
<title>Node15</title>
<g id="a_node15"><a xlink:href="service__discovery__impl_8cpp.html" target="_top" xlink:title=" ">
<polygon fill="white" stroke="black" points="942,-0.5 942,-52.5 1097,-52.5 1097,-0.5 942,-0.5"/>
<text text-anchor="start" x="950" y="-40.5" font-family="Helvetica,sans-Serif" font-size="10.00">/home/kali/projects</text>
<text text-anchor="start" x="950" y="-29.5" font-family="Helvetica,sans-Serif" font-size="10.00">/vsomeip/implementation</text>
<text text-anchor="start" x="950" y="-18.5" font-family="Helvetica,sans-Serif" font-size="10.00">/service_discovery/src</text>
<text text-anchor="middle" x="1019.5" y="-7.5" font-family="Helvetica,sans-Serif" font-size="10.00">/service_discovery_impl.cpp</text>
</a>
</g>
</g>
<!-- Node1&#45;&gt;Node15 -->
<g id="edge19" class="edge">
<title>Node1&#45;&gt;Node15</title>
<path fill="none" stroke="midnightblue" d="M875.4,-262.04C888.43,-253.38 901.96,-242.83 912.5,-231 961.76,-175.72 995.81,-93.7 1010.83,-52.72"/>
<polygon fill="midnightblue" stroke="midnightblue" points="873.48,-259.12 866.95,-267.46 877.26,-265.01 873.48,-259.12"/>
</g>
<!-- Node3 -->
<g id="node3" class="node">
<title>Node3</title>
<g id="a_node3"><a xlink:href="endpoint__manager__base_8cpp.html" target="_top" xlink:title=" ">
<polygon fill="white" stroke="black" points="0,-89.5 0,-141.5 143,-141.5 143,-89.5 0,-89.5"/>
<text text-anchor="start" x="8" y="-129.5" font-family="Helvetica,sans-Serif" font-size="10.00">/home/kali/projects</text>
<text text-anchor="start" x="8" y="-118.5" font-family="Helvetica,sans-Serif" font-size="10.00">/vsomeip/implementation</text>
<text text-anchor="start" x="8" y="-107.5" font-family="Helvetica,sans-Serif" font-size="10.00">/endpoints/src/endpoint</text>
<text text-anchor="middle" x="71.5" y="-96.5" font-family="Helvetica,sans-Serif" font-size="10.00">_manager_base.cpp</text>
</a>
</g>
</g>
<!-- Node2&#45;&gt;Node3 -->
<g id="edge2" class="edge">
<title>Node2&#45;&gt;Node3</title>
<path fill="none" stroke="midnightblue" d="M373.71,-189.45C312.2,-178.29 226.05,-161.36 151.5,-142 148.82,-141.3 146.1,-140.57 143.35,-139.81"/>
<polygon fill="midnightblue" stroke="midnightblue" points="373.28,-192.93 383.75,-191.26 374.53,-186.04 373.28,-192.93"/>
</g>
<!-- Node4 -->
<g id="node4" class="node">
<title>Node4</title>
<g id="a_node4"><a xlink:href="endpoint__manager__impl_8cpp.html" target="_top" xlink:title=" ">
<polygon fill="white" stroke="black" points="443,-0.5 443,-52.5 586,-52.5 586,-0.5 443,-0.5"/>
<text text-anchor="start" x="451" y="-40.5" font-family="Helvetica,sans-Serif" font-size="10.00">/home/kali/projects</text>
<text text-anchor="start" x="451" y="-29.5" font-family="Helvetica,sans-Serif" font-size="10.00">/vsomeip/implementation</text>
<text text-anchor="start" x="451" y="-18.5" font-family="Helvetica,sans-Serif" font-size="10.00">/endpoints/src/endpoint</text>
<text text-anchor="middle" x="514.5" y="-7.5" font-family="Helvetica,sans-Serif" font-size="10.00">_manager_impl.cpp</text>
</a>
</g>
</g>
<!-- Node2&#45;&gt;Node4 -->
<g id="edge3" class="edge">
<title>Node2&#45;&gt;Node4</title>
<path fill="none" stroke="midnightblue" d="M476.58,-169.51C481.35,-160.78 486.02,-151.24 489.5,-142 500.68,-112.29 507.52,-76.27 511.15,-52.67"/>
<polygon fill="midnightblue" stroke="midnightblue" points="473.5,-167.84 471.62,-178.26 479.6,-171.29 473.5,-167.84"/>
</g>
<!-- Node5 -->
<g id="node5" class="node">
<title>Node5</title>
<g id="a_node5"><a xlink:href="routing__manager__impl_8hpp.html" target="_top" xlink:title=" ">
<polygon fill="white" stroke="black" points="537,-89.5 537,-141.5 680,-141.5 680,-89.5 537,-89.5"/>
<text text-anchor="start" x="545" y="-129.5" font-family="Helvetica,sans-Serif" font-size="10.00">/home/kali/projects</text>
<text text-anchor="start" x="545" y="-118.5" font-family="Helvetica,sans-Serif" font-size="10.00">/vsomeip/implementation</text>
<text text-anchor="start" x="545" y="-107.5" font-family="Helvetica,sans-Serif" font-size="10.00">/routing/include/routing</text>
<text text-anchor="middle" x="608.5" y="-96.5" font-family="Helvetica,sans-Serif" font-size="10.00">_manager_impl.hpp</text>
</a>
</g>
</g>
<!-- Node2&#45;&gt;Node5 -->
<g id="edge4" class="edge">
<title>Node2&#45;&gt;Node5</title>
<path fill="none" stroke="midnightblue" d="M508.52,-173.35C526.73,-163 546.91,-151.52 564.35,-141.61"/>
<polygon fill="midnightblue" stroke="midnightblue" points="506.72,-170.35 499.75,-178.34 510.18,-176.44 506.72,-170.35"/>
</g>
<!-- Node8 -->
<g id="node8" class="node">
<title>Node8</title>
<g id="a_node8"><a xlink:href="routing__manager__proxy_8hpp.html" target="_top" xlink:title=" ">
<polygon fill="white" stroke="black" points="161,-89.5 161,-141.5 304,-141.5 304,-89.5 161,-89.5"/>
<text text-anchor="start" x="169" y="-129.5" font-family="Helvetica,sans-Serif" font-size="10.00">/home/kali/projects</text>
<text text-anchor="start" x="169" y="-118.5" font-family="Helvetica,sans-Serif" font-size="10.00">/vsomeip/implementation</text>
<text text-anchor="start" x="169" y="-107.5" font-family="Helvetica,sans-Serif" font-size="10.00">/routing/include/routing</text>
<text text-anchor="middle" x="232.5" y="-96.5" font-family="Helvetica,sans-Serif" font-size="10.00">_manager_proxy.hpp</text>
</a>
</g>
</g>
<!-- Node2&#45;&gt;Node8 -->
<g id="edge8" class="edge">
<title>Node2&#45;&gt;Node8</title>
<path fill="none" stroke="midnightblue" d="M381.72,-174.72C354.21,-163.98 323.21,-151.89 296.63,-141.52"/>
<polygon fill="midnightblue" stroke="midnightblue" points="380.71,-178.08 391.3,-178.45 383.25,-171.56 380.71,-178.08"/>
</g>
<!-- Node10 -->
<g id="node10" class="node">
<title>Node10</title>
<g id="a_node10"><a xlink:href="routing__manager__base_8cpp.html" target="_top" xlink:title=" ">
<polygon fill="white" stroke="black" points="322.5,-89.5 322.5,-141.5 480.5,-141.5 480.5,-89.5 322.5,-89.5"/>
<text text-anchor="start" x="330.5" y="-129.5" font-family="Helvetica,sans-Serif" font-size="10.00">/home/kali/projects</text>
<text text-anchor="start" x="330.5" y="-118.5" font-family="Helvetica,sans-Serif" font-size="10.00">/vsomeip/implementation</text>
<text text-anchor="start" x="330.5" y="-107.5" font-family="Helvetica,sans-Serif" font-size="10.00">/routing/src/routing_manager</text>
<text text-anchor="middle" x="401.5" y="-96.5" font-family="Helvetica,sans-Serif" font-size="10.00">_base.cpp</text>
</a>
</g>
</g>
<!-- Node2&#45;&gt;Node10 -->
<g id="edge11" class="edge">
<title>Node2&#45;&gt;Node10</title>
<path fill="none" stroke="midnightblue" d="M434.48,-169.64C428.69,-160.31 422.51,-150.35 417.08,-141.61"/>
<polygon fill="midnightblue" stroke="midnightblue" points="431.63,-171.69 439.88,-178.34 437.58,-167.99 431.63,-171.69"/>
</g>
<!-- Node5&#45;&gt;Node4 -->
<g id="edge5" class="edge">
<title>Node5&#45;&gt;Node4</title>
<path fill="none" stroke="midnightblue" d="M573.78,-82.36C563.17,-72.54 551.66,-61.89 541.63,-52.61"/>
<polygon fill="midnightblue" stroke="midnightblue" points="571.59,-85.11 581.31,-89.34 576.35,-79.97 571.59,-85.11"/>
</g>
<!-- Node5&#45;&gt;Node6 -->
<g id="edge6" class="edge">
<title>Node5&#45;&gt;Node6</title>
<path fill="none" stroke="midnightblue" d="M636.95,-81.5C645.2,-71.92 654.09,-61.62 661.86,-52.61"/>
<polygon fill="midnightblue" stroke="midnightblue" points="634.07,-79.48 630.19,-89.34 639.37,-84.05 634.07,-79.48"/>
</g>
<!-- Node7 -->
<g id="node7" class="node">
<title>Node7</title>
<g id="a_node7"><a xlink:href="runtime_2src_2application__impl_8cpp.html" target="_top" xlink:title=" ">
<polygon fill="white" stroke="black" points="282,-0.5 282,-52.5 425,-52.5 425,-0.5 282,-0.5"/>
<text text-anchor="start" x="290" y="-40.5" font-family="Helvetica,sans-Serif" font-size="10.00">/home/kali/projects</text>
<text text-anchor="start" x="290" y="-29.5" font-family="Helvetica,sans-Serif" font-size="10.00">/vsomeip/implementation</text>
<text text-anchor="start" x="290" y="-18.5" font-family="Helvetica,sans-Serif" font-size="10.00">/runtime/src/application</text>
<text text-anchor="middle" x="353.5" y="-7.5" font-family="Helvetica,sans-Serif" font-size="10.00">_impl.cpp</text>
</a>
</g>
</g>
<!-- Node5&#45;&gt;Node7 -->
<g id="edge7" class="edge">
<title>Node5&#45;&gt;Node7</title>
<path fill="none" stroke="midnightblue" d="M527.22,-86.77C494.41,-75.58 456.88,-62.77 425.11,-51.93"/>
<polygon fill="midnightblue" stroke="midnightblue" points="526.2,-90.12 536.79,-90.03 528.46,-83.49 526.2,-90.12"/>
</g>
<!-- Node8&#45;&gt;Node7 -->
<g id="edge10" class="edge">
<title>Node8&#45;&gt;Node7</title>
<path fill="none" stroke="midnightblue" d="M276.01,-83.22C289.99,-73.16 305.29,-62.16 318.58,-52.61"/>
<polygon fill="midnightblue" stroke="midnightblue" points="273.57,-80.66 267.5,-89.34 277.66,-86.34 273.57,-80.66"/>
</g>
<!-- Node9 -->
<g id="node9" class="node">
<title>Node9</title>
<g id="a_node9"><a xlink:href="routing__manager__proxy_8cpp.html" target="_top" xlink:title=" ">
<polygon fill="white" stroke="black" points="105.5,-0.5 105.5,-52.5 263.5,-52.5 263.5,-0.5 105.5,-0.5"/>
<text text-anchor="start" x="113.5" y="-40.5" font-family="Helvetica,sans-Serif" font-size="10.00">/home/kali/projects</text>
<text text-anchor="start" x="113.5" y="-29.5" font-family="Helvetica,sans-Serif" font-size="10.00">/vsomeip/implementation</text>
<text text-anchor="start" x="113.5" y="-18.5" font-family="Helvetica,sans-Serif" font-size="10.00">/routing/src/routing_manager</text>
<text text-anchor="middle" x="184.5" y="-7.5" font-family="Helvetica,sans-Serif" font-size="10.00">_proxy.cpp</text>
</a>
</g>
</g>
<!-- Node8&#45;&gt;Node9 -->
<g id="edge9" class="edge">
<title>Node8&#45;&gt;Node9</title>
<path fill="none" stroke="midnightblue" d="M213.66,-80.35C208.56,-71.1 203.13,-61.26 198.35,-52.61"/>
<polygon fill="midnightblue" stroke="midnightblue" points="210.72,-82.27 218.62,-89.34 216.85,-78.89 210.72,-82.27"/>
</g>
<!-- Node12&#45;&gt;Node6 -->
<g id="edge15" class="edge">
<title>Node12&#45;&gt;Node6</title>
<path fill="none" stroke="midnightblue" d="M794.83,-171.38C785.28,-162.22 775.2,-152 766.5,-142 741.19,-112.93 715.71,-76.45 699.78,-52.58"/>
<polygon fill="midnightblue" stroke="midnightblue" points="792.67,-174.16 802.34,-178.49 797.48,-169.07 792.67,-174.16"/>
</g>
<!-- Node13 -->
<g id="node13" class="node">
<title>Node13</title>
<g id="a_node13"><a xlink:href="service__discovery__impl_8hpp.html" target="_top" xlink:title=" ">
<polygon fill="white" stroke="black" points="775,-89.5 775,-141.5 930,-141.5 930,-89.5 775,-89.5"/>
<text text-anchor="start" x="783" y="-129.5" font-family="Helvetica,sans-Serif" font-size="10.00">/home/kali/projects</text>
<text text-anchor="start" x="783" y="-118.5" font-family="Helvetica,sans-Serif" font-size="10.00">/vsomeip/implementation</text>
<text text-anchor="start" x="783" y="-107.5" font-family="Helvetica,sans-Serif" font-size="10.00">/service_discovery/include</text>
<text text-anchor="middle" x="852.5" y="-96.5" font-family="Helvetica,sans-Serif" font-size="10.00">/service_discovery_impl.hpp</text>
</a>
</g>
</g>
<!-- Node12&#45;&gt;Node13 -->
<g id="edge16" class="edge">
<title>Node12&#45;&gt;Node13</title>
<path fill="none" stroke="midnightblue" d="M839.36,-168.48C841.63,-159.49 844.03,-149.99 846.15,-141.61"/>
<polygon fill="midnightblue" stroke="midnightblue" points="835.92,-167.78 836.86,-178.34 842.71,-169.5 835.92,-167.78"/>
</g>
<!-- Node14 -->
<g id="node14" class="node">
<title>Node14</title>
<g id="a_node14"><a xlink:href="service__discovery_2src_2runtime__impl_8cpp.html" target="_top" xlink:title=" ">
<polygon fill="white" stroke="black" points="781,-0.5 781,-52.5 924,-52.5 924,-0.5 781,-0.5"/>
<text text-anchor="start" x="789" y="-40.5" font-family="Helvetica,sans-Serif" font-size="10.00">/home/kali/projects</text>
<text text-anchor="start" x="789" y="-29.5" font-family="Helvetica,sans-Serif" font-size="10.00">/vsomeip/implementation</text>
<text text-anchor="start" x="789" y="-18.5" font-family="Helvetica,sans-Serif" font-size="10.00">/service_discovery/src</text>
<text text-anchor="middle" x="852.5" y="-7.5" font-family="Helvetica,sans-Serif" font-size="10.00">/runtime_impl.cpp</text>
</a>
</g>
</g>
<!-- Node13&#45;&gt;Node14 -->
<g id="edge17" class="edge">
<title>Node13&#45;&gt;Node14</title>
<path fill="none" stroke="midnightblue" d="M852.5,-79.19C852.5,-70.28 852.5,-60.9 852.5,-52.61"/>
<polygon fill="midnightblue" stroke="midnightblue" points="849,-79.34 852.5,-89.34 856,-79.34 849,-79.34"/>
</g>
<!-- Node13&#45;&gt;Node15 -->
<g id="edge18" class="edge">
<title>Node13&#45;&gt;Node15</title>
<path fill="none" stroke="midnightblue" d="M909.83,-84.64C929.85,-74.2 952.1,-62.61 971.31,-52.61"/>
<polygon fill="midnightblue" stroke="midnightblue" points="908.05,-81.61 900.8,-89.34 911.29,-87.82 908.05,-81.61"/>
</g>
</g>
</svg>
