<?xml version="1.0" encoding="UTF-8" standalone="no"?>
<!DOCTYPE svg PUBLIC "-//W3C//DTD SVG 1.1//EN"
 "http://www.w3.org/Graphics/SVG/1.1/DTD/svg11.dtd">
<!-- Generated by graphviz version 2.43.0 (0)
 -->
<!-- Title: boost::asio::detail::reactive_socket_service_ext_local&lt; Protocol &gt;::implementation_type Pages: 1 -->
<svg width="418pt" height="63pt"
 viewBox="0.00 0.00 418.00 62.61" xmlns="http://www.w3.org/2000/svg" xmlns:xlink="http://www.w3.org/1999/xlink">
<g id="graph0" class="graph" transform="scale(1 1) rotate(0) translate(4 58.61)">
<title>boost::asio::detail::reactive_socket_service_ext_local&lt; Protocol &gt;::implementation_type</title>
<polygon fill="white" stroke="transparent" points="-4,4 -4,-58.61 414,-58.61 414,4 -4,4"/>
<!-- Node1 -->
<g id="node1" class="node">
<title>Node1</title>
<g id="a_node1"><a xlink:title=" ">
<polygon fill="#bfbfbf" stroke="black" points="270,-1.31 270,-53.31 410,-53.31 410,-1.31 270,-1.31"/>
<text text-anchor="start" x="278" y="-41.31" font-family="Helvetica,sans-Serif" font-size="10.00">boost::asio::detail</text>
<text text-anchor="start" x="278" y="-30.31" font-family="Helvetica,sans-Serif" font-size="10.00">::reactive_socket_service</text>
<text text-anchor="start" x="278" y="-19.31" font-family="Helvetica,sans-Serif" font-size="10.00">_ext_local&lt; Protocol &gt;::</text>
<text text-anchor="middle" x="340" y="-8.31" font-family="Helvetica,sans-Serif" font-size="10.00">implementation_type</text>
</a>
</g>
</g>
<!-- Node2 -->
<g id="node2" class="node">
<title>Node2</title>
<g id="a_node2"><a xlink:href="structboost_1_1asio_1_1detail_1_1reactive__socket__service__base__ext__local_1_1base__implementation__type.html" target="_top" xlink:title=" ">
<polygon fill="white" stroke="black" points="0,-6.81 0,-47.81 234,-47.81 234,-6.81 0,-6.81"/>
<text text-anchor="start" x="8" y="-35.81" font-family="Helvetica,sans-Serif" font-size="10.00">boost::asio::detail</text>
<text text-anchor="start" x="8" y="-24.81" font-family="Helvetica,sans-Serif" font-size="10.00">::reactive_socket_service</text>
<text text-anchor="middle" x="117" y="-13.81" font-family="Helvetica,sans-Serif" font-size="10.00">_base_ext_local::base_implementation_type</text>
</a>
</g>
</g>
<!-- Node2&#45;&gt;Node1 -->
<g id="edge1" class="edge">
<title>Node2&#45;&gt;Node1</title>
<path fill="none" stroke="midnightblue" d="M163.98,-4.9C194.62,0.06 235.46,1.01 269.98,-2.07"/>
<polygon fill="midnightblue" stroke="midnightblue" points="163.2,-1.49 154,-6.74 164.47,-8.37 163.2,-1.49"/>
</g>
<!-- Node2&#45;&gt;Node1 -->
<g id="edge2" class="edge">
<title>Node2&#45;&gt;Node1</title>
<path fill="none" stroke="midnightblue" d="M244.25,-13.93C252.95,-14.06 261.51,-14.31 269.72,-14.68"/>
<polygon fill="midnightblue" stroke="midnightblue" points="244.04,-10.43 234,-13.82 243.96,-17.43 244.04,-10.43"/>
</g>
<!-- Node2&#45;&gt;Node1 -->
<g id="edge3" class="edge">
<title>Node2&#45;&gt;Node1</title>
<path fill="none" stroke="midnightblue" d="M244.25,-27.31C252.95,-27.31 261.51,-27.31 269.72,-27.31"/>
<polygon fill="midnightblue" stroke="midnightblue" points="244,-23.81 234,-27.31 244,-30.81 244,-23.81"/>
</g>
<!-- Node2&#45;&gt;Node1 -->
<g id="edge4" class="edge">
<title>Node2&#45;&gt;Node1</title>
<path fill="none" stroke="midnightblue" d="M244.25,-40.68C252.95,-40.55 261.51,-40.3 269.72,-39.93"/>
<polygon fill="midnightblue" stroke="midnightblue" points="243.96,-37.19 234,-40.79 244.04,-44.19 243.96,-37.19"/>
</g>
<!-- Node2&#45;&gt;Node1 -->
<g id="edge5" class="edge">
<title>Node2&#45;&gt;Node1</title>
<path fill="none" stroke="midnightblue" d="M163.98,-49.71C194.62,-54.67 235.46,-55.62 269.98,-52.54"/>
<polygon fill="midnightblue" stroke="midnightblue" points="164.47,-46.24 154,-47.87 163.2,-53.12 164.47,-46.24"/>
</g>
</g>
</svg>
