<?xml version="1.0" encoding="UTF-8" standalone="no"?>
<!DOCTYPE svg PUBLIC "-//W3C//DTD SVG 1.1//EN"
 "http://www.w3.org/Graphics/SVG/1.1/DTD/svg11.dtd">
<!-- Generated by graphviz version 2.43.0 (0)
 -->
<!-- Title: boost::asio::detail::reactive_socket_service_base_ext::base_implementation_type Pages: 1 -->
<svg width="461pt" height="62pt"
 viewBox="0.00 0.00 461.00 62.22" xmlns="http://www.w3.org/2000/svg" xmlns:xlink="http://www.w3.org/1999/xlink">
<g id="graph0" class="graph" transform="scale(1 1) rotate(0) translate(4 58.22)">
<title>boost::asio::detail::reactive_socket_service_base_ext::base_implementation_type</title>
<polygon fill="white" stroke="transparent" points="-4,4 -4,-58.22 457,-58.22 457,4 -4,4"/>
<!-- Node1 -->
<g id="node1" class="node">
<title>Node1</title>
<g id="a_node1"><a xlink:title=" ">
<polygon fill="#bfbfbf" stroke="black" points="0,-6.61 0,-47.61 206,-47.61 206,-6.61 0,-6.61"/>
<text text-anchor="start" x="8" y="-35.61" font-family="Helvetica,sans-Serif" font-size="10.00">boost::asio::detail</text>
<text text-anchor="start" x="8" y="-24.61" font-family="Helvetica,sans-Serif" font-size="10.00">::reactive_socket_service</text>
<text text-anchor="middle" x="103" y="-13.61" font-family="Helvetica,sans-Serif" font-size="10.00">_base_ext::base_implementation_type</text>
</a>
</g>
</g>
<!-- Node2 -->
<g id="node2" class="node">
<title>Node2</title>
<g id="a_node2"><a xlink:href="structboost_1_1asio_1_1detail_1_1reactive__socket__service__ext_1_1implementation__type.html" target="_top" xlink:title=" ">
<polygon fill="white" stroke="black" points="242,-6.61 242,-47.61 453,-47.61 453,-6.61 242,-6.61"/>
<text text-anchor="start" x="250" y="-35.61" font-family="Helvetica,sans-Serif" font-size="10.00">boost::asio::detail</text>
<text text-anchor="start" x="250" y="-24.61" font-family="Helvetica,sans-Serif" font-size="10.00">::reactive_socket_service</text>
<text text-anchor="middle" x="347.5" y="-13.61" font-family="Helvetica,sans-Serif" font-size="10.00">_ext&lt; Protocol &gt;::implementation_type</text>
</a>
</g>
</g>
<!-- Node1&#45;&gt;Node2 -->
<g id="edge1" class="edge">
<title>Node1&#45;&gt;Node2</title>
<path fill="none" stroke="midnightblue" d="M153.16,-4.9C198.64,2.01 265.35,1.44 307.33,-6.61"/>
<polygon fill="midnightblue" stroke="midnightblue" points="152.5,-1.46 143.23,-6.6 153.68,-8.36 152.5,-1.46"/>
</g>
<!-- Node1&#45;&gt;Node2 -->
<g id="edge2" class="edge">
<title>Node1&#45;&gt;Node2</title>
<path fill="none" stroke="midnightblue" d="M216.4,-13.64C224.85,-13.58 233.36,-13.61 241.76,-13.72"/>
<polygon fill="midnightblue" stroke="midnightblue" points="216.1,-10.15 206.14,-13.76 216.18,-17.14 216.1,-10.15"/>
</g>
<!-- Node1&#45;&gt;Node2 -->
<g id="edge3" class="edge">
<title>Node1&#45;&gt;Node2</title>
<path fill="none" stroke="midnightblue" d="M216.4,-27.11C224.85,-27.11 233.36,-27.11 241.76,-27.11"/>
<polygon fill="midnightblue" stroke="midnightblue" points="216.14,-23.61 206.14,-27.11 216.14,-30.61 216.14,-23.61"/>
</g>
<!-- Node1&#45;&gt;Node2 -->
<g id="edge4" class="edge">
<title>Node1&#45;&gt;Node2</title>
<path fill="none" stroke="midnightblue" d="M216.4,-40.58C224.85,-40.64 233.36,-40.61 241.76,-40.5"/>
<polygon fill="midnightblue" stroke="midnightblue" points="216.18,-37.08 206.14,-40.46 216.1,-44.07 216.18,-37.08"/>
</g>
<!-- Node1&#45;&gt;Node2 -->
<g id="edge5" class="edge">
<title>Node1&#45;&gt;Node2</title>
<path fill="none" stroke="midnightblue" d="M153.16,-49.32C198.64,-56.23 265.35,-55.66 307.33,-47.61"/>
<polygon fill="midnightblue" stroke="midnightblue" points="153.68,-45.86 143.23,-47.62 152.5,-52.76 153.68,-45.86"/>
</g>
</g>
</svg>
