<?xml version="1.0" encoding="UTF-8" standalone="no"?>
<!DOCTYPE svg PUBLIC "-//W3C//DTD SVG 1.1//EN"
 "http://www.w3.org/Graphics/SVG/1.1/DTD/svg11.dtd">
<!-- Generated by graphviz version 2.43.0 (0)
 -->
<!-- Title: boost::asio::detail::reactive_socket_service_ext&lt; Protocol &gt;::implementation_type Pages: 1 -->
<svg width="219pt" height="128pt"
 viewBox="0.00 0.00 219.00 128.00" xmlns="http://www.w3.org/2000/svg" xmlns:xlink="http://www.w3.org/1999/xlink">
<g id="graph0" class="graph" transform="scale(1 1) rotate(0) translate(4 124)">
<title>boost::asio::detail::reactive_socket_service_ext&lt; Protocol &gt;::implementation_type</title>
<polygon fill="white" stroke="transparent" points="-4,4 -4,-124 215,-124 215,4 -4,4"/>
<!-- Node1 -->
<g id="node1" class="node">
<title>Node1</title>
<g id="a_node1"><a xlink:title=" ">
<polygon fill="#bfbfbf" stroke="black" points="0,-0.5 0,-41.5 211,-41.5 211,-0.5 0,-0.5"/>
<text text-anchor="start" x="8" y="-29.5" font-family="Helvetica,sans-Serif" font-size="10.00">boost::asio::detail</text>
<text text-anchor="start" x="8" y="-18.5" font-family="Helvetica,sans-Serif" font-size="10.00">::reactive_socket_service</text>
<text text-anchor="middle" x="105.5" y="-7.5" font-family="Helvetica,sans-Serif" font-size="10.00">_ext&lt; Protocol &gt;::implementation_type</text>
</a>
</g>
</g>
<!-- Node2 -->
<g id="node2" class="node">
<title>Node2</title>
<g id="a_node2"><a xlink:href="structboost_1_1asio_1_1detail_1_1reactive__socket__service__base__ext_1_1base__implementation__type.html" target="_top" xlink:title=" ">
<polygon fill="white" stroke="black" points="2.5,-78.5 2.5,-119.5 208.5,-119.5 208.5,-78.5 2.5,-78.5"/>
<text text-anchor="start" x="10.5" y="-107.5" font-family="Helvetica,sans-Serif" font-size="10.00">boost::asio::detail</text>
<text text-anchor="start" x="10.5" y="-96.5" font-family="Helvetica,sans-Serif" font-size="10.00">::reactive_socket_service</text>
<text text-anchor="middle" x="105.5" y="-85.5" font-family="Helvetica,sans-Serif" font-size="10.00">_base_ext::base_implementation_type</text>
</a>
</g>
</g>
<!-- Node2&#45;&gt;Node1 -->
<g id="edge1" class="edge">
<title>Node2&#45;&gt;Node1</title>
<path fill="none" stroke="midnightblue" d="M79.12,-68.59C77.79,-59.51 78.6,-49.74 81.57,-41.51"/>
<polygon fill="midnightblue" stroke="midnightblue" points="75.76,-69.56 81.55,-78.43 82.55,-67.88 75.76,-69.56"/>
</g>
<!-- Node2&#45;&gt;Node1 -->
<g id="edge2" class="edge">
<title>Node2&#45;&gt;Node1</title>
<path fill="none" stroke="midnightblue" d="M92.29,-68.3C91.65,-59.3 92.07,-49.65 93.54,-41.51"/>
<polygon fill="midnightblue" stroke="midnightblue" points="88.84,-68.92 93.52,-78.43 95.79,-68.08 88.84,-68.92"/>
</g>
<!-- Node2&#45;&gt;Node1 -->
<g id="edge3" class="edge">
<title>Node2&#45;&gt;Node1</title>
<path fill="none" stroke="midnightblue" d="M105.5,-68.3C105.5,-59.3 105.5,-49.65 105.5,-41.51"/>
<polygon fill="midnightblue" stroke="midnightblue" points="102,-68.43 105.5,-78.43 109,-68.43 102,-68.43"/>
</g>
<!-- Node2&#45;&gt;Node1 -->
<g id="edge4" class="edge">
<title>Node2&#45;&gt;Node1</title>
<path fill="none" stroke="midnightblue" d="M118.71,-68.3C119.35,-59.3 118.93,-49.65 117.46,-41.51"/>
<polygon fill="midnightblue" stroke="midnightblue" points="115.21,-68.08 117.48,-78.43 122.16,-68.92 115.21,-68.08"/>
</g>
<!-- Node2&#45;&gt;Node1 -->
<g id="edge5" class="edge">
<title>Node2&#45;&gt;Node1</title>
<path fill="none" stroke="midnightblue" d="M131.88,-68.59C133.21,-59.51 132.4,-49.74 129.43,-41.51"/>
<polygon fill="midnightblue" stroke="midnightblue" points="128.45,-67.88 129.45,-78.43 135.24,-69.56 128.45,-67.88"/>
</g>
</g>
</svg>
