<?xml version="1.0" encoding="UTF-8" standalone="no"?>
<!DOCTYPE svg PUBLIC "-//W3C//DTD SVG 1.1//EN"
 "http://www.w3.org/Graphics/SVG/1.1/DTD/svg11.dtd">
<!-- Generated by graphviz version 2.43.0 (0)
 -->
<!-- Title: /home/kali/projects/vsomeip/implementation/service_discovery/src/subscription.cpp Pages: 1 -->
<svg width="1060pt" height="184pt"
 viewBox="0.00 0.00 1060.00 184.00" xmlns="http://www.w3.org/2000/svg" xmlns:xlink="http://www.w3.org/1999/xlink">
<g id="graph0" class="graph" transform="scale(1 1) rotate(0) translate(4 180)">
<title>/home/kali/projects/vsomeip/implementation/service_discovery/src/subscription.cpp</title>
<polygon fill="white" stroke="transparent" points="-4,4 -4,-180 1056,-180 1056,4 -4,4"/>
<!-- Node1 -->
<g id="node1" class="node">
<title>Node1</title>
<g id="a_node1"><a xlink:title=" ">
<polygon fill="#bfbfbf" stroke="black" points="388.5,-123.5 388.5,-175.5 531.5,-175.5 531.5,-123.5 388.5,-123.5"/>
<text text-anchor="start" x="396.5" y="-163.5" font-family="Helvetica,sans-Serif" font-size="10.00">/home/kali/projects</text>
<text text-anchor="start" x="396.5" y="-152.5" font-family="Helvetica,sans-Serif" font-size="10.00">/vsomeip/implementation</text>
<text text-anchor="start" x="396.5" y="-141.5" font-family="Helvetica,sans-Serif" font-size="10.00">/service_discovery/src</text>
<text text-anchor="middle" x="460" y="-130.5" font-family="Helvetica,sans-Serif" font-size="10.00">/subscription.cpp</text>
</a>
</g>
</g>
<!-- Node2 -->
<g id="node2" class="node">
<title>Node2</title>
<g id="a_node2"><a xlink:href="subscription_8hpp.html" target="_top" xlink:title=" ">
<polygon fill="white" stroke="black" points="189,-67.5 189,-86.5 333,-86.5 333,-67.5 189,-67.5"/>
<text text-anchor="middle" x="261" y="-74.5" font-family="Helvetica,sans-Serif" font-size="10.00">../include/subscription.hpp</text>
</a>
</g>
</g>
<!-- Node1&#45;&gt;Node2 -->
<g id="edge1" class="edge">
<title>Node1&#45;&gt;Node2</title>
<path fill="none" stroke="midnightblue" d="M389.28,-123.45C357.13,-112.06 320.59,-99.11 294.76,-89.96"/>
<polygon fill="midnightblue" stroke="midnightblue" points="295.66,-86.57 285.07,-86.53 293.33,-93.17 295.66,-86.57"/>
</g>
<!-- Node9 -->
<g id="node9" class="node">
<title>Node9</title>
<g id="a_node9"><a xlink:href="logger_8hpp.html" target="_top" xlink:title=" ">
<polygon fill="white" stroke="black" points="618.5,-67.5 618.5,-86.5 771.5,-86.5 771.5,-67.5 618.5,-67.5"/>
<text text-anchor="middle" x="695" y="-74.5" font-family="Helvetica,sans-Serif" font-size="10.00">vsomeip/internal/logger.hpp</text>
</a>
</g>
</g>
<!-- Node1&#45;&gt;Node9 -->
<g id="edge8" class="edge">
<title>Node1&#45;&gt;Node9</title>
<path fill="none" stroke="midnightblue" d="M531.78,-126.96C572.89,-114.63 622.83,-99.65 656.56,-89.53"/>
<polygon fill="midnightblue" stroke="midnightblue" points="657.91,-92.78 666.48,-86.56 655.89,-86.08 657.91,-92.78"/>
</g>
<!-- Node3 -->
<g id="node3" class="node">
<title>Node3</title>
<g id="a_node3"><a xlink:title=" ">
<polygon fill="white" stroke="#bfbfbf" points="0,-6 0,-25 38,-25 38,-6 0,-6"/>
<text text-anchor="middle" x="19" y="-13" font-family="Helvetica,sans-Serif" font-size="10.00">map</text>
</a>
</g>
</g>
<!-- Node2&#45;&gt;Node3 -->
<g id="edge2" class="edge">
<title>Node2&#45;&gt;Node3</title>
<path fill="none" stroke="midnightblue" d="M198.44,-67.42C155.1,-60.38 96.53,-48.66 47,-31 45.75,-30.56 44.49,-30.07 43.23,-29.54"/>
<polygon fill="midnightblue" stroke="midnightblue" points="44.32,-26.19 33.78,-25.1 41.34,-32.52 44.32,-26.19"/>
</g>
<!-- Node4 -->
<g id="node4" class="node">
<title>Node4</title>
<g id="a_node4"><a xlink:title=" ">
<polygon fill="white" stroke="#bfbfbf" points="56,-6 56,-25 114,-25 114,-6 56,-6"/>
<text text-anchor="middle" x="85" y="-13" font-family="Helvetica,sans-Serif" font-size="10.00">memory</text>
</a>
</g>
</g>
<!-- Node2&#45;&gt;Node4 -->
<g id="edge3" class="edge">
<title>Node2&#45;&gt;Node4</title>
<path fill="none" stroke="midnightblue" d="M233.37,-67.43C205.42,-58.66 161.01,-44.44 123,-31 120.89,-30.25 118.72,-29.47 116.54,-28.67"/>
<polygon fill="midnightblue" stroke="midnightblue" points="117.63,-25.34 107.04,-25.12 115.18,-31.9 117.63,-25.34"/>
</g>
<!-- Node5 -->
<g id="node5" class="node">
<title>Node5</title>
<g id="a_node5"><a xlink:title=" ">
<polygon fill="white" stroke="#bfbfbf" points="500,-6 500,-25 548,-25 548,-6 500,-6"/>
<text text-anchor="middle" x="524" y="-13" font-family="Helvetica,sans-Serif" font-size="10.00">mutex</text>
</a>
</g>
</g>
<!-- Node2&#45;&gt;Node5 -->
<g id="edge4" class="edge">
<title>Node2&#45;&gt;Node5</title>
<path fill="none" stroke="midnightblue" d="M324.41,-67.45C371.13,-60.23 435.87,-48.27 491,-31 492.93,-30.4 494.89,-29.72 496.85,-28.98"/>
<polygon fill="midnightblue" stroke="midnightblue" points="498.53,-32.08 506.46,-25.06 495.88,-25.6 498.53,-32.08"/>
</g>
<!-- Node6 -->
<g id="node6" class="node">
<title>Node6</title>
<g id="a_node6"><a xlink:title=" ">
<polygon fill="white" stroke="#bfbfbf" points="132,-6 132,-25 164,-25 164,-6 132,-6"/>
<text text-anchor="middle" x="148" y="-13" font-family="Helvetica,sans-Serif" font-size="10.00">set</text>
</a>
</g>
</g>
<!-- Node2&#45;&gt;Node6 -->
<g id="edge5" class="edge">
<title>Node2&#45;&gt;Node6</title>
<path fill="none" stroke="midnightblue" d="M243.06,-67.42C224.94,-58.64 196.23,-44.42 172,-31 171.58,-30.77 171.17,-30.54 170.75,-30.3"/>
<polygon fill="midnightblue" stroke="midnightblue" points="172.26,-27.13 161.86,-25.11 168.73,-33.18 172.26,-27.13"/>
</g>
<!-- Node7 -->
<g id="node7" class="node">
<title>Node7</title>
<g id="a_node7"><a xlink:title=" ">
<polygon fill="white" stroke="#bfbfbf" points="181.5,-6 181.5,-25 340.5,-25 340.5,-6 181.5,-6"/>
<text text-anchor="middle" x="261" y="-13" font-family="Helvetica,sans-Serif" font-size="10.00">vsomeip/primitive_types.hpp</text>
</a>
</g>
</g>
<!-- Node2&#45;&gt;Node7 -->
<g id="edge6" class="edge">
<title>Node2&#45;&gt;Node7</title>
<path fill="none" stroke="midnightblue" d="M261,-67.48C261,-59.08 261,-45.98 261,-35.16"/>
<polygon fill="midnightblue" stroke="midnightblue" points="264.5,-35.01 261,-25.01 257.5,-35.01 264.5,-35.01"/>
</g>
<!-- Node8 -->
<g id="node8" class="node">
<title>Node8</title>
<g id="a_node8"><a xlink:title=" ">
<polygon fill="white" stroke="#bfbfbf" points="358,-0.5 358,-30.5 482,-30.5 482,-0.5 358,-0.5"/>
<text text-anchor="start" x="366" y="-18.5" font-family="Helvetica,sans-Serif" font-size="10.00">vsomeip/enumeration</text>
<text text-anchor="middle" x="420" y="-7.5" font-family="Helvetica,sans-Serif" font-size="10.00">_types.hpp</text>
</a>
</g>
</g>
<!-- Node2&#45;&gt;Node8 -->
<g id="edge7" class="edge">
<title>Node2&#45;&gt;Node8</title>
<path fill="none" stroke="midnightblue" d="M283.78,-67.48C306.93,-58.81 343.45,-45.15 372.86,-34.14"/>
<polygon fill="midnightblue" stroke="midnightblue" points="374.39,-37.31 382.53,-30.52 371.93,-30.75 374.39,-37.31"/>
</g>
<!-- Node9&#45;&gt;Node5 -->
<g id="edge11" class="edge">
<title>Node9&#45;&gt;Node5</title>
<path fill="none" stroke="midnightblue" d="M665.9,-67.43C637.77,-58.92 594.08,-45.15 557,-31 555.39,-30.39 553.75,-29.74 552.1,-29.07"/>
<polygon fill="midnightblue" stroke="midnightblue" points="553.29,-25.77 542.71,-25.11 550.57,-32.22 553.29,-25.77"/>
</g>
<!-- Node10 -->
<g id="node10" class="node">
<title>Node10</title>
<g id="a_node10"><a xlink:title=" ">
<polygon fill="white" stroke="#bfbfbf" points="566,-6 566,-25 616,-25 616,-6 566,-6"/>
<text text-anchor="middle" x="591" y="-13" font-family="Helvetica,sans-Serif" font-size="10.00">chrono</text>
</a>
</g>
</g>
<!-- Node9&#45;&gt;Node10 -->
<g id="edge9" class="edge">
<title>Node9&#45;&gt;Node10</title>
<path fill="none" stroke="midnightblue" d="M680.1,-67.48C663.03,-57.71 634.84,-41.58 614.74,-30.08"/>
<polygon fill="midnightblue" stroke="midnightblue" points="616.29,-26.94 605.87,-25.01 612.81,-33.01 616.29,-26.94"/>
</g>
<!-- Node11 -->
<g id="node11" class="node">
<title>Node11</title>
<g id="a_node11"><a xlink:title=" ">
<polygon fill="white" stroke="#bfbfbf" points="634,-6 634,-25 684,-25 684,-6 634,-6"/>
<text text-anchor="middle" x="659" y="-13" font-family="Helvetica,sans-Serif" font-size="10.00">cstdint</text>
</a>
</g>
</g>
<!-- Node9&#45;&gt;Node11 -->
<g id="edge10" class="edge">
<title>Node9&#45;&gt;Node11</title>
<path fill="none" stroke="midnightblue" d="M689.84,-67.48C684.55,-58.73 676.16,-44.87 669.47,-33.81"/>
<polygon fill="midnightblue" stroke="midnightblue" points="672.32,-31.75 664.15,-25.01 666.33,-35.38 672.32,-31.75"/>
</g>
<!-- Node12 -->
<g id="node12" class="node">
<title>Node12</title>
<g id="a_node12"><a xlink:title=" ">
<polygon fill="white" stroke="#bfbfbf" points="702.5,-6 702.5,-25 759.5,-25 759.5,-6 702.5,-6"/>
<text text-anchor="middle" x="731" y="-13" font-family="Helvetica,sans-Serif" font-size="10.00">ostream</text>
</a>
</g>
</g>
<!-- Node9&#45;&gt;Node12 -->
<g id="edge12" class="edge">
<title>Node9&#45;&gt;Node12</title>
<path fill="none" stroke="midnightblue" d="M700.16,-67.48C705.45,-58.73 713.84,-44.87 720.53,-33.81"/>
<polygon fill="midnightblue" stroke="midnightblue" points="723.67,-35.38 725.85,-25.01 717.68,-31.75 723.67,-35.38"/>
</g>
<!-- Node13 -->
<g id="node13" class="node">
<title>Node13</title>
<g id="a_node13"><a xlink:title=" ">
<polygon fill="white" stroke="#bfbfbf" points="778,-6 778,-25 834,-25 834,-6 778,-6"/>
<text text-anchor="middle" x="806" y="-13" font-family="Helvetica,sans-Serif" font-size="10.00">sstream</text>
</a>
</g>
</g>
<!-- Node9&#45;&gt;Node13 -->
<g id="edge13" class="edge">
<title>Node9&#45;&gt;Node13</title>
<path fill="none" stroke="midnightblue" d="M710.9,-67.48C729.28,-57.62 759.76,-41.29 781.24,-29.77"/>
<polygon fill="midnightblue" stroke="midnightblue" points="782.97,-32.82 790.13,-25.01 779.66,-26.65 782.97,-32.82"/>
</g>
<!-- Node14 -->
<g id="node14" class="node">
<title>Node14</title>
<g id="a_node14"><a xlink:title=" ">
<polygon fill="white" stroke="#bfbfbf" points="852.5,-6 852.5,-25 919.5,-25 919.5,-6 852.5,-6"/>
<text text-anchor="middle" x="886" y="-13" font-family="Helvetica,sans-Serif" font-size="10.00">streambuf</text>
</a>
</g>
</g>
<!-- Node9&#45;&gt;Node14 -->
<g id="edge14" class="edge">
<title>Node9&#45;&gt;Node14</title>
<path fill="none" stroke="midnightblue" d="M724.01,-67.46C753.9,-58.59 801.83,-44.2 843,-31 845.74,-30.12 848.58,-29.2 851.43,-28.26"/>
<polygon fill="midnightblue" stroke="midnightblue" points="852.65,-31.54 861.03,-25.06 850.44,-24.9 852.65,-31.54"/>
</g>
<!-- Node15 -->
<g id="node15" class="node">
<title>Node15</title>
<g id="a_node15"><a xlink:title=" ">
<polygon fill="white" stroke="#bfbfbf" points="938,-6 938,-25 1052,-25 1052,-6 938,-6"/>
<text text-anchor="middle" x="995" y="-13" font-family="Helvetica,sans-Serif" font-size="10.00">vsomeip/export.hpp</text>
</a>
</g>
</g>
<!-- Node9&#45;&gt;Node15 -->
<g id="edge15" class="edge">
<title>Node9&#45;&gt;Node15</title>
<path fill="none" stroke="midnightblue" d="M741.25,-67.48C788.5,-58.68 863.97,-44.39 929,-31 934.82,-29.8 940.91,-28.51 946.95,-27.21"/>
<polygon fill="midnightblue" stroke="midnightblue" points="947.97,-30.57 956.99,-25.03 946.48,-23.73 947.97,-30.57"/>
</g>
</g>
</svg>
