<?xml version="1.0" encoding="UTF-8" standalone="no"?>
<!DOCTYPE svg PUBLIC "-//W3C//DTD SVG 1.1//EN"
 "http://www.w3.org/Graphics/SVG/1.1/DTD/svg11.dtd">
<!-- Generated by graphviz version 2.43.0 (0)
 -->
<!-- Title: /home/kali/projects/vsomeip/implementation/endpoints/src/tp.cpp Pages: 1 -->
<svg width="1390pt" height="240pt"
 viewBox="0.00 0.00 1389.50 240.00" xmlns="http://www.w3.org/2000/svg" xmlns:xlink="http://www.w3.org/1999/xlink">
<g id="graph0" class="graph" transform="scale(1 1) rotate(0) translate(4 236)">
<title>/home/kali/projects/vsomeip/implementation/endpoints/src/tp.cpp</title>
<polygon fill="white" stroke="transparent" points="-4,4 -4,-236 1385.5,-236 1385.5,4 -4,4"/>
<!-- Node1 -->
<g id="node1" class="node">
<title>Node1</title>
<g id="a_node1"><a xlink:title=" ">
<polygon fill="#bfbfbf" stroke="black" points="828.5,-190.5 828.5,-231.5 971.5,-231.5 971.5,-190.5 828.5,-190.5"/>
<text text-anchor="start" x="836.5" y="-219.5" font-family="Helvetica,sans-Serif" font-size="10.00">/home/kali/projects</text>
<text text-anchor="start" x="836.5" y="-208.5" font-family="Helvetica,sans-Serif" font-size="10.00">/vsomeip/implementation</text>
<text text-anchor="middle" x="900" y="-197.5" font-family="Helvetica,sans-Serif" font-size="10.00">/endpoints/src/tp.cpp</text>
</a>
</g>
</g>
<!-- Node2 -->
<g id="node2" class="node">
<title>Node2</title>
<g id="a_node2"><a xlink:title=" ">
<polygon fill="white" stroke="#bfbfbf" points="653.5,-0.5 653.5,-19.5 812.5,-19.5 812.5,-0.5 653.5,-0.5"/>
<text text-anchor="middle" x="733" y="-7.5" font-family="Helvetica,sans-Serif" font-size="10.00">vsomeip/primitive_types.hpp</text>
</a>
</g>
</g>
<!-- Node1&#45;&gt;Node2 -->
<g id="edge1" class="edge">
<title>Node1&#45;&gt;Node2</title>
<path fill="none" stroke="midnightblue" d="M903.75,-190.36C908.67,-158.27 913.25,-94.35 881,-56 866.17,-38.36 844.65,-27.49 822.6,-20.84"/>
<polygon fill="midnightblue" stroke="midnightblue" points="823.37,-17.42 812.8,-18.15 821.52,-24.17 823.37,-17.42"/>
</g>
<!-- Node3 -->
<g id="node3" class="node">
<title>Node3</title>
<g id="a_node3"><a xlink:title=" ">
<polygon fill="white" stroke="#bfbfbf" points="0,-0.5 0,-19.5 118,-19.5 118,-0.5 0,-0.5"/>
<text text-anchor="middle" x="59" y="-7.5" font-family="Helvetica,sans-Serif" font-size="10.00">vsomeip/defines.hpp</text>
</a>
</g>
</g>
<!-- Node1&#45;&gt;Node3 -->
<g id="edge2" class="edge">
<title>Node1&#45;&gt;Node3</title>
<path fill="none" stroke="midnightblue" d="M828.36,-203.53C744.17,-195.23 600.54,-178.85 479,-154 370.08,-131.73 342.94,-123.69 238,-87 183.18,-67.83 121.21,-40.11 86.45,-23.98"/>
<polygon fill="midnightblue" stroke="midnightblue" points="87.53,-20.62 76.99,-19.56 84.57,-26.97 87.53,-20.62"/>
</g>
<!-- Node4 -->
<g id="node4" class="node">
<title>Node4</title>
<g id="a_node4"><a xlink:href="logger_8hpp.html" target="_top" xlink:title=" ">
<polygon fill="white" stroke="black" points="943.5,-129 943.5,-148 1096.5,-148 1096.5,-129 943.5,-129"/>
<text text-anchor="middle" x="1020" y="-136" font-family="Helvetica,sans-Serif" font-size="10.00">vsomeip/internal/logger.hpp</text>
</a>
</g>
</g>
<!-- Node1&#45;&gt;Node4 -->
<g id="edge3" class="edge">
<title>Node1&#45;&gt;Node4</title>
<path fill="none" stroke="midnightblue" d="M933.43,-190.36C953.51,-178.57 978.56,-163.85 996.54,-153.28"/>
<polygon fill="midnightblue" stroke="midnightblue" points="998.39,-156.26 1005.24,-148.17 994.84,-150.22 998.39,-156.26"/>
</g>
<!-- Node12 -->
<g id="node12" class="node">
<title>Node12</title>
<g id="a_node12"><a xlink:href="tp_8hpp.html" target="_top" xlink:title=" ">
<polygon fill="white" stroke="black" points="487.5,-129 487.5,-148 582.5,-148 582.5,-129 487.5,-129"/>
<text text-anchor="middle" x="535" y="-136" font-family="Helvetica,sans-Serif" font-size="10.00">../include/tp.hpp</text>
</a>
</g>
</g>
<!-- Node1&#45;&gt;Node12 -->
<g id="edge11" class="edge">
<title>Node1&#45;&gt;Node12</title>
<path fill="none" stroke="midnightblue" d="M828.32,-196.16C758.21,-182.61 652.98,-162.29 589.46,-150.02"/>
<polygon fill="midnightblue" stroke="midnightblue" points="589.74,-146.51 579.25,-148.05 588.41,-153.38 589.74,-146.51"/>
</g>
<!-- Node22 -->
<g id="node22" class="node">
<title>Node22</title>
<g id="a_node22"><a xlink:href="byteorder_8hpp.html" target="_top" xlink:title=" ">
<polygon fill="white" stroke="black" points="1114.5,-123.5 1114.5,-153.5 1215.5,-153.5 1215.5,-123.5 1114.5,-123.5"/>
<text text-anchor="start" x="1122.5" y="-141.5" font-family="Helvetica,sans-Serif" font-size="10.00">../../utility/include</text>
<text text-anchor="middle" x="1165" y="-130.5" font-family="Helvetica,sans-Serif" font-size="10.00">/byteorder.hpp</text>
</a>
</g>
</g>
<!-- Node1&#45;&gt;Node22 -->
<g id="edge26" class="edge">
<title>Node1&#45;&gt;Node22</title>
<path fill="none" stroke="midnightblue" d="M971.71,-190.92C1013.26,-179.87 1064.98,-166.11 1104.47,-155.6"/>
<polygon fill="midnightblue" stroke="midnightblue" points="1105.46,-158.96 1114.23,-153.01 1103.66,-152.2 1105.46,-158.96"/>
</g>
<!-- Node23 -->
<g id="node23" class="node">
<title>Node23</title>
<g id="a_node23"><a xlink:href="internal_8hpp.html" target="_top" xlink:title=" ">
<polygon fill="white" stroke="black" points="714,-123.5 714,-153.5 830,-153.5 830,-123.5 714,-123.5"/>
<text text-anchor="start" x="722" y="-141.5" font-family="Helvetica,sans-Serif" font-size="10.00">../../configuration</text>
<text text-anchor="middle" x="772" y="-130.5" font-family="Helvetica,sans-Serif" font-size="10.00">/include/internal.hpp</text>
</a>
</g>
</g>
<!-- Node1&#45;&gt;Node23 -->
<g id="edge27" class="edge">
<title>Node1&#45;&gt;Node23</title>
<path fill="none" stroke="midnightblue" d="M864.34,-190.36C846.33,-180.44 824.56,-168.45 806.68,-158.6"/>
<polygon fill="midnightblue" stroke="midnightblue" points="808.17,-155.43 797.73,-153.67 804.8,-161.56 808.17,-155.43"/>
</g>
<!-- Node26 -->
<g id="node26" class="node">
<title>Node26</title>
<g id="a_node26"><a xlink:title=" ">
<polygon fill="white" stroke="#bfbfbf" points="1233.5,-129 1233.5,-148 1302.5,-148 1302.5,-129 1233.5,-129"/>
<text text-anchor="middle" x="1268" y="-136" font-family="Helvetica,sans-Serif" font-size="10.00">arpa/inet.h</text>
</a>
</g>
</g>
<!-- Node1&#45;&gt;Node26 -->
<g id="edge32" class="edge">
<title>Node1&#45;&gt;Node26</title>
<path fill="none" stroke="midnightblue" d="M971.67,-200.9C1037.97,-191.71 1138.97,-175.78 1225,-154 1228.21,-153.19 1231.52,-152.25 1234.82,-151.25"/>
<polygon fill="midnightblue" stroke="midnightblue" points="1236.08,-154.52 1244.54,-148.14 1233.95,-147.86 1236.08,-154.52"/>
</g>
<!-- Node5 -->
<g id="node5" class="node">
<title>Node5</title>
<g id="a_node5"><a xlink:title=" ">
<polygon fill="white" stroke="#bfbfbf" points="1017,-0.5 1017,-19.5 1067,-19.5 1067,-0.5 1017,-0.5"/>
<text text-anchor="middle" x="1042" y="-7.5" font-family="Helvetica,sans-Serif" font-size="10.00">chrono</text>
</a>
</g>
</g>
<!-- Node4&#45;&gt;Node5 -->
<g id="edge4" class="edge">
<title>Node4&#45;&gt;Node5</title>
<path fill="none" stroke="midnightblue" d="M1063.43,-128.91C1116.93,-117.9 1201.9,-98.82 1211,-87 1248.31,-38.55 1137.03,-20.15 1077.26,-13.88"/>
<polygon fill="midnightblue" stroke="midnightblue" points="1077.39,-10.38 1067.09,-12.88 1076.7,-17.35 1077.39,-10.38"/>
</g>
<!-- Node6 -->
<g id="node6" class="node">
<title>Node6</title>
<g id="a_node6"><a xlink:title=" ">
<polygon fill="white" stroke="#bfbfbf" points="822,-62 822,-81 872,-81 872,-62 822,-62"/>
<text text-anchor="middle" x="847" y="-69" font-family="Helvetica,sans-Serif" font-size="10.00">cstdint</text>
</a>
</g>
</g>
<!-- Node4&#45;&gt;Node6 -->
<g id="edge5" class="edge">
<title>Node4&#45;&gt;Node6</title>
<path fill="none" stroke="midnightblue" d="M997.03,-128.87C966.83,-117.52 913.6,-97.52 879.34,-84.65"/>
<polygon fill="midnightblue" stroke="midnightblue" points="880.38,-81.3 869.79,-81.06 877.92,-87.86 880.38,-81.3"/>
</g>
<!-- Node7 -->
<g id="node7" class="node">
<title>Node7</title>
<g id="a_node7"><a xlink:title=" ">
<polygon fill="white" stroke="#bfbfbf" points="1258,-62 1258,-81 1306,-81 1306,-62 1258,-62"/>
<text text-anchor="middle" x="1282" y="-69" font-family="Helvetica,sans-Serif" font-size="10.00">mutex</text>
</a>
</g>
</g>
<!-- Node4&#45;&gt;Node7 -->
<g id="edge6" class="edge">
<title>Node4&#45;&gt;Node7</title>
<path fill="none" stroke="midnightblue" d="M1066.84,-128.97C1112.51,-120.17 1183.7,-105.2 1244,-87 1246.57,-86.22 1249.22,-85.36 1251.86,-84.45"/>
<polygon fill="midnightblue" stroke="midnightblue" points="1253.08,-87.73 1261.28,-81.02 1250.68,-81.15 1253.08,-87.73"/>
</g>
<!-- Node8 -->
<g id="node8" class="node">
<title>Node8</title>
<g id="a_node8"><a xlink:title=" ">
<polygon fill="white" stroke="#bfbfbf" points="1324.5,-62 1324.5,-81 1381.5,-81 1381.5,-62 1324.5,-62"/>
<text text-anchor="middle" x="1353" y="-69" font-family="Helvetica,sans-Serif" font-size="10.00">ostream</text>
</a>
</g>
</g>
<!-- Node4&#45;&gt;Node8 -->
<g id="edge7" class="edge">
<title>Node4&#45;&gt;Node8</title>
<path fill="none" stroke="midnightblue" d="M1070.47,-128.99C1153.19,-115.02 1309.12,-88.61 1315,-87 1317.65,-86.27 1320.38,-85.43 1323.1,-84.53"/>
<polygon fill="midnightblue" stroke="midnightblue" points="1324.5,-87.74 1332.73,-81.07 1322.14,-81.15 1324.5,-87.74"/>
</g>
<!-- Node9 -->
<g id="node9" class="node">
<title>Node9</title>
<g id="a_node9"><a xlink:title=" ">
<polygon fill="white" stroke="#bfbfbf" points="928,-62 928,-81 984,-81 984,-62 928,-62"/>
<text text-anchor="middle" x="956" y="-69" font-family="Helvetica,sans-Serif" font-size="10.00">sstream</text>
</a>
</g>
</g>
<!-- Node4&#45;&gt;Node9 -->
<g id="edge8" class="edge">
<title>Node4&#45;&gt;Node9</title>
<path fill="none" stroke="midnightblue" d="M1011.37,-128.73C1001.2,-118.4 984.1,-101.04 971.59,-88.33"/>
<polygon fill="midnightblue" stroke="midnightblue" points="974,-85.8 964.49,-81.13 969.02,-90.71 974,-85.8"/>
</g>
<!-- Node10 -->
<g id="node10" class="node">
<title>Node10</title>
<g id="a_node10"><a xlink:title=" ">
<polygon fill="white" stroke="#bfbfbf" points="1002.5,-62 1002.5,-81 1069.5,-81 1069.5,-62 1002.5,-62"/>
<text text-anchor="middle" x="1036" y="-69" font-family="Helvetica,sans-Serif" font-size="10.00">streambuf</text>
</a>
</g>
</g>
<!-- Node4&#45;&gt;Node10 -->
<g id="edge9" class="edge">
<title>Node4&#45;&gt;Node10</title>
<path fill="none" stroke="midnightblue" d="M1022.16,-128.73C1024.53,-119.09 1028.42,-103.3 1031.47,-90.91"/>
<polygon fill="midnightblue" stroke="midnightblue" points="1034.88,-91.67 1033.88,-81.13 1028.09,-90 1034.88,-91.67"/>
</g>
<!-- Node11 -->
<g id="node11" class="node">
<title>Node11</title>
<g id="a_node11"><a xlink:title=" ">
<polygon fill="white" stroke="#bfbfbf" points="1088,-62 1088,-81 1202,-81 1202,-62 1088,-62"/>
<text text-anchor="middle" x="1145" y="-69" font-family="Helvetica,sans-Serif" font-size="10.00">vsomeip/export.hpp</text>
</a>
</g>
</g>
<!-- Node4&#45;&gt;Node11 -->
<g id="edge10" class="edge">
<title>Node4&#45;&gt;Node11</title>
<path fill="none" stroke="midnightblue" d="M1036.6,-128.87C1057.71,-117.89 1094.38,-98.82 1119.16,-85.94"/>
<polygon fill="midnightblue" stroke="midnightblue" points="1121.07,-88.89 1128.33,-81.17 1117.85,-82.68 1121.07,-88.89"/>
</g>
<!-- Node12&#45;&gt;Node6 -->
<g id="edge12" class="edge">
<title>Node12&#45;&gt;Node6</title>
<path fill="none" stroke="midnightblue" d="M582.98,-132.09C639.01,-125.03 734.06,-110.68 813,-87 815.15,-86.36 817.34,-85.62 819.53,-84.82"/>
<polygon fill="midnightblue" stroke="midnightblue" points="820.92,-88.04 828.93,-81.09 818.34,-81.53 820.92,-88.04"/>
</g>
<!-- Node13 -->
<g id="node13" class="node">
<title>Node13</title>
<g id="a_node13"><a xlink:title=" ">
<polygon fill="white" stroke="#bfbfbf" points="511.5,-62 511.5,-81 558.5,-81 558.5,-62 511.5,-62"/>
<text text-anchor="middle" x="535" y="-69" font-family="Helvetica,sans-Serif" font-size="10.00">vector</text>
</a>
</g>
</g>
<!-- Node12&#45;&gt;Node13 -->
<g id="edge13" class="edge">
<title>Node12&#45;&gt;Node13</title>
<path fill="none" stroke="midnightblue" d="M535,-128.73C535,-119.18 535,-103.62 535,-91.28"/>
<polygon fill="midnightblue" stroke="midnightblue" points="538.5,-91.13 535,-81.13 531.5,-91.13 538.5,-91.13"/>
</g>
<!-- Node14 -->
<g id="node14" class="node">
<title>Node14</title>
<g id="a_node14"><a xlink:title=" ">
<polygon fill="white" stroke="#bfbfbf" points="576.5,-62 576.5,-81 621.5,-81 621.5,-62 576.5,-62"/>
<text text-anchor="middle" x="599" y="-69" font-family="Helvetica,sans-Serif" font-size="10.00">utility</text>
</a>
</g>
</g>
<!-- Node12&#45;&gt;Node14 -->
<g id="edge14" class="edge">
<title>Node12&#45;&gt;Node14</title>
<path fill="none" stroke="midnightblue" d="M543.63,-128.73C553.8,-118.4 570.9,-101.04 583.41,-88.33"/>
<polygon fill="midnightblue" stroke="midnightblue" points="585.98,-90.71 590.51,-81.13 581,-85.8 585.98,-90.71"/>
</g>
<!-- Node15 -->
<g id="node15" class="node">
<title>Node15</title>
<g id="a_node15"><a xlink:title=" ">
<polygon fill="white" stroke="#bfbfbf" points="578,-0.5 578,-19.5 636,-19.5 636,-0.5 578,-0.5"/>
<text text-anchor="middle" x="607" y="-7.5" font-family="Helvetica,sans-Serif" font-size="10.00">memory</text>
</a>
</g>
</g>
<!-- Node12&#45;&gt;Node15 -->
<g id="edge15" class="edge">
<title>Node12&#45;&gt;Node15</title>
<path fill="none" stroke="midnightblue" d="M526.55,-128.86C512.45,-113.34 487.14,-80.14 503,-56 510.71,-44.26 542.16,-31.62 568.48,-22.74"/>
<polygon fill="midnightblue" stroke="midnightblue" points="569.85,-25.97 578.26,-19.52 567.66,-19.32 569.85,-25.97"/>
</g>
<!-- Node16 -->
<g id="node16" class="node">
<title>Node16</title>
<g id="a_node16"><a xlink:title=" ">
<polygon fill="white" stroke="#bfbfbf" points="247,-56.5 247,-86.5 371,-86.5 371,-56.5 247,-56.5"/>
<text text-anchor="start" x="255" y="-74.5" font-family="Helvetica,sans-Serif" font-size="10.00">vsomeip/enumeration</text>
<text text-anchor="middle" x="309" y="-63.5" font-family="Helvetica,sans-Serif" font-size="10.00">_types.hpp</text>
</a>
</g>
</g>
<!-- Node12&#45;&gt;Node16 -->
<g id="edge16" class="edge">
<title>Node12&#45;&gt;Node16</title>
<path fill="none" stroke="midnightblue" d="M504.99,-128.87C470.05,-118.82 411.52,-101.99 367.5,-89.32"/>
<polygon fill="midnightblue" stroke="midnightblue" points="368.35,-85.93 357.77,-86.53 366.42,-92.66 368.35,-85.93"/>
</g>
<!-- Node17 -->
<g id="node17" class="node">
<title>Node17</title>
<g id="a_node17"><a xlink:href="endpoints_2include_2buffer_8hpp.html" target="_top" xlink:title=" ">
<polygon fill="white" stroke="black" points="389.5,-62 389.5,-81 454.5,-81 454.5,-62 389.5,-62"/>
<text text-anchor="middle" x="422" y="-69" font-family="Helvetica,sans-Serif" font-size="10.00">buffer.hpp</text>
</a>
</g>
</g>
<!-- Node12&#45;&gt;Node17 -->
<g id="edge17" class="edge">
<title>Node12&#45;&gt;Node17</title>
<path fill="none" stroke="midnightblue" d="M519.76,-128.73C500.78,-117.82 468.15,-99.05 445.85,-86.22"/>
<polygon fill="midnightblue" stroke="midnightblue" points="447.41,-83.08 437,-81.13 443.92,-89.15 447.41,-83.08"/>
</g>
<!-- Node17&#45;&gt;Node2 -->
<g id="edge25" class="edge">
<title>Node17&#45;&gt;Node2</title>
<path fill="none" stroke="midnightblue" d="M454.69,-64.24C507.91,-54.06 613.82,-33.8 678.54,-21.42"/>
<polygon fill="midnightblue" stroke="midnightblue" points="679.4,-24.82 688.56,-19.5 678.08,-17.94 679.4,-24.82"/>
</g>
<!-- Node17&#45;&gt;Node3 -->
<g id="edge24" class="edge">
<title>Node17&#45;&gt;Node3</title>
<path fill="none" stroke="midnightblue" d="M399.57,-61.86C393.31,-59.7 386.45,-57.55 380,-56 367.89,-53.09 218.89,-32.67 128.21,-20.36"/>
<polygon fill="midnightblue" stroke="midnightblue" points="128.65,-16.88 118.27,-19.01 127.71,-23.82 128.65,-16.88"/>
</g>
<!-- Node17&#45;&gt;Node5 -->
<g id="edge19" class="edge">
<title>Node17&#45;&gt;Node5</title>
<path fill="none" stroke="midnightblue" d="M454.6,-63.94C469.34,-61.17 486.99,-58.1 503,-56 692.26,-31.22 920.79,-17.42 1006.91,-12.79"/>
<polygon fill="midnightblue" stroke="midnightblue" points="1007.13,-16.28 1016.93,-12.25 1006.76,-9.29 1007.13,-16.28"/>
</g>
<!-- Node17&#45;&gt;Node15 -->
<g id="edge20" class="edge">
<title>Node17&#45;&gt;Node15</title>
<path fill="none" stroke="midnightblue" d="M448.51,-61.98C480.65,-51.64 534.99,-34.16 570.93,-22.6"/>
<polygon fill="midnightblue" stroke="midnightblue" points="572.1,-25.9 580.54,-19.51 569.95,-19.24 572.1,-25.9"/>
</g>
<!-- Node18 -->
<g id="node18" class="node">
<title>Node18</title>
<g id="a_node18"><a xlink:title=" ">
<polygon fill="white" stroke="#bfbfbf" points="518,-0.5 518,-19.5 560,-19.5 560,-0.5 518,-0.5"/>
<text text-anchor="middle" x="539" y="-7.5" font-family="Helvetica,sans-Serif" font-size="10.00">array</text>
</a>
</g>
</g>
<!-- Node17&#45;&gt;Node18 -->
<g id="edge18" class="edge">
<title>Node17&#45;&gt;Node18</title>
<path fill="none" stroke="midnightblue" d="M438.76,-61.98C458.22,-52.08 490.55,-35.64 513.21,-24.12"/>
<polygon fill="midnightblue" stroke="midnightblue" points="514.94,-27.16 522.27,-19.51 511.77,-20.92 514.94,-27.16"/>
</g>
<!-- Node19 -->
<g id="node19" class="node">
<title>Node19</title>
<g id="a_node19"><a xlink:title=" ">
<polygon fill="white" stroke="#bfbfbf" points="136,-0.5 136,-19.5 168,-19.5 168,-0.5 136,-0.5"/>
<text text-anchor="middle" x="152" y="-7.5" font-family="Helvetica,sans-Serif" font-size="10.00">set</text>
</a>
</g>
</g>
<!-- Node17&#45;&gt;Node19 -->
<g id="edge21" class="edge">
<title>Node17&#45;&gt;Node19</title>
<path fill="none" stroke="midnightblue" d="M399.09,-61.86C392.95,-59.75 386.27,-57.63 380,-56 294.34,-33.76 267.37,-42.92 177.76,-19.8"/>
<polygon fill="midnightblue" stroke="midnightblue" points="178.57,-16.39 168.01,-17.22 176.78,-23.16 178.57,-16.39"/>
</g>
<!-- Node20 -->
<g id="node20" class="node">
<title>Node20</title>
<g id="a_node20"><a xlink:title=" ">
<polygon fill="white" stroke="#bfbfbf" points="186,-0.5 186,-19.5 326,-19.5 326,-0.5 186,-0.5"/>
<text text-anchor="middle" x="256" y="-7.5" font-family="Helvetica,sans-Serif" font-size="10.00">boost/asio/io_service.hpp</text>
</a>
</g>
</g>
<!-- Node17&#45;&gt;Node20 -->
<g id="edge22" class="edge">
<title>Node17&#45;&gt;Node20</title>
<path fill="none" stroke="midnightblue" d="M398.22,-61.98C369.62,-51.72 321.45,-34.46 289.2,-22.9"/>
<polygon fill="midnightblue" stroke="midnightblue" points="290.33,-19.59 279.74,-19.51 287.97,-26.18 290.33,-19.59"/>
</g>
<!-- Node21 -->
<g id="node21" class="node">
<title>Node21</title>
<g id="a_node21"><a xlink:title=" ">
<polygon fill="white" stroke="#bfbfbf" points="344.5,-0.5 344.5,-19.5 499.5,-19.5 499.5,-0.5 344.5,-0.5"/>
<text text-anchor="middle" x="422" y="-7.5" font-family="Helvetica,sans-Serif" font-size="10.00">boost/asio/steady_timer.hpp</text>
</a>
</g>
</g>
<!-- Node17&#45;&gt;Node21 -->
<g id="edge23" class="edge">
<title>Node17&#45;&gt;Node21</title>
<path fill="none" stroke="midnightblue" d="M422,-61.98C422,-53.58 422,-40.48 422,-29.66"/>
<polygon fill="midnightblue" stroke="midnightblue" points="425.5,-29.51 422,-19.51 418.5,-29.51 425.5,-29.51"/>
</g>
<!-- Node23&#45;&gt;Node2 -->
<g id="edge30" class="edge">
<title>Node23&#45;&gt;Node2</title>
<path fill="none" stroke="midnightblue" d="M716.96,-123.49C698.46,-115.87 679.8,-104.32 669,-87 661.71,-75.31 662.65,-68.23 669,-56 676.15,-42.23 689.67,-31.78 702.45,-24.44"/>
<polygon fill="midnightblue" stroke="midnightblue" points="704.32,-27.41 711.52,-19.64 701.04,-21.23 704.32,-27.41"/>
</g>
<!-- Node23&#45;&gt;Node6 -->
<g id="edge28" class="edge">
<title>Node23&#45;&gt;Node6</title>
<path fill="none" stroke="midnightblue" d="M788.27,-123.4C800.32,-112.96 816.71,-98.75 829.12,-88"/>
<polygon fill="midnightblue" stroke="midnightblue" points="831.7,-90.39 836.97,-81.19 827.12,-85.1 831.7,-90.39"/>
</g>
<!-- Node24 -->
<g id="node24" class="node">
<title>Node24</title>
<g id="a_node24"><a xlink:title=" ">
<polygon fill="white" stroke="#bfbfbf" points="678,-62 678,-81 722,-81 722,-62 678,-62"/>
<text text-anchor="middle" x="700" y="-69" font-family="Helvetica,sans-Serif" font-size="10.00">limits</text>
</a>
</g>
</g>
<!-- Node23&#45;&gt;Node24 -->
<g id="edge29" class="edge">
<title>Node23&#45;&gt;Node24</title>
<path fill="none" stroke="midnightblue" d="M756.38,-123.4C744.82,-112.96 729.08,-98.75 717.17,-88"/>
<polygon fill="midnightblue" stroke="midnightblue" points="719.4,-85.3 709.63,-81.19 714.71,-90.49 719.4,-85.3"/>
</g>
<!-- Node25 -->
<g id="node25" class="node">
<title>Node25</title>
<g id="a_node25"><a xlink:title=" ">
<polygon fill="white" stroke="#bfbfbf" points="740.5,-62 740.5,-81 803.5,-81 803.5,-62 740.5,-62"/>
<text text-anchor="middle" x="772" y="-69" font-family="Helvetica,sans-Serif" font-size="10.00">pthread.h</text>
</a>
</g>
</g>
<!-- Node23&#45;&gt;Node25 -->
<g id="edge31" class="edge">
<title>Node23&#45;&gt;Node25</title>
<path fill="none" stroke="midnightblue" d="M772,-123.4C772,-114.06 772,-101.71 772,-91.52"/>
<polygon fill="midnightblue" stroke="midnightblue" points="775.5,-91.19 772,-81.19 768.5,-91.19 775.5,-91.19"/>
</g>
</g>
</svg>
