<?xml version="1.0" encoding="UTF-8" standalone="no"?>
<!DOCTYPE svg PUBLIC "-//W3C//DTD SVG 1.1//EN"
 "http://www.w3.org/Graphics/SVG/1.1/DTD/svg11.dtd">
<!-- Generated by graphviz version 2.43.0 (0)
 -->
<!-- Title: /home/kali/projects/vsomeip/implementation/endpoints/include/tp.hpp Pages: 1 -->
<svg width="2162pt" height="317pt"
 viewBox="0.00 0.00 2162.00 317.00" xmlns="http://www.w3.org/2000/svg" xmlns:xlink="http://www.w3.org/1999/xlink">
<g id="graph0" class="graph" transform="scale(1 1) rotate(0) translate(4 313)">
<title>/home/kali/projects/vsomeip/implementation/endpoints/include/tp.hpp</title>
<polygon fill="white" stroke="transparent" points="-4,4 -4,-313 2158,-313 2158,4 -4,4"/>
<!-- Node1 -->
<g id="node1" class="node">
<title>Node1</title>
<g id="a_node1"><a xlink:title=" ">
<polygon fill="#bfbfbf" stroke="black" points="929,-267.5 929,-308.5 1072,-308.5 1072,-267.5 929,-267.5"/>
<text text-anchor="start" x="937" y="-296.5" font-family="Helvetica,sans-Serif" font-size="10.00">/home/kali/projects</text>
<text text-anchor="start" x="937" y="-285.5" font-family="Helvetica,sans-Serif" font-size="10.00">/vsomeip/implementation</text>
<text text-anchor="middle" x="1000.5" y="-274.5" font-family="Helvetica,sans-Serif" font-size="10.00">/endpoints/include/tp.hpp</text>
</a>
</g>
</g>
<!-- Node2 -->
<g id="node2" class="node">
<title>Node2</title>
<g id="a_node2"><a xlink:href="client__endpoint__impl_8hpp.html" target="_top" xlink:title=" ">
<polygon fill="white" stroke="black" points="494,-178.5 494,-230.5 637,-230.5 637,-178.5 494,-178.5"/>
<text text-anchor="start" x="502" y="-218.5" font-family="Helvetica,sans-Serif" font-size="10.00">/home/kali/projects</text>
<text text-anchor="start" x="502" y="-207.5" font-family="Helvetica,sans-Serif" font-size="10.00">/vsomeip/implementation</text>
<text text-anchor="start" x="502" y="-196.5" font-family="Helvetica,sans-Serif" font-size="10.00">/endpoints/include/client</text>
<text text-anchor="middle" x="565.5" y="-185.5" font-family="Helvetica,sans-Serif" font-size="10.00">_endpoint_impl.hpp</text>
</a>
</g>
</g>
<!-- Node1&#45;&gt;Node2 -->
<g id="edge1" class="edge">
<title>Node1&#45;&gt;Node2</title>
<path fill="none" stroke="midnightblue" d="M918.49,-271.64C837.35,-256.43 714.38,-233.39 637.08,-218.91"/>
<polygon fill="midnightblue" stroke="midnightblue" points="918.2,-275.14 928.67,-273.54 919.48,-268.26 918.2,-275.14"/>
</g>
<!-- Node13 -->
<g id="node13" class="node">
<title>Node13</title>
<g id="a_node13"><a xlink:href="udp__client__endpoint__impl_8cpp.html" target="_top" xlink:title=" ">
<polygon fill="white" stroke="black" points="0,-0.5 0,-52.5 143,-52.5 143,-0.5 0,-0.5"/>
<text text-anchor="start" x="8" y="-40.5" font-family="Helvetica,sans-Serif" font-size="10.00">/home/kali/projects</text>
<text text-anchor="start" x="8" y="-29.5" font-family="Helvetica,sans-Serif" font-size="10.00">/vsomeip/implementation</text>
<text text-anchor="start" x="8" y="-18.5" font-family="Helvetica,sans-Serif" font-size="10.00">/endpoints/src/udp_client</text>
<text text-anchor="middle" x="71.5" y="-7.5" font-family="Helvetica,sans-Serif" font-size="10.00">_endpoint_impl.cpp</text>
</a>
</g>
</g>
<!-- Node1&#45;&gt;Node13 -->
<g id="edge40" class="edge">
<title>Node1&#45;&gt;Node13</title>
<path fill="none" stroke="midnightblue" d="M918.52,-282.66C727.96,-271.1 262.06,-233.95 139.5,-142 109.36,-119.38 90.03,-79.15 79.97,-52.9"/>
<polygon fill="midnightblue" stroke="midnightblue" points="918.56,-286.17 928.75,-283.27 918.98,-279.18 918.56,-286.17"/>
</g>
<!-- Node15 -->
<g id="node15" class="node">
<title>Node15</title>
<g id="a_node15"><a xlink:href="server__endpoint__impl_8hpp.html" target="_top" xlink:title=" ">
<polygon fill="white" stroke="black" points="829,-178.5 829,-230.5 972,-230.5 972,-178.5 829,-178.5"/>
<text text-anchor="start" x="837" y="-218.5" font-family="Helvetica,sans-Serif" font-size="10.00">/home/kali/projects</text>
<text text-anchor="start" x="837" y="-207.5" font-family="Helvetica,sans-Serif" font-size="10.00">/vsomeip/implementation</text>
<text text-anchor="start" x="837" y="-196.5" font-family="Helvetica,sans-Serif" font-size="10.00">/endpoints/include/server</text>
<text text-anchor="middle" x="900.5" y="-185.5" font-family="Helvetica,sans-Serif" font-size="10.00">_endpoint_impl.hpp</text>
</a>
</g>
</g>
<!-- Node1&#45;&gt;Node15 -->
<g id="edge17" class="edge">
<title>Node1&#45;&gt;Node15</title>
<path fill="none" stroke="midnightblue" d="M968.61,-261.01C956.72,-251.32 943.26,-240.35 931.45,-230.73"/>
<polygon fill="midnightblue" stroke="midnightblue" points="966.58,-263.87 976.55,-267.48 971.01,-258.45 966.58,-263.87"/>
</g>
<!-- Node23 -->
<g id="node23" class="node">
<title>Node23</title>
<g id="a_node23"><a xlink:href="udp__server__endpoint__impl_8cpp.html" target="_top" xlink:title=" ">
<polygon fill="white" stroke="black" points="994,-0.5 994,-52.5 1137,-52.5 1137,-0.5 994,-0.5"/>
<text text-anchor="start" x="1002" y="-40.5" font-family="Helvetica,sans-Serif" font-size="10.00">/home/kali/projects</text>
<text text-anchor="start" x="1002" y="-29.5" font-family="Helvetica,sans-Serif" font-size="10.00">/vsomeip/implementation</text>
<text text-anchor="start" x="1002" y="-18.5" font-family="Helvetica,sans-Serif" font-size="10.00">/endpoints/src/udp_server</text>
<text text-anchor="middle" x="1065.5" y="-7.5" font-family="Helvetica,sans-Serif" font-size="10.00">_endpoint_impl.cpp</text>
</a>
</g>
</g>
<!-- Node1&#45;&gt;Node23 -->
<g id="edge41" class="edge">
<title>Node1&#45;&gt;Node23</title>
<path fill="none" stroke="midnightblue" d="M1005.08,-257.11C1008.67,-235.11 1014.12,-204.52 1020.5,-178 1031.24,-133.32 1047.34,-82.26 1057.09,-52.57"/>
<polygon fill="midnightblue" stroke="midnightblue" points="1001.6,-256.75 1003.47,-267.17 1008.51,-257.85 1001.6,-256.75"/>
</g>
<!-- Node25 -->
<g id="node25" class="node">
<title>Node25</title>
<g id="a_node25"><a xlink:href="tp_8cpp.html" target="_top" xlink:title=" ">
<polygon fill="white" stroke="black" points="1029,-184 1029,-225 1172,-225 1172,-184 1029,-184"/>
<text text-anchor="start" x="1037" y="-213" font-family="Helvetica,sans-Serif" font-size="10.00">/home/kali/projects</text>
<text text-anchor="start" x="1037" y="-202" font-family="Helvetica,sans-Serif" font-size="10.00">/vsomeip/implementation</text>
<text text-anchor="middle" x="1100.5" y="-191" font-family="Helvetica,sans-Serif" font-size="10.00">/endpoints/src/tp.cpp</text>
</a>
</g>
</g>
<!-- Node1&#45;&gt;Node25 -->
<g id="edge37" class="edge">
<title>Node1&#45;&gt;Node25</title>
<path fill="none" stroke="midnightblue" d="M1032.53,-260.89C1046.76,-249.3 1063.23,-235.87 1076.4,-225.14"/>
<polygon fill="midnightblue" stroke="midnightblue" points="1029.99,-258.45 1024.45,-267.48 1034.42,-263.87 1029.99,-258.45"/>
</g>
<!-- Node26 -->
<g id="node26" class="node">
<title>Node26</title>
<g id="a_node26"><a xlink:href="tp__message_8cpp.html" target="_top" xlink:title=" ">
<polygon fill="white" stroke="black" points="1190,-184 1190,-225 1357,-225 1357,-184 1190,-184"/>
<text text-anchor="start" x="1198" y="-213" font-family="Helvetica,sans-Serif" font-size="10.00">/home/kali/projects</text>
<text text-anchor="start" x="1198" y="-202" font-family="Helvetica,sans-Serif" font-size="10.00">/vsomeip/implementation</text>
<text text-anchor="middle" x="1273.5" y="-191" font-family="Helvetica,sans-Serif" font-size="10.00">/endpoints/src/tp_message.cpp</text>
</a>
</g>
</g>
<!-- Node1&#45;&gt;Node26 -->
<g id="edge38" class="edge">
<title>Node1&#45;&gt;Node26</title>
<path fill="none" stroke="midnightblue" d="M1075.68,-264.55C1117.22,-252.16 1168.31,-236.9 1208.17,-225"/>
<polygon fill="midnightblue" stroke="midnightblue" points="1074.47,-261.26 1065.89,-267.48 1076.47,-267.97 1074.47,-261.26"/>
</g>
<!-- Node27 -->
<g id="node27" class="node">
<title>Node27</title>
<g id="a_node27"><a xlink:href="tp__reassembler_8cpp.html" target="_top" xlink:title=" ">
<polygon fill="white" stroke="black" points="1375,-184 1375,-225 1558,-225 1558,-184 1375,-184"/>
<text text-anchor="start" x="1383" y="-213" font-family="Helvetica,sans-Serif" font-size="10.00">/home/kali/projects</text>
<text text-anchor="start" x="1383" y="-202" font-family="Helvetica,sans-Serif" font-size="10.00">/vsomeip/implementation</text>
<text text-anchor="middle" x="1466.5" y="-191" font-family="Helvetica,sans-Serif" font-size="10.00">/endpoints/src/tp_reassembler.cpp</text>
</a>
</g>
</g>
<!-- Node1&#45;&gt;Node27 -->
<g id="edge39" class="edge">
<title>Node1&#45;&gt;Node27</title>
<path fill="none" stroke="midnightblue" d="M1082.3,-276.82C1156.74,-267 1269.49,-250.74 1366.5,-231 1375.19,-229.23 1384.26,-227.19 1393.23,-225.06"/>
<polygon fill="midnightblue" stroke="midnightblue" points="1081.52,-273.39 1072.06,-278.16 1082.43,-280.33 1081.52,-273.39"/>
</g>
<!-- Node3 -->
<g id="node3" class="node">
<title>Node3</title>
<g id="a_node3"><a xlink:href="local__client__endpoint__impl_8hpp.html" target="_top" xlink:title=" ">
<polygon fill="white" stroke="black" points="1149,-89.5 1149,-141.5 1294,-141.5 1294,-89.5 1149,-89.5"/>
<text text-anchor="start" x="1157" y="-129.5" font-family="Helvetica,sans-Serif" font-size="10.00">/home/kali/projects</text>
<text text-anchor="start" x="1157" y="-118.5" font-family="Helvetica,sans-Serif" font-size="10.00">/vsomeip/implementation</text>
<text text-anchor="start" x="1157" y="-107.5" font-family="Helvetica,sans-Serif" font-size="10.00">/endpoints/include/local</text>
<text text-anchor="middle" x="1221.5" y="-96.5" font-family="Helvetica,sans-Serif" font-size="10.00">_client_endpoint_impl.hpp</text>
</a>
</g>
</g>
<!-- Node2&#45;&gt;Node3 -->
<g id="edge2" class="edge">
<title>Node2&#45;&gt;Node3</title>
<path fill="none" stroke="midnightblue" d="M647.5,-192.63C776.77,-175.48 1025.85,-142.45 1148.97,-126.12"/>
<polygon fill="midnightblue" stroke="midnightblue" points="646.72,-189.2 637.27,-193.98 647.64,-196.14 646.72,-189.2"/>
</g>
<!-- Node9 -->
<g id="node9" class="node">
<title>Node9</title>
<g id="a_node9"><a xlink:href="tcp__client__endpoint__impl_8hpp.html" target="_top" xlink:title=" ">
<polygon fill="white" stroke="black" points="493,-89.5 493,-141.5 638,-141.5 638,-89.5 493,-89.5"/>
<text text-anchor="start" x="501" y="-129.5" font-family="Helvetica,sans-Serif" font-size="10.00">/home/kali/projects</text>
<text text-anchor="start" x="501" y="-118.5" font-family="Helvetica,sans-Serif" font-size="10.00">/vsomeip/implementation</text>
<text text-anchor="start" x="501" y="-107.5" font-family="Helvetica,sans-Serif" font-size="10.00">/endpoints/include/tcp</text>
<text text-anchor="middle" x="565.5" y="-96.5" font-family="Helvetica,sans-Serif" font-size="10.00">_client_endpoint_impl.hpp</text>
</a>
</g>
</g>
<!-- Node2&#45;&gt;Node9 -->
<g id="edge8" class="edge">
<title>Node2&#45;&gt;Node9</title>
<path fill="none" stroke="midnightblue" d="M565.5,-168.19C565.5,-159.28 565.5,-149.9 565.5,-141.61"/>
<polygon fill="midnightblue" stroke="midnightblue" points="562,-168.34 565.5,-178.34 569,-168.34 562,-168.34"/>
</g>
<!-- Node12 -->
<g id="node12" class="node">
<title>Node12</title>
<g id="a_node12"><a xlink:href="udp__client__endpoint__impl_8hpp.html" target="_top" xlink:title=" ">
<polygon fill="white" stroke="black" points="330,-89.5 330,-141.5 475,-141.5 475,-89.5 330,-89.5"/>
<text text-anchor="start" x="338" y="-129.5" font-family="Helvetica,sans-Serif" font-size="10.00">/home/kali/projects</text>
<text text-anchor="start" x="338" y="-118.5" font-family="Helvetica,sans-Serif" font-size="10.00">/vsomeip/implementation</text>
<text text-anchor="start" x="338" y="-107.5" font-family="Helvetica,sans-Serif" font-size="10.00">/endpoints/include/udp</text>
<text text-anchor="middle" x="402.5" y="-96.5" font-family="Helvetica,sans-Serif" font-size="10.00">_client_endpoint_impl.hpp</text>
</a>
</g>
</g>
<!-- Node2&#45;&gt;Node12 -->
<g id="edge12" class="edge">
<title>Node2&#45;&gt;Node12</title>
<path fill="none" stroke="midnightblue" d="M509.28,-173.49C489.81,-163.1 468.2,-151.57 449.54,-141.61"/>
<polygon fill="midnightblue" stroke="midnightblue" points="507.88,-176.71 518.35,-178.34 511.18,-170.54 507.88,-176.71"/>
</g>
<!-- Node14 -->
<g id="node14" class="node">
<title>Node14</title>
<g id="a_node14"><a xlink:href="client__endpoint__impl_8cpp.html" target="_top" xlink:title=" ">
<polygon fill="white" stroke="black" points="149,-89.5 149,-141.5 312,-141.5 312,-89.5 149,-89.5"/>
<text text-anchor="start" x="157" y="-129.5" font-family="Helvetica,sans-Serif" font-size="10.00">/home/kali/projects</text>
<text text-anchor="start" x="157" y="-118.5" font-family="Helvetica,sans-Serif" font-size="10.00">/vsomeip/implementation</text>
<text text-anchor="start" x="157" y="-107.5" font-family="Helvetica,sans-Serif" font-size="10.00">/endpoints/src/client_endpoint</text>
<text text-anchor="middle" x="230.5" y="-96.5" font-family="Helvetica,sans-Serif" font-size="10.00">_impl.cpp</text>
</a>
</g>
</g>
<!-- Node2&#45;&gt;Node14 -->
<g id="edge16" class="edge">
<title>Node2&#45;&gt;Node14</title>
<path fill="none" stroke="midnightblue" d="M483.83,-183.65C436.11,-171.89 374.79,-156.5 320.5,-142 317.83,-141.29 315.12,-140.56 312.39,-139.81"/>
<polygon fill="midnightblue" stroke="midnightblue" points="483.25,-187.11 493.79,-186.1 484.92,-180.32 483.25,-187.11"/>
</g>
<!-- Node4 -->
<g id="node4" class="node">
<title>Node4</title>
<g id="a_node4"><a xlink:href="endpoint__manager__base_8cpp.html" target="_top" xlink:title=" ">
<polygon fill="white" stroke="black" points="1669,-0.5 1669,-52.5 1812,-52.5 1812,-0.5 1669,-0.5"/>
<text text-anchor="start" x="1677" y="-40.5" font-family="Helvetica,sans-Serif" font-size="10.00">/home/kali/projects</text>
<text text-anchor="start" x="1677" y="-29.5" font-family="Helvetica,sans-Serif" font-size="10.00">/vsomeip/implementation</text>
<text text-anchor="start" x="1677" y="-18.5" font-family="Helvetica,sans-Serif" font-size="10.00">/endpoints/src/endpoint</text>
<text text-anchor="middle" x="1740.5" y="-7.5" font-family="Helvetica,sans-Serif" font-size="10.00">_manager_base.cpp</text>
</a>
</g>
</g>
<!-- Node3&#45;&gt;Node4 -->
<g id="edge3" class="edge">
<title>Node3&#45;&gt;Node4</title>
<path fill="none" stroke="midnightblue" d="M1304.19,-89.06C1461.19,-58.34 1506.93,-84.39 1659.5,-53 1662.53,-52.38 1665.61,-51.68 1668.71,-50.94"/>
<polygon fill="midnightblue" stroke="midnightblue" points="1303.3,-85.67 1294.18,-91.07 1304.67,-92.54 1303.3,-85.67"/>
</g>
<!-- Node5 -->
<g id="node5" class="node">
<title>Node5</title>
<g id="a_node5"><a xlink:href="local__client__endpoint__impl_8cpp.html" target="_top" xlink:title=" ">
<polygon fill="white" stroke="black" points="1155,-0.5 1155,-52.5 1298,-52.5 1298,-0.5 1155,-0.5"/>
<text text-anchor="start" x="1163" y="-40.5" font-family="Helvetica,sans-Serif" font-size="10.00">/home/kali/projects</text>
<text text-anchor="start" x="1163" y="-29.5" font-family="Helvetica,sans-Serif" font-size="10.00">/vsomeip/implementation</text>
<text text-anchor="start" x="1163" y="-18.5" font-family="Helvetica,sans-Serif" font-size="10.00">/endpoints/src/local_client</text>
<text text-anchor="middle" x="1226.5" y="-7.5" font-family="Helvetica,sans-Serif" font-size="10.00">_endpoint_impl.cpp</text>
</a>
</g>
</g>
<!-- Node3&#45;&gt;Node5 -->
<g id="edge4" class="edge">
<title>Node3&#45;&gt;Node5</title>
<path fill="none" stroke="midnightblue" d="M1223.53,-79.19C1224.04,-70.28 1224.58,-60.9 1225.06,-52.61"/>
<polygon fill="midnightblue" stroke="midnightblue" points="1220.03,-79.15 1222.95,-89.34 1227.01,-79.55 1220.03,-79.15"/>
</g>
<!-- Node6 -->
<g id="node6" class="node">
<title>Node6</title>
<g id="a_node6"><a xlink:href="routing__manager__base_8cpp.html" target="_top" xlink:title=" ">
<polygon fill="white" stroke="black" points="1316.5,-0.5 1316.5,-52.5 1474.5,-52.5 1474.5,-0.5 1316.5,-0.5"/>
<text text-anchor="start" x="1324.5" y="-40.5" font-family="Helvetica,sans-Serif" font-size="10.00">/home/kali/projects</text>
<text text-anchor="start" x="1324.5" y="-29.5" font-family="Helvetica,sans-Serif" font-size="10.00">/vsomeip/implementation</text>
<text text-anchor="start" x="1324.5" y="-18.5" font-family="Helvetica,sans-Serif" font-size="10.00">/routing/src/routing_manager</text>
<text text-anchor="middle" x="1395.5" y="-7.5" font-family="Helvetica,sans-Serif" font-size="10.00">_base.cpp</text>
</a>
</g>
</g>
<!-- Node3&#45;&gt;Node6 -->
<g id="edge5" class="edge">
<title>Node3&#45;&gt;Node6</title>
<path fill="none" stroke="midnightblue" d="M1280.95,-84.78C1301.88,-74.31 1325.19,-62.66 1345.29,-52.61"/>
<polygon fill="midnightblue" stroke="midnightblue" points="1279.21,-81.73 1271.83,-89.34 1282.34,-87.99 1279.21,-81.73"/>
</g>
<!-- Node7 -->
<g id="node7" class="node">
<title>Node7</title>
<g id="a_node7"><a xlink:href="routing__manager__impl_8cpp.html" target="_top" xlink:title=" ">
<polygon fill="white" stroke="black" points="322.5,-0.5 322.5,-52.5 480.5,-52.5 480.5,-0.5 322.5,-0.5"/>
<text text-anchor="start" x="330.5" y="-40.5" font-family="Helvetica,sans-Serif" font-size="10.00">/home/kali/projects</text>
<text text-anchor="start" x="330.5" y="-29.5" font-family="Helvetica,sans-Serif" font-size="10.00">/vsomeip/implementation</text>
<text text-anchor="start" x="330.5" y="-18.5" font-family="Helvetica,sans-Serif" font-size="10.00">/routing/src/routing_manager</text>
<text text-anchor="middle" x="401.5" y="-7.5" font-family="Helvetica,sans-Serif" font-size="10.00">_impl.cpp</text>
</a>
</g>
</g>
<!-- Node3&#45;&gt;Node7 -->
<g id="edge6" class="edge">
<title>Node3&#45;&gt;Node7</title>
<path fill="none" stroke="midnightblue" d="M1138.86,-105.04C1092.61,-99.92 1033.89,-93.7 981.5,-89 763.13,-69.41 705.3,-91.72 489.5,-53 486.68,-52.49 483.82,-51.93 480.95,-51.33"/>
<polygon fill="midnightblue" stroke="midnightblue" points="1138.5,-108.53 1148.83,-106.15 1139.28,-101.57 1138.5,-108.53"/>
</g>
<!-- Node8 -->
<g id="node8" class="node">
<title>Node8</title>
<g id="a_node8"><a xlink:href="routing__manager__proxy_8cpp.html" target="_top" xlink:title=" ">
<polygon fill="white" stroke="black" points="1492.5,-0.5 1492.5,-52.5 1650.5,-52.5 1650.5,-0.5 1492.5,-0.5"/>
<text text-anchor="start" x="1500.5" y="-40.5" font-family="Helvetica,sans-Serif" font-size="10.00">/home/kali/projects</text>
<text text-anchor="start" x="1500.5" y="-29.5" font-family="Helvetica,sans-Serif" font-size="10.00">/vsomeip/implementation</text>
<text text-anchor="start" x="1500.5" y="-18.5" font-family="Helvetica,sans-Serif" font-size="10.00">/routing/src/routing_manager</text>
<text text-anchor="middle" x="1571.5" y="-7.5" font-family="Helvetica,sans-Serif" font-size="10.00">_proxy.cpp</text>
</a>
</g>
</g>
<!-- Node3&#45;&gt;Node8 -->
<g id="edge7" class="edge">
<title>Node3&#45;&gt;Node8</title>
<path fill="none" stroke="midnightblue" d="M1304.31,-88.91C1384.34,-69.1 1407.34,-71.61 1483.5,-53 1486.44,-52.28 1489.42,-51.53 1492.43,-50.75"/>
<polygon fill="midnightblue" stroke="midnightblue" points="1303.11,-85.61 1294.27,-91.44 1304.82,-92.39 1303.11,-85.61"/>
</g>
<!-- Node9&#45;&gt;Node7 -->
<g id="edge11" class="edge">
<title>Node9&#45;&gt;Node7</title>
<path fill="none" stroke="midnightblue" d="M509.2,-84.64C489.54,-74.2 467.69,-62.61 448.83,-52.61"/>
<polygon fill="midnightblue" stroke="midnightblue" points="507.59,-87.74 518.06,-89.34 510.87,-81.56 507.59,-87.74"/>
</g>
<!-- Node10 -->
<g id="node10" class="node">
<title>Node10</title>
<g id="a_node10"><a xlink:href="endpoint__manager__impl_8cpp.html" target="_top" xlink:title=" ">
<polygon fill="white" stroke="black" points="499,-0.5 499,-52.5 642,-52.5 642,-0.5 499,-0.5"/>
<text text-anchor="start" x="507" y="-40.5" font-family="Helvetica,sans-Serif" font-size="10.00">/home/kali/projects</text>
<text text-anchor="start" x="507" y="-29.5" font-family="Helvetica,sans-Serif" font-size="10.00">/vsomeip/implementation</text>
<text text-anchor="start" x="507" y="-18.5" font-family="Helvetica,sans-Serif" font-size="10.00">/endpoints/src/endpoint</text>
<text text-anchor="middle" x="570.5" y="-7.5" font-family="Helvetica,sans-Serif" font-size="10.00">_manager_impl.cpp</text>
</a>
</g>
</g>
<!-- Node9&#45;&gt;Node10 -->
<g id="edge9" class="edge">
<title>Node9&#45;&gt;Node10</title>
<path fill="none" stroke="midnightblue" d="M567.53,-79.19C568.04,-70.28 568.58,-60.9 569.06,-52.61"/>
<polygon fill="midnightblue" stroke="midnightblue" points="564.03,-79.15 566.95,-89.34 571.01,-79.55 564.03,-79.15"/>
</g>
<!-- Node11 -->
<g id="node11" class="node">
<title>Node11</title>
<g id="a_node11"><a xlink:href="tcp__client__endpoint__impl_8cpp.html" target="_top" xlink:title=" ">
<polygon fill="white" stroke="black" points="161,-0.5 161,-52.5 304,-52.5 304,-0.5 161,-0.5"/>
<text text-anchor="start" x="169" y="-40.5" font-family="Helvetica,sans-Serif" font-size="10.00">/home/kali/projects</text>
<text text-anchor="start" x="169" y="-29.5" font-family="Helvetica,sans-Serif" font-size="10.00">/vsomeip/implementation</text>
<text text-anchor="start" x="169" y="-18.5" font-family="Helvetica,sans-Serif" font-size="10.00">/endpoints/src/tcp_client</text>
<text text-anchor="middle" x="232.5" y="-7.5" font-family="Helvetica,sans-Serif" font-size="10.00">_endpoint_impl.cpp</text>
</a>
</g>
</g>
<!-- Node9&#45;&gt;Node11 -->
<g id="edge10" class="edge">
<title>Node9&#45;&gt;Node11</title>
<path fill="none" stroke="midnightblue" d="M482.7,-88.9C406.99,-69.73 385.13,-71.81 313.5,-53 310.51,-52.21 307.46,-51.38 304.38,-50.53"/>
<polygon fill="midnightblue" stroke="midnightblue" points="482.17,-92.38 492.72,-91.48 483.91,-85.6 482.17,-92.38"/>
</g>
<!-- Node12&#45;&gt;Node7 -->
<g id="edge15" class="edge">
<title>Node12&#45;&gt;Node7</title>
<path fill="none" stroke="midnightblue" d="M402.09,-79.19C401.99,-70.28 401.88,-60.9 401.79,-52.61"/>
<polygon fill="midnightblue" stroke="midnightblue" points="398.6,-79.38 402.21,-89.34 405.6,-79.3 398.6,-79.38"/>
</g>
<!-- Node12&#45;&gt;Node10 -->
<g id="edge13" class="edge">
<title>Node12&#45;&gt;Node10</title>
<path fill="none" stroke="midnightblue" d="M460.17,-84.64C480.31,-74.2 502.7,-62.61 522.02,-52.61"/>
<polygon fill="midnightblue" stroke="midnightblue" points="458.36,-81.63 451.09,-89.34 461.58,-87.85 458.36,-81.63"/>
</g>
<!-- Node12&#45;&gt;Node13 -->
<g id="edge14" class="edge">
<title>Node12&#45;&gt;Node13</title>
<path fill="none" stroke="midnightblue" d="M319.76,-88.92C244.43,-69.79 222.69,-71.88 151.5,-53 148.82,-52.29 146.1,-51.54 143.36,-50.77"/>
<polygon fill="midnightblue" stroke="midnightblue" points="319.16,-92.38 329.72,-91.49 320.91,-85.6 319.16,-92.38"/>
</g>
<!-- Node16 -->
<g id="node16" class="node">
<title>Node16</title>
<g id="a_node16"><a xlink:href="local__server__endpoint__impl_8hpp.html" target="_top" xlink:title=" ">
<polygon fill="white" stroke="black" points="1497,-89.5 1497,-141.5 1646,-141.5 1646,-89.5 1497,-89.5"/>
<text text-anchor="start" x="1505" y="-129.5" font-family="Helvetica,sans-Serif" font-size="10.00">/home/kali/projects</text>
<text text-anchor="start" x="1505" y="-118.5" font-family="Helvetica,sans-Serif" font-size="10.00">/vsomeip/implementation</text>
<text text-anchor="start" x="1505" y="-107.5" font-family="Helvetica,sans-Serif" font-size="10.00">/endpoints/include/local</text>
<text text-anchor="middle" x="1571.5" y="-96.5" font-family="Helvetica,sans-Serif" font-size="10.00">_server_endpoint_impl.hpp</text>
</a>
</g>
</g>
<!-- Node15&#45;&gt;Node16 -->
<g id="edge18" class="edge">
<title>Node15&#45;&gt;Node16</title>
<path fill="none" stroke="midnightblue" d="M982.36,-184.59C995.08,-182.1 1008.11,-179.79 1020.5,-178 1226.98,-148.25 1283.54,-180.87 1488.5,-142 1491.17,-141.49 1493.87,-140.93 1496.59,-140.33"/>
<polygon fill="midnightblue" stroke="midnightblue" points="981.35,-181.23 972.24,-186.63 982.74,-188.09 981.35,-181.23"/>
</g>
<!-- Node19 -->
<g id="node19" class="node">
<title>Node19</title>
<g id="a_node19"><a xlink:href="tcp__server__endpoint__impl_8hpp.html" target="_top" xlink:title=" ">
<polygon fill="white" stroke="black" points="657,-89.5 657,-141.5 806,-141.5 806,-89.5 657,-89.5"/>
<text text-anchor="start" x="665" y="-129.5" font-family="Helvetica,sans-Serif" font-size="10.00">/home/kali/projects</text>
<text text-anchor="start" x="665" y="-118.5" font-family="Helvetica,sans-Serif" font-size="10.00">/vsomeip/implementation</text>
<text text-anchor="start" x="665" y="-107.5" font-family="Helvetica,sans-Serif" font-size="10.00">/endpoints/include/tcp</text>
<text text-anchor="middle" x="731.5" y="-96.5" font-family="Helvetica,sans-Serif" font-size="10.00">_server_endpoint_impl.hpp</text>
</a>
</g>
</g>
<!-- Node15&#45;&gt;Node19 -->
<g id="edge26" class="edge">
<title>Node15&#45;&gt;Node19</title>
<path fill="none" stroke="midnightblue" d="M842.49,-173.64C822.23,-163.2 799.7,-151.61 780.27,-141.61"/>
<polygon fill="midnightblue" stroke="midnightblue" points="841.13,-176.87 851.62,-178.34 844.33,-170.65 841.13,-176.87"/>
</g>
<!-- Node22 -->
<g id="node22" class="node">
<title>Node22</title>
<g id="a_node22"><a xlink:href="udp__server__endpoint__impl_8hpp.html" target="_top" xlink:title=" ">
<polygon fill="white" stroke="black" points="824,-89.5 824,-141.5 973,-141.5 973,-89.5 824,-89.5"/>
<text text-anchor="start" x="832" y="-129.5" font-family="Helvetica,sans-Serif" font-size="10.00">/home/kali/projects</text>
<text text-anchor="start" x="832" y="-118.5" font-family="Helvetica,sans-Serif" font-size="10.00">/vsomeip/implementation</text>
<text text-anchor="start" x="832" y="-107.5" font-family="Helvetica,sans-Serif" font-size="10.00">/endpoints/include/udp</text>
<text text-anchor="middle" x="898.5" y="-96.5" font-family="Helvetica,sans-Serif" font-size="10.00">_server_endpoint_impl.hpp</text>
</a>
</g>
</g>
<!-- Node15&#45;&gt;Node22 -->
<g id="edge31" class="edge">
<title>Node15&#45;&gt;Node22</title>
<path fill="none" stroke="midnightblue" d="M899.69,-168.19C899.48,-159.28 899.27,-149.9 899.08,-141.61"/>
<polygon fill="midnightblue" stroke="midnightblue" points="896.19,-168.42 899.92,-178.34 903.19,-168.26 896.19,-168.42"/>
</g>
<!-- Node24 -->
<g id="node24" class="node">
<title>Node24</title>
<g id="a_node24"><a xlink:href="server__endpoint__impl_8cpp.html" target="_top" xlink:title=" ">
<polygon fill="white" stroke="black" points="1312,-89.5 1312,-141.5 1479,-141.5 1479,-89.5 1312,-89.5"/>
<text text-anchor="start" x="1320" y="-129.5" font-family="Helvetica,sans-Serif" font-size="10.00">/home/kali/projects</text>
<text text-anchor="start" x="1320" y="-118.5" font-family="Helvetica,sans-Serif" font-size="10.00">/vsomeip/implementation</text>
<text text-anchor="start" x="1320" y="-107.5" font-family="Helvetica,sans-Serif" font-size="10.00">/endpoints/src/server_endpoint</text>
<text text-anchor="middle" x="1395.5" y="-96.5" font-family="Helvetica,sans-Serif" font-size="10.00">_impl.cpp</text>
</a>
</g>
</g>
<!-- Node15&#45;&gt;Node24 -->
<g id="edge36" class="edge">
<title>Node15&#45;&gt;Node24</title>
<path fill="none" stroke="midnightblue" d="M982.19,-185.19C994.98,-182.6 1008.07,-180.11 1020.5,-178 1145.51,-156.8 1179.2,-167 1303.5,-142 1306.26,-141.44 1309.06,-140.85 1311.89,-140.23"/>
<polygon fill="midnightblue" stroke="midnightblue" points="981.11,-181.84 972.02,-187.29 982.52,-188.7 981.11,-181.84"/>
</g>
<!-- Node16&#45;&gt;Node4 -->
<g id="edge19" class="edge">
<title>Node16&#45;&gt;Node4</title>
<path fill="none" stroke="midnightblue" d="M1629.51,-84.64C1649.77,-74.2 1672.3,-62.61 1691.73,-52.61"/>
<polygon fill="midnightblue" stroke="midnightblue" points="1627.67,-81.65 1620.38,-89.34 1630.87,-87.87 1627.67,-81.65"/>
</g>
<!-- Node16&#45;&gt;Node5 -->
<g id="edge21" class="edge">
<title>Node16&#45;&gt;Node5</title>
<path fill="none" stroke="midnightblue" d="M1486.93,-88.71C1407.17,-69.24 1383.85,-72.55 1307.5,-53 1304.5,-52.23 1301.45,-51.42 1298.37,-50.57"/>
<polygon fill="midnightblue" stroke="midnightblue" points="1486.4,-92.19 1496.94,-91.2 1488.08,-85.39 1486.4,-92.19"/>
</g>
<!-- Node16&#45;&gt;Node6 -->
<g id="edge23" class="edge">
<title>Node16&#45;&gt;Node6</title>
<path fill="none" stroke="midnightblue" d="M1511.37,-84.78C1490.19,-74.31 1466.62,-62.66 1446.29,-52.61"/>
<polygon fill="midnightblue" stroke="midnightblue" points="1510.08,-88.04 1520.59,-89.34 1513.18,-81.77 1510.08,-88.04"/>
</g>
<!-- Node16&#45;&gt;Node8 -->
<g id="edge24" class="edge">
<title>Node16&#45;&gt;Node8</title>
<path fill="none" stroke="midnightblue" d="M1571.5,-79.19C1571.5,-70.28 1571.5,-60.9 1571.5,-52.61"/>
<polygon fill="midnightblue" stroke="midnightblue" points="1568,-79.34 1571.5,-89.34 1575,-79.34 1568,-79.34"/>
</g>
<!-- Node16&#45;&gt;Node10 -->
<g id="edge20" class="edge">
<title>Node16&#45;&gt;Node10</title>
<path fill="none" stroke="midnightblue" d="M1486.5,-88.84C1119.23,-27.4 1014.23,-117.59 650.5,-53 647.77,-52.52 645.01,-51.96 642.23,-51.35"/>
<polygon fill="midnightblue" stroke="midnightblue" points="1486.16,-92.33 1496.61,-90.55 1487.33,-85.43 1486.16,-92.33"/>
</g>
<!-- Node17 -->
<g id="node17" class="node">
<title>Node17</title>
<g id="a_node17"><a xlink:href="local__server__endpoint__impl_8cpp.html" target="_top" xlink:title=" ">
<polygon fill="white" stroke="black" points="2007,-0.5 2007,-52.5 2154,-52.5 2154,-0.5 2007,-0.5"/>
<text text-anchor="start" x="2015" y="-40.5" font-family="Helvetica,sans-Serif" font-size="10.00">/home/kali/projects</text>
<text text-anchor="start" x="2015" y="-29.5" font-family="Helvetica,sans-Serif" font-size="10.00">/vsomeip/implementation</text>
<text text-anchor="start" x="2015" y="-18.5" font-family="Helvetica,sans-Serif" font-size="10.00">/endpoints/src/local_server</text>
<text text-anchor="middle" x="2080.5" y="-7.5" font-family="Helvetica,sans-Serif" font-size="10.00">_endpoint_impl.cpp</text>
</a>
</g>
</g>
<!-- Node16&#45;&gt;Node17 -->
<g id="edge22" class="edge">
<title>Node16&#45;&gt;Node17</title>
<path fill="none" stroke="midnightblue" d="M1656.04,-106.2C1742.5,-96.8 1880.37,-79.28 1997.5,-53 2000.59,-52.31 2003.73,-51.56 2006.89,-50.76"/>
<polygon fill="midnightblue" stroke="midnightblue" points="1655.58,-102.73 1646.01,-107.28 1656.33,-109.69 1655.58,-102.73"/>
</g>
<!-- Node18 -->
<g id="node18" class="node">
<title>Node18</title>
<g id="a_node18"><a xlink:href="routing__manager__stub_8cpp.html" target="_top" xlink:title=" ">
<polygon fill="white" stroke="black" points="1830.5,-0.5 1830.5,-52.5 1988.5,-52.5 1988.5,-0.5 1830.5,-0.5"/>
<text text-anchor="start" x="1838.5" y="-40.5" font-family="Helvetica,sans-Serif" font-size="10.00">/home/kali/projects</text>
<text text-anchor="start" x="1838.5" y="-29.5" font-family="Helvetica,sans-Serif" font-size="10.00">/vsomeip/implementation</text>
<text text-anchor="start" x="1838.5" y="-18.5" font-family="Helvetica,sans-Serif" font-size="10.00">/routing/src/routing_manager</text>
<text text-anchor="middle" x="1909.5" y="-7.5" font-family="Helvetica,sans-Serif" font-size="10.00">_stub.cpp</text>
</a>
</g>
</g>
<!-- Node16&#45;&gt;Node18 -->
<g id="edge25" class="edge">
<title>Node16&#45;&gt;Node18</title>
<path fill="none" stroke="midnightblue" d="M1655.93,-94.64C1704.48,-82.99 1766.57,-67.71 1821.5,-53 1824.42,-52.22 1827.39,-51.41 1830.39,-50.59"/>
<polygon fill="midnightblue" stroke="midnightblue" points="1655,-91.26 1646.09,-96.99 1656.63,-98.07 1655,-91.26"/>
</g>
<!-- Node19&#45;&gt;Node7 -->
<g id="edge29" class="edge">
<title>Node19&#45;&gt;Node7</title>
<path fill="none" stroke="midnightblue" d="M647.14,-89.17C646.93,-89.11 646.71,-89.06 646.5,-89 577.29,-70.7 558.8,-70.97 489.5,-53 486.57,-52.24 483.6,-51.45 480.6,-50.65"/>
<polygon fill="midnightblue" stroke="midnightblue" points="646.38,-92.59 656.95,-91.83 648.21,-85.83 646.38,-92.59"/>
</g>
<!-- Node19&#45;&gt;Node10 -->
<g id="edge27" class="edge">
<title>Node19&#45;&gt;Node10</title>
<path fill="none" stroke="midnightblue" d="M675.97,-84.49C656.74,-74.1 635.39,-62.57 616.96,-52.61"/>
<polygon fill="midnightblue" stroke="midnightblue" points="674.47,-87.66 684.93,-89.34 677.8,-81.5 674.47,-87.66"/>
</g>
<!-- Node20 -->
<g id="node20" class="node">
<title>Node20</title>
<g id="a_node20"><a xlink:href="tcp__server__endpoint__impl_8cpp.html" target="_top" xlink:title=" ">
<polygon fill="white" stroke="black" points="660,-0.5 660,-52.5 803,-52.5 803,-0.5 660,-0.5"/>
<text text-anchor="start" x="668" y="-40.5" font-family="Helvetica,sans-Serif" font-size="10.00">/home/kali/projects</text>
<text text-anchor="start" x="668" y="-29.5" font-family="Helvetica,sans-Serif" font-size="10.00">/vsomeip/implementation</text>
<text text-anchor="start" x="668" y="-18.5" font-family="Helvetica,sans-Serif" font-size="10.00">/endpoints/src/tcp_server</text>
<text text-anchor="middle" x="731.5" y="-7.5" font-family="Helvetica,sans-Serif" font-size="10.00">_endpoint_impl.cpp</text>
</a>
</g>
</g>
<!-- Node19&#45;&gt;Node20 -->
<g id="edge28" class="edge">
<title>Node19&#45;&gt;Node20</title>
<path fill="none" stroke="midnightblue" d="M731.5,-79.19C731.5,-70.28 731.5,-60.9 731.5,-52.61"/>
<polygon fill="midnightblue" stroke="midnightblue" points="728,-79.34 731.5,-89.34 735,-79.34 728,-79.34"/>
</g>
<!-- Node21 -->
<g id="node21" class="node">
<title>Node21</title>
<g id="a_node21"><a xlink:href="service__discovery__impl_8cpp.html" target="_top" xlink:title=" ">
<polygon fill="white" stroke="black" points="821,-0.5 821,-52.5 976,-52.5 976,-0.5 821,-0.5"/>
<text text-anchor="start" x="829" y="-40.5" font-family="Helvetica,sans-Serif" font-size="10.00">/home/kali/projects</text>
<text text-anchor="start" x="829" y="-29.5" font-family="Helvetica,sans-Serif" font-size="10.00">/vsomeip/implementation</text>
<text text-anchor="start" x="829" y="-18.5" font-family="Helvetica,sans-Serif" font-size="10.00">/service_discovery/src</text>
<text text-anchor="middle" x="898.5" y="-7.5" font-family="Helvetica,sans-Serif" font-size="10.00">/service_discovery_impl.cpp</text>
</a>
</g>
</g>
<!-- Node19&#45;&gt;Node21 -->
<g id="edge30" class="edge">
<title>Node19&#45;&gt;Node21</title>
<path fill="none" stroke="midnightblue" d="M788.83,-84.64C808.85,-74.2 831.1,-62.61 850.31,-52.61"/>
<polygon fill="midnightblue" stroke="midnightblue" points="787.05,-81.61 779.8,-89.34 790.29,-87.82 787.05,-81.61"/>
</g>
<!-- Node22&#45;&gt;Node7 -->
<g id="edge34" class="edge">
<title>Node22&#45;&gt;Node7</title>
<path fill="none" stroke="midnightblue" d="M813.53,-88.98C670.29,-60.71 628.84,-80.69 489.5,-53 486.69,-52.44 483.84,-51.84 480.97,-51.19"/>
<polygon fill="midnightblue" stroke="midnightblue" points="813.08,-92.46 823.57,-91.01 814.46,-85.6 813.08,-92.46"/>
</g>
<!-- Node22&#45;&gt;Node10 -->
<g id="edge32" class="edge">
<title>Node22&#45;&gt;Node10</title>
<path fill="none" stroke="midnightblue" d="M814.19,-89.02C740.59,-70.29 719.62,-71.56 650.5,-53 647.83,-52.28 645.11,-51.53 642.37,-50.75"/>
<polygon fill="midnightblue" stroke="midnightblue" points="813.37,-92.42 823.93,-91.53 815.12,-85.64 813.37,-92.42"/>
</g>
<!-- Node22&#45;&gt;Node21 -->
<g id="edge35" class="edge">
<title>Node22&#45;&gt;Node21</title>
<path fill="none" stroke="midnightblue" d="M898.5,-79.19C898.5,-70.28 898.5,-60.9 898.5,-52.61"/>
<polygon fill="midnightblue" stroke="midnightblue" points="895,-79.34 898.5,-89.34 902,-79.34 895,-79.34"/>
</g>
<!-- Node22&#45;&gt;Node23 -->
<g id="edge33" class="edge">
<title>Node22&#45;&gt;Node23</title>
<path fill="none" stroke="midnightblue" d="M955.83,-84.64C975.85,-74.2 998.1,-62.61 1017.31,-52.61"/>
<polygon fill="midnightblue" stroke="midnightblue" points="954.05,-81.61 946.8,-89.34 957.29,-87.82 954.05,-81.61"/>
</g>
</g>
</svg>
