<?xml version="1.0" encoding="UTF-8" standalone="no"?>
<!DOCTYPE svg PUBLIC "-//W3C//DTD SVG 1.1//EN"
 "http://www.w3.org/Graphics/SVG/1.1/DTD/svg11.dtd">
<!-- Generated by graphviz version 2.43.0 (0)
 -->
<!-- Title: /home/kali/projects/vsomeip/implementation/endpoints/include/tp.hpp Pages: 1 -->
<svg width="1068pt" height="173pt"
 viewBox="0.00 0.00 1067.50 173.00" xmlns="http://www.w3.org/2000/svg" xmlns:xlink="http://www.w3.org/1999/xlink">
<g id="graph0" class="graph" transform="scale(1 1) rotate(0) translate(4 169)">
<title>/home/kali/projects/vsomeip/implementation/endpoints/include/tp.hpp</title>
<polygon fill="white" stroke="transparent" points="-4,4 -4,-169 1063.5,-169 1063.5,4 -4,4"/>
<!-- Node1 -->
<g id="node1" class="node">
<title>Node1</title>
<g id="a_node1"><a xlink:title=" ">
<polygon fill="#bfbfbf" stroke="black" points="109.5,-123.5 109.5,-164.5 252.5,-164.5 252.5,-123.5 109.5,-123.5"/>
<text text-anchor="start" x="117.5" y="-152.5" font-family="Helvetica,sans-Serif" font-size="10.00">/home/kali/projects</text>
<text text-anchor="start" x="117.5" y="-141.5" font-family="Helvetica,sans-Serif" font-size="10.00">/vsomeip/implementation</text>
<text text-anchor="middle" x="181" y="-130.5" font-family="Helvetica,sans-Serif" font-size="10.00">/endpoints/include/tp.hpp</text>
</a>
</g>
</g>
<!-- Node2 -->
<g id="node2" class="node">
<title>Node2</title>
<g id="a_node2"><a xlink:title=" ">
<polygon fill="white" stroke="#bfbfbf" points="0,-62 0,-81 50,-81 50,-62 0,-62"/>
<text text-anchor="middle" x="25" y="-69" font-family="Helvetica,sans-Serif" font-size="10.00">cstdint</text>
</a>
</g>
</g>
<!-- Node1&#45;&gt;Node2 -->
<g id="edge1" class="edge">
<title>Node1&#45;&gt;Node2</title>
<path fill="none" stroke="midnightblue" d="M137.55,-123.36C110.72,-111.24 77.07,-96.03 53.59,-85.42"/>
<polygon fill="midnightblue" stroke="midnightblue" points="54.75,-82.1 44.19,-81.17 51.86,-88.48 54.75,-82.1"/>
</g>
<!-- Node3 -->
<g id="node3" class="node">
<title>Node3</title>
<g id="a_node3"><a xlink:title=" ">
<polygon fill="white" stroke="#bfbfbf" points="68.5,-62 68.5,-81 115.5,-81 115.5,-62 68.5,-62"/>
<text text-anchor="middle" x="92" y="-69" font-family="Helvetica,sans-Serif" font-size="10.00">vector</text>
</a>
</g>
</g>
<!-- Node1&#45;&gt;Node3 -->
<g id="edge2" class="edge">
<title>Node1&#45;&gt;Node3</title>
<path fill="none" stroke="midnightblue" d="M156.21,-123.36C141.86,-112 124.09,-97.92 110.89,-87.46"/>
<polygon fill="midnightblue" stroke="midnightblue" points="112.96,-84.64 102.95,-81.17 108.61,-90.13 112.96,-84.64"/>
</g>
<!-- Node4 -->
<g id="node4" class="node">
<title>Node4</title>
<g id="a_node4"><a xlink:title=" ">
<polygon fill="white" stroke="#bfbfbf" points="133.5,-62 133.5,-81 178.5,-81 178.5,-62 133.5,-62"/>
<text text-anchor="middle" x="156" y="-69" font-family="Helvetica,sans-Serif" font-size="10.00">utility</text>
</a>
</g>
</g>
<!-- Node1&#45;&gt;Node4 -->
<g id="edge3" class="edge">
<title>Node1&#45;&gt;Node4</title>
<path fill="none" stroke="midnightblue" d="M174.04,-123.36C170.43,-113.19 166.05,-100.84 162.51,-90.86"/>
<polygon fill="midnightblue" stroke="midnightblue" points="165.72,-89.43 159.08,-81.17 159.12,-91.77 165.72,-89.43"/>
</g>
<!-- Node5 -->
<g id="node5" class="node">
<title>Node5</title>
<g id="a_node5"><a xlink:title=" ">
<polygon fill="white" stroke="#bfbfbf" points="178,-0.5 178,-19.5 236,-19.5 236,-0.5 178,-0.5"/>
<text text-anchor="middle" x="207" y="-7.5" font-family="Helvetica,sans-Serif" font-size="10.00">memory</text>
</a>
</g>
</g>
<!-- Node1&#45;&gt;Node5 -->
<g id="edge4" class="edge">
<title>Node1&#45;&gt;Node5</title>
<path fill="none" stroke="midnightblue" d="M184.89,-123.24C189.88,-97.92 198.46,-54.35 203.34,-29.6"/>
<polygon fill="midnightblue" stroke="midnightblue" points="206.79,-30.17 205.29,-19.69 199.92,-28.82 206.79,-30.17"/>
</g>
<!-- Node6 -->
<g id="node6" class="node">
<title>Node6</title>
<g id="a_node6"><a xlink:title=" ">
<polygon fill="white" stroke="#bfbfbf" points="235,-56.5 235,-86.5 359,-86.5 359,-56.5 235,-56.5"/>
<text text-anchor="start" x="243" y="-74.5" font-family="Helvetica,sans-Serif" font-size="10.00">vsomeip/enumeration</text>
<text text-anchor="middle" x="297" y="-63.5" font-family="Helvetica,sans-Serif" font-size="10.00">_types.hpp</text>
</a>
</g>
</g>
<!-- Node1&#45;&gt;Node6 -->
<g id="edge5" class="edge">
<title>Node1&#45;&gt;Node6</title>
<path fill="none" stroke="midnightblue" d="M213.31,-123.36C229.49,-113.53 249.01,-101.67 265.12,-91.87"/>
<polygon fill="midnightblue" stroke="midnightblue" points="266.96,-94.85 273.68,-86.67 263.32,-88.87 266.96,-94.85"/>
</g>
<!-- Node7 -->
<g id="node7" class="node">
<title>Node7</title>
<g id="a_node7"><a xlink:href="endpoints_2include_2buffer_8hpp.html" target="_top" xlink:title=" ">
<polygon fill="white" stroke="black" points="377.5,-62 377.5,-81 442.5,-81 442.5,-62 377.5,-62"/>
<text text-anchor="middle" x="410" y="-69" font-family="Helvetica,sans-Serif" font-size="10.00">buffer.hpp</text>
</a>
</g>
</g>
<!-- Node1&#45;&gt;Node7 -->
<g id="edge6" class="edge">
<title>Node1&#45;&gt;Node7</title>
<path fill="none" stroke="midnightblue" d="M248.72,-123.45C284.33,-112.99 328.65,-99.68 368,-87 370.6,-86.16 373.27,-85.28 375.96,-84.38"/>
<polygon fill="midnightblue" stroke="midnightblue" points="377.28,-87.63 385.63,-81.11 375.03,-81 377.28,-87.63"/>
</g>
<!-- Node7&#45;&gt;Node5 -->
<g id="edge9" class="edge">
<title>Node7&#45;&gt;Node5</title>
<path fill="none" stroke="midnightblue" d="M386.09,-61.97C380.2,-59.94 373.89,-57.84 368,-56 326.75,-43.13 279.02,-30.01 246.31,-21.28"/>
<polygon fill="midnightblue" stroke="midnightblue" points="246.8,-17.79 236.24,-18.61 245.01,-24.56 246.8,-17.79"/>
</g>
<!-- Node8 -->
<g id="node8" class="node">
<title>Node8</title>
<g id="a_node8"><a xlink:title=" ">
<polygon fill="white" stroke="#bfbfbf" points="254,-0.5 254,-19.5 296,-19.5 296,-0.5 254,-0.5"/>
<text text-anchor="middle" x="275" y="-7.5" font-family="Helvetica,sans-Serif" font-size="10.00">array</text>
</a>
</g>
</g>
<!-- Node7&#45;&gt;Node8 -->
<g id="edge7" class="edge">
<title>Node7&#45;&gt;Node8</title>
<path fill="none" stroke="midnightblue" d="M390.66,-61.98C367.9,-51.95 329.91,-35.2 303.71,-23.65"/>
<polygon fill="midnightblue" stroke="midnightblue" points="304.87,-20.34 294.31,-19.51 302.05,-26.74 304.87,-20.34"/>
</g>
<!-- Node9 -->
<g id="node9" class="node">
<title>Node9</title>
<g id="a_node9"><a xlink:title=" ">
<polygon fill="white" stroke="#bfbfbf" points="314,-0.5 314,-19.5 364,-19.5 364,-0.5 314,-0.5"/>
<text text-anchor="middle" x="339" y="-7.5" font-family="Helvetica,sans-Serif" font-size="10.00">chrono</text>
</a>
</g>
</g>
<!-- Node7&#45;&gt;Node9 -->
<g id="edge8" class="edge">
<title>Node7&#45;&gt;Node9</title>
<path fill="none" stroke="midnightblue" d="M399.83,-61.98C388.65,-52.61 370.48,-37.38 356.91,-26.01"/>
<polygon fill="midnightblue" stroke="midnightblue" points="359.07,-23.25 349.15,-19.51 354.57,-28.61 359.07,-23.25"/>
</g>
<!-- Node10 -->
<g id="node10" class="node">
<title>Node10</title>
<g id="a_node10"><a xlink:title=" ">
<polygon fill="white" stroke="#bfbfbf" points="382,-0.5 382,-19.5 414,-19.5 414,-0.5 382,-0.5"/>
<text text-anchor="middle" x="398" y="-7.5" font-family="Helvetica,sans-Serif" font-size="10.00">set</text>
</a>
</g>
</g>
<!-- Node7&#45;&gt;Node10 -->
<g id="edge10" class="edge">
<title>Node7&#45;&gt;Node10</title>
<path fill="none" stroke="midnightblue" d="M408.28,-61.98C406.57,-53.49 403.89,-40.2 401.7,-29.32"/>
<polygon fill="midnightblue" stroke="midnightblue" points="405.12,-28.62 399.72,-19.51 398.26,-30 405.12,-28.62"/>
</g>
<!-- Node11 -->
<g id="node11" class="node">
<title>Node11</title>
<g id="a_node11"><a xlink:title=" ">
<polygon fill="white" stroke="#bfbfbf" points="432,-0.5 432,-19.5 572,-19.5 572,-0.5 432,-0.5"/>
<text text-anchor="middle" x="502" y="-7.5" font-family="Helvetica,sans-Serif" font-size="10.00">boost/asio/io_service.hpp</text>
</a>
</g>
</g>
<!-- Node7&#45;&gt;Node11 -->
<g id="edge11" class="edge">
<title>Node7&#45;&gt;Node11</title>
<path fill="none" stroke="midnightblue" d="M423.18,-61.98C438.07,-52.34 462.54,-36.52 480.27,-25.05"/>
<polygon fill="midnightblue" stroke="midnightblue" points="482.35,-27.88 488.84,-19.51 478.55,-22 482.35,-27.88"/>
</g>
<!-- Node12 -->
<g id="node12" class="node">
<title>Node12</title>
<g id="a_node12"><a xlink:title=" ">
<polygon fill="white" stroke="#bfbfbf" points="590.5,-0.5 590.5,-19.5 745.5,-19.5 745.5,-0.5 590.5,-0.5"/>
<text text-anchor="middle" x="668" y="-7.5" font-family="Helvetica,sans-Serif" font-size="10.00">boost/asio/steady_timer.hpp</text>
</a>
</g>
</g>
<!-- Node7&#45;&gt;Node12 -->
<g id="edge12" class="edge">
<title>Node7&#45;&gt;Node12</title>
<path fill="none" stroke="midnightblue" d="M442.68,-62.96C487.8,-52.56 569.47,-33.72 621.1,-21.82"/>
<polygon fill="midnightblue" stroke="midnightblue" points="622.05,-25.19 631.01,-19.53 620.48,-18.37 622.05,-25.19"/>
</g>
<!-- Node13 -->
<g id="node13" class="node">
<title>Node13</title>
<g id="a_node13"><a xlink:title=" ">
<polygon fill="white" stroke="#bfbfbf" points="764,-0.5 764,-19.5 882,-19.5 882,-0.5 764,-0.5"/>
<text text-anchor="middle" x="823" y="-7.5" font-family="Helvetica,sans-Serif" font-size="10.00">vsomeip/defines.hpp</text>
</a>
</g>
</g>
<!-- Node7&#45;&gt;Node13 -->
<g id="edge13" class="edge">
<title>Node7&#45;&gt;Node13</title>
<path fill="none" stroke="midnightblue" d="M442.75,-65.78C509.71,-56.13 663.55,-33.97 753.69,-20.98"/>
<polygon fill="midnightblue" stroke="midnightblue" points="754.42,-24.42 763.82,-19.53 753.43,-17.49 754.42,-24.42"/>
</g>
<!-- Node14 -->
<g id="node14" class="node">
<title>Node14</title>
<g id="a_node14"><a xlink:title=" ">
<polygon fill="white" stroke="#bfbfbf" points="900.5,-0.5 900.5,-19.5 1059.5,-19.5 1059.5,-0.5 900.5,-0.5"/>
<text text-anchor="middle" x="980" y="-7.5" font-family="Helvetica,sans-Serif" font-size="10.00">vsomeip/primitive_types.hpp</text>
</a>
</g>
</g>
<!-- Node7&#45;&gt;Node14 -->
<g id="edge14" class="edge">
<title>Node7&#45;&gt;Node14</title>
<path fill="none" stroke="midnightblue" d="M442.69,-67.09C528.2,-58.16 760.77,-33.88 890.14,-20.38"/>
<polygon fill="midnightblue" stroke="midnightblue" points="890.84,-23.83 900.42,-19.31 890.11,-16.86 890.84,-23.83"/>
</g>
</g>
</svg>
