<?xml version="1.0" encoding="UTF-8" standalone="no"?>
<!DOCTYPE svg PUBLIC "-//W3C//DTD SVG 1.1//EN"
 "http://www.w3.org/Graphics/SVG/1.1/DTD/svg11.dtd">
<!-- Generated by graphviz version 2.43.0 (0)
 -->
<!-- Title: /home/kali/projects/vsomeip/implementation/endpoints/include/tp_message.hpp Pages: 1 -->
<svg width="889pt" height="173pt"
 viewBox="0.00 0.00 888.50 173.00" xmlns="http://www.w3.org/2000/svg" xmlns:xlink="http://www.w3.org/1999/xlink">
<g id="graph0" class="graph" transform="scale(1 1) rotate(0) translate(4 169)">
<title>/home/kali/projects/vsomeip/implementation/endpoints/include/tp_message.hpp</title>
<polygon fill="white" stroke="transparent" points="-4,4 -4,-169 884.5,-169 884.5,4 -4,4"/>
<!-- Node1 -->
<g id="node1" class="node">
<title>Node1</title>
<g id="a_node1"><a xlink:title=" ">
<polygon fill="#bfbfbf" stroke="black" points="102.5,-123.5 102.5,-164.5 291.5,-164.5 291.5,-123.5 102.5,-123.5"/>
<text text-anchor="start" x="110.5" y="-152.5" font-family="Helvetica,sans-Serif" font-size="10.00">/home/kali/projects</text>
<text text-anchor="start" x="110.5" y="-141.5" font-family="Helvetica,sans-Serif" font-size="10.00">/vsomeip/implementation</text>
<text text-anchor="middle" x="197" y="-130.5" font-family="Helvetica,sans-Serif" font-size="10.00">/endpoints/include/tp_message.hpp</text>
</a>
</g>
</g>
<!-- Node2 -->
<g id="node2" class="node">
<title>Node2</title>
<g id="a_node2"><a xlink:title=" ">
<polygon fill="white" stroke="#bfbfbf" points="0,-0.5 0,-19.5 32,-19.5 32,-0.5 0,-0.5"/>
<text text-anchor="middle" x="16" y="-7.5" font-family="Helvetica,sans-Serif" font-size="10.00">set</text>
</a>
</g>
</g>
<!-- Node1&#45;&gt;Node2 -->
<g id="edge1" class="edge">
<title>Node1&#45;&gt;Node2</title>
<path fill="none" stroke="midnightblue" d="M166.7,-123.25C150.83,-112.74 131.18,-99.44 114,-87 85.74,-66.54 54,-41.54 34.5,-25.94"/>
<polygon fill="midnightblue" stroke="midnightblue" points="36.69,-23.2 26.7,-19.67 32.3,-28.66 36.69,-23.2"/>
</g>
<!-- Node3 -->
<g id="node3" class="node">
<title>Node3</title>
<g id="a_node3"><a xlink:title=" ">
<polygon fill="white" stroke="#bfbfbf" points="50,-0.5 50,-19.5 100,-19.5 100,-0.5 50,-0.5"/>
<text text-anchor="middle" x="75" y="-7.5" font-family="Helvetica,sans-Serif" font-size="10.00">chrono</text>
</a>
</g>
</g>
<!-- Node1&#45;&gt;Node3 -->
<g id="edge2" class="edge">
<title>Node1&#45;&gt;Node3</title>
<path fill="none" stroke="midnightblue" d="M178.74,-123.24C154.59,-97.12 112.51,-51.58 90.08,-27.31"/>
<polygon fill="midnightblue" stroke="midnightblue" points="92.39,-24.65 83.03,-19.69 87.24,-29.4 92.39,-24.65"/>
</g>
<!-- Node4 -->
<g id="node4" class="node">
<title>Node4</title>
<g id="a_node4"><a xlink:title=" ">
<polygon fill="white" stroke="#bfbfbf" points="117.5,-0.5 117.5,-19.5 276.5,-19.5 276.5,-0.5 117.5,-0.5"/>
<text text-anchor="middle" x="197" y="-7.5" font-family="Helvetica,sans-Serif" font-size="10.00">vsomeip/primitive_types.hpp</text>
</a>
</g>
</g>
<!-- Node1&#45;&gt;Node4 -->
<g id="edge3" class="edge">
<title>Node1&#45;&gt;Node4</title>
<path fill="none" stroke="midnightblue" d="M197,-123.24C197,-98.03 197,-54.74 197,-29.93"/>
<polygon fill="midnightblue" stroke="midnightblue" points="200.5,-29.69 197,-19.69 193.5,-29.69 200.5,-29.69"/>
</g>
<!-- Node5 -->
<g id="node5" class="node">
<title>Node5</title>
<g id="a_node5"><a xlink:title=" ">
<polygon fill="white" stroke="#bfbfbf" points="357,-56.5 357,-86.5 481,-86.5 481,-56.5 357,-56.5"/>
<text text-anchor="start" x="365" y="-74.5" font-family="Helvetica,sans-Serif" font-size="10.00">vsomeip/enumeration</text>
<text text-anchor="middle" x="419" y="-63.5" font-family="Helvetica,sans-Serif" font-size="10.00">_types.hpp</text>
</a>
</g>
</g>
<!-- Node1&#45;&gt;Node5 -->
<g id="edge4" class="edge">
<title>Node1&#45;&gt;Node5</title>
<path fill="none" stroke="midnightblue" d="M258.54,-123.46C291.92,-112.86 332.79,-99.88 364.93,-89.67"/>
<polygon fill="midnightblue" stroke="midnightblue" points="366.14,-92.96 374.61,-86.6 364.02,-86.29 366.14,-92.96"/>
</g>
<!-- Node6 -->
<g id="node6" class="node">
<title>Node6</title>
<g id="a_node6"><a xlink:href="endpoints_2include_2buffer_8hpp.html" target="_top" xlink:title=" ">
<polygon fill="white" stroke="black" points="273.5,-62 273.5,-81 338.5,-81 338.5,-62 273.5,-62"/>
<text text-anchor="middle" x="306" y="-69" font-family="Helvetica,sans-Serif" font-size="10.00">buffer.hpp</text>
</a>
</g>
</g>
<!-- Node1&#45;&gt;Node6 -->
<g id="edge5" class="edge">
<title>Node1&#45;&gt;Node6</title>
<path fill="none" stroke="midnightblue" d="M227.36,-123.36C245.27,-111.78 267.53,-97.39 283.79,-86.87"/>
<polygon fill="midnightblue" stroke="midnightblue" points="286.09,-89.54 292.59,-81.17 282.29,-83.67 286.09,-89.54"/>
</g>
<!-- Node6&#45;&gt;Node2 -->
<g id="edge9" class="edge">
<title>Node6&#45;&gt;Node2</title>
<path fill="none" stroke="midnightblue" d="M273.4,-65.98C224.79,-58.87 130.39,-43.66 41.69,-19.83"/>
<polygon fill="midnightblue" stroke="midnightblue" points="42.59,-16.44 32.02,-17.19 40.74,-23.2 42.59,-16.44"/>
</g>
<!-- Node6&#45;&gt;Node3 -->
<g id="edge7" class="edge">
<title>Node6&#45;&gt;Node3</title>
<path fill="none" stroke="midnightblue" d="M273.21,-62.18C236.01,-52.72 173.25,-36.7 109.99,-20.24"/>
<polygon fill="midnightblue" stroke="midnightblue" points="110.8,-16.84 100.25,-17.71 109.04,-23.61 110.8,-16.84"/>
</g>
<!-- Node6&#45;&gt;Node4 -->
<g id="edge13" class="edge">
<title>Node6&#45;&gt;Node4</title>
<path fill="none" stroke="midnightblue" d="M290.38,-61.98C272.41,-52.17 242.68,-35.93 221.59,-24.42"/>
<polygon fill="midnightblue" stroke="midnightblue" points="223.04,-21.23 212.59,-19.51 219.69,-27.37 223.04,-21.23"/>
</g>
<!-- Node7 -->
<g id="node7" class="node">
<title>Node7</title>
<g id="a_node7"><a xlink:title=" ">
<polygon fill="white" stroke="#bfbfbf" points="431,-0.5 431,-19.5 473,-19.5 473,-0.5 431,-0.5"/>
<text text-anchor="middle" x="452" y="-7.5" font-family="Helvetica,sans-Serif" font-size="10.00">array</text>
</a>
</g>
</g>
<!-- Node6&#45;&gt;Node7 -->
<g id="edge6" class="edge">
<title>Node6&#45;&gt;Node7</title>
<path fill="none" stroke="midnightblue" d="M326.92,-61.98C351.75,-51.86 393.34,-34.9 421.69,-23.35"/>
<polygon fill="midnightblue" stroke="midnightblue" points="423.18,-26.52 431.12,-19.51 420.54,-20.04 423.18,-26.52"/>
</g>
<!-- Node8 -->
<g id="node8" class="node">
<title>Node8</title>
<g id="a_node8"><a xlink:title=" ">
<polygon fill="white" stroke="#bfbfbf" points="491,-0.5 491,-19.5 549,-19.5 549,-0.5 491,-0.5"/>
<text text-anchor="middle" x="520" y="-7.5" font-family="Helvetica,sans-Serif" font-size="10.00">memory</text>
</a>
</g>
</g>
<!-- Node6&#45;&gt;Node8 -->
<g id="edge8" class="edge">
<title>Node6&#45;&gt;Node8</title>
<path fill="none" stroke="midnightblue" d="M329.88,-61.9C335.78,-59.88 342.09,-57.79 348,-56 393.3,-42.28 446.05,-28.85 481.07,-20.28"/>
<polygon fill="midnightblue" stroke="midnightblue" points="482.01,-23.66 490.9,-17.89 480.36,-16.85 482.01,-23.66"/>
</g>
<!-- Node9 -->
<g id="node9" class="node">
<title>Node9</title>
<g id="a_node9"><a xlink:title=" ">
<polygon fill="white" stroke="#bfbfbf" points="567,-0.5 567,-19.5 707,-19.5 707,-0.5 567,-0.5"/>
<text text-anchor="middle" x="637" y="-7.5" font-family="Helvetica,sans-Serif" font-size="10.00">boost/asio/io_service.hpp</text>
</a>
</g>
</g>
<!-- Node6&#45;&gt;Node9 -->
<g id="edge10" class="edge">
<title>Node6&#45;&gt;Node9</title>
<path fill="none" stroke="midnightblue" d="M328.45,-61.93C334.71,-59.76 341.56,-57.6 348,-56 387.63,-46.16 491.54,-30.92 563.32,-20.95"/>
<polygon fill="midnightblue" stroke="midnightblue" points="564.24,-24.36 573.66,-19.52 563.28,-17.42 564.24,-24.36"/>
</g>
<!-- Node10 -->
<g id="node10" class="node">
<title>Node10</title>
<g id="a_node10"><a xlink:title=" ">
<polygon fill="white" stroke="#bfbfbf" points="725.5,-0.5 725.5,-19.5 880.5,-19.5 880.5,-0.5 725.5,-0.5"/>
<text text-anchor="middle" x="803" y="-7.5" font-family="Helvetica,sans-Serif" font-size="10.00">boost/asio/steady_timer.hpp</text>
</a>
</g>
</g>
<!-- Node6&#45;&gt;Node10 -->
<g id="edge11" class="edge">
<title>Node6&#45;&gt;Node10</title>
<path fill="none" stroke="midnightblue" d="M327.52,-61.98C334.01,-59.71 341.22,-57.48 348,-56 505.42,-21.63 550.73,-35.87 715.24,-20.05"/>
<polygon fill="midnightblue" stroke="midnightblue" points="715.6,-23.53 725.21,-19.07 714.92,-16.56 715.6,-23.53"/>
</g>
<!-- Node11 -->
<g id="node11" class="node">
<title>Node11</title>
<g id="a_node11"><a xlink:title=" ">
<polygon fill="white" stroke="#bfbfbf" points="295,-0.5 295,-19.5 413,-19.5 413,-0.5 295,-0.5"/>
<text text-anchor="middle" x="354" y="-7.5" font-family="Helvetica,sans-Serif" font-size="10.00">vsomeip/defines.hpp</text>
</a>
</g>
</g>
<!-- Node6&#45;&gt;Node11 -->
<g id="edge12" class="edge">
<title>Node6&#45;&gt;Node11</title>
<path fill="none" stroke="midnightblue" d="M312.88,-61.98C320.15,-52.96 331.8,-38.52 340.84,-27.31"/>
<polygon fill="midnightblue" stroke="midnightblue" points="343.58,-29.49 347.14,-19.51 338.13,-25.09 343.58,-29.49"/>
</g>
</g>
</svg>
