<?xml version="1.0" encoding="UTF-8" standalone="no"?>
<!DOCTYPE svg PUBLIC "-//W3C//DTD SVG 1.1//EN"
 "http://www.w3.org/Graphics/SVG/1.1/DTD/svg11.dtd">
<!-- Generated by graphviz version 2.43.0 (0)
 -->
<!-- Title: /home/kali/projects/vsomeip/implementation/endpoints/include/tp_reassembler.hpp Pages: 1 -->
<svg width="823pt" height="228pt"
 viewBox="0.00 0.00 823.00 228.00" xmlns="http://www.w3.org/2000/svg" xmlns:xlink="http://www.w3.org/1999/xlink">
<g id="graph0" class="graph" transform="scale(1 1) rotate(0) translate(4 224)">
<title>/home/kali/projects/vsomeip/implementation/endpoints/include/tp_reassembler.hpp</title>
<polygon fill="white" stroke="transparent" points="-4,4 -4,-224 819,-224 819,4 -4,4"/>
<!-- Node1 -->
<g id="node1" class="node">
<title>Node1</title>
<g id="a_node1"><a xlink:title=" ">
<polygon fill="#bfbfbf" stroke="black" points="307,-178.5 307,-219.5 512,-219.5 512,-178.5 307,-178.5"/>
<text text-anchor="start" x="315" y="-207.5" font-family="Helvetica,sans-Serif" font-size="10.00">/home/kali/projects</text>
<text text-anchor="start" x="315" y="-196.5" font-family="Helvetica,sans-Serif" font-size="10.00">/vsomeip/implementation</text>
<text text-anchor="middle" x="409.5" y="-185.5" font-family="Helvetica,sans-Serif" font-size="10.00">/endpoints/include/tp_reassembler.hpp</text>
</a>
</g>
</g>
<!-- Node2 -->
<g id="node2" class="node">
<title>Node2</title>
<g id="a_node2"><a xlink:href="udp__client__endpoint__impl_8hpp.html" target="_top" xlink:title=" ">
<polygon fill="white" stroke="black" points="170,-89.5 170,-141.5 315,-141.5 315,-89.5 170,-89.5"/>
<text text-anchor="start" x="178" y="-129.5" font-family="Helvetica,sans-Serif" font-size="10.00">/home/kali/projects</text>
<text text-anchor="start" x="178" y="-118.5" font-family="Helvetica,sans-Serif" font-size="10.00">/vsomeip/implementation</text>
<text text-anchor="start" x="178" y="-107.5" font-family="Helvetica,sans-Serif" font-size="10.00">/endpoints/include/udp</text>
<text text-anchor="middle" x="242.5" y="-96.5" font-family="Helvetica,sans-Serif" font-size="10.00">_client_endpoint_impl.hpp</text>
</a>
</g>
</g>
<!-- Node1&#45;&gt;Node2 -->
<g id="edge1" class="edge">
<title>Node1&#45;&gt;Node2</title>
<path fill="none" stroke="midnightblue" d="M360.46,-174.07C339.52,-163.85 315.07,-151.92 293.88,-141.58"/>
<polygon fill="midnightblue" stroke="midnightblue" points="358.98,-177.24 369.5,-178.48 362.05,-170.95 358.98,-177.24"/>
</g>
<!-- Node6 -->
<g id="node6" class="node">
<title>Node6</title>
<g id="a_node6"><a xlink:href="udp__server__endpoint__impl_8hpp.html" target="_top" xlink:title=" ">
<polygon fill="white" stroke="black" points="335,-89.5 335,-141.5 484,-141.5 484,-89.5 335,-89.5"/>
<text text-anchor="start" x="343" y="-129.5" font-family="Helvetica,sans-Serif" font-size="10.00">/home/kali/projects</text>
<text text-anchor="start" x="343" y="-118.5" font-family="Helvetica,sans-Serif" font-size="10.00">/vsomeip/implementation</text>
<text text-anchor="start" x="343" y="-107.5" font-family="Helvetica,sans-Serif" font-size="10.00">/endpoints/include/udp</text>
<text text-anchor="middle" x="409.5" y="-96.5" font-family="Helvetica,sans-Serif" font-size="10.00">_server_endpoint_impl.hpp</text>
</a>
</g>
</g>
<!-- Node1&#45;&gt;Node6 -->
<g id="edge5" class="edge">
<title>Node1&#45;&gt;Node6</title>
<path fill="none" stroke="midnightblue" d="M409.5,-168.12C409.5,-159.41 409.5,-149.99 409.5,-141.61"/>
<polygon fill="midnightblue" stroke="midnightblue" points="406,-168.27 409.5,-178.27 413,-168.27 406,-168.27"/>
</g>
<!-- Node9 -->
<g id="node9" class="node">
<title>Node9</title>
<g id="a_node9"><a xlink:href="tp__reassembler_8cpp.html" target="_top" xlink:title=" ">
<polygon fill="white" stroke="black" points="502,-95 502,-136 685,-136 685,-95 502,-95"/>
<text text-anchor="start" x="510" y="-124" font-family="Helvetica,sans-Serif" font-size="10.00">/home/kali/projects</text>
<text text-anchor="start" x="510" y="-113" font-family="Helvetica,sans-Serif" font-size="10.00">/vsomeip/implementation</text>
<text text-anchor="middle" x="593.5" y="-102" font-family="Helvetica,sans-Serif" font-size="10.00">/endpoints/src/tp_reassembler.cpp</text>
</a>
</g>
</g>
<!-- Node1&#45;&gt;Node9 -->
<g id="edge10" class="edge">
<title>Node1&#45;&gt;Node9</title>
<path fill="none" stroke="midnightblue" d="M463.03,-174.29C490.48,-162.13 523.51,-147.5 549.47,-136"/>
<polygon fill="midnightblue" stroke="midnightblue" points="461.3,-171.23 453.57,-178.48 464.13,-177.63 461.3,-171.23"/>
</g>
<!-- Node3 -->
<g id="node3" class="node">
<title>Node3</title>
<g id="a_node3"><a xlink:href="endpoint__manager__impl_8cpp.html" target="_top" xlink:title=" ">
<polygon fill="white" stroke="black" points="338,-0.5 338,-52.5 481,-52.5 481,-0.5 338,-0.5"/>
<text text-anchor="start" x="346" y="-40.5" font-family="Helvetica,sans-Serif" font-size="10.00">/home/kali/projects</text>
<text text-anchor="start" x="346" y="-29.5" font-family="Helvetica,sans-Serif" font-size="10.00">/vsomeip/implementation</text>
<text text-anchor="start" x="346" y="-18.5" font-family="Helvetica,sans-Serif" font-size="10.00">/endpoints/src/endpoint</text>
<text text-anchor="middle" x="409.5" y="-7.5" font-family="Helvetica,sans-Serif" font-size="10.00">_manager_impl.cpp</text>
</a>
</g>
</g>
<!-- Node2&#45;&gt;Node3 -->
<g id="edge2" class="edge">
<title>Node2&#45;&gt;Node3</title>
<path fill="none" stroke="midnightblue" d="M299.83,-84.64C319.85,-74.2 342.1,-62.61 361.31,-52.61"/>
<polygon fill="midnightblue" stroke="midnightblue" points="298.05,-81.61 290.8,-89.34 301.29,-87.82 298.05,-81.61"/>
</g>
<!-- Node4 -->
<g id="node4" class="node">
<title>Node4</title>
<g id="a_node4"><a xlink:href="udp__client__endpoint__impl_8cpp.html" target="_top" xlink:title=" ">
<polygon fill="white" stroke="black" points="0,-0.5 0,-52.5 143,-52.5 143,-0.5 0,-0.5"/>
<text text-anchor="start" x="8" y="-40.5" font-family="Helvetica,sans-Serif" font-size="10.00">/home/kali/projects</text>
<text text-anchor="start" x="8" y="-29.5" font-family="Helvetica,sans-Serif" font-size="10.00">/vsomeip/implementation</text>
<text text-anchor="start" x="8" y="-18.5" font-family="Helvetica,sans-Serif" font-size="10.00">/endpoints/src/udp_client</text>
<text text-anchor="middle" x="71.5" y="-7.5" font-family="Helvetica,sans-Serif" font-size="10.00">_endpoint_impl.cpp</text>
</a>
</g>
</g>
<!-- Node2&#45;&gt;Node4 -->
<g id="edge3" class="edge">
<title>Node2&#45;&gt;Node4</title>
<path fill="none" stroke="midnightblue" d="M184.08,-84.78C163.5,-74.31 140.6,-62.66 120.85,-52.61"/>
<polygon fill="midnightblue" stroke="midnightblue" points="182.54,-87.92 193.04,-89.34 185.71,-81.68 182.54,-87.92"/>
</g>
<!-- Node5 -->
<g id="node5" class="node">
<title>Node5</title>
<g id="a_node5"><a xlink:href="routing__manager__impl_8cpp.html" target="_top" xlink:title=" ">
<polygon fill="white" stroke="black" points="161.5,-0.5 161.5,-52.5 319.5,-52.5 319.5,-0.5 161.5,-0.5"/>
<text text-anchor="start" x="169.5" y="-40.5" font-family="Helvetica,sans-Serif" font-size="10.00">/home/kali/projects</text>
<text text-anchor="start" x="169.5" y="-29.5" font-family="Helvetica,sans-Serif" font-size="10.00">/vsomeip/implementation</text>
<text text-anchor="start" x="169.5" y="-18.5" font-family="Helvetica,sans-Serif" font-size="10.00">/routing/src/routing_manager</text>
<text text-anchor="middle" x="240.5" y="-7.5" font-family="Helvetica,sans-Serif" font-size="10.00">_impl.cpp</text>
</a>
</g>
</g>
<!-- Node2&#45;&gt;Node5 -->
<g id="edge4" class="edge">
<title>Node2&#45;&gt;Node5</title>
<path fill="none" stroke="midnightblue" d="M241.69,-79.19C241.48,-70.28 241.27,-60.9 241.08,-52.61"/>
<polygon fill="midnightblue" stroke="midnightblue" points="238.19,-79.42 241.92,-89.34 245.19,-79.26 238.19,-79.42"/>
</g>
<!-- Node6&#45;&gt;Node3 -->
<g id="edge6" class="edge">
<title>Node6&#45;&gt;Node3</title>
<path fill="none" stroke="midnightblue" d="M409.5,-79.19C409.5,-70.28 409.5,-60.9 409.5,-52.61"/>
<polygon fill="midnightblue" stroke="midnightblue" points="406,-79.34 409.5,-89.34 413,-79.34 406,-79.34"/>
</g>
<!-- Node6&#45;&gt;Node5 -->
<g id="edge8" class="edge">
<title>Node6&#45;&gt;Node5</title>
<path fill="none" stroke="midnightblue" d="M351.49,-84.64C331.23,-74.2 308.7,-62.61 289.27,-52.61"/>
<polygon fill="midnightblue" stroke="midnightblue" points="350.13,-87.87 360.62,-89.34 353.33,-81.65 350.13,-87.87"/>
</g>
<!-- Node7 -->
<g id="node7" class="node">
<title>Node7</title>
<g id="a_node7"><a xlink:href="udp__server__endpoint__impl_8cpp.html" target="_top" xlink:title=" ">
<polygon fill="white" stroke="black" points="672,-0.5 672,-52.5 815,-52.5 815,-0.5 672,-0.5"/>
<text text-anchor="start" x="680" y="-40.5" font-family="Helvetica,sans-Serif" font-size="10.00">/home/kali/projects</text>
<text text-anchor="start" x="680" y="-29.5" font-family="Helvetica,sans-Serif" font-size="10.00">/vsomeip/implementation</text>
<text text-anchor="start" x="680" y="-18.5" font-family="Helvetica,sans-Serif" font-size="10.00">/endpoints/src/udp_server</text>
<text text-anchor="middle" x="743.5" y="-7.5" font-family="Helvetica,sans-Serif" font-size="10.00">_endpoint_impl.cpp</text>
</a>
</g>
</g>
<!-- Node6&#45;&gt;Node7 -->
<g id="edge7" class="edge">
<title>Node6&#45;&gt;Node7</title>
<path fill="none" stroke="midnightblue" d="M494.11,-88.95C570.07,-69.97 591.9,-71.94 663.5,-53 666.18,-52.29 668.9,-51.55 671.64,-50.78"/>
<polygon fill="midnightblue" stroke="midnightblue" points="492.89,-85.65 484.06,-91.5 494.61,-92.43 492.89,-85.65"/>
</g>
<!-- Node8 -->
<g id="node8" class="node">
<title>Node8</title>
<g id="a_node8"><a xlink:href="service__discovery__impl_8cpp.html" target="_top" xlink:title=" ">
<polygon fill="white" stroke="black" points="499,-0.5 499,-52.5 654,-52.5 654,-0.5 499,-0.5"/>
<text text-anchor="start" x="507" y="-40.5" font-family="Helvetica,sans-Serif" font-size="10.00">/home/kali/projects</text>
<text text-anchor="start" x="507" y="-29.5" font-family="Helvetica,sans-Serif" font-size="10.00">/vsomeip/implementation</text>
<text text-anchor="start" x="507" y="-18.5" font-family="Helvetica,sans-Serif" font-size="10.00">/service_discovery/src</text>
<text text-anchor="middle" x="576.5" y="-7.5" font-family="Helvetica,sans-Serif" font-size="10.00">/service_discovery_impl.cpp</text>
</a>
</g>
</g>
<!-- Node6&#45;&gt;Node8 -->
<g id="edge9" class="edge">
<title>Node6&#45;&gt;Node8</title>
<path fill="none" stroke="midnightblue" d="M466.83,-84.64C486.85,-74.2 509.1,-62.61 528.31,-52.61"/>
<polygon fill="midnightblue" stroke="midnightblue" points="465.05,-81.61 457.8,-89.34 468.29,-87.82 465.05,-81.61"/>
</g>
</g>
</svg>
