<?xml version="1.0" encoding="UTF-8" standalone="no"?>
<!DOCTYPE svg PUBLIC "-//W3C//DTD SVG 1.1//EN"
 "http://www.w3.org/Graphics/SVG/1.1/DTD/svg11.dtd">
<!-- Generated by graphviz version 2.43.0 (0)
 -->
<!-- Title: /home/kali/projects/vsomeip/implementation/endpoints/src/tp_reassembler.cpp Pages: 1 -->
<svg width="1618pt" height="296pt"
 viewBox="0.00 0.00 1617.50 296.00" xmlns="http://www.w3.org/2000/svg" xmlns:xlink="http://www.w3.org/1999/xlink">
<g id="graph0" class="graph" transform="scale(1 1) rotate(0) translate(4 292)">
<title>/home/kali/projects/vsomeip/implementation/endpoints/src/tp_reassembler.cpp</title>
<polygon fill="white" stroke="transparent" points="-4,4 -4,-292 1613.5,-292 1613.5,4 -4,4"/>
<!-- Node1 -->
<g id="node1" class="node">
<title>Node1</title>
<g id="a_node1"><a xlink:title=" ">
<polygon fill="#bfbfbf" stroke="black" points="670.5,-246.5 670.5,-287.5 853.5,-287.5 853.5,-246.5 670.5,-246.5"/>
<text text-anchor="start" x="678.5" y="-275.5" font-family="Helvetica,sans-Serif" font-size="10.00">/home/kali/projects</text>
<text text-anchor="start" x="678.5" y="-264.5" font-family="Helvetica,sans-Serif" font-size="10.00">/vsomeip/implementation</text>
<text text-anchor="middle" x="762" y="-253.5" font-family="Helvetica,sans-Serif" font-size="10.00">/endpoints/src/tp_reassembler.cpp</text>
</a>
</g>
</g>
<!-- Node2 -->
<g id="node2" class="node">
<title>Node2</title>
<g id="a_node2"><a xlink:title=" ">
<polygon fill="white" stroke="#bfbfbf" points="0,-185 0,-204 56,-204 56,-185 0,-185"/>
<text text-anchor="middle" x="28" y="-192" font-family="Helvetica,sans-Serif" font-size="10.00">iomanip</text>
</a>
</g>
</g>
<!-- Node1&#45;&gt;Node2 -->
<g id="edge1" class="edge">
<title>Node1&#45;&gt;Node2</title>
<path fill="none" stroke="midnightblue" d="M670.27,-261.97C508.18,-254.29 177.59,-235.99 65,-210 62.16,-209.35 59.26,-208.51 56.38,-207.58"/>
<polygon fill="midnightblue" stroke="midnightblue" points="57.46,-204.25 46.86,-204.12 55.07,-210.83 57.46,-204.25"/>
</g>
<!-- Node3 -->
<g id="node3" class="node">
<title>Node3</title>
<g id="a_node3"><a xlink:href="tp__reassembler_8hpp.html" target="_top" xlink:title=" ">
<polygon fill="white" stroke="black" points="487,-185 487,-204 647,-204 647,-185 487,-185"/>
<text text-anchor="middle" x="567" y="-192" font-family="Helvetica,sans-Serif" font-size="10.00">../include/tp_reassembler.hpp</text>
</a>
</g>
</g>
<!-- Node1&#45;&gt;Node3 -->
<g id="edge2" class="edge">
<title>Node1&#45;&gt;Node3</title>
<path fill="none" stroke="midnightblue" d="M707.94,-246.46C673.31,-233.93 629.48,-218.09 599.97,-207.42"/>
<polygon fill="midnightblue" stroke="midnightblue" points="601.14,-204.12 590.55,-204.01 598.76,-210.7 601.14,-204.12"/>
</g>
<!-- Node15 -->
<g id="node15" class="node">
<title>Node15</title>
<g id="a_node15"><a xlink:title=" ">
<polygon fill="white" stroke="#bfbfbf" points="122,-56.5 122,-86.5 246,-86.5 246,-56.5 122,-56.5"/>
<text text-anchor="start" x="130" y="-74.5" font-family="Helvetica,sans-Serif" font-size="10.00">vsomeip/enumeration</text>
<text text-anchor="middle" x="184" y="-63.5" font-family="Helvetica,sans-Serif" font-size="10.00">_types.hpp</text>
</a>
</g>
</g>
<!-- Node1&#45;&gt;Node15 -->
<g id="edge26" class="edge">
<title>Node1&#45;&gt;Node15</title>
<path fill="none" stroke="midnightblue" d="M670.34,-254.22C571.52,-238.85 411.63,-206.12 287,-143 259.09,-128.86 229.9,-108.25 209.75,-92.96"/>
<polygon fill="midnightblue" stroke="midnightblue" points="211.76,-90.09 201.7,-86.77 207.49,-95.64 211.76,-90.09"/>
</g>
<!-- Node18 -->
<g id="node18" class="node">
<title>Node18</title>
<g id="a_node18"><a xlink:title=" ">
<polygon fill="white" stroke="#bfbfbf" points="724,-0.5 724,-19.5 842,-19.5 842,-0.5 724,-0.5"/>
<text text-anchor="middle" x="783" y="-7.5" font-family="Helvetica,sans-Serif" font-size="10.00">vsomeip/defines.hpp</text>
</a>
</g>
</g>
<!-- Node1&#45;&gt;Node18 -->
<g id="edge25" class="edge">
<title>Node1&#45;&gt;Node18</title>
<path fill="none" stroke="midnightblue" d="M853.79,-264.32C1026.09,-258.97 1387.28,-236.59 1461,-143 1466.5,-136.02 1466.75,-129.78 1461,-123 1421.76,-76.75 1017,-33.3 852.22,-17.39"/>
<polygon fill="midnightblue" stroke="midnightblue" points="852.48,-13.9 842.19,-16.43 851.81,-20.87 852.48,-13.9"/>
</g>
<!-- Node19 -->
<g id="node19" class="node">
<title>Node19</title>
<g id="a_node19"><a xlink:href="logger_8hpp.html" target="_top" xlink:title=" ">
<polygon fill="white" stroke="black" points="1020.5,-185 1020.5,-204 1173.5,-204 1173.5,-185 1020.5,-185"/>
<text text-anchor="middle" x="1097" y="-192" font-family="Helvetica,sans-Serif" font-size="10.00">vsomeip/internal/logger.hpp</text>
</a>
</g>
</g>
<!-- Node1&#45;&gt;Node19 -->
<g id="edge27" class="edge">
<title>Node1&#45;&gt;Node19</title>
<path fill="none" stroke="midnightblue" d="M853.54,-246.74C915.65,-233.66 995.45,-216.87 1046.42,-206.14"/>
<polygon fill="midnightblue" stroke="midnightblue" points="1047.15,-209.57 1056.22,-204.08 1045.71,-202.72 1047.15,-209.57"/>
</g>
<!-- Node24 -->
<g id="node24" class="node">
<title>Node24</title>
<g id="a_node24"><a xlink:href="tp_8hpp.html" target="_top" xlink:title=" ">
<polygon fill="white" stroke="black" points="74.5,-185 74.5,-204 169.5,-204 169.5,-185 74.5,-185"/>
<text text-anchor="middle" x="122" y="-192" font-family="Helvetica,sans-Serif" font-size="10.00">../include/tp.hpp</text>
</a>
</g>
</g>
<!-- Node1&#45;&gt;Node24 -->
<g id="edge35" class="edge">
<title>Node1&#45;&gt;Node24</title>
<path fill="none" stroke="midnightblue" d="M670.41,-260.9C556.03,-253.67 354.6,-238.09 184,-210 177.77,-208.97 171.24,-207.69 164.85,-206.3"/>
<polygon fill="midnightblue" stroke="midnightblue" points="165.5,-202.86 154.98,-204.07 163.96,-209.69 165.5,-202.86"/>
</g>
<!-- Node27 -->
<g id="node27" class="node">
<title>Node27</title>
<g id="a_node27"><a xlink:href="byteorder_8hpp.html" target="_top" xlink:title=" ">
<polygon fill="white" stroke="black" points="1508.5,-179.5 1508.5,-209.5 1609.5,-209.5 1609.5,-179.5 1508.5,-179.5"/>
<text text-anchor="start" x="1516.5" y="-197.5" font-family="Helvetica,sans-Serif" font-size="10.00">../../utility/include</text>
<text text-anchor="middle" x="1559" y="-186.5" font-family="Helvetica,sans-Serif" font-size="10.00">/byteorder.hpp</text>
</a>
</g>
</g>
<!-- Node1&#45;&gt;Node27 -->
<g id="edge42" class="edge">
<title>Node1&#45;&gt;Node27</title>
<path fill="none" stroke="midnightblue" d="M853.77,-263.19C992.88,-257.99 1265.2,-244.09 1494,-210 1495.47,-209.78 1496.95,-209.55 1498.44,-209.3"/>
<polygon fill="midnightblue" stroke="midnightblue" points="1499.16,-212.73 1508.39,-207.53 1497.93,-205.84 1499.16,-212.73"/>
</g>
<!-- Node28 -->
<g id="node28" class="node">
<title>Node28</title>
<g id="a_node28"><a xlink:href="internal_8hpp.html" target="_top" xlink:title=" ">
<polygon fill="white" stroke="black" points="846,-179.5 846,-209.5 962,-209.5 962,-179.5 846,-179.5"/>
<text text-anchor="start" x="854" y="-197.5" font-family="Helvetica,sans-Serif" font-size="10.00">../../configuration</text>
<text text-anchor="middle" x="904" y="-186.5" font-family="Helvetica,sans-Serif" font-size="10.00">/include/internal.hpp</text>
</a>
</g>
</g>
<!-- Node1&#45;&gt;Node28 -->
<g id="edge43" class="edge">
<title>Node1&#45;&gt;Node28</title>
<path fill="none" stroke="midnightblue" d="M801.55,-246.36C821.82,-236.3 846.36,-224.12 866.34,-214.2"/>
<polygon fill="midnightblue" stroke="midnightblue" points="868.06,-217.25 875.46,-209.67 864.95,-210.98 868.06,-217.25"/>
</g>
<!-- Node4 -->
<g id="node4" class="node">
<title>Node4</title>
<g id="a_node4"><a xlink:title=" ">
<polygon fill="white" stroke="#bfbfbf" points="748,-123.5 748,-142.5 798,-142.5 798,-123.5 748,-123.5"/>
<text text-anchor="middle" x="773" y="-130.5" font-family="Helvetica,sans-Serif" font-size="10.00">cstdint</text>
</a>
</g>
</g>
<!-- Node3&#45;&gt;Node4 -->
<g id="edge3" class="edge">
<title>Node3&#45;&gt;Node4</title>
<path fill="none" stroke="midnightblue" d="M596.51,-184.98C633.87,-174.19 698.13,-155.62 737.94,-144.13"/>
<polygon fill="midnightblue" stroke="midnightblue" points="739.12,-147.43 747.75,-141.29 737.17,-140.71 739.12,-147.43"/>
</g>
<!-- Node5 -->
<g id="node5" class="node">
<title>Node5</title>
<g id="a_node5"><a xlink:title=" ">
<polygon fill="white" stroke="#bfbfbf" points="494,-123.5 494,-142.5 532,-142.5 532,-123.5 494,-123.5"/>
<text text-anchor="middle" x="513" y="-130.5" font-family="Helvetica,sans-Serif" font-size="10.00">map</text>
</a>
</g>
</g>
<!-- Node3&#45;&gt;Node5 -->
<g id="edge4" class="edge">
<title>Node3&#45;&gt;Node5</title>
<path fill="none" stroke="midnightblue" d="M559.26,-184.98C551,-175.87 537.72,-161.24 527.51,-149.98"/>
<polygon fill="midnightblue" stroke="midnightblue" points="530.03,-147.56 520.72,-142.51 524.85,-152.27 530.03,-147.56"/>
</g>
<!-- Node6 -->
<g id="node6" class="node">
<title>Node6</title>
<g id="a_node6"><a xlink:title=" ">
<polygon fill="white" stroke="#bfbfbf" points="816,-123.5 816,-142.5 864,-142.5 864,-123.5 816,-123.5"/>
<text text-anchor="middle" x="840" y="-130.5" font-family="Helvetica,sans-Serif" font-size="10.00">mutex</text>
</a>
</g>
</g>
<!-- Node3&#45;&gt;Node6 -->
<g id="edge5" class="edge">
<title>Node3&#45;&gt;Node6</title>
<path fill="none" stroke="midnightblue" d="M611.41,-184.97C657.64,-175.91 732.35,-160.76 805.98,-143.14"/>
<polygon fill="midnightblue" stroke="midnightblue" points="806.99,-146.5 815.89,-140.75 805.35,-139.69 806.99,-146.5"/>
</g>
<!-- Node7 -->
<g id="node7" class="node">
<title>Node7</title>
<g id="a_node7"><a xlink:title=" ">
<polygon fill="white" stroke="#bfbfbf" points="106,-0.5 106,-19.5 164,-19.5 164,-0.5 106,-0.5"/>
<text text-anchor="middle" x="135" y="-7.5" font-family="Helvetica,sans-Serif" font-size="10.00">memory</text>
</a>
</g>
</g>
<!-- Node3&#45;&gt;Node7 -->
<g id="edge6" class="edge">
<title>Node3&#45;&gt;Node7</title>
<path fill="none" stroke="midnightblue" d="M488.65,-184.98C424.05,-176.72 338.56,-162.56 310,-143 272.26,-117.15 290.49,-84.87 255,-56 242.17,-45.56 203.76,-32.07 173.81,-22.59"/>
<polygon fill="midnightblue" stroke="midnightblue" points="174.62,-19.17 164.03,-19.54 172.54,-25.86 174.62,-19.17"/>
</g>
<!-- Node8 -->
<g id="node8" class="node">
<title>Node8</title>
<g id="a_node8"><a xlink:title=" ">
<polygon fill="white" stroke="#bfbfbf" points="550.5,-123.5 550.5,-142.5 691.5,-142.5 691.5,-123.5 550.5,-123.5"/>
<text text-anchor="middle" x="621" y="-130.5" font-family="Helvetica,sans-Serif" font-size="10.00">boost/asio/ip/address.hpp</text>
</a>
</g>
</g>
<!-- Node3&#45;&gt;Node8 -->
<g id="edge7" class="edge">
<title>Node3&#45;&gt;Node8</title>
<path fill="none" stroke="midnightblue" d="M574.74,-184.98C583,-175.87 596.28,-161.24 606.49,-149.98"/>
<polygon fill="midnightblue" stroke="midnightblue" points="609.15,-152.27 613.28,-142.51 603.97,-147.56 609.15,-152.27"/>
</g>
<!-- Node9 -->
<g id="node9" class="node">
<title>Node9</title>
<g id="a_node9"><a xlink:title=" ">
<polygon fill="white" stroke="#bfbfbf" points="182,-0.5 182,-19.5 322,-19.5 322,-0.5 182,-0.5"/>
<text text-anchor="middle" x="252" y="-7.5" font-family="Helvetica,sans-Serif" font-size="10.00">boost/asio/io_service.hpp</text>
</a>
</g>
</g>
<!-- Node3&#45;&gt;Node9 -->
<g id="edge8" class="edge">
<title>Node3&#45;&gt;Node9</title>
<path fill="none" stroke="midnightblue" d="M494.54,-184.99C434.88,-176.74 356.17,-162.59 331,-143 296.96,-116.51 311.16,-92.38 288,-56 281.62,-45.98 273.41,-35.57 266.45,-27.29"/>
<polygon fill="midnightblue" stroke="midnightblue" points="268.94,-24.83 259.76,-19.54 263.64,-29.4 268.94,-24.83"/>
</g>
<!-- Node10 -->
<g id="node10" class="node">
<title>Node10</title>
<g id="a_node10"><a xlink:title=" ">
<polygon fill="white" stroke="#bfbfbf" points="450.5,-0.5 450.5,-19.5 605.5,-19.5 605.5,-0.5 450.5,-0.5"/>
<text text-anchor="middle" x="528" y="-7.5" font-family="Helvetica,sans-Serif" font-size="10.00">boost/asio/steady_timer.hpp</text>
</a>
</g>
</g>
<!-- Node3&#45;&gt;Node10 -->
<g id="edge9" class="edge">
<title>Node3&#45;&gt;Node10</title>
<path fill="none" stroke="midnightblue" d="M539.99,-184.87C520.88,-177.18 496.66,-163.87 485,-143 463.55,-104.6 494.53,-53.87 514.09,-27.91"/>
<polygon fill="midnightblue" stroke="midnightblue" points="517.02,-29.84 520.43,-19.81 511.51,-25.53 517.02,-29.84"/>
</g>
<!-- Node11 -->
<g id="node11" class="node">
<title>Node11</title>
<g id="a_node11"><a xlink:title=" ">
<polygon fill="white" stroke="#bfbfbf" points="924.5,-0.5 924.5,-19.5 1083.5,-19.5 1083.5,-0.5 924.5,-0.5"/>
<text text-anchor="middle" x="1004" y="-7.5" font-family="Helvetica,sans-Serif" font-size="10.00">vsomeip/primitive_types.hpp</text>
</a>
</g>
</g>
<!-- Node3&#45;&gt;Node11 -->
<g id="edge10" class="edge">
<title>Node3&#45;&gt;Node11</title>
<path fill="none" stroke="midnightblue" d="M591.84,-185C618.81,-175.55 662.99,-159.46 700,-143 717.8,-135.09 721.35,-131.24 739,-123 822.2,-84.15 922.56,-43.34 972.53,-23.42"/>
<polygon fill="midnightblue" stroke="midnightblue" points="974.12,-26.56 982.12,-19.61 971.53,-20.05 974.12,-26.56"/>
</g>
<!-- Node12 -->
<g id="node12" class="node">
<title>Node12</title>
<g id="a_node12"><a xlink:href="tp__message_8hpp.html" target="_top" xlink:title=" ">
<polygon fill="white" stroke="black" points="340.5,-123.5 340.5,-142.5 437.5,-142.5 437.5,-123.5 340.5,-123.5"/>
<text text-anchor="middle" x="389" y="-130.5" font-family="Helvetica,sans-Serif" font-size="10.00">tp_message.hpp</text>
</a>
</g>
</g>
<!-- Node3&#45;&gt;Node12 -->
<g id="edge11" class="edge">
<title>Node3&#45;&gt;Node12</title>
<path fill="none" stroke="midnightblue" d="M541.5,-184.98C510.7,-174.68 458.73,-157.31 424.15,-145.75"/>
<polygon fill="midnightblue" stroke="midnightblue" points="425.05,-142.36 414.46,-142.51 422.83,-149 425.05,-142.36"/>
</g>
<!-- Node12&#45;&gt;Node11 -->
<g id="edge14" class="edge">
<title>Node12&#45;&gt;Node11</title>
<path fill="none" stroke="midnightblue" d="M432.25,-123.49C541.83,-101.93 830.24,-45.19 950.33,-21.56"/>
<polygon fill="midnightblue" stroke="midnightblue" points="951.26,-24.94 960.39,-19.58 949.9,-18.08 951.26,-24.94"/>
</g>
<!-- Node13 -->
<g id="node13" class="node">
<title>Node13</title>
<g id="a_node13"><a xlink:title=" ">
<polygon fill="white" stroke="#bfbfbf" points="340,-0.5 340,-19.5 372,-19.5 372,-0.5 340,-0.5"/>
<text text-anchor="middle" x="356" y="-7.5" font-family="Helvetica,sans-Serif" font-size="10.00">set</text>
</a>
</g>
</g>
<!-- Node12&#45;&gt;Node13 -->
<g id="edge12" class="edge">
<title>Node12&#45;&gt;Node13</title>
<path fill="none" stroke="midnightblue" d="M384.34,-123.29C379.78,-114.4 372.96,-100.09 369,-87 363.25,-68.01 359.8,-45.53 357.92,-29.97"/>
<polygon fill="midnightblue" stroke="midnightblue" points="361.35,-29.15 356.77,-19.59 354.39,-29.92 361.35,-29.15"/>
</g>
<!-- Node14 -->
<g id="node14" class="node">
<title>Node14</title>
<g id="a_node14"><a xlink:title=" ">
<polygon fill="white" stroke="#bfbfbf" points="624,-0.5 624,-19.5 674,-19.5 674,-0.5 624,-0.5"/>
<text text-anchor="middle" x="649" y="-7.5" font-family="Helvetica,sans-Serif" font-size="10.00">chrono</text>
</a>
</g>
</g>
<!-- Node12&#45;&gt;Node14 -->
<g id="edge13" class="edge">
<title>Node12&#45;&gt;Node14</title>
<path fill="none" stroke="midnightblue" d="M407.28,-123.49C452.11,-102.63 567.74,-48.82 621.17,-23.95"/>
<polygon fill="midnightblue" stroke="midnightblue" points="622.8,-27.05 630.39,-19.66 619.85,-20.71 622.8,-27.05"/>
</g>
<!-- Node12&#45;&gt;Node15 -->
<g id="edge15" class="edge">
<title>Node12&#45;&gt;Node15</title>
<path fill="none" stroke="midnightblue" d="M359.63,-123.48C329.14,-114.63 280.64,-100.55 242.32,-89.43"/>
<polygon fill="midnightblue" stroke="midnightblue" points="242.89,-85.95 232.31,-86.52 240.94,-92.67 242.89,-85.95"/>
</g>
<!-- Node16 -->
<g id="node16" class="node">
<title>Node16</title>
<g id="a_node16"><a xlink:href="endpoints_2include_2buffer_8hpp.html" target="_top" xlink:title=" ">
<polygon fill="white" stroke="black" points="378.5,-62 378.5,-81 443.5,-81 443.5,-62 378.5,-62"/>
<text text-anchor="middle" x="411" y="-69" font-family="Helvetica,sans-Serif" font-size="10.00">buffer.hpp</text>
</a>
</g>
</g>
<!-- Node12&#45;&gt;Node16 -->
<g id="edge16" class="edge">
<title>Node12&#45;&gt;Node16</title>
<path fill="none" stroke="midnightblue" d="M392.15,-123.48C395.32,-114.9 400.3,-101.43 404.35,-90.48"/>
<polygon fill="midnightblue" stroke="midnightblue" points="407.67,-91.6 407.85,-81.01 401.1,-89.17 407.67,-91.6"/>
</g>
<!-- Node16&#45;&gt;Node7 -->
<g id="edge19" class="edge">
<title>Node16&#45;&gt;Node7</title>
<path fill="none" stroke="midnightblue" d="M378.22,-63.8C334.17,-54.74 253.15,-37.88 174.15,-20.22"/>
<polygon fill="midnightblue" stroke="midnightblue" points="174.55,-16.72 164.03,-17.95 173.02,-23.55 174.55,-16.72"/>
</g>
<!-- Node16&#45;&gt;Node9 -->
<g id="edge21" class="edge">
<title>Node16&#45;&gt;Node9</title>
<path fill="none" stroke="midnightblue" d="M388.22,-61.98C360.95,-51.77 315.09,-34.61 284.2,-23.05"/>
<polygon fill="midnightblue" stroke="midnightblue" points="285.33,-19.74 274.74,-19.51 282.88,-26.29 285.33,-19.74"/>
</g>
<!-- Node16&#45;&gt;Node10 -->
<g id="edge22" class="edge">
<title>Node16&#45;&gt;Node10</title>
<path fill="none" stroke="midnightblue" d="M427.76,-61.98C447.22,-52.08 479.55,-35.64 502.21,-24.12"/>
<polygon fill="midnightblue" stroke="midnightblue" points="503.94,-27.16 511.27,-19.51 500.77,-20.92 503.94,-27.16"/>
</g>
<!-- Node16&#45;&gt;Node11 -->
<g id="edge24" class="edge">
<title>Node16&#45;&gt;Node11</title>
<path fill="none" stroke="midnightblue" d="M443.73,-67.22C532.41,-58.32 779.67,-33.51 914.14,-20.02"/>
<polygon fill="midnightblue" stroke="midnightblue" points="914.82,-23.47 924.42,-18.99 914.12,-16.5 914.82,-23.47"/>
</g>
<!-- Node16&#45;&gt;Node13 -->
<g id="edge20" class="edge">
<title>Node16&#45;&gt;Node13</title>
<path fill="none" stroke="midnightblue" d="M403.12,-61.98C394.71,-52.87 381.18,-38.24 370.77,-26.98"/>
<polygon fill="midnightblue" stroke="midnightblue" points="373.22,-24.48 363.87,-19.51 368.08,-29.23 373.22,-24.48"/>
</g>
<!-- Node16&#45;&gt;Node14 -->
<g id="edge18" class="edge">
<title>Node16&#45;&gt;Node14</title>
<path fill="none" stroke="midnightblue" d="M443.72,-62.44C483.86,-52.54 553.97,-35.18 614,-20 614.1,-19.97 614.2,-19.95 614.3,-19.92"/>
<polygon fill="midnightblue" stroke="midnightblue" points="614.94,-23.37 623.77,-17.51 613.22,-16.59 614.94,-23.37"/>
</g>
<!-- Node17 -->
<g id="node17" class="node">
<title>Node17</title>
<g id="a_node17"><a xlink:title=" ">
<polygon fill="white" stroke="#bfbfbf" points="390,-0.5 390,-19.5 432,-19.5 432,-0.5 390,-0.5"/>
<text text-anchor="middle" x="411" y="-7.5" font-family="Helvetica,sans-Serif" font-size="10.00">array</text>
</a>
</g>
</g>
<!-- Node16&#45;&gt;Node17 -->
<g id="edge17" class="edge">
<title>Node16&#45;&gt;Node17</title>
<path fill="none" stroke="midnightblue" d="M411,-61.98C411,-53.58 411,-40.48 411,-29.66"/>
<polygon fill="midnightblue" stroke="midnightblue" points="414.5,-29.51 411,-19.51 407.5,-29.51 414.5,-29.51"/>
</g>
<!-- Node16&#45;&gt;Node18 -->
<g id="edge23" class="edge">
<title>Node16&#45;&gt;Node18</title>
<path fill="none" stroke="midnightblue" d="M443.69,-65.27C505.32,-55.41 639.68,-33.92 719.6,-21.14"/>
<polygon fill="midnightblue" stroke="midnightblue" points="720.22,-24.59 729.54,-19.55 719.12,-17.67 720.22,-24.59"/>
</g>
<!-- Node19&#45;&gt;Node4 -->
<g id="edge29" class="edge">
<title>Node19&#45;&gt;Node4</title>
<path fill="none" stroke="midnightblue" d="M1039.49,-184.99C982.95,-176.28 894.03,-161.68 808.11,-143.09"/>
<polygon fill="midnightblue" stroke="midnightblue" points="808.71,-139.64 798.19,-140.93 807.21,-146.48 808.71,-139.64"/>
</g>
<!-- Node19&#45;&gt;Node6 -->
<g id="edge30" class="edge">
<title>Node19&#45;&gt;Node6</title>
<path fill="none" stroke="midnightblue" d="M1056.41,-184.92C1013.45,-175.71 943.47,-160.35 873.93,-143.15"/>
<polygon fill="midnightblue" stroke="midnightblue" points="874.67,-139.73 864.12,-140.71 872.98,-146.52 874.67,-139.73"/>
</g>
<!-- Node19&#45;&gt;Node14 -->
<g id="edge28" class="edge">
<title>Node19&#45;&gt;Node14</title>
<path fill="none" stroke="midnightblue" d="M1089.5,-184.81C1076.29,-170.03 1047.39,-139.96 1017,-123 904.35,-60.15 752.18,-28.38 684.27,-16.57"/>
<polygon fill="midnightblue" stroke="midnightblue" points="684.55,-13.07 674.11,-14.84 683.38,-19.97 684.55,-13.07"/>
</g>
<!-- Node20 -->
<g id="node20" class="node">
<title>Node20</title>
<g id="a_node20"><a xlink:title=" ">
<polygon fill="white" stroke="#bfbfbf" points="1320.5,-123.5 1320.5,-142.5 1377.5,-142.5 1377.5,-123.5 1320.5,-123.5"/>
<text text-anchor="middle" x="1349" y="-130.5" font-family="Helvetica,sans-Serif" font-size="10.00">ostream</text>
</a>
</g>
</g>
<!-- Node19&#45;&gt;Node20 -->
<g id="edge31" class="edge">
<title>Node19&#45;&gt;Node20</title>
<path fill="none" stroke="midnightblue" d="M1133.35,-184.93C1173.93,-175.36 1241.84,-159.35 1310.27,-143.17"/>
<polygon fill="midnightblue" stroke="midnightblue" points="1311.44,-146.49 1320.37,-140.78 1309.83,-139.68 1311.44,-146.49"/>
</g>
<!-- Node21 -->
<g id="node21" class="node">
<title>Node21</title>
<g id="a_node21"><a xlink:title=" ">
<polygon fill="white" stroke="#bfbfbf" points="1396,-123.5 1396,-142.5 1452,-142.5 1452,-123.5 1396,-123.5"/>
<text text-anchor="middle" x="1424" y="-130.5" font-family="Helvetica,sans-Serif" font-size="10.00">sstream</text>
</a>
</g>
</g>
<!-- Node19&#45;&gt;Node21 -->
<g id="edge32" class="edge">
<title>Node19&#45;&gt;Node21</title>
<path fill="none" stroke="midnightblue" d="M1152.26,-184.99C1208.59,-176.07 1298.71,-161.11 1385.72,-143.16"/>
<polygon fill="midnightblue" stroke="midnightblue" points="1386.68,-146.53 1395.76,-141.07 1385.26,-139.68 1386.68,-146.53"/>
</g>
<!-- Node22 -->
<g id="node22" class="node">
<title>Node22</title>
<g id="a_node22"><a xlink:title=" ">
<polygon fill="white" stroke="#bfbfbf" points="1102.5,-123.5 1102.5,-142.5 1169.5,-142.5 1169.5,-123.5 1102.5,-123.5"/>
<text text-anchor="middle" x="1136" y="-130.5" font-family="Helvetica,sans-Serif" font-size="10.00">streambuf</text>
</a>
</g>
</g>
<!-- Node19&#45;&gt;Node22 -->
<g id="edge33" class="edge">
<title>Node19&#45;&gt;Node22</title>
<path fill="none" stroke="midnightblue" d="M1102.59,-184.98C1108.38,-176.14 1117.59,-162.09 1124.87,-150.98"/>
<polygon fill="midnightblue" stroke="midnightblue" points="1127.87,-152.79 1130.42,-142.51 1122.01,-148.95 1127.87,-152.79"/>
</g>
<!-- Node23 -->
<g id="node23" class="node">
<title>Node23</title>
<g id="a_node23"><a xlink:title=" ">
<polygon fill="white" stroke="#bfbfbf" points="1188,-123.5 1188,-142.5 1302,-142.5 1302,-123.5 1188,-123.5"/>
<text text-anchor="middle" x="1245" y="-130.5" font-family="Helvetica,sans-Serif" font-size="10.00">vsomeip/export.hpp</text>
</a>
</g>
</g>
<!-- Node19&#45;&gt;Node23 -->
<g id="edge34" class="edge">
<title>Node19&#45;&gt;Node23</title>
<path fill="none" stroke="midnightblue" d="M1118.2,-184.98C1143.37,-174.86 1185.54,-157.9 1214.28,-146.35"/>
<polygon fill="midnightblue" stroke="midnightblue" points="1215.86,-149.49 1223.83,-142.51 1213.25,-142.99 1215.86,-149.49"/>
</g>
<!-- Node24&#45;&gt;Node4 -->
<g id="edge36" class="edge">
<title>Node24&#45;&gt;Node4</title>
<path fill="none" stroke="midnightblue" d="M169.63,-189.91C268.55,-182.34 503.41,-163.7 700,-143 712.28,-141.71 725.69,-140.11 737.64,-138.62"/>
<polygon fill="midnightblue" stroke="midnightblue" points="738.21,-142.07 747.69,-137.35 737.33,-135.13 738.21,-142.07"/>
</g>
<!-- Node24&#45;&gt;Node7 -->
<g id="edge39" class="edge">
<title>Node24&#45;&gt;Node7</title>
<path fill="none" stroke="midnightblue" d="M95.32,-184.97C65.92,-174.96 21.53,-157.86 12,-143 7.2,-135.52 8.41,-131.13 12,-123 31.91,-77.95 79.88,-43.22 109.69,-25.05"/>
<polygon fill="midnightblue" stroke="midnightblue" points="111.84,-27.84 118.67,-19.74 108.28,-21.82 111.84,-27.84"/>
</g>
<!-- Node24&#45;&gt;Node15 -->
<g id="edge40" class="edge">
<title>Node24&#45;&gt;Node15</title>
<path fill="none" stroke="midnightblue" d="M126.46,-184.8C135.91,-166.36 158.2,-122.84 172.1,-95.71"/>
<polygon fill="midnightblue" stroke="midnightblue" points="175.36,-97.03 176.81,-86.54 169.13,-93.84 175.36,-97.03"/>
</g>
<!-- Node24&#45;&gt;Node16 -->
<g id="edge41" class="edge">
<title>Node24&#45;&gt;Node16</title>
<path fill="none" stroke="midnightblue" d="M142.32,-184.99C192.36,-164.04 321.74,-109.87 380.8,-85.14"/>
<polygon fill="midnightblue" stroke="midnightblue" points="382.44,-88.25 390.31,-81.16 379.74,-81.79 382.44,-88.25"/>
</g>
<!-- Node25 -->
<g id="node25" class="node">
<title>Node25</title>
<g id="a_node25"><a xlink:title=" ">
<polygon fill="white" stroke="#bfbfbf" points="21.5,-123.5 21.5,-142.5 68.5,-142.5 68.5,-123.5 21.5,-123.5"/>
<text text-anchor="middle" x="45" y="-130.5" font-family="Helvetica,sans-Serif" font-size="10.00">vector</text>
</a>
</g>
</g>
<!-- Node24&#45;&gt;Node25 -->
<g id="edge37" class="edge">
<title>Node24&#45;&gt;Node25</title>
<path fill="none" stroke="midnightblue" d="M110.97,-184.98C98.73,-175.52 78.77,-160.1 64.01,-148.69"/>
<polygon fill="midnightblue" stroke="midnightblue" points="66.06,-145.85 56.01,-142.51 61.78,-151.39 66.06,-145.85"/>
</g>
<!-- Node26 -->
<g id="node26" class="node">
<title>Node26</title>
<g id="a_node26"><a xlink:title=" ">
<polygon fill="white" stroke="#bfbfbf" points="86.5,-123.5 86.5,-142.5 131.5,-142.5 131.5,-123.5 86.5,-123.5"/>
<text text-anchor="middle" x="109" y="-130.5" font-family="Helvetica,sans-Serif" font-size="10.00">utility</text>
</a>
</g>
</g>
<!-- Node24&#45;&gt;Node26 -->
<g id="edge38" class="edge">
<title>Node24&#45;&gt;Node26</title>
<path fill="none" stroke="midnightblue" d="M120.14,-184.98C118.28,-176.49 115.38,-163.2 113,-152.32"/>
<polygon fill="midnightblue" stroke="midnightblue" points="116.41,-151.53 110.86,-142.51 109.57,-153.03 116.41,-151.53"/>
</g>
<!-- Node28&#45;&gt;Node4 -->
<g id="edge44" class="edge">
<title>Node28&#45;&gt;Node4</title>
<path fill="none" stroke="midnightblue" d="M872.95,-179.4C851.27,-169.55 822.54,-156.5 801.45,-146.92"/>
<polygon fill="midnightblue" stroke="midnightblue" points="802.61,-143.61 792.06,-142.66 799.72,-149.98 802.61,-143.61"/>
</g>
<!-- Node28&#45;&gt;Node11 -->
<g id="edge46" class="edge">
<title>Node28&#45;&gt;Node11</title>
<path fill="none" stroke="midnightblue" d="M952.31,-179.4C973.9,-171.33 998.57,-159.47 1017,-143 1038.54,-123.75 1042.4,-114.87 1050,-87 1053.63,-73.71 1055.34,-68.7 1050,-56 1044.97,-44.05 1035.06,-33.69 1025.71,-25.93"/>
<polygon fill="midnightblue" stroke="midnightblue" points="1027.84,-23.15 1017.79,-19.81 1023.56,-28.69 1027.84,-23.15"/>
</g>
<!-- Node29 -->
<g id="node29" class="node">
<title>Node29</title>
<g id="a_node29"><a xlink:title=" ">
<polygon fill="white" stroke="#bfbfbf" points="882,-123.5 882,-142.5 926,-142.5 926,-123.5 882,-123.5"/>
<text text-anchor="middle" x="904" y="-130.5" font-family="Helvetica,sans-Serif" font-size="10.00">limits</text>
</a>
</g>
</g>
<!-- Node28&#45;&gt;Node29 -->
<g id="edge45" class="edge">
<title>Node28&#45;&gt;Node29</title>
<path fill="none" stroke="midnightblue" d="M904,-179.4C904,-171.47 904,-161.46 904,-152.86"/>
<polygon fill="midnightblue" stroke="midnightblue" points="907.5,-152.66 904,-142.66 900.5,-152.66 907.5,-152.66"/>
</g>
<!-- Node30 -->
<g id="node30" class="node">
<title>Node30</title>
<g id="a_node30"><a xlink:title=" ">
<polygon fill="white" stroke="#bfbfbf" points="944.5,-123.5 944.5,-142.5 1007.5,-142.5 1007.5,-123.5 944.5,-123.5"/>
<text text-anchor="middle" x="976" y="-130.5" font-family="Helvetica,sans-Serif" font-size="10.00">pthread.h</text>
</a>
</g>
</g>
<!-- Node28&#45;&gt;Node30 -->
<g id="edge47" class="edge">
<title>Node28&#45;&gt;Node30</title>
<path fill="none" stroke="midnightblue" d="M921.06,-179.4C932.06,-170.31 946.37,-158.49 957.62,-149.19"/>
<polygon fill="midnightblue" stroke="midnightblue" points="960.04,-151.73 965.52,-142.66 955.59,-146.33 960.04,-151.73"/>
</g>
</g>
</svg>
