<?xml version="1.0" encoding="UTF-8" standalone="no"?>
<!DOCTYPE svg PUBLIC "-//W3C//DTD SVG 1.1//EN"
 "http://www.w3.org/Graphics/SVG/1.1/DTD/svg11.dtd">
<!-- Generated by graphviz version 2.43.0 (0)
 -->
<!-- Title: /home/kali/projects/vsomeip/implementation/endpoints/src/tp_message.cpp Pages: 1 -->
<svg width="1472pt" height="240pt"
 viewBox="0.00 0.00 1472.41 240.00" xmlns="http://www.w3.org/2000/svg" xmlns:xlink="http://www.w3.org/1999/xlink">
<g id="graph0" class="graph" transform="scale(1 1) rotate(0) translate(4 236)">
<title>/home/kali/projects/vsomeip/implementation/endpoints/src/tp_message.cpp</title>
<polygon fill="white" stroke="transparent" points="-4,4 -4,-236 1468.41,-236 1468.41,4 -4,4"/>
<!-- Node1 -->
<g id="node1" class="node">
<title>Node1</title>
<g id="a_node1"><a xlink:title=" ">
<polygon fill="#bfbfbf" stroke="black" points="870.5,-190.5 870.5,-231.5 1037.5,-231.5 1037.5,-190.5 870.5,-190.5"/>
<text text-anchor="start" x="878.5" y="-219.5" font-family="Helvetica,sans-Serif" font-size="10.00">/home/kali/projects</text>
<text text-anchor="start" x="878.5" y="-208.5" font-family="Helvetica,sans-Serif" font-size="10.00">/vsomeip/implementation</text>
<text text-anchor="middle" x="954" y="-197.5" font-family="Helvetica,sans-Serif" font-size="10.00">/endpoints/src/tp_message.cpp</text>
</a>
</g>
</g>
<!-- Node2 -->
<g id="node2" class="node">
<title>Node2</title>
<g id="a_node2"><a xlink:title=" ">
<polygon fill="white" stroke="#bfbfbf" points="290,-129 290,-148 346,-148 346,-129 290,-129"/>
<text text-anchor="middle" x="318" y="-136" font-family="Helvetica,sans-Serif" font-size="10.00">iomanip</text>
</a>
</g>
</g>
<!-- Node1&#45;&gt;Node2 -->
<g id="edge1" class="edge">
<title>Node1&#45;&gt;Node2</title>
<path fill="none" stroke="midnightblue" d="M870.45,-209.53C753.58,-207.21 535.37,-196.87 355,-154 352.17,-153.33 349.27,-152.48 346.39,-151.54"/>
<polygon fill="midnightblue" stroke="midnightblue" points="347.47,-148.21 336.88,-148.07 345.07,-154.78 347.47,-148.21"/>
</g>
<!-- Node3 -->
<g id="node3" class="node">
<title>Node3</title>
<g id="a_node3"><a xlink:title=" ">
<polygon fill="white" stroke="#bfbfbf" points="1023,-62 1023,-81 1079,-81 1079,-62 1023,-62"/>
<text text-anchor="middle" x="1051" y="-69" font-family="Helvetica,sans-Serif" font-size="10.00">sstream</text>
</a>
</g>
</g>
<!-- Node1&#45;&gt;Node3 -->
<g id="edge2" class="edge">
<title>Node1&#45;&gt;Node3</title>
<path fill="none" stroke="midnightblue" d="M967.9,-190.3C987.03,-163.18 1021.14,-114.83 1039.13,-89.32"/>
<polygon fill="midnightblue" stroke="midnightblue" points="1042.07,-91.23 1044.98,-81.04 1036.35,-87.19 1042.07,-91.23"/>
</g>
<!-- Node4 -->
<g id="node4" class="node">
<title>Node4</title>
<g id="a_node4"><a xlink:href="logger_8hpp.html" target="_top" xlink:title=" ">
<polygon fill="white" stroke="black" points="1046.5,-129 1046.5,-148 1199.5,-148 1199.5,-129 1046.5,-129"/>
<text text-anchor="middle" x="1123" y="-136" font-family="Helvetica,sans-Serif" font-size="10.00">vsomeip/internal/logger.hpp</text>
</a>
</g>
</g>
<!-- Node1&#45;&gt;Node4 -->
<g id="edge3" class="edge">
<title>Node1&#45;&gt;Node4</title>
<path fill="none" stroke="midnightblue" d="M1001.08,-190.36C1030.39,-178.13 1067.24,-162.76 1092.71,-152.14"/>
<polygon fill="midnightblue" stroke="midnightblue" points="1094.33,-155.25 1102.21,-148.17 1091.63,-148.79 1094.33,-155.25"/>
</g>
<!-- Node11 -->
<g id="node11" class="node">
<title>Node11</title>
<g id="a_node11"><a xlink:href="tp__message_8hpp.html" target="_top" xlink:title=" ">
<polygon fill="white" stroke="black" points="364,-129 364,-148 508,-148 508,-129 364,-129"/>
<text text-anchor="middle" x="436" y="-136" font-family="Helvetica,sans-Serif" font-size="10.00">../include/tp_message.hpp</text>
</a>
</g>
</g>
<!-- Node1&#45;&gt;Node11 -->
<g id="edge11" class="edge">
<title>Node1&#45;&gt;Node11</title>
<path fill="none" stroke="midnightblue" d="M870.49,-198.63C770.26,-184.99 603.84,-162.34 508.69,-149.39"/>
<polygon fill="midnightblue" stroke="midnightblue" points="508.96,-145.9 498.58,-148.02 508.02,-152.83 508.96,-145.9"/>
</g>
<!-- Node21 -->
<g id="node21" class="node">
<title>Node21</title>
<g id="a_node21"><a xlink:href="tp_8hpp.html" target="_top" xlink:title=" ">
<polygon fill="white" stroke="black" points="620.5,-129 620.5,-148 715.5,-148 715.5,-129 620.5,-129"/>
<text text-anchor="middle" x="668" y="-136" font-family="Helvetica,sans-Serif" font-size="10.00">../include/tp.hpp</text>
</a>
</g>
</g>
<!-- Node1&#45;&gt;Node21 -->
<g id="edge25" class="edge">
<title>Node1&#45;&gt;Node21</title>
<path fill="none" stroke="midnightblue" d="M874.71,-190.46C822.37,-177.55 755.72,-161.12 712.47,-150.46"/>
<polygon fill="midnightblue" stroke="midnightblue" points="713.08,-147.01 702.53,-148.01 711.41,-153.8 713.08,-147.01"/>
</g>
<!-- Node24 -->
<g id="node24" class="node">
<title>Node24</title>
<g id="a_node24"><a xlink:href="byteorder_8hpp.html" target="_top" xlink:title=" ">
<polygon fill="white" stroke="black" points="1217.5,-123.5 1217.5,-153.5 1318.5,-153.5 1318.5,-123.5 1217.5,-123.5"/>
<text text-anchor="start" x="1225.5" y="-141.5" font-family="Helvetica,sans-Serif" font-size="10.00">../../utility/include</text>
<text text-anchor="middle" x="1268" y="-130.5" font-family="Helvetica,sans-Serif" font-size="10.00">/byteorder.hpp</text>
</a>
</g>
</g>
<!-- Node1&#45;&gt;Node24 -->
<g id="edge32" class="edge">
<title>Node1&#45;&gt;Node24</title>
<path fill="none" stroke="midnightblue" d="M1037.67,-192.17C1084.97,-181.97 1145.43,-168.7 1207.51,-154.32"/>
<polygon fill="midnightblue" stroke="midnightblue" points="1208.54,-157.67 1217.49,-152 1206.96,-150.86 1208.54,-157.67"/>
</g>
<!-- Node25 -->
<g id="node25" class="node">
<title>Node25</title>
<g id="a_node25"><a xlink:href="internal_8hpp.html" target="_top" xlink:title=" ">
<polygon fill="white" stroke="black" points="853,-123.5 853,-153.5 969,-153.5 969,-123.5 853,-123.5"/>
<text text-anchor="start" x="861" y="-141.5" font-family="Helvetica,sans-Serif" font-size="10.00">../../configuration</text>
<text text-anchor="middle" x="911" y="-130.5" font-family="Helvetica,sans-Serif" font-size="10.00">/include/internal.hpp</text>
</a>
</g>
</g>
<!-- Node1&#45;&gt;Node25 -->
<g id="edge33" class="edge">
<title>Node1&#45;&gt;Node25</title>
<path fill="none" stroke="midnightblue" d="M942.02,-190.36C936.78,-181.77 930.6,-171.64 925.14,-162.68"/>
<polygon fill="midnightblue" stroke="midnightblue" points="927.97,-160.61 919.78,-153.89 922,-164.25 927.97,-160.61"/>
</g>
<!-- Node28 -->
<g id="node28" class="node">
<title>Node28</title>
<g id="a_node28"><a xlink:title=" ">
<polygon fill="white" stroke="#bfbfbf" points="1336.5,-129 1336.5,-148 1405.5,-148 1405.5,-129 1336.5,-129"/>
<text text-anchor="middle" x="1371" y="-136" font-family="Helvetica,sans-Serif" font-size="10.00">arpa/inet.h</text>
</a>
</g>
</g>
<!-- Node1&#45;&gt;Node28 -->
<g id="edge38" class="edge">
<title>Node1&#45;&gt;Node28</title>
<path fill="none" stroke="midnightblue" d="M1037.63,-201.76C1113.96,-193.23 1229.56,-177.77 1328,-154 1331.4,-153.18 1334.91,-152.21 1338.39,-151.16"/>
<polygon fill="midnightblue" stroke="midnightblue" points="1339.55,-154.47 1348.01,-148.09 1337.42,-147.8 1339.55,-154.47"/>
</g>
<!-- Node4&#45;&gt;Node3 -->
<g id="edge8" class="edge">
<title>Node4&#45;&gt;Node3</title>
<path fill="none" stroke="midnightblue" d="M1113.29,-128.73C1101.74,-118.31 1082.25,-100.71 1068.14,-87.97"/>
<polygon fill="midnightblue" stroke="midnightblue" points="1070.32,-85.23 1060.56,-81.13 1065.63,-90.43 1070.32,-85.23"/>
</g>
<!-- Node5 -->
<g id="node5" class="node">
<title>Node5</title>
<g id="a_node5"><a xlink:title=" ">
<polygon fill="white" stroke="#bfbfbf" points="830,-0.5 830,-19.5 880,-19.5 880,-0.5 830,-0.5"/>
<text text-anchor="middle" x="855" y="-7.5" font-family="Helvetica,sans-Serif" font-size="10.00">chrono</text>
</a>
</g>
</g>
<!-- Node4&#45;&gt;Node5 -->
<g id="edge4" class="edge">
<title>Node4&#45;&gt;Node5</title>
<path fill="none" stroke="midnightblue" d="M1172.55,-128.99C1184.48,-126.99 1197.19,-124.89 1209,-123 1317.94,-105.61 1523,-136.9 1448,-56 1410.02,-15.02 1012.28,-11.17 890.34,-10.96"/>
<polygon fill="midnightblue" stroke="midnightblue" points="890.07,-7.46 880.07,-10.95 890.07,-14.46 890.07,-7.46"/>
</g>
<!-- Node6 -->
<g id="node6" class="node">
<title>Node6</title>
<g id="a_node6"><a xlink:title=" ">
<polygon fill="white" stroke="#bfbfbf" points="773,-62 773,-81 823,-81 823,-62 773,-62"/>
<text text-anchor="middle" x="798" y="-69" font-family="Helvetica,sans-Serif" font-size="10.00">cstdint</text>
</a>
</g>
</g>
<!-- Node4&#45;&gt;Node6 -->
<g id="edge5" class="edge">
<title>Node4&#45;&gt;Node6</title>
<path fill="none" stroke="midnightblue" d="M1080.18,-128.94C1015.3,-115.96 893.31,-91.56 833.24,-79.55"/>
<polygon fill="midnightblue" stroke="midnightblue" points="833.61,-76.05 823.12,-77.52 832.24,-82.92 833.61,-76.05"/>
</g>
<!-- Node7 -->
<g id="node7" class="node">
<title>Node7</title>
<g id="a_node7"><a xlink:title=" ">
<polygon fill="white" stroke="#bfbfbf" points="1315,-62 1315,-81 1363,-81 1363,-62 1315,-62"/>
<text text-anchor="middle" x="1339" y="-69" font-family="Helvetica,sans-Serif" font-size="10.00">mutex</text>
</a>
</g>
</g>
<!-- Node4&#45;&gt;Node7 -->
<g id="edge6" class="edge">
<title>Node4&#45;&gt;Node7</title>
<path fill="none" stroke="midnightblue" d="M1159.94,-128.97C1197.25,-119.98 1256.31,-104.67 1306,-87 1307.66,-86.41 1309.36,-85.77 1311.06,-85.11"/>
<polygon fill="midnightblue" stroke="midnightblue" points="1312.8,-88.18 1320.69,-81.11 1310.11,-81.71 1312.8,-88.18"/>
</g>
<!-- Node8 -->
<g id="node8" class="node">
<title>Node8</title>
<g id="a_node8"><a xlink:title=" ">
<polygon fill="white" stroke="#bfbfbf" points="1381.5,-62 1381.5,-81 1438.5,-81 1438.5,-62 1381.5,-62"/>
<text text-anchor="middle" x="1410" y="-69" font-family="Helvetica,sans-Serif" font-size="10.00">ostream</text>
</a>
</g>
</g>
<!-- Node4&#45;&gt;Node8 -->
<g id="edge7" class="edge">
<title>Node4&#45;&gt;Node8</title>
<path fill="none" stroke="midnightblue" d="M1169.83,-128.96C1231.01,-117.63 1334.72,-97.81 1372,-87 1374.58,-86.25 1377.24,-85.4 1379.88,-84.51"/>
<polygon fill="midnightblue" stroke="midnightblue" points="1381.09,-87.79 1389.3,-81.1 1378.71,-81.21 1381.09,-87.79"/>
</g>
<!-- Node9 -->
<g id="node9" class="node">
<title>Node9</title>
<g id="a_node9"><a xlink:title=" ">
<polygon fill="white" stroke="#bfbfbf" points="1097.5,-62 1097.5,-81 1164.5,-81 1164.5,-62 1097.5,-62"/>
<text text-anchor="middle" x="1131" y="-69" font-family="Helvetica,sans-Serif" font-size="10.00">streambuf</text>
</a>
</g>
</g>
<!-- Node4&#45;&gt;Node9 -->
<g id="edge9" class="edge">
<title>Node4&#45;&gt;Node9</title>
<path fill="none" stroke="midnightblue" d="M1124.08,-128.73C1125.25,-119.18 1127.17,-103.62 1128.69,-91.28"/>
<polygon fill="midnightblue" stroke="midnightblue" points="1132.19,-91.48 1129.94,-81.13 1125.24,-90.62 1132.19,-91.48"/>
</g>
<!-- Node10 -->
<g id="node10" class="node">
<title>Node10</title>
<g id="a_node10"><a xlink:title=" ">
<polygon fill="white" stroke="#bfbfbf" points="1183,-62 1183,-81 1297,-81 1297,-62 1183,-62"/>
<text text-anchor="middle" x="1240" y="-69" font-family="Helvetica,sans-Serif" font-size="10.00">vsomeip/export.hpp</text>
</a>
</g>
</g>
<!-- Node4&#45;&gt;Node10 -->
<g id="edge10" class="edge">
<title>Node4&#45;&gt;Node10</title>
<path fill="none" stroke="midnightblue" d="M1138.78,-128.73C1158.51,-117.77 1192.51,-98.88 1215.61,-86.05"/>
<polygon fill="midnightblue" stroke="midnightblue" points="1217.43,-89.04 1224.47,-81.13 1214.03,-82.92 1217.43,-89.04"/>
</g>
<!-- Node11&#45;&gt;Node5 -->
<g id="edge13" class="edge">
<title>Node11&#45;&gt;Node5</title>
<path fill="none" stroke="midnightblue" d="M435.07,-128.74C433.82,-111.8 433.81,-74.58 455,-56 514.39,-3.93 725.38,-32.57 819.77,-19.92"/>
<polygon fill="midnightblue" stroke="midnightblue" points="820.55,-23.34 829.88,-18.32 819.45,-16.43 820.55,-23.34"/>
</g>
<!-- Node12 -->
<g id="node12" class="node">
<title>Node12</title>
<g id="a_node12"><a xlink:title=" ">
<polygon fill="white" stroke="#bfbfbf" points="0,-0.5 0,-19.5 32,-19.5 32,-0.5 0,-0.5"/>
<text text-anchor="middle" x="16" y="-7.5" font-family="Helvetica,sans-Serif" font-size="10.00">set</text>
</a>
</g>
</g>
<!-- Node11&#45;&gt;Node12 -->
<g id="edge12" class="edge">
<title>Node11&#45;&gt;Node12</title>
<path fill="none" stroke="midnightblue" d="M405.09,-128.95C339.78,-110.74 182.85,-66.26 41.79,-20.13"/>
<polygon fill="midnightblue" stroke="midnightblue" points="42.68,-16.74 32.09,-16.94 40.5,-23.39 42.68,-16.74"/>
</g>
<!-- Node13 -->
<g id="node13" class="node">
<title>Node13</title>
<g id="a_node13"><a xlink:title=" ">
<polygon fill="white" stroke="#bfbfbf" points="653.5,-0.5 653.5,-19.5 812.5,-19.5 812.5,-0.5 653.5,-0.5"/>
<text text-anchor="middle" x="733" y="-7.5" font-family="Helvetica,sans-Serif" font-size="10.00">vsomeip/primitive_types.hpp</text>
</a>
</g>
</g>
<!-- Node11&#45;&gt;Node13 -->
<g id="edge14" class="edge">
<title>Node11&#45;&gt;Node13</title>
<path fill="none" stroke="midnightblue" d="M430.43,-128.67C420.85,-112.26 403.96,-76.84 422,-56 429.38,-47.47 557.01,-31.18 646.45,-20.72"/>
<polygon fill="midnightblue" stroke="midnightblue" points="647.08,-24.17 656.61,-19.54 646.27,-17.22 647.08,-24.17"/>
</g>
<!-- Node14 -->
<g id="node14" class="node">
<title>Node14</title>
<g id="a_node14"><a xlink:title=" ">
<polygon fill="white" stroke="#bfbfbf" points="464,-56.5 464,-86.5 588,-86.5 588,-56.5 464,-56.5"/>
<text text-anchor="start" x="472" y="-74.5" font-family="Helvetica,sans-Serif" font-size="10.00">vsomeip/enumeration</text>
<text text-anchor="middle" x="526" y="-63.5" font-family="Helvetica,sans-Serif" font-size="10.00">_types.hpp</text>
</a>
</g>
</g>
<!-- Node11&#45;&gt;Node14 -->
<g id="edge15" class="edge">
<title>Node11&#45;&gt;Node14</title>
<path fill="none" stroke="midnightblue" d="M448.14,-128.73C460.89,-119.53 481.37,-104.73 498.13,-92.63"/>
<polygon fill="midnightblue" stroke="midnightblue" points="500.43,-95.28 506.49,-86.59 496.34,-89.61 500.43,-95.28"/>
</g>
<!-- Node15 -->
<g id="node15" class="node">
<title>Node15</title>
<g id="a_node15"><a xlink:href="endpoints_2include_2buffer_8hpp.html" target="_top" xlink:title=" ">
<polygon fill="white" stroke="black" points="304.5,-62 304.5,-81 369.5,-81 369.5,-62 304.5,-62"/>
<text text-anchor="middle" x="337" y="-69" font-family="Helvetica,sans-Serif" font-size="10.00">buffer.hpp</text>
</a>
</g>
</g>
<!-- Node11&#45;&gt;Node15 -->
<g id="edge16" class="edge">
<title>Node11&#45;&gt;Node15</title>
<path fill="none" stroke="midnightblue" d="M422.65,-128.73C406.25,-117.96 378.2,-99.55 358.69,-86.74"/>
<polygon fill="midnightblue" stroke="midnightblue" points="360.42,-83.69 350.14,-81.13 356.58,-89.54 360.42,-83.69"/>
</g>
<!-- Node15&#45;&gt;Node5 -->
<g id="edge18" class="edge">
<title>Node15&#45;&gt;Node5</title>
<path fill="none" stroke="midnightblue" d="M369.6,-64.32C385.38,-61.48 404.63,-58.26 422,-56 595.72,-33.4 644.52,-50.93 819.8,-20.14"/>
<polygon fill="midnightblue" stroke="midnightblue" points="820.65,-23.54 829.88,-18.34 819.42,-16.65 820.65,-23.54"/>
</g>
<!-- Node15&#45;&gt;Node12 -->
<g id="edge20" class="edge">
<title>Node15&#45;&gt;Node12</title>
<path fill="none" stroke="midnightblue" d="M304.19,-66.82C250.87,-60.44 142.1,-45.7 41.69,-19.78"/>
<polygon fill="midnightblue" stroke="midnightblue" points="42.57,-16.39 32.01,-17.23 40.79,-23.16 42.57,-16.39"/>
</g>
<!-- Node15&#45;&gt;Node13 -->
<g id="edge24" class="edge">
<title>Node15&#45;&gt;Node13</title>
<path fill="none" stroke="midnightblue" d="M362.16,-61.87C369.16,-59.71 376.82,-57.56 384,-56 432.1,-45.56 557.9,-30.44 644.54,-20.66"/>
<polygon fill="midnightblue" stroke="midnightblue" points="645.09,-24.12 654.64,-19.52 644.31,-17.16 645.09,-24.12"/>
</g>
<!-- Node16 -->
<g id="node16" class="node">
<title>Node16</title>
<g id="a_node16"><a xlink:title=" ">
<polygon fill="white" stroke="#bfbfbf" points="50,-0.5 50,-19.5 92,-19.5 92,-0.5 50,-0.5"/>
<text text-anchor="middle" x="71" y="-7.5" font-family="Helvetica,sans-Serif" font-size="10.00">array</text>
</a>
</g>
</g>
<!-- Node15&#45;&gt;Node16 -->
<g id="edge17" class="edge">
<title>Node15&#45;&gt;Node16</title>
<path fill="none" stroke="midnightblue" d="M304.36,-64.38C260.51,-55.97 179.99,-39.87 102.21,-20.15"/>
<polygon fill="midnightblue" stroke="midnightblue" points="102.8,-16.69 92.25,-17.6 101.07,-23.47 102.8,-16.69"/>
</g>
<!-- Node17 -->
<g id="node17" class="node">
<title>Node17</title>
<g id="a_node17"><a xlink:title=" ">
<polygon fill="white" stroke="#bfbfbf" points="578,-0.5 578,-19.5 636,-19.5 636,-0.5 578,-0.5"/>
<text text-anchor="middle" x="607" y="-7.5" font-family="Helvetica,sans-Serif" font-size="10.00">memory</text>
</a>
</g>
</g>
<!-- Node15&#45;&gt;Node17 -->
<g id="edge19" class="edge">
<title>Node15&#45;&gt;Node17</title>
<path fill="none" stroke="midnightblue" d="M363.21,-61.87C369.95,-59.8 377.21,-57.7 384,-56 462.23,-36.38 485.41,-37.54 568.14,-20.1"/>
<polygon fill="midnightblue" stroke="midnightblue" points="568.93,-23.51 577.98,-18 567.47,-16.67 568.93,-23.51"/>
</g>
<!-- Node18 -->
<g id="node18" class="node">
<title>Node18</title>
<g id="a_node18"><a xlink:title=" ">
<polygon fill="white" stroke="#bfbfbf" points="110,-0.5 110,-19.5 250,-19.5 250,-0.5 110,-0.5"/>
<text text-anchor="middle" x="180" y="-7.5" font-family="Helvetica,sans-Serif" font-size="10.00">boost/asio/io_service.hpp</text>
</a>
</g>
</g>
<!-- Node15&#45;&gt;Node18 -->
<g id="edge21" class="edge">
<title>Node15&#45;&gt;Node18</title>
<path fill="none" stroke="midnightblue" d="M314.51,-61.98C287.69,-51.81 242.68,-34.76 212.19,-23.2"/>
<polygon fill="midnightblue" stroke="midnightblue" points="213.04,-19.78 202.45,-19.51 210.56,-26.33 213.04,-19.78"/>
</g>
<!-- Node19 -->
<g id="node19" class="node">
<title>Node19</title>
<g id="a_node19"><a xlink:title=" ">
<polygon fill="white" stroke="#bfbfbf" points="268.5,-0.5 268.5,-19.5 423.5,-19.5 423.5,-0.5 268.5,-0.5"/>
<text text-anchor="middle" x="346" y="-7.5" font-family="Helvetica,sans-Serif" font-size="10.00">boost/asio/steady_timer.hpp</text>
</a>
</g>
</g>
<!-- Node15&#45;&gt;Node19 -->
<g id="edge22" class="edge">
<title>Node15&#45;&gt;Node19</title>
<path fill="none" stroke="midnightblue" d="M338.29,-61.98C339.56,-53.58 341.54,-40.48 343.18,-29.66"/>
<polygon fill="midnightblue" stroke="midnightblue" points="346.68,-29.92 344.71,-19.51 339.76,-28.87 346.68,-29.92"/>
</g>
<!-- Node20 -->
<g id="node20" class="node">
<title>Node20</title>
<g id="a_node20"><a xlink:title=" ">
<polygon fill="white" stroke="#bfbfbf" points="442,-0.5 442,-19.5 560,-19.5 560,-0.5 442,-0.5"/>
<text text-anchor="middle" x="501" y="-7.5" font-family="Helvetica,sans-Serif" font-size="10.00">vsomeip/defines.hpp</text>
</a>
</g>
</g>
<!-- Node15&#45;&gt;Node20 -->
<g id="edge23" class="edge">
<title>Node15&#45;&gt;Node20</title>
<path fill="none" stroke="midnightblue" d="M360.5,-61.98C388.63,-51.77 435.93,-34.61 467.79,-23.05"/>
<polygon fill="midnightblue" stroke="midnightblue" points="469.34,-26.21 477.55,-19.51 466.95,-19.63 469.34,-26.21"/>
</g>
<!-- Node21&#45;&gt;Node6 -->
<g id="edge26" class="edge">
<title>Node21&#45;&gt;Node6</title>
<path fill="none" stroke="midnightblue" d="M685.26,-128.87C707.31,-117.84 745.69,-98.66 771.46,-85.77"/>
<polygon fill="midnightblue" stroke="midnightblue" points="773.29,-88.77 780.67,-81.17 770.16,-82.51 773.29,-88.77"/>
</g>
<!-- Node21&#45;&gt;Node14 -->
<g id="edge30" class="edge">
<title>Node21&#45;&gt;Node14</title>
<path fill="none" stroke="midnightblue" d="M649.14,-128.87C628.02,-119.2 593.17,-103.25 565.93,-90.78"/>
<polygon fill="midnightblue" stroke="midnightblue" points="567.2,-87.51 556.65,-86.53 564.28,-93.87 567.2,-87.51"/>
</g>
<!-- Node21&#45;&gt;Node15 -->
<g id="edge31" class="edge">
<title>Node21&#45;&gt;Node15</title>
<path fill="none" stroke="midnightblue" d="M624.39,-128.94C560.7,-116.43 442.97,-93.31 379.76,-80.9"/>
<polygon fill="midnightblue" stroke="midnightblue" points="380.22,-77.42 369.73,-78.93 378.87,-84.29 380.22,-77.42"/>
</g>
<!-- Node21&#45;&gt;Node17 -->
<g id="edge29" class="edge">
<title>Node21&#45;&gt;Node17</title>
<path fill="none" stroke="midnightblue" d="M661.78,-128.88C654.88,-119.06 643.72,-102.4 636,-87 626.44,-67.92 618.06,-44.88 612.8,-29.21"/>
<polygon fill="midnightblue" stroke="midnightblue" points="616.11,-28.09 609.68,-19.67 609.46,-30.26 616.11,-28.09"/>
</g>
<!-- Node22 -->
<g id="node22" class="node">
<title>Node22</title>
<g id="a_node22"><a xlink:title=" ">
<polygon fill="white" stroke="#bfbfbf" points="644.5,-62 644.5,-81 691.5,-81 691.5,-62 644.5,-62"/>
<text text-anchor="middle" x="668" y="-69" font-family="Helvetica,sans-Serif" font-size="10.00">vector</text>
</a>
</g>
</g>
<!-- Node21&#45;&gt;Node22 -->
<g id="edge27" class="edge">
<title>Node21&#45;&gt;Node22</title>
<path fill="none" stroke="midnightblue" d="M668,-128.73C668,-119.18 668,-103.62 668,-91.28"/>
<polygon fill="midnightblue" stroke="midnightblue" points="671.5,-91.13 668,-81.13 664.5,-91.13 671.5,-91.13"/>
</g>
<!-- Node23 -->
<g id="node23" class="node">
<title>Node23</title>
<g id="a_node23"><a xlink:title=" ">
<polygon fill="white" stroke="#bfbfbf" points="709.5,-62 709.5,-81 754.5,-81 754.5,-62 709.5,-62"/>
<text text-anchor="middle" x="732" y="-69" font-family="Helvetica,sans-Serif" font-size="10.00">utility</text>
</a>
</g>
</g>
<!-- Node21&#45;&gt;Node23 -->
<g id="edge28" class="edge">
<title>Node21&#45;&gt;Node23</title>
<path fill="none" stroke="midnightblue" d="M676.63,-128.73C686.8,-118.4 703.9,-101.04 716.41,-88.33"/>
<polygon fill="midnightblue" stroke="midnightblue" points="718.98,-90.71 723.51,-81.13 714,-85.8 718.98,-90.71"/>
</g>
<!-- Node25&#45;&gt;Node6 -->
<g id="edge34" class="edge">
<title>Node25&#45;&gt;Node6</title>
<path fill="none" stroke="midnightblue" d="M886.48,-123.4C867.27,-112.34 840.7,-97.06 821.7,-86.13"/>
<polygon fill="midnightblue" stroke="midnightblue" points="823.2,-82.96 812.79,-81.01 819.71,-89.03 823.2,-82.96"/>
</g>
<!-- Node25&#45;&gt;Node13 -->
<g id="edge36" class="edge">
<title>Node25&#45;&gt;Node13</title>
<path fill="none" stroke="midnightblue" d="M900.01,-123.24C885.84,-105.6 859.71,-75.52 832,-56 812.33,-42.14 787.7,-30.92 767.93,-23.16"/>
<polygon fill="midnightblue" stroke="midnightblue" points="768.97,-19.81 758.38,-19.52 766.48,-26.35 768.97,-19.81"/>
</g>
<!-- Node26 -->
<g id="node26" class="node">
<title>Node26</title>
<g id="a_node26"><a xlink:title=" ">
<polygon fill="white" stroke="#bfbfbf" points="961,-62 961,-81 1005,-81 1005,-62 961,-62"/>
<text text-anchor="middle" x="983" y="-69" font-family="Helvetica,sans-Serif" font-size="10.00">limits</text>
</a>
</g>
</g>
<!-- Node25&#45;&gt;Node26 -->
<g id="edge35" class="edge">
<title>Node25&#45;&gt;Node26</title>
<path fill="none" stroke="midnightblue" d="M926.62,-123.4C938.18,-112.96 953.92,-98.75 965.83,-88"/>
<polygon fill="midnightblue" stroke="midnightblue" points="968.29,-90.49 973.37,-81.19 963.6,-85.3 968.29,-90.49"/>
</g>
<!-- Node27 -->
<g id="node27" class="node">
<title>Node27</title>
<g id="a_node27"><a xlink:title=" ">
<polygon fill="white" stroke="#bfbfbf" points="879.5,-62 879.5,-81 942.5,-81 942.5,-62 879.5,-62"/>
<text text-anchor="middle" x="911" y="-69" font-family="Helvetica,sans-Serif" font-size="10.00">pthread.h</text>
</a>
</g>
</g>
<!-- Node25&#45;&gt;Node27 -->
<g id="edge37" class="edge">
<title>Node25&#45;&gt;Node27</title>
<path fill="none" stroke="midnightblue" d="M911,-123.4C911,-114.06 911,-101.71 911,-91.52"/>
<polygon fill="midnightblue" stroke="midnightblue" points="914.5,-91.19 911,-81.19 907.5,-91.19 914.5,-91.19"/>
</g>
</g>
</svg>
