<?xml version="1.0" encoding="UTF-8" standalone="no"?>
<!DOCTYPE svg PUBLIC "-//W3C//DTD SVG 1.1//EN"
 "http://www.w3.org/Graphics/SVG/1.1/DTD/svg11.dtd">
<!-- Generated by graphviz version 2.43.0 (0)
 -->
<!-- Title: /home/kali/projects/vsomeip/implementation/routing/include/types.hpp Pages: 1 -->
<svg width="1725pt" height="495pt"
 viewBox="0.00 0.00 1724.97 495.00" xmlns="http://www.w3.org/2000/svg" xmlns:xlink="http://www.w3.org/1999/xlink">
<g id="graph0" class="graph" transform="scale(1 1) rotate(0) translate(4 491)">
<title>/home/kali/projects/vsomeip/implementation/routing/include/types.hpp</title>
<polygon fill="white" stroke="transparent" points="-4,4 -4,-491 1720.97,-491 1720.97,4 -4,4"/>
<!-- Node1 -->
<g id="node1" class="node">
<title>Node1</title>
<g id="a_node1"><a xlink:title=" ">
<polygon fill="#bfbfbf" stroke="black" points="623.5,-445.5 623.5,-486.5 766.5,-486.5 766.5,-445.5 623.5,-445.5"/>
<text text-anchor="start" x="631.5" y="-474.5" font-family="Helvetica,sans-Serif" font-size="10.00">/home/kali/projects</text>
<text text-anchor="start" x="631.5" y="-463.5" font-family="Helvetica,sans-Serif" font-size="10.00">/vsomeip/implementation</text>
<text text-anchor="middle" x="695" y="-452.5" font-family="Helvetica,sans-Serif" font-size="10.00">/routing/include/types.hpp</text>
</a>
</g>
</g>
<!-- Node2 -->
<g id="node2" class="node">
<title>Node2</title>
<g id="a_node2"><a xlink:href="eventgroupinfo_8hpp.html" target="_top" xlink:title=" ">
<polygon fill="white" stroke="black" points="1026.5,-273 1026.5,-314 1217.5,-314 1217.5,-273 1026.5,-273"/>
<text text-anchor="start" x="1034.5" y="-302" font-family="Helvetica,sans-Serif" font-size="10.00">/home/kali/projects</text>
<text text-anchor="start" x="1034.5" y="-291" font-family="Helvetica,sans-Serif" font-size="10.00">/vsomeip/implementation</text>
<text text-anchor="middle" x="1122" y="-280" font-family="Helvetica,sans-Serif" font-size="10.00">/routing/include/eventgroupinfo.hpp</text>
</a>
</g>
</g>
<!-- Node1&#45;&gt;Node2 -->
<g id="edge1" class="edge">
<title>Node1&#45;&gt;Node2</title>
<path fill="none" stroke="midnightblue" d="M776.7,-457.22C859.21,-448.27 980.14,-431.8 1021,-409 1061.74,-386.26 1094.2,-340.67 1110.51,-314.4"/>
<polygon fill="midnightblue" stroke="midnightblue" points="776.16,-453.76 766.59,-458.3 776.9,-460.72 776.16,-453.76"/>
</g>
<!-- Node3 -->
<g id="node3" class="node">
<title>Node3</title>
<g id="a_node3"><a xlink:href="routing__manager__base_8hpp.html" target="_top" xlink:title=" ">
<polygon fill="white" stroke="black" points="334.5,-178.5 334.5,-230.5 477.5,-230.5 477.5,-178.5 334.5,-178.5"/>
<text text-anchor="start" x="342.5" y="-218.5" font-family="Helvetica,sans-Serif" font-size="10.00">/home/kali/projects</text>
<text text-anchor="start" x="342.5" y="-207.5" font-family="Helvetica,sans-Serif" font-size="10.00">/vsomeip/implementation</text>
<text text-anchor="start" x="342.5" y="-196.5" font-family="Helvetica,sans-Serif" font-size="10.00">/routing/include/routing</text>
<text text-anchor="middle" x="406" y="-185.5" font-family="Helvetica,sans-Serif" font-size="10.00">_manager_base.hpp</text>
</a>
</g>
</g>
<!-- Node1&#45;&gt;Node3 -->
<g id="edge29" class="edge">
<title>Node1&#45;&gt;Node3</title>
<path fill="none" stroke="midnightblue" d="M613.07,-461.76C518.02,-456.45 368.74,-442.86 325,-409 273.34,-369.01 253.02,-322.8 287,-267 297.82,-249.22 315.62,-236.36 334.2,-227.14"/>
<polygon fill="midnightblue" stroke="midnightblue" points="613.06,-465.26 623.23,-462.31 613.43,-458.27 613.06,-465.26"/>
</g>
<!-- Node6 -->
<g id="node6" class="node">
<title>Node6</title>
<g id="a_node6"><a xlink:href="routing__manager__impl_8hpp.html" target="_top" xlink:title=" ">
<polygon fill="white" stroke="black" points="544.5,-89.5 544.5,-141.5 687.5,-141.5 687.5,-89.5 544.5,-89.5"/>
<text text-anchor="start" x="552.5" y="-129.5" font-family="Helvetica,sans-Serif" font-size="10.00">/home/kali/projects</text>
<text text-anchor="start" x="552.5" y="-118.5" font-family="Helvetica,sans-Serif" font-size="10.00">/vsomeip/implementation</text>
<text text-anchor="start" x="552.5" y="-107.5" font-family="Helvetica,sans-Serif" font-size="10.00">/routing/include/routing</text>
<text text-anchor="middle" x="616" y="-96.5" font-family="Helvetica,sans-Serif" font-size="10.00">_manager_impl.hpp</text>
</a>
</g>
</g>
<!-- Node1&#45;&gt;Node6 -->
<g id="edge30" class="edge">
<title>Node1&#45;&gt;Node6</title>
<path fill="none" stroke="midnightblue" d="M613.11,-458.23C580.54,-451.04 546.09,-436.82 526,-409 494.48,-365.36 509.02,-287.47 563,-178 569.55,-164.73 579.64,-152 589.27,-141.59"/>
<polygon fill="midnightblue" stroke="midnightblue" points="612.65,-461.71 623.14,-460.24 614.02,-454.84 612.65,-461.71"/>
</g>
<!-- Node9 -->
<g id="node9" class="node">
<title>Node9</title>
<g id="a_node9"><a xlink:href="routing__manager__proxy_8hpp.html" target="_top" xlink:title=" ">
<polygon fill="white" stroke="black" points="7.5,-89.5 7.5,-141.5 150.5,-141.5 150.5,-89.5 7.5,-89.5"/>
<text text-anchor="start" x="15.5" y="-129.5" font-family="Helvetica,sans-Serif" font-size="10.00">/home/kali/projects</text>
<text text-anchor="start" x="15.5" y="-118.5" font-family="Helvetica,sans-Serif" font-size="10.00">/vsomeip/implementation</text>
<text text-anchor="start" x="15.5" y="-107.5" font-family="Helvetica,sans-Serif" font-size="10.00">/routing/include/routing</text>
<text text-anchor="middle" x="79" y="-96.5" font-family="Helvetica,sans-Serif" font-size="10.00">_manager_proxy.hpp</text>
</a>
</g>
</g>
<!-- Node1&#45;&gt;Node9 -->
<g id="edge31" class="edge">
<title>Node1&#45;&gt;Node9</title>
<path fill="none" stroke="midnightblue" d="M613.15,-461.95C507.5,-456.69 330.74,-442.98 276,-409 171.18,-343.94 109.32,-200.08 87.73,-141.78"/>
<polygon fill="midnightblue" stroke="midnightblue" points="612.99,-465.45 623.15,-462.44 613.33,-458.46 612.99,-465.45"/>
</g>
<!-- Node14 -->
<g id="node14" class="node">
<title>Node14</title>
<g id="a_node14"><a xlink:href="remote__subscription_8hpp.html" target="_top" xlink:title=" ">
<polygon fill="white" stroke="black" points="1343.5,-356.5 1343.5,-408.5 1486.5,-408.5 1486.5,-356.5 1343.5,-356.5"/>
<text text-anchor="start" x="1351.5" y="-396.5" font-family="Helvetica,sans-Serif" font-size="10.00">/home/kali/projects</text>
<text text-anchor="start" x="1351.5" y="-385.5" font-family="Helvetica,sans-Serif" font-size="10.00">/vsomeip/implementation</text>
<text text-anchor="start" x="1351.5" y="-374.5" font-family="Helvetica,sans-Serif" font-size="10.00">/routing/include/remote</text>
<text text-anchor="middle" x="1415" y="-363.5" font-family="Helvetica,sans-Serif" font-size="10.00">_subscription.hpp</text>
</a>
</g>
</g>
<!-- Node1&#45;&gt;Node14 -->
<g id="edge16" class="edge">
<title>Node1&#45;&gt;Node14</title>
<path fill="none" stroke="midnightblue" d="M776.63,-455.76C918.6,-439.69 1208.68,-406.85 1343.35,-391.61"/>
<polygon fill="midnightblue" stroke="midnightblue" points="776.21,-452.28 766.67,-456.89 777,-459.24 776.21,-452.28"/>
</g>
<!-- Node17 -->
<g id="node17" class="node">
<title>Node17</title>
<g id="a_node17"><a xlink:href="service__discovery__impl_8hpp.html" target="_top" xlink:title=" ">
<polygon fill="white" stroke="black" points="1510.5,-178.5 1510.5,-230.5 1665.5,-230.5 1665.5,-178.5 1510.5,-178.5"/>
<text text-anchor="start" x="1518.5" y="-218.5" font-family="Helvetica,sans-Serif" font-size="10.00">/home/kali/projects</text>
<text text-anchor="start" x="1518.5" y="-207.5" font-family="Helvetica,sans-Serif" font-size="10.00">/vsomeip/implementation</text>
<text text-anchor="start" x="1518.5" y="-196.5" font-family="Helvetica,sans-Serif" font-size="10.00">/service_discovery/include</text>
<text text-anchor="middle" x="1588" y="-185.5" font-family="Helvetica,sans-Serif" font-size="10.00">/service_discovery_impl.hpp</text>
</a>
</g>
</g>
<!-- Node1&#45;&gt;Node17 -->
<g id="edge44" class="edge">
<title>Node1&#45;&gt;Node17</title>
<path fill="none" stroke="midnightblue" d="M776.91,-463.8C953.16,-460.49 1363.15,-448.65 1496,-409 1573.6,-385.84 1614.04,-389.86 1655,-320 1666.91,-299.68 1664.48,-288.56 1655,-267 1648.77,-252.83 1637.5,-240.5 1625.95,-230.67"/>
<polygon fill="midnightblue" stroke="midnightblue" points="776.6,-460.31 766.66,-463.99 776.72,-467.31 776.6,-460.31"/>
</g>
<!-- Node20 -->
<g id="node20" class="node">
<title>Node20</title>
<g id="a_node20"><a xlink:href="routing__manager_8hpp.html" target="_top" xlink:title=" ">
<polygon fill="white" stroke="black" points="334.5,-356.5 334.5,-408.5 477.5,-408.5 477.5,-356.5 334.5,-356.5"/>
<text text-anchor="start" x="342.5" y="-396.5" font-family="Helvetica,sans-Serif" font-size="10.00">/home/kali/projects</text>
<text text-anchor="start" x="342.5" y="-385.5" font-family="Helvetica,sans-Serif" font-size="10.00">/vsomeip/implementation</text>
<text text-anchor="start" x="342.5" y="-374.5" font-family="Helvetica,sans-Serif" font-size="10.00">/routing/include/routing</text>
<text text-anchor="middle" x="406" y="-363.5" font-family="Helvetica,sans-Serif" font-size="10.00">_manager.hpp</text>
</a>
</g>
</g>
<!-- Node1&#45;&gt;Node20 -->
<g id="edge26" class="edge">
<title>Node1&#45;&gt;Node20</title>
<path fill="none" stroke="midnightblue" d="M613.28,-442.84C576.21,-432.69 531.85,-420.4 492,-409 487.36,-407.67 482.58,-406.29 477.77,-404.89"/>
<polygon fill="midnightblue" stroke="midnightblue" points="612.47,-446.24 623.04,-445.51 614.31,-439.49 612.47,-446.24"/>
</g>
<!-- Node22 -->
<g id="node22" class="node">
<title>Node22</title>
<g id="a_node22"><a xlink:href="routing__manager__stub_8hpp.html" target="_top" xlink:title=" ">
<polygon fill="white" stroke="black" points="868.5,-356.5 868.5,-408.5 1011.5,-408.5 1011.5,-356.5 868.5,-356.5"/>
<text text-anchor="start" x="876.5" y="-396.5" font-family="Helvetica,sans-Serif" font-size="10.00">/home/kali/projects</text>
<text text-anchor="start" x="876.5" y="-385.5" font-family="Helvetica,sans-Serif" font-size="10.00">/vsomeip/implementation</text>
<text text-anchor="start" x="876.5" y="-374.5" font-family="Helvetica,sans-Serif" font-size="10.00">/routing/include/routing</text>
<text text-anchor="middle" x="940" y="-363.5" font-family="Helvetica,sans-Serif" font-size="10.00">_manager_stub.hpp</text>
</a>
</g>
</g>
<!-- Node1&#45;&gt;Node22 -->
<g id="edge32" class="edge">
<title>Node1&#45;&gt;Node22</title>
<path fill="none" stroke="midnightblue" d="M763.59,-442.18C796.22,-431.33 835.22,-418.36 868.24,-407.37"/>
<polygon fill="midnightblue" stroke="midnightblue" points="762.07,-439 753.68,-445.48 764.28,-445.64 762.07,-439"/>
</g>
<!-- Node23 -->
<g id="node23" class="node">
<title>Node23</title>
<g id="a_node23"><a xlink:href="routing__manager__stub__host_8hpp.html" target="_top" xlink:title=" ">
<polygon fill="white" stroke="black" points="707.5,-356.5 707.5,-408.5 850.5,-408.5 850.5,-356.5 707.5,-356.5"/>
<text text-anchor="start" x="715.5" y="-396.5" font-family="Helvetica,sans-Serif" font-size="10.00">/home/kali/projects</text>
<text text-anchor="start" x="715.5" y="-385.5" font-family="Helvetica,sans-Serif" font-size="10.00">/vsomeip/implementation</text>
<text text-anchor="start" x="715.5" y="-374.5" font-family="Helvetica,sans-Serif" font-size="10.00">/routing/include/routing</text>
<text text-anchor="middle" x="779" y="-363.5" font-family="Helvetica,sans-Serif" font-size="10.00">_manager_stub_host.hpp</text>
</a>
</g>
</g>
<!-- Node1&#45;&gt;Node23 -->
<g id="edge35" class="edge">
<title>Node1&#45;&gt;Node23</title>
<path fill="none" stroke="midnightblue" d="M722.58,-438.24C732.41,-428.71 743.44,-418 753.12,-408.61"/>
<polygon fill="midnightblue" stroke="midnightblue" points="720.07,-435.8 715.33,-445.27 724.95,-440.82 720.07,-435.8"/>
</g>
<!-- Node24 -->
<g id="node24" class="node">
<title>Node24</title>
<g id="a_node24"><a xlink:href="service__discovery__host_8hpp.html" target="_top" xlink:title=" ">
<polygon fill="white" stroke="black" points="534.5,-356.5 534.5,-408.5 689.5,-408.5 689.5,-356.5 534.5,-356.5"/>
<text text-anchor="start" x="542.5" y="-396.5" font-family="Helvetica,sans-Serif" font-size="10.00">/home/kali/projects</text>
<text text-anchor="start" x="542.5" y="-385.5" font-family="Helvetica,sans-Serif" font-size="10.00">/vsomeip/implementation</text>
<text text-anchor="start" x="542.5" y="-374.5" font-family="Helvetica,sans-Serif" font-size="10.00">/service_discovery/include</text>
<text text-anchor="middle" x="612" y="-363.5" font-family="Helvetica,sans-Serif" font-size="10.00">/service_discovery_host.hpp</text>
</a>
</g>
</g>
<!-- Node1&#45;&gt;Node24 -->
<g id="edge38" class="edge">
<title>Node1&#45;&gt;Node24</title>
<path fill="none" stroke="midnightblue" d="M667.75,-438.24C658.04,-428.71 647.14,-418 637.57,-408.61"/>
<polygon fill="midnightblue" stroke="midnightblue" points="665.32,-440.76 674.91,-445.27 670.22,-435.77 665.32,-440.76"/>
</g>
<!-- Node2&#45;&gt;Node3 -->
<g id="edge2" class="edge">
<title>Node2&#45;&gt;Node3</title>
<path fill="none" stroke="midnightblue" d="M1037.17,-270.85C1030.37,-269.43 1023.58,-268.13 1017,-267 823.64,-233.95 592.59,-216.64 477.92,-209.52"/>
<polygon fill="midnightblue" stroke="midnightblue" points="1036.61,-274.31 1047.13,-272.99 1038.08,-267.46 1036.61,-274.31"/>
</g>
<!-- Node7 -->
<g id="node7" class="node">
<title>Node7</title>
<g id="a_node7"><a xlink:href="routing__manager__impl_8cpp.html" target="_top" xlink:title=" ">
<polygon fill="white" stroke="black" points="743,-0.5 743,-52.5 901,-52.5 901,-0.5 743,-0.5"/>
<text text-anchor="start" x="751" y="-40.5" font-family="Helvetica,sans-Serif" font-size="10.00">/home/kali/projects</text>
<text text-anchor="start" x="751" y="-29.5" font-family="Helvetica,sans-Serif" font-size="10.00">/vsomeip/implementation</text>
<text text-anchor="start" x="751" y="-18.5" font-family="Helvetica,sans-Serif" font-size="10.00">/routing/src/routing_manager</text>
<text text-anchor="middle" x="822" y="-7.5" font-family="Helvetica,sans-Serif" font-size="10.00">_impl.cpp</text>
</a>
</g>
</g>
<!-- Node2&#45;&gt;Node7 -->
<g id="edge14" class="edge">
<title>Node2&#45;&gt;Node7</title>
<path fill="none" stroke="midnightblue" d="M1129.01,-262.77C1137.42,-218.98 1145.57,-137.12 1103,-89 1076.7,-59.26 974.67,-42.74 901.13,-34.49"/>
<polygon fill="midnightblue" stroke="midnightblue" points="1125.54,-262.29 1126.95,-272.79 1132.39,-263.7 1125.54,-262.29"/>
</g>
<!-- Node12 -->
<g id="node12" class="node">
<title>Node12</title>
<g id="a_node12"><a xlink:href="eventgroupinfo_8cpp.html" target="_top" xlink:title=" ">
<polygon fill="white" stroke="black" points="1207.5,-184 1207.5,-225 1376.5,-225 1376.5,-184 1207.5,-184"/>
<text text-anchor="start" x="1215.5" y="-213" font-family="Helvetica,sans-Serif" font-size="10.00">/home/kali/projects</text>
<text text-anchor="start" x="1215.5" y="-202" font-family="Helvetica,sans-Serif" font-size="10.00">/vsomeip/implementation</text>
<text text-anchor="middle" x="1292" y="-191" font-family="Helvetica,sans-Serif" font-size="10.00">/routing/src/eventgroupinfo.cpp</text>
</a>
</g>
</g>
<!-- Node2&#45;&gt;Node12 -->
<g id="edge13" class="edge">
<title>Node2&#45;&gt;Node12</title>
<path fill="none" stroke="midnightblue" d="M1169.28,-268.3C1195.89,-254.68 1228.69,-237.9 1253.68,-225.11"/>
<polygon fill="midnightblue" stroke="midnightblue" points="1167.46,-265.3 1160.15,-272.98 1170.65,-271.54 1167.46,-265.3"/>
</g>
<!-- Node13 -->
<g id="node13" class="node">
<title>Node13</title>
<g id="a_node13"><a xlink:href="service__discovery__impl_8cpp.html" target="_top" xlink:title=" ">
<polygon fill="white" stroke="black" points="938.5,-89.5 938.5,-141.5 1093.5,-141.5 1093.5,-89.5 938.5,-89.5"/>
<text text-anchor="start" x="946.5" y="-129.5" font-family="Helvetica,sans-Serif" font-size="10.00">/home/kali/projects</text>
<text text-anchor="start" x="946.5" y="-118.5" font-family="Helvetica,sans-Serif" font-size="10.00">/vsomeip/implementation</text>
<text text-anchor="start" x="946.5" y="-107.5" font-family="Helvetica,sans-Serif" font-size="10.00">/service_discovery/src</text>
<text text-anchor="middle" x="1016" y="-96.5" font-family="Helvetica,sans-Serif" font-size="10.00">/service_discovery_impl.cpp</text>
</a>
</g>
</g>
<!-- Node2&#45;&gt;Node13 -->
<g id="edge15" class="edge">
<title>Node2&#45;&gt;Node13</title>
<path fill="none" stroke="midnightblue" d="M1104.88,-264.07C1084.48,-230.2 1050.73,-174.16 1031.21,-141.76"/>
<polygon fill="midnightblue" stroke="midnightblue" points="1102.09,-266.23 1110.25,-272.99 1108.09,-262.62 1102.09,-266.23"/>
</g>
<!-- Node4 -->
<g id="node4" class="node">
<title>Node4</title>
<g id="a_node4"><a xlink:href="endpoint__manager__base_8cpp.html" target="_top" xlink:title=" ">
<polygon fill="white" stroke="black" points="168.5,-89.5 168.5,-141.5 311.5,-141.5 311.5,-89.5 168.5,-89.5"/>
<text text-anchor="start" x="176.5" y="-129.5" font-family="Helvetica,sans-Serif" font-size="10.00">/home/kali/projects</text>
<text text-anchor="start" x="176.5" y="-118.5" font-family="Helvetica,sans-Serif" font-size="10.00">/vsomeip/implementation</text>
<text text-anchor="start" x="176.5" y="-107.5" font-family="Helvetica,sans-Serif" font-size="10.00">/endpoints/src/endpoint</text>
<text text-anchor="middle" x="240" y="-96.5" font-family="Helvetica,sans-Serif" font-size="10.00">_manager_base.cpp</text>
</a>
</g>
</g>
<!-- Node3&#45;&gt;Node4 -->
<g id="edge3" class="edge">
<title>Node3&#45;&gt;Node4</title>
<path fill="none" stroke="midnightblue" d="M349.02,-173.64C329.12,-163.2 306.99,-151.61 287.91,-141.61"/>
<polygon fill="midnightblue" stroke="midnightblue" points="347.5,-176.79 357.99,-178.34 350.75,-170.59 347.5,-176.79"/>
</g>
<!-- Node5 -->
<g id="node5" class="node">
<title>Node5</title>
<g id="a_node5"><a xlink:href="endpoint__manager__impl_8cpp.html" target="_top" xlink:title=" ">
<polygon fill="white" stroke="black" points="494.5,-0.5 494.5,-52.5 637.5,-52.5 637.5,-0.5 494.5,-0.5"/>
<text text-anchor="start" x="502.5" y="-40.5" font-family="Helvetica,sans-Serif" font-size="10.00">/home/kali/projects</text>
<text text-anchor="start" x="502.5" y="-29.5" font-family="Helvetica,sans-Serif" font-size="10.00">/vsomeip/implementation</text>
<text text-anchor="start" x="502.5" y="-18.5" font-family="Helvetica,sans-Serif" font-size="10.00">/endpoints/src/endpoint</text>
<text text-anchor="middle" x="566" y="-7.5" font-family="Helvetica,sans-Serif" font-size="10.00">_manager_impl.cpp</text>
</a>
</g>
</g>
<!-- Node3&#45;&gt;Node5 -->
<g id="edge4" class="edge">
<title>Node3&#45;&gt;Node5</title>
<path fill="none" stroke="midnightblue" d="M460.04,-172.61C473.02,-163.73 486.23,-153.34 497,-142 522.41,-115.24 542.87,-77.55 554.73,-52.83"/>
<polygon fill="midnightblue" stroke="midnightblue" points="457.97,-169.79 451.57,-178.23 461.84,-175.62 457.97,-169.79"/>
</g>
<!-- Node3&#45;&gt;Node6 -->
<g id="edge5" class="edge">
<title>Node3&#45;&gt;Node6</title>
<path fill="none" stroke="midnightblue" d="M475.82,-174.58C501.64,-163.88 530.68,-151.85 555.6,-141.52"/>
<polygon fill="midnightblue" stroke="midnightblue" points="474.36,-171.39 466.46,-178.45 477.04,-177.86 474.36,-171.39"/>
</g>
<!-- Node3&#45;&gt;Node9 -->
<g id="edge9" class="edge">
<title>Node3&#45;&gt;Node9</title>
<path fill="none" stroke="midnightblue" d="M324.56,-184.62C276.24,-173.07 213.89,-157.56 159,-142 156.34,-141.24 153.63,-140.46 150.89,-139.66"/>
<polygon fill="midnightblue" stroke="midnightblue" points="323.8,-188.04 334.34,-186.95 325.42,-181.23 323.8,-188.04"/>
</g>
<!-- Node11 -->
<g id="node11" class="node">
<title>Node11</title>
<g id="a_node11"><a xlink:href="routing__manager__base_8cpp.html" target="_top" xlink:title=" ">
<polygon fill="white" stroke="black" points="330,-89.5 330,-141.5 488,-141.5 488,-89.5 330,-89.5"/>
<text text-anchor="start" x="338" y="-129.5" font-family="Helvetica,sans-Serif" font-size="10.00">/home/kali/projects</text>
<text text-anchor="start" x="338" y="-118.5" font-family="Helvetica,sans-Serif" font-size="10.00">/vsomeip/implementation</text>
<text text-anchor="start" x="338" y="-107.5" font-family="Helvetica,sans-Serif" font-size="10.00">/routing/src/routing_manager</text>
<text text-anchor="middle" x="409" y="-96.5" font-family="Helvetica,sans-Serif" font-size="10.00">_base.cpp</text>
</a>
</g>
</g>
<!-- Node3&#45;&gt;Node11 -->
<g id="edge12" class="edge">
<title>Node3&#45;&gt;Node11</title>
<path fill="none" stroke="midnightblue" d="M407.22,-168.19C407.52,-159.28 407.85,-149.9 408.13,-141.61"/>
<polygon fill="midnightblue" stroke="midnightblue" points="403.71,-168.22 406.87,-178.34 410.71,-168.46 403.71,-168.22"/>
</g>
<!-- Node6&#45;&gt;Node5 -->
<g id="edge6" class="edge">
<title>Node6&#45;&gt;Node5</title>
<path fill="none" stroke="midnightblue" d="M596.54,-80.64C591.18,-71.31 585.45,-61.35 580.43,-52.61"/>
<polygon fill="midnightblue" stroke="midnightblue" points="593.52,-82.41 601.54,-89.34 599.59,-78.92 593.52,-82.41"/>
</g>
<!-- Node6&#45;&gt;Node7 -->
<g id="edge7" class="edge">
<title>Node6&#45;&gt;Node7</title>
<path fill="none" stroke="midnightblue" d="M684.82,-85.44C710.07,-74.77 738.42,-62.8 762.75,-52.52"/>
<polygon fill="midnightblue" stroke="midnightblue" points="683.16,-82.34 675.31,-89.45 685.88,-88.79 683.16,-82.34"/>
</g>
<!-- Node8 -->
<g id="node8" class="node">
<title>Node8</title>
<g id="a_node8"><a xlink:href="runtime_2src_2application__impl_8cpp.html" target="_top" xlink:title=" ">
<polygon fill="white" stroke="black" points="230.5,-0.5 230.5,-52.5 373.5,-52.5 373.5,-0.5 230.5,-0.5"/>
<text text-anchor="start" x="238.5" y="-40.5" font-family="Helvetica,sans-Serif" font-size="10.00">/home/kali/projects</text>
<text text-anchor="start" x="238.5" y="-29.5" font-family="Helvetica,sans-Serif" font-size="10.00">/vsomeip/implementation</text>
<text text-anchor="start" x="238.5" y="-18.5" font-family="Helvetica,sans-Serif" font-size="10.00">/runtime/src/application</text>
<text text-anchor="middle" x="302" y="-7.5" font-family="Helvetica,sans-Serif" font-size="10.00">_impl.cpp</text>
</a>
</g>
</g>
<!-- Node6&#45;&gt;Node8 -->
<g id="edge8" class="edge">
<title>Node6&#45;&gt;Node8</title>
<path fill="none" stroke="midnightblue" d="M534.57,-91.94C484.73,-78.13 421.54,-60.62 373.61,-47.34"/>
<polygon fill="midnightblue" stroke="midnightblue" points="533.78,-95.35 544.36,-94.65 535.65,-88.61 533.78,-95.35"/>
</g>
<!-- Node9&#45;&gt;Node8 -->
<g id="edge11" class="edge">
<title>Node9&#45;&gt;Node8</title>
<path fill="none" stroke="midnightblue" d="M152.78,-85.72C180.29,-74.98 211.29,-62.89 237.87,-52.52"/>
<polygon fill="midnightblue" stroke="midnightblue" points="151.25,-82.56 143.2,-89.45 153.79,-89.08 151.25,-82.56"/>
</g>
<!-- Node10 -->
<g id="node10" class="node">
<title>Node10</title>
<g id="a_node10"><a xlink:href="routing__manager__proxy_8cpp.html" target="_top" xlink:title=" ">
<polygon fill="white" stroke="black" points="0,-0.5 0,-52.5 158,-52.5 158,-0.5 0,-0.5"/>
<text text-anchor="start" x="8" y="-40.5" font-family="Helvetica,sans-Serif" font-size="10.00">/home/kali/projects</text>
<text text-anchor="start" x="8" y="-29.5" font-family="Helvetica,sans-Serif" font-size="10.00">/vsomeip/implementation</text>
<text text-anchor="start" x="8" y="-18.5" font-family="Helvetica,sans-Serif" font-size="10.00">/routing/src/routing_manager</text>
<text text-anchor="middle" x="79" y="-7.5" font-family="Helvetica,sans-Serif" font-size="10.00">_proxy.cpp</text>
</a>
</g>
</g>
<!-- Node9&#45;&gt;Node10 -->
<g id="edge10" class="edge">
<title>Node9&#45;&gt;Node10</title>
<path fill="none" stroke="midnightblue" d="M79,-79.19C79,-70.28 79,-60.9 79,-52.61"/>
<polygon fill="midnightblue" stroke="midnightblue" points="75.5,-79.34 79,-89.34 82.5,-79.34 75.5,-79.34"/>
</g>
<!-- Node14&#45;&gt;Node2 -->
<g id="edge17" class="edge">
<title>Node14&#45;&gt;Node2</title>
<path fill="none" stroke="midnightblue" d="M1333.69,-357.36C1287.75,-343.72 1231.07,-326.89 1187.93,-314.08"/>
<polygon fill="midnightblue" stroke="midnightblue" points="1332.74,-360.73 1343.32,-360.22 1334.73,-354.02 1332.74,-360.73"/>
</g>
<!-- Node14&#45;&gt;Node7 -->
<g id="edge20" class="edge">
<title>Node14&#45;&gt;Node7</title>
<path fill="none" stroke="midnightblue" d="M1496.72,-369.85C1557.29,-359.56 1633.01,-342.66 1655,-320 1726.64,-246.19 1741.54,-161.92 1669,-89 1615.55,-35.27 1101.51,-28.18 901.27,-27.47"/>
<polygon fill="midnightblue" stroke="midnightblue" points="1496.04,-366.41 1486.75,-371.51 1497.19,-373.32 1496.04,-366.41"/>
</g>
<!-- Node14&#45;&gt;Node12 -->
<g id="edge18" class="edge">
<title>Node14&#45;&gt;Node12</title>
<path fill="none" stroke="midnightblue" d="M1496.6,-367.14C1546.63,-356.49 1603.9,-340.32 1619,-320 1633.05,-301.09 1634.04,-285.13 1619,-267 1603.56,-248.38 1468.33,-227.8 1376.68,-215.79"/>
<polygon fill="midnightblue" stroke="midnightblue" points="1495.78,-363.74 1486.71,-369.2 1497.21,-370.59 1495.78,-363.74"/>
</g>
<!-- Node15 -->
<g id="node15" class="node">
<title>Node15</title>
<g id="a_node15"><a xlink:href="remote__subscription_8cpp.html" target="_top" xlink:title=" ">
<polygon fill="white" stroke="black" points="1416,-273 1416,-314 1610,-314 1610,-273 1416,-273"/>
<text text-anchor="start" x="1424" y="-302" font-family="Helvetica,sans-Serif" font-size="10.00">/home/kali/projects</text>
<text text-anchor="start" x="1424" y="-291" font-family="Helvetica,sans-Serif" font-size="10.00">/vsomeip/implementation</text>
<text text-anchor="middle" x="1513" y="-280" font-family="Helvetica,sans-Serif" font-size="10.00">/routing/src/remote_subscription.cpp</text>
</a>
</g>
</g>
<!-- Node14&#45;&gt;Node15 -->
<g id="edge19" class="edge">
<title>Node14&#45;&gt;Node15</title>
<path fill="none" stroke="midnightblue" d="M1451.03,-349.51C1464.41,-337.64 1479.18,-324.53 1490.94,-314.08"/>
<polygon fill="midnightblue" stroke="midnightblue" points="1448.5,-347.08 1443.35,-356.34 1453.15,-352.31 1448.5,-347.08"/>
</g>
<!-- Node16 -->
<g id="node16" class="node">
<title>Node16</title>
<g id="a_node16"><a xlink:href="routing__manager__stub_8cpp.html" target="_top" xlink:title=" ">
<polygon fill="white" stroke="black" points="850,-267.5 850,-319.5 1008,-319.5 1008,-267.5 850,-267.5"/>
<text text-anchor="start" x="858" y="-307.5" font-family="Helvetica,sans-Serif" font-size="10.00">/home/kali/projects</text>
<text text-anchor="start" x="858" y="-296.5" font-family="Helvetica,sans-Serif" font-size="10.00">/vsomeip/implementation</text>
<text text-anchor="start" x="858" y="-285.5" font-family="Helvetica,sans-Serif" font-size="10.00">/routing/src/routing_manager</text>
<text text-anchor="middle" x="929" y="-274.5" font-family="Helvetica,sans-Serif" font-size="10.00">_stub.cpp</text>
</a>
</g>
</g>
<!-- Node14&#45;&gt;Node16 -->
<g id="edge21" class="edge">
<title>Node14&#45;&gt;Node16</title>
<path fill="none" stroke="midnightblue" d="M1333.05,-371.85C1252.38,-361.65 1125.95,-343.73 1018,-320 1014.86,-319.31 1011.67,-318.57 1008.45,-317.8"/>
<polygon fill="midnightblue" stroke="midnightblue" points="1332.78,-375.35 1343.14,-373.12 1333.66,-368.4 1332.78,-375.35"/>
</g>
<!-- Node14&#45;&gt;Node17 -->
<g id="edge22" class="edge">
<title>Node14&#45;&gt;Node17</title>
<path fill="none" stroke="midnightblue" d="M1496.64,-369.52C1552.91,-359.39 1620.58,-342.87 1638,-320 1658.9,-292.56 1634.55,-255.04 1613.1,-230.54"/>
<polygon fill="midnightblue" stroke="midnightblue" points="1495.88,-366.1 1486.64,-371.27 1497.09,-372.99 1495.88,-366.1"/>
</g>
<!-- Node19 -->
<g id="node19" class="node">
<title>Node19</title>
<g id="a_node19"><a xlink:href="remote__subscription__ack_8cpp.html" target="_top" xlink:title=" ">
<polygon fill="white" stroke="black" points="1236,-267.5 1236,-319.5 1398,-319.5 1398,-267.5 1236,-267.5"/>
<text text-anchor="start" x="1244" y="-307.5" font-family="Helvetica,sans-Serif" font-size="10.00">/home/kali/projects</text>
<text text-anchor="start" x="1244" y="-296.5" font-family="Helvetica,sans-Serif" font-size="10.00">/vsomeip/implementation</text>
<text text-anchor="start" x="1244" y="-285.5" font-family="Helvetica,sans-Serif" font-size="10.00">/service_discovery/src</text>
<text text-anchor="middle" x="1317" y="-274.5" font-family="Helvetica,sans-Serif" font-size="10.00">/remote_subscription_ack.cpp</text>
</a>
</g>
</g>
<!-- Node14&#45;&gt;Node19 -->
<g id="edge25" class="edge">
<title>Node14&#45;&gt;Node19</title>
<path fill="none" stroke="midnightblue" d="M1379.12,-349.65C1367.97,-339.75 1355.84,-328.98 1345.28,-319.61"/>
<polygon fill="midnightblue" stroke="midnightblue" points="1376.85,-352.31 1386.65,-356.34 1381.5,-347.08 1376.85,-352.31"/>
</g>
<!-- Node17&#45;&gt;Node13 -->
<g id="edge24" class="edge">
<title>Node17&#45;&gt;Node13</title>
<path fill="none" stroke="midnightblue" d="M1500.09,-190.13C1389,-173.23 1199.52,-144.41 1093.57,-128.3"/>
<polygon fill="midnightblue" stroke="midnightblue" points="1499.85,-193.63 1510.26,-191.68 1500.9,-186.71 1499.85,-193.63"/>
</g>
<!-- Node18 -->
<g id="node18" class="node">
<title>Node18</title>
<g id="a_node18"><a xlink:href="service__discovery_2src_2runtime__impl_8cpp.html" target="_top" xlink:title=" ">
<polygon fill="white" stroke="black" points="1516.5,-89.5 1516.5,-141.5 1659.5,-141.5 1659.5,-89.5 1516.5,-89.5"/>
<text text-anchor="start" x="1524.5" y="-129.5" font-family="Helvetica,sans-Serif" font-size="10.00">/home/kali/projects</text>
<text text-anchor="start" x="1524.5" y="-118.5" font-family="Helvetica,sans-Serif" font-size="10.00">/vsomeip/implementation</text>
<text text-anchor="start" x="1524.5" y="-107.5" font-family="Helvetica,sans-Serif" font-size="10.00">/service_discovery/src</text>
<text text-anchor="middle" x="1588" y="-96.5" font-family="Helvetica,sans-Serif" font-size="10.00">/runtime_impl.cpp</text>
</a>
</g>
</g>
<!-- Node17&#45;&gt;Node18 -->
<g id="edge23" class="edge">
<title>Node17&#45;&gt;Node18</title>
<path fill="none" stroke="midnightblue" d="M1588,-168.19C1588,-159.28 1588,-149.9 1588,-141.61"/>
<polygon fill="midnightblue" stroke="midnightblue" points="1584.5,-168.34 1588,-178.34 1591.5,-168.34 1584.5,-168.34"/>
</g>
<!-- Node20&#45;&gt;Node3 -->
<g id="edge27" class="edge">
<title>Node20&#45;&gt;Node3</title>
<path fill="none" stroke="midnightblue" d="M434.7,-348.2C440.56,-339.55 445.89,-329.88 449,-320 456.08,-297.53 456.08,-289.47 449,-267 444.85,-253.83 436.77,-241.02 428.72,-230.53"/>
<polygon fill="midnightblue" stroke="midnightblue" points="431.74,-346.31 428.72,-356.47 437.41,-350.42 431.74,-346.31"/>
</g>
<!-- Node21 -->
<g id="node21" class="node">
<title>Node21</title>
<g id="a_node21"><a xlink:href="event_8cpp.html" target="_top" xlink:title=" ">
<polygon fill="white" stroke="black" points="296.5,-273 296.5,-314 439.5,-314 439.5,-273 296.5,-273"/>
<text text-anchor="start" x="304.5" y="-302" font-family="Helvetica,sans-Serif" font-size="10.00">/home/kali/projects</text>
<text text-anchor="start" x="304.5" y="-291" font-family="Helvetica,sans-Serif" font-size="10.00">/vsomeip/implementation</text>
<text text-anchor="middle" x="368" y="-280" font-family="Helvetica,sans-Serif" font-size="10.00">/routing/src/event.cpp</text>
</a>
</g>
</g>
<!-- Node20&#45;&gt;Node21 -->
<g id="edge28" class="edge">
<title>Node20&#45;&gt;Node21</title>
<path fill="none" stroke="midnightblue" d="M391,-347.17C386.1,-335.93 380.82,-323.84 376.55,-314.08"/>
<polygon fill="midnightblue" stroke="midnightblue" points="387.8,-348.57 395.01,-356.34 394.21,-345.77 387.8,-348.57"/>
</g>
<!-- Node22&#45;&gt;Node7 -->
<g id="edge33" class="edge">
<title>Node22&#45;&gt;Node7</title>
<path fill="none" stroke="midnightblue" d="M871.24,-350.91C859.32,-342.57 848.39,-332.34 841,-320 789.34,-233.79 806.08,-106.51 816.43,-52.84"/>
<polygon fill="midnightblue" stroke="midnightblue" points="869.33,-353.84 879.62,-356.38 873.16,-347.98 869.33,-353.84"/>
</g>
<!-- Node22&#45;&gt;Node16 -->
<g id="edge34" class="edge">
<title>Node22&#45;&gt;Node16</title>
<path fill="none" stroke="midnightblue" d="M935.54,-346.19C934.41,-337.28 933.22,-327.9 932.17,-319.61"/>
<polygon fill="midnightblue" stroke="midnightblue" points="932.09,-346.85 936.82,-356.34 939.04,-345.98 932.09,-346.85"/>
</g>
<!-- Node23&#45;&gt;Node6 -->
<g id="edge36" class="edge">
<title>Node23&#45;&gt;Node6</title>
<path fill="none" stroke="midnightblue" d="M698.02,-353.89C671.71,-343.3 647.17,-331.09 639,-320 599.68,-266.6 605.44,-183 611.47,-141.55"/>
<polygon fill="midnightblue" stroke="midnightblue" points="696.79,-357.16 707.38,-357.56 699.35,-350.65 696.79,-357.16"/>
</g>
<!-- Node23&#45;&gt;Node16 -->
<g id="edge37" class="edge">
<title>Node23&#45;&gt;Node16</title>
<path fill="none" stroke="midnightblue" d="M831.46,-351.07C849.19,-340.79 868.77,-329.43 885.71,-319.61"/>
<polygon fill="midnightblue" stroke="midnightblue" points="829.28,-348.29 822.39,-356.34 832.79,-354.35 829.28,-348.29"/>
</g>
<!-- Node24&#45;&gt;Node6 -->
<g id="edge39" class="edge">
<title>Node24&#45;&gt;Node6</title>
<path fill="none" stroke="midnightblue" d="M582.47,-348.04C576.54,-339.45 571.16,-329.84 568,-320 547.76,-256.92 580.77,-180.36 601.4,-141.59"/>
<polygon fill="midnightblue" stroke="midnightblue" points="579.78,-350.28 588.53,-356.25 585.41,-346.13 579.78,-350.28"/>
</g>
<!-- Node24&#45;&gt;Node13 -->
<g id="edge43" class="edge">
<title>Node24&#45;&gt;Node13</title>
<path fill="none" stroke="midnightblue" d="M612.07,-346.08C613.93,-321.28 620.22,-288.8 639,-267 715.71,-177.98 852.44,-141.07 938.46,-126.16"/>
<polygon fill="midnightblue" stroke="midnightblue" points="608.57,-346.02 611.53,-356.19 615.56,-346.39 608.57,-346.02"/>
</g>
<!-- Node25 -->
<g id="node25" class="node">
<title>Node25</title>
<g id="a_node25"><a xlink:href="service__discovery_8hpp.html" target="_top" xlink:title=" ">
<polygon fill="white" stroke="black" points="648,-267.5 648,-319.5 794,-319.5 794,-267.5 648,-267.5"/>
<text text-anchor="start" x="656" y="-307.5" font-family="Helvetica,sans-Serif" font-size="10.00">/home/kali/projects</text>
<text text-anchor="start" x="656" y="-296.5" font-family="Helvetica,sans-Serif" font-size="10.00">/vsomeip/implementation</text>
<text text-anchor="start" x="656" y="-285.5" font-family="Helvetica,sans-Serif" font-size="10.00">/service_discovery/include</text>
<text text-anchor="middle" x="721" y="-274.5" font-family="Helvetica,sans-Serif" font-size="10.00">/service_discovery.hpp</text>
</a>
</g>
</g>
<!-- Node24&#45;&gt;Node25 -->
<g id="edge40" class="edge">
<title>Node24&#45;&gt;Node25</title>
<path fill="none" stroke="midnightblue" d="M651.55,-349.93C664.05,-339.96 677.69,-329.07 689.54,-319.61"/>
<polygon fill="midnightblue" stroke="midnightblue" points="649.16,-347.36 643.53,-356.34 653.53,-352.83 649.16,-347.36"/>
</g>
<!-- Node25&#45;&gt;Node7 -->
<g id="edge41" class="edge">
<title>Node25&#45;&gt;Node7</title>
<path fill="none" stroke="midnightblue" d="M734.31,-257.57C754.96,-203.41 794.19,-100.46 812.35,-52.83"/>
<polygon fill="midnightblue" stroke="midnightblue" points="730.98,-256.5 730.68,-267.09 737.52,-258.99 730.98,-256.5"/>
</g>
<!-- Node25&#45;&gt;Node17 -->
<g id="edge42" class="edge">
<title>Node25&#45;&gt;Node17</title>
<path fill="none" stroke="midnightblue" d="M803.87,-273.28C816.26,-270.87 828.93,-268.67 841,-267 1081.45,-233.69 1144.36,-254.21 1386,-231 1427.17,-227.05 1472.9,-221.38 1510.42,-216.39"/>
<polygon fill="midnightblue" stroke="midnightblue" points="803.12,-269.86 794,-275.24 804.49,-276.72 803.12,-269.86"/>
</g>
</g>
</svg>
