<?xml version="1.0" encoding="UTF-8" standalone="no"?>
<!DOCTYPE svg PUBLIC "-//W3C//DTD SVG 1.1//EN"
 "http://www.w3.org/Graphics/SVG/1.1/DTD/svg11.dtd">
<!-- Generated by graphviz version 2.43.0 (0)
 -->
<!-- Title: /home/kali/projects/vsomeip/implementation/utility/include/utility.hpp Pages: 1 -->
<svg width="680pt" height="173pt"
 viewBox="0.00 0.00 680.00 173.00" xmlns="http://www.w3.org/2000/svg" xmlns:xlink="http://www.w3.org/1999/xlink">
<g id="graph0" class="graph" transform="scale(1 1) rotate(0) translate(4 169)">
<title>/home/kali/projects/vsomeip/implementation/utility/include/utility.hpp</title>
<polygon fill="white" stroke="transparent" points="-4,4 -4,-169 676,-169 676,4 -4,4"/>
<!-- Node1 -->
<g id="node1" class="node">
<title>Node1</title>
<g id="a_node1"><a xlink:title=" ">
<polygon fill="#bfbfbf" stroke="black" points="129.5,-123.5 129.5,-164.5 272.5,-164.5 272.5,-123.5 129.5,-123.5"/>
<text text-anchor="start" x="137.5" y="-152.5" font-family="Helvetica,sans-Serif" font-size="10.00">/home/kali/projects</text>
<text text-anchor="start" x="137.5" y="-141.5" font-family="Helvetica,sans-Serif" font-size="10.00">/vsomeip/implementation</text>
<text text-anchor="middle" x="201" y="-130.5" font-family="Helvetica,sans-Serif" font-size="10.00">/utility/include/utility.hpp</text>
</a>
</g>
</g>
<!-- Node2 -->
<g id="node2" class="node">
<title>Node2</title>
<g id="a_node2"><a xlink:title=" ">
<polygon fill="white" stroke="#bfbfbf" points="0,-62 0,-81 38,-81 38,-62 0,-62"/>
<text text-anchor="middle" x="19" y="-69" font-family="Helvetica,sans-Serif" font-size="10.00">map</text>
</a>
</g>
</g>
<!-- Node1&#45;&gt;Node2 -->
<g id="edge1" class="edge">
<title>Node1&#45;&gt;Node2</title>
<path fill="none" stroke="midnightblue" d="M141.8,-123.48C112.86,-113.43 77.74,-100.48 47,-87 46,-86.56 44.98,-86.1 43.96,-85.63"/>
<polygon fill="midnightblue" stroke="midnightblue" points="45.34,-82.41 34.82,-81.14 42.25,-88.69 45.34,-82.41"/>
</g>
<!-- Node3 -->
<g id="node3" class="node">
<title>Node3</title>
<g id="a_node3"><a xlink:title=" ">
<polygon fill="white" stroke="#bfbfbf" points="56,-62 56,-81 88,-81 88,-62 56,-62"/>
<text text-anchor="middle" x="72" y="-69" font-family="Helvetica,sans-Serif" font-size="10.00">set</text>
</a>
</g>
</g>
<!-- Node1&#45;&gt;Node3 -->
<g id="edge2" class="edge">
<title>Node1&#45;&gt;Node3</title>
<path fill="none" stroke="midnightblue" d="M165.07,-123.36C143.28,-111.46 116.05,-96.58 96.69,-85.99"/>
<polygon fill="midnightblue" stroke="midnightblue" points="98.32,-82.9 87.87,-81.17 94.97,-89.04 98.32,-82.9"/>
</g>
<!-- Node4 -->
<g id="node4" class="node">
<title>Node4</title>
<g id="a_node4"><a xlink:title=" ">
<polygon fill="white" stroke="#bfbfbf" points="303,-0.5 303,-19.5 361,-19.5 361,-0.5 303,-0.5"/>
<text text-anchor="middle" x="332" y="-7.5" font-family="Helvetica,sans-Serif" font-size="10.00">memory</text>
</a>
</g>
</g>
<!-- Node1&#45;&gt;Node4 -->
<g id="edge3" class="edge">
<title>Node1&#45;&gt;Node4</title>
<path fill="none" stroke="midnightblue" d="M169.25,-123.44C144.38,-105.67 116.8,-78.83 135,-56 154.34,-31.75 240.94,-19.53 292.67,-14.29"/>
<polygon fill="midnightblue" stroke="midnightblue" points="293.21,-17.76 302.83,-13.31 292.54,-10.79 293.21,-17.76"/>
</g>
<!-- Node5 -->
<g id="node5" class="node">
<title>Node5</title>
<g id="a_node5"><a xlink:title=" ">
<polygon fill="white" stroke="#bfbfbf" points="144.5,-62 144.5,-81 191.5,-81 191.5,-62 144.5,-62"/>
<text text-anchor="middle" x="168" y="-69" font-family="Helvetica,sans-Serif" font-size="10.00">vector</text>
</a>
</g>
</g>
<!-- Node1&#45;&gt;Node5 -->
<g id="edge4" class="edge">
<title>Node1&#45;&gt;Node5</title>
<path fill="none" stroke="midnightblue" d="M191.81,-123.36C187,-113.08 181.14,-100.58 176.45,-90.54"/>
<polygon fill="midnightblue" stroke="midnightblue" points="179.47,-88.75 172.06,-81.17 173.13,-91.71 179.47,-88.75"/>
</g>
<!-- Node6 -->
<g id="node6" class="node">
<title>Node6</title>
<g id="a_node6"><a xlink:title=" ">
<polygon fill="white" stroke="#bfbfbf" points="210,-62 210,-81 260,-81 260,-62 210,-62"/>
<text text-anchor="middle" x="235" y="-69" font-family="Helvetica,sans-Serif" font-size="10.00">atomic</text>
</a>
</g>
</g>
<!-- Node1&#45;&gt;Node6 -->
<g id="edge5" class="edge">
<title>Node1&#45;&gt;Node6</title>
<path fill="none" stroke="midnightblue" d="M210.47,-123.36C215.48,-112.97 221.59,-100.32 226.45,-90.23"/>
<polygon fill="midnightblue" stroke="midnightblue" points="229.63,-91.7 230.82,-81.17 223.32,-88.66 229.63,-91.7"/>
</g>
<!-- Node7 -->
<g id="node7" class="node">
<title>Node7</title>
<g id="a_node7"><a xlink:title=" ">
<polygon fill="white" stroke="#bfbfbf" points="278,-56.5 278,-86.5 402,-86.5 402,-56.5 278,-56.5"/>
<text text-anchor="start" x="286" y="-74.5" font-family="Helvetica,sans-Serif" font-size="10.00">vsomeip/enumeration</text>
<text text-anchor="middle" x="340" y="-63.5" font-family="Helvetica,sans-Serif" font-size="10.00">_types.hpp</text>
</a>
</g>
</g>
<!-- Node1&#45;&gt;Node7 -->
<g id="edge6" class="edge">
<title>Node1&#45;&gt;Node7</title>
<path fill="none" stroke="midnightblue" d="M239.72,-123.36C259.55,-113.3 283.58,-101.12 303.14,-91.2"/>
<polygon fill="midnightblue" stroke="midnightblue" points="304.73,-94.31 312.06,-86.67 301.56,-88.07 304.73,-94.31"/>
</g>
<!-- Node8 -->
<g id="node8" class="node">
<title>Node8</title>
<g id="a_node8"><a xlink:title=" ">
<polygon fill="white" stroke="#bfbfbf" points="420.5,-62 420.5,-81 547.5,-81 547.5,-62 420.5,-62"/>
<text text-anchor="middle" x="484" y="-69" font-family="Helvetica,sans-Serif" font-size="10.00">vsomeip/message.hpp</text>
</a>
</g>
</g>
<!-- Node1&#45;&gt;Node8 -->
<g id="edge7" class="edge">
<title>Node1&#45;&gt;Node8</title>
<path fill="none" stroke="midnightblue" d="M272.78,-125.12C325.34,-112.02 395.02,-94.67 439.69,-83.54"/>
<polygon fill="midnightblue" stroke="midnightblue" points="440.8,-86.87 449.66,-81.06 439.11,-80.08 440.8,-86.87"/>
</g>
<!-- Node9 -->
<g id="node9" class="node">
<title>Node9</title>
<g id="a_node9"><a xlink:href="criticalsection_8hpp.html" target="_top" xlink:title=" ">
<polygon fill="white" stroke="black" points="566,-62 566,-81 672,-81 672,-62 566,-62"/>
<text text-anchor="middle" x="619" y="-69" font-family="Helvetica,sans-Serif" font-size="10.00">criticalsection.hpp</text>
</a>
</g>
</g>
<!-- Node1&#45;&gt;Node9 -->
<g id="edge8" class="edge">
<title>Node1&#45;&gt;Node9</title>
<path fill="none" stroke="midnightblue" d="M272.53,-133.33C344.61,-123.21 458.91,-106.16 557,-87 562.77,-85.87 568.82,-84.59 574.78,-83.26"/>
<polygon fill="midnightblue" stroke="midnightblue" points="575.69,-86.64 584.66,-81.01 574.14,-79.82 575.69,-86.64"/>
</g>
<!-- Node9&#45;&gt;Node4 -->
<g id="edge9" class="edge">
<title>Node9&#45;&gt;Node4</title>
<path fill="none" stroke="midnightblue" d="M583.31,-61.94C574.71,-59.94 565.53,-57.85 557,-56 491.99,-41.9 416.05,-27.05 371.11,-18.42"/>
<polygon fill="midnightblue" stroke="midnightblue" points="371.67,-14.97 361.19,-16.52 370.35,-21.84 371.67,-14.97"/>
</g>
<!-- Node10 -->
<g id="node10" class="node">
<title>Node10</title>
<g id="a_node10"><a xlink:title=" ">
<polygon fill="white" stroke="#bfbfbf" points="595,-0.5 595,-19.5 643,-19.5 643,-0.5 595,-0.5"/>
<text text-anchor="middle" x="619" y="-7.5" font-family="Helvetica,sans-Serif" font-size="10.00">mutex</text>
</a>
</g>
</g>
<!-- Node9&#45;&gt;Node10 -->
<g id="edge10" class="edge">
<title>Node9&#45;&gt;Node10</title>
<path fill="none" stroke="midnightblue" d="M619,-61.98C619,-53.58 619,-40.48 619,-29.66"/>
<polygon fill="midnightblue" stroke="midnightblue" points="622.5,-29.51 619,-19.51 615.5,-29.51 622.5,-29.51"/>
</g>
</g>
</svg>
