<?xml version="1.0" encoding="UTF-8" standalone="no"?>
<!DOCTYPE svg PUBLIC "-//W3C//DTD SVG 1.1//EN"
 "http://www.w3.org/Graphics/SVG/1.1/DTD/svg11.dtd">
<!-- Generated by graphviz version 2.43.0 (0)
 -->
<!-- Title: /home/kali/projects/vsomeip/implementation/endpoints/include/virtual_server_endpoint_impl.hpp Pages: 1 -->
<svg width="591pt" height="173pt"
 viewBox="0.00 0.00 590.50 173.00" xmlns="http://www.w3.org/2000/svg" xmlns:xlink="http://www.w3.org/1999/xlink">
<g id="graph0" class="graph" transform="scale(1 1) rotate(0) translate(4 169)">
<title>/home/kali/projects/vsomeip/implementation/endpoints/include/virtual_server_endpoint_impl.hpp</title>
<polygon fill="white" stroke="transparent" points="-4,4 -4,-169 586.5,-169 586.5,4 -4,4"/>
<!-- Node1 -->
<g id="node1" class="node">
<title>Node1</title>
<g id="a_node1"><a xlink:title=" ">
<polygon fill="#bfbfbf" stroke="black" points="93.5,-112.5 93.5,-164.5 242.5,-164.5 242.5,-112.5 93.5,-112.5"/>
<text text-anchor="start" x="101.5" y="-152.5" font-family="Helvetica,sans-Serif" font-size="10.00">/home/kali/projects</text>
<text text-anchor="start" x="101.5" y="-141.5" font-family="Helvetica,sans-Serif" font-size="10.00">/vsomeip/implementation</text>
<text text-anchor="start" x="101.5" y="-130.5" font-family="Helvetica,sans-Serif" font-size="10.00">/endpoints/include/virtual</text>
<text text-anchor="middle" x="168" y="-119.5" font-family="Helvetica,sans-Serif" font-size="10.00">_server_endpoint_impl.hpp</text>
</a>
</g>
</g>
<!-- Node2 -->
<g id="node2" class="node">
<title>Node2</title>
<g id="a_node2"><a xlink:title=" ">
<polygon fill="white" stroke="#bfbfbf" points="0,-56.5 0,-75.5 140,-75.5 140,-56.5 0,-56.5"/>
<text text-anchor="middle" x="70" y="-63.5" font-family="Helvetica,sans-Serif" font-size="10.00">boost/asio/io_service.hpp</text>
</a>
</g>
</g>
<!-- Node1&#45;&gt;Node2 -->
<g id="edge1" class="edge">
<title>Node1&#45;&gt;Node2</title>
<path fill="none" stroke="midnightblue" d="M133.17,-112.45C118.83,-102.13 102.71,-90.53 90.35,-81.64"/>
<polygon fill="midnightblue" stroke="midnightblue" points="92.25,-78.69 82.09,-75.7 88.16,-84.38 92.25,-78.69"/>
</g>
<!-- Node3 -->
<g id="node3" class="node">
<title>Node3</title>
<g id="a_node3"><a xlink:title=" ">
<polygon fill="white" stroke="#bfbfbf" points="50.5,-0.5 50.5,-19.5 209.5,-19.5 209.5,-0.5 50.5,-0.5"/>
<text text-anchor="middle" x="130" y="-7.5" font-family="Helvetica,sans-Serif" font-size="10.00">vsomeip/primitive_types.hpp</text>
</a>
</g>
</g>
<!-- Node1&#45;&gt;Node3 -->
<g id="edge2" class="edge">
<title>Node1&#45;&gt;Node3</title>
<path fill="none" stroke="midnightblue" d="M163.27,-112.23C159.94,-95.98 155.02,-74.51 149,-56 146.05,-46.93 142.02,-37.14 138.44,-29.01"/>
<polygon fill="midnightblue" stroke="midnightblue" points="141.57,-27.45 134.24,-19.79 135.2,-30.35 141.57,-27.45"/>
</g>
<!-- Node4 -->
<g id="node4" class="node">
<title>Node4</title>
<g id="a_node4"><a xlink:href="endpoint_8hpp.html" target="_top" xlink:title=" ">
<polygon fill="white" stroke="black" points="234,-56.5 234,-75.5 362,-75.5 362,-56.5 234,-56.5"/>
<text text-anchor="middle" x="298" y="-63.5" font-family="Helvetica,sans-Serif" font-size="10.00">../include/endpoint.hpp</text>
</a>
</g>
</g>
<!-- Node1&#45;&gt;Node4 -->
<g id="edge3" class="edge">
<title>Node1&#45;&gt;Node4</title>
<path fill="none" stroke="midnightblue" d="M214.2,-112.45C234.09,-101.66 256.54,-89.48 273.2,-80.45"/>
<polygon fill="midnightblue" stroke="midnightblue" points="275.15,-83.37 282.28,-75.53 271.82,-77.22 275.15,-83.37"/>
</g>
<!-- Node4&#45;&gt;Node3 -->
<g id="edge5" class="edge">
<title>Node4&#45;&gt;Node3</title>
<path fill="none" stroke="midnightblue" d="M271.38,-56.44C242.99,-47.32 197.86,-32.81 166.25,-22.65"/>
<polygon fill="midnightblue" stroke="midnightblue" points="167.09,-19.24 156.5,-19.52 164.94,-25.91 167.09,-19.24"/>
</g>
<!-- Node5 -->
<g id="node5" class="node">
<title>Node5</title>
<g id="a_node5"><a xlink:title=" ">
<polygon fill="white" stroke="#bfbfbf" points="227.5,-0.5 227.5,-19.5 368.5,-19.5 368.5,-0.5 227.5,-0.5"/>
<text text-anchor="middle" x="298" y="-7.5" font-family="Helvetica,sans-Serif" font-size="10.00">boost/asio/ip/address.hpp</text>
</a>
</g>
</g>
<!-- Node4&#45;&gt;Node5 -->
<g id="edge4" class="edge">
<title>Node4&#45;&gt;Node5</title>
<path fill="none" stroke="midnightblue" d="M298,-56.08C298,-49.01 298,-38.86 298,-29.99"/>
<polygon fill="midnightblue" stroke="midnightblue" points="301.5,-29.75 298,-19.75 294.5,-29.75 301.5,-29.75"/>
</g>
<!-- Node6 -->
<g id="node6" class="node">
<title>Node6</title>
<g id="a_node6"><a xlink:title=" ">
<polygon fill="white" stroke="#bfbfbf" points="387,-0.5 387,-19.5 517,-19.5 517,-0.5 387,-0.5"/>
<text text-anchor="middle" x="452" y="-7.5" font-family="Helvetica,sans-Serif" font-size="10.00">vsomeip/constants.hpp</text>
</a>
</g>
</g>
<!-- Node4&#45;&gt;Node6 -->
<g id="edge6" class="edge">
<title>Node4&#45;&gt;Node6</title>
<path fill="none" stroke="midnightblue" d="M322.4,-56.44C348.2,-47.4 389.08,-33.06 418.02,-22.92"/>
<polygon fill="midnightblue" stroke="midnightblue" points="419.43,-26.13 427.71,-19.52 417.12,-19.52 419.43,-26.13"/>
</g>
<!-- Node7 -->
<g id="node7" class="node">
<title>Node7</title>
<g id="a_node7"><a xlink:title=" ">
<polygon fill="white" stroke="#bfbfbf" points="535.5,-0.5 535.5,-19.5 582.5,-19.5 582.5,-0.5 535.5,-0.5"/>
<text text-anchor="middle" x="559" y="-7.5" font-family="Helvetica,sans-Serif" font-size="10.00">vector</text>
</a>
</g>
</g>
<!-- Node4&#45;&gt;Node7 -->
<g id="edge7" class="edge">
<title>Node4&#45;&gt;Node7</title>
<path fill="none" stroke="midnightblue" d="M346.7,-56.43C390.84,-48.43 457.88,-35.69 525.31,-20.03"/>
<polygon fill="midnightblue" stroke="midnightblue" points="526.32,-23.38 535.26,-17.69 524.72,-16.57 526.32,-23.38"/>
</g>
</g>
</svg>
