<?xml version="1.0" encoding="UTF-8" standalone="no"?>
<!DOCTYPE svg PUBLIC "-//W3C//DTD SVG 1.1//EN"
 "http://www.w3.org/Graphics/SVG/1.1/DTD/svg11.dtd">
<!-- Generated by graphviz version 2.43.0 (0)
 -->
<!-- Title: /home/kali/projects/vsomeip/interface/vsomeip/application.hpp Pages: 1 -->
<svg width="1084pt" height="117pt"
 viewBox="0.00 0.00 1083.50 117.00" xmlns="http://www.w3.org/2000/svg" xmlns:xlink="http://www.w3.org/1999/xlink">
<g id="graph0" class="graph" transform="scale(1 1) rotate(0) translate(4 113)">
<title>/home/kali/projects/vsomeip/interface/vsomeip/application.hpp</title>
<polygon fill="white" stroke="transparent" points="-4,4 -4,-113 1079.5,-113 1079.5,4 -4,4"/>
<!-- Node1 -->
<g id="node1" class="node">
<title>Node1</title>
<g id="a_node1"><a xlink:title=" ">
<polygon fill="#bfbfbf" stroke="black" points="257.5,-67.5 257.5,-108.5 410.5,-108.5 410.5,-67.5 257.5,-67.5"/>
<text text-anchor="start" x="265.5" y="-96.5" font-family="Helvetica,sans-Serif" font-size="10.00">/home/kali/projects</text>
<text text-anchor="start" x="265.5" y="-85.5" font-family="Helvetica,sans-Serif" font-size="10.00">/vsomeip/interface/vsomeip</text>
<text text-anchor="middle" x="334" y="-74.5" font-family="Helvetica,sans-Serif" font-size="10.00">/application.hpp</text>
</a>
</g>
</g>
<!-- Node2 -->
<g id="node2" class="node">
<title>Node2</title>
<g id="a_node2"><a xlink:title=" ">
<polygon fill="white" stroke="#bfbfbf" points="0,-6 0,-25 50,-25 50,-6 0,-6"/>
<text text-anchor="middle" x="25" y="-13" font-family="Helvetica,sans-Serif" font-size="10.00">chrono</text>
</a>
</g>
</g>
<!-- Node1&#45;&gt;Node2 -->
<g id="edge1" class="edge">
<title>Node1&#45;&gt;Node2</title>
<path fill="none" stroke="midnightblue" d="M257.38,-75.67C201.62,-66.4 124.71,-51.47 59,-31 56.86,-30.33 54.67,-29.58 52.48,-28.77"/>
<polygon fill="midnightblue" stroke="midnightblue" points="53.68,-25.48 43.1,-25.02 51.08,-31.98 53.68,-25.48"/>
</g>
<!-- Node3 -->
<g id="node3" class="node">
<title>Node3</title>
<g id="a_node3"><a xlink:title=" ">
<polygon fill="white" stroke="#bfbfbf" points="68,-6 68,-25 126,-25 126,-6 68,-6"/>
<text text-anchor="middle" x="97" y="-13" font-family="Helvetica,sans-Serif" font-size="10.00">memory</text>
</a>
</g>
</g>
<!-- Node1&#45;&gt;Node3 -->
<g id="edge2" class="edge">
<title>Node1&#45;&gt;Node3</title>
<path fill="none" stroke="midnightblue" d="M258.39,-67.45C221.02,-57.35 175.38,-44.36 135,-31 132.74,-30.25 130.41,-29.45 128.08,-28.62"/>
<polygon fill="midnightblue" stroke="midnightblue" points="129.18,-25.29 118.58,-25.12 126.76,-31.86 129.18,-25.29"/>
</g>
<!-- Node4 -->
<g id="node4" class="node">
<title>Node4</title>
<g id="a_node4"><a xlink:title=" ">
<polygon fill="white" stroke="#bfbfbf" points="144,-6 144,-25 176,-25 176,-6 144,-6"/>
<text text-anchor="middle" x="160" y="-13" font-family="Helvetica,sans-Serif" font-size="10.00">set</text>
</a>
</g>
</g>
<!-- Node1&#45;&gt;Node4 -->
<g id="edge3" class="edge">
<title>Node1&#45;&gt;Node4</title>
<path fill="none" stroke="midnightblue" d="M275.04,-67.39C247.28,-57.51 213.97,-44.73 185,-31 184.3,-30.67 183.6,-30.33 182.89,-29.97"/>
<polygon fill="midnightblue" stroke="midnightblue" points="184.26,-26.73 173.8,-25.05 180.92,-32.89 184.26,-26.73"/>
</g>
<!-- Node5 -->
<g id="node5" class="node">
<title>Node5</title>
<g id="a_node5"><a xlink:title=" ">
<polygon fill="white" stroke="#bfbfbf" points="194,-6 194,-25 232,-25 232,-6 194,-6"/>
<text text-anchor="middle" x="213" y="-13" font-family="Helvetica,sans-Serif" font-size="10.00">map</text>
</a>
</g>
</g>
<!-- Node1&#45;&gt;Node5 -->
<g id="edge4" class="edge">
<title>Node1&#45;&gt;Node5</title>
<path fill="none" stroke="midnightblue" d="M300.29,-67.36C280.05,-55.57 254.79,-40.85 236.65,-30.28"/>
<polygon fill="midnightblue" stroke="midnightblue" points="238.29,-27.18 227.89,-25.17 234.76,-33.23 238.29,-27.18"/>
</g>
<!-- Node6 -->
<g id="node6" class="node">
<title>Node6</title>
<g id="a_node6"><a xlink:title=" ">
<polygon fill="white" stroke="#bfbfbf" points="250.5,-6 250.5,-25 297.5,-25 297.5,-6 250.5,-6"/>
<text text-anchor="middle" x="274" y="-13" font-family="Helvetica,sans-Serif" font-size="10.00">vector</text>
</a>
</g>
</g>
<!-- Node1&#45;&gt;Node6 -->
<g id="edge5" class="edge">
<title>Node1&#45;&gt;Node6</title>
<path fill="none" stroke="midnightblue" d="M317.29,-67.36C308.08,-56.54 296.77,-43.26 288.03,-32.98"/>
<polygon fill="midnightblue" stroke="midnightblue" points="290.53,-30.52 281.38,-25.17 285.2,-35.06 290.53,-30.52"/>
</g>
<!-- Node7 -->
<g id="node7" class="node">
<title>Node7</title>
<g id="a_node7"><a xlink:title=" ">
<polygon fill="white" stroke="#bfbfbf" points="315.5,-6 315.5,-25 474.5,-25 474.5,-6 315.5,-6"/>
<text text-anchor="middle" x="395" y="-13" font-family="Helvetica,sans-Serif" font-size="10.00">vsomeip/primitive_types.hpp</text>
</a>
</g>
</g>
<!-- Node1&#45;&gt;Node7 -->
<g id="edge6" class="edge">
<title>Node1&#45;&gt;Node7</title>
<path fill="none" stroke="midnightblue" d="M350.99,-67.36C360.36,-56.54 371.85,-43.26 380.74,-32.98"/>
<polygon fill="midnightblue" stroke="midnightblue" points="383.6,-35.03 387.5,-25.17 378.31,-30.45 383.6,-35.03"/>
</g>
<!-- Node8 -->
<g id="node8" class="node">
<title>Node8</title>
<g id="a_node8"><a xlink:title=" ">
<polygon fill="white" stroke="#bfbfbf" points="492,-0.5 492,-30.5 616,-30.5 616,-0.5 492,-0.5"/>
<text text-anchor="start" x="500" y="-18.5" font-family="Helvetica,sans-Serif" font-size="10.00">vsomeip/enumeration</text>
<text text-anchor="middle" x="554" y="-7.5" font-family="Helvetica,sans-Serif" font-size="10.00">_types.hpp</text>
</a>
</g>
</g>
<!-- Node1&#45;&gt;Node8 -->
<g id="edge7" class="edge">
<title>Node1&#45;&gt;Node8</title>
<path fill="none" stroke="midnightblue" d="M394.99,-67.46C428.06,-56.86 468.57,-43.88 500.42,-33.67"/>
<polygon fill="midnightblue" stroke="midnightblue" points="501.56,-36.98 510.01,-30.6 499.42,-30.32 501.56,-36.98"/>
</g>
<!-- Node9 -->
<g id="node9" class="node">
<title>Node9</title>
<g id="a_node9"><a xlink:title=" ">
<polygon fill="white" stroke="#bfbfbf" points="634.5,-6 634.5,-25 789.5,-25 789.5,-6 634.5,-6"/>
<text text-anchor="middle" x="712" y="-13" font-family="Helvetica,sans-Serif" font-size="10.00">vsomeip/function_types.hpp</text>
</a>
</g>
</g>
<!-- Node1&#45;&gt;Node9 -->
<g id="edge8" class="edge">
<title>Node1&#45;&gt;Node9</title>
<path fill="none" stroke="midnightblue" d="M410.95,-72.65C483.79,-59.06 591.39,-39 656.29,-26.89"/>
<polygon fill="midnightblue" stroke="midnightblue" points="657.13,-30.29 666.32,-25.02 655.85,-23.41 657.13,-30.29"/>
</g>
<!-- Node10 -->
<g id="node10" class="node">
<title>Node10</title>
<g id="a_node10"><a xlink:title=" ">
<polygon fill="white" stroke="#bfbfbf" points="808,-6 808,-25 938,-25 938,-6 808,-6"/>
<text text-anchor="middle" x="873" y="-13" font-family="Helvetica,sans-Serif" font-size="10.00">vsomeip/constants.hpp</text>
</a>
</g>
</g>
<!-- Node1&#45;&gt;Node10 -->
<g id="edge9" class="edge">
<title>Node1&#45;&gt;Node10</title>
<path fill="none" stroke="midnightblue" d="M410.76,-79.51C503.15,-70.08 662.86,-52.51 799,-31 806.64,-29.79 814.69,-28.37 822.56,-26.9"/>
<polygon fill="midnightblue" stroke="midnightblue" points="823.22,-30.34 832.38,-25.02 821.9,-23.46 823.22,-30.34"/>
</g>
<!-- Node11 -->
<g id="node11" class="node">
<title>Node11</title>
<g id="a_node11"><a xlink:title=" ">
<polygon fill="white" stroke="#bfbfbf" points="956.5,-6 956.5,-25 1075.5,-25 1075.5,-6 956.5,-6"/>
<text text-anchor="middle" x="1016" y="-13" font-family="Helvetica,sans-Serif" font-size="10.00">vsomeip/handler.hpp</text>
</a>
</g>
</g>
<!-- Node1&#45;&gt;Node11 -->
<g id="edge10" class="edge">
<title>Node1&#45;&gt;Node11</title>
<path fill="none" stroke="midnightblue" d="M410.8,-82.85C527.23,-75.92 755.19,-59.82 947,-31 954.24,-29.91 961.86,-28.54 969.3,-27.08"/>
<polygon fill="midnightblue" stroke="midnightblue" points="970.16,-30.47 979.26,-25.05 968.76,-23.62 970.16,-30.47"/>
</g>
</g>
</svg>
