<?xml version="1.0" encoding="UTF-8" standalone="no"?>
<!DOCTYPE svg PUBLIC "-//W3C//DTD SVG 1.1//EN"
 "http://www.w3.org/Graphics/SVG/1.1/DTD/svg11.dtd">
<!-- Generated by graphviz version 2.43.0 (0)
 -->
<!-- Title: /home/kali/projects/vsomeip/interface/vsomeip/vsomeip.hpp Pages: 1 -->
<svg width="980pt" height="106pt"
 viewBox="0.00 0.00 979.50 106.00" xmlns="http://www.w3.org/2000/svg" xmlns:xlink="http://www.w3.org/1999/xlink">
<g id="graph0" class="graph" transform="scale(1 1) rotate(0) translate(4 102)">
<title>/home/kali/projects/vsomeip/interface/vsomeip/vsomeip.hpp</title>
<polygon fill="white" stroke="transparent" points="-4,4 -4,-102 975.5,-102 975.5,4 -4,4"/>
<!-- Node1 -->
<g id="node1" class="node">
<title>Node1</title>
<g id="a_node1"><a xlink:title=" ">
<polygon fill="#bfbfbf" stroke="black" points="426.5,-56.5 426.5,-97.5 579.5,-97.5 579.5,-56.5 426.5,-56.5"/>
<text text-anchor="start" x="434.5" y="-85.5" font-family="Helvetica,sans-Serif" font-size="10.00">/home/kali/projects</text>
<text text-anchor="start" x="434.5" y="-74.5" font-family="Helvetica,sans-Serif" font-size="10.00">/vsomeip/interface/vsomeip</text>
<text text-anchor="middle" x="503" y="-63.5" font-family="Helvetica,sans-Serif" font-size="10.00">/vsomeip.hpp</text>
</a>
</g>
</g>
<!-- Node2 -->
<g id="node2" class="node">
<title>Node2</title>
<g id="a_node2"><a xlink:title=" ">
<polygon fill="white" stroke="#bfbfbf" points="0,-0.5 0,-19.5 130,-19.5 130,-0.5 0,-0.5"/>
<text text-anchor="middle" x="65" y="-7.5" font-family="Helvetica,sans-Serif" font-size="10.00">vsomeip/constants.hpp</text>
</a>
</g>
</g>
<!-- Node1&#45;&gt;Node2 -->
<g id="edge1" class="edge">
<title>Node1&#45;&gt;Node2</title>
<path fill="none" stroke="midnightblue" d="M426.46,-64.64C343.49,-52.33 212.35,-32.87 132.93,-21.08"/>
<polygon fill="midnightblue" stroke="midnightblue" points="132.96,-17.55 122.55,-19.54 131.93,-24.47 132.96,-17.55"/>
</g>
<!-- Node3 -->
<g id="node3" class="node">
<title>Node3</title>
<g id="a_node3"><a xlink:title=" ">
<polygon fill="white" stroke="#bfbfbf" points="148,-0.5 148,-19.5 266,-19.5 266,-0.5 148,-0.5"/>
<text text-anchor="middle" x="207" y="-7.5" font-family="Helvetica,sans-Serif" font-size="10.00">vsomeip/defines.hpp</text>
</a>
</g>
</g>
<!-- Node1&#45;&gt;Node3 -->
<g id="edge2" class="edge">
<title>Node1&#45;&gt;Node3</title>
<path fill="none" stroke="midnightblue" d="M426.39,-59.18C372.45,-47.33 301.87,-31.83 255.53,-21.66"/>
<polygon fill="midnightblue" stroke="midnightblue" points="256.25,-18.23 245.73,-19.51 254.75,-25.07 256.25,-18.23"/>
</g>
<!-- Node4 -->
<g id="node4" class="node">
<title>Node4</title>
<g id="a_node4"><a xlink:title=" ">
<polygon fill="white" stroke="#bfbfbf" points="284.5,-0.5 284.5,-19.5 421.5,-19.5 421.5,-0.5 284.5,-0.5"/>
<text text-anchor="middle" x="353" y="-7.5" font-family="Helvetica,sans-Serif" font-size="10.00">vsomeip/application.hpp</text>
</a>
</g>
</g>
<!-- Node1&#45;&gt;Node4 -->
<g id="edge3" class="edge">
<title>Node1&#45;&gt;Node4</title>
<path fill="none" stroke="midnightblue" d="M458,-56.5C433.45,-45.86 403.77,-33 382.24,-23.67"/>
<polygon fill="midnightblue" stroke="midnightblue" points="383.53,-20.42 372.97,-19.65 380.75,-26.84 383.53,-20.42"/>
</g>
<!-- Node5 -->
<g id="node5" class="node">
<title>Node5</title>
<g id="a_node5"><a xlink:title=" ">
<polygon fill="white" stroke="#bfbfbf" points="439.5,-0.5 439.5,-19.5 566.5,-19.5 566.5,-0.5 439.5,-0.5"/>
<text text-anchor="middle" x="503" y="-7.5" font-family="Helvetica,sans-Serif" font-size="10.00">vsomeip/message.hpp</text>
</a>
</g>
</g>
<!-- Node1&#45;&gt;Node5 -->
<g id="edge4" class="edge">
<title>Node1&#45;&gt;Node5</title>
<path fill="none" stroke="midnightblue" d="M503,-56.5C503,-48.07 503,-38.24 503,-29.87"/>
<polygon fill="midnightblue" stroke="midnightblue" points="506.5,-29.65 503,-19.65 499.5,-29.65 506.5,-29.65"/>
</g>
<!-- Node6 -->
<g id="node6" class="node">
<title>Node6</title>
<g id="a_node6"><a xlink:title=" ">
<polygon fill="white" stroke="#bfbfbf" points="585,-0.5 585,-19.5 707,-19.5 707,-0.5 585,-0.5"/>
<text text-anchor="middle" x="646" y="-7.5" font-family="Helvetica,sans-Serif" font-size="10.00">vsomeip/payload.hpp</text>
</a>
</g>
</g>
<!-- Node1&#45;&gt;Node6 -->
<g id="edge5" class="edge">
<title>Node1&#45;&gt;Node6</title>
<path fill="none" stroke="midnightblue" d="M545.9,-56.5C569.2,-45.91 597.34,-33.12 617.85,-23.8"/>
<polygon fill="midnightblue" stroke="midnightblue" points="619.31,-26.98 626.96,-19.65 616.41,-20.6 619.31,-26.98"/>
</g>
<!-- Node7 -->
<g id="node7" class="node">
<title>Node7</title>
<g id="a_node7"><a xlink:title=" ">
<polygon fill="white" stroke="#bfbfbf" points="725.5,-0.5 725.5,-19.5 846.5,-19.5 846.5,-0.5 725.5,-0.5"/>
<text text-anchor="middle" x="786" y="-7.5" font-family="Helvetica,sans-Serif" font-size="10.00">vsomeip/runtime.hpp</text>
</a>
</g>
</g>
<!-- Node1&#45;&gt;Node7 -->
<g id="edge6" class="edge">
<title>Node1&#45;&gt;Node7</title>
<path fill="none" stroke="midnightblue" d="M579.58,-58.41C630.35,-46.75 695.35,-31.82 738.72,-21.86"/>
<polygon fill="midnightblue" stroke="midnightblue" points="739.75,-25.21 748.71,-19.56 738.18,-18.39 739.75,-25.21"/>
</g>
<!-- Node8 -->
<g id="node8" class="node">
<title>Node8</title>
<g id="a_node8"><a xlink:title=" ">
<polygon fill="white" stroke="#bfbfbf" points="864.5,-0.5 864.5,-19.5 971.5,-19.5 971.5,-0.5 864.5,-0.5"/>
<text text-anchor="middle" x="918" y="-7.5" font-family="Helvetica,sans-Serif" font-size="10.00">vsomeip/trace.hpp</text>
</a>
</g>
</g>
<!-- Node1&#45;&gt;Node8 -->
<g id="edge7" class="edge">
<title>Node1&#45;&gt;Node8</title>
<path fill="none" stroke="midnightblue" d="M579.6,-64C658.56,-51.64 780.26,-32.57 854.18,-21"/>
<polygon fill="midnightblue" stroke="midnightblue" points="854.95,-24.42 864.28,-19.41 853.86,-17.5 854.95,-24.42"/>
</g>
</g>
</svg>
